<?xml version="1.0" encoding="utf-8"?>
<!-- Generator: Adobe Illustrator 18.1.1, SVG Export Plug-In . SVG Version: 6.00 Build 0)  -->
<!DOCTYPE svg PUBLIC "-//W3C//DTD SVG 1.1//EN" "http://www.w3.org/Graphics/SVG/1.1/DTD/svg11.dtd">
<svg version="1.1" id="Layer_1" xmlns="http://www.w3.org/2000/svg" xmlns:xlink="http://www.w3.org/1999/xlink" x="0px" y="0px"
	 width="638px" height="35.6px" viewBox="-257.9 315 638 35.6" enable-background="new -257.9 315 638 35.6" xml:space="preserve">
<symbol  id="_x2E_i-10-white" viewBox="-11.6 -12.7 23.3 25.4">
	<path fill="#FFFFFF" d="M-9.5,8.8l-1.7,1.7c-0.5,0.5-0.5,1.3,0,1.8s1.3,0.5,1.8,0l1.7-1.7c0.5-0.5,0.5-1.3,0-1.8
		c-0.2-0.2-0.6-0.4-0.9-0.4S-9.3,8.5-9.5,8.8z M-11.3-5c-0.5,0.5-0.5,1.3,0,1.8l1.7,1.7c0.5,0.5,1.3,0.5,1.8,0s0.5-1.3,0-1.8L-9.4-5
		c-0.2-0.2-0.6-0.4-0.9-0.4S-11-5.3-11.3-5z M-3.6-5.8c0,0.3,0,0.5,0,0.5C-3.9-4-4.5-3-5.8-1.3c-1.3,1.7-2,3-2,5
		c0,4.2,3.4,7.8,7.8,7.8s7.8-3.6,7.8-7.8c0-1.9-0.6-3.3-2-5C4.4-3,3.8-4,3.6-5.3c0,0,0-0.2-0.1-0.5H-3.6z M-2.9-10.2
		c-0.2,0.6-0.4,1.7-0.5,2.6h6.8c-0.1-0.9-0.3-2-0.5-2.6c-0.5-1.7-1.2-2.6-2.9-2.6S-2.4-11.8-2.9-10.2z M7.7,8.8
		c-0.5,0.5-0.5,1.3,0,1.8l1.7,1.7c0.5,0.5,1.3,0.5,1.8,0s0.5-1.3,0-1.8L9.5,8.8C9.3,8.5,8.9,8.4,8.6,8.4S7.9,8.5,7.7,8.8z M9.4-5
		L7.7-3.3C7.2-2.8,7.2-2,7.7-1.5s1.3,0.5,1.8,0l1.7-1.7c0.5-0.5,0.5-1.3,0-1.8c-0.2-0.2-0.6-0.4-0.9-0.4S9.7-5.3,9.4-5z"/>
</symbol>
<symbol  id="_x2E_i-charity-white" viewBox="-10.3 -12.8 20.5 25.7">
	<path fill="#FFFFFF" d="M2.6-11.2C2.3-10.9,1.3-9.9,0-8.6c-1.3-1.3-2.3-2.3-2.6-2.6c-1.7-1.7-4.2-1.8-6-1.5c-2,0.3-2,1.6-1.2,2.4
		L-4-4.6C-5.3-3.4-6.4-2.3-7-1.7c-0.9,0.9-2.3,2.5-2.4,4.2c-0.2,2.9,2.1,8,4.8,9.5c1.3,0.7,3.2,0.9,4.6,0.9s3.3-0.3,4.6-0.9
		c2.7-1.5,5-6.5,4.8-9.5C9.3,0.8,7.8-0.9,7-1.7C6.7-2,6.3-2.4,5.9-2.8l-4,4.1L4,3.4C5,4.4,4.6,5.6,4.6,6.3C4.6,6.3,2.5,7,0,7
		s-4.6-0.7-4.6-0.7C-4.6,5.6-5,4.4-4,3.4c1.3-1.3,13-13,13.8-13.8c0.8-0.8,0.8-2-1.2-2.4C6.8-13,4.3-12.9,2.6-11.2z"/>
</symbol>
<symbol  id="_x2E_i-close-grey" viewBox="-8.6 -8.6 17.2 17.3">
	<path fill="#6B7482" d="M8.6-5.3c0-0.1-0.1-0.2-0.1-0.3L5.6-8.5C5.5-8.6,5.4-8.6,5.3-8.6S5.1-8.5,5-8.5l-5,5l-5-5
		c-0.1-0.1-0.2-0.1-0.3-0.1c-0.1,0-0.2,0.1-0.3,0.1l-2.9,2.9c-0.1,0.1-0.1,0.2-0.1,0.3S-8.5-5.1-8.5-5l5,5l-5,5
		c-0.1,0.1-0.1,0.2-0.1,0.3s0.1,0.2,0.1,0.3l2.9,2.9c0.1,0.1,0.2,0.2,0.3,0.2c0.1,0,0.2-0.1,0.3-0.1l5-5l5,5
		c0.1,0.1,0.2,0.1,0.3,0.1s0.2-0.1,0.3-0.1l2.9-2.9c0.1-0.1,0.1-0.2,0.1-0.3S8.5,5.2,8.5,5.1l-5-5l5-5C8.6-5.1,8.6-5.2,8.6-5.3z
		 M8.6-5.3c0-0.1-0.1-0.2-0.1-0.3L5.6-8.5C5.5-8.6,5.4-8.6,5.3-8.6S5.1-8.5,5-8.5l-5,5l-5-5c-0.1-0.1-0.2-0.1-0.3-0.1
		c-0.1,0-0.2,0.1-0.3,0.1l-2.9,2.9c-0.1,0.1-0.1,0.2-0.1,0.3S-8.5-5.1-8.5-5l5,5l-5,5c-0.1,0.1-0.1,0.2-0.1,0.3s0.1,0.2,0.1,0.3
		l2.9,2.9c0.1,0.1,0.2,0.2,0.3,0.2c0.1,0,0.2-0.1,0.3-0.1l5-5l5,5c0.1,0.1,0.2,0.1,0.3,0.1s0.2-0.1,0.3-0.1l2.9-2.9
		c0.1-0.1,0.1-0.2,0.1-0.3S8.5,5.2,8.5,5.1l-5-5l5-5C8.6-5.1,8.6-5.2,8.6-5.3z"/>
</symbol>
<symbol  id="_x2E_i-email-grey" viewBox="-14.9 -12.8 29.8 25.6">
	<path opacity="0.2" enable-background="new    " d="M14,11.8c-4.6,0.7-9.3,1-14,1s-9.4-0.3-14-1c-0.5,0-0.9-0.5-0.9-1V9.2
		c0.1-0.3,0.3-1,1-1.7l11.4-8.6C-1.9-1.6-1-1.8-0.1-1.8s1.8,0.2,2.4,0.7l11.4,8.6c0.8,0.8,1.1,1.4,1.2,1.8v1.5
		C14.9,11.3,14.5,11.7,14,11.8z"/>
	<path opacity="0.2" enable-background="new    " d="M0.1-5.3c-1.6,0-3.2,0.4-4.4,1.3l-10.6,8.1v-14.9c0-0.5,0.4-0.9,0.9-1
		c4.6-0.7,9.3-1,14-1s9.4,0.3,14,1c0.5,0,0.9,0.5,0.9,1V4.1L4.5-4C3.2-4.9,1.7-5.3,0.1-5.3z"/>
</symbol>
<symbol  id="_x2E_i-flexible-white" viewBox="-12.5 -12.9 25 25.9">
	<path fill="#FFFFFF" d="M-11.1,4.1L-11.7,5c-1.7,2.4-0.6,4.9,1.8,6.6c1.2,0.9,2.4,1.4,3.6,1.4c1.2,0,2.3-0.5,3.2-1.7l0.6-0.8
		C-6.1,9.6-9.3,7.3-11.1,4.1z M0-12.9c-6,0-10.8,4.8-10.8,10.8S-6,8.6,0,8.6c6,0,10.8-4.8,10.8-10.8S6-12.9,0-12.9z M5.3-7.4
		C6.7-6,7.5-4.1,7.5-2.2S6.7,1.7,5.3,3.1S2,5.3,0,5.3c-2,0-3.9-0.8-5.3-2.2c-1.4-1.4-2.2-3.3-2.2-5.3S-6.7-6-5.3-7.4
		C-3.9-8.9-2-9.6,0-9.6C2-9.6,3.9-8.9,5.3-7.4z M1.3-2.6c0-0.2-0.1-0.5-0.2-0.7l-2.3-3.3c-0.3-0.5-1-0.6-1.5-0.3
		C-3.1-6.6-3.3-6-3-5.5l1.8,3.2l0.2,4.4c0,0.6,0.5,1,1.1,1c0.5,0,1-0.5,1-1L1.3-2.6z M2.5,10.4L3,11.2c0.9,1.2,2,1.7,3.2,1.7
		c1.2,0,2.4-0.5,3.6-1.4c2.4-1.7,3.5-4.2,1.8-6.6l-0.6-0.8C9.3,7.3,6.1,9.6,2.5,10.4z"/>
</symbol>
<symbol  id="_x2E_i-gbl-logo-white" viewBox="-85.5 -15 170.9 30.1">
	<g>
		<path fill="#FFFFFF" d="M-73.8-6.6c-1.1-1.2-2.5-1.8-4.3-1.8c-1.2,0-2.4,0.3-3.3,0.8c0.1-0.4,0.1-0.8,0.1-1.3v-5l-4-1.1V3.6
			c0,2.1,0,2.7-0.2,4l3.7,0.7c0.1-0.6,0.2-1,0.2-1.5c0.7,0.9,2.3,1.5,3.9,1.5c1.1,0,2.3-0.4,3.1-1c1.7-1.2,3-3.2,3-6.9
			C-71.6-3-72.1-4.8-73.8-6.6z M-76.5,3.5c-0.3,0.9-1,1.3-2,1.3s-2-0.4-2.8-1.2v-7.8c0.6-0.5,1.5-0.9,2.3-0.9c2.1,0,2.9,1.4,2.9,5.1
			C-76.1,1.5-76.2,2.7-76.5,3.5z M-65.5-1.4v-0.1c0-2.5,1.2-3.9,3.4-3.9c1.4,0,2.8,0.5,4.1,1.6l1.6-2.5c-1.8-1.5-3.8-2.2-6-2.2
			c-4.6,0-7.5,3.2-7.5,8.3c0,2.9,0.6,4.8,2,6.3c1.3,1.5,2.9,2.2,5,2.2c1.8,0,3.6-0.6,4.6-1.7c1.5-1.5,2.1-3.7,2.1-7v-1
			C-56.2-1.4-65.5-1.4-65.5-1.4z M-60.6,1.9c0,1.2-0.1,1.8-0.5,2.4s-1,0.9-1.8,0.9c-1.6,0-2.5-1.2-2.5-3.5V1.6h4.8
			C-60.6,1.6-60.6,1.9-60.6,1.9z M-43-7.1c-1.1-0.9-2.2-1.2-3.5-1.2c-1.6,0-2.7,0.5-3.6,1.5c-0.1-0.6-0.2-0.7-0.4-1.2h-3.7
			c0.3,0.7,0.4,1.2,0.4,3.4v14.8c0,2-0.1,3-0.3,3.9l4.3,1c0.1-1.1,0.2-1.7,0.2-2.8V8.5c0-0.5,0-1.2-0.1-1.4c0.8,0.9,1.9,1.3,3.4,1.3
			c3.9,0,6.3-3.1,6.3-8.1C-40-3-41-5.5-43-7.1z M-45,2.9c-0.3,1.4-1.2,2-2.3,2s-1.8-0.7-2.4-1.3v-7.4c0.6-0.5,1.2-1,2.3-1
			c1,0,1.7,0.4,2,1.2c0.4,0.9,0.5,1.7,0.5,3.7C-44.8,1.6-44.8,2.2-45,2.9z M-26.7-7.1c-1.1-0.9-2.2-1.2-3.5-1.2
			c-1.6,0-2.7,0.5-3.6,1.5C-33.9-7.4-34-7.5-34.2-8h-3.7c0.3,0.7,0.4,1.2,0.4,3.4v14.8c0,2-0.1,3-0.3,3.9l4.3,1
			c0.1-1.1,0.2-1.7,0.2-2.8V8.5c0-0.5,0-1.2-0.1-1.4c0.8,0.9,1.9,1.3,3.4,1.3c3.9,0,6.3-3.1,6.3-8.1C-23.7-3-24.7-5.5-26.7-7.1z
			 M-28.6,2.9c-0.3,1.4-1.2,2-2.3,2s-1.8-0.7-2.4-1.3v-7.4c0.6-0.5,1.2-1,2.3-1c1,0,1.7,0.4,2,1.2c0.4,0.9,0.5,1.7,0.5,3.7
			C-28.4,1.6-28.5,2.2-28.6,2.9z M-17.1-8.4c-1.8,0-3.2,0.8-3.7,2.2c-0.3,0.8-0.4,1.3-0.4,3.6V9.3c0,2.1-0.1,3.4-0.2,4.8l4.3,1
			c0.2-0.9,0.2-1.9,0.2-4.2V-1.6c0-2.7,0-3.1,0.3-3.6c0.2-0.3,0.5-0.4,0.8-0.4c0.2,0,0.2,0,0.5,0.1l0.7-2.5
			C-15.3-8.3-16.2-8.4-17.1-8.4z M-9.7-1.4v-0.1c0-2.5,1.2-3.9,3.4-3.9c1.4,0,2.8,0.5,4.1,1.6l1.6-2.5c-1.8-1.5-3.8-2.2-6-2.2
			c-4.6,0-7.5,3.2-7.5,8.3c0,2.9,0.6,4.8,2,6.3c1.3,1.5,2.9,2.2,5,2.2c1.8,0,3.6-0.6,4.6-1.7c1.5-1.5,2.1-3.7,2.1-7v-1
			C-0.4-1.4-9.7-1.4-9.7-1.4z M-4.8,1.9c0,1.2-0.1,1.8-0.5,2.4s-1,0.9-1.8,0.9c-1.6,0-2.5-1.2-2.5-3.5V1.6h4.8V1.9z M11.5-13.9
			c-2.2,0-4,1.3-4,4.6v5.4c0,1.9-2.6,2.2-3.4,2.2v3.6c0.8,0,3.4,0.2,3.4,2.2v5.2c0,3.2,1.7,4.5,4,4.5h3.3v-3.6h-1.5
			c-1.9,0-2-1.2-2-2v-5c0-2.9-1.8-3.1-3.1-3.2v-0.1c1.3-0.1,3.1-0.3,3.1-3.2v-5.1c0-0.8,0.1-2,2-2h1.5v-3.5H11.5z M25.9-7.4
			c-1.1-0.7-2.4-1-3.9-1c-4.4,0-7,3.1-7,8.2c0,3.7,1.4,6.1,3.3,7.4c1.1,0.7,2.6,1.2,4,1.2c1.1,0,2.2-0.2,3.1-0.7
			C26,7.4,26.3,7.2,27,6.6l-2-2.7c-0.8,0.8-1.7,1.2-2.5,1.2c-1.9,0-2.7-1.6-2.7-5.4c0-2.1,0.3-3.3,0.8-4c0.4-0.6,1.2-0.9,1.9-0.9
			c1,0,1.8,0.4,2.9,1.3l0.2,0.2l1.9-2.5C26.7-6.8,26.5-7.1,25.9-7.4z M40.4-6.2c-1.2-1.4-2.8-2.2-5.3-2.2c-4.3,0-7.2,3.2-7.2,8.3
			c0,5,2.9,8.4,7.2,8.4c2.3,0,4.1-0.8,5.4-2.4c1.3-1.5,1.8-3.2,1.8-5.8C42.4-2.7,41.7-4.6,40.4-6.2z M37,4.3
			c-0.4,0.5-1.1,0.8-1.8,0.8c-1,0-1.8-0.6-2.2-1.6c-0.3-0.8-0.4-2-0.4-3.6c0-1.8,0.2-3.2,0.5-4c0.4-0.9,1.3-1.3,2.1-1.3
			c1.8,0,2.6,1.6,2.6,5.4C37.8,2.2,37.5,3.6,37,4.3z M54.6-8c-0.1,0.2-0.2,0.5-0.2,0.9c-1-0.9-2.2-1.3-3.7-1.3
			c-4.1,0-6.6,3.2-6.6,8.1c0,5,2.8,8.4,6.8,8.4c1.2,0,2.1-0.3,2.8-0.9c-0.1,0.3-0.1,1.4-0.1,2.4v5.5l4.1-0.7V-2.2
			c0-3.9,0.3-5.2,0.6-5.8H54.6L54.6-8z M53.7,3.7c-0.8,0.7-1.5,1-2.3,1c-1.9,0-2.7-1.6-2.7-5.1c0-3.4,0.7-4.6,2.9-4.6
			c0.8,0,1.7,0.5,2.1,1V3.7z M64.9-1.4v-0.1c0-2.5,1.2-3.9,3.4-3.9c1.4,0,2.8,0.5,4.1,1.6L74-6.3c-1.8-1.5-3.8-2.2-6-2.2
			c-4.6,0-7.5,3.2-7.5,8.3c0,2.9,0.6,4.8,2,6.3c1.3,1.5,2.9,2.2,5,2.2c1.8,0,3.6-0.6,4.6-1.7c1.5-1.5,2.1-3.7,2.1-7v-1L64.9-1.4
			L64.9-1.4z M69.8,1.9c0,1.2-0.1,1.8-0.5,2.4s-1,0.9-1.8,0.9C65.9,5.2,65,4,65,1.7V1.6h4.8V1.9z M82-4v-5.4c0-3.2-1.7-4.5-4-4.5
			h-3.3v3.6h1.5c1.9,0,2,1.2,2,2v5c0,2.9,1.8,3.1,3.1,3.2V0c-1.3,0.1-3.1,0.3-3.1,3.2v5c0,0.8-0.1,2-2,2h-1.5v3.6h3.4
			c2.1,0,3.9-1.3,3.9-4.6V3.8c0-1.9,2.5-2.2,3.4-2.2v-3.5C84.5-1.9,82-2.1,82-4L82-4z"/>
	</g>
</symbol>
<symbol  id="_x2E_i-github-pink" viewBox="-11.3 -11 22.6 22.1">
	<path fill="#EE4F7E" d="M0,11c-6.2,0-11.3-5-11.3-11.3c0-5,3.2-9.2,7.7-10.7c0.6-0.1,0.8,0.2,0.8,0.5s0,1,0,1.9
		C-5.9-9.2-6.6-7-6.6-7c-0.5,1.3-1.3,1.6-1.3,1.6c-1,0.7,0.1,0.7,0.1,0.7c1.1-0.1,1.7-1.2,1.7-1.2c1-1.7,2.6-1.2,3.3-0.9
		C-2.7-6-2.4-5.5-2.1-5.3C-4.6-5-7.2-4-7.2,0.3c0,1.2,0.4,2.2,1.2,3c-0.1,0.3-0.5,1.4,0.1,3c0,0,0.9,0.3,3.1-1.2
		C-1.9,5.4-1,5.5,0,5.5s1.9-0.1,2.8-0.4C5,6.6,5.9,6.3,5.9,6.3c0.6-1.6,0.2-2.7,0.1-3c0.7-0.8,1.2-1.8,1.2-3C7.2-4,4.6-5,2-5.3
		c0.4-0.3,0.8-1,0.8-2.1c0-1.5,0-2.7,0-3.1c0-0.3,0.2-0.7,0.8-0.5c4.5,1.5,7.7,5.7,7.7,10.7C11.3,6,6.2,11,0,11z"/>
</symbol>
<symbol  id="_x2E_i-gym-white" viewBox="-13.5 -9.9 26.9 19.7">
	<path fill="#FFFFFF" d="M-6.3,8V-8.1c0-0.8-0.6-1.5-1.4-1.7c-0.3-0.1-0.6-0.1-0.9-0.1c-0.3,0-0.6,0-0.9,0.1
		c-0.8,0.2-1.4,0.8-1.4,1.7v1.9c-0.1,0-0.3-0.1-0.4-0.1c-0.3,0-0.5,0-0.7,0.1c-0.9,0.1-1.5,0.8-1.5,1.7v8.9c0,0.9,0.6,1.6,1.5,1.8
		c0.4,0.1,0.8,0.1,1.2,0V8c0,0.8,0.6,1.5,1.4,1.7c0.6,0.1,1.2,0.1,1.7,0C-6.8,9.6-6.3,8.9-6.3,8z M-4.5,2.7h9v-5.4h-9V2.7z M8.5-9.9
		c-0.3,0-0.6,0-0.9,0.1C6.8-9.6,6.3-8.9,6.3-8.1V8c0,0.8,0.6,1.5,1.4,1.7c0.6,0.1,1.2,0.1,1.7,0c0.8-0.2,1.4-0.9,1.4-1.7V6.2
		c0.4,0,0.8,0.1,1.2,0c0.9-0.1,1.5-0.9,1.5-1.8v-8.9c0-0.9-0.6-1.6-1.5-1.7c-0.3-0.1-0.5-0.1-0.7-0.1c-0.1,0-0.3,0-0.4,0.1v-1.9
		c0-0.8-0.6-1.5-1.4-1.7C9.1-9.8,8.8-9.9,8.5-9.9z"/>
</symbol>
<symbol  id="_x2E_i-holidays-white" viewBox="-12.9 -12.5 25.9 25">
	<path fill="#FFFFFF" d="M12.9-2.6c0-2.6-0.3-5.1-0.9-7.8c-0.2-0.7-0.7-1.2-1.4-1.3C7.1-12.2,3.5-12.5,0-12.5s-7.1,0.3-10.6,0.8
		c-0.7,0.1-1.3,0.6-1.4,1.3c-0.6,2.7-0.9,5.2-0.9,7.8c0,2.6,0.3,5.1,0.9,7.7c0.2,0.8,0.9,1.3,1.7,1.3h3.4v3.8c0,0.8,0.6,1.5,1.4,1.7
		c1.8,0.3,3.6,0.5,5.5,0.5c1.8,0,3.7-0.2,5.5-0.5c0.8-0.2,1.4-0.9,1.4-1.7V6.5h3.4c0.8,0,1.5-0.5,1.7-1.3C12.6,2.6,12.9,0,12.9-2.6z
		 M-0.3-2.9L-7-0.8c-0.2,0.1-0.4,0.1-0.6-0.1C-7.9-1-8-1.2-8.1-1.4l-1.2-4c-0.1-0.5,0.1-0.9,0.6-1.1l6.7-2.1c0.1,0,0.2,0,0.3,0
		c0.1,0,0.3,0,0.4,0.1C-1.2-8.4-1.1-8.2-1-8l1.2,4C0.4-3.5,0.1-3-0.3-2.9z M3.4,8.9c-2.6,0.3-4.3,0.3-6.9,0V6.5h6.9V8.9z M9.5-0.4
		c0,1.4-1.2,2.6-2.6,2.6S4.3,1,4.3-0.4S5.5-3,6.9-3S9.5-1.9,9.5-0.4z"/>
</symbol>
<symbol  id="_x2E_i-location-grey" viewBox="-11.7 -16 23.5 32">
	<path opacity="0.2" enable-background="new    " d="M0,16c-6.4,0-11.7-5.5-11.7-12.3c0-9.2,9.9-18.8,9.9-18.8
		c1.4-1.2,2.2-1.3,3.6,0c0,0,10,9.6,10,18.8C11.8,10.5,6.4,16,0,16z M0-1.2c-3,0-5.5,2.4-5.5,5.5S-3.1,9.9,0,9.9s5.6-2.5,5.6-5.6
		S3-1.2,0-1.2z"/>
</symbol>
<symbol  id="_x2E_i-menu-grey" viewBox="-9.5 -9 19 18">
	<path fill="#6B7482" d="M9.5,5.1c0-0.2-0.2-0.4-0.4-0.4H-9.1c-0.2,0-0.4,0.2-0.4,0.4v3.5C-9.5,8.8-9.3,9-9.1,9H9.1
		c0.2,0,0.4-0.2,0.4-0.4V5.1z M9.5-1.8c0-0.2-0.2-0.4-0.4-0.4H-9.1C-9.3-2.1-9.5-2-9.5-1.8v3.5c0,0.2,0.2,0.4,0.4,0.4H9.1
		c0.2,0,0.4-0.2,0.4-0.4V-1.8z M9.5-8.6C9.5-8.8,9.3-9,9.1-9H-9.1c-0.2,0-0.4,0.2-0.4,0.4v3.5c0,0.2,0.2,0.4,0.4,0.4H9.1
		c0.2,0,0.4-0.2,0.4-0.4V-8.6z"/>
</symbol>
<symbol  id="_x2E_i-pay-white" viewBox="-12.9 -12.9 25.8 25.8">
	<path fill="#FFFFFF" d="M12.9-0.6v-3c0-0.1-0.1-0.2-0.1-0.3c-0.1-0.1-1.1-2.6-4.7-4.2C8-8.3,7.9-8.3,7.7-8.4l0.5-1.8
		C8.4-11,7.9-12,6.9-12.2l-2.5-0.6c-0.9-0.2-1.8,0.3-2.1,1.2c0,0-0.4,1.7-0.4,1.7c-1-0.2-1.9-0.3-2.8-0.3c-0.7,0-1.4,0.1-1.9,0.2
		c0,0-0.5-1.6-0.5-1.7c-0.3-0.8-1.2-1.2-2-1l-2.6,0.7c-0.9,0.3-1.5,1.2-1.2,2.2l0.8,2.7c-1.1,1.1-1.8,2.5-2.1,4
		c-0.6,0.3-1.2,0.6-1.8,1.5c-1,1.5-0.9,3.8,0.2,5.4c0.5,0.8,1.6,1.1,2.5,0.5c0.3-0.2,0.9-0.6,0.8-1.5C-7,4.7-4.1,6-0.9,6
		c2.2,0,4.2-0.6,5.8-1.6l2,3.8c0.2,0.3,0.5,0.5,0.9,0.4c0.4-0.1,0.6-0.4,0.7-0.7c0.9-5.1,4-7.9,4-7.9C12.8-0.1,12.9-0.4,12.9-0.6z
		 M-6,6.9C-6,7.2-6.1,7.4-6.1,7.8c0,2.9,2.3,5.1,5.2,5.1c2.9,0,5.2-2.3,5.2-5.1c0-0.4,0-0.5-0.1-0.9C1.1,8.2-2.6,8.3-6,6.9z M6.1,1
		c-1,0-1.8-0.8-1.8-1.8c0-1,0.8-1.8,1.8-1.8s1.8,0.8,1.8,1.8C7.9,0.2,7,1,6.1,1z"/>
</symbol>
<symbol  id="_x2E_i-phone-grey" viewBox="-15 -15 30 29.9">
	<path opacity="0.2" enable-background="new    " d="M14.4-7.2L7-3.5c0,0-0.4,0.2-0.6,0.2C6-3.3,5.7-3.4,5.5-3.7L2.4-6.4
		C2.1-6.8,1.5-6.9,1.1-6.6c-1.4,0.9-2.9,2.1-4.2,3.4S-5.5-0.5-6.4,1c-0.3,0.4-0.2,0.9,0.1,1.3l3.2,3.1C-2.9,5.7-2.7,6-2.7,6.3
		c0,0.2-0.1,0.4-0.2,0.6L-7,14.3c-0.2,0.4-0.6,0.6-1,0.6c-1.8-0.1-3.8-0.7-5-1.9c-4.1-4.2-1.6-13.5,5.5-20.6
		C-2.8-12.4,2.9-15,7.4-15c2.2,0,4.1,0.6,5.5,2c1.2,1.1,2,3,2.1,4.8C15-7.8,14.8-7.4,14.4-7.2z"/>
</symbol>
<symbol  id="_x2E_i-snacks-white" viewBox="-9.5 -12.4 18.9 24.7">
	<path fill="#FFFFFF" d="M-2.5,0.2c0.4-2.8,1-7.2,1-9.9c0-1.4-1.3-2.6-3-2.6s-3,1.3-3,2.6c0,2.7,0.6,7.1,1,9.9
		c-2.7,0.9-3,2.9-2.9,3.9l0.8,6.7c0.1,0.4,0.5,0.8,0.9,0.7c0.4-0.1,0.7-0.4,0.7-0.8V4.9h1.6v5.8c0,0.5,0.4,0.8,0.8,0.8
		s0.8-0.4,0.8-0.8V4.9h1.6v5.8c0,0.5,0.4,0.8,0.8,0.8c0.4,0,0.8-0.3,0.8-0.7l0.8-6.7C0.5,2.9,0,1.1-2.5,0.2z M9.5,9.9V-9.9
		c0-1.6-1.1-2.5-2.8-2.5s-2.8,0.8-2.8,2.5c0,1.8,0.5,4.4,0.9,6.9c-1,0.4-2,1.3-2,3c0,2.5,0.9,7.6,1.7,9.9c0.6,1.7,1.7,2.5,2.8,2.5
		C8.5,12.4,9.5,11.3,9.5,9.9z"/>
</symbol>
<symbol  id="_x2E_i-social-white" viewBox="-12.5 -12.9 25 25.9">
	<path fill="#FFFFFF" d="M-9-12.9c-0.7,0-1.3,0.4-1.6,1.1c-1.5,3.6-1.9,7.6-1.9,10.7c0,1.1,0.2,2.2,0.5,3.3c0.2,0.8,0.9,1.3,1.7,1.3
		h3.9V0.9c0-2.6-0.9-3.4-0.9-5.2c0-3.7,5.2-3.7,5.2,0C-2.1-2.6-3-1.7-3,0.9v2.6h8.6c2.1,0,4.1-0.6,5.4-1.9c1.1-1.2,1.6-2.8,1.5-4.7
		c-0.2-4.3-4.3-7.1-8.4-7.7c-0.1-0.4-0.2-0.7-0.4-1c-0.3-0.6-0.9-1.1-1.6-1.1H-9z M-11.6,5.2c-0.3,3.4,2.5,6.3,6,6
		c1.2,1.1,2.9,1.7,4.6,1.7c3.7,0,6.7-2.9,6.7-6.5c0-0.4,0-0.9-0.1-1.3H3.1c0,0,0.1,0.5,0.1,1.3c0,2.2-1.9,3.9-4.2,3.9
		c-1.2,0-2.4-0.5-3.2-1.4C-4.5,8.6-5,8.5-5.4,8.6c-0.2,0.1-0.5,0.1-0.6,0.1c-1.5,0-3.3-1.3-3-3.5H-11.6z M9.1-3C9.3,0,7,0.2,5.4,0.1
		C5.7-2,5.7-4.3,5.1-7.1C7.1-6.4,9-5.1,9.1-3z"/>
</symbol>
<symbol  id="_x2E_i-twitter-pink" viewBox="-13.1 -10.5 26.1 21">
	<path fill="#EE4F7E" d="M10.3,5.3V4.6c0-7-5.4-15.1-15.2-15.1c-3,0-5.8,0.7-8.2,2.2c0.4-0.1,0.8-0.1,1.3-0.1c2.5,0,4.8,1.1,6.6,2.5
		c-2.3,0-4.3,1.6-5,3.7c0.3-0.1,0.7-0.1,1-0.1c0.5,0,1,0.1,1.4,0.2c-2.3,0.4-4.1,2.6-4.1,5.2v0.1c0.7-0.5,1.5-0.7,2.4-0.7
		C-11,3.4-11.9,5-11.9,6.9c0,1,0.3,1.8,0.7,2.6c2.7-3.2,6.6-5.2,11-5.4c-0.1,0.4-0.1,0.8-0.1,1.2c0,2.8,2.3,5.2,5.3,5.2
		c1.5,0,2.9-0.7,3.9-1.7c1.2,0.2,2.3,0.7,3.4,1.3c-0.4-1.2-1.2-2.3-2.3-2.9c1,0.1,2,0.4,3,0.8C12.3,6.9,11.4,6,10.3,5.3L10.3,5.3z"
		/>
</symbol>
<symbol  id="_x2E_i-vimeo-pink" viewBox="-12 -10.5 24 21">
	<path fill="#EE4F7E" d="M8.5,10.5c2,0,3.5-1.6,3.5-4.1C12,0,2.5-10.5-0.7-10.5c-2.8,0-3.8,3-4.3,4.5l-3,9.5c-0.4,1.2-1,1.5-3,0
		l-1,1.2c0,0,4.5,5.8,7.5,5.8S-1.4,6-1,3.5S0.2-3,1.2-3S5,1.5,5,3.5C5,5,4,6,2,5C3,9,6.5,10.5,8.5,10.5z"/>
</symbol>
<use xlink:href="#_x2E_i-location-grey"  width="23.5" height="32" x="-11.7" y="-16" transform="matrix(0.9988 0 0 -0.9988 63.4567 331.1993)" overflow="visible"/>
<use xlink:href="#_x2E_i-email-grey"  width="29.8" height="25.6" x="-14.9" y="-12.8" transform="matrix(1 0 0 -1 130.1569 327.98)" overflow="visible"/>
<use xlink:href="#_x2E_i-phone-grey"  width="30" height="29.9" x="-15" y="-15" transform="matrix(1 0 0 -1 95.2696 329.9802)" overflow="visible"/>
<use xlink:href="#_x2E_i-close-grey"  width="17.2" height="17.3" x="-8.6" y="-8.6" transform="matrix(1 0 0 -1 38.1569 323.7798)" overflow="visible"/>
<use xlink:href="#_x2E_i-gbl-logo-white"  width="170.9" height="30.1" x="-85.5" y="-15" transform="matrix(1 0 0 -1 -172.4998 330.1798)" overflow="visible"/>
<use xlink:href="#_x2E_i-twitter-pink"  width="26.1" height="21" x="-13.1" y="-10.5" transform="matrix(1 0 0 -1 -39.9998 325.58)" overflow="visible"/>
<use xlink:href="#_x2E_i-menu-grey"  width="19" height="18" x="-9.5" y="-9" transform="matrix(1 0 0 -1 15.057 324.08)" overflow="visible"/>
<use xlink:href="#_x2E_i-github-pink"  width="22.6" height="22.1" x="-11.3" y="-11" transform="matrix(0.9976 0 0 -0.9976 -10.7215 326.0796)" overflow="visible"/>
<use xlink:href="#_x2E_i-vimeo-pink"  width="24" height="21" x="-12" y="-10.5" transform="matrix(1 0 0 -1 -70.1 325.58)" overflow="visible"/>
<use xlink:href="#_x2E_i-flexible-white"  width="25" height="25.9" x="-12.5" y="-12.9" transform="matrix(1 0 0 -1 162.5493 328.1072)" overflow="visible"/>
<use xlink:href="#_x2E_i-holidays-white"  width="25.9" height="25" x="-12.9" y="-12.5" transform="matrix(1 0 0 -1 192.9688 327.6766)" overflow="visible"/>
<use xlink:href="#_x2E_i-snacks-white"  width="18.9" height="24.7" x="-9.5" y="-12.4" transform="matrix(1 0 0 -1 252.2706 327.5489)" overflow="visible"/>
<use xlink:href="#_x2E_i-charity-white"  width="20.5" height="25.7" x="-10.3" y="-12.8" transform="matrix(1 0 0 -1 366.0984 328.0253)" overflow="visible"/>
<use xlink:href="#_x2E_i-pay-white"  width="25.8" height="25.8" x="-12.9" y="-12.9" transform="matrix(1 0 0 -1 337.9227 328.0957)" overflow="visible"/>
<use xlink:href="#_x2E_i-social-white"  width="25" height="25.9" x="-12.5" y="-12.9" transform="matrix(1 0 0 -1 307.5117 328.1072)" overflow="visible"/>
<use xlink:href="#_x2E_i-10-white"  width="23.3" height="25.4" x="-11.6" y="-12.7" transform="matrix(1 0 0 -1 278.3804 327.8953)" overflow="visible"/>
<use xlink:href="#_x2E_i-gym-white"  width="26.9" height="19.7" x="-13.5" y="-9.9" transform="matrix(1 0 0 -1 224.349 325.0421)" overflow="visible"/>
</svg>
