<svg id="Layer_1" data-name="Layer 1" xmlns="http://www.w3.org/2000/svg" xmlns:xlink="http://www.w3.org/1999/xlink" viewBox="0 0 139.42 139.42"><defs><style>.cls-1{fill:#faad40;}.cls-2,.cls-6{fill:#db8928;}.cls-2{clip-path:url(#clip-path);}.cls-3{fill:#ed4f7e;}.cls-4{fill:#b23b5f;}.cls-5{fill:#484f59;}.cls-7{clip-path:url(#clip-path-2);}.cls-8{opacity:0.3;}.cls-9{fill:#1c74a0;}.cls-10{fill:#318a8d;}.cls-11{fill:#399;}.cls-12{fill:#43b9bc;}.cls-13{opacity:0.1;}.cls-14{fill:#fff;}</style><clipPath id="clip-path"><circle class="cls-1" cx="69.26" cy="90.57" r="21.49"/></clipPath><clipPath id="clip-path-2"><path class="cls-2" d="M69.26,113.06A22.49,22.49,0,1,1,91.75,90.57,22.52,22.52,0,0,1,69.26,113.06Zm0-43A20.49,20.49,0,1,0,89.75,90.57,20.51,20.51,0,0,0,69.26,70.08Z"/></clipPath></defs><title>vert-insurance-home</title><circle class="cls-3" cx="69.71" cy="69.71" r="66.71"/><path class="cls-4" d="M69.71,139.42a69.71,69.71,0,1,1,69.71-69.71A69.79,69.79,0,0,1,69.71,139.42ZM69.71,6a63.71,63.71,0,1,0,63.71,63.71A63.78,63.78,0,0,0,69.71,6Z"/><path class="cls-5" d="M46.23,108.94L46,108.83c-6.29-2.81-6.8-9.82-5.31-15,0.06-.2.09-0.31,0.09-0.31A2.26,2.26,0,0,1,45.05,95l0,0.14a13.4,13.4,0,0,0-.46,4.74,5.46,5.46,0,0,0,3.27,4.85,4.87,4.87,0,0,0,3.76.32c3.36-1.33,6-6.94,7.38-10.35l17.2-41a2.28,2.28,0,0,1,4.2,1.76l-17.2,41c-1.7,4.06-4.77,10.77-9.91,12.8A9.33,9.33,0,0,1,46.23,108.94Z"/><circle class="cls-1" cx="69.26" cy="90.57" r="21.49"/><path class="cls-6" d="M69.26,113.06A22.49,22.49,0,1,1,91.75,90.57,22.52,22.52,0,0,1,69.26,113.06Zm0-43A20.49,20.49,0,1,0,89.75,90.57,20.51,20.51,0,0,0,69.26,70.08Z"/><g class="cls-7"><rect class="cls-1" x="41.11" y="60.99" width="54.98" height="61.38"/><path class="cls-6" d="M98.09,124.37h-59V59h59v65.38Zm-55-4h51V63h-51v57.38Z"/></g><g class="cls-8"><path d="M92.86,18.53S71.09,23.21,53.5,61.19a20.35,20.35,0,0,0-8.1-17.27c-9.15-6.8-11-3.83-11-3.83S52.24,1.06,92.86,18.53Z"/></g><path class="cls-9" d="M116,25"/><path class="cls-10" d="M93.86,19.53S72.09,24.21,54.5,62.19a20.35,20.35,0,0,0-8.1-17.27c-9.15-6.8-11-3.83-11-3.83S53.24,2.06,93.86,19.53Z"/><path class="cls-11" d="M54.45,62.33S71,23.93,94.18,19.62c0,0,13.13,25.15-1.7,58.66,0,0-3.18-15.82-14.33-18.95S60.95,58.35,54.45,62.33Z"/><path class="cls-12" d="M120.68,77.34S138.12,43.2,94,19.54c0,0,12.22,22.12-1.7,58.66,0,0,7-8.58,16.31-6.56S120.68,77.34,120.68,77.34Z"/><ellipse class="cls-5" cx="94.81" cy="18.85" rx="3.42" ry="1.65" transform="translate(40.75 98.99) rotate(-67.24)"/><g class="cls-13"><path d="M60.22,104A17.33,17.33,0,0,0,64,94.16L62.48,94A0.64,0.64,0,0,1,62,93.17l0.15-.67A0.81,0.81,0,0,1,63,91.82l1.09,0.12c0-1.42.06-3.2,0.18-4.32,0.72-6.69,4.55-10,10.09-9.41a8.74,8.74,0,0,1,5.84,3.51,0.8,0.8,0,0,1-.19,1L77.3,85.42a0.83,0.83,0,0,1-1.14-.08,4.63,4.63,0,0,0-2.76-1.68c-1.17-.13-2.48,1-2.72,3.27-0.12,1.08.19,3.18,0.12,5.73L73.63,93a0.62,0.62,0,0,1,.48.82L74,94.5a0.83,0.83,0,0,1-.89.63l-2.51-.27A33.74,33.74,0,0,1,68.8,101l5.54,0.6a0.58,0.58,0,0,1,.44.82l-0.94,3.79a0.9,0.9,0,0,1-.85.68L60.54,105.5a0.64,0.64,0,0,1-.48-0.82Z"/></g><path class="cls-14" d="M58.68,101.89a17.33,17.33,0,0,0,3.8-9.81l-1.54-.17a0.64,0.64,0,0,1-.48-0.82l0.15-.67a0.81,0.81,0,0,1,.89-0.67l1.09,0.12c0-1.42.06-3.2,0.18-4.32,0.72-6.69,4.55-10,10.09-9.41a8.74,8.74,0,0,1,5.84,3.51,0.8,0.8,0,0,1-.19,1l-2.74,2.66a0.83,0.83,0,0,1-1.14-.08,4.63,4.63,0,0,0-2.76-1.68c-1.17-.13-2.48,1-2.72,3.27-0.12,1.08.19,3.18,0.12,5.73l2.83,0.31a0.62,0.62,0,0,1,.48.82l-0.16.71a0.83,0.83,0,0,1-.89.63L69,92.79a33.74,33.74,0,0,1-1.76,6.09l5.54,0.6a0.58,0.58,0,0,1,.44.82l-0.94,3.79a0.9,0.9,0,0,1-.85.68L59,103.43a0.64,0.64,0,0,1-.48-0.82Z"/></svg>