<svg xmlns="http://www.w3.org/2000/svg" width="331" height="374" viewBox="0 0 331 374">
  <defs>
    <filter id="a" width="200%" height="200%" x="-50%" y="-50%" filterUnits="objectBoundingBox">
      <feOffset dy="2" in="SourceAlpha" result="shadowOffsetOuter1"/>
      <feGaussianBlur stdDeviation="4.5" in="shadowOffsetOuter1" result="shadowBlurOuter1"/>
      <feColorMatrix values="0 0 0 0 0.419607843 0 0 0 0 0.454901961 0 0 0 0 0.509803922 0 0 0 0.3 0" in="shadowBlurOuter1" result="shadowMatrixOuter1"/>
      <feMerge>
        <feMergeNode in="shadowMatrixOuter1"/>
        <feMergeNode in="SourceGraphic"/>
      </feMerge>
    </filter>
    <filter id="b" width="200%" height="200%" x="-50%" y="-50%" filterUnits="objectBoundingBox">
      <feOffset dy="2" in="SourceAlpha" result="shadowOffsetOuter1"/>
      <feGaussianBlur stdDeviation="4.5" in="shadowOffsetOuter1" result="shadowBlurOuter1"/>
      <feColorMatrix values="0 0 0 0 0.419607843 0 0 0 0 0.454901961 0 0 0 0 0.509803922 0 0 0 0.3 0" in="shadowBlurOuter1" result="shadowMatrixOuter1"/>
      <feMerge>
        <feMergeNode in="shadowMatrixOuter1"/>
        <feMergeNode in="SourceGraphic"/>
      </feMerge>
    </filter>
  </defs>
  <g fill="none" fill-rule="evenodd" transform="translate(9 -1)">
    <path fill="#6B7482" d="M244.11506,316.303014 C243.115055,316.303014 242.265064,315.953017 241.56506,315.253014 C240.865057,314.55301 240.51506,313.703019 240.51506,312.703014 C240.51506,311.703009 240.865057,310.853017 241.56506,310.153014 L246.36506,305.353014 C247.065064,304.65301 247.915055,304.303014 248.91506,304.303014 C249.915065,304.303014 250.765057,304.65301 251.46506,305.353014 C252.165064,306.053017 252.51506,306.903009 252.51506,307.903014 C252.51506,308.903019 252.165064,309.75301 251.46506,310.453014 L246.66506,315.253014 C245.965057,315.953017 245.115065,316.303014 244.11506,316.303014 L244.11506,316.303014 Z M196.11506,316.303014 C195.115055,316.303014 194.265064,315.953017 193.56506,315.253014 L188.76506,310.453014 C188.065057,309.75301 187.71506,308.903019 187.71506,307.903014 C187.71506,306.903009 188.065057,306.053017 188.76506,305.353014 C189.465064,304.65301 190.315055,304.303014 191.31506,304.303014 C192.315065,304.303014 193.165057,304.65301 193.86506,305.353014 L198.66506,310.153014 C199.365064,310.853017 199.71506,311.703009 199.71506,312.703014 C199.71506,313.703019 199.365064,314.55301 198.66506,315.253014 C197.965057,315.953017 197.115065,316.303014 196.11506,316.303014 L196.11506,316.303014 Z M230.01506,355.903014 L210.14006,355.903014 L210.06506,354.478014 C209.765059,352.678005 209.165065,350.978022 208.26506,349.378014 C207.365056,347.778006 205.94007,345.753026 203.99006,343.303014 C202.090051,340.853001 200.702565,338.590524 199.82756,336.515514 C198.952556,334.440503 198.51506,332.103027 198.51506,329.503014 C198.51506,323.602984 200.615039,318.528035 204.81506,314.278014 C209.015081,310.027992 214.11503,307.903014 220.11506,307.903014 C226.11509,307.903014 231.215039,310.027992 235.41506,314.278014 C239.615081,318.528035 241.71506,323.602984 241.71506,329.503014 C241.71506,332.103027 241.277565,334.440503 240.40256,336.515514 C239.527556,338.590524 238.14007,340.853001 236.24006,343.303014 C234.290051,345.753026 232.865065,347.778006 231.96506,349.378014 C231.065056,350.978022 230.465062,352.678005 230.16506,354.478014 C230.11506,354.828015 230.065061,355.303011 230.01506,355.903014 L230.01506,355.903014 Z M248.91506,354.703014 C247.915055,354.703014 247.065064,354.353017 246.36506,353.653014 L241.56506,348.853014 C240.865057,348.15301 240.51506,347.303019 240.51506,346.303014 C240.51506,345.303009 240.865057,344.453017 241.56506,343.753014 C242.265064,343.05301 243.115055,342.703014 244.11506,342.703014 C245.115065,342.703014 245.965057,343.05301 246.66506,343.753014 L251.46506,348.553014 C252.165064,349.253017 252.51506,350.103009 252.51506,351.103014 C252.51506,352.103019 252.165064,352.95301 251.46506,353.653014 C250.765057,354.353017 249.915065,354.703014 248.91506,354.703014 L248.91506,354.703014 Z M191.31506,354.703014 C190.315055,354.703014 189.465064,354.353017 188.76506,353.653014 C188.065057,352.95301 187.71506,352.103019 187.71506,351.103014 C187.71506,350.103009 188.065057,349.253017 188.76506,348.553014 L193.56506,343.753014 C194.265064,343.05301 195.115055,342.703014 196.11506,342.703014 C197.115065,342.703014 197.965057,343.05301 198.66506,343.753014 C199.365064,344.453017 199.71506,345.303009 199.71506,346.303014 C199.71506,347.303019 199.365064,348.15301 198.66506,348.853014 L193.86506,353.653014 C193.165057,354.353017 192.315065,354.703014 191.31506,354.703014 L191.31506,354.703014 Z M220.11506,375.103014 C217.815049,375.103014 216.065066,374.540519 214.86506,373.415514 C213.665054,372.290508 212.715064,370.478026 212.01506,367.978014 C211.465058,366.378006 211.015062,363.95303 210.66506,360.703014 L229.49006,360.703014 C229.140059,363.90303 228.715063,366.328005 228.21506,367.978014 C227.465057,370.478026 226.502566,372.290508 225.32756,373.415514 C224.152555,374.540519 222.415072,375.103014 220.11506,375.103014 L220.11506,375.103014 Z" opacity=".1" transform="rotate(-14 221.915 339.703)"/>
    <path fill="#6B7482" d="M66.8047865,169.684367 C65.8047815,169.684367 64.95479,169.334371 64.2547865,168.634367 C63.554783,167.934364 63.2047865,167.084372 63.2047865,166.084367 C63.2047865,165.084362 63.554783,164.234371 64.2547865,163.534367 L69.0547865,158.734367 C69.75479,158.034364 70.6047815,157.684367 71.6047865,157.684367 C72.6047915,157.684367 73.454783,158.034364 74.1547865,158.734367 C74.85479,159.434371 75.2047865,160.284362 75.2047865,161.284367 C75.2047865,162.284372 74.85479,163.134364 74.1547865,163.834367 L69.3547865,168.634367 C68.654783,169.334371 67.8047915,169.684367 66.8047865,169.684367 L66.8047865,169.684367 Z M18.8047865,169.684367 C17.8047815,169.684367 16.95479,169.334371 16.2547865,168.634367 L11.4547865,163.834367 C10.754783,163.134364 10.4047865,162.284372 10.4047865,161.284367 C10.4047865,160.284362 10.754783,159.434371 11.4547865,158.734367 C12.15479,158.034364 13.0047815,157.684367 14.0047865,157.684367 C15.0047915,157.684367 15.854783,158.034364 16.5547865,158.734367 L21.3547865,163.534367 C22.05479,164.234371 22.4047865,165.084362 22.4047865,166.084367 C22.4047865,167.084372 22.05479,167.934364 21.3547865,168.634367 C20.654783,169.334371 19.8047915,169.684367 18.8047865,169.684367 L18.8047865,169.684367 Z M52.7047865,209.284367 L32.8297865,209.284367 L32.7547865,207.859367 C32.454785,206.059358 31.854791,204.359375 30.9547865,202.759367 C30.054782,201.159359 28.6297963,199.13438 26.6797865,196.684367 C24.779777,194.234355 23.3922909,191.971878 22.5172865,189.896867 C21.6422821,187.821857 21.2047865,185.48438 21.2047865,182.884367 C21.2047865,176.984338 23.3047655,171.909389 27.5047865,167.659367 C31.7048075,163.409346 36.8047565,161.284367 42.8047865,161.284367 C48.8048165,161.284367 53.9047655,163.409346 58.1047865,167.659367 C62.3048075,171.909389 64.4047865,176.984338 64.4047865,182.884367 C64.4047865,185.48438 63.9672909,187.821857 63.0922865,189.896867 C62.2172821,191.971878 60.829796,194.234355 58.9297865,196.684367 C56.9797768,199.13438 55.554791,201.159359 54.6547865,202.759367 C53.754782,204.359375 53.154788,206.059358 52.8547865,207.859367 C52.8047863,208.209369 52.7547868,208.684364 52.7047865,209.284367 L52.7047865,209.284367 Z M71.6047865,208.084367 C70.6047815,208.084367 69.75479,207.734371 69.0547865,207.034367 L64.2547865,202.234367 C63.554783,201.534364 63.2047865,200.684372 63.2047865,199.684367 C63.2047865,198.684362 63.554783,197.834371 64.2547865,197.134367 C64.95479,196.434364 65.8047815,196.084367 66.8047865,196.084367 C67.8047915,196.084367 68.654783,196.434364 69.3547865,197.134367 L74.1547865,201.934367 C74.85479,202.634371 75.2047865,203.484362 75.2047865,204.484367 C75.2047865,205.484372 74.85479,206.334364 74.1547865,207.034367 C73.454783,207.734371 72.6047915,208.084367 71.6047865,208.084367 L71.6047865,208.084367 Z M14.0047865,208.084367 C13.0047815,208.084367 12.15479,207.734371 11.4547865,207.034367 C10.754783,206.334364 10.4047865,205.484372 10.4047865,204.484367 C10.4047865,203.484362 10.754783,202.634371 11.4547865,201.934367 L16.2547865,197.134367 C16.95479,196.434364 17.8047815,196.084367 18.8047865,196.084367 C19.8047915,196.084367 20.654783,196.434364 21.3547865,197.134367 C22.05479,197.834371 22.4047865,198.684362 22.4047865,199.684367 C22.4047865,200.684372 22.05479,201.534364 21.3547865,202.234367 L16.5547865,207.034367 C15.854783,207.734371 15.0047915,208.084367 14.0047865,208.084367 L14.0047865,208.084367 Z M42.8047865,228.484367 C40.504775,228.484367 38.7547925,227.921873 37.5547865,226.796867 C36.3547805,225.671862 35.40479,223.85938 34.7047865,221.359367 C34.1547838,219.759359 33.7047883,217.334384 33.3547865,214.084367 L52.1797865,214.084367 C51.8297848,217.284383 51.404789,219.709359 50.9047865,221.359367 C50.1547828,223.85938 49.1922924,225.671862 48.0172865,226.796867 C46.8422806,227.921873 45.104798,228.484367 42.8047865,228.484367 L42.8047865,228.484367 Z" opacity=".1" transform="rotate(-15 44.605 193.084)"/>
    <path fill="#6B7482" d="M296.124236,29.8115651 C294.957563,29.8115651 293.965907,29.4032359 293.149236,28.5865651 C292.332565,27.7698944 291.924236,26.7782376 291.924236,25.6115651 C291.924236,24.4448926 292.332565,23.4532359 293.149236,22.6365651 L298.749236,17.0365651 C299.565907,16.2198944 300.557563,15.8115651 301.724236,15.8115651 C302.890908,15.8115651 303.882565,16.2198944 304.699236,17.0365651 C305.515907,17.8532359 305.924236,18.8448926 305.924236,20.0115651 C305.924236,21.1782376 305.515907,22.1698944 304.699236,22.9865651 L299.099236,28.5865651 C298.282565,29.4032359 297.290908,29.8115651 296.124236,29.8115651 L296.124236,29.8115651 Z M240.124236,29.8115651 C238.957563,29.8115651 237.965907,29.4032359 237.149236,28.5865651 L231.549236,22.9865651 C230.732565,22.1698944 230.324236,21.1782376 230.324236,20.0115651 C230.324236,18.8448926 230.732565,17.8532359 231.549236,17.0365651 C232.365907,16.2198944 233.357563,15.8115651 234.524236,15.8115651 C235.690908,15.8115651 236.682565,16.2198944 237.499236,17.0365651 L243.099236,22.6365651 C243.915907,23.4532359 244.324236,24.4448926 244.324236,25.6115651 C244.324236,26.7782376 243.915907,27.7698944 243.099236,28.5865651 C242.282565,29.4032359 241.290908,29.8115651 240.124236,29.8115651 L240.124236,29.8115651 Z M279.674236,76.0115651 L256.486736,76.0115651 L256.399236,74.3490651 C256.049234,72.2490546 255.349241,70.2657411 254.299236,68.3990651 C253.249231,66.5323891 251.586747,64.1699128 249.311736,61.3115651 C247.095058,58.4532175 245.476324,55.8136606 244.455486,53.3928151 C243.434648,50.9719697 242.924236,48.2449136 242.924236,45.2115651 C242.924236,38.3281974 245.374211,32.4074233 250.274236,27.4490651 C255.17426,22.490707 261.124201,20.0115651 268.124236,20.0115651 C275.124271,20.0115651 281.074211,22.490707 285.974236,27.4490651 C290.87426,32.4074233 293.324236,38.3281974 293.324236,45.2115651 C293.324236,48.2449136 292.813824,50.9719697 291.792986,53.3928151 C290.772148,55.8136606 289.153414,58.4532175 286.936736,61.3115651 C284.661725,64.1699128 282.999241,66.5323891 281.949236,68.3990651 C280.899231,70.2657411 280.199238,72.2490546 279.849236,74.3490651 C279.790902,74.7574005 279.73257,75.3115616 279.674236,76.0115651 L279.674236,76.0115651 Z M301.724236,74.6115651 C300.557563,74.6115651 299.565907,74.2032359 298.749236,73.3865651 L293.149236,67.7865651 C292.332565,66.9698944 291.924236,65.9782376 291.924236,64.8115651 C291.924236,63.6448926 292.332565,62.6532359 293.149236,61.8365651 C293.965907,61.0198944 294.957563,60.6115651 296.124236,60.6115651 C297.290908,60.6115651 298.282565,61.0198944 299.099236,61.8365651 L304.699236,67.4365651 C305.515907,68.2532359 305.924236,69.2448926 305.924236,70.4115651 C305.924236,71.5782376 305.515907,72.5698944 304.699236,73.3865651 C303.882565,74.2032359 302.890908,74.6115651 301.724236,74.6115651 L301.724236,74.6115651 Z M234.524236,74.6115651 C233.357563,74.6115651 232.365907,74.2032359 231.549236,73.3865651 C230.732565,72.5698944 230.324236,71.5782376 230.324236,70.4115651 C230.324236,69.2448926 230.732565,68.2532359 231.549236,67.4365651 L237.149236,61.8365651 C237.965907,61.0198944 238.957563,60.6115651 240.124236,60.6115651 C241.290908,60.6115651 242.282565,61.0198944 243.099236,61.8365651 C243.915907,62.6532359 244.324236,63.6448926 244.324236,64.8115651 C244.324236,65.9782376 243.915907,66.9698944 243.099236,67.7865651 L237.499236,73.3865651 C236.682565,74.2032359 235.690908,74.6115651 234.524236,74.6115651 L234.524236,74.6115651 Z M268.124236,98.4115651 C265.440889,98.4115651 263.399243,97.7553217 261.999236,96.4428151 C260.599229,95.1303086 259.490907,93.0157464 258.674236,90.0990651 C258.032566,88.2323891 257.507571,85.4032508 257.099236,81.6115651 L279.061736,81.6115651 C278.653401,85.3449171 278.157572,88.1740555 277.574236,90.0990651 C276.699232,93.0157464 275.576326,95.1303086 274.205486,96.4428151 C272.834646,97.7553217 270.807583,98.4115651 268.124236,98.4115651 L268.124236,98.4115651 Z" opacity=".1" transform="rotate(36 270.224 57.112)"/>
    <g filter="url(#a)" transform="translate(162 13)">
      <path fill="#F3F9FD" d="M109.669662,286.365269 C106.045569,286.365269 102.434215,285.449037 99.2251846,283.716488 L98.4332769,283.288133 C87.3019846,277.275229 78.9986308,266.819345 75.6558462,254.603276 L19.7191385,50.2144977 C15.8445231,36.0586103 8.42649231,30.5070109 4.44147692,27.5244745 C3.64426154,26.9281798 2.66127692,26.1926434 2.40226154,25.8471964 C2.22073846,25.0468222 2.34706154,24.2209381 2.76424615,23.5087858 C3.18249231,22.7934447 3.84595385,22.2758056 4.63786154,22.0451533 L15.0621692,20.3763785 C32.5488923,17.5766632 49.8413538,13.0507758 66.4597385,6.92520298 L76.3660154,3.27303079 C76.6069846,3.21669636 76.8500769,3.18799768 77.0942308,3.18799768 C78.5262462,3.18799768 79.7841692,4.14249437 80.1790615,5.51790497 C80.1504,5.9335043 79.6981846,7.08676589 79.3319538,8.0200043 C77.5411385,12.5820308 74.2089692,21.0725871 78.0517385,35.1147427 L133.831338,238.928484 C137.269662,251.49319 135.266538,265.023021 128.337877,276.048627 C124.278554,282.507955 117.298938,286.365269 109.670723,286.365269 L109.669662,286.365269 Z"/>
      <path fill="#F8FAFB" d="M77.0944431,0.161456623 C76.6475354,0.161456623 76.1942585,0.21779106 75.7409815,0.336837417 L65.7253662,4.02833742 C49.1982738,10.1209599 32.11812,14.5915758 14.7269354,17.3764103 L4.18798154,19.0632546 C1.33562769,19.8094202 -0.371326154,22.7292447 0.373873846,25.5852944 C1.11907385,28.4402811 12.5444123,31.1400825 17.6716431,49.875003 L73.6083508,254.263781 C77.1209815,267.100592 85.7279354,277.939125 97.4271508,284.258149 L98.2179969,284.68544 C101.856951,286.651831 105.788889,287.589321 109.669874,287.589321 C117.724828,287.589321 125.565351,283.551311 130.134212,276.279917 L130.135274,276.279917 C137.399382,264.720728 139.483182,250.638182 135.878197,237.46549 L80.0985969,33.651748 C75.0212585,15.0996487 82.9997815,7.01087384 82.2545815,4.15482417 C81.6272123,1.75263874 79.4637969,0.161456623 77.0944431,0.161456623 M77.0944431,4.41311225 C77.3789354,4.41311225 77.7122585,4.54066192 77.9351815,4.81170497 C77.7886892,5.23899636 77.5562123,5.83210232 77.3555815,6.34123808 C75.4755969,11.132854 71.9735815,20.0517646 76.0031815,34.775248 L131.782782,238.58899 C135.065058,250.579722 133.154289,263.493063 126.540905,274.01591 C122.872228,279.853433 116.565628,283.337665 109.669874,283.337665 C106.396089,283.337665 103.13292,282.509655 100.233858,280.943983 L99.4430123,280.516692 C88.8180738,274.776957 80.8936892,264.799384 77.7037662,253.140281 L21.7670585,48.751503 C17.7003046,33.8919666 9.90224308,28.0555063 5.71341231,24.9209732 C5.30047385,24.6116652 4.82384308,24.2555891 4.47565846,23.9749798 C4.50538154,23.8580593 4.55102769,23.7592083 4.59561231,23.6816156 C4.68796615,23.5253672 4.85250462,23.3266023 5.13699692,23.2171222 L15.3967662,21.5738573 C33.0193662,18.7528838 50.4455815,14.1919202 67.1924123,8.01851623 L76.9426431,4.42374139 C76.9935969,4.41630099 77.0445508,4.41311225 77.0944431,4.41311225" transform="translate(0 .901)"/>
      <path stroke="#DDE3EF" stroke-width="3.68" d="M26.4249831,37.9992785 C40.0763677,36.104103 52.8891369,32.8292652 65.6297215,27.9866295" stroke-linecap="round"/>
      <path fill="#E94F7E" d="M109.670723,285.833812 C106.132615,285.833812 102.609369,284.938839 99.4778308,283.247743 L98.6848615,282.820451 C87.6809538,276.876637 79.4731385,266.540862 76.1675077,254.461908 L43.1833846,133.9381 C48.6991385,129.582279 55.5269538,127.201352 62.5872462,127.201352 C65.7018,127.201352 68.793,127.665845 71.7759231,128.582077 C74.5093846,129.421779 77.3426308,129.848008 80.1960462,129.848008 C87.6958154,129.848008 94.7922,126.9707 100.180569,121.746478 L100.993708,120.957796 L133.318615,239.069852 C136.717662,251.490001 134.737892,264.86571 127.887785,275.764829 C123.927185,282.068971 117.116354,285.833812 109.670723,285.833812 C109.669662,285.833812 109.670723,285.833812 109.670723,285.833812"/>
      <path fill="#F25F8C" d="M102.368506,115.924579 L98.3335985,119.838228 C93.3995677,124.622404 86.8679215,127.190404 80.1961523,127.190404 C77.6420908,127.190404 75.06786,126.814132 72.5541369,126.041394 L72.5541369,126.041394 C69.2792908,125.035877 65.9205831,124.543748 62.5862908,124.543748 C54.4495985,124.543748 46.4572754,127.471013 40.1719062,132.990725 L73.6082446,255.165238 C77.1219369,268.00205 85.7278292,278.840583 97.4270446,285.159606 L98.2178908,285.586897 C101.856845,287.553288 105.788783,288.490778 109.669768,288.490778 C117.724722,288.490778 125.565245,284.452768 130.135168,277.181374 L130.135168,277.181374 C137.399275,265.622185 139.483075,251.539639 135.878091,238.366947 L102.368506,115.924579 Z M99.5692292,125.805427 L130.759352,239.772119 C133.963075,251.475864 132.097952,264.079897 125.642737,274.350834 C122.169383,279.876924 116.198229,283.176209 109.669768,283.176209 C106.571137,283.176209 103.483122,282.392841 100.737983,280.910076 L99.9471369,280.482785 C89.5759062,274.880166 81.8415369,265.140685 78.7269831,253.761129 L46.2226754,134.989003 C51.0059677,131.662083 56.7085523,129.858318 62.5862908,129.858318 C65.4375831,129.858318 68.2676446,130.284546 70.99686,131.123185 C73.9829677,132.039417 77.0784138,132.504974 80.1961523,132.504974 C87.2935985,132.504974 94.0609062,130.146368 99.5692292,125.805427 L99.5692292,125.805427 Z"/>
      <path fill="#DD4775" fill-opacity=".3" d="M135.878303,238.367053 L121.024195,184.089355 C121.024195,184.089355 104.865457,202.970957 92.4592569,201.879345 C81.5392108,200.919533 68.8718723,197.699967 60.0112108,205.480497 L40.1721185,132.989769 L73.6084569,255.165345 C77.1210877,268.002156 85.7280415,278.840689 97.4272569,285.159712 L98.2181031,285.587004 C109.40778,291.631795 123.362765,287.957302 130.134318,277.18148 L130.134318,277.18148 C137.399488,265.621229 139.483288,251.538682 135.878303,238.367053"/>
      <path stroke="#FFFFFF" stroke-width="2.259" d="M94.3418954,168.396387 C97.6974185,167.399374 99.6113723,163.867311 98.6167108,160.50744 C97.6209877,157.14757 94.0934954,155.231136 90.7379723,156.227086 C87.3813877,157.224099 85.4674338,160.756162 86.4631569,164.116033 C87.45888,167.476967 90.9863723,169.393401 94.3418954,168.396387 L94.3418954,168.396387 Z" opacity=".2"/>
      <path fill="#FFFFFF" d="M108.339235 225.944034C109.62582 225.562448 110.359343 224.208296 109.978251 222.920044 109.596097 221.631793 108.243697 220.897319 106.957112 221.278905 105.671589 221.661554 104.937005 223.015707 105.319158 224.302895 105.700251 225.591147 107.052651 226.325621 108.339235 225.944034M81.0419862 204.779293C83.7616477 203.971478 85.3125554 201.110114 84.5057862 198.386928 83.6990169 195.663743 80.8402938 194.110826 78.1216938 194.91864 75.4020323 195.726455 73.8511246 198.587819 74.6578938 201.311005 75.4646631 204.03419 78.3223246 205.587107 81.0419862 204.779293" opacity=".2"/>
      <path stroke="#FFFFFF" stroke-width="2.259" d="M103.06944,257.707516 C105.789102,256.899701 107.340009,254.038337 106.53324,251.315152 C105.726471,248.591966 102.867748,247.039049 100.149148,247.846864 C97.4294862,248.654678 95.8785785,251.516042 96.6853477,254.239228 C97.4921169,256.962413 100.349778,258.51533 103.06944,257.707516 L103.06944,257.707516 Z" opacity=".2"/>
      <path fill="#E94F7E" d="M49.81248 74.2157315C46.6788185 74.2157315 44.09928 76.6721255 43.9421723 79.8077215 43.8636185 81.3787083 44.3996954 82.8859202 45.4538031 84.0519368 46.5068492 85.2190162 47.9505415 85.9045957 49.5194954 85.9832513 49.61928 85.9885659 49.7190646 85.9906917 49.8177877 85.9906917 52.9514492 85.9906917 55.5299262 83.5353606 55.6880954 80.3987017 55.7666492 78.8287778 55.2295108 77.3215659 54.1764646 76.1544864 53.1234185 74.9884699 51.6786646 74.3018275 50.1097108 74.2231719 50.0109877 74.2178573 49.9112031 74.2157315 49.81248 74.2157315M49.81248 77.1398076C49.8623723 77.1398076 49.9133262 77.1408705 49.9632185 77.1440593 51.5958646 77.2259036 52.8527262 78.6172579 52.7709877 80.2520195 52.6913723 81.8357613 51.3835569 83.0666156 49.8177877 83.0666156 49.7678954 83.0666156 49.7169415 83.0655526 49.6659877 83.0634268 48.0344031 82.9805195 46.7775415 81.5891652 46.85928 79.9544036 46.9388954 78.3706619 48.2456492 77.1398076 49.81248 77.1398076M75.0518308 108.369919C75.1696615 106.019816 73.3629231 104.019412 71.0169231 103.901429 68.6698615 103.783445 66.6720462 105.592525 66.5542154 107.941565 66.4363846 110.291667 68.2431231 112.292071 70.5891231 112.410055 72.9361846 112.528038 74.934 110.720022 75.0518308 108.369919M71.6504492 52.2408368C71.83728 48.5185123 68.9753723 45.348903 65.2568031 45.1618301 61.5392954 44.9736944 58.3737877 47.8403732 58.1869569 51.5626977 58.0001262 55.2850222 60.8620338 58.4546315 64.5806031 58.6427672 68.2981108 58.8298401 71.4636185 55.9631613 71.6504492 52.2408368"/>
      <path fill="#FFFFFF" fill-opacity=".1" d="M65.7254723,4.93000728 C63.2223646,5.85261656 60.70758,6.73802384 58.1800569,7.58622914 C44.0180723,12.3374543 29.4845492,15.9141596 14.7270415,18.2770172 L4.18702615,19.9649245 C1.33573385,20.7110901 -0.37122,23.6309146 0.37398,26.4859013 C1.11918,29.341951 12.5445185,32.0417523 17.6717492,50.7766728 L73.6084569,255.165451 C100.538626,201.355434 66.5481646,167.521822 68.6797338,108.155954 C70.4036723,60.1505106 65.7254723,4.93000728 65.7254723,4.93000728"/>
    </g>
    <g filter="url(#b)" transform="translate(0 79)">
      <g opacity=".85">
        <path fill="#F3F9FD" d="M196.950323,280.546421 C195.300052,280.546421 193.657986,280.222237 192.074523,279.583264 L10.4814463,206.352781 C6.11197941,204.589733 3.11617536,200.746501 2.47036627,196.069316 C1.82338512,191.393306 3.6635308,186.877038 7.39187692,183.991091 L115.893664,94.117956 C119.368844,91.6066999 122.055222,88.1816191 123.669159,84.2056593 L155.727544,18.5559275 L148.541599,15.6582339 C147.464469,14.9617069 146.961652,9.12873311 148.048159,6.42014724 C148.59317,5.0658543 149.88596,4.1896162 151.34284,4.1896162 C151.761268,4.1896162 152.175008,4.26478944 152.572339,4.41278676 L162.912316,9.80411771 C180.258913,18.8460492 198.566604,26.2294711 217.326713,31.7476569 L228.511752,35.0364862 C229.347436,35.4017812 230.000277,36.0607216 230.35893,36.9028968 C230.730475,37.7767858 230.739852,38.7434667 230.385887,39.6244031 C229.301725,42.3282907 225.69879,46.1973635 224.27004,46.1973635 L217.112225,43.3114157 L194.859355,112.915965 C193.273548,116.90367 192.844571,121.236703 193.615792,125.4605 L209.748126,265.523519 C210.323611,269.406687 209.269923,273.090176 206.789828,275.9726 C204.288637,278.87969 200.702111,280.546421 196.950323,280.546421"/>
        <path fill="#FCFDFF" d="M151.34202,0.844876765 C149.008434,0.844876765 146.799087,2.24380381 145.874326,4.54715893 C144.658892,7.57288192 144.647171,15.6246409 147.666416,16.8426823 L152.512915,18.7971866 L121.526971,82.2516249 C120.07478,85.8681626 117.623987,88.9925504 114.46175,91.2606681 L5.95761815,181.136152 C-3.41423208,188.392719 -1.37952323,203.104357 9.60626369,207.536055 L191.198169,280.766538 C193.120359,281.541762 195.063647,281.90001 196.950675,281.90001 C205.847838,281.90001 213.515502,273.943392 212.076204,264.257789 L195.935665,124.117248 C195.221876,120.285762 195.613346,116.330944 197.065537,112.714407 L218.574145,45.4378788 L223.421815,47.3923831 C223.690219,47.5004446 223.973859,47.5509516 224.26922,47.5509516 C227.284949,47.5509516 231.453992,42.2618093 232.561596,39.5062402 C233.775858,36.4805172 232.313118,33.0401668 229.293872,31.8232999 L217.986939,28.496884 C199.327627,23.0092373 181.246145,15.7174328 163.994486,6.7236592 L153.539646,1.27359916 C152.818824,0.982302847 152.074562,0.844876765 151.34202,0.844876765 M151.34202,5.54320439 C151.446334,5.54320439 151.550648,5.55729937 151.652617,5.58548933 L161.83085,10.8910758 C179.311062,20.0046568 197.760573,27.4444586 216.667191,33.0049293 L227.675247,36.2432516 C227.970608,36.4041694 228.124149,36.6437841 228.202678,36.8281934 C228.291755,37.0384436 228.365595,37.3685011 228.212054,37.7514148 C227.606095,39.259578 225.515127,41.8084207 224.263359,42.6670401 L220.325213,41.0790053 L215.648665,39.1926268 L214.10974,44.0037143 L192.65036,111.127546 C190.93797,115.480547 190.470315,120.203541 191.296622,124.810251 L207.41958,264.796923 L207.427785,264.87327 L207.439505,264.949618 C207.902472,268.069308 207.041002,271.086809 205.013326,273.44302 C202.958692,275.83212 200.020319,277.201682 196.950675,277.201682 C195.600453,277.201682 194.253748,276.933877 192.948065,276.407665 L11.3573323,203.177181 C7.77549455,201.732445 5.3211856,198.582217 4.79141117,194.750731 C4.26163675,190.919244 5.77008738,187.219311 8.82449479,184.853703 L8.88544229,184.80672 L8.94521772,184.757388 L117.328626,94.980569 C121.108543,92.2320473 124.035195,88.5004006 125.808533,84.1720663 L156.724153,20.8621016 L158.940532,16.3235171 L154.263983,14.4383132 L150.167608,12.7856764 C149.668307,11.3162745 149.663619,7.69503844 150.222695,6.30080971 C150.447732,5.74170873 150.965786,5.54320439 151.34202,5.54320439" transform="translate(0 .996)"/>
      </g>
      <path fill="#13A1DC" d="M196.950323,279.959131 C195.375065,279.959131 193.808011,279.649041 192.292528,279.038258 L10.7006229,205.807775 C6.52806331,204.124599 3.66821907,200.454031 3.05053959,195.989445 C2.43403219,191.523684 4.18978902,187.211794 7.74935745,184.45505 L83.2117393,122.240971 C88.0359683,122.928101 106.170194,125.878651 119.513008,133.031855 C128.876654,138.053192 133.985695,144.32546 138.925959,150.392175 C144.086571,156.731394 149.422994,163.284386 159.158185,167.364884 C165.833108,170.160389 173.918029,171.579284 183.189081,171.579284 C189.527621,171.579284 194.961325,170.909772 198.200919,170.39648 L209.166781,265.591645 C209.718825,269.320942 208.712019,272.838815 206.345615,275.589686 C203.95577,278.367572 200.532161,279.959131 196.950323,279.959131"/>
      <path stroke="#FFFFFF" stroke-width="3.108" d="M107.108082,164.117165 C109.093564,159.172175 106.703719,153.550626 101.769315,151.560884 C96.834912,149.571142 91.2253979,151.966115 89.2399159,156.911105 C87.2532618,161.856095 89.6442791,167.477644 94.5786825,169.467385 C99.5130858,171.457127 105.1226,169.062155 107.108082,164.117165 L107.108082,164.117165 Z" opacity=".2"/>
      <path fill="#FFFFFF" d="M142.033813,181.854409 C142.794484,179.958633 141.8791,177.80445 139.987383,177.040972 C138.095666,176.278668 135.944923,177.197191 135.184251,179.091792 C134.42358,180.987567 135.338964,183.142925 137.230681,183.905229 C139.122397,184.668707 141.273141,183.750184 142.033813,181.854409" opacity=".2"/>
      <path fill="#FFFFFF" d="M120.078296,206.801119 C121.687545,202.79462 119.750117,198.238417 115.752196,196.62689 C111.753102,195.014189 107.207825,196.954599 105.598577,200.962272 C103.9905,204.968771 105.926755,209.5238 109.925849,211.136501 C113.923771,212.749202 118.469048,210.807618 120.078296,206.801119" opacity=".2"/>
      <path stroke="#FFFFFF" stroke-width="3.108" d="M163.534333,213.346359 C165.143581,209.33986 163.206154,204.783657 159.208232,203.17213 C155.209138,201.55943 150.663861,203.499839 149.054613,207.507512 C147.446537,211.514011 149.382792,216.06904 153.381886,217.681741 C157.379807,219.294442 161.925084,217.352858 163.534333,213.346359 L163.534333,213.346359 Z" opacity=".2"/>
      <path fill="#13A1DC" d="M146.178829 91.1904281C143.16896 91.1904281 140.496646 92.9992842 139.372634 95.7983129 137.863011 99.5581496 139.68792 103.847723 143.439707 105.361759 144.315242 105.714133 145.236487 105.893844 146.176485 105.893844 149.186353 105.893844 151.858667 104.084988 152.982679 101.28596 154.492302 97.5261229 152.667393 93.2353752 148.915606 91.7225137 148.040072 91.3689645 147.118827 91.1904281 146.178829 91.1904281M146.178829 94.8410287C146.637107 94.8410287 147.104762 94.9279477 147.556008 95.1100079 149.447724 95.8723116 150.363109 98.0276694 149.602437 99.9234446 149.023436 101.365831 147.639225 102.242069 146.176485 102.242069 145.718206 102.242069 145.250551 102.156325 144.799305 101.974265 142.907589 101.211961 141.992204 99.0566031 142.752876 97.1608279 143.331877 95.7184413 144.716089 94.8410287 146.178829 94.8410287M164.447373 142.193711C165.542084 139.468681 164.22468 136.371308 161.505484 135.274249 158.786288 134.178364 155.695546 135.498594 154.600836 138.222449 153.507297 140.947479 154.823528 144.046027 157.542724 145.141911 160.261921 146.238971 163.352662 144.918741 164.447373 142.193711M183.249794 74.564926C184.983282 70.2483375 182.897002 65.3397597 178.588482 63.602553 174.281135 61.8653464 169.383066 63.9572768 167.649578 68.2738653 165.916091 72.5904538 168.003542 77.4990316 172.31089 79.2362382 176.618237 80.9734448 181.516306 78.8815145 183.249794 74.564926"/>
      <path stroke="#DDE3EF" stroke-width="3.68" d="M163.320313,28.8215384 C176.714698,36.0593121 190.259108,41.5199434 204.763441,45.5346643" stroke-linecap="round"/>
      <path fill="#1BAFE9" d="M82.3356189,119.161217 L5.95785256,182.131727 C-3.41399767,189.388294 -1.38046088,204.101107 9.6064981,208.53163 L191.198403,281.762114 C193.120593,282.537338 195.063881,282.895585 196.949737,282.895585 C205.848072,282.895585 213.515737,274.940142 212.076438,265.25454 L200.754268,166.949082 C200.754268,166.949082 193.064334,168.641654 183.187323,168.641654 C176.006066,168.641654 167.66798,167.746623 160.288644,164.655123 C142.378283,157.150719 140.888586,141.163485 120.895461,130.443076 C104.760783,121.79228 82.3356189,119.161217 82.3356189,119.161217 M84.0691065,125.337168 C90.0993928,126.266263 106.168436,129.207416 118.130555,135.621808 C126.977319,140.364769 131.678481,146.137839 136.655079,152.249189 C142.044244,158.866784 147.616252,165.711072 158.027726,170.07347 C165.062474,173.020496 173.527144,174.514564 183.187323,174.514564 C188.015068,174.514564 192.347029,174.136348 195.634678,173.722896 L206.25478,265.927575 L206.2665,266.022716 L206.280565,266.119032 C206.693133,268.895744 205.927773,271.578489 204.126305,273.672768 C202.294364,275.801111 199.67831,277.022676 196.949737,277.022676 C195.750712,277.022676 194.551688,276.784236 193.386653,276.314403 L11.7947478,203.082745 C8.60789675,201.797752 6.42433535,198.9952 5.95316429,195.585389 C5.48199323,192.176752 6.82283824,188.884399 9.54086233,186.779548 L9.61235844,186.724343 L9.68151041,186.667963 L84.0691065,125.337168"/>
      <path fill="#139AD3" fill-opacity=".3" d="M212.076672,265.25407 L206.135463,213.671131 C206.135463,213.671131 138.379424,230.125849 110.228711,203.711851 C81.5013414,176.755196 39.0197617,154.872735 39.0197617,154.872735 L5.95808697,182.132432 C-3.41376325,189.388999 -1.38022647,204.100637 9.60673252,208.53116 L191.198637,281.762818 C202.184424,286.193341 213.820709,276.992841 212.076672,265.25407"/>
      <path fill="#FFFFFF" fill-opacity=".1" d="M212.919975,65.4127012 C216.956575,55.9303015 218.5752,46.4338068 218.5752,46.4338068 L223.421698,48.3883111 C226.440943,49.6051779 229.872756,48.1392997 231.08819,45.1147513 C232.302452,42.0890283 230.839712,38.6486779 227.820467,37.4318111 L216.513533,34.1053951 C197.854222,28.6177485 179.771567,21.3247694 162.52108,12.3321703 L152.06624,6.8821103 C149.046995,5.66406886 145.615181,7.12994708 144.399748,10.1556701 C143.185486,13.1813931 144.648226,16.6205689 147.666299,17.8386103 L152.51397,19.7931146 L121.526854,83.2487275 C120.074663,86.8640906 117.62387,89.9884784 114.461632,92.2565961 L5.95750094,182.13208 C-3.41317722,189.388647 -1.37964043,204.10146 9.60614648,208.531983 L68.1720059,232.149301 C68.1720059,232.149301 141.626636,234.261199 147.573706,134.099902 C149.602554,99.9230922 200.89808,93.6543486 212.919975,65.4127012"/>
    </g>
  </g>
</svg>
