<svg xmlns="http://www.w3.org/2000/svg" width="317" height="313" viewBox="0 0 317 313">
  <defs>
    <filter id="a" width="200%" height="200%" x="-50%" y="-50%" filterUnits="objectBoundingBox">
      <feOffset in="SourceAlpha" result="shadowOffsetOuter1"/>
      <feGaussianBlur stdDeviation="4" in="shadowOffsetOuter1" result="shadowBlurOuter1"/>
      <feColorMatrix values="0 0 0 0 0 0 0 0 0 0 0 0 0 0 0 0 0 0 0.2 0" in="shadowBlurOuter1" result="shadowMatrixOuter1"/>
      <feMerge>
        <feMergeNode in="shadowMatrixOuter1"/>
        <feMergeNode in="SourceGraphic"/>
      </feMerge>
    </filter>
  </defs>
  <g fill="none" fill-rule="evenodd" filter="url(#a)" transform="translate(8 7)">
    <path fill="#42210B" d="M39.2564,112.1938 C55.8354,106.0788 91.7134,105.7438 99.9354,109.6438 C104.5844,111.8498 99.9354,83.9858 99.9354,83.9858 L64.6964,62.5048 L44.9694,69.6648 C44.9694,69.6648 33.2274,114.4168 39.2564,112.1938 L39.2564,112.1938 Z"/>
    <path fill="#B3B3B3" d="M87.4197,105.8891 C85.8727,106.5361 55.5797,105.8891 55.5797,105.8891 L56.3657,110.4591 L84.9067,114.2871 L87.4197,105.8891 Z"/>
    <path fill="#FAAD40" d="M79.8184,100.9706 C79.8184,88.8756 71.7404,90.2126 71.7404,90.2126 C71.7404,90.2126 63.6624,88.8756 63.6624,100.9706 C63.6624,110.3676 53.0874,117.4146 71.7404,117.4146 C90.3934,117.4146 79.8184,110.3676 79.8184,100.9706"/>
    <path fill="#FAAD40" d="M62.9311 109.4323C62.9311 109.4323 43.9781 111.8813 40.8601 113.6433 37.7421 115.4053 41.3651 138.1303 71.7601 138.1673 112.1881 138.2153 102.7801 116.2733 104.8361 114.8043 106.8911 113.3343 71.0481 107.2693 71.0481 107.2693L62.9311 109.4323zM70.8735 102.7324C52.6125 102.7324 40.9735 87.7284 46.0025 43.0944 47.3545 31.0884 70.8735 31.6424 70.8735 31.6424 70.8735 31.6424 93.9225 31.1614 95.7445 43.0944 102.0775 84.5754 89.1345 102.7324 70.8735 102.7324"/>
    <path fill="#461A00" d="M80.1053,61.6216 C80.1053,63.0216 81.2403,64.1566 82.6403,64.1566 C84.0393,64.1566 85.1743,63.0216 85.1743,61.6216 C85.1743,60.2216 84.0393,59.0866 82.6403,59.0866 C81.2403,59.0866 80.1053,60.2216 80.1053,61.6216"/>
    <path fill="#FBB03B" d="M104.8243,56.4595 C104.8243,63.8365 105.3083,69.8165 99.9763,69.8165 C94.6443,69.8165 97.8203,63.8365 97.8203,56.4595 C97.8203,49.0825 98.7853,48.3885 99.9763,48.3885 C101.1673,48.3885 104.8243,49.0825 104.8243,56.4595"/>
    <path fill="#461A00" d="M61.6136,61.6216 C61.6136,63.0216 60.4786,64.1566 59.0786,64.1566 C57.6796,64.1566 56.5446,63.0216 56.5446,61.6216 C56.5446,60.2216 57.6796,59.0866 59.0786,59.0866 C60.4786,59.0866 61.6136,60.2216 61.6136,61.6216"/>
    <path fill="#000000" fill-opacity=".1" d="M64.2525 72.4591C64.5375 78.5891 69.3175 82.0421 70.8595 82.0421 72.4015 82.0421 77.1815 78.5891 77.4665 72.4591 77.4665 72.4591 73.2825 76.4231 70.8595 76.4231 68.4365 76.4231 64.2525 72.4591 64.2525 72.4591M63.6347 101.8126C63.6347 101.8126 63.4147 104.9286 62.6807 106.3826 61.5197 108.6856 69.1367 110.8076 71.9997 110.8076 74.4767 110.8076 79.6377 110.8406 81.0987 107.2696 81.0987 107.2696 79.7187 103.1236 79.8187 100.9706 79.8187 100.9706 74.9707 102.3316 70.8597 102.3316 66.7487 102.3316 63.6347 101.8126 63.6347 101.8126"/>
    <path fill="#FBB03B" d="M36.8946,56.4595 C36.8946,63.8365 36.4106,69.8165 41.7426,69.8165 C47.0746,69.8165 43.8986,63.8365 43.8986,56.4595 C43.8986,49.0825 42.9336,48.3885 41.7426,48.3885 C40.5516,48.3885 36.8946,49.0825 36.8946,56.4595"/>
    <path fill="#000000" fill-opacity=".1" d="M44.8372,51.0231 C44.8372,51.0231 51.0342,52.2331 61.6132,51.7441 C73.9432,51.1741 76.8422,45.0431 85.1562,48.1091 C93.4702,51.1741 92.4382,52.6131 95.5212,53.5541 C98.6042,54.4951 95.5212,53.5541 95.5212,53.5541 L95.4932,29.3661 L44.4312,41.1021 L44.8372,51.0231 Z"/>
    <path fill="#FFFFFF" d="M33.8253,36.092 C33.8253,36.092 35.6223,27.635 41.4953,24.353 C47.3683,21.071 66.1613,14.611 66.1613,14.611 C66.1613,14.611 69.8313,21.002 64.2523,24.008 C58.6733,27.013 49.7613,23.135 43.8703,29.366 C39.4983,33.992 38.2653,37.817 33.8253,36.092"/>
    <path fill="#603813" d="M109.7276,101.4582 C105.0566,95.6202 102.1786,89.8682 108.5346,74.4582 C114.7996,59.2662 110.3626,42.7582 99.6316,28.9592 C94.4776,20.5452 98.7236,11.3572 75.8646,10.2782 C68.6016,9.9352 62.7006,10.1642 42.7126,18.8162 C22.7246,27.4682 27.2596,61.8602 32.4546,74.4582 C38.8106,89.8682 35.9326,95.6202 31.2616,101.4582 C25.8916,108.1712 16.9416,104.4412 27.9796,112.1272 C39.0186,119.8122 58.8266,99.8332 58.8266,99.8332 C58.8266,99.8332 47.0946,90.8812 47.9696,81.1702 C48.7846,72.1132 43.8876,45.4412 47.1926,46.1102 C70.3276,50.7902 88.5446,31.3472 91.7196,42.0872 C92.4616,44.5962 93.2896,52.2582 94.7366,55.4242 C94.7366,55.4242 90.9076,72.6462 92.1256,80.2752 C93.3426,87.9052 82.7846,99.5242 82.7846,99.5242 C82.7846,99.5242 101.9706,119.8122 113.0096,112.1272 C124.0486,104.4412 115.0976,108.1712 109.7276,101.4582"/>
    <path fill="#FFFFFF" fill-opacity=".2" d="M33.3144,36.1658 C33.3144,36.1658 35.1404,27.5728 41.1074,24.2388 C47.0744,20.9048 66.1684,14.3408 66.1684,14.3408 C66.1684,14.3408 69.8974,20.8348 64.2284,23.8878 C58.5604,26.9418 49.5054,23.0018 43.5204,29.3318 C39.0784,34.0318 37.8254,37.9188 33.3144,36.1658"/>
    <path fill="#9FDAF1" d="M47.4917,117.397 C47.4917,117.397 53.0807,114.342 60.7827,118.321 C68.4847,122.3 73.8557,121.94 80.9367,118.326 C88.0167,114.711 93.6767,114.806 93.6767,114.806 C93.6767,114.806 88.2027,142.189 77.7837,162.189 L62.8697,162.189 L47.4917,117.397 Z"/>
    <path fill="#31363F" d="M90.5238,110.4586 C90.5238,110.4586 70.1088,171.6386 69.1558,174.2166 C66.0628,182.5786 71.5668,250.4516 71.9548,256.2356 C71.9548,256.2356 106.6588,256.3076 107.1588,254.7596 C107.4238,253.9376 107.2568,231.1026 105.6948,201.5106 C104.9248,186.9216 112.2468,164.5736 112.3528,164.4406 C112.5798,164.1546 126.0378,187.3466 126.2278,192.9046 C126.4188,198.4616 127.8418,256.1886 127.8418,256.1886 L142.7618,251.1886 C142.7618,251.1886 140.4738,180.7636 139.5248,175.5116 C138.5768,170.2606 120.1018,121.6846 118.3058,119.4586 C112.9458,112.8166 90.5238,110.4586 90.5238,110.4586"/>
    <path fill="#000000" fill-opacity=".1" d="M49.1571,108.1372 C49.1571,108.1372 79.1341,175.5912 80.0881,178.1702 C83.1811,186.5322 76.7561,250.4332 76.3681,256.2172 L58.1501,256.0662 C58.1501,256.0662 60.8621,227.4922 62.4241,197.9002 C63.1941,183.3112 56.3371,162.2242 58.4641,162.2242 C58.8291,162.2242 48.4281,124.9412 50.1711,122.6732 C51.9151,120.4042 49.1571,108.1372 49.1571,108.1372"/>
    <path fill="#31363F" d="M46.3141,108.1372 C46.3141,108.1372 76.2911,175.5912 77.2451,178.1702 C80.3381,186.5322 75.4371,252.3472 75.0501,258.1312 C75.0501,258.1312 33.5111,257.0142 33.0111,255.4662 C32.7461,254.6442 36.2231,227.4922 37.7851,197.9002 C38.5551,183.3112 31.6971,162.2242 33.8251,162.2242 C34.1901,162.2242 22.0451,187.3472 21.8551,192.9042 C21.6641,198.4622 14.9201,256.1892 14.9201,256.1892 L0.0001,252.1892 C0.0001,252.1892 7.7791,176.7872 8.7271,171.5352 C9.6751,166.2842 23.7891,124.8802 25.5321,122.6112 C27.2761,120.3422 46.3141,108.1372 46.3141,108.1372"/>
    <polygon fill="#000000" fill-opacity=".1" points="68.216 155.912 74.856 142.757 57.77 116.829"/>
    <path fill="#F2F2F2" d="M55.5792,105.8891 C55.5792,105.8891 58.0472,124.6991 67.8282,145.5901 C71.4922,153.4141 72.1572,165.3191 72.1572,165.3191 C72.1572,165.3191 44.0262,134.7581 44.4312,132.4361 C44.8372,130.1151 50.3742,126.5861 50.4802,124.9661 C50.5862,123.3451 40.4372,125.9071 39.9482,124.3131 C39.4592,122.7181 42.3752,109.0931 42.3752,109.0931 L55.5792,105.8891 Z"/>
    <path fill="#F2F2F2" d="M87.4197,105.8891 C87.4197,105.8891 81.5217,126.2431 71.7407,147.1331 C68.0767,154.9581 72.1577,165.3191 72.1577,165.3191 C72.1577,165.3191 98.9727,134.7581 98.5677,132.4361 C98.1617,130.1151 92.6247,126.5861 92.5187,124.9661 C92.4127,123.3451 102.5617,125.9071 103.0507,124.3131 C103.5397,122.7181 100.6237,109.0931 100.6237,109.0931 L87.4197,105.8891 Z"/>
    <polygon fill="#9FDAF1" points="42.644 193.831 73.05 193.831 73.05 169.196 42.644 169.196"/>
    <polygon fill="#FFFFFF" points="45.076 191.721 70.617 191.721 70.617 176.232 45.076 176.232"/>
    <polygon fill="#FAAD40" points="57.847 179.871 69.218 179.871 69.218 177.818 57.847 177.818"/>
    <polygon fill="#9FDAF1" points="57.847 183.567 69.218 183.567 69.218 181.514 57.847 181.514"/>
    <polygon fill="#9FDAF1" points="57.847 186.714 69.218 186.714 69.218 184.661 57.847 184.661"/>
    <polygon fill="#9FDAF1" points="57.847 190.136 69.218 190.136 69.218 188.083 57.847 188.083"/>
    <polygon fill="#9FDAF1" points="46.909 190.136 56.079 190.136 56.079 177.818 46.909 177.818"/>
    <path fill="#0EA2DC" d="M53.9573 181.411C53.9573 182.828 52.8083 183.977 51.3913 183.977 49.9743 183.977 48.8253 182.828 48.8253 181.411 48.8253 179.994 49.9743 178.845 51.3913 178.845 52.8083 178.845 53.9573 179.994 53.9573 181.411M47.454 190.1891L56.454 190.1891 56.454 187.5701C56.454 186.1531 53.977 185.0041 51.954 185.0041 49.931 185.0041 47.454 186.1531 47.454 187.5701L47.454 190.1891zM62.1908 172.5149L53.5028 172.5149 54.9698 166.0829C55.2708 164.7629 56.4438 163.8269 57.7978 163.8269L57.8958 163.8269C59.2488 163.8269 60.4228 164.7629 60.7238 166.0829L62.1908 172.5149z"/>
    <path fill="#FFFFFF" d="M59.466,167.2286 C59.466,168.1636 58.708,168.9226 57.772,168.9226 C56.837,168.9226 56.079,168.1636 56.079,167.2286 C56.079,166.2936 56.837,165.5346 57.772,165.5346 C58.708,165.5346 59.466,166.2936 59.466,167.2286"/>
    <path fill="#A67C52" d="M244.4099,85.0229 C244.4099,73.7819 236.9429,75.0129 236.9429,75.0129 C236.9429,75.0129 229.4769,73.7819 229.4769,85.0229 C229.4769,93.7199 219.6309,100.2839 236.9429,100.2839 C254.1739,100.2839 244.4099,93.7199 244.4099,85.0229"/>
    <path fill="#A67C52" d="M228.6561 92.8998C228.6561 92.8998 211.0151 95.1968 208.1431 96.8378 205.2711 98.4788 208.6361 119.5668 236.8611 119.6488 274.4401 119.7308 265.6611 99.2998 267.5481 97.9868 269.4351 96.6738 236.1231 91.0128 236.1231 91.0128L228.6561 92.8998zM236.0407 86.6639C219.0557 86.6639 208.2257 72.7149 212.9027 31.2799 214.1327 20.1209 236.0407 20.6129 236.0407 20.6129 236.0407 20.6129 257.4557 20.2029 259.1787 31.2799 265.0867 69.7609 253.0257 86.6639 236.0407 86.6639"/>
    <path fill="#461A00" d="M246.9535,46.0487 C248.2675,46.0487 249.3325,47.1137 249.3325,48.4277 C249.3325,49.7427 248.2675,50.8077 246.9535,50.8077 C245.6395,50.8077 244.5745,49.7427 244.5745,48.4277 C244.5745,47.1137 245.6395,46.0487 246.9535,46.0487"/>
    <path fill="#FBB03B" d="M267.6304,43.6692 C267.6304,50.5612 268.0404,56.0592 263.1174,56.0592 C258.1944,56.0592 261.1484,50.4792 261.1484,43.6692 C261.1484,36.8592 262.0514,36.2022 263.1174,36.2022 C264.1844,36.2022 267.6304,36.8592 267.6304,43.6692"/>
    <path fill="#461A00" d="M225.1279,46.0487 C226.4419,46.0487 227.5069,47.1137 227.5069,48.4277 C227.5069,49.7427 226.4419,50.8077 225.1279,50.8077 C223.8139,50.8077 222.7489,49.7427 222.7489,48.4277 C222.7489,47.1137 223.8139,46.0487 225.1279,46.0487"/>
    <path fill="#000000" fill-opacity=".1" d="M229.8869 58.5204C230.1329 64.1824 234.5639 67.3824 236.0409 67.3824 237.5179 67.3824 241.9479 64.1824 242.1949 58.5204 242.1949 58.5204 238.3379 62.2124 236.0409 62.2124 233.8249 62.2124 229.8869 58.5204 229.8869 58.5204M229.3946 85.0229L228.8206 90.3559C228.8206 90.3559 234.4816 94.2129 237.1076 94.2129 239.4046 94.2129 244.1636 94.2129 245.5586 90.9309 246.2976 89.1259 244.2456 87.0739 244.4096 85.1049 244.4096 85.1049 239.8976 86.3359 236.1226 86.3359 232.3486 86.3359 229.3946 85.0229 229.3946 85.0229"/>
    <path fill="#FBB03B" d="M204.5331,43.6692 C204.5331,50.5612 204.1231,56.0592 209.0461,56.0592 C213.9691,56.0592 211.0151,50.4792 211.0151,43.6692 C211.0151,36.8592 210.1121,36.2022 209.0461,36.2022 C207.9791,36.2022 204.5331,36.8592 204.5331,43.6692"/>
    <path fill="#000000" d="M211.9177,38.582 C211.9177,38.582 217.6617,39.731 227.5077,39.238 C238.9947,38.746 241.8397,33.003 249.6347,35.874 C257.4297,38.746 256.4537,40.059 259.4537,40.961 C262.4537,41.864 259.4537,40.961 259.4537,40.961 L259.4537,18.48 L211.7267,29.392 L211.9177,38.582 Z"/>
    <path fill="#000000" d="M273.7021,58.5204 C276.6561,43.7514 272.0611,30.7874 262.2971,18.1514 C257.6201,10.4384 261.4761,2.0694 240.5531,1.0844 C233.9071,0.7564 228.4921,1.0024 210.2771,8.8794 C191.9791,16.7564 194.5231,49.0844 199.0361,60.7354 C203.4661,72.3874 208.2251,75.5054 225.1281,77.8024 C225.1281,77.8024 216.4301,72.3054 215.0361,65.9054 C213.5591,59.0124 210.6871,33.0844 213.6411,33.7414 C234.8101,38.0074 252.1231,20.3664 254.9941,30.2124 C255.6511,32.5104 256.3891,39.4844 257.7841,42.4384 C257.7841,42.4384 254.2561,58.1924 255.4051,65.1664 C256.5531,72.1404 247.1171,79.2794 247.1171,79.2794 C247.1171,79.2794 269.4351,80.0174 273.7021,58.5204"/>
    <path fill="#FFFFFF" fill-opacity=".2" d="M201.6613,24.7154 C201.6613,24.7154 203.3023,16.8384 208.7993,13.8024 C214.2153,10.7664 231.6923,4.7774 231.6923,4.7774 C231.6923,4.7774 235.1383,10.6844 229.8873,13.4744 C224.7173,16.2644 216.4303,12.6544 210.9333,18.4794 C206.9123,22.8284 205.7643,26.3564 201.6613,24.7154"/>
    <path fill="#9B5CA4" d="M284.1224,101.5151 C283.3024,99.3001 264.0204,94.1301 264.0204,94.1301 C264.0204,94.1301 258.6874,105.8641 249.3334,110.6231 C239.9794,115.3821 232.9224,115.8741 222.7484,110.6231 C212.6564,105.3711 211.0154,94.1301 211.0154,94.1301 C211.0154,94.1301 197.2304,97.4951 195.9994,99.1361 C194.7694,100.7771 211.0154,154.6841 211.0154,154.6841 L206.8524,229.2471 C216.3684,231.5591 226.3054,232.7941 236.5334,232.7941 C249.0904,232.7941 261.2124,230.9381 272.6504,227.5001 C271.7254,192.0771 271.6894,163.1111 271.4864,156.0791 C271.2404,147.7921 284.9434,103.7301 284.1224,101.5151"/>
    <path fill="#000000" d="M299.7946 154.6022C298.8916 149.6792 285.4356 104.0582 283.8766 102.0072 282.2356 99.7102 274.1946 94.3762 274.1946 94.3762 274.1946 94.3762 256.7176 159.3612 255.3226 161.7402 252.6876 166.1322 253.8816 217.9392 255.4846 235.3682 261.7376 234.4192 267.8386 233.0092 273.7526 231.1712 272.7806 224.7742 271.9666 185.7112 271.5686 178.3152 270.8306 164.7762 278.0506 149.8432 278.2156 149.6792 278.4616 149.4332 287.3226 165.5972 287.4866 170.7662 287.5516 172.8042 288.5966 205.5772 289.0246 213.2892 293.6606 211.1462 297.1426 209.7302 301.4516 207.0572 298.7876 190.2792 300.1796 156.7032 299.7946 154.6022M204.4512 94.3767C204.4512 94.3767 193.6202 99.7917 191.9792 101.8437 190.3382 103.8947 179.2612 145.8227 178.3582 150.7457 177.9372 153.0467 176.1342 170.4257 174.3342 188.2837 178.7362 190.8067 183.3052 193.0687 188.0222 195.0517 189.3102 183.4297 190.4342 172.8537 190.5022 170.7667 190.6662 165.5967 197.3952 149.4327 197.6412 149.6797 197.8052 149.8437 205.0262 164.7767 204.2872 178.3147 203.8732 186.0167 203.0082 225.3627 201.9832 231.9657 207.9322 233.6687 214.0602 234.9437 220.3362 235.7537 221.9562 218.2327 223.1872 166.1647 220.5332 161.7407 219.0562 159.3607 204.4512 94.3767 204.4512 94.3767"/>
    <path fill="#000000" fill-opacity=".1" d="M236.5331,232.7906 C246.9591,232.7906 257.0841,230.6836 266.7681,226.7396 C266.0411,195.4826 264.9491,158.8796 263.8561,161.3776 C261.9691,165.6926 217.2511,164.0736 217.2511,164.0736 L213.4891,229.3026 C220.9601,231.5846 228.6601,232.7906 236.5331,232.7906"/>
    <path fill="#FAAD40" d="M105.3176 216.493C105.3176 216.493 100.5046 223.893 101.6186 226.048 102.7316 228.203 96.6976 278.303 96.6976 278.303L106.8716 283.986C106.8716 283.986 113.5066 234.237 115.2306 229.496 116.9546 224.755 121.6956 218.685 121.6956 218.685L105.3176 216.493zM227.7213 216.493C227.7213 216.493 232.5343 223.893 231.4203 226.048 230.3073 228.203 236.3413 278.306 236.3413 278.306L225.0073 284.562C225.0073 284.562 219.5323 234.237 217.8083 229.496 216.0843 224.755 211.3433 218.685 211.3433 218.685L227.7213 216.493z"/>
    <path fill="#40B8BC" d="M150.7786,149.9781 C150.7786,149.9781 127.8066,156.3681 122.9166,160.1041 C118.0276,163.8391 99.8946,208.9571 99.8946,215.1141 C99.8946,221.2701 117.6906,224.7001 121.4036,225.2571 C125.1156,225.8131 130.3156,211.0191 130.3156,211.0191 L132.4696,238.3641 L131.7946,293.6471 C131.7946,293.6471 154.5086,298.8121 168.2896,298.0531 C182.0696,297.2951 203.2166,292.9421 203.2166,292.9421 L199.8556,238.6471 L200.9996,207.9351 C200.9996,207.9351 207.3806,225.5701 209.3316,225.3321 C211.2836,225.0951 229.4036,219.8551 232.8936,217.8241 C236.2256,215.8851 218.2396,163.2121 213.0676,160.0511 C207.8956,156.8901 177.6936,148.8451 171.8196,149.1281 C165.9446,149.4101 150.7786,149.9781 150.7786,149.9781"/>
    <path fill="#B3B3B3" d="M164.1179,149.3652 C170.4929,149.3642 179.2379,151.6952 181.9939,152.4772 C182.7259,148.6672 182.8669,145.9362 182.8669,145.9362 C182.8669,145.9362 171.7779,142.5692 164.1179,142.5702 C158.1059,142.5712 147.0979,145.0382 147.0979,145.0382 C147.0979,145.0382 147.3689,147.7512 148.4339,151.5472 C151.5449,150.8972 159.3809,149.3662 164.1179,149.3652"/>
    <path fill="#FAAD40" d="M172.6998,143.0794 C172.6998,131.2444 164.7958,133.3104 164.7958,133.3104 C164.7958,133.3104 156.8908,131.2444 156.8908,143.0794 C156.8908,152.2744 146.5438,159.1704 164.7958,159.1704 C183.0468,159.1704 172.6998,152.2744 172.6998,143.0794"/>
    <path fill="#FAAD40" d="M140.4914 152.7051C138.4814 153.8411 148.3634 163.4641 156.2854 172.3931 160.3894 177.0201 162.1914 187.1461 166.4434 187.1491 170.8574 187.1531 171.0044 179.9661 174.9394 175.1301 182.1134 166.3151 188.0974 153.6341 189.3964 152.7051 191.4074 151.2671 170.5354 148.1621 164.1184 148.2331 158.1064 148.2991 143.5424 150.9811 140.4914 152.7051M163.9472 144.8034C155.1702 144.8034 134.6902 127.8504 139.6102 84.1764 140.9342 72.4284 163.9472 72.9704 163.9472 72.9704 163.9472 72.9704 186.5012 72.4994 188.2842 84.1764 194.4812 124.7654 172.7242 144.8034 163.9472 144.8034"/>
    <path fill="#461A00" d="M172.9806,103.4375 C172.9806,104.8075 174.0906,105.9175 175.4606,105.9175 C176.8306,105.9175 177.9406,104.8075 177.9406,103.4375 C177.9406,102.0675 176.8306,100.9575 175.4606,100.9575 C174.0906,100.9575 172.9806,102.0675 172.9806,103.4375"/>
    <path fill="#FBB03B" d="M196.0358,97.2537 C196.0358,104.4717 196.5088,110.3237 191.2918,110.3237 C186.0748,110.3237 189.1828,104.4717 189.1828,97.2537 C189.1828,90.0357 190.1268,89.3557 191.2918,89.3557 C192.4578,89.3557 196.0358,90.0357 196.0358,97.2537"/>
    <path fill="#461A00" d="M154.8863,103.4375 C154.8863,104.8075 153.7763,105.9175 152.4063,105.9175 C151.0363,105.9175 149.9263,104.8075 149.9263,103.4375 C149.9263,102.0675 151.0363,100.9575 152.4063,100.9575 C153.7763,100.9575 154.8863,102.0675 154.8863,103.4375"/>
    <path fill="#000000" fill-opacity=".1" d="M157.4685 114.042C157.7475 120.04 162.4245 122.662 163.9335 122.662 165.4415 122.662 170.1195 120.04 170.3985 114.042 170.3985 114.042 166.3035 117.921 163.9335 117.921 161.5625 117.921 157.4685 114.042 157.4685 114.042M156.9042 142.2725C156.9042 142.2725 157.1372 145.3365 155.6952 149.0845 154.7942 151.4245 162.2472 152.7055 165.0492 152.7055 167.4732 152.7055 171.6742 149.8835 173.1042 146.3885 172.5572 144.2215 172.7982 142.0625 172.5572 140.8515 172.5572 140.8515 167.9562 144.4115 163.9332 144.4115 159.9112 144.4115 156.9042 142.2725 156.9042 142.2725"/>
    <path fill="#FBB03B" d="M132.9637,97.2537 C132.9637,104.4717 132.4907,110.3237 137.7077,110.3237 C142.9247,110.3237 139.8167,104.4717 139.8167,97.2537 C139.8167,90.0357 138.8727,89.3557 137.7077,89.3557 C136.5417,89.3557 132.9637,90.0357 132.9637,97.2537"/>
    <path fill="#42210B" d="M138.4548,69.5999 C141.0578,65.3499 141.4458,69.3339 146.2958,69.6209 C149.3208,69.7999 144.2108,83.2779 142.5308,88.9199 C141.8128,91.3349 141.5318,98.6389 140.1378,101.6889 C140.1378,101.6889 129.2128,85.4009 138.4548,69.5999"/>
    <path fill="#000000" fill-opacity=".1" d="M143.0868,87.4533 C143.0868,87.4533 147.1168,89.8343 157.4688,89.3563 C169.5328,88.7983 170.8708,85.6363 179.4698,86.7453 C183.8578,87.3113 185.9528,90.7923 185.9528,90.7923 L186.4068,72.9663 L143.5508,83.4893 L143.0868,87.4533 Z"/>
    <path fill="#603813" d="M189.3781,74.5616 C184.4141,66.4576 173.1041,56.1666 154.8861,61.9356 C148.2101,64.0486 140.1441,64.6736 138.4551,69.5996 C137.1261,73.4756 142.9701,87.4296 143.0871,87.4536 C165.3671,91.9606 181.5461,74.5616 185.0771,86.4246 C185.7961,88.8396 186.5551,97.9936 187.9491,101.0436 C187.9491,101.0436 192.5651,87.9086 189.3781,74.5616"/>
    <path fill="#FFFFFF" fill-opacity=".2" d="M142.4182,75.2537 C142.4182,75.2537 140.9672,70.0407 142.8032,69.1907 C145.8292,67.7917 157.0892,64.1507 157.0892,64.1507 C157.0892,64.1507 158.8832,67.4547 156.1562,69.0077 C153.4292,70.5617 149.0742,68.5567 146.1952,71.7777 C144.0582,74.1677 144.5882,76.1457 142.4182,75.2537"/>
    <path fill="#F2F2F2" d="M160.877,170.1284 C160.877,170.1284 163.46,177.8124 164.463,180.1324 C166.977,185.9454 165.973,193.7204 165.973,193.7204 C165.211,194.0694 160.57,193.7204 160.57,193.7204 C161.206,176.4924 150.779,173.7144 150.779,173.7144 C153.264,170.3834 160.877,170.1284 160.877,170.1284"/>
    <path fill="#000000" fill-opacity=".1" d="M170.5036,172.2047 C168.8166,173.5257 167.8486,178.5977 167.2566,180.5687 C166.6686,182.5287 166.2446,184.3687 165.9396,186.0187 C165.0696,190.7117 165.6506,193.8657 165.6506,193.8657 L167.0306,193.5997 C167.0306,193.5997 171.8276,176.6907 170.5036,172.2047"/>
    <path fill="#F2F2F2" d="M170.5036,172.2047 C168.7456,173.6077 169.4516,178.1667 167.7496,182.4917 C165.5696,188.0297 165.9726,193.7207 165.9726,193.7207 C165.9726,193.7207 168.0516,193.4127 169.0046,193.3457 C170.0026,193.2747 171.7196,193.2757 171.7196,193.2757 C172.0726,179.2947 178.2016,175.5257 178.2016,175.5257 C175.7156,172.1947 172.1026,170.9287 170.5036,172.2047"/>
    <path fill="#000000" fill-opacity=".1" d="M170.5036 172.2047C169.3706 172.6767 169.0046 176.9957 169.0046 176.9957 169.0046 176.9957 172.0616 172.9777 185.1326 179.6777 185.1326 179.6777 194.9006 167.9577 193.1076 157.0567 192.4186 152.8737 171.5436 171.7717 170.5036 172.2047M160.877 170.1284L162.165 173.8914C162.165 173.8914 156.512 169.6684 146.437 181.3474 146.437 181.3474 135.676 171.1244 137.9 153.9144 137.9 153.9144 140.076 153.1984 141.246 154.0194 146.644 157.8044 160.022 169.7724 160.877 170.1284"/>
    <path fill="#E6E6E6" d="M147.0978 145.0384C147.0978 145.0384 150.4538 156.7004 151.4568 159.0214 153.9708 164.8344 160.8768 170.1284 160.8768 170.1284 151.8168 171.4494 146.4368 180.2264 146.4368 180.2264 135.0708 167.2174 138.1518 153.4514 138.1518 153.4514 140.6368 150.1204 147.0978 145.0384 147.0978 145.0384M182.8671 145.936C182.8671 145.936 180.7161 156.701 179.7121 159.021 177.1981 164.834 170.5031 172.205 170.5031 172.205 175.2691 174.084 184.9431 178.622 184.9431 178.622 196.3091 165.613 193.0181 153.451 193.0181 153.451 190.5321 150.12 182.8671 145.936 182.8671 145.936"/>
    <path fill="#FFFFFF" fill-opacity=".3" d="M103.5936,211.4635 C103.5936,211.4635 119.2486,166.9285 123.2736,164.7735 C127.2986,162.6185 135.2596,159.1705 135.2596,159.1705 C135.2596,159.1705 137.9836,163.9115 133.6636,166.9285 C132.6156,167.6605 130.0046,169.1055 127.6956,173.3935 C120.4866,186.7775 112.1346,213.4635 109.1966,214.7685 C105.3176,216.4925 103.5936,211.4635 103.5936,211.4635"/>
    <path fill="#000000" fill-opacity=".1" d="M209.332 225.2566C209.332 225.2566 230.152 220.1636 232.893 217.7856 235.842 215.2286 221.271 172.9616 215.514 163.2946 214.639 161.8256 210.38 156.1916 211.343 166.9276 211.866 172.7516 215.324 211.1806 212.417 215.9196 209.51 220.6596 209.332 225.2566 209.332 225.2566M203.2168 292.9424L199.8548 238.6464 200.9998 207.8574C200.9998 207.8574 196.4818 205.5394 194.3148 211.5734 192.1488 217.6074 180.8048 296.7904 180.8048 296.7904 192.0108 296.0444 203.2168 292.9424 203.2168 292.9424"/>
  </g>
</svg>
