<svg id="Aqua" xmlns="http://www.w3.org/2000/svg" viewBox="0 0 600 420"><defs><style>.cls-1{fill:#32b2b2;}.cls-2{fill:#2ea3a0;}</style></defs><title>aqua-phold</title><rect class="cls-1" x="-21" y="-30" width="641" height="461.97"/><polygon class="cls-2" points="-11 165 80 165 -11 257 -11 165"/><polygon class="cls-2" points="80 165 171 165 80 257 80 165"/><polygon class="cls-2" points="171 165 262 165 171 257 171 165"/><polygon class="cls-2" points="262 165 353 165 262 257 262 165"/><polygon class="cls-2" points="353 165 445 165 353 257 353 165"/><polygon class="cls-2" points="445 165 536 165 445 257 445 165"/><polygon class="cls-2" points="536 165 627 165 536 257 536 165"/><polygon class="cls-2" points="-11 257 80 257 -11 348 -11 257"/><polygon class="cls-2" points="80 257 171 257 80 348 80 257"/><polygon class="cls-2" points="171 257 262 257 171 348 171 257"/><polygon class="cls-2" points="262 257 353 257 262 348 262 257"/><polygon class="cls-2" points="353 257 445 257 353 348 353 257"/><polygon class="cls-2" points="445 257 536 257 445 348 445 257"/><polygon class="cls-2" points="536 257 627 257 536 348 536 257"/><polygon class="cls-2" points="-11 348 80 348 -11 439 -11 348"/><polygon class="cls-2" points="80 348 171 348 80 439 80 348"/><polygon class="cls-2" points="171 348 262 348 171 439 171 348"/><polygon class="cls-2" points="262 348 353 348 262 439 262 348"/><polygon class="cls-2" points="353 348 445 348 353 439 353 348"/><polygon class="cls-2" points="445 348 536 348 445 439 445 348"/><polygon class="cls-2" points="536 348 627 348 536 439 536 348"/><polygon class="cls-2" points="-11 74 80 74 -11 165 -11 74"/><polygon class="cls-2" points="80 74 171 74 80 165 80 74"/><polygon class="cls-2" points="171 74 262 74 171 165 171 74"/><polygon class="cls-2" points="262 74 353 74 262 165 262 74"/><polygon class="cls-2" points="353 74 445 74 353 165 353 74"/><polygon class="cls-2" points="445 74 536 74 445 165 445 74"/><polygon class="cls-2" points="536 74 627 74 536 165 536 74"/><polygon class="cls-2" points="-11 -17 80 -17 -11 74 -11 -17"/><polygon class="cls-2" points="80 -17 171 -17 80 74 80 -17"/><polygon class="cls-2" points="171 -17 262 -17 171 74 171 -17"/><polygon class="cls-2" points="262 -17 353 -17 262 74 262 -17"/><polygon class="cls-2" points="353 -17 445 -17 353 74 353 -17"/><polygon class="cls-2" points="445 -17 536 -17 445 74 445 -17"/><polygon class="cls-2" points="536 -17 627 -17 536 74 536 -17"/></svg>