<svg id="Blue" xmlns="http://www.w3.org/2000/svg" viewBox="0 0 600 420"><defs><style>.cls-1{fill:#0d95d1;}.cls-2{fill:#0ea2dc;}</style></defs><title>blue-phold</title><rect class="cls-1" x="-57" y="-32" width="666" height="473.15"/><polygon class="cls-2" points="65 -9 150 138 -20 138 65 -9"/><polygon class="cls-2" points="235 -9 320 138 150 138 235 -9"/><polygon class="cls-2" points="404 -9 489 138 320 138 404 -9"/><polygon class="cls-2" points="574 -9 659 138 489 138 574 -9"/><polygon class="cls-2" points="-20 138 65 285 -105 285 -20 138"/><polygon class="cls-2" points="150 138 235 285 65 285 150 138"/><polygon class="cls-2" points="320 138 404 285 235 285 320 138"/><polygon class="cls-2" points="489 138 574 285 404 285 489 138"/><polygon class="cls-2" points="65 285 150 432 -20 432 65 285"/><polygon class="cls-2" points="235 285 320 432 150 432 235 285"/><polygon class="cls-2" points="404 285 489 432 320 432 404 285"/><polygon class="cls-2" points="574 285 659 432 489 432 574 285"/></svg>