<svg id="Green" xmlns="http://www.w3.org/2000/svg" viewBox="0 0 600 420"><defs><style>.cls-1{fill:#a4ce4e;}.cls-2{fill:#93c037;}</style></defs><title>green-phold</title><rect class="cls-1" x="-70" y="-43" width="730" height="499.44"/><polygon class="cls-2" points="11 501 -165 326 -11 172 -146 36 35 -145 92 -89 -33 36 102 172 -51 326 68 445 11 501"/><polygon class="cls-2" points="204 501 29 326 182 172 47 36 228 -145 285 -89 160 36 296 172 142 326 261 445 204 501"/><polygon class="cls-2" points="398 501 222 326 376 172 240 36 421 -145 478 -89 353 36 489 172 335 326 454 445 398 501"/><polygon class="cls-2" points="591 501 415 326 569 172 433 36 615 -145 671 -89 546 36 682 172 528 326 647 445 591 501"/></svg>