<svg id="Orange" xmlns="http://www.w3.org/2000/svg" viewBox="0 0 600 420"><defs><style>.cls-1{fill:#ea9939;}.cls-2{fill:#faad40;}</style></defs><title>orange-phold</title><rect class="cls-1" x="-366" y="-251" width="1283" height="911.83"/><polygon class="cls-2" points="-132 -208 32 76 -295 76 -132 -208"/><polygon class="cls-2" points="195 -208 359 76 32 76 195 -208"/><polygon class="cls-2" points="523 -208 686 76 359 76 523 -208"/><polygon class="cls-2" points="32 76 195 359 -132 359 32 76"/><polygon class="cls-2" points="359 76 523 359 195 359 359 76"/><polygon class="cls-2" points="686 76 850 359 523 359 686 76"/><polygon class="cls-2" points="-132 359 32 642 -295 642 -132 359"/><polygon class="cls-2" points="195 359 359 642 32 642 195 359"/><polygon class="cls-2" points="523 359 686 642 359 642 523 359"/></svg>