<svg id="Pink" xmlns="http://www.w3.org/2000/svg" viewBox="0 0 600 420"><defs><style>.cls-1{fill:#ED4F7E;}.cls-2{fill:#e04477;}</style></defs><title>pink-phold</title><rect class="cls-1" x="-70" y="-43" width="730" height="499.44"/><rect class="cls-2" x="-26" y="-2" width="62" height="333.19" transform="translate(-30 4) rotate(-11)"/><rect class="cls-2" x="96" y="-24" width="62" height="333.19" transform="translate(-24 26) rotate(-11)"/><rect class="cls-2" x="217" y="-47" width="62" height="333.19" transform="translate(-18 48) rotate(-11)"/><rect class="cls-2" x="7" y="331" width="62" height="333.19" transform="translate(-91 16) rotate(-11)"/><rect class="cls-2" x="129" y="308" width="62" height="333.19" transform="translate(-85 38) rotate(-11)"/><rect class="cls-2" x="251" y="286" width="62" height="333.19" transform="translate(-79 60) rotate(-11)"/><rect class="cls-2" x="339" y="-70" width="62" height="333.19" transform="translate(-11 70) rotate(-11)"/><rect class="cls-2" x="461" y="-93" width="62" height="333.19" transform="translate(-5 92) rotate(-11)"/><rect class="cls-2" x="583" y="-116" width="62" height="333.19" transform="translate(1 114) rotate(-11)"/><rect class="cls-2" x="372" y="263" width="62" height="333.19" transform="translate(-72 82) rotate(-11)"/><rect class="cls-2" x="494" y="240" width="62" height="333.19" transform="translate(-66 104) rotate(-11)"/><rect class="cls-2" x="616" y="217" width="62" height="333.19" transform="translate(-60 126) rotate(-11)"/></svg>