<svg xmlns="http://www.w3.org/2000/svg" width="559" height="101" viewBox="0 0 559 101"><g fill="none" fill-rule="evenodd"><path fill="#ED4F7E" d="M14.004 38.374c1.992-.974 3 0 3 1.467 0 1.959-2.836 6.359-3.832 6.359-1.008 0-1.781-3.884-2.168-6.36C10.605 37.4 10.5 33 7.5 33S0 38.649 0 38.649l.996 1.192c2.004-1.467 2.613-1.17 3 0l3 9.292c.48 1.467 1.5 4.4 4.277 4.4C14.496 53.533 24 43.267 24 36.965 24 34.57 22.5 33 20.496 33c-1.992 0-5.496 1.467-6.492 5.374z"/><path fill="#FFF" d="M142.004 38.374c1.992-.974 3 0 3 1.467 0 1.959-2.836 6.359-3.832 6.359-1.008 0-1.781-3.884-2.168-6.36-.399-2.44-.504-6.84-3.504-6.84s-7.5 5.649-7.5 5.649l.996 1.192c2.004-1.467 2.613-1.17 3 0l3 9.292c.48 1.467 1.5 4.4 4.277 4.4 3.223 0 12.727-10.266 12.727-16.568 0-2.395-1.5-3.965-3.504-3.965-1.992 0-5.496 1.467-6.492 5.374z"/><path fill="#ED4F7E" d="M48.928 36.32a5.263 5.263 0 0 0 2.348-2.941 10.746 10.746 0 0 1-3.364 1.287C46.91 33.656 45.525 33 43.99 33c-2.945 0-5.32 2.36-5.32 5.288 0 .416.026.845.115 1.224-4.418-.24-8.328-2.234-10.981-5.44-.445.783-.724 1.59-.724 2.575 0 1.818.94 3.433 2.387 4.392a5.37 5.37 0 0 1-2.412-.656v.063c0 2.574 1.84 4.72 4.278 5.2-.457.126-.94.189-1.422.189-.33 0-.66-.038-.99-.101.66 2.095 2.653 3.66 4.964 3.685-1.803 1.439-4.126 2.511-6.614 2.511a8.47 8.47 0 0 1-1.27-.088C28.349 53.344 31.18 54 34.188 54c9.801 0 15.159-8.077 15.159-15.081v-.694A10.768 10.768 0 0 0 52 35.474c-.965.429-1.98.719-3.072.845z"/><path fill="#FFF" d="M176.928 36.32a5.263 5.263 0 0 0 2.348-2.941 10.746 10.746 0 0 1-3.364 1.287C174.91 33.656 173.525 33 171.99 33c-2.945 0-5.32 2.36-5.32 5.288 0 .416.026.845.115 1.224-4.418-.24-8.328-2.234-10.981-5.44-.445.783-.724 1.59-.724 2.575 0 1.818.94 3.433 2.387 4.392a5.37 5.37 0 0 1-2.412-.656v.063c0 2.574 1.84 4.72 4.278 5.2-.457.126-.94.189-1.422.189-.33 0-.66-.038-.99-.101.66 2.095 2.653 3.66 4.964 3.685-1.803 1.439-4.126 2.511-6.614 2.511a8.47 8.47 0 0 1-1.27-.088c2.349 1.502 5.18 2.158 8.188 2.158 9.801 0 15.159-8.077 15.159-15.081v-.694A10.768 10.768 0 0 0 180 35.474c-.965.429-1.98.719-3.072.845z"/><path fill="#ED4F7E" d="M53 44.677C53 50.105 56.672 54.7 61.625 56v-2.349c-3.616-1.106-4.582-3.888-4.627-4.003a.346.346 0 0 1 .157-.376c.101-.08.259-.057.37.057.023 0 1.966 1.939 4.37 1.893.18-.49.471-.98.932-1.334-3.089-.479-5.514-2.315-5.514-5.211 0-1.186.482-2.383 1.336-3.353-.27-1.106-.382-2.463.101-3.455 1.224.103 2.426.73 3.324 1.289.753-.183 1.55-.32 2.426-.32.876 0 1.673.137 2.426.32.898-.56 2.1-1.186 3.324-1.289.483.992.348 2.35.101 3.455.854.97 1.337 2.167 1.337 3.353 0 2.896-2.426 4.732-5.515 5.211.966.764 1.202 2.11 1.202 3.056V56C72.328 54.7 76 50.105 76 44.677 76 38.245 70.834 33 64.5 33 58.132 33 53 38.245 53 44.677z"/><path fill="#FFF" d="M181 44.677c0 5.428 3.672 10.023 8.625 11.323v-2.349c-3.616-1.106-4.582-3.888-4.627-4.003a.346.346 0 0 1 .157-.376c.101-.08.259-.057.37.057.023 0 1.966 1.939 4.37 1.893.18-.49.471-.98.932-1.334-3.089-.479-5.514-2.315-5.514-5.211 0-1.186.482-2.383 1.336-3.353-.27-1.106-.382-2.463.101-3.455 1.224.103 2.426.73 3.324 1.289.753-.183 1.55-.32 2.426-.32.876 0 1.673.137 2.426.32.898-.56 2.1-1.186 3.324-1.289.483.992.348 2.35.101 3.455.854.97 1.337 2.167 1.337 3.353 0 2.896-2.426 4.732-5.515 5.211.966.764 1.202 2.11 1.202 3.056V56c4.953-1.3 8.625-5.895 8.625-11.323C204 38.245 198.834 33 192.5 33c-6.368 0-11.5 5.245-11.5 11.677z"/><path fill="#EA507E" d="M100.7 34H81.678c-.932 0-1.678.733-1.678 1.589V54.41c0 .856.746 1.589 1.678 1.589h19.084c.933 0 1.679-.733 1.679-1.589V35.59c-.063-.856-.809-1.589-1.741-1.589zM86.651 52.761h-3.356V42.25h3.294v10.511h.062zm-1.678-11.978c-1.057 0-1.927-.855-1.927-1.894s.87-1.833 1.927-1.833 1.927.855 1.927 1.894-.87 1.833-1.927 1.833zm14.11 11.978H95.79v-5.133c0-1.222 0-2.811-1.74-2.811s-1.99 1.344-1.99 2.689V52.7h-3.356V42.25h3.17v1.406h.062c.435-.856 1.554-1.712 3.17-1.712 3.357 0 3.979 2.2 3.979 5.012v5.805z"/><path fill="#FFF" d="M228.7 34h-19.022c-.932 0-1.678.733-1.678 1.589V54.41c0 .856.746 1.589 1.678 1.589h19.084c.933 0 1.679-.733 1.679-1.589V35.59c-.063-.856-.809-1.589-1.741-1.589zm-14.049 18.761h-3.356V42.25h3.294v10.511h.062zm-1.678-11.978c-1.057 0-1.927-.855-1.927-1.894s.87-1.833 1.927-1.833 1.927.855 1.927 1.894-.87 1.833-1.927 1.833zm14.11 11.978h-3.294v-5.133c0-1.222 0-2.811-1.74-2.811s-1.99 1.344-1.99 2.689V52.7h-3.356V42.25h3.17v1.406h.062c.435-.856 1.554-1.712 3.17-1.712 3.357 0 3.979 2.2 3.979 5.012v5.805z"/><path fill="#EA507E" d="M127 35.375c0-.752-.623-1.375-1.375-1.375h-19.25c-.752 0-1.375.623-1.375 1.375v19.25c0 .752.623 1.375 1.375 1.375h10.388v-8.55h-2.75v-3.17h2.75v-2.739c0-2.503 1.525-4.179 4.544-4.179 1.332 0 2.255.15 2.255.15v2.858H121.5c-.913 0-1.375.516-1.375 1.418v2.492h3.212l-.462 3.17h-2.75V56h5.5c.752 0 1.375-.623 1.375-1.375v-19.25z"/><path fill="#FFF" d="M255 35.375c0-.752-.623-1.375-1.375-1.375h-19.25c-.752 0-1.375.623-1.375 1.375v19.25c0 .752.623 1.375 1.375 1.375h10.388v-8.55h-2.75v-3.17h2.75v-2.739c0-2.503 1.525-4.179 4.544-4.179 1.332 0 2.256.15 2.256.15v2.858H249.5c-.913 0-1.375.516-1.375 1.418v2.492h3.212l-.462 3.17h-2.75V56h5.5c.752 0 1.375-.623 1.375-1.375v-19.25z"/><path fill="#6D7483" d="M277 41.524a.396.396 0 0 0-.399-.399H258.4a.396.396 0 0 0-.399.399v3.952c0 .223.176.399.399.399H276.6a.396.396 0 0 0 .399-.399v-3.952zm0-7.125a.396.396 0 0 0-.399-.399H258.4a.396.396 0 0 0-.399.399v3.952c0 .223.176.399.399.399H276.6a.396.396 0 0 0 .399-.399V34.4zm0 14.25a.396.396 0 0 0-.399-.399H258.4a.396.396 0 0 0-.399.399V52.6c0 .223.176.399.399.399H276.6a.396.396 0 0 0 .399-.399V48.65zm14.936-7.149l4.96-4.96a.463.463 0 0 0 .104-.293.437.437 0 0 0-.104-.284l-2.859-2.859a.437.437 0 0 0-.284-.104.463.463 0 0 0-.293.104l-4.96 4.96-4.96-4.96a.463.463 0 0 0-.293-.104.437.437 0 0 0-.284.104l-2.859 2.859a.437.437 0 0 0-.104.284c0 .113.038.208.104.293l4.96 4.96-4.96 4.96a.463.463 0 0 0-.104.293c0 .114.038.2.104.284l2.859 2.859c.085.066.17.104.284.104a.463.463 0 0 0 .293-.104l4.96-4.96 4.96 4.96c.085.066.18.104.293.104a.437.437 0 0 0 .284-.104l2.859-2.859a.437.437 0 0 0 .104-.284.463.463 0 0 0-.104-.293l-4.96-4.96z"/><path fill="#000" d="M228.5 69c-6.338 0-11.5 5.533-11.5 12.267 0 9.2 9.703 18.766 9.703 18.766 1.307 1.234 2.091 1.334 3.496 0 0 0 9.801-9.566 9.801-18.766C240 74.533 234.838 69 228.5 69zm0 17.267c-3.006 0-5.423-2.467-5.423-5.534 0-3.066 2.417-5.566 5.423-5.566 3.006 0 5.456 2.5 5.456 5.566 0 3.067-2.45 5.534-5.456 5.534zm31.313 3.477c-.355.356-.87.42-1.29.162a22.422 22.422 0 0 1-4.094-3.269 20.309 20.309 0 0 1-3.224-4.11 1.076 1.076 0 0 1 .128-1.294l3.063-3.042c.226-.227.387-.518.387-.842 0-.226-.064-.388-.16-.582l-3.934-7.184c-.194-.356-.516-.583-.935-.583-1.741.162-3.708.744-4.836 1.877-3.998 4.013-1.516 13.074 5.32 19.967 4.578 4.595 10.058 7.152 14.411 7.152 2.128 0 3.998-.647 5.32-1.974 1.16-1.133 1.902-2.913 2.031-4.692 0-.421-.226-.777-.58-.971l-7.158-3.625s-.355-.194-.548-.194c-.355 0-.645.162-.838.42l-3.063 2.784z"/><path fill="#FFF" d="M324.813 89.747c-.355.356-.87.42-1.29.161a22.423 22.423 0 0 1-4.094-3.268 20.311 20.311 0 0 1-3.224-4.111 1.076 1.076 0 0 1 .128-1.295l3.063-3.042c.226-.227.387-.518.387-.842 0-.226-.064-.388-.16-.582l-3.934-7.185c-.194-.356-.516-.583-.935-.583-1.741.162-3.708.744-4.836 1.877-3.998 4.014-1.516 13.076 5.32 19.97C319.815 95.443 325.295 98 329.648 98c2.128 0 3.998-.647 5.32-1.974 1.16-1.133 1.902-2.913 2.031-4.693 0-.421-.226-.777-.58-.971l-7.158-3.625s-.355-.195-.548-.195c-.355 0-.645.162-.838.421l-3.063 2.784z"/><path fill="#6D7483" d="M388.813 89.747c-.355.356-.87.42-1.29.161a22.423 22.423 0 0 1-4.094-3.268 20.311 20.311 0 0 1-3.224-4.111 1.076 1.076 0 0 1 .128-1.295l3.063-3.042c.226-.227.387-.518.387-.842 0-.226-.064-.388-.16-.582l-3.934-7.185c-.194-.356-.516-.583-.935-.583-1.741.162-3.708.744-4.836 1.877-3.998 4.014-1.516 13.076 5.32 19.97C383.815 95.443 389.295 98 393.648 98c2.128 0 3.998-.647 5.32-1.974 1.16-1.133 1.902-2.913 2.031-4.693 0-.421-.226-.777-.58-.971l-7.158-3.625s-.355-.195-.548-.195c-.355 0-.645.162-.838.421l-3.063 2.784z"/><path fill="#EA507E" d="M451.813 89.747c-.355.356-.87.42-1.29.161a22.423 22.423 0 0 1-4.094-3.268 20.311 20.311 0 0 1-3.224-4.111 1.076 1.076 0 0 1 .128-1.295l3.063-3.042c.226-.227.387-.518.387-.842 0-.226-.064-.388-.16-.582l-3.934-7.185c-.194-.356-.516-.583-.935-.583-1.741.162-3.708.744-4.836 1.877-3.998 4.014-1.516 13.076 5.32 19.97C446.815 95.443 452.295 98 456.648 98c2.128 0 3.998-.647 5.32-1.974 1.16-1.133 1.902-2.913 2.031-4.693 0-.421-.226-.777-.58-.971l-7.158-3.625s-.355-.195-.548-.195c-.355 0-.645.162-.838.421l-3.063 2.784z"/><path fill="#FFF" d="M358.74 85.406c-1.198.912-2.719 1.302-4.24 1.302-1.521 0-3.042-.39-4.24-1.302L340 77.496v14.518c0 .521.388.944.874 1.01 4.499.65 9.095.976 13.626.976 4.531 0 9.127-.326 13.594-.977.518-.065.906-.488.906-1.009V77.496l-10.26 7.91zm-17.607-11.198l11.037 8.399c.615.488 1.456.716 2.33.716.874 0 1.715-.228 2.33-.716l11.037-8.399c.777-.748 1.036-1.367 1.133-1.725v-1.497c0-.521-.388-.944-.906-1.01A94.457 94.457 0 0 0 354.5 69c-4.564 0-9.127.326-13.626.977a1.017 1.017 0 0 0-.874 1.009v1.497c.097.358.356.977 1.133 1.725z"/><path fill="#6D7483" d="M422.74 85.406c-1.198.912-2.719 1.302-4.24 1.302-1.521 0-3.042-.39-4.24-1.302L404 77.496v14.518c0 .521.388.944.874 1.01 4.499.65 9.095.976 13.626.976 4.531 0 9.127-.326 13.594-.977.518-.065.906-.488.906-1.009V77.496l-10.26 7.91zm-17.607-11.198l11.037 8.399c.615.488 1.456.716 2.33.716.874 0 1.715-.228 2.33-.716l11.037-8.399c.777-.748 1.036-1.367 1.133-1.725v-1.497c0-.521-.388-.944-.906-1.01A94.457 94.457 0 0 0 418.5 69c-4.564 0-9.127.326-13.626.977a1.017 1.017 0 0 0-.874 1.009v1.497c.097.358.356.977 1.133 1.725z"/><path fill="#EA507E" d="M485.74 85.406c-1.198.912-2.719 1.302-4.24 1.302-1.521 0-3.042-.39-4.24-1.302L467 77.496v14.518c0 .521.388.944.874 1.01 4.499.65 9.095.976 13.626.976 4.531 0 9.127-.326 13.594-.977.518-.065.906-.488.906-1.009V77.496l-10.26 7.91zm-17.607-11.198l11.037 8.399c.615.488 1.456.716 2.33.716.874 0 1.715-.228 2.33-.716l11.037-8.399c.777-.748 1.036-1.367 1.133-1.725v-1.497c0-.521-.388-.944-.906-1.01A94.457 94.457 0 0 0 481.5 69c-4.564 0-9.127.326-13.626.977a1.017 1.017 0 0 0-.874 1.009v1.497c.097.358.356.977 1.133 1.725z"/><path fill="#000" d="M293.74 85.406c-1.198.912-2.719 1.302-4.24 1.302-1.521 0-3.042-.39-4.24-1.302L275 77.496v14.518c0 .521.388.944.874 1.01 4.499.65 9.095.976 13.626.976 4.531 0 9.127-.326 13.594-.977.518-.065.906-.488.906-1.009V77.496l-10.26 7.91zm-17.607-11.198l11.037 8.399c.615.488 1.456.716 2.33.716.874 0 1.715-.228 2.33-.716l11.037-8.399c.777-.748 1.036-1.367 1.133-1.725v-1.497c0-.521-.388-.944-.906-1.01A94.457 94.457 0 0 0 289.5 69c-4.564 0-9.127.326-13.626.977a1.017 1.017 0 0 0-.874 1.009v1.497c.097.358.356.977 1.133 1.725z"/><path fill="#FFF" d="M10.048 71.573l-.593-.84C8.565 69.515 7.46 69 6.248 69c-1.186 0-2.452.515-3.611 1.381C.239 72.088-.893 74.58.83 76.99l.593.84a12.776 12.776 0 0 1 8.624-6.257zm13.528 6.256l.593-.84c1.724-2.41.592-4.901-1.806-6.608C21.177 69.515 19.938 69 18.752 69c-1.213 0-2.345.515-3.207 1.733l-.593.84a12.776 12.776 0 0 1 8.624 6.256zm-.297 6.338c0-5.986-4.823-10.834-10.779-10.834-5.956 0-10.78 4.848-10.78 10.834C1.72 90.152 6.545 95 12.5 95c5.956 0 10.78-4.848 10.78-10.833zM12.5 91.669c-1.994 0-3.88-.759-5.282-2.194-1.428-1.408-2.183-3.304-2.183-5.308 0-2.005.755-3.9 2.183-5.309a7.422 7.422 0 0 1 5.282-2.193c1.994 0 3.88.785 5.282 2.193a7.497 7.497 0 0 1 2.183 5.309c0 2.004-.782 3.9-2.183 5.308-1.401 1.435-3.288 2.194-5.282 2.194zm1.078-11.836a1.104 1.104 0 0 0-1.024-1.029 1.085 1.085 0 0 0-1.132 1.03l-.189 4.468-1.751 3.223c-.243.46-.108 1.083.35 1.381a1.045 1.045 0 0 0 1.482-.27l2.29-3.305c.136-.19.19-.433.19-.677l-.216-4.82zm39.474-3.478c-.162-.782-.867-1.32-1.68-1.32h-3.439v-3.826c0-.835-.596-1.536-1.408-1.697A29.285 29.285 0 0 0 41 69c-1.869 0-3.71.162-5.525.512a1.708 1.708 0 0 0-1.408 1.697v3.825h-3.44a1.74 1.74 0 0 0-1.706 1.32C28.325 78.942 28 81.5 28 84.087c0 2.586.325 5.146.92 7.813a1.73 1.73 0 0 0 1.436 1.32C33.877 93.73 37.452 94 41 94s7.123-.27 10.644-.781a1.73 1.73 0 0 0 1.435-1.32c.596-2.667.921-5.227.921-7.813 0-2.586-.325-5.145-.948-7.731zm-11.808 9.132l-1.246 4.014a.855.855 0 0 1-.406.512.767.767 0 0 1-.407.108c-.108 0-.19-.027-.27-.027l-6.744-2.075a.88.88 0 0 1-.569-1.077l1.246-4.041c.081-.216.244-.404.433-.512.217-.108.434-.135.65-.054l6.744 2.074c.46.135.731.62.569 1.078zm3.223-10.453h-6.934v-2.451c2.6-.296 4.334-.296 6.934 0v2.451zm3.466 9.483a2.594 2.594 0 0 1-2.6-2.586 2.594 2.594 0 0 1 2.6-2.586c1.436 0 2.6 1.158 2.6 2.586a2.594 2.594 0 0 1-2.6 2.586zM75.768 69c-1.197 0-2.367.833-2.966 2.5-.87 2.318-1.769 7.5-1.769 10 0 1.745.98 2.682 2.068 3.073-.49 2.526-.98 5.156-.98 6.927 0 1.667 1.225 2.5 2.967 2.5S78 93.167 78 91.5v-20c0-1.458-1.007-2.5-2.232-2.5zm-7.348 8.333l-.87-6.77c-.055-.417-.436-.73-.871-.73-.49 0-.871.365-.871.834V76.5h-1.742v-5.833c0-.47-.38-.834-.87-.834s-.872.365-.872.834V76.5h-1.741v-5.833c0-.417-.3-.782-.735-.834-.49-.052-.925.287-.98.73l-.844 6.796c-.136 1.016.218 2.995 3.049 3.933-.409 2.838-1.007 7.317-1.007 10.052 0 1.38 1.415 2.656 3.156 2.656 1.742 0 3.13-1.276 3.13-2.656 0-2.735-.571-7.214-1.007-10.052 2.667-.86 3.212-2.76 3.075-3.959zm33.464-3.92c.333 0 .694-.138.944-.386l1.776-1.762a1.306 1.306 0 0 0 0-1.873 1.332 1.332 0 0 0-1.887 0l-1.777 1.763a1.306 1.306 0 0 0 0 1.872c.25.248.61.385.944.385zm-17.768 0c.333 0 .694-.138.944-.386a1.306 1.306 0 0 0 0-1.872l-1.777-1.763a1.332 1.332 0 0 0-1.887 0 1.306 1.306 0 0 0 0 1.873l1.776 1.762c.25.248.611.385.944.385zM96.665 87.95c.027-.33.055-.523.055-.523.222-1.377.86-2.396 2.249-4.103 1.36-1.707 2.026-3.084 2.026-5.066 0-4.296-3.498-7.93-7.995-7.93s-7.995 3.634-7.995 7.93c0 1.982.666 3.359 2.026 5.066 1.36 1.707 2 2.726 2.249 4.103 0 0 0 .193.028.523h7.357zm6.995-.44c.334 0 .695-.138.944-.386a1.306 1.306 0 0 0 0-1.872l-1.776-1.763a1.332 1.332 0 0 0-1.888 0 1.306 1.306 0 0 0 0 1.873l1.777 1.762c.25.248.61.385.943.385zm-21.32 0c.333 0 .694-.138.943-.386l1.777-1.762a1.306 1.306 0 0 0 0-1.873 1.332 1.332 0 0 0-1.888 0l-1.776 1.763a1.306 1.306 0 0 0 0 1.872c.25.248.61.385.944.385zM93 95c1.805 0 2.47-.909 2.998-2.616.195-.66.361-1.707.472-2.67h-6.968c.111.963.278 2.01.5 2.67C90.502 94.091 91.195 95 93 95zm18.423-18.2c-.35-2.194 1.536-3.494 2.992-3.494.188 0 .404.027.647.082.458.108.943-.055 1.24-.407a4.194 4.194 0 0 1 3.153-1.408c2.291 0 4.178 1.787 4.178 3.954 0 .731-.054 1.273-.054 1.273h2.452c.081-.406.081-.84.081-1.273 0-3.602-2.938-6.527-6.657-6.527-1.698 0-3.342.623-4.555 1.733-3.53-.298-6.28 2.682-6.01 6.067h2.533zM122.608 95c.701 0 1.321-.406 1.59-1.056.135-.325.243-.65.378-1.002 4.097-.542 8.167-3.386 8.41-7.72.107-1.976-.378-3.574-1.51-4.766-1.267-1.354-3.234-1.923-5.364-1.923h-8.625v2.6c0 2.6.863 3.467.863 5.2 0 3.684-5.175 3.684-5.175 0 0-1.733.862-2.6.862-5.2v-2.6h-3.88c-.81 0-1.537.542-1.699 1.327-.242 1.084-.458 2.194-.458 3.305 0 3.168.404 7.204 1.914 10.779.27.65.89 1.056 1.59 1.056h11.104zm3.02-5.85c.565-2.79.565-5.173.323-7.258 1.59-.054 3.854.108 3.692 3.141-.108 2.059-2.075 3.44-4.016 4.117zm27.566-14.078c.08-.352.108-.515.108-.895 0-2.873-2.33-5.177-5.203-5.177-2.872 0-5.202 2.304-5.202 5.177 0 .38.054.57.108.895 3.333-1.437 7.072-1.355 10.189 0zm8.48 6.912c-.026-.027-3.17-2.765-4.037-7.942a.864.864 0 0 0-.704-.705.894.894 0 0 0-.921.434l-2.06 3.795c-1.626-1.03-3.658-1.654-5.826-1.654-3.278 0-6.178 1.383-7.939 3.497.136-.976-.515-1.355-.786-1.545-.867-.542-1.978-.298-2.52.542-1.084 1.654-1.192 3.985-.19 5.476.597.867 1.193 1.22 1.843 1.49a7.67 7.67 0 0 0 2.087 4.013l-.786 2.71c-.271.922.298 1.898 1.22 2.169l2.573.677a1.73 1.73 0 0 0 2.033-1.002c.027-.082.487-1.708.487-1.708.57.108 1.247.162 1.951.162.867.028 1.816-.08 2.818-.325 0 0 .434 1.654.434 1.68.27.895 1.192 1.437 2.086 1.193l2.548-.65c.948-.217 1.49-1.193 1.273-2.114l-.488-1.762c.136-.055.298-.109.434-.19 3.577-1.654 4.633-4.093 4.715-4.229.027-.108.081-.244.081-.352v-3.01c0-.243-.135-.487-.325-.65zm-4.768.868c0 1.03-.813 1.843-1.816 1.843a1.845 1.845 0 0 1-1.842-1.843c0-1.003.84-1.816 1.842-1.816 1.003 0 1.816.813 1.816 1.816zm36.7-13.75a3.532 3.532 0 0 0-1.679 0 1.707 1.707 0 0 0-1.327 1.673v1.728c-.38-.027-.758-.054-1.137.027a1.717 1.717 0 0 0-1.463 1.7v8.613c0 .864.623 1.512 1.463 1.62.243.054.46.081.704.081.135 0 .298-.027.433-.054v1.81c0 .81.542 1.403 1.327 1.592.27.081.569.108.84.108.27 0 .568-.027.84-.108.785-.189 1.326-.783 1.326-1.593V70.775c0-.81-.541-1.485-1.327-1.674zm3.06 11.986h8.667v-5.183h-8.666v5.183zm13.407 6.804c.785-.189 1.327-.783 1.327-1.593V84.49c.135.027.298.054.433.054.244 0 .46-.027.704-.08.84-.109 1.463-.757 1.463-1.62V74.23c0-.864-.623-1.566-1.463-1.701-.379-.081-.758-.054-1.137-.027v-1.728c0-.81-.542-1.485-1.327-1.674a3.532 3.532 0 0 0-1.68 0 1.707 1.707 0 0 0-1.326 1.674V86.3c0 .81.541 1.404 1.327 1.593.27.081.569.108.84.108.27 0 .568-.027.839-.108zM174.5 73.312l-2.65-2.623c-1.734-1.715-4.282-1.815-6.117-1.513-2.039.303-2.039 1.614-1.223 2.421l5.912 5.75a103.913 103.913 0 0 0-3.058 2.925c-.918.908-2.345 2.522-2.447 4.237-.204 2.925 2.141 8.07 4.894 9.583 1.325.706 3.262.908 4.689.908s3.364-.303 4.69-.908c2.752-1.513 5.097-6.557 4.893-9.583-.102-1.715-1.631-3.43-2.447-4.237l-1.121-1.11-4.078 4.137 2.14 2.118c1.02 1.009.612 2.22.612 2.925 0 0-2.14.706-4.689.706s-4.69-.706-4.69-.706c0-.706-.407-1.916.612-2.925l14.068-13.92c.816-.808.816-2.018-1.223-2.422-1.835-.201-4.383-.1-6.116 1.614l-2.651 2.623zM8.485 10.834c-.291-.816-.903-1.254-1.866-1.254-.962 0-1.895.409-2.595 1.138v7.262c.525.437 1.37.875 2.158.875 1.924 0 2.683-1.313 2.683-4.725 0-1.43-.117-2.566-.38-3.296zm2.567 9.42c-1.021 1.08-2.362 1.692-3.995 1.692-1.167 0-2.275-.292-3.12-.788.058.35.058.788.058 1.225v4.667l-3.762.991V10.776C.233 8.822.204 8.268 0 7.014l3.47-.613c.146.526.233.934.262 1.4.671-.816 2.158-1.4 3.675-1.4a5.4 5.4 0 0 1 2.945.905c1.604 1.079 2.77 3.003 2.77 6.445 0 3.208-.525 4.841-2.07 6.503zm12.392-7.903c0-1.108-.116-1.691-.466-2.246-.38-.583-.933-.874-1.72-.874-1.488 0-2.333 1.166-2.333 3.237v.058h4.52v-.175zm-4.578 3.033v.117c0 2.304 1.138 3.616 3.15 3.616 1.34 0 2.595-.496 3.79-1.487l1.517 2.333c-1.72 1.4-3.529 2.07-5.628 2.07-4.287 0-7.057-3.032-7.057-7.728 0-2.683.554-4.462 1.866-5.92 1.225-1.37 2.712-2.013 4.695-2.013 1.72 0 3.353.584 4.316 1.575 1.37 1.4 1.983 3.412 1.983 6.533v.904h-8.632zM38.1 11.447c-.292-1.283-1.108-1.896-2.129-1.896-1.02 0-1.72.642-2.216 1.196v6.883c.525.466 1.137.962 2.187.962.962 0 1.575-.379 1.895-1.166.35-.817.438-1.604.438-3.442 0-1.341-.03-1.895-.175-2.537zm1.837 9.303c-1.02.817-2.041 1.167-3.266 1.167-1.458 0-2.479-.438-3.324-1.37-.117.524-.146.67-.408 1.078h-3.5c.292-.67.38-1.108.38-3.179V4.622c0-1.837-.059-2.828-.263-3.674l3.995-.933c.117 1.02.146 1.633.146 2.654v3.528c0 .438-.03 1.08-.088 1.313.758-.817 1.808-1.196 3.179-1.196 3.645 0 5.92 2.917 5.92 7.583 0 3.033-.934 5.395-2.771 6.853zm13.507-9.303c-.292-1.283-1.108-1.896-2.13-1.896-1.02 0-1.72.642-2.215 1.196v6.883c.525.466 1.137.962 2.187.962.962 0 1.575-.379 1.895-1.166.35-.817.438-1.604.438-3.442 0-1.341-.03-1.895-.175-2.537zm1.837 9.303c-1.021.817-2.042 1.167-3.266 1.167-1.458 0-2.479-.438-3.324-1.37-.117.524-.146.67-.409 1.078h-3.499c.292-.67.38-1.108.38-3.179V4.622c0-1.837-.06-2.828-.263-3.674l3.995-.933c.116 1.02.146 1.633.146 2.654v3.528c0 .438-.03 1.08-.088 1.313.758-.817 1.808-1.196 3.179-1.196 3.644 0 5.919 2.917 5.919 7.583 0 3.033-.933 5.395-2.77 6.853zm9.013 1.225c-1.662 0-3.004-.787-3.47-2.041-.292-.759-.35-1.225-.35-3.354V5.44c0-1.955-.058-3.15-.204-4.492l3.995-.904c.145.816.204 1.779.204 3.879v11.636c0 2.567.03 2.916.262 3.325.146.262.467.408.788.408.145 0 .233 0 .437-.058l.67 2.333c-.67.262-1.487.408-2.332.408m11.55-9.624c0-1.108-.117-1.691-.467-2.246-.379-.583-.933-.874-1.72-.874-1.487 0-2.333 1.166-2.333 3.237v.058h4.52v-.175zm-4.578 3.033v.117c0 2.304 1.137 3.616 3.149 3.616 1.341 0 2.595-.496 3.79-1.487l1.517 2.333c-1.72 1.4-3.528 2.07-5.628 2.07-4.286 0-7.057-3.032-7.057-7.728 0-2.683.554-4.462 1.867-5.92 1.224-1.37 2.711-2.013 4.694-2.013 1.72 0 3.354.584 4.316 1.575 1.37 1.4 1.983 3.412 1.983 6.533v.904h-8.631zm26.768 11.763c-2.07 0-3.762-1.225-3.762-4.258v-5.016c0-1.808-2.42-2.013-3.149-2.013v-3.324c.729 0 3.15-.204 3.15-2.012V5.478c0-3.033 1.603-4.229 3.76-4.229h3.063v3.325h-1.43c-1.778 0-1.894 1.08-1.894 1.866v4.696c0 2.712-1.692 2.916-2.917 3.033v.058c1.225.088 2.917.292 2.917 3.004v4.725c0 .787.116 1.866 1.895 1.866h1.429v3.325h-3.062m14.026-6.105c-1.05.612-2.217.933-3.645.933-4.112 0-6.503-2.858-6.503-7.7 0-3.44 1.312-5.715 3.062-6.911.991-.67 2.45-1.108 3.703-1.108.991 0 2.07.233 2.887.67.554.292.816.496 1.458 1.05l-1.896 2.567c-.787-.73-1.632-1.167-2.361-1.167-1.75 0-2.538 1.517-2.538 5.017 0 1.953.263 3.12.759 3.762a2.255 2.255 0 0 0 1.75.846c.903 0 1.72-.38 2.682-1.225l.233-.205 1.78 2.363c-.584.583-.847.787-1.371 1.108m10.896-10.966c-.378-.496-.991-.787-1.69-.787-.934 0-1.692.583-2.013 1.516-.262.788-.408 1.838-.408 3.325 0 1.72.175 3.004.496 3.762.35.817 1.224 1.225 1.983 1.225 1.69 0 2.42-1.516 2.42-5.045 0-2.013-.263-3.325-.788-3.996zm3.179 9.8c-1.137 1.282-2.624 2.07-4.928 2.07-4.053 0-6.707-3.033-6.707-7.729 0-4.695 2.683-7.816 6.707-7.816 2.128 0 3.79.73 5.074 2.246 1.195 1.4 1.72 3.033 1.72 5.454 0 2.566-.583 4.316-1.866 5.774zm12.996-9.246c-.728-.641-1.428-.962-2.128-.962-1.75 0-2.508 1.458-2.508 4.783 0 3.208.67 4.258 2.712 4.258.729 0 1.545-.496 1.924-.963V10.63zm.875 10.995c-.116-.233-.175-.467-.233-.875-.962.846-2.1 1.254-3.44 1.254-3.791 0-6.183-2.945-6.183-7.582 0-4.667 2.596-7.875 6.386-7.875 1.08 0 1.925.263 2.654.846-.059-.32-.117-1.341-.117-2.216V.044l3.879.612v15.515c0 3.675.291 4.871.553 5.454h-3.499zm14.734-9.274c0-1.108-.116-1.691-.466-2.246-.38-.583-.933-.874-1.72-.874-1.488 0-2.333 1.166-2.333 3.237v.058h4.52v-.175zm-4.578 3.033v.117c0 2.304 1.137 3.616 3.15 3.616 1.34 0 2.595-.496 3.79-1.487l1.517 2.333c-1.72 1.4-3.529 2.07-5.628 2.07-4.287 0-7.057-3.032-7.057-7.728 0-2.683.554-4.462 1.866-5.92 1.225-1.37 2.712-2.013 4.695-2.013 1.72 0 3.353.584 4.316 1.575 1.37 1.4 1.982 3.412 1.982 6.533v.904h-8.63zm16.592 2.489v5.045c0 3.033-1.604 4.23-3.762 4.23h-3.061v-3.326h1.428c1.78 0 1.896-1.079 1.896-1.866V17.26c0-2.712 1.691-2.916 2.916-3.033v-.058c-1.225-.088-2.916-.292-2.916-3.004V6.44c0-.787-.117-1.866-1.896-1.866h-1.428V1.249h3.149c1.983 0 3.674 1.225 3.674 4.258v5.017c0 1.808 2.333 2.012 3.15 2.012v3.324c-.817 0-3.15.205-3.15 2.013"/><path fill="#6B7482" d="M303.18 33.07l5.752 5.747c.047.051.07.112.07.182 0 .07-.023.13-.07.181l-5.753 5.747a.233.233 0 0 1-.178.077.233.233 0 0 1-.18-.077l-1.75-1.751a.242.242 0 0 1-.071-.179c0-.072.023-.132.07-.179l3.82-3.82-3.82-3.819a.242.242 0 0 1-.07-.178c0-.073.023-.132.07-.18l1.752-1.75a.288.288 0 0 1 .182-.071c.058 0 .117.023.175.07z"/><path fill="#FFF" d="M312.182 33.07l5.752 5.747c.047.051.07.112.07.182 0 .07-.023.13-.07.181l-5.752 5.747a.233.233 0 0 1-.18.077.233.233 0 0 1-.178-.077l-1.751-1.751a.242.242 0 0 1-.07-.179c0-.072.023-.132.07-.179l3.82-3.82-3.82-3.819a.242.242 0 0 1-.07-.178c0-.073.023-.132.07-.18l1.751-1.75a.288.288 0 0 1 .182-.071c.058 0 .117.023.176.07z"/><path fill="#EA507E" d="M321.18 33.07l5.752 5.747c.047.051.07.112.07.182 0 .07-.023.13-.07.181l-5.753 5.747a.233.233 0 0 1-.178.077.233.233 0 0 1-.18-.077l-1.75-1.751a.242.242 0 0 1-.071-.179c0-.072.023-.132.07-.179l3.82-3.82-3.82-3.819a.242.242 0 0 1-.07-.178c0-.073.023-.132.07-.18l1.752-1.75a.288.288 0 0 1 .182-.071c.058 0 .117.023.175.07z"/><path fill="#6B7482" d="M527 85c0 .773-.292 1.413-.875 1.92-7.504 6.053-15.18 10.68-23.028 13.88-.345.133-.677.2-.995.2-.477 0-.914-.12-1.312-.36-.743-.453-1.14-1.093-1.193-1.92-.027-.213-.087-.9-.18-2.06-.092-1.16-.185-2.873-.278-5.14A159.59 159.59 0 0 1 499 85c0-2.08.046-4.247.14-6.5.092-2.253.185-3.973.278-5.16.092-1.187.152-1.86.179-2.02.053-.827.45-1.48 1.193-1.96.398-.24.835-.36 1.312-.36.318 0 .65.067.995.2a82.49 82.49 0 0 1 7.258 3.44c2.453 1.307 4.54 2.513 6.264 3.62a111.767 111.767 0 0 1 4.892 3.32c1.538 1.107 2.639 1.92 3.302 2.44.662.52 1.1.887 1.312 1.1.583.453.875 1.08.875 1.88z"/><path fill="#EA507E" d="M559 85c0 .773-.292 1.413-.875 1.92-7.504 6.053-15.18 10.68-23.028 13.88-.345.133-.677.2-.995.2-.477 0-.914-.12-1.312-.36-.743-.453-1.14-1.093-1.193-1.92-.027-.213-.087-.9-.18-2.06-.092-1.16-.185-2.873-.278-5.14A159.59 159.59 0 0 1 531 85c0-2.08.046-4.247.14-6.5.092-2.253.185-3.973.278-5.16.092-1.187.152-1.86.179-2.02.053-.827.45-1.48 1.193-1.96.398-.24.835-.36 1.312-.36.318 0 .65.067.995.2a82.49 82.49 0 0 1 7.258 3.44c2.453 1.307 4.54 2.513 6.264 3.62a111.767 111.767 0 0 1 4.892 3.32c1.538 1.107 2.639 1.92 3.302 2.44.662.52 1.1.887 1.312 1.1.583.453.875 1.08.875 1.88z"/></g></svg>