<svg xmlns="http://www.w3.org/2000/svg" width="273" height="321" viewBox="0 0 273 321">
  <defs>
    <filter id="a" width="200%" height="200%" x="-50%" y="-50%" filterUnits="objectBoundingBox">
      <feOffset in="SourceAlpha" result="shadowOffsetOuter1"/>
      <feGaussianBlur stdDeviation="6" in="shadowOffsetOuter1" result="shadowBlurOuter1"/>
      <feColorMatrix values="0 0 0 0 0 0 0 0 0 0 0 0 0 0 0 0 0 0 0.15 0" in="shadowBlurOuter1" result="shadowMatrixOuter1"/>
      <feMerge>
        <feMergeNode in="shadowMatrixOuter1"/>
        <feMergeNode in="SourceGraphic"/>
      </feMerge>
    </filter>
  </defs>
  <g fill="none" fill-rule="evenodd" transform="rotate(-8 145.805 89.094)">
    <path fill="#000000" fill-opacity=".1" d="M252.466422,24.1854002 C252.466422,20.1406356 249.219216,16.8934302 245.174452,16.8934302 C241.129687,16.8934302 237.882482,20.1406356 237.882482,24.1854002 C237.882482,25.7805186 238.395198,27.2047315 239.192758,28.4010703 L233.552875,40.6493011 C232.527441,40.7632381 231.558977,41.0480807 230.704449,41.5038288 L223.298542,37.0602846 L223.298542,36.9463476 C223.298542,32.901583 220.051337,29.6543776 216.006572,29.6543776 C211.961807,29.6543776 208.714602,32.901583 208.714602,36.9463476 C208.714602,38.541466 209.227319,39.9656789 210.024878,41.1620177 L204.384995,53.4102485 C200.682041,53.7520596 197.776647,56.8283595 197.776647,60.64525 C197.776647,64.6900146 201.023852,67.93722 205.068617,67.93722 C209.113382,67.93722 212.360587,64.6900146 212.360587,60.64525 C212.360587,59.1071001 211.84787,57.6259187 210.993343,56.4295798 L216.690194,44.181349 C217.715627,44.067412 218.684092,43.7825694 219.53862,43.3268213 L226.944527,47.7703655 L226.944527,47.8843025 C226.944527,51.9290671 230.191732,55.1762725 234.236497,55.1762725 C238.281261,55.1762725 241.528467,51.9290671 241.528467,47.8843025 C241.528467,46.3461526 241.01575,44.8649712 240.161222,43.6686324 L245.858074,31.4204016 C249.561027,31.0785905 252.466422,28.0022907 252.466422,24.1854002 L252.466422,24.1854002 Z"/>
    <path fill="#000000" d="M96.0394695,266.109787 C96.805971,266.109787 97.6363475,265.790411 98.2112236,265.215535 L102.299231,261.127527 C103.512859,259.9139 103.512859,257.997646 102.299231,256.784019 C101.085604,255.570391 99.1693505,255.570391 97.9557231,256.784019 L93.8677154,260.872027 C92.654088,262.085654 92.654088,264.001908 93.8677154,265.215535 C94.4425914,265.790411 95.272968,266.109787 96.0394695,266.109787 L96.0394695,266.109787 Z M55.1593915,266.109787 C55.925893,266.109787 56.7562696,265.790411 57.3311457,265.215535 C58.544773,264.001908 58.544773,262.085654 57.3311457,260.872027 L53.2431379,256.784019 C52.0295106,255.570391 50.1132569,255.570391 48.8996296,256.784019 C47.6860023,257.997646 47.6860023,259.9139 48.8996296,261.127527 L52.9876374,265.215535 C53.5625135,265.790411 54.3928901,266.109787 55.1593915,266.109787 L55.1593915,266.109787 Z M84.0309466,299.835851 C84.0948217,299.069349 84.1586968,298.622224 84.1586968,298.622224 C84.6696978,295.428467 86.1388256,293.065088 89.3325817,289.10483 C92.4624627,285.144573 93.9954656,281.950817 93.9954656,277.351808 C93.9954656,267.387289 85.9472002,258.955773 75.5994305,258.955773 C65.2516608,258.955773 57.2033954,267.387289 57.2033954,277.351808 C57.2033954,281.950817 58.7363984,285.144573 61.8662793,289.10483 C64.9961603,293.065088 66.4652881,295.428467 67.0401642,298.622224 C67.0401642,298.622224 67.0401642,299.069349 67.1040393,299.835851 L84.0309466,299.835851 Z M100.127477,298.813849 C100.893979,298.813849 101.724355,298.494473 102.299231,297.919597 C103.512859,296.70597 103.512859,294.789716 102.299231,293.576089 L98.2112236,289.488081 C96.9975963,288.274454 95.0813427,288.274454 93.8677154,289.488081 C92.654088,290.701708 92.654088,292.617962 93.8677154,293.831589 L97.9557231,297.919597 C98.5305992,298.494473 99.3609758,298.813849 100.127477,298.813849 L100.127477,298.813849 Z M51.0713837,298.813849 C51.8378852,298.813849 52.6682618,298.494473 53.2431379,297.919597 L57.3311457,293.831589 C58.544773,292.617962 58.544773,290.701708 57.3311457,289.488081 C56.1175184,288.274454 54.2012647,288.274454 52.9876374,289.488081 L48.8996296,293.576089 C47.6860023,294.789716 47.6860023,296.70597 48.8996296,297.919597 C49.4745057,298.494473 50.3048823,298.813849 51.0713837,298.813849 L51.0713837,298.813849 Z M75.5994305,316.187882 C79.7513134,316.187882 81.2843164,314.080003 82.4979437,310.119745 C82.9450695,308.586743 83.3283203,306.159488 83.5838207,303.923859 L67.5511652,303.923859 C67.8066657,306.159488 68.1899164,308.586743 68.7009174,310.119745 C69.8506696,314.080003 71.4475476,316.187882 75.5994305,316.187882 L75.5994305,316.187882 Z" opacity=".1" transform="rotate(-33 75.6 286.03)"/>
    <path fill="#000000" d="M120.455044,256.99876 C120.501867,256.436882 120.54869,256.109119 120.54869,256.109119 C120.923276,253.76796 122.000209,252.035502 124.341369,249.132464 C126.635705,246.229426 127.759461,243.888267 127.759461,240.516997 C127.759461,233.21258 121.85974,227.031919 114.274383,227.031919 C106.689026,227.031919 100.789304,233.21258 100.789304,240.516997 C100.789304,243.888267 101.913061,246.229426 104.207397,249.132464 C106.501733,252.035502 107.578667,253.76796 108.000075,256.109119 C108.000075,256.109119 108.000075,256.436882 108.046899,256.99876 L120.455044,256.99876 Z M114.274383,268.985496 C117.31789,268.985496 118.441647,267.440331 119.331287,264.537293 C119.65905,263.413537 119.939989,261.634256 120.127282,259.995444 L108.374661,259.995444 C108.561954,261.634256 108.842893,263.413537 109.217478,264.537293 C110.060296,267.440331 111.230876,268.985496 114.274383,268.985496 L114.274383,268.985496 Z" opacity=".1" transform="rotate(34 114.274 248.009)"/>
    <path fill="#000000" d="M25.5027391,46.9046878 L25.5027391,25.212406 C25.4563881,24.4707896 24.8074737,23.7291731 24.0195062,23.7291731 C15.0737575,23.7291731 7.28678454,30.0792641 4.78382895,39.0713638 C4.5520738,39.8129803 5.01558409,40.6472988 5.8035516,40.879054 L25.5027391,46.9046878 Z M29.9524379,28.271574 L29.9524379,49.7784516 C29.9524379,51.0762805 28.5619071,52.3277583 27.1250251,51.910599 L9.18717674,46.5802306 C8.77001748,56.592053 16.5106394,66.7429284 28.469205,66.7429284 C39.1299418,66.7429284 47.7512332,58.1216369 47.7512332,47.4609002 C47.7512332,37.3563757 39.8252072,29.1058925 29.9524379,28.271574 L29.9524379,28.271574 Z" opacity=".1" transform="rotate(13 26.238 45.236)"/>
    <g filter="url(#a)" transform="translate(47.515 42.572)">
      <path fill="#6B7482" d="M71.618377,180.047429 L82.7713325,238.056792 C86.0225445,247.722284 94.2344075,252.525985 104.757039,254.285069 C104.501127,254.878586 104.411621,255.55166 104.542729,256.234836 C104.890668,258.040644 106.632884,259.222627 108.435611,258.874093 C108.435611,258.874093 116.661743,257.287503 120.774809,256.494208 C124.494571,255.77677 134.916789,252.248168 134.570111,250.44236 C134.439003,249.760447 134.106192,249.168193 133.648577,248.712321 C142.766846,243.163566 149.233972,236.96068 148.496492,226.810272 L136.893485,167.456024 L71.618377,180.047429 Z"/>
      <path fill="#656F7E" d="M71.618377,180.047555 L82.7713325,238.056919 C86.0225445,247.72241 94.2344075,252.526111 104.757039,254.285195 C104.501127,254.878712 104.411621,255.551786 104.542729,256.234962 C104.849066,257.827356 106.242083,258.934834 107.804026,258.934834 C108.012033,258.934834 108.223822,258.915892 108.435611,258.87422 L131.934095,254.340758 C133.736822,253.993488 134.916789,252.248294 134.570111,250.442487 C134.439003,249.75931 134.107453,249.167056 133.648577,248.712447 C142.766846,243.163692 149.235232,236.960806 148.496492,226.810399 L136.893485,167.45615 C155.977179,160.006878 37.8115715,171.355685 71.618377,180.047555 Z M134.352018,160.923672 L128.899715,163.051495 L130.024213,168.803561 L141.540235,227.706988 C141.777237,232.511952 139.816929,236.754969 130.015388,242.719186 L122.369556,247.372613 L123.778961,248.774324 L113.943383,250.671054 L114.732549,248.845041 L105.909271,247.370088 C100.173322,246.410358 92.2425832,244.177723 89.6153921,235.898789 L89.2838416,234.855714 L78.4926922,178.721612 L77.6531004,174.361155 L73.3593323,173.256203 C58.319798,169.389501 141.579315,158.102571 134.352018,160.923672 Z"/>
      <path stroke="#5D6674" stroke-width="5.552" d="M95.8699726,211.118056 L78.2461094,214.51752" stroke-linecap="round"/>
      <path fill="#000000" fill-opacity=".05" d="M71.618377,180.047429 C71.618377,180.047429 75.6999747,201.087548 77.7489512,211.744797 C77.7489512,211.744797 74.8596751,212.479771 75.5401076,215.172325 C76.2205401,217.864879 78.6992833,217.083088 78.7420049,217.300904 C79.3950829,220.630626 80.0935684,224.218744 80.722456,227.459769 C80.7224558,227.459767 77.9445247,228.289386 78.5933493,230.89842 C79.242174,233.507454 81.7925053,232.984817 81.7925049,232.984817 C82.3812729,236.03032 82.7713325,238.056792 82.7713325,238.056792 C86.0225445,247.722284 94.2344075,252.525985 104.757039,254.285069 C104.501127,254.878586 104.411621,255.55166 104.542729,256.234836 C104.890668,258.040644 106.632884,259.222627 108.435611,258.874093 L114.990254,257.454739 C114.990254,257.454739 133.929267,252.122341 130.103733,232.337927 C126.278198,212.553514 101.1162,217.829492 106.133149,173.802316 C106.587526,169.814849 71.618377,180.047429 71.618377,180.047429 Z"/>
      <path fill="#FFD800" d="M71.2792626,2.21577639 C24.0982392,11.3167948 -6.78386221,57.007519 2.3016301,104.26917 C9.16207816,139.95092 37.8115715,171.355558 71.618377,180.047429 L75.1028089,198.168646 L95.870729,194.161774 L140.377917,185.577241 L136.893485,167.456024 C156.371762,157.659201 184.372022,121.286698 173.158555,71.3112841 C162.623317,24.3527062 118.460286,-6.88524204 71.2792626,2.21577639"/>
      <path fill="#FEE058" d="M87.6649171,0.63840965 C82.2756456,0.63840965 76.7993894,1.15110751 71.2790105,2.21565011 C24.0979871,11.3166685 -6.78411434,57.0086555 2.30263862,104.269043 C9.16182603,139.950794 37.8113193,171.355432 71.6193855,180.047302 L75.1025568,198.16852 L95.8704769,194.16291 L140.377665,185.577115 L136.893233,167.455898 C156.37151,157.659075 184.37177,121.286571 173.159564,71.3111579 C163.855979,29.8470341 128.332171,0.63840965 87.6649171,0.63840965 M87.6649171,7.64948976 C105.73505,7.64948976 123.512712,14.1087251 137.72274,25.836373 C152.01471,37.633475 162.174274,54.3289883 166.329371,72.8479886 C172.15987,98.8301524 166.236083,119.022366 160.239179,131.386467 C152.445851,147.458155 141.446695,157.320644 133.752958,161.189871 L129.019224,163.571517 L130.020179,168.78184 L132.18093,180.018258 L94.5467962,187.27811 L80.6519306,189.957777 L78.49244,178.722622 L77.6541089,174.360902 L73.3590802,173.257213 C58.3208066,169.389248 43.6380358,160.259185 32.0173797,147.545289 C20.3664681,134.797296 12.2541963,118.957963 9.17569316,102.943101 C5.13531536,81.9250138 9.50724367,60.5874381 21.4871845,42.8640034 C33.4671253,25.1393059 51.6204608,13.1477323 72.6026912,9.10044996 C77.5935978,8.13819437 82.661404,7.64948976 87.6649171,7.64948976"/>
      <path stroke="#5D6674" stroke-width="5.552" d="M143.520461 201.926115L125.896598 205.32558M98.8868301 226.810777L81.2629668 230.210242M146.537319 217.618837L128.913456 221.018302" stroke-linecap="round"/>
      <polyline stroke="#EFC300" stroke-width="8.328" points="60.367 107.435 96.954 132.249 108.519 191.701"/>
      <path fill="#FFD800" d="M48.6178487,109.701115 C49.8671512,116.20076 56.1413978,120.456405 62.6299546,119.203705 C69.1185114,117.952267 73.3668962,111.668561 72.1163331,105.167654 C70.8670306,98.6680085 64.5940446,94.4136265 58.1042272,95.6650639 C51.6156704,96.9165013 47.3685462,103.20147 48.6178487,109.701115"/>
      <path stroke="#EFC300" stroke-width="8.328" d="M48.6178487 109.701115C49.8671512 116.20076 56.1413978 120.456405 62.6299546 119.203705 69.1185114 117.952267 73.3668962 111.668561 72.1163331 105.167654 70.8670306 98.6680085 64.5940446 94.4136265 58.1042272 95.6650639 51.6156704 96.9165013 47.3685462 103.20147 48.6178487 109.701115L48.6178487 109.701115zM123.683782 95.2205574L96.9542562 132.248456"/>
      <path fill="#FFD800" d="M135.433276,92.9540793 C136.682579,99.4537243 132.435455,105.738693 125.946898,106.99013 C119.457081,108.241568 113.184095,103.987186 111.934792,97.4875407 C110.684229,90.9866328 114.932614,84.702927 121.421171,83.4514896 C127.909727,82.1987894 134.183974,86.4544342 135.433276,92.9540793"/>
      <path stroke="#EFC300" stroke-width="8.328" d="M135.433276,92.9540793 C136.682579,99.4537243 132.435455,105.738693 125.946898,106.99013 C119.457081,108.241568 113.184095,103.987186 111.934792,97.4875407 C110.684229,90.9866328 114.932614,84.702927 121.421171,83.4514896 C127.909727,82.1987894 134.183974,86.4544342 135.433276,92.9540793 L135.433276,92.9540793 Z"/>
      <path fill="#FFFFFF" fill-opacity=".2" d="M2.3016301,104.26917 C4.60737393,116.261531 9.37436562,127.770759 15.9711926,138.096955 C22.1940008,147.83769 80.5042052,140.635841 106.676406,104.269171 C132.848607,67.9025012 130.836719,12.1544547 124.59685,9.13388343 C108.624271,1.40194018 90.1942982,-1.43285341 71.2792626,2.21577639 C24.0982392,11.3167948 -6.78386221,57.007519 2.3016301,104.26917 Z"/>
      <path fill="#FFFFFF" fill-opacity=".2" d="M113.969684,6.26312698 C42.0942397,-16.0910553 -23.0551215,62.8772368 9.75242931,122.511469 C10.7842996,124.384209 13.636343,123.864919 13.894722,121.739953 C15.5601969,107.974657 21.2741581,75.5528495 39.3606885,55.5428889 C60.5329555,32.115508 99.4461503,15.9713703 114.147422,10.4553604 C116.123939,9.71516664 115.985698,6.88957162 113.969684,6.26312698"/>
    </g>
    <g transform="translate(2 .711)">
      <path fill="#FFD800" stroke="#FFD800" d="M108.851577,24.8364444 L110.163912,24.5838839 C111.604833,24.352791 112.420472,22.2704295 111.975463,19.9544495 C111.975463,19.9544495 111.159824,15.7139583 110.347966,11.4886208 C109.585274,7.52215775 108.869226,3.79815285 108.869226,3.79815285 C108.422956,1.48217286 106.881183,-0.216296657 105.440262,0.0223730368 L104.130449,0.274933559 L103.25682,0.444149109 C102.30503,0.64746033 101.890277,2.70835419 102.335286,5.02307138 L105.437741,21.1642144 C105.88275,23.4801944 107.026158,25.2077083 107.979208,25.0043971 L108.851577,24.8364444 Z" opacity=".8"/>
      <path fill="#FFF3AE" d="M70.7207338,39.6426881 C71.5174635,40.9762077 72.9861188,41.4977452 73.9832916,40.8006781 C74.9792038,40.1023483 76.6823396,36.6927812 75.4733779,34.6697714 L67.1039338,20.6602393 C65.8949721,18.6372295 64.0695534,17.5247004 63.0484283,18.1889345 C62.0273031,18.8531687 60.3771145,22.3296643 61.5860762,24.3526741 C61.5860762,24.3526741 66.4597426,32.5116418 69.995861,38.4303976 L70.7207338,39.6426881 Z" opacity=".602"/>
      <path fill="#FFD800" stroke="#FFD800" d="M37.1344013,69.8179082 C38.9610807,71.3054897 40.995767,71.6805421 41.6550861,70.6513579 C42.3144052,69.6221738 42.6396524,65.7516838 40.812973,64.2641023 L28.3804595,54.1440022 C26.5537801,52.6564207 24.4900988,52.2599007 23.794221,53.2613031 C23.0983431,54.2627056 22.8235218,58.1685541 24.6502012,59.6548728 C24.6502012,59.6548728 30.4201884,64.3524985 34.9660862,68.0525102 C36.7965476,69.5426172 37.1344013,69.8179082 37.1344013,69.8179082" opacity=".8"/>
      <path fill="#FFF3AE" d="M30.4688639,105.403008 C30.7562917,104.210922 29.1716568,102.603375 26.9466125,101.831802 L12.087351,96.6770418 C9.86356737,95.9054695 7.79736481,96.2464262 7.49733051,97.4347234 C7.19603557,98.6217579 8.30036348,102.411429 10.5241471,103.183001 L25.4754359,108.369331 C27.7004802,109.140904 30.1814361,106.595094 30.4688639,105.403008" opacity=".602"/>
      <path fill="#FFD800" stroke="#FFD800" d="M231.822132 177.598949C231.35191 178.725369 232.787789 180.278616 235.011572 181.050188L249.9616 186.236519C252.185384 187.008091 254.37513 186.711332 254.827703 185.577336 255.279015 184.443339 254.575573 180.788788 252.350529 180.017216L237.488746 174.861193C235.263702 174.08962 232.292354 176.472529 231.822132 177.598949M24.1298053 143.820749C23.9999586 142.608459 21.9665329 141.647466 19.6129025 141.684087L4.0817154 141.929071C1.72808502 141.965692-.106158259 142.988562.00477879157 144.200853.11697649 145.413143 2.41639899 148.586566 4.77002937 148.549945L20.4197174 148.303699C22.7733478 148.265815 24.2596521 145.03304 24.1298053 143.820749" opacity=".8"/>
      <path fill="#FFF3AE" d="M240.003487,142.861901 C239.908939,144.075454 241.757049,145.03771 244.110679,144.999825 L259.764149,144.753579 C262.11778,144.716958 264.10078,143.694088 264.170115,142.479271 C264.240712,141.265718 262.419075,138.08093 260.065444,138.117551 L244.527954,138.362535 C242.174324,138.399156 240.098036,141.648347 240.003487,142.861901" opacity=".602"/>
      <path fill="#FFD800" stroke="#FFD800" d="M236.739543,106.236458 C237.033274,107.42728 239.073003,107.713937 241.271573,106.87291 L255.898876,101.277432 C258.097446,100.436405 259.636698,98.780871 259.319014,97.6001506 C259.001331,96.4181673 256.293459,94.0289448 254.093627,94.8699713 L239.579783,100.422514 C237.381213,101.263541 236.445812,105.045635 236.739543,106.236458" opacity=".8"/>
      <path fill="#FFF3AE" d="M38.1704165,179.839413 C37.6611146,178.728147 35.4448948,178.507156 33.2463242,179.349446 L18.7236558,184.904514 C16.5250851,185.745541 15.1282868,187.346775 15.6199397,188.463092 C16.1128531,189.57941 19.2758197,191.790577 21.4743904,190.94955 L36.1054746,185.352809 C38.3040452,184.511783 38.6797184,180.950679 38.1704165,179.839413" opacity=".602"/>
      <path fill="#FFD800" stroke="#FFD800" d="M54.1108066,209.238877 C53.2737362,208.346075 51.1331553,208.878978 49.3543806,210.423385 L37.4664671,220.73922 C35.6864317,222.282365 34.9048298,224.28517 35.7292937,225.188074 C36.5524971,226.090977 40.2348508,227.147943 42.0136255,225.603536 L53.9847418,215.216984 C55.7635166,213.672577 54.9478771,210.131678 54.1108066,209.238877" opacity=".8"/>
      <path fill="#FFF3AE" d="M221.318284,71.3015285 C221.99147,72.3319754 223.998423,71.9127249 225.778458,70.3683173 L237.749574,59.980503 C239.52961,58.4373583 240.418367,56.3436315 239.72501,55.329601 C239.032914,54.3143077 235.689675,52.9567949 233.9109,54.5012025 L222.024247,64.8145114 C220.245473,66.358919 220.645098,70.2710815 221.318284,71.3015285" opacity=".602"/>
      <path fill="#FFD800" stroke="#FFD800" d="M192.246096,36.3404593 C191.101427,38.4013532 190.989229,40.6504046 191.997748,41.3398948 C193.005006,42.0293851 196.542385,42.2465871 197.688314,40.1869561 L205.519462,26.0915533 C206.66413,24.0306594 206.785152,21.7689799 205.78798,21.0643361 C204.792067,20.3596922 201.181571,20.258668 200.036902,22.3182991 C200.036902,22.3182991 196.722658,28.2825158 194.02487,33.1379919 C192.739009,35.4539719 192.246096,36.3404593 192.246096,36.3404593" opacity=".8"/>
      <path fill="#FFF3AE" d="M152.627575,21.9106664 C152.405701,23.2997493 153.198649,24.6446341 154.391222,24.8997202 C155.583796,25.1548063 159.002674,24.0233352 159.374565,21.6947272 L161.961415,5.51822569 C162.333307,3.19088047 161.668945,1.05674406 160.485196,0.77766468 C159.300187,0.499848105 155.851053,1.7525483 155.479162,4.07989351 C155.479162,4.07989351 153.93865,13.7150774 152.829279,20.6478638 L152.627575,21.9106664 Z" opacity=".602"/>
    </g>
  </g>
</svg>
