<svg xmlns="http://www.w3.org/2000/svg" width="174" height="174" viewBox="0 0 174 174" xmlns:xlink="http://www.w3.org/1999/xlink">
  <defs>
    <circle id="a" cx="86.7" cy="86.589" r="86.478"/>
    <mask id="b" width="172.956" height="172.956" x="0" y="0" fill="white">
      <use xlink:href="#a"/>
    </mask>
  </defs>
  <g fill="none" fill-rule="evenodd">
    <use fill="#3B5272" stroke="#2A405F" stroke-width="14" mask="url(#b)" xlink:href="#a"/>
    <g transform="translate(34 32)">
      <g transform="translate(.667 .889)">
        <path fill="#000000" fill-opacity=".15" d="M99.1777778,33.6777778 L77.3333333,33.6777778 L77.3333333,11.4555556 C77.2134398,6.53641202 73.209372,2.60121023 68.2888889,2.56666667 L42.3111111,2.56666667 C37.4333333,2.56666667 35.1111111,6.63333333 35.1111111,11.4555556 L35.1111111,33.6777778 L11.4111111,33.6777778 C9.11100088,33.664865 6.90410975,34.5858902 5.29556096,36.2300449 C3.68701217,37.8741996 2.81451761,40.1007236 2.87777778,42.4 L2.87777778,68.3888889 C2.87777778,73.2666667 6.53333333,78.1333333 11.4111111,78.1333333 L35.1111111,78.1333333 L35.1111111,99.2444444 C35.1111111,104.122222 37.4444444,108.133333 42.3111111,108.133333 L68.2888889,108.133333 C73.2263164,108.140038 77.2543876,104.181245 77.3333333,99.2444444 L77.3333333,78.1333333 L99.1888889,78.1333333 C104.066667,78.1333333 108.444444,73.2666667 108.444444,68.3888889 L108.444444,42.4111111 C108.444444,37.5333333 104.055556,33.6777778 99.1777778,33.6777778 L99.1777778,33.6777778 Z"/>
        <path fill="#ED4F7E" d="M96.9555556,31.4555556 L75.1111111,31.4555556 L75.1111111,9.23333333 C74.9912176,4.3141898 70.9871498,0.378988011 66.0666667,0.344444444 L40.0888889,0.344444444 C35.2111111,0.344444444 32.8888889,4.41111111 32.8888889,9.23333333 L32.8888889,31.4555556 L9.18888889,31.4555556 C6.88877865,31.4426428 4.68188753,32.363668 3.07333874,34.0078227 C1.46478995,35.6519774 0.592295388,37.8785014 0.655555556,40.1777778 L0.655555556,66.1666667 C0.655555556,71.0444444 4.31111111,75.9111111 9.18888889,75.9111111 L32.8888889,75.9111111 L32.8888889,97.0222222 C32.8888889,101.9 35.2222222,105.911111 40.0888889,105.911111 L66.0666667,105.911111 C71.0040941,105.917815 75.0321653,101.959023 75.1111111,97.0222222 L75.1111111,75.9111111 L96.9666667,75.9111111 C101.844444,75.9111111 106.222222,71.0444444 106.222222,66.1666667 L106.222222,40.1888889 C106.222222,35.3111111 101.833333,31.4555556 96.9555556,31.4555556 L96.9555556,31.4555556 Z"/>
        <path fill="#FFFFFF" d="M65.1111111,5.9 L41.4222222,5.9 C39.2,5.9 38.4444444,7.91111111 38.4444444,10.3444444 L38.4444444,33.0111111 C38.4444444,35.5444444 33,37.0222222 30.4666667,37.0222222 L9.6,37.0222222 C7.14512499,37.234672 5.23639078,39.2483866 5.15555556,41.7111111 L5.15555556,67.4333333 C5.15555556,67.4333333 0.711111111,67.2 0.711111111,61.8777778 L0.711111111,35.7444444 C0.711111111,33.5222222 1.26666667,31.4666667 3.68888889,31.4666667 L25.9111111,31.4666667 C28.4603383,31.5604698 30.6036117,29.571353 30.7,27.0222222 L30.7,4.8 C30.7,2.35555556 32.3222222,0.355555556 34.5666667,0.355555556 L60.5111111,0.355555556 C62.9923473,0.493255453 64.9734112,2.4743194 65.1111111,4.95555556 L65.1111111,5.91111111 L65.1111111,5.9 Z" opacity=".2" transform="translate(5.556 4.444)"/>
      </g>
      <g transform="translate(21 31.889)">
        <path fill="#000000" fill-opacity=".1" d="M45.1760729,43.0450651 L35.3316285,8.44506509 L34.0079236,3.79267564 L32.4670351,8.37771488 L22.9114795,36.8110482 L24.3333333,37.2888889 L22.9644694,36.675528 C23.0418386,36.5028599 23.2322541,36.4109352 23.4155805,36.4577502 L23.0411937,36.3621452 L22.6672114,36.4593208 C22.8495391,36.4119448 23.0396051,36.5020623 23.1183225,36.6732096 L21.7555556,37.3 L23.1618068,36.7780255 L16.0062513,17.5002477 L14.6902617,13.954841 L13.2182886,17.4383783 L9.0960664,27.1939339 L9.0491406,27.3206172 C9.01008021,27.4426818 8.91338645,27.5376642 8.79064386,27.5745388 L9.22222222,29.0111111 L9.22222222,27.5111111 L3.22222222,27.5111111 L3.22222222,29.0111111 L3.5178068,27.5405229 C3.42441061,27.5217505 3.35721808,27.4397086 3.35721808,27.3444444 C3.35721808,27.2491803 3.42441061,27.1671384 3.5178068,27.148366 L3.22222222,25.6777778 L3.22222222,27.1777778 L8.35555556,27.1777778 L9.3342334,27.1777778 L9.72847037,26.2820169 L14.8729148,14.593128 C14.8769917,14.5851215 14.8414061,14.6097817 14.8014231,14.6107084 C14.672603,14.6091465 14.6245577,14.5748285 14.605563,14.5238649 L21.513551,33.4042968 L22.9867972,37.430854 L24.3449767,33.3640413 L34.1116433,4.11959686 C34.0962125,4.16628796 34.0480951,4.20029111 33.9944387,4.19915912 C33.9407824,4.19802713 33.8941419,4.16202487 33.8794581,4.11040445 L43.6901594,38.7311832 L45.0012067,43.3577103 L46.5530746,38.8063035 L54.3308524,15.9951924 C54.3153314,16.0417364 54.2630866,16.0786151 54.2048061,16.0775065 L54.3467701,16.0734823 C54.2469282,16.0810545 54.1543531,16.0209203 54.1206832,15.9266224 L58.3923103,29.4087132 L58.7240682,30.4555555 L59.8222222,30.4555556 L114.073455,30.4555563 L114.073455,28.9555563 L113.777871,30.4261445 C113.871267,30.4449169 113.93846,30.5269588 113.93846,30.6222229 C113.93846,30.7174871 113.871267,30.799529 113.777871,30.8183014 L114.073455,32.2888896 L114.073455,30.7888896 L58.7777778,30.7888889 L58.7777778,32.2888889 L58.9469061,30.7984542 C58.9290133,30.7964238 58.9141139,30.7837972 58.9091763,30.7664798 L55.5651858,20.0530117 L54.1886325,15.6434527 L52.7120301,20.0205242 L44.9342523,43.0760798 C44.9292446,43.0899648 44.958693,43.067633 44.9924175,43.0669628 L45.0222222,44.5666667 L45.1444475,43.0716546 C45.1684995,43.073621 45.1885314,43.0908899 45.1940201,43.1143897 L45.1760729,43.0450651 Z M42.2726466,43.7967214 C42.56355,45.0422116 43.6252386,45.9574604 44.899997,46.0616787 L45.0520269,46.0663705 C46.3191032,46.041189 47.4255239,45.2021532 47.7916103,43.9888532 L55.5546366,20.9794758 L52.7014809,20.9469883 L56.0348142,31.6247661 C56.3623878,32.775323 57.3829911,33.640241 58.6086495,33.7793236 L58.7777778,33.7888889 L114.073455,33.7888896 L114.222711,33.7888896 L114.36904,33.7594778 C115.863379,33.4591194 116.93846,32.1464487 116.93846,30.6222229 C116.93846,29.0979972 115.863379,27.7853265 114.36904,27.484968 L114.222711,27.4555563 L114.073455,27.4555563 L59.8222222,27.4555556 L61.2521342,28.5023979 L56.9632453,14.9690646 C56.525109,13.7390984 55.3679212,12.9874209 54.1198965,13.0820732 L54.2333333,14.5777778 L54.2618606,13.0780491 C53.0088292,13.0542144 51.8855667,13.8471056 51.4884188,15.0357726 L43.7135921,37.8381409 L46.5765072,37.9132612 L36.7653961,3.29103898 C36.4192497,2.0741693 35.3210781,1.22647974 34.0577158,1.19982652 C32.7943535,1.17317331 31.6614074,1.97379288 31.2647175,3.17355612 L21.4994678,32.4137365 L24.3308935,32.3734809 L17.4197823,13.4845921 C17.0082727,12.3804195 15.9752986,11.6425808 14.8063611,11.6116364 C13.5724028,11.6383879 12.5404202,12.3535338 12.1081007,13.4297678 L6.98264074,25.0735387 L8.35555556,24.1777778 L3.22222222,24.1777778 L3.07296664,24.1777778 L2.92663765,24.2071895 C1.43229869,24.507548 0.357218076,25.8202187 0.357218076,27.3444444 C0.357218076,28.8686702 1.43229869,30.1813409 2.92663765,30.4816993 L3.07296664,30.5111111 L3.22222222,30.5111111 L9.22222222,30.5111111 L9.44267228,30.5111111 L9.65380058,30.4476835 C10.7234146,30.1263476 11.5660316,29.2986441 11.906415,28.2349384 L10.4777778,27.7777778 L11.8594892,28.3616217 L15.9817114,18.6060661 L13.1937487,18.5441968 L20.3493043,37.8219745 L20.3927886,37.9267904 C20.9213199,39.0759225 22.1974777,39.6809974 23.4216775,39.3629015 L23.0444444,37.9111111 L22.6733083,39.364472 C23.9042146,39.6788012 25.1827187,39.0615924 25.7021972,37.9022498 L25.7551872,37.7667296 L35.3107427,9.33339623 L32.4461493,9.26604602 L42.2905937,43.866046 L42.2726466,43.7967214 Z"/>
        <path fill="#FFFFFF" stroke="#FFFFFF" stroke-width="3" d="M42.7333333,41.4555556 L32.8888889,6.85555556 L23.3333333,35.2888889 C23.1122786,35.7822262 22.5682344,36.0448682 22.0444444,35.9111111 C21.5235084,36.0464711 20.9804625,35.7889924 20.7555556,35.3 L13.6,16.0222222 L9.47777778,25.7777778 C9.28805589,26.370663 8.8184005,26.8320059 8.22222222,27.0111111 L2.22222222,27.0111111 C1.42835465,26.8515457 0.857218076,26.1541894 0.857218076,25.3444444 C0.857218076,24.5346995 1.42835465,23.8373432 2.22222222,23.6777778 L7.35555556,23.6777778 L12.5,11.9888889 C12.7087059,11.4693276 13.2069044,11.1240848 13.7666667,11.1111111 C14.3239508,11.1258637 14.8164152,11.477624 15.0111111,12 L21.9222222,30.8888889 L31.6888889,1.64444444 C31.87881,1.07004042 32.4212243,0.686732209 33.0260773,0.699492821 C33.6309303,0.712253433 34.1566958,1.11809709 34.3222222,1.7 L44.1333333,36.3222222 L51.9111111,13.5111111 C52.100449,12.944421 52.6359579,12.5664147 53.2333333,12.5777778 C53.8074247,12.5342377 54.3397311,12.8800094 54.5333333,13.4222222 L58.8222222,26.9555556 L113.073455,26.9555563 C113.867323,27.1151217 114.43846,27.812478 114.43846,28.6222229 C114.43846,29.4319679 113.867323,30.1293242 113.073455,30.2888896 L57.7777778,30.2888889 C57.1560022,30.2183324 56.6382509,29.7795601 56.4666667,29.1777778 L53.1333333,18.5 L45.3555556,41.5555556 C45.1773843,42.146059 44.6388981,42.554411 44.0222222,42.5666667 C43.396869,42.5155407 42.8760407,42.0665507 42.7333333,41.4555556 Z"/>
      </g>
    </g>
  </g>
</svg>
