<svg xmlns="http://www.w3.org/2000/svg" width="301" height="363" viewBox="0 0 301 363" xmlns:xlink="http://www.w3.org/1999/xlink">
  <defs>
    <filter id="a" width="200%" height="200%" x="-50%" y="-50%" filterUnits="objectBoundingBox">
      <feOffset in="SourceAlpha" result="shadowOffsetOuter1"/>
      <feGaussianBlur stdDeviation="2.5" in="shadowOffsetOuter1" result="shadowBlurOuter1"/>
      <feColorMatrix values="0 0 0 0 0 0 0 0 0 0 0 0 0 0 0 0 0 0 0.1 0" in="shadowBlurOuter1" result="shadowMatrixOuter1"/>
      <feMerge>
        <feMergeNode in="shadowMatrixOuter1"/>
        <feMergeNode in="SourceGraphic"/>
      </feMerge>
    </filter>
    <polygon id="c" points="15.586 61.489 10.054 64.932 20.442 34.407 15.781 37.633 22.836 22.674 37.347 9.81 31.965 9.968 35.955 7.025 55.702 16.125 53.246 27.249 52.221 24.353 43.637 43.553 42.731 36.626 35.252 49.596 35.467 47.292 14.851 69.344"/>
    <filter id="b" width="200%" height="200%" x="-50%" y="-50%" filterUnits="objectBoundingBox">
      <feOffset dy="3" in="SourceAlpha" result="shadowOffsetOuter1"/>
      <feColorMatrix values="0 0 0 0 0 0 0 0 0 0 0 0 0 0 0 0 0 0 0.05 0" in="shadowOffsetOuter1"/>
    </filter>
    <filter id="d" width="200%" height="200%" x="-50%" y="-50%" filterUnits="objectBoundingBox">
      <feOffset in="SourceAlpha" result="shadowOffsetOuter1"/>
      <feGaussianBlur stdDeviation="5" in="shadowOffsetOuter1" result="shadowBlurOuter1"/>
      <feColorMatrix values="0 0 0 0 0 0 0 0 0 0 0 0 0 0 0 0 0 0 0.3 0" in="shadowBlurOuter1" result="shadowMatrixOuter1"/>
      <feMerge>
        <feMergeNode in="shadowMatrixOuter1"/>
        <feMergeNode in="SourceGraphic"/>
      </feMerge>
    </filter>
    <path id="e" d="M84.1161384,109.271566 C84.1161384,109.271566 54.4942703,104.482797 37.7104219,121.264422 C20.9280173,138.046047 -1.93555452,193.570936 0.541958063,199.878482 C3.01947065,206.186029 43.3425761,168.567411 60.4628233,173.748868 C77.5830705,178.930325 84.1161384,109.271566 84.1161384,109.271566"/>
    <path id="g" d="M138.551392,66.3969967 C131.873947,77.8888873 135.777906,92.5973523 147.242899,99.3120235 C158.593834,105.960284 173.437253,102.2644 180.208543,90.6396885 C186.897538,79.1579038 182.999354,64.4537699 171.62965,57.7448735 C160.460631,51.1543609 145.488716,54.538405 138.551392,66.3969967 M176.714615,48.9945784 C193.00325,58.5100371 198.41595,79.3542477 188.914488,95.5410665 C179.284529,111.95166 158.300748,117.034944 142.332631,107.610439 C126.556535,98.2999864 120.65584,77.6492323 130.306011,61.1678977 C139.74106,45.0561516 160.450524,39.5498613 176.714615,48.9945784"/>
    <filter id="f" width="200%" height="200%" x="-50%" y="-50%" filterUnits="objectBoundingBox">
      <feOffset dy="2" in="SourceAlpha" result="shadowOffsetOuter1"/>
      <feColorMatrix values="0 0 0 0 0 0 0 0 0 0 0 0 0 0 0 0 0 0 0.1 0" in="shadowOffsetOuter1"/>
    </filter>
    <path id="h" d="M0.0924014017,89.9660878 C-0.00721885951,90.2606036 6.09938869,97.0497033 6.22355307,97.2922457 C6.89057569,98.6060171 41.3053806,73.0877366 41.3053806,73.0877366 L82.5605081,0.188117813 L31.3395609,0.188117813 C23.7499375,17.6011303 1.51740427,85.6811718 0.0924014017,89.9660878 Z"/>
    <path id="j" d="M179.843206,87.3810947 C165.908318,173.387889 75.6217534,263.316108 75.620358,263.317498 C74.9129098,264.151959 74.0841847,264.862262 73.2958853,265.612989 C70.2163198,268.543709 67.1280917,271.464324 64.0369761,274.383496 C62.6307422,275.711704 61.2129582,277.026919 59.7995055,278.349353 C59.7114354,278.063499 59.4515565,278.111141 59.2494284,278.086599 C57.9572526,277.929235 56.6701299,277.743358 55.3880605,277.527163 C56.6701299,277.743358 57.9572526,277.929235 59.2494284,278.086599 C59.4515565,278.111141 59.7114354,278.063499 59.7995055,278.349353 C58.7700962,279.365721 57.7493494,280.392195 56.7098336,281.399901 C54.5340694,283.509154 52.3453112,285.60397 50.175322,287.718997 C49.9443185,287.942772 49.732084,288.036612 49.4144542,288.013513 C44.371359,287.642481 39.4221089,286.770483 34.5883606,285.277692 C32.3736145,284.59482 30.2036253,283.790676 28.0884995,282.837831 C27.0518712,282.371515 26.0181306,281.900867 25.0103778,281.373914 C26.1552889,279.512979 27.2987562,277.652043 28.4451111,275.792552 C28.7858413,275.2425 29.1337903,274.698223 29.477408,274.151059 C30.401422,272.677036 31.3239923,271.204457 32.2465625,269.730435 C33.2254399,270.401758 34.3097126,270.882511 35.3781038,271.36904 C37.5740809,272.368084 39.8032647,273.284836 42.0815367,274.099086 C45.1842026,275.207851 48.3417317,276.079849 51.5570117,276.78582 C52.8289748,277.064455 54.105991,277.310968 55.3880605,277.527163 C54.105991,277.310968 52.8289748,277.064455 51.5570117,276.78582 C48.3417317,276.079849 45.1842026,275.207851 42.0815367,274.099086 C39.8032647,273.284836 37.5740809,272.368084 35.3781038,271.36904 C34.3097126,270.882511 33.2254399,270.401758 32.2465625,269.730435 C32.6355655,268.992937 33.0743746,268.286178 33.522589,267.585514 C30.922577,266.133412 28.511089,264.137791 26.4064725,261.466438 C25.854082,262.45996 25.3016663,263.453434 24.7493438,264.446908 C24.6411092,264.640278 24.5141224,264.823551 24.3957782,265.011145 C24.3959179,265.011229 24.3960576,265.011313 24.3961972,265.011397 C23.5313778,266.593697 22.6752211,268.178885 21.8031829,269.755411 C20.54277,272.033577 19.2722507,274.307412 18.004619,276.582691 C17.9280991,276.718399 17.840029,276.846889 17.7562902,276.978266 C14.9698105,275.007609 12.3782399,272.804516 9.9729159,270.384866 C7.24996209,267.644714 4.80132495,264.67357 2.66743008,261.451221 C1.85458649,260.225515 1.08649984,258.970936 0.418033452,257.658608 C0.293869068,257.416066 0.202911438,257.196622 0.301087928,256.902107 C1.72604989,252.617314 3.13801866,248.326746 4.55431799,244.039066 C4.55416618,244.038943 4.55401433,244.038819 4.55386244,244.038696 C4.88737375,242.675839 5.38258751,241.360624 5.79839382,240.023753 C6.69786372,237.1349 7.64209054,234.25904 8.56610456,231.377405 C9.04710917,229.876855 9.51518524,228.371997 10.0075878,226.875724 C10.0087366,226.871795 10.0098839,226.867873 10.0110315,226.86395 C10.0203383,226.832137 10.0296468,226.800329 10.0389571,226.768525 C10.1217168,226.442653 10.1116399,226.086327 10.3228132,225.802173 C42.7941874,115.632379 96.0096373,63.0703278 112.684056,48.7261249 C112.649868,48.6843179 112.632461,48.6628409 112.632461,48.6628409 C137.878257,24.1241895 185.553049,0.54704563 185.553049,0.54704563 L185.655557,0.606237528 C185.655557,0.606237528 190.301615,50.7504381 179.855925,87.383005 C179.855925,87.383005 179.851658,87.3823692 179.843206,87.3810947 Z M5.08100434,244.801026 C5.13174502,244.89971 5.18364293,244.997684 5.24254164,245.091157 C5.98930087,246.280538 6.77228426,247.443247 7.59212091,248.579282 C6.77247223,247.443742 5.98928345,246.280792 5.24167538,245.091157 C5.18315666,244.997684 5.13153873,244.89971 5.08100434,244.801026 Z M11.6604499,253.661878 C11.6610037,253.662179 11.6615575,253.662479 11.6621114,253.662779 C13.1791741,255.382488 14.7761501,257.026131 16.4606493,258.584023 C16.8322812,258.927899 17.2064133,259.268976 17.5836248,259.60662 C17.206207,259.268976 16.8317949,258.927899 16.4597831,258.584023 C14.7749896,257.025859 13.1777498,255.381914 11.6604499,253.661878 Z M23.7236812,264.543828 C23.834022,264.629833 23.9439746,264.71635 24.0534458,264.803503 C24.0970038,264.837985 24.1441108,264.868158 24.1925361,264.89657 C24.1437363,264.868216 24.0963649,264.838165 24.0525795,264.803503 C23.9434109,264.716322 23.8337466,264.629807 23.7236812,264.543828 Z"/>
  </defs>
  <g fill="none" fill-rule="evenodd" transform="translate(0 9)">
    <g fill="#6B7482" fill-opacity=".1" transform="translate(0 31.759)">
      <path d="M273.263248 135.938023C277.665309 129.034227 275.613709 119.765642 268.709591 115.362342 261.740504 110.920062 252.536459 113.01199 248.134398 119.915787 243.690468 126.885994 245.717524 136.047745 252.686611 140.491468 259.592172 144.893325 268.819318 142.906787 273.263248 135.938023L273.263248 135.938023zM285.917909 157.306299C286.166237 157.924204 285.93379 158.651832 285.370719 159.028639 281.497079 162.217783 276.797602 164.607114 271.992729 166.007508 271.308381 166.215401 270.647133 166.023389 270.270309 165.461788L263.982682 157.495424C260.943542 157.857794 257.850983 157.727861 254.824837 157.133054L247.880294 164.485843C247.448606 164.947829 246.677632 165.145616 246.079911 164.856875 243.735225 163.914136 241.494491 162.808258 239.334608 161.430964 237.176169 160.055113 235.227077 158.490137 233.383381 156.762022 232.869398 156.341904 232.723577 155.559416 232.960355 154.973272L236.696837 145.574753C234.880572 143.082919 233.392043 140.292237 232.504123 137.426483L222.628724 135.086237C221.958813 134.982291 221.506913 134.464001 221.405849 133.755142 220.649312 128.809009 220.832671 123.54093 222.088753 118.682863 222.194148 118.012984 222.754332 117.494694 223.421354 117.460045L233.380493 115.987466C233.945008 114.597178 234.734751 113.214109 235.569251 111.904669 236.403751 110.596672 237.323434 109.297338 238.345625 108.198678L235.479737 98.5489551C235.229965 97.9296057 235.462412 97.2034222 236.025483 96.8251715 239.900567 93.6360275 244.598601 91.246696 249.404917 89.8463023 250.089265 89.6384088 250.749069 89.8304215 251.127337 90.3920227L257.414964 98.3598298C260.389134 97.9541487 263.546663 98.1259496 266.572809 98.7221997L273.515908 91.3679672C273.94904 90.9074253 274.720014 90.7081941 275.317735 90.996935 280.048976 92.8174469 284.367298 95.570592 288.012822 99.0917881 288.528248 99.5119063 288.672626 100.294394 288.437291 100.880538L284.699365 110.279057C286.51563 112.770892 287.939189 115.519706 288.892079 118.428771L298.768922 120.767573C299.437389 120.87152 299.889289 121.391253 299.990353 122.098669 300.748334 127.046245 300.564975 132.31288 299.307449 137.172391 299.203498 137.84227 298.64187 138.359116 297.976292 138.393765L288.017153 139.867788C287.452638 141.256632 286.662895 142.639701 285.828395 143.949142 284.993895 145.257138 284.072768 146.557916 283.050578 147.655132L285.917909 157.306299zM52.3059791 148.915705C56.7080396 142.011908 54.6564398 132.743323 47.7523225 128.340023 40.7832356 123.897743 31.5791897 125.989672 27.1771292 132.893468 22.7331992 139.863675 24.760255 149.025426 31.729342 153.46915 38.634903 157.871006 47.8620492 155.884468 52.3059791 148.915705L52.3059791 148.915705zM64.9606398 170.28398C65.2089686 170.901886 64.9765213 171.629513 64.4134503 172.00632 60.5398103 175.195464 55.8403327 177.584796 51.0354598 178.985189 50.351112 179.193083 49.6898644 179.00107 49.31304 178.439469L43.0254133 170.473105C39.9862735 170.835475 36.8937141 170.705542 33.8675681 170.110736L26.9230253 177.463524C26.4913375 177.92551 25.7203633 178.123297 25.1226417 177.834557 22.7779562 176.891817 20.5372222 175.785939 18.3773394 174.408645 16.2189004 173.032794 14.2698083 171.467818 12.4261116 169.739703 11.9121288 169.319585 11.7663079 168.537097 12.0030865 167.950953L15.7395681 158.552435C13.9233031 156.0606 12.4347743 153.269918 11.5468545 150.404164L1.67145473 148.063919C1.00154457 147.959972.549643963 147.441682.44857993 146.732823-.307956547 141.78669-.124597515 136.518611 1.13148404 131.660544 1.23687939 130.990665 1.79706289 130.472375 2.46408551 130.437726L12.4232241 128.965147C12.9877389 127.57486 13.7774821 126.19179 14.6119823 124.88235 15.4464824 123.574353 16.3661651 122.275019 17.3883557 121.17636L14.5224684 111.526636C14.2726959 110.907287 14.5051432 110.181104 15.0682142 109.802853 18.943298 106.613709 23.6413318 104.224377 28.4476484 102.823984 29.1319963 102.61609 29.7918001 102.808103 30.1700683 103.369704L36.4576949 111.337511C39.4318651 110.93183 42.5893942 111.103631 45.6155401 111.699881L52.5586392 104.345649C52.9917708 103.885107 53.762745 103.685875 54.3604665 103.974616 59.091707 105.795128 63.4100288 108.548273 67.0555529 112.069469 67.5709794 112.489588 67.7153566 113.272076 67.4800218 113.85822L63.7420963 123.256738C65.5583614 125.748573 66.9819205 128.497387 67.9348099 131.406452L77.8116535 133.745254C78.4801199 133.849201 78.9320205 134.368935 79.0330846 135.07635 79.7910648 140.023926 79.6077058 145.290562 78.3501804 150.150072 78.2462289 150.819951 77.6846016 151.336798 77.0190228 151.371447L67.0598842 152.845469C66.4953694 154.234313 65.7056261 155.617383 64.871126 156.926823 64.0366258 158.234819 63.1154993 159.535598 62.0933088 160.632813L64.9606398 170.28398z"/>
      <path d="M276.411027,37.8917998 C273.12789,31.9264113 265.5452,29.7276488 259.579535,33.0106337 C253.556118,36.3239363 251.413561,43.8759564 254.696698,49.8413448 C258.011598,55.8630377 265.506218,58.0372573 271.529635,54.7225109 C277.4953,51.4395261 279.725928,43.9134927 276.411027,37.8917998 L276.411027,37.8917998 Z M297.052634,37.1786096 C297.602711,37.2435763 298.041618,37.7026744 298.09215,38.2642756 C298.874674,42.3629537 298.744735,46.7445979 297.85104,50.8100708 C297.72832,51.3918838 297.325507,51.7975649 296.765324,51.8495383 L288.443422,53.2614816 C287.496308,55.6233827 286.168038,57.82792 284.526469,59.8000209 L287.125259,67.7995894 C287.288405,68.2991113 287.126702,68.9401163 286.676246,69.2620625 C285.05489,70.5974894 283.354126,71.7899897 281.487329,72.8179075 C279.621976,73.8443817 277.703203,74.6427504 275.706467,75.2981924 C275.195371,75.5075296 274.565887,75.3010799 274.232376,74.8953988 L268.862988,68.4189388 C266.320506,68.7509909 263.689953,68.7250043 261.244204,68.2298135 L255.597612,74.5041548 C255.255438,74.9502596 254.696698,75.0744182 254.139402,74.865081 C250.22678,73.4459191 246.455648,71.211064 243.410733,68.3554158 C242.963164,68.0118141 242.810124,67.3967958 243.04979,66.8972739 L245.945997,59.0406321 C245.156253,58.0747936 244.461799,56.9472601 243.839533,55.8168392 C243.217268,54.6864183 242.635428,53.4953618 242.242722,52.3115238 L234.055091,50.5559787 C233.505014,50.491012 233.067551,50.0304702 233.015575,49.468869 C232.233051,45.3701909 232.36299,40.9885467 233.258129,36.9230738 C233.379406,36.3412608 233.782218,35.9355797 234.342402,35.8836063 L242.664303,34.471663 C243.55511,32.1400796 244.939687,29.9052245 246.581256,27.9345674 L243.982467,19.9335551 C243.819321,19.4340333 243.981023,18.7930283 244.43148,18.4710821 C247.645316,15.7453674 251.377466,13.6909754 255.401259,12.4349521 C255.912354,12.2270586 256.541839,12.4335084 256.87535,12.8391895 L262.244738,19.3142058 C264.788664,18.9821536 267.361465,19.0399018 269.863522,19.5033311 L275.510114,13.2289898 C275.852288,12.782885 276.411027,12.6601701 276.968323,12.8680636 C280.880945,14.2886692 284.652077,16.5220806 287.696992,19.3777288 C288.144562,19.7213305 288.299045,20.3363488 288.057935,20.8373144 L285.161729,28.6925125 C285.951472,29.658351 286.645926,30.7858845 287.268192,31.9163054 C287.890458,33.04817 288.472298,34.2377828 288.865004,35.4216208 L297.052634,37.1786096 Z" transform="rotate(30 265.554 43.867)"/>
      <path d="M102.671445,92.1146682 C100.357079,87.9105997 95.0136792,86.3615044 90.8108592,88.6743195 C86.5661698,91.010234 85.0559844,96.33173 87.3703507,100.535799 C89.7063737,104.778847 94.9876913,106.310618 99.2309369,103.974704 C103.435201,101.661888 105.007468,96.3577167 102.671445,92.1146682 L102.671445,92.1146682 Z M117.216003,91.6122589 C117.604378,91.6570137 117.913345,91.9804036 117.94944,92.3774225 C118.50096,95.2648322 118.408559,98.3529168 117.779075,101.217227 C117.693892,101.627239 117.409469,101.914537 117.013875,101.950629 L111.150718,102.945342 C110.482251,104.609934 109.546687,106.16336 108.390226,107.552204 L110.220929,113.189872 C110.33643,113.542136 110.222372,113.994015 109.906186,114.220677 C108.762719,115.160529 107.564388,116.002209 106.249112,116.725505 C104.933836,117.448801 103.582465,118.011846 102.174788,118.473831 C101.813845,118.621089 101.370607,118.475275 101.136716,118.189421 L97.3525896,113.627314 C95.5608687,113.861194 93.7070656,113.842426 91.9832019,113.49305 L88.0056104,117.913674 C87.7630567,118.228402 87.3703507,118.316468 86.9776448,118.16921 C84.2200404,117.168722 81.5620564,115.59364 79.4166113,113.581116 C79.101869,113.340017 78.9935861,112.906905 79.1625075,112.553198 L81.2040009,107.018033 C80.646705,106.338048 80.1587101,105.542567 79.7198034,104.745642 C79.2808968,103.948717 78.8708655,103.109924 78.5936613,102.275463 L72.8243488,101.038208 C72.4359742,100.992009 72.1284507,100.668619 72.0923565,100.273044 C71.5408356,97.3841909 71.6317932,94.2961062 72.2627215,91.4317958 C72.3479041,91.0217836 72.6323271,90.73593 73.0279206,90.6998374 L78.8910783,89.7051248 C79.5191191,88.0621887 80.4951089,86.4871067 81.6515702,85.0982626 L79.8208674,79.4605952 C79.7053657,79.1083312 79.8194237,78.6564516 80.1356097,78.4297899 C82.4008878,76.5082187 85.0314402,75.0616265 87.8655645,74.1751917 C88.2265075,74.0293775 88.6697454,74.173748 88.9050803,74.4610453 L92.6892064,79.0231526 C94.4809273,78.7892724 96.2943048,78.8296961 98.0585941,79.1574171 L102.036186,74.7353492 C102.278739,74.4206215 102.671445,74.3339992 103.064151,74.4812571 C105.821756,75.4817446 108.47974,77.0568266 110.623741,79.0679074 C110.939927,79.3104499 111.04821,79.7435613 110.879289,80.0958253 L108.837795,85.6324334 C109.393647,86.3124184 109.883086,87.1078998 110.321993,87.9048248 C110.760899,88.7017499 111.170931,89.5405424 111.448135,90.3735601 L117.216003,91.6122589 Z"/>
    </g>
    <g filter="url(#a)" transform="translate(57.713 265.176)">
      <polygon fill="#FFA82C" points="35.318 .778 14.844 15.876 22.61 15.65 8.563 28.101 15.285 26.01 2.303 53.538 10.045 48.181 .059 77.519 9.188 71.839 7.994 84.597 28.61 62.544 27.56 73.757 39.443 53.15 40.764 63.228 51.637 38.906 54.452 46.861 61.921 13.039"/>
      <use fill="black" filter="url(#b)" xlink:href="#c"/>
      <use fill="#E93B5A" xlink:href="#c"/>
    </g>
    <g filter="url(#d)" transform="translate(36.277)">
      <g transform="translate(.79 41.818)">
        <use fill="#606A7A" xlink:href="#e"/>
        <use fill="#000000" fill-opacity=".1" xlink:href="#e"/>
        <path fill="#000000" fill-opacity=".05" d="M77.0063032,108.681445 C81.3401584,108.822792 84.1161384,109.271566 84.1161384,109.271566 C84.1161384,109.271566 77.5830705,178.930325 60.4628233,173.748868 C57.8337628,172.953181 54.6575319,173.166806 51.155209,174.075677 C58.9855219,149.27758 67.8424393,127.5607 77.0063032,108.681445 Z"/>
        <path fill="#606A7A" d="M170.843805,154.445668 C170.843805,154.445668 188.903948,178.408281 181.894435,201.081666 C174.883479,223.756494 136.444496,269.890083 129.7093,270.642253 C122.974104,271.394423 137.427705,218.178019 124.855339,205.454648 C112.282973,192.732721 170.843805,154.445668 170.843805,154.445668"/>
        <path fill="#000000" fill-opacity=".1" d="M175.270011,161.504419 C172.852459,157.110795 170.843805,154.445668 170.843805,154.445668 C170.843805,154.445668 112.282973,192.732721 124.855339,205.454648 C127.675349,208.308529 129.135642,213.199675 129.780321,219.062089 C140.647266,207.077474 158.18788,186.552664 175.270011,161.504419 Z"/>
        <path fill="#6B7482" d="M161.422472,2.74433855 C161.422472,2.74433855 92.4173937,52.3254942 53.5871484,185.058274 C42.9869751,221.292379 62.8734893,208.997788 68.5864947,217.717766 C83.8038505,240.939758 119.196475,221.511822 119.196475,221.511822 C119.196475,221.511822 214.372806,126.71383 224.369483,38.6925893 C224.369483,38.6925893 198.570723,-12.1157155 161.422472,2.74433855"/>
        <path fill="#010202" fill-opacity=".1" d="M137.631276,66.5650439 C130.953831,78.0569345 134.857791,92.7653995 146.322783,99.4800708 C157.673718,106.128332 172.517137,102.432447 179.288427,90.8077358 C185.977422,79.3259511 182.079238,64.6218172 170.709535,57.9129207 C159.540515,51.3224081 144.570044,54.7064523 137.631276,66.5650439 M175.794499,49.1626256 C192.083134,58.6780843 197.495835,79.5222949 187.994372,95.7091137 C178.364413,112.119707 157.380632,117.202992 141.412515,107.778486 C125.636419,98.4680337 119.735724,77.8172795 129.385895,61.3359449 C138.820945,45.2241988 159.530409,39.7179085 175.794499,49.1626256"/>
        <path fill="#909AA8" d="M75.8226794,227.924759 C76.5719971,226.504153 77.5061175,225.1976 78.3362863,223.828968 C80.243509,220.68891 82.1911573,217.573395 84.1272554,214.452105 C84.5488368,213.77212 84.9964061,213.106572 85.4309815,212.433806 C86.4834912,213.060374 87.6197397,213.515141 88.712675,214.057974 C89.9283309,214.661442 91.1815249,215.17107 92.4289439,215.687917 C94.1701328,216.408325 95.9560786,217.01035 97.7434682,217.610931 C100.760952,218.625856 103.834742,219.419894 106.947514,220.062342 C109.605498,220.609506 112.28947,221.010856 114.996542,221.266392 C116.395557,221.399213 117.79746,221.403544 119.196475,221.511822 C118.489027,222.346283 117.660302,223.056586 116.872002,223.807313 C113.792437,226.738033 110.704209,229.658648 107.613093,232.57782 C106.206859,233.906028 104.789075,235.221243 103.375622,236.543677 C103.287552,236.257823 103.027673,236.305466 102.825545,236.280923 C100.241194,235.966195 97.6770547,235.537415 95.1331286,234.980144 C91.9178486,234.274173 88.7603195,233.402175 85.6576536,232.29341 C83.3793816,231.47916 81.1501978,230.562408 78.9542207,229.563364 C77.8858295,229.076835 76.8015568,228.596082 75.8226794,227.924759 Z M76.8480462,207.2831 C76.2474371,208.527574 75.5154448,209.698418 74.8455346,210.905356 C72.6755455,214.819239 70.4997812,218.730236 68.3254607,222.641232 C68.2171778,222.834689 68.0901259,223.018039 67.9717366,223.205721 C67.8576786,223.137867 67.7335142,223.080119 67.6295627,222.997827 C66.5741654,222.157591 65.4740112,221.376547 64.4128389,220.542085 C62.8968784,219.351029 61.4487751,218.0849 60.0367662,216.778347 C57.8841023,214.787478 55.8743718,212.656569 53.9916933,210.405834 C52.1046834,208.149323 50.3822635,205.775872 48.8186585,203.285481 C48.5948739,202.93033 48.4721533,202.510212 48.1299793,202.23302 C48.4634907,200.870163 48.9587044,199.554948 49.3745107,198.218077 C50.2739806,195.329224 51.2182074,192.453364 52.1422215,189.571729 C52.6244413,188.067388 53.0936671,186.558717 53.5874371,185.058708 C53.7101577,184.683344 53.6610695,184.251677 53.9527114,183.931174 C54.1014199,184.004803 54.1721648,184.150617 54.2559035,184.279107 C56.3435977,187.497125 58.6940584,190.513024 61.209109,193.406209 C63.7342661,196.312387 66.4427822,199.030883 69.3505388,201.553035 C70.6744776,202.700781 72.0142979,203.823983 73.4306382,204.860563 C74.558224,205.684919 75.6193964,206.600228 76.8480462,207.2831 Z"/>
        <path fill="#6B7482" d="M48.1305569 202.23302C48.4727308 202.510212 48.5954514 202.93033 48.8177923 203.285481 50.382841 205.775872 52.1038171 208.149323 53.990827 210.405834 55.8735056 212.656569 57.8832361 214.787478 60.0359 216.778347 61.4493527 218.0849 62.8974559 219.351029 64.4134164 220.542085 65.4745887 221.376547 66.5747429 222.156147 67.6286964 222.997827 67.732648 223.080119 67.8568124 223.136423 67.9723141 223.205721 67.1074947 224.788021 66.251338 226.373209 65.3792998 227.949735 64.1188869 230.227901 62.8483676 232.501736 61.5807359 234.777015 61.504216 234.912723 61.4161459 235.041213 61.3324071 235.17259 58.5459274 233.201933 55.9543568 230.99884 53.5490328 228.57919 50.826079 225.839038 48.3774419 222.867894 46.243547 219.645545 45.4307034 218.419839 44.6626167 217.16526 43.9941504 215.852932 43.869986 215.61039 43.7790283 215.390946 43.8772048 215.096431 45.3022077 210.811515 46.7142166 206.520824 48.1305569 202.23302M75.8226794 227.924759C76.8015568 228.596082 77.8858295 229.076835 78.9542207 229.563364 81.1501978 230.562408 83.3793816 231.47916 85.6576536 232.29341 88.7603195 233.402175 91.9178486 234.274173 95.1331286 234.980144 97.6770547 235.537415 100.241194 235.966195 102.825545 236.280923 103.027673 236.305466 103.287552 236.257823 103.375622 236.543677 102.346213 237.560045 101.325466 238.586519 100.285951 239.594225 98.1101863 241.703478 95.9214281 243.798294 93.7514389 245.913321 93.5204354 246.137096 93.308201 246.230936 92.9905711 246.207837 87.9474759 245.836805 82.9982258 244.964807 78.1644775 243.472016 75.9497314 242.789144 73.7797422 241.985 71.6646164 241.032155 70.6279881 240.565839 69.5942475 240.095191 68.5864947 239.568238 69.7314058 237.707303 70.8748731 235.846367 72.021228 233.986876 72.3619582 233.436824 72.7099072 232.892547 73.0535249 232.345383 73.977539 230.87136 74.9001092 229.398782 75.8226794 227.924759"/>
        <use fill="black" filter="url(#f)" xlink:href="#g"/>
        <use fill="#606A7A" xlink:href="#g"/>
        <path fill="#37BEC0" d="M138.551392,66.3969967 C145.488716,54.538405 160.460631,51.1543609 171.62965,57.7448735 C182.999354,64.4537699 186.897538,79.1579038 180.208543,90.6396885 C173.437253,102.2644 158.593834,105.960284 147.242899,99.3120235 C135.777906,92.5973523 131.873947,77.8888873 138.551392,66.3969967"/>
        <path fill="#010202" fill-opacity=".1" d="M171.629362,57.7447291 C163.56012,52.9833905 153.510024,53.430939 145.935997,58.5142238 C152.22218,55.7755157 159.64028,56.062813 165.789304,59.6908433 C176.093504,65.7717281 179.626414,79.0985676 173.56546,89.5033484 C167.88133,99.2613495 155.922567,102.848956 146.01396,98.5380534 C146.415329,98.8051388 146.822473,99.0664493 147.244054,99.3133229 C158.593545,105.96014 173.438408,102.264256 180.209698,90.6395441 C186.897249,79.1577595 182.999065,64.4536256 171.629362,57.7447291"/>
      </g>
      <g transform="translate(44.575 166.948)">
        <mask id="i" fill="white">
          <use xlink:href="#h"/>
        </mask>
        <path fill="#010202" fill-opacity=".1" d="M82.5605081,8.9263147 C82.5605081,8.9263147 60.603625,-11.3635133 39.8089783,9.89215325 C19.0128878,31.1478198 -9.28648525,100.491851 -16.6222903,114.861046 C-21.4387133,124.295657 33.6931605,48.0608221 40.3316237,64.417998 C42.1883144,68.9945424 82.5605081,8.9263147 82.5605081,8.9263147" mask="url(#i)"/>
      </g>
      <g transform="translate(40.243 .012)">
        <path fill="#606A7A" d="M37.3942698,249.088776 C38.3038461,247.476158 39.2206412,245.86787 40.1229987,244.250921 C42.766545,239.514125 45.4043163,234.774442 48.0449751,230.036203 C50.4777307,225.668996 52.9104864,221.300345 55.3490171,216.934582 C57.9709069,212.23821 60.6115657,207.5505 63.2204616,202.845466 C65.1349031,199.39068 66.9915938,195.902689 68.9074791,192.447904 C70.6934249,189.225554 72.6150853,186.084053 74.7287674,183.062378 C76.1898645,180.974781 77.7390318,178.9637 79.5697346,177.182169 C80.3551465,176.418449 81.1910904,175.716808 82.1353172,175.153763 C82.7907897,174.762519 83.4780251,174.444904 84.2374491,174.312083 C85.9930758,174.006018 87.6072128,174.898227 88.2886731,176.548382 C88.6741602,177.481015 88.7203609,178.458404 88.6395097,179.445898 C88.511014,181.03686 88.0634447,182.554194 87.5191427,184.045541 C86.7452809,186.167788 85.7404157,188.184643 84.7398818,190.204386 C83.8187553,192.066766 82.81389,193.885834 81.7613803,195.671697 C80.4128974,197.959969 79.0427578,200.235248 77.6394115,202.491758 C76.1667642,204.860878 74.7995122,207.294964 73.351409,209.681408 C70.8060391,213.879702 68.2390127,218.066446 65.6719862,222.25319 C63.0948534,226.458702 60.5090579,230.659884 57.9232624,234.861065 C56.179186,237.693614 54.4293344,240.520388 52.6794829,243.350049 C50.9787196,246.103194 49.2779563,248.85634 47.5699741,251.606597 C47.0285597,252.478595 46.456826,253.330381 45.9774937,254.239915 C45.5429184,254.912681 45.0953491,255.576786 44.6737677,256.258214 C42.7362258,259.379504 40.7900213,262.493576 38.8827986,265.633634 C38.051186,267.003709 37.1170656,268.310262 36.3691917,269.730868 C35.4466215,271.203447 34.5240512,272.67747 33.6000372,274.150048 C33.2564195,274.698656 32.9070267,275.242933 32.5677403,275.792985 C31.4213854,277.652476 30.2779181,279.513412 29.1330069,281.374348 C28.0444029,283.115456 26.9543551,284.853676 25.8686387,286.597672 C22.8251675,291.486056 19.790359,296.378772 16.7425565,301.264269 C13.8015931,305.979409 10.8490796,310.688775 7.90089736,315.399583 C7.32050105,316.326442 6.73432966,317.248969 6.14382695,318.170053 C5.88250424,318.577178 5.8637352,318.591615 5.45659153,318.362066 C3.94063103,317.503061 2.43188939,316.633951 0.924591526,315.76051 C0.576642498,315.558391 0.579530041,315.541067 0.835077668,315.073306 C1.93956317,313.057894 3.04260491,311.041039 4.15430927,309.028514 C7.31039465,303.32588 10.4679238,297.624689 13.6283405,291.924943 C15.8358677,287.943205 18.0506138,283.964354 20.2566973,279.981172 C20.8082182,278.985016 21.3395262,277.978754 21.8794969,276.978266 C21.9617919,276.846889 22.0513058,276.718399 22.1263819,276.582691 C23.3940136,274.307412 24.6645329,272.033577 25.9249458,269.755411 C26.796984,268.178885 27.6545845,266.593697 28.5179601,265.011397 C28.6363494,264.823715 28.7634013,264.640365 28.8716842,264.446908 C31.0460047,260.535912 33.221769,256.624915 35.3917581,252.711031 C36.0616683,251.504094 36.7936607,250.33325 37.3942698,249.088776"/>
        <path fill="#000000" fill-opacity=".1" d="M0.925024658,315.761087 C1.6728985,316.194199 2.42365989,316.620092 3.17153374,317.050316 C27.7661881,275.041392 78.2736605,188.969152 86.6533127,174.690911 C85.9473082,174.305442 85.1099205,174.159628 84.2364385,174.311217 C83.4770145,174.444038 82.7912228,174.761653 82.1357504,175.152897 C81.1900798,175.717386 80.3555796,176.419026 79.5701677,177.182746 C77.7380212,178.962834 76.1888539,180.975359 74.7292005,183.062956 C72.6140747,186.083186 70.693858,189.224688 68.9079122,192.447037 C66.9920269,195.903267 65.1353362,199.389814 63.2194509,202.846043 C60.6119989,207.551078 57.97134,212.237343 55.3480065,216.935159 C52.9109195,221.300923 50.4781639,225.66813 48.0439645,230.036781 C45.4033056,234.77502 42.7669781,239.514703 40.1234318,244.251499 C39.2210744,245.868448 38.3042792,247.476735 37.3947029,249.089353 C36.7940938,250.333827 36.0606577,251.504672 35.3921913,252.710165 C33.2207583,256.624049 31.0464378,260.535046 28.8721174,264.447486 C28.7638345,264.640942 28.6367825,264.824293 28.5183932,265.011974 C27.6535739,266.592831 26.7974171,268.178019 25.9253789,269.755988 C24.664966,272.034155 23.3944468,274.30799 22.126815,276.581825 C22.0502951,276.717533 21.962225,276.846023 21.87993,276.9774 C21.3385156,277.979331 20.8072075,278.985594 20.2571304,279.98175 C18.0496032,283.964932 15.8363009,287.942338 13.6287736,291.92552 C10.4683569,297.625267 7.30938401,303.326457 4.1547424,309.029091 C3.04159427,311.040172 1.93855253,313.057028 0.834067028,315.073884 C0.578519401,315.5402 0.575631857,315.558968 0.925024658,315.761087"/>
        <path fill="#606A7A" d="M183.978265,87.383005 C194.423955,50.7504381 189.777897,0.606237528 189.777897,0.606237528 L189.675389,0.54704563 C189.675389,0.54704563 142.000597,24.1241895 116.754802,48.6628409 C116.754802,48.6628409 131.488494,66.8419724 145.56527,74.9498188 C145.911775,75.1490501 147.186626,75.8810084 147.525912,76.0759086 C161.286502,84.0018482 183.978265,87.383005 183.978265,87.383005"/>
        <path fill="#000000" fill-opacity=".05" d="M189.684774,0.552242967 L189.676111,0.547911852 C189.676111,0.547911852 141.999875,24.1236121 116.755524,48.6622634 C116.755524,48.6622634 128.828344,63.55841 141.559525,72.3967711 C150.092217,46.7536856 179.8729,11.6673266 189.684774,0.552242967"/>
        <g transform="translate(4.122)">
          <mask id="k" fill="white">
            <use xlink:href="#j"/>
          </mask>
          <path fill="#FFFFFF" fill-opacity=".05" d="M19.8645616,315.216342 C41.4418496,315.347811 62.7683586,303.641133 62.7683586,303.641133 C62.7683586,303.641133 207.523026,159.461887 222.727075,25.5894704 C222.727075,25.5894704 212.630831,5.70583918 195.306716,-10.9392524 C195.790935,-10.0448034 196.037902,-9.55842485 196.037902,-9.55842485 C181.373991,119.558045 72.2732293,256.187753 19.8645616,315.216342 Z" mask="url(#k)"/>
        </g>
      </g>
    </g>
  </g>
</svg>
