<svg xmlns="http://www.w3.org/2000/svg" width="180" height="180" viewBox="0 0 180 180" xmlns:xlink="http://www.w3.org/1999/xlink">
  <defs>
    <circle id="a" cx="90" cy="90" r="90"/>
    <mask id="i" width="180" height="180" x="0" y="0" fill="white">
      <use xlink:href="#a"/>
    </mask>
    <path id="b" d="M6.36734694,95.3877551 C3.06122449,95.3877551 0.367346939,92.6938776 0.367346939,89.3877551 L2.20408163,6.36734694 C2.20408163,3.06122449 4.89795918,0.306122449 8.20408163,0.306122449 L8.20408163,0.306122449 L76.1632653,0.306122449 C79.4693878,0.306122449 82.1632653,3 82.1632653,6.30612245 L84,89.3877551 C84,92.6938776 81.3061224,95.3877551 78,95.3877551 L6.36734694,95.3877551 L6.36734694,95.3877551 Z"/>
    <mask id="j" width="89.633" height="101.082" x="-3" y="-3">
      <rect width="89.633" height="101.082" x="-2.633" y="-2.694" fill="white"/>
      <use fill="black" xlink:href="#b"/>
    </mask>
    <path id="c" d="M101.877551,38.8163265 C101.877551,40.8979592 100.22449,42.6122449 98.0816327,42.6122449 L98.0816327,42.6122449 L82.9591837,42.6122449 C80.877551,42.6122449 79.1632653,40.9591837 79.1632653,38.877551 L79.1632653,38.877551 L79.1632653,38.877551 C79.1632653,36.7959184 80.8163265,35.0816327 82.9591837,35.0816327 L82.9591837,35.0816327 L98.0816327,35.0816327 C100.163265,35.0816327 101.877551,36.7346939 101.877551,38.8163265 L101.877551,38.8163265 L101.877551,38.8163265 L101.877551,38.8163265 Z"/>
    <mask id="k" width="24.714" height="9.531" x="-1" y="-1">
      <rect width="24.714" height="9.531" x="78.163" y="34.082" fill="white"/>
      <use fill="black" xlink:href="#c"/>
    </mask>
    <circle id="d" cx="67.347" cy="103.837" r="4.592"/>
    <mask id="l" width="13.184" height="13.184" x="-2" y="-2">
      <rect width="13.184" height="13.184" x="60.755" y="97.245" fill="white"/>
      <use fill="black" xlink:href="#d"/>
    </mask>
    <circle id="e" cx="116.51" cy="103.837" r="4.592"/>
    <mask id="m" width="13.184" height="13.184" x="-2" y="-2">
      <rect width="13.184" height="13.184" x="109.918" y="97.245" fill="white"/>
      <use fill="black" xlink:href="#e"/>
    </mask>
    <path id="f" d="M123.611442,70.4653187 C123.337353,78.1976427 116.839658,84.4659297 109.112979,84.4659297 L72.5867302,84.4659297 C64.8535387,84.4659297 58.3642398,78.210253 58.0914834,70.4653187 L57.4738281,52.9269585 C57.4153782,51.2672693 58.7057793,49.9218254 60.3757336,49.9218254 L121.331911,49.9218254 C122.993039,49.9218254 124.292399,51.2548288 124.233127,52.9269585 L123.611442,70.4653187 Z"/>
    <mask id="n" width="70.763" height="38.544" x="-2" y="-2">
      <rect width="70.763" height="38.544" x="55.472" y="47.922" fill="white"/>
      <use fill="black" xlink:href="#f"/>
    </mask>
    <path id="g" d="M109.897959,64.4081633 C106.102041,48.8571429 116.081633,33.122449 132.183673,29.2040816 C148.285714,25.2857143 164.387755,34.7142857 168.183673,50.2040816 C171.918367,65.755102 162,81.4897959 145.897959,85.4081633 C142.469388,86.2653061 138.918367,86.4489796 135.367347,86.0816327 L117,103.22449 L122.816327,81.9183673 C116.387755,78.0612245 111.734694,71.755102 109.897959,64.4081633 Z"/>
    <mask id="o" width="59.878" height="74.908" x="0" y="0" fill="white">
      <use xlink:href="#g"/>
    </mask>
    <path id="h" d="M28.1020408,2.26530612 C37.4081633,-2.3877551 48.9183673,1.59183673 53.755102,11.2653061 C58.5918367,20.9387755 54.9795918,32.5102041 45.6734694,37.2244898 C36.3673469,41.877551 24.8571429,37.8979592 20.0204082,28.2244898 C18.9795918,26.1428571 18.3061224,23.9387755 18.0612245,21.6122449 L0.12244898,19.3469388 L18.8571429,13.0408163 C20.3877551,8.3877551 23.6938776,4.53061224 28.1020408,2.26530612 Z"/>
    <mask id="p" width="55.779" height="38.845" x="0" y="0" fill="white">
      <use xlink:href="#h"/>
    </mask>
  </defs>
  <g fill="none" fill-rule="evenodd">
    <use fill="#ED4F7E" stroke="#D13664" stroke-width="14" mask="url(#i)" xlink:href="#a"/>
    <path fill="#434955" d="M120.918367,120.55102 C119.44898,119.081633 117.061224,119.142857 115.591837,120.612245 C114.183673,122.081633 114.183673,124.408163 115.591837,125.877551 L122.938776,133.22449 L58.1020408,133.22449 L65.4489796,125.877551 C66.9183673,124.408163 66.8571429,122.020408 65.3877551,120.55102 C63.9183673,119.142857 61.5918367,119.142857 60.122449,120.55102 L38.8163265,141.918367 C37.2857143,143.326531 37.2244898,145.714286 38.6326531,147.244898 C40.0408163,148.77551 42.4285714,148.836735 43.9591837,147.428571 C44.0204082,147.367347 44.0816327,147.306122 44.1428571,147.244898 L50.5714286,140.816327 L130.530612,140.816327 L136.959184,147.244898 C138.55102,148.591837 140.938776,148.408163 142.285714,146.816327 C143.510204,145.408163 143.44898,143.326531 142.285714,141.918367 L120.918367,120.55102 Z"/>
    <path fill="#383F4C" d="M130.661667,140.816326 C130.661667,140.816326 129.469293,136.872625 128.088928,135.515685 C126.894995,134.342013 122.938776,133.22449 122.938776,133.22449 L58.1020408,133.22449 C58.1020408,133.22449 54.82103,133.183963 52.8808594,135.139908 C50.9406888,137.095852 50.5714286,140.816327 50.5714286,140.816327 L130.661667,140.816326 Z"/>
    <g transform="translate(48.367 28.776)">
      <path fill="#000000" fill-opacity=".1" d="M6.78742102,101.795918 C3.49746867,101.795918 0.816766758,99.0338121 0.816766758,95.6439544 L2.64451806,10.5208615 C2.64451806,7.13100385 5.32521997,4.30612245 8.61517232,4.30612245 L8.61517232,4.30612245 L76.2419705,4.30612245 C79.5319229,4.30612245 82.2126248,7.06822871 82.2126248,10.4580864 L84.0403761,95.6439544 C84.0403761,99.0338121 81.3596742,101.795918 78.0697218,101.795918 L6.78742102,101.795918 L6.78742102,101.795918 Z"/>
      <use fill="#E3EBF4" xlink:href="#b"/>
      <use stroke="#D8E1E9" stroke-width="6" mask="url(#j)" xlink:href="#b"/>
    </g>
    <use fill="#13A1DC" xlink:href="#c"/>
    <use stroke="#CED8E1" stroke-width="2" mask="url(#k)" xlink:href="#c"/>
    <circle cx="67.347" cy="104.837" r="6.398" fill="#000000" opacity=".1"/>
    <circle cx="116.745" cy="104.724" r="6.398" fill="#000000" opacity=".1"/>
    <use fill="#FFD900" xlink:href="#d"/>
    <use stroke="#F9CF12" stroke-width="4" mask="url(#l)" xlink:href="#d"/>
    <use fill="#FFD900" xlink:href="#e"/>
    <use stroke="#F9CF12" stroke-width="4" mask="url(#m)" xlink:href="#e"/>
    <path fill="#000000" d="M101.877551,35.1428571 C101.877551,37.2244898 100.163265,38.9387755 98.0816327,38.9387755 L98.0816327,38.9387755 L82.9591837,38.9387755 C80.877551,38.9387755 79.1632653,37.2244898 79.1632653,35.1428571 L79.1632653,35.1428571 L79.1632653,34.8367347 C79.3469388,36.7346939 80.9387755,37.5918367 82.8979592,37.5918367 L98.0204082,37.5918367 C99.9795918,37.5918367 101.571429,36.7346939 101.755102,34.8367347 C101.816327,34.9591837 101.816327,35.0816327 101.877551,35.1428571 L101.877551,35.1428571 Z" opacity=".1" transform="rotate(-180 90.52 36.888)"/>
    <g transform="rotate(-180 90.853 67.194)">
      <use fill="#13A1DC" xlink:href="#f"/>
      <use stroke="#CED8E1" stroke-width="4" mask="url(#n)" xlink:href="#f"/>
    </g>
    <path fill="#FFFFFF" fill-opacity=".1" d="M85.9187245,83.877551 C85.9187245,83.8775511 82.406361,83.8775509 82.406361,83.8775509 C74.6742132,83.8775504 68.2361648,77.6089892 68.0267853,69.883996 L67.624634,55.0467486 C67.5798162,53.393208 68.8876994,52.0527485 70.5507235,52.0527485 L122.360024,52.0527485 C124.020877,52.0527485 124.074135,52.4147686 122.488042,52.9018859 C122.488042,52.9018859 90.0908388,61.030746 85.9187245,83.877551 Z" transform="rotate(-180 95.633 67.965)"/>
    <path fill="#000000" fill-opacity=".1" d="M122.554603,59.001089 C120.376765,53.6914475 115.123295,49.9218254 109.120265,49.9218254 L72.594016,49.9218254 C64.8673364,49.9218254 58.3696415,56.1901124 58.0955528,63.9224364 L57.4738683,81.4607966 C57.4450207,82.2746176 57.7379979,83.0081083 58.2378755,83.5466885 C58.2103132,83.3649905 58.1991814,83.1773052 58.2059931,82.9851409 L58.8276776,65.4467808 C59.1017662,57.7144568 65.5994612,51.4461698 73.3261407,51.4461698 L109.852389,51.4461698 C115.263197,51.4461698 120.065044,54.5087044 122.554603,59.001089 Z"/>
    <path fill="#FFFFFF" d="M78.0998161,115.530321 L83.1933732,111.297558 C105.738626,91.1919332 109.830171,74.3853739 114.255721,53.5950375 C115.591736,47.3703859 116.647885,33.0388313 116.397383,26.7519332 C116.397383,26.7519332 130.443739,24.4273159 131.651189,31.5315089 C131.651189,31.5937554 132.542426,34.5476036 132.542426,34.6098501 L134.629949,119.202865 C135.297957,122.87541 130.621904,126.734694 125.695349,126.734694 L59.8966123,126.734694 C67.1611936,123.311135 69.4992198,122.128452 73.5072647,119.078372 C74.342274,118.455907 77.3483077,116.215033 78.0998161,115.530321 Z" opacity=".15"/>
    <path fill="#000000" fill-opacity=".1" d="M111.122449,65.6326531 C107.326531,50.0816327 117.306122,34.3469388 133.408163,30.4285714 C149.510204,26.5102041 165.612245,35.9387755 169.408163,51.4285714 C173.142857,66.9795918 163.22449,82.7142857 147.122449,86.6326531 C143.693878,87.4897959 140.142857,87.6734694 136.591837,87.3061224 L117,103.22449 L124.040816,83.1428571 C117.612245,79.2857143 112.959184,72.9795918 111.122449,65.6326531 Z"/>
    <use fill="#9B5CA4" stroke="#914E9A" stroke-width="6" mask="url(#o)" xlink:href="#g"/>
    <g fill="#000000" opacity=".1" transform="translate(125.51 43.47)">
      <path d="M9,27.3061224 L4.16326531,28.4693878 L0.0612244898,10.9591837 L4.89795918,9.79591837 L9,27.3061224 L9,27.3061224 Z M29.3265306,8.14285714 C30.122449,8.81632653 30.6734694,9.73469388 30.7346939,10.7755102 L31.0408163,12.8571429 C32.5102041,22.5306122 32.877551,24.7959184 23.755102,26.9387755 C19.6530612,27.8571429 18,27.244898 16.5306122,26.755102 C15.3673469,26.3265306 14.3877551,26.0204082 12,26.5714286 L10.8979592,26.8163265 L7.59183673,12.4897959 C13.1020408,9.79591837 12.8571429,6.36734694 12.7959184,3.85714286 C12.7959184,2.3877551 12.6734694,0.734693878 14.3877551,0.306122449 C15,0.183673469 15.6122449,0.367346939 16.1020408,0.734693878 C17.755102,1.89795918 18.3673469,5.20408163 18.9795918,9.55102041 L26.5714286,7.7755102 C27.4897959,7.53061224 28.4693878,7.65306122 29.3265306,8.14285714 L29.3265306,8.14285714 L29.3265306,8.14285714 Z"/>
    </g>
    <g fill="#FFFFFF" transform="translate(124.286 42.245)">
      <path d="M9,27.3061224 L4.16326531,28.4693878 L0.0612244898,10.9591837 L4.89795918,9.79591837 L9,27.3061224 L9,27.3061224 Z M29.3265306,8.14285714 C30.122449,8.81632653 30.6734694,9.73469388 30.7346939,10.7755102 L31.0408163,12.8571429 C32.5102041,22.5306122 32.877551,24.7959184 23.755102,26.9387755 C19.6530612,27.8571429 18,27.244898 16.5306122,26.755102 C15.3673469,26.3265306 14.3877551,26.0204082 12,26.5714286 L10.8979592,26.8163265 L7.59183673,12.4897959 C13.1020408,9.79591837 12.8571429,6.36734694 12.7959184,3.85714286 C12.7959184,2.3877551 12.6734694,0.734693878 14.3877551,0.306122449 C15,0.183673469 15.6122449,0.367346939 16.1020408,0.734693878 C17.755102,1.89795918 18.3673469,5.20408163 18.9795918,9.55102041 L26.5714286,7.7755102 C27.4897959,7.53061224 28.4693878,7.65306122 29.3265306,8.14285714 L29.3265306,8.14285714 L29.3265306,8.14285714 Z"/>
    </g>
    <g transform="translate(113.878 75.918)">
      <g transform="rotate(-8 60.644 .764)">
        <path fill="#000000" fill-opacity=".1" d="M28.7142857,4.10204082 C38.0204082,-0.551020408 49.5306122,3.42857143 54.3673469,13.1020408 C59.2040816,22.7755102 55.5918367,34.3469388 46.2857143,39.0612245 C36.9795918,43.7142857 25.4693878,39.7346939 20.6326531,30.0612245 C19.5918367,27.9795918 18.9183673,25.7755102 18.6734694,23.4489796 L0.28908243,19.5541691 L19.4693878,14.877551 C21,10.2244898 24.3061224,6.36734694 28.7142857,4.10204082 Z"/>
        <use fill="#37BEC0" stroke="#2CB1B3" stroke-width="4" mask="url(#p)" xlink:href="#h"/>
      </g>
      <g fill="#000000" opacity=".1" transform="translate(31.224 12.857)">
        <path d="M17.5714286,2.93877551 L11.877551,2.93877551 C11.877551,1.53061224 10.7142857,0.367346939 9.30612245,0.367346939 C7.89795918,0.367346939 6.73469388,1.53061224 6.73469388,2.93877551 L1.04081633,2.93877551 C0.673469388,2.93877551 0.428571429,3.18367347 0.428571429,3.55102041 L0.428571429,19.4693878 C0.428571429,19.8367347 0.673469388,20.0816327 1.04081633,20.0816327 L17.5714286,20.0816327 C17.9387755,20.0816327 18.1836735,19.8367347 18.1836735,19.4693878 L18.1836735,3.55102041 C18.122449,3.24489796 17.877551,2.93877551 17.5714286,2.93877551 L17.5714286,2.93877551 Z M9.30612245,1.65306122 C9.97959184,1.65306122 10.5918367,2.20408163 10.5918367,2.93877551 C10.5918367,3.67346939 10.0408163,4.2244898 9.30612245,4.2244898 C8.63265306,4.2244898 8.02040816,3.67346939 8.02040816,2.93877551 L8.02040816,2.93877551 C8.02040816,2.26530612 8.57142857,1.65306122 9.30612245,1.65306122 L9.30612245,1.65306122 L9.30612245,1.65306122 Z M16.2857143,18.244898 L2.26530612,18.244898 L2.26530612,4.83673469 L4.2244898,4.83673469 L4.2244898,6.12244898 C4.2244898,6.48979592 4.46938776,6.73469388 4.83673469,6.73469388 L13.7142857,6.73469388 C14.0816327,6.73469388 14.3265306,6.48979592 14.3265306,6.12244898 L14.3265306,4.83673469 L16.2857143,4.83673469 L16.2857143,18.244898 L16.2857143,18.244898 L16.2857143,18.244898 Z"/>
        <polygon points="8.02 16.224 3.918 11.51 5.082 10.347 8.02 12.612 13.469 7.776 14.633 8.939"/>
      </g>
      <g fill="#FFFFFF" transform="translate(30.612 12.245)">
        <path d="M17.5714286,2.93877551 L11.877551,2.93877551 C11.877551,1.53061224 10.7142857,0.367346939 9.30612245,0.367346939 C7.89795918,0.367346939 6.73469388,1.53061224 6.73469388,2.93877551 L1.04081633,2.93877551 C0.673469388,2.93877551 0.428571429,3.18367347 0.428571429,3.55102041 L0.428571429,19.4693878 C0.428571429,19.8367347 0.673469388,20.0816327 1.04081633,20.0816327 L17.5714286,20.0816327 C17.9387755,20.0816327 18.1836735,19.8367347 18.1836735,19.4693878 L18.1836735,3.55102041 C18.122449,3.24489796 17.877551,2.93877551 17.5714286,2.93877551 L17.5714286,2.93877551 Z M9.30612245,1.65306122 C9.97959184,1.65306122 10.5918367,2.20408163 10.5918367,2.93877551 C10.5918367,3.67346939 10.0408163,4.2244898 9.30612245,4.2244898 C8.63265306,4.2244898 8.02040816,3.67346939 8.02040816,2.93877551 L8.02040816,2.93877551 C8.02040816,2.26530612 8.57142857,1.65306122 9.30612245,1.65306122 L9.30612245,1.65306122 L9.30612245,1.65306122 Z M16.2857143,18.244898 L2.26530612,18.244898 L2.26530612,4.83673469 L4.2244898,4.83673469 L4.2244898,6.12244898 C4.2244898,6.48979592 4.46938776,6.73469388 4.83673469,6.73469388 L13.7142857,6.73469388 C14.0816327,6.73469388 14.3265306,6.48979592 14.3265306,6.12244898 L14.3265306,4.83673469 L16.2857143,4.83673469 L16.2857143,18.244898 L16.2857143,18.244898 L16.2857143,18.244898 Z"/>
        <polygon points="8.02 16.224 3.918 11.51 5.082 10.347 8.02 12.612 13.469 7.776 14.633 8.939"/>
      </g>
    </g>
  </g>
</svg>
