<?xml version="1.0" encoding="utf-8"?>
<!-- Generator: Adobe Illustrator 18.1.1, SVG Export Plug-In . SVG Version: 6.00 Build 0)  -->
<!DOCTYPE svg PUBLIC "-//W3C//DTD SVG 1.1//EN" "http://www.w3.org/Graphics/SVG/1.1/DTD/svg11.dtd">
<svg version="1.1" id="Layer_1" xmlns="http://www.w3.org/2000/svg" xmlns:xlink="http://www.w3.org/1999/xlink" x="0px" y="0px"
	 width="347.5px" height="204.7px" viewBox="-241.7 -43.3 347.5 204.7" enable-background="new -241.7 -43.3 347.5 204.7"
	 xml:space="preserve">
<path opacity="0.1" fill="#FFFFFF" d="M-241.7,30.1c20.2,23.2,94.9,116.2,110.1,131.3c11.1-13.1,18.2-45.5,38.4-47.5
	c11.1-1,13.1,5.1,21.2,10.1c14.1,7.1,20.2,7.1,34.3,4c52.5-12.1,155.6-63.6,196-75.8L27-50.7c-35.4,22.2-49.5,23.2-82.8,4
	c-17.2-9.1-31.3-12.1-48.5,0C-131.6-26.5-142.7,6.8-176,23C-198.3,33.1-241.7,30.1-241.7,30.1z"/>
<path opacity="5.000000e-02" fill="#FFFFFF" d="M154.3,49.3l-2-1c-3,1-7.1,2-10.1,3c-3-3-6.1-5.1-9.1-8.1c3-1,6.1-2,9.1-3l-2-1
	c-3,1-6.1,2-9.1,3c-2-1-4-3-5.1-4c3-1,6.1-2,9.1-3l-2-1c-3,1-6.1,2-9.1,3c-11.1-8.1-22.2-16.2-34.3-24.2c4-1,8.1-2,11.1-4l-2-1
	c-4,2-8.1,3-12.1,4C75.5,4.8,65.4-2.3,55.3-10.3c6.1-1,11.1-2,17.2-3l-2-1c-6.1,1-12.1,2-17.2,3c-5.1-5.1-10.1-10.1-16.2-15.2l0,0
	c5.1-1,10.1-3,15.2-5.1l-2-1c-5.1,2-10.1,3-15.2,4C29-33.6,21.9-39.6,16.9-45.7c-1,0-1,1-2,1c6.1,6.1,12.1,11.1,18.2,16.2
	c-4,2-9.1,3-13.1,3c-6.1-4-12.1-8.1-18.2-12.1c-1,1-1,1-2,1c6.1,3,12.1,7.1,18.2,11.1c-1,0-3,0-4,0c-11.1,1-22.2,0-32.3-1
	c-2-2-4-5.1-6.1-8.1c-1,0-2,0-2,0c1,3,3,6.1,5.1,8.1c-4-1-7.1-1-11.1-2c-1-3-2-5.1-3-8.1c-1,0-1,0-2-1c1,3,2,5.1,3,8.1c-1,0-1,0-2,0
	s-2,0-2-1c-1-2-1-4-2-7.1c0-1,0-1,0-2c-1,0-1-1-2-1c0,4,1,7.1,2,10.1c-2-1-4-1-6.1-2c-1-3-1-7.1-2-10.1c-1,0-1-1-2-1
	c0,4,1,7.1,2,11.1c-2-1-4-1-6.1-2c0-4,1-7.1,1-11.1l-1-1l0,0c-1,4-1,8.1-1,12.1c-2-1-5.1-1-7.1-1c1-4,2-9.1,3-13.1c-1,0-1-1-2-1
	c-1,5.1-2,9.1-3,14.1c-5.1-1-9.1-1-14.1,0c1-5.1,3-11.1,5.1-16.2c0,0,0-1,1-1c-1,0-1,0-2,0c-3,6.1-5.1,12.1-6.1,18.2
	c-3,0-6.1,1-9.1,2c1-6.1,1-13.1,1-19.2c-1,0-1,0-2,1c0,7.1,0,13.1-1,19.2c-8.1,3-15.2,8.1-22.2,14.1c-1,1-2,1-3,2
	c2-7.1,4-14.1,5.1-21.2c-1,1-1,1-2,2c-1,7.1-3,14.1-5.1,21.2c-11.1,7.1-22.2,17.2-33.3,26.3c0-2,0-5.1,0-7.1c-1,1-1,1-2,2
	c0,2,0,4,0,7.1C-162.9,22-172,28-180.1,34.1c0-3,0-6.1,0-9.1c-1,0-1,0-2,1c0,3,0,6.1,0,9.1c-8.1,5.1-17.2,8.1-27.3,10.1
	c-2-5.1-4-9.1-5.1-14.1c-1,0-1,0-2,0c1,5.1,3,10.1,5.1,15.2c-6.1,1-12.1,1-18.2,0c1,1,1,1,2,2c4,0,8.1,0,12.1,0c2,0,3,0,5.1-1
	c3,5.1,6.1,11.1,9.1,16.2c-4,0-8.1,1-13.1,1c1,0,1,1,2,1c4,0,8.1-1,13.1-1c5.1,7.1,11.1,14.1,17.2,21.2c-3,1-6.1,3-9.1,4l1,1
	c3-1,6.1-3,9.1-4c2,2,3,4,5.1,6.1c6.1,7.1,11.1,13.1,16.2,20.2c-3,2-6.1,3-9.1,4l1,1c2,0,5.1-1,8.1-3c2,3,5.1,7.1,7.1,10.1
	c1,1,2,3,2,4c-2,2-4,4-6.1,5.1l1,1c2-2,4-3,5.1-5.1c3,5.1,6.1,10.1,10.1,15.2c-1,2-2,3-3,5.1l1,1c1-1,2-3,3-4c3,4,6.1,8.1,9.1,11.1
	c0,0,1-1,1-2c-3-3-6.1-7.1-9.1-11.1c1-2,2-4,4-7.1c3,4,5.1,8.1,8.1,13.1l0,0c0-1,1-1,1-2c-3-4-5.1-9.1-8.1-13.1c0,0,0-1,1-1
	c2-4,5.1-9.1,8.1-13.1c2,4,4,9.1,7.1,13.1c0-1,1-1,1-2c-2-4-4-9.1-7.1-13.1c2-3,5.1-6.1,8.1-8.1c1,4,2,9.1,3,13.1c0-1,1-1,1-2
	c-1-4-2-8.1-3-12.1c4-3,9.1-4,14.1-5.1c1,2,1,5.1,2,7.1c1,0,1,0,2-1c-1-2-1-5.1-2-7.1c6.1-1,13.1,0,19.2,1c1,4,2,8.1,3,12.1
	c0,1,0,1,0,2c1,0,1,1,2,1c-1-5.1-2-10.1-4-15.2c9.1,2,18.2,5.1,28.3,7.1c2,4,4,8.1,5.1,11.1c0,1,1,1,1,2c1,0,1,0,2,0
	c-2-4-4-8.1-6.1-12.1c2,0,3,1,5.1,1c12.1,2,23.2-1,34.3-6.1c1,2,3,4,5.1,5.1c1,0,1,0,2-1c-2-2-3-4-5.1-5.1c1,0,2-1,3-1
	c8.1-4,17.2-7.1,25.3-11.1c2,2,4,4,6.1,6.1c1,0,1,0,2-1c-2-2-4-4-6.1-6.1c6.1-3,13.1-6.1,19.2-8.1c2,2,4,4,6.1,7.1c1,0,1,0,2-1
	c-2-2-4-4-6.1-7.1c1,0,2-1,2-1c4-2,7.1-3,11.1-5.1l0,0c2,2,4,4,6.1,6.1c1,0,1-1,2-1c-2-2-5.1-4-7.1-6.1c7.1-3,14.1-6.1,20.2-8.1
	c2,2,5.1,4,7.1,6.1c1,0,1-1,2-1c-2-2-5.1-4-7.1-6.1c10.1-4,19.2-7.1,29.3-11.1c2,2,4,3,6.1,5.1c1,0,1,0,2-1c-2-2-4-3-5.1-5.1
	c9.1-3,18.2-6.1,26.3-9.1c1,1,3,2,4,4c1,0,1,0,2-1c-1-1-3-2-4-4C146.2,51.3,150.2,50.3,154.3,49.3C153.3,49.3,153.3,49.3,154.3,49.3
	z M130,43.2c-8.1,3-17.2,7.1-25.3,10.1c-2-2-4-3-6.1-5.1c9.1-3,17.2-7.1,26.3-10.1C126,40.2,128,41.2,130,43.2z M-22.5-9.3
	C-15.4-0.2-6.3,6.8,2.8,14.9c1,1,3,3,4,4c-6.1,0-13.1,0-19.2,0C-18.5,9.9-24.5,0.8-28.6-8.3C-27.6-9.3-25.5-9.3-22.5-9.3z
	 M-119.5,87.6c-3-11.1-5.1-23.2-6.1-34.3c8.1-5.1,16.2-10.1,24.2-14.1c-1,14.1-2,27.3-1,41.4C-108.4,82.6-114.4,84.6-119.5,87.6
	L-119.5,87.6z M-121.5,88.6c-4,2-9.1,5.1-13.1,8.1c-4-9.1-7.1-18.2-10.1-27.3c0-1-1-3-1-4c6.1-4,11.1-8.1,17.2-11.1
	C-126.5,66.4-123.5,77.5-121.5,88.6z M-101.3,77.5c0-13.1,0-26.3,1-39.4c5.1-2,10.1-5.1,14.1-7.1v1c0,8.1-1,16.2-2,25.3
	c0,6.1,0,12.1,0,18.2c-5.1,1-10.1,2-15.2,4C-101.3,78.5-101.3,78.5-101.3,77.5z M-85.1,69.5c-1-8.1,0-16.2,1-25.3
	c0-5.1,1-10.1,1-15.2c4-2,9.1-3,13.1-5.1c0,5.1,1,10.1,1,15.2c1,11.1,3,21.2,5.1,32.3c-6.1,0-13.1,0-19.2,1c-1,0-1,0-2,0
	C-85.1,73.5-85.1,71.5-85.1,69.5z M-66.9,44.2c-1-6.1-1-12.1-2-19.2c4-1,7.1-2,11.1-3c2,0,5.1-1,7.1-1c5.1,18.2,11.1,36.4,20.2,53.5
	c-5.1,0-11.1-1-16.2-1s-10.1-1-15.2-1C-63.9,63.4-64.9,54.3-66.9,44.2z M-36.6,58.3c-5.1-12.1-9.1-24.2-12.1-36.4
	c6.1-1,11.1-1,17.2-1c2,4,4,8.1,6.1,13.1c7.1,14.1,16.2,28.3,26.3,41.4c-7.1,1-14.1,1-22.2,1c-2,0-5.1,0-7.1,0
	C-31.6,69.5-33.6,63.4-36.6,58.3z M-21.5,37.1c-3-5.1-6.1-11.1-8.1-17.2c5.1,0,10.1,0,14.1,0h1c1,2,3,4,4,5.1
	C0.7,40.2,12.9,55.3,26,69.5c-7.1,1-13.1,3-20.2,4c-1,0-2,0-2,0C-6.3,62.4-14.4,50.3-21.5,37.1z M0.7,38.1C-4.3,32.1-8.4,26-12.4,20
	c7.1,0,13.1,0,20.2,0C16.9,29.1,25,39.2,32,49.3c4,5.1,8.1,10.1,12.1,16.2c-5.1,1-10.1,3-16.2,4C18.9,59.4,9.8,49.3,0.7,38.1z
	 M18.9,30.1c-3-3-6.1-7.1-9.1-10.1c6.1,0,12.1,0,18.2,0c5.1,5.1,10.1,11.1,15.2,17.2s10.1,11.1,16.2,17.2c2,2,3,3,5.1,5.1
	c-3,1-6.1,2-9.1,3s-6.1,2-9.1,3C36.1,53.3,28,41.2,18.9,30.1z M61.3,54.3c-5.1-5.1-11.1-11.1-16.2-17.2C40.1,31.1,35.1,25,30,20
	c10.1,0,20.2-1,30.3-2C70.4,28,80.5,37.1,91.6,46.2c1,1,1,1,2,2c-9.1,4-19.2,7.1-28.3,10.1C64.4,56.3,63.4,55.3,61.3,54.3z M29,17.9
	C18.9,7.8,7.8-0.2-2.3-9.3l0,0c4,0,9.1,0,13.1,0c8.1,0,16.2,0,24.2,0c8.1,8.1,15.2,16.2,23.2,24.2l1,1C49.2,17.9,39.1,17.9,29,17.9z
	 M-4.3-9.3C5.8-0.2,16.9,8.8,27,17.9c-3,0-5.1,0-8.1,0s-7.1,0-10.1,0C2.8,11.9-3.3,5.8-10.4-0.2c-4-3-7.1-7.1-10.1-10.1
	C-15.4-9.3-10.4-9.3-4.3-9.3C-5.3-9.3-4.3-9.3-4.3-9.3z M-15.4,17.9c-5.1,0-9.1,0-13.1,0h-1c-4-9.1-8.1-18.2-11.1-27.3
	c3,0,6.1,0,9.1,0C-27.6,0.8-21.5,9.9-15.4,17.9z M-32.6,18.9c-6.1,0-11.1,1-17.2,1c-2-9.1-4-18.2-5.1-27.3c4,0,8.1-1,11.1-1
	C-39.7,0.8-36.6,9.9-32.6,18.9z M-50.8,20c-6.1,1-12.1,2-17.2,3c0-9.1,0-19.2,0-28.3h1c4-1,7.1-1,11.1-2
	C-54.8,1.8-52.8,10.9-50.8,20z M-70,24c-1,0-1,0-2,0c-4,1-8.1,3-12.1,4c0-9.1,0-19.2,0-28.3c4-2,9.1-3,14.1-4C-70,4.8-70,13.9-70,24
	z M-85.1,29.1c-5.1,2-10.1,4-14.1,7.1c0-1,0-2,0-3c1-9.1,2-17.2,3-26.3c2-1,4-2,6.1-4c2-1,3-2,5.1-2C-85.1,9.9-85.1,20-85.1,29.1z
	 M-101.3,33.1c0,1,0,3,0,4c-8.1,4-16.2,9.1-24.2,15.2c0-4-1-8.1-1-12.1c0-3,0-7.1,0-10.1c6.1-5.1,12.1-10.1,18.2-15.2
	c3-3,7.1-5.1,10.1-7.1C-99.3,15.9-100.3,24-101.3,33.1z M-128.6,40.2c0,4,1,8.1,1,12.1c-3,2-6.1,4-9.1,6.1c-3,2-6.1,4-8.1,5.1
	c-2-6.1-3-11.1-4-17.2c2-1,4-3,6.1-4c5.1-4,10.1-7.1,14.1-11.1C-128.6,34.1-128.6,37.1-128.6,40.2z M-146.7,65.4
	c-7.1,5.1-14.1,9.1-22.2,13.1c-3-6.1-5.1-11.1-7.1-17.2v-1c9.1-3,17.2-7.1,25.3-12.1C-149.8,53.3-148.8,59.4-146.7,65.4z
	 M-146.7,66.4c0,1,1,2,1,3c3,10.1,6.1,19.2,10.1,28.3c-5.1,4-11.1,7.1-16.2,10.1c-4-5.1-7.1-11.1-10.1-16.2c-2-4-4-8.1-6.1-12.1
	C-160.9,75.5-153.8,71.5-146.7,66.4z M-134.6,99.8c1,3,3,6.1,4,9.1c-4,4-8.1,8.1-12.1,12.1c-3-4-5.1-8.1-8.1-11.1
	C-145.7,106.8-139.7,103.8-134.6,99.8z M-133.6,98.7c4-3,8.1-5.1,13.1-8.1c1,3,1,5.1,2,8.1c-4,3-7.1,6.1-11.1,9.1
	C-130.6,104.8-131.6,101.8-133.6,98.7z M-118.5,89.7c5.1-3,11.1-6.1,16.2-8.1c0,3,0,6.1,1,9.1c-3,1-6.1,2-9.1,4c-2,1-4,2-5.1,3
	C-117.5,95.7-118.5,92.7-118.5,89.7z M-101.3,81.6C-101.3,81.6-101.3,80.6-101.3,81.6c5.1-2,10.1-3,15.2-4c0,1,0,2,0,3
	c0,3,1,6.1,2,8.1c-5.1,0-11.1,1-16.2,2C-100.3,87.6-101.3,84.6-101.3,81.6z M-84.1,76.5c7.1-1,14.1-2,21.2-2c1,5.1,3,10.1,4,16.2
	c-5.1-1-10.1-2-15.2-2c-3,0-6.1,0-9.1,0C-83.1,84.6-84.1,80.6-84.1,76.5z M-60.9,75.5c3,0,6.1,0,9.1,0c8.1,0,15.2,1,23.2,2
	c3,6.1,6.1,12.1,10.1,17.2c-5.1,0-10.1,0-14.1,0c-8.1-1-15.2-2-22.2-3C-57.9,85.6-59.9,80.6-60.9,75.5z M-27.6,77.5L-27.6,77.5
	c9.1,0,17.2,0,26.3-1c1,0,2,0,4,0c4,5.1,7.1,9.1,11.1,14.1c-10.1,3-21.2,4-31.3,5.1C-21.5,88.6-24.5,82.6-27.6,77.5z M3.8,75.5
	c8.1-1,15.2-2,23.2-4c3,4,6.1,7.1,10.1,11.1c-7.1,2-14.1,5.1-21.2,7.1C11.8,84.6,7.8,79.6,3.8,75.5z M29,70.5c5.1-1,10.1-3,16.2-4
	c2,3,5.1,6.1,8.1,9.1c-5.1,2-9.1,4-14.1,5.1C35.1,77.5,32,74.5,29,70.5z M46.2,66.4c6.1-2,13.1-4,19.2-6.1c3,2,5.1,5.1,8.1,7.1
	c-4,2-9.1,4-13.1,5.1c-2,1-4,2-6.1,3C51.2,72.5,49.2,69.5,46.2,66.4z M67.4,59.4c9.1-3,19.2-7.1,28.3-10.1c2,2,4,3,6.1,5.1
	c-9.1,4-18.2,8.1-27.3,12.1C72.4,64.4,70.4,61.4,67.4,59.4z M121.9,37.1c-9.1,3-17.2,7.1-26.3,10.1c-1-1-2-2-3-2
	C81.5,37.1,72.4,28,62.3,17.9c8.1-1,16.2-3,24.2-5.1C99.7,21,110.8,29.1,121.9,37.1z M86.6,11.9c-8.1,2-16.2,4-24.2,5.1
	c-1-1-1-1-2-2C53.3,6.8,45.2-1.3,38.1-8.3c5.1,0,11.1-1,16.2-1C64.4-3.3,75.5,3.8,86.6,11.9z M35.1-25.5c6.1,5.1,11.1,9.1,17.2,13.1
	c-5.1,1-11.1,1-16.2,1c-2-2-3-3-5.1-5.1c-3-3-6.1-5.1-9.1-8.1C26-24.5,30-24.5,35.1-25.5z M-8.4-23.5c9.1,1,18.2,1,28.3,0
	c4,3,7.1,6.1,10.1,9.1c1,1,2,2,4,3c-12.1,0-25.3,0-37.4,0c-4-4-9.1-8.1-13.1-13.1C-14.4-23.5-11.4-23.5-8.4-23.5z M-19.5-24.5
	c4,5.1,8.1,9.1,13.1,13.1c-4,0-8.1,0-12.1,0c-1,0-2,0-3,0c-4-5.1-7.1-9.1-10.1-15.2C-27.6-25.5-23.5-24.5-19.5-24.5z M-33.6-26.5
	c2,5.1,5.1,10.1,9.1,15.2c-2,0-4,0-7.1,0c-3-5.1-5.1-11.1-7.1-17.2C-36.6-27.5-34.6-27.5-33.6-26.5z M-39.7-28.5
	c2,6.1,4,12.1,7.1,17.2c-3,0-6.1,0-9.1,0c-2-6.1-4-13.1-5.1-19.2C-44.7-29.5-41.7-28.5-39.7-28.5z M-48.8-30.5
	c1,7.1,3,13.1,5.1,20.2c-4,0-7.1,1-11.1,1c0-4-1-8.1-1-13.1c0-3,0-7.1,0-10.1C-52.8-31.6-50.8-31.6-48.8-30.5z M-56.8-32.6
	c0,8.1,0,16.2,1,23.2c-4,1-8.1,1-12.1,2c1-9.1,2-18.2,3-27.3C-61.9-33.6-59.9-33.6-56.8-32.6z M-79.1-34.6c4,0,8.1,0,12.1,0
	c-1,9.1-2,18.2-3,28.3h-1c-4,1-9.1,2-13.1,4c0-11.1,1-21.2,3-32.3C-80.1-34.6-79.1-34.6-79.1-34.6z M-82.1-34.6
	c-2,11.1-3,21.2-3,32.3c-4,2-7.1,4-11.1,6.1c2-12.1,4-24.2,5.1-35.4C-88.2-32.6-85.1-33.6-82.1-34.6z M-101.3-26.5c3-2,5.1-3,8.1-4
	c-1,12.1-3,24.2-5.1,36.4c-4,3-8.1,5.1-12.1,8.1c-6.1,4-11.1,9.1-17.2,14.1c0-4,0-8.1,1-11.1c1-7.1,3-14.1,5.1-21.2c1-3,2-6.1,2-8.1
	C-113.4-18.4-107.4-22.5-101.3-26.5z M-129.6-5.3c3-2,5.1-5.1,8.1-7.1c-1,3-2,5.1-2,8.1c-2,7.1-4,14.1-5.1,22.2c-1,4-1,8.1-1,11.1
	c-7.1,6.1-14.1,11.1-21.2,16.2c-2-10.1-3-19.2-3-29.3C-144.7,8.8-136.6,1.8-129.6-5.3z M-154.8,16.9c0,10.1,1,19.2,3,29.3
	c-3,2-7.1,4-10.1,6.1c-5.1,2-9.1,4-14.1,6.1c-2-7.1-3-15.2-4-22.2C-171,30.1-162.9,24-154.8,16.9z M-208.4,46.2
	c8.1-2,16.2-5.1,24.2-9.1c1,0,2-1,2-1c1,7.1,2,14.1,4,22.2c-7.1,2-14.1,3-21.2,4C-202.3,57.3-205.3,52.3-208.4,46.2z M-198.3,64.4
	c4-1,9.1-1,13.1-2c2-1,5.1-1,7.1-2c2,7.1,4,13.1,7.1,19.2c-4,2-7.1,4-11.1,6.1C-187.1,78.5-193.2,71.5-198.3,64.4z M-175,93.7
	c-2-2-4-4-6.1-7.1c4-2,8.1-4,11.1-6.1c2,3,3,7.1,5.1,10.1c3,6.1,7.1,12.1,11.1,18.2c-2,1-4,2-6.1,3C-163.9,105.8-169,99.8-175,93.7z
	 M-150.8,124c-2-3-4-7.1-7.1-10.1c2-1,4-2,6.1-3c3,4,5.1,8.1,8.1,12.1c-2,2-3,3-5.1,5.1C-149.8,126-150.8,125-150.8,124z
	 M-138.7,144.2c-3-5.1-7.1-10.1-10.1-15.2c2-2,3-3,5.1-5.1c3,4,6.1,8.1,9.1,13.1C-135.6,140.2-136.6,142.2-138.7,144.2z
	 M-133.6,135.1c-3-4-5.1-8.1-8.1-12.1c3-3,5.1-6.1,8.1-8.1c1-1,3-3,4-4c2,4,3,7.1,5.1,11.1C-128.6,126-130.6,131.1-133.6,135.1z
	 M-123.5,120c-2-3-3-7.1-5.1-10.1c3-3,7.1-6.1,11.1-8.1c1,4,2,7.1,3,11.1C-118.5,113.9-121.5,116.9-123.5,120z M-106.3,106.8
	c-3,1-5.1,2-8.1,4c-1-4-2-7.1-3-11.1c5.1-3,9.1-5.1,15.2-7.1c0,4,1,9.1,2,13.1C-102.3,105.8-104.3,106.8-106.3,106.8z M-98.3,105.8
	c-1-4-2-9.1-2-13.1c1,0,3-1,4-1c4-1,8.1-1,12.1-1c1,5.1,3,11.1,5.1,16.2C-85.1,105.8-92.2,104.8-98.3,105.8z M-68,108.8
	c-3-1-6.1-2-10.1-2c-1-5.1-3-10.1-4-15.2c0-1,0-1,0-2c8.1,0,16.2,1,24.2,3c2,7.1,5.1,14.1,8.1,21.2C-55.8,112.9-61.9,110.9-68,108.8
	z M-33.6,116.9c-5.1,0-10.1-1-14.1-2c-3-7.1-6.1-14.1-8.1-22.2c3,0,5.1,1,8.1,1c10.1,2,19.2,2,29.3,2c3,5.1,7.1,10.1,10.1,15.2
	C-16.4,113.9-24.5,116.9-33.6,116.9z M12.9,101.8c-6.1,3-13.1,6.1-19.2,9.1c-4-5.1-7.1-9.1-10.1-14.1c5.1,0,10.1-1,15.2-2
	c5.1-1,11.1-2,16.2-3c2,2,4,5.1,7.1,7.1C18.9,98.7,15.9,99.8,12.9,101.8z M23,96.7c-2-2-4-4-6.1-7.1c7.1-2,14.1-4,21.2-7.1
	c1,2,3,3,4,5.1l0,0C36.1,91.7,30,93.7,23,96.7z M44.2,87.6c-2-2-3-3-4-5.1c5.1-2,9.1-3,14.1-5.1c1,2,3,3,4,5.1
	C53.3,83.6,49.2,85.6,44.2,87.6z M63.4,79.6c-1,0-2,1-3,1c-1-1-3-3-4-5.1c6.1-3,13.1-5.1,19.2-8.1c2,2,3,3,5.1,5.1
	C74.5,75.5,68.4,77.5,63.4,79.6z M82.5,72.5c-2-2-4-3-5.1-5.1c9.1-4,18.2-8.1,27.3-12.1c2,2,5.1,4,7.1,6.1
	C101.7,65.4,91.6,68.4,82.5,72.5z M112.9,60.4c-2-2-5.1-4-7.1-6.1c8.1-4,17.2-7.1,25.3-11.1c3,2,6.1,5.1,9.1,7.1
	C131,54.3,121.9,57.3,112.9,60.4z"/>
</svg>
