<svg xmlns="http://www.w3.org/2000/svg" width="559" height="101" viewBox="0 0 559 101">
  <g fill="none" fill-rule="evenodd">
    <path fill="#ED4F7E" d="M14.0039062,38.3739583 C15.9960938,37.4 17.0039062,38.3739583 17.0039062,39.840625 C17.0039062,41.8 14.1679688,46.2 13.171875,46.2 C12.1640625,46.2 11.390625,42.315625 11.0039062,39.840625 C10.6054688,37.4 10.5,33 7.5,33 C4.5,33 0,38.6489583 0,38.6489583 L0.99609375,39.840625 C3,38.3739583 3.609375,38.671875 3.99609375,39.840625 L6.99609375,49.1333333 C7.4765625,50.6 8.49609375,53.5333333 11.2734375,53.5333333 C14.4960938,53.5333333 24,43.2666667 24,36.9645833 C24,34.5697917 22.5,33 20.4960938,33 C18.5039062,33 15,34.4666667 14.0039062,38.3739583 L14.0039062,38.3739583 Z"/>
    <path fill="#FFFFFF" d="M142.003906,38.3739583 C143.996094,37.4 145.003906,38.3739583 145.003906,39.840625 C145.003906,41.8 142.167969,46.2 141.171875,46.2 C140.164062,46.2 139.390625,42.315625 139.003906,39.840625 C138.605469,37.4 138.5,33 135.5,33 C132.5,33 128,38.6489583 128,38.6489583 L128.996094,39.840625 C131,38.3739583 131.609375,38.671875 131.996094,39.840625 L134.996094,49.1333333 C135.476562,50.6 136.496094,53.5333333 139.273438,53.5333333 C142.496094,53.5333333 152,43.2666667 152,36.9645833 C152,34.5697917 150.5,33 148.496094,33 C146.503906,33 143,34.4666667 142.003906,38.3739583 L142.003906,38.3739583 Z"/>
    <path fill="#ED4F7E" d="M48.9277344,36.3191106 C50.0449219,35.6628606 50.8828125,34.6153846 51.2763672,33.3786058 C50.2607422,33.984375 49.1054688,34.4260817 47.9121094,34.6658654 C46.9091797,33.65625 45.5253906,33 43.9892578,33 C41.0439453,33 38.6699219,35.359976 38.6699219,38.2878606 C38.6699219,38.7043269 38.6953125,39.1334135 38.7841797,39.5120192 C34.3662109,39.2722356 30.4560547,37.2782452 27.8027344,34.0727163 C27.3583984,34.8551683 27.0791016,35.6628606 27.0791016,36.6472356 C27.0791016,38.4645433 28.0185547,40.0799279 29.4658203,41.0390625 C28.5898438,41.0138221 27.7773438,40.7740385 27.0537109,40.3828125 L27.0537109,40.4459135 C27.0537109,43.0204327 28.8945312,45.1658654 31.3320312,45.6454327 C30.875,45.7716346 30.3925781,45.8347356 29.9101562,45.8347356 C29.5800781,45.8347356 29.25,45.796875 28.9199219,45.733774 C29.5800781,47.828726 31.5732422,49.3936298 33.8837891,49.4188702 C32.0810547,50.8575721 29.7578125,51.9302885 27.2695312,51.9302885 C26.8378906,51.9302885 26.4189453,51.9050481 26,51.8419471 C28.3486328,53.34375 31.1796875,54 34.1884766,54 C43.9892578,54 49.3466797,45.9230769 49.3466797,38.9188702 L49.3466797,38.2247596 C50.375,37.4801683 51.2763672,36.5588942 52,35.4735577 C51.0351562,35.9026442 50.0195312,36.1929087 48.9277344,36.3191106 Z"/>
    <path fill="#FFFFFF" d="M176.927734,36.3191106 C178.044922,35.6628606 178.882812,34.6153846 179.276367,33.3786058 C178.260742,33.984375 177.105469,34.4260817 175.912109,34.6658654 C174.90918,33.65625 173.525391,33 171.989258,33 C169.043945,33 166.669922,35.359976 166.669922,38.2878606 C166.669922,38.7043269 166.695312,39.1334135 166.78418,39.5120192 C162.366211,39.2722356 158.456055,37.2782452 155.802734,34.0727163 C155.358398,34.8551683 155.079102,35.6628606 155.079102,36.6472356 C155.079102,38.4645433 156.018555,40.0799279 157.46582,41.0390625 C156.589844,41.0138221 155.777344,40.7740385 155.053711,40.3828125 L155.053711,40.4459135 C155.053711,43.0204327 156.894531,45.1658654 159.332031,45.6454327 C158.875,45.7716346 158.392578,45.8347356 157.910156,45.8347356 C157.580078,45.8347356 157.25,45.796875 156.919922,45.733774 C157.580078,47.828726 159.573242,49.3936298 161.883789,49.4188702 C160.081055,50.8575721 157.757812,51.9302885 155.269531,51.9302885 C154.837891,51.9302885 154.418945,51.9050481 154,51.8419471 C156.348633,53.34375 159.179688,54 162.188477,54 C171.989258,54 177.34668,45.9230769 177.34668,38.9188702 L177.34668,38.2247596 C178.375,37.4801683 179.276367,36.5588942 180,35.4735577 C179.035156,35.9026442 178.019531,36.1929087 176.927734,36.3191106 Z"/>
    <path fill="#ED4F7E" d="M53,44.6767476 C53,50.1046108 56.6723633,54.7000496 61.625,56 L61.625,53.6509668 C58.0087891,52.5448686 57.0429688,49.7625186 56.9980469,49.6484879 C56.9643555,49.511651 57.0205078,49.3520079 57.1552734,49.2721864 C57.2563477,49.1923649 57.4135742,49.215171 57.5258789,49.3292018 C57.5483398,49.3292018 59.4912109,51.2677243 61.8945312,51.222112 C62.0742188,50.7317799 62.3662109,50.2414477 62.8266602,49.8879524 C59.7382812,49.4090233 57.3125,47.5731284 57.3125,44.6767476 C57.3125,43.490828 57.7954102,42.2935052 58.6489258,41.3242439 C58.3793945,40.2181458 58.2670898,38.86118 58.75,37.8691125 C59.9741211,37.9717402 61.1757812,38.5989093 62.0742188,39.1576599 C62.8266602,38.9752107 63.6240234,38.8383738 64.5,38.8383738 C65.3759766,38.8383738 66.1733398,38.9752107 66.9257812,39.1576599 C67.8242188,38.5989093 69.0258789,37.9717402 70.25,37.8691125 C70.7329102,38.86118 70.5981445,40.2181458 70.3510742,41.3242439 C71.2045898,42.2935052 71.6875,43.490828 71.6875,44.6767476 C71.6875,47.5731284 69.2617188,49.4090233 66.1733398,49.8879524 C67.1391602,50.6519584 67.375,51.9975211 67.375,52.9439762 L67.375,56 C72.3276367,54.7000496 76,50.1046108 76,44.6767476 C76,38.245414 70.8339844,33 64.5,33 C58.1323242,33 53,38.245414 53,44.6767476 Z"/>
    <path fill="#FFFFFF" d="M181,44.6767476 C181,50.1046108 184.672363,54.7000496 189.625,56 L189.625,53.6509668 C186.008789,52.5448686 185.042969,49.7625186 184.998047,49.6484879 C184.964355,49.511651 185.020508,49.3520079 185.155273,49.2721864 C185.256348,49.1923649 185.413574,49.215171 185.525879,49.3292018 C185.54834,49.3292018 187.491211,51.2677243 189.894531,51.222112 C190.074219,50.7317799 190.366211,50.2414477 190.82666,49.8879524 C187.738281,49.4090233 185.3125,47.5731284 185.3125,44.6767476 C185.3125,43.490828 185.79541,42.2935052 186.648926,41.3242439 C186.379395,40.2181458 186.26709,38.86118 186.75,37.8691125 C187.974121,37.9717402 189.175781,38.5989093 190.074219,39.1576599 C190.82666,38.9752107 191.624023,38.8383738 192.5,38.8383738 C193.375977,38.8383738 194.17334,38.9752107 194.925781,39.1576599 C195.824219,38.5989093 197.025879,37.9717402 198.25,37.8691125 C198.73291,38.86118 198.598145,40.2181458 198.351074,41.3242439 C199.20459,42.2935052 199.6875,43.490828 199.6875,44.6767476 C199.6875,47.5731284 197.261719,49.4090233 194.17334,49.8879524 C195.13916,50.6519584 195.375,51.9975211 195.375,52.9439762 L195.375,56 C200.327637,54.7000496 204,50.1046108 204,44.6767476 C204,38.245414 198.833984,33 192.5,33 C186.132324,33 181,38.245414 181,44.6767476 Z"/>
    <path fill="#EA507E" d="M100.7,34 L81.6783784,34 C80.7459459,34 80,34.7333333 80,35.5888889 L80,54.4111111 C80,55.2666667 80.7459459,56 81.6783784,56 L100.762162,56 C101.694595,56 102.440541,55.2666667 102.440541,54.4111111 L102.440541,35.5888889 C102.378378,34.7333333 101.632432,34 100.7,34 L100.7,34 Z M86.6513514,52.7611111 L83.2945946,52.7611111 L83.2945946,42.25 L86.5891892,42.25 L86.5891892,52.7611111 L86.6513514,52.7611111 Z M84.972973,40.7833333 C83.9162162,40.7833333 83.0459459,39.9277778 83.0459459,38.8888889 C83.0459459,37.85 83.9162162,37.0555556 84.972973,37.0555556 C86.0297297,37.0555556 86.9,37.9111111 86.9,38.95 C86.9,39.9888889 86.0297297,40.7833333 84.972973,40.7833333 L84.972973,40.7833333 Z M99.0837838,52.7611111 L95.7891892,52.7611111 L95.7891892,47.6277778 C95.7891892,46.4055556 95.7891892,44.8166667 94.0486486,44.8166667 C92.3081081,44.8166667 92.0594595,46.1611111 92.0594595,47.5055556 L92.0594595,52.7 L88.7027027,52.7 L88.7027027,42.25 L91.872973,42.25 L91.872973,43.6555556 L91.9351351,43.6555556 C92.3702703,42.8 93.4891892,41.9444444 95.1054054,41.9444444 C98.4621622,41.9444444 99.0837838,44.1444444 99.0837838,46.9555556 L99.0837838,52.7611111 L99.0837838,52.7611111 Z"/>
    <path fill="#FFFFFF" d="M228.7,34 L209.678378,34 C208.745946,34 208,34.7333333 208,35.5888889 L208,54.4111111 C208,55.2666667 208.745946,56 209.678378,56 L228.762162,56 C229.694595,56 230.440541,55.2666667 230.440541,54.4111111 L230.440541,35.5888889 C230.378378,34.7333333 229.632432,34 228.7,34 L228.7,34 Z M214.651351,52.7611111 L211.294595,52.7611111 L211.294595,42.25 L214.589189,42.25 L214.589189,52.7611111 L214.651351,52.7611111 Z M212.972973,40.7833333 C211.916216,40.7833333 211.045946,39.9277778 211.045946,38.8888889 C211.045946,37.85 211.916216,37.0555556 212.972973,37.0555556 C214.02973,37.0555556 214.9,37.9111111 214.9,38.95 C214.9,39.9888889 214.02973,40.7833333 212.972973,40.7833333 L212.972973,40.7833333 Z M227.083784,52.7611111 L223.789189,52.7611111 L223.789189,47.6277778 C223.789189,46.4055556 223.789189,44.8166667 222.048649,44.8166667 C220.308108,44.8166667 220.059459,46.1611111 220.059459,47.5055556 L220.059459,52.7 L216.702703,52.7 L216.702703,42.25 L219.872973,42.25 L219.872973,43.6555556 L219.935135,43.6555556 C220.37027,42.8 221.489189,41.9444444 223.105405,41.9444444 C226.462162,41.9444444 227.083784,44.1444444 227.083784,46.9555556 L227.083784,52.7611111 L227.083784,52.7611111 Z"/>
    <path fill="#EA507E" d="M127,35.375 C127,34.6230469 126.376953,34 125.625,34 L106.375,34 C105.623047,34 105,34.6230469 105,35.375 L105,54.625 C105,55.3769531 105.623047,56 106.375,56 L116.762695,56 L116.762695,47.4492188 L114.012695,47.4492188 L114.012695,44.2802734 L116.762695,44.2802734 L116.762695,41.5410156 C116.762695,39.0380859 118.288086,37.3623047 121.306641,37.3623047 C122.638672,37.3623047 123.5625,37.5126953 123.5625,37.5126953 L123.5625,40.3701172 L121.5,40.3701172 C120.586914,40.3701172 120.125,40.8857422 120.125,41.7880859 L120.125,44.2802734 L123.336914,44.2802734 L122.875,47.4492188 L120.125,47.4492188 L120.125,56 L125.625,56 C126.376953,56 127,55.3769531 127,54.625 L127,35.375 Z"/>
    <path fill="#FFFFFF" d="M255,35.375 C255,34.6230469 254.376953,34 253.625,34 L234.375,34 C233.623047,34 233,34.6230469 233,35.375 L233,54.625 C233,55.3769531 233.623047,56 234.375,56 L244.762695,56 L244.762695,47.4492188 L242.012695,47.4492188 L242.012695,44.2802734 L244.762695,44.2802734 L244.762695,41.5410156 C244.762695,39.0380859 246.288086,37.3623047 249.306641,37.3623047 C250.638672,37.3623047 251.5625,37.5126953 251.5625,37.5126953 L251.5625,40.3701172 L249.5,40.3701172 C248.586914,40.3701172 248.125,40.8857422 248.125,41.7880859 L248.125,44.2802734 L251.336914,44.2802734 L250.875,47.4492188 L248.125,47.4492188 L248.125,56 L253.625,56 C254.376953,56 255,55.3769531 255,54.625 L255,35.375 Z"/>
    <path fill="#6D7483" d="M277 41.5239258C277 41.3012695 276.82373 41.125 276.601074 41.125L258.398926 41.125C258.17627 41.125 258 41.3012695 258 41.5239258L258 45.4760742C258 45.6987305 258.17627 45.875 258.398926 45.875L276.601074 45.875C276.82373 45.875 277 45.6987305 277 45.4760742L277 41.5239258zM277 34.3989258C277 34.1762695 276.82373 34 276.601074 34L258.398926 34C258.17627 34 258 34.1762695 258 34.3989258L258 38.3510742C258 38.5737305 258.17627 38.75 258.398926 38.75L276.601074 38.75C276.82373 38.75 277 38.5737305 277 38.3510742L277 34.3989258zM277 48.6489258C277 48.4262695 276.82373 48.25 276.601074 48.25L258.398926 48.25C258.17627 48.25 258 48.4262695 258 48.6489258L258 52.6010742C258 52.8237305 258.17627 53 258.398926 53L276.601074 53C276.82373 53 277 52.8237305 277 52.6010742L277 48.6489258zM291.935969 41.5L296.89588 36.5400891C296.962138 36.4548998 297 36.360245 297 36.2466592 297 36.1330735 296.962138 36.0478842 296.89588 35.9626949L294.037305 33.1041203C293.952116 33.0378619 293.866927 33 293.753341 33 293.639755 33 293.5451 33.0378619 293.459911 33.1041203L288.5 38.0640312 283.540089 33.1041203C283.4549 33.0378619 283.360245 33 283.246659 33 283.133073 33 283.047884 33.0378619 282.962695 33.1041203L280.10412 35.9626949C280.037862 36.0478842 280 36.1330735 280 36.2466592 280 36.360245 280.037862 36.4548998 280.10412 36.5400891L285.064031 41.5 280.10412 46.4599109C280.037862 46.5451002 280 46.639755 280 46.7533408 280 46.8669265 280.037862 46.9521158 280.10412 47.0373051L282.962695 49.8958797C283.047884 49.9621381 283.133073 50 283.246659 50 283.360245 50 283.4549 49.9621381 283.540089 49.8958797L288.5 44.9359688 293.459911 49.8958797C293.5451 49.9621381 293.639755 50 293.753341 50 293.866927 50 293.952116 49.9621381 294.037305 49.8958797L296.89588 47.0373051C296.962138 46.9521158 297 46.8669265 297 46.7533408 297 46.639755 296.962138 46.5451002 296.89588 46.4599109L291.935969 41.5z"/>
    <path fill="#000000" d="M228.5 69C222.161932 69 217 74.5333333 217 81.2666667 217 90.4666667 226.703125 100.033333 226.703125 100.033333 228.009943 101.266667 228.794034 101.366667 230.198864 100.033333 230.198864 100.033333 240 90.4666667 240 81.2666667 240 74.5333333 234.838068 69 228.5 69L228.5 69zM228.5 86.2666667C225.494318 86.2666667 223.076705 83.8 223.076705 80.7333333 223.076705 77.6666667 225.494318 75.1666667 228.5 75.1666667 231.505682 75.1666667 233.955966 77.6666667 233.955966 80.7333333 233.955966 83.8 231.505682 86.2666667 228.5 86.2666667L228.5 86.2666667zM259.81288 89.7438134C259.458229 90.0997914 258.942372 90.1645147 258.523238 89.9056216 257.104631 89.0318572 255.718266 87.9315613 254.428624 86.6370956 253.138981 85.3749915 252.075026 83.9834409 251.204518 82.5271669 250.946589 82.1064655 251.011071 81.5886793 251.333482 81.2327012L254.396382 78.1907067C254.62207 77.9641752 254.783275 77.6729204 254.783275 77.349304 254.783275 77.1227725 254.718793 76.9609643 254.62207 76.7667944L250.688661 69.5825096C250.495215 69.2265315 250.172804 69 249.75367 69 248.012653 69.1618082 246.045949 69.7443178 244.917512 70.8769753 240.91962 74.8898191 243.402182 83.9510792 250.237286 90.8441092 254.815516 95.4394626 260.296496 97.9960324 264.649039 97.9960324 266.776949 97.9960324 268.64693 97.3487995 269.968813 96.0219722 271.129491 94.8893147 271.871036 93.1094243 272 91.3295339 272 90.9088325 271.774313 90.5528545 271.419661 90.3586846L264.262146 86.7341805C264.262146 86.7341805 263.907495 86.5400107 263.714048 86.5400107 263.359397 86.5400107 263.069227 86.7018189 262.875781 86.960712L259.81288 89.7438134z"/>
    <path fill="#FFFFFF" d="M324.81288,89.7466518 C324.458229,90.1026786 323.942372,90.1674107 323.523238,89.9084821 C322.104631,89.0345982 320.718266,87.9341518 319.428624,86.6395089 C318.138981,85.3772321 317.075026,83.9854911 316.204518,82.5290179 C315.946589,82.1082589 316.011071,81.5904018 316.333482,81.234375 L319.396382,78.1919643 C319.62207,77.9654018 319.783275,77.6741071 319.783275,77.3504464 C319.783275,77.1238839 319.718793,76.9620536 319.62207,76.7678571 L315.688661,69.5825893 C315.495215,69.2265625 315.172804,69 314.75367,69 C313.012653,69.1618304 311.045949,69.7444196 309.917512,70.8772321 C305.91962,74.890625 308.402182,83.953125 315.237286,90.8470982 C319.815516,95.4430804 325.296496,98 329.649039,98 C331.776949,98 333.64693,97.3526786 334.968813,96.0256696 C336.129491,94.8928571 336.871036,93.1127232 337,91.3325893 C337,90.9118304 336.774313,90.5558036 336.419661,90.3616071 L329.262146,86.7366071 C329.262146,86.7366071 328.907495,86.5424107 328.714048,86.5424107 C328.359397,86.5424107 328.069227,86.7042411 327.875781,86.9631696 L324.81288,89.7466518 Z"/>
    <path fill="#6D7483" d="M388.81288,89.7466518 C388.458229,90.1026786 387.942372,90.1674107 387.523238,89.9084821 C386.104631,89.0345982 384.718266,87.9341518 383.428624,86.6395089 C382.138981,85.3772321 381.075026,83.9854911 380.204518,82.5290179 C379.946589,82.1082589 380.011071,81.5904018 380.333482,81.234375 L383.396382,78.1919643 C383.62207,77.9654018 383.783275,77.6741071 383.783275,77.3504464 C383.783275,77.1238839 383.718793,76.9620536 383.62207,76.7678571 L379.688661,69.5825893 C379.495215,69.2265625 379.172804,69 378.75367,69 C377.012653,69.1618304 375.045949,69.7444196 373.917512,70.8772321 C369.91962,74.890625 372.402182,83.953125 379.237286,90.8470982 C383.815516,95.4430804 389.296496,98 393.649039,98 C395.776949,98 397.64693,97.3526786 398.968813,96.0256696 C400.129491,94.8928571 400.871036,93.1127232 401,91.3325893 C401,90.9118304 400.774313,90.5558036 400.419661,90.3616071 L393.262146,86.7366071 C393.262146,86.7366071 392.907495,86.5424107 392.714048,86.5424107 C392.359397,86.5424107 392.069227,86.7042411 391.875781,86.9631696 L388.81288,89.7466518 Z"/>
    <path fill="#EA507E" d="M451.81288,89.7466518 C451.458229,90.1026786 450.942372,90.1674107 450.523238,89.9084821 C449.104631,89.0345982 447.718266,87.9341518 446.428624,86.6395089 C445.138981,85.3772321 444.075026,83.9854911 443.204518,82.5290179 C442.946589,82.1082589 443.011071,81.5904018 443.333482,81.234375 L446.396382,78.1919643 C446.62207,77.9654018 446.783275,77.6741071 446.783275,77.3504464 C446.783275,77.1238839 446.718793,76.9620536 446.62207,76.7678571 L442.688661,69.5825893 C442.495215,69.2265625 442.172804,69 441.75367,69 C440.012653,69.1618304 438.045949,69.7444196 436.917512,70.8772321 C432.91962,74.890625 435.402182,83.953125 442.237286,90.8470982 C446.815516,95.4430804 452.296496,98 456.649039,98 C458.776949,98 460.64693,97.3526786 461.968813,96.0256696 C463.129491,94.8928571 463.871036,93.1127232 464,91.3325893 C464,90.9118304 463.774313,90.5558036 463.419661,90.3616071 L456.262146,86.7366071 C456.262146,86.7366071 455.907495,86.5424107 455.714048,86.5424107 C455.359397,86.5424107 455.069227,86.7042411 454.875781,86.9631696 L451.81288,89.7466518 Z"/>
    <path fill="#FFFFFF" d="M358.739955,85.40625 C357.542411,86.3177083 356.021205,86.7083333 354.5,86.7083333 C352.978795,86.7083333 351.457589,86.3177083 350.260045,85.40625 L340,77.4960938 L340,92.0143229 C340,92.5351562 340.388393,92.9583333 340.873884,93.0234375 C345.372768,93.6744792 349.96875,94 354.5,94 C359.03125,94 363.627232,93.6744792 368.09375,93.0234375 C368.611607,92.9583333 369,92.5351562 369,92.0143229 L369,77.4960938 L358.739955,85.40625 Z M341.132812,74.2083333 L352.169643,82.6067708 C352.784598,83.0950521 353.626116,83.3229167 354.5,83.3229167 C355.373884,83.3229167 356.215402,83.0950521 356.830357,82.6067708 L367.867188,74.2083333 C368.643973,73.4596354 368.902902,72.8411458 369,72.4830729 L369,70.9856771 C369,70.4648438 368.611607,70.0416667 368.09375,69.9765625 C363.627232,69.3255208 359.063616,69 354.5,69 C349.936384,69 345.372768,69.3255208 340.873884,69.9765625 C340.388393,70.0416667 340,70.4648438 340,70.9856771 L340,72.4830729 C340.097098,72.8411458 340.356027,73.4596354 341.132812,74.2083333 L341.132812,74.2083333 Z"/>
    <path fill="#6D7483" d="M422.739955,85.40625 C421.542411,86.3177083 420.021205,86.7083333 418.5,86.7083333 C416.978795,86.7083333 415.457589,86.3177083 414.260045,85.40625 L404,77.4960938 L404,92.0143229 C404,92.5351562 404.388393,92.9583333 404.873884,93.0234375 C409.372768,93.6744792 413.96875,94 418.5,94 C423.03125,94 427.627232,93.6744792 432.09375,93.0234375 C432.611607,92.9583333 433,92.5351562 433,92.0143229 L433,77.4960938 L422.739955,85.40625 Z M405.132812,74.2083333 L416.169643,82.6067708 C416.784598,83.0950521 417.626116,83.3229167 418.5,83.3229167 C419.373884,83.3229167 420.215402,83.0950521 420.830357,82.6067708 L431.867188,74.2083333 C432.643973,73.4596354 432.902902,72.8411458 433,72.4830729 L433,70.9856771 C433,70.4648438 432.611607,70.0416667 432.09375,69.9765625 C427.627232,69.3255208 423.063616,69 418.5,69 C413.936384,69 409.372768,69.3255208 404.873884,69.9765625 C404.388393,70.0416667 404,70.4648438 404,70.9856771 L404,72.4830729 C404.097098,72.8411458 404.356027,73.4596354 405.132812,74.2083333 L405.132812,74.2083333 Z"/>
    <path fill="#EA507E" d="M485.739955,85.40625 C484.542411,86.3177083 483.021205,86.7083333 481.5,86.7083333 C479.978795,86.7083333 478.457589,86.3177083 477.260045,85.40625 L467,77.4960938 L467,92.0143229 C467,92.5351562 467.388393,92.9583333 467.873884,93.0234375 C472.372768,93.6744792 476.96875,94 481.5,94 C486.03125,94 490.627232,93.6744792 495.09375,93.0234375 C495.611607,92.9583333 496,92.5351562 496,92.0143229 L496,77.4960938 L485.739955,85.40625 Z M468.132812,74.2083333 L479.169643,82.6067708 C479.784598,83.0950521 480.626116,83.3229167 481.5,83.3229167 C482.373884,83.3229167 483.215402,83.0950521 483.830357,82.6067708 L494.867188,74.2083333 C495.643973,73.4596354 495.902902,72.8411458 496,72.4830729 L496,70.9856771 C496,70.4648438 495.611607,70.0416667 495.09375,69.9765625 C490.627232,69.3255208 486.063616,69 481.5,69 C476.936384,69 472.372768,69.3255208 467.873884,69.9765625 C467.388393,70.0416667 467,70.4648438 467,70.9856771 L467,72.4830729 C467.097098,72.8411458 467.356027,73.4596354 468.132812,74.2083333 L468.132812,74.2083333 Z"/>
    <path fill="#000000" d="M293.739955,85.40625 C292.542411,86.3177083 291.021205,86.7083333 289.5,86.7083333 C287.978795,86.7083333 286.457589,86.3177083 285.260045,85.40625 L275,77.4960938 L275,92.0143229 C275,92.5351562 275.388393,92.9583333 275.873884,93.0234375 C280.372768,93.6744792 284.96875,94 289.5,94 C294.03125,94 298.627232,93.6744792 303.09375,93.0234375 C303.611607,92.9583333 304,92.5351562 304,92.0143229 L304,77.4960938 L293.739955,85.40625 Z M276.132812,74.2083333 L287.169643,82.6067708 C287.784598,83.0950521 288.626116,83.3229167 289.5,83.3229167 C290.373884,83.3229167 291.215402,83.0950521 291.830357,82.6067708 L302.867188,74.2083333 C303.643973,73.4596354 303.902902,72.8411458 304,72.4830729 L304,70.9856771 C304,70.4648438 303.611607,70.0416667 303.09375,69.9765625 C298.627232,69.3255208 294.063616,69 289.5,69 C284.936384,69 280.372768,69.3255208 275.873884,69.9765625 C275.388393,70.0416667 275,70.4648438 275,70.9856771 L275,72.4830729 C275.097098,72.8411458 275.356027,73.4596354 276.132812,74.2083333 L276.132812,74.2083333 Z"/>
    <path fill="#FFFFFF" d="M10.047709 71.5729167L9.4548474 70.7333333C8.56555505 69.5145833 7.46067667 69 6.24800528 69 5.06228214 69 3.79571424 69.5145833 2.63693936 70.38125.238544834 72.0875-.893281797 74.5791667.831406402 76.9895833L1.42426797 77.8291667C3.22980093 74.6333333 6.35579829 72.3041667 10.047709 71.5729167L10.047709 71.5729167zM23.575732 77.8291667L24.1685936 76.9895833C25.8932818 74.5791667 24.7614552 72.0875 22.3630606 70.38125 21.1773375 69.5145833 19.9377179 69 18.7519947 69 17.5393233 69 16.4074967 69.5145833 15.5451526 70.7333333L14.952291 71.5729167C18.6442017 72.3041667 21.7701991 74.6333333 23.575732 77.8291667L23.575732 77.8291667zM23.2793012 84.1666667C23.2793012 78.18125 18.4555639 73.3333333 12.5 73.3333333L12.5 73.3333333C6.54443606 73.3333333 1.72069876 78.18125 1.72069876 84.1666667 1.72069876 90.1520833 6.54443606 95 12.5 95L12.5 95C18.4555639 95 23.2793012 90.1520833 23.2793012 84.1666667L23.2793012 84.1666667zM12.5 91.66875C10.5058293 91.66875 8.61945155 90.9104167 7.21814239 89.475 5.78988498 88.0666667 5.03533389 86.1708333 5.03533389 84.1666667 5.03533389 82.1625 5.78988498 80.2666667 7.21814239 78.8583333 8.61945155 77.45 10.5058293 76.6645833 12.5 76.6645833 14.4941707 76.6645833 16.3805484 77.45 17.7818576 78.8583333 19.1831668 80.2666667 19.9646661 82.1625 19.9646661 84.1666667 19.9646661 86.1708333 19.1831668 88.0666667 17.7818576 89.475 16.3805484 90.9104167 14.4941707 91.66875 12.5 91.66875L12.5 91.66875zM13.5779301 79.8333333C13.5509819 79.2916667 13.0928616 78.83125 12.5538965 78.8041667 11.9610349 78.7770833 11.4490181 79.2375 11.4220699 79.8333333L11.2334321 84.3020833 9.48179565 87.525C9.23926137 87.9854167 9.37400264 88.6083333 9.83212294 88.90625 10.3171915 89.2583333 10.9908978 89.1229167 11.3142769 88.6354167L13.6048784 85.33125C13.7396196 85.1416667 13.7935161 84.8979167 13.7935161 84.6541667L13.5779301 79.8333333zM53.0520833 76.3545259C52.8895833 75.5732759 52.1854167 75.0344828 51.3729167 75.0344828L47.9333333 75.0344828 47.9333333 71.2090517C47.9333333 70.3739224 47.3375 69.6734914 46.525 69.5118534 44.7104167 69.1616379 42.8416667 69 41 69 39.13125 69 37.2895833 69.1616379 35.475 69.5118534 34.6354167 69.6734914 34.0666667 70.3739224 34.0666667 71.2090517L34.0666667 75.0344828 30.6270833 75.0344828C29.8145833 75.0344828 29.1104167 75.5732759 28.9208333 76.3545259 28.325 78.9407328 28 81.5 28 84.0862069 28 86.6724138 28.325 89.231681 28.9208333 91.8987069 29.0833333 92.5991379 29.6520833 93.1109914 30.35625 93.21875 33.8770833 93.7306034 37.4520833 94 41 94 44.5479167 94 48.1229167 93.7306034 51.64375 93.21875 52.3479167 93.1109914 52.9166667 92.5991379 53.0791667 91.8987069 53.675 89.231681 54 86.6724138 54 84.0862069 54 81.5 53.675 78.9407328 53.0520833 76.3545259L53.0520833 76.3545259zM41.24375 85.487069L39.9979167 89.5010776C39.94375 89.7165948 39.78125 89.9051724 39.5916667 90.012931 39.45625 90.09375 39.3208333 90.1206897 39.1854167 90.1206897 39.0770833 90.1206897 38.9958333 90.09375 38.9145833 90.09375L32.1708333 88.0193966C31.7375 87.8846983 31.4666667 87.3997845 31.6020833 86.9418103L32.8479167 82.9008621C32.9291667 82.6853448 33.0916667 82.4967672 33.28125 82.3890086 33.4979167 82.28125 33.7145833 82.2543103 33.93125 82.3351293L40.675 84.4094828C41.1354167 84.544181 41.40625 85.0290948 41.24375 85.487069L41.24375 85.487069zM44.4666667 75.0344828L37.5333333 75.0344828 37.5333333 72.5829741C40.1333333 72.2866379 41.8666667 72.2866379 44.4666667 72.5829741L44.4666667 75.0344828zM47.9333333 84.5172414C46.4979167 84.5172414 45.3333333 83.3588362 45.3333333 81.9310345 45.3333333 80.5032328 46.4979167 79.3448276 47.9333333 79.3448276 49.36875 79.3448276 50.5333333 80.5032328 50.5333333 81.9310345 50.5333333 83.3588362 49.36875 84.5172414 47.9333333 84.5172414L47.9333333 84.5172414zM75.7684043 69C74.5709627 69 73.4007357 69.8333333 72.8020149 71.5 71.9311483 73.8177083 71.0330671 79 71.0330671 81.5 71.0330671 83.2447917 72.012792 84.1822917 73.1013753 84.5729167 72.6115128 87.0989583 72.1216503 89.7291667 72.1216503 91.5 72.1216503 93.1666667 73.3463065 94 75.0880398 94 76.829773 94 78 93.1666667 78 91.5L78 71.5C78 70.0416667 76.9930605 69 75.7684043 69L75.7684043 69zM68.4204672 77.3333333L67.5496006 70.5625C67.4951714 70.1458333 67.1141673 69.8333333 66.678734 69.8333333 66.1888715 69.8333333 65.8078674 70.1979167 65.8078674 70.6666667L65.8078674 76.5 64.0661341 76.5 64.0661341 70.6666667C64.0661341 70.1979167 63.68513 69.8333333 63.1952675 69.8333333 62.7054051 69.8333333 62.3244009 70.1979167 62.3244009 70.6666667L62.3244009 76.5 60.5826677 76.5 60.5826677 70.6666667C60.5826677 70.25 60.2833073 69.8854167 59.847874 69.8333333 59.3580115 69.78125 58.9225782 70.1197917 58.868149 70.5625L58.024497 77.359375C57.8884241 78.375 58.2422137 80.3541667 61.0725302 81.2916667 60.6643114 84.1302083 60.0655906 88.609375 60.0655906 91.34375 60.0655906 92.7239583 61.4807489 94 63.2224821 94 64.9642153 94 66.352159 92.7239583 66.352159 91.34375 66.352159 88.609375 65.7806528 84.1302083 65.3452195 81.2916667 68.0122485 80.4322917 68.5565401 78.53125 68.4204672 77.3333333L68.4204672 77.3333333zM101.883748 73.4124967C102.216888 73.4124967 102.577791 73.2748213 102.827646 73.0270056L104.604396 71.2647604C105.131868 70.7415939 105.131868 69.9155414 104.604396 69.3923749 104.076923 68.8692084 103.244072 68.8692084 102.716599 69.3923749L100.93985 71.1546201C100.412377 71.6777866 100.412377 72.503839 100.93985 73.0270056 101.189705 73.2748213 101.550607 73.4124967 101.883748 73.4124967L101.883748 73.4124967zM84.1162522 73.4124967C84.4493927 73.4124967 84.810295 73.2748213 85.0601504 73.0270056 85.5876229 72.503839 85.5876229 71.6777866 85.0601504 71.1546201L83.2834008 69.3923749C82.7559283 68.8692084 81.9230769 68.8692084 81.3956044 69.3923749 80.8681319 69.9155414 80.8681319 70.7415939 81.3956044 71.2647604L83.172354 73.0270056C83.4222094 73.2748213 83.7831116 73.4124967 84.1162522 73.4124967L84.1162522 73.4124967zM96.664546 87.9510193C96.6923077 87.6205984 96.7200694 87.4278528 96.7200694 87.4278528 96.9421631 86.0510988 97.5806825 85.0323008 98.9687681 83.3251258 100.329092 81.6179508 100.995373 80.2411967 100.995373 78.2586709 100.995373 73.9631983 97.4973973 70.3285676 93 70.3285676 88.5026027 70.3285676 85.004627 73.9631983 85.004627 78.2586709 85.004627 80.2411967 85.670908 81.6179508 87.0312319 83.3251258 88.3915558 85.0323008 89.0300752 86.0510988 89.2799306 87.4278528 89.2799306 87.4278528 89.2799306 87.6205984 89.3076923 87.9510193L96.664546 87.9510193zM103.660497 87.510458C103.993638 87.510458 104.35454 87.3727826 104.604396 87.1249669 105.131868 86.6018004 105.131868 85.7757479 104.604396 85.2525814L102.827646 83.4903362C102.300174 82.9671697 101.467322 82.9671697 100.93985 83.4903362 100.412377 84.0135028 100.412377 84.8395552 100.93985 85.3627217L102.716599 87.1249669C102.966455 87.3727826 103.327357 87.510458 103.660497 87.510458L103.660497 87.510458zM82.3395026 87.510458C82.6726431 87.510458 83.0335454 87.3727826 83.2834008 87.1249669L85.0601504 85.3627217C85.5876229 84.8395552 85.5876229 84.0135028 85.0601504 83.4903362 84.5326778 82.9671697 83.6998265 82.9671697 83.172354 83.4903362L81.3956044 85.2525814C80.8681319 85.7757479 80.8681319 86.6018004 81.3956044 87.1249669 81.6454598 87.3727826 82.0063621 87.510458 82.3395026 87.510458L82.3395026 87.510458zM93 95C94.8045113 95 95.4707924 94.0913423 95.9982649 92.3841673 96.1925969 91.7233254 96.3591671 90.6769923 96.470214 89.7132645L89.5020243 89.7132645C89.6130711 90.6769923 89.7796414 91.7233254 90.0017351 92.3841673 90.5014459 94.0913423 91.1954887 95 93 95L93 95zM111.423018 76.8C111.072631 74.60625 112.959334 73.30625 114.41479 73.30625 114.603461 73.30625 114.819084 73.3333333 115.06166 73.3875 115.519859 73.4958333 116.005011 73.3333333 116.301493 72.98125 117.083127 72.0875 118.242102 71.5729167 119.454983 71.5729167 121.745979 71.5729167 123.632682 73.3604167 123.632682 75.5270833 123.632682 76.2583333 123.578776 76.8 123.578776 76.8L126.03149 76.8C126.112349 76.39375 126.112349 75.9604167 126.112349 75.5270833 126.112349 71.925 123.174483 69 119.454983 69 117.75695 69 116.112823 69.6229167 114.899943 70.7333333 111.369113 70.4354167 108.619917 73.4145833 108.889446 76.8L111.423018 76.8zM122.608472 95C123.309247 95 123.929164 94.59375 124.198693 93.94375 124.333458 93.61875 124.441269 93.29375 124.576034 92.9416667 128.672875 92.4 132.742763 89.55625 132.985339 85.2229167 133.09315 83.2458333 132.607998 81.6479167 131.475976 80.45625 130.20919 79.1020833 128.241628 78.5333333 126.112349 78.5333333L117.487421 78.5333333 117.487421 81.1333333C117.487421 83.7333333 118.349914 84.6 118.349914 86.3333333 118.349914 90.0166667 113.174957 90.0166667 113.174957 86.3333333 113.174957 84.6 114.03745 83.7333333 114.03745 81.1333333L114.03745 78.5333333 110.156232 78.5333333C109.347645 78.5333333 108.619917 79.075 108.458199 79.8604167 108.215623 80.94375 108 82.0541667 108 83.1645833 108 86.3333333 108.404294 90.36875 109.913656 93.94375 110.183185 94.59375 110.803102 95 111.503877 95L122.608472 95zM125.627197 89.15C126.193208 86.3604167 126.193208 83.9770833 125.950632 81.8916667 127.540853 81.8375 129.804896 82 129.643179 85.0333333 129.535367 87.0916667 127.567806 88.4729167 125.627197 89.15L125.627197 89.15zM153.193533 75.0719872C153.274823 74.7195951 153.30192 74.5569525 153.30192 74.1774533 153.30192 71.3041023 150.971593 69 148.09933 69 145.227067 69 142.89674 71.3041023 142.89674 74.1774533 142.89674 74.5569525 142.950934 74.7467021 143.005127 75.0719872 146.338037 73.6353116 150.077398 73.7166329 153.193533 75.0719872L153.193533 75.0719872zM161.674838 81.984294C161.647741 81.9571869 158.50451 79.2193713 157.637412 74.0419179 157.583218 73.6895258 157.285153 73.3913479 156.932894 73.3371337 156.553539 73.2829195 156.20128 73.445562 156.011602 73.7708471L153.952244 77.565839C152.326434 76.5357698 150.294173 75.9123068 148.126427 75.9123068 144.847711 75.9123068 141.948351 77.2947682 140.187058 79.4091209 140.322542 78.4332658 139.672218 78.0537666 139.40125 77.864017 138.534152 77.3218753 137.423182 77.565839 136.881245 78.4061587 135.797373 80.0596909 135.688985 82.3909003 136.691568 83.88179 137.287698 84.7492167 137.883828 85.1016088 138.534152 85.3726797 138.80512 86.8906765 139.536734 88.2731378 140.620607 89.3845283L139.834799 92.0952369C139.563831 93.0168778 140.132864 93.9927329 141.054156 94.2638037L143.628354 94.9414809C144.468356 95.1583376 145.335454 94.7246242 145.660616 93.9385187 145.687713 93.8571975 146.148359 92.2307723 146.148359 92.2307723 146.717392 92.3392007 147.394813 92.3934148 148.09933 92.3934148 148.966428 92.4205219 149.914817 92.3120936 150.9174 92.0681298 150.9174 92.0681298 151.350949 93.721662 151.350949 93.7487691 151.621917 94.6433029 152.543209 95.1854447 153.437404 94.9414809L155.984505 94.2909108C156.932894 94.0740541 157.474831 93.0981991 157.258056 92.1765582L156.770313 90.4145976C156.905797 90.3603834 157.068378 90.3061692 157.203862 90.224848 160.780643 88.5713158 161.837419 86.1316781 161.91871 85.9961426 161.945806 85.8877143 162 85.7521789 162 85.6437505L162 82.634864C162 82.3909003 161.864516 82.1469365 161.674838 81.984294L161.674838 81.984294zM156.905797 82.8517207C156.905797 83.88179 156.092893 84.6950025 155.09031 84.6950025 154.087728 84.6950025 153.247726 83.88179 153.247726 82.8517207 153.247726 81.8487586 154.087728 81.035546 155.09031 81.035546 156.092893 81.035546 156.905797 81.8487586 156.905797 82.8517207L156.905797 82.8517207zM193.60625 69.1012433C193.064583 68.9662522 192.46875 68.9662522 191.927083 69.1012433 191.141667 69.2902309 190.6 69.9651865 190.6 70.7751332L190.6 72.5030195C190.220833 72.4760213 189.841667 72.4490231 189.4625 72.5300178 188.622917 72.6650089 188 73.3669627 188 74.2309059L188 82.8433393C188 83.7072824 188.622917 84.3552398 189.4625 84.4632327 189.70625 84.5172291 189.922917 84.5442274 190.166667 84.5442274 190.302083 84.5442274 190.464583 84.5172291 190.6 84.4902309L190.6 86.2991119C190.6 87.1090586 191.141667 87.7030195 191.927083 87.8920071 192.197917 87.9730018 192.495833 88 192.766667 88 193.0375 88 193.335417 87.9730018 193.60625 87.8920071 194.391667 87.7030195 194.933333 87.1090586 194.933333 86.2991119L194.933333 70.7751332C194.933333 69.9651865 194.391667 69.2902309 193.60625 69.1012433L193.60625 69.1012433zM196.666667 81.0884547L205.333333 81.0884547 205.333333 75.9047957 196.666667 75.9047957 196.666667 81.0884547zM210.072917 87.8920071C210.858333 87.7030195 211.4 87.1090586 211.4 86.2991119L211.4 84.4902309C211.535417 84.5172291 211.697917 84.5442274 211.833333 84.5442274 212.077083 84.5442274 212.29375 84.5172291 212.5375 84.4632327 213.377083 84.3552398 214 83.7072824 214 82.8433393L214 74.2309059C214 73.3669627 213.377083 72.6650089 212.5375 72.5300178 212.158333 72.4490231 211.779167 72.4760213 211.4 72.5030195L211.4 70.7751332C211.4 69.9651865 210.858333 69.2902309 210.072917 69.1012433 209.53125 68.9662522 208.935417 68.9662522 208.39375 69.1012433 207.608333 69.2902309 207.066667 69.9651865 207.066667 70.7751332L207.066667 86.2991119C207.066667 87.1090586 207.608333 87.7030195 208.39375 87.8920071 208.664583 87.9730018 208.9625 88 209.233333 88 209.504167 88 209.802083 87.9730018 210.072917 87.8920071L210.072917 87.8920071zM174.5 73.3120072C173.174732 72.0006402 172.155295 70.9918964 171.849464 70.6892732 170.116421 68.9744087 167.567828 68.8735343 165.732841 69.1761575 163.693967 69.4787806 163.693967 70.7901476 164.509517 71.5971427L170.422252 77.3469826C169.096984 78.5574753 167.975603 79.6670935 167.363941 80.2723398 166.446447 81.1802093 165.019236 82.7941994 164.917292 84.509064 164.713404 87.4344211 167.05811 92.5790148 169.81059 94.0921305 171.135858 94.7982512 173.072788 95 174.5 95 175.927212 95 177.864142 94.6973768 179.18941 94.0921305 181.94189 92.5790148 184.286596 87.5352955 184.082708 84.509064 183.980764 82.7941994 182.451609 81.0793349 181.636059 80.2723398 181.330228 79.9697167 180.922453 79.5662191 180.514679 79.1627216L176.43693 83.2985714 178.577748 85.4169334C179.597185 86.4256773 179.18941 87.6361699 179.18941 88.3422906 179.18941 88.3422906 177.048593 89.0484113 174.5 89.0484113 171.951407 89.0484113 169.81059 88.3422906 169.81059 88.3422906 169.81059 87.6361699 169.402815 86.4256773 170.422252 85.4169334 171.74752 84.1055664 183.674933 72.3032634 184.490483 71.4962683 185.306033 70.6892732 185.306033 69.4787806 183.267159 69.0752831 181.432172 68.8735343 178.883579 68.9744087 177.150536 70.6892732 176.844705 70.9918964 175.825268 72.0006402 174.5 73.3120072z"/>
    <g fill="#FFFFFF">
      <path d="M8.48538908 10.8343836C8.19396051 10.0180282 7.58168409 9.58042689 6.61933798 9.58042689 5.65699187 9.58042689 4.7238676 9.98880209 4.02412311 10.7178743L4.02412311 17.9795673C4.54912892 18.4171686 5.39458769 18.8545724 6.18180023 18.8545724 8.10649245 18.8545724 8.8646806 17.5421635 8.8646806 14.1300189 8.8646806 12.7009032 8.74799071 11.5636533 8.48538908 10.8343836L8.48538908 10.8343836zM11.0515796 20.254462C10.0309872 21.3336547 8.68954704 21.94602 7.05687573 21.94602 5.89037166 21.94602 4.78231127 21.6543517 3.93665505 21.1584957 3.99490128 21.5086162 3.99490128 21.94602 3.99490128 22.3834238L3.99490128 27.0495252.233182346 28.0412371.233182346 10.7761289C.233182346 8.82212865.204157956 8.268018 0 7.01406127L3.47009292 6.40149848C3.61600465 6.92658051 3.70347271 7.33475824 3.7324971 7.80138812 4.40321719 6.9848352 5.89037166 6.40149848 7.40655052 6.40149848 8.45636469 6.40149848 9.5354007 6.75161899 10.3516376 7.30572964 11.9556794 8.38472484 13.1219861 10.3094991 13.1219861 13.7508698 13.1219861 16.9590242 12.5971777 18.5921301 11.0515796 20.254462L11.0515796 20.254462zM23.4444019 12.3509801C23.4444019 11.2427588 23.327712 10.6596196 22.9776423 10.1053115 22.5987456 9.52217221 22.0447154 9.23050385 21.2573055 9.23050385 19.7703484 9.23050385 18.9246922 10.3969798 18.9246922 12.4676869L18.9246922 12.5261391 23.4444019 12.5261391 23.4444019 12.3509801 23.4444019 12.3509801zM18.8662485 15.3841731L18.8662485 15.5006824C18.8662485 17.8048033 20.0035308 19.1170147 22.0154936 19.1170147 23.3569338 19.1170147 24.6107085 18.6213562 25.8064344 17.6298417L27.3226132 19.9627937C25.6022764 21.3626833 23.7942741 22.0335008 21.6948432 22.0335008 17.4083159 22.0335008 14.6381649 19.0005053 14.6381649 14.3049804 14.6381649 11.6219079 15.1921951 9.84286917 16.504216 8.38472484 17.7289663 7.01406127 19.2161208 6.37246987 21.1990592 6.37246987 22.9195935 6.37246987 24.5524623 6.95560912 25.5148084 7.94732104 26.8852729 9.34721069 27.4975494 11.3594657 27.4975494 14.4799419L27.4975494 15.3841731 18.8662485 15.3841731 18.8662485 15.3841731zM38.0999419 11.4469464C37.8083159 10.1637636 36.9916841 9.55139829 35.9710918 9.55139829 34.9506969 9.55139829 34.2507549 10.1927922 33.754971 10.7471003L33.754971 17.6298417C34.2799768 18.0964716 34.8922532 18.5921301 35.9420674 18.5921301 36.904216 18.5921301 37.5166899 18.212981 37.8373403 17.4256541 38.18741 16.6089037 38.2746806 15.8215769 38.2746806 13.9842834 38.2746806 12.6426485 38.2456562 12.0885378 38.0999419 11.4469464L38.0999419 11.4469464zM39.9367712 20.750318C38.9163763 21.5668709 37.895784 21.916794 36.6710337 21.916794 35.213101 21.916794 34.1923113 21.4793902 33.3468525 20.5461304 33.2301626 21.0712124 33.2011382 21.2169479 32.9385366 21.6251256L29.4394193 21.6251256C29.7308479 20.9543081 29.8183159 20.5169043 29.8183159 18.4461972L29.8183159 4.62245971C29.8183159 2.78516626 29.7602671 1.79365181 29.5561092.947872804L33.550813.0146130391C33.6675029 1.03535356 33.6969222 1.64771889 33.6969222 2.66865689L33.6969222 6.19731088C33.6969222 6.63491215 33.6675029 7.27650356 33.6092567 7.50971976 34.3674448 6.69316684 35.4170616 6.31401771 36.7877236 6.31401771 40.4325552 6.31401771 42.7071196 9.23050385 42.7071196 13.8968027 42.7071196 16.9297982 41.7739954 19.2921737 39.9367712 20.750318L39.9367712 20.750318zM53.4435772 11.4469464C53.1521487 10.1637636 52.3355168 9.55139829 51.3149245 9.55139829 50.2943322 9.55139829 49.5945877 10.1927922 49.0988037 10.7471003L49.0988037 17.6298417C49.6238095 18.0964716 50.2360859 18.5921301 51.2859001 18.5921301 52.2480488 18.5921301 52.8605226 18.212981 53.1811731 17.4256541 53.5310453 16.6089037 53.6185134 15.8215769 53.6185134 13.9842834 53.6185134 12.6426485 53.589489 12.0885378 53.4435772 11.4469464L53.4435772 11.4469464zM55.2806039 20.750318C54.2600116 21.5668709 53.2394193 21.916794 52.0148664 21.916794 50.5569338 21.916794 49.536144 21.4793902 48.6906852 20.5461304 48.5739954 21.0712124 48.5447735 21.2169479 48.2823693 21.6251256L44.7830546 21.6251256C45.0746806 20.9543081 45.1621487 20.5169043 45.1621487 18.4461972L45.1621487 4.62245971C45.1621487 2.78516626 45.1039024 1.79365181 44.8997445.947872804L48.8946458.0146130391C49.0113357 1.03535356 49.0405575 1.64771889 49.0405575 2.66865689L49.0405575 6.19731088C49.0405575 6.63491215 49.0113357 7.27650356 48.952892 7.50971976 49.7112776 6.69316684 50.7608943 6.31401771 52.1315563 6.31401771 55.7763879 6.31401771 58.0509524 9.23050385 58.0509524 13.8968027 58.0509524 16.9297982 57.1178281 19.2921737 55.2806039 20.750318L55.2806039 20.750318zM64.2939605 21.9752461C62.6318699 21.9752461 61.2904297 21.1877218 60.8236702 19.9337651 60.5322416 19.1754668 60.4737979 18.7088369 60.4737979 16.5796777L60.4737979 5.43921011C60.4737979 3.48520982 60.4157491 2.28931029 60.2698374.947872804L64.2645412.0438391172C64.410453.860392043 64.4686992 1.82268041 64.4686992 3.92261362L64.4686992 15.5591346C64.4686992 18.1255002 64.4981185 18.4754233 64.7313008 18.8837985 64.8770151 19.1462407 65.1976655 19.2921737 65.5187108 19.2921737 65.6644251 19.2921737 65.7518931 19.2921737 65.9560511 19.2337215L66.6265738 21.5668709C65.9560511 21.8293132 65.1394193 21.9752461 64.2939605 21.9752461M75.8436934 12.3509801C75.8436934 11.2427588 75.7270035 10.6596196 75.3769338 10.1053115 74.9980372 9.52217221 74.4438095 9.23050385 73.656597 9.23050385 72.16964 9.23050385 71.3237863 10.3969798 71.3237863 12.4676869L71.3237863 12.5261391 75.8436934 12.5261391 75.8436934 12.3509801 75.8436934 12.3509801zM71.2655401 15.3841731L71.2655401 15.5006824C71.2655401 17.8048033 72.4028223 19.1170147 74.4147851 19.1170147 75.7562253 19.1170147 77.01 18.6213562 78.2055285 17.6298417L79.7219048 19.9627937C78.0015679 21.3626833 76.1935656 22.0335008 74.0941347 22.0335008 69.8076074 22.0335008 67.037259 19.0005053 67.037259 14.3049804 67.037259 11.6219079 67.5914866 9.84286917 68.9035075 8.38472484 70.1282578 7.01406127 71.6154123 6.37246987 73.5983508 6.37246987 75.318885 6.37246987 76.9515563 6.95560912 77.9140999 7.94732104 79.2845645 9.34721069 79.8968409 11.3594657 79.8968409 14.4799419L79.8968409 15.3841731 71.2655401 15.3841731 71.2655401 15.3841731zM98.0339257 27.1470771C95.9637166 27.1470771 94.2724042 25.9219515 94.2724042 22.888956L94.2724042 17.8727341C94.2724042 16.0646668 91.851928 15.8604792 91.1229617 15.8604792L91.1229617 12.5358153C91.851928 12.5358153 94.2724042 12.3316277 94.2724042 10.5235603L94.2724042 5.47811239C94.2724042 2.44511689 95.8760511 1.24921737 98.0339257 1.24921737L101.095703 1.24921737 101.095703 4.57388123 99.6667944 4.57388123C97.8880139 4.57388123 97.7715215 5.65307391 97.7715215 6.44040076L97.7715215 11.1359257C97.7715215 13.8480267 96.0802091 14.0522143 94.8554588 14.1689212L94.8554588 14.2273733C96.0802091 14.3146566 97.7715215 14.5188442 97.7715215 17.2311427L97.7715215 21.9556962C97.7715215 22.7432206 97.8880139 23.8222158 99.6667944 23.8222158L101.095703 23.8222158 101.095703 27.1470771 98.0339257 27.1470771M112.059617 21.0419864C111.009803 21.6543517 109.843496 21.9752461 108.414588 21.9752461 104.303194 21.9752461 101.91194 19.1170147 101.91194 14.2757543 101.91194 10.8343836 103.224355 8.55968637 104.973717 7.36398432 105.965285 6.69316684 107.423217 6.25576303 108.677189 6.25576303 109.668362 6.25576303 110.747398 6.48897924 111.56403 6.92658051 112.117863 7.21824887 112.380267 7.422239 113.021963 7.97634964L111.126492 10.5429127C110.33928 9.81384057 109.493624 9.37623929 108.764657 9.37623929 107.014901 9.37623929 106.227491 10.8928358 106.227491 14.3926586 106.227491 16.3464614 106.490093 17.5129374 106.985877 18.1547263 107.394193 18.6796109 108.064715 19.0005053 108.735238 19.0005053 109.639338 19.0005053 110.455772 18.6213562 111.418118 17.7755772L111.651301 17.5713896 113.430081 19.9337651C112.847027 20.5169043 112.584425 20.7210919 112.059617 21.0419864M122.9564 10.0762829C122.577503 9.58042689 121.965029 9.28875853 121.265285 9.28875853 120.331963 9.28875853 119.573972 9.87209525 119.253124 10.805355 118.99072 11.5928793 118.845006 12.6426485 118.845006 14.1300189 118.845006 15.850803 119.019744 17.1339858 119.34079 17.892284 119.690662 18.7088369 120.565343 19.1170147 121.323531 19.1170147 123.014843 19.1170147 123.74381 17.6006157 123.74381 14.0717642 123.74381 12.0593117 123.481208 10.7471003 122.9564 10.0762829L122.9564 10.0762829zM126.134866 19.8753129C124.997782 21.1584957 123.510627 21.94602 121.207038 21.94602 117.153693 21.94602 114.500035 18.9128271 114.500035 14.2174996 114.500035 9.52217221 117.182915 6.40149848 121.207038 6.40149848 123.335494 6.40149848 124.997782 7.13057064 126.280581 8.64716713 127.476307 10.0470568 128.001115 11.6801626 128.001115 14.1007928 128.001115 16.6673559 127.417863 18.4171686 126.134866 19.8753129L126.134866 19.8753129zM139.131475 10.6303935C138.402509 9.98880209 137.702764 9.66790765 137.002822 9.66790765 135.253264 9.66790765 134.495075 11.126052 134.495075 14.4509133 134.495075 17.6588703 135.165796 18.7088369 137.20698 18.7088369 137.935947 18.7088369 138.752381 18.212981 139.131475 17.7463511L139.131475 10.6303935 139.131475 10.6303935zM140.006353 21.6251256C139.889663 21.3919094 139.831417 21.1584957 139.772973 20.750318 138.810825 21.596097 137.673542 22.0044722 136.332102 22.0044722 132.541556 22.0044722 130.150302 19.05876 130.150302 14.4216872 130.150302 9.75538841 132.745517 6.54743139 136.53626 6.54743139 137.615099 6.54743139 138.460755 6.80987368 139.189721 7.39301292 139.131475 7.07231596 139.073229 6.05157543 139.073229 5.17676782L139.073229.0438391172 142.951638.656204443 142.951638 16.1714999C142.951638 19.8460868 143.243066 21.0419864 143.50547 21.6251256L140.006353 21.6251256 140.006353 21.6251256zM154.740279 12.3509801C154.740279 11.2427588 154.623589 10.6596196 154.273717 10.1053115 153.894623 9.52217221 153.340592 9.23050385 152.553182 9.23050385 151.066225 9.23050385 150.220569 10.3969798 150.220569 12.4676869L150.220569 12.5261391 154.740279 12.5261391 154.740279 12.3509801 154.740279 12.3509801zM150.162125 15.3841731L150.162125 15.5006824C150.162125 17.8048033 151.299408 19.1170147 153.311568 19.1170147 154.652811 19.1170147 155.906585 18.6213562 157.102311 17.6298417L158.618688 19.9627937C156.898153 21.3626833 155.090348 22.0335008 152.990918 22.0335008 148.704193 22.0335008 145.934042 19.0005053 145.934042 14.3049804 145.934042 11.6219079 146.488072 9.84286917 147.80029 8.38472484 149.024843 7.01406127 150.512195 6.37246987 152.495134 6.37246987 154.21547 6.37246987 155.848339 6.95560912 156.810685 7.94732104 158.18115 9.34721069 158.793426 11.3594657 158.793426 14.4799419L158.793426 15.3841731 150.162125 15.3841731 150.162125 15.3841731zM166.754007 17.8727341L166.754007 22.9181821C166.754007 25.9513751 165.150163 27.1470771 162.992288 27.1470771L159.930511 27.1470771 159.930511 23.8222158 161.359419 23.8222158C163.1382 23.8222158 163.254692 22.7432206 163.254692 21.9556962L163.254692 17.2603688C163.254692 14.5480703 164.946005 14.3438827 166.170755 14.2273733L166.170755 14.1689212C164.946005 14.0814404 163.254692 13.8772528 163.254692 11.1649543L163.254692 6.44040076C163.254692 5.65307391 163.1382 4.57388123 161.359419 4.57388123L159.930511 4.57388123 159.930511 1.24921737 163.079756 1.24921737C165.062695 1.24921737 166.754007 2.47414549 166.754007 5.50714099L166.754007 10.5235603C166.754007 12.3316277 169.086818 12.5358153 169.903252 12.5358153L169.903252 15.8604792C169.086818 15.8604792 166.754007 16.0646668 166.754007 17.8727341"/>
    </g>
    <path fill="#6B7482" d="M303.179262,33.0702988 L308.932045,38.8172232 C308.978911,38.8679948 309.002343,38.9285292 309.002343,38.9988284 C309.002343,39.0691275 308.978911,39.1296619 308.932045,39.1804335 L303.179262,44.9273579 C303.132396,44.9781295 303.072838,45.0035149 303.000586,45.0035149 C302.928334,45.0035149 302.868776,44.9781295 302.82191,44.9273579 L301.070299,43.1757469 C301.023433,43.1288808 301,43.0693228 301,42.9970709 C301,42.924819 301.023433,42.8652609 301.070299,42.8183948 L304.889865,38.9988284 L301.070299,35.1792619 C301.023433,35.1323958 301,35.0728377 301,35.0005858 C301,34.9283339 301.023433,34.8687759 301.070299,34.8219098 L302.82191,33.0702988 C302.880492,33.0234327 302.941027,33 303.003515,33 C303.062098,33 303.120679,33.0234327 303.179262,33.0702988 Z"/>
    <path fill="#FFFFFF" d="M312.181605,33.0702988 L317.934388,38.8172232 C317.981254,38.8679948 318.004687,38.9285292 318.004687,38.9988284 C318.004687,39.0691275 317.981254,39.1296619 317.934388,39.1804335 L312.181605,44.9273579 C312.134739,44.9781295 312.075181,45.0035149 312.002929,45.0035149 C311.930677,45.0035149 311.871119,44.9781295 311.824253,44.9273579 L310.072642,43.1757469 C310.025776,43.1288808 310.002343,43.0693228 310.002343,42.9970709 C310.002343,42.924819 310.025776,42.8652609 310.072642,42.8183948 L313.892209,38.9988284 L310.072642,35.1792619 C310.025776,35.1323958 310.002343,35.0728377 310.002343,35.0005858 C310.002343,34.9283339 310.025776,34.8687759 310.072642,34.8219098 L311.824253,33.0702988 C311.882836,33.0234327 311.94337,33 312.005858,33 C312.064441,33 312.123023,33.0234327 312.181605,33.0702988 Z"/>
    <path fill="#EA507E" d="M321.179262,33.0702988 L326.932045,38.8172232 C326.978911,38.8679948 327.002343,38.9285292 327.002343,38.9988284 C327.002343,39.0691275 326.978911,39.1296619 326.932045,39.1804335 L321.179262,44.9273579 C321.132396,44.9781295 321.072838,45.0035149 321.000586,45.0035149 C320.928334,45.0035149 320.868776,44.9781295 320.82191,44.9273579 L319.070299,43.1757469 C319.023433,43.1288808 319,43.0693228 319,42.9970709 C319,42.924819 319.023433,42.8652609 319.070299,42.8183948 L322.889865,38.9988284 L319.070299,35.1792619 C319.023433,35.1323958 319,35.0728377 319,35.0005858 C319,34.9283339 319.023433,34.8687759 319.070299,34.8219098 L320.82191,33.0702988 C320.880492,33.0234327 320.941027,33 321.003515,33 C321.062098,33 321.120679,33.0234327 321.179262,33.0702988 Z"/>
    <path fill="#6B7482" d="M527,85 C527,85.7733372 526.708336,86.4133308 526.125,86.92 C518.621175,92.9733636 510.945115,97.599984 503.096591,100.8 C502.751892,100.933334 502.420456,101 502.102273,101 C501.624998,101 501.187502,100.880001 500.789773,100.64 C500.047345,100.186664 499.649621,99.5466708 499.596591,98.72 C499.570076,98.5066656 499.510417,97.8200058 499.417614,96.66 C499.32481,95.4999942 499.232008,93.786678 499.139205,91.52 C499.046401,89.253322 499,87.0800104 499,85 C499,82.9199896 499.046401,80.7533446 499.139205,78.5 C499.232008,76.2466554 499.32481,74.5266726 499.417614,73.34 C499.510417,72.1533274 499.570076,71.4800008 499.596591,71.32 C499.649621,70.4933292 500.047345,69.8400024 500.789773,69.36 C501.187502,69.1199988 501.624998,69 502.102273,69 C502.420456,69 502.751892,69.066666 503.096591,69.2 C505.482966,70.1866716 507.90245,71.3333268 510.355114,72.64 C512.807777,73.9466732 514.895825,75.1533278 516.619318,76.26 C518.342812,77.3666722 519.973477,78.4733278 521.511364,79.58 C523.04925,80.6866722 524.149618,81.4999974 524.8125,82.02 C525.475382,82.5400026 525.912878,82.9066656 526.125,83.12 C526.708336,83.5733356 527,84.199996 527,85 Z"/>
    <path fill="#EA507E" d="M559,85 C559,85.7733372 558.708336,86.4133308 558.125,86.92 C550.621175,92.9733636 542.945115,97.599984 535.096591,100.8 C534.751892,100.933334 534.420456,101 534.102273,101 C533.624998,101 533.187502,100.880001 532.789773,100.64 C532.047345,100.186664 531.649621,99.5466708 531.596591,98.72 C531.570076,98.5066656 531.510417,97.8200058 531.417614,96.66 C531.32481,95.4999942 531.232008,93.786678 531.139205,91.52 C531.046401,89.253322 531,87.0800104 531,85 C531,82.9199896 531.046401,80.7533446 531.139205,78.5 C531.232008,76.2466554 531.32481,74.5266726 531.417614,73.34 C531.510417,72.1533274 531.570076,71.4800008 531.596591,71.32 C531.649621,70.4933292 532.047345,69.8400024 532.789773,69.36 C533.187502,69.1199988 533.624998,69 534.102273,69 C534.420456,69 534.751892,69.066666 535.096591,69.2 C537.482966,70.1866716 539.90245,71.3333268 542.355114,72.64 C544.807777,73.9466732 546.895825,75.1533278 548.619318,76.26 C550.342812,77.3666722 551.973477,78.4733278 553.511364,79.58 C555.04925,80.6866722 556.149618,81.4999974 556.8125,82.02 C557.475382,82.5400026 557.912878,82.9066656 558.125,83.12 C558.708336,83.5733356 559,84.199996 559,85 Z"/>
  </g>
</svg>
