<?xml version="1.0" encoding="utf-8"?>
<!-- Generator: Adobe Illustrator 17.1.0, SVG Export Plug-In . SVG Version: 6.00 Build 0)  -->
<!DOCTYPE svg PUBLIC "-//W3C//DTD SVG 1.1//EN" "http://www.w3.org/Graphics/SVG/1.1/DTD/svg11.dtd">
<svg version="1.1" id="Layer_1" xmlns="http://www.w3.org/2000/svg" xmlns:xlink="http://www.w3.org/1999/xlink" x="0px" y="0px"
	 viewBox="0 0 330 387" enable-background="new 0 0 330 387" xml:space="preserve">
<g>
	<g>
		<path fill="#808080" d="M173,213.1c0,0,9.7-26,19.8-51.8l69.5-12.5c0,0,27.1,35,33,41.4c0,0,16.4,106.3,27.5,171.7l-121.4,18.9
			c-12-75.1-17.3-107.6-28.1-167.1"/>
		<g>
			<path fill="#808080" d="M175.4,213.8c6.5-17.3,13.1-34.6,19.8-51.8c-0.6,0.6-1.2,1.2-1.7,1.7c23.2-4.2,46.3-8.3,69.5-12.5
				c-0.8-0.2-1.6-0.4-2.4-0.6c8.3,10.7,16.7,21.4,25.2,32c2,2.5,4.1,5,6.2,7.5c0.7,0.8,1.2,2.3,1,0.8c0,0.3,0.1,0.6,0.1,0.9
				c0.6,3.9,1.2,7.8,1.8,11.7c6.3,40.7,12.7,81.5,19.4,122.2c2,12.3,4,24.5,6.1,36.8c0.6-1,1.2-2.1,1.7-3.1
				c-40.4,6.3-80.9,12.6-121.3,18.9c1,0.6,2.1,1.2,3.1,1.7c-8.9-55.8-18-111.5-28.1-167.1c-0.6-3.2-5.4-1.8-4.8,1.3
				c10,55.6,19.2,111.3,28.1,167.1c0.2,1.5,1.9,1.9,3.1,1.7c40.4-6.3,80.9-12.6,121.3-18.9c1.4-0.2,2-1.9,1.7-3.1
				c-7.5-44.1-14.5-88.5-21.5-133c-1.9-12.3-3.8-24.5-5.7-36.8c-0.5-3.3-3.2-5.4-5.3-8c-5.4-6.6-10.7-13.3-16-20
				c-4.2-5.4-8.4-10.8-12.6-16.2c-0.6-0.7-1.6-0.8-2.4-0.6c-18.6,3.3-37.3,6.7-55.9,10c-3.8,0.7-7.6,1.4-11.5,2.1
				c-4.8,0.9-5,5.1-6.7,9.5c-5.8,14.8-11.4,29.6-17,44.4C169.4,215.5,174.3,216.8,175.4,213.8L175.4,213.8z"/>
		</g>
	</g>
	<g>
		<path fill="#FFFFFF" d="M93.7,160.1c0,0,23.4-14.4,47-28.3c0,0,57.4,27.9,58.1,32c0.6,4.1,4.7,44.9,5.7,53.5
			c0,0-48.9,89.8-78.9,147.7L7.2,303.7C19.9,282.9,81.5,184,93.7,160.9"/>
		<g>
			<path fill="#FFFFFF" d="M94.9,162.3c15.6-9.6,31.3-19,47-28.3c-0.8,0-1.7,0-2.5,0c10.3,5,20.5,10.1,30.6,15.4
				c6.8,3.5,13.5,7.1,20.1,11c1.9,1.1,3.9,2.3,5.6,3.7c0.5,0.4,0.9,1.3,0.6,0.4c0.2,0.7,0.2,1.8,0.3,2.6c1.8,16,3.3,32.1,5.1,48.2
				c0.1,1.1-0.1,2,0.5,0.9c-0.1,0.3-0.3,0.5-0.4,0.8c-0.8,1.4-1.5,2.8-2.3,4.2c-3,5.5-6,11-8.9,16.5c-22.7,41.9-45.3,83.8-67.2,126
				c1.1-0.3,2.3-0.6,3.4-0.9c-39.5-20.4-79-40.9-118.4-61.3l0,0c0.3,1.1,0.6,2.3,0.9,3.4c14.2-23.4,28.8-46.7,43.1-70
				c14.7-24,30.2-47.9,43.4-72.8c1.5-2.8-2.8-5.4-4.3-2.5c-13,24.6-28.2,48.1-42.7,71.7C34.3,255,19.5,278.6,5.1,302.4
				c-0.7,1.1-0.3,2.8,0.9,3.4c39.5,20.4,79,40.9,118.4,61.3l0,0c1.2,0.6,2.8,0.4,3.4-0.9c20.8-40.2,42.3-80,63.8-119.8
				c5-9.2,10-18.5,15-27.7c0.8-1.4,0.2-3.2,0.1-4.8c-0.4-3.9-0.8-7.8-1.2-11.7c-0.9-9.1-1.9-18.2-2.8-27.3
				c-0.4-3.8-0.3-8.2-1.4-11.9c-0.8-2.8-5-4.8-7.3-6.2c-10.8-6.7-22.3-12.4-33.7-18.1c-4.6-2.3-9.3-4.7-13.9-7
				c-3.3-1.6-5-3.2-8.5-1.1c-15.2,9-30.3,18.1-45.4,27.3C89.7,159.7,92.2,164,94.9,162.3L94.9,162.3z"/>
		</g>
	</g>
	<g>
		<g>
			<g>
				<path fill="#F7AC40" d="M97.7,215c-3.4-4-8.9-6.6-11.8-0.6c-3,6.2,1,12.9,0,19.3c-0.5,3.5-4.1,4.9-7.2,4.7
					c-1.3-0.1-2.5-0.4-3.7-0.7c-0.6-0.2-1.2-0.4-1.7-0.7c-1-0.5-0.7,0.3,0.3-0.5c3.6-3,9.7,10.3,10.5,12.7c1,3,5.9,1.7,4.8-1.3
					c-1.9-5.6-6-14.5-12.1-16.4c-5.1-1.6-12.7,4.7-7.1,9.1c5.4,4.3,13.8,3.7,18.6-0.8c2.9-2.7,3-7.2,2.6-10.9
					c-0.3-2.4-0.7-4.7-1-7.1c-0.1-1.5,0-2.9,0.3-4.4c0.7-3.2,3,0,4,1.2C96.3,221,99.8,217.5,97.7,215L97.7,215z"/>
			</g>
		</g>
		<g>
			<g>
				<path fill="#F7AC40" d="M76.9,226.1c6.4,3.3,12.7,6.6,19.1,9.9c2.9,1.5,5.4-2.8,2.5-4.3c-6.4-3.3-12.7-6.6-19.1-9.9
					C76.6,220.3,74.1,224.7,76.9,226.1L76.9,226.1z"/>
			</g>
		</g>
	</g>
	<g>
		<g>
			<path fill="#F7AC40" d="M108,231.3c2.7,0.5,8.2,1.3,9.2,4.5c0.7,2.4-8.1,2.1-9,2c-2.4-0.2-3,2.8-1.8,4.3c2.2,2.8,6.3,8.6,0.7,9.8
				c-2.6,0.6-6.9-0.6-5.6-3.9c1.2-3-3.6-4.3-4.8-1.3c-2.9,7.1,5.4,11.1,11.3,10.1c3.1-0.5,5.7-2.4,6.8-5.4c1.5-4.6-2.2-9.5-4.8-12.8
				c-0.6,1.4-1.2,2.8-1.8,4.3c4.8,0.4,13.1-0.1,13.9-6.4c0.8-6.5-8.1-9.2-12.8-10C106.2,225.9,104.8,230.7,108,231.3L108,231.3z"/>
		</g>
	</g>
	<g>
		<g>
			<path fill="#F7AC40" d="M133.8,241.5c9.8-0.4,4.3,19.7-5.7,18.2c-4.3-0.6-4.2-5.3-3.6-8.6c1-5.5,4.6-8.9,10-9.8
				c3.2-0.5,1.8-5.4-1.3-4.8c-8.8,1.5-13.1,8.2-14,16.6c-0.7,5.8,3.3,11.4,9.4,11.6c15.5,0.5,22.7-29,5.3-28.3
				C130.6,236.6,130.6,241.6,133.8,241.5z"/>
		</g>
	</g>
	<g>
		<g>
			<path fill="#F7AC40" d="M153.1,248.3c-11.8,3.8-18.6,29-1.2,28c14.6-0.9,20.9-26.4,6.1-31.5c-3.1-1.1-4.4,3.8-1.3,4.8
				c9.5,3.3,3.9,20.4-4.4,21.7c-11.1,1.7-4.6-15.9,2.2-18.1C157.5,252.1,156.2,247.3,153.1,248.3L153.1,248.3z"/>
		</g>
	</g>
	<g>
		<path fill="#F7AC40" d="M155.5,160.5c16.4-13.9,32.2,11.6,16.2,22.5C159.1,191.5,144.6,169.8,155.5,160.5z"/>
		<g>
			<path fill="#F7AC40" d="M157.3,162.3c5-4,10.9-4.5,15.4,0.3c4.1,4.3,4.1,11.3,0.4,15.8C163.4,190.2,147.4,171.4,157.3,162.3
				c2.4-2.2-1.2-5.7-3.5-3.5c-6.5,6-5.5,15.7-0.2,22.2c6.1,7.5,15.3,8.4,22.4,1.8c6.4-6,6.3-16.5,0.8-23c-6.4-7.6-15.8-6.7-23-0.9
				C151.2,160.8,154.8,164.3,157.3,162.3z"/>
		</g>
	</g>
	<g>
		<path fill="#F7AC40" d="M212.2,164.5c16.4-13.9,32.2,11.6,16.2,22.5C215.8,195.5,201.2,173.8,212.2,164.5z"/>
		<g>
			<path fill="#F7AC40" d="M213.9,166.3c5-4,10.9-4.5,15.4,0.3c4.1,4.3,4.1,11.3,0.4,15.8C220.1,194.2,204.1,175.4,213.9,166.3
				c2.4-2.2-1.2-5.7-3.5-3.5c-6.5,6-5.5,15.7-0.2,22.2c6.1,7.5,15.3,8.4,22.4,1.8c6.4-6,6.3-16.5,0.8-23c-6.4-7.6-15.8-6.7-23-0.9
				C207.9,164.8,211.5,168.3,213.9,166.3z"/>
		</g>
	</g>
	<g>
		<g>
			<path fill="#666666" d="M155.7,173.1c2.7,6.3,13.3,9,18.4,4.3c5.9-5.4-2.9-11.7-7.4-13.4c-4.9-1.9-11,1.8-6.4,6.9
				c2.6,2.9,6.9-0.8,8.8-2.6c10.5-9.7,18.6-22.6,26.7-34.3c6.7-9.6,13.6-19.3,19.2-29.6c13.6-25.2,23.9-52.5,33.7-79.3
				c1.1-3-3.7-4.3-4.8-1.3c-9.1,24.8-18.8,49.7-30.7,73.3c-5.1,10.2-11.5,19.5-17.9,29c-8.2,12-16.5,24.2-26.2,35.1
				c-1.5,1.6-3,3.2-4.6,4.6c-0.5,0.5-1.1,0.8-1.7,1.2c-0.3,0.2,3.1,0.3,0.2,1.4c2.2-0.9,7.1,2.8,7.8,4.6c1,2.6-4.9,1.7-5.7,1.5
				c-2.1-0.5-4.1-1.8-5-3.8C158.8,167.6,154.5,170.1,155.7,173.1L155.7,173.1z"/>
		</g>
	</g>
	<g>
		<g>
			<path fill="#FFFFFF" d="M227.8,176.5c-2.5,2-8.2,0.8-10-1.6c-2.2-2.9,4.7-3,6-2.9c2.1,0.1,5.6,1.5,4.1-1.6c-1-1.9-1.6-4-2.3-6
				c-4-11.8-7-23.9-10-35.9C205.6,88.2,204.7,46,220.4,7c1.2-3-3.6-4.3-4.8-1.3c-10.6,26.3-14,54.2-11.7,82.4
				c1.5,18.6,5.5,36.6,10.2,54.5c2,7.8,4.2,15.5,6.7,23.1c0.9,2.7,2.6,10.5,6.5,10.5c2,0,4.2-2.2,4.2-4.2c0-2.7-2.4-4-4.8-4.6
				c-5.4-1.5-13.7-0.2-14.2,6.4c-0.8,8.8,13.9,10.2,18.9,6.2C233.9,178.1,230.3,174.5,227.8,176.5L227.8,176.5z"/>
		</g>
	</g>
</g>
<g>
	<g>
		<path fill="#F6AC40" d="M207,272.7c3.9-0.5,7.9-0.5,11.8-0.5c3.2,0,3.2-5,0-5c-4,0-7.9,0-11.8,0.5
			C203.9,268.2,203.8,273.2,207,272.7L207,272.7z"/>
	</g>
</g>
<g>
	<g>
		<g>
			<path fill="#F6AC40" d="M212.3,253.4c-11.7-2.3-7,10.4-4.6,16.5c1.5,3.8,5.5,10.9,2.5,14.8c-0.9,1.2-2.5,2.1-4,2.3
				c-1.1,0.3-1.3-0.2-0.6-1.5c0.5-1.3,2.3-1.7,3.5-2c3.3-0.9,7.5,0,10.6,1.3c2.9,1.3,5.5-3,2.5-4.3c-6.5-3-16.2-4-20.9,2.4
				c-1.6,2.3-1.5,6.4,1,8c2.8,1.7,5.9,1,8.7-0.4c6.8-3.4,5.7-10.7,3.7-16.6c-1.2-3.5-2.7-6.9-4-10.4c-0.5-1.4-0.9-2.9-1.2-4.3
				c-0.3-1.7-0.1-1.2,1.6-0.9C214.1,258.9,215.5,254,212.3,253.4L212.3,253.4z"/>
		</g>
	</g>
	<g>
		<g>
			<path fill="#F6AC40" d="M225.7,252.6c-1.1,7.2-2.5,14.4-2.1,21.8c0.1,1.4,1.1,2.4,2.5,2.5c5.6,0.5,11.1-0.1,16.6-1.1
				c3.2-0.6,1.8-5.4-1.3-4.8c-5.1,1-10.1,1.4-15.3,0.9c0.8,0.8,1.7,1.7,2.5,2.5c-0.4-6.9,0.9-13.6,2-20.4
				C231,250.8,226.2,249.4,225.7,252.6L225.7,252.6z"/>
		</g>
	</g>
	<g>
		<g>
			<path fill="#F6AC40" d="M232.3,265.1c0,6.2,0,12.4,0,18.5c0,3.2,5,3.2,5,0c0-6.2,0-12.4,0-18.5
				C237.3,261.9,232.3,261.9,232.3,265.1L232.3,265.1z"/>
		</g>
	</g>
	<g>
		<g>
			<path fill="#F6AC40" d="M240.6,248.6c0.6,6.5-1.4,15.8,2.6,21.5c1.8,2.5,5.2,2.2,7.9,2.1c4.1-0.2,8.2-1,12.2-1.6
				c3.2-0.5,1.8-5.3-1.3-4.8c-3,0.4-14.2,3.5-15.3,0.2c-1.8-5.5-0.6-11.7-1.1-17.4C245.3,245.4,240.3,245.4,240.6,248.6L240.6,248.6
				z"/>
		</g>
	</g>
	<g>
		<g>
			<path fill="#F6AC40" d="M250.9,258.4c-1,9.2-2,18.5-2.1,27.8c0,3.2,5,3.2,5,0c0.1-9.3,1-18.5,2.1-27.8
				C256.2,255.2,251.2,255.2,250.9,258.4L250.9,258.4z"/>
		</g>
	</g>
	<g>
		<g>
			<path fill="#F6AC40" d="M268.4,270.4c0.5,3.6,1.1,7.2,2.1,10.8c0.7,2.8,4.9,2.1,4.9-0.7c0.1-3.5,0.2-7.9,2.7-10.6
				c1.7-1.8,3.1,8.7,3.1,9.1c0.1,2.7,4.5,3.6,4.9,0.7c0.5-3.3,0.1-8.3,2.4-11c1.2-1.3,4.4,10.9,4.6,12.1c0.5,3.2,5.3,1.8,4.8-1.3
				c-0.9-5.6-2.3-15.2-9.4-15.8c-6.7-0.6-6.7,10.7-7.3,14.8c1.6,0.2,3.3,0.4,4.9,0.7c-0.3-5-1.1-14.1-7.8-14.3
				c-6.9-0.2-7.9,11.3-8,15.8c1.6-0.2,3.3-0.4,4.9-0.7c-0.9-3.6-1.5-7.2-2.1-10.8C272.8,265.9,268,267.2,268.4,270.4L268.4,270.4z"
				/>
		</g>
	</g>
</g>
</svg>
