<?xml version="1.0" encoding="utf-8"?>
<!-- Generator: Adobe Illustrator 18.1.1, SVG Export Plug-In . SVG Version: 6.00 Build 0)  -->
<!DOCTYPE svg PUBLIC "-//W3C//DTD SVG 1.1//EN" "http://www.w3.org/Graphics/SVG/1.1/DTD/svg11.dtd">
<svg version="1.1" id="Layer_1" xmlns="http://www.w3.org/2000/svg" xmlns:xlink="http://www.w3.org/1999/xlink" x="0px" y="0px"
	 width="250px" height="237.2px" viewBox="-74.8 -66.9 250 237.2" enable-background="new -74.8 -66.9 250 237.2"
	 xml:space="preserve">
<g>
	<circle opacity="3.000000e-02" fill="#FFFFFF" cx="1.7" cy="30.3" r="9.5"/>
	<circle opacity="3.000000e-02" fill="#FFFFFF" cx="-31.2" cy="26.9" r="9.5"/>
	<circle opacity="3.000000e-02" fill="#FFFFFF" cx="2.7" cy="-10.2" r="9.5"/>
	<circle opacity="3.000000e-02" fill="#FFFFFF" cx="70.3" cy="38.3" r="9.5"/>
	<circle opacity="3.000000e-02" fill="#FFFFFF" cx="92.8" cy="23.5" r="8"/>
	<circle opacity="3.000000e-02" fill="#FFFFFF" cx="74.2" cy="17.4" r="8"/>
	<circle opacity="3.000000e-02" fill="#FFFFFF" cx="89.3" cy="41.4" r="7.1"/>
	<circle opacity="3.000000e-02" fill="#FFFFFF" cx="-3.8" cy="51.1" r="7.1"/>
	<circle opacity="3.000000e-02" fill="#FFFFFF" cx="66.2" cy="65.8" r="5.9"/>
	<circle opacity="3.000000e-02" fill="#FFFFFF" cx="67.8" cy="157.4" r="5.8"/>
	<circle opacity="3.000000e-02" fill="#FFFFFF" cx="100.8" cy="52.6" r="5.8"/>
	<circle opacity="3.000000e-02" fill="#FFFFFF" cx="8.6" cy="9.4" r="6.9"/>
	<circle opacity="3.000000e-02" fill="#FFFFFF" cx="22" cy="-2.4" r="4.5"/>
	<circle opacity="3.000000e-02" fill="#FFFFFF" cx="25.4" cy="-55.3" r="4.5"/>
	<circle opacity="3.000000e-02" fill="#FFFFFF" cx="25.4" cy="-16.6" r="7.1"/>
	<circle opacity="3.000000e-02" fill="#FFFFFF" cx="-18.1" cy="40.8" r="7.1"/>
	<circle opacity="3.000000e-02" fill="#FFFFFF" cx="-21.7" cy="58.2" r="7.1"/>
	<circle opacity="3.000000e-02" fill="#FFFFFF" cx="89.3" cy="2.3" r="7.1"/>
	<circle opacity="3.000000e-02" fill="#FFFFFF" cx="108" cy="34.3" r="7.1"/>
	<circle opacity="3.000000e-02" fill="#FFFFFF" cx="-8.8" cy="4.8" r="7.1"/>
	<circle opacity="3.000000e-02" fill="#FFFFFF" cx="85.7" cy="62.8" r="9"/>
	<circle opacity="3.000000e-02" fill="#FFFFFF" cx="115.1" cy="55.7" r="7.6"/>
	<circle opacity="3.000000e-02" fill="#FFFFFF" cx="94.7" cy="-39.3" r="9.5"/>
	<circle opacity="3.000000e-02" fill="#FFFFFF" cx="26.4" cy="77.4" r="9.5"/>
	<circle opacity="3.000000e-02" fill="#FFFFFF" cx="-14.6" cy="91" r="9.5"/>
	<circle opacity="3.000000e-02" fill="#FFFFFF" cx="-7.8" cy="69.3" r="8"/>
	<circle opacity="3.000000e-02" fill="#FFFFFF" cx="-6.8" cy="-27" r="8"/>
	<circle opacity="3.000000e-02" fill="#FFFFFF" cx="-28.9" cy="-31.5" r="7.1"/>
	<circle opacity="3.000000e-02" fill="#FFFFFF" cx="74.2" cy="80.4" r="7.1"/>
	<circle opacity="3.000000e-02" fill="#FFFFFF" cx="37.3" cy="61.8" r="5.9"/>
	<circle opacity="3.000000e-02" fill="#FFFFFF" cx="-45.2" cy="15" r="5.8"/>
	<circle opacity="3.000000e-02" fill="#FFFFFF" cx="122.7" cy="79.9" r="5.8"/>
	<circle opacity="3.000000e-02" fill="#FFFFFF" cx="109.3" cy="-14.4" r="6.9"/>
	<circle opacity="3.000000e-02" fill="#FFFFFF" cx="11.2" cy="-27" r="4.5"/>
	<circle opacity="3.000000e-02" fill="#FFFFFF" cx="96.4" cy="-12" r="4.5"/>
	<circle opacity="3.000000e-02" fill="#FFFFFF" cx="141" cy="85.7" r="7.1"/>
	<circle opacity="3.000000e-02" fill="#FFFFFF" cx="-28.9" cy="8.2" r="7.1"/>
	<circle opacity="3.000000e-02" fill="#FFFFFF" cx="18.2" cy="97.4" r="7.1"/>
	<circle opacity="3.000000e-02" fill="#FFFFFF" cx="72.3" cy="0.3" r="7.1"/>
	<circle opacity="3.000000e-02" fill="#FFFFFF" cx="114.6" cy="91.5" r="7.1"/>
	<circle opacity="3.000000e-02" fill="#FFFFFF" cx="-43.8" cy="70.9" r="7.1"/>
	<circle opacity="3.000000e-02" fill="#FFFFFF" cx="29.6" cy="-36" r="9"/>
	<circle opacity="3.000000e-02" fill="#FFFFFF" cx="-25.2" cy="-11.5" r="9.5"/>
	<circle opacity="3.000000e-02" fill="#FFFFFF" cx="8.6" cy="-45" r="9.5"/>
	<circle opacity="3.000000e-02" fill="#FFFFFF" cx="92.8" cy="91.5" r="9.5"/>
	<circle opacity="3.000000e-02" fill="#FFFFFF" cx="124.3" cy="22" r="9.5"/>
	<circle opacity="3.000000e-02" fill="#FFFFFF" cx="143" cy="29.9" r="8"/>
	<circle opacity="3.000000e-02" fill="#FFFFFF" cx="116.9" cy="-31.4" r="8"/>
	<circle opacity="3.000000e-02" fill="#FFFFFF" cx="-41.9" cy="116.9" r="7.1"/>
	<circle opacity="3.000000e-02" fill="#FFFFFF" cx="45.8" cy="138.6" r="7.1"/>
	<circle opacity="3.000000e-02" fill="#FFFFFF" cx="162.2" cy="34.3" r="5.9"/>
	<circle opacity="3.000000e-02" fill="#FFFFFF" cx="151" cy="68.6" r="5.8"/>
	<circle opacity="3.000000e-02" fill="#FFFFFF" cx="-25.2" cy="75.7" r="5.8"/>
	<circle opacity="3.000000e-02" fill="#FFFFFF" cx="148.2" cy="-16.4" r="6.9"/>
	<circle opacity="3.000000e-02" fill="#FFFFFF" cx="53" cy="151.1" r="4.5"/>
	<circle opacity="3.000000e-02" fill="#FFFFFF" cx="60.3" cy="87.7" r="4.5"/>
	<circle opacity="3.000000e-02" fill="#FFFFFF" cx="156.2" cy="17.3" r="7.1"/>
	<circle opacity="3.000000e-02" fill="#FFFFFF" cx="128.4" cy="44.3" r="7.1"/>
	<circle opacity="3.000000e-02" fill="#FFFFFF" cx="151" cy="102.2" r="7.1"/>
	<circle opacity="3.000000e-02" fill="#FFFFFF" cx="128.4" cy="-16.4" r="7.1"/>
	<circle opacity="3.000000e-02" fill="#FFFFFF" cx="1.1" cy="104.6" r="7.1"/>
	<circle opacity="3.000000e-02" fill="#FFFFFF" cx="116.9" cy="125.5" r="7.1"/>
	<circle opacity="3.000000e-02" fill="#FFFFFF" cx="81.3" cy="146.6" r="9"/>
	<circle opacity="3.000000e-02" fill="#C5E9EA" cx="31.4" cy="111.7" r="9.5"/>
	<circle opacity="3.000000e-02" fill="#FFFFFF" cx="6.8" cy="139.8" r="9.5"/>
	<circle opacity="3.000000e-02" fill="#FFFFFF" cx="130.5" cy="106.3" r="9.5"/>
	<circle opacity="3.000000e-02" fill="#FFFFFF" cx="109.3" cy="6.8" r="9.5"/>
	<circle opacity="3.000000e-02" fill="#FFFFFF" cx="106.6" cy="71.9" r="8"/>
	<circle opacity="3.000000e-02" fill="#FFFFFF" cx="48.5" cy="77.4" r="8"/>
	<circle opacity="3.000000e-02" fill="#FFFFFF" cx="53" cy="120.6" r="7.1"/>
	<circle opacity="3.000000e-02" fill="#FFFFFF" cx="74.2" cy="102.6" r="7.1"/>
	<circle opacity="3.000000e-02" fill="#FFFFFF" cx="37.3" cy="93" r="5.9"/>
	<circle opacity="3.000000e-02" fill="#FFFFFF" cx="11.2" cy="120.9" r="5.8"/>
	<circle opacity="3.000000e-02" fill="#FFFFFF" cx="88.4" cy="114.2" r="5.8"/>
	<circle opacity="3.000000e-02" fill="#FFFFFF" cx="141" cy="4.8" r="6.9"/>
	<circle opacity="3.000000e-02" fill="#FFFFFF" cx="124.9" cy="-0.6" r="4.5"/>
	<circle opacity="3.000000e-02" fill="#FFFFFF" cx="53" cy="61.8" r="4.5"/>
	<circle opacity="3.000000e-02" fill="#FFFFFF" cx="106.4" cy="109.8" r="7.1"/>
	<circle opacity="3.000000e-02" fill="#FFFFFF" cx="53" cy="102.2" r="7.1"/>
	<circle opacity="3.000000e-02" fill="#FFFFFF" cx="130.5" cy="65.3" r="7.1"/>
	<circle opacity="3.000000e-02" fill="#FFFFFF" cx="55.6" cy="21.2" r="7.1"/>
	<circle opacity="3.000000e-02" fill="#FFFFFF" cx="10.1" cy="159.2" r="7.1"/>
	<circle opacity="3.000000e-02" fill="#FFFFFF" cx="26.4" cy="132.7" r="7.1"/>
	<circle opacity="3.000000e-02" fill="#FFFFFF" cx="72.3" cy="122.8" r="9"/>
	<circle opacity="3.000000e-02" fill="#FFFFFF" cx="-40.8" cy="91.6" r="9.5"/>
	<circle opacity="3.000000e-02" fill="#FFFFFF" cx="29.6" cy="153.7" r="9.5"/>
	<circle opacity="3.000000e-02" fill="#FFFFFF" cx="-40.8" cy="49.2" r="9.5"/>
	<circle opacity="3.000000e-02" fill="#FFFFFF" cx="-62.4" cy="81.5" r="9.5"/>
	<circle opacity="3.000000e-02" fill="#FFFFFF" cx="148.2" cy="48.5" r="8"/>
	<circle opacity="3.000000e-02" fill="#FFFFFF" cx="-45.2" cy="-4.3" r="8"/>
	<circle opacity="3.000000e-02" fill="#FFFFFF" cx="-7.8" cy="122.8" r="7.1"/>
	<circle opacity="3.000000e-02" fill="#FFFFFF" cx="-62.4" cy="60.2" r="7.1"/>
	<circle opacity="3.000000e-02" fill="#FFFFFF" cx="-50.9" cy="30.8" r="5.9"/>
	<circle opacity="3.000000e-02" fill="#FFFFFF" cx="158.1" cy="-0.6" r="5.8"/>
	<circle opacity="3.000000e-02" fill="#FFFFFF" cx="-25.2" cy="126" r="5.8"/>
	<circle opacity="3.000000e-02" fill="#FFFFFF" cx="-25.2" cy="106.3" r="6.9"/>
	<circle opacity="3.000000e-02" fill="#FFFFFF" cx="63.3" cy="139.8" r="4.5"/>
	<circle opacity="3.000000e-02" fill="#FFFFFF" cx="165.3" cy="67.8" r="4.5"/>
	<circle opacity="3.000000e-02" fill="#FFFFFF" cx="168.1" cy="52.6" r="7.1"/>
	<circle opacity="3.000000e-02" fill="#FFFFFF" cx="158.1" cy="83.3" r="7.1"/>
	<circle opacity="3.000000e-02" fill="#FFFFFF" cx="43.2" cy="-59.7" r="7.1"/>
	<circle opacity="3.000000e-02" fill="#FFFFFF" cx="6.8" cy="82.9" r="7.1"/>
	<circle opacity="3.000000e-02" fill="#FFFFFF" cx="82.6" cy="-17.2" r="7.1"/>
	<circle opacity="3.000000e-02" fill="#FFFFFF" cx="96.4" cy="132.7" r="7.1"/>
	<circle opacity="3.000000e-02" fill="#FFFFFF" cx="-65.8" cy="38.3" r="9"/>
	<path opacity="0.12" fill="#FFFFFF" d="M68.2-28.9c5.1-9.4,17-36.1,17-36.1L50.3-46.6c0,0-4.8,18.5-6.4,22.8
		c-1.6,4.3-8.4,21-8.4,21s-2.2,4.7-3.4,7.6c-1.2,2.9-1.8,5.4-1.8,5.4s-3.6,11-5.2,13.3c-2.9,4.3-4.9,9.1-7.2,13.7
		c-1.8,3.7-3.9,8-6,12c-0.8,1.6,1.6,20.4,3.5,20.2c1.2-0.1,1.5-1.9,1.5-1.9s0,0,0.7-0.3c0.9-0.4,1.1-3.5,1.1-3.5s-0.1,1,1,0.7
		c1.1-0.3,3-0.5,3.4-6.2c0.4-5.7,0.6-9,0.6-9s2-6.2,2.6-6.9c0.6-0.7,1.6-1.5,1.6-1.5s0.4,3.7,0.8,4.7c0,0,1,1.8,1.2,4.7
		c0.2,3,0.6,4.9,1.9,4.3c1.3-0.6,2.6-1.9,1.6-8.6s-1.3-5.6-0.4-7.7c0.9-2,1.1-3,1.1-3s5,0.1,5.5,1.7s5.1,12.7,6.6,14.1
		c1.6,1.4,4.3,2.6,4.9,0.7c0.6-2,0.3-1.9-1.7-7.8c-2-5.9-4.4-12.6-4.4-15.1c0-2.6-0.6-5.8-1.3-8.9c-0.8-3.2-3-3.6-0.1-8.7
		C46.3,6.3,63.2-19.6,68.2-28.9z"/>
</g>
</svg>
