<?xml version="1.0" encoding="utf-8"?>
<!-- Generator: Adobe Illustrator 17.1.0, SVG Export Plug-In . SVG Version: 6.00 Build 0)  -->
<!DOCTYPE svg PUBLIC "-//W3C//DTD SVG 1.1//EN" "http://www.w3.org/Graphics/SVG/1.1/DTD/svg11.dtd">
<svg version="1.1" id="Layer_1" xmlns="http://www.w3.org/2000/svg" xmlns:xlink="http://www.w3.org/1999/xlink" x="0px" y="0px"
	 viewBox="0 0 35 30" enable-background="new 0 0 35 30" xml:space="preserve">
<g>
	<path fill="#FDEAD0" d="M28.9,15.1C28.9,15.1,28.9,15.1,28.9,15.1c0.2-1.7,0.3-3.4,0.6-5.1c0,0,0,0,0,0c0,0,0,0,0,0c0,0,0,0,0,0
		C26,7,23.2,3,18.7,1.5c-2.2-0.8-4.6-0.8-6.9-0.9c-2.5-0.1-5.1-0.1-7.6,0c-1.2,0-2.4,0.2-3.6,0.5c0,0,0,0,0,0.1
		c0.1,5,0.1,9.9,0.1,14.9c0,2.2,0,4.4,0,6.6c0,0,0,0.1,0.1,0.1c4,0.2,8,0.4,11.9,0.6c1.8,0.1,3.7,0.2,5.5,0.3c0,0,0.1,0,0.1-0.1
		c-0.2-2.5,1.3-4.8,3.2-6.4C23.5,15.6,26.2,14.7,28.9,15.1z"/>
	<path fill="#FDEAD0" d="M22.7,23.9c0.1,0.1,0.3,0.3,0.4,0.4l0.3-0.3c-0.2-0.3-0.5-0.6-0.7-0.7l-0.2-0.2l-0.1,0.1
		c-0.2,0.2-0.7,0.7-0.9,0.9l0.3,0.3c0.2-0.2,0.3-0.3,0.5-0.5c0.2,2,1.6,3.7,3.7,4.5l0.1-0.4C24.2,27.4,22.9,25.8,22.7,23.9z"/>
	<path fill="#FDEAD0" d="M30.6,28c-0.9,0.4-1.9,0.5-2.9,0.3c0.1-0.2,0.3-0.3,0.5-0.5l-0.3-0.3c-0.2,0.2-0.6,0.5-0.7,0.7L27,28.5
		l0.1,0.1c0.2,0.2,0.7,0.7,0.9,0.9l0.3-0.3c-0.1-0.1-0.3-0.3-0.4-0.4c0.3,0.1,0.6,0.1,0.9,0.1c0.7,0,1.4-0.2,2-0.5
		c1.1-0.6,2-1.6,2.7-3.1L33,25.2C32.4,26.5,31.6,27.5,30.6,28z"/>
	<path fill="#FDEAD0" d="M34.1,22.9c-0.1,0.1-0.3,0.3-0.4,0.4c-0.1-2-1.6-3.8-3.7-4.5l-0.1,0.4c1.9,0.7,3.3,2.3,3.4,4.1
		c-0.1-0.1-0.3-0.3-0.4-0.5l-0.3,0.3c0.1,0.2,0.7,0.7,0.9,0.9l0.1,0.1l0.2-0.2c0.2-0.2,0.5-0.5,0.7-0.7L34.1,22.9z"/>
	<path fill="#FDEAD0" d="M28,19.5l0.3,0.3c0.2-0.2,0.6-0.5,0.7-0.7l0.2-0.2L29,18.8c-0.2-0.2-0.7-0.7-0.9-0.9l-0.3,0.3
		c0.1,0.1,0.3,0.2,0.4,0.4c-1-0.2-1.9,0-2.8,0.4c-1.1,0.6-2,1.6-2.7,3.1l0.4,0.2c0.6-1.4,1.4-2.4,2.4-2.9c0.9-0.4,1.8-0.5,2.8-0.3
		C28.3,19.2,28.1,19.4,28,19.5z"/>
</g>
<g>
	<path fill="#F6AC40" d="M25.7,10.6c-4-6.7-12.3-7.9-19.4-8.1c-1.1,0-2.1,0-3.2,0c0,0,0,0,0,0l0,0l0,0c0,0,0,0,0,0
		c0,2.7,0,5.5,0,8.2c0,0,0,0.1,0.1,0.1c3.6,0,7.2,0,10.7-0.1c3.9,0,7.8-0.1,11.7-0.1C25.6,10.7,25.7,10.7,25.7,10.6
		C25.7,10.7,25.7,10.6,25.7,10.6z M3.1,10.7L3.1,10.7L3.1,10.7L3.1,10.7z"/>
	<path fill="#F6AC40" d="M7.3,13.1c-1.3,0.1-2.6,0-3.9,0c0,0-0.1,0-0.1,0c0,0.5,0,1.1,0,1.6c0,0,0,0.1,0.1,0.1c0.4,0,3.9,0,3.9-0.1
		c0,0.1,0.1,0.1,0.1,0C7.4,14.2,7.4,13.7,7.3,13.1C7.4,13.1,7.3,13.1,7.3,13.1z"/>
</g>
</svg>
