<svg xmlns="http://www.w3.org/2000/svg" width="421" height="323" viewBox="0 0 421 323">
  <defs>
    <filter id="a" width="200%" height="200%" x="-50%" y="-50%" filterUnits="objectBoundingBox">
      <feOffset in="SourceAlpha" result="shadowOffsetOuter1"/>
      <feGaussianBlur stdDeviation="9.5" in="shadowOffsetOuter1" result="shadowBlurOuter1"/>
      <feColorMatrix values="0 0 0 0 0 0 0 0 0 0 0 0 0 0 0 0 0 0 0.2 0" in="shadowBlurOuter1" result="shadowMatrixOuter1"/>
      <feMerge>
        <feMergeNode in="shadowMatrixOuter1"/>
        <feMergeNode in="SourceGraphic"/>
      </feMerge>
    </filter>
    <filter id="b" width="200%" height="200%" x="-50%" y="-50%" filterUnits="objectBoundingBox">
      <feOffset in="SourceAlpha" result="shadowOffsetOuter1"/>
      <feGaussianBlur stdDeviation="2" in="shadowOffsetOuter1" result="shadowBlurOuter1"/>
      <feColorMatrix values="0 0 0 0 0 0 0 0 0 0 0 0 0 0 0 0 0 0 0.2 0" in="shadowBlurOuter1" result="shadowMatrixOuter1"/>
      <feMerge>
        <feMergeNode in="shadowMatrixOuter1"/>
        <feMergeNode in="SourceGraphic"/>
      </feMerge>
    </filter>
    <filter id="c" width="200%" height="200%" x="-50%" y="-50%" filterUnits="objectBoundingBox">
      <feOffset in="SourceAlpha" result="shadowOffsetOuter1"/>
      <feGaussianBlur stdDeviation="2" in="shadowOffsetOuter1" result="shadowBlurOuter1"/>
      <feColorMatrix values="0 0 0 0 0 0 0 0 0 0 0 0 0 0 0 0 0 0 0.2 0" in="shadowBlurOuter1" result="shadowMatrixOuter1"/>
      <feMerge>
        <feMergeNode in="shadowMatrixOuter1"/>
        <feMergeNode in="SourceGraphic"/>
      </feMerge>
    </filter>
    <filter id="d" width="200%" height="200%" x="-50%" y="-50%" filterUnits="objectBoundingBox">
      <feOffset in="SourceAlpha" result="shadowOffsetOuter1"/>
      <feGaussianBlur stdDeviation="2" in="shadowOffsetOuter1" result="shadowBlurOuter1"/>
      <feColorMatrix values="0 0 0 0 0 0 0 0 0 0 0 0 0 0 0 0 0 0 0.2 0" in="shadowBlurOuter1" result="shadowMatrixOuter1"/>
      <feMerge>
        <feMergeNode in="shadowMatrixOuter1"/>
        <feMergeNode in="SourceGraphic"/>
      </feMerge>
    </filter>
    <filter id="e" width="200%" height="200%" x="-50%" y="-50%" filterUnits="objectBoundingBox">
      <feOffset in="SourceAlpha" result="shadowOffsetOuter1"/>
      <feGaussianBlur stdDeviation="2" in="shadowOffsetOuter1" result="shadowBlurOuter1"/>
      <feColorMatrix values="0 0 0 0 0 0 0 0 0 0 0 0 0 0 0 0 0 0 0.2 0" in="shadowBlurOuter1" result="shadowMatrixOuter1"/>
      <feMerge>
        <feMergeNode in="shadowMatrixOuter1"/>
        <feMergeNode in="SourceGraphic"/>
      </feMerge>
    </filter>
  </defs>
  <g fill="none" fill-rule="evenodd" transform="translate(5)">
    <g fill="#010202" opacity=".1">
      <path d="M146.012633 268.324127L154.499989 298.99884C154.980449 300.73792 154.131024 302.429874 152.648265 302.840219L143.626426 305.336771C142.144817 305.747116 140.544817 304.732173 140.064357 302.991943L131.577001 272.31838C131.132173 270.708035 131.788495 269.067805 133.170104 268.547116 134.663208 267.925276 136.256311 267.416081 137.867805 266.970104 139.47815 266.524127 141.043667 266.160909 142.708035 265.908035 144.096541 265.663208 145.566656 266.712633 146.012633 268.324127M128.243667 284.340219L133.87815 304.703437C134.359759 306.443667 133.509185 308.135621 132.027575 308.545966L123.005736 311.042518C121.522978 311.451713 119.924127 310.43792 119.443667 308.69769L113.809185 288.333322C113.363208 286.722978 114.019529 285.083897 115.401139 284.563208 116.895391 283.942518 118.488495 283.431024 120.099989 282.986196 121.710334 282.540219 123.275851 282.177001 124.93907 281.924127 126.327575 281.67815 127.79884 282.728725 128.243667 284.340219M109.334472 296.232173L113.256311 310.409185C113.73792 312.149414 112.888495 313.841368 111.405736 314.250564L102.383897 316.747116C100.902288 317.15746 99.302288 316.143667 98.8218282 314.403437L94.8988397 300.226426C94.4528627 298.614932 95.1103339 296.975851 96.4919431 296.455162 97.9850466 295.833322 99.5792995 295.324127 101.189644 294.87815 102.801139 294.432173 104.365506 294.068955 106.029874 293.81723 107.41838 293.571253 108.888495 294.620679 109.334472 296.232173M115.677001 274.774702L106.019529 268.705736 101.580449 276.732173C101.751713 277.101139 101.941368 277.534472 102.066656 277.985047 103.171253 281.981598 100.841368 286.094242 96.8459661 287.199989 92.8494144 288.305736 88.7356213 285.974702 87.6310236 281.979299 86.5252765 277.983897 88.856311 273.870104 92.8517133 272.765506 93.2379201 272.65861 93.6436673 272.616081 94.1114834 272.555162L100.777001 260.789644C101.401139 259.785047 102.371253 259.031024 103.467805 258.727575 104.644817 258.471253 105.799989 258.63792 106.805736 259.260909L116.920679 265.481598 127.934472 251.126426C127.91723 251.062058 127.881598 250.933322 127.863208 250.868955 126.75746 246.872403 129.088495 242.759759 133.083897 241.654012 137.079299 240.548265 141.191943 242.879299 142.29769 246.874702 143.402288 250.870104 141.072403 254.983897 137.077001 256.088495 136.304587 256.302288 135.495391 256.388495 134.779299 256.308035L121.360909 273.75746C119.97815 275.527575 117.522978 275.929874 115.677001 274.774702M62.965385 238.874241C67.065385 253.69608 58.3964195 268.998379 43.5745804 273.098379 26.9492931 277.698379 12.2826264 266.562747 9.01251148 252.483437L35.9998678 252.993781C38.1596379 253.021368 39.6102126 250.746655 39.1113621 248.943207L30.8389483 219.042057C44.8860747 216.404126 59.0780287 224.825965 62.965385 238.874241L62.965385 238.874241zM2.11481033 245.858149C.929752858 245.839759-.0357643831 244.858149.00101722606 243.73746.0217068812 230.273092 8.40561493 218.448954 20.8423965 215.008724 21.9377988 214.705276 23.1251552 215.486885 23.4745804 216.500678L31.819408 246.658149 2.11481033 245.858149zM328.91023 43.0942529L331.57 32.645977C331.380345 32.2126437 331.20908 31.8436782 331.083793 31.3931034 329.979195 27.3977011 332.30908 23.283908 336.304483 22.1781609 340.299885 21.0724138 344.413678 23.4034483 345.519425 27.3988506 345.555057 27.5275862 345.525172 27.6747126 345.560805 27.8034483L359.452759 33.8804598C360.10908 33.4908046 360.717126 33.183908 361.49069 32.9701149 365.486092 31.8643678 369.599885 34.1954023 370.704483 38.1896552 371.81023 42.1862069 369.479195 46.2988506 365.483793 47.4045977 361.488391 48.5103448 357.375747 46.1793103 356.27 42.183908 356.234368 42.0551724 356.198736 41.9264368 356.227471 41.7804598L342.335517 35.7022989C341.680345 36.091954 341.007931 36.4172414 340.298736 36.6126437 339.975747 36.7022989 339.635517 36.7275862 339.314828 36.816092L337.140115 45.2563218 328.91023 43.0942529zM316.257356 82.1149425C315.17 78.183908 317.38954 74.1701149 321.284943 72.9528736L324.418276 60.7091954 332.648161 62.8724138 329.447011 75.6206897C329.999885 76.3701149 330.443563 77.2183908 330.692989 78.1206897 331.798736 82.116092 329.467701 86.2298851 325.472299 87.3344828 321.476897 88.4402299 317.363103 86.1091954 316.257356 82.1149425L316.257356 82.1149425zM362.959655 65.8632184L320.079195 54.5563218C319.20908 55.4206897 318.138966 56.0643678 316.913678 56.4034483 312.918276 57.508046 308.804483 55.1781609 307.698736 51.1827586 306.594138 47.1873563 308.924023 43.0735632 312.920575 41.9678161 316.528621 40.9689655 320.242414 42.8563218 321.720575 46.1931034L364.601034 57.5C365.471149 56.6356322 366.541264 55.991954 367.766552 55.6528736 371.761954 54.5482759 375.875747 56.8781609 376.980345 60.8735632 378.086092 64.8689655 375.755057 68.9827586 371.759655 70.0885057 368.151609 71.0862069 364.437816 69.2 362.959655 65.8632184L362.959655 65.8632184zM261.981954 33.0403448C260.983103 33.3173563 259.991149 32.7541379 259.714138 31.7564368L258.241724 26.43 252.916437 27.9047126C251.917586 28.1805747 250.925632 27.6185057 250.64977 26.6196552L250.158966 24.8449425C249.883103 23.846092 250.444023 22.8541379 251.442874 22.5782759L256.768161 21.1047126 255.294598 15.7794253C255.018736 14.7805747 255.580805 13.7897701 256.579655 13.5127586L258.354368 13.021954C259.352069 12.7449425 260.344023 13.3081609 260.621034 14.3058621L262.094598 19.6322989 267.419885 18.1587356C268.417586 17.8817241 269.40954 18.4437931 269.685402 19.4426437L270.177356 21.2173563C270.453218 22.2162069 269.891149 23.2081609 268.893448 23.484023L263.568161 24.9575862 265.040575 30.2828736C265.317586 31.2817241 264.754368 32.2725287 263.757816 32.5495402L261.981954 33.0403448zM275.701494 18.7345977C273.322184 10.1345977 264.46931 5.11965517 255.87046 7.49781609 247.271609 9.87712644 242.255517 18.73 244.634828 27.3288506 247.012989 35.9277011 255.867011 40.9426437 264.465862 38.5644828 273.064713 36.1851724 278.079655 27.3322989 275.701494 18.7345977L275.701494 18.7345977zM282.358966 16.892069C285.74977 29.1518391 278.568161 41.83 266.307241 45.221954 263.034828 46.1265517 259.672759 46.2805747 256.545172 45.7713793L245.892299 59.2909195C244.054368 61.7104598 240.587701 62.1322989 238.152069 60.238046 236.172759 58.6955172 235.521034 56.1288506 236.386552 53.8587356L242.522184 37.8277011C240.479655 35.4058621 238.883103 32.4437931 237.978506 29.1713793 234.585402 16.9104598 241.768161 4.23229885 254.027931.840344828 266.288851-2.5516092 278.965862 4.63229885 282.358966 16.892069L282.358966 16.892069z"/>
    </g>
    <g filter="url(#a)" transform="translate(13.793 28.736)">
      <g filter="url(#b)" transform="translate(56.704)">
        <path fill="#C7C6CE" d="M36.4878877 19.0395276C39.9758227 19.2611368 42.6830932 22.0576338 42.8901275 25.4595988 42.8914462 25.4450887 42.8940836 25.4318976 42.8954023 25.4173875 43.1367226 21.6368402 40.2672532 18.3773383 36.4878877 18.1372616 32.7085223 17.8958659 29.4500394 20.7662326 29.2100378 24.54678 29.1915761 24.8369825 29.1981696 25.1232277 29.2153125 25.4068347 29.4764132 21.647393 32.7230279 18.799451 36.4878877 19.0395276M61.4960518 20.630497C64.9839868 20.8521062 67.6912573 23.6486032 67.8982916 27.0505681 67.8996103 27.036058 67.9022477 27.022867 67.9035664 27.0083569 68.1435679 23.2278095 65.2754173 19.9683076 61.4960518 19.728231 57.7166863 19.4868352 54.4582034 22.357202 54.2182019 26.1377493 54.1997402 26.4279518 54.205015 26.714197 54.2234766 26.9978041 54.4845772 23.2383623 57.7311919 20.3904204 61.4960518 20.630497M86.5042159 22.2213344C89.9921508 22.4429436 92.6994214 25.2394406 92.9064557 28.6414056 92.9077744 28.6268955 92.9104117 28.6137044 92.9117304 28.5991943 93.151732 24.818647 90.2822626 21.559145 86.5042159 21.3190684 82.7248504 21.0776727 79.4663675 23.9480394 79.2263659 27.7285868 79.2079043 28.0187893 79.213179 28.3050345 79.230322 28.5886415 79.4927413 24.8291998 82.739356 21.9812578 86.5042159 22.2213344M111.511984 23.8123038C114.999919 24.033913 117.70719 26.83041 117.914224 30.2323749 117.915543 30.2178648 117.91818 30.2046738 117.919499 30.1901637 118.1595 26.4096163 115.29135 23.1501144 111.511984 22.9100378 107.732619 22.668642 104.474136 25.5390088 104.234134 29.3195561 104.215673 29.6097586 104.222266 29.8960038 104.239409 30.1796108 104.50051 26.4201691 107.747124 23.5722271 111.511984 23.8123038M136.520148 25.4032731C140.008083 25.6248823 142.715354 28.4213793 142.922388 31.8233443 142.923707 31.8088342 142.926344 31.7956431 142.927663 31.781133 143.167665 28.0005857 140.299514 24.7410837 136.520148 24.5010071 132.740783 24.2596114 129.4823 27.1299781 129.242298 30.9105255 129.223837 31.200728 129.229112 31.4869732 129.246255 31.7705802 129.508674 28.0111385 132.755289 25.1631965 136.520148 25.4032731M161.527917 26.9941106C165.015852 27.2157198 167.723122 30.0122167 167.930157 33.4141817 167.931475 33.3996716 167.934113 33.3864806 167.935431 33.3719704 168.176752 29.5914231 165.307282 26.3319212 161.527917 26.0918446 157.748551 25.8504488 154.490068 28.7208155 154.250067 32.5013629 154.231605 32.7915654 154.238199 33.0778106 154.255342 33.3614176 154.516442 29.6019759 157.763057 26.7540339 161.527917 26.9941106M186.536081 28.5850799C190.024016 28.8066891 192.731286 31.6031861 192.938321 35.0051511 192.939639 34.9906409 192.942277 34.9774499 192.943595 34.9629398 193.183597 31.1823924 190.315446 27.9228905 186.536081 27.6828139 182.756715 27.4414182 179.498233 30.3117849 179.258231 34.0923322 179.239769 34.3825348 179.245044 34.66878 179.263506 34.952387 179.524606 31.1929453 182.771221 28.3450033 186.536081 28.5850799M211.544245 30.1760493C215.03218 30.3976585 217.73945 33.1941554 217.946485 36.5961204 217.947803 36.5816103 217.950441 36.5684193 217.95176 36.5539091 218.191761 32.7733618 215.322292 29.5138599 211.544245 29.2737833 207.76488 29.0323875 204.506397 31.9027542 204.266395 35.6833016 204.247933 35.9735041 204.253208 36.2597493 204.270351 36.5433563 204.53277 32.7839146 207.779385 29.9359726 211.544245 30.1760493M236.552013 31.7668867C240.039948 31.9884959 242.747219 34.7849929 242.954253 38.1869579 242.955572 38.1724477 242.958209 38.1592567 242.959528 38.1447466 243.19953 34.3641992 240.331379 31.1046973 236.552013 30.8646207 232.772648 30.623225 229.514165 33.4935917 229.274164 37.274139 229.255702 37.5643415 229.262295 37.8505868 229.279438 38.1341938 229.540539 34.3747521 232.787154 31.5268101 236.552013 31.7668867"/>
        <polygon fill="#C8C6CE" points="248.996 196.388 1.919 182.482 1.532 190.171 248.507 208.891"/>
        <polygon fill="#DFDFE9" points="247.646 206.055 2.271 188.633 2.859 180.957 248.744 193.591"/>
        <path fill="#FEFEFE" d="M235.681678,44.5540011 C231.902313,44.3139245 229.034162,41.0544226 229.274164,37.2738752 C229.514165,33.4933279 232.772648,30.6229611 236.552013,30.8643569 C240.331379,31.1044335 243.19953,34.3639354 242.959528,38.1444828 C242.719526,41.9250301 239.461044,44.7940777 235.681678,44.5540011 L235.681678,44.5540011 Z M210.674041,42.9631637 C206.894676,42.723087 204.025207,39.4635851 204.266527,35.6830378 C204.506528,31.9024904 207.765011,29.0321237 211.544377,29.2735194 C215.322424,29.5135961 218.191893,32.773098 217.951891,36.5536453 C217.71189,40.3341927 214.452088,43.2032403 210.674041,42.9631637 L210.674041,42.9631637 Z M185.665086,41.3723262 C181.885721,41.1322496 179.01757,37.8727477 179.257572,34.0922003 C179.498892,30.311653 182.757375,27.4412863 186.535422,27.682682 C190.314787,27.9227586 193.184256,31.1822605 192.944255,34.9628079 C192.702935,38.7433552 189.444452,41.6124028 185.665086,41.3723262 L185.665086,41.3723262 Z M160.65745,39.7814888 C156.878084,39.5414122 154.009933,36.2819102 154.249935,32.5013629 C154.489937,28.7208155 157.74842,25.8504488 161.527785,26.0918446 C165.30715,26.3319212 168.17662,29.5914231 167.9353,33.3719704 C167.695298,37.1525178 164.436815,40.0215654 160.65745,39.7814888 L160.65745,39.7814888 Z M135.649813,38.1906513 C131.870448,37.9492556 129.002297,34.6897537 129.242298,30.9105255 C129.4823,27.1299781 132.740783,24.2596114 136.520148,24.5010071 C140.299514,24.7410837 143.167665,28.0005857 142.927663,31.781133 C142.687661,35.5603612 139.429178,38.430728 135.649813,38.1906513 L135.649813,38.1906513 Z M110.642176,36.5998139 C106.862811,36.3584182 103.993342,33.0989163 104.234662,29.319688 C104.474663,25.5391407 107.733146,22.6687739 111.512512,22.9088506 C115.290559,23.1502463 118.160028,26.4097482 117.920026,30.1902956 C117.678706,33.9695238 114.420223,36.8398905 110.642176,36.5998139 L110.642176,36.5998139 Z M85.6332211,35.0089765 C81.8538557,34.7675807 78.985705,31.5080788 79.2257066,27.7275315 C79.4657082,23.9483032 82.7241911,21.0779365 86.5035565,21.3180131 C90.282922,21.5594089 93.1523914,24.8189108 92.9110711,28.598139 C92.6710695,32.3786864 89.4125866,35.2490531 85.6332211,35.0089765 L85.6332211,35.0089765 Z M60.6255846,33.418139 C56.8462191,33.1767433 53.9780684,29.9172414 54.21807,26.136694 C54.4580716,22.3574658 57.7165545,19.4870991 61.4959199,19.7271757 C65.2752854,19.9685714 68.1434361,23.2280733 67.9034345,27.0073016 C67.6634329,30.7878489 64.40495,33.6582157 60.6255846,33.418139 L60.6255846,33.418139 Z M35.617948,31.8259825 C31.8385825,31.5859059 28.9691131,28.3264039 29.2104334,24.5458566 C29.450435,20.7653093 32.7089179,17.8962616 36.4882833,18.1363383 C40.2663301,18.3764149 43.1357995,21.6359168 42.8957979,25.4164641 C42.6557963,29.1970115 39.3959947,32.0673782 35.617948,31.8259825 L35.617948,31.8259825 Z M12.3312018,9.18622879 L0.284968903,185.23231 L249.852321,202.951812 L260.931954,21.9894362 L12.3312018,9.18622879 Z"/>
        <path fill="#010202" fill-opacity=".1" d="M234.785365 30.987561C235.355039 30.8754373 235.945812 30.8253114 236.552409 30.8635654 238.178354 30.9677745 239.635506 31.6326021 240.749799 32.6562255L241.752004 21.0019562 235.671524 20.6880099 234.785365 30.987561zM209.93096 29.3674395C210.453161 29.2764215 210.992505 29.2381675 211.543718 29.2737833 213.263289 29.3819496 214.790332 30.1219661 215.925724 31.2458413L216.528366 19.7023766 210.451842 19.3897493 209.93096 29.3674395zM184.735937 27.8120859C185.314842 27.6946858 185.917483 27.6432408 186.535949 27.6828139 188.144751 27.7843848 189.586079 28.4373404 190.695097 29.4411773L191.723675 18.4253536 185.641877 18.1114072 184.735937 27.8120859zM160.019731 26.1655824C160.508965 26.0877553 161.012705 26.0587351 161.528312 26.0917126 163.319093 26.2051554 164.901521 27.0032124 166.048782 28.2075528L166.36263 17.1191784 160.283469 16.8065512 160.019731 26.1655824zM134.958951 24.5846382C135.465328 24.5002157 135.986211 24.465919 136.52028 24.5002157 138.275457 24.6123394 139.827555 25.3800569 140.96954 26.5435052L141.400752 15.8337132 135.324228 15.5210859 134.958951 24.5846382zM109.727006 23.0364078C110.301954 22.9216459 110.899321 22.8702009 111.512512 22.9097739 113.129226 23.0126639 114.577147 23.670896 115.687484 24.6839666L116.600018 14.5558987 110.519538 14.2432715 109.727006 23.0364078zM84.9190187 21.4074483C85.4319891 21.3203875 85.9621024 21.2834527 86.504084 21.3190684 88.2421174 21.4285539 89.783666 22.1830805 90.9230141 23.3293804L91.3832369 13.2580339 85.3067135 12.9440876 84.9190187 21.4074483zM59.7125236 19.8543372C60.2874724 19.7395753 60.8835203 19.6881303 61.4953925 19.7277033 63.1134251 19.8305933 64.5626653 20.4901445 65.674321 21.5032151L66.5288321 11.977977 60.4483526 11.6640307 59.7125236 19.8543372zM34.9372402 18.219046C35.4396611 18.1359425 35.9579062 18.102965 36.4880196 18.1372616 38.2497894 18.2493853 39.8084809 19.0223793 40.9517852 20.1937422L41.3131062 10.6790569 35.2352641 10.3664297 34.9372402 18.219046z"/>
        <path fill="#16A0DB" d="M37.2655192,0.452320197 L37.2655192,0.452320197 C35.5868269,0.389003284 34.1731912,1.69887192 34.1098941,3.37808922 L33.3147241,24.3518166 C33.2501083,26.0310339 34.5595674,27.4437926 36.2382597,27.5084286 L36.2382597,27.5084286 C37.9182707,27.5717455 39.3305877,26.2618768 39.3938848,24.5826596 L40.1903736,3.60893213 C40.2536707,1.92971483 38.9442115,0.51563711 37.2655192,0.452320197"/>
        <path fill="#010202" fill-opacity=".1" d="M35.5236616,24.4351839 L36.3188317,3.46145649 C36.3689419,2.17269349 37.2142222,1.10817789 38.3628011,0.708489874 C38.0238978,0.560750411 37.6559833,0.467094143 37.2656511,0.452584018 C35.5869587,0.387948002 34.1733231,1.69781664 34.110026,3.37835304 L33.3148559,24.3507614 C33.2502401,26.0312978 34.5596993,27.4440564 36.2383916,27.5073733 C36.6300425,27.5232025 37.0032318,27.4572474 37.3513659,27.33589 C36.2370729,26.8491412 35.4748701,25.7239469 35.5236616,24.4351839"/>
        <path fill="#16A0DB" d="M62.9703472,2.0877433 L62.9703472,2.0877433 C61.2969296,1.93736563 59.8186782,3.17204543 59.6683475,4.84730542 L57.7918517,25.7511204 C57.641521,27.4250613 58.8771335,28.903775 60.5505511,29.0541527 L60.5505511,29.0541527 C62.2239687,29.2045304 63.7022201,27.9698506 63.8525508,26.2959097 L65.7290466,5.39077559 C65.8793773,3.7168347 64.6437648,2.23812096 62.9703472,2.0877433"/>
        <path fill="#010202" fill-opacity=".1" d="M59.9941958,25.9487219 L61.8706916,5.04490695 C61.9854177,3.76010126 62.8847642,2.74043514 64.0518048,2.40010673 C63.7221323,2.23521894 63.3594926,2.12309524 62.9704791,2.08747947 C61.2970615,1.93710181 59.81881,3.17310071 59.6684794,4.8470416 L57.7919835,25.7508566 C57.6416529,27.4247975 58.8772654,28.9035112 60.550683,29.0538889 C60.9396965,29.0895047 61.3155231,29.042017 61.6702507,28.939127 C60.5823315,28.3969759 59.8794698,27.2335276 59.9941958,25.9487219"/>
        <path fill="#16A0DB" d="M87.3870788,3.63848002 L87.3870788,3.63848002 C85.7083865,3.56197209 84.28552,4.8599688 84.209036,6.5391861 L83.2490297,27.506318 C83.1725457,29.1855353 84.4714553,30.6088467 86.1488289,30.6853547 C87.8275213,30.7618626 89.2503877,29.4638659 89.3281904,27.7846486 L90.2868781,6.81751669 C90.3633621,5.1382994 89.0657711,3.71498796 87.3870788,3.63848002"/>
        <path fill="#010202" fill-opacity=".1" d="M85.4580991,27.6070974 L86.4181054,6.64128462 C86.4761278,5.35252162 87.3306389,4.29460153 88.4818552,3.90414724 C88.1442706,3.75376957 87.7776748,3.65615599 87.3873425,3.63900766 C85.7086502,3.56118062 84.2857837,4.86049644 84.2092997,6.53971374 L83.2492934,27.5055265 C83.1728094,29.1847438 84.4704003,30.6080553 86.1490927,30.6858823 C86.5407436,30.7030307 86.9139328,30.6397137 87.2633857,30.5209945 C86.1530487,30.0263311 85.3987581,28.8958604 85.4580991,27.6070974"/>
        <path fill="#16A0DB" d="M112.991159,5.26994581 L112.991159,5.26994581 C111.317741,5.11956814 109.838171,6.35424795 109.68784,8.02818883 L107.804751,28.9320038 C107.653102,30.6059447 108.887396,32.0846585 110.560813,32.2350361 C112.234231,32.3867329 113.713801,31.1520531 113.864132,29.4781122 L115.74854,8.57429721 C115.89887,6.90035632 114.664576,5.42032348 112.991159,5.26994581"/>
        <path fill="#010202" fill-opacity=".1" d="M110.006568,29.1300011 L111.889657,8.2261861 C112.005702,6.94269951 112.906367,5.92303339 114.073408,5.58270498 C113.742417,5.41781719 113.381095,5.30569349 112.990763,5.27007772 C111.317346,5.11970005 109.839094,6.35437986 109.688764,8.02832074 L107.804356,28.9308166 C107.654025,30.6060766 108.888319,32.0847904 110.561736,32.235168 C110.95075,32.2707838 111.327895,32.2246152 111.681304,32.1217252 C110.593385,31.5782551 109.890523,30.4148068 110.006568,29.1300011"/>
        <path fill="#16A0DB" d="M137.329297,6.81725287 L137.329297,6.81725287 C135.650604,6.74997865 134.234331,8.05588998 134.167078,9.73510728 L133.321798,30.7075156 C133.254545,32.3867329 134.560048,33.8021297 136.23874,33.870723 L136.23874,33.870723 C137.917432,33.9379973 139.333705,32.6320859 139.400959,30.9515495 L140.246239,9.98046032 C140.314811,8.30124302 139.007989,6.88452709 137.329297,6.81725287"/>
        <path fill="#010202" fill-opacity=".1" d="M135.531131,30.7958955 L136.376411,9.82480624 C136.42784,8.53604324 137.275758,7.47416585 138.425655,7.07579693 C138.086752,6.92805747 137.720156,6.8330821 137.329824,6.81725287 C135.651132,6.74997865 134.234859,8.05588998 134.166287,9.73510728 L133.322325,30.7061965 C133.253753,32.3867329 134.560575,33.8021297 136.239267,33.870723 C136.6296,33.8865523 137.004108,33.8205972 137.352242,33.7005588 C136.239267,33.2111719 135.479702,32.0846585 135.531131,30.7958955"/>
        <path fill="#16A0DB" d="M162.173943,8.40255008 L162.173943,8.40255008 C160.493932,8.3550624 159.094802,9.67812206 159.047329,11.3586585 L158.455237,32.3389814 C158.407765,34.0195178 159.730411,35.4190854 161.410422,35.4665731 C163.090433,35.5140608 164.489563,34.1910011 164.537036,32.5104647 L165.129127,11.5301418 C165.1766,9.85092447 163.853954,8.45003777 162.173943,8.40255008"/>
        <path fill="#010202" fill-opacity=".1" d="M160.665494,32.401243 L161.257585,11.4209201 C161.29319,10.1321571 162.129239,9.05972687 163.272544,8.64816694 C162.93364,8.50438478 162.565726,8.41336672 162.174075,8.4028139 C160.494064,8.35532622 159.094934,9.67838588 159.047461,11.3589223 L158.455369,32.3392452 C158.407896,34.0184625 159.730542,35.4193492 161.410553,35.4668369 C161.802204,35.4773897 162.174075,35.4074773 162.522209,35.2834817 C161.402641,34.8086048 160.62857,33.690006 160.665494,32.401243"/>
        <path fill="#16A0DB" d="M188.059168,10.0468112 L188.059168,10.0468112 C186.38575,9.88983799 184.903543,11.1205605 184.746619,12.7945014 L182.794957,33.6917209 C182.639352,35.3643426 183.868371,36.8483328 185.541789,37.0039869 L185.541789,37.0039869 C187.213888,37.16096 188.697414,35.9315567 188.853019,34.2576158 L190.805999,13.3603963 C190.961604,11.6864554 189.732585,10.2037843 188.059168,10.0468112"/>
        <path fill="#010202" fill-opacity=".1" d="M184.996774,33.8969732 L186.948435,12.9997537 C187.068436,11.7162671 187.971739,10.6992392 189.140098,10.3628681 C188.810426,10.1979803 188.449104,10.0832184 188.058772,10.0462835 C186.386673,9.89062945 184.903147,11.1200328 184.747542,12.7939737 L182.795881,33.6911932 C182.638956,35.3651341 183.867976,36.8478051 185.541393,37.0047783 C185.930407,37.0403941 186.307552,36.9955446 186.66228,36.8939737 C185.575679,36.3465463 184.876773,35.1804598 184.996774,33.8969732"/>
        <path fill="#16A0DB" d="M212.513218,11.597416 L212.513218,11.597416 C210.835845,11.5103552 209.403747,12.7991182 209.316714,14.4783355 L208.22352,35.4375528 C208.136486,37.1167701 209.424846,38.5479962 211.103539,38.636376 C212.780912,38.7234368 214.21301,37.4333547 214.300043,35.7554565 L215.393237,14.7949201 C215.480271,13.1170219 214.190592,11.6844767 212.513218,11.597416"/>
        <path fill="#010202" fill-opacity=".1" d="M210.431666,35.5531062 L211.52486,14.5938889 C211.592113,13.3051259 212.451899,12.2524822 213.605753,11.8699425 C213.269487,11.7169267 212.90421,11.617994 212.513878,11.5968883 C210.835185,11.5098276 209.404407,12.7999097 209.316055,14.4778079 L208.224179,35.4383443 C208.135827,37.1162425 209.425506,38.5474685 211.102879,38.6358484 C211.49453,38.6556349 211.86772,38.5949562 212.218491,38.4788752 C211.110792,37.9776163 210.364413,36.8405501 210.431666,35.5531062"/>
        <path fill="#16A0DB" d="M237.977122,13.21978 L237.977122,13.21978 C236.302385,13.0759978 234.829409,14.315954 234.684353,15.991214 L232.88566,36.9016245 C232.740604,38.5768845 233.981491,40.0503218 235.654909,40.1954231 C237.329645,40.3392053 238.80394,39.0979299 238.947678,37.4239891 L240.747689,16.5135785 C240.891427,14.8383186 239.650539,13.3635621 237.977122,13.21978"/>
        <path fill="#010202" fill-opacity=".1" d="M235.088136,37.0915753 L236.888148,16.1811648 C236.998917,14.8963591 237.894308,13.8727356 239.06003,13.5284499 C238.729039,13.3648812 238.366399,13.2527575 237.977385,13.21978 C236.302649,13.0759978 234.829672,14.315954 234.684617,15.991214 L232.884605,36.9016245 C232.740868,38.5768845 233.981755,40.0503218 235.655172,40.1954231 C236.045505,40.2284007 236.421331,40.180913 236.77474,40.0753848 C235.685502,39.537191 234.977366,38.376381 235.088136,37.0915753"/>
        <polygon fill="#6B7482" fill-opacity=".2" points="122.338 69.158 24.909 64.437 24.029 43.434 125.683 51.378"/>
        <polygon fill="#44B9BC" points="52.198 149.363 25.735 146.704 24.271 169.721 50.766 171.895"/>
        <polygon fill="#44B9BC" points="86.368 129.942 58.279 127.889 56.297 171.549 83.612 173.286"/>
        <polygon fill="#44B9BC" points="123.454 100.967 94.601 98.433 89.862 172.986 118.67 176.215"/>
        <polygon fill="#44B9BC" points="156.65 120.696 127.797 118.162 124.963 175.219 152.28 176.956"/>
        <polygon fill="#44B9BC" points="192.862 92.981 165.414 93.329 159.23 178.097 188.128 179.936"/>
        <polygon fill="#2D9CA3" points="230.323 82.185 201.526 79.655 195.122 180.38 224.755 182.265"/>
        <path fill="#E9507E" d="M31.9020115,143.261111 C30.9235435,143.261111 29.9872737,142.700493 29.5534247,141.750739 C28.9626516,140.454061 29.5336443,138.923903 30.8299165,138.331626 L71.3321603,119.845725 L109.466037,85.6466776 L142.70098,107.306338 L178.471764,80.8253585 L216.148055,69.3531253 C217.515537,68.9376081 218.952909,69.7079639 219.368296,71.0705966 C219.782365,72.4345484 219.013569,73.8763273 217.651362,74.2905255 L180.825626,85.5028955 L142.888234,113.587904 L109.964502,92.1300657 L74.1897615,124.214592 L32.9714691,143.02763 C32.6233349,143.185922 32.2606952,143.261111 31.9020115,143.261111"/>
        <path fill="#E9507E" d="M210.985516,63.0649644 L222.666472,69.8161303 C222.860319,69.9348495 222.93021,70.19867 222.822077,70.3978544 L216.062472,82.0758675 C215.95434,82.2763711 215.68269,82.3489217 215.488842,82.2288834 L211.932335,80.1710837 C211.741125,80.0602791 211.668597,79.7885441 211.779367,79.5972742 L216.265551,71.8383142 L208.507698,67.3494089 C208.317806,67.2399234 208.245278,66.9668692 208.35473,66.7769184 L210.413205,63.2179803 C210.479139,63.1296004 210.560898,63.0570498 210.674305,63.0280296 C210.786394,62.9976902 210.883977,63.021434 210.985516,63.0649644"/>
        <path fill="#FEFEFE" d="M67.39864,121.688511 C67.2100673,124.651215 69.4584337,127.204997 72.4202114,127.393629 C75.3819891,127.582261 77.9349728,125.333191 78.1235455,122.370487 C78.3121182,119.407783 76.0637518,116.854001 73.1019741,116.665369 C70.1401964,116.476738 67.5872126,118.725807 67.39864,121.688511"/>
        <path fill="#E9507E" d="M72.7551586,118.129309 C70.7072331,118.129309 68.9995296,119.733338 68.870298,121.781904 C68.8043635,122.822675 69.1459042,123.825193 69.8342604,124.607421 C70.5226165,125.38833 71.4747107,125.856611 72.5138384,125.922566 C74.663303,126.062391 76.5173811,124.410875 76.6532062,122.276567 C76.7191407,121.237114 76.3762813,120.234597 75.6879251,119.452369 C74.999569,118.670141 74.0474748,118.203179 73.0083471,118.137224 C72.923951,118.131947 72.8395548,118.129309 72.7551586,118.129309 M72.7670268,128.878674 L72.7670268,128.878674 C72.6206523,128.878674 72.4742777,128.874717 72.3265844,128.865483 C70.5015175,128.749402 68.8307373,127.928921 67.6214986,126.555735 C66.4135786,125.18255 65.8122559,123.421548 65.9283007,121.594591 C66.1643462,117.852298 69.40173,114.947634 73.1956011,115.194307 C75.020668,115.310388 76.6927669,116.130869 77.9006869,117.504055 C79.1086069,118.87724 79.7112482,120.638242 79.5952035,122.46388 C79.3657515,126.062391 76.3670505,128.878674 72.7670268,128.878674"/>
        <path fill="#FEFEFE" d="M104.352685,88.5477794 C104.164112,91.5104833 106.412478,94.0642655 109.374256,94.2528971 C112.336034,94.4415287 114.889017,92.1924592 115.07759,89.2297553 C115.266163,86.2670515 113.017796,83.7132693 110.056019,83.5246377 C107.094241,83.336006 104.541257,85.5850755 104.352685,88.5477794"/>
        <path fill="#E9507E" d="M109.709599,84.9884455 C107.661673,84.9884455 105.95397,86.5937931 105.82342,88.64104 C105.757485,89.6818117 106.100344,90.6843295 106.788701,91.4665572 C107.475738,92.2474658 108.427832,92.7157471 109.468279,92.7817022 C111.609831,92.9320799 113.470503,91.2700109 113.606328,89.1357033 C113.743472,86.9895238 112.108296,85.1335468 109.962787,84.9963602 C109.878391,84.9910837 109.793995,84.9884455 109.709599,84.9884455 M109.721467,95.7378106 L109.720148,95.7378106 C109.575093,95.7378106 109.428718,95.7338533 109.281025,95.7246196 C107.455958,95.6085386 105.783859,94.7880569 104.575939,93.4148714 C103.3667,92.0416858 102.765377,90.2806842 102.881422,88.4537274 C103.120105,84.7101149 106.381225,81.8186426 110.150041,82.0534428 C113.917539,82.2935194 116.788327,85.5543404 116.548325,89.3230159 C116.320192,92.920208 113.321491,95.7378106 109.721467,95.7378106"/>
        <path fill="#FEFEFE" d="M137.51154,108.856284 C137.322967,111.818987 139.571333,114.37277 142.533111,114.561401 C145.494889,114.750033 148.047872,112.500963 148.236445,109.538259 C148.425018,106.575556 146.176651,104.021773 143.214874,103.833142 C140.253096,103.64451 137.700112,105.89358 137.51154,108.856284"/>
        <path fill="#E9507E" d="M142.86819,105.297345 C140.820265,105.297345 139.112561,106.901374 138.983329,108.94994 C138.846186,111.096119 140.481361,112.953415 142.62687,113.090602 C144.782928,113.243618 146.629094,111.578911 146.766238,109.444603 C146.832172,108.405151 146.489313,107.401314 145.800957,106.620405 C145.1126,105.838177 144.161825,105.371215 143.121379,105.30526 C143.036982,105.299984 142.952586,105.297345 142.86819,105.297345 M142.880058,116.04671 L142.87874,116.04671 C142.733684,116.04671 142.587309,116.042753 142.439616,116.033519 C138.6708,115.793443 135.80133,112.531303 136.041332,108.762627 C136.278696,105.019015 139.527948,102.11699 143.308632,102.362343 C145.133699,102.478424 146.805798,103.297586 148.013718,104.670772 C149.221638,106.045276 149.82428,107.806278 149.708235,109.631916 C149.478783,113.230427 146.480082,116.04671 142.880058,116.04671"/>
        <path fill="#FEFEFE" d="M174.410199,82.830526 C174.221627,85.7932299 176.469993,88.347012 179.431771,88.5356437 C182.393548,88.7242753 184.946532,86.4752058 185.135105,83.5125019 C185.323677,80.549798 183.075311,77.9960159 180.113533,77.8073842 C177.151756,77.6187526 174.598772,79.8678221 174.410199,82.830526"/>
        <path fill="#E9507E" d="M179.767113,79.2711921 C177.719188,79.2711921 176.011484,80.8765397 175.880934,82.9237865 C175.815,83.9645583 176.157859,84.9670761 176.846215,85.7493038 C177.533253,86.5315315 178.485347,86.9984937 179.525793,87.0644488 C181.675258,87.2069119 183.529336,85.5527575 183.663842,83.4184499 C183.729777,82.3789973 183.386917,81.3764795 182.69988,80.5942518 C182.011524,79.8120241 181.05943,79.3450619 180.020302,79.2791067 C179.935906,79.2738303 179.85151,79.2711921 179.767113,79.2711921 M179.778982,90.0205572 L179.777663,90.0205572 C179.632607,90.0205572 179.486232,90.0165999 179.338539,90.0073662 C177.513472,89.8912852 175.841373,89.0708035 174.633453,87.6989371 C173.424215,86.3244324 172.822892,84.5634308 172.938937,82.736474 C173.17762,78.9928615 176.421597,76.0974319 180.207556,76.3361894 C182.032623,76.4522704 183.704722,77.2727521 184.912642,78.6459376 C186.120562,80.0191232 186.721884,81.7801248 186.60584,83.6057625 C186.377706,87.2029546 183.379005,90.0205572 179.778982,90.0205572"/>
      </g>
      <g filter="url(#c)" transform="translate(0 1.32)">
        <polygon fill="#F7AC42" points="64.438 207.69 44.821 .827 .057 7.215 24.587 255.91 68.614 251.731 280.55 230.076 277.848 187.509"/>
        <path fill="#FEFEFE" fill-opacity=".5" d="M86.9861971,219.071374 L85.7162986,205.670614 L89.3848941,205.322371 L90.6547926,218.723131 L86.9861971,219.071374 Z M107.897587,217.087181 L106.62637,203.68642 L110.296284,203.338177 L111.566182,216.738938 L107.897587,217.087181 Z M128.808318,215.102855 L127.538419,201.702094 L131.207015,201.353851 L132.476913,214.754612 L128.808318,215.102855 Z M149.719576,213.118661 L148.448359,199.7179 L152.118273,199.369657 L153.388171,212.770418 L149.719576,213.118661 Z M170.630966,211.134467 L169.359748,197.733707 L173.029663,197.385464 L174.299561,210.786224 L170.630966,211.134467 Z M191.541696,209.150274 L190.271798,195.749513 L193.940393,195.40127 L195.210292,208.802031 L191.541696,209.150274 Z M212.453086,207.165948 L211.181869,193.765187 L214.851783,193.416944 L216.123,206.817705 L212.453086,207.165948 Z M233.363685,205.181754 L232.093786,191.780993 L235.762382,191.43275 L237.033599,204.833511 L233.363685,205.181754 Z M254.275075,203.19756 L253.003858,189.7968 L256.673772,189.448557 L257.94367,202.849317 L254.275075,203.19756 Z M49.2328944,189.883201 L48.8847603,186.213458 L62.280013,184.941843 L62.6281471,188.611586 L49.2328944,189.883201 Z M47.249321,168.965271 L46.9011868,165.29421 L60.2964395,164.023914 L60.6445737,167.694976 L47.249321,168.965271 Z M45.2656157,148.047342 L44.9174815,144.377599 L58.3127342,143.105985 L58.6608684,146.777047 L45.2656157,148.047342 Z M43.2820422,127.130204 L42.933908,123.460461 L56.3291608,122.188847 L56.6772949,125.858589 L43.2820422,127.130204 Z M41.2984687,106.212275 L40.9503346,102.541213 L54.3455873,101.270917 L54.6937215,104.941979 L41.2984687,106.212275 Z M39.3148953,85.2950049 L38.9667611,81.6239431 L52.3620139,80.3536475 L52.710148,84.0233903 L39.3148953,85.2950049 Z M37.33119,64.3770755 L36.9830558,60.7073328 L50.3783085,59.4357181 L50.7264427,63.10678 L37.33119,64.3770755 Z M35.3476165,43.4599376 L34.9994824,39.7901949 L48.3947351,38.5185802 L48.7428692,42.1883229 L35.3476165,43.4599376 Z M33.3640431,22.5420082 L33.0159089,18.8709464 L46.4111616,17.6006508 L46.7592958,21.2717126 L33.3640431,22.5420082 Z"/>
        <polygon fill="#FEFEFE" fill-opacity=".3" points="64.438 207.69 44.821 .827 40.703 1.217 60.71 212.2 64.828 211.809 277.501 191.63 277.848 187.509"/>
        <polygon fill="#010202" fill-opacity=".07" points="40.381 236.799 18.243 3.348 .057 7.215 24.587 255.908 42.036 254.253 280.55 230.077 279.632 214.097"/>
      </g>
      <g filter="url(#d)" transform="translate(287.474 143.782)">
        <polygon fill="#44B9BC" points="55.192 1.087 72.564 8.84 60.093 36.799 42.722 29.045"/>
        <polygon fill="#44B9BC" points="4.428 120.25 17.817 126.225 14.732 133.139 1.345 127.163"/>
        <polygon fill="#FEFEFE" points="42.722 29.045 60.093 36.799 18.266 130.571 .895 122.818"/>
        <polygon fill="#010202" fill-opacity=".1" points="66.85 6.656 72.003 8.957 17.979 130.077 12.826 127.776"/>
        <polygon fill="#010202" fill-opacity=".1" points="10.698 127.193 16.274 129.682 14.733 133.14 9.156 130.65"/>
        <polygon fill="#E73D2F" points="44.06 45.555 38.739 43.181 8.751 110.412 14.072 112.787"/>
        <polygon fill="#010202" fill-opacity=".1" points="55.316 1.509 56.064 1.842 2.038 122.962 1.292 122.629"/>
        <polygon fill="#010202" fill-opacity=".1" points="2.886 123.707 3.828 124.127 2.286 127.583 1.345 127.164"/>
        <polygon fill="#010202" fill-opacity=".1" points="16.275 129.682 15.854 130.624 2.465 124.649 2.886 123.707"/>
      </g>
      <g filter="url(#e)" transform="translate(305.767 34.297)">
        <polygon fill="#E9507E" points=".03 9.442 16.883 .62 31.075 27.746 14.22 36.568"/>
        <polygon fill="#E9507E" points="61.994 123.181 74.983 116.381 78.492 123.089 65.503 129.889"/>
        <polygon fill="#FEFEFE" points="14.221 36.568 31.074 27.746 78.671 118.724 61.817 127.547"/>
        <polygon fill="#010202" fill-opacity=".1" points="11.645 3.783 16.633 1.172 78.074 118.616 73.087 121.226"/>
        <polygon fill="#010202" fill-opacity=".1" points="71.327 122.568 76.738 119.736 78.493 123.089 73.083 125.921"/>
        <polygon fill="#E73D2F" points="27.998 45.757 22.837 48.459 56.961 113.687 62.122 110.985"/>
        <polygon fill="#010202" fill-opacity=".1" points=".508 9.613 1.207 9.247 62.648 126.691 61.95 127.056"/>
        <polygon fill="#010202" fill-opacity=".1" points="63.749 126.535 64.663 126.056 66.418 129.411 65.504 129.888"/>
        <polygon fill="#010202" fill-opacity=".1" points="76.738 119.735 77.217 120.65 64.226 127.45 63.749 126.535"/>
      </g>
    </g>
  </g>
</svg>
