<?xml version="1.0" encoding="UTF-8" standalone="no"?>
<svg width="472px" height="437px" viewBox="0 0 472 437" version="1.1" xmlns="http://www.w3.org/2000/svg" xmlns:xlink="http://www.w3.org/1999/xlink">
    <!-- Generator: Sketch 3.8.3 (29802) - http://www.bohemiancoding.com/sketch -->
    <title>chat</title>
    <desc>Created with Sketch.</desc>
    <defs>
        <filter x="-50%" y="-50%" width="200%" height="200%" filterUnits="objectBoundingBox" id="filter-1">
            <feOffset dx="0" dy="0" in="SourceAlpha" result="shadowOffsetOuter1"></feOffset>
            <feGaussianBlur stdDeviation="5" in="shadowOffsetOuter1" result="shadowBlurOuter1"></feGaussianBlur>
            <feColorMatrix values="0 0 0 0 0   0 0 0 0 0   0 0 0 0 0  0 0 0 0.2 0" type="matrix" in="shadowBlurOuter1" result="shadowMatrixOuter1"></feColorMatrix>
            <feMerge>
                <feMergeNode in="shadowMatrixOuter1"></feMergeNode>
                <feMergeNode in="SourceGraphic"></feMergeNode>
            </feMerge>
        </filter>
        <filter x="-50%" y="-50%" width="200%" height="200%" filterUnits="objectBoundingBox" id="filter-2">
            <feOffset dx="0" dy="0" in="SourceAlpha" result="shadowOffsetOuter1"></feOffset>
            <feGaussianBlur stdDeviation="5" in="shadowOffsetOuter1" result="shadowBlurOuter1"></feGaussianBlur>
            <feColorMatrix values="0 0 0 0 0   0 0 0 0 0   0 0 0 0 0  0 0 0 0.2 0" type="matrix" in="shadowBlurOuter1" result="shadowMatrixOuter1"></feColorMatrix>
            <feMerge>
                <feMergeNode in="shadowMatrixOuter1"></feMergeNode>
                <feMergeNode in="SourceGraphic"></feMergeNode>
            </feMerge>
        </filter>
    </defs>
    <g id="Website" stroke="none" stroke-width="1" fill="none" fill-rule="evenodd">
        <g id="Illustrations" transform="translate(-1829.000000, -592.000000)">
            <g id="chat" transform="translate(1839.000000, 602.000000)">
                <g id="icons" opacity="0.1" transform="translate(47.000000, 30.000000)" fill="#000000">
                    <path d="M162.247248,342.323739 C161.042035,337.039345 161.227453,335.277881 156.313894,331.754952 C151.863878,328.602857 146.301358,326.099723 144.539894,324.152841 C143.149264,322.576794 141.665926,320.537204 144.169059,317.570527 C150.565957,310.153834 151.214917,303.571519 148.526366,297.638165 C145.930524,291.982937 140.182587,290.036055 135.639863,290.036055 C131.097138,290.036055 125.349201,291.982937 122.753359,297.638165 C121.826272,299.770464 121.27002,301.995472 121.27002,304.313188 C127.203375,305.147566 133.600272,308.392369 136.845075,315.530936 C139.533626,321.371582 141.016965,330.45703 132.951312,341.118526 C133.785689,341.674778 134.898193,342.323739 135.82528,342.787282 C137.586745,343.899786 139.626335,345.01229 141.573217,346.40292 C155.85035,346.217502 159.929531,345.383124 160.207657,345.383124 C160.949327,345.290416 161.505579,344.826873 161.876413,344.270621 C162.247248,343.714369 162.432665,342.972699 162.247248,342.323739 L162.247248,342.323739 Z M99.8543201,342.787282 L99.9470288,342.787282 C100.874115,342.23103 101.893911,341.674778 102.728289,341.118526 C94.6626352,330.45703 96.1459738,321.278873 98.7418162,315.530936 C102.079328,308.392369 108.476225,305.147566 114.40958,304.313188 C114.40958,301.995472 113.853328,299.770464 112.926241,297.638165 C110.330399,291.982937 104.582462,290.036055 100.039737,290.036055 C95.4970132,290.036055 89.7490763,291.982937 87.1532338,297.638165 C84.4646827,303.571519 85.1136433,310.153834 91.5105408,317.570527 C94.0136746,320.537204 92.5303361,322.576794 91.1397062,324.152841 C89.3782416,326.099723 83.7230134,328.602857 79.3657064,331.754952 C74.3594388,335.277881 74.6375648,337.039345 73.4323522,342.323739 C73.2469349,342.972699 73.3396436,343.714369 73.8031869,344.270621 C74.1740215,344.826873 74.7302735,345.290416 75.4719427,345.383124 C75.6573601,345.383124 79.8292497,346.217502 94.1063833,346.40292 C96.0532651,345.01229 98.0928556,343.899786 99.8543201,342.787282 L99.8543201,342.787282 Z M117.8398,367.169659 C136.937784,367.169659 142.129469,366.149864 142.407595,366.149864 C143.149264,366.057155 143.705516,365.593612 144.076351,365.03736 C144.447185,364.481108 144.632603,363.739439 144.447185,363.090478 C143.241973,357.806085 143.42739,356.04462 138.513831,352.521691 C134.063815,349.369597 128.501296,346.866463 126.739831,344.919581 C125.349201,343.343534 123.865863,341.303943 126.368997,338.337266 C132.765894,330.920574 133.414855,324.338259 130.726304,318.404905 C128.130461,312.749676 122.382524,310.802795 117.8398,310.802795 C113.297076,310.802795 107.549139,312.749676 104.953296,318.404905 C102.264745,324.338259 102.913706,330.920574 109.310603,338.337266 C111.813737,341.303943 110.330399,343.343534 108.939769,344.919581 C107.178304,346.866463 101.523076,349.369597 97.165769,352.521691 C92.1595014,356.04462 92.4376274,357.806085 91.2324148,363.090478 C91.0469975,363.739439 91.1397062,364.481108 91.6032495,365.03736 C91.9740841,365.593612 92.5303361,366.057155 93.2720053,366.149864 C93.5501313,366.149864 98.6491076,367.169659 117.8398,367.169659 L117.8398,367.169659 Z" id="usergroup" transform="translate(117.841231, 331.569534) rotate(-14.000000) translate(-117.841231, -331.569534) "></path>
                    <path d="M72.0736784,232.262768 C72.9736816,232.262768 73.948685,231.887766 74.6236874,231.212764 L79.4237043,226.412747 C80.8487093,224.987742 80.8487093,222.737734 79.4237043,221.312729 C77.9986993,219.887724 75.7486914,219.887724 74.3236863,221.312729 L69.5236695,226.112746 C68.0986645,227.537751 68.0986645,229.787759 69.5236695,231.212764 C70.1986718,231.887766 71.1736753,232.262768 72.0736784,232.262768 L72.0736784,232.262768 Z M24.0735096,232.262768 C24.9735128,232.262768 25.9485162,231.887766 26.6235186,231.212764 C28.0485236,229.787759 28.0485236,227.537751 26.6235186,226.112746 L21.8235017,221.312729 C20.3984967,219.887724 18.1484888,219.887724 16.7234838,221.312729 C15.2984788,222.737734 15.2984788,224.987742 16.7234838,226.412747 L21.5235007,231.212764 C22.198503,231.887766 23.1735065,232.262768 24.0735096,232.262768 L24.0735096,232.262768 Z M57.9736289,271.862907 C58.0486291,270.962904 58.1236294,270.437902 58.1236294,270.437902 C58.7236315,266.687889 60.4486376,263.912879 64.1986507,259.262863 C67.8736637,254.612846 69.67367,250.862833 69.67367,245.462814 C69.67367,233.762773 60.2236368,223.862738 48.073594,223.862738 C35.9235513,223.862738 26.4735181,233.762773 26.4735181,245.462814 C26.4735181,250.862833 28.2735244,254.612846 31.9485373,259.262863 C35.6235503,263.912879 37.3485563,266.687889 38.0235587,270.437902 C38.0235587,270.437902 38.0235587,270.962904 38.098559,271.862907 L57.9736289,271.862907 Z M76.8736953,270.662903 C77.7736985,270.662903 78.7487019,270.287901 79.4237043,269.612899 C80.8487093,268.187894 80.8487093,265.937886 79.4237043,264.512881 L74.6236874,259.712864 C73.1986824,258.287859 70.9486745,258.287859 69.5236695,259.712864 C68.0986645,261.137869 68.0986645,263.387877 69.5236695,264.812882 L74.3236863,269.612899 C74.9986887,270.287901 75.9736922,270.662903 76.8736953,270.662903 L76.8736953,270.662903 Z M19.2734928,270.662903 C20.1734959,270.662903 21.1484994,270.287901 21.8235017,269.612899 L26.6235186,264.812882 C28.0485236,263.387877 28.0485236,261.137869 26.6235186,259.712864 C25.1985136,258.287859 22.9485057,258.287859 21.5235007,259.712864 L16.7234838,264.512881 C15.2984788,265.937886 15.2984788,268.187894 16.7234838,269.612899 C17.3984862,270.287901 18.3734896,270.662903 19.2734928,270.662903 L19.2734928,270.662903 Z M48.073594,291.062974 C52.9486112,291.062974 54.7486175,288.587966 56.1736225,283.937949 C56.6986244,282.137943 57.148626,279.287933 57.448627,276.662924 L38.6235608,276.662924 C38.9235619,279.287933 39.3735634,282.137943 39.9735656,283.937949 C41.3235703,288.587966 43.1985769,291.062974 48.073594,291.062974 L48.073594,291.062974 Z" id="lightbulbon" transform="translate(49.864099, 255.653475) rotate(47.000000) translate(-49.864099, -255.653475) "></path>
                    <path d="M287.440157,89.524055 C288.840162,89.0865535 289.715165,87.6865485 289.365164,86.1990433 C287.615158,77.9740144 283.065142,73.598999 276.85262,69.6614851 C275.102614,68.6114814 273.002606,67.7364784 270.727598,66.773975 C266.440083,65.1114691 261.627566,63.1864624 260.577563,59.948951 C259.965061,57.8489436 260.840064,54.9614334 263.202572,51.2864205 C270.465097,39.5613793 271.777602,29.4113436 267.052585,21.273815 C263.377573,14.9737928 257.165051,11.2112796 250.252526,11.2112796 C243.427502,11.2112796 237.12748,14.9737928 233.452467,21.273815 C228.727451,29.4113436 230.039955,39.5613793 237.389981,51.2864205 C239.752489,54.9614334 240.627493,57.8489436 239.92749,59.948951 C238.877486,63.1864624 234.064969,65.1114691 229.864955,66.773975 C227.502446,67.7364784 225.314939,68.6114814 223.652433,69.6614851 C217.439911,73.598999 212.889895,77.9740144 211.139889,86.1990433 C210.789888,87.6865485 211.664891,89.0865535 213.064896,89.524055 C213.414897,89.6115553 223.039931,92.4115651 250.252526,92.4115651 C263.815074,92.4115651 273.002606,91.7115627 278.865127,91.0115602 C284.727648,90.3115578 287.265157,89.524055 287.440157,89.524055 L287.440157,89.524055 Z" id="user" transform="translate(251.657545, 51.811422) rotate(18.000000) translate(-251.657545, -51.811422) "></path>
                </g>
                <g id="Group-5" filter="url(#filter-1)" transform="translate(180.000000, 139.000000)">
                    <path d="M135.749305,267.837246 C63.4548443,267.837246 4.64150321,208.983493 4.64150321,136.639357 C4.64150321,64.2984191 63.4548443,5.44466605 135.749305,5.44466605 C208.04057,5.44466605 266.853911,64.2984191 266.853911,136.639357 C266.853911,208.983493 208.04057,267.837246 135.749305,267.837246" id="Fill-2" fill="#ED4F7E"></path>
                    <path d="M135.749305,0.881469753 C60.821888,0.881469753 0.0833574344,61.663334 0.0833574344,136.640636 C0.0833574344,211.617939 60.821888,272.399803 135.749305,272.399803 C210.675124,272.399803 271.415252,211.617939 271.415252,136.640636 C271.415252,61.663334 210.675124,0.881469753 135.749305,0.881469753 M135.749305,10.0056241 C205.529037,10.0056241 262.297363,66.8129574 262.297363,136.640636 C262.297363,206.466717 205.529037,263.275649 135.749305,263.275649 C65.9695732,263.275649 9.20124665,206.466717 9.20124665,136.640636 C9.20124665,66.8129574 65.9695732,10.0056241 135.749305,10.0056241" id="Fill-4" fill="#FEFEFE"></path>
                    <path d="M64.1030181,233.306311 C33.6195195,211.432002 13.7605108,175.674015 13.7605108,135.273212 C13.7605108,68.6958235 67.6945749,14.7247 134.226248,14.7247 C172.966493,14.7247 207.436173,33.0225704 229.472802,61.4550148 C245.281724,81.8520642 83.8549831,247.479367 64.1030181,233.306311" id="Fill-6" fill-opacity="0.05" fill="#000000"></path>
                    <path d="M135.749305,272.399164 C61.9913808,272.399164 2.02452362,213.487855 0.171229155,140.126904 C0.142471137,141.287608 0.0833574344,142.443515 0.0833574344,143.612213 C0.0833574344,218.589515 60.8234857,279.37138 135.749305,279.37138 C210.675124,279.37138 271.415252,218.589515 271.415252,143.612213 C271.415252,142.443515 271.356139,141.287608 271.325783,140.126904 C269.472489,213.487855 209.507229,272.399164 135.749305,272.399164" id="Fill-8" fill-opacity="0.1" fill="#000000"></path>
                    <path d="M151.995987,200.268943 C111.851392,200.268943 96.6671592,198.163369 96.0648385,198.011486 C94.7100163,197.862801 93.6603487,196.961097 92.7576665,195.754029 C92.0067627,194.551757 91.7048035,193.04572 92.0067627,191.691566 C94.5630309,180.410677 101.629515,170.931597 112.001573,164.610078 C114.557841,163.107239 117.71643,161.90177 121.022005,160.547615 C126.887043,158.293356 133.502984,155.585048 134.70443,151.672869 C135.607113,148.513708 133.199427,143.701424 130.794938,140.238498 C119.66878,123.09014 117.71643,106.988973 125.081678,94.8031833 C130.644757,85.4775846 140.718051,79.9090846 151.995987,79.9090846 C163.120547,79.9090846 173.193841,85.4775846 178.907101,94.8031833 C186.122168,106.988973 184.16822,123.09014 173.042063,140.390381 C170.789352,143.701424 168.231486,148.513708 169.284349,151.672869 C170.485795,155.585048 177.101736,158.293356 182.966774,160.547615 C186.273946,161.90177 189.430938,163.107239 191.987206,164.610078 C202.210681,170.931597 209.577527,180.410677 211.982016,191.691566 C212.285573,193.04572 211.982016,194.551757 211.231113,195.754029 C210.480209,196.961097 209.126984,197.862801 207.77376,198.011486 C207.171439,198.163369 192.137387,200.268943 151.995987,200.268943 L151.995987,200.268943 Z M67.8005003,132.86819 L106.289911,132.86819 L106.289911,123.238825 L67.8005003,123.238825 L67.8005003,132.86819 Z M67.7989026,113.609461 L106.288314,113.609461 L106.288314,103.980097 L67.7989026,103.980097 L67.7989026,113.609461 Z" id="Fill-10" fill-opacity="0.2" fill="#010202"></path>
                    <path d="M148.956744,194.18628 C108.812149,194.18628 93.627916,192.080706 93.0255953,191.928823 C91.6707732,191.780138 90.6211055,190.878434 89.7184233,189.671366 C88.9675195,188.469094 88.6655603,186.963057 88.9675195,185.608903 C91.5237878,174.328014 98.5902717,164.848934 108.96233,158.527415 C111.518598,157.024576 114.677187,155.819107 117.982762,154.464952 C123.847799,152.210693 130.463741,149.502385 131.665187,145.590206 C132.567869,142.431045 130.160184,137.618761 127.755694,134.155835 C116.629537,117.007477 114.677187,100.90631 122.042435,88.7205204 C127.605514,79.3949216 137.678808,73.8264216 148.956744,73.8264216 C160.081304,73.8264216 170.154598,79.3949216 175.867858,88.7205204 C183.082925,100.90631 181.130575,117.007477 170.00282,134.307718 C167.750108,137.618761 165.192243,142.431045 166.245106,145.590206 C167.448149,149.502385 174.062493,152.210693 179.927531,154.464952 C183.234703,155.819107 186.391694,157.024576 188.947963,158.527415 C199.171438,164.848934 206.538283,174.328014 208.942773,185.608903 C209.24633,186.963057 208.942773,188.469094 208.191869,189.671366 C207.440966,190.878434 206.087741,191.780138 204.734517,191.928823 C204.132196,192.080706 189.098143,194.18628 148.956744,194.18628 L148.956744,194.18628 Z M64.7612571,126.785527 L103.250668,126.785527 L103.250668,117.156162 L64.7612571,117.156162 L64.7612571,126.785527 Z M64.7596595,107.526798 L103.249071,107.526798 L103.249071,97.897434 L64.7596595,97.897434 L64.7596595,107.526798 Z" id="Fill-12" fill="#FEFEFE"></path>
                </g>
                <g id="Group-6" filter="url(#filter-2)">
                    <path d="M135.803679,267.15311 C63.5092187,267.15311 4.69587755,208.299357 4.69587755,135.955222 C4.69587755,63.6142833 63.5092187,4.75893148 135.803679,4.75893148 C208.094945,4.75893148 266.908286,63.6142833 266.908286,135.955222 C266.908286,208.299357 208.094945,267.15311 135.803679,267.15311" id="Fill-15" fill="#0EA2DC"></path>
                    <path d="M135.803679,0.197333951 C60.8762624,0.197333951 0.137731778,60.9791981 0.137731778,135.956501 C0.137731778,210.933803 60.8762624,271.715667 135.803679,271.715667 C210.729499,271.715667 271.469627,210.933803 271.469627,135.956501 C271.469627,60.9791981 210.729499,0.197333951 135.803679,0.197333951 M135.803679,9.32148827 C205.583411,9.32148827 262.351738,66.1288216 262.351738,135.956501 C262.351738,205.782581 205.583411,262.591513 135.803679,262.591513 C66.0239475,262.591513 9.25562099,205.782581 9.25562099,135.956501 C9.25562099,66.1288216 66.0239475,9.32148827 135.803679,9.32148827" id="Fill-17" fill="#FEFEFE"></path>
                    <path d="M64.1575522,232.622175 C33.6740536,210.747867 13.8150449,174.989879 13.8150449,134.590675 C13.8150449,68.0116877 67.749109,14.0405642 134.280783,14.0405642 C173.021027,14.0405642 207.490707,32.3400333 229.527336,60.770879 C245.336258,81.1679284 83.9095172,246.795231 64.1575522,232.622175" id="Fill-19" fill-opacity="0.05" fill="#000000"></path>
                    <path d="M135.803679,271.715028 C62.0457551,271.715028 2.07889796,212.803719 0.225603499,139.442769 C0.196845481,140.605071 0.137731778,141.75938 0.137731778,142.928077 C0.137731778,217.90538 60.8778601,278.687244 135.803679,278.687244 C210.729499,278.687244 271.469627,217.90538 271.469627,142.928077 C271.469627,141.75938 271.410513,140.605071 271.380157,139.442769 C269.526863,212.803719 209.561603,271.715028 135.803679,271.715028" id="Fill-21" fill-opacity="0.1" fill="#000000"></path>
                    <path d="M152.050521,199.584807 C111.905927,199.584807 96.7216933,197.479233 96.1193726,197.32735 C94.7645504,197.178665 93.7148828,196.276961 92.8122006,195.069893 C92.0612968,193.867622 91.7593376,192.361585 92.0612968,191.00743 C94.617565,179.726541 101.684049,170.247461 112.056107,163.925943 C114.612376,162.423103 117.770964,161.217634 121.076539,159.86348 C126.941577,157.60922 133.557518,154.900912 134.758964,150.988733 C135.661647,147.829572 133.253962,143.017288 130.849472,139.554362 C119.723314,122.406004 117.770964,106.304838 125.136212,94.1190475 C130.699291,84.7934488 140.772585,79.2249488 152.050521,79.2249488 C163.175081,79.2249488 173.248376,84.7934488 178.961635,94.1190475 C186.176702,106.304838 184.224352,122.406004 173.096597,139.706245 C170.843886,143.017288 168.28602,147.829572 169.338883,150.988733 C170.541927,154.900912 177.156271,157.60922 183.021308,159.86348 C186.32848,161.217634 189.485472,162.423103 192.04174,163.925943 C202.265215,170.247461 209.632061,179.726541 212.03655,191.00743 C212.340107,192.361585 212.03655,193.867622 211.285647,195.069893 C210.534743,196.276961 209.181518,197.178665 207.828294,197.32735 C207.225973,197.479233 192.191921,199.584807 152.050521,199.584807 L152.050521,199.584807 Z M67.8550344,132.184054 L106.344445,132.184054 L106.344445,122.55469 L67.8550344,122.55469 L67.8550344,132.184054 Z M67.8534367,112.925325 L106.342848,112.925325 L106.342848,103.295961 L67.8534367,103.295961 L67.8534367,112.925325 Z" id="Fill-23" fill-opacity="0.2" fill="#010202"></path>
                    <path d="M149.011278,193.502304 C108.866683,193.502304 93.6824501,191.39673 93.0801294,191.244847 C91.7253073,191.096162 90.6756397,190.194458 89.7729574,188.98739 C89.0220536,187.785119 88.7200945,186.279081 89.0220536,184.924927 C91.5783219,173.644038 98.6448058,164.164958 109.016864,157.84344 C111.573132,156.3406 114.731721,155.135131 118.037296,153.780977 C123.902334,151.526717 130.518275,148.818409 131.719721,144.90623 C132.622403,141.747069 130.214718,136.934785 127.810229,133.471859 C116.684071,116.323501 114.731721,100.222335 122.096969,88.0365444 C127.660048,78.7109457 137.733342,73.1424457 149.011278,73.1424457 C160.135838,73.1424457 170.209132,78.7109457 175.922392,88.0365444 C183.137459,100.222335 181.183511,116.323501 170.057354,133.623742 C167.804643,136.934785 165.246777,141.747069 166.29964,144.90623 C167.501086,148.818409 174.117027,151.526717 179.982065,153.780977 C183.289237,155.135131 186.446229,156.3406 189.002497,157.84344 C199.225972,164.164958 206.592817,173.644038 208.997307,184.924927 C209.300864,186.279081 208.997307,187.785119 208.246403,188.98739 C207.4955,190.194458 206.142275,191.096162 204.789051,191.244847 C204.18673,191.39673 189.152678,193.502304 149.011278,193.502304 L149.011278,193.502304 Z M64.8157913,126.101551 L103.305202,126.101551 L103.305202,116.472186 L64.8157913,116.472186 L64.8157913,126.101551 Z M64.8141936,106.842822 L103.303605,106.842822 L103.303605,97.213458 L64.8141936,97.213458 L64.8141936,106.842822 Z" id="Fill-25" fill="#FEFEFE"></path>
                </g>
            </g>
        </g>
    </g>
</svg>