<svg xmlns="http://www.w3.org/2000/svg" width="360" height="251" viewBox="0 0 360 251">
  <defs>
    <filter id="a" width="200%" height="200%" x="-50%" y="-50%" filterUnits="objectBoundingBox">
      <feOffset in="SourceAlpha" result="shadowOffsetOuter1"/>
      <feGaussianBlur stdDeviation="4" in="shadowOffsetOuter1" result="shadowBlurOuter1"/>
      <feColorMatrix values="0 0 0 0 0 0 0 0 0 0 0 0 0 0 0 0 0 0 0.2 0" in="shadowBlurOuter1" result="shadowMatrixOuter1"/>
      <feMerge>
        <feMergeNode in="shadowMatrixOuter1"/>
        <feMergeNode in="SourceGraphic"/>
      </feMerge>
    </filter>
    <filter id="b" width="200%" height="200%" x="-50%" y="-50%" filterUnits="objectBoundingBox">
      <feOffset in="SourceAlpha" result="shadowOffsetOuter1"/>
      <feGaussianBlur stdDeviation="4" in="shadowOffsetOuter1" result="shadowBlurOuter1"/>
      <feColorMatrix values="0 0 0 0 0 0 0 0 0 0 0 0 0 0 0 0 0 0 0.2 0" in="shadowBlurOuter1" result="shadowMatrixOuter1"/>
      <feMerge>
        <feMergeNode in="shadowMatrixOuter1"/>
        <feMergeNode in="SourceGraphic"/>
      </feMerge>
    </filter>
  </defs>
  <g fill="none" fill-rule="evenodd" transform="translate(8 8)">
    <g opacity=".1" transform="translate(12.709 13.138)">
      <path fill="#010202" d="M85.4988799,16.2378532 L87.5413102,8.23166089 C87.3956745,7.89961089 87.264161,7.61688397 87.1679532,7.27162243 C86.3197356,4.21006858 88.1088481,1.05779551 91.1769068,0.210495505 C94.2449654,-0.636804495 97.4039361,1.14939551 98.2530363,4.21094935 C98.2803982,4.30959551 98.2574495,4.42233397 98.2848114,4.52098012 L108.952406,9.17760704 C109.456393,8.87902627 109.92331,8.64386089 110.517327,8.48003781 C113.585386,7.63273781 116.744357,9.41893781 117.592574,12.4796109 C118.441674,15.5420455 116.651679,18.6934378 113.583621,19.5407378 C110.515562,20.3880378 107.357474,18.6018378 106.508374,15.540284 C106.481012,15.4416378 106.45365,15.3429917 106.475716,15.231134 L95.8081219,10.5736263 C95.3050168,10.872207 94.788672,11.1214647 94.2440828,11.2711955 C93.9960608,11.3398955 93.7347992,11.3592724 93.4885425,11.4270917 L91.8185865,17.8945801 L85.4988799,16.2378532 Z M75.7827723,46.138207 C74.9477943,43.1259763 76.6521733,40.0503301 79.6434422,39.1175955 L82.0495205,29.7356417 L88.3692271,31.3932494 L85.911073,41.1618609 C86.3356231,41.7361224 86.6763224,42.3861301 86.8678554,43.077534 C87.7169557,46.1390878 85.9269606,49.2913609 82.8589019,50.1377801 C79.7908432,50.9850801 76.6318725,49.1988801 75.7827723,46.138207 L75.7827723,46.138207 Z M111.645342,33.6850109 L78.7175522,25.020884 C78.0493933,25.6832224 77.2276549,26.1764532 76.2867601,26.4362801 C73.2187014,27.2826994 70.0597307,25.4973801 69.2106305,22.4358263 C68.3624129,19.3742724 70.1515253,16.2219994 73.2204667,15.3746994 C75.9910755,14.6093109 78.8428872,16.055534 79.977963,18.612407 L112.905753,27.276534 C113.573912,26.6141955 114.39565,26.1209647 115.336545,25.8611378 C118.404604,25.0147186 121.563574,26.8000378 122.411792,29.8615917 C123.260892,32.9231455 121.470897,36.0754186 118.402838,36.9227186 C115.63223,37.6872263 112.780418,36.241884 111.645342,33.6850109 L111.645342,33.6850109 Z"/>
      <path fill="#000000" d="M226.776215,180.886253 C227.409551,180.919587 227.934546,181.169584 228.351215,181.636253 C228.767884,182.102922 228.976215,182.652917 228.976215,183.286253 L228.976215,223.086253 C228.976215,223.752923 228.742884,224.319584 228.276215,224.786253 C227.809546,225.252922 227.242885,225.486253 226.576215,225.486253 L218.576215,225.486253 C217.909545,225.486253 217.342884,225.252922 216.876215,224.786253 C216.409546,224.319584 216.176215,223.752923 216.176215,223.086253 L216.176215,183.286253 C216.176215,182.652917 216.384546,182.111255 216.801215,181.661253 C217.217884,181.211251 217.726212,180.95292 218.326215,180.886253 C219.559554,180.752919 220.976207,180.686253 222.576215,180.686253 C224.142889,180.686253 225.542875,180.752919 226.776215,180.886253 L226.776215,180.886253 Z M209.176215,192.086253 C209.809551,192.119587 210.334546,192.369584 210.751215,192.836253 C211.167884,193.302922 211.376215,193.852917 211.376215,194.486253 L211.376215,223.086253 C211.376215,223.752923 211.142884,224.319584 210.676215,224.786253 C210.209546,225.252922 209.642885,225.486253 208.976215,225.486253 L200.976215,225.486253 C200.309545,225.486253 199.742884,225.252922 199.276215,224.786253 C198.809546,224.319584 198.576215,223.752923 198.576215,223.086253 L198.576215,194.486253 C198.576215,193.852917 198.784546,193.311255 199.201215,192.861253 C199.617884,192.411251 200.126212,192.15292 200.726215,192.086253 C201.959554,191.952919 203.376207,191.886253 204.976215,191.886253 C206.542889,191.886253 207.942875,191.952919 209.176215,192.086253 L209.176215,192.086253 Z M244.376215,203.286253 C245.009551,203.319587 245.534546,203.569584 245.951215,204.036253 C246.367884,204.502922 246.576215,205.052917 246.576215,205.686253 L246.576215,223.086253 C246.576215,223.752923 246.342884,224.319584 245.876215,224.786253 C245.409546,225.252922 244.842885,225.486253 244.176215,225.486253 L236.176215,225.486253 C235.509545,225.486253 234.942884,225.252922 234.476215,224.786253 C234.009546,224.319584 233.776215,223.752923 233.776215,223.086253 L233.776215,205.686253 C233.776215,205.052917 233.984546,204.511255 234.401215,204.061253 C234.817884,203.611251 235.326212,203.35292 235.926215,203.286253 C237.159554,203.152919 238.576207,203.086253 240.176215,203.086253 C241.742889,203.086253 243.142875,203.152919 244.376215,203.286253 L244.376215,203.286253 Z" transform="rotate(13 222.576 203.086)"/>
      <path fill="#010202" d="M52.7206359 51.3299314C52.1335515 49.7869109 52.89191 48.1057683 54.4403078 47.5207228L59.6557551 45.5475507C61.2041529 44.9615186 62.890164 45.7172435 63.4792284 47.260264 64.0663127 48.8032846 63.3079542 50.4844272 61.7595564 51.0694727L56.5431191 53.0426448C55.8085212 53.320862 54.9531403 53.2735059 54.2779439 52.970624 53.6027474 52.6687287 52.9988326 52.0609917 52.7206359 51.3299314L52.7206359 51.3299314zM43.3738178 81.6260152L41.3947595 76.42868C40.8066851 74.8846729 41.5650436 73.2045168 43.1134414 72.6184847 44.6618392 72.0324526 46.3478503 72.7881775 46.9359247 74.3311981L48.915973 79.5295199C49.5040474 81.0725404 48.7446988 82.753683 47.1972911 83.3387285 46.4636832 83.6169458 45.6063222 83.5695897 44.9311258 83.2667078 44.2569193 82.9648124 43.6520146 82.3570754 43.3738178 81.6260152L43.3738178 81.6260152zM16.7411778 35.2051694L14.7601395 30.0078342C14.1730552 28.4648136 14.9314137 26.783671 16.4798115 26.1976389 18.0282092 25.6125934 19.7152104 26.3683183 20.3032848 27.9113388L22.2833331 33.1096606C22.8704174 34.6526812 22.1120589 36.3328372 20.5636611 36.9188693 19.8290632 37.1961 18.9736823 37.1487438 18.2984858 36.8468485 17.6232894 36.5439666 17.0183846 35.9362296 16.7411778 35.2051694L16.7411778 35.2051694zM15.4620666 71.1376191C15.7095727 70.4401028 15.886787 70.0484281 15.886787 70.0484281 16.6451455 67.0205956 16.2867568 64.3676658 15.0997178 59.6596773 13.9126788 54.9526753 13.8275367 51.5459938 15.6481912 47.5128301 19.5914574 38.773651 30.0124517 34.553036 39.1196839 38.6335558 48.2269162 42.7150622 51.9731676 53.2853449 48.0289114 62.024524 46.209247 66.0586742 43.5955832 68.2548147 39.2731377 70.4933784 34.8952509 72.7072775 32.6657165 74.2009687 30.9529747 76.8006229 30.9529747 76.8006229 30.719329 77.1676329 30.3599502 77.8138468L15.4620666 71.1376191zM12.7979116 80.7874171C12.9543354 79.2414368 13.5770606 76.9614364 14.2374067 74.8994716L28.3482211 81.2234881C27.239394 83.0832028 25.9404823 85.0613077 24.9405579 86.2294256 22.3041236 89.2237142 20.1211203 90.4677992 16.4669411 88.8300664 12.812762 87.1933201 12.2425081 84.7140295 12.7979116 80.7874171L12.7979116 80.7874171zM.198864158 62.27709C-.389210193 60.7340694.369148314 59.0529268 1.9175461 58.4668947L7.1339834 56.4947093C8.68238118 55.9086772 10.3683923 56.6644021 10.9564667 58.2074226 11.543551 59.7504432 10.7851925 61.4305992 9.23679471 62.0176179L4.02134744 63.9898033C3.28773954 64.267034 2.43037861 64.2196779 1.75518214 63.9177826 1.08196571 63.6158872.477060947 63.0081502.198864158 62.27709L.198864158 62.27709zM277.812352 198.000968C280.932292 199.696684 284.200382 200.041389 287.619556 199.035084 291.037996 198.02951 293.596875 195.971524 295.296927 192.858198 296.995513 189.744141 297.341684 186.482248 296.333974 183.070324 296.127885 182.372863 295.871923 181.732486 295.56609 181.152855L285.372377 184.15201 282.366849 173.978446C281.711911 174.036995 281.035704 174.169461 280.33456 174.375114 276.915387 175.380687 274.357975 177.440869 272.658656 180.553463 270.958603 183.666056 270.613899 186.929413 271.621609 190.339874 272.629319 193.751798 274.692411 196.305252 277.812352 198.000968M310.83869 173.97991C312.227775 175.045496 313.168745 176.410412 313.660132 178.074658 314.152252 179.738904 314.109714 181.416324 313.533985 183.103989 313.228885 184.042964 312.846776 185.059515 312.38766 186.155107 311.927809 187.251431 311.008842 189.029115 309.632225 191.488891 308.254142 193.948667 306.763112 196.174981 305.15767 198.165636 303.552228 200.157022 301.430463 202.143286 298.792375 204.125159 296.155754 206.107032 293.353382 207.534155 290.388191 208.406531 287.423001 209.278906 284.290592 209.586287 280.990965 209.328672 277.691338 209.071058 274.856696 208.564612 272.484103 207.810066 270.112978 207.056252 267.62524 205.989202 265.025289 204.610381 262.424605 203.230828 260.699617 202.241355 259.851058 201.642695 259.003232 201.043303 258.093799 200.394876 257.12716 199.695952 255.766678 198.578404 254.841111 197.185677 254.349724 195.521431 253.857603 193.856453 253.88474 192.207576 254.431866 190.571873 254.794906 189.526779 255.191682 188.483881 255.622196 187.440982 256.05271 186.398816 256.96801 184.610154 258.368829 182.07646 259.768915 179.543498 261.261412 177.282787 262.846318 175.297987 264.431224 173.313919 266.539788 171.320337 269.171275 169.31724 271.802762 167.314144 274.601468 165.876774 277.566658 165.004398 280.532582 164.132023 283.654723 163.828302 286.933814 164.091771 290.212172 164.357435 293.079818 164.896815 295.53822 165.715765 297.995888 166.533251 300.461624 167.606887 302.935428 168.933746 305.409231 170.261337 307.165756 171.285939 308.207937 172.006088 309.24865 172.728432 310.125813 173.385641 310.83869 173.97991"/>
    </g>
    <g filter="url(#a)" transform="matrix(-1 0 0 1 344.23 0)">
      <path fill="#87CAEE" d="M165.58826,47.6069939 C162.976228,20.8799896 140.6486,0.000125528987 113.486482,0.000125528987 C86.7315315,0.000125528987 64.6659234,20.2586211 61.5141425,46.4088197 C56.3208671,44.2591358 50.6280571,43.0716316 44.65689,43.0716316 C20.3141579,43.0716316 0.580339882,62.7834484 0.580339882,87.0996685 C0.580339882,109.937785 17.9892797,128.713783 40.275437,130.91054 L109.07047,131.127078 L179.148584,131.127078 C200.363412,131.127078 217.5606,111.810677 217.5606,87.982765 C217.5606,64.1548526 200.363412,44.8384521 179.148584,44.8384521 C174.374415,44.8384521 169.805087,45.8188335 165.58826,47.6069939 Z"/>
      <path fill="#1396DC" fill-opacity=".1" d="M165.58826,47.6069939 C162.976228,20.8799896 140.6486,0.000125528987 113.486482,0.000125528987 C86.7315315,0.000125528987 64.6659234,20.2586211 61.5141425,46.4088197 C56.3208671,44.2591358 50.6280571,43.0716316 44.65689,43.0716316 C20.3141579,43.0716316 0.580339882,62.7834484 0.580339882,87.0996685 C0.580339882,109.353447 17.1108527,127.74721 38.5745058,130.707183 C20.2023124,126.371412 6.52951485,109.887573 6.52951485,90.2115321 C6.52951485,67.2290575 25.1806936,48.5980453 48.1888199,48.5980453 C53.832619,48.5980453 59.2137697,49.7202744 64.1217762,51.7519611 C67.1007621,27.0353035 87.9561768,7.88773944 113.244569,7.88773944 C138.917508,7.88773944 160.020491,27.6227791 162.489261,52.8842325 C166.474856,51.1939847 170.793474,50.2675808 175.305623,50.2675808 C195.356756,50.2675808 211.612053,68.5245167 211.612053,91.0462999 C211.612053,110.623801 199.327271,126.976462 182.945047,130.917444 C202.37726,128.77592 217.5606,110.371487 217.5606,87.982765 C217.5606,64.1548526 200.363412,44.8384521 179.148584,44.8384521 C174.374415,44.8384521 169.805087,45.8188335 165.58826,47.6069939 Z"/>
      <path fill="#FFFFFF" fill-opacity=".2" d="M69.2076045 107.799273C70.5001111 109.090966 72.0722315 109.736813 73.9239656 109.736813 75.774443 109.736813 77.3465634 109.090966 78.6396984 107.799273 79.9322051 106.508207 80.5794009 104.93784 80.5794009 103.08817 80.5794009 101.239756 79.9322051 99.6693881 78.6396984 98.3776949 77.3465634 97.0866292 75.774443 96.440155 73.9239656 96.440155 72.0722315 96.440155 70.5001111 97.0866292 69.2076045 98.3776949 67.9144695 99.6693881 67.267902 101.239756 67.267902 103.08817 67.267902 104.93784 67.9144695 106.508207 69.2076045 107.799273M93.4416328 101.212139C93.5779838 102.436047 93.5779838 103.686943 93.4416328 104.964828 93.3869667 105.427403 93.1965781 105.820936 92.8704668 106.147312 92.5437271 106.473687 92.1616931 106.664491 91.726878 106.718468L88.3784249 107.126438C87.8883155 107.235648 87.4805193 107.486706 87.1537796 107.880867 86.82704 108.275656 86.6636701 108.730698 86.6636701 109.24725 86.6636701 109.709824 86.7861975 110.103985 87.0312522 110.429733 87.0312522 110.457349 87.7111221 111.354882 89.0727467 113.121702 89.3441919 113.475694 89.4811713 113.876759 89.4811713 114.324897 89.4811713 114.773664 89.3309967 115.175356 89.0319042 115.528093 88.242074 116.507846 87.3579919 117.391571 86.377773 118.179893 86.0510333 118.479279 85.6426087 118.628031 85.1524993 118.628031 84.6630181 118.628031 84.2677888 118.49246 83.9686964 118.22069L81.3145651 116.180843C80.9878255 115.936062 80.5794009 115.814299 80.0892914 115.814299 79.5721631 115.814299 79.1159843 115.984391 78.7213833 116.323947 78.3267824 116.66413 78.0748158 117.092812 77.9661121 117.608736L77.5576875 120.871862C77.5030214 121.30682 77.3126328 121.687172 76.9858931 122.013548 76.6591535 122.339923 76.2645525 122.530727 75.8020902 122.584705 74.9852411 122.639938 74.3587807 122.666299 73.9239656 122.666299 73.4878938 122.666299 72.8620618 122.639938 72.0452126 122.584705 71.582122 122.530727 71.1881494 122.339923 70.8614098 122.013548 70.5346701 121.687172 70.3436531 121.30682 70.2896154 120.871862 70.0175418 118.724061 69.8811908 117.635724 69.8811908 117.608736 69.7995059 117.092812 69.5544512 116.66413 69.1460266 116.323947 68.737602 115.984391 68.2751398 115.814299 67.7580115 115.814299 67.2949208 115.814299 66.8594774 115.950498 66.4510529 116.22164L63.8792348 118.22069C63.5788857 118.49246 63.1849131 118.628031 62.6948036 118.628031 62.2587318 118.628031 61.8509356 118.479279 61.4701583 118.179893 60.489311 117.391571 59.6046005 116.507846 58.8153986 115.528093 58.5156778 115.175356 58.36676 114.773664 58.36676 114.324897 58.36676 113.876759 58.5024826 113.475694 58.7745562 113.121702L60.7349941 110.552751C61.0340865 110.171771 61.1836327 109.736813 61.1836327 109.24725 61.1836327 108.703709 61.0064393 108.227954 60.6533091 107.819985 60.2989223 107.412016 59.8496553 107.181043 59.3055081 107.126438L56.1204249 106.718468C55.6849815 106.664491 55.3042041 106.473687 54.9774645 106.147312 54.6507248 105.820936 54.4597078 105.427403 54.4056701 104.964828 54.2699475 103.740921 54.2699475 102.490652 54.4056701 101.212139 54.4326889 100.777181 54.6098824 100.389925 54.936622 100.049741 55.2633617 99.7101851 55.6573343 99.5131046 56.1204249 99.4584994L59.3055081 99.0505302C59.8496553 98.9689364 60.2989223 98.7241549 60.6533091 98.3161857 61.0064393 97.9082165 61.1836327 97.4330892 61.1836327 96.8889211 61.1836327 96.4263468 61.0340865 96.005197 60.7349941 95.6242165L58.7745562 93.0546382C58.4748354 92.7019017 58.3315726 92.300209 58.3460246 91.8514428 58.3592198 91.4026767 58.5156778 91.0022392 58.8153986 90.6482475 59.6046005 89.6691214 60.489311 88.786025 61.4701583 87.9970753 61.8232884 87.6983163 62.2254295 87.5483091 62.6746965 87.5483091 63.1233352 87.5483091 63.524848 87.6851357 63.8792348 87.9562784L66.4510529 89.9546998C66.8594774 90.2270977 67.2949208 90.362669 67.7580115 90.362669 68.2751398 90.362669 68.737602 90.1932049 69.1460266 89.8530214 69.5544512 89.5134654 69.7995059 89.0847839 69.8811908 88.5682322L70.2896154 85.3051061C70.3436531 84.8707759 70.5346701 84.4891677 70.8614098 84.1627924 71.1881494 83.8370446 71.582122 83.6468682 72.0452126 83.5922631 73.2704863 83.4560642 74.5221505 83.4560642 75.8020902 83.5922631 76.2645525 83.6468682 76.6591535 83.8370446 76.9858931 84.1627924 77.3126328 84.4891677 77.5030214 84.8707759 77.5576875 85.3051061L77.9661121 88.5682322C78.0748158 89.0847839 78.3267824 89.5134654 78.7213833 89.8530214 79.1159843 90.1932049 79.5721631 90.362669 80.0892914 90.362669 80.4700688 90.362669 80.8784933 90.2402783 81.3145651 89.9954968 82.4845444 89.0985921 83.3698832 88.4188527 83.9686964 87.9562784 84.3218266 87.6851357 84.7239677 87.5483091 85.1732347 87.5483091 85.6225017 87.5483091 86.0233861 87.6983163 86.377773 87.9970753 87.3579919 88.786025 88.242074 89.6691214 89.0319042 90.6482475 89.3309967 91.0022392 89.4811713 91.4026767 89.4811713 91.8514428 89.4811713 92.300209 89.3441919 92.7019017 89.0727467 93.0546382 87.7111221 94.822714 87.0312522 95.7196186 87.0312522 95.7466073 86.7861975 96.0729827 86.6636701 96.4539631 86.6636701 96.8889211 86.6636701 97.4054729 86.82704 97.8611431 87.1537796 98.2546765 87.4805193 98.6494651 87.8883155 98.9149589 88.3784249 99.0505302 89.8751439 99.2407067 90.9917138 99.3769056 91.726878 99.4584994 92.1616931 99.5131046 92.5437271 99.703281 92.8704668 100.029656 93.1965781 100.356032 93.3869667 100.750193 93.4416328 101.212139M153.716427 77.1926698C155.498414 77.2083609 156.962459 77.765082 158.107933 78.8615777 159.254035 79.9580734 159.826458 81.4361772 159.826458 83.2958892L156.580425 83.2958892C155.78494 83.2958892 155.108212 83.0178425 154.552126 82.4617491 153.994784 81.9056556 153.716427 81.2303097 153.716427 80.4350836L153.716427 77.1926698zM162.905979 74.1887612C165.435698 76.7633607 166.700558 79.7992792 166.700558 83.2958892L163.024737 83.2958892C163.024737 82.1360013 162.789735 80.9679541 162.32099 79.7911199 161.850987 78.6155409 161.210703 77.6062878 160.399509 76.7633607 158.521384 74.8402566 156.294528 73.9025551 153.716427 73.9502561L153.716427 70.3262342C157.312448 70.3262342 160.375632 71.613534 162.905979 74.1887612L162.905979 74.1887612zM167.846031 69.3483634C169.628019 71.161002 171.024203 73.278676 172.035211 75.7026407 173.04559 78.1266055 173.558948 80.6578975 173.574657 83.2958892L169.827205 83.2958892C169.827205 78.8778965 168.267651 75.0869211 165.149173 71.9235906 164.16267 70.9224969 163.096368 70.072038 161.950894 69.3728416 160.80542 68.6736451 159.703302 68.1727845 158.645169 67.8702596 157.587035 67.56899 156.675934 67.3618672 155.912494 67.250774 155.148426 67.1396809 154.416403 67.0838205 153.716427 67.0838205L153.716427 63.4597986C154.43274 63.4597986 155.144028 63.4955744 155.852173 63.5671259 156.560318 63.6386774 157.440002 63.7937057 158.489967 64.0322108 159.540561 64.2707159 160.550312 64.5920701 161.521106 64.9975287 162.4919 65.4029874 163.541865 65.9791654 164.672258 66.7260629 165.801395 67.473588 166.859529 68.3472697 167.846031 69.3483634L167.846031 69.3483634zM129.773951 108.049327C132.005834 110.279349 134.700807 111.394047 137.858872 111.394047 141.016308 111.394047 143.711282 110.279349 145.943793 108.049327 148.175676 105.819932 149.291618 103.127963 149.291618 99.9734194 149.291618 96.8195036 148.175676 94.1275344 145.943793 91.897512 143.711282 89.6681172 141.016308 88.5534197 137.858872 88.5534197 134.700807 88.5534197 132.005834 89.6681172 129.773951 91.897512 127.541439 94.1275344 126.425498 96.8195036 126.425498 99.9734194 126.425498 103.127963 127.541439 105.819932 129.773951 108.049327M126.303599 88.4304013C129.488053 85.2488692 133.339811 83.6584169 137.858872 83.6584169 142.377304 83.6584169 146.22969 85.2488692 149.414774 88.4304013 152.599857 91.6119335 154.192084 95.4600246 154.192084 99.9734194 154.192084 104.487442 152.599857 108.334905 149.414774 111.51581 146.22969 114.697342 142.377304 116.288422 137.858872 116.288422 135.462991 116.288422 133.204089 115.798859 131.080909 114.82036L121.239762 122.039532C120.368247 122.692283 119.40248 122.936437 118.340576 122.773249 117.279301 122.610689 116.421609 122.094137 115.76813 121.223594 115.251002 120.516866 114.992752 119.73482 114.992752 118.878085 114.992752 118.021977 115.251002 117.240559 115.76813 116.533203L122.99536 106.743825C122.015769 104.623013 121.52566 102.366629 121.52566 99.9734194 121.52566 95.4600246 123.118515 91.6119335 126.303599 88.4304013M128.472144 34.4138346C128.790716 33.4334532 129.060904 32.1700039 129.282082 30.6253698 129.503259 29.0801079 129.644009 27.8731467 129.705587 27.0019755 129.766536 26.1320597 129.797325 25.5860086 129.797325 25.3650776 129.797325 25.0468616 129.913569 24.7713254 130.147942 24.5378415 130.38043 24.3049853 130.656902 24.1882433 130.976101 24.1882433L135.247594 24.1882433C135.566165 24.1882433 135.842009 24.3049853 136.076381 24.5378415 136.308869 24.7713254 136.425741 25.0468616 136.425741 25.3650776 136.425741 25.5621581 136.45653 26.1013051 136.518108 26.9837738 136.579058 27.8668703 136.720436 29.0801079 136.941613 30.6253698 137.162162 32.1700039 137.432351 33.4334532 137.75155 34.4138346 137.898583 34.7571564 137.848944 35.1004781 137.604518 35.4437999 137.38334 35.7871217 137.06414 35.9584688 136.646919 35.9584688L129.576776 35.9584688C129.158926 35.9584688 128.840355 35.7871217 128.619177 35.4437999 128.398628 35.1494345 128.348989 34.8061127 128.472144 34.4138346L128.472144 34.4138346zM127.514546 50.3773559C127.02318 50.9660868 126.409915 51.2598247 125.673494 51.2598247 125.15825 51.2598247 124.666884 51.0884776 124.200652 50.7451558 123.68478 50.3528777 123.390715 49.8319324 123.31657 49.1816923 123.243053 48.5327074 123.414592 47.9496253 123.832441 47.4349564L128.913871 41.5495299C129.380104 40.9859047 129.956925 40.6915392 130.644963 40.6664334 131.35625 40.6181048 131.945638 40.8503334 132.412499 41.3656299L135.284038 44.1975638 138.819109 39.8944302C139.236331 39.4042395 139.764141 39.1217993 140.40254 39.0483648 141.040939 38.9749303 141.61776 39.1343522 142.133632 39.5266302 142.62437 39.9440141 142.906497 40.4768847 142.980013 41.1264972 143.054158 41.7761097 142.89393 42.3466389 142.501842 42.8368296L137.309195 49.2005216C136.867468 49.7396686 136.302586 50.0340341 135.615804 50.0829904 134.928394 50.1319467 134.327068 49.8990904 133.811824 49.3844216L130.939029 46.55186 127.514546 50.3773559zM148.577315 28.4920046C148.872009 28.5164828 149.117063 28.6457776 149.313736 28.8780063 149.509779 29.1114902 149.60843 29.3744734 149.60843 29.6688389L149.60843 57.0347857C149.60843 57.3291512 149.516691 57.5864856 149.332586 57.806789 149.148481 58.02772 148.908453 58.1507384 148.614387 58.1745889 148.319693 58.248651 147.472683 58.3773182 146.073358 58.5612182 144.674033 58.7451182 142.691603 58.9472198 140.126696 59.1681509 137.561162 59.3884542 135.223088 59.4989197 133.111847 59.4989197 130.999978 59.4989197 128.661905 59.3884542 126.096999 59.1681509 123.531464 58.9472198 121.549034 58.7451182 120.149709 58.5612182 118.751012 58.3773182 117.904002 58.248651 117.609308 58.1745889 117.339119 58.1262603 117.106003 57.997593 116.909959 57.7885873 116.712659 57.5808368 116.615265 57.3291512 116.615265 57.0347857L116.615265 29.6688389C116.615265 29.3744734 116.712659 29.1114902 116.909959 28.8780063 117.106003 28.6457776 117.351686 28.5164828 117.64638 28.4920046 120.370886 28.1737886 123.537747 27.9283795 127.146335 27.7564048 127.02318 29.4730137 126.815197 30.9686915 126.520503 32.2434384 124.261601 32.3419787 122.53051 32.4643694 121.328485 32.6112383L121.328485 54.1658207C126.75362 54.7300735 130.681407 55.0118861 133.111847 55.0118861 137.358835 55.0118861 141.286622 54.7300735 144.89521 54.1658207L144.89521 32.6112383C143.667423 32.4643694 141.93696 32.3419787 139.703191 32.2434384 139.383992 30.8456731 139.18732 29.3506229 139.113803 27.7564048 142.697886 27.9283795 145.852809 28.1737886 148.577315 28.4920046L148.577315 28.4920046zM110.556004 100.555623C111.836572 99.9399031 112.900361 99.0762637 113.749256 97.9665874 114.597522 96.8569112 115.137899 95.5783985 115.369131 94.1297939L112.013766 94.1297939C111.828404 96.7031382 111.342693 98.8452903 110.556004 100.555623L110.556004 100.555623zM115.34651 91.1704481C115.114651 89.7224712 114.578672 88.4627878 113.737946 87.3913979 112.896591 86.3206357 111.836572 85.4846126 110.556004 84.8833288 111.357773 86.6401069 111.836572 88.7358134 111.990517 91.1704481L115.34651 91.1704481zM109.514207 91.1704481C109.45263 90.1994814 109.333244 89.2868856 109.155422 88.4314056 108.978229 87.5765532 108.785327 86.8754738 108.577344 86.3281674 108.369362 85.780861 108.145043 85.3076167 107.906271 84.9065516 107.666872 84.5061141 107.458261 84.2167698 107.281696 84.039774 107.103874 83.8627781 106.96124 83.7736525 106.853164 83.7736525 106.745089 83.7736525 106.602454 83.8627781 106.425261 84.039774 106.247439 84.2167698 106.039457 84.5061141 105.800686 84.9065516 105.560658 85.3076167 105.337595 85.780861 105.128984 86.3281674 104.921002 86.8754738 104.7281 87.5765532 104.550906 88.4314056 104.373085 89.2868856 104.253699 90.1994814 104.192121 91.1704481L109.514207 91.1704481zM106.019978 100.544325C106.390702 101.106695 106.668431 101.38788 106.853164 101.38788 107.038526 101.38788 107.316255 101.106695 107.68635 100.544325 108.056446 99.9819553 108.43471 99.1107842 108.820514 97.932067 109.20569 96.7533498 109.445089 95.485507 109.537456 94.1297939L104.168872 94.1297939C104.261239 95.485507 104.500639 96.7533498 104.886443 97.932067 105.271619 99.1107842 105.649883 99.9819553 106.019978 100.544325L106.019978 100.544325zM98.3604469 91.1704481L101.715812 91.1704481C101.869756 88.7358134 102.347927 86.6401069 103.150324 84.8833288 101.869756 85.4846126 100.809109 86.3206357 99.9683829 87.3913979 99.1276567 88.4627878 98.591678 89.7224712 98.3604469 91.1704481L98.3604469 91.1704481zM103.150324 100.555623C102.363636 98.8452903 101.877925 96.7031382 101.692563 94.1297939L98.3371981 94.1297939C98.5684292 95.5783985 99.1088063 96.8569112 99.9570727 97.9665874 100.805339 99.0762637 101.869756 99.9399031 103.150324 100.555623L103.150324 100.555623zM112.41842 102.254658C110.713719 103.248847 108.858843 103.745942 106.853164 103.745942 104.847486 103.745942 102.991981 103.248847 101.287908 102.254658 99.5832072 101.261096 98.2328927 99.9122867 97.2382218 98.209486 96.2429226 96.5066853 95.745273 94.6538775 95.745273 92.6504348 95.745273 90.6469922 96.2429226 88.7935567 97.2382218 87.090756 98.2328927 85.3879553 99.5832072 84.039774 101.287908 83.0455844 102.991981 82.0520224 104.847486 81.5549277 106.853164 81.5549277 108.858843 81.5549277 110.713719 82.0520224 112.41842 83.0455844 114.123121 84.039774 115.473436 85.3879553 116.468735 87.090756 117.463406 88.7935567 117.961056 90.6469922 117.961056 92.6504348 117.961056 94.6538775 117.463406 96.5066853 116.468735 98.209486 115.473436 99.9122867 114.123121 101.261096 112.41842 102.254658L112.41842 102.254658zM30.298379 84.8522603C30.7369642 85.2903565 31.2741996 85.5094046 31.9107135 85.5094046 32.5465991 85.5094046 33.0844629 85.2903565 33.523048 84.8522603 33.9616332 84.4141642 34.1809257 83.8775277 34.1809257 83.2417234 34.1809257 82.6065467 33.9616332 82.0692827 33.523048 81.6311865 33.0844629 81.1930904 32.5465991 80.9740423 31.9107135 80.9740423 31.2741996 80.9740423 30.7369642 81.1930904 30.298379 81.6311865 29.8597939 82.0692827 29.6405013 82.6065467 29.6405013 83.2417234 29.6405013 83.8775277 29.8597939 84.4141642 30.298379 84.8522603M36.6829974 80.5880406L38.4115758 78.8871229C36.6396416 77.0832713 34.4731064 76.1813455 31.9107135 76.1813455 29.3483207 76.1813455 27.1811571 77.0832713 25.4104796 78.8871229L27.1384296 80.5880406C28.4453882 79.2480187 30.036359 78.5776939 31.9107135 78.5776939 33.7850681 78.5776939 35.3760388 79.2480187 36.6829974 80.5880406M40.1910502 77.0575379L41.8938664 75.3829812C40.6038732 74.0599057 39.0989858 73.0293127 37.3798325 72.2905746 35.6594226 71.5524641 33.8365924 71.1827813 31.9107135 71.1827813 29.9842063 71.1827813 28.1613761 71.5524641 26.4422228 72.2905746 24.7218129 73.0293127 23.2175539 74.0599057 21.9275606 75.3829812L23.6303768 77.0575379C25.916926 74.7383898 28.6772477 73.5791296 31.9107135 73.5791296 33.4928874 73.5791296 34.9977748 73.8841651 36.4247474 74.4936083 37.8523483 75.1036792 39.1077826 75.9585316 40.1910502 77.0575379M43.8800665 73.1925004L43.8800665 85.7152721C43.8800665 86.0592215 43.7594242 86.3510764 43.5193962 86.5914644 43.2781115 86.8324801 42.9859309 86.9523603 42.6422259 86.9523603L21.1798295 86.9523603C20.8354962 86.9523603 20.5433155 86.8324801 20.3026592 86.5914644 20.0613745 86.3510764 19.9413605 86.0592215 19.9413605 85.7152721L19.9413605 73.1925004C19.9413605 72.8316045 20.0789682 72.5315902 20.3541835 72.2905746L31.0850676 62.2156181C31.3257239 61.9928041 31.6053376 61.8804557 31.9232804 61.8804557 32.2418516 61.8804557 32.5126685 61.9928041 32.7363595 62.2156181L43.4672435 72.2905746C43.7424588 72.5315902 43.8800665 72.8316045 43.8800665 73.1925004M107.959178 24.2967631C108.233765 24.3312836 108.466253 24.4643443 108.655385 24.6959453 108.844517 24.9281739 108.939397 25.2074759 108.939397 25.5338513L108.939397 37.798661C108.939397 38.1426104 108.83195 38.4344653 108.617056 38.6748533 108.402162 38.9158689 108.14831 39.0357491 107.856129 39.0357491L104.2444 39.0357491C103.952219 39.0357491 103.698367 38.9158689 103.483473 38.6748533 103.268579 38.4344653 103.161132 38.1426104 103.161132 37.798661L103.161132 25.5338513C103.161132 25.2074759 103.255384 24.924408 103.444516 24.6833924 103.634276 24.4430044 103.866136 24.3143372 104.141351 24.2967631 104.691782 24.2283498 105.328296 24.1938293 106.050264 24.1938293 106.755268 24.1938293 107.391782 24.2283498 107.959178 24.2967631L107.959178 24.2967631zM99.7046035 28.4197627C99.9791905 28.4542832 100.211678 28.5867162 100.40081 28.8189449 100.589942 29.0511735 100.684822 29.3304755 100.684822 29.6568509L100.684822 37.798661C100.684822 38.1426104 100.576747 38.4344653 100.362481 38.6748533 100.146959 38.9158689 99.8937355 39.0357491 99.6015548 39.0357491L95.989825 39.0357491C95.6970161 39.0357491 95.4437928 38.9158689 95.2288987 38.6748533 95.0133762 38.4344653 94.9065574 38.1426104 94.9065574 37.798661L94.9065574 29.6568509C94.9065574 29.3304755 95.0008093 29.04678 95.1899413 28.806392 95.3790732 28.566004 95.6115611 28.4367091 95.8867764 28.4197627 96.437207 28.3507217 97.0730926 28.3162013 97.7956899 28.3162013 98.5006936 28.3162013 99.1365792 28.3507217 99.7046035 28.4197627L99.7046035 28.4197627zM91.450029 30.8933114C91.7246159 30.9278319 91.9571038 31.0608926 92.1462358 31.2924936 92.3353678 31.5247222 92.4302479 31.8040242 92.4302479 32.1297719L92.4302479 37.798661C92.4302479 38.1426104 92.3221725 38.4344653 92.1072783 38.6748533 91.8923842 38.9158689 91.6385326 39.0357491 91.3469803 39.0357491L87.7352505 39.0357491C87.4424415 39.0357491 87.1892183 38.9158689 86.9743241 38.6748533 86.7588016 38.4344653 86.6519829 38.1426104 86.6519829 37.798661L86.6519829 32.1297719C86.6519829 31.8040242 86.7462347 31.5203287 86.9353667 31.279313 87.1244987 31.0395527 87.3563582 30.9108854 87.6315735 30.8933114 88.1820042 30.8248981 88.8185181 30.7903776 89.5411154 30.7903776 90.246119 30.7903776 90.8820047 30.8248981 91.450029 30.8933114L91.450029 30.8933114zM99.214494 25.0179271C98.8701607 25.2758892 98.4874983 25.3832165 98.0665068 25.3405366 97.644887 25.2978568 97.2879868 25.1214886 96.9958061 24.8120596L94.0293872 21.5652523 91.5530776 24.0908956C91.5870083 24.2967631 91.604602 24.4687378 91.604602 24.6061921 91.604602 25.396397 91.3212182 26.0748812 90.7531938 26.6416446 90.1857979 27.208408 89.5059281 27.4921035 88.7154695 27.4921035 87.9243825 27.4921035 87.245141 27.208408 86.6777451 26.6416446 86.1103491 26.0748812 85.826337 25.396397 85.826337 24.6061921 85.826337 23.8159871 86.1103491 23.1375029 86.6777451 22.5707395 87.245141 22.0033485 87.9243825 21.7202806 88.7154695 21.7202806 88.8015528 21.7202806 88.9649226 21.7372271 89.2055789 21.7717475L92.8939669 18.0868441C93.2558939 17.7604687 93.6592917 17.5972811 94.1066736 17.5972811 94.5879863 17.6318015 94.9838439 17.8119356 95.2936183 18.138311L98.4146102 21.488052 103.986778 17.2878521 103.986778 17.1849183C103.986778 16.395341 104.270162 15.7162292 104.838186 15.1494658 105.405582 14.5827024 106.084823 14.2990069 106.87591 14.2990069 107.666369 14.2990069 108.346239 14.5827024 108.913635 15.1494658 109.481031 15.7162292 109.765043 16.395341 109.765043 17.1849183 109.765043 17.9751233 109.481031 18.6536075 108.913635 19.2209985 108.346239 19.7877619 107.666369 20.0708298 106.87591 20.0708298 106.548542 20.0708298 106.25699 20.0193629 105.99874 19.9164291L99.214494 25.0179271zM44.5126219 112.076673L47.8145774 112.076673 47.8145774 94.7612047 44.5126219 94.7612047 44.5126219 112.076673zM42.8619583 105.14559C42.2769687 103.977543 41.4513227 102.980843 40.3856488 102.156745L40.3856488 94.7612047 42.8619583 94.7612047 42.8619583 105.14559zM38.7349852 101.203352C37.6680546 100.739523 36.5678217 100.507294 35.4330298 100.507294 35.2608631 100.507294 34.9850194 100.524868 34.6073838 100.558761L34.6073838 94.7612047 38.7349852 94.7612047 38.7349852 101.203352zM32.9560919 94.7612047L32.9560919 100.893923C32.4056613 101.065898 31.8552306 101.315073 31.3054283 101.640821L31.3054283 94.7612047 32.9560919 94.7612047zM32.4791777 111.728958C33.3129921 112.56247 34.2976095 112.978599 35.4330298 112.978599 36.5678217 112.978599 37.5518107 112.56247 38.3862535 111.728958 39.2206963 110.896073 39.6372893 109.904394 39.6372893 108.753293 39.6372893 107.619139 39.2206963 106.635619 38.3862535 105.802734 37.5518107 104.96985 36.5678217 104.553093 35.4330298 104.553093 34.2976095 104.553093 33.3129921 104.96985 32.4791777 105.802734 31.6447349 106.635619 31.2281418 107.619139 31.2281418 108.753293 31.2281418 109.904394 31.6447349 110.896073 32.4791777 111.728958L32.4791777 111.728958zM29.6541364 102.877909C28.9491328 103.582754 28.3987021 104.355385 28.0034728 105.197057L28.0034728 94.7612047 29.6541364 94.7612047 29.6541364 102.877909zM28.3390093 117.616895C28.149249 117.737403 27.9004242 117.76753 27.5906499 117.707276 27.2815039 117.647022 27.0320507 117.522748 26.8429188 117.3332 26.6531584 117.127332 26.5331444 116.874391 26.4816201 116.573122 26.4300958 116.273107 26.4640264 116.019539 26.5846688 115.813044 27.3411967 114.62805 28.3647715 113.339495 29.6541364 111.948006 29.1037058 110.934987 28.8291188 109.878661 28.8291188 108.779027 28.8291188 106.958229 29.4738013 105.403552 30.7637945 104.114997 32.0531594 102.826442 33.6095712 102.182478 35.4330298 102.182478 37.2552316 102.182478 38.807245 102.826442 40.0890697 104.114997 41.3696378 105.403552 42.0105502 106.958229 42.0105502 108.779027 42.0105502 110.599825 41.3696378 112.153874 40.0890697 113.442429 38.807245 114.730984 37.2552316 115.374947 35.4330298 115.374947 34.3145748 115.374947 33.2489009 115.100667 32.2341229 114.550222 30.6689144 115.925392 29.3707526 116.947198 28.3390093 117.616895L28.3390093 117.616895zM23.0508538 112.076673L26.3528093 112.076673 26.3528093 94.7612047 23.0508538 94.7612047 23.0508538 112.076673zM61.4337142 66.3256882L65.8767451 66.3256882 65.8767451 62.6269766C65.8767451 61.1476175 65.1365541 60.4082517 63.6549155 60.4082517 62.1739052 60.4082517 61.4337142 61.1476175 61.4337142 62.6269766L61.4337142 66.3256882zM71.8007862 67.920534L71.8007862 75.9186134C71.8007862 76.2732328 71.6814006 76.5851723 71.442001 76.854432 71.2026014 77.1249469 70.9135624 77.2975493 70.5742559 77.3747496 68.3216373 77.8988331 66.0156094 78.1605611 63.6549155 78.1605611 61.2483523 78.1605611 58.9190756 77.8988331 56.6664571 77.3747496 56.3271505 77.2975493 56.0494218 77.1249469 55.833271 76.854432 55.6171202 76.5851723 55.5096731 76.2732328 55.5096731 75.9186134L55.5096731 67.9902025C55.5096731 67.5583828 55.6479091 67.1736365 55.9256378 66.8340806 56.2033665 66.4957799 56.542673 66.3256882 56.9441858 66.3256882L57.7308743 66.3256882 57.7308743 62.6269766C57.7308743 60.8551349 58.2750215 59.4253597 59.3626875 58.3389064 60.4503536 57.252453 61.8804679 56.7095401 63.6549155 56.7095401 65.4287348 56.7095401 66.8601058 57.252453 67.9477718 58.3389064 69.0354378 59.4253597 69.5789566 60.8551349 69.5789566 62.6269766L69.5789566 66.3256882 70.2965272 66.3256882C70.6980399 66.3256882 71.0486567 66.4876206 71.3496342 66.8108577 71.6506117 67.1347225 71.8007862 67.5044054 71.8007862 67.920534L71.8007862 67.920534zM203.160241 73.7112489C203.160241 74.632004 202.851095 75.4234643 202.23406 76.0862573 201.615768 76.7490504 200.856098 77.1268926 199.953166 77.2185288L197.188446 83.1560499C197.630172 83.7824395 197.85135 84.4640619 197.85135 85.2002894 197.85135 86.1762773 197.50576 87.0091621 196.81458 87.6995716 196.1234 88.389981 195.289586 88.7351857 194.312508 88.7351857 193.335431 88.7351857 192.501617 88.389981 191.810437 87.6995716 191.119257 87.0091621 190.773667 86.1762773 190.773667 85.2002894L190.773667 85.1450567 187.17953 82.9909793C186.773619 83.2119103 186.313042 83.3493645 185.79717 83.4045973L183.03245 89.342746C183.474806 89.968508 183.695355 90.6501304 183.695355 91.3863579 183.695355 92.3623458 183.350393 93.1952306 182.659213 93.8856401 181.967405 94.5760495 181.13359 94.9212542 180.157141 94.9212542 179.179436 94.9212542 178.345621 94.5760495 177.654441 93.8856401 176.963261 93.1952306 176.617671 92.3623458 176.617671 91.3863579 176.617671 90.4656028 176.926189 89.6741425 177.543853 89.0113495 178.161516 88.3485564 178.921814 87.9713418 179.824747 87.879078L182.562448 81.9409293C182.137686 81.3157949 181.926562 80.6341725 181.926562 79.8973174 181.926562 78.9219572 182.272152 78.0884447 182.962704 77.3980352 183.654512 76.7076258 184.488327 76.3624211 185.465404 76.3624211 186.441853 76.3624211 187.276296 76.7076258 187.967476 77.3980352 188.658656 78.0884447 189.004246 78.9219572 189.004246 79.8973174L189.004246 79.9525501 192.598382 82.1066276C193.003665 81.8856965 193.46487 81.7476147 193.980742 81.6923819L196.718443 75.7548608C196.293682 75.1290988 196.081929 74.4474764 196.081929 73.7112489 196.081929 72.735261 196.427519 71.9023762 197.118699 71.2119668 197.809879 70.5215573 198.644322 70.1763526 199.621399 70.1763526 200.597848 70.1763526 201.432291 70.5215573 202.123471 71.2119668 202.814651 71.9023762 203.160241 72.735261 203.160241 73.7112489M132.722964 73.3263143L138.157524 69.1650283 138.157524 76.8028396C138.157524 76.9396662 138.112284 77.0570358 138.020545 77.1543207 137.929435 77.250978 137.815076 77.311232 137.678097 77.3338272 135.311748 77.6765213 132.911468 77.8478684 130.476629 77.8478684 128.053101 77.8478684 125.647166 77.6765213 123.258197 77.3338272 123.132527 77.311232 123.023824 77.250978 122.932714 77.1543207 122.840975 77.0570358 122.795734 76.9396662 122.795734 76.8028396L122.795734 69.1650283 128.230923 73.3263143C128.836019 73.7832398 129.585007 74.0110749 130.476629 74.0110749 131.368252 74.0110749 132.116611 73.7832398 132.722964 73.3263143L132.722964 73.3263143zM123.395804 67.4346112C123.075348 67.1264376 122.875534 66.8245404 122.795734 66.5270367L122.795734 65.7393423C122.795734 65.6025157 122.840975 65.4851461 122.932714 65.3884888 123.023824 65.2912038 123.132527 65.2315775 123.258197 65.2083547 125.635856 64.8662882 128.041791 64.6949411 130.476629 64.6949411 132.911468 64.6949411 135.311748 64.8662882 137.678097 65.2083547 137.815076 65.2315775 137.929435 65.2912038 138.020545 65.3884888 138.112284 65.4851461 138.157524 65.6025157 138.157524 65.7393423L138.157524 66.5270367C138.077725 66.8245404 137.877911 67.1264376 137.558083 67.4346112L131.711328 71.8532316C131.390872 72.1049172 130.979934 72.2304462 130.476629 72.2304462 129.973953 72.2304462 129.562387 72.1049172 129.24193 71.8532316L123.395804 67.4346112zM93.4642532 53.0366247C93.9933201 53.5538041 94.6065853 53.8117662 95.3053055 53.8117662 96.002769 53.8117662 96.6166625 53.5538041 97.1457294 53.0366247 97.6754246 52.5200729 97.9405864 51.9131403 97.9405864 51.2158268 97.9405864 50.5191409 97.6754246 49.8996553 97.1457294 49.359253 96.6166625 48.8182231 96.002769 48.5477081 95.3053055 48.5477081 94.6065853 48.5477081 93.9933201 48.8182231 93.4642532 49.359253 92.934558 49.8996553 92.6700246 50.5191409 92.6700246 51.2158268 92.6700246 51.9131403 92.934558 52.5200729 93.4642532 53.0366247M92.7787283 70.7939552L97.8318826 70.7939552C98.1686758 70.7939552 98.4457762 70.6860003 98.661927 70.4694628 98.8787062 70.2535529 98.98741 69.9773892 98.98741 69.6403438L98.98741 68.4867324C98.98741 68.1503148 98.8787062 67.8735233 98.661927 67.6576135 98.4457762 67.441076 98.1686758 67.3331211 97.8318826 67.3331211L97.8676983 58.102347C97.8676983 57.7904075 97.7533395 57.5198925 97.52525 57.2914297 97.2959039 57.0635946 97.025087 56.9487356 96.7127993 56.9487356L92.7787283 56.9487356C92.4413068 56.9487356 92.1648348 57.0566905 91.9480556 57.273228 91.7319048 57.4897655 91.623201 57.7665569 91.623201 58.102347L91.623201 59.256586C91.623201 59.5930037 91.7319048 59.8691675 91.9480556 60.085705 92.1648348 60.3022425 92.4413068 60.4101974 92.7787283 60.4101974L92.7787283 67.3331211C92.4413068 67.3331211 92.1648348 67.441076 91.9480556 67.6576135 91.7319048 67.8735233 91.623201 68.1503148 91.623201 68.4867324L91.623201 69.6403438C91.623201 69.9773892 91.7319048 70.2535529 91.9480556 70.4694628 92.1648348 70.6860003 92.4413068 70.7939552 92.7787283 70.7939552M86.6240844 45.4289404C89.2826141 43.8786575 92.1767734 43.103516 95.3053055 43.103516 98.4332093 43.103516 101.327369 43.8786575 103.986527 45.4289404 106.645056 46.9792234 108.75127 49.0830893 110.303284 51.738655 111.855297 54.3948484 112.631304 57.2857809 112.631304 60.4101974 112.631304 63.5352416 111.855297 66.4261741 110.303284 69.0817398 108.75127 71.7379332 106.645056 73.8411714 103.986527 75.3914544 101.327369 76.9417374 98.4332093 77.7168789 95.3053055 77.7168789 92.1767734 77.7168789 89.2826141 76.9417374 86.6240844 75.3914544 83.9649263 73.8411714 81.8593406 71.7379332 80.3073273 69.0817398 78.7546856 66.4261741 77.978679 63.5352416 77.978679 60.4101974 77.978679 57.2857809 78.7546856 54.3948484 80.3073273 51.738655 81.8593406 49.0830893 83.9649263 46.9792234 86.6240844 45.4289404M184.854778 114.9366C184.910072 115.121755 184.873 115.315698 184.743561 115.519055 184.614122 115.722412 184.44761 115.833505 184.244026 115.851706L184.049867 115.879323C183.9198 115.898152 183.720614 115.921375 183.452939 115.948991 183.184007 115.976608 182.855383 116.004224 182.467065 116.032468 182.078119 116.060085 181.545911 116.083307 180.870439 116.101509 180.194339 116.120338 179.458547 116.139168 178.662433 116.156742 178.495922 116.028075 178.31056 115.903173 178.106976 115.782666 177.903392 115.662785 177.685984 115.532863 177.454753 115.394153 177.222894 115.255444 177.051984 115.149372 176.940767 115.07531 176.644816 114.927185 176.357662 114.76086 176.079933 114.575704 178.024034 112.006126 178.41298 109.454122 177.246771 106.920947 176.78368 105.922364 176.135856 105.145339 175.30267 104.590501 174.469484 104.035663 173.562153 103.693596 172.581306 103.564302 172.581306 102.9172 172.729595 102.251896 173.025546 101.567135 173.376791 100.790739 173.914026 100.217699 174.635995 99.8473882 175.357964 99.4777054 176.108209 99.2931778 176.885472 99.2931778 177.662736 99.2931778 178.41298 99.4777054 179.134321 99.8473882 179.85629 100.217699 180.393525 100.790739 180.74477 101.567135 181.633879 103.508441 181.198436 105.49682 179.440325 107.531018 178.90309 108.159918 178.940162 108.816434 179.551542 109.49994 179.736276 109.722126 180.277281 110.092437 181.175815 110.609616 182.073092 111.127423 182.707093 111.515935 183.077817 111.774525 183.281401 111.922649 183.461736 112.056965 183.619451 112.176845 183.776537 112.297353 183.911003 112.436063 184.021592 112.592974 184.132809 112.750513 184.220777 112.870393 184.285497 112.953242 184.350216 113.036719 184.414936 113.179822 184.479656 113.383179 184.544375 113.587164 184.586474 113.725873 184.605325 113.799308 184.622918 113.87337 184.665018 114.053504 184.729737 114.340337 184.794457 114.627171 184.836556 114.825507 184.854778 114.9366L184.854778 114.9366zM173.747515 122.355991C173.062618 122.365406 172.331224 122.370427 171.553961 122.370427 170.776697 122.370427 170.040277 122.365406 169.346583 122.355991 168.652261 122.347204 168.06413 122.333396 167.583446 122.314566 167.101505 122.296365 166.66669 122.273142 166.278372 122.245525 165.889426 122.217909 165.570227 122.194686 165.320145 122.175857 165.070064 122.157655 164.862082 122.139453 164.69557 122.120624 164.52843 122.102422 164.407788 122.093008 164.334271 122.093008L164.195407 122.064764C163.991195 122.04719 163.824683 121.936096 163.695872 121.732112 163.565805 121.565786 163.529361 121.371216 163.584655 121.149657 163.621728 121.020363 163.667597 120.821399 163.72352 120.553395 163.778814 120.28539 163.815886 120.105256 163.834108 120.012365 163.852959 119.920101 163.894429 119.77637 163.959777 119.582428 164.023869 119.388486 164.088588 119.249776 164.153936 119.166299 164.218656 119.08345 164.306624 118.967964 164.417841 118.819839 164.52843 118.672343 164.657869 118.533006 164.806159 118.403711 164.954448 118.274416 165.13981 118.135706 165.361616 117.987582 165.750562 117.710163 166.388961 117.312864 167.277442 116.795057 168.165922 116.27725 168.702529 115.916982 168.887891 115.712997 169.499271 115.029492 169.536344 114.372975 168.999108 113.744075 167.240369 111.709878 166.805554 109.722126 167.694035 107.780193 168.045908 107.003796 168.583143 106.430756 169.304484 106.060445 170.026453 105.69139 170.776697 105.506235 171.553961 105.506235 172.331224 105.506235 173.081469 105.69139 173.803438 106.060445 174.525407 106.430756 175.062014 107.003796 175.413887 107.780193 176.302368 109.722126 175.866924 111.709878 174.108185 113.744075 173.571578 114.372975 173.608651 115.029492 174.220031 115.712997 174.404764 115.935183 174.94577 116.305494 175.844304 116.822673 176.741581 117.34048 177.375582 117.728992 177.746306 117.987582 178.208768 118.320862 178.551216 118.630291 178.77365 118.917124 178.996085 119.203958 179.148144 119.517781 179.231714 119.859847 179.315284 120.202541 179.412049 120.632478 179.523267 121.149657 179.579189 121.353642 179.541489 121.547584 179.412049 121.732112 179.28261 121.936096 179.116099 122.04719 178.912515 122.064764L178.77365 122.093008C178.699506 122.093008 178.579492 122.102422 178.41298 122.120624 178.24584 122.139453 178.037858 122.157655 177.787776 122.175857 177.537695 122.194686 177.214097 122.217909 176.816354 122.245525 176.417983 122.273142 175.978141 122.296365 175.496829 122.314566 175.015516 122.333396 174.432411 122.347204 173.747515 122.355991L173.747515 122.355991zM166.167155 115.07531C166.055938 115.149372 165.8844 115.255444 165.653168 115.394153 165.421309 115.532863 165.20453 115.662785 165.000318 115.782666 164.796734 115.903173 164.612 116.028075 164.445488 116.156742 163.871181 116.156742 163.325148 116.147955 162.807392 116.129126 162.288378 116.110924 161.844138 116.092722 161.474043 116.073893 161.103947 116.055691 160.770296 116.036862 160.474345 116.01866 160.178394 115.999831 159.932711 115.981629 159.738553 115.9628 159.544394 115.944598 159.381652 115.926396 159.252841 115.907567 159.122774 115.889365 159.020982 115.879323 158.947466 115.879323L158.863896 115.851706C158.660312 115.833505 158.493172 115.722412 158.364361 115.519055 158.234293 115.352729 158.197221 115.158786 158.253144 114.9366 158.290216 114.807305 158.336085 114.608342 158.392008 114.340337 158.447303 114.072333 158.484375 113.892199 158.503225 113.799308 158.520819 113.707044 158.562918 113.563313 158.627638 113.369371 158.692357 113.175428 158.757077 113.036719 158.822425 112.953242 158.887144 112.870393 158.975113 112.754906 159.08633 112.606782 159.197547 112.458658 159.326358 112.320576 159.474647 112.190654 159.622937 112.061359 159.808299 111.922649 160.030105 111.774525 160.419051 111.497106 161.05745 111.099807 161.946559 110.582 162.835039 110.064193 163.371646 109.703924 163.55638 109.49994 164.16776 108.816434 164.204832 108.159918 163.667597 107.531018 161.908858 105.49682 161.474043 103.508441 162.362523 101.567135 162.714397 100.790739 163.251632 100.217699 163.973601 99.8473882 164.69557 99.4777054 165.445186 99.2931778 166.222449 99.2931778 166.999713 99.2931778 167.749957 99.4777054 168.471926 99.8473882 169.193895 100.217699 169.730502 100.790739 170.082376 101.567135 170.378326 102.251896 170.526616 102.9172 170.526616 103.564302 168.305415 103.878752 166.740206 104.997843 165.834132 106.920947 164.685516 109.454122 165.083887 112.006126 167.02736 114.575704 166.953844 114.631565 166.870274 114.686797 166.777907 114.74203 166.684912 114.797891 166.578721 114.858145 166.458707 114.922792 166.338065 114.988067 166.250097 115.038279 166.194802 115.07531L166.167155 115.07531z"/>
    </g>
    <g filter="url(#b)" transform="translate(0 26.989)">
      <path fill="#D2ECF3" d="M233.430721,67.7322405 C229.735422,29.9229095 198.149123,0.385311226 159.723912,0.385311226 C121.874266,0.385311226 90.659319,29.0442066 86.2005795,66.0382268 C78.8545926,62.9966594 70.8004602,61.3170816 62.353612,61.3170816 C27.9165098,61.3170816 -0.000251338191,89.2027184 -0.000251338191,123.601427 C-0.000251338191,155.910077 24.628378,182.471384 56.1549839,185.579481 L153.476901,185.885144 L252.613481,185.885144 C282.624517,185.885144 306.954054,158.559367 306.954054,124.851068 C306.954054,91.1421413 282.624517,63.8163637 252.613481,63.8163637 C245.860023,63.8163637 239.395605,65.2028314 233.430721,67.7322405 Z"/>
      <path fill="#1396DC" fill-opacity=".1" d="M233.430721,67.7322405 C229.735422,29.9229095 198.149123,0.385311226 159.723912,0.385311226 C121.874266,0.385311226 90.659319,29.0442066 86.2005795,66.0382268 C78.8545926,62.9966594 70.8004602,61.3170816 62.353612,61.3170816 C27.9165098,61.3170816 -0.000251338191,89.2027184 -0.000251338191,123.601427 C-0.000251338191,155.082841 23.3848823,181.103745 53.7490491,185.290765 C27.7587951,179.157418 8.41580797,155.839154 8.41580797,128.003728 C8.41580797,95.491093 34.8019196,69.1350269 67.3502152,69.1350269 C75.3346012,69.1350269 82.9463783,70.7223409 89.8895958,73.5963271 C94.1039089,38.6308554 123.607242,11.5442105 159.381464,11.5442105 C195.699832,11.5442105 225.553783,39.4618573 229.046127,75.198077 C234.684271,72.8073774 240.794302,71.4968548 247.177035,71.4968548 C275.543064,71.4968548 298.537995,97.3244439 298.537995,129.184328 C298.537995,156.880417 281.159844,180.013526 257.983949,185.588896 C285.474064,182.559254 306.954054,156.523287 306.954054,124.851068 C306.954054,91.1421413 282.624517,63.8163637 252.613481,63.8163637 C245.860023,63.8163637 239.395605,65.2028314 233.430721,67.7322405 Z"/>
      <path fill="#13A1DC" fill-opacity=".2" d="M97.08434 152.884892C98.9128254 154.712594 101.137168 155.625817 103.756112 155.625817 106.374428 155.625817 108.598771 154.712594 110.427885 152.884892 112.25637 151.058445 113.171869 148.836582 113.171869 146.220558 113.171869 143.605161 112.25637 141.383298 110.427885 139.556224 108.598771 137.729777 106.374428 136.815298 103.756112 136.815298 101.137168 136.815298 98.9128254 137.729777 97.08434 139.556224 95.254598 141.383298 94.3403553 143.605161 94.3403553 146.220558 94.3403553 148.836582 95.254598 151.058445 97.08434 152.884892M131.368126 143.566247C131.559771 145.297292 131.559771 147.066623 131.368126 148.874868 131.290211 149.528874 131.021279 150.086223 130.558817 150.54817 130.096983 151.009489 129.557234 151.278748 128.941456 151.355321L124.204987 151.932754C123.511922 152.087155 122.933845 152.44303 122.472011 153.000378 122.009548 153.558355 121.778946 154.202946 121.778946 154.932897 121.778946 155.587531 121.952369 156.144879 122.298587 156.606198 122.298587 156.645112 123.260584 157.914838 125.187091 160.414748 125.571011 160.914981 125.764541 161.482372 125.764541 162.116921 125.764541 162.75147 125.552789 163.319489 125.129284 163.819094 124.011457 165.203679 122.76105 166.454575 121.374291 167.569273 120.912457 167.992933 120.334379 168.204449 119.641314 168.204449 118.948249 168.204449 118.38965 168.01239 117.966145 167.627016L114.211781 164.74236C113.749319 164.3959 113.171869 164.22267 112.478804 164.22267 111.746782 164.22267 111.101471 164.463685 110.5435 164.943834 109.984901 165.425237 109.628001 166.031542 109.474684 166.761494L108.897235 171.377822C108.819948 171.993542 108.551017 172.531433 108.088554 172.99338 107.626092 173.454699 107.068121 173.724586 106.413385 173.801159 105.257858 173.878359 104.371891 173.916646 103.756112 173.916646 103.139705 173.916646 102.254367 173.878359 101.098839 173.801159 100.444103 173.724586 99.8861325 173.454699 99.4236702 172.99338 98.9618363 172.531433 98.6922761 171.993542 98.615618 171.377822 98.2298138 168.339393 98.0375401 166.800408 98.0375401 166.761494 97.9219245 166.031542 97.5757062 165.425237 96.9976284 164.943834 96.4201789 164.463685 95.7648145 164.22267 95.0340487 164.22267 94.3786844 164.22267 93.7629058 164.415984 93.1854563 164.800103L89.5460793 167.627016C89.1219462 168.01239 88.5639754 168.204449 87.8709103 168.204449 87.2545034 168.204449 86.6770539 167.992933 86.1379335 167.569273 84.7518034 166.454575 83.4995108 165.203679 82.3835693 163.819094 81.9594361 163.319489 81.7476836 162.75147 81.7476836 162.116921 81.7476836 161.482372 81.9399574 160.914981 82.3257615 160.414748L85.0980217 156.779428C85.5215266 156.241537 85.7339073 155.625817 85.7339073 154.932897 85.7339073 154.164032 85.4825692 153.490569 84.9830345 152.913763 84.4816148 152.33633 83.8463575 152.009955 83.0766343 151.932754L78.5707689 151.355321C77.954362 151.278748 77.4158699 151.009489 76.9534077 150.54817 76.4915737 150.086223 76.2213852 149.528874 76.144727 148.874868 75.9524533 147.143823 75.9524533 145.37512 76.144727 143.566247 76.1824278 142.951155 76.4337659 142.403221 76.8955999 141.921818 77.3574338 141.441042 77.9154046 141.162367 78.5707689 141.085167L83.0766343 140.508361C83.8463575 140.392875 84.4816148 140.046415 84.9830345 139.469609 85.4825692 138.892803 85.7339073 138.219968 85.7339073 137.449847 85.7339073 136.796469 85.5215266 136.200206 85.0980217 135.661687L82.3257615 132.026368C81.9009999 131.526762 81.699301 130.958743 81.7187797 130.324194 81.7382585 129.689018 81.9594361 129.122254 82.3835693 128.622021 83.4995108 127.236809 84.7518034 125.987796 86.1379335 124.871215 86.6380965 124.448183 87.2067491 124.236666 87.8420064 124.236666 88.4772637 124.236666 89.045288 124.429981 89.5460793 124.813472L93.1854563 127.641012C93.7629058 128.026386 94.3786844 128.217818 95.0340487 128.217818 95.7648145 128.217818 96.4201789 127.978058 96.9976284 127.496654 97.5757062 127.016506 97.9219245 126.410201 98.0375401 125.678994L98.615618 121.063293C98.6922761 120.448201 98.9618363 119.909054 99.4236702 119.447735 99.8861325 118.985789 100.444103 118.717157 101.098839 118.639329 102.831816 118.447897 104.602494 118.447897 106.413385 118.639329 107.068121 118.717157 107.626092 118.985789 108.088554 119.447735 108.551017 119.909054 108.819948 120.448201 108.897235 121.063293L109.474684 125.678994C109.628001 126.410201 109.984901 127.016506 110.5435 127.496654 111.101471 127.978058 111.746782 128.217818 112.478804 128.217818 113.017296 128.217818 113.595374 128.044588 114.211781 127.698756 115.866843 126.429658 117.118507 125.468106 117.966145 124.813472 118.466308 124.429981 119.034961 124.236666 119.670218 124.236666 120.306104 124.236666 120.8735 124.448183 121.374291 124.871215 122.76105 125.987796 124.011457 127.236809 125.129284 128.622021 125.552789 129.122254 125.764541 129.689018 125.764541 130.324194 125.764541 130.958743 125.571011 131.526762 125.187091 132.026368 123.260584 134.526905 122.298587 135.796631 122.298587 135.834289 121.952369 136.296236 121.778946 136.835383 121.778946 137.449847 121.778946 138.181054 122.009548 138.825645 122.472011 139.382994 122.933845 139.94097 123.511922 140.316302 124.204987 140.508361 126.322512 140.777621 127.901544 140.96968 128.941456 141.085167 129.557234 141.162367 130.096983 141.430999 130.558817 141.892946 131.021279 142.354893 131.290211 142.912241 131.368126 143.566247M216.635612 109.586304C219.156534 109.608899 221.228189 110.395966 222.848692 111.947504 224.469195 113.498415 225.279761 115.589727 225.279761 118.220815L220.687812 118.220815C219.561817 118.220815 218.605475 117.827282 217.81753 117.040215 217.028957 116.253148 216.635612 115.297873 216.635612 114.173133L216.635612 109.586304zM229.635452 105.33652C233.214508 108.979371 235.004036 113.274345 235.004036 118.220815L229.804477 118.220815C229.804477 116.579524 229.472082 114.926934 228.807921 113.26242 228.14376 111.599161 227.238314 110.171269 226.089698 108.979371 223.433682 106.259158 220.28253 104.931689 216.635612 104.999474L216.635612 99.8728706C221.722697 99.8728706 226.056396 101.694296 229.635452 105.33652L229.635452 105.33652zM236.624539 98.4901688C239.145461 101.053471 241.120979 104.049848 242.550465 107.478672 243.979951 110.907496 244.70569 114.488838 244.72831 118.220815L239.42696 118.220815C239.42696 111.970099 237.220839 106.606873 232.809225 102.132392 231.41367 100.715798 229.905641 99.5132301 228.285138 98.5240617 226.664006 97.5342656 225.105081 96.8262821 223.608362 96.3988559 222.111015 95.9720574 220.822907 95.6795748 219.742152 95.5220359 218.662027 95.3651247 217.625885 95.2860414 216.635612 95.2860414L216.635612 90.1594376C217.648505 90.1594376 218.655743 90.2096492 219.657954 90.3113277 220.658908 90.4123785 221.903033 90.6314266 223.38907 90.9684719 224.874478 91.3061449 226.303964 91.7611875 227.676899 92.334855 229.049834 92.9078948 230.535243 93.7232056 232.134382 94.7801596 233.731636 95.8371137 235.228983 97.0729466 236.624539 98.4901688L236.624539 98.4901688zM182.765404 153.238256C185.922211 156.392799 189.735012 157.970071 194.202548 157.970071 198.669456 157.970071 202.481628 156.392799 205.640321 153.238256 208.797128 150.084968 210.376789 146.276418 210.376789 141.813863 210.376789 137.351935 208.797128 133.544013 205.640321 130.388842 202.481628 127.235554 198.669456 125.657654 194.202548 125.657654 189.735012 125.657654 185.922211 127.235554 182.765404 130.388842 179.607339 133.544013 178.028307 137.351935 178.028307 141.813863 178.028307 146.276418 179.607339 150.084968 182.765404 153.238256M177.855512 125.484424C182.360749 120.98421 187.809761 118.733475 194.202548 118.733475 200.594706 118.733475 206.044347 120.98421 210.550212 125.484424 215.055449 129.985266 217.308696 135.428831 217.308696 141.813863 217.308696 148.199522 215.055449 153.642459 210.550212 158.142673 206.044347 162.643515 200.594706 164.893622 194.202548 164.893622 190.813881 164.893622 187.617487 164.20133 184.613368 162.816745L170.692374 173.029784C169.45956 173.952422 168.092908 174.298882 166.591163 174.068536 165.089417 173.837563 163.876082 173.106984 162.951786 171.875544 162.219763 170.875706 161.854694 169.769168 161.854694 168.557813 161.854694 167.346459 162.219763 166.240548 162.951786 165.240082L173.176223 151.392352C171.790093 148.391582 171.097028 145.198752 171.097028 141.813863 171.097028 135.428831 173.349647 129.985266 177.855512 125.484424M180.923346 49.0694066C181.374498 47.6823113 181.75716 45.8954062 182.069448 43.7099465 182.381736 41.5244868 182.58155 39.8160373 182.668261 38.584598 182.754973 37.3531586 182.798957 36.5811553 182.798957 36.2685881 182.798957 35.8185667 182.963584 35.4281716 183.293465 35.0980303 183.623346 34.7691444 184.013549 34.6040738 184.465958 34.6040738L190.508128 34.6040738C190.95928 34.6040738 191.350111 34.7691444 191.68062 35.0980303 192.010502 35.4281716 192.175128 35.8185667 192.175128 36.2685881 192.175128 36.5472625 192.218484 37.3098511 192.305824 38.5582369 192.391908 39.8072503 192.591721 41.5244868 192.904637 43.7099465 193.216925 45.8954062 193.598959 47.6823113 194.05074 49.0694066 194.25935 49.5552038 194.188976 50.041001 193.842129 50.5261705 193.529841 51.0125953 193.078061 51.2548663 192.488044 51.2548663L182.486041 51.2548663C181.895396 51.2548663 181.444244 51.0125953 181.131957 50.5261705 180.819041 50.1100419 180.749294 49.6248724 180.923346 49.0694066L180.923346 49.0694066zM179.569261 71.6520714C178.873683 72.4849562 178.005938 72.9010848 176.964769 72.9010848 176.23526 72.9010848 175.54031 72.6581862 174.880547 72.172389 174.151667 71.6181786 173.735074 70.8800681 173.630768 69.9611959 173.526463 69.0423237 173.769004 68.2175983 174.359649 67.4895302L181.54855 59.1638201C182.207684 58.366711 183.023905 57.9499548 183.997212 57.9148067 185.003821 57.8457657 185.837008 58.1752793 186.497399 58.9033475L190.56028 62.9102327 195.561282 56.8227045C196.151299 56.1291568 196.897773 55.729347 197.801334 55.6257856 198.703638 55.5215965 199.520487 55.7475487 200.249368 56.3017592 200.943689 56.8923731 201.343946 57.6468023 201.447623 58.5656745 201.551928 59.4851743 201.325724 60.2916981 200.770266 60.9852457L193.425536 69.9869294C192.800332 70.7501456 192.001077 71.1669019 191.029026 71.2359428 190.056976 71.3056114 189.206196 70.9754701 188.476687 70.247402L184.413805 66.2405168 179.569261 71.6520714zM209.366032 40.691602C209.782625 40.7267501 210.128844 40.9093948 210.407201 41.2382807 210.684929 41.568422 210.824422 41.9406154 210.824422 42.356744L210.824422 81.0698836C210.824422 81.4866399 210.693726 81.8506739 210.433591 82.1632411 210.172828 82.4751807 209.834778 82.6490383 209.417557 82.6835588 209.000964 82.7871202 207.802709 82.9697649 205.82342 83.2296099 203.844132 83.4894549 201.039198 83.775661 197.410503 84.0882281 193.781179 84.4007953 190.473569 84.5564513 187.487043 84.5564513 184.499888 84.5564513 181.192278 84.4007953 177.563583 84.0882281 173.934259 83.775661 171.130582 83.4894549 169.150665 83.2296099 167.171377 82.9697649 165.973122 82.7871202 165.555901 82.6835588 165.173867 82.6138902 164.843985 82.4318732 164.566256 82.13688 164.287899 81.8425146 164.149663 81.4866399 164.149663 81.0698836L164.149663 42.356744C164.149663 41.9406154 164.287899 41.568422 164.566256 41.2382807 164.843985 40.9093948 165.19146 40.7267501 165.608053 40.691602 169.462953 40.2415806 173.943056 39.8944929 179.048363 39.6509667 178.873683 42.0799526 178.579617 44.1957437 178.162396 45.9989676 174.967259 46.1383048 172.518597 46.3115348 170.817666 46.5199129L170.817666 77.0115315C178.492277 77.8098959 184.049365 78.2084504 187.487043 78.2084504 193.494654 78.2084504 199.051741 77.8098959 204.15642 77.0115315L204.15642 46.5199129C202.419673 46.3115348 199.971011 46.1383048 196.81169 45.9989676 196.359909 44.021886 196.082181 41.9067226 195.977875 39.6509667 201.047995 39.8944929 205.510504 40.2415806 209.366032 40.691602L209.366032 40.691602zM155.578151 142.637584C157.389671 141.765785 158.895187 140.545016 160.095955 138.975276 161.296095 137.405536 162.060163 135.596035 162.387531 133.546775L157.640381 133.546775C157.37899 137.187743 156.690951 140.218013 155.578151 142.637584L155.578151 142.637584zM162.354857 129.361011C162.027489 127.312377 161.269076 125.529866 160.079618 124.014731 158.89016 122.499596 157.389671 121.316485 155.578151 120.466654 156.712943 122.952128 157.389671 125.916495 157.607707 129.361011L162.354857 129.361011zM154.10531 129.361011C154.01797 127.987723 153.848316 126.69603 153.597607 125.485931 153.346268 124.276459 153.074195 123.28478 152.778872 122.510266 152.484807 121.737007 152.168121 121.066683 151.830071 120.499292 151.491392 119.932528 151.196698 119.523931 150.945989 119.272873 150.69465 119.022443 150.492952 118.896914 150.340264 118.896914 150.186947 118.896914 149.985248 119.022443 149.734539 119.272873 149.4832 119.523931 149.189135 119.932528 148.850456 120.499292 148.511778 121.066683 148.19572 121.737007 147.901655 122.510266 147.606332 123.28478 147.33363 124.276459 147.082921 125.485931 146.831582 126.69603 146.662557 127.987723 146.575217 129.361011L154.10531 129.361011zM149.162116 142.621265C149.685528 143.417119 150.078243 143.814418 150.340264 143.814418 150.602284 143.814418 150.995 143.417119 151.51904 142.621265 152.042451 141.826039 152.577173 140.593972 153.123206 138.925692 153.667981 137.258667 154.007288 135.465485 154.137984 133.546775L146.543172 133.546775C146.673868 135.465485 147.011918 137.258667 147.557321 138.925692 148.103354 140.593972 148.638076 141.826039 149.162116 142.621265L149.162116 142.621265zM138.32567 129.361011L143.07282 129.361011C143.290227 125.916495 143.966955 122.952128 145.102376 120.466654 143.290227 121.316485 141.790367 122.499596 140.600909 124.014731 139.411451 125.529866 138.653038 127.312377 138.32567 129.361011L138.32567 129.361011zM145.102376 142.637584C143.989576 140.218013 143.301538 137.187743 143.039517 133.546775L138.292996 133.546775C138.620364 135.596035 139.384432 137.405536 140.584572 138.975276 141.784712 140.545016 143.290227 141.765785 145.102376 142.637584L145.102376 142.637584zM158.213432 145.041464C155.801842 146.447389 153.177243 147.150351 150.340264 147.150351 147.502655 147.150351 144.878056 146.447389 142.467095 145.041464 140.054876 143.634912 138.145335 141.727499 136.737841 139.318597 135.330347 136.910324 134.6266 134.288023 134.6266 131.454206 134.6266 128.62039 135.330347 125.998717 136.737841 123.589188 138.145335 121.180914 140.054876 119.272873 142.467095 117.866949 144.878056 116.460397 147.502655 115.757434 150.340264 115.757434 153.177243 115.757434 155.801842 116.460397 158.213432 117.866949 160.625022 119.272873 162.534564 121.180914 163.942686 123.589188 165.35018 125.998717 166.053927 128.62039 166.053927 131.454206 166.053927 134.288023 165.35018 136.910324 163.942686 139.318597 162.534564 141.727499 160.625022 143.634912 158.213432 145.041464L158.213432 145.041464zM42.0412135 120.422029C42.6613904 121.041514 43.4216885 121.351571 44.3221075 121.351571 45.2218983 121.351571 45.9821963 121.041514 46.6030016 120.422029 47.2231786 119.802543 47.5335813 119.043093 47.5335813 118.143677 47.5335813 117.24489 47.2231786 116.48544 46.6030016 115.865326 45.9821963 115.245841 45.2218983 114.935784 44.3221075 114.935784 43.4216885 114.935784 42.6613904 115.245841 42.0412135 115.865326 41.4210365 116.48544 41.1106338 117.24489 41.1106338 118.143677 41.1106338 119.043093 41.4210365 119.802543 42.0412135 120.422029M51.0730513 114.389105L53.5185719 111.983342C51.0121018 109.431966 47.9464043 108.155964 44.3221075 108.155964 40.6965541 108.155964 37.6314849 109.431966 35.1262715 111.983342L37.5711637 114.389105C39.4197561 112.493618 41.6698613 111.545874 44.3221075 111.545874 46.9737255 111.545874 49.2238306 112.493618 51.0730513 114.389105M56.0363523 109.395562L58.4448005 107.026203C56.6200852 105.155193 54.4906224 103.697174 52.058297 102.652145 49.6253434 101.607116 47.0466135 101.084288 44.3221075 101.084288 41.5969732 101.084288 39.0182434 101.607116 36.5852897 102.652145 34.152336 103.697174 32.0241299 105.155193 30.1994146 107.026203L32.6078628 109.395562C35.8432137 106.114862 39.7483808 104.474198 44.3221075 104.474198 46.5602741 104.474198 48.6884803 104.906018 50.7079826 105.768402 52.727485 106.631414 54.5031893 107.840886 56.0363523 109.395562M61.2547614 103.92752L61.2547614 121.643426C61.2547614 122.12985 61.0844798 122.542213 60.7439166 122.882397 60.402725 123.223208 59.9892737 123.392672 59.5029343 123.392672L29.1412808 123.392672C28.6543131 123.392672 28.2408618 123.223208 27.9002985 122.882397 27.5597353 122.542213 27.3894536 122.12985 27.3894536 121.643426L27.3894536 103.92752C27.3894536 103.417244 27.5842407 102.992329 27.9731866 102.652145L43.1540133 88.3989563C43.4945766 88.0838786 43.8898059 87.9250844 44.3403296 87.9250844 44.7902249 87.9250844 45.1735157 88.0838786 45.4895734 88.3989563L60.6704001 102.652145C61.0599743 102.992329 61.2547614 103.417244 61.2547614 103.92752M151.904718 34.7567798C152.293664 34.8057361 152.622289 34.9934019 152.889964 35.3216602 153.157639 35.6499185 153.291477 36.0453348 153.291477 36.5066539L153.291477 53.8578981C153.291477 54.3443229 153.139417 54.7566857 152.835298 55.0968692 152.531179 55.4376804 152.172393 55.6071445 151.758942 55.6071445L146.649865 55.6071445C146.235785 55.6071445 145.877 55.4376804 145.573509 55.0968692 145.268762 54.7566857 145.11733 54.3443229 145.11733 53.8578981L145.11733 36.5066539C145.11733 36.0453348 145.25054 35.6442697 145.518843 35.3034585 145.78589 34.9639026 146.114515 34.7812579 146.504089 34.7567798 147.282609 34.6601225 148.1824 34.6111662 149.204718 34.6111662 150.201902 34.6111662 151.102321 34.6601225 151.904718 34.7567798L151.904718 34.7567798zM140.227546 40.5888565C140.615863 40.6384405 140.944488 40.8261063 141.212163 41.153737 141.479838 41.4819953 141.614304 41.8774116 141.614304 42.3387306L141.614304 53.8578981C141.614304 54.3443229 141.461616 54.7566857 141.157497 55.0968692 140.853378 55.4376804 140.494593 55.6071445 140.081141 55.6071445L134.972064 55.6071445C134.558613 55.6071445 134.199828 55.4376804 133.895708 55.0968692 133.590961 54.7566857 133.43953 54.3443229 133.43953 53.8578981L133.43953 42.3387306C133.43953 41.8774116 133.573367 41.4763465 133.841042 41.1361629 134.108718 40.7959794 134.436714 40.6139623 134.826288 40.5888565 135.604808 40.4921992 136.505227 40.4432429 137.526917 40.4432429 138.524101 40.4432429 139.42452 40.4921992 140.227546 40.5888565L140.227546 40.5888565zM128.549745 44.0886047C128.938691 44.137561 129.266687 44.3252268 129.534991 44.6534851 129.802038 44.9817434 129.936504 45.3765321 129.936504 45.8384788L129.936504 53.8578981C129.936504 54.3443229 129.783816 54.7566857 129.480325 55.0968692 129.175577 55.4376804 128.816792 55.6071445 128.403969 55.6071445L123.294892 55.6071445C122.880812 55.6071445 122.522027 55.4376804 122.217908 55.0968692 121.913789 54.7566857 121.761729 54.3443229 121.761729 53.8578981L121.761729 45.8384788C121.761729 45.3765321 121.895567 44.9760946 122.163242 44.6352834 122.430917 44.2950999 122.759542 44.1130828 123.148487 44.0886047 123.927007 43.9913197 124.827427 43.9429911 125.849116 43.9429911 126.846301 43.9429911 127.74672 43.9913197 128.549745 44.0886047L128.549745 44.0886047zM139.533852 35.7773304C139.046885 36.1419922 138.505879 36.2938822 137.910208 36.2330007 137.313279 36.1727468 136.808718 35.9229441 136.395267 35.4861032L132.199176 30.8929976 128.695521 34.4655525C128.743904 34.7567798 128.768409 35.000306 128.768409 35.1942483 128.768409 36.3127116 128.367525 37.271753 127.564499 38.0738833 126.761474 38.8760135 125.800105 39.2770786 124.68165 39.2770786 123.561939 39.2770786 122.601198 38.8760135 121.798173 38.0738833 120.995776 37.271753 120.594263 36.3127116 120.594263 35.1942483 120.594263 34.0770403 120.995776 33.1167436 121.798173 32.3146133 122.601198 31.5124831 123.561939 31.111418 124.68165 31.111418 124.802921 31.111418 125.033524 31.1358961 125.374715 31.1848525L130.593125 25.9716336C131.103969 25.5109422 131.675764 25.2793413 132.308508 25.2793413 132.989006 25.3282976 133.548862 25.583749 133.986819 26.0450681L138.402831 30.7831597 146.284796 24.8418727 146.284796 24.6962591C146.284796 23.5784235 146.686309 22.6181267 147.489334 21.8166241 148.291732 21.0144939 149.2531 20.6134288 150.372184 20.6134288 151.490638 20.6134288 152.452635 21.0144939 153.255033 21.8166241 154.058058 22.6181267 154.458942 23.5784235 154.458942 24.6962591 154.458942 25.8140947 154.058058 26.7737638 153.255033 27.5758941 152.452635 28.3773967 151.490638 28.7790894 150.372184 28.7790894 149.909721 28.7790894 149.49627 28.705655 149.131201 28.5600413L139.533852 35.7773304zM62.1496511 158.936016L66.8207713 158.936016 66.8207713 134.44029 62.1496511 134.44029 62.1496511 158.936016zM59.8140909 149.13032C58.9871883 147.478358 57.819094 146.068668 56.3110649 144.901876L56.3110649 134.44029 59.8140909 134.44029 59.8140909 149.13032zM53.9755048 143.553067C52.4668473 142.897178 50.9104355 142.56892 49.3043845 142.56892 49.0612148 142.56892 48.6716406 142.594025 48.1362903 142.642354L48.1362903 134.44029 53.9755048 134.44029 53.9755048 143.553067zM45.8013585 134.44029L45.8013585 143.116226C45.0222101 143.359124 44.24369 143.711861 43.46517 144.17318L43.46517 134.44029 45.8013585 134.44029zM45.1258871 158.443943C46.3059199 159.62266 47.6989618 160.212019 49.3043845 160.212019 50.9104355 160.212019 52.3022208 159.62266 53.4828819 158.443943 54.6622864 157.265853 55.2529311 155.862439 55.2529311 154.233701 55.2529311 152.630068 54.6622864 151.238579 53.4828819 150.059862 52.3022208 148.881772 50.9104355 148.292414 49.3043845 148.292414 47.6989618 148.292414 46.3059199 148.881772 45.1258871 150.059862 43.9458543 151.238579 43.3564662 152.630068 43.3564662 154.233701 43.3564662 155.862439 43.9458543 157.265853 45.1258871 158.443943L45.1258871 158.443943zM41.1302382 145.922426C40.1324256 146.919754 39.3539055 148.013112 38.7946781 149.203126L38.7946781 134.44029 41.1302382 134.44029 41.1302382 145.922426zM39.2690789 166.772791C39.0007754 166.943511 38.6482736 166.98619 38.2109451 166.900831 37.7729883 166.816099 37.4198582 166.63973 37.152183 166.372354 36.8845078 166.080499 36.7142262 165.722114 36.6413381 165.29657 36.56845 164.872282 36.6168326 164.513269 36.7871143 164.221414 37.857815 162.544975 39.3055229 160.722294 41.1302382 158.753999 40.3510898 157.319831 39.962144 155.826036 39.962144 154.270104 39.962144 151.694877 40.8745016 149.494981 42.6992168 147.6723 44.5239321 145.850247 46.7250263 144.938279 49.3043845 144.938279 51.882486 144.938279 54.0785534 145.850247 55.8913301 147.6723 57.7034785 149.494981 58.6095527 151.694877 58.6095527 154.270104 58.6095527 156.846586 57.7034785 159.045227 55.8913301 160.867908 54.0785534 162.690588 51.882486 163.601929 49.3043845 163.601929 47.7228389 163.601929 46.2141814 163.213417 44.7790404 162.435137 42.5653793 164.379581 40.7287254 165.825675 39.2690789 166.772791L39.2690789 166.772791zM31.7879976 158.936016L36.4591179 158.936016 36.4591179 134.44029 31.7879976 134.44029 31.7879976 158.936016zM86.0870375 94.2135845L92.3723773 94.2135845 92.3723773 88.9815364C92.3723773 86.8883405 91.3249254 85.8420564 89.2293932 85.8420564 87.1344894 85.8420564 86.0870375 86.8883405 86.0870375 88.9815364L86.0870375 94.2135845zM100.753249 96.4699681L100.753249 107.784523C100.753249 108.286012 100.583596 108.727874 100.245546 109.108227 99.9068679 109.490462 99.497815 109.735244 99.0183874 109.844454 95.8314191 110.585703 92.5690494 110.956013 89.2293932 110.956013 85.8250174 110.956013 82.5293454 110.585703 79.3430055 109.844454 78.8623212 109.735244 78.4696053 109.490462 78.1648577 109.108227 77.8588535 108.727874 77.7061655 108.286012 77.7061655 107.784523L77.7061655 96.5678807C77.7061655 95.9578098 77.9028377 95.413014 78.2955536 94.9328656 78.6882695 94.4533449 79.1683255 94.2135845 79.7357214 94.2135845L80.8491496 94.2135845 80.8491496 88.9815364C80.8491496 86.4747225 81.6182445 84.4524505 83.1570625 82.9153481 84.6958806 81.3782456 86.7197814 80.6100082 89.2293932 80.6100082 91.7390051 80.6100082 93.7635342 81.3782456 95.3023523 82.9153481 96.8411703 84.4524505 97.6102652 86.4747225 97.6102652 88.9815364L97.6102652 94.2135845 98.6250431 94.2135845C99.1924391 94.2135845 99.688832 94.4426749 100.11485 94.9002281 100.54024 95.3577813 100.753249 95.8812371 100.753249 96.4699681L100.753249 96.4699681zM286.581711 104.661676C286.581711 105.964667 286.145011 107.083758 285.271611 108.022087 284.397582 108.959161 283.321855 109.493287 282.044429 109.623209L278.133606 118.023609C278.75881 118.909216 279.071726 119.873279 279.071726 120.914542 279.071726 122.29536 278.583502 123.47345 277.605168 124.450065 276.627462 125.426681 275.447429 125.915616 274.065698 125.915616 272.683338 125.915616 271.503933 125.426681 270.525599 124.450065 269.547894 123.47345 269.059041 122.29536 269.059041 120.914542L269.059041 120.836714 263.974469 117.78887C263.40079 118.101437 262.748567 118.297262 262.019058 118.37509L258.107608 126.774862C258.73344 127.660469 259.046356 128.624532 259.046356 129.665795 259.046356 131.047241 258.557503 132.225331 257.579798 133.201946 256.602092 134.178562 255.421431 134.66687 254.039699 134.66687 252.657339 134.66687 251.477935 134.178562 250.500229 133.201946 249.522523 132.225331 249.033671 131.047241 249.033671 129.665795 249.033671 128.364059 249.469742 127.243713 250.343771 126.306012 251.217171 125.36831 252.292899 124.834812 253.570325 124.704262L257.442818 116.30449C256.842748 115.41951 256.543027 114.455448 256.543027 113.412929 256.543027 112.033366 257.03188 110.854021 258.009586 109.877405 258.987291 108.90079 260.167324 108.412482 261.549684 108.412482 262.931416 108.412482 264.111449 108.90079 265.089154 109.877405 266.067488 110.854021 266.555713 112.033366 266.555713 113.412929L266.555713 113.491385 271.640913 116.538601C272.213964 116.226034 272.865558 116.030836 273.596324 115.953008L277.468817 107.552609C276.868747 106.667629 276.568398 105.703567 276.568398 104.661676 276.568398 103.281485 277.057879 102.102768 278.035584 101.126152 279.01329 100.149537 280.193323 99.6606011 281.575055 99.6606011 282.956786 99.6606011 284.136819 100.149537 285.115153 101.126152 286.092859 102.102768 286.581711 103.281485 286.581711 104.661676M186.937429 104.116755L194.625864 98.2294451 194.625864 109.03498C194.625864 109.228923 194.561145 109.394621 194.432334 109.531447 194.302895 109.668902 194.140782 109.753634 193.947251 109.786271 190.600055 110.270813 187.204476 110.513084 183.759886 110.513084 180.331633 110.513084 176.927886 110.270813 173.548644 109.786271 173.370822 109.753634 173.216877 109.668902 173.087438 109.531447 172.957999 109.394621 172.893908 109.228923 172.893908 109.03498L172.893908 98.2294451 180.582343 104.116755C181.439406 104.763229 182.498797 105.085838 183.759886 105.085838 185.021604 105.085838 186.080366 104.763229 186.937429 104.116755L186.937429 104.116755zM173.742802 95.7822575C173.289765 95.3460443 173.00701 94.9186181 172.893908 94.498096L172.893908 93.3833986C172.893908 93.1900839 172.957999 93.0243857 173.087438 92.8869314 173.216877 92.7501048 173.370822 92.6653728 173.548644 92.6327352 176.911549 92.1481934 180.315924 91.9059224 183.759886 91.9059224 187.204476 91.9059224 190.600055 92.1481934 193.947251 92.6327352 194.140782 92.6653728 194.302895 92.7501048 194.432334 92.8869314 194.561145 93.0243857 194.625864 93.1900839 194.625864 93.3833986L194.625864 94.498096C194.512762 94.9186181 194.229378 95.3460443 193.777598 95.7822575L185.506686 102.032973C185.053649 102.388848 184.471173 102.565844 183.759886 102.565844 183.048599 102.565844 182.466123 102.388848 182.013714 102.032973L173.742802 95.7822575zM131.399418 75.4142379C132.147777 76.1460719 133.015522 76.5107336 134.00391 76.5107336 134.990412 76.5107336 135.858785 76.1460719 136.607773 75.4142379 137.356133 74.6830315 137.731255 73.8250409 137.731255 72.8383831 137.731255 71.8523529 137.356133 70.9767882 136.607773 70.211689 135.858785 69.4465898 134.990412 69.0637264 134.00391 69.0637264 133.015522 69.0637264 132.147777 69.4465898 131.399418 70.211689 130.65043 70.9767882 130.275936 71.8523529 130.275936 72.8383831 130.275936 73.8250409 130.65043 74.6830315 131.399418 75.4142379M130.429252 100.535099L137.577939 100.535099C138.054224 100.535099 138.446312 100.381953 138.752316 100.07629 139.058949 99.7699996 139.212265 99.3796045 139.212265 98.9025943L139.212265 97.2707175C139.212265 96.7949626 139.058949 96.4033122 138.752316 96.0976491 138.446312 95.7913584 138.054224 95.6388407 137.577939 95.6388407L137.629463 82.5806878C137.629463 82.1394534 137.46735 81.75659 137.14438 81.4327252 136.820154 81.1101157 136.437492 80.9481833 135.995136 80.9481833L130.429252 80.9481833C129.95171 80.9481833 129.560879 81.1019563 129.254246 81.4076194 128.948242 81.7139101 128.794926 82.1049329 128.794926 82.5806878L128.794926 84.2131923C128.794926 84.6895748 128.948242 85.0799699 129.254246 85.3862606 129.560879 85.6919237 129.95171 85.8450691 130.429252 85.8450691L130.429252 95.6388407C129.95171 95.6388407 129.560879 95.7913584 129.254246 96.0976491 128.948242 96.4033122 128.794926 96.7949626 128.794926 97.2707175L128.794926 98.9025943C128.794926 99.3796045 128.948242 99.7699996 129.254246 100.07629 129.560879 100.381953 129.95171 100.535099 130.429252 100.535099M121.722897 64.6520102C125.483545 62.4583911 129.577844 61.3618954 134.00391 61.3618954 138.428718 61.3618954 142.522389 62.4583911 146.284294 64.6520102 150.04557 66.8450016 153.025184 69.8206662 155.220623 73.5777488 157.41669 77.3360867 158.51441 81.4251934 158.51441 85.8450691 158.51441 90.2662 157.41669 94.3553068 155.220623 98.1123894 153.025184 101.8701 150.04557 104.845137 146.284294 107.038756 142.522389 109.231747 138.428718 110.328243 134.00391 110.328243 129.577844 110.328243 125.483545 109.231747 121.722897 107.038756 117.960993 104.845137 114.982635 101.8701 112.786568 98.1123894 110.5905 94.3553068 109.492781 90.2662 109.492781 85.8450691 109.492781 81.4251934 110.5905 77.3360867 112.786568 73.5777488 114.982635 69.8206662 117.960993 66.8450016 121.722897 64.6520102M260.685772 162.981439C260.764315 163.243167 260.711534 163.518076 260.528686 163.805537 260.345209 164.093626 260.109579 164.250537 259.821797 164.276271L259.546582 164.315185C259.363105 164.342173 259.080978 164.374811 258.702085 164.413725 258.321936 164.453267 257.857589 164.492181 257.307787 164.531722 256.757356 164.570636 256.004598 164.603901 255.048885 164.629635 254.092543 164.655996 253.051374 164.682357 251.926008 164.70809 251.690378 164.525446 251.428358 164.349077 251.139948 164.178358 250.851537 164.008266 250.544276 163.824994 250.216908 163.629169 249.888912 163.432716 249.647627 163.282709 249.490541 163.177264 249.070806 162.968259 248.665523 162.732892 248.272807 162.471791 251.022447 158.835844 251.572249 155.225631 249.922214 151.641778 249.267478 150.228949 248.35135 149.130571 247.172574 148.345387 245.994426 147.560831 244.710717 147.076916 243.322701 146.893644 243.322701 145.978538 243.531941 145.036443 243.951675 144.068614 244.448697 142.969608 245.208366 142.159318 246.230056 141.635863 247.251117 141.113034 248.311765 140.850679 249.411997 140.850679 250.511602 140.850679 251.572249 141.113034 252.593939 141.635863 253.615 142.159318 254.374042 142.969608 254.87232 144.068614 256.129011 146.815189 255.513232 149.627666 253.025612 152.50479 252.265943 153.39479 252.318724 154.323077 253.182699 155.290906 253.44409 155.604728 254.210044 156.128184 255.480558 156.860646 256.750444 157.593107 257.647722 158.142297 258.171762 158.508214 258.459544 158.717847 258.714652 158.907396 258.937715 159.077488 259.159521 159.247579 259.350538 159.444032 259.507624 159.665591 259.664711 159.888405 259.788495 160.058497 259.880233 160.175866 259.971972 160.293864 260.063082 160.496593 260.155448 160.784054 260.246559 161.072143 260.306251 161.268596 260.332642 161.372785 260.358404 161.477602 260.41684 161.732426 260.509207 162.137884 260.600317 162.543971 260.659382 162.824528 260.685772 162.981439L260.685772 162.981439zM244.972737 173.478173C244.003828 173.491354 242.969571 173.49763 241.869338 173.49763 240.769734 173.49763 239.728565 173.491354 238.746461 173.478173 237.764357 173.464993 236.933056 173.445536 236.25193 173.419174 235.570803 173.393441 234.955653 173.360176 234.405851 173.321262 233.856049 173.28172 233.404268 173.249083 233.05051 173.222722 232.697379 173.196988 232.402057 173.170627 232.166428 173.144266 231.930798 173.118533 231.760516 173.104724 231.656211 173.104724L231.459539 173.06581C231.171128 173.040077 230.935499 172.883166 230.75265 172.595077 230.569173 172.35971 230.517021 172.084801 230.595564 171.770979 230.647717 171.588334 230.713064 171.307149 230.791608 170.927424 230.870151 170.548327 230.922303 170.293503 230.948694 170.162325 230.974456 170.031775 231.033521 169.828418 231.125887 169.554137 231.216998 169.279228 231.308736 169.083403 231.401103 168.965406 231.492213 168.848036 231.616625 168.684221 231.773712 168.474588 231.930798 168.265582 232.113647 168.069757 232.323514 167.886484 232.533381 167.70384 232.795401 167.507387 233.109574 167.297753 233.659376 166.905475 234.562937 166.343105 235.820256 165.610644 237.076947 164.878182 237.835989 164.368534 238.098637 164.079818 238.962612 163.112617 239.014765 162.183702 238.255724 161.29433 235.766847 158.417205 235.152325 155.604728 236.409016 152.858154 236.906037 151.759148 237.666335 150.948858 238.687397 150.425402 239.709087 149.902574 240.769734 149.640218 241.869338 149.640218 242.969571 149.640218 244.030218 149.902574 245.05128 150.425402 246.07297 150.948858 246.832011 151.759148 247.329661 152.858154 248.58698 155.604728 247.971201 158.417205 245.483582 161.29433 244.723912 162.183702 244.776693 163.112617 245.640668 164.079818 245.90206 164.394268 246.668013 164.917724 247.938527 165.649558 249.208414 166.382019 250.105063 166.931836 250.629731 167.297753 251.283839 167.768487 251.768921 168.207211 252.083094 168.612042 252.397267 169.018128 252.613418 169.462501 252.730918 169.946415 252.849047 170.430957 252.986655 171.039145 253.143741 171.770979 253.222284 172.059068 253.169503 172.333976 252.986655 172.595077 252.803178 172.883166 252.567548 173.040077 252.279138 173.06581L252.083094 173.104724C251.97816 173.104724 251.807879 173.118533 251.572249 173.144266 251.33662 173.170627 251.041926 173.196988 250.688167 173.222722 250.335037 173.249083 249.876345 173.28172 249.313347 173.321262 248.749721 173.360176 248.128288 173.393441 247.44779 173.419174 246.766035 173.445536 245.941645 173.464993 244.972737 173.478173L244.972737 173.478173zM234.248764 163.177264C234.091678 163.282709 233.849137 163.432716 233.521769 163.629169 233.194401 163.824994 232.886511 164.008266 232.598729 164.178358 232.310319 164.349077 232.048927 164.525446 231.813297 164.70809 231.000847 164.70809 230.227982 164.69491 229.495331 164.668549 228.762052 164.642815 228.133706 164.616454 227.609666 164.590093 227.085626 164.56436 226.614367 164.537999 226.195889 164.511638 225.776154 164.485904 225.429936 164.459543 225.15472 164.433182 224.880133 164.407448 224.650159 164.381087 224.46731 164.354726 224.283834 164.328993 224.139314 164.315185 224.035009 164.315185L223.917508 164.276271C223.629098 164.250537 223.39284 164.093626 223.209991 163.805537 223.026514 163.57017 222.974362 163.295262 223.052905 162.981439 223.105057 162.798794 223.171034 162.51761 223.249577 162.137884 223.32812 161.758787 223.380273 161.503963 223.406663 161.372785 223.432425 161.242235 223.49149 161.039506 223.583857 160.764597 223.674967 160.489689 223.766705 160.293864 223.858444 160.175866 223.950182 160.058497 224.074594 159.895309 224.231681 159.685676 224.388767 159.47667 224.571616 159.280217 224.781483 159.096945 224.990722 158.9143 225.252742 158.717847 225.566915 158.508214 226.117346 158.115936 227.020906 157.553566 228.277597 156.821104 229.534917 156.08927 230.293958 155.578995 230.555978 155.290906 231.420581 154.323077 231.472734 153.39479 230.713064 152.50479 228.224816 149.627666 227.609666 146.815189 228.866985 144.068614 229.364007 142.969608 230.123676 142.159318 231.145366 141.635863 232.166428 141.113034 233.227075 140.850679 234.327308 140.850679 235.426912 140.850679 236.487559 141.113034 237.509249 141.635863 238.530311 142.159318 239.28998 142.969608 239.78763 144.068614 240.206108 145.036443 240.415975 145.978538 240.415975 146.893644 237.27362 147.338644 235.059958 148.921565 233.777505 151.641778 232.153232 155.225631 232.716858 158.835844 235.466498 162.471791 235.361564 162.550247 235.243435 162.628703 235.112739 162.707158 234.981415 162.785614 234.831241 162.870346 234.660959 162.961982 234.490677 163.053618 234.366265 163.12517 234.287722 163.177264L234.248764 163.177264z"/>
    </g>
  </g>
</svg>
