<svg xmlns="http://www.w3.org/2000/svg" width="180" height="180" viewBox="0 0 180 180" xmlns:xlink="http://www.w3.org/1999/xlink">
  <defs>
    <filter id="b" width="200%" height="200%" x="-50%" y="-50%" filterUnits="objectBoundingBox">
      <feOffset dx="1" dy="2" in="SourceAlpha" result="shadowOffsetOuter1"/>
      <feColorMatrix values="0 0 0 0 0 0 0 0 0 0 0 0 0 0 0 0 0 0 0.1 0" in="shadowOffsetOuter1" result="shadowMatrixOuter1"/>
      <feMerge>
        <feMergeNode in="shadowMatrixOuter1"/>
        <feMergeNode in="SourceGraphic"/>
      </feMerge>
    </filter>
    <path id="a" d="M90.6428571,147.857143 C107.329746,147.857143 120.857143,134.329746 120.857143,117.642857 C120.857143,100.955968 107.329746,87.4285714 90.6428571,87.4285714 C73.9559679,87.4285714 60.4285714,100.955968 60.4285714,117.642857 C60.4285714,134.329746 73.9559679,147.857143 90.6428571,147.857143 Z"/>
    <filter id="c" width="200%" height="200%" x="-50%" y="-50%" filterUnits="objectBoundingBox">
      <feOffset dx="2" dy="2" in="SourceAlpha" result="shadowOffsetOuter1"/>
      <feComposite in="shadowOffsetOuter1" in2="SourceAlpha" operator="out" result="shadowOffsetOuter1"/>
      <feColorMatrix values="0 0 0 0 0 0 0 0 0 0 0 0 0 0 0 0 0 0 0.1 0" in="shadowOffsetOuter1"/>
    </filter>
    <mask id="d" width="60.429" height="60.429" x="0" y="0" fill="white">
      <use xlink:href="#a"/>
    </mask>
    <path id="f" d="M77.7114286,131.714286 C80.6057919,128.104085 82.3043908,123.682335 82.5714286,119.062857 L80.6171429,118.857143 C80.3860797,118.810345 80.1861874,118.666687 80.0681628,118.462603 C79.9501382,118.258519 79.925319,118.013613 80,117.79 L80.1928571,116.928571 C80.2778548,116.39932 80.750713,116.021033 81.2857143,116.054286 L82.6871429,116.208571 C82.6871429,114.382857 82.7642857,112.094286 82.9185714,110.654286 C83.8442857,102.052857 88.7685714,97.7971429 95.8914286,98.5557143 C98.9017335,98.9822783 101.610716,100.610451 103.4,103.068571 C103.636883,103.500358 103.534452,104.039467 103.155714,104.354286 L99.6714286,107.825714 C99.2332861,108.186792 98.5891334,108.141588 98.2057143,107.722857 C97.3206168,106.600091 96.0610032,105.83337 94.6571429,105.562857 C93.1528571,105.395714 91.4685714,106.848571 91.16,109.767143 C91.0057143,111.155714 91.4042857,113.855714 91.3142857,117.134286 L94.9528571,117.571429 C95.1852518,117.610893 95.3882634,117.751189 95.5073451,117.95462 C95.6264268,118.158051 95.6493663,118.403756 95.57,118.625714 L95.4285714,119.5 C95.3028694,120.017823 94.8144492,120.363559 94.2842857,120.31 L91.0571429,119.962857 C90.5375296,122.661656 89.7626175,125.304967 88.7428571,127.857143 L95.8657143,128.628571 C96.0988612,128.66316 96.3019312,128.805937 96.4133737,129.013625 C96.5248162,129.221314 96.5315109,129.469462 96.4314286,129.682857 L95.2228571,134.555714 C95.0960638,135.05938 94.6492139,135.41686 94.13,135.43 L78.1228571,133.642857 C77.8948704,133.595527 77.6976097,133.45382 77.5799798,133.252869 C77.4623499,133.051918 77.4353647,132.810538 77.5057143,132.588571 L77.7114286,131.714286 Z"/>
    <filter id="e" width="200%" height="200%" x="-50%" y="-50%" filterUnits="objectBoundingBox">
      <feOffset dx="1" dy="2" in="SourceAlpha" result="shadowOffsetOuter1"/>
      <feColorMatrix values="0 0 0 0 0 0 0 0 0 0 0 0 0 0 0 0 0 0 0.1 0" in="shadowOffsetOuter1"/>
    </filter>
  </defs>
  <g fill="none" fill-rule="evenodd">
    <circle cx="89.627" cy="89.627" r="85.77" fill="#9B5CA4"/>
    <path fill="#804089" d="M89.6271429,179.254286 C40.1274387,179.254286 6.06196543e-15,139.126847 0,89.6271429 C-6.06196543e-15,40.1274387 40.1274387,9.09294814e-15 89.6271429,0 C139.126847,-9.09294814e-15 179.254286,40.1274387 179.254286,89.6271429 C179.197604,139.10335 139.10335,179.197604 89.6271429,179.254286 L89.6271429,179.254286 Z M89.6271429,7.71428571 C44.387921,7.71428571 7.71428571,44.387921 7.71428571,89.6271429 C7.71428571,134.866365 44.387921,171.54 89.6271429,171.54 C134.866365,171.54 171.54,134.866365 171.54,89.6271429 C171.490399,44.4084825 134.845803,7.76388705 89.6271429,7.71428571 L89.6271429,7.71428571 Z"/>
    <g transform="translate(40 21)">
      <path fill="#000000" fill-opacity=".1" d="M15.7242857,122.351429 L15.4285714,122.21 C7.34142857,118.597143 6.68571429,109.584286 8.60142857,102.924286 C8.67857143,102.667143 8.71714286,102.525714 8.71714286,102.525714 C9.26358329,101.039308 10.8996623,100.264211 12.3959973,100.782847 C13.8923322,101.301483 14.6977942,102.922828 14.2071429,104.428571 L14.2071429,104.608571 C13.6477079,106.588393 13.4474025,108.65241 13.6157143,110.702857 C13.691629,113.420118 15.3294594,115.849316 17.82,116.938571 C19.3106506,117.719832 21.0530494,117.868121 22.6542857,117.35 C26.9742857,115.64 30.3685714,108.427143 32.1428571,104.042857 L54.2571429,51.3285714 C54.9338542,49.9231427 56.5926497,49.2937995 58.0313029,49.8966636 C59.469956,50.4995278 60.1845352,52.1234281 59.6571429,53.5914286 L37.5428571,106.305714 C35.3571429,111.525714 31.41,120.152857 24.8014286,122.762857 C21.8388257,123.821309 18.5789871,123.673554 15.7242857,122.351429 L15.7242857,122.351429 Z"/>
      <path fill="#3B5272" d="M14.4385714,121.065714 L14.1428571,120.924286 C6.05571429,117.311429 5.4,108.298571 7.31571429,101.638571 C7.39285714,101.381429 7.43142857,101.24 7.43142857,101.24 C7.977869,99.7535935 9.61394803,98.9784965 11.110283,99.4971325 C12.6066179,100.015768 13.4120799,101.637114 12.9214286,103.142857 L12.9214286,103.322857 C12.3619937,105.302679 12.1616882,107.366696 12.33,109.417143 C12.4059147,112.134404 14.0437451,114.563602 16.5342857,115.652857 C18.0249364,116.434118 19.7673351,116.582407 21.3685714,116.064286 C25.6885714,114.354286 29.0828571,107.141429 30.8571429,102.757143 L52.9714286,50.0428571 C53.6481399,48.6374285 55.3069354,48.0080852 56.7455886,48.6109494 C58.1842417,49.2138135 58.8988209,50.8377138 58.3714286,52.3057143 L36.2571429,105.02 C34.0714286,110.24 30.1242857,118.867143 23.5157143,121.477143 C20.5531114,122.535594 17.2932728,122.38784 14.4385714,121.065714 L14.4385714,121.065714 Z"/>
      <path fill="#000000" fill-opacity=".1" d="M75.0888525,84.0529946 C74.3873061,81.0405696 69.8351215,63.8077836 56.7642857,60.1385714 C42.4285714,56.1142857 34.65,58.8785714 26.2928571,63.9957143 C26.2928571,63.9957143 26.458076,63.6123666 26.7797874,62.9094385 C26.6387022,63.2098821 26.4978186,63.5119699 26.3571429,63.8157143 C26.7843912,55.1448964 22.8830143,46.8267755 15.9428571,41.6114286 C4.17857143,32.8685714 1.8,36.6871429 1.8,36.6871429 C1.8,36.6871429 24.7371429,-13.4942857 76.9628571,8.96714286 C76.9628571,8.96714286 76.0174339,9.17038497 74.3337049,9.80529712 C75.2843505,9.53045531 76.2444941,9.29866984 77.2136957,9.1131561 C77.1674906,9.02459024 77.1428571,8.98 77.1428571,8.98 C77.2102015,9.0161144 77.2774343,9.0522478 77.3445557,9.08840009 C77.3544648,9.08654759 77.3643748,9.08469995 77.3742857,9.08285714 C77.3742857,9.08285714 77.3794982,9.09284145 77.3896365,9.11269294 C133.803455,39.5274708 111.445714,83.2942857 111.445714,83.2942857 C111.445714,83.2942857 107.897143,78.5628571 95.9271429,75.9657143 C85.690944,73.744756 77.626674,81.490224 75.5052846,83.7806133 C75.400833,84.0210222 75.295265,84.2617714 75.1885714,84.5028571 C75.1885714,84.5028571 75.1676829,84.3989401 75.123657,84.204492 C75.0136475,84.3307415 74.9571429,84.4 74.9571429,84.4 C75.00125,84.2842189 75.0451529,84.1685504 75.0888525,84.0529946 Z"/>
      <path fill="#26A9AB" d="M75.6771429,6.11 C75.6771429,6.11 47.6871429,12.1271429 25.0714286,60.9585714 C25.4986769,52.2877535 21.5973,43.9696326 14.6571429,38.7542857 C2.89285714,30.0114286 0.514285714,33.83 0.514285714,33.83 C0.514285714,33.83 23.4514286,-16.3514286 75.6771429,6.11 L75.6771429,6.11 Z"/>
      <path fill="#37BEC0" d="M25.0071429,61.1385714 C25.0071429,61.1385714 46.2857143,11.7671429 76.0885714,6.22571429 C76.0885714,6.22571429 92.97,38.5614286 73.9028571,81.6457143 C73.9028571,81.6457143 69.8142857,61.3057143 55.4785714,57.2814286 C41.1428571,53.2571429 33.3642857,56.0214286 25.0071429,61.1385714 L25.0071429,61.1385714 Z"/>
      <path fill="#41D4D6" d="M110.16,80.4371429 C110.16,80.4371429 132.582857,36.5428571 75.8571429,6.12285714 C75.8571429,6.12285714 91.5685714,34.5628571 73.6714286,81.5428571 C73.6714286,81.5428571 82.6714286,70.5114286 94.6414286,73.1085714 C106.611429,75.7057143 110.16,80.4371429 110.16,80.4371429 L110.16,80.4371429 Z"/>
      <ellipse cx="76.901" cy="5.242" fill="#3B5272" transform="rotate(-67.24 76.9 5.242)" rx="4.397" ry="2.121"/>
    </g>
    <use fill="black" filter="url(#c)" xlink:href="#a"/>
    <use fill="#FAAD40" stroke="#EC9E2F" stroke-width="6" mask="url(#d)" xlink:href="#a"/>
    <g>
      <use fill="black" filter="url(#e)" xlink:href="#f"/>
      <use fill="#FFFFFF" xlink:href="#f"/>
    </g>
  </g>
</svg>
