<?xml version="1.0" encoding="UTF-8" standalone="no"?>
<svg width="418px" height="367px" viewBox="0 0 418 367" version="1.1" xmlns="http://www.w3.org/2000/svg" xmlns:xlink="http://www.w3.org/1999/xlink">
    <!-- Generator: Sketch 3.8.3 (29802) - http://www.bohemiancoding.com/sketch -->
    <title>meter</title>
    <desc>Created with Sketch.</desc>
    <defs>
        <filter x="-50%" y="-50%" width="200%" height="200%" filterUnits="objectBoundingBox" id="filter-1">
            <feOffset dx="0" dy="2" in="SourceAlpha" result="shadowOffsetOuter1"></feOffset>
            <feGaussianBlur stdDeviation="5" in="shadowOffsetOuter1" result="shadowBlurOuter1"></feGaussianBlur>
            <feColorMatrix values="0 0 0 0 0   0 0 0 0 0   0 0 0 0 0  0 0 0 0.3 0" type="matrix" in="shadowBlurOuter1" result="shadowMatrixOuter1"></feColorMatrix>
            <feMerge>
                <feMergeNode in="shadowMatrixOuter1"></feMergeNode>
                <feMergeNode in="SourceGraphic"></feMergeNode>
            </feMerge>
        </filter>
        <path d="M149.930784,261.12704 C102.236867,261.121607 59.8813023,230.781651 44.5361233,185.628146 C24.8008594,127.55082 56.0273362,64.2552828 114.147841,44.5332248 C125.757587,40.5940293 137.804493,38.5956346 149.952533,38.5956346 C197.645363,38.5956346 239.99984,68.9355905 255.346107,114.092355 C275.082458,172.170768 243.854894,235.466305 185.735477,255.18945 C174.12573,259.128645 162.082087,261.12704 149.941659,261.12704 L149.930784,261.12704 Z" id="path-2"></path>
        <mask id="mask-3" maskContentUnits="userSpaceOnUse" maskUnits="objectBoundingBox" x="-3" y="-3" width="228.650188" height="228.531405">
            <rect x="35.6162362" y="35.5956346" width="228.650188" height="228.531405" fill="white"></rect>
            <use xlink:href="#path-2" fill="black"></use>
        </mask>
        <polygon id="path-4" points="112.537098 166.90707 0.740328413 111.820375 55.8552985 0.0828152046 112.537098 0.0828152046 112.537098 166.90707"></polygon>
        <polygon id="path-6" points="57.0593732 167.318692 112.175753 55.5810221 0.377412153 0.493996391 0.377412153 167.318692"></polygon>
        <polygon id="path-8" points="0.377632817 56.7334584 112.175753 111.820375 167.290777 0.0827049313 0.377632817 0.0827049313 0.377632817 56.7334584"></polygon>
    </defs>
    <g id="Website" stroke="none" stroke-width="1" fill="none" fill-rule="evenodd">
        <g id="Illustrations" transform="translate(-1208.000000, -758.000000)">
            <g id="meter" filter="url(#filter-1)" transform="translate(1213.000000, 764.000000)">
                <g id="icons" opacity="0.1">
                    <path d="M396.983171,115.6681 L408.034416,155.609133 C408.660015,157.87356 407.553992,160.076625 405.623317,160.610929 L393.876131,163.861647 C391.946952,164.39595 389.863619,163.07441 389.23802,160.808486 L378.186775,120.868951 C377.607572,118.772147 378.462158,116.636431 380.261128,115.95845 C382.205274,115.148764 384.279627,114.485749 386.377927,113.90505 C388.47473,113.32435 390.513164,112.85141 392.680309,112.522147 C394.48826,112.203361 396.402472,113.569801 396.983171,115.6681 M373.846497,136.522387 L381.183063,163.036994 C381.810159,165.302918 380.702639,167.505984 378.773461,168.040287 L367.026274,171.291005 C365.095599,171.823812 363.013763,170.503769 362.388164,168.237844 L355.051598,141.72174 C354.470899,139.624937 355.325484,137.490718 357.124455,136.812736 C359.070096,136.004547 361.14445,135.338539 363.24275,134.759336 C365.339553,134.178637 367.377987,133.705696 369.543636,133.376434 C371.351586,133.056151 373.267295,134.424087 373.846497,136.522387 M349.225149,152.006702 L354.33171,170.466352 C354.958806,172.732277 353.852783,174.935342 351.922108,175.468148 L340.174922,178.718867 C338.245743,179.25317 336.16241,177.933127 335.536811,175.667202 L330.428753,157.207552 C329.848054,155.109252 330.704136,152.975033 332.503106,152.297052 C334.447251,151.487365 336.523102,150.82435 338.619905,150.243651 C340.718205,149.662952 342.755142,149.190011 344.922287,148.862246 C346.730238,148.541963 348.64445,149.908402 349.225149,152.006702 M357.48365,124.067286 L344.908818,116.164987 L339.128765,126.616077 C339.351765,127.096501 339.598712,127.660737 339.761847,128.247423 C341.200125,133.451266 338.166421,138.806271 332.964074,140.246046 C327.76023,141.685821 322.403729,138.65062 320.965451,133.448273 C319.525676,128.245926 322.560877,122.889425 327.763224,121.451146 C328.266097,121.311958 328.794414,121.256582 329.403549,121.17726 L338.082608,105.857576 C338.895288,104.549506 340.158458,103.567705 341.58626,103.17259 C343.118827,102.838838 344.622958,103.055852 345.932524,103.867035 L359.103023,111.966891 L373.443899,93.2752604 C373.421449,93.1914481 373.375053,93.0238236 373.351107,92.9400114 C371.911332,87.736168 374.946533,82.3811632 380.14888,80.9413883 C385.351227,79.5016134 390.706231,82.5368145 392.146006,87.7391613 C393.584285,92.941508 390.55058,98.2980094 385.348233,99.7362877 C384.342486,100.014664 383.288846,100.126913 382.356435,100.022147 L364.884572,122.742753 C363.084105,125.04759 359.887266,125.571417 357.48365,124.067286" id="bar-chart" fill="#010202" transform="translate(364.408730, 129.710453) rotate(19.000000) translate(-364.408730, -129.710453) "></path>
                    <path d="M70.9641574,264.50302 C71.8641606,264.50302 72.839164,264.128019 73.5141664,263.453016 L78.3141833,258.652999 C79.7391883,257.227994 79.7391883,254.977986 78.3141833,253.552981 C76.8891783,252.127976 74.6391704,252.127976 73.2141653,253.552981 L68.4141485,258.352998 C66.9891435,259.778003 66.9891435,262.028011 68.4141485,263.453016 C69.0891508,264.128019 70.0641543,264.50302 70.9641574,264.50302 L70.9641574,264.50302 Z M22.9639886,264.50302 C23.8639918,264.50302 24.8389952,264.128019 25.5139976,263.453016 C26.9390026,262.028011 26.9390026,259.778003 25.5139976,258.352998 L20.7139807,253.552981 C19.2889757,252.127976 17.0389678,252.127976 15.6139628,253.552981 C14.1889578,254.977986 14.1889578,257.227994 15.6139628,258.652999 L20.4139797,263.453016 C21.088982,264.128019 22.0639855,264.50302 22.9639886,264.50302 L22.9639886,264.50302 Z M56.8641079,304.103159 C56.9391081,303.203156 57.0141084,302.678154 57.0141084,302.678154 C57.6141105,298.928141 59.3391166,296.153131 63.0891297,291.503115 C66.7641427,286.853099 68.564149,283.103085 68.564149,277.703066 C68.564149,266.003025 59.1141158,256.10299 46.964073,256.10299 C34.8140303,256.10299 25.3639971,266.003025 25.3639971,277.703066 C25.3639971,283.103085 27.1640034,286.853099 30.8390163,291.503115 C34.5140293,296.153131 36.2390353,298.928141 36.9140377,302.678154 C36.9140377,302.678154 36.9140377,303.203156 36.989038,304.103159 L56.8641079,304.103159 Z M75.7641743,302.903155 C76.6641775,302.903155 77.6391809,302.528154 78.3141833,301.853151 C79.7391883,300.428146 79.7391883,298.178138 78.3141833,296.753133 L73.5141664,291.953116 C72.0891614,290.528111 69.8391535,290.528111 68.4141485,291.953116 C66.9891435,293.378121 66.9891435,295.628129 68.4141485,297.053134 L73.2141653,301.853151 C73.8891677,302.528154 74.8641712,302.903155 75.7641743,302.903155 L75.7641743,302.903155 Z M18.1639718,302.903155 C19.0639749,302.903155 20.0389783,302.528154 20.7139807,301.853151 L25.5139976,297.053134 C26.9390026,295.628129 26.9390026,293.378121 25.5139976,291.953116 C24.0889926,290.528111 21.8389847,290.528111 20.4139797,291.953116 L15.6139628,296.753133 C14.1889578,298.178138 14.1889578,300.428146 15.6139628,301.853151 C16.2889652,302.528154 17.2639686,302.903155 18.1639718,302.903155 L18.1639718,302.903155 Z M46.964073,323.303227 C51.8390902,323.303227 53.6390965,320.828218 55.0641015,316.178202 C55.5891034,314.378195 56.0391049,311.528185 56.339106,308.903176 L37.5140398,308.903176 C37.8140409,311.528185 38.2640424,314.378195 38.8640446,316.178202 C40.2140493,320.828218 42.0890559,323.303227 46.964073,323.303227 L46.964073,323.303227 Z" id="lightbulbon" fill="#000000" transform="translate(48.754578, 287.893727) rotate(-34.000000) translate(-48.754578, -287.893727) "></path>
                    <path d="M298.986178,31.161084 C304.32472,50.4603537 293.037005,70.385222 273.737735,75.7237636 C252.090225,81.713347 232.993003,67.2138259 228.735041,48.8813905 L263.874828,49.545902 C266.687029,49.5818216 268.575798,46.6199561 267.926253,44.2717162 L257.154881,5.33792789 C275.44541,1.90312186 293.924517,12.8690582 298.986178,31.161084 L298.986178,31.161084 Z M219.753659,40.2547143 C218.210616,40.2307679 216.953432,38.952631 217.001325,37.4933996 C217.028264,19.9616707 227.944811,4.56565778 244.138537,0.0861917794 C245.564842,-0.308923163 247.110879,0.708797143 247.56586,2.02884025 L258.431521,41.296381 L219.753659,40.2547143 Z" id="pie-chart" fill="#010202"></path>
                </g>
                <g transform="translate(38.000000, 47.000000)">
                    <g id="Group-12" transform="translate(0.000000, 0.071296)">
                        <path d="M149.073765,297.940656 C85.2300932,297.940656 28.5326319,257.319302 7.99100092,196.859791 C-4.80862638,159.192657 -2.16396587,118.797363 15.4362113,83.1162505 C33.0352851,47.4362404 63.4847389,20.741294 101.171979,7.949598 C116.712256,2.67522885 132.838396,0 149.100244,0 C212.945019,0 269.640274,40.6213541 290.183008,101.080864 C316.603134,178.841144 274.80161,263.58613 197.000927,289.99216 C181.461754,295.266529 165.33451,297.940656 149.073765,297.940656 C149.072661,297.940656 149.074868,297.940656 149.073765,297.940656" id="Fill-2" stroke="#737F90" stroke-width="7" fill="#7A8798"></path>
                        <g id="Fill-8">
                            <use fill="#FEFEFE" fill-rule="evenodd" xlink:href="#path-2"></use>
                            <use stroke="#737F90" mask="url(#mask-3)" stroke-width="6" xlink:href="#path-2"></use>
                        </g>
                    </g>
                    <g id="Group-15" transform="translate(148.948339, 37.564198)">
                        <mask id="mask-5" fill="white">
                            <use xlink:href="#path-4"></use>
                        </mask>
                        <g id="Clip-14"></g>
                        <path d="M0.823849815,0.0828152046 C-40.4028439,0.0828152046 -80.0495819,22.9667183 -99.5121649,62.423587 C-126.808327,117.760905 -104.051228,184.737564 -48.6843716,212.019164 C-32.7943421,219.848564 -15.9389066,223.558156 0.655041697,223.558156 C41.8828387,223.558156 81.5284734,200.675356 100.991056,161.218487 C128.287219,105.880066 105.531223,38.90451 50.1632631,11.62291 C34.2732336,3.79350979 17.4177982,0.0828152046 0.823849815,0.0828152046 M0.823849815,35.0791312 C12.6073185,35.0791312 23.9980048,37.7488464 34.680359,43.0121882 C72.6423258,61.7167355 88.2995546,107.802129 69.5850232,145.743843 C63.1239753,158.842099 53.159883,169.752533 40.7695878,177.296326 C28.6639494,184.665886 14.7929974,188.56184 0.655041697,188.56184 C-11.1273236,188.56184 -22.51801,185.893228 -33.2014675,180.629886 C-51.5905192,171.568734 -65.3489325,155.892289 -71.9412756,136.48861 C-78.5336188,117.086033 -77.1721207,96.2774722 -68.1061317,77.898231 C-61.6450838,64.7999753 -51.6809915,53.8884381 -39.289593,46.3446456 C-27.1850579,38.9750849 -13.3130026,35.0791312 0.823849815,35.0791312" id="Fill-13" fill="#E9507E" mask="url(#mask-5)"></path>
                    </g>
                    <g id="Group-18" transform="translate(37.512915, 93.803552)">
                        <mask id="mask-7" fill="white">
                            <use xlink:href="#path-6"></use>
                        </mask>
                        <g id="Clip-17"></g>
                        <path d="M112.259274,-56.1566484 C71.0325804,-56.1566484 31.3858424,-33.2727452 11.9232594,6.1841234 C-15.372903,61.5214416 7.38419668,128.4981 62.7510528,155.7797 C78.6410823,163.609101 95.4965177,167.318692 112.090466,167.318692 C153.318263,167.318692 192.963898,144.435892 212.426481,104.979023 C239.722643,49.6406025 216.966647,-17.3349536 161.598687,-44.6165536 C145.708658,-52.4459538 128.853223,-56.1566484 112.259274,-56.1566484 M112.259274,-21.1603324 C124.042743,-21.1603324 135.433429,-18.4906172 146.115783,-13.2272754 C184.07775,5.47727192 199.734979,51.5626651 181.020448,89.5032767 C174.5594,102.602635 164.595307,113.51307 152.205012,121.056862 C140.099374,128.426423 126.228422,132.322376 112.090466,132.322376 C100.308101,132.322376 88.9163111,129.653764 78.2339568,124.390422 C40.2730934,105.684772 24.6147613,59.6004817 43.3292926,21.6587674 C49.7903406,8.56051176 59.7555362,-2.35102551 72.1458314,-9.89481799 C84.2503664,-17.2643787 98.1224218,-21.1603324 112.259274,-21.1603324" id="Fill-16" fill="#A2C752" mask="url(#mask-7)"></path>
                    </g>
                    <path d="M106.565034,22.466358 C180.806403,-2.73107773 261.244023,35.4311831 289.118326,107.934737 C288.566665,106.07553 288.010592,104.216323 287.381699,102.363733 C261.540817,26.3104832 178.906485,-14.4068086 102.811536,11.4202874 C26.7176911,37.2473833 -14.0202314,119.837631 11.8195472,195.89088 C12.4495435,197.74347 13.1402225,199.556362 13.8364181,201.367049 C-8.22889926,126.89181 32.3236653,47.6637938 106.565034,22.466358" id="Fill-19" fill-opacity="0.1" fill="#FEFEFE"></path>
                    <g id="Group-23" transform="translate(37.512915, 37.564198)">
                        <mask id="mask-9" fill="white">
                            <use xlink:href="#path-8"></use>
                        </mask>
                        <g id="Clip-22"></g>
                        <path d="M112.259495,0.0827049313 C71.0328011,0.0827049313 31.3860631,22.9666081 11.9234801,62.4234767 C-15.3726823,117.760795 7.38441734,184.737454 62.7512734,212.019054 C78.641303,219.848454 95.4967384,223.558046 112.090687,223.558046 C153.318484,223.558046 192.964118,200.675245 212.426701,161.218377 C239.722864,105.879956 216.966868,38.9043997 161.598908,11.6227997 C145.708879,3.79339952 128.853443,0.0827049313 112.259495,0.0827049313 M112.259495,35.0790209 C124.042963,35.0790209 135.43365,37.7487361 146.116004,43.012078 C184.077971,61.7166252 199.7352,107.802018 181.020668,145.74263 C174.55962,158.841988 164.595528,169.752423 152.20413,177.296215 C140.099594,184.665776 126.228642,188.56173 112.090687,188.56173 C100.308321,188.56173 88.9176351,185.893117 78.2341775,180.629776 C59.8451258,171.568623 46.0867125,155.892179 39.4943694,136.4885 C32.9020262,117.085923 34.2635244,96.2773619 43.3295133,77.8981207 C49.7905613,64.7998651 59.7546535,53.8883278 72.146052,46.3445353 C84.2505871,38.9749746 98.1226424,35.0790209 112.259495,35.0790209" id="Fill-21" fill="#F7AC42" mask="url(#mask-9)"></path>
                    </g>
                    <g id="Group-50" transform="translate(37.512915, 36.461466)">
                        <path d="M161.689932,12.5560421 C135.995792,-0.160668113 105.440419,-3.05644344 76.1472458,6.88579204 C17.6955041,26.725051 -13.5979904,90.1674524 6.25075498,148.58801 C16.9485557,180.073226 40.3179985,203.673906 68.7428583,215.638552 C80.0662421,220.404562 123.207198,179.246177 145.687364,132.834375 C171.48632,79.5690912 175.35677,19.3202028 161.689932,12.5560421" id="Fill-24" fill-opacity="0.05" fill="#6B7483"></path>
                        <path d="M78.8279849,14.7769452 C135.955741,-4.61239888 197.857568,24.8404813 219.164904,80.723652 C218.767708,79.3959622 218.373823,78.0671696 217.924771,76.7449934 C198.074922,18.3233327 134.598656,-12.9534669 76.1469148,6.88579204 C17.6951731,26.725051 -13.5983214,90.1663497 6.25152731,148.58801 C6.70057897,149.911289 7.19817675,151.203692 7.69136125,152.499402 C-9.45645424,95.2036314 21.7002284,34.1662893 78.8279849,14.7769452" id="Fill-26" fill-opacity="0.15" fill="#6B7483"></path>
                        <g id="Group-32" transform="translate(98.195572, 29.773775)">
                            <path d="M28.944524,91.3282988 L0.468911439,77.2971316 L52.5787638,1.18102642 C53.8442731,-0.53372249 56.5463063,0.76639903 55.9957491,2.82409772 L28.944524,91.3282988 Z" id="Fill-28" fill="#010202"></path>
                            <path d="M28.944524,91.3282988 L0.468911439,77.2971316 L52.5787638,1.18102642 C53.8442731,-0.53372249 56.5463063,0.76639903 55.9957491,2.82409772 L28.944524,91.3282988 L28.944524,91.3282988 Z" id="Stroke-30" stroke="#010202" stroke-width="2.116"></path>
                        </g>
                        <path d="M127.140096,118.768913 L98.6644834,104.737746 L150.774336,28.6216405 C152.039845,26.9068915 154.741878,28.2070131 154.191321,30.2647118 L127.140096,118.768913 Z" id="Fill-33" stroke="#4D596F" stroke-width="3" fill="#59677C"></path>
                        <path d="M107.114819,107.062416 L100.348151,105.568213 L146.655638,37.9266069 C147.778819,36.4037334 150.180749,37.5582942 148.940616,37.1778516 L107.114819,107.062416 Z" id="Fill-37" fill-opacity="0.1" fill="#FEFEFE"></path>
                        <g id="Group-43" transform="translate(87.162362, 90.264544)" fill-opacity="0.1" fill="#010202">
                            <path d="M24.9275528,0.0825440295 C22.2354494,0.0825440295 19.5665159,0.524739729 16.9957779,1.3981038 C10.7598074,3.51424731 5.72094022,7.93179338 2.80817269,13.8369255 C-0.104594834,19.7409548 -0.542613284,26.4257188 1.5757631,32.6594651 C4.9750952,42.6645563 14.3577373,49.3868132 24.9231395,49.3868132 C27.6152428,49.3868132 30.2841764,48.9446175 32.8549144,48.0712534 C39.0919882,45.9551099 44.1308554,41.5375638 47.0425196,35.6324317 C49.9552871,29.7284024 50.3933055,23.0436384 48.2749292,16.8098921 C44.875597,6.80480085 35.492955,0.0825440295 24.9275528,0.0825440295 M24.9275528,2.41592583 C34.2263424,2.41592583 42.9083756,8.27033223 46.0649771,17.5597501 C50.0292096,29.2288646 43.7788959,41.9003628 32.1035528,45.8624804 C29.7236893,46.6707832 27.3041063,47.0534314 24.9231395,47.0534314 C15.6243498,47.0534314 6.94231661,41.199025 3.78681845,31.9096071 C-0.178517343,20.2404926 6.07179631,7.56899441 17.7471395,3.60687684 C20.127003,2.79857397 22.546586,2.41592583 24.9275528,2.41592583" id="Fill-41"></path>
                        </g>
                        <path d="M112.086494,136.151615 C102.020896,136.151615 93.080686,129.746945 89.8435421,120.216029 C87.8255679,114.277815 88.2426232,107.909535 91.0163723,102.283394 C93.792328,96.6594587 98.5928779,92.4503291 104.534262,90.4334315 C106.983634,89.6019712 109.526789,89.1807275 112.090907,89.1807275 C122.155402,89.1807275 131.094509,95.5842946 134.332756,105.116314 C138.49669,117.37539 131.907656,130.736096 119.642037,134.898911 C117.192664,135.730371 114.650612,136.151615 112.087597,136.151615 L112.086494,136.151615 Z" id="Fill-44" stroke="#4D596F" stroke-width="3" fill="#59677C"></path>
                        <path d="M109.825789,106.009086 C118.953564,102.91151 128.676029,106.073044 134.385715,113.168025 C134.444192,110.627329 134.092232,108.037011 133.227228,105.490802 C129.261893,93.8227899 116.583631,87.5758107 104.909391,91.5379283 C93.2340476,95.5011486 86.9837339,108.172647 90.9479664,119.840659 C91.8129701,122.386868 93.1126823,124.655188 94.7058779,126.635696 C94.9133022,117.531537 100.698014,109.106661 109.825789,106.009086" id="Fill-48" fill-opacity="0.1" fill="#FEFEFE"></path>
                    </g>
                </g>
            </g>
        </g>
    </g>
</svg>