<svg xmlns="http://www.w3.org/2000/svg" width="339" height="323" viewBox="0 0 339 323">
  <defs>
    <filter id="a" width="200%" height="200%" x="-50%" y="-50%" filterUnits="objectBoundingBox">
      <feOffset in="SourceAlpha" result="shadowOffsetOuter1"/>
      <feGaussianBlur stdDeviation="9.5" in="shadowOffsetOuter1" result="shadowBlurOuter1"/>
      <feColorMatrix values="0 0 0 0 0 0 0 0 0 0 0 0 0 0 0 0 0 0 0.2 0" in="shadowBlurOuter1" result="shadowMatrixOuter1"/>
      <feMerge>
        <feMergeNode in="shadowMatrixOuter1"/>
        <feMergeNode in="SourceGraphic"/>
      </feMerge>
    </filter>
    <filter id="b" width="200%" height="200%" x="-50%" y="-50%" filterUnits="objectBoundingBox">
      <feOffset in="SourceAlpha" result="shadowOffsetOuter1"/>
      <feGaussianBlur stdDeviation="2" in="shadowOffsetOuter1" result="shadowBlurOuter1"/>
      <feColorMatrix values="0 0 0 0 0 0 0 0 0 0 0 0 0 0 0 0 0 0 0.2 0" in="shadowBlurOuter1" result="shadowMatrixOuter1"/>
      <feMerge>
        <feMergeNode in="shadowMatrixOuter1"/>
        <feMergeNode in="SourceGraphic"/>
      </feMerge>
    </filter>
    <filter id="c" width="200%" height="200%" x="-50%" y="-50%" filterUnits="objectBoundingBox">
      <feOffset in="SourceAlpha" result="shadowOffsetOuter1"/>
      <feGaussianBlur stdDeviation="2" in="shadowOffsetOuter1" result="shadowBlurOuter1"/>
      <feColorMatrix values="0 0 0 0 0 0 0 0 0 0 0 0 0 0 0 0 0 0 0.2 0" in="shadowBlurOuter1" result="shadowMatrixOuter1"/>
      <feMerge>
        <feMergeNode in="shadowMatrixOuter1"/>
        <feMergeNode in="SourceGraphic"/>
      </feMerge>
    </filter>
    <filter id="d" width="200%" height="200%" x="-50%" y="-50%" filterUnits="objectBoundingBox">
      <feOffset in="SourceAlpha" result="shadowOffsetOuter1"/>
      <feGaussianBlur stdDeviation="9.5" in="shadowOffsetOuter1" result="shadowBlurOuter1"/>
      <feColorMatrix values="0 0 0 0 0 0 0 0 0 0 0 0 0 0 0 0 0 0 0.2 0" in="shadowBlurOuter1" result="shadowMatrixOuter1"/>
      <feMerge>
        <feMergeNode in="shadowMatrixOuter1"/>
        <feMergeNode in="SourceGraphic"/>
      </feMerge>
    </filter>
    <filter id="e" width="200%" height="200%" x="-50%" y="-50%" filterUnits="objectBoundingBox">
      <feGaussianBlur stdDeviation="3.437" in="SourceGraphic"/>
    </filter>
  </defs>
  <g fill="none" fill-rule="evenodd" transform="translate(9 19)">
    <g fill="#010202" opacity=".1" transform="translate(29 48)">
      <path d="M20.1729 33.3201C19.9269 33.3111 19.7269 33.2241 19.5719 33.0611 19.4189 32.8961 19.3459 32.6901 19.3549 32.4421L19.3849 31.5941C19.3939 31.3471 19.4809 31.1461 19.6459 30.9931 19.8099 30.8391 20.0159 30.7671 20.2619 30.7761L27.8969 31.0431C28.1439 31.0521 28.3439 31.1391 28.4979 31.3031 28.6519 31.4681 28.7249 31.6741 28.7159 31.9211L28.6859 32.7691C28.6769 33.0171 28.5899 33.2181 28.4249 33.3711 28.2609 33.5241 28.0549 33.5961 27.8079 33.5881L20.1729 33.3201 20.1729 33.3201zM18.6029 37.2461C19.9999 38.7461 21.7249 39.5321 23.7749 39.6041 25.8249 39.6751 27.5999 39.0121 29.0999 37.6141 30.5999 36.2161 31.3849 34.4921 31.4569 32.4421 31.5279 30.3921 30.8659 28.6181 29.4679 27.1181 28.0689 25.6181 26.3459 24.8321 24.2949 24.7601 22.2449 24.6881 20.4699 25.3511 18.9709 26.7501 17.4709 28.1481 16.6859 29.8721 16.6139 31.9221 16.5419 33.9711 17.2039 35.7461 18.6029 37.2461L18.6029 37.2461zM16.7969 24.4171C18.9369 22.4231 21.4749 21.4761 24.4069 21.5791 27.3409 21.6821 29.8039 22.8031 31.7999 24.9441 33.7949 27.0841 34.7399 29.6211 34.6379 32.5541 34.5339 35.4871 33.4129 37.9521 31.2739 39.9461 29.1329 41.9411 26.5969 42.8871 23.6629 42.7841 22.1089 42.7301 20.6519 42.3611 19.2969 41.6761L12.7429 46.1441C12.1629 46.5481 11.5299 46.6851 10.8449 46.5541 10.1589 46.4241 9.6149 46.0701 9.2099 45.4881 8.8909 45.0171 8.7399 44.5041 8.7599 43.9461 8.7789 43.3901 8.9649 42.8881 9.3179 42.4401L14.2319 36.2431C13.6439 34.8431 13.3789 33.3651 13.4339 31.8101 13.5359 28.8771 14.6569 26.4121 16.7969 24.4171L16.7969 24.4171zM232.5714 161.8337C235.9544 159.3417 237.9604 156.0167 238.5894 151.8597 239.2174 147.7037 238.2864 143.9347 235.7934 140.5507 233.2994 137.1687 229.9754 135.1627 225.8184 134.5327 221.6624 133.9037 217.8924 134.8367 214.5104 137.3287 211.1274 139.8227 209.1204 143.1467 208.4914 147.3037 207.8624 151.4597 208.7954 155.2297 211.2884 158.6107 213.7814 161.9947 217.1054 164.0007 221.2614 164.6297 225.4194 165.2587 229.1874 164.3267 232.5714 161.8337M206.0274 162.4887C202.4704 157.6617 201.1414 152.2747 202.0424 146.3267 202.9424 140.3797 205.8064 135.6267 210.6334 132.0687 215.4604 128.5127 220.8474 127.1837 226.7954 128.0837 232.7434 128.9837 237.4954 131.8487 241.0524 136.6747 244.6094 141.5007 245.9374 146.8897 245.0374 152.8357 244.5594 155.9887 243.4654 158.8647 241.7524 161.4647L249.3034 175.8567C249.9904 177.1347 250.1204 178.4547 249.6944 179.8187 249.2674 181.1847 248.4164 182.2097 247.1394 182.8957 246.1044 183.4367 245.0224 183.6197 243.8944 183.4487 242.7654 183.2777 241.7884 182.7827 240.9594 181.9607L229.4994 170.4947C226.5094 171.3617 223.4384 171.5567 220.2864 171.0787 214.3394 170.1787 209.5854 167.3147 206.0274 162.4887M70.1661 16.1594L70.1661 17.4984C70.1661 17.8894 70.0411 18.2104 69.7901 18.4614 69.5391 18.7124 69.2191 18.8384 68.8271 18.8384L64.8101 18.8384 64.8101 22.8554C64.8101 23.2464 64.6841 23.5674 64.4331 23.8184 64.1821 24.0694 63.8611 24.1954 63.4711 24.1954L62.1311 24.1954C61.7401 24.1954 61.4201 24.0694 61.1691 23.8184 60.9171 23.5674 60.7921 23.2464 60.7921 22.8554L60.7921 18.8384 56.7741 18.8384C56.3841 18.8384 56.0621 18.7124 55.8121 18.4614 55.5611 18.2104 55.4351 17.8894 55.4351 17.4984L55.4351 16.1594C55.4351 15.7694 55.5611 15.4484 55.8121 15.1974 56.0621 14.9464 56.3841 14.8204 56.7741 14.8204L60.7921 14.8204 60.7921 10.8024C60.7921 10.4124 60.9171 10.0914 61.1691 9.8404 61.4201 9.5894 61.7401 9.4634 62.1311 9.4634L63.4711 9.4634C63.8611 9.4634 64.1821 9.5894 64.4331 9.8404 64.6841 10.0914 64.8101 10.4124 64.8101 10.8024L64.8101 14.8204 68.8271 14.8204C69.2191 14.8204 69.5391 14.9464 69.7901 15.1974 70.0411 15.4484 70.1661 15.7694 70.1661 16.1594M71.0871 25.1164C73.3751 22.8284 74.5191 20.0664 74.5191 16.8294 74.5191 13.5934 73.3751 10.8304 71.0871 8.5424 68.8001 6.2554 66.0381 5.1114 62.8011 5.1114 59.5641 5.1114 56.8031 6.2554 54.5151 8.5424 52.2271 10.8304 51.0821 13.5934 51.0821 16.8294 51.0821 20.0664 52.2271 22.8284 54.5151 25.1164 56.8031 27.4044 59.5641 28.5474 62.8011 28.5474 66.0381 28.5474 68.8001 27.4044 71.0871 25.1164M50.9571 28.6734C47.6921 25.4094 46.0611 21.4614 46.0611 16.8294 46.0611 12.1984 47.6921 8.2494 50.9571 4.9854 54.2221 1.7214 58.1701.0884 62.8011.0884 67.4331.0884 71.3801 1.7214 74.6451 4.9854 77.9091 8.2494 79.5411 12.1984 79.5411 16.8294 79.5411 19.2844 79.0391 21.6004 78.0341 23.7764L85.4421 33.8624C86.1111 34.7564 86.3631 35.7454 86.1951 36.8344 86.0281 37.9224 85.4981 38.8014 84.6051 39.4704 83.8801 40.0014 83.0771 40.2654 82.1981 40.2654 81.3191 40.2654 80.5191 40.0014 79.7921 39.4704L69.7481 32.0634C67.5711 33.0674 65.2561 33.5694 62.8011 33.5694 58.1701 33.5694 54.2221 31.9374 50.9571 28.6734M32.5723 96.9617C36.8263 99.2787 41.2823 99.7497 45.9443 98.3747 50.6053 97.0007 54.0943 94.1887 56.4123 89.9347 58.7283 85.6797 59.2003 81.2227 57.8263 76.5607 57.5453 75.6077 57.1963 74.7327 56.7793 73.9407L42.8803 78.0387 38.7823 64.1377C37.8893 64.2177 36.9673 64.3987 36.0113 64.6797 31.3493 66.0537 27.8623 68.8687 25.5453 73.1217 23.2273 77.3747 22.7573 81.8337 24.1313 86.4937 25.5053 91.1557 28.3183 94.6447 32.5723 96.9617M77.6033 64.1397C79.4973 65.5957 80.7803 67.4607 81.4503 69.7347 82.1213 72.0087 82.0633 74.3007 81.2783 76.6067 80.8623 77.8897 80.3413 79.2787 79.7153 80.7757 79.0883 82.2737 77.8353 84.7027 75.9583 88.0637 74.0793 91.4247 72.0463 94.4667 69.8573 97.1867 67.6683 99.9077 64.7753 102.6217 61.1783 105.3297 57.5833 108.0377 53.7623 109.9877 49.7193 111.1797 45.6763 112.3717 41.4053 112.7917 36.9063 112.4397 32.4073 112.0877 28.5423 111.3957 25.3073 110.3647 22.0743 109.3347 18.6823 107.8767 15.1373 105.9927 11.5913 104.1077 9.2393 102.7557 8.0823 101.9377 6.9263 101.1187 5.6863 100.2327 4.3683 99.2777 2.5133 97.7507 1.2513 95.8477.5813 93.5737-.0897 91.2987-.0527 89.0457.6933 86.8107 1.1883 85.3827 1.7293 83.9577 2.3163 82.5327 2.9033 81.1087 4.1513 78.6647 6.0613 75.2027 7.9703 71.7417 10.0053 68.6527 12.1663 65.9407 14.3273 63.2297 17.2023 60.5057 20.7903 57.7687 24.3783 55.0317 28.1943 53.0677 32.2373 51.8757 36.2813 50.6837 40.5383 50.2687 45.0093 50.6287 49.4793 50.9917 53.3893 51.7287 56.7413 52.8477 60.0923 53.9647 63.4543 55.4317 66.8273 57.2447 70.2003 59.0587 72.5953 60.4587 74.0163 61.4427 75.4353 62.4297 76.6313 63.3277 77.6033 64.1397M208.8292 196.9216C209.1862 195.9506 209.8312 195.2506 210.7622 194.8206L217.1392 191.8766C218.0692 191.4476 219.0192 191.4116 219.9902 191.7696 220.9622 192.1276 221.6612 192.7716 222.0912 193.7006 222.5202 194.6316 222.5562 195.5816 222.1982 196.5526 221.8402 197.5246 221.1972 198.2236 220.2672 198.6526L213.8902 201.5976C212.9592 202.0266 212.0092 202.0626 211.0372 201.7046 210.0662 201.3466 209.3662 200.7036 208.9372 199.7736 208.5082 198.8446 208.4712 197.8936 208.8292 196.9216M199.8632 238.7766L196.9202 232.3996C196.4902 231.4696 196.4532 230.5196 196.8112 229.5476 197.1692 228.5766 197.8132 227.8766 198.7442 227.4466 199.6742 227.0186 200.6242 226.9816 201.5952 227.3396 202.5662 227.6966 203.2672 228.3416 203.6962 229.2716L206.6402 235.6486C207.0692 236.5786 207.1042 237.5286 206.7472 238.5006 206.3902 239.4716 205.7462 240.1716 204.8152 240.6016 203.8852 241.0306 202.9352 241.0666 201.9642 240.7086 200.9932 240.3516 200.2932 239.7076 199.8632 238.7766M161.3872 240.4006C161.4912 238.6196 161.9452 236.1126 162.7502 232.8806L181.0292 239.6126C179.5262 242.6446 178.2232 244.8386 177.1172 246.1936 175.5422 248.3716 173.9722 249.7916 172.4042 250.4556 170.8362 251.1176 168.9352 251.0386 166.7032 250.2156 164.4712 249.3936 162.9832 248.2266 162.2452 246.7136 161.5072 245.2006 161.2212 243.0966 161.3872 240.4006M164.3212 226.5946C164.6742 224.7386 164.6982 222.8746 164.3972 220.9986 164.0952 219.1236 163.4352 216.6476 162.4192 213.5706 161.4512 210.5136 160.9132 207.8186 160.8062 205.4906 160.6982 203.1646 161.1072 200.7366 162.0382 198.2126 164.1472 192.4846 168.0022 188.3066 173.6012 185.6826 179.1992 183.0596 184.9122 182.8176 190.7382 184.9646 196.5642 187.1096 200.7562 190.9986 203.3142 196.6266 205.8712 202.2556 206.0972 207.9356 203.9862 213.6636 203.0562 216.1886 201.7952 218.3026 200.2042 220.0026 198.6122 221.7056 196.4562 223.4066 193.7332 225.1066 190.9642 226.7866 188.8562 228.2436 187.4102 229.4756 185.9642 230.7076 184.7732 232.1436 183.8382 233.7836L183.2562 235.1406 163.9572 228.0316C164.1242 227.4316 164.2452 226.9516 164.3212 226.5946M162.3292 182.6056L159.3852 176.2276C158.9562 175.2976 158.9192 174.3476 159.2772 173.3756 159.6352 172.4046 160.2792 171.7056 161.2092 171.2756 162.1402 170.8476 163.0902 170.8116 164.0592 171.1686 165.0312 171.5256 165.7322 172.1706 166.1612 173.0996L169.1042 179.4776C169.5352 180.4086 169.5702 181.3586 169.2132 182.3286 168.8542 183.3016 168.2122 184.0006 167.2802 184.4296 166.3502 184.8596 165.4012 184.8956 164.4292 184.5366 163.4582 184.1796 162.7592 183.5366 162.3292 182.6056M143.8262 215.3236C144.1842 214.3526 144.8282 213.6526 145.7582 213.2236L152.1362 210.2786C153.0662 209.8506 154.0162 209.8146 154.9862 210.1716 155.9592 210.5296 156.6582 211.1736 157.0872 212.1036 157.5172 213.0336 157.5532 213.9836 157.1952 214.9546 156.8372 215.9266 156.1942 216.6266 155.2632 217.0556L148.8862 219.9996C147.9562 220.4296 147.0052 220.4646 146.0332 220.1076 145.0632 219.7496 144.3632 219.1066 143.9342 218.1756 143.5052 217.2456 143.4682 216.2946 143.8262 215.3236"/>
    </g>
    <g filter="url(#a)" transform="translate(161 29)">
      <g filter="url(#b)" transform="translate(62)">
        <path fill="#FEFEFE" d="M86.4394,77.4855 L47.8524,36.5735 C46.7094,35.5195 45.8924,34.1625 45.4944,32.6605 L36.3364,6.0275 L38.3544,5.4935 C39.6114,5.1615 40.3604,3.8725 40.0284,2.6155 C39.6954,1.3585 38.4074,0.6095 37.1504,0.9425 L32.7374,2.5825 C25.4544,5.2875 17.9264,7.2795 10.2584,8.5295 L5.6124,9.2865 C4.3554,9.6195 3.6064,10.9085 3.9384,12.1645 C4.2714,13.4215 5.5594,14.1715 6.8164,13.8385 L8.8344,13.3045 L14.0464,40.9815 C14.4434,42.4835 14.4044,44.0675 13.9324,45.5485 L0.6284,100.1905 C-0.6416,104.7485 3.5184,108.9625 8.0924,107.7525 L83.6924,87.7485 C88.2664,86.5385 89.7974,80.8195 86.4394,77.4855"/>
        <path fill="#D9E0EC" d="M37.7537,0.8633 C37.5547,0.8633 37.3517,0.8893 37.1497,0.9423 L32.7367,2.5823 C25.4547,5.2883 17.9267,7.2803 10.2587,8.5293 L5.6117,9.2873 C4.3557,9.6193 3.6057,10.9083 3.9387,12.1653 C4.2177,13.2203 5.1707,13.9173 6.2127,13.9173 C6.4117,13.9173 6.6147,13.8923 6.8167,13.8383 L8.8337,13.3043 L14.0467,40.9813 C14.4437,42.4833 14.4047,44.0673 13.9327,45.5483 L0.6287,100.1903 C-0.4913,104.2103 2.6117,107.9623 6.4977,107.9623 C7.0177,107.9623 7.5517,107.8953 8.0927,107.7523 L83.6917,87.7493 C88.2657,86.5383 89.7967,80.8193 86.4397,77.4853 L47.8517,36.5733 C46.7097,35.5193 45.8917,34.1623 45.4947,32.6603 L36.3367,6.0273 L38.3547,5.4943 C39.6117,5.1613 40.3607,3.8723 40.0277,2.6163 C39.7487,1.5613 38.7957,0.8633 37.7537,0.8633 M9.5487,10.8573 L8.2757,11.1943 L6.2127,11.7343 C6.1607,11.7343 6.0737,11.7003 6.0487,11.6063 C6.0287,11.5303 6.0637,11.4523 6.1287,11.4153 L9.5487,10.8573 M33.5407,4.6123 L34.2717,6.7373 L43.4057,33.3003 C43.9107,35.1483 44.9137,36.8133 46.3127,38.1233 L84.8507,78.9833 L84.8757,79.0093 L84.9007,79.0353 C85.9157,80.0423 86.3007,81.4683 85.9307,82.8493 C85.5617,84.2303 84.5157,85.2723 83.1337,85.6383 L7.5337,105.6413 C7.1887,105.7333 6.8397,105.7793 6.4977,105.7793 C5.2937,105.7793 4.1277,105.1903 3.3787,104.2043 C2.9417,103.6283 2.2747,102.4163 2.7317,100.7763 L2.7417,100.7423 L2.7497,100.7073 L16.0367,46.1343 C16.6047,44.3033 16.6537,42.3603 16.1777,40.5043 L10.9797,12.9003 L10.5637,10.6923 L10.6097,10.6843 C18.3987,9.4153 26.0997,7.3773 33.4977,4.6283 L33.5407,4.6123 M37.7547,3.0463 C37.8067,3.0473 37.8927,3.0813 37.9177,3.1743 C37.9217,3.1913 37.9357,3.2433 37.8997,3.3043 C37.8647,3.3653 37.8127,3.3793 37.7957,3.3833 L35.7777,3.9173 L34.5067,4.2533 L37.7547,3.0463"/>
        <path fill="#E9507E" d="M8.2969,102.3736 L80.8539,83.1756 C82.4279,82.7586 82.9839,80.8106 81.8669,79.6266 L54.8329,50.9046 C36.3779,61.7926 25.5589,52.9956 15.0969,61.4186 L5.6619,99.7896 C5.2769,101.3716 6.7229,102.7896 8.2969,102.3736"/>
        <path stroke="#FEFEFE" stroke-width="1.455" d="M28.7155,70.2621 C28.1715,68.2081 26.0665,66.9831 24.0115,67.5271 C21.9575,68.0701 20.7325,70.1761 21.2765,72.2301 C21.8195,74.2851 23.9255,75.5091 25.9805,74.9661 C28.0345,74.4221 29.2595,72.3161 28.7155,70.2621 L28.7155,70.2621 Z" opacity=".3"/>
        <path fill="#FEFEFE" fill-opacity=".4" d="M44.1267 67.5817C43.9187 66.7947 43.1107 66.3247 42.3237 66.5327 41.5357 66.7417 41.0667 67.5487 41.2747 68.3367 41.4837 69.1237 42.2907 69.5927 43.0777 69.3847 43.8657 69.1767 44.3347 68.3687 44.1267 67.5817M43.0468 80.7983C42.6068 79.1333 40.8998 78.1413 39.2358 78.5813 37.5708 79.0223 36.5788 80.7283 37.0188 82.3933 37.4588 84.0583 39.1658 85.0503 40.8308 84.6093 42.4948 84.1693 43.4868 82.4633 43.0468 80.7983"/>
        <path stroke="#FEFEFE" stroke-width="1.455" d="M58.5201,72.5039 C58.0801,70.8389 56.3731,69.8469 54.7091,70.2869 C53.0441,70.7279 52.0521,72.4339 52.4921,74.0989 C52.9321,75.7639 54.6391,76.7559 56.3031,76.3149 C57.9681,75.8749 58.9601,74.1689 58.5201,72.5039 L58.5201,72.5039 Z" opacity=".3"/>
        <path fill="#FEFEFE" fill-opacity=".2" d="M52.4204,41.417 C52.2254,39.764 47.8524,36.573 47.8524,36.573 C46.7094,35.52 45.8924,34.163 45.4944,32.661 L36.3364,6.028 L38.3544,5.494 C39.6114,5.161 40.3604,3.873 40.0284,2.616 C39.6954,1.359 38.4074,0.61 37.1504,0.942 L32.7374,2.582 C25.4544,5.288 17.9264,7.28 10.2584,8.53 L5.6124,9.287 C4.3554,9.62 3.6064,10.908 3.9384,12.165 C4.2714,13.422 5.5594,14.171 6.8164,13.839 L8.8344,13.305 L14.0464,40.982 C14.4434,42.484 14.4044,44.068 13.9324,45.548 L0.6284,100.191 C-0.6416,104.749 3.5184,108.963 8.0924,107.752 L19.6874,104.684 C19.6874,104.684 55.1394,64.485 52.4204,41.417"/>
        <path fill="#E9507E" d="M25.5865 37.0455C25.3335 37.0455 25.0815 37.0785 24.8355 37.1435 24.0795 37.3435 23.4455 37.8265 23.0525 38.5035 22.6585 39.1795 22.5525 39.9695 22.7525 40.7255 23.0925 42.0095 24.2565 42.9075 25.5845 42.9075 25.8375 42.9075 26.0895 42.8745 26.3355 42.8095 27.0915 42.6085 27.7255 42.1265 28.1185 41.4495 28.5125 40.7725 28.6185 39.9835 28.4185 39.2265 28.0785 37.9425 26.9145 37.0455 25.5865 37.0455M25.5865 38.5015C26.2395 38.5015 26.8365 38.9385 27.0115 39.5995 27.2195 40.3865 26.7505 41.1935 25.9625 41.4025 25.8365 41.4355 25.7095 41.4515 25.5845 41.4515 24.9315 41.4515 24.3345 41.0145 24.1595 40.3535 23.9515 39.5665 24.4205 38.7585 25.2085 38.5505 25.3345 38.5165 25.4615 38.5015 25.5865 38.5015M41.8443 49.5551C41.5443 48.4231 40.3843 47.7481 39.2523 48.0481 38.1203 48.3471 37.4453 49.5081 37.7453 50.6401 38.0443 51.7721 39.2053 52.4461 40.3373 52.1471 41.4693 51.8471 42.1433 50.6871 41.8443 49.5551M31.7362 23.4568C31.2612 21.6638 29.4232 20.5938 27.6292 21.0688 25.8362 21.5428 24.7672 23.3818 25.2412 25.1748 25.7162 26.9688 27.5552 28.0378 29.3482 27.5628 31.1412 27.0888 32.2112 25.2498 31.7362 23.4568"/>
        <path fill="#FEFEFE" d="M12.8809,14.0208 C19.9559,12.8518 26.6179,11.0878 33.2669,8.6268"/>
        <path stroke="#D9E0EC" stroke-width="2.183" d="M12.8809,14.0208 C19.9559,12.8518 26.6179,11.0878 33.2669,8.6268"/>
        <path fill="#CE3F6D" d="M80.6397,78.3259 C80.3907,78.5649 80.0807,78.7529 79.7097,78.8509 L7.1527,98.0489 C6.7817,98.1479 6.4197,98.1369 6.0847,98.0529 L5.6617,99.7899 C5.2767,101.3719 6.7227,102.7899 8.2967,102.3739 L80.8537,83.1749 C82.4277,82.7589 82.9837,80.8109 81.8667,79.6269 L80.6397,78.3259 Z"/>
      </g>
      <g filter="url(#c)" transform="translate(0 29)">
        <path fill="#FEFEFE" d="M86.6522,101.575 L76.5962,46.243 C76.2122,44.737 76.2662,43.153 76.7512,41.677 L83.5882,14.356 L85.5712,15.008 C86.8062,15.414 88.1362,14.742 88.5422,13.507 C88.9482,12.272 88.2762,10.942 87.0412,10.536 L82.4482,9.505 C74.8672,7.805 67.4702,5.373 60.3602,2.242 L56.0512,0.344 C54.8162,-0.062 53.4852,0.61 53.0792,1.845 C52.6732,3.08 53.3452,4.411 54.5802,4.817 L56.5632,5.469 L45.8492,31.515 C45.3642,32.991 44.4672,34.298 43.2652,35.282 L2.3312,73.846 C-1.2178,76.975 -0.0268,82.775 4.4672,84.253 L78.7552,108.683 C83.2502,110.161 87.6502,106.2 86.6522,101.575"/>
        <path fill="#D9E0EC" d="M55.3152,0.2258 C54.3262,0.2258 53.4052,0.8538 53.0792,1.8448 C52.6732,3.0798 53.3452,4.4108 54.5802,4.8168 L56.5632,5.4688 L45.8492,31.5148 C45.3642,32.9908 44.4672,34.2978 43.2652,35.2818 L2.3312,73.8458 C-1.2178,76.9748 -0.0268,82.7748 4.4672,84.2528 L78.7552,108.6828 C79.4072,108.8978 80.0582,108.9978 80.6892,108.9978 C84.4132,108.9978 87.5052,105.5288 86.6522,101.5748 L76.5962,46.2428 C76.2122,44.7368 76.2662,43.1528 76.7512,41.6768 L83.5882,14.3558 L85.5702,15.0078 C85.8152,15.0888 86.0632,15.1268 86.3062,15.1268 C87.2952,15.1268 88.2162,14.4988 88.5422,13.5068 C88.9482,12.2718 88.2762,10.9418 87.0412,10.5358 L82.4472,9.5058 C74.8672,7.8058 67.4692,5.3728 60.3592,2.2418 L56.0512,0.3438 C55.8072,0.2638 55.5592,0.2258 55.3152,0.2258 M83.0192,11.8708 L86.4002,12.6288 C86.4632,12.6708 86.4932,12.7508 86.4682,12.8258 C86.4382,12.9188 86.3522,12.9438 86.3062,12.9438 C86.2892,12.9438 86.2712,12.9408 86.2522,12.9338 L84.2702,12.2818 L83.0192,11.8708 M59.4372,4.2208 L59.4802,4.2398 C66.7022,7.4208 74.2692,9.9088 81.9702,11.6358 L82.0152,11.6458 L81.4702,13.8258 L74.6512,41.0748 C74.0682,42.8998 74.0022,44.8428 74.4602,46.7038 L84.5042,101.9658 L84.5102,102.0008 L84.5182,102.0358 C84.7742,103.2238 84.5002,104.3928 83.7452,105.3278 C82.9832,106.2728 81.8692,106.8138 80.6892,106.8138 C80.2722,106.8138 79.8512,106.7448 79.4372,106.6088 L5.1492,82.1788 C3.7912,81.7328 2.8092,80.6298 2.5212,79.2298 C2.2342,77.8288 2.7022,76.4288 3.7752,75.4828 L3.8012,75.4588 L3.8282,75.4348 L44.7102,36.9198 C46.1842,35.6948 47.2832,34.0918 47.8972,32.2768 L58.5822,6.2998 L59.4372,4.2208 M55.3152,2.4088 L55.3232,2.4088 L58.4952,3.8068 L57.2452,3.3948 L55.2622,2.7428 C55.1722,2.7138 55.1242,2.6168 55.1532,2.5278 C55.1842,2.4338 55.2692,2.4088 55.3152,2.4088"/>
        <path fill="#A3C850" d="M7.5705,79.8551 L78.8685,103.3021 C80.4145,103.8101 81.9425,102.4801 81.6515,100.8781 L74.6385,62.0631 C53.2305,61.1341 48.9545,47.8621 35.5915,49.2221 L6.7695,76.2531 C5.5845,77.3691 6.0235,79.3461 7.5705,79.8551"/>
        <path stroke="#FEFEFE" stroke-width="1.455" d="M42.1908,64.0595 C42.8548,62.0405 41.7568,59.8665 39.7378,59.2025 C37.7188,58.5385 35.5448,59.6375 34.8808,61.6555 C34.2168,63.6745 35.3158,65.8485 37.3338,66.5125 C39.3528,67.1765 41.5268,66.0785 42.1908,64.0595 L42.1908,64.0595 Z" opacity=".4"/>
        <path fill="#FEFEFE" d="M56.573 70.2111C56.827 69.4371 56.406 68.6041 55.633 68.3491 54.859 68.0951 54.025 68.5161 53.771 69.2901 53.516 70.0631 53.937 70.8971 54.711 71.1511 55.485 71.4061 56.319 70.9851 56.573 70.2111M48.4646 80.7039C49.0026 79.0679 48.1126 77.3059 46.4766 76.7679 44.8416 76.2299 43.0796 77.1199 42.5416 78.7559 42.0036 80.3919 42.8936 82.1539 44.5286 82.6919 46.1646 83.2299 47.9266 82.3399 48.4646 80.7039" opacity=".4"/>
        <path stroke="#FEFEFE" stroke-width="1.455" d="M65.9584,82.1823 C66.4964,80.5463 65.6064,78.7843 63.9704,78.2463 C62.3354,77.7083 60.5734,78.5983 60.0354,80.2343 C59.4974,81.8703 60.3874,83.6323 62.0224,84.1703 C63.6584,84.7083 65.4204,83.8183 65.9584,82.1823 L65.9584,82.1823 Z" opacity=".4"/>
        <path fill="#FEFEFE" fill-opacity=".2" d="M79.5977,30.3028 C80.9617,26.4258 83.5877,14.3558 83.5877,14.3558 L85.5707,15.0078 C86.8057,15.4148 88.1367,14.7428 88.5427,13.5078 C88.9487,12.2728 88.2767,10.9418 87.0417,10.5358 L82.4477,9.5058 C74.8667,7.8058 67.4697,5.3728 60.3597,2.2418 L56.0507,0.3448 C54.8157,-0.0622 53.4857,0.6098 53.0797,1.8448 C52.6727,3.0798 53.3447,4.4108 54.5797,4.8168 L56.5627,5.4688 L45.8497,31.5148 C45.3637,32.9908 44.4677,34.2978 43.2657,35.2818 L2.3307,73.8458 C-1.2183,76.9748 -0.0273,82.7748 4.4677,84.2528 L19.2607,89.1178 C19.2607,89.1178 63.6807,75.5378 79.5977,30.3028"/>
        <path fill="#A3C850" d="M56.0718 34.03C54.8038 34.03 53.6848 34.84 53.2888 36.045 52.7838 37.58 53.6218 39.24 55.1568 39.744 55.4528 39.842 55.7618 39.892 56.0718 39.892 57.3408 39.892 58.4598 39.082 58.8558 37.876 59.0998 37.133 59.0408 36.338 58.6878 35.64 58.3348 34.941 57.7308 34.422 56.9878 34.177 56.6908 34.079 56.3828 34.03 56.0718 34.03M56.0718 35.485C56.2248 35.485 56.3798 35.509 56.5328 35.56 57.3068 35.814 57.7278 36.648 57.4728 37.421 57.2688 38.042 56.6918 38.436 56.0718 38.436 55.9198 38.436 55.7638 38.412 55.6108 38.362 54.8378 38.107 54.4168 37.274 54.6708 36.5 54.8748 35.879 55.4518 35.485 56.0718 35.485M64.4837 53.853C64.8497 52.741 64.2447 51.542 63.1317 51.177 62.0197 50.811 60.8217 51.416 60.4557 52.528 60.0897 53.641 60.6947 54.839 61.8077 55.205 62.9197 55.571 64.1177 54.965 64.4837 53.853M70.232 26.4622C70.812 24.7002 69.853 22.8012 68.09 22.2222 66.328 21.6422 64.43 22.6012 63.85 24.3632 63.271 26.1262 64.229 28.0242 65.992 28.6042 67.754 29.1832 69.652 28.2242 70.232 26.4622"/>
        <path fill="#FEFEFE" d="M59.5655,8.2747 C66.1345,11.1497 72.6815,13.3027 79.5975,14.8627"/>
        <path stroke="#D9E0EC" stroke-width="2.183" d="M59.5655,8.2747 C66.1345,11.1497 72.6815,13.3027 79.5975,14.8627"/>
        <path fill="#87B53C" d="M81.3315,99.1187 C80.9925,99.1827 80.6305,99.1727 80.2655,99.0527 L8.9675,75.6057 C8.6035,75.4857 8.3055,75.2797 8.0705,75.0267 L6.7695,76.2527 C5.5845,77.3687 6.0245,79.3467 7.5705,79.8547 L78.8685,103.3017 C80.4145,103.8097 81.9425,102.4797 81.6515,100.8777 L81.3315,99.1187 Z"/>
      </g>
    </g>
    <g filter="url(#d)">
      <path fill="#E5352A" d="M89.40118,224.267422 L50.5850758,224.267422 C50.5850758,204.733831 51.2533633,184.134524 59.2362092,165.882714 C66.9408633,148.265531 84.2671842,127.266451 123.054005,127.266451 L123.054005,166.005882 C96.950005,166.005882 89.40118,179.074203 89.40118,224.267422"/>
      <path fill="#E5352A" d="M89.40118,224.267422 L50.5850758,224.267422 C50.5850758,204.733831 51.2533633,184.134524 59.2362092,165.882714 C66.9408633,148.265531 84.2671842,127.266451 123.054005,127.266451 L123.054005,166.005882 C96.950005,166.005882 89.40118,179.074203 89.40118,224.267422"/>
      <path fill="#FEFEFE" fill-opacity=".2" d="M87.33043,224.267422 L89.40118,224.267422 C89.40118,179.074203 96.950005,166.005882 123.054005,166.005882 L123.054005,163.795123 C95.6092467,163.795123 87.4852133,177.407261 87.33043,224.267422"/>
      <path fill="#010202" fill-opacity=".1" d="M69.9178279,172.418545 C76.8757571,156.510055 91.6847571,137.84699 123.053482,134.376369 L123.053482,127.266034 C84.2666612,127.266034 66.9403404,148.266158 59.2356863,165.882296 C51.2538863,184.134107 50.5855988,204.733413 50.5855988,224.267004 L61.3032988,224.267004 C61.5082821,206.727063 62.8208029,188.646435 69.9178279,172.418545"/>
      <polygon fill="#CFE8F9" points="50.733 264.856 89.252 264.856 89.252 247.633 50.733 247.633"/>
      <polygon fill="#A5CFEB" points="50.734 264.856 56.9 264.856 56.9 247.633 50.734 247.633"/>
      <polygon fill="#FEFEFE" fill-opacity=".5" points="84.615 264.856 89.252 264.856 89.252 247.633 84.615 247.633"/>
      <path fill="#3F4F5A" d="M210.056252,224.338504 L37.10784,224.338504 L37.10784,247.632891 L210.817619,248.392774 C217.666782,248.392774 223.248394,244.214461 223.248394,235.98622 C223.248394,230.16184 218.175057,224.338504 210.056252,224.338504"/>
      <path fill="#2E3540" d="M208.153673,227.528657 L37.1076308,227.528657 L37.1076308,247.633204 L210.81741,248.393088 C214.680718,248.393088 218.139289,247.063292 220.421298,244.428752 C221.013239,242.914204 221.345814,241.165847 221.345814,239.176372 C221.345814,233.351993 216.271431,227.528657 208.153673,227.528657"/>
      <path fill="#2E3540" d="M21.04886,238.728271 C21.04886,249.287307 27.9356725,257.004088 38.5153225,257.004088 C49.0960183,257.004088 58.516885,249.287307 58.516885,238.728271 C58.516885,228.169234 49.9410517,218.76568 39.3603558,218.76568 C28.7807058,218.76568 21.04886,228.169234 21.04886,238.728271"/>
      <path fill="#2E3540" fill-opacity=".1" d="M89.2528808,247.633204 L57.8914767,247.633204 L50.7337933,247.633204 L50.7337933,250.223905 L50.7337933,255.53265 C53.0398558,254.203898 55.0070683,252.401263 56.458685,250.247912 L89.2528808,250.388825 L89.2528808,247.633204 Z"/>
      <path fill="#2E3540" d="M60.7660542,237.232512 C60.7660542,232.837088 59.5131458,228.611804 57.3503625,224.972088 L29.6849333,224.854139 L29.6849333,247.603665 L57.8513167,247.724745 C59.6961667,244.662249 60.7660542,241.109169 60.7660542,237.232512"/>
      <path fill="#CFE8F9" fill-opacity=".2" d="M24.3166708,242.101818 C24.3166708,232.209767 30.6606958,225.034716 40.5720583,225.034716 C46.8167292,225.034716 52.3104917,228.221424 55.5253833,233.050023 C53.1440208,225.944906 48.1261125,220.817782 40.2060167,220.817782 C30.2946542,220.817782 22.2605625,227.992833 22.2605625,237.884884 C22.2605625,241.544431 23.3649625,245.787461 25.2526917,248.623453 C24.654475,246.837519 24.3166708,244.088161 24.3166708,242.101818"/>
      <path fill="#3F4F5A" d="M188.091138,280.187311 L31.2067254,280.187311 L29.6839921,280.187311 C29.6839921,271.720041 36.5613921,264.856041 45.0451921,264.856041 L173.491305,264.096158 C181.975105,264.096158 189.612825,271.720041 189.612825,280.187311 L188.091138,280.187311 Z"/>
      <path fill="#2E3540" d="M175.267025 266.720051L46.8209125 267.479934C39.2354833 267.479934 32.950025 272.972387 31.7013 280.187102L188.091033 280.187102 189.613767 280.187102C189.613767 277.611015 188.9026 275.113212 187.678975 272.883664 184.651288 269.192803 180.096683 266.720051 175.267025 266.720051M109.15854 221.72818L187.523878 221.72818C188.645011 221.72818 189.55384 222.635239 189.55384 223.754188L189.55384 224.708217 107.128578 224.708217 107.128578 223.754188C107.128578 222.635239 108.037407 221.72818 109.15854 221.72818"/>
      <path fill="#010202" fill-opacity=".1" d="M99.010715,147.312337 C97.2683567,149.713067 97.805915,153.067826 100.210286,154.80679 C102.615703,156.545753 105.977011,156.009242 107.719369,153.609556 C109.461728,151.208826 108.925215,147.854067 106.519798,146.115104 C104.115428,144.37614 100.753073,144.911607 99.010715,147.312337"/>
      <path fill="#A5CFEB" d="M98.0329654,146.336597 C96.2906071,148.736283 96.8281654,152.092086 99.2325362,153.83105 C101.637953,155.570013 104.999261,155.033502 106.74162,152.633816 C108.483978,150.233086 107.947465,146.878327 105.542049,145.139364 C103.137678,143.4004 99.7753237,143.935867 98.0329654,146.336597"/>
      <path fill="#90BAD6" d="M102.392522,144.60588 C100.827955,144.60588 99.3460092,145.360544 98.4298592,146.623536 C96.8475133,148.800894 97.3369633,151.857128 99.5185717,153.436391 C100.358376,154.042836 101.34878,154.364325 102.383109,154.364325 C103.947676,154.364325 105.429622,153.610704 106.345772,152.347712 C107.927072,150.16931 107.438668,147.112033 105.256013,145.533814 C104.415163,144.927369 103.425805,144.60588 102.392522,144.60588 M102.383109,155.340274 L102.383109,155.340274 C101.141705,155.340274 99.9536383,154.955113 98.945455,154.226544 C96.3256425,152.332055 95.7399758,148.664157 97.6371175,146.050493 C98.7373342,144.534901 100.514205,143.629931 102.392522,143.629931 C103.63288,143.629931 104.820947,144.015091 105.82913,144.743661 C108.447897,146.637106 109.035655,150.306047 107.138513,152.920755 C106.037251,154.435303 104.26038,155.340274 102.383109,155.340274"/>
      <path fill="#FEFEFE" fill-opacity=".3" d="M103.860035,146.814029 C101.435793,147.200234 99.7833767,149.475708 100.171381,151.89627 C100.283285,152.594569 100.556248,153.226066 100.94216,153.765708 C99.2405892,153.363847 97.8642725,151.977686 97.5714392,150.146869 C97.1844808,147.72735 98.8358517,145.451876 101.260093,145.065672 C102.984673,144.790109 104.63186,145.547905 105.581477,146.877701 C105.032414,146.74827 104.450931,146.720088 103.860035,146.814029"/>
      <path fill="#2E3540" d="M140.661446,197.025296 L156.020554,197.025296 C159.122496,197.025296 161.636679,194.516011 161.636679,191.420113 L161.636679,189.189522 L135.045321,189.189522 L135.045321,191.420113 C135.045321,194.516011 137.559504,197.025296 140.661446,197.025296"/>
      <polygon fill="#2E3540" points="135.045 21.541 161.637 21.541 161.637 1.485 135.045 1.485"/>
      <polygon fill="#010202" fill-opacity=".1" points="135.045 21.541 146.058 21.541 146.058 1.485 135.045 1.485"/>
      <polygon fill="#CFE8F9" points="122.397 189.995 174.285 189.995 174.285 75.201 122.397 75.201"/>
      <polygon fill="#ACCEE1" points="122.397 75.202 174.285 75.202 174.285 21.541 122.397 21.541"/>
      <polygon fill="#A5CFEB" points="122.397 189.995 139.032 189.995 139.032 75.201 122.397 75.201"/>
      <polygon fill="#FEFEFE" fill-opacity=".5" points="167.333 189.995 174.285 189.995 174.285 75.201 167.333 75.201"/>
      <path fill="#010202" fill-opacity=".1" d="M133.068487,117.245491 C130.539662,115.416761 127.555899,114.449163 124.441408,114.449163 C119.726791,114.449163 115.266312,116.720462 112.502174,120.525097 C107.739449,127.08744 109.210937,136.295805 115.788183,141.051338 C118.317008,142.881112 121.301816,143.84871 124.417353,143.84871 C129.129878,143.84871 133.593495,141.577411 136.357633,137.772776 C141.120358,131.208345 139.643641,121.998936 133.068487,117.245491"/>
      <path fill="#E7F3FC" d="M109.488292,117.670525 C103.840792,126.699357 106.793179,134.175021 113.689404,139.161233 C120.585629,144.147445 130.226121,141.85005 135.222067,134.967262 C140.218012,128.085518 138.6775,119.223693 131.781275,114.237481 C124.886096,109.251269 113.997925,110.461028 109.488292,117.670525"/>
      <path fill="#2E3540" fill-opacity=".1" d="M118.638078,124.968431 C116.830878,127.457883 117.388308,130.938942 119.88262,132.74262 C122.376933,134.546299 125.864787,133.989956 127.671987,131.500504 C129.479187,129.011051 128.921758,125.529993 126.427445,123.726314 C123.933133,121.922635 120.445278,122.478978 118.638078,124.968431"/>
      <path fill="#3F4F5A" d="M118.168708,122.637113 C116.341637,125.154748 116.143975,129.433266 118.665479,131.256777 C121.188029,133.080288 124.714579,133.277566 126.54165,130.760974 C128.368721,128.243339 128.566383,123.964821 126.043833,122.14131 C123.522329,120.316755 119.995779,120.119478 118.168708,122.637113"/>
      <polygon fill="#9EC2D5" points="131.019 69.125 127.975 69.885 127.213 26.587 131.78 27.346"/>
      <polygon fill="#9EC2D5" points="140.441 69.884 136.636 69.125 135.875 27.347 141.203 26.587"/>
      <polygon fill="#9EC2D5" points="149.864 69.125 146.058 69.885 146.058 26.587 150.625 27.346"/>
      <polygon fill="#9EC2D5" points="160.047 69.125 156.241 69.885 155.481 26.587 160.047 27.346"/>
      <polygon fill="#9EC2D5" points="168.708 69.125 165.664 69.885 164.902 28.106 169.469 27.346"/>
      <polygon fill="#CFE8F9" points="133.883 6.077 162.799 6.077 162.799 0 133.883 0"/>
      <polygon fill="#FEFEFE" fill-opacity=".5" points="159.063 6.077 162.799 6.077 162.799 0 159.063 0"/>
      <polygon fill="#A5CFEB" points="133.883 6.077 140.416 6.077 140.416 0 133.883 0"/>
      <ellipse cx="125.5" cy="279.737" fill="#000000" fill-opacity=".1" filter="url(#e)" rx="125.5" ry="6.263"/>
    </g>
  </g>
</svg>
