<svg xmlns="http://www.w3.org/2000/svg" width="437" height="330" viewBox="0 0 437 330">
  <defs>
    <filter id="a" width="200%" height="200%" x="-50%" y="-50%" filterUnits="objectBoundingBox">
      <feOffset in="SourceAlpha" result="shadowOffsetOuter1"/>
      <feGaussianBlur stdDeviation="9.5" in="shadowOffsetOuter1" result="shadowBlurOuter1"/>
      <feColorMatrix values="0 0 0 0 0 0 0 0 0 0 0 0 0 0 0 0 0 0 0.2 0" in="shadowBlurOuter1" result="shadowMatrixOuter1"/>
      <feMerge>
        <feMergeNode in="shadowMatrixOuter1"/>
        <feMergeNode in="SourceGraphic"/>
      </feMerge>
    </filter>
    <filter id="b" width="200%" height="200%" x="-50%" y="-50%" filterUnits="objectBoundingBox">
      <feOffset in="SourceAlpha" result="shadowOffsetOuter1"/>
      <feGaussianBlur stdDeviation="2" in="shadowOffsetOuter1" result="shadowBlurOuter1"/>
      <feColorMatrix values="0 0 0 0 0 0 0 0 0 0 0 0 0 0 0 0 0 0 0.2 0" in="shadowBlurOuter1" result="shadowMatrixOuter1"/>
      <feMerge>
        <feMergeNode in="shadowMatrixOuter1"/>
        <feMergeNode in="SourceGraphic"/>
      </feMerge>
    </filter>
    <filter id="c" width="200%" height="200%" x="-50%" y="-50%" filterUnits="objectBoundingBox">
      <feOffset in="SourceAlpha" result="shadowOffsetOuter1"/>
      <feGaussianBlur stdDeviation="2" in="shadowOffsetOuter1" result="shadowBlurOuter1"/>
      <feColorMatrix values="0 0 0 0 0 0 0 0 0 0 0 0 0 0 0 0 0 0 0.2 0" in="shadowBlurOuter1" result="shadowMatrixOuter1"/>
      <feMerge>
        <feMergeNode in="shadowMatrixOuter1"/>
        <feMergeNode in="SourceGraphic"/>
      </feMerge>
    </filter>
    <filter id="d" width="200%" height="200%" x="-50%" y="-50%" filterUnits="objectBoundingBox">
      <feOffset in="SourceAlpha" result="shadowOffsetOuter1"/>
      <feGaussianBlur stdDeviation="2" in="shadowOffsetOuter1" result="shadowBlurOuter1"/>
      <feColorMatrix values="0 0 0 0 0 0 0 0 0 0 0 0 0 0 0 0 0 0 0.2 0" in="shadowBlurOuter1" result="shadowMatrixOuter1"/>
      <feMerge>
        <feMergeNode in="shadowMatrixOuter1"/>
        <feMergeNode in="SourceGraphic"/>
      </feMerge>
    </filter>
    <filter id="e" width="200%" height="200%" x="-50%" y="-50%" filterUnits="objectBoundingBox">
      <feOffset in="SourceAlpha" result="shadowOffsetOuter1"/>
      <feGaussianBlur stdDeviation="2" in="shadowOffsetOuter1" result="shadowBlurOuter1"/>
      <feColorMatrix values="0 0 0 0 0 0 0 0 0 0 0 0 0 0 0 0 0 0 0.2 0" in="shadowBlurOuter1" result="shadowMatrixOuter1"/>
      <feMerge>
        <feMergeNode in="shadowMatrixOuter1"/>
        <feMergeNode in="SourceGraphic"/>
      </feMerge>
    </filter>
    <filter id="f" width="200%" height="200%" x="-50%" y="-50%" filterUnits="objectBoundingBox">
      <feOffset in="SourceAlpha" result="shadowOffsetOuter1"/>
      <feGaussianBlur stdDeviation="2" in="shadowOffsetOuter1" result="shadowBlurOuter1"/>
      <feColorMatrix values="0 0 0 0 0 0 0 0 0 0 0 0 0 0 0 0 0 0 0.2 0" in="shadowBlurOuter1" result="shadowMatrixOuter1"/>
      <feMerge>
        <feMergeNode in="shadowMatrixOuter1"/>
        <feMergeNode in="SourceGraphic"/>
      </feMerge>
    </filter>
    <filter id="g" width="200%" height="200%" x="-50%" y="-50%" filterUnits="objectBoundingBox">
      <feOffset in="SourceAlpha" result="shadowOffsetOuter1"/>
      <feGaussianBlur stdDeviation="2" in="shadowOffsetOuter1" result="shadowBlurOuter1"/>
      <feColorMatrix values="0 0 0 0 0 0 0 0 0 0 0 0 0 0 0 0 0 0 0.2 0" in="shadowBlurOuter1" result="shadowMatrixOuter1"/>
      <feMerge>
        <feMergeNode in="shadowMatrixOuter1"/>
        <feMergeNode in="SourceGraphic"/>
      </feMerge>
    </filter>
  </defs>
  <g fill="none" fill-rule="evenodd" filter="url(#a)" transform="translate(19 12)">
    <g fill="#010202" opacity=".1" transform="translate(56.57 .915)">
      <path d="M21.2422961,67.8945912 L33.3394178,62.1650682 C33.8598688,63.9897784 34.4913644,66.2558244 34.6999935,67.7355311 C35.1340766,70.8349622 34.7190617,72.5599799 31.5739223,74.0497678 C28.4287828,75.5395558 26.8281715,74.7688986 24.7003792,72.4714887 C23.6852754,71.3748703 22.326943,69.4527078 21.2422961,67.8945912 M13.331216,60.4938173 C9.8125632,58.8057643 7.65560772,56.9676124 6.16379763,53.826736 C2.93116855,47.0207572 6.07742967,38.7731565 13.2145632,35.39257 C20.3516967,32.0119834 28.7372398,34.7977749 31.9698688,41.6037537 C33.4616789,44.74463 33.4818688,47.5953898 32.6047294,51.3646654 C31.6692635,55.1126583 31.8487294,57.0505028 32.5183614,59.3971989 L19.614765,65.5086901 C18.2194178,63.5058774 16.8296789,62.1415452 13.331216,60.4938173" transform="rotate(-15 19.868 54.385)"/>
      <path d="M195.072285 277.812609C194.328623 273.986206 194.519305 271.160089 196.152445 268.089782 199.692409 261.438382 208.196848 259.03792 215.172463 262.739987 222.146955 266.442054 224.914095 274.824072 221.37413 281.475471 219.740991 284.545778 217.461774 286.262955 213.909472 287.80987 210.339222 289.296298 208.888914 290.596782 207.403834 292.533506L194.792991 285.840662C195.569181 283.52757 195.836136 281.599807 195.072285 277.812609M193.846308 288.568206L205.668623 294.843238C204.513311 296.349828 203.069733 298.207022 202.006397 299.257715 199.774291 301.455432 198.140029 302.15216 195.066676 300.521234 191.992202 298.890308 191.656825 297.147368 192.232237 294.07034 192.508166 292.601835 193.242854 290.367153 193.846308 288.568206M226.730582 28.7588741C226.065436 27.006973 226.924629 25.0982522 228.678908 24.4340084L234.587822 22.1937257C236.342101 21.5283617 238.252291 22.38639 238.91968 24.1382911 239.584825 25.8901921 238.725632 27.798913 236.971353 28.4631568L231.061318 30.7034395C230.229045 31.0193193 229.259929 30.9655525 228.494956 30.6216691 227.729982 30.2789059 227.045769 29.5888988 226.730582 28.7588741L226.730582 28.7588741zM216.140974 63.1561744L213.898772 57.2552699C213.232505 55.5022487 214.091698 53.5946479 215.845977 52.929284 217.600255 52.26392 219.510445 53.1219483 220.176712 54.8738494L222.420036 60.7758741C223.086303 62.5277752 222.225988 64.436496 220.472831 65.1007398 219.64168 65.4166197 218.670321 65.3628529 217.905347 65.0189695 217.141496 64.6762063 216.456161 63.9861992 216.140974 63.1561744L216.140974 63.1561744zM185.967152 10.451284L183.722707 4.5503794C183.057561 2.79847834 183.916754.889757488 185.671033.224393531 187.425312-.439850285 189.336623.418177983 190.00289 2.17007904L192.246214 8.07210378C192.911359 9.82400484 192.052166 11.7316055 190.297888 12.3969695 189.465615 12.7117292 188.496499 12.6579624 187.731526 12.3151992 186.966552 11.9713158 186.281217 11.2813087 185.967152 10.451284L185.967152 10.451284zM184.517965 51.2479518C184.79838 50.4560119 184.999158 50.0113158 184.999158 50.0113158 185.85835 46.573602 185.452309 43.5615419 184.107436 38.2162275 182.762564 32.8720331 182.666101 29.0041851 184.728837 24.4250472 189.196416 14.5028352 201.003027 9.71087056 211.321193 14.3437752 221.639359 18.9777999 225.883727 30.9789942 221.415027 40.9012063 219.353413 45.4814642 216.392226 47.9748988 211.495051 50.5164995 206.535063 53.0300967 204.00908 54.7259907 202.068606 57.6775631 202.068606 57.6775631 201.803893 58.0942557 201.39673 58.8279483L184.517965 51.2479518zM181.499573 62.2040543C181.676796 60.4487928 182.382321 57.8601462 183.130469 55.5190508L199.117514 62.6991568C197.861253 64.8106232 196.389632 67.0565066 195.256754 68.382754 192.269769 71.7823829 189.796505 73.1948812 185.656451 71.3354465 181.516398 69.477132 180.870321 66.6622169 181.499573 62.2040543L181.499573 62.2040543zM167.225306 41.1879624C166.559039 39.4360614 167.418232 37.5273405 169.172511 36.8619766L175.082546 34.622814C176.836825 33.9574501 178.747015 34.8154783 179.413282 36.5673794 180.078428 38.3192805 179.219235 40.2268812 177.464956 40.8933653L171.556042 43.1325278C170.72489 43.4472875 169.753531 43.3935207 168.988558 43.0507575 168.225828 42.7079942 167.540493 42.0179872 167.225306 41.1879624L167.225306 41.1879624zM164.905366 268.112277L158.588167 267.886009C156.712749 267.8188 155.285995 266.286447 155.353295 264.413571 155.420594 262.540694 156.953906 261.115875 158.829324 261.183083L165.146523 261.409352C167.021941 261.47656 168.448695 263.007793 168.381396 264.88179 168.349989 265.767822 167.923758 266.640412 167.309087 267.211684 166.69666 267.781836 165.793722 268.143641 164.905366 268.112277L164.905366 268.112277zM150.578381 299.625214C149.027123 298.779507 146.911669 297.123938 145.04298 295.527737L157.87479 283.601592C159.335194 285.578641 160.835977 287.804362 161.62114 289.362479 163.59863 293.429712 163.941858 296.254708 160.619496 299.344058 157.296013 302.431168 154.448114 301.934945 150.578381 299.625214L150.578381 299.625214zM137.274351 245.013843C135.397811 244.945514 133.971057 243.414281 134.038357 241.541405L134.264933 235.232769C134.332232 233.361012 135.866666 231.935072 137.740962 232.002281 139.617502 232.069489 141.044256 233.601843 140.976956 235.474719L140.750381 241.782235C140.717852 242.669387 140.291621 243.541977 139.678072 244.112129 139.064523 244.682281 138.161585 245.045207 137.274351 245.013843L137.274351 245.013843zM125.642719 304.602002C123.767301 304.534793 122.339425 303.00356 122.406725 301.130684L122.634422 294.822048C122.7006 292.949171 124.235033 291.524352 126.110452 291.59156 127.98587 291.658769 129.412624 293.190002 129.345324 295.062878L129.118749 301.371514C129.08622 302.258666 128.659989 303.131256 128.04644 303.701408 127.432891 304.27156 126.531075 304.634486 125.642719 304.602002L125.642719 304.602002zM141.639858 292.592966C141.017336 292.028415 140.684203 291.66997 140.684203 291.66997 137.846398 289.545062 134.908766 288.748641 129.455247 287.911896 124.000606 287.07403 120.394464 285.662652 116.968909 281.986348 109.546873 274.022143 109.707271 261.296217 117.989621 253.598606 126.271971 245.902115 138.993858 246.65373 146.415894 254.619055 149.841449 258.294239 150.993396 261.987345 151.437574 267.481638 151.831277 273.021857 152.415663 276.003673 154.385301 278.936203 154.385301 278.936203 154.667959 279.341694 155.187289 280.001458L141.639858 292.592966zM104.554357 275.42232L98.2382798 275.194931C96.3617397 275.127723 94.934986 273.596489 95.0022857 271.723613 95.0695854 269.850737 96.6040187 268.425917 98.4783154 268.493125L104.795514 268.719394C106.670933 268.786602 108.097686 270.317836 108.030387 272.190712 107.99898 273.077864 107.572749 273.950454 106.9592 274.520606 106.345651 275.090758 105.442713 275.453684 104.554357 275.42232L104.554357 275.42232z"/>
    </g>
    <g transform="translate(0 12)">
      <g filter="url(#b)" transform="translate(0 115)">
        <path fill="#A5CFEB" d="M65.1557591,113.042088 L65.7278065,74.8083035 C65.7412665,73.9189113 65.467581,73.0474413 64.9482516,72.3249502 L61.2949994,67.1039714 C60.8216582,66.427406 61.5047501,38.444035 62.0229579,19.5394095 C62.2887917,9.8277841 69.7758837,1.84789717 79.4614326,0.948423675 L79.4614326,0.948423675 C79.4614326,0.948423675 82.4753377,0.396193993 82.6727501,1.96439187 L84.5448036,113.091374 L65.1557591,113.042088 Z"/>
        <path fill="#95BFDD" d="M82.6724136,1.96483993 C82.4750012,0.396642049 79.4622178,0.94775159 79.4622178,0.94775159 C79.0730012,0.984716254 78.6882712,1.03624276 78.3069062,1.09449011 L80.0589418,112.958525 L84.5455887,113.091822 L82.6724136,1.96483993 Z"/>
        <path fill="#7BABD5" d="M82.6724136,1.96483993 C82.6107223,1.47309788 82.2719804,1.1919424 81.8378973,1.03512261 C81.9242653,1.16169859 81.9825917,1.31291767 82.0050249,1.49102014 L83.8782,112.618002 L84.5455887,113.091822 L82.6724136,1.96483993 Z"/>
        <path fill="#FEFEFE" d="M84.51407,111.244485 L66.6145923,111.176157 L67.1271917,73.8463261 C67.1384083,72.9782166 66.8703312,72.1269092 66.3610967,71.4201 L62.7762659,66.3189763 C62.3118979,65.6569728 62.9467585,38.3367254 63.4301947,19.8779163 C63.6780819,10.3970399 71.0014113,2.61429788 80.4873045,1.74730848 L80.4873045,1.74730848 C80.4873045,1.74730848 81.7020641,1.53000106 82.6251917,1.7775523 C82.2124202,0.447944523 79.4621056,0.948647703 79.4621056,0.948647703 C69.775435,1.8481212 62.288343,9.82800813 62.0225092,19.5396336 C61.5043015,38.444259 60.8223312,66.4265099 61.2956724,67.1041954 L64.947803,72.3251742 C65.4671323,73.0476654 65.7408178,73.9191353 65.7273579,74.8085276 L65.1553104,113.042312 L84.5454766,113.091598 L84.51407,111.244485 Z"/>
        <path fill="#3B5373" d="M88.2213864,111.366917 C77.0518789,103.286217 61.4383478,105.777411 53.3466801,116.931779 C45.2550125,128.085026 47.7484665,143.678514 58.9179739,151.759213 C70.0874813,159.839913 85.7010125,157.348719 93.7938018,146.194351 C101.885469,135.041104 99.3908938,119.447616 88.2213864,111.366917 M81.8368878,120.166747 C88.1294101,124.719001 89.5404605,133.535634 84.9809056,139.819627 C80.4224724,146.10362 71.5949947,147.511637 65.3024724,142.959383 C59.0099501,138.407129 57.6000214,129.590496 62.1584546,123.306503 C66.7168878,117.02251 75.5454872,115.614493 81.8368878,120.166747"/>
        <path fill="#010202" fill-opacity=".1" d="M65.272524,146.350835 C71.5650463,150.903089 80.392524,149.495072 84.9520789,143.211079 C87.0899662,140.263987 87.9143875,136.759065 87.5386309,133.399761 C87.2458772,135.647884 86.4046309,137.857923 84.9812421,139.819291 C80.4228089,146.103284 71.5942095,147.511301 65.3028089,142.959047 C61.9613786,140.541782 59.997349,136.922605 59.5711175,133.118605 C58.9272837,138.07187 60.9451531,143.22004 65.272524,146.350835"/>
        <path fill="#010202" fill-opacity=".1" d="M53.5304083,121.465663 C61.4639217,110.529723 76.6994528,108.035168 87.5605033,115.89296 C93.5871917,120.25367 96.9959217,126.886027 97.4849662,133.795059 C98.2835893,125.495931 94.8187763,117.033264 87.6120997,111.819006 C76.7510493,103.961214 61.5155181,106.455769 53.5820047,117.391709 C50.0510136,122.258723 48.5670552,127.977045 48.9585151,133.518384 C49.3645567,129.311133 50.8608534,125.145327 53.5304083,121.465663"/>
        <path fill="#7BABD5" d="M83.8421947,64.7956961 L63.9887822,70.9531131 L65.0678208,72.5448339 L65.4312392,94.6060177 L82.1417555,88.8574523 C82.7844677,88.6356643 83.4686813,88.5785371 84.1338267,88.6815901 L83.8421947,64.7956961 Z"/>
        <path fill="#CFE8F9" d="M45.2317941,98.9377163 L81.4334261,86.4828647 C82.2757941,86.1927481 83.1888267,86.1804265 84.0390463,86.4481403 L90.1453727,88.2874124 C90.9372659,88.5260025 117.350156,79.1593806 135.176726,72.7768152 C144.333972,69.4992816 149.594566,59.9075113 147.433123,50.4355961 L147.433123,50.4355961 C147.433123,50.4355961 147.01923,47.4044936 145.464607,47.7058117 L39.1434142,80.5539565 L45.2317941,98.9377163 Z"/>
        <path fill="#A5CFEB" d="M145.465056,47.7060357 C147.018557,47.4047177 147.43245,50.4358201 147.43245,50.4358201 C147.51994,50.8166682 147.590605,51.1975163 147.653418,51.5783643 L40.6670795,84.7703926 L39.1438629,80.5541806 L145.465056,47.7060357 Z"/>
        <path fill="#89B9D8" d="M145.465056,47.7060357 C145.951857,47.6119438 146.32537,47.8449332 146.610272,48.2089792 C146.462213,48.1664138 146.300694,48.1574527 146.123471,48.192177 L39.8022783,81.0392018 L39.1438629,80.5541806 L145.465056,47.7060357 Z"/>
        <path fill="#FEFEFE" d="M40.9105923,80.0078876 L46.5525507,96.9724283 L81.9118148,84.8547392 C82.7351145,84.5724636 83.6279573,84.5623823 84.4591086,84.8256155 L90.4308356,86.6368841 C91.2047822,86.8721138 117.003002,77.7575237 134.415678,71.5474601 C143.359809,68.3572975 148.48356,58.9828346 146.352402,49.7114247 L146.352402,49.7114247 C146.352402,49.7114247 146.180788,48.4915908 145.658094,47.69293 C147.051198,47.6694071 147.432563,50.4361562 147.432563,50.4361562 C149.595126,59.9080714 144.334533,69.4987216 135.177287,72.7773753 C117.349595,79.1588205 90.936705,88.5254424 90.1459335,88.2868523 L84.0396071,86.4475802 C83.1893875,86.1798664 82.2752332,86.192188 81.4328653,86.4823046 L45.2312332,98.9371562 L39.1439751,80.5533965 L40.9105923,80.0078876 Z"/>
        <path fill="#3B5373" d="M39.6388522,76.5280565 C28.4693448,68.4473569 12.8558136,70.9385512 4.76414599,82.0929187 C-3.32864332,93.2461661 -0.834067656,108.839654 10.3354398,116.920353 C21.5049472,125.001053 37.1184783,122.509859 45.210146,111.355491 C53.3029353,100.202244 50.8083596,84.6087562 39.6388522,76.5280565 M33.2543537,85.3278869 C39.546876,89.8801413 40.9579264,98.6967739 36.3983715,104.980767 C31.8399383,111.26476 23.0124605,112.672777 16.7199383,108.120523 C10.427416,103.567148 9.01636558,94.751636 13.5759205,88.4676431 C18.1343537,82.1836502 26.9618315,80.7756325 33.2543537,85.3278869"/>
        <path fill="#010202" fill-opacity=".1" d="M13.5018908,109.20538 C7.20936855,104.653125 5.79943976,95.8364929 10.357873,89.5525 C12.4957602,86.6054081 15.5736,84.7314117 18.8881104,84.0402845 C16.8388344,85.019288 14.9993092,86.5057155 13.5759205,88.4682032 C9.01636558,94.7521961 10.427416,103.567708 16.7199383,108.119963 C20.0602469,110.537228 24.1161757,111.274281 27.8692558,110.492422 C23.355689,112.647574 17.8292617,112.336175 13.5018908,109.20538"/>
        <path fill="#010202" fill-opacity=".1" d="M40.8389181 112.594031C48.7724315 101.658092 46.3989953 86.4241693 35.5379448 78.5652576 29.5112564 74.2056675 22.1385739 73.0373601 15.4119685 74.7265332 23.0594582 71.3817912 32.1909062 72.0325933 39.3987045 77.2468512 50.2597549 85.1057629 52.6331911 100.340805 44.6996777 111.275625 41.1686866 116.142639 36.1896303 119.332802 30.7944374 120.687053 34.672022 118.992279 38.1693632 116.273696 40.8389181 112.594031M72.0287412 79.8589088C71.1314119 81.0955449 71.4084623 82.8228028 72.6467769 83.7189159 73.8839697 84.6139088 75.6146938 84.3383541 76.5109015 83.101718 77.4082309 81.8662021 77.1323021 80.137824 75.8939875 79.241711 74.655673 78.346718 72.9260706 78.6222728 72.0287412 79.8589088"/>
        <path fill="#A5CFEB" d="M71.5254516,79.3563014 C70.6281223,80.5929375 70.9051727,82.3201954 72.1434872,83.2163085 C73.3806801,84.1113014 75.1114042,83.8357466 76.0076119,82.5991106 C76.9049412,81.3635947 76.6290125,79.6352166 75.3906979,78.7391035 C74.1523834,77.8441106 72.422781,78.1196654 71.5254516,79.3563014"/>
        <path fill="#90BAD6" d="M73.7694481,78.4648929 C72.964095,78.4648929 72.201365,78.853582 71.7291454,79.5043841 C70.914819,80.6256456 71.1671929,82.1994442 72.2899763,83.0126668 C72.7229377,83.3251862 73.2321721,83.4909671 73.7649614,83.4909671 C74.5703145,83.4909671 75.3330445,83.1022781 75.8041424,82.4525961 C76.6184688,81.3302145 76.3672166,79.7552958 75.2433116,78.9431933 C74.8103501,78.6306739 74.3011157,78.4648929 73.7694481,78.4648929 M73.7649614,83.9939106 L73.7649614,83.9939106 C73.1256142,83.9939106 72.5143086,83.7945254 71.9949792,83.4192781 C70.6467418,82.443635 70.3450148,80.5550767 71.3219822,79.2086668 C71.8884214,78.4279283 72.8025757,77.9619495 73.7694481,77.9619495 C74.4076736,77.9619495 75.0201009,78.1613346 75.5383086,78.536582 C76.886546,79.5111049 77.1893947,81.4007834 76.2124273,82.7471933 C75.6459881,83.5279318 74.7307122,83.9939106 73.7649614,83.9939106"/>
        <path fill="#FEFEFE" d="M74.0654546,82.6171449 C74.806873,81.595576 74.578054,80.1662756 73.5550985,79.4258622 C73.2589798,79.2119152 72.9292113,79.0808587 72.5927128,79.0248516 C73.3576861,78.5521519 74.3649383,78.5577527 75.1388849,79.1178233 C76.1618404,79.8582367 76.3906593,81.286417 75.6492409,82.309106 C75.1220599,83.0360777 74.2460421,83.3586784 73.4160125,83.2197809 C73.662778,83.0674417 73.8848671,82.8658163 74.0654546,82.6171449"/>
      </g>
      <g filter="url(#c)" transform="rotate(-6 2222.822 -2602.445)">
        <polygon fill="#010202" fill-opacity=".1" points="112.18 61.373 12.562 72.129 5.995 16.109 107.188 5.183"/>
        <polygon fill="#9B5CA4" points="109.262 58.83 7.215 70.092 .489 11.438 104.149 0"/>
        <polygon fill="#010202" fill-opacity=".1" points="76.258 24.001 11.548 30.953 9.345 19.902 75.502 12.288"/>
        <polygon fill="#010202" fill-opacity=".1" points="58.083 34.942 12.214 39.871 11.055 35.781 57.969 30.552"/>
        <polygon fill="#010202" fill-opacity=".1" points="69.863 43.142 13.088 48.736 12.254 44.613 69.282 38.296"/>
        <polygon fill="#010202" fill-opacity=".1" points="64.964 51.89 12.922 57.482 13.184 53.24 64.39 47.55"/>
      </g>
      <g filter="url(#d)" transform="translate(254.86 158.82)">
        <polygon fill="#010202" fill-opacity=".1" points="96.399 71.485 2.329 54.864 11.242 1.831 106.799 18.715"/>
        <polygon fill="#ED4F7E" points="94.889 69.977 .82 53.356 9.732 .323 105.289 17.207"/>
        <polygon fill="#010202" fill-opacity=".1" points="78.785 32.807 14.702 21.45 15.675 10.224 81.332 21.349"/>
        <polygon fill="#010202" fill-opacity=".1" points="58.274 38.249 12.851 30.198 12.881 25.948 59.392 34.001"/>
        <polygon fill="#010202" fill-opacity=".1" points="67.295 49.406 11.212 38.956 11.564 34.763 68.091 44.591"/>
        <polygon fill="#010202" fill-opacity=".1" points="60.146 56.441 8.608 47.307 10.046 43.307 60.807 52.113"/>
      </g>
      <g filter="url(#e)" transform="translate(283.834 90.01)">
        <polygon fill="#010202" fill-opacity=".1" points="97.052 59.224 1.602 55.309 3.337 1.563 100.294 5.54"/>
        <polygon fill="#A4CE4E" points="95.542 57.716 .092 53.802 1.827 .055 98.785 4.033"/>
        <polygon fill="#010202" fill-opacity=".1" points="30.725 49.109 6.528 48.041 7.342 5.335 33.218 6.593"/>
        <polygon fill="#010202" fill-opacity=".1" points="59.617 49.919 35.42 48.852 36.234 6.647 62.11 8.409"/>
        <polygon fill="#010202" fill-opacity=".1" points="89.326 50.69 63.62 49.623 65.441 7.921 91.82 9.18"/>
      </g>
      <g filter="url(#f)" transform="translate(261.496 59.127)">
        <polygon fill="#010202" fill-opacity=".1" points="106.72 29.206 5.991 39.657 2.339 11.997 105.087 2.347"/>
        <polygon fill="#44B9BC" points="105.21 27.699 4.482 38.15 .83 10.489 103.577 .839"/>
        <path fill="#010202" fill-opacity=".1" d="M16.6839329,31.0574869 L7.99329792,24.0196389 C7.85084688,23.8964233 7.82729199,23.6723951 7.94057982,23.5222961 L14.9980754,14.8501618 C15.1124849,14.701183 15.3446688,14.6765399 15.4871199,14.7997555 L18.1331199,16.9448261 C18.2755709,17.0602007 18.2991258,17.29207 18.1847163,17.4332078 L13.4995353,23.1974551 L19.2704849,27.8751654 C19.4118142,27.9905399 19.4364908,28.2224092 19.3209596,28.363547 L17.1729774,31.0070806 C17.1067994,31.0698085 17.0305264,31.1190947 16.9340635,31.129176 C16.8387223,31.1381371 16.7624493,31.105653 16.6839329,31.0574869"/>
        <polygon fill="#010202" fill-opacity=".1" points="98.058 20.821 59.567 24.814 57.811 13.712 97.143 9.126"/>
      </g>
      <g filter="url(#g)" transform="rotate(-3 205.716 -1872.565)">
        <g>
          <path fill="#3F4F5A" d="M124.92145,0.298138277 L15.439312,7.11974328 C6.9711996,7.64798346 0.461787999,15.0122025 0.985947363,23.3921759 L16.9686099,244.685282 C17.4963676,253.141916 24.8669839,259.565843 33.2583315,259.042395 L138.017038,253.053277 C146.48515,252.526235 152.917797,245.165609 152.393638,236.785636 L141.211172,14.6552511 C140.688212,6.27527769 133.389562,-0.228904077 124.92145,0.298138277"/>
          <path fill="#E6EBF0" d="M15.3838974,34.7323306 L127.954618,27.717876 C129.786177,27.6040828 131.32627,28.9612169 131.440217,30.7890956 L142.489545,207.648938 C142.604692,209.478014 141.245716,211.01602 139.414157,211.129813 L26.7762673,217.071017 C24.9447082,217.184811 23.4058147,215.827677 23.2906675,213.999798 L12.3085093,38.212008 C12.1945616,36.3841293 13.5535377,34.8461239 15.3838974,34.7323306"/>
          <path fill="#34414B" d="M82.6277865 17.238118C82.7273408 18.8384102 81.5122987 20.2135116 79.9098343 20.3141288L62.5166194 21.3969613C60.914155 21.4975785 59.5371872 20.2829854 59.4364334 18.6826932 59.3368791 17.0835987 60.5531208 15.7072995 62.1543856 15.6078802L79.5476006 14.5238499C81.150065 14.4244305 82.5282323 15.6378257 82.6277865 17.238118M96.0902861 233.940086C96.4849049 240.263396 93.226001 245.666778 86.8185426 246.065654 80.4866495 246.460935 73.4518791 241.77505 73.0524625 235.375079 72.6566442 229.052966 77.9809998 223.520219 84.3896577 223.121344 90.8019139 222.797932 95.6956672 227.616776 96.0902861 233.940086"/>
        </g>
        <path fill="#010202" fill-opacity=".1" d="M127.40491,196.157857 L127.168618,192.403878 L128.551583,192.316437 L128.495209,190.934149 L132.257882,190.779629 L132.466586,195.840434 L127.40491,196.157857 Z M115.299347,196.917637 L115.063056,193.163658 L121.115477,192.78275 L121.351769,196.537927 L115.299347,196.917637 Z M103.193305,197.677057 L102.957014,193.923078 L109.010634,193.543368 L109.246926,197.297347 L103.193305,197.677057 Z M91.0884624,198.437675 L90.8521708,194.682498 L96.9045922,194.302788 L97.1408838,198.057965 L91.0884624,198.437675 Z M78.9824201,199.197095 L78.7461286,195.443116 L84.7997494,195.063406 L85.0360409,198.817385 L78.9824201,199.197095 Z M66.8775773,199.956515 L66.6400863,196.202536 L72.6937072,195.822826 L72.9299987,199.576805 L66.8775773,199.956515 Z M54.771535,200.717133 L54.5352435,196.961956 L60.5876649,196.582246 L60.8251559,200.337423 L54.771535,200.717133 Z M42.6666922,201.476553 L42.4292012,197.722574 L48.4828221,197.342864 L48.7191136,201.096843 L42.6666922,201.476553 Z M31.5300449,202.175842 L31.1594151,197.10306 L34.9160904,196.828758 L35.0156447,198.188288 L36.3770197,198.102044 L36.6133113,201.857221 L31.5300449,202.175842 Z M28.9785763,167.304684 L28.5419767,161.345512 L32.2998515,161.07121 L32.7352516,167.030382 L28.9785763,167.304684 Z M29.8505759,179.224226 L29.4151758,173.263856 L33.1718512,172.990752 L33.6072513,178.949924 L29.8505759,179.224226 Z M30.7225756,191.143768 L30.2871755,185.183398 L34.0438509,184.909096 L34.4804504,190.869466 L30.7225756,191.143768 Z M28.1069364,155.385501 L27.7339077,150.274388 L32.8543569,149.953372 L33.0906485,153.707351 L31.7676558,153.79 L31.8636118,155.1112 L28.1069364,155.385501 Z M113.108433,148.685236 L112.872142,144.931257 L119.026516,144.54436 L119.264007,148.298339 L113.108433,148.685236 Z M100.798485,149.457832 L100.562193,145.703853 L106.716568,145.316956 L106.952859,149.072133 L100.798485,149.457832 Z M88.4873365,150.230428 L88.251045,146.476449 L94.406619,146.089552 L94.6429105,149.844729 L88.4873365,150.230428 Z M76.1773879,151.003024 L75.9410963,147.249045 L82.0954709,146.862148 L82.3329619,150.617325 L76.1773879,151.003024 Z M63.8662398,151.775621 L63.6299482,148.021642 L69.7855223,147.634745 L70.0218138,151.389921 L63.8662398,151.775621 Z M51.5562911,152.548217 L51.3199996,148.794238 L57.4755736,148.407341 L57.7118652,152.162518 L51.5562911,152.548217 Z M39.2463425,153.320813 L39.0088515,149.566834 L45.1644255,149.179937 L45.4007171,152.935114 L39.2463425,153.320813 Z M130.537632,148.977984 L126.77376,149.132503 L126.720984,147.830469 L125.418382,147.913119 L125.18329,144.157942 L130.326529,143.835727 L130.537632,148.977984 Z M131.029046,160.921123 L127.265174,161.075642 L127.019287,155.104492 L130.783159,154.949973 L131.029046,160.921123 Z M131.52082,172.864621 L127.756948,173.019141 L127.512261,167.046793 L131.274933,166.892273 L131.52082,172.864621 Z M132.012595,184.80812 L128.248723,184.962639 L128.002835,178.990291 L131.766707,178.835772 L132.012595,184.80812 Z"/>
        <g transform="translate(17.992 35.935)">
          <polygon fill="#010202" fill-opacity=".1" points="112.613 30.401 4.53 37.135 1.848 7.421 112.053 1.63"/>
          <polygon fill="#44B9BC" points="110.902 28.892 2.818 35.627 .136 5.912 110.341 .122"/>
          <path fill="#010202" fill-opacity=".1" d="M16.1679775,28.5861783 L7.19249801,20.6841365 C7.04616519,20.5463868 7.03057235,20.3056243 7.15891343,20.151105 L15.0812764,11.1961763 C15.2096174,11.0416571 15.4591029,11.0260854 15.6066352,11.1626373 L18.3389808,13.5714604 C18.4853136,13.7008253 18.5009065,13.9499726 18.3725654,14.0961071 L13.11298,20.0480922 L19.0718443,25.3005484 C19.2181772,25.4287155 19.23377,25.6778628 19.1042295,25.8239973 L16.6933363,28.5538371 C16.6189704,28.6185196 16.5362084,28.6664325 16.4330558,28.6736194 C16.3287037,28.6796086 16.24954,28.6412782 16.1679775,28.5861783"/>
          <polygon fill="#010202" fill-opacity=".1" points="103.564 21.229 62.263 23.802 60.875 11.863 103.101 8.693"/>
        </g>
        <g transform="translate(22.66 73.067)">
          <polygon fill="#010202" fill-opacity=".1" points="107.796 59.379 5.842 65.785 1.719 8.428 105.284 1.922"/>
          <polygon fill="#9A5CA1" points="106.084 57.87 4.13 64.276 .007 6.92 103.573 .413"/>
          <polygon fill="#010202" fill-opacity=".1" points="79.967 23.296 10.505 27.624 8.681 15.713 79.722 10.748"/>
          <polygon fill="#010202" fill-opacity=".1" points="60.025 34.114 10.788 37.182 9.747 32.758 60.114 29.419"/>
          <polygon fill="#010202" fill-opacity=".1" points="72.215 43.438 11.295 46.695 10.603 42.25 71.828 38.234"/>
          <polygon fill="#010202" fill-opacity=".1" points="66.563 52.549 10.698 56.03 11.183 51.51 66.157 47.885"/>
        </g>
        <path fill="#FEFEFE" fill-opacity=".1" d="M15.3838974,34.7323306 L127.954618,27.717876 C129.786177,27.6040828 131.32627,28.9612169 131.440217,30.7890956 L140.413298,174.416522 L14.944899,80.4149244 L12.3085093,38.212008 C12.1945616,36.3841293 13.5535377,34.8461239 15.3838974,34.7323306"/>
      </g>
    </g>
  </g>
</svg>
