<?xml version="1.0" encoding="UTF-8" standalone="no"?>
<svg width="471px" height="469px" viewBox="0 0 471 469" version="1.1" xmlns="http://www.w3.org/2000/svg" xmlns:xlink="http://www.w3.org/1999/xlink">
    <!-- Generator: Sketch 3.8.3 (29802) - http://www.bohemiancoding.com/sketch -->
    <title>sticker</title>
    <desc>Created with Sketch.</desc>
    <defs>
        <filter x="-50%" y="-50%" width="200%" height="200%" filterUnits="objectBoundingBox" id="filter-1">
            <feOffset dx="0" dy="2" in="SourceAlpha" result="shadowOffsetOuter1"></feOffset>
            <feGaussianBlur stdDeviation="3" in="shadowOffsetOuter1" result="shadowBlurOuter1"></feGaussianBlur>
            <feColorMatrix values="0 0 0 0 0   0 0 0 0 0   0 0 0 0 0  0 0 0 0.2 0" type="matrix" in="shadowBlurOuter1" result="shadowMatrixOuter1"></feColorMatrix>
            <feMerge>
                <feMergeNode in="shadowMatrixOuter1"></feMergeNode>
                <feMergeNode in="SourceGraphic"></feMergeNode>
            </feMerge>
        </filter>
        <filter x="-50%" y="-50%" width="200%" height="200%" filterUnits="objectBoundingBox" id="filter-2">
            <feOffset dx="0.5" dy="0.5" in="SourceAlpha" result="shadowOffsetOuter1"></feOffset>
            <feColorMatrix values="0 0 0 0 0   0 0 0 0 0   0 0 0 0 0  0 0 0 0.2 0" type="matrix" in="shadowOffsetOuter1" result="shadowMatrixOuter1"></feColorMatrix>
            <feMerge>
                <feMergeNode in="shadowMatrixOuter1"></feMergeNode>
                <feMergeNode in="SourceGraphic"></feMergeNode>
            </feMerge>
        </filter>
        <polygon id="path-3" points="173.196641 4.33114892 201.326634 22.3991399 226.96576 0.942905359 249.719475 25.4403183 279.888746 11.0363213 295.836945 40.4227573 328.639689 33.9743181 336.779371 66.4051021 370.155711 68.3179225 369.975076 101.755037 401.827108 111.910259 393.337247 144.250711 421.66372 162.009671 405.400202 191.221782 428.420116 215.468801 405.404955 239.71899 421.673227 268.929516 393.349923 286.691646 401.844537 319.032098 369.99409 329.192074 370.179479 362.627604 336.803139 364.546764 328.669795 396.979132 295.865467 390.535448 279.923606 419.926638 249.751166 405.52581 227.002204 430.027978 201.358324 408.574913 173.2315 426.649243 153.727637 399.492582 121.991276 410.001208 109.852264 378.84775 76.4996912 381.132992 72.4892698 347.936763 39.6152224 341.854407 43.98533 308.705721 13.6560226 294.637695 26.1309527 263.615774 0.254147997 242.446383 20.0495629 215.502082 0.249394436 188.562534 26.1230301 167.388389 13.6433464 136.369637 43.9694848 122.295273 39.5946236 89.1465872 72.4670865 83.0594761 76.4711699 49.863247 109.825327 52.1437346 121.958001 20.9871077 153.697531 31.4909796"></polygon>
        <mask id="mask-4" maskContentUnits="userSpaceOnUse" maskUnits="objectBoundingBox" x="0" y="0" width="428.170721" height="429.085072" fill="white">
            <use xlink:href="#path-3"></use>
        </mask>
        <filter x="-50%" y="-50%" width="200%" height="200%" filterUnits="objectBoundingBox" id="filter-5">
            <feOffset dx="2" dy="3" in="SourceAlpha" result="shadowOffsetOuter1"></feOffset>
            <feColorMatrix values="0 0 0 0 0   0 0 0 0 0   0 0 0 0 0  0 0 0 0.2 0" type="matrix" in="shadowOffsetOuter1" result="shadowMatrixOuter1"></feColorMatrix>
            <feMerge>
                <feMergeNode in="shadowMatrixOuter1"></feMergeNode>
                <feMergeNode in="SourceGraphic"></feMergeNode>
            </feMerge>
        </filter>
        <path d="M188.82134,307.500176 C188.82134,314.300176 194.29534,319.706176 201.09534,319.706176 C204.12134,319.706176 207.04534,318.652176 209.35734,316.408176 C209.59534,316.170176 209.62934,315.728176 209.39134,315.490176 L206.73934,312.668176 C206.53534,312.430176 206.09334,312.430176 205.85534,312.634176 C204.63134,313.688176 203.16934,314.266176 201.29934,314.266176 C197.45734,314.266176 194.60134,311.138176 194.60134,307.364176 C194.60134,303.556176 197.42334,300.360176 201.26534,300.360176 C202.93134,300.360176 204.46134,300.870176 205.85534,302.094176 C206.09334,302.332176 206.46734,302.332176 206.70534,302.094176 L209.35734,299.340176 C209.62934,299.068176 209.62934,298.660176 209.32334,298.388176 C207.01134,296.280176 204.49534,295.226176 201.09534,295.226176 C194.29534,295.226176 188.82134,300.700176 188.82134,307.500176 L188.82134,307.500176 Z M210.811749,311.478176 C210.811749,315.966176 214.517749,319.740176 219.005749,319.740176 C223.493749,319.740176 227.165749,315.966176 227.165749,311.478176 C227.165749,307.058176 223.493749,303.318176 219.005749,303.318176 C214.517749,303.318176 210.811749,307.058176 210.811749,311.478176 L210.811749,311.478176 Z M215.707749,311.478176 C215.707749,309.676176 217.169749,308.146176 219.005749,308.146176 C220.807749,308.146176 222.269749,309.676176 222.269749,311.478176 C222.269749,313.314176 220.807749,314.878176 219.005749,314.878176 C217.169749,314.878176 215.707749,313.314176 215.707749,311.478176 L215.707749,311.478176 Z M235.080157,319.740176 C239.262157,319.740176 241.472157,317.462176 241.472157,314.742176 C241.472157,311.580176 238.888157,310.322176 235.726157,309.166176 C234.604157,308.758176 233.958157,308.418176 233.958157,308.010176 C233.958157,307.602176 234.196157,307.364176 235.080157,307.364176 C236.338157,307.364176 237.698157,307.806176 238.752157,308.316176 C239.058157,308.452176 239.466157,308.316176 239.568157,308.044176 L240.792157,305.528176 C240.996157,305.120176 240.792157,304.712176 240.384157,304.508176 C239.194157,303.896176 237.052157,303.318176 235.012157,303.318176 C230.932157,303.318176 229.062157,305.392176 229.062157,308.214176 C229.062157,310.730176 230.626157,312.124176 233.652157,313.314176 C235.488157,314.028176 236.338157,314.436176 236.338157,314.946176 C236.338157,315.320176 236.168157,315.694176 235.148157,315.694176 C233.720157,315.694176 232.530157,315.320176 231.272157,314.708176 C230.932157,314.538176 230.558157,314.776176 230.456157,315.048176 L229.198157,317.632176 C229.028157,317.972176 229.130157,318.244176 229.470157,318.448176 C230.490157,319.060176 232.530157,319.740176 235.080157,319.740176 L235.080157,319.740176 Z M245.136566,314.266176 C245.136566,317.836176 246.870566,319.740176 249.862566,319.740176 C251.528566,319.740176 253.296566,319.298176 254.350566,318.856176 C254.792566,318.652176 254.962566,318.448176 254.860566,317.972176 L254.180566,315.014176 C254.078566,314.606176 253.704566,314.436176 253.296566,314.538176 C252.922566,314.640176 251.902566,314.878176 251.358566,314.878176 C250.678566,314.878176 250.304566,314.538176 250.304566,313.790176 L250.304566,308.316176 L253.466566,308.316176 C253.874566,308.316176 254.214566,307.976176 254.214566,307.568176 L254.214566,304.406176 C254.214566,303.964176 253.874566,303.658176 253.466566,303.658176 L250.304566,303.658176 L250.304566,299.306176 C250.304566,298.898176 249.998566,298.558176 249.624566,298.558176 L245.884566,298.558176 C245.476566,298.558176 245.136566,298.898176 245.136566,299.306176 L245.136566,303.658176 L243.844566,303.658176 C243.470566,303.658176 243.164566,303.964176 243.164566,304.406176 L243.164566,307.568176 C243.164566,307.976176 243.470566,308.316176 243.844566,308.316176 L245.136566,308.316176 L245.136566,314.266176 Z M137.351114,351.720176 C137.351114,352.060176 137.623114,352.366176 137.997114,352.366176 L142.043114,352.366176 C142.383114,352.366176 142.689114,352.060176 142.689114,351.720176 L142.689114,343.050176 L145.035114,343.050176 L149.557114,352.060176 C149.625114,352.196176 149.829114,352.366176 150.101114,352.366176 L154.623114,352.366176 C155.201114,352.366176 155.439114,351.822176 155.201114,351.380176 L150.543114,342.744176 C153.705114,341.554176 155.575114,339.038176 155.575114,335.910176 C155.575114,331.864176 152.481114,328.566176 148.163114,328.566176 L137.997114,328.566176 C137.623114,328.566176 137.351114,328.872176 137.351114,329.212176 L137.351114,351.720176 Z M142.689114,338.732176 L142.689114,333.428176 L147.721114,333.428176 C149.115114,333.428176 150.305114,334.414176 150.305114,336.012176 C150.305114,337.610176 149.115114,338.732176 147.721114,338.732176 L142.689114,338.732176 Z M156.689523,344.512176 C156.689523,349.374176 160.225523,352.740176 164.917523,352.740176 C167.399523,352.740176 169.371523,351.890176 170.731523,350.496176 C171.071523,350.156176 171.003523,349.680176 170.765523,349.374176 L169.031523,347.096176 C168.793523,346.790176 168.385523,346.790176 168.045523,347.096176 C167.365523,347.572176 166.073523,348.082176 165.053523,348.082176 C162.911523,348.082176 161.789523,346.586176 161.789523,345.362176 L171.479523,345.362176 C171.819523,345.362176 172.193523,345.090176 172.227523,344.682176 C172.261523,344.444176 172.295523,343.900176 172.295523,343.662176 C172.295523,339.344176 168.827523,336.318176 164.849523,336.318176 C160.191523,336.318176 156.689523,340.092176 156.689523,344.512176 L156.689523,344.512176 Z M162.367523,342.370176 C162.571523,341.316176 163.421523,340.432176 164.713523,340.432176 C166.039523,340.432176 166.923523,341.316176 166.991523,342.370176 L162.367523,342.370176 Z M173.885931,344.512176 C173.885931,349.000176 177.217931,352.740176 181.637931,352.740176 C185.105931,352.740176 186.941931,350.292176 186.941931,350.292176 L187.383931,351.584176 C187.519931,352.026176 187.825931,352.366176 188.199931,352.366176 L189.729931,352.366176 C190.137931,352.366176 190.477931,352.026176 190.477931,351.618176 L190.477931,329.314176 C190.477931,328.940176 190.137931,328.566176 189.729931,328.566176 L186.057931,328.566176 C185.649931,328.566176 185.309931,328.940176 185.309931,329.314176 L185.309931,337.202176 C184.799931,336.794176 183.201931,336.318176 181.671931,336.318176 C177.489931,336.318176 173.885931,338.970176 173.885931,344.512176 L173.885931,344.512176 Z M179.087931,344.478176 C179.087931,342.574176 180.549931,341.146176 182.419931,341.146176 C184.357931,341.146176 185.751931,342.574176 185.751931,344.478176 C185.751931,346.416176 184.357931,347.878176 182.419931,347.878176 C180.549931,347.878176 179.087931,346.416176 179.087931,344.478176 L179.087931,344.478176 Z M193.90434,345.260176 C193.90434,349.714176 195.33234,352.740176 199.92234,352.740176 C202.26834,352.740176 203.93434,351.346176 204.88634,350.360176 L205.43034,351.822176 C205.56634,352.094176 205.83834,352.366176 206.17834,352.366176 L207.74234,352.366176 C208.15034,352.366176 208.49034,352.026176 208.49034,351.618176 L208.49034,337.406176 C208.49034,336.964176 208.15034,336.658176 207.74234,336.658176 L204.17234,336.658176 C203.79834,336.658176 203.32234,336.760176 203.32234,337.406176 L203.32234,345.430176 C203.32234,346.824176 202.71034,347.878176 201.18034,347.878176 C199.58234,347.878176 199.07234,346.926176 199.07234,345.158176 L199.07234,337.406176 C199.07234,336.964176 198.73234,336.658176 198.32434,336.658176 L194.61834,336.658176 C194.24434,336.658176 193.90434,336.964176 193.90434,337.406176 L193.90434,345.260176 Z M211.100749,344.512176 C211.100749,349.238176 214.908749,352.740176 219.396749,352.740176 C222.218749,352.740176 224.258749,351.652176 225.720749,349.476176 C225.992749,349.068176 225.788749,348.694176 225.448749,348.354176 L223.238749,346.450176 C223.034749,346.178176 222.626749,346.246176 222.354749,346.586176 C221.674749,347.266176 220.994749,347.878176 219.532749,347.878176 C217.730749,347.878176 216.268749,346.416176 216.268749,344.512176 C216.268749,342.744176 217.798749,341.146176 219.600749,341.146176 C220.586749,341.146176 221.368749,341.690176 222.014749,342.268176 C222.320749,342.540176 222.728749,342.506176 222.898749,342.336176 L225.108749,340.194176 C225.482749,339.888176 225.618749,339.446176 225.312749,339.072176 C223.816749,337.304176 221.912749,336.318176 219.430749,336.318176 C214.942749,336.318176 211.100749,339.888176 211.100749,344.512176 L211.100749,344.512176 Z M229.079157,347.266176 C229.079157,350.836176 230.813157,352.740176 233.805157,352.740176 C235.471157,352.740176 237.239157,352.298176 238.293157,351.856176 C238.735157,351.652176 238.905157,351.448176 238.803157,350.972176 L238.123157,348.014176 C238.021157,347.606176 237.647157,347.436176 237.239157,347.538176 C236.865157,347.640176 235.845157,347.878176 235.301157,347.878176 C234.621157,347.878176 234.247157,347.538176 234.247157,346.790176 L234.247157,341.316176 L237.409157,341.316176 C237.817157,341.316176 238.157157,340.976176 238.157157,340.568176 L238.157157,337.406176 C238.157157,336.964176 237.817157,336.658176 237.409157,336.658176 L234.247157,336.658176 L234.247157,332.306176 C234.247157,331.898176 233.941157,331.558176 233.567157,331.558176 L229.827157,331.558176 C229.419157,331.558176 229.079157,331.898176 229.079157,332.306176 L229.079157,336.658176 L227.787157,336.658176 C227.413157,336.658176 227.107157,336.964176 227.107157,337.406176 L227.107157,340.568176 C227.107157,340.976176 227.413157,341.316176 227.787157,341.316176 L229.079157,341.316176 L229.079157,347.266176 Z M241.141566,351.618176 C241.141566,352.026176 241.481566,352.366176 241.889566,352.366176 L245.561566,352.366176 C245.969566,352.366176 246.309566,352.026176 246.309566,351.618176 L246.309566,337.406176 C246.309566,336.964176 245.969566,336.658176 245.561566,336.658176 L241.889566,336.658176 C241.481566,336.658176 241.141566,336.964176 241.141566,337.406176 L241.141566,351.618176 Z M243.691566,334.482176 C245.323566,334.482176 246.649566,333.156176 246.649566,331.558176 C246.649566,329.926176 245.323566,328.566176 243.691566,328.566176 C242.059566,328.566176 240.767566,329.926176 240.767566,331.558176 C240.767566,333.156176 242.059566,334.482176 243.691566,334.482176 L243.691566,334.482176 Z M248.919975,344.478176 C248.919975,348.966176 252.625975,352.740176 257.113975,352.740176 C261.601975,352.740176 265.273975,348.966176 265.273975,344.478176 C265.273975,340.058176 261.601975,336.318176 257.113975,336.318176 C252.625975,336.318176 248.919975,340.058176 248.919975,344.478176 L248.919975,344.478176 Z M253.815975,344.478176 C253.815975,342.676176 255.277975,341.146176 257.113975,341.146176 C258.915975,341.146176 260.377975,342.676176 260.377975,344.478176 C260.377975,346.314176 258.915975,347.878176 257.113975,347.878176 C255.277975,347.878176 253.815975,346.314176 253.815975,344.478176 L253.815975,344.478176 Z M267.884383,351.618176 C267.884383,352.026176 268.224383,352.366176 268.632383,352.366176 L272.372383,352.366176 C272.916383,352.366176 273.086383,351.958176 273.086383,351.618176 L273.086383,343.832176 C273.086383,342.234176 273.902383,341.146176 275.466383,341.146176 C277.234383,341.146176 277.744383,342.540176 277.744383,344.036176 L277.744383,351.618176 C277.744383,352.026176 278.050383,352.366176 278.492383,352.366176 L282.198383,352.366176 C282.572383,352.366176 282.912383,352.026176 282.912383,351.618176 L282.912383,344.104176 C282.912383,339.786176 281.246383,336.318176 276.350383,336.318176 C273.494383,336.318176 272.304383,337.746176 271.454383,338.698176 L270.876383,337.134176 C270.706383,336.828176 270.400383,336.658176 270.162383,336.658176 L268.632383,336.658176 C268.224383,336.658176 267.884383,336.964176 267.884383,337.406176 L267.884383,351.618176 Z M291.574792,352.740176 C295.756792,352.740176 297.966792,350.462176 297.966792,347.742176 C297.966792,344.580176 295.382792,343.322176 292.220792,342.166176 C291.098792,341.758176 290.452792,341.418176 290.452792,341.010176 C290.452792,340.602176 290.690792,340.364176 291.574792,340.364176 C292.832792,340.364176 294.192792,340.806176 295.246792,341.316176 C295.552792,341.452176 295.960792,341.316176 296.062792,341.044176 L297.286792,338.528176 C297.490792,338.120176 297.286792,337.712176 296.878792,337.508176 C295.688792,336.896176 293.546792,336.318176 291.506792,336.318176 C287.426792,336.318176 285.556792,338.392176 285.556792,341.214176 C285.556792,343.730176 287.120792,345.124176 290.146792,346.314176 C291.982792,347.028176 292.832792,347.436176 292.832792,347.946176 C292.832792,348.320176 292.662792,348.694176 291.642792,348.694176 C290.214792,348.694176 289.024792,348.320176 287.766792,347.708176 C287.426792,347.538176 287.052792,347.776176 286.950792,348.048176 L285.692792,350.632176 C285.522792,350.972176 285.624792,351.244176 285.964792,351.448176 C286.984792,352.060176 289.024792,352.740176 291.574792,352.740176 L291.574792,352.740176 Z M302.719201,343.118176 L304.147201,343.118176 C304.453201,343.118176 304.759201,342.846176 304.793201,342.574176 L306.459201,333.020176 L306.459201,329.212176 C306.459201,328.872176 306.153201,328.566176 305.813201,328.566176 L301.053201,328.566176 C300.713201,328.566176 300.407201,328.872176 300.407201,329.212176 L300.407201,333.088176 L302.073201,342.574176 C302.107201,342.846176 302.413201,343.118176 302.719201,343.118176 L302.719201,343.118176 Z M300.203201,349.510176 C300.203201,351.244176 301.665201,352.706176 303.399201,352.706176 C305.167201,352.706176 306.663201,351.244176 306.663201,349.510176 C306.663201,347.742176 305.167201,346.246176 303.399201,346.246176 C301.665201,346.246176 300.203201,347.742176 300.203201,349.510176 L300.203201,349.510176 Z" id="path-6"></path>
        <filter x="-50%" y="-50%" width="200%" height="200%" filterUnits="objectBoundingBox" id="filter-7">
            <feOffset dx="1" dy="1" in="SourceAlpha" result="shadowOffsetOuter1"></feOffset>
            <feColorMatrix values="0 0 0 0 0   0 0 0 0 0   0 0 0 0 0  0 0 0 0.2 0" type="matrix" in="shadowOffsetOuter1"></feColorMatrix>
        </filter>
    </defs>
    <g id="Website" stroke="none" stroke-width="1" fill="none" fill-rule="evenodd">
        <g id="Illustrations" transform="translate(-1319.000000, -493.000000)">
            <g id="sticker" transform="translate(1309.000000, 461.000000)">
                <g id="icons" opacity="0.1" transform="translate(10.114583, 64.104167)" fill="#010202">
                    <path d="M180.375405,373.084397 L191.42665,413.025429 C192.052249,415.289857 190.946226,417.492922 189.015551,418.027225 L177.268365,421.277943 C175.339186,421.812246 173.255853,420.490707 172.630254,418.224782 L161.579009,378.285247 C160.999806,376.188444 161.854392,374.052728 163.653362,373.374746 C165.597507,372.56506 167.671861,371.902045 169.770161,371.321346 C171.866964,370.740647 173.905398,370.267706 176.072543,369.938444 C177.880493,369.619658 179.794706,370.986097 180.375405,373.084397 M157.238731,393.938683 L164.575297,420.45329 C165.202392,422.719215 164.094873,424.92228 162.165695,425.456583 L150.418508,428.707301 C148.487833,429.240108 146.405996,427.920065 145.780398,425.654141 L138.443832,399.138037 C137.863132,397.041233 138.717718,394.907014 140.516688,394.229033 C142.46233,393.420843 144.536684,392.754835 146.634983,392.175632 C148.731787,391.594933 150.770221,391.121993 152.935869,390.79273 C154.74382,390.472448 156.659528,391.840383 157.238731,393.938683 M132.617383,409.422998 L137.723944,427.882649 C138.351039,430.148573 137.245017,432.351638 135.314342,432.884445 L123.567155,436.135163 C121.637977,436.669466 119.554643,435.349423 118.929045,433.083499 L113.820987,414.623848 C113.240288,412.525549 114.09637,410.391329 115.89534,409.713348 C117.839485,408.903662 119.915335,408.240647 122.012139,407.659948 C124.110438,407.079248 126.147376,406.606308 128.314521,406.278542 C130.122471,405.958259 132.036684,407.324698 132.617383,409.422998 M140.875884,381.483583 L128.301051,373.581284 L122.520999,384.032373 C122.743999,384.512797 122.990946,385.077033 123.154081,385.663719 C124.592359,390.867562 121.558654,396.222567 116.356308,397.662342 C111.152464,399.102117 105.795963,396.066916 104.357685,390.864569 C102.91791,385.662222 105.953111,380.305721 111.155458,378.867443 C111.658331,378.728255 112.186648,378.672879 112.795783,378.593556 L121.474842,363.273872 C122.287522,361.965802 123.550692,360.984002 124.978494,360.588887 C126.511061,360.255134 128.015192,360.472148 129.324758,361.283331 L142.495256,369.383187 L156.836133,350.691557 C156.813683,350.607744 156.767287,350.44012 156.743341,350.356308 C155.303566,345.152464 158.338767,339.797459 163.541114,338.357685 C168.74346,336.91791 174.098465,339.953111 175.53824,345.155458 C176.976518,350.357804 173.942814,355.714306 168.740467,357.152584 C167.73472,357.43096 166.68108,357.543209 165.748669,357.438444 L148.276806,380.15905 C146.476339,382.463887 143.2795,382.987713 140.875884,381.483583" id="bar-chart"></path>
                    <path d="M81.9861784,297.161084 C87.3247201,316.460354 76.0370046,336.385222 56.737735,341.723764 C35.0902254,347.713347 15.9930032,333.213826 11.735041,314.881391 L46.8748279,315.545902 C49.6870285,315.581822 51.5757977,312.619956 50.9262527,310.271716 L40.1548805,271.337928 C58.4454098,267.903122 76.9245166,278.869058 81.9861784,297.161084 L81.9861784,297.161084 Z M2.75365928,306.254714 C1.2106157,306.230768 -0.0465682072,304.952631 0.0013245131,303.4934 C0.0282641683,285.961671 10.9448111,270.565658 27.1385372,266.086192 C28.5648422,265.691077 30.1108791,266.708797 30.56586,268.02884 L41.4315209,307.296381 L2.75365928,306.254714 Z" id="pie-chart"></path>
                    <path d="M407.392955,27.5921793 L410.856197,13.9876535 C410.60925,13.4234173 410.38625,12.9429935 410.223115,12.3563077 C408.784837,7.15396092 411.818542,1.79745949 417.020888,0.357684581 C422.223235,-1.08209032 427.579737,1.95311083 429.019511,7.15545757 C429.065907,7.32308209 429.026995,7.51465297 429.073391,7.68227749 L447.161873,15.5950529 C448.016458,15.0876894 448.808185,14.6880845 449.815429,14.409708 C455.017775,12.9699331 460.374277,16.0051343 461.812555,21.2059844 C463.25233,26.4098278 460.217129,31.7648326 455.014782,33.2046075 C449.812435,34.6443824 444.45743,31.6091812 443.017656,26.4068345 C442.971259,26.23921 442.924863,26.0715854 442.96228,25.8815112 L424.873798,17.9672392 C424.020709,18.4746027 423.14517,18.8981539 422.221738,19.152584 C421.80118,19.2693225 421.358173,19.3022488 420.940608,19.4174906 L418.108951,30.4073733 L407.392955,27.5921793 Z M390.917859,78.400369 C389.502031,73.2818345 392.392057,68.0555414 397.464195,66.4705917 L401.544056,50.5283024 L412.260053,53.344993 L408.091889,69.9443105 C408.811777,70.9201247 409.389483,72.0246506 409.714255,73.1995189 C411.15403,78.4018656 408.118829,83.7583671 402.916482,85.1966453 C397.714135,86.6364202 392.357634,83.6012191 390.917859,78.400369 L390.917859,78.400369 Z M451.728144,57.2392698 L395.894212,42.5167483 C394.76125,43.6422272 393.367871,44.4803498 391.772445,44.9218608 C386.570098,46.3601391 381.213597,43.3264346 379.773822,38.1240878 C378.335544,32.9217411 381.369248,27.5652397 386.573091,26.1254648 C391.271068,24.8248781 396.106736,27.2823733 398.031425,31.627141 L453.865357,46.3496626 C454.998319,45.2241836 456.391698,44.386061 457.987124,43.94455 C463.189471,42.5062717 468.545972,45.5399762 469.98425,50.742323 C471.424025,55.9446697 468.388824,61.3011712 463.186477,62.7409461 C458.488501,64.0400361 453.652833,61.5840376 451.728144,57.2392698 L451.728144,57.2392698 Z" id="line-chart"></path>
                </g>
                <g filter="url(#filter-1)" transform="translate(249.534132, 249.552105) rotate(-10.000000) translate(-249.534132, -249.552105) translate(35.034132, 34.052105)">
                    <g id="Group-4" filter="url(#filter-2)" transform="translate(132.000000, 312.000000)"></g>
                    <use id="Fill-1" stroke="#0697D0" mask="url(#mask-4)" stroke-width="18" fill="#18A0DB" xlink:href="#path-3"></use>
                    <g id="Group-3" filter="url(#filter-5)" transform="translate(220.835287, 192.902013) rotate(-2.000000) translate(-220.835287, -192.902013) translate(76.835287, 115.902013)" fill="#FEFEFE">
                        <path d="M16.3635446,133.564741 L22.6542921,150.15214 C23.7027501,153.091679 26.0093575,154.561448 29.3644228,153.511613 C52.0111138,147.212601 101.917711,123.066388 101.917711,59.4463652 C101.917711,25.8516339 83.2551597,0.655585438 49.914198,0.655585438 C22.8639837,0.655585438 0.426984296,22.9120949 0.426984296,50.2078141 C0.426984296,82.1228089 23.0736753,97.240438 43.4137589,97.240438 C49.2851232,97.240438 58.3018613,95.1407673 63.9635341,92.8311295 C58.7212445,114.457738 30.6225723,123.906256 20.5573763,127.265729 C16.1538531,128.525532 15.5247783,130.835169 16.3635446,133.564741 L16.3635446,133.564741 Z M50.3335812,72.2543566 C38.8005441,72.2543566 29.5741144,62.8058384 29.5741144,51.2576495 C29.5741144,40.1293947 38.8005441,30.4709095 50.3335812,30.4709095 C61.6569267,30.4709095 71.0930479,40.1293947 71.0930479,51.2576495 C71.0930479,62.8058384 61.6569267,72.2543566 50.3335812,72.2543566 L50.3335812,72.2543566 Z M165.734386,151.831876 C200.962572,151.831876 221.092964,123.486322 221.092964,76.2437309 C221.092964,28.7911729 200.962572,0.655585438 165.734386,0.655585438 C130.5062,0.655585438 110.585499,28.7911729 110.585499,76.2437309 C110.585499,123.486322 130.5062,151.831876 165.734386,151.831876 L165.734386,151.831876 Z M165.734386,121.386651 C152.733508,121.386651 143.507078,104.799253 143.507078,76.2437309 C143.507078,47.8981764 152.733508,31.3107778 165.734386,31.3107778 C178.944956,31.3107778 188.171385,47.8981764 188.171385,76.2437309 C188.171385,104.799253 178.944956,121.386651 165.734386,121.386651 L165.734386,121.386651 Z" id="90"></path>
                        <path d="M241.994704,106.962945 C249.161989,106.962945 255.070156,101.143998 255.070156,93.8703146 C255.070156,86.5966309 249.161989,80.8746664 241.994704,80.8746664 C234.730563,80.8746664 228.919251,86.5966309 228.919251,93.8703146 C228.919251,101.143998 234.730563,106.962945 241.994704,106.962945 L241.994704,106.962945 Z M236.086536,147.11368 C235.40855,148.374451 236.280247,149.732206 237.733075,149.732206 L244.90036,149.732206 C245.384636,149.732206 246.256333,149.150311 246.546898,148.762381 L279.961944,84.463017 C280.63993,83.2022452 279.768233,81.8444909 278.315405,81.8444909 L270.95441,81.8444909 C270.470134,81.8444909 269.695292,82.1354382 269.307871,82.8143154 L236.086536,147.11368 Z M241.994704,97.2647004 C240.154455,97.2647004 238.604772,95.7129812 238.604772,93.8703146 C238.604772,92.1246305 240.154455,90.5729113 241.994704,90.5729113 C243.738097,90.5729113 245.287781,92.1246305 245.287781,93.8703146 C245.287781,95.7129812 243.738097,97.2647004 241.994704,97.2647004 L241.994704,97.2647004 Z M261.365745,137.609399 C261.365745,144.786101 267.273912,150.70203 274.441197,150.70203 C281.705337,150.70203 287.613505,144.786101 287.613505,137.609399 C287.613505,130.335716 281.705337,124.516769 274.441197,124.516769 C267.273912,124.516769 261.365745,130.335716 261.365745,137.609399 L261.365745,137.609399 Z M271.14812,137.609399 C271.14812,135.766733 272.697803,134.215014 274.441197,134.215014 C276.281446,134.215014 277.831129,135.766733 277.831129,137.609399 C277.831129,139.355084 276.281446,140.906803 274.441197,140.906803 C272.697803,140.906803 271.14812,139.355084 271.14812,137.609399 L271.14812,137.609399 Z" id="%"></path>
                    </g>
                    <path d="M173.196641,4.33114892 L201.326634,22.3991399 L226.96576,0.942905359 L249.719475,25.4403183 L279.888746,11.0363213 L295.836945,40.4227573 L328.639689,33.9743181 L336.779371,66.4051021 C336.779371,66.4051021 242.728571,148.924205 202.427876,208.245408 C156.156707,276.354175 121.991276,410.001208 121.991276,410.001208 L109.852264,378.84775 L76.4996912,381.132992 L72.4892698,347.936763 L39.6152224,341.854407 L43.98533,308.705721 L13.6560226,294.637695 L26.1309527,263.615774 L0.254147997,242.446383 L20.0495629,215.502082 L0.249394436,188.562534 L26.1230301,167.388389 L13.6433464,136.369637 L43.9694848,122.295273 L39.5946236,89.1465872 L72.4670865,83.0594761 L76.4711699,49.863247 L109.825327,52.1437346 L121.958001,20.9871077 L153.697531,31.4909796 L173.196641,4.33114892 Z" id="Fill-4" fill="#FEFEFE" opacity="0.109701493"></path>
                    <g id="Cost-" transform="translate(222.738157, 323.983176) rotate(-2.000000) translate(-222.738157, -323.983176) ">
                        <use fill="black" fill-opacity="1" filter="url(#filter-7)" xlink:href="#path-6"></use>
                        <use fill="#FEFEFE" fill-rule="evenodd" xlink:href="#path-6"></use>
                        <use fill="black" fill-opacity="1" xlink:href="#path-6"></use>
                    </g>
                </g>
            </g>
        </g>
    </g>
</svg>