<?xml version="1.0" encoding="utf-8"?>
<!-- Generator: Adobe Illustrator 16.2.1, SVG Export Plug-In . SVG Version: 6.00 Build 0)  -->
<!DOCTYPE svg PUBLIC "-//W3C//DTD SVG 1.1//EN" "http://www.w3.org/Graphics/SVG/1.1/DTD/svg11.dtd">
<svg version="1.1" id="Layer_1" xmlns="http://www.w3.org/2000/svg" xmlns:xlink="http://www.w3.org/1999/xlink" x="0px" y="0px"
	 width="303px" height="54px" viewBox="-0.305 -1.344 303 54" enable-background="new -0.305 -1.344 303 54" xml:space="preserve">
<g>
	<path fill="#FFFFFF" d="M20.903,37.432c-1.931,2.041-4.467,3.199-7.556,3.199c-2.206,0-4.303-0.553-5.901-1.49
		c0.11,0.662,0.11,1.49,0.11,2.316v8.824l-7.115,1.875V19.507c0-3.695-0.055-4.743-0.441-7.115l6.562-1.158
		c0.276,0.993,0.44,1.765,0.497,2.647c1.268-1.544,4.081-2.647,6.948-2.647c1.986,0,4.027,0.662,5.57,1.71
		c3.034,2.041,5.24,5.681,5.24,12.188C24.819,31.2,23.826,34.288,20.903,37.432z M16.05,19.618c-0.552-1.545-1.71-2.372-3.53-2.372
		c-1.82,0-3.584,0.773-4.908,2.151v13.732c0.992,0.828,2.592,1.654,4.081,1.654c3.64,0,5.074-2.48,5.074-8.936
		C16.767,23.148,16.546,20.996,16.05,19.618z"/>
	<path fill="#FFFFFF" d="M35.574,28.221v0.22c0,4.356,2.151,6.839,5.956,6.839c2.538,0,4.909-0.938,7.17-2.812l2.868,4.412
		c-3.254,2.648-6.673,3.916-10.645,3.916c-8.107,0-13.347-5.735-13.347-14.615c0-5.073,1.048-8.438,3.53-11.195
		c2.317-2.593,5.129-3.806,8.88-3.806c3.253,0,6.342,1.103,8.162,2.978c2.592,2.647,3.75,6.453,3.75,12.355v1.709H35.574z
		 M44.234,22.486c0-2.096-0.221-3.199-0.883-4.247c-0.717-1.103-1.766-1.654-3.254-1.654c-2.812,0-4.412,2.206-4.412,6.122v0.11
		h8.549V22.486z"/>
	<path fill="#FFFFFF" d="M75.318,38.369c-1.931,1.544-3.861,2.206-6.177,2.206c-2.758,0-4.688-0.827-6.288-2.592
		c-0.22,0.993-0.275,1.269-0.771,2.041h-6.619c0.551-1.27,0.717-2.096,0.717-6.012V7.87c0-3.475-0.11-5.35-0.496-6.949l7.556-1.765
		c0.22,1.931,0.275,3.089,0.275,5.019v6.674c0,0.827-0.056,2.041-0.165,2.481c1.434-1.544,3.419-2.261,6.012-2.261
		c6.894,0,11.196,5.516,11.196,14.34C80.557,31.145,78.792,35.612,75.318,38.369z M71.843,20.776
		c-0.552-2.427-2.096-3.585-4.026-3.585c-1.93,0-3.254,1.213-4.192,2.261v13.018c0.993,0.882,2.151,1.819,4.137,1.819
		c1.82,0,2.979-0.717,3.585-2.207c0.662-1.543,0.827-3.032,0.827-6.507C72.174,23.037,72.119,21.99,71.843,20.776z"/>
	<path fill="#FFFFFF" d="M104.23,38.369c-1.93,1.544-3.861,2.206-6.177,2.206c-2.758,0-4.688-0.827-6.288-2.592
		c-0.222,0.993-0.276,1.269-0.772,2.041h-6.619c0.552-1.27,0.717-2.096,0.717-6.012V7.87c0-3.475-0.11-5.35-0.496-6.949l7.556-1.765
		c0.221,1.931,0.276,3.089,0.276,5.019v6.674c0,0.827-0.055,2.041-0.166,2.481c1.434-1.544,3.419-2.261,6.012-2.261
		c6.894,0,11.195,5.516,11.195,14.34C109.469,31.145,107.704,35.612,104.23,38.369z M100.755,20.776
		c-0.551-2.427-2.096-3.585-4.026-3.585c-1.93,0-3.254,1.213-4.192,2.261v13.018c0.993,0.882,2.151,1.819,4.137,1.819
		c1.82,0,2.979-0.717,3.585-2.207c0.662-1.543,0.827-3.032,0.827-6.507C101.085,23.037,101.03,21.99,100.755,20.776z"/>
	<path fill="#FFFFFF" d="M121.167,40.686c-3.144,0-5.681-1.489-6.562-3.86c-0.551-1.435-0.662-2.317-0.662-6.343V9.415
		c0-3.695-0.11-5.957-0.386-8.494l7.556-1.709c0.275,1.544,0.386,3.364,0.386,7.335v22.005c0,4.854,0.055,5.517,0.496,6.289
		c0.276,0.496,0.883,0.771,1.489,0.771c0.276,0,0.441,0,0.827-0.11l1.269,4.413C124.311,40.41,122.768,40.686,121.167,40.686z"/>
	<path fill="#FFFFFF" d="M134.244,28.221v0.22c0,4.356,2.151,6.839,5.957,6.839c2.537,0,4.909-0.938,7.17-2.812l2.867,4.412
		c-3.254,2.648-6.673,3.916-10.644,3.916c-8.107,0-13.347-5.735-13.347-14.615c0-5.073,1.048-8.438,3.53-11.195
		c2.316-2.593,5.129-3.806,8.879-3.806c3.254,0,6.342,1.103,8.163,2.978c2.592,2.647,3.75,6.453,3.75,12.355v1.709H134.244z
		 M142.904,22.486c0-2.096-0.221-3.199-0.882-4.247c-0.718-1.103-1.765-1.654-3.254-1.654c-2.813,0-4.412,2.206-4.412,6.122v0.11
		h8.548V22.486z"/>
	<path fill="#FFFFFF" d="M171.637,50.467c-3.916,0-7.113-2.316-7.113-8.054v-9.485c0-3.42-4.578-3.806-5.957-3.806v-6.288
		c1.379,0,5.957-0.386,5.957-3.805V9.489c0-5.736,3.033-7.998,7.113-7.998h5.791v6.288h-2.701c-3.364,0-3.585,2.041-3.585,3.53
		v8.879c0,5.13-3.199,5.516-5.516,5.736v0.109c2.316,0.166,5.516,0.551,5.516,5.682v8.935c0,1.489,0.221,3.53,3.585,3.53h2.701
		v6.287H171.637L171.637,50.467z"/>
	<path fill="#FFFFFF" d="M197.174,38.92c-1.984,1.159-4.189,1.766-6.893,1.766c-7.777,0-12.299-5.405-12.299-14.561
		c0-6.508,2.48-10.81,5.791-13.071c1.875-1.269,4.633-2.096,7.004-2.096c1.875,0,3.916,0.441,5.459,1.27
		c1.049,0.551,1.545,0.937,2.758,1.984l-3.584,4.854c-1.49-1.379-3.088-2.206-4.467-2.206c-3.311,0-4.799,2.868-4.799,9.485
		c0,3.696,0.496,5.901,1.434,7.115c0.773,0.993,2.041,1.601,3.311,1.601c1.709,0,3.254-0.718,5.072-2.316l0.441-0.386l3.365,4.468
		C198.664,37.928,198.168,38.314,197.174,38.92z"/>
	<path fill="#FFFFFF" d="M222.75,36.715c-2.15,2.426-4.965,3.916-9.322,3.916c-7.666,0-12.684-5.736-12.684-14.617
		c0-8.879,5.074-14.78,12.684-14.78c4.027,0,7.172,1.379,9.598,4.247c2.262,2.646,3.254,5.736,3.254,10.312
		C226.279,30.648,225.176,33.958,222.75,36.715z M216.738,18.184c-0.717-0.938-1.875-1.489-3.199-1.489
		c-1.766,0-3.199,1.103-3.807,2.868c-0.496,1.489-0.771,3.475-0.771,6.288c0,3.254,0.332,5.681,0.938,7.114
		c0.662,1.545,2.316,2.316,3.75,2.316c3.199,0,4.578-2.868,4.578-9.542C218.227,21.934,217.73,19.452,216.738,18.184z"/>
	<path fill="#FFFFFF" d="M247.939,40.024c-0.223-0.441-0.332-0.883-0.441-1.655c-1.82,1.601-3.973,2.372-6.508,2.372
		c-7.17,0-11.693-5.571-11.693-14.34c0-8.824,4.908-14.891,12.078-14.891c2.041,0,3.641,0.496,5.02,1.6
		c-0.109-0.607-0.221-2.538-0.221-4.192v-9.706l7.334,1.158V29.71c0,6.949,0.553,9.21,1.049,10.313H247.939z M246.283,19.232
		c-1.379-1.213-2.701-1.82-4.025-1.82c-3.309,0-4.742,2.758-4.742,9.045c0,6.067,1.268,8.054,5.129,8.054
		c1.379,0,2.922-0.938,3.639-1.82V19.232z"/>
	<path fill="#FFFFFF" d="M266.102,28.221v0.22c0,4.356,2.15,6.839,5.957,6.839c2.535,0,4.906-0.938,7.168-2.812l2.867,4.412
		c-3.254,2.648-6.672,3.916-10.645,3.916c-8.107,0-13.346-5.735-13.346-14.615c0-5.073,1.047-8.438,3.529-11.195
		c2.316-2.593,5.129-3.806,8.879-3.806c3.256,0,6.344,1.103,8.164,2.978c2.592,2.647,3.75,6.453,3.75,12.355v1.709H266.102z
		 M274.76,22.486c0-2.096-0.221-3.199-0.883-4.247c-0.717-1.103-1.764-1.654-3.254-1.654c-2.812,0-4.412,2.206-4.412,6.122v0.11
		h8.549V22.486z"/>
	<path fill="#FFFFFF" d="M296.436,32.928v9.541c0,5.735-3.035,7.998-7.115,7.998h-5.791v-6.289h2.701
		c3.365,0,3.586-2.041,3.586-3.529V31.77c0-5.129,3.199-5.516,5.514-5.736v-0.109c-2.314-0.166-5.514-0.552-5.514-5.682v-8.934
		c0-1.489-0.221-3.53-3.586-3.53h-2.701V1.491h5.957c3.75,0,6.949,2.317,6.949,8.053v9.486c0,3.419,4.412,3.805,5.955,3.805v6.288
		C300.846,29.123,296.436,29.508,296.436,32.928z"/>
</g>
</svg>
