<svg id="Layer_3" xmlns="http://www.w3.org/2000/svg" viewBox="0 0 303.8 303.8"><style>.st0{fill:#9b5ca2;stroke:#75457b;stroke-width:10;stroke-miterlimit:10}.st1{fill:#434955}.st2{fill:#eaeaea}.st3{fill:#c4c4c4}.st4{fill:#828282}.st5{fill:#13a1dc}.st6{fill:#fff}.st7{fill:#ffd900;stroke:#f0c400;stroke-width:2;stroke-miterlimit:10}.st8{opacity:.3}.st9{fill:#000100}.st10{opacity:.1;enable-background:new}.st11{fill:#ffd900}.st12{opacity:.1}.st13{fill:#a4c851}</style><title>vert-transport-rail-service-b</title><circle class="st0" cx="151.9" cy="151.9" r="146.9"/><path class="st1" d="M237.4 236.8l-34.9-34.9c-2.4-2.4-6.3-2.3-8.7.1-2.3 2.4-2.3 6.2 0 8.6l12 12H99.9l12-12c2.4-2.4 2.3-6.3-.1-8.7-2.4-2.3-6.2-2.3-8.6 0l-34.8 34.9c-2.5 2.3-2.6 6.2-.3 8.7 2.3 2.5 6.2 2.6 8.7.3l.3-.3L87.6 235h130.6l10.5 10.5c2.6 2.2 6.5 1.9 8.7-.7 2-2.3 1.9-5.7 0-8z"/><path class="st2" d="M94.4 207.8c-5.4 0-9.8-4.4-9.8-9.8l3-135.6c0-5.4 4.4-9.9 9.8-9.9h111c5.4 0 9.8 4.4 9.8 9.8l3 135.7c0 5.4-4.4 9.8-9.8 9.8h-117z"/><path class="st3" d="M208.4 55c4 0 7.3 3.3 7.3 7.3v.1l3 135.6c0 4-3.3 7.3-7.3 7.3h-117c-4 0-7.3-3.3-7.3-7.3l3-135.6v-.1c0-4 3.3-7.3 7.3-7.3h111m0-5h-111C90.6 50 85 55.5 85 62.3L82 198c0 6.8 5.5 12.3 12.3 12.3h117c6.8 0 12.3-5.5 12.3-12.3l-3-135.7c.1-6.8-5.4-12.3-12.2-12.3z"/><path class="st4" d="M207.4 143.6h-109l1-56.7h107z"/><path class="st5" d="M171.4 68.4c0 3.4-2.7 6.2-6.2 6.2h-24.7c-3.4 0-6.2-2.7-6.2-6.1 0-3.4 2.7-6.2 6.2-6.2h24.7c3.4 0 6.2 2.7 6.2 6.1z"/><circle class="st6" cx="109.7" cy="173.3" r="12.3"/><circle class="st7" cx="109.7" cy="173.3" r="6.2"/><circle class="st6" cx="196" cy="173.3" r="12.3"/><circle class="st7" cx="196" cy="173.3" r="6.2"/><g class="st8"><path class="st9" d="M94.8 210.3l-6.2 6.2H106l5.8-5.9c.1-.1.1-.2.2-.3H94.8zM210.9 210.3h-17.4c.1.1.1.2.2.3l5.9 5.9H217l-6.1-6.2z"/></g><path class="st10" d="M171.4 68.4c0 3.4-2.8 6.2-6.2 6.2h-24.7c-3.4 0-6.2-2.8-6.2-6.2v-.5c.3 3.1 2.9 4.5 6.1 4.5h24.7c3.2 0 5.8-1.4 6.1-4.5.1.2.1.4.2.5z"/><path class="st5" d="M207.4 142.6h-108l1-55.7h106z"/><path class="st10" d="M149.8 198c1-1 4.6-4.6 5.5-5.7l6.1-6.8c27-32.3 31.9-59.3 37.2-92.7 1.6-10 3.2-29.9 2.9-40v-1.6c.3-.7 2.2-1.2 3-1.2 11.2-.4 14.3 4.3 16 11.3v1l2.5 135.9c.8 5.9-4.8 12.1-10.7 12.1h-78.8c8.7-5.5 11.5-7.4 16.3-12.3z"/><path class="st11" d="M205.6 138.8c-10.5-6.3-18.1-16.6-21.1-28.6-6.2-25.4 10.1-51.1 36.4-57.5s52.6 9 58.8 34.3c6.1 25.4-10.1 51.1-36.4 57.5-5.6 1.4-11.4 1.7-17.2 1.1l-30 28 9.5-34.8z"/><g id="_Group__1_" class="st12"><path id="_Compound_Path__1_" d="M225.7 121.6l-7.9 1.9-6.7-28.6L219 93l6.7 28.6zm33.2-31.3c1.3 1.1 2.2 2.6 2.3 4.3l.5 3.4c2.4 15.8 3 19.5-11.9 23-6.7 1.5-9.4.5-11.8-.3-1.9-.7-3.5-1.2-7.4-.3l-1.8.4-5.4-23.4c9-4.4 8.6-10 8.5-14.1 0-2.4-.2-5.1 2.6-5.8 1-.2 2 .1 2.8.7 2.7 1.9 3.7 7.3 4.7 14.4l12.4-2.9c1.5-.4 3.1-.2 4.5.6z"/></g><g id="_Group_"><path id="_Compound_Path_" class="st6" d="M222.7 118.6l-7.9 1.9-6.7-28.6L216 90l6.7 28.6zm33.2-31.3c1.3 1.1 2.2 2.6 2.3 4.3l.5 3.4c2.4 15.8 3 19.5-11.9 23-6.7 1.5-9.4.5-11.8-.3-1.9-.7-3.5-1.2-7.4-.3l-1.8.4-5.4-23.4c9-4.4 8.6-10 8.5-14.1 0-2.4-.2-5.1 2.6-5.8 1-.2 2 .1 2.8.7 2.7 1.9 3.7 7.3 4.7 14.4l12.4-2.9c1.5-.4 3.1-.2 4.5.6z"/></g><path class="st13" d="M226.8 163.3c2.5-7.6 7.9-13.9 15.1-17.6 15.2-7.6 34-1.1 41.9 14.7s2 34.7-13.2 42.4c-15.2 7.6-34 1.1-41.9-14.7-1.7-3.4-2.8-7-3.2-10.8l-29.3-3.7 30.6-10.3z"/><g class="st12"><path d="M272.7 164.8h-9.3c0-2.3-1.9-4.2-4.2-4.2s-4.2 1.9-4.2 4.2h-9.3c-.6 0-1 .4-1 1v26c0 .6.4 1 1 1h27c.6 0 1-.4 1-1v-26c-.1-.5-.5-1-1-1zm-13.5-2.1c1.1 0 2.1.9 2.1 2.1s-.9 2.1-2.1 2.1c-1.1 0-2.1-.9-2.1-2.1 0-1.1.9-2.1 2.1-2.1zm11.4 27.1h-22.9v-21.9h3.2v2.1c0 .6.4 1 1 1h14.5c.6 0 1-.4 1-1v-2.1h3.2v21.9z"/><path d="M257.1 186.5l-6.7-7.7 1.9-1.9 4.8 3.7 8.9-7.9 1.9 1.9-10.8 11.9z"/></g><g><path class="st6" d="M270.7 161.8h-9.3c0-2.3-1.9-4.2-4.2-4.2s-4.2 1.9-4.2 4.2h-9.3c-.6 0-1 .4-1 1v26c0 .6.4 1 1 1h27c.6 0 1-.4 1-1v-26c-.1-.5-.5-1-1-1zm-13.5-2.1c1.1 0 2.1.9 2.1 2.1s-.9 2.1-2.1 2.1c-1.1 0-2.1-.9-2.1-2.1 0-1.1.9-2.1 2.1-2.1zm11.4 27.1h-22.9v-21.9h3.2v2.1c0 .6.4 1 1 1h14.5c.6 0 1-.4 1-1v-2.1h3.2v21.9z"/><path class="st6" d="M255.1 183.5l-6.7-7.7 1.9-1.9 4.8 3.7 8.9-7.9 1.9 1.9-10.8 11.9z"/></g></svg>