<svg id="Layer_1" xmlns="http://www.w3.org/2000/svg" viewBox="0 0 364.5 282.8"><style>.st0{opacity:.15}.st1{fill:#1c74a0}</style><path d="M363.2 31.7c-3.1 6.3-10.6 8.9-16.9 5.8-7-3.4-8.7-11.6-5.6-17.4l9 8.3c.7.7 1.9.3 2.3-.4l6.2-12.7c5.6 3.3 7.9 10.4 5 16.4zm-22.8-15.9c-.4-.4-.4-1-.1-1.4 4-4.6 10.5-6.1 15.7-3.5.5.2.6.8.4 1.3L350.3 25l-9.9-9.2zM156.2 116.9c.2-.3.6-.4.9-.2 2.5.8 4.9 2.2 6.9 3.9.3.2.4.6.2.9l-1.7 5c1 1.2 1.8 2.6 2.4 4.1l5.2 1c.3.1.6.3.7.7.2 1.3.4 2.6.4 3.9 0 1.3-.1 2.6-.4 3.9 0 .3-.3.6-.7.7l-5.2 1c-.6 1.5-1.4 2.9-2.4 4.1l1.7 5c.1.3 0 .7-.2.9-2 1.7-4.4 3.1-6.9 3.9-.3.1-.7 0-.9-.2l-3.5-4c-.8.1-1.6.2-2.4.2-.8 0-1.6 0-2.4-.2l-3.5 4c-.2.3-.6.4-.9.2-2.5-.8-4.9-2.2-6.9-3.9-.3-.2-.4-.6-.2-.9l1.7-5c-1-1.2-1.8-2.6-2.4-4.1l-5.2-1c-.3-.1-.6-.3-.7-.7-.5-2.6-.5-5.3 0-7.9 0-.3.3-.6.7-.7l5.2-1c.6-1.5 1.4-2.9 2.4-4.1l-1.7-5c-.1-.3 0-.7.2-.9 2-1.7 4.4-3.1 6.9-3.9.3-.1.7 0 .9.2l3.5 4c.8-.1 1.6-.2 2.4-.2.8 0 1.6 0 2.4.2l3.5-3.9zm-5.9 11.6c-4.3 0-7.8 3.5-7.8 7.8s3.5 7.8 7.8 7.8 7.8-3.5 7.8-7.8-3.5-7.8-7.8-7.8zM277.9 279.3c-.6.1-1.3.1-1.9.1-1 1.3-3 3.2-5.7 3.5-.2 0-.4-.1-.5-.2-.1-.2-.1-.4.1-.5 0 0 1.2-1.5 1.3-3.9-2.9-1.4-5-3.8-5.3-6.8-.5-5 4-9.5 10.2-10.1 6.1-.6 11.5 2.9 11.9 7.9.5 4.8-4 9.4-10.1 10zM13.4 220.9c-.3.1-.6 0-.8-.2-.2-.2-.4-.5-.4-.7-.2-2.3.6-4.5 2.2-6.3.4-.4.9-.8 1.5-1.3 1-.8 2.1-1.7 2.1-2.5 0-.7-.7-1.4-1.4-1.9-3.1-2.6-4.4-5.5-3.8-8.3.5-2.1 2.1-3.7 4.2-4.4 2.1-.7 4.4-.2 6 1.2 2.1 1.9 2.7 5 1.6 8.9-.3.8-.4 1.8-.1 2.4.5.7 1.9.8 3.1.9.7.1 1.4.1 1.9.2 2.3.6 4.2 2 5.4 4 .1.2.2.5.1.8-.1.3-.2.5-.5.6-.1.1-2.9 1.3-10.4 3.7-7.7 2.4-10.6 2.8-10.7 2.9zm15.3-18.3l-.6-1.8 7.3-2.2.6 1.8-7.3 2.2zm5.6-7.7l.6 1.8-7.3 2.2-.6-1.8 7.3-2.2zM295.2 148.6c-.3-.1-.4-.3-.6-.5-.1-.2-.1-.5 0-.7.7-1.9 2.3-3.3 4.2-4 .5-.2 1.1-.3 1.7-.4 1.1-.2 2.3-.5 2.6-1.1.3-.5 0-1.4-.3-2-1.4-3.3-1.3-5.9.3-7.8 1.2-1.4 3.1-2.1 5-1.8 1.9.3 3.5 1.6 4.2 3.3.9 2.3.1 4.8-2.3 7.4-.5.5-1.1 1.2-1 1.8.1.7 1.2 1.3 2.1 1.9.5.3 1 .6 1.4 1 1.6 1.4 2.6 3.2 2.7 5.2 0 .3-.1.5-.3.7-.2.2-.4.3-.7.3-.1 0-2.8-.1-9.6-1.3-6.7-1.2-9.3-2-9.4-2zm28 .5c-.2.2-.4.3-.7.3-.1 0-1.6 0-5.1-.5-.5-1.9-1.6-3.6-3.2-5-.6-.5-1.2-.8-1.8-1.2-.1-.1-.3-.2-.4-.3 3.7-4.1 3.8-7.6 2.9-9.8-.6-1.5-1.3-2.6-2.6-3.5 1.2-1.1 2.3-1.7 4-1.4 1.9.3 3.5 1.6 4.2 3.3.9 2.3.1 4.8-2.3 7.4-.5.5-1.1 1.2-1 1.8.1.7 1.2 1.3 2.1 1.9.5.3 1 .6 1.4 1 1.6 1.4 2.6 3.2 2.7 5.2 0 .4-.1.6-.2.8zM141.4 54.6l-3.8 1.3-4.8-13.5 3.8-1.3 4.8 13.5zm15-17.3l.5 1.7c2 7.5 2.5 9.3-4.5 11.8-3.1 1.1-4.5.8-5.7.5-1-.2-1.8-.4-3.6.3l-.8.3-3.9-11c4.1-2.7 3.6-5.3 3.3-7.3-.1-1.2-.4-2.5 1-3 .5-.2 1-.1 1.4.2 1.4.8 2.2 3.3 3 6.7l5.9-2.1c.5-.2 1.4-.5 2.2 0 .5.2.9.9 1.2 1.9zM10.2.3c7-1.5 13.9 2.9 15.4 9.9.4 1.9.4 3.8 0 5.5l7.2 6.4c1.3 1.1 1.4 3.1.3 4.4-.9 1.1-2.4 1.3-3.6.8l-8.8-3.9c-1.4 1.1-3.1 1.9-5 2.3-7 1.5-13.9-2.9-15.4-9.9S3.2 1.8 10.2.3zm.8 3.8C6.1 5.2 3 10 4.1 14.9s5.9 8 10.8 6.9c4.9-1.1 8-5.9 6.9-10.8S15.9 3 11 4.1zm7.6 8.1c.1.6-.2 1.1-.8 1.2l-3 .7.7 3c.1.6-.2 1.1-.8 1.2l-1 .2c-.6.1-1.1-.2-1.2-.8l-.7-3-3 .7c-.6.1-1.1-.2-1.2-.8l-.2-1c-.1-.6.2-1.1.8-1.2l3-.7-.7-3c-.1-.6.2-1.1.8-1.2l1-.2c.6-.1 1.1.2 1.2.8l.7 3 3-.7c.6-.1 1.1.2 1.2.8l.2 1zM98.5 242.5l-3.9-3-2.3 3.2c.1.2.1.4.2.6.3 1.8-.9 3.4-2.6 3.7-1.8.3-3.4-.9-3.7-2.6-.3-1.8.9-3.4 2.6-3.7h.5l3.4-4.7c.3-.4.8-.7 1.2-.8.5-.1 1 .1 1.4.4l4 3.1 5.3-5.6v-.1c-.3-1.8.9-3.4 2.6-3.7 1.8-.3 3.4.9 3.7 2.6.3 1.8-.9 3.4-2.6 3.7-.3.1-.7.1-1 0l-6.5 6.9c-.5.5-1.6.5-2.3 0zm-3.7 8.8l1 6.2c.1.8-.3 1.4-1 1.6l-4 .7c-.7.1-1.3-.4-1.4-1.2l-1-6.2c-.1-.7.2-1.4.8-1.5.7-.2 1.4-.3 2.1-.5.7-.1 1.4-.2 2.1-.2.7-.1 1.3.4 1.4 1.1zm8.6-4.2l1.5 8.9c.1.8-.3 1.4-1 1.6l-4 .7c-.7.1-1.3-.4-1.4-1.2l-1.5-8.9c-.1-.7.2-1.4.8-1.5.7-.2 1.4-.3 2.1-.5.7-.1 1.4-.2 2.1-.2.7-.1 1.3.4 1.4 1.1zm8.3-6l2.3 13.5c.1.8-.3 1.4-1 1.6l-4 .7c-.7.1-1.3-.4-1.4-1.2l-2.3-13.5c-.1-.7.2-1.4.8-1.5.7-.2 1.4-.3 2.1-.5.7-.1 1.4-.2 2.1-.2.7-.2 1.3.3 1.4 1.1z" class="st0"/></svg>