<svg id="Layer_1" xmlns="http://www.w3.org/2000/svg" xmlns:xlink="http://www.w3.org/1999/xlink" viewBox="-103 105.1 303.9 303.9"><style>.st0{fill:#faad40;stroke:#bb8230;stroke-width:10;stroke-miterlimit:10}.st1{clip-path:url(#SVGID_2_)}.st2{fill:#a67c52}.st3{fill:#461a00}.st4{fill:#fbb03b}.st5{opacity:.2}.st6{opacity:.3;fill:#fff}.st7{fill:#9b5ca4}.st8{fill:#5f4100}.st9{fill:#6b3010}.st10,.st11{fill:none;stroke:#42210b;stroke-width:10;stroke-miterlimit:10}.st11{stroke:#8e6008}.st12{opacity:.4;fill:#fff}</style><title>vert-transport-future-b</title><circle class="st0" cx="48.9" cy="257.1" r="146.9" id="Layer_3"/><defs><circle id="SVGID_1_" cx="48.9" cy="257.1" r="146.9"/></defs><clipPath id="SVGID_2_"><use xlink:href="#SVGID_1_" overflow="visible"/></clipPath><g class="st1"><path class="st2" d="M58.5 263.8c0-13.7-9.1-12.2-9.1-12.2s-9.1-1.5-9.1 12.2c0 10.6-12 18.6 9.1 18.6 21 0 9.1-8 9.1-18.6z"/><path class="st2" d="M39.3 273.4s-21.5 2.8-25 4.8.6 27.7 35 27.8c45.8.1 35.1-24.8 37.4-26.4s-38.3-8.5-38.3-8.5l-9.1 2.3zM48.3 265.8c-20.7 0-33.9-17-28.2-67.5 1.5-13.6 28.2-13 28.2-13s26.1-.5 28.2 13c7.2 46.9-7.5 67.5-28.2 67.5z"/><circle class="st3" cx="61.6" cy="219.2" r="2.9"/><path class="st4" d="M86.8 213.4c0 8.4.5 15.1-5.5 15.1s-2.4-6.8-2.4-15.1 1.1-9.1 2.4-9.1c1.3 0 5.5.8 5.5 9.1z"/><circle class="st3" cx="35" cy="219.2" r="2.9"/><path class="st5" d="M40.8 231.5c.3 6.9 5.7 10.8 7.5 10.8s7.2-3.9 7.5-10.8c0 0-4.7 4.5-7.5 4.5-2.7 0-7.5-4.5-7.5-4.5zM40.2 263.8l-.7 6.5s6.9 4.7 10.1 4.7c2.8 0 8.6 0 10.3-4 .9-2.2-1.6-4.7-1.4-7.1 0 0-5.5 1.5-10.1 1.5s-8.2-1.6-8.2-1.6z"/><path class="st4" d="M9.9 213.4c0 8.4-.5 15.1 5.5 15.1s2.4-6.8 2.4-15.1-1.1-9.1-2.4-9.1-5.5.8-5.5 9.1z"/><path class="st5" d="M18.9 207.2s7 1.4 19 .8c14-.6 17.2-7.6 26.7-4.1s8.2 5.1 11.7 6.2v-27.4L18.4 196l.5 11.2z"/><path d="M94.2 231.5c3.6-18-2-33.8-13.9-49.2-5.7-9.4-1-19.6-26.5-20.8-8.1-.4-14.7-.1-36.9 9.5-22.3 9.6-19.2 49-13.7 63.2 5.4 14.2 11.2 18 31.8 20.8 0 0-10.6-6.7-12.3-14.5-1.8-8.4-5.3-40-1.7-39.2 25.8 5.2 46.9-16.3 50.4-4.3.8 2.8 1.7 11.3 3.4 14.9 0 0-4.3 19.2-2.9 27.7s-10.1 17.2-10.1 17.2 27.2.9 32.4-25.3z"/><path class="st6" d="M6.4 190.3s2-9.6 8.7-13.3c6.6-3.7 27.9-11 27.9-11s4.2 7.2-2.2 10.6c-6.3 3.4-16.4-1-23.1 6.1-4.9 5.3-6.3 9.6-11.3 7.6z"/><path class="st7" d="M17.8 274.9s2 13.7 14.3 20.1c12.4 6.4 21 5.8 32.4 0s17.9-20.1 17.9-20.1 23.5 6.3 24.5 9-15.7 56.4-15.4 66.5c.3 10.4.3 9.9 2.3 86.8l-84.1 2.1 8.1-90.6S-2 283-.5 281s18.3-6.1 18.3-6.1z"/><path d="M9.8 275.2s17.8 79.2 19.6 82.1c5.7 9.5-3.3 78.2-3.7 84.8 0 0-25.8-.5-26.4-2.2-.3-.9 8.5-28.9 10.3-62.4.9-16.5-7.9-34.7-8.1-34.9-.3-.3-8.5 19.4-8.7 25.7-.2 6.1-7.8 71.7-7.8 71.7h-16.9s8.8-90.1 9.9-96.1 14.6-57.1 16.6-59.6 15.2-9.1 15.2-9.1zM94.8 275.2s-21.3 79.2-23 82.1c-5.7 9.5 3.3 78.2 3.7 84.8 0 0 25.8-.5 26.4-2.2.3-.9-8.5-28.9-10.3-62.4-.9-16.5 7.9-34.7 8.1-34.9.3-.3 11.1 19.4 11.3 25.7.2 6.3 5.2 71.9 5.2 71.9h16.9s-6-85.6-7.1-91.6-17.5-61.6-19.4-64.1c-2-2.8-11.8-9.3-11.8-9.3z"/><path class="st5" d="M25.4 358.8s54.5 1.2 56.8-2 4.6 80.1 4.6 80.1H18l7.4-78.1z"/><g><path transform="rotate(42.597 -40.483 319.93)" class="st8" d="M-49.8 290.1h18.6v59.5h-18.6z"/><path transform="rotate(42.597 -86.458 369.931)" class="st9" d="M-103.2 296.4h33.4v147.1h-33.4z"/><path transform="rotate(42.597 -95.359 379.612)" d="M-117.9 319.2h45.1V440h-45.1z"/><circle class="st10" cx="46.2" cy="225.6" r="98.1"/><circle class="st11" cx="46.2" cy="225.6" r="93.1"/><path class="st12" d="M-20.6 232.3c10.2-43.6 53.7-70.7 97.3-60.5 20.9 4.9 38.1 17.5 49.1 34.1-7.1-28.6-29.6-52.3-60.3-59.5-43.6-10.2-87.1 16.9-97.3 60.5-5.3 22.6-.5 45.2 11.4 63.2-3-12-3.2-24.9-.2-37.8z"/></g></g></svg>