<svg id="Layer_1" xmlns="http://www.w3.org/2000/svg" xmlns:xlink="http://www.w3.org/1999/xlink" viewBox="-174 55 437 415.1"><style>.st0{opacity:.2;fill:#fff;stroke:#000;stroke-width:8;stroke-miterlimit:10}.st1{fill:#a67c52}.st2{fill:#fff}.st3{fill:#666}.st4{fill:#e6e6e6}.st5{fill:#c1272d}.st6{fill:#fce9f3}.st7{fill:#9b5ca4}.st8,.st9{opacity:.2}.st9{fill:#fff}.st10{clip-path:url(#SVGID_2_)}.st11{fill:#faad40}.st12{fill:#f2f2f2}.st13{fill:#4d4d4d}.st14{fill:#ccc}.st15{fill:#333}.st16{fill:#bb8230}.st17{fill:#603813}.st18{fill:#42210b}.st19{fill:#461a00}.st20{fill:none;stroke:#000;stroke-width:4;stroke-miterlimit:10}</style><title>vert-transport-future-b</title><path class="st0" d="M-7.6 309l37.5-84.9c-10.8-25.8-12.6-55.4-3-83.9 21-62.4 88.6-96 151-75s96 88.6 75 151-88.6 96-151 75c-6.2-2.1-12.2-4.7-17.8-7.7L-7.6 309z"/><path d="M-139.5 365.8s21.3-7.6 27.2-7.7c8.6-.2 33 4 37.7 7.3 1.7 1.1 1.5 7 1.5 7s-67.5 5-66.5 4 .1-10.6.1-10.6zM-73.4 338.8s12-6.9 14.2-9.7c3.8-4.8 6.2-42.8-15.7-61.3-3.7-3.1 3.5 17.1-1.1 13.6-14.9-11.5 2.6 57.4 2.6 57.4z"/><path class="st1" d="M-49.2 344.6c-7.2-9.2-2.7-11.7-2.2-13.5 2.5-9.7 28.4 1.7 28.4 1.7s-.1 2-1 5.5c-3 10.9-8 10.4-7.2 20.1.4 4.3-10.8 3.9-11 1.2-1-11.6.2-5.8-7-15z"/><path class="st2" d="M-22.6 310.7l1.9 17.9c.2 2.1-1.7 4.3-3.9 4.5l-38.8 3.1c-1.4.1-2.5-.8-2.6-2.1l-1.9-17.9c-.2-2.1 1.7-4.3 3.9-4.5l38.7-3.1c1.5-.1 2.6.7 2.7 2.1z"/><path class="st3" d="M-28.2 313.1l1.5 14.5c.2 1.6-1.4 3.5-3.1 3.6l-31.4 2.5c-1.2.1-2-.6-2.1-1.7l-1.5-14.5c-.2-1.6 1.4-3.5 3.1-3.6l31.4-2.5c1.1-.1 1.9.6 2.1 1.7z"/><path class="st4" d="M-38.4 328.7l-1.3-13.4c0-.5.3-.9.7-.9l1.5-.2c.5-.1.9.3.9.7l1.3 13.4c0 .5-.3.9-.7.9l-1.5.2c-.5.1-.9-.3-.9-.7z"/><circle class="st5" cx="-32.7" cy="321.4" r="2"/><path class="st1" d="M-51.5 347.5c-4-1.4-7.2-5.5-8.9-5.8-1.7-.3-10.1-4.3-9.5-5.4 1.7-3.1 5-2.7 7-2 3.2 1.2 5.8 2.1 8.2 2.8.5.2 1.4-1.5 2.4-1.4 3.8.2 9.9 1.6 9.9 1.6l.5 17.9s-6.9-6.7-9.6-7.7zM-52.3 308.1s-1.9 1.4-1.5 2.4c.7 1.5 2.4 2.3 3.4 1.8 1.1-.5 3.2-2.9 3.2-2.9s-1-3-2.5-2.6c-1.4.5-2.6 1.3-2.6 1.3z"/><path class="st1" d="M-47 307.8s-2.4 2.7-1.9 3.7 2.4 2.3 3.4 1.8c1.1-.5 3.7-4.3 3.7-4.3s-1-3-2.5-2.6c-1.4.6-2.7 1.4-2.7 1.4z"/><path class="st1" d="M-41.6 307.5s-3.3 3.2-2.9 4.2c.5 1 2.4 2.3 3.4 1.8 1.1-.5 4.6-4.7 4.6-4.7s-1-3-2.5-2.6-2.6 1.3-2.6 1.3z"/><path class="st1" d="M-37.5 306.7s-1.9 1.4-1.5 2.4c.5 1 2.4 2.3 3.4 1.8 1.1-.5 4.6-2.2 4.6-2.2s-2.4-3.8-3.8-3.3-2.7 1.3-2.7 1.3z"/><path class="st6" d="M-53.3 310.2s.6.8 1.4.5 2.1-2.1 2.1-2.1-1.5-.2-2.2-.2c-.7 0-1.3 1.8-1.3 1.8zM-48 310.8s1.4.3 2.1 0c.7-.3 1.8-1.8 1.8-1.8s-2.2.2-2.8.2c-.6.1-1.1 1.6-1.1 1.6zM-43.5 311s1.4.3 2.1 0c.7-.3 1.8-1.8 1.8-1.8s-2.2.2-2.8.2c-.6 0-1.1 1.6-1.1 1.6zM-37.4 309.2s1.3.4 1.9.1c.6-.3 1.5-1.7 1.5-1.7s-1.9.1-2.5.1c-.5 0-.9 1.5-.9 1.5zM-66.4 339.2l.7-1.4s-2.2-1.4-3.1-1.4-.4.9-.4.9l2.8 1.9z"/><path class="st7" d="M-141 368l34-10 34 9s12.7 31.9 11 39.9-5.3 63-5.3 63H-127L-141 368z"/><path class="st1" d="M-130.2 367.8c0-1.9 20.5-7.9 19.9-15.2-.6-7.2 2-16.5 2-16.5l12.6 2.7s-3.3 20.3-2 23.8c1.3 3.5 17.6 2 18.3 4.5.7 2.5-13.8 19-24.3 16.5-10.5-2.6-26.5-13.9-26.5-15.8z"/><path class="st1" d="M-65 314.2c0 21.4-11.4 40.1-19 40.8-20.4 2-44.5-16.4-44.5-37.9s24.1-41.8 39.9-41.8S-65 292.8-65 314.2z"/><path class="st8" d="M-90.2 325.1c0 3 1.2 6.3 7.7 6.1 4.4-.1 6.2-5.5 6.5-9.6.1-2.2-2 2-5.2 3-4.2 1.2-9-2.5-9 .5z"/><circle cx="-101" cy="310.8" r="2.7"/><circle cx="-73" cy="304.8" r="2.7"/><path class="st8" d="M-112.2 302s13.1-.2 21.5-2.4c10-2.7 10-6 20.4-14.8 9.3-7.9-52.4 2.5-51.8 3.5.6 1-4.2 12.7-.1 25.2 1.2 4 4.3-5.3 10-11.5z"/><path d="M-150.9 275.4c-4.9 16.4-4.1 44.7-5.6 60.7-.7 7 8.5 28.5 51.8 13.3 3.5-1.2-15.5-9.3-17.4-25.3-.7-6-.6-23.3 6.1-26.7 0 0 19.4-1.3 24.9-2.7 5.6-1.3 4.4-6.7 13.7-9.3s4-11.1 4.6-17.6c1.5-16.1-43.5-19.3-51-12.5-7.7 6.9-24.2 10.6-27.1 20.1z"/><path class="st9" d="M-141.3 275.6c3.6-2.2 31.1-14.8 31-10.2-.3 6.5-16.1 10.9-20.9 15.6-4.8 4.7-9.9 16.7-14.4 16.7-3.4-.1.7-19.8 4.3-22.1z"/><path d="M-79.2 470s6.5-45.6 5.5-49.6-4.4-56.3-4.4-56.3 19.2 6.9 21.3 7.6c2 .7-7.3 45.9-7.3 45.9l2.2 52.4h-17.3z"/><path d="M-44 358h14s12.2 102.9 1.5 103.8c-10.7 1-29.8-39-37.3-40.3-5.5-.9 5.5-52.3 9-49.9 3.5 2.4 15.2 37.1 15.2 37.1L-44 358zM-128.6 362.2s-5.1 5.2-4.1 7.5 23.5 50.2 22.3 56.2-1.4 44.2-1.4 44.2l-34.5-.2s2.3-35.1 1.8-39.1c-.8-5.6-10.5-34.5-10.5-38.5s7.8-23.5 9.5-25 16.9-5.1 16.9-5.1z"/><path d="M-146.9 369.6S-161 391-165 403.5c-4 12.5-9 66.5-9 66.5h16s6.5-34.7 7-38.5 12.5-24.7 12.5-24.7l-8.4-37.2z"/><g><defs><circle id="SVGID_1_" cx="139.9" cy="178.6" r="115.4"/></defs><clipPath id="SVGID_2_"><use xlink:href="#SVGID_1_" overflow="visible"/></clipPath><g class="st10"><path class="st11" d="M79.5 221.2c-.3-5.3 10.1-10.2 11.1-14.5.7-3 2-16.9 3-18.7 1-1.8 5-8.2 1.4-8.2-3.8 0-8.2 6-8.8 8.2-.7 2.2-1 10.7-4.7 6.9-2.6-2.7-13.1-1.5-15.1-.9s-15.1.2-12.7 5.3c2.4 5.1 7.3 16.8 10.4 18.7 5.7 3.7 5 12.1 7 12.1s10.4-4 10.4-4-1.7.3-2-4.9z"/><path class="st12" d="M69 234.1l-3.3-7.9 16.4-6.4 2.7 10.8z"/><path class="st13" d="M65.7 234.1l21.7-8.8 18.7 41.6s29-56.4 31-59.5c16-25.7 15.6 48.3 3.3 73-12.3 24.8-6.8 29.7-6.8 29.7l-39 .5-28.9-76.5z"/><path class="st13" d="M208.5 196.7s27.3 8.3 32.3 18.4c5 10.1 7.2 51.4 8.2 57.1 2.2 12.1 1.5 38.4 1.5 38.4l-33.3-.9-1.7-6.4-1.2 7.3-84.9-.7s-2.2-47.6 0-58.2c2.2-10.6 7.1-45.8 16.8-50.7 9.7-4.9 62.3-4.3 62.3-4.3z"/><path class="st14" d="M150.6 206.6s41.2-5.7 41.2-3.5-32.7 107-32.7 107h-18.7c0-2.1 10.2-103.5 10.2-103.5z"/><path class="st5" d="M163.2 215s-16.1 30.9-16.9 35.9c-.8 5-3.2 59.1-3.2 59.1h16.1l11.5-55.6L168 215h-4.8z"/><path class="st15" d="M177.3 221.9c-4.2 4.9-14.3 41.5-15.6 45.6-1.3 4.1-5 42.5-5 42.5h6.3c8-17 21.3-51.8 25-55.4 5.8-5.6-3.8-16.6-3.4-18.4s9.7 0 16.1-7.6c6.4-7.6 10.7-17.4 10-25.1s-12-11.4-12-11.4-17.1 24.9-21.4 29.8zM149.8 234.2c-.7 6.4-5.1 34.7-5.2 39-.4 10.9-2.1 36.7-2.1 36.7h-2.8c-4-19-7.4-68-7.4-73.4 0-5.4 10.9-7.9 11.9-9.5s-4.9-15.1-2.5-18.1 3.8-9.1 10.8-12.4c8.7-4.1 15.5-4.6 15.5-4.6s-17.5 35.9-18.2 42.3z"/><path class="st16" d="M165.5 188.2l2 19.8s15.7 6.4 24-.7c12.4-10.6 2.9-22.1 2.9-22.1l-2.9-41.5-12.4 8.7-13.6 35.8z"/><path class="st17" d="M192.4 158.2s4.3-4.1 5.2-5.7c.9-1.6 13-22.8 13.6-24.8.7-2-.4-20.3-2-26-3.4-12-22.9-17.4-39.7-17.4-12.8 0-25.6 8.2-29.6 11.8-6.8 6.1-7.4 17.4-7.4 19.8 0 13.2 2.5 16.9 4.7 20.9 2.3 4 55.2 21.4 55.2 21.4z"/><path class="st18" d="M190 116.5s-1.9-8.3 8.3-4.8c10.3 3.5 12.3 3.7 12.3 3.7s1.7 7.1 0 11.6c-1.7 4.4-8.9 30.6-15.6 35.8-2.9 2.3-5.2-2.2-5.2-2.2l.2-44.1z"/><path class="st11" d="M135.5 129c1 19.1-1 58 20.8 60.7 17.2 2.1 27.7-4.6 32.4-12.3 4.7-7.7 7-31.6 6.1-45.1-1.3-20-16.1-30.9-32.6-28.9-16.5 2.1-27.7 6.5-26.7 25.6z"/><circle class="st19" cx="170.4" cy="139.3" r="2.4"/><circle class="st19" cx="147.9" cy="136.6" r="2.4"/><path class="st8" d="M149 149.9c-.9 7.3 3.5 9.2 5 9.2s8.8-1.2 9.1-7.1c0 0-6.7 1.1-9.1 1.1-2.3 0-5-3.2-5-3.2z"/><ellipse transform="rotate(8.622 153.083 171.058)" cx="153.1" cy="171.1" rx="7.3" ry="3.4"/><ellipse cx="194.3" cy="139.8" rx="6.6" ry="11.4"/><ellipse class="st3" cx="198.3" cy="139.8" rx="6.8" ry="8.5"/><ellipse cx="201.7" cy="139.8" rx="4.1" ry="6.3"/><path class="st20" d="M156.8 172.1s28.7 7.1 36.5-7.9c4.8-9.2 4.5-18.8 4.5-18.8"/><path class="st17" d="M133.6 122.9s6-7.3 9.5-9.4c18.9-11.4 31.2 6.6 44.6-.3 8.2-4.2 2.8-14.9 2.8-14.9s-50.6 3.1-52.3 7.3-4.6 17.3-4.6 17.3z"/><path class="st9" d="M138 109.7s2.8-7.4 4.4-9.2c5.2-6.1 21.2-11.1 21.2-11.4 0-.3 1.7 1-.7 4.7-2.3 3.7-13.2 5.4-16.4 9.2-4 4.6-3.4 6.8-8.5 6.7z"/><path class="st5" d="M163.9 207.3s12.3 2 11.6 3.5c-.7 1.5.5 8.3-3.1 9.6s-11.6 2.7-12.7-1.3c-1.2-4-.4-8.7 4.2-11.8z"/><path class="st12" d="M175.5 207.3s16.1-4.8 18.8-9.3.6-12.9.6-12.9l4.5 2.1s5.1 6.6 4.3 12.9c-.8 6.4-20.6 22.9-22.1 21.6-1.4-1.2-9.4-13.3-6.1-14.4zM167.2 204.5s-8.7 9.7-10.4 7.7c-1.7-2 2-15.4 4.7-16.8 2.8-1.4 4.8-2.7 4.8-2.7l.9 11.8z"/><path class="st11" d="M74.3 195.3s-3.4-14.1-2.7-18.5c.7-4.4 1.9-12.2 2.7-14 .7-1.8-3-3.6-4.6-1.7s-3.4 13.3-3.7 15.7c-.3 2.4-1 21.2 2 21.9 3 .6 6.3-3.4 6.3-3.4z"/><path class="st11" d="M81.1 196s-2.7-14.1-2-18.5c.7-4.4.6-8.1 1.3-10s-3-3.6-4.6-1.7-2.7 9.3-3 11.7c-.3 2.4-1 21.2 2 21.9 3 .6 6.3-3.4 6.3-3.4zM68.8 196.1s-4.8-15.8-4.5-20.8c.3-5.1-.3-9.3.3-11.5.6-2.2-3.8-3.7-5.5-1.4-1.7 2.4-1.9 10.9-2 13.6s1.5 24.2 5 24.6 6.7-4.5 6.7-4.5z"/><path class="st11" d="M61.3 199.9s-5-12.2-5.2-16.3-1-7.4-.6-9.2c.3-1.8-3.3-2.7-4.5-.7-1.2 2-.7 8.8-.6 11 .1 2.2 2.9 19.2 5.8 19.2 2.9.2 5.1-4 5.1-4z"/><path class="st11" d="M78.7 186.6c2.4 2 2.4 9.4 2.4 9.4s1.7 3.9-2 7.6-10.5 6.6-10.3 8.9c.2 2.3-3.1 7-3.1 7s-5.3-5.3-8.6-12.7c-3.4-7.4 19.2-22.2 21.6-20.2z"/></g></g></svg>