<svg id="Layer_1" xmlns="http://www.w3.org/2000/svg" xmlns:xlink="http://www.w3.org/1999/xlink" viewBox="-103 105.1 303.9 303.9"><style>.st0{fill:#9b5ca4;stroke:#74457b;stroke-width:10;stroke-miterlimit:10}.st1{fill:#3e4e5a}.st2{fill:#e6ebf0}.st3{fill:#34414b}.st4{opacity:.1}.st5{fill:#3bbec0}.st6{opacity:.2}.st7{fill:#a4ce4e}.st8{fill:#fff}.st9{fill:#3b5272}.st10{fill:#07516e}.st11{fill:#0ea2dc}.st12{opacity:.4}.st13{fill:#613d6e}.st14{fill:#cfe9ff}.st15{opacity:.7}.st16{fill:#a5d0ec}.st17{fill:#ee7a99}.st18{fill:#de738e}.st19{fill:#f8ce86}.st20{fill:#dcae6c}.st21{fill:#6b7482}.st22{fill:#525662}.st23{fill:#95c0de}.st24{fill:#7cabd5}.st25{opacity:5e-2}.st26{opacity:.3}.st27{fill:#89bad9}.st28{fill:#90bad6}</style><title>vert-transport-future-b</title><circle class="st0" cx="48.9" cy="257.1" r="146.9" id="Layer_3"/><image width="1338" height="2213" xlink:href="136F8807347ED374.png" transform="rotate(19.551 -328.548 179.312) scale(.0891)" overflow="visible" opacity=".3"/><path class="st1" d="M129.2 162.2l-71.3-25.3c-5.5-2-11.6 1-13.6 6.4L-5.6 288.2c-2 5.5 1 11.6 6.4 13.5L69 326.3c5.5 2 11.6-1 13.5-6.4l53.2-144.2c1.9-5.4-1-11.5-6.5-13.5z"/><path class="st2" d="M50.4 154.4l73.3 26c1.2.4 1.8 1.7 1.4 2.9l-41 115.4c-.4 1.2-1.7 1.8-2.9 1.4L8.1 273.3c-1.2-.4-1.8-1.7-1.4-2.9l40.7-114.7c.5-1.1 1.8-1.7 3-1.3z"/><path class="st3" d="M97.8 161.5c-.4 1-1.5 1.6-2.6 1.2l-11.3-4c-1-.4-1.6-1.5-1.2-2.6.4-1 1.5-1.6 2.6-1.2l11.3 4c1 .4 1.5 1.6 1.2 2.6zM47.5 302.8c-1.5 4.1-5 6.7-9.2 5.2-4.1-1.5-7.3-6.3-5.8-10.5 1.5-4.1 6.3-6.2 10.5-4.7s6 5.9 4.5 10z"/><path d="M114.9 205.7l-70.4-25 6.3-19.6 71.5 26.2z" class="st4"/><path class="st5" d="M114.2 204.3l-70.4-25 6.4-19.6 71.5 26.1z"/><path d="M54.2 178.4l-3.6-7.5c-.1-.1 0-.3.1-.3l7.5-3.5c.1-.1.3 0 .3.1l1.1 2.3c.1.1 0 .3-.1.3l-5 2.4 2.4 5c.1.1 0 .3-.1.3l-2.3 1.1h-.2c0-.1-.1-.1-.1-.2z" class="st6"/><path d="M96.9 247.7l-66.5-23.6 13-37.5 67.5 23.9z" class="st4"/><path class="st7" d="M96.2 246.2l-66.4-23.5 12.9-37.6 67.5 23.9z"/><g class="st4"><path d="M77.6 287.3l.9-2.4.9.3.4-.9 2.4.9-1.3 3.3zM22.4 267.7l.9-2.4 3.9 1.4-.9 2.4-3.9-1.4zm7.9 2.8l.9-2.4 3.9 1.4-.9 2.4-3.9-1.4zm7.9 2.8l.9-2.4 3.9 1.4-.9 2.4-3.9-1.4zm7.9 2.8l.9-2.4 3.9 1.4-.9 2.4-3.9-1.4zm7.9 2.8l.9-2.4 3.9 1.4-.9 2.4-3.9-1.4zm7.9 2.8l.9-2.4 3.9 1.4-.9 2.4-3.9-1.4zm7.9 2.8l.9-2.4 3.9 1.4-.9 2.4-3.9-1.4zM15.2 265.2l1.1-3.4 2.5.9-.3.9.9.3-.9 2.4zM17.7 257.9L19 254l2.5.8-1.3 3.9-2.5-.8zm2.6-7.8l1.3-3.9 2.5.8-1.3 3.9-2.5-.8zm2.7-7.8l1.3-3.9 2.5.8-1.3 3.9-2.5-.8zM25.7 234.5l1.2-3.3 3.3 1.1-.9 2.5-.8-.3-.3.9zM33.3 236.2l.9-2.4 4 1.4-.9 2.4-4-1.4zm8.1 2.9l.9-2.4 4 1.4-.9 2.4-4-1.4zm8 2.8l.9-2.4 4 1.4-.9 2.4-4-1.4zm8 2.8l.9-2.4 4 1.4-.9 2.4-4-1.4zm8 2.9l.9-2.4 4 1.4-.9 2.4-4-1.4zm8 2.8l.9-2.4 4 1.4-.9 2.4-4-1.4zm8.1 2.9l.9-2.4 4 1.4-.9 2.4-4-1.4zM92.4 258.2l-2.4-.9.3-.9-.8-.3.8-2.4 3.4 1.2zM83.7 281.3l-2.4-.9 1.5-3.9 2.4.9-1.5 3.9zm2.9-7.7l-2.4-.9 1.5-3.9 2.4.9-1.5 3.9zm2.9-7.7l-2.4-.9 1.5-3.9 2.4.9-1.5 3.9z"/></g><g class="st6"><path d="M89 217.2l-45.3-16.1 2.1-8 46.4 16.1z"/></g><g class="st6"><path d="M111.6 197.4l-26.9-9.5 2.4-8 27.6 9.4z"/></g><g class="st6"><path d="M73.4 218.7l-32.1-11.4.6-3.1 32.8 11.5z"/></g><g><path class="st4 st8" d="M50.4 154.4l73.3 26c1.2.4 1.8 1.7 1.4 2.9L91.8 277l-54.1-93.7 9.8-27.5c.4-1.2 1.7-1.8 2.9-1.4z"/></g><g class="st6"><path d="M78.6 227.9l-39.5-14.4.7-3.1 40 14.1z"/></g><g class="st6"><path d="M72.6 232.1l-36.4-12.9 1.5-2.7 35.9 12.6z"/></g><g><image width="2456" height="1491" xlink:href="136F8807347ED375.png" transform="matrix(.09088 0 0 .09088 -44.91 234.342)" overflow="visible" opacity=".3"/><path class="st9" d="M160.1 333.9l-15-8.7-38.6 2.2c6.3-9 9.8-20 9.1-31.8-1.6-27.8-25.4-49.2-53.2-47.6-27.7 1.6-49 25.4-47.4 53.1.7 11.9 5.5 22.7 13 30.9l-34 1.8 1.1 18.9 73.1-4.1c1.5-.1 2.9 0 4.3-.2l73.7-4.1 13.9-10.4zm-89.6-4.6l-3.5.2c-17.3 1-32.2-12.3-33.2-29.6s12.3-32.2 29.6-33.2 32.3 12.4 33.2 29.8c1 16.2-10.5 30.2-26.1 32.8z"/><path class="st10" d="M147.3 347.4l-74.5 4.2c-.5.1-1 .1-1.6.1-.5 0-1 0-1.5.1-.5 0-.9 0-1.4.1L-8 356.1l-1.4-25.3 30.9-1.7c-5.8-8.2-9.2-17.9-9.8-27.9-1.7-29.5 21-54.9 50.5-56.5 29.5-1.7 54.9 21 56.6 50.6.6 10-1.6 19.7-6.3 28.4l33.4-1.9 20.1 11.7-18.7 13.9zm-149.2 1.9l69.9-4c.5 0 1 0 1.5-.1.5 0 .9 0 1.3-.1.4 0 .8-.1 1.2-.1h.2l72.7-4.1 9.3-6.9-10-5.8-44.3 2.5 3.8-5.4c6.2-8.8 9.1-19.1 8.5-29.8-1.5-26.1-23.8-46.1-49.8-44.6-26 1.5-45.9 23.8-44.4 49.7.6 10.7 4.9 21 12.1 28.9l4.5 5-37.4 2.1.9 12.7zm72.7-16.8l-3.6.2c-19.1 1.1-35.5-13.6-36.5-32.6-1.1-19.1 13.6-35.5 32.6-36.5 19.1-1.1 35.5 13.6 36.6 32.8.5 8.6-2.2 17-7.6 23.7-5.4 6.6-12.9 11.1-21.3 12.5l-.2-.1zM63.6 270c-15.5.9-27.4 14.2-26.6 29.8.9 15.5 14.2 27.4 29.8 26.6l3.3-.2c14.1-2.4 24.2-15 23.4-29.4-.9-15.7-14.3-27.7-29.9-26.8z"/><path class="st11" d="M68.1 348.6L-5 352.7l-1-18.9 33.9-1.9c-7.5-8.2-12.3-19-13-30.9-1.6-27.7 19.7-51.6 47.4-53.1 27.8-1.6 51.6 19.8 53.2 47.6.7 11.8-2.8 22.8-9.1 31.8L147 325l1.1 19.1-75.6 4.3c-1.5.2-2.9.1-4.4.2zm-4.7-81.8c-17.3 1-30.6 15.9-29.6 33.2 1 17.3 15.9 30.6 33.2 29.6l3.5-.2c15.6-2.6 27.1-16.6 26.2-32.8-1-17.5-15.9-30.8-33.3-29.8z"/><path transform="rotate(-3.242 15.283 342.052)" class="st12 st13" d="M-5 340.2h40.6v3.8H-5z"/><path class="st12 st13" d="M147.6 336.5L67.7 341c-23.6 1.3-43.8-16.7-45.1-40.3s16.7-43.8 40.3-45.1c23.7-1.3 44.1 16.7 45.4 40.3.7 11.8-3.4 23.1-11.5 31.7L94 325c7.4-7.9 11.1-18.1 10.5-28.9-1.2-21.5-19.8-37.9-41.4-36.7-21.5 1.2-38 19.7-36.7 41.1 1.2 21.5 19.7 38 41.1 36.7l79.9-4.5.2 3.8z"/><path d="M83.9 319.3l31.4-1.8s-2.5 6.6-4.4 7.8L64.3 328c16.1-3.7 19.6-8.7 19.6-8.7z" class="st6"/><path class="st10" d="M145.9 347l-77.1 4.4c-15.1.9-29.2-4-39.7-13.6-10.4-9.6-16.7-23.1-17.5-38.2l3-.2c.8 14.3 6.7 27.2 16.5 36.2 9.9 9.1 23.3 13.6 37.5 12.8l77.1-4.4.2 3z"/><path class="st10" d="M146 325.1l-78.4 4.4c-8.8.5-17.2-2.6-23.7-8.8-6-5.8-9.7-13.7-10.2-21.8l3.4-.2c.4 7.2 3.7 14.3 9.1 19.5 5.7 5.5 13.2 8.3 21.1 7.8l78.4-4.4.3 3.5z"/><path d="M42.4 353.1l26-1.5c-19.4 1.1-36.9-8.1-47.5-22.7l-8.4.5c6.6 11.3 17.2 19.8 29.9 23.7z" class="st6"/><path transform="rotate(176.758 -11.836 343.645)" class="st14" d="M-18.8 331h13.9v25.3h-13.9z"/><path transform="rotate(-93.239 -11.348 352.27)" class="st15 st16" d="M-15.5 345.3h8.3v13.9h-8.3z"/><path transform="rotate(-93.239 -12.488 332.726)" class="st12 st8" d="M-14.2 325.8h3.5v13.9h-3.5z"/><path class="st17" d="M-21.6 357l3.6-.2-1.4-25.4-3.6.2c-6.2.3-10.9 5.6-10.6 11.8l.2 3c.3 6.2 5.6 10.9 11.8 10.6z"/><path class="st18" d="M-24.3 348.9c-3.2.2-5.9-2.3-6.1-5.4l-.6-9.7v-1.1c-1.9 1-3.2 3.1-3 5.4l.8 13.9c.2 3.2 2.9 5.6 6.1 5.4l9-.5-.5-8.3-5.7.3z"/><path class="st19" d="M147.2 347.4l-3.8-5.6 3.2-7-4-6.7 3.2-6.3 20.7 11.9z"/><path class="st20" d="M147.2 347.4l-3.8-5.6 3.2-7 19.9-1.1z"/><g><path class="st21" d="M157.1 328.3l.7 11.6 8.7-6.2z"/></g><g><path class="st22" d="M157.5 334.2l.3 5.7 8.7-6.2z"/></g></g><g><image width="1475" height="1541" xlink:href="136F8807347ED373.png" transform="matrix(.05252 -.09582 .09582 .05252 -127.514 286.608)" overflow="visible" opacity=".3"/><path class="st16" d="M7.1 278.1L-23.1 261c-.7-.4-1.5-.6-2.3-.5l-5.7.6c-.7.1-22.7-12.6-37.5-21.3-7.6-4.4-10.7-13.9-7.2-21.9 0 0 .9-2.6 2.2-2.1l89.1 46.9-8.4 15.4z"/><path class="st23" d="M-73.6 215.8c-1.3-.5-2.2 2.1-2.2 2.1-.1.3-.3.7-.4 1l89.6 47.3 2.1-3.5-89.1-46.9z"/><path class="st24" d="M-73.6 215.8c-.4-.2-.8 0-1.1.3.1 0 .3 0 .4.1l89.1 46.9.7-.3-89.1-47z"/><path class="st12 st8" d="M14.1 262l-7.8 14.2-29.4-16.7c-.7-.4-1.5-.5-2.3-.4l-5.6.6c-.7.1-22.2-12.3-36.6-20.7-7.4-4.3-10.4-13.5-7-21.4 0 0 .4-1.1 1-1.7-1.2-.3-2 2.1-2 2.1-3.5 8.1-.4 17.5 7.2 21.9 14.8 8.6 36.7 21.4 37.5 21.3l5.7-.6c.8-.1 1.6.1 2.3.5l30.1 17.1 8.5-15.4-1.6-.8z"/><path class="st9" d="M20 268c6.4-3 14-.3 17 6.1 3 6.4.3 14-6.1 17-6.4 3-14 .3-17-6.1-3-6.4-.3-14 6.1-17m-4.2-8.9C4.5 264.4-.3 277.9 5 289.2c5.3 11.3 18.8 16.1 30.1 10.7 11.3-5.3 16.1-18.8 10.7-30.1-5.3-11.3-18.8-16.1-30-10.7z"/><path d="M33.6 292.5c6.4-3 9.1-10.6 6.1-17-1.4-3-3.8-5.2-6.7-6.3 1.7 1.2 3 2.8 4 4.8 3 6.4.3 14-6.1 17-3.4 1.6-7.1 1.6-10.3.3 3.6 2.6 8.6 3.3 13 1.2z" class="st25"/><path d="M8.7 291c-5.2-11.1-.6-24.2 10.4-29.4 6.1-2.9 12.8-2.7 18.5-.1-6.2-4.2-14.5-5.2-21.8-1.7-11 5.2-15.6 18.4-10.4 29.4 2.3 4.9 6.2 8.6 10.8 10.7-3.1-2.2-5.7-5.2-7.5-8.9z" class="st25"/><path class="st26 st24" d="M-23.1 242.3l-3.7 18.4 1.7-.2 17.7 9.3 2.7-15.8c.1-.6.4-1.2.7-1.7l-19.1-10z"/><path class="st14" d="M-12.8 287.8l5.8-34.1c.1-.8.5-1.5 1.1-2.1l4.1-4c.5-.5 4.6-25.6 7.3-42.5 1.4-8.7-4-17-12.4-19.5 0 0-2.6-1-3 .4L-30 284.7l17.2 3.1z"/><g><path class="st16" d="M-9.9 185.9c.4-1.4 3-.4 3-.4.3.1.7.2 1 .3L-26 285.2l-4-.6 20.1-98.7z"/></g><g><path class="st27" d="M-9.9 185.9c.1-.4.5-.6.9-.7-.1.1-.2.2-.2.4l-20.1 98.7-.7.3 20.1-98.7z"/></g><g class="st12"><path class="st8" d="M-29.7 283l15.9 2.9 5.7-33.3c.1-.8.5-1.5 1.1-2l4-3.9c.5-.5 4.5-24.9 7.1-41.5 1.4-8.5-3.9-16.6-12.2-19 0 0-1-.4-1.9-.3.6-1.1 3-.2 3-.2C1.6 188 6.9 196.3 5.5 205c-2.7 16.9-6.7 42-7.3 42.5l-4.1 4c-.6.6-1 1.3-1.1 2.1l-5.8 34.1-17.3-3.2.4-1.5z"/></g><g><path class="st9" d="M-28.8 291.3c6.4-3 14-.3 17 6.1 3 6.4.3 14-6.1 17-6.4 3-14 .3-17-6.1-3-6.3-.3-13.9 6.1-17m-4.2-8.9c-11.3 5.3-16.1 18.8-10.7 30.1s18.8 16.1 30.1 10.7c11.3-5.3 16.1-18.8 10.7-30.1-5.4-11.2-18.9-16-30.1-10.7z"/></g><g><path d="M-18.4 317.4c-6.4 3-14 .3-17-6.1-1.4-3-1.6-6.2-.7-9.2-.1 2.1.3 4.2 1.2 6.1 3 6.4 10.6 9.1 17 6.1 3.4-1.6 5.7-4.5 6.7-7.8-.2 4.6-2.9 8.8-7.2 10.9z" class="st25"/><path d="M-3.9 297.2c-5.2-11.1-18.4-15.8-29.3-10.6-6.1 2.9-10.2 8.2-11.8 14.3.7-7.5 5.2-14.5 12.4-17.9 11-5.2 24.1-.4 29.3 10.6 2.3 4.9 2.7 10.3 1.4 15.1.4-3.8-.2-7.8-2-11.5z" class="st25"/></g><g><g class="st4"><circle cx="-14" cy="257.1" r="2.5"/><path d="M-11.7 258.4c-.3.5-.7.9-1.2 1.2-1.4.6-3 .1-3.6-1.3-.4-.8-.3-1.7.1-2.5.3-.5.7-.9 1.2-1.2 1.4-.6 3-.1 3.6 1.3.4.8.4 1.8-.1 2.5zM-16 256c-.4.6-.4 1.4-.1 2.1.5 1.1 1.9 1.6 3 1.1.4-.2.8-.5 1-1 .4-.6.4-1.4.1-2.1-.5-1.1-1.9-1.6-3-1.1-.5.3-.8.6-1 1z"/></g><circle class="st16" cx="-14.7" cy="257.3" r="2.5"/><path class="st28" d="M-12.3 258.6c-.3.5-.7.9-1.2 1.2-1.4.6-3 .1-3.6-1.3-.4-.8-.3-1.7.1-2.5.3-.5.7-.9 1.2-1.2 1.4-.6 3-.1 3.6 1.3.4.8.4 1.8-.1 2.5zm-4.4-2.4c-.4.6-.4 1.4-.1 2.1.5 1.1 1.9 1.6 3 1.1.4-.2.8-.5 1-1 .4-.6.4-1.4.1-2.1-.5-1.1-1.9-1.6-3-1.1-.4.3-.7.6-1 1z"/><g class="st12"><path class="st8" d="M-13.2 257.8c-.5-1-1.7-1.5-2.8-1-.3.1-.5.3-.7.6 0-.8.4-1.6 1.2-2 1-.5 2.3 0 2.8 1 .3.7.2 1.6-.2 2.2-.1-.3-.2-.6-.3-.8z"/></g></g></g></svg>