<svg id="Layer_3" data-name="Layer 3" xmlns="http://www.w3.org/2000/svg" viewBox="0 0 354.69 340.44"><defs><style>.cls-1{opacity:.15}.cls-2{fill:#000100}.cls-3{opacity:.1}.cls-4{fill:#e5e5e4}.cls-5{fill:#2e4555}.cls-6{fill:#3fb9bc}.cls-14,.cls-16,.cls-7{opacity:.2}.cls-8{fill:#bcc2c7}.cls-9{fill:#f4f4f4}.cls-10,.cls-16{fill:#fff}.cls-11{fill:#9e9e9e}.cls-12{fill:#13a1dc}.cls-13{fill:#ea507e}.cls-14{fill:none;stroke:#020202;stroke-linecap:round;stroke-miterlimit:10;stroke-width:3px;stroke-dasharray:8 8}.cls-15{fill:#c6c6c6}</style></defs><title>vert-transport-tech-forward</title><g id="_Group_" data-name="&amp;lt;Group&amp;gt;" class="cls-1"><path id="_Compound_Path_" data-name="&amp;lt;Compound Path&amp;gt;" class="cls-2" d="M2284.77 251.83l25.4 16.26-2.17 3.3a12.65 12.65 0 0 1-7.93 5.83c-3.61.79-7.69-.17-11.83-2.82q-5.7-3.65-7.25-8.66a12.12 12.12 0 0 1 1.69-10.55zm51.53-46.74c-1 8-2.14 17.33-3 26.12a5.53 5.53 0 0 1-.56 1.53l-19.31 30.08-5.88-3.76 18.87-29.39c.31-3.34.69-6.69 1.06-10l-6-3.87a482.72 482.72 0 0 1-8.67 5.17L2294 250.39l-5.88-3.76 19.23-30.14a5.52 5.52 0 0 1 1.16-1.15c7.43-4.38 15.23-9.13 22.48-13.62a3.45 3.45 0 0 1 5.3 3.37zm-14.66 23.57l-17.84 28-5.88-3.76 17.91-28a3.37 3.37 0 0 1 4.75-1 3.46 3.46 0 0 1 1.06 4.76z" transform="translate(-1988 -116.56)"/></g><g id="_Group_2" data-name="&amp;lt;Group&amp;gt;" class="cls-1"><path id="_Compound_Path_2" data-name="&amp;lt;Compound Path&amp;gt;" class="cls-2" d="M2130.64 434.87a2.58 2.58 0 0 1-.62-3.62l2.83-4a2.6 2.6 0 0 1 4.24 3l-2.83 4a2.61 2.61 0 0 1-3.62.62zm18.24 7.36a29.38 29.38 0 0 1-1.84-5l13.37-2.28a35.79 35.79 0 0 1 0 5.32c-.45 3.47-1.43 5.45-4.89 6s-5.11-.9-6.63-4.04zm-2.79-8.35c-.16-.63-.23-1-.23-1-.93-2.58-2.49-4.34-5.67-7.2s-4.9-5.3-5.56-9.14a15.56 15.56 0 1 1 30.68-5.22c.65 3.83-.17 6.72-2.22 10.46s-3 5.94-3 8.67c0 0 0 .38.07 1zM2129.41 407l-4-2.83a2.6 2.6 0 0 1 3-4.24l4 2.83a2.58 2.58 0 0 1 .62 3.62 2.61 2.61 0 0 1-3.62.62zm42.14 20.89l-4-2.83a2.6 2.6 0 0 1 3-4.24l4 2.83a2.58 2.58 0 0 1 .62 3.62 2.61 2.61 0 0 1-3.62.64zm-8.05-26.69a2.58 2.58 0 0 1-.62-3.62l2.83-4a2.6 2.6 0 1 1 4.24 3l-2.83 4a2.61 2.61 0 0 1-3.62.63z" transform="translate(-1988 -116.56)"/></g><path d="M2034.3 148c0 31.45 31.45 69.19 31.45 69.19s31.45-37.74 31.45-69.19a31.45 31.45 0 0 0-62.9 0zm12.58 0a18.87 18.87 0 1 1 18.87 18.87 18.87 18.87 0 0 1-18.87-18.87z" transform="translate(-1988 -116.56)" class="cls-3"/><g class="cls-3"><path d="M2055.13 247.17l1.6-3.85c.68-1.64 1.39-3.36 2.12-5.17l1.57-3.86-7.91-3.07-1.57 3.86c-.73 1.79-1.42 3.49-2.1 5.11l-1.6 3.85zM2265 456.71l-4.24-.34.69-8.28 4.24.34a83.63 83.63 0 0 0 10.93.15l4.25-.23.46 8.29-4.25.23c-1.57.08-3.17.13-4.76.13-2.4 0-4.87-.1-7.32-.29zm34-12.62l3.87-1.74a65.89 65.89 0 0 0 9.4-5.18l3.52-2.34 4.8 6.86-3.52 2.34a74.36 74.36 0 0 1-10.63 5.86l-3.87 1.74zm29.11-22.26l1.94-3.69a35.44 35.44 0 0 0 3.44-9.46l.82-4.07 8.36 1.6-.82 4.07a43.62 43.62 0 0 1-4.22 11.65l-1.94 3.69zm2.13-38.56a58.86 58.86 0 0 0-4.37-9.55l-2.08-3.62 7.43-4.05 2.08 3.63a67 67 0 0 1 5 10.89l1.39 3.92-8 2.72zM2308 354.44a77.52 77.52 0 0 0-9.3-5.55l-3.78-1.92 3.93-7.37 3.78 1.92a86.06 86.06 0 0 1 10.33 6.17l3.46 2.42-5 6.75zm-274-3.16a56.11 56.11 0 0 1-12.38-1.37l-4.14-1 2-8.08 4.14 1A47.31 47.31 0 0 0 2034 343h4.26v8.3H2034zm23.14-12.13l4.14-1q5.57-1.31 11.27-2.58l4.15-.92 1.88 8.1-4.15.92q-5.65 1.25-11.16 2.55l-4.14 1zm215.51.71c-3.51-.78-7.22-1.47-11-2l-4.21-.63 1.29-8.21 4.21.63c4 .6 7.93 1.33 11.63 2.15l4.15.92-1.9 8.1zm-175.89-9.18l4.19-.73c3.84-.67 7.69-1.3 11.45-1.87l4.21-.64 1.31 8.21-4.21.64c-3.7.56-7.49 1.18-11.27 1.84l-4.19.73zm-101.22 2.67a43.88 43.88 0 0 1-6-10.87l-1.48-3.89 8-2.89 1.48 3.89a35.62 35.62 0 0 0 4.9 8.83l2.53 3.34-6.85 4.94zm237.43 1.52c-3.77-.5-7.58-1-11.31-1.35l-4.23-.45.92-8.26 4.23.45c3.82.4 7.7.87 11.55 1.38l4.22.56-1.15 8.23zM2137 325l4.24-.38c3.87-.34 7.77-.64 11.6-.87l4.25-.26.54 8.29-4.25.26c-3.75.23-7.57.52-11.37.85l-4.24.38zm56.24 6.52c-3.78-.14-7.62-.22-11.39-.25h-4.26l.07-8.3h4.26c3.86 0 7.77.12 11.64.26l4.25.15-.31 8.3zm-204.69-36l2-3.67a26.13 26.13 0 0 1 9.11-9.77l3.58-2.25 4.61 7-3.58 2.25a17.87 17.87 0 0 0-6.2 6.68l-2 3.67zm31.57-25.71l3.28-2.64a54.58 54.58 0 0 0 7.59-7.33l2.71-3.21 6.58 5.28-2.7 3.21a63 63 0 0 1-8.74 8.46l-3.28 2.65zM2239.7 451.47l3.08-7.74-4-1.5c-1.69-.64-3.39-1.33-5.05-2.05l-3.89-1.69-3.46 7.59 3.89 1.69c1.79.78 3.62 1.52 5.43 2.2z" transform="translate(-1988 -116.56)"/></g><rect class="cls-4" x="2024.5" y="271.85" width="192.62" height="84.38" rx="1.41" ry="1.41" transform="rotate(-27.14 885.157 4373.91)"/><path class="cls-5" transform="rotate(-27.14 842.13 4351.819)" d="M2077.27 291.3h1.25v1.25h-1.25z"/><path class="cls-5" transform="rotate(-27.14 843.642 4354.727)" d="M2078.76 294.21h1.25v1.25h-1.25z"/><path class="cls-5" transform="rotate(-27.14 845.133 4357.63)" d="M2080.25 297.12h1.25v1.25h-1.25z"/><path class="cls-5" transform="rotate(-27.14 846.666 4360.543)" d="M2081.74 300.04h1.25v1.25h-1.25z"/><path class="cls-5" transform="rotate(-27.14 848.044 4363.462)" d="M2083.24 302.95h1.25v1.25h-1.25z"/><path class="cls-5" transform="rotate(-27.1 852.214 4330.377)" d="M2084.73 305.86h1.25v1.25h-1.25z"/><path class="cls-5" transform="rotate(-27.14 851.11 4369.288)" d="M2086.22 308.77h1.25v1.25h-1.25z"/><path class="cls-5" transform="rotate(-27.14 853.03 4372.14)" d="M2087.71 311.68h1.25v1.25h-1.25z"/><path class="cls-5" transform="rotate(-27.14 854.093 4375.094)" d="M2089.2 314.59h1.25v1.25h-1.25z"/><path class="cls-5" transform="rotate(-27.14 855.538 4378.007)" d="M2090.7 317.51h1.25v1.25h-1.25z"/><path class="cls-5" transform="rotate(-27.14 857.52 4380.875)" d="M2092.19 320.42h1.25v1.25h-1.25z"/><path class="cls-5" transform="rotate(-27.14 858.49 4383.85)" d="M2093.68 323.33h1.25v1.25h-1.25z"/><path class="cls-5" transform="rotate(-27.14 860.183 4386.736)" d="M2095.17 326.24h1.25v1.25h-1.25z"/><path class="cls-5" transform="rotate(-27.14 861.985 4389.626)" d="M2096.67 329.15h1.25v1.25h-1.25z"/><path class="cls-5" transform="rotate(-27.14 863.048 4392.579)" d="M2098.16 332.06h1.25v1.25h-1.25z"/><path class="cls-5" transform="rotate(-27.14 864.539 4395.482)" d="M2099.65 334.98h1.25v1.25h-1.25z"/><path class="cls-5" transform="rotate(-27.14 866.03 4398.384)" d="M2101.14 337.89h1.25v1.25h-1.25z"/><path class="cls-5" transform="rotate(-27.14 867.517 4401.308)" d="M2102.64 340.8h1.25v1.25h-1.25z"/><path class="cls-5" transform="rotate(-27.14 868.962 4404.222)" d="M2104.13 343.71h1.25v1.25h-1.25z"/><path class="cls-5" transform="rotate(-27.14 870.588 4407.113)" d="M2105.62 346.62h1.25v1.25h-1.25z"/><path class="cls-5" transform="rotate(-27.14 872.033 4410.027)" d="M2107.11 349.53h1.25v1.25h-1.25z"/><path class="cls-5" transform="rotate(-27.14 873.478 4412.94)" d="M2108.61 352.45h1.25v1.25h-1.25z"/><path class="cls-5" transform="rotate(-27.14 874.965 4415.864)" d="M2110.1 355.36h1.25v1.25h-1.25z"/><path class="cls-5" transform="rotate(-27.14 876.477 4418.772)" d="M2111.59 358.27h1.25v1.25h-1.25z"/><path class="cls-5" transform="rotate(-27.14 877.968 4421.675)" d="M2113.08 361.18h1.25v1.25h-1.25z"/><path class="cls-6" transform="rotate(-27.14 830.093 4402.14)" d="M2035.34 303.85h60.82v76.84h-60.82z"/><g class="cls-7"><path class="cls-8" transform="rotate(-27.14 870.472 4347.195)" d="M2088.05 285.96h36.17v2.72h-36.17z"/><path class="cls-8" transform="rotate(-27.14 956.073 4371.824)" d="M2173.64 310.59h36.17v2.72h-36.17z"/><path class="cls-8" transform="rotate(-27.14 904.273 4341.937)" d="M2089.37 280.71h101.1v2.72h-101.1z"/><path class="cls-8" transform="rotate(-27.14 909.179 4351.495)" d="M2094.27 290.26h101.1v2.72h-101.1z"/><path class="cls-8" transform="rotate(-27.14 919.651 4371.955)" d="M2104.76 310.72h101.1v2.72h-101.1z"/></g><rect class="cls-9" x="2047.16" y="307.79" width="192.61" height="84.38" rx="1.41" ry="1.41" transform="rotate(-5.73 -15.814 20153.605)"/><g><path class="cls-5" transform="rotate(-5.73 -47.754 20117.352)" d="M2110.96 313.1h1.25v1.25h-1.25z"/><path class="cls-5" transform="rotate(-5.73 -47.414 20120.574)" d="M2111.29 316.36h1.25v1.25h-1.25z"/><path class="cls-5" transform="rotate(-5.73 -47.075 20123.796)" d="M2111.61 319.61h1.25v1.25h-1.25z"/><path class="cls-5" transform="rotate(-5.73 -46.74 20127.118)" d="M2111.94 322.87h1.25v1.25h-1.25z"/><path class="cls-5" transform="rotate(-5.73 -46.4 20130.34)" d="M2112.27 326.12h1.25v1.25h-1.25z"/><path class="cls-5" transform="rotate(-5.73 -46.06 20133.562)" d="M2112.59 329.38h1.25v1.25h-1.25z"/><path class="cls-5" transform="rotate(-5.73 -45.826 20136.879)" d="M2112.92 332.63h1.25v1.25h-1.25z"/><path class="cls-5" transform="rotate(-5.73 -45.487 20140.101)" d="M2113.25 335.89h1.25v1.25h-1.25z"/><path class="cls-5" transform="rotate(-5.73 -45.147 20143.323)" d="M2113.57 339.14h1.25v1.25h-1.25z"/><path class="cls-5" transform="rotate(-5.73 -44.813 20146.645)" d="M2113.9 342.4h1.25v1.25h-1.25z"/><path class="cls-5" transform="rotate(-5.73 -44.473 20149.867)" d="M2114.23 345.66h1.25v1.25h-1.25z"/><path class="cls-5" transform="rotate(-5.73 -44.134 20153.09)" d="M2114.55 348.91h1.25v1.25h-1.25z"/><path class="cls-5" transform="rotate(-5.73 -43.799 20156.411)" d="M2114.88 352.17h1.25v1.25h-1.25z"/><path class="cls-5" transform="rotate(-5.73 -43.46 20159.634)" d="M2115.21 355.42h1.25v1.25h-1.25z"/><path class="cls-5" transform="rotate(-5.73 -43.12 20162.856)" d="M2115.53 358.68h1.25v1.25h-1.25z"/><path class="cls-5" transform="rotate(-5.73 -42.885 20166.173)" d="M2115.86 361.93h1.25v1.25h-1.25z"/><path class="cls-5" transform="rotate(-5.73 -42.546 20169.395)" d="M2116.19 365.19h1.25v1.25h-1.25z"/><path class="cls-5" transform="rotate(-5.73 -42.206 20172.617)" d="M2116.51 368.44h1.25v1.25h-1.25z"/><path class="cls-5" transform="rotate(-5.73 -41.872 20175.939)" d="M2116.84 371.7h1.25v1.25h-1.25z"/><path class="cls-5" transform="rotate(-5.73 -41.532 20179.16)" d="M2117.17 374.96h1.25v1.25h-1.25z"/><path class="cls-5" transform="rotate(-5.73 -41.193 20182.383)" d="M2117.49 378.21h1.25v1.25h-1.25z"/><path class="cls-5" transform="rotate(-5.73 -40.858 20185.705)" d="M2117.82 381.47h1.25v1.25h-1.25z"/><path class="cls-5" transform="rotate(-5.73 -40.518 20188.927)" d="M2118.15 384.72h1.25v1.25h-1.25z"/><path class="cls-5" transform="rotate(-5.73 -40.179 20192.15)" d="M2118.47 387.98h1.25v1.25h-1.25z"/><path class="cls-5" transform="rotate(-5.73 -39.944 20195.466)" d="M2118.8 391.23h1.25v1.25h-1.25z"/></g><path class="cls-6" transform="rotate(-5.73 -77.419 20159.737)" d="M2051.49 317.74h60.82v76.84h-60.82z"/><g class="cls-7"><path class="cls-8" transform="rotate(-5.73 -19.81 20123.357)" d="M2121.47 318.38h36.17v2.73h-36.17z"/><path class="cls-8" transform="rotate(-5.73 50.9 20177.477)" d="M2192.17 372.56h36.17v2.72h-36.17z"/><path class="cls-8" transform="rotate(-5.73 13.57 20130.837)" d="M2122.38 325.83h101.1v2.72h-101.1z"/><path class="cls-8" transform="rotate(-5.73 14.639 20141.508)" d="M2123.46 336.51h101.1v2.72h-101.1z"/><path class="cls-8" transform="rotate(-5.73 17 20164.362)" d="M2125.75 359.39h101.1v2.72h-101.1z"/></g><path class="cls-10" d="M2095.06 339.91a8.71 8.71 0 0 0-9.51-7.77l-12 1.2a8.71 8.71 0 0 0-7.77 9.51l.27 17.19a8.71 8.71 0 0 0 9.51 7.77l14.88-1.49a8.71 8.71 0 0 0 7.77-9.51zm-20.26-3.79l10-1 .14 1.44-10 1zm-4.55 9a4.14 4.14 0 0 1 3.69-4.52l12.64-1.27a4.14 4.14 0 0 1 4.52 3.7l1.22 4.91a4.14 4.14 0 0 1-3.69 4.52l-14.08 1.41a4.14 4.14 0 0 1-4.52-3.7zm3.35 18.88a2.89 2.89 0 1 1 2.59-3.17 2.89 2.89 0 0 1-2.59 3.17zm18.24-1.83a2.89 2.89 0 1 1 2.59-3.17 2.89 2.89 0 0 1-2.59 3.18zM2083.46 372.09l6.83-.69c1-.1 1.69-.41.86-1.56-.64-.89-.17-1.26.7-1.52 2.56-.77 2.8-.69 4.34 1.48 1 1.47 2.15 2.9 3.18 4.38.74 1.06 1.16 2.31 0 3.24s-2.46.42-3.23-.79a2.68 2.68 0 0 0-2.92-1.22q-9.25 1-18.51 1.85a2.56 2.56 0 0 0-2.6 1.78 2.1 2.1 0 0 1-3 1.48c-1.45-.6-1.27-1.92-.77-3.1.92-2.16 1.9-4.29 2.92-6.41.47-1 3.43-1.43 4.18-.68a.88.88 0 0 1 .17 1c-.64 1.59.28 1.53 1.39 1.4 2.14-.23 4.3-.42 6.46-.64z" transform="translate(-1988 -116.56)"/><g><rect class="cls-5" x="158.02" y="37.88" width="146.99" height="260.01" rx="2.95" ry="2.95"/><path class="cls-10" d="M162.91 58.29h137.46v196.18H162.91z"/><path class="cls-11" d="M218.56 46.28h26.16v2.85h-26.16z"/><circle class="cls-12" cx="232.12" cy="274.57" r="11.06"/><path class="cls-7" d="M2209.07 391a8.77 8.77 0 0 1 .09-1.28 11 11 0 0 0 21.92 0 8.77 8.77 0 0 1 .09 1.28 11.05 11.05 0 1 1-22.1 0z" transform="translate(-1988 -116.56)"/></g><path class="cls-13" d="M292.99 133.09H170.25l-1-66.24 125.74-1-2 67.24z"/><path class="cls-14" d="M287.49 244.13H172.78v-32.28l116.71 2-2 30.28z"/><path class="cls-15" d="M173.4 146.39h99.85v5.77H173.4zM328.72 220.03h.8v.8h-.8zM172.45 160.04h118.38v5.77H172.45zM172.45 173.33h118.38v5.77H172.45zM172.45 189.14h70.73v5.77h-70.73z"/><path class="cls-3" d="M162.4 82.35v172.16l137.46-.03L162.4 82.35z"/><path class="cls-16" d="M240.38 88.77h-63.05l-1-16h64.05v16zM257.67 104.49h-81.34V94.44h80.34l1 10.05zM263.23 121.61H177.9v-10.05h86.33l-1 10.05z"/></svg>