<svg id="Layer_1" xmlns="http://www.w3.org/2000/svg" xmlns:xlink="http://www.w3.org/1999/xlink" viewBox="-103 105.1 303.9 303.9"><style>.st0{fill:#37bec0;stroke:#298f90;stroke-width:10;stroke-miterlimit:10}.st1{fill:#fff}.st2{clip-path:url(#SVGID_2_)}.st3{fill:#a4ce4e}.st4{opacity:.1}.st5{clip-path:url(#SVGID_4_)}.st6{fill:#9b5ca4}.st7{fill:#333}.st8{fill:#f2f2f2}.st9{clip-path:url(#SVGID_6_)}.st10{fill:#faad40}.st11{opacity:.5}.st12{fill:#4d4d4d}.st13{fill:#ccc}.st14{opacity:.3;fill:#fff}.st15{clip-path:url(#SVGID_8_)}.st16{fill:#0ea2dc}.st17{fill:#42210b}.st18{fill:#603813}.st19{fill:#f9e8d8}.st20{fill:#461a00}.st21{fill:#fbb03b}.st22{opacity:.2}.st23{opacity:.8;fill:#fff}.st24{fill:none;stroke:#754c24;stroke-width:12;stroke-miterlimit:10}.st25{fill:#c69c6d}</style><title>vert-transport-future-b</title><circle class="st0" cx="48.9" cy="257.1" r="146.9" id="Layer_3"/><circle class="st1" cx="-27.1" cy="268.7" r="52.4"/><circle class="st1" cx="124.4" cy="268.7" r="52.4"/><circle class="st1" cx="25.1" cy="226.7" r="69.3"/><circle class="st1" cx="93.8" cy="216.6" r="44.8"/><path class="st1" d="M-27.1 265.1h151.5v56H-27.1z"/><defs><circle id="SVGID_1_" cx="90.6" cy="219" r="38.5"/></defs><clipPath id="SVGID_2_"><use xlink:href="#SVGID_1_" overflow="visible"/></clipPath><path class="st2 st3" d="M40.2 166h98.5v109.9H40.2z"/><path d="M76.1 206.7c0-.5.1-1.2.2-2.1h-1.2c-.3 0-.5-.3-.5-.6l.1-.6c0-.3.4-.6.7-.6h1.3c1.3-5 4.6-9.1 10.3-9.1 2.5 0 4.6.6 6.1 2.5.2.3.2.6-.1 1l-2.2 2.8c-.2.3-.6.2-.8 0-.9-1-1.9-1.4-3.1-1.4-1.8 0-3.9 1.4-4.8 4.3h6.6c.4 0 .5.3.5.6l-.1.6c0 .3-.4.6-.7.6h-6.7c-.2.9-.2 1.6-.3 2.1h5.4c.4 0 .5.3.5.6l-.1.6c0 .3-.4.6-.7.6h-5.1c.2 1.8 1.1 3.1 3.5 3.1 1.3 0 2.2-.6 3.2-1.4.3-.2.6-.3.8 0l1.8 3.1c.2.3.1.7-.2.9-1.9 1.5-3.9 2.5-6.5 2.5-4.4 0-7.8-3-8.2-8.2h-1.5c-.3 0-.5-.3-.5-.6l.1-.6c0-.3.4-.6.7-.6h1.5zM72.1 245.6c1.9-3.1 2.3-5.9 2.2-8.4H73c-.3 0-.5-.3-.5-.6l.1-.6c0-.3.3-.6.7-.6h.9c-.1-1.2-.2-2.6-.2-3.6 0-5.6 2.8-8.7 7.4-8.7 2.6 0 4.4 1.6 5.1 2.4.2.2.2.6-.1.9l-2 2.4c-.3.3-.7.2-.9 0-.4-.4-1.3-1.1-2.4-1.1-1 0-1.9 1-1.9 2.9 0 .9.4 2.6.6 4.7h2.3c.3 0 .5.3.5.6l-.1.6c0 .3-.3.6-.7.6h-2.1c-.1 1.5-.4 3.2-.9 5.2h4.6c.3 0 .5.3.4.6l-.4 3.2c-.1.3-.3.6-.6.6H72.5c-.3 0-.5-.3-.5-.6l.1-.5zM96.5 235.9l1.8-2.5c.3-.4.9-.4 1.1-.2.5.5 1.5 1.4 3.3 1.5l.7-5.1c-2.1-1.7-5.2-3.6-5.2-7.1 0-3.4 2.3-6.8 7.2-7l.2-1.1c.1-.4.4-.6.7-.6h.3c.3 0 .6.3.5.6l-.2 1.1c2.7.3 4.7 1.7 5.5 2.4.3.3.5.8.2 1.1l-2 2.5c-.3.3-.8.4-1.1.2-.6-.5-1.7-1.2-3.2-1.6l-.7 4.5c1.9 1.4 5.6 3.4 5.6 7.5 0 3.7-2.6 7.2-7.8 7.5l-.5 3.5c0 .3-.4.6-.7.6h-.3c-.3 0-.6-.3-.6-.6l.5-3.5c-3-.3-4.9-2-5.5-2.5 0-.6-.1-.8.2-1.2zm8.4-16.1c-1.1.2-1.6 1.1-1.6 1.9 0 .8.3 1.4 1 2l.6-3.9zm.9 12.7c0-.8-.4-1.5-1-2.1l-.6 4.4c.9-.3 1.6-1.1 1.6-2.3z" class="st4"/><path class="st1" d="M74.6 205.2c0-.5.1-1.2.2-2.1h-1.2c-.3 0-.5-.3-.5-.6l.1-.6c0-.3.4-.6.7-.6h1.3c1.3-5 4.6-9.1 10.3-9.1 2.5 0 4.6.6 6.1 2.5.2.3.2.6-.1 1l-2.2 2.8c-.2.3-.6.2-.8 0-.9-1-1.9-1.4-3.1-1.4-1.8 0-3.9 1.4-4.8 4.3h6.6c.3 0 .5.3.5.6l-.1.6c0 .3-.4.6-.7.6h-6.7c-.2.9-.2 1.6-.3 2.1h5.4c.4 0 .5.3.5.6l-.1.6c0 .3-.4.6-.7.6h-5.1c.2 1.8 1.1 3.1 3.5 3.1 1.3 0 2.2-.6 3.2-1.4.3-.2.6-.3.8 0l1.8 3.1c.2.3.1.7-.2.9-1.9 1.5-3.9 2.5-6.5 2.5-4.4 0-7.8-3-8.2-8.2h-1.5c-.3 0-.5-.3-.5-.6l.1-.6c0-.3.4-.6.7-.6h1.5zM70.7 244.1c1.9-3.1 2.3-5.9 2.2-8.4h-1.3c-.3 0-.5-.3-.5-.6l.1-.6c0-.3.3-.6.7-.6h.9c-.1-1.2-.2-2.6-.2-3.6 0-5.6 2.8-8.7 7.4-8.7 2.6 0 4.4 1.6 5.1 2.4.2.2.2.6-.1.9l-2 2.4c-.3.3-.7.2-.9 0-.4-.4-1.3-1.1-2.4-1.1-1 0-1.9 1-1.9 2.9 0 .9.4 2.6.6 4.7h2.3c.3 0 .5.3.5.6l-.1.6c0 .3-.3.6-.7.6h-2.1c-.1 1.5-.4 3.2-.9 5.2H82c.3 0 .5.3.4.6l-.4 3.2c-.1.3-.3.6-.6.6H71.1c-.3 0-.5-.3-.5-.6l.1-.5zM95.1 234.3l1.8-2.5c.3-.4.9-.4 1.1-.2.5.5 1.5 1.4 3.3 1.5l.7-5.1c-2.1-1.7-5.2-3.6-5.2-7.1 0-3.4 2.3-6.8 7.2-7l.2-1.1c.1-.4.4-.6.7-.6h.3c.3 0 .6.3.5.6l-.2 1.1c2.7.3 4.7 1.7 5.5 2.4.3.3.5.8.2 1.1l-2 2.5c-.3.3-.8.4-1.1.2-.6-.5-1.7-1.2-3.2-1.6l-.7 4.5c1.9 1.4 5.6 3.4 5.6 7.5 0 3.7-2.6 7.2-7.8 7.5l-.5 3.5c0 .3-.4.6-.7.6h-.3c-.3 0-.6-.3-.6-.6l.5-3.5c-3-.3-4.9-2-5.5-2.5-.1-.6-.2-.7.2-1.2zm8.3-16.1c-1.1.2-1.6 1.1-1.6 1.9 0 .8.3 1.4 1 2l.6-3.9zm.9 12.8c0-.8-.4-1.5-1-2.1l-.6 4.4c.9-.3 1.6-1.1 1.6-2.3z"/><g><defs><circle id="SVGID_3_" cx="23.3" cy="222.7" r="55.5"/></defs><clipPath id="SVGID_4_"><use xlink:href="#SVGID_3_" overflow="visible"/></clipPath><path class="st5 st6" d="M-49.5 146.3h142v158.5h-142z"/><path class="st7" d="M28.8 188.5c17.1 0 27.3 12 27.3 28.9 0 11.9-6.2 26.9-20.6 26.9-4.8 0-6.8-2.8-7.6-6.1h-.5c-2 3.3-5.7 6.1-10.2 6.1-6.8 0-10.9-6.8-10.9-14 0-9.9 7.2-18.5 15.8-18.5 5.9 0 8.1 4.8 8.1 4.8l1.3-2.9c.5-.9 1-1.1 1.7-1.1h3.2c.7 0 1.2.6 1.2 1.5l-1.9 13c-.9 6.8 1.1 7.6 2.6 7.6 5 0 7.1-10.6 7.1-17 0-10.9-5.7-19.4-18.1-19.4-16.4 0-27.9 13-27.9 31.7 0 9.7 4.8 18.5 12.3 22.2.5.3.9 1.1.5 1.8L9 260.4c-.5.8-1.1 1.2-1.9.9C-3.6 257.1-11 244-11 231c.1-24.2 16.9-42.5 39.8-42.5zm-9.3 45.9c2.4 0 5.4-3.3 5.4-8.1.1-3.5-1.9-5.2-3.9-5.2-2.6 0-5.3 3.7-5.3 8.6.1 2.7 1.8 4.7 3.8 4.7z"/><path class="st8" d="M24.5 186.1c17.1 0 27.3 12 27.3 28.9 0 11.9-6.2 26.9-20.6 26.9-4.8 0-6.8-2.8-7.6-6.1h-.5c-2 3.3-5.7 6.1-10.2 6.1-6.8 0-10.9-6.8-10.9-14 0-9.9 7.2-18.5 15.8-18.5 5.9 0 8.1 4.8 8.1 4.8l1.3-2.9c.5-.9 1-1.1 1.7-1.1h3.2c.7 0 1.2.6 1.2 1.5l-1.9 13c-.9 6.8 1.1 7.6 2.6 7.6 5 0 7.1-10.6 7.1-17 0-10.9-5.7-19.4-18.1-19.4-16.4 0-27.9 13-27.9 31.7 0 9.7 4.8 18.5 12.3 22.2.5.3.9 1.1.5 1.8L4.7 258c-.5.8-1.1 1.2-1.9.9-10.7-4.2-18.1-17.3-18.1-30.3.1-24.2 16.9-42.5 39.8-42.5zM15.2 232c2.4 0 5.4-3.3 5.4-8.1.1-3.5-1.9-5.2-3.9-5.2-2.6 0-5.3 3.7-5.3 8.6.1 2.7 1.8 4.7 3.8 4.7z"/></g><g><defs><circle id="SVGID_5_" cx="127.9" cy="269.1" r="44.6"/></defs><clipPath id="SVGID_6_"><use xlink:href="#SVGID_5_" overflow="visible"/></clipPath><path class="st9 st10" d="M69.4 207.6h114.2v127.5H69.4z"/><g><path class="st11" d="M152.7 281.2l.9.6 10.8-27.8c.2-.6 0-1.3-.5-1.6l-.7-.5-10.5 29.3zM92.2 283.1l35.4 8.6c1.9.4 3.9.2 5.7-.6l19.2-9.5v2.2c0 .9-.5 1.6-1.3 2l-17.9 8.2c-1.8.8-3.8 1-5.7.6l-34-7.7c-.8-.2-1.4-.9-1.4-1.7v-2.1z"/><path class="st1" d="M133.3 291.2l18.6-8.7c.8-.3.7-1.5-.2-1.7l-37.3-8.5c-.2 0-.4 0-.6.1l-21.1 9.8c-.8.3-.7 1.5.2 1.7l34.7 7.9c1.9.3 3.9.1 5.7-.6z"/><path class="st1" d="M133.3 291.2l18.6-8.7c.8-.3.7-1.5-.2-1.7l-37.3-8.5c-.2 0-.4 0-.6.1l-21.1 9.8c-.8.3-.7 1.5.2 1.7l34.7 7.9c1.9.3 3.9.1 5.7-.6z"/><path class="st1" d="M152.7 281.2l-38.5-8.9 11.2-28.4c.2-.5.7-.7 1.1-.6l36.4 8.4c.7.2 1.1.9.8 1.5l-11 28z"/><path class="st12" d="M150.8 278.5l-33.2-7.6 10-25.1 33.2 7.7z"/><ellipse class="st1" cx="153.1" cy="281.1" rx=".8" ry="1.1"/><path class="st1" d="M150.3 279.4l2.9.7-.2 2.1-2.8-.6z"/><ellipse class="st12" cx="153.1" cy="281.1" rx=".5" ry=".7"/><path class="st13" d="M120.1 279.8l4.4 1 3.5-1.6-4.3-1zM125 280.9l4.3 1 3.6-1.7-4.4-.9zM129.8 282l4.4.9 3.6-1.6-4.4-.9zM110.4 277.6l4.3 1 3.6-1.6-4.3-1zM115.2 278.7l4.4 1 3.6-1.6-4.4-1zM143.3 280.4l-4.4-1-2.6 1.2 4.3 1zM138.4 279.3l-4.3-1-2.7 1.2 4.4 1zM128.7 277.2l-4.4-1-2.6 1.2 4.4.9zM123.8 276.1l-4.4-.9-2.6 1.1 4.4 1zM133.6 278.2l-4.4-.9-2.6 1.2 4.3.9zM134.7 283l4.4 1 3.5-1.6-4.4-1zM112.2 283.4l4.3 1 3.6-1.6-4.3-1zM117 284.5l4.4 1 3.6-1.6-4.4-1zM121.9 285.6l4.4 1 3.5-1.6-4.3-1zM102.5 281.3l4.3.9 3.6-1.6-4.3-.9zM107.3 282.4l4.4.9 3.6-1.6-4.4-.9zM126.8 286.7l4.4 1 3.5-1.6-4.4-1zM148.5 281.5l-4.7-1-2.7 1.2 4.6 1zM116.3 276.2l2.6-1.2-4.4-.9-2.5 1.1zM104 278.8l4.2 1 3.6-1.6-4.3-1zM108.7 279.9l4.4 1 3.6-1.6-4.4-1zM123.4 283.2l4.4.9 3.5-1.6-4.4-.9zM128.2 287.3l-4.4-1-3.2 1.5 4.4 1zM120.1 287.6l3.2-1.4-14.2-3.2-3.1 1.4zM105.5 284.2l3.1-1.3-4.4-1-3 1.3zM136.2 283.6l-4.4-1-3.5 1.7 4.4.9zM113.6 281l4.4 1 3.6-1.6-4.4-1zM118.5 282.1l4.4 1 3.5-1.6-4.3-1zM136.7 283.7l-3.5 1.6 4.3 1 3.7-1.6z"/><path class="st14" d="M122.9 257.6l4.7-11.8 33.2 7.7z"/><path class="st4" d="M133.3 291.2l18.6-8.7c.8-.3.7-1.5-.2-1.7l-37.3-8.5c-.2 0-.4 0-.6.1l13.7 19.3c2 .4 4 .2 5.8-.5z"/></g></g><g><defs><circle id="SVGID_7_" cx="-26.8" cy="269.1" r="44.6"/></defs><clipPath id="SVGID_8_"><use xlink:href="#SVGID_7_" overflow="visible"/></clipPath><g class="st15"><path class="st16" d="M-89.4 211H33v136.7H-89.4z"/><path class="st17" d="M-43 280.9c8-3 25.4-3.1 29.4-1.2 2.3 1.1 0-12.4 0-12.4l-17.1-10.4-9.6 3.5c.1-.1-5.6 21.6-2.7 20.5z"/><path class="st18" d="M-41.7 258.6s1.1 8 .5 9.9c-.6 2-2.9 2.9-2.9 2.9s.6 1.3 2 1.2 4.9-1.8 4.9-1.8l-.9-13.6-3.6-.4v1.8z"/><path class="st10" d="M-56.9 313.7s-2.4 3.7-1.9 4.8-2.5 26.3-2.5 26.3l5.1 2.9s3.3-25 4.2-27.4 3.3-5.4 3.3-5.4l-8.2-1.2zM4.7 313.7s2.4 3.7 1.9 4.8S9 344.8 9 344.8L3.3 348S.5 322.7-.3 320.3s-3.3-5.4-3.3-5.4l8.3-1.2z"/><path class="st19" d="M-32.5 279.8s-13.1 3.6-15.5 5.5c-2.5 1.9-11.6 24.6-11.6 27.7s9 4.8 10.8 5.1c1.9.3 4.5-7.2 4.5-7.2l.7 41.6s11.4 2.6 18.4 2.2c6.9-.4 17.6-2.6 17.6-2.6l-1.1-42.8s3.2 8.9 4.2 8.8c1-.1 10.1-2.8 11.9-3.8 1.7-1-7.4-27.5-10-29.1-2.6-1.6-17.8-5.6-20.7-5.5-3.1.3-9.2.1-9.2.1z"/><path class="st10" d="M-23 276.8c0-6-4-4.9-4-4.9s-4-1-4 4.9c0 4.6-5.2 8.1 4 8.1s4-3.5 4-8.1z"/><path class="st10" d="M-31.3 281s-5.8 1.3-7.4 2.2c-1.5.9 5.1 3.8 11.4 3.8 6.3 0 13.7-2.8 14.7-3.5 1-.7-14.7-3.5-14.7-3.5l-4 1zM-27.4 277.7c-4.4 0-14.7-8.5-12.2-30.5.7-5.9 12.2-5.6 12.2-5.6s11.3-.2 12.2 5.6c3.2 20.4-7.8 30.5-12.2 30.5z"/><circle class="st20" cx="-21.6" cy="256.3" r="1.2"/><path class="st21" d="M-10.7 253.7c0 3.6.2 6.6-2.4 6.6s-1.1-2.9-1.1-6.6.5-4 1.1-4c.6.1 2.4.4 2.4 4z"/><circle class="st20" cx="-33.2" cy="256.3" r="1.2"/><path class="st22" d="M-30.6 261.6c.1 3 2.5 4.3 3.3 4.3.8 0 3.1-1.3 3.3-4.3 0 0-2.1 2-3.3 2-1.3 0-3.3-2-3.3-2zM-30.9 276.5l-.3 3s3 2 4.4 2c1.2 0 3.3-1.4 4.1-3.2.4-1-.3-1.5-.2-2.6 0 0-2.4 1.6-4.4 1.6s-3.6-.8-3.6-.8z"/><path class="st21" d="M-44.1 253.7c0 3.6-.2 6.6 2.4 6.6s1.1-2.9 1.1-6.6-.5-4-1.1-4-2.4.4-2.4 4z"/><path class="st22" d="M-40.2 251.1s3.1.6 8.3.4c6.1-.3 7.5-3.3 11.6-1.8 4.1 1.5 3.6 2.2 5.1 2.7 1.5.5 0 0 0 0v-11.9l-25.1 5.8.1 4.8z"/><path class="st18" d="M-8.6 275.3c-2.3-2.8-3.7-5.6-.6-13.1 3-7.4.9-15.4-4.3-22-2.5-4.1-.4-8.5-11.5-9.1-3.5-.2-6.4-.1-16.1 4.1-9.7 4.2-7.5 20.9-5 27 3.1 7.5 1.7 10.3-.6 13.1-2.6 3.3-6.9 1.4-1.6 5.2 5.3 3.7 15-6 15-6s-4.6-5.6-5.3-9c-.8-3.7-2.3-17.4-.7-17.1 11.2 2.3 20.4-7.1 21.9-1.9.4 1.2.8 4.9 1.5 6.5 0 0-1.9 8.3-1.3 12 .6 3.7-4.5 9.3-4.5 9.3s9.3 9.8 14.6 6.1c5.5-3.6 1.1-1.8-1.5-5.1z"/><path class="st14" d="M-45.6 243.7s.9-4.2 3.8-5.8c2.9-1.6 12.1-4.8 12.1-4.8s1.8 3.1-.9 4.6c-2.7 1.5-7.1-.4-10 2.6-2.2 2.4-2.8 4.3-5 3.4z"/><path class="st23" d="M-57.7 311.2s7.9-22.4 9.9-23.5c2-1.1 7.2-2.8 7.2-2.8s1.4 2.4-.8 3.9c-.5.4-3 1.1-4.1 3.3-3.6 6.7-7.8 20.2-9.3 20.8-2.1.8-2.9-1.7-2.9-1.7z"/><path class="st4" d="M-4.5 318.1s10.5-2.6 11.9-3.8c1.5-1.3-5.8-22.5-8.7-27.4-.4-.7-2.6-3.6-2.1 1.8.3 2.9 2 22.3.5 24.6-1.6 2.5-1.6 4.8-1.6 4.8zM-7.6 352.2l-1.1-42.8s-2.3-1.2-3.4 1.9c-1.1 3-6.8 42.9-6.8 42.9 5.6-.5 11.3-2 11.3-2z"/></g></g><g><path class="st24" d="M22.6 264.8v-25c0-14.6 11.8-26.4 26.4-26.4 14.6 0 26.4 11.8 26.4 26.4v25"/><path class="st25" d="M84.9 344.1H13c-3.9 0-7-3.1-7-7v-65.3c0-3.9 3.1-7 7-7h71.8c3.9 0 7 3.1 7 7V337c.1 3.9-3.1 7.1-6.9 7.1z"/><circle cx="48.7" cy="295" r="12.6"/><path d="M54.7 329l-1.2-32h-10l-1.1 32z"/><path class="st22" d="M85.5 344.1H62.6l22.9-79.3c3.5 0 6.4 2.9 6.4 6.4v66.5c0 3.5-2.9 6.4-6.4 6.4z"/></g><g><path class="st24" d="M22.6 264.8v-25c0-14.6 11.8-26.4 26.4-26.4 14.6 0 26.4 11.8 26.4 26.4v25"/><path class="st25" d="M84.9 344.1H13c-3.9 0-7-3.1-7-7v-65.3c0-3.9 3.1-7 7-7h71.8c3.9 0 7 3.1 7 7V337c.1 3.9-3.1 7.1-6.9 7.1z"/><circle cx="48.7" cy="295" r="12.6"/><path d="M54.7 329l-1.2-32h-10l-1.1 32z"/></g><path class="st14" d="M11.6 330.3v-54.9c0-3.4 2.7-6.1 6.1-6.1l56.4.1s-.6 5.1-3.2 5.8-50-.1-50.6 1.9c-1.4 4.2-2.1 53.2-2.1 53.2h-6.6z"/><path class="st22" d="M85.4 264.8l-7.9 59.5c-.7 5.6-5.5 9.7-11.1 9.7H6.2v3.7c0 3.5 2.8 6.3 6.3 6.3h73.1c3.4 0 6.2-2.8 6.2-6.2v-66.6c-.1-3.6-2.8-6.4-6.4-6.4z"/></svg>