<svg width="250" height="265" viewBox="0 0 250 265" xmlns="http://www.w3.org/2000/svg"><title>vert-transport-header</title><g transform="translate(-1 -1)" fill="none" fill-rule="evenodd"><path d="M203.79.98c-15.414 0-27.91 12.496-27.91 27.91 0 27.91 27.91 61.4 27.91 61.4s27.91-33.49 27.91-61.4C231.694 13.478 219.202.986 203.79.98zm0 44.66c-9.25 0-16.75-7.5-16.75-16.75s7.5-16.75 16.75-16.75 16.75 7.5 16.75 16.75a16.74 16.74 0 0 1-16.75 16.77v-.02z" fill-opacity=".2" fill="#454545"/><g fill-opacity=".2" fill="#2B2B2B"><path d="M207.14 110.57l-1.13-2.78c-.48-1.19-1-2.43-1.5-3.73l-1.11-2.79 5.58-2.22 1.11 2.79c.51 1.29 1 2.52 1.48 3.69l1.13 2.78-5.56 2.26zM50.58 265.06c-1.12 0-2.25 0-3.35-.09l-3-.16.33-6 3 .16a57.48 57.48 0 0 0 7.7-.11l3-.24.48 6-3 .24c-1.72.12-3.46.2-5.16.2zm-21.31-3.88l-2.72-1.26a52 52 0 0 1-7.49-4.23l-2.49-1.71 3.38-5 2.48 1.69a46.1 46.1 0 0 0 6.62 3.74l2.72 1.26-2.5 5.51zm-23.35-18.8l-1.37-2.67a32 32 0 0 1-3-8.42l-.58-2.94 5.89-1.16.58 2.94a26 26 0 0 0 2.42 6.83l1.37 2.67-5.31 2.75zm2.85-27.76l-5.67-2 1-2.83a49 49 0 0 1 3.52-7.87l1.46-2.62 5.24 2.93-1.46 2.62a43 43 0 0 0-3.08 6.9l-1.01 2.87zm14.24-21.91l-3.5-4.88 2.44-1.75a60.35 60.35 0 0 1 7.28-4.45l2.66-1.39 2.77 5.32-2.65 1.42a54.36 54.36 0 0 0-6.56 4l-2.44 1.73zm192.53-4v-6h3a32.55 32.55 0 0 0 7.36-.83l2.92-.69 1.32 5.79-2.92.69c-2.86.664-5.785 1-8.72 1h-3l.04.04zm-14.71-2.94l-2.92-.7a527.728 527.728 0 0 0-7.86-1.84l-2.92-.66 1.33-5.85 2.93.66c2.667.607 5.313 1.227 7.94 1.86l2.92.7-1.42 5.83zm-153.38-4.65l-1.31-5.87 2.92-.67c2.61-.6 5.37-1.12 8.2-1.55l3-.46.91 5.93-3 .46c-2.69.41-5.3.91-7.77 1.47l-2.95.69zm125.81-1.4l-3-.53c-2.66-.48-5.33-.92-7.94-1.33l-3-.46.92-5.93 3 .46c2.65.41 5.37.87 8.07 1.35l3 .53-1.05 5.91zm70.59-1.56l-4.83-3.57 1.78-2.41a25.93 25.93 0 0 0 3.45-6.38l1-2.81 5.62 2.09-1 2.81a31.94 31.94 0 0 1-4.25 7.85l-1.77 2.42zm-168.5-.91l-.81-5.94 3-.41c2.71-.37 5.45-.71 8.14-1l3-.32.65 6-3 .32c-2.63.29-5.32.61-8 1l-2.98.35zm70.06-1.58l-3-.27c-2.67-.24-5.37-.45-8-.62l-3-.19.38-6 3 .19c2.7.17 5.45.38 8.17.63l3 .27-.55 5.99zm-42.09-1.15l-.22-6 3-.11c2.72-.1 5.48-.16 8.2-.18h3v6h-3c-2.66 0-5.36.08-8 .18l-2.98.11zm141.94-23.33l-1.41-2.65a12.79 12.79 0 0 0-4.37-4.83l-2.52-1.63 3.25-5 2.52 1.63a18.7 18.7 0 0 1 6.42 7.06l1.41 2.65-5.3 2.77zm-20.77-16.76l-2.35-1.93a44.88 44.88 0 0 1-6.16-6.11l-1.84-2.32 4.63-3.81 1.91 2.32a38.92 38.92 0 0 0 5.35 5.3l2.31 1.91-3.85 4.64zM73.57 261.07l-2.17-5.59 2.8-1.09c1.19-.46 2.39-1 3.56-1.48l2.74-1.22 2.44 5.48-2.74 1.22c-1.26.56-2.55 1.1-3.83 1.59l-2.8 1.09z"/></g><circle fill="#B2B2B2" cx="7.72" cy="83.23" r="-.05"/><g transform="translate(42 50)"><path d="M170.84 187.61l-34.89-34.88a6.17 6.17 0 0 0-8.73 8.72l12 12H33.37l12-12a6.17 6.17 0 0 0-8.73-8.72L1.76 187.61a6.17 6.17 0 0 0 8.72 8.72l10.53-10.53h130.57l10.56 10.54a6.17 6.17 0 0 0 8.7-8.73z" fill="#434955"/><path d="M27.81 158.64c-5.427-.006-9.824-4.403-9.83-9.83l3-135.61a9.86 9.86 0 0 1 9.83-9.89h111c5.427.006 9.824 4.403 9.83 9.83l3 135.72a9.83 9.83 0 0 1-9.83 9.78h-117z" fill="#A4C851"/><path d="M141.81 5.81a7.34 7.34 0 0 1 7.33 7.33v.11l3 135.6a7.34 7.34 0 0 1-7.33 7.29h-117a7.34 7.34 0 0 1-7.33-7.29l3-135.6v-.11a7.34 7.34 0 0 1 7.33-7.33h111zm0-5h-111C24 .81 18.48 6.33 18.48 13.14l-3 135.66c0 6.81 5.52 12.33 12.33 12.33h117c6.806 0 12.324-5.514 12.33-12.32l-3-135.66A12.33 12.33 0 0 0 141.81.82V.81z" fill="#7B9B3A"/><path d="M140.81 94.47h-109l1-56.66h107l1 56.66z" fill="#FFF"/><path d="M104.81 19.31a6.16 6.16 0 0 1-6.17 6.17H73.98a6.16 6.16 0 0 1-6.17-6.17 6.16 6.16 0 0 1 6.17-6.17h24.66a6.16 6.16 0 0 1 6.17 6.17z" fill="#7B9B3A"/><circle fill="#FFF" cx="43.14" cy="124.14" r="12.33"/><circle stroke="#F0C400" stroke-width="2" fill="#FFD900" cx="43.14" cy="124.14" r="6.17"/><circle fill="#FFF" cx="129.47" cy="124.14" r="12.33"/><circle stroke="#F0C400" stroke-width="2" fill="#FFD900" cx="129.47" cy="124.14" r="6.17"/><g fill="#000100"><path d="M28.26 161.14l-6.12 6.17h17.4l5.85-5.85c.09-.09.12-.22.21-.31H28.26v-.01zM144.36 161.14h-17.34c.08.1.11.22.2.31l5.86 5.86h17.45l-6.17-6.17z"/></g><path d="M104.81 19.31a6.17 6.17 0 0 1-6.17 6.17H73.97a6.16 6.16 0 0 1-6.16-6.17 4.88 4.88 0 0 1 0-.54c.32 3.11 2.94 4.54 6.13 4.54h24.7c3.2 0 5.82-1.43 6.14-4.54.02.18.03.36.03.54zM83.29 148.89c1-1 4.58-4.65 5.53-5.72l6.11-6.83c27-32.33 31.88-59.33 37.15-92.66 1.58-10 3.22-29.94 2.89-40V2.06c.29-.72 2.2-1.18 3-1.2 11.21-.36 14.29 4.26 16 11.34v1l2.52 135.94c.78 5.85-4.77 12.06-10.67 12.06H66.93c8.7-5.53 11.5-7.42 16.36-12.31z" opacity=".1" fill="#000"/></g></g></svg>