<svg id="Layer_1" xmlns="http://www.w3.org/2000/svg" viewBox="-382 531.2 362 362"><style>.st0,.st1,.st2,.st3,.st4{fill:#0ea2dc;stroke:#0b7aa5;stroke-width:10;stroke-miterlimit:10}.st1,.st2,.st3,.st4{opacity:.1;fill:none;stroke:#fff}.st2,.st3,.st4{opacity:.28}.st3,.st4{opacity:.46}.st4{opacity:.64}.st5{opacity:.82}.st5,.st6{fill:none;stroke:#fff;stroke-width:10;stroke-miterlimit:10}.st7{fill:#42210b}.st8{fill:#603813}.st9{fill:#faad40}.st10{fill:#f9e8d8}.st11{fill:#461a00}.st12{fill:#fbb03b}.st13{opacity:.2}.st14{opacity:.3;fill:#fff}.st15{fill:#9fdaf1}.st16{fill:#fff}.st17{fill:#0ea2dc}.st18{opacity:.8;fill:#fff}.st19{opacity:.1}</style><circle class="st0" cx="-201" cy="712.2" r="176"/><circle class="st1" cx="-201" cy="712.2" r="170.6"/><circle class="st2" cx="-201" cy="712.2" r="143.5"/><circle class="st3" cx="-201" cy="712.2" r="116.5"/><circle class="st4" cx="-201" cy="712.2" r="89.4"/><circle class="st5" cx="-201" cy="712.2" r="62.3"/><circle class="st6" cx="-201" cy="712.2" r="35.2"/><g><path class="st7" d="M-244 694.7c20.5-7.5 64.8-8 74.9-3.1 5.7 2.7 0-31.7 0-31.7l-43.5-26.5-24.4 8.8s-14.4 55.2-7 52.5z"/><path class="st8" d="M-240.8 637.8s2.8 20.3 1.3 25.3c-1.5 5-7.4 7.5-7.4 7.5s1.6 3.2 5 3.1c3.4-.1 12.5-4.7 12.5-4.7l-2.3-34.7-9.2-1.1.1 4.6z"/><path class="st9" d="M-279.4 778.3s-6.2 9.5-4.7 12.2c1.4 2.8-6.3 67-6.3 67l13 7.3s8.5-63.8 10.7-69.8c2.2-6.1 8.3-13.9 8.3-13.9l-21-2.8zM-122.6 778.3s6.2 9.5 4.7 12.2 6.3 67 6.3 67l-14.5 8s-7-64.5-9.2-70.6c-2.2-6.1-8.3-13.9-8.3-13.9l21-2.7z"/><path class="st10" d="M-217.3 691.9s-33.3 9.3-39.6 14.1-29.5 62.6-29.5 70.5c0 7.9 22.8 12.3 27.6 13 4.8.7 11.4-18.2 11.4-18.2l1.9 105.9s29.1 6.6 46.8 5.6 44.8-6.6 44.8-6.6l-2.8-109s8.2 22.6 10.7 22.3c2.5-.3 25.7-7 30.2-9.6 4.3-2.5-18.8-70-25.4-74.1-6.6-4.1-45.3-14.4-52.9-14-7.6.5-23.2.1-23.2.1z"/><path class="st9" d="M-193.1 684.2c0-15.2-10.1-12.5-10.1-12.5s-10.1-2.6-10.1 12.5c0 11.8-13.3 20.6 10.1 20.6s10.1-8.8 10.1-20.6z"/><path class="st9" d="M-214.3 694.8s-14.9 3.4-18.8 5.6c-3.9 2.2 13 9.7 29 9.7s34.8-7.2 37.4-9c2.6-1.8-37.4-9-37.4-9l-10.2 2.7zM-204.3 686.4c-11.3 0-37.5-21.7-31.2-77.7 1.7-15.1 31.2-14.4 31.2-14.4s28.9-.6 31.2 14.4c7.9 52-19.9 77.7-31.2 77.7z"/><circle class="st11" cx="-189.5" cy="631.9" r="3.2"/><path class="st12" d="M-161.7 625.4c0 9.3.6 16.8-6.1 16.8s-2.7-7.5-2.7-16.8 1.2-10.1 2.7-10.1 6.1.9 6.1 10.1z"/><circle class="st11" cx="-219.1" cy="631.9" r="3.2"/><path class="st13" d="M-212.6 645.5c.4 7.7 6.4 11 8.3 11s7.9-3.4 8.3-11c0 0-5.2 5-8.3 5-3.1 0-8.3-5-8.3-5zM-213.3 683.6l-.8 7.8s7.6 5.2 11.2 5.2c3.1 0 8.5-3.6 10.3-8.1 1-2.4-.7-3.8-.6-6.5 0 0-6 4-11.1 4s-9-2.4-9-2.4z"/><path class="st12" d="M-246.9 625.4c0 9.3-.6 16.8 6.1 16.8 6.7 0 2.7-7.5 2.7-16.8s-1.2-10.1-2.7-10.1c-1.5 0-6.1.9-6.1 10.1z"/><path class="st13" d="M-237 618.6s7.8 1.5 21 .9c15.5-.7 19.1-8.4 29.5-4.6 10.4 3.8 9.1 5.6 13 6.8 3.9 1.2 0 0 0 0v-30.3l-64 14.7.5 12.5z"/><path class="st8" d="M-156.4 680.5c-5.8-7.2-9.3-14.3-1.5-33.3 7.7-18.8 2.3-39.1-11-56.2-6.4-10.4-1.1-21.7-29.3-23.1-9-.4-16.3-.1-40.9 10.5-24.7 10.7-19.1 53.1-12.7 68.7 7.8 19 4.3 26.1-1.5 33.3-6.6 8.3-17.7 3.7-4.1 13.2s38.3-15.3 38.3-15.3-11.7-14.3-13.6-22.9c-2-9.3-5.9-44.3-1.8-43.4 28.6 5.8 51.9-18.1 55.9-4.8.9 3.1 1.9 12.6 3.7 16.5 0 0-4.7 21.3-3.2 30.7 1.5 9.4-11.5 23.8-11.5 23.8s23.7 25 37.3 15.6c13.5-9.6 2.5-5-4.1-13.3z"/><path class="st14" d="M-250.8 599.9s2.3-10.6 9.6-14.7c7.4-4.1 30.9-12.2 30.9-12.2s4.6 8-2.4 11.8-18.2-1.1-25.6 6.7c-5.3 5.8-6.9 10.6-12.5 8.4z"/><g><path class="st15" d="M-240.2 734.8h34.9v28.3h-34.9z"/><path class="st16" d="M-237.4 742.8h29.3v17.8h-29.3z"/><path class="st9" d="M-222.8 744.7h13.1v2.4h-13.1z"/><path class="st15" d="M-222.8 748.9h13.1v2.4h-13.1zM-222.8 752.5h13.1v2.4h-13.1zM-222.8 756.4h13.1v2.4h-13.1zM-235.3 744.7h10.5v14.1h-10.5z"/><circle class="st17" cx="-230.2" cy="748.8" r="2.9"/><path class="st17" d="M-234 758h8v-2.1c0-1.6-1.7-2.9-4-2.9s-4 1.3-4 2.9v2.1zM-217.8 738.6h-10l1.7-7.4c.3-1.5 1.7-2.6 3.2-2.6h.1c1.6 0 2.9 1.1 3.2 2.6l1.8 7.4z"/><circle class="st16" cx="-222.8" cy="732.5" r="1.9"/></g><path class="st18" d="M-281.7 771.8s20.1-57.1 25.2-59.8c5.2-2.8 18.3-7.2 18.3-7.2s3.5 6.1-2 9.9c-1.3.9-7.6 2.8-10.6 8.3-9.2 17.2-19.9 51.4-23.7 53-4.9 2.3-7.2-4.2-7.2-4.2z"/><path class="st19" d="M-146.1 789.5s26.7-6.5 30.2-9.6c3.8-3.3-14.9-57.5-22.3-69.8-1.1-1.9-6.6-9.1-5.3 4.7.7 7.5 5.1 56.7 1.4 62.8s-4 11.9-4 11.9zM-154 876.3l-2.8-109.1s-5.8-3-8.6 4.8c-2.8 7.7-17.3 109.2-17.3 109.2 14.4-1 28.7-4.9 28.7-4.9z"/></g></svg>