<svg id="Layer_1" data-name="Layer 1" xmlns="http://www.w3.org/2000/svg" viewBox="0 0 161.66 161.66"><defs><style>.cls-1{fill:#3b5272}.cls-2{fill:#ed4f7e}.cls-3{opacity:.2}.cls-4{fill:#fff}.cls-5{fill:#333c47}</style></defs><title>vert-health-home</title><circle class="cls-1" cx="79.83" cy="78.83" r="77.83"/><path class="cls-2" d="M124.26 63.31H104.6v-20a8.2 8.2 0 0 0-8.14-8H73.08c-4.39 0-6.48 3.66-6.48 8v20H45.27a7.64 7.64 0 0 0-7.68 7.85v23.39c0 4.39 3.29 8.77 7.68 8.77H66.6v19c0 4.39 2.1 8 6.48 8h23.38a8.13 8.13 0 0 0 8.14-8v-19h19.67c4.39 0 8.33-4.38 8.33-8.77V71.17c0-4.39-3.95-7.86-8.34-7.86z"/><path class="cls-3 cls-4" d="M100.6 44.31H79.28c-2 0-2.68 1.81-2.68 4v20.4c0 2.28-4.9 3.61-7.18 3.61H50.64a4.38 4.38 0 0 0-4 4.22v23.15s-4-.21-4-5V71.17c0-2 .5-3.85 2.68-3.85h20a4.16 4.16 0 0 0 4.31-4v-20c0-2.2 1.46-4 3.48-4h23.35a4.39 4.39 0 0 1 4.14 4.14v.86z"/><path class="cls-4" d="M94.62 104.31a1.3 1.3 0 0 1-1.16-1L84.6 72.17 76 97.76a1 1 0 0 1-1.16.56 1 1 0 0 1-1.16-.55l-6.44-17.35-3.71 8.78a1.7 1.7 0 0 1-1.13 1.11H57a1.53 1.53 0 0 1 0-3h4.62l4.63-10.52a1.26 1.26 0 0 1 1.14-.79 1.23 1.23 0 0 1 1.12.8l6.22 17 8.79-26.32a1.24 1.24 0 0 1 2.37.05l8.83 31.16 7-20.53a1.23 1.23 0 0 1 1.19-.84 1.15 1.15 0 0 1 1.17.76l3.86 12.18h49.85a1.53 1.53 0 0 1 0 3H107a1.39 1.39 0 0 1-1.18-1l-3-9.61-7 20.75a1.28 1.28 0 0 1-1.2.91z"/><path class="cls-5" d="M80.83 161.66a80.83 80.83 0 1 1 80.83-80.83 80.92 80.92 0 0 1-80.83 80.83zM80.83 6a74.83 74.83 0 1 0 74.83 74.83A74.91 74.91 0 0 0 80.83 6z"/></svg>