<svg xmlns="http://www.w3.org/2000/svg" viewBox="0 0 303.85 303.85"><defs><style>.cls-1{fill:none}.cls-2{isolation:isolate}.cls-3{fill:#3b5272;stroke:#333c47;stroke-miterlimit:10;stroke-width:10px}.cls-4{fill:#ffd900}.cls-5{fill:#ea507e}.cls-13,.cls-6{fill:#328b8f}.cls-7{fill:#44babd}.cls-8{fill:#919db2}.cls-9{fill:#bcc4d1}.cls-10{fill:#49505a}.cls-11{clip-path:url(#clip-path)}.cls-12{fill:#000100;opacity:.37;mix-blend-mode:multiply}.cls-13{opacity:.66}.cls-14{fill:#f8f9fa}.cls-15{fill:#13a1dc}.cls-16{fill:#132d47}.cls-17{fill:#fff}.cls-18{opacity:.3}</style><clipPath id="clip-path" transform="translate(-743.36 -155.66)"><path id="_Clipping_Path_" data-name="&amp;lt;Clipping Path&amp;gt;" class="cls-1" d="M935.47 203.31s-67.61 35.29-119.21 148.18a3 3 0 0 0-.42.91c-.63 1.28-1.24 2.56-1.87 3.85-1.19 2.46-2.4 4.9-3.58 7.37-.54 1.14-1.15 2.25-1.62 3.43q-2.72 5.48-5.44 10.95a.81.81 0 0 0 0 .69 34.74 34.74 0 0 0 1.52 3.68 53.84 53.84 0 0 0 11.5 15.8c.09-.11.19-.21.27-.32q2.13-2.81 4.27-5.61c1-1.3 1.95-2.6 2.92-3.91.13-.15.27-.3.39-.46l1.86-2.45a21.43 21.43 0 0 0 5.58 6.38c-.49.57-1 1.15-1.42 1.75l-3 3.59-1.13 1.34-3.81 4.52c.83.6 1.7 1.15 2.56 1.7a50.56 50.56 0 0 0 5.49 3 60.11 60.11 0 0 0 12.9 4.34.81.81 0 0 0 .72-.17c2.21-1.61 4.43-3.2 6.64-4.81 1.06-.77 2.1-1.55 3.15-2.33 1.43-1 2.87-2 4.29-3q4.7-3.32 9.39-6.65a27.45 27.45 0 0 0 2.37-1.75s97.14-72.53 117.32-149.88c0 .02-16.55-48.67-51.64-40.14z"/></clipPath></defs><title>vert-transport-future-b</title><g class="cls-2"><g id="Layer_3" data-name="Layer 3"><circle class="cls-3" cx="151.92" cy="151.92" r="146.92"/><g id="_Group_" data-name="&amp;lt;Group&amp;gt;"><g id="_Group_2" data-name="&amp;lt;Group&amp;gt;"><path id="_Path_" data-name="&amp;lt;Path&amp;gt;" class="cls-4" d="M69.61 231.95L49.4 242.82l6.96.79-14.14 9.33 6.28-1.01-15.12 22.94 7.6-3.8L28.31 296l8.88-3.9-2.7 11.24 21.24-17.07-2.37 9.89 13.25-16.89-.11 9.17 12.82-20.34 1.5 7.47 10.99-29.26-22.2-14.36z"/><path id="_Path_2" data-name="&amp;lt;Path&amp;gt;" class="cls-5" d="M44.23 283.67l-5.38 2.37 13.18-25.95-4.58 2.29 8.22-12.46 14.6-9.64-4.82-.55 3.94-2.12 16.47 10.66-3.61 9.62-.55-2.72-10.12 16.06.08-6.31-8.34 10.64.48-2.04-21.23 17.07 1.66-6.92z"/><path id="_Path_3" data-name="&amp;lt;Path&amp;gt;" class="cls-6" d="M852.8 288.59s-25.85-8.06-43 4.78-44.66 59.53-43.25 65.48 42.24-22.5 56.87-15.69 29.38-54.57 29.38-54.57z" transform="translate(-743.36 -155.66)"/><path id="_Path_4" data-name="&amp;lt;Path&amp;gt;" class="cls-7" d="M924.5 340s13.07 23.71 3.91 43.08-49.4 55.66-55.51 55.47 13.6-45.88 4-58.86S924.5 340 924.5 340z" transform="translate(-743.36 -155.66)"/><path id="_Path_5" data-name="&amp;lt;Path&amp;gt;" class="cls-8" d="M935.47 203.31s-68 35.47-119.63 149.09c-14.1 31 5.24 22.57 9.23 31.09 10.63 22.69 44.73 9.86 44.73 9.86s97.14-72.53 117.32-149.88c-.01 0-16.56-48.69-51.65-40.16z" transform="translate(-743.36 -155.66)"/><g id="_Group_4" data-name="&amp;lt;Group&amp;gt;"><path id="_Path_6" data-name="&amp;lt;Path&amp;gt;" class="cls-9" d="M830.23 393.53c.85-1.17 1.85-2.22 2.77-3.34 2.1-2.56 4.24-5.1 6.37-7.64.46-.55.95-1.09 1.42-1.64.86.69 1.82 1.25 2.72 1.87s2.06 1.31 3.11 1.93c1.46.87 3 1.63 4.5 2.4a70.92 70.92 0 0 0 7.91 3.37 67.21 67.21 0 0 0 7 2.11c1.23.3 2.49.48 3.72.76a27.46 27.46 0 0 1-2.37 1.75q-4.69 3.34-9.39 6.65l-4.29 3a.44.44 0 0 0-.46-.3c-2.27-.61-4.5-1.32-6.71-2.15a69.7 69.7 0 0 1-8.12-3.61c-1.93-1-3.81-2.12-5.64-3.3a18.31 18.31 0 0 1-2.54-1.86z" transform="translate(-743.36 -155.66)"/><path id="_Path_7" data-name="&amp;lt;Path&amp;gt;" class="cls-9" d="M833.78 375.22c-.7 1-1.5 2-2.25 3l-7.32 9.65c-.12.16-.26.31-.39.46a2.78 2.78 0 0 1-.28-.23c-.83-.89-1.72-1.72-2.56-2.6-1.2-1.26-2.33-2.57-3.43-3.92a62 62 0 0 1-4.59-6.47 58.57 58.57 0 0 1-3.71-7 3.38 3.38 0 0 0-.48-1c.47-1.18 1.08-2.29 1.62-3.43 1.17-2.47 2.38-4.91 3.58-7.37.62-1.28 1.24-2.57 1.87-3.85a2.41 2.41 0 0 1 .47-1 .76.76 0 0 1 .23.35 77.39 77.39 0 0 0 11.28 17.36c1 1.19 2.09 2.37 3.22 3.48a30.34 30.34 0 0 0 2.74 2.57z" transform="translate(-743.36 -155.66)"/><path id="_Path_8" data-name="&amp;lt;Path&amp;gt;" class="cls-10" d="M808.77 367a3.38 3.38 0 0 1 .48 1 58.57 58.57 0 0 0 3.71 7 62 62 0 0 0 4.59 6.47c1.09 1.35 2.23 2.66 3.43 3.92.84.88 1.72 1.72 2.56 2.6a2.78 2.78 0 0 0 .28.23c-1 1.3-1.94 2.61-2.92 3.91q-2.13 2.81-4.27 5.61c-.08.11-.18.21-.27.32a53.84 53.84 0 0 1-11.5-15.8 34.77 34.77 0 0 1-1.52-3.68.81.81 0 0 1 0-.69q2.72-5.37 5.43-10.89z" transform="translate(-743.36 -155.66)"/><path id="_Path_9" data-name="&amp;lt;Path&amp;gt;" class="cls-10" d="M830.23 393.53a18.31 18.31 0 0 0 2.59 1.86c1.83 1.17 3.71 2.28 5.64 3.3a69.7 69.7 0 0 0 8.12 3.61c2.2.82 4.44 1.53 6.71 2.15a.44.44 0 0 1 .46.3c-1 .78-2.09 1.56-3.15 2.33-2.21 1.61-4.44 3.2-6.64 4.81a.81.81 0 0 1-.72.17 60.1 60.1 0 0 1-12.9-4.34 50.57 50.57 0 0 1-5.49-3c-.87-.55-1.73-1.1-2.56-1.7l3.78-4.55 1.13-1.34z" transform="translate(-743.36 -155.66)"/><g class="cls-11" id="_Clip_Group_2" data-name="&amp;lt;Clip Group&amp;gt;"><path id="_Path_10" data-name="&amp;lt;Path&amp;gt;" class="cls-12" d="M887.36 316.13s-17-20.93-38.31-4.6-55.44 74.66-63.83 86.56c-5.51 7.81 53.48-53.25 57.32-37.79 1.08 4.34 44.82-44.17 44.82-44.17z" transform="translate(-743.36 -155.66)"/></g><path id="_Path_11" data-name="&amp;lt;Path&amp;gt;" class="cls-7" d="M833.78 375.22c1-1.32 2-2.64 3.06-4l8.89-11.69 8.2-10.77c2.94-3.86 5.9-7.71 8.83-11.58 2.15-2.84 4.26-5.72 6.41-8.56a95.48 95.48 0 0 1 6.4-7.64 36.34 36.34 0 0 1 5.08-4.63 12.63 12.63 0 0 1 2.55-1.48 5.58 5.58 0 0 1 2-.48 3.26 3.26 0 0 1 3.33 2.52 5.55 5.55 0 0 1-.06 2.63 15.86 15.86 0 0 1-1.59 4 55.59 55.59 0 0 1-3.27 5.15c-1.06 1.55-2.19 3-3.36 4.5q-2.24 2.81-4.55 5.57c-1.62 1.93-3.15 3.93-4.75 5.88q-4.22 5.14-8.47 10.25l-8.53 10.27-5.77 6.91-5.62 6.72c-.6.71-1.22 1.4-1.76 2.15-.47.54-1 1.08-1.42 1.64-2.13 2.54-4.27 5.07-6.37 7.64-.92 1.12-1.92 2.17-2.77 3.34l-3 3.59-1.13 1.34-3.83 4.51-3.58 4.25-10 11.94-9.7 11.5-2 2.26c-.29.33-.3.34-.64.08q-1.87-1.44-3.72-2.9c-.29-.23-.28-.24 0-.63q1.87-2.49 3.74-5l10.65-14.07 7.45-9.82c.62-.82 1.22-1.65 1.83-2.48.09-.11.19-.21.27-.32q2.13-2.81 4.27-5.61c1-1.3 1.95-2.6 2.92-3.91.13-.15.27-.3.39-.46l7.32-9.65c.8-.97 1.61-1.92 2.3-2.96z" transform="translate(-743.36 -155.66)"/><path id="_Path_12" data-name="&amp;lt;Path&amp;gt;" class="cls-13" d="M792.68 430.13l1.84 1.44c27.34-34.39 83.46-104.82 92.77-116.51a3.32 3.32 0 0 0-2.11-.65 5.58 5.58 0 0 0-2 .48 12.64 12.64 0 0 0-2.55 1.49 36.34 36.34 0 0 0-5.08 4.63 95.52 95.52 0 0 0-6.4 7.64c-2.15 2.84-4.26 5.72-6.41 8.56-2.93 3.87-5.89 7.72-8.83 11.58l-8.2 10.77-8.89 11.69c-1 1.33-2 2.65-3.06 4-.7 1-1.5 2-2.25 3l-7.32 9.65c-.12.16-.26.31-.39.46-1 1.3-1.94 2.61-2.92 3.91q-2.13 2.81-4.27 5.61c-.08.11-.18.21-.27.32-.61.83-1.21 1.66-1.83 2.48l-7.45 9.82-10.65 14.07q-1.88 2.48-3.74 5c-.27.32-.27.33.01.56z" transform="translate(-743.36 -155.66)"/><circle class="cls-5" cx="922.84" cy="273.72" r="24.16" transform="rotate(-53.24 395.815 937.483)"/><path class="cls-14" d="M930.71 263.18c-7.4-5.53-17-6.21-25.63-2.73-.91 9.23 2.49 18.28 9.89 23.81s17 6.21 25.63 2.73c.91-9.23-2.49-18.28-9.89-23.81z" transform="translate(-743.36 -155.66)"/><circle class="cls-15" cx="922.84" cy="273.72" r="12.69" transform="rotate(-53.24 395.815 937.483)"/><ellipse class="cls-16" cx="922.15" cy="273.21" rx="5.15" ry="4.29" transform="rotate(-53.24 395.152 936.963)"/><circle class="cls-17" cx="922.7" cy="269.15" r="2.85" transform="rotate(-53.24 395.685 932.912)"/><path id="_Compound_Path_" data-name="&amp;lt;Compound Path&amp;gt;" class="cls-7" d="M901.8 261.34a23.94 23.94 0 1 0 32.86-8.59 23.95 23.95 0 0 0-32.86 8.59zm37.91-17.29a33.75 33.75 0 1 1-46.1 12.09 33.75 33.75 0 0 1 46.1-12.09z" transform="translate(-743.36 -155.66)"/><path class="cls-18" d="M905.56 302.7c.65.38 1.3.74 2 1.08A33.11 33.11 0 0 1 918 240.22a33.75 33.75 0 0 0-12.44 62.48z" transform="translate(-743.36 -155.66)"/></g><path id="_Path_13" data-name="&amp;lt;Path&amp;gt;" class="cls-7" d="M985.39 249.5c14-31.39 16.27-76.78 16.27-76.78l-.08-.07s-45.6 15-71.29 33.66c0 0 10.84 18.12 22.38 27.17l1.61 1.26c11.27 8.84 31.11 14.76 31.11 14.76z" transform="translate(-743.36 -155.66)"/><path id="_Path_14" data-name="&amp;lt;Path&amp;gt;" class="cls-13" d="M1001.59 172.65s-45.6 15-71.29 33.66c0 0 8.88 14.85 19.12 24.37 10.9-21.81 41.98-49.35 52.17-58.03z" transform="translate(-743.36 -155.66)"/></g></g></g></g></svg>