<svg id="Layer_1" xmlns="http://www.w3.org/2000/svg" viewBox="0 0 193.9 194"><style>.st0{fill:#613d6e}.st1{fill:#9b5ca3}.st2{opacity:.4}.st3{fill:#f8ce86}.st4{fill:#dcae6c}.st5{fill:#6b7482}.st6{fill:#525662}.st7{fill:#cfe9ff}.st8{opacity:.7}.st9{fill:#a5d0ec}.st10{fill:#fff}.st11{fill:#ee7a99}.st12{fill:#de738e}</style><path class="st0" d="M77.6 38.3L183 143.7l-38.7 38.7L38.9 77l38.7-38.7z"/><path class="st1" d="M72.8 43.1l107 107-29.1 29.1-107-107 29.1-29.1z"/><path transform="rotate(-134.999 111.713 111.194)" class="st2 st0" d="M36.1 107.1h151.3v8.2H36.1z"/><path class="st3" d="M144.1 182.6l3.5-14.3 15.9-4.8 5.1-16.1 14.6-3.9 10.7 50.5z"/><path class="st4" d="M144.1 182.6l3.5-14.3 15.9-4.8 30.4 30.5z"/><path class="st5" d="M189.1 171.1l-17.8 17.7 22.6 5.2z"/><path class="st6" d="M180 180.1l-8.7 8.7 22.6 5.2z"/><g><path transform="rotate(-134.967 47.404 47.3)" class="st7" d="M32.4 20h30v54.6h-30z"/></g><g class="st8"><path transform="rotate(-44.968 34.238 60.453)" class="st9" d="M25.3 45.5h17.8v30H25.3z"/></g><g class="st2"><path transform="rotate(-44.968 64.026 30.594)" class="st10" d="M60.3 15.7h7.5v29.8h-7.5z"/></g><g><path class="st11" d="M5.6 44.4l11.7 11.7 38.8-38.7L44.4 5.7c-9-9-15.6-6-21.6 0L5.6 22.9c-5.9 5.9-5.9 15.6 0 21.5z"/></g><g><path class="st12" d="M21.2 34.7c-4.9-4.9-4.9-12.7 0-17.6L36 2.3c.6-.6 1.2-1.1 1.8-1.5-4.4-1.6-9.5-.6-13 2.9L3.6 24.8c-4.9 4.9-4.9 12.7 0 17.6l13.7 13.7 12.6-12.6-8.7-8.8z"/></g></svg>