<svg id="Layer_1" xmlns="http://www.w3.org/2000/svg" xmlns:xlink="http://www.w3.org/1999/xlink" viewBox="-103 105.1 303.9 303.9"><style>.st0{fill:none}.st1{fill:#f9e8d8}.st2{fill:#0ea2dc}.st3{fill:#ed4f7e;stroke:#b23b5f;stroke-width:10;stroke-miterlimit:10}.st4{fill:#faad40}.st5{fill:#fff}.st6{fill:#666}.st7{fill:#37bec0}.st8{fill:#9b5ca4}.st9{fill:#a4ce4e}.st10{fill:#ed4f7e}.st11{opacity:.3;fill:#fff}.st12{fill:#4d4d4d}.st13{fill:url(#SVGID_1_)}</style><pattern x="-103" y="409" width="40" height="40" patternUnits="userSpaceOnUse" id="New_Pattern_Swatch_6" viewBox="110.2 -135.3 40 40" overflow="visible"><path class="st0" d="M110.2-135.3h40v40h-40z"/><path class="st1" d="M140-23.7l23.7-86.8 86.8 23.7L226.8 0z"/><path class="st1" d="M120-23.7l23.7-86.8 86.8 23.7L206.8 0z"/><path class="st1" d="M100-23.7l23.7-86.8 86.8 23.7L186.8 0z"/><path class="st1" d="M80-23.7l23.7-86.8 86.8 23.7L166.8 0z"/><path class="st1" d="M60-23.7l23.7-86.8 86.8 23.7L146.8 0z"/><path class="st1" d="M40-23.7l23.7-86.8 86.8 23.7L126.8 0z"/><path class="st1" d="M20-23.7l23.7-86.8 86.8 23.7L106.8 0z"/><path class="st1" d="M0-23.7l23.7-86.8 86.8 23.7L86.8 0zM150-43.7l23.7-86.8 86.8 23.7L236.8-20z"/><path class="st1" d="M130-43.7l23.7-86.8 86.8 23.7L216.8-20z"/><path class="st1" d="M110-43.7l23.7-86.8 86.8 23.7L196.8-20z"/><path class="st1" d="M90-43.7l23.7-86.8 86.8 23.7L176.8-20z"/><path class="st1" d="M70-43.7l23.7-86.8 86.8 23.7L156.8-20z"/><path class="st1" d="M50-43.7l23.7-86.8 86.8 23.7L136.8-20z"/><path class="st1" d="M30-43.7l23.7-86.8 86.8 23.7L116.8-20z"/><path class="st1" d="M10-43.7l23.7-86.8 86.8 23.7L96.8-20zM140-63.7l23.7-86.8 86.8 23.7L226.8-40z"/><path class="st1" d="M120-63.7l23.7-86.8 86.8 23.7L206.8-40z"/><path class="st1" d="M100-63.7l23.7-86.8 86.8 23.7L186.8-40z"/><path class="st2" d="M176.7-95.7c0 9.1-7.4 16.5-16.5 16.5s-16.5-7.4-16.5-16.5 7.4-16.5 16.5-16.5 16.5 7.3 16.5 16.5z"/><path class="st1" d="M80-63.7l23.7-86.8 86.8 23.7L166.8-40z"/><path class="st2" d="M156.7-95.7c0 9.1-7.4 16.5-16.5 16.5s-16.5-7.4-16.5-16.5 7.4-16.5 16.5-16.5 16.5 7.3 16.5 16.5z"/><path class="st1" d="M60-63.7l23.7-86.8 86.8 23.7L146.8-40z"/><path class="st2" d="M136.7-95.7c0 9.1-7.4 16.5-16.5 16.5s-16.5-7.4-16.5-16.5 7.4-16.5 16.5-16.5 16.5 7.3 16.5 16.5z"/><path class="st1" d="M40-63.7l23.7-86.8 86.8 23.7L126.8-40z"/><path class="st2" d="M116.7-95.7c0 9.1-7.4 16.5-16.5 16.5s-16.5-7.4-16.5-16.5 7.4-16.5 16.5-16.5 16.5 7.3 16.5 16.5z"/><path class="st1" d="M20-63.7l23.7-86.8 86.8 23.7L106.8-40z"/><path class="st1" d="M0-63.7l23.7-86.8 86.8 23.7L86.8-40zM150-83.7l23.7-86.8 86.8 23.7L236.8-60z"/><path class="st1" d="M130-83.7l23.7-86.8 86.8 23.7L216.8-60z"/><path class="st1" d="M110-83.7l23.7-86.8 86.8 23.7L196.8-60z"/><path class="st1" d="M90-83.7l23.7-86.8 86.8 23.7L176.8-60z"/><path class="st2" d="M166.7-115.7c0 9.1-7.4 16.5-16.5 16.5s-16.5-7.4-16.5-16.5 7.4-16.5 16.5-16.5 16.5 7.3 16.5 16.5z"/><path class="st1" d="M70-83.7l23.7-86.8 86.8 23.7L156.8-60z"/><path class="st2" d="M146.7-115.7c0 9.1-7.4 16.5-16.5 16.5s-16.5-7.4-16.5-16.5 7.4-16.5 16.5-16.5 16.5 7.3 16.5 16.5z"/><path class="st1" d="M50-83.7l23.7-86.8 86.8 23.7L136.8-60z"/><path class="st2" d="M126.7-115.7c0 9.1-7.4 16.5-16.5 16.5s-16.5-7.4-16.5-16.5 7.4-16.5 16.5-16.5 16.5 7.3 16.5 16.5z"/><path class="st1" d="M30-83.7l23.7-86.8 86.8 23.7L116.8-60z"/><path class="st1" d="M10-83.7l23.7-86.8 86.8 23.7L96.8-60zM140-103.7l23.7-86.8 86.8 23.7L226.8-80z"/><path class="st1" d="M120-103.7l23.7-86.8 86.8 23.7L206.8-80z"/><path class="st1" d="M100-103.7l23.7-86.8 86.8 23.7L186.8-80z"/><path class="st2" d="M176.7-135.7c0 9.1-7.4 16.5-16.5 16.5s-16.5-7.4-16.5-16.5 7.4-16.5 16.5-16.5 16.5 7.3 16.5 16.5z"/><path class="st1" d="M80-103.7l23.7-86.8 86.8 23.7L166.8-80z"/><path class="st2" d="M156.7-135.7c0 9.1-7.4 16.5-16.5 16.5s-16.5-7.4-16.5-16.5 7.4-16.5 16.5-16.5 16.5 7.3 16.5 16.5z"/><path class="st1" d="M60-103.7l23.7-86.8 86.8 23.7L146.8-80z"/><path class="st2" d="M136.7-135.7c0 9.1-7.4 16.5-16.5 16.5s-16.5-7.4-16.5-16.5 7.4-16.5 16.5-16.5 16.5 7.3 16.5 16.5z"/><path class="st1" d="M40-103.7l23.7-86.8 86.8 23.7L126.8-80z"/><path class="st2" d="M116.7-135.7c0 9.1-7.4 16.5-16.5 16.5s-16.5-7.4-16.5-16.5 7.4-16.5 16.5-16.5 16.5 7.3 16.5 16.5z"/><path class="st1" d="M20-103.7l23.7-86.8 86.8 23.7L106.8-80z"/><path class="st1" d="M0-103.7l23.7-86.8 86.8 23.7L86.8-80zM150-123.7l23.7-86.8 86.8 23.7-23.7 86.8z"/><path class="st1" d="M130-123.7l23.7-86.8 86.8 23.7-23.7 86.8z"/><path class="st1" d="M110-123.7l23.7-86.8 86.8 23.7-23.7 86.8z"/><path class="st1" d="M90-123.7l23.7-86.8 86.8 23.7-23.7 86.8z"/><path class="st1" d="M70-123.7l23.7-86.8 86.8 23.7-23.7 86.8z"/><g><path class="st1" d="M50-123.7l23.7-86.8 86.8 23.7-23.7 86.8z"/></g><g><path class="st1" d="M30-123.7l23.7-86.8 86.8 23.7-23.7 86.8z"/></g><g><path class="st1" d="M10-123.7l23.7-86.8 86.8 23.7L96.8-100z"/></g><g><path class="st1" d="M140-143.7l23.7-86.8 86.8 23.7-23.7 86.8z"/></g><g><path class="st1" d="M120-143.7l23.7-86.8 86.8 23.7-23.7 86.8z"/></g><g><path class="st1" d="M100-143.7l23.7-86.8 86.8 23.7-23.7 86.8z"/></g><g><path class="st1" d="M80-143.7l23.7-86.8 86.8 23.7-23.7 86.8z"/></g><g><path class="st1" d="M60-143.7l23.7-86.8 86.8 23.7-23.7 86.8z"/></g><g><path class="st1" d="M40-143.7l23.7-86.8 86.8 23.7-23.7 86.8z"/></g><g><path class="st1" d="M20-143.7l23.7-86.8 86.8 23.7-23.7 86.8z"/></g><g><path class="st1" d="M0-143.7l23.7-86.8 86.8 23.7L86.8-120z"/></g></pattern><title>vert-transport-future-b</title><circle class="st3" cx="48.9" cy="257.1" r="146.9" id="Layer_3"/><path class="st4" d="M41.3 224.6l-26.8 10.2s2.3 7.2 6.3 9.5 18.8-5.3 18.8-5.3l1.7-14.4zM129.1 226.6s4.5 24.5 3.8 31.7c-.7 7.2-11.7 31.6-16.3 41-4.6 9.4-37.3 17.3-44 21.6-6.7 4.3-9.4-21.6-9.4-21.6s10.9-25.9 23.3-30.9 42.6-41.8 42.6-41.8z"/><path class="st5" d="M62 311.6L3.8 290.7c-6.7-2.4-9.2-10.6-5-16.3l75.7-103.7c2.8-3.8 7.8-5.3 12.2-3.7l58.2 20.9c6.7 2.4 9.2 10.6 5 16.3L74.2 307.8c-2.8 3.8-7.8 5.4-12.2 3.8z"/><path class="st6" d="M67.2 293.6l-47.2-17c-5.4-1.9-7.5-8.6-4.1-13.2l61.4-84.1c2.3-3.1 6.3-4.3 9.9-3l47.2 17c5.4 1.9 7.5 8.6 4.1 13.2l-61.4 84.1c-2.3 3-6.3 4.3-9.9 3z"/><path class="st7" d="M80.7 195.3l-4.9-1.8c-1.7-.6-2.3-2.7-1.2-4.2l3.5-4.5c.7-.9 2-1.3 3.1-.9l4.9 1.8c1.7.6 2.3 2.7 1.2 4.2l-3.5 4.5c-.8 1-2 1.3-3.1.9z"/><path class="st4" d="M94.1 200.6l-4.9-1.8c-1.7-.6-2.3-2.7-1.2-4.2l3.5-4.5c.7-.9 2-1.3 3.1-.9l4.9 1.8c1.7.6 2.3 2.7 1.2 4.2l-3.5 4.5c-.8.9-2 1.3-3.1.9z"/><path class="st2" d="M108.7 205.8l-4.9-1.8c-1.7-.6-2.3-2.7-1.2-4.2l3.5-4.5c.7-.9 2-1.3 3.1-.9l4.9 1.8c1.7.6 2.3 2.7 1.2 4.2l-3.5 4.5c-.8.9-2 1.3-3.1.9z"/><path class="st8" d="M123.7 211.4l-4.9-1.8c-1.7-.6-2.3-2.7-1.2-4.2l3.5-4.5c.7-.9 2-1.3 3.1-.9l4.9 1.8c1.7.6 2.3 2.7 1.2 4.2l-3.5 4.5c-.8 1-2 1.3-3.1.9z"/><path class="st2" d="M71.1 209.9l-4.9-1.8c-1.7-.6-2.3-2.7-1.2-4.2l3.5-4.5c.7-.9 2-1.3 3.1-.9l4.9 1.8c1.7.6 2.3 2.7 1.2 4.2l-3.5 4.5c-.7 1-2 1.3-3.1.9z"/><path class="st9" d="M84.5 215.2l-4.9-1.8c-1.7-.6-2.3-2.7-1.2-4.2l3.5-4.5c.7-.9 2-1.3 3.1-.9l4.9 1.8c1.7.6 2.3 2.7 1.2 4.2l-3.5 4.5c-.8.9-2 1.3-3.1.9z"/><path class="st8" d="M99.1 220.4l-4.9-1.8c-1.7-.6-2.3-2.7-1.2-4.2l3.5-4.5c.7-.9 2-1.3 3.1-.9l4.9 1.8c1.7.6 2.3 2.7 1.2 4.2l-3.5 4.5c-.7.9-2 1.3-3.1.9z"/><path class="st10" d="M114.1 226.1l-4.9-1.8c-1.7-.6-2.3-2.7-1.2-4.2l3.5-4.5c.7-.9 2-1.3 3.1-.9l4.9 1.8c1.7.6 2.3 2.7 1.2 4.2l-3.5 4.5c-.8.9-2 1.3-3.1.9z"/><path class="st7" d="M59.9 225.2l-4.9-1.8c-1.7-.6-2.3-2.7-1.2-4.2l3.5-4.5c.7-.9 2-1.3 3.1-.9l4.9 1.8c1.7.6 2.3 2.7 1.2 4.2l-3.5 4.5c-.8 1-2 1.3-3.1.9z"/><path class="st4" d="M73.3 230.4l-4.9-1.8c-1.7-.6-2.3-2.7-1.2-4.2l3.5-4.5c.7-.9 2-1.3 3.1-.9l4.9 1.8c1.7.6 2.3 2.7 1.2 4.2l-3.5 4.5c-.8 1-2 1.3-3.1.9z"/><path class="st2" d="M87.9 235.6l-4.9-1.8c-1.7-.6-2.3-2.7-1.2-4.2l3.5-4.5c.7-.9 2-1.3 3.1-.9l4.9 1.8c1.7.6 2.3 2.7 1.2 4.2l-3.5 4.5c-.8 1-2 1.3-3.1.9z"/><path class="st8" d="M102.9 241.3l-4.9-1.8c-1.7-.6-2.3-2.7-1.2-4.2l3.5-4.5c.7-.9 2-1.3 3.1-.9l4.9 1.8c1.7.6 2.3 2.7 1.2 4.2l-3.5 4.5c-.8 1-2 1.3-3.1.9z"/><path class="st2" d="M50.3 239.8l-4.9-1.8c-1.7-.6-2.3-2.7-1.2-4.2l3.5-4.5c.7-.9 2-1.3 3.1-.9l4.9 1.8c1.7.6 2.3 2.7 1.2 4.2l-3.5 4.5c-.7 1-2 1.3-3.1.9z"/><path class="st9" d="M63.7 245l-4.9-1.8c-1.7-.6-2.3-2.7-1.2-4.2l3.5-4.5c.7-.9 2-1.3 3.1-.9l4.9 1.8c1.7.6 2.3 2.7 1.2 4.2l-3.5 4.5c-.8 1-2 1.3-3.1.9z"/><path class="st8" d="M78.3 250.2l-4.9-1.8c-1.7-.6-2.3-2.7-1.2-4.2l3.5-4.5c.7-.9 2-1.3 3.1-.9l4.9 1.8c1.7.6 2.3 2.7 1.2 4.2l-3.5 4.5c-.7 1-2 1.3-3.1.9z"/><path class="st10" d="M93.3 255.9l-4.9-1.8c-1.7-.6-2.3-2.7-1.2-4.2l3.5-4.5c.7-.9 2-1.3 3.1-.9l4.9 1.8c1.7.6 2.3 2.7 1.2 4.2l-3.5 4.5c-.8 1-2 1.3-3.1.9z"/><path class="st7" d="M37.6 255.3l-4.9-1.8c-1.7-.6-2.3-2.7-1.2-4.2l3.5-4.5c.7-.9 2-1.3 3.1-.9l4.9 1.8c1.7.6 2.3 2.7 1.2 4.2l-3.5 4.5c-.7.9-2 1.3-3.1.9z"/><path class="st4" d="M51 260.5l-4.9-1.8c-1.7-.6-2.3-2.7-1.2-4.2l3.5-4.5c.7-.9 2-1.3 3.1-.9l4.9 1.8c1.7.6 2.3 2.7 1.2 4.2l-3.5 4.5c-.7.9-2 1.3-3.1.9z"/><path class="st2" d="M65.7 265.7l-4.9-1.8c-1.7-.6-2.3-2.7-1.2-4.2l3.5-4.5c.7-.9 2-1.3 3.1-.9l4.9 1.8c1.7.6 2.3 2.7 1.2 4.2l-3.5 4.5c-.8.9-2 1.3-3.1.9z"/><path class="st8" d="M80.6 271.4l-4.9-1.8c-1.7-.6-2.3-2.7-1.2-4.2l3.5-4.5c.7-.9 2-1.3 3.1-.9l4.9 1.8c1.7.6 2.3 2.7 1.2 4.2l-3.5 4.5c-.7.9-2 1.3-3.1.9z"/><path class="st2" d="M28.1 269.9l-4.9-1.8c-1.7-.6-2.3-2.7-1.2-4.2l3.5-4.5c.7-.9 2-1.3 3.1-.9l4.9 1.8c1.7.6 2.3 2.7 1.2 4.2l-3.5 4.5c-.8.9-2 1.3-3.1.9z"/><path class="st9" d="M41.5 275.1l-4.9-1.8c-1.7-.6-2.3-2.7-1.2-4.2l3.5-4.5c.7-.9 2-1.3 3.1-.9l4.9 1.8c1.7.6 2.3 2.7 1.2 4.2l-3.5 4.5c-.8.9-2 1.3-3.1.9z"/><path class="st8" d="M56.1 280.3l-4.9-1.8c-1.7-.6-2.3-2.7-1.2-4.2l3.5-4.5c.7-.9 2-1.3 3.1-.9l4.9 1.8c1.7.6 2.3 2.7 1.2 4.2l-3.5 4.5c-.7.9-2 1.3-3.1.9z"/><path class="st10" d="M71.1 286l-4.9-1.8c-1.7-.6-2.3-2.7-1.2-4.2l3.5-4.5c.7-.9 2-1.3 3.1-.9l4.9 1.8c1.7.6 2.3 2.7 1.2 4.2l-3.5 4.5c-.8.9-2 1.3-3.1.9z"/><path class="st11" d="M20 276.6c-5.4-1.9-7.5-8.6-4.1-13.2l61.4-84.1c2.3-3.1 6.3-4.3 9.9-3l47.2 17c5.4 1.9 7.5 8.6 4.1 13.2L20 276.6z"/><path class="st4" d="M10 311.1s35.2-15.4 43.1-27.6 15.9-20.1 17.1-28.9 1.8-28.7 4.9-33c3.1-4.3 14.6-5.8 15 0 .4 5.8.9 19.4 1.4 24.1.4 4.7-1 19-1.4 24.7s8.1 20.3 8.1 20.3c11.2-2 19 18-21 30.7-11.1 3.6-41.2 7.5-41.2 7.5l-26-17.8z"/><path class="st5" d="M-58.4 335.6l64.7-31.5s22.1.8 32 7.1c9.9 6.3 22.7 18.7 19 21.2-3.7 2.6-65.4 48.1-65.4 48.1l-50.3-44.9z"/><path class="st12" d="M-69 335.6l48.1-23.4s36.3-.3 49.4 7c13.2 7.3 30.1 22 25.1 25.1s-60.9 43.3-60.9 43.3c1 .6-17.5-6.9-36.8-23-17.4-14.7-24.9-29-24.9-29z"/><pattern id="SVGID_1_" xlink:href="#New_Pattern_Swatch_6" patternTransform="translate(1150.204 1390.144) scale(1.1574)"/><path class="st13" d="M76.4 233.1s-.9-8.9 1.5-11c2.4-2.2 9.2-3.1 9.8-1.5.6 1.5 1.8 9.5.7 10.8-1.1 1.2-12 1.7-12 1.7z"/></svg>