<svg id="Layer_1" xmlns="http://www.w3.org/2000/svg" viewBox="120 81 800 800"><style>.st0{fill:#b3b3b3}.st1{fill:#ccc}.st2{fill:#999}.st3{fill:#461a00}.st4{fill:gray}.st5,.st6{enable-background:new}.st5{fill:#4d4d4d;opacity:.4}.st6{opacity:.2}.st7{fill:#666}.st8{opacity:.3;fill:#fff;enable-background:new}.st10,.st11,.st9{stroke:#999;stroke-miterlimit:10}.st9{stroke-linecap:round;stroke-linejoin:round;fill:none;stroke-width:9}.st10,.st11{fill:#b3b3b3;stroke-width:12}.st11{fill:#fff;stroke-width:9}.st12,.st13{enable-background:new}.st13{opacity:.2;fill:#fff}.st14{fill:#969696}.st15{fill:#f2f2f2}.st16,.st17{fill:#fff}.st17{opacity:.4;enable-background:new}</style><path class="st0" d="M443 786.5s-5.6 8.5-4.3 11C440 800 433 853 433 853h14s5.5-46 7.5-51.5S462 789 462 789l-19-2.5zM585 786.5s5.6 8.5 4.3 11S595 853 595 853h-14s-5.5-46-7.5-51.5S566 789 566 789l19-2.5z"/><path class="st1" d="M499.2 708.3s-30.1 8.4-35.8 12.7c-5.7 4.3-26.7 56.7-26.7 63.8s20.6 11.1 25 11.8c4.3.7 10.3-16.6 10.3-16.6l1.5 73H555l-1-76.6s7.4 20.5 9.7 20.3c2.3-.3 23.3-6.3 27.3-8.7 3.9-2.2-17-63.3-23-67s-41-13-47.9-12.7c-6.8.4-20.9 0-20.9 0z"/><path class="st2" d="M512 692s12-2.4 12 11.3c0 10.7 15.7 18.7-12 18.7M512 692s-12-2.4-12 11.3c0 10.7-15.7 18.7 12 18.7"/><path class="st0" d="M511 702.5c-40 0-34-67-30.5-81.5 3.2-13.3 30.5-13 30.5-13s27.3-.3 30.5 13c3.5 14.5 9.5 81.5-30.5 81.5z"/><circle class="st3" cx="527.2" cy="641.8" r="2.9"/><path class="st4" d="M549.6 642.2c0 8.4.5 15.2-5.5 15.2s-2.4-6.8-2.4-15.2 1.1-15.2 2.4-15.2c1.3 0 5.5 6.8 5.5 15.2z"/><circle class="st3" cx="494.8" cy="641.8" r="2.9"/><path class="st5" d="M503.5 657.3c.3 7 3.2 15 7.5 15s7.2-8 7.5-15c0 0-2.8 5.5-7.5 5.5s-7.5-5.5-7.5-5.5z"/><path class="st4" d="M472.4 642.2c0 8.4-.5 15.2 5.5 15.2s2.4-6.8 2.4-15.2-1.1-15.2-2.4-15.2-5.5 6.8-5.5 15.2z"/><path class="st6" d="M481.5 630s9.2-4.5 16.1-3 15 2.5 20.9 3 8.8-3.3 8.8-3.3 8.3 11.1 11.8 12.2c3.5 1.1 0 0 0 0v-33.5l-58 13.3.4 11.3z"/><path class="st7" d="M477.4 629c3.1-2 .9 6.3 3.9 9.7 3 3.3 4.7-12 5.7-16s18.3 0 28.3 1.7 15.7-12.7 15.7-12.7-1.3 15 1.3 17.7c2.7 2.7 5.2 13.5 7.7 13.5s.6-8.8 2.9-8.4c2.3.3 6.7 5 6.7 5s5.3-21.6-2-31.3c-2.6-3.4-17.4-21.8-31.7-20.7-25.2 2-36.3 9-41.3 20.7s-2.2 26.3-2.2 26.3l1.5 2.8c0-.2.4-6.3 3.5-8.3z"/><path class="st8" d="M478 615.1s2-9.6 8.7-13.3 30.7-7.6 30.7-7.6 6.3 7.1 0 10.5-26.5 6.7-26.5 6.7l-12.9 3.7z"/><path class="st9" d="M388.2 628.3l30.1 8.5-8.5-30.2M274.1 494.5l144.2 142.3M471 542.6l22 22.3 7.6-30.4M427.1 325.6L493 564.9M574.6 542.6l-22 22.3-7.5-30.4M618.6 325.6l-66 239.3"/><g><path class="st9" d="M612.8 612.1l-8.5 30.1 30.1-8.5M746.1 499.5L604.3 642.2"/></g><circle class="st10" cx="231.3" cy="370.7" r="96.6"/><g><path class="st11" d="M299.8 490.7H159.4c-12.9 0-23.4-10.5-23.4-23.4 0-12.9 10.5-23.4 23.4-23.4h140.4c12.9 0 23.4 10.5 23.4 23.4 0 13-10.5 23.4-23.4 23.4z"/><g class="st12"><path d="M171.9 455.9h7.6c1.3 0 2.4.2 3.3.7 1.8.9 2.8 2.7 2.8 5 0 3.5-2 6.3-4.7 7.6-1 .5-2.1.7-3.2.7H173l-1.4 7.3h-3.9l4.2-21.3zm5.4 10.6c.8 0 1.5-.1 2.1-.4 1.4-.7 2.3-2.2 2.3-4.1 0-1.6-1-2.7-2.9-2.7h-3.6l-1.4 7.3h3.5zM188.6 461.9h3.7l-.5 2.6c-.1.6-.3 1.1-.3 1.1 1-2.1 3.1-4 5.5-4 .5 0 .9.1.9.1l-.8 3.8s-.4-.1-.9-.1c-2.3 0-5 2.5-5.7 6.3l-1 5.4h-3.8l2.9-15.2zM207.1 461.5c4.4 0 7.5 2.7 7.5 6.8 0 5.4-4.7 9.3-9.5 9.3-4.4 0-7.5-2.7-7.5-6.8 0-5.4 4.7-9.3 9.5-9.3zm-1.9 12.8c2.7 0 5.5-2.4 5.5-5.8 0-2.2-1.5-3.8-3.7-3.8-2.7 0-5.6 2.5-5.6 5.8.1 2.3 1.6 3.8 3.8 3.8zM216.9 461.9h3.8l1.3 9.5c.1.6.1 2.3.1 2.3h.1s.5-1.4 1-2.3l5-9.5h4l-8.5 15.3h-4.3l-2.5-15.3zM234.5 461.9h3.8l-3 15.3h-3.8l3-15.3zm1.1-6h3.8l-.7 3.4H235l.6-3.4zM248.3 461.5c1.6 0 3.4.6 4.2 2.1h.1s0-.5.1-.9l1.3-6.8h3.8l-4.1 21.3h-3.6l.2-1.1c.1-.6.3-1.1.3-1.1h-.1c-1 1.5-2.8 2.6-4.9 2.6-3.7 0-5.8-2.5-5.8-6.4 0-5.8 4-9.7 8.5-9.7zm-1.6 12.8c2.5 0 4.9-2.9 4.9-6.1 0-1.9-.9-3.4-3-3.4-2.3 0-4.9 2.3-4.9 6.1 0 2.1 1.1 3.4 3 3.4zM267 461.5c4.1 0 6.1 2.4 6.1 5.8 0 1.3-.5 2.9-.5 2.9h-10.5v.6c0 1.9 1.3 3.5 3.8 3.5s4.7-1.7 4.7-1.7l1 2.9s-2.6 2-6 2c-4.8 0-7.4-2.9-7.4-6.6 0-5.1 3.7-9.4 8.8-9.4zm2.3 6.1s.1-.3.1-.7c0-1.6-1-2.5-2.4-2.5-2 0-3.5 1.3-4.3 3.2h6.6zM277.4 461.9h3.7l-.5 2.6c-.1.6-.3 1.1-.3 1.1 1-2.1 3.1-4 5.5-4 .5 0 .9.1.9.1l-.8 3.8s-.4-.1-.9-.1c-2.3 0-5 2.5-5.7 6.3l-1 5.4h-3.8l2.9-15.2zM287.4 472.8s1.5 1.5 4.1 1.5c1.2 0 2.5-.5 2.5-1.6 0-2-6.4-1.9-6.4-6.4 0-3 3-4.8 6.1-4.8 3.5 0 5.3 1.7 5.3 1.7l-1.7 2.6s-1.2-1.2-3.6-1.2c-1.1 0-2.5.5-2.5 1.7 0 1.9 6.4 1.9 6.4 6.4 0 2.8-2.6 4.8-6.1 4.8-3.8 0-6.1-2.2-6.1-2.2l2-2.5z"/></g></g><circle class="st10" cx="416.3" cy="200.7" r="96.6"/><g><path class="st11" d="M484.8 320.7H344.4c-12.9 0-23.4-10.5-23.4-23.4 0-12.9 10.5-23.4 23.4-23.4h140.4c12.9 0 23.4 10.5 23.4 23.4 0 13-10.5 23.4-23.4 23.4z"/><g class="st12"><path d="M368.9 285.9h7.6c1.3 0 2.4.2 3.3.7 1.8.9 2.8 2.7 2.8 5 0 3.5-2 6.3-4.7 7.6-1 .5-2.1.7-3.2.7H370l-1.4 7.3h-3.9l4.2-21.3zm5.4 10.6c.8 0 1.5-.1 2.1-.4 1.4-.7 2.3-2.2 2.3-4.1 0-1.6-1-2.7-2.9-2.7h-3.6l-1.4 7.3h3.5zM386.8 285.9h3.8l-1.4 7.4c-.2.8-.3 1.4-.3 1.4h.1c.8-1.4 3.1-3.1 5.6-3.1 2.7 0 4.6 1.2 4.6 4.2 0 .6-.1 1.2-.2 1.8l-1.9 9.7h-3.8l1.7-8.9c.1-.5.2-1 .2-1.4 0-1.3-.7-1.9-1.9-1.9-2.6 0-4.9 2.5-5.5 5.3l-1.4 6.9h-3.8l4.2-21.4zM410.6 297.6h.6c.1-.4.1-.6.1-.8 0-1.3-.7-2.1-2.5-2.1-2.2 0-4.5 1.4-4.5 1.4l-.9-2.9s2.8-1.6 6.1-1.6c2.8 0 5.6 1.2 5.6 4.7 0 .4-.1 1-.1 1.5l-1.8 9.4h-3.5l.2-1.3c.1-.6.3-1.1.3-1.1h-.2s-1.7 2.8-5 2.8c-2.4 0-4.5-1.4-4.5-3.9 0-5 6-6.1 10.1-6.1zm-4.3 7c2 0 3.9-2.2 4.3-4.1l.1-.3h-.7c-1.7 0-5.7.3-5.7 2.8.1.8.7 1.6 2 1.6zM420 291.9h3.7l-.5 2.6c-.1.6-.3 1.1-.3 1.1 1-2.1 3.1-4 5.5-4 .5 0 .9.1.9.1l-.8 3.8s-.4-.1-.9-.1c-2.3 0-5 2.5-5.7 6.3l-1 5.4H417l3-15.2zM431.8 291.9h3.7l-.3 1.7c-.1.6-.3 1.2-.3 1.2h.1c1-1.5 3-3.2 5.4-3.2 2.4 0 3.7 1.1 4 3.1h.1c1.1-1.6 3.3-3.1 5.6-3.1 2.7 0 4.3 1.3 4.3 4.1 0 .6-.1 1.3-.2 2.1l-1.8 9.4h-3.8l1.7-9c.1-.6.1-1 .1-1.4 0-1.1-.4-1.8-1.7-1.8-2.5 0-4.3 2.7-4.9 5.5l-1.3 6.7h-3.8l1.8-9c.1-.6.1-1 .1-1.4 0-1.1-.4-1.8-1.7-1.8-2.4 0-4.4 2.7-4.9 5.5l-1.3 6.7h-3.8l2.9-15.3zM465.8 297.6h.6c.1-.4.1-.6.1-.8 0-1.3-.7-2.1-2.5-2.1-2.2 0-4.5 1.4-4.5 1.4l-.9-2.9s2.8-1.6 6.1-1.6c2.8 0 5.6 1.2 5.6 4.7 0 .4-.1 1-.1 1.5l-1.8 9.4h-3.5l.2-1.3c.1-.6.3-1.1.3-1.1h-.1s-1.7 2.8-5 2.8c-2.4 0-4.5-1.4-4.5-3.9 0-5 6-6.1 10-6.1zm-4.2 7c2 0 3.9-2.2 4.3-4.1l.1-.3h-.6c-1.7 0-5.7.3-5.7 2.8-.1.8.5 1.6 1.9 1.6z"/></g></g><circle class="st10" cx="818.3" cy="373.7" r="96.6"/><g><path class="st11" d="M886.8 493.7H746.4c-12.9 0-23.4-10.5-23.4-23.4 0-12.9 10.5-23.4 23.4-23.4h140.4c12.9 0 23.4 10.5 23.4 23.4 0 13-10.5 23.4-23.4 23.4z"/><g class="st12"><path d="M778.4 458.9h12.2l-.6 3.3h-8.4l-1.1 6h7l-.6 3.3h-7.1l-1.7 8.6h-3.8l4.1-21.2zM799 470.6h.6c.1-.4.1-.6.1-.8 0-1.3-.7-2.1-2.5-2.1-2.2 0-4.5 1.4-4.5 1.4l-.9-2.9s2.8-1.6 6.1-1.6c2.8 0 5.6 1.2 5.6 4.7 0 .4-.1 1-.2 1.5l-1.8 9.4H798l.2-1.3c.1-.6.3-1.1.3-1.1h-.1s-1.7 2.8-5 2.8c-2.4 0-4.5-1.4-4.5-3.9 0-5 6-6.1 10.1-6.1zm-4.2 7c2 0 3.9-2.2 4.3-4.1l.1-.3h-.6c-1.7 0-5.7.3-5.7 2.8-.1.8.5 1.6 1.9 1.6zM808.4 464.9h3.7l-.3 1.7c-.1.6-.3 1.2-.3 1.2h.1c1-1.5 3-3.2 5.4-3.2 2.4 0 3.7 1.1 4 3.1h.1c1.1-1.6 3.3-3.1 5.6-3.1 2.7 0 4.3 1.3 4.3 4.1 0 .6-.1 1.3-.2 2.1l-1.8 9.4h-3.8l1.7-9c.1-.6.1-1 .1-1.4 0-1.1-.4-1.8-1.7-1.8-2.5 0-4.3 2.7-4.9 5.5l-1.3 6.7h-3.8l1.8-9c.1-.6.1-1 .1-1.4 0-1.1-.4-1.8-1.7-1.8-2.4 0-4.4 2.7-4.9 5.5l-1.3 6.7h-3.8l2.9-15.3zM835.8 464.9h3.8l-3 15.3h-3.8l3-15.3zm1.2-6h3.8l-.7 3.4h-3.8l.7-3.4zM841.6 475.2l3.1-16.3h3.8l-3 15.7c-.1.4-.2 1-.2 1.2 0 1 .7 1.1 1.3 1.1h.5l-.7 3.3s-.5.1-1.1.1c-2 0-4-.8-4-3.6.1-.4.2-.9.3-1.5zM849.5 483.3c1.1 0 2.2-.6 3-1.9l.9-1.4-3.5-15.1h4l1.7 9.3c.1.8.2 1.9.2 1.9h.1s.5-1.1.9-1.9l4.8-9.3h4.3l-10.3 17.6c-1.6 2.8-3.8 4-5.8 4s-3.5-1.1-3.5-1.1l1.7-2.7c-.1 0 .5.6 1.5.6z"/></g></g><circle class="st10" cx="625.3" cy="200.7" r="96.6"/><g><path class="st11" d="M693.8 320.7H553.4c-12.9 0-23.4-10.5-23.4-23.4 0-12.9 10.5-23.4 23.4-23.4h140.4c12.9 0 23.4 10.5 23.4 23.4 0 13-10.5 23.4-23.4 23.4z"/><g class="st12"><path d="M551.8 285.9h3.8l-4.1 21.3h-3.9l4.2-21.3zM559.3 291.9h3.7l-.3 1.4c-.1.8-.4 1.5-.4 1.5h.1c.8-1.4 3.1-3.2 5.8-3.2 2.7 0 4.6 1.2 4.6 4.2 0 .6-.1 1.3-.3 2l-1.8 9.5h-3.8l1.7-8.9c.1-.5.2-1 .2-1.4 0-1.3-.7-1.9-1.9-1.9-2.6 0-4.9 2.5-5.5 5.3l-1.3 6.9h-3.8l3-15.4zM575.8 302.8s1.5 1.5 4.1 1.5c1.2 0 2.5-.5 2.5-1.6 0-2-6.4-1.9-6.4-6.4 0-3 3-4.8 6.1-4.8 3.5 0 5.3 1.7 5.3 1.7l-1.7 2.6s-1.2-1.2-3.6-1.2c-1.1 0-2.5.5-2.5 1.7 0 1.9 6.4 1.9 6.4 6.4 0 2.8-2.6 4.8-6.1 4.8-3.8 0-6.1-2.2-6.1-2.2l2-2.5zM589.9 301.2l1.2-6.1h-2l.6-3h2.1l.9-4.4h3.7l-.9 4.4h3.5l-.6 3h-3.5l-1.1 5.6c-.1.5-.1 1-.1 1.2 0 1.7 1.3 2 2.4 2 .5 0 .8-.1.8-.1l-.7 3.3s-.6.1-1.1.1c-2.8 0-5.4-1.1-5.4-4.7.1-.3.2-.8.2-1.3zM602.4 291.9h3.8l-3 15.3h-3.8l3-15.3zm1.1-6h3.8l-.7 3.4h-3.8l.7-3.4zM609.1 301.2l1.2-6.1h-1.9l.6-3h2.1l.9-4.4h3.7l-.9 4.4h3.5l-.6 3h-3.5l-1.1 5.6c-.1.5-.1 1-.1 1.2 0 1.7 1.3 2 2.4 2 .5 0 .8-.1.8-.1l-.7 3.3s-.6.1-1.1.1c-2.8 0-5.4-1.1-5.4-4.7 0-.3.1-.8.1-1.3zM619.5 301.5l1.9-9.6h3.8l-1.7 8.8c-.1.6-.2 1.2-.2 1.6 0 1.1.5 1.8 1.9 1.8 2.6 0 4.8-2.6 5.3-5.3l1.3-6.9h3.8l-3 15.3h-3.7l.3-1.4c.2-.8.4-1.5.4-1.5h-.1c-.9 1.4-3 3.2-5.7 3.2-2.5 0-4.6-1.1-4.6-4.2.1-.5.2-1.1.3-1.8zM638.6 301.2l1.2-6.1h-2l.6-3h2.1l.9-4.4h3.7l-.9 4.4h3.5l-.6 3h-3.5l-1.1 5.6c-.1.5-.1 1-.1 1.2 0 1.7 1.3 2 2.4 2 .5 0 .8-.1.8-.1l-.7 3.3s-.6.1-1.1.1c-2.8 0-5.4-1.1-5.4-4.7 0-.3.1-.8.2-1.3zM651 291.9h3.8l-3 15.3H648l3-15.3zm1.2-6h3.8l-.7 3.4h-3.8l.7-3.4zM665.7 291.5c4.4 0 7.5 2.7 7.5 6.8 0 5.4-4.7 9.3-9.5 9.3-4.4 0-7.5-2.7-7.5-6.8.1-5.4 4.8-9.3 9.5-9.3zm-1.9 12.8c2.7 0 5.5-2.4 5.5-5.8 0-2.2-1.5-3.8-3.7-3.8-2.7 0-5.6 2.5-5.6 5.8.1 2.3 1.7 3.8 3.8 3.8zM677.7 291.9h3.7l-.3 1.4c-.1.8-.4 1.5-.4 1.5h.1c.8-1.4 3.1-3.2 5.8-3.2 2.7 0 4.6 1.2 4.6 4.2 0 .6-.2 1.3-.3 2l-1.8 9.5h-3.8l1.7-8.9c.1-.5.2-1 .2-1.4 0-1.3-.7-1.9-1.9-1.9-2.6 0-4.9 2.5-5.5 5.3l-1.3 6.9h-3.8l3-15.4zM694.3 302.8s1.5 1.5 4.1 1.5c1.2 0 2.5-.5 2.5-1.6 0-2-6.4-1.9-6.4-6.4 0-3 3-4.8 6.1-4.8 3.5 0 5.3 1.7 5.3 1.7l-1.7 2.6s-1.2-1.2-3.6-1.2c-1.1 0-2.5.5-2.5 1.7 0 1.9 6.4 1.9 6.4 6.4 0 2.8-2.6 4.8-6.1 4.8-3.8 0-6.1-2.2-6.1-2.2l2-2.5z"/></g></g><g><path class="st2" d="M268.5 352H249v-19.3c0-4.3-3.3-7.7-7.6-7.7h-22.7c-4.3 0-7.7 3.4-7.7 7.7V352h-19.4c-4.3 0-7.6 3.5-7.6 7.7v22.7c0 4.3 3.4 7.5 7.6 7.5H211v19.5c0 4.3 3.4 7.5 7.7 7.5h22.7c4.3 0 7.6-3.2 7.6-7.5V390h19.5c4.3 0 7.5-3.3 7.5-7.5v-22.7c0-4.3-3.2-7.8-7.5-7.8z"/><path class="st13" d="M245 334h-20.3c-2 0-3.7 1.4-3.7 3.5v19.8c0 2.2-3.6 3.7-5.9 3.7h-18.2c-2.1 0-3.9 2-3.9 4v22.5s-5-.2-5-4.8v-22.9c0-2 1.5-3.7 3.6-3.7h19.5c2.2 0 3.9-1.7 3.9-3.9v-19.4c0-2.1 1.7-3.7 3.7-3.7h22.7c2 0 3.6 1.7 3.6 3.8v1.1z"/><path class="st6" d="M249.3 360.3c0-2.3 1.9-4.2 4.2-4.2h15c2.1 0 3.7 1.6 3.7 3.6v22.7c0 2.1-1.7 3.8-3.7 3.8h-19.2c-2.2 0-4 1.8-4 4v19.2c0 2-1.8 3.7-3.8 3.7h-22.8c-2 0-3.6-1.6-3.6-3.7v-14.1c0-2.8 2.3-5.1 5.1-5.1h13.5c2.4 0 4.3-1.9 4.3-4.3v-.9c0-3.6 2.9-6.5 6.5-6.5h.5c2.4 0 4.3-1.9 4.3-4.3v-13.9z"/></g><g><path class="st14" d="M554.9 190h142.9v61.7H554.9z"/><path class="st6" d="M566.1 190h120.5v61.7H566.1z"/><path class="st15" d="M575.6 154.4H677v97.3H575.6z"/><path class="st6" d="M667.9 185.8h-84.3l-2.9-3.2 91.2-21.9v21.9z"/><path class="st0" d="M580.7 160.7h91.2v21.9h-91.2z"/><path class="st16" d="M623.4 163h5.9v16.6h-5.9z"/><path class="st16" d="M618 168.4h16.6v5.9H618z"/><path class="st6" d="M591.1 191.2h70.3V251h-70.3z"/><path class="st6" d="M598.3 197.4h55.9v53.7h-55.9z"/><path class="st6" d="M604.2 203h44.1v48h-44.1z"/><path class="st13" d="M668.5 165.1l-80.6 15.5h-5.2V163h85.8z"/></g><g><path class="st0" d="M797 382.8s-2.1 3-1.6 3.9-2.1 20.3-2.1 20.3h5.2s2-16.8 2.8-18.8c.7-2 2.8-4.5 2.8-4.5l-7.1-.9zM849.3 382.8s2.1 3 1.6 3.9S853 407 853 407h-5.2s-2-16.8-2.8-18.8-2.8-4.5-2.8-4.5l7.1-.9z"/><path class="st1" d="M817.7 354.1s-11.1 3.1-13.2 4.7c-2.1 1.6-9.8 20.9-9.8 23.5s7.6 4.1 9.2 4.3c1.6.2 3.8-6.3 3.8-6.3l.6 26.7h30l-.4-28s2.7 7.6 3.6 7.5c.8-.1 8.6-2.3 10.1-3.1 1.4-.8-6.3-23.3-8.5-24.6-2.2-1.3-15.1-4.8-17.6-4.6-2.6 0-7.8-.1-7.8-.1z"/><path class="st2" d="M822.4 348.1s4.4-.9 4.4 4.2c0 3.9 5.8 6.9-4.4 6.9M822.4 348.1s-4.4-.9-4.4 4.2c0 3.9-5.8 6.9 4.4 6.9"/><g><path class="st0" d="M822.1 351.9c-14.7 0-12.5-24.7-11.2-30 1.2-4.9 11.2-4.8 11.2-4.8s10-.1 11.2 4.8c1.3 5.4 3.5 30-11.2 30z"/><circle class="st3" cx="828" cy="329.6" r="1.1"/><path class="st4" d="M836.3 329.7c0 3.1.2 5.6-2 5.6s-.9-2.5-.9-5.6c0-3.1.4-5.6.9-5.6s2 2.5 2 5.6z"/><circle class="st3" cx="816.1" cy="329.6" r="1.1"/><path class="st5" d="M819.3 335.3c.1 2.6 1.2 5.5 2.8 5.5s2.6-3 2.8-5.5c0 0-1 2-2.8 2s-2.8-2-2.8-2z"/><path class="st4" d="M807.9 329.7c0 3.1-.2 5.6 2 5.6s.9-2.5.9-5.6c0-3.1-.4-5.6-.9-5.6s-2 2.5-2 5.6z"/><path class="st6" d="M811.2 325.2s3.4-1.7 5.9-1.1c2.5.6 5.5.9 7.7 1.1 2.2.2 3.2-1.2 3.2-1.2s3 4.1 4.3 4.5v-12.3l-21.3 4.9.2 4.1z"/><path class="st7" d="M809.7 324.9c1.1-.7.3 2.3 1.4 3.6 1.1 1.2 1.7-4.4 2.1-5.9.4-1.5 6.7 0 10.4.6s5.8-4.7 5.8-4.7-.5 5.5.5 6.5 1.9 5 2.8 5c.9 0 .2-3.2 1.1-3.1.9.1 2.5 1.8 2.5 1.8s2-8-.7-11.5c-.9-1.3-6.4-8-11.7-7.6-9.3.7-13.4 3.3-15.2 7.6s-.8 9.7-.8 9.7l.5 1s.2-2.3 1.3-3z"/><path class="st8" d="M809.9 319.7s.8-3.5 3.2-4.9c2.5-1.4 11.3-2.8 11.3-2.8s2.3 2.6 0 3.9c-2.3 1.3-9.8 2.5-9.8 2.5l-4.7 1.3z"/></g></g><g><path class="st0" d="M760.4 394.3s-2.1 3.3-1.6 4.2c.5.9-2.1 20.6-2.1 20.6h5.2s2-17.1 2.8-19.1c.7-2 2.8-4.7 2.8-4.7l-7.1-1zM812.6 394.3s2.1 3.3 1.6 4.2c-.5.9 2.1 20.6 2.1 20.6h-5.2s-2-17.1-2.8-19.1c-.7-2-2.8-4.7-2.8-4.7l7.1-1z"/><path class="st1" d="M781.1 365.5s-11.1 3.1-13.2 4.7c-2.1 1.6-9.8 20.9-9.8 23.5s7.6 4.1 9.2 4.3c1.6.2 3.8-6 3.8-6l.6 27h30l-.4-28.3s2.7 7.5 3.6 7.4c.8-.1 8.6-2.4 10.1-3.2 1.4-.8-6.3-23.3-8.5-24.7s-15.1-4.8-17.6-4.7c-2.6.1-7.8 0-7.8 0z"/><path class="st2" d="M785.8 359.5s4.4-.9 4.4 4.2c0 3.9 5.8 6.9-4.4 6.9M785.8 359.5s-4.4-.9-4.4 4.2c0 3.9-5.8 6.9 4.4 6.9"/><g><path class="st0" d="M785.4 363.3c-14.7 0-12.5-24.7-11.2-30 1.2-4.9 11.2-4.8 11.2-4.8s10-.1 11.2 4.8c1.3 5.4 3.5 30-11.2 30z"/><circle class="st3" cx="791.4" cy="341" r="1.1"/><path class="st4" d="M799.6 341.1c0 3.1.2 5.6-2 5.6s-.9-2.5-.9-5.6.4-5.6.9-5.6c.5.1 2 2.6 2 5.6z"/><circle class="st3" cx="779.4" cy="341" r="1.1"/><path class="st5" d="M782.6 346.7c.1 2.6 1.2 5.5 2.8 5.5s2.6-3 2.8-5.5c0 0-1 2-2.8 2s-2.8-2-2.8-2z"/><path class="st4" d="M771.2 341.1c0 3.1-.2 5.6 2 5.6s.9-2.5.9-5.6-.4-5.6-.9-5.6c-.5.1-2 2.6-2 5.6z"/><path class="st6" d="M774.5 336.7s3.4-1.7 5.9-1.1c2.5.6 5.5.9 7.7 1.1 2.2.2 3.2-1.2 3.2-1.2s3 4.1 4.3 4.5v-12.3l-21.3 4.9.2 4.1z"/><path class="st7" d="M773 336.3c1.1-.7.3 2.3 1.4 3.6s1.7-4.4 2.1-5.9c.4-1.5 6.7 0 10.4.6s5.8-4.7 5.8-4.7-.5 5.5.5 6.5 1.9 5 2.8 5c.9 0 .2-3.2 1.1-3.1s2.5 1.8 2.5 1.8 2-8-.7-11.5c-.9-1.3-6.4-8-11.7-7.6-9.3.7-13.4 3.3-15.2 7.6s-.8 9.7-.8 9.7l.5 1c.1 0 .2-2.3 1.3-3z"/><path class="st8" d="M773.2 331.2s.8-3.5 3.2-4.9c2.5-1.4 11.3-2.8 11.3-2.8s2.3 2.6 0 3.9c-2.3 1.3-9.8 2.5-9.8 2.5l-4.7 1.3z"/></g></g><g><path class="st0" d="M826.4 394.3s-2.1 3.3-1.6 4.2c.5.9-2.1 20.6-2.1 20.6h5.2s2-17.1 2.8-19.1c.7-2 2.8-4.7 2.8-4.7l-7.1-1zM878.6 394.3s2.1 3.3 1.6 4.2c-.5.9 2.1 20.6 2.1 20.6h-5.2s-2-17.1-2.8-19.1c-.7-2-2.8-4.7-2.8-4.7l7.1-1z"/><path class="st1" d="M847.1 365.5s-11.1 3.1-13.2 4.7c-2.1 1.6-9.8 20.9-9.8 23.5s7.6 4.1 9.2 4.3c1.6.2 3.8-6 3.8-6l.6 27h30l-.4-28.3s2.7 7.5 3.6 7.4c.8-.1 8.6-2.4 10.1-3.2 1.4-.8-6.3-23.3-8.5-24.7-2.2-1.3-15.1-4.8-17.6-4.7-2.7.1-7.8 0-7.8 0z"/><path class="st2" d="M851.8 359.5s4.4-.9 4.4 4.2c0 3.9 5.8 6.9-4.4 6.9M851.8 359.5s-4.4-.9-4.4 4.2c0 3.9-5.8 6.9 4.4 6.9"/><g><path class="st0" d="M851.4 363.3c-14.7 0-12.5-24.7-11.2-30 1.2-4.9 11.2-4.8 11.2-4.8s10-.1 11.2 4.8c1.3 5.4 3.5 30-11.2 30z"/><circle class="st3" cx="857.4" cy="341" r="1.1"/><path class="st4" d="M865.6 341.1c0 3.1.2 5.6-2 5.6s-.9-2.5-.9-5.6.4-5.6.9-5.6 2 2.6 2 5.6z"/><circle class="st3" cx="845.4" cy="341" r="1.1"/><path class="st5" d="M848.6 346.7c.1 2.6 1.2 5.5 2.8 5.5s2.6-3 2.8-5.5c0 0-1 2-2.8 2-1.7 0-2.8-2-2.8-2z"/><path class="st4" d="M837.2 341.1c0 3.1-.2 5.6 2 5.6s.9-2.5.9-5.6-.4-5.6-.9-5.6-2 2.6-2 5.6z"/><path class="st6" d="M840.5 336.7s3.4-1.7 5.9-1.1c2.5.6 5.5.9 7.7 1.1 2.2.2 3.2-1.2 3.2-1.2s3 4.1 4.3 4.5v-12.3l-21.3 4.9.2 4.1z"/><path class="st7" d="M839 336.3c1.1-.7.3 2.3 1.4 3.6 1.1 1.2 1.7-4.4 2.1-5.9s6.7 0 10.4.6 5.8-4.7 5.8-4.7-.5 5.5.5 6.5 1.9 5 2.8 5c.9 0 .2-3.2 1.1-3.1.9.1 2.5 1.8 2.5 1.8s2-8-.7-11.5c-.9-1.3-6.4-8-11.7-7.6-9.3.7-13.4 3.3-15.2 7.6s-.8 9.7-.8 9.7l.5 1s.2-2.3 1.3-3z"/><path class="st8" d="M839.2 331.2s.8-3.5 3.2-4.9c2.5-1.4 11.3-2.8 11.3-2.8s2.3 2.6 0 3.9-9.8 2.5-9.8 2.5l-4.7 1.3z"/></g></g><g><path class="st7" d="M429.1 214.2L394.3 249c-8 8-21.1 8-29.1-.1-8-8-8-21.2 0-29.2l34.5-34.5 29.4 29z"/><path class="st0" d="M427.4 216l34.7-34.8c8-8 8-21.1-.1-29.1-8-8-21.2-8-29.2 0l-34.5 34.5 29.1 29.4z"/><path class="st17" d="M376.4 247c-5.7-6.6-5.1-16.5 1.1-22.6l57.5-57.5c3.3-3.3 3.3-8.6 0-11.8l-66.5 66.5c-6.6 6.6-6.9 17.5-.3 24.2 3.6 3.6 8.3 5.2 12.9 4.9-1.9-1-3.4-2.2-4.7-3.7z"/><path class="st6" d="M453.3 151.5c6.6 7.6 5.8 19.1-1.3 26.1l-58.7 58.7c-3.8 3.8-3.8 9.9 0 13.7l-7.7 7.7 76.8-76.8c7.7-7.7 8-20.3.3-27.9-4.2-4.2-9.5-6-14.9-5.7 2.2 1 3.9 2.4 5.5 4.2z"/></g></svg>