<svg id="Layer_1" xmlns="http://www.w3.org/2000/svg" viewBox="120 81 800 800"><style>.st0{opacity:.2}.st1{fill:#fff}.st2{fill:#77808e}.st3{opacity:.3}.st4{fill:#4b5764}.st5{fill:#6a7581}.st6{fill:#ffd900}.st7{fill:#ce9700}.st8{fill:#f0c400}.st9{opacity:.5}.st10{fill:#ffe133}.st11{fill:#ed4f7e}.st12{fill:#e3e5ea}.st13{fill:#0ea1dc}.st14{fill:#1a8fc5}.st15{fill:#b23b5f}.st16{fill:#a4ce4e}.st17{fill:#7b9b3b}</style><g class="st0"><path class="st1" d="M605.2 562.3c2.3-.2 4.6-.3 6.9-.3 2.9 0 5.8.1 8.7.4l-55.4-121.7c-13.7-30.3-21-62.6-21-95.9V226.1c0-3.9-3.1-7.1-7-7.1s-7 3.2-7 7.1v118.8c0 35.3 7.6 69.5 22.2 101.7l52.6 115.7zM747.1 841.1l-57.4-126.6c-3.1 4.2-6.5 8.2-10.2 11.8l54.7 120.6c1.2 2.6 3.8 4.2 6.5 4.2 1 0 2-.2 2.9-.6 3.6-1.6 5.2-5.8 3.5-9.4z"/></g><path class="st0 st1" d="M288.6 851.1c-1 0-2-.2-2.9-.6-3.6-1.6-5.1-5.8-3.5-9.4l181.5-400.4c13.7-30.3 20.7-62.6 20.7-95.9V226.1c0-3.9 3.2-7.1 7.1-7.1s7.1 3.2 7.1 7.1v118.8c0 35.3-7.4 69.5-22 101.7L295 847c-1.2 2.6-3.7 4.1-6.4 4.1z"/><path class="st2" d="M273.1 397c-24-6.3-48.5 8.1-54.8 32.1-4.7 18.1 1.6 39.1 15.4 50.7l-7.7 29.4h.1c-.7 5.2 2 9.3 6.5 12.4-.3.2-.4.5-.5.9-.2.9.3 1.9 1.2 2.1l11.9 3.1c.9.2 1.9-.3 2.1-1.2.1-.3.1-.7 0-1 5.5-.5 9.9-2 11.8-6.9l7.8-30.2c10.5.8 33.5-18.5 38.3-36.6 6.2-24-8.1-48.5-32.1-54.8z"/><path class="st3 st4" d="M249.2 399.6c7.6-2.3 15.6-2.5 23.3-.5 11 2.9 20.3 9.9 26 19.7 5.8 9.8 7.3 21.3 4.4 32.4-1.8 6.9-6.6 14.5-13.4 21.5-6.1 6.3-13.3 11.2-18.6 12.8-1.5.5-2.8.7-3.9.6l-1.8-.1-.5 1.8-7.8 30c-.9 2.3-2.6 3.7-5.3 4.5-1.2.4-2.7.7-4.6.8l-2.8.3.6 1.8-10.1-2.6 1.4-1.2-2.3-1.6c-4.3-3-6.2-6.4-5.6-10.3l.1-.6 7.5-28.6.4-1.4-1.1-.9c-6.3-5.3-11.3-13.1-14-21.8-2.7-8.8-2.9-18.2-.7-26.6 1.9-7.2 5.6-13.7 10.7-19 5-5.1 11.3-8.9 18.1-11m-.6-2.1c-14.4 4.4-26.2 15.9-30.2 31.5-4.7 18.1 1.6 39.1 15.4 50.7l-7.7 29.4h.1c-.7 5.2 2 9.3 6.5 12.4-.3.2-.4.5-.5.9-.2.9.3 1.9 1.2 2.1l11.9 3.1c.3.1.6.1.9 0 .5-.2 1-.6 1.2-1.2.1-.3.1-.7 0-1 1.8-.2 3.5-.5 5-.9 3.1-.9 5.5-2.7 6.7-5.9l7.8-30.2c1.4.1 3-.1 4.7-.7 11.5-3.6 29.4-20.2 33.6-35.9 6.3-24-8.1-48.5-32.1-54.8-8.4-2.2-16.8-1.9-24.5.5z"/><path class="st5" d="M238.1 503.1c-.3 0-.6 0-.9-.1l-9-2.3c-1.9-.5-3-2.4-2.5-4.3s2.4-3 4.3-2.5l9 2.3c1.9.5 3 2.4 2.5 4.3-.4 1.5-1.8 2.6-3.4 2.6z"/><path class="st6" d="M273.1 397c-24-6.3-48.5 8.1-54.8 32.1-4.7 18.1 1.6 39.1 15.4 50.7l-2.4 9.2 10.6 2.8 22.6 5.9 2.4-9.2c11.2-.2 32.4-10.9 38.3-36.6 5.5-24.3-8.1-48.6-32.1-54.9z"/><path class="st3 st7" d="M249.2 399.6c7.6-2.3 15.6-2.5 23.3-.5 10.9 2.9 20.1 9.8 25.7 19.7 5.6 9.7 7.3 21.3 4.7 32.5-2.1 9.1-6.3 16.9-12.4 23.1-4.9 5-11 8.7-17.1 10.6-2.4.7-4.7 1.1-6.7 1.2H265l-.4 1.6-1.8 7.1-20.5-5.4-8.4-2.2 1.8-7.1.4-1.4-1.1-.9c-6.3-5.3-11.3-13.1-14-21.8-2.7-8.8-2.9-18.2-.7-26.6 1.9-7.2 5.6-13.7 10.7-19 5.1-5 11.4-8.8 18.2-10.9m-.6-2.1c-14.4 4.4-26.2 15.9-30.2 31.5-4.7 18.1 1.6 39.1 15.4 50.7l-2.4 9.2 10.6 2.8 22.6 5.9 2.4-9.2c2.1 0 4.6-.5 7.3-1.3 11.4-3.5 26.2-14.5 31-35.3 5.5-24.2-8.1-48.5-32.1-54.8-8.5-2.2-16.9-1.9-24.6.5z"/><path class="st3 st1" d="M283.1 411.7c-21.8-20.2-58.5-3.2-57 23.6 0 .8 1.2 1.1 1.6.4 2.9-4.6 10.5-15.2 20.4-19.2 11.5-4.7 28.2-3.8 34.3-3.3.8.1 1.3-1 .7-1.5z"/><path class="st5" d="M262.3 509.4c-.3 0-.6 0-.9-.1l-9-2.3c-1.9-.5-3-2.4-2.5-4.3s2.4-3 4.3-2.5l9 2.3c1.9.5 3 2.4 2.5 4.3-.4 1.6-1.8 2.6-3.4 2.6zM236 511.1c-.3 0-.6 0-.9-.1l-9-2.3c-1.9-.5-3-2.4-2.5-4.3s2.4-3 4.3-2.5l9 2.3c1.9.5 3 2.4 2.5 4.3-.4 1.5-1.8 2.6-3.4 2.6zM260.2 517.4c-.3 0-.6 0-.9-.1l-9-2.3c-1.9-.5-3-2.4-2.5-4.3s2.4-3 4.3-2.5l9 2.3c1.9.5 3 2.4 2.5 4.3-.3 1.6-1.8 2.6-3.4 2.6z"/><path class="st8" d="M250.9 493.7l-5.2-1.4 7.6-28.8-11-18.7 4.7-2.7 12 20.7z"/><circle class="st6" cx="244.6" cy="443.5" r="6.2"/><path class="st8" d="M247.2 451.9c-1.6.5-3.3.5-4.8.1-4.7-1.2-7.6-6.1-6.3-10.8.8-3 3-5.3 6-6.2 1.6-.5 3.3-.5 4.8-.1 2.3.6 4.2 2.1 5.4 4.1 1.2 2 1.5 4.4.9 6.7-.8 3-3 5.3-6 6.2zm-3.6-11.8c-1.2.4-2 1.3-2.4 2.5-.5 1.9.6 3.8 2.5 4.3.6.2 1.3.2 1.9 0 1.2-.4 2-1.3 2.4-2.5.2-.9.1-1.8-.4-2.6s-1.2-1.4-2.1-1.6c-.6-.3-1.3-.2-1.9-.1z"/><path transform="rotate(61.444 266.573 457.568)" class="st8" d="M263.9 445.8h5.4v23.5h-5.4z"/><circle class="st6" cx="276.8" cy="451.9" r="6.2"/><path class="st8" d="M279.4 460.4c-1.6.5-3.3.5-4.8.1-4.7-1.2-7.6-6.1-6.3-10.8.8-3 3-5.3 6-6.2 1.6-.5 3.3-.5 4.8-.1 4.7 1.2 7.6 6.1 6.3 10.8-.8 2.9-3 5.3-6 6.2zm-3.6-11.8c-1.2.4-2 1.3-2.4 2.5-.5 1.9.6 3.8 2.5 4.3.6.2 1.3.2 1.9 0 1.2-.4 2-1.3 2.4-2.5.5-1.9-.6-3.8-2.5-4.3-.6-.2-1.3-.2-1.9 0z"/><path class="st7" d="M275.7 387c.7.2 1.3.4 2 .6.6-2.1 1.1-4.3 1.7-6.4.5-2 1.1-4 1.6-6-.7-.2-1.3-.4-2-.6-.4-.1-.9-.2-1.3-.3-1.1 4.2-2.2 8.3-3.3 12.5.4 0 .9.1 1.3.2z"/><path class="st9 st7" d="M252.8 386.1c1.1-.2 2.3-.4 3.4-.5-.4-4.3-.8-8.5-1.2-12.8-1.1.1-2.3.3-3.4.5.3 3.5.7 7.1 1 10.6 0 .8.1 1.5.2 2.2z"/><path class="st7" d="M233 394c1-.6 1.9-1.2 2.9-1.8-1.8-3.8-3.6-7.6-5.4-11.5-1 .6-2 1.1-3 1.7 1.3 2.7 2.6 5.5 3.9 8.2.5 1.2 1.1 2.3 1.6 3.4z"/><path class="st9 st7" d="M220 405.4c-3-2.9-5.9-5.9-8.9-8.8-.7.9-1.5 1.8-2.2 2.7 3 2.9 6 5.9 8.9 8.8.8-.9 1.5-1.8 2.2-2.7z"/><path class="st7" d="M296.1 485.4c3 2.9 6 5.9 8.9 8.8.8-.8 1.7-1.5 2.5-2.4-3-2.9-5.9-5.9-8.9-8.8-.8.9-1.6 1.7-2.5 2.4zM210 422.6c-3.8-1.7-7.5-3.5-11.3-5.2-.4 1.1-.8 2.1-1.2 3.2 3.8 1.7 7.6 3.5 11.4 5.2.4-1 .7-2.1 1.1-3.2z"/><path class="st9 st7" d="M307.9 471.3c3.8 1.7 7.6 3.5 11.4 5.2.6-1 1.1-2 1.6-3-3.8-1.7-7.5-3.5-11.3-5.2-.5 1.1-1.1 2.1-1.7 3z"/><path class="st7" d="M314.9 453.7c4.2.3 8.3.7 12.5 1 .2-1.1.4-2.3.6-3.4-4.1-.3-8.3-.7-12.4-1-.3 1.2-.5 2.3-.7 3.4z"/><path class="st9 st7" d="M206.3 441.4c-4.1-.3-8.3-.7-12.4-1 0 1.1-.1 2.3-.1 3.4 4.2.3 8.3.7 12.5 1v-3.4z"/><path class="st7" d="M208.8 459.9c-4 1.1-8.1 2.2-12.1 3.3.3 1.1.7 2.2 1 3.3 4-1.1 8.1-2.2 12.1-3.3-.3-1.1-.7-2.2-1-3.3z"/><path class="st9 st7" d="M315.9 434.1c4-1.1 8.1-2.2 12.1-3.3-.2-1.1-.4-2.3-.6-3.4-4 1.1-8.1 2.2-12.1 3.3.3 1.1.4 2.2.6 3.4z"/><path class="st7" d="M308.1 411.5c.6 1 1.1 2 1.7 3 3.5-2.5 6.9-4.9 10.4-7.4-.5-1-1.1-2-1.7-3-2.3 1.7-4.7 3.3-7 5-1.1.8-2.2 1.6-3.4 2.4z"/><path class="st9 st7" d="M294 395.8l2.7 2.1c2.4-3.5 4.9-7 7.3-10.6l-2.7-2.1c-2.1 3-4.1 5.9-6.2 8.9-.4.6-.8 1.1-1.1 1.7z"/><g><path class="st2" d="M753.4 398c-23.4 8.2-35.7 33.9-27.4 57.2 6.2 17.7 23.2 31.5 41.1 33.3l10.1 28.7h.1c2.3 4.7 6.9 6.5 12.4 6.6-.1.3-.1.7 0 1 .3.9 1.3 1.4 2.2 1l11.6-4.1c.9-.3 1.4-1.3 1-2.2-.1-.3-.3-.6-.6-.8 4.2-3.5 7.1-7.2 5.9-12.3l-10.4-29.2c9.2-5.2 17.4-34.1 11.2-51.7-8.2-23.4-33.8-35.7-57.2-27.5z"/><path class="st3 st4" d="M735.1 413.6c5-6.2 11.6-10.8 19.1-13.5 10.8-3.8 22.3-3.2 32.6 1.8 10.3 4.9 18 13.6 21.8 24.3 2.4 6.7 2.7 15.7.9 25.4-1.6 8.6-4.7 16.7-8.3 21.1-1 1.2-2 2.1-2.9 2.6l-1.6.9.6 1.7 10.4 29.2c.5 2.4-.1 4.5-1.9 6.7-.8 1-1.9 2.1-3.3 3.3l-2.2 1.8 1.5 1.1-9.9 3.5.5-1.8h-2.8c-5.3-.1-8.7-1.9-10.4-5.4l-.3-.6-9.8-27.9-.5-1.3-1.4-.1c-8.2-.9-16.7-4.5-23.8-10.3s-12.6-13.4-15.5-21.6c-2.5-7-3.1-14.5-1.8-21.7 1.4-7 4.5-13.6 9-19.2m-1.8-1.4c-9.4 11.7-12.7 27.9-7.4 43.1 6.2 17.7 23.2 31.5 41.1 33.3l10.1 28.7h.1c2.3 4.7 6.9 6.5 12.4 6.6-.1.3-.1.7 0 1 .3.9 1.3 1.4 2.2 1l11.6-4.1c.3-.1.6-.3.8-.5.4-.4.5-1.1.3-1.6-.1-.3-.3-.6-.6-.8 1.4-1.2 2.6-2.3 3.6-3.6 2-2.5 3-5.3 2.3-8.7l-10.4-29.4c1.2-.7 2.4-1.8 3.5-3.2 7.6-9.4 13.1-33.2 7.7-48.6-8.2-23.4-33.9-35.7-57.2-27.4-8.2 2.9-15 7.9-20.1 14.2z"/><path class="st5" d="M773.1 509.2c-1.5 0-2.8-.9-3.3-2.4-.6-1.8.3-3.9 2.2-4.5l8.7-3.1c1.8-.7 3.9.3 4.5 2.2.6 1.8-.3 3.9-2.2 4.5l-8.7 3.1c-.4.1-.8.2-1.2.2z"/><path class="st10" d="M753.4 398c-23.4 8.2-35.7 33.9-27.4 57.2 6.2 17.7 23.2 31.5 41.1 33.3l3.2 9 10.3-3.6 22.1-7.8-3.2-9c9.2-6.5 20.7-27.1 11.2-51.7-9-23-33.9-35.6-57.3-27.4z"/><path class="st3 st7" d="M735.1 413.6c5-6.2 11.6-10.8 19.1-13.5 10.7-3.8 22.2-3.1 32.3 1.9 10.1 4.9 18 13.5 22.1 24.3 3.4 8.7 4.3 17.5 2.7 26.1-1.3 6.9-4.2 13.4-8.2 18.3-1.6 1.9-3.2 3.6-4.9 4.7l-1.4 1 .6 1.6 2.4 6.9-20 7-8.2 2.9-2.4-6.9-.5-1.3-1.4-.1c-8.2-.9-16.7-4.5-23.8-10.3s-12.6-13.4-15.5-21.6c-2.5-7-3.1-14.5-1.8-21.7 1.3-7.1 4.4-13.7 8.9-19.3m-1.8-1.4c-9.4 11.7-12.7 27.9-7.4 43.1 6.2 17.7 23.2 31.5 41.1 33.3l3.2 9 10.3-3.6 22.1-7.8-3.2-9c1.7-1.2 3.6-3 5.3-5.1 7.5-9.3 13.6-26.7 5.9-46.6-8.9-23.1-33.9-35.7-57.2-27.4-8.2 2.8-15 7.8-20.1 14.1z"/><path class="st3 st1" d="M769.8 404.6c-29.4-4.5-50.3 30.1-34 51.4.5.7 1.6.3 1.6-.5-.2-5.5.2-18.5 6.1-27.3 6.9-10.4 21.2-18.9 26.6-22 .8-.4.6-1.5-.3-1.6z"/><path class="st5" d="M796.7 500.9c-1.5 0-2.8-.9-3.3-2.4-.6-1.8.3-3.9 2.2-4.5l8.7-3.1c1.8-.7 3.9.3 4.5 2.2.6 1.8-.3 3.9-2.2 4.5l-8.7 3.1c-.4.1-.8.2-1.2.2zM775.8 517c-1.5 0-2.8-.9-3.3-2.4-.6-1.8.3-3.9 2.2-4.5l8.7-3.1c1.8-.7 3.9.3 4.5 2.2.6 1.8-.3 3.9-2.2 4.5l-8.7 3.1c-.4.1-.8.2-1.2.2zM799.4 508.7c-1.5 0-2.8-.9-3.3-2.4-.6-1.8.3-3.9 2.2-4.5l8.7-3.1c1.8-.6 3.9.3 4.5 2.2.6 1.8-.3 3.9-2.2 4.5l-8.7 3.1c-.4.1-.8.2-1.2.2z"/><path class="st8" d="M789.2 490.6l-5.1 1.7-9.9-28-19.5-9.4 2.3-4.9 21.5 10.4z"/><circle class="st6" cx="755.8" cy="452.5" r="6.2"/><path class="st8" d="M762.7 458c-1 1.3-2.4 2.3-4 2.8-4.6 1.6-9.7-.8-11.3-5.4-1-2.9-.5-6.1 1.5-8.5 1-1.3 2.4-2.3 4-2.8 2.2-.8 4.6-.7 6.8.4 2.1 1 3.7 2.8 4.5 5 1 2.9.5 6.1-1.5 8.5zm-9.6-7.7c-.8.9-1 2.2-.6 3.3.6 1.8 2.6 2.8 4.4 2.1.6-.2 1.2-.6 1.6-1.1.8-.9 1-2.2.6-3.3-.3-.9-.9-1.6-1.8-2s-1.8-.5-2.7-.1c-.6.2-1.1.6-1.5 1.1z"/><g><path transform="rotate(27.38 781.845 451.765)" class="st8" d="M779.2 440h5.4v23.5h-5.4z"/></g><g><circle class="st6" cx="787.2" cy="441.4" r="6.2"/><path class="st8" d="M794.1 447c-1 1.3-2.4 2.3-4 2.8-4.6 1.6-9.7-.8-11.3-5.4-1-2.9-.5-6.1 1.5-8.5 1-1.3 2.4-2.3 4-2.8 4.6-1.6 9.7.8 11.3 5.4 1 2.9.4 6.1-1.5 8.5zm-9.6-7.8c-.8.9-1 2.2-.6 3.3.6 1.8 2.6 2.8 4.4 2.1.6-.2 1.2-.6 1.6-1.1.8-.9 1-2.2.6-3.3-.6-1.8-2.6-2.8-4.4-2.1-.7.3-1.2.6-1.6 1.1z"/></g><g><path class="st7" d="M750 388.3c.7-.2 1.3-.4 2-.6-.7-2.1-1.5-4.2-2.2-6.3-.7-2-1.4-3.9-2.1-5.9-.7.2-1.3.4-2 .6-.4.2-.9.3-1.3.5 1.4 4.1 2.9 8.1 4.3 12.2.4-.2.8-.4 1.3-.5z"/><path class="st9 st7" d="M730.5 400.4c.8-.8 1.7-1.6 2.5-2.3l-8.1-9.9c-.9.7-1.7 1.5-2.5 2.3 2.3 2.7 4.5 5.5 6.8 8.2.3.6.8 1.1 1.3 1.7z"/><path class="st7" d="M718.4 418c.5-1.1.9-2.1 1.5-3.1-3.6-2.2-7.3-4.3-10.9-6.5-.5 1-1 2-1.5 3.1 2.6 1.5 5.2 3.1 7.8 4.6 1 .6 2.1 1.3 3.1 1.9z"/><path class="st9 st7" d="M714.1 434.7c-4.1-.8-8.2-1.5-12.3-2.3-.1 1.1-.2 2.3-.3 3.4 4.1.8 8.2 1.5 12.4 2.3 0-1.1.1-2.3.2-3.4z"/><path class="st7" d="M822 458.4c4.1.8 8.2 1.5 12.4 2.3.3-1.1.5-2.2.7-3.4-4.1-.8-8.2-1.5-12.3-2.3-.3 1.2-.5 2.3-.8 3.4zM715.5 454.6c-4.1.7-8.2 1.4-12.3 2 .3 1.1.5 2.2.9 3.3 4.1-.7 8.2-1.4 12.3-2-.4-1.1-.7-2.2-.9-3.3z"/><path class="st9 st7" d="M823.9 440.1c4.1-.7 8.2-1.4 12.3-2-.1-1.1-.2-2.3-.4-3.4-4.1.7-8.2 1.4-12.3 2 .2 1.1.3 2.3.4 3.4z"/><path class="st7" d="M819.8 421.6c3.6-2 7.3-4.1 10.9-6.1-.4-1.1-.9-2.1-1.4-3.1-3.6 2-7.2 4.1-10.8 6.1.4 1 .8 2.1 1.3 3.1z"/><path class="st9 st7" d="M723 472.2c-3.6 2-7.2 4.1-10.8 6.1.6 1 1.2 1.9 1.9 2.9 3.6-2 7.3-4.1 10.9-6.1-.8-1-1.4-1.9-2-2.9z"/><path class="st7" d="M735.3 486.2c-2.7 3.2-5.4 6.3-8.2 9.5l2.7 2.1c2.7-3.2 5.5-6.4 8.2-9.6-.9-.6-1.8-1.3-2.7-2z"/><path class="st9 st7" d="M809.6 404.8c2.7-3.2 5.5-6.4 8.2-9.6-.8-.9-1.6-1.7-2.4-2.5-2.7 3.2-5.4 6.3-8.2 9.5.8.9 1.6 1.7 2.4 2.6z"/><path class="st7" d="M790.5 390.4c1 .5 2.1 1 3.1 1.5 1.5-4 3-7.9 4.5-11.9-1-.5-2-1-3.1-1.5-1 2.7-2 5.4-3 8-.5 1.4-1 2.6-1.5 3.9z"/><path class="st9 st7" d="M770 385.3c1.1.1 2.3.1 3.4.3 0-4.3.1-8.6.1-12.9-1.1-.1-2.3-.2-3.4-.2 0 3.6-.1 7.2-.1 10.9v1.9z"/></g></g><g><path class="st2" d="M634.5 623c-18.2-9.6-40.7-2.6-50.2 15.6-7.2 13.7-6 31.8 2.9 43.8l-11.8 22.2h.1c-1.6 4.1-.1 7.8 2.9 11.2-.2.1-.5.3-.6.6-.4.7-.1 1.6.6 1.9l9 4.8c.7.4 1.6.1 1.9-.6.1-.3.2-.5.2-.8 4.5.6 8.3.3 10.8-3.3l12-22.9c8.4 2.6 30.5-8.6 37.7-22.3 9.6-18.2 2.7-40.7-15.5-50.2z"/><path class="st3 st4" d="M614.7 620.6c6.5-.5 13.1.9 18.9 4 8.4 4.4 14.5 11.8 17.3 20.8s1.9 18.6-2.5 26.9c-2.7 5.2-8 10.5-14.9 14.9-6.1 3.9-12.8 6.5-17.4 6.8-1.3.1-2.4 0-3.2-.3l-1.5-.5-.7 1.4-11.9 22.8c-1.2 1.7-2.8 2.5-5.1 2.6-1.1.1-2.3 0-3.9-.2l-2.3-.3.2 1.6-7.7-4 1.4-.7-1.6-1.7c-2.9-3.3-3.8-6.3-2.6-9.4l.2-.5 11.4-21.6.5-1-.7-.9c-4.1-5.5-6.7-12.7-7.2-20.2-.5-7.6 1.1-15.2 4.4-21.6 2.9-5.4 7.1-10 12.2-13.3 5.1-3.3 10.8-5.2 16.7-5.6m-.1-1.8c-12.4.9-24.1 7.9-30.3 19.8-7.2 13.7-6 31.8 2.9 43.8l-11.8 22.2h.1c-1.6 4.1-.1 7.8 2.9 11.2-.2.1-.5.3-.6.6-.4.7-.1 1.6.6 1.9l9 4.8c.2.1.5.2.8.2.5 0 .9-.3 1.2-.8.1-.3.2-.5.2-.8 1.5.2 2.9.3 4.2.2 2.7-.2 4.9-1.1 6.6-3.5l12-22.9c1.1.3 2.4.4 3.9.3 10-.7 27.5-10.7 33.8-22.7 9.6-18.2 2.6-40.7-15.6-50.2-6.4-3.3-13.2-4.6-19.9-4.1z"/><path class="st5" d="M587 702.7c-.6 0-1.1-.1-1.6-.4l-6.8-3.6c-1.7-.9-2.4-3.1-1.5-4.8s3.1-2.4 4.8-1.5l6.8 3.6c1.7.9 2.4 3.1 1.5 4.8-.7 1.2-1.9 1.9-3.2 1.9z"/><path class="st10" d="M634.5 623c-18.2-9.6-40.7-2.6-50.2 15.6-7.2 13.7-6 31.8 2.9 43.8l-3.7 7 8 4.2 17.1 9 3.7-7c9.1 1.9 28.2-2.7 37.7-22.3 9.1-18.6 2.7-40.8-15.5-50.3z"/><path class="st3 st7" d="M614.7 620.6c6.5-.5 13.1.9 18.9 4 8.3 4.4 14.3 11.7 17.1 20.7 2.7 8.9 1.9 18.5-2.3 27.1-3.4 7-8.2 12.4-14.4 16.3-4.9 3.1-10.5 5-15.7 5.3-2.1.1-4 0-5.6-.3l-1.4-.3-.6 1.2-2.8 5.3-15.5-8.2-6.4-3.4 2.8-5.3.5-1-.7-.9c-4.1-5.5-6.7-12.7-7.2-20.2-.5-7.6 1.1-15.2 4.4-21.6 2.9-5.4 7.1-10 12.2-13.3 5.1-3.1 10.8-5 16.7-5.4m-.1-1.8c-12.4.9-24.1 7.9-30.3 19.8-7.2 13.7-6 31.8 2.9 43.8l-3.7 7 8 4.2 17.1 9 3.7-7c1.7.4 3.8.5 6.1.3 9.9-.7 23.8-6.8 31.6-22.7 9-18.5 2.6-40.7-15.6-50.2-6.3-3.4-13.1-4.7-19.8-4.2z"/><path class="st3 st1" d="M639.8 636.7c-13.8-20.4-46.6-13.6-50.4 8.3-.1.7.7 1.1 1.2.7 3.2-3.2 11.3-10.3 20-11.7 10.2-1.6 23.4 2.2 28.3 3.8.7.2 1.3-.6.9-1.1z"/><path class="st5" d="M605.3 712.3c-.6 0-1.1-.1-1.6-.4l-6.8-3.6c-1.7-.9-2.4-3.1-1.5-4.8s3.1-2.4 4.8-1.5l6.8 3.6c1.7.9 2.4 3.1 1.5 4.8-.7 1.2-1.9 1.9-3.2 1.9zM583.8 708.7c-.6 0-1.1-.1-1.6-.4l-6.8-3.6c-1.7-.9-2.4-3.1-1.5-4.8s3.1-2.4 4.8-1.5l6.8 3.6c1.7.9 2.4 3.1 1.5 4.8-.7 1.2-1.9 1.9-3.2 1.9z"/><path class="st5" d="M602.1 718.4c-.6 0-1.1-.1-1.6-.4l-6.8-3.6c-1.7-.9-2.4-3.1-1.5-4.8s3.1-2.4 4.8-1.5l6.8 3.6c1.7.9 2.4 3.1 1.5 4.8-.6 1.2-1.9 1.9-3.2 1.9z"/><path class="st8" d="M598.4 696.8l-3.9-2.1 11.5-21.8-5.3-17.1 4.2-1.4 5.9 19z"/><circle class="st6" cx="602.8" cy="655.1" r="5.1"/><path class="st8" d="M603.3 662.4c-1.4.1-2.7-.2-3.9-.8-3.6-1.9-5-6.3-3.1-9.9 1.2-2.3 3.4-3.7 6-3.9 1.4-.1 2.7.2 3.9.8 1.7.9 3 2.4 3.6 4.3.6 1.9.4 3.9-.5 5.6-1.2 2.3-3.4 3.7-6 3.9zm-.7-10.2c-1 .1-1.9.6-2.4 1.5-.7 1.4-.2 3.2 1.2 3.9.5.3 1 .4 1.5.3 1-.1 1.9-.6 2.4-1.5.4-.7.4-1.5.2-2.2s-.7-1.3-1.4-1.7c-.4-.2-1-.3-1.5-.3z"/><g><path transform="rotate(74.562 617.804 670.578)" class="st8" d="M615.5 660.8h4.5v19.5h-4.5z"/></g><g><circle class="st6" cx="627.2" cy="667.9" r="5.1"/><path class="st8" d="M627.7 675.3c-1.4.1-2.7-.2-3.9-.8-3.6-1.9-5-6.3-3.1-9.9 1.2-2.3 3.4-3.7 6-3.9 1.4-.1 2.7.2 3.9.8 3.6 1.9 5 6.3 3.1 9.9-1.2 2.2-3.5 3.7-6 3.9zm-.7-10.2c-1 .1-1.9.6-2.4 1.5-.7 1.4-.2 3.2 1.2 3.9.5.3 1 .4 1.5.3 1-.1 1.9-.6 2.4-1.5.7-1.4.2-3.2-1.2-3.9-.5-.3-1-.4-1.5-.3z"/></g><g><path class="st7" d="M638.5 615.4c.5.3 1 .5 1.5.8.9-1.6 1.7-3.2 2.6-4.9.8-1.5 1.6-3 2.4-4.6-.5-.3-1-.6-1.5-.8-.3-.2-.7-.3-1-.5-1.7 3.1-3.3 6.3-5 9.4.3.2.7.4 1 .6z"/><path class="st9 st7" d="M620.1 610.4c.9 0 1.9.1 2.8.2.5-3.5 1-7 1.4-10.5-.9-.1-1.9-.2-2.8-.2l-1.2 8.7c0 .6-.1 1.2-.2 1.8z"/><path class="st7" d="M602.7 613l2.7-.9c-.7-3.4-1.5-6.8-2.2-10.3-.9.3-1.8.5-2.7.8.5 2.4 1.1 4.9 1.6 7.3.2 1.1.4 2.1.6 3.1z"/><path class="st9 st7" d="M590.1 619.7c-1.8-2.9-3.7-5.9-5.5-8.8-.8.6-1.5 1.1-2.3 1.7 1.9 2.9 3.7 5.9 5.6 8.8.7-.5 1.4-1.1 2.2-1.7z"/><path class="st7" d="M636.4 698.6c1.9 2.9 3.7 5.9 5.6 8.8.8-.5 1.6-.9 2.5-1.4-1.8-2.9-3.7-5.9-5.5-8.8-.9.5-1.7 1-2.6 1.4zM578.8 631.8l-8.1-6.3-1.5 2.4c2.7 2.1 5.5 4.2 8.2 6.3.4-.8.9-1.6 1.4-2.4z"/><path class="st9 st7" d="M648.6 689.5c2.7 2.1 5.5 4.2 8.2 6.3.6-.7 1.3-1.4 1.9-2.1l-8.1-6.3c-.7.7-1.3 1.4-2 2.1z"/><path class="st7" d="M657.5 676.6c3.3 1.1 6.6 2.1 9.9 3.2.4-.9.8-1.7 1.1-2.6-3.3-1-6.5-2.1-9.8-3.1-.4.8-.8 1.6-1.2 2.5z"/><path class="st9 st7" d="M572.3 646.3c-3.3-1-6.5-2.1-9.8-3.1-.3.9-.5 1.8-.7 2.7 3.3 1.1 6.6 2.1 9.9 3.2.1-1 .3-1.9.6-2.8z"/><path class="st7" d="M570.8 661.6c-3.5.1-6.9.3-10.4.4.1.9.1 1.9.2 2.8 3.5-.1 6.9-.3 10.4-.4-.1-.9-.2-1.9-.2-2.8z"/><path class="st9 st7" d="M662 660.9c3.5-.1 6.9-.3 10.4-.4.1-1 .1-1.9.2-2.9-3.5.1-6.9.3-10.4.4 0 1-.1 2-.2 2.9z"/><path class="st7" d="M660 641.2c.3.9.6 1.8.8 2.7 3.3-1.3 6.5-2.7 9.8-4-.3-.9-.5-1.8-.8-2.7l-6.6 2.7c-1.1.5-2.1.9-3.2 1.3z"/><path class="st9 st7" d="M651.6 625.9c.6.7 1.2 1.5 1.8 2.2 2.6-2.4 5.3-4.8 7.9-7.2-.6-.8-1.2-1.5-1.8-2.2-2.2 2-4.4 4-6.7 6-.4.5-.8.8-1.2 1.2z"/></g></g><g><path class="st2" d="M409.1 517.2c-14.1 7.3-19.5 24.6-12.2 38.7 5.5 10.6 17.5 17.8 29 17.4l9 17.3h.1c1.9 2.8 4.9 3.5 8.4 3.1 0 .2 0 .4.1.6.3.5.9.7 1.5.5l7-3.6c.5-.3.7-.9.5-1.5-.1-.2-.3-.4-.5-.5 2.4-2.6 3.8-5.2 2.6-8.3l-9.2-17.6c5.3-4.1 8-23.1 2.5-33.7-7.4-14.2-24.7-19.7-38.8-12.4z"/><path class="st3 st4" d="M398.9 528.7c2.6-4.3 6.3-7.9 10.9-10.2 6.5-3.4 13.8-4 20.8-1.8 6.9 2.2 12.6 7 16 13.4 2.1 4 3.1 9.7 2.9 16-.2 5.6-1.5 11-3.3 14.1-.5.9-1 1.5-1.6 1.9l-.9.7.5 1 9.2 17.6c.5 1.5.4 2.8-.6 4.4-.4.7-1 1.5-1.8 2.4l-1.2 1.3 1.1.6-5.9 3.1.1-1.2-1.8.2c-3.3.4-5.7-.4-7.1-2.5l-.2-.3-8.7-16.7-.4-.8h-.9c-5.3.2-11-1.4-16-4.4s-9.2-7.4-11.7-12.3c-2.2-4.2-3.2-8.9-3.1-13.6 0-4.6 1.4-9 3.7-12.9m-1.2-.8c-4.9 8.2-5.6 18.8-.8 27.9 5.5 10.6 17.5 17.8 29 17.4l9 17.3h.1c1.9 2.8 4.9 3.5 8.4 3.1 0 .2 0 .4.1.6.3.5.9.7 1.5.5l7-3.6c.2-.1.3-.2.4-.4.2-.3.2-.7 0-1.1-.1-.2-.3-.4-.5-.5.8-.9 1.5-1.7 2-2.6 1.1-1.8 1.4-3.6.7-5.7l-9.2-17.6c.7-.5 1.3-1.3 1.9-2.3 3.9-6.6 5.3-22.2.5-31.4-7.3-14.1-24.6-19.5-38.7-12.2-4.9 2.4-8.8 6.2-11.4 10.6z"/><path class="st5" d="M431.2 587c-1.3 0-2.5-.7-3.1-1.9-.9-1.7-.2-3.9 1.5-4.8l5.3-2.7c1.7-.9 3.9-.2 4.8 1.5s.2 3.9-1.5 4.8l-5.3 2.7c-.6.3-1.2.4-1.7.4z"/><path class="st6" d="M409.1 517.2c-14.1 7.3-19.5 24.6-12.2 38.7 5.5 10.6 17.5 17.8 29 17.4l2.8 5.4 6.2-3.2 13.3-6.9-2.8-5.4c5.2-4.9 10.7-19 2.5-33.7-7.8-13.9-24.7-19.6-38.8-12.3z"/><path class="st3 st7" d="M398.9 528.7c2.6-4.3 6.3-7.9 10.9-10.2 6.4-3.3 13.7-3.9 20.6-1.7 6.8 2.2 12.6 7 16.2 13.4 2.9 5.2 4.3 10.7 4 16.3-.2 4.5-1.5 8.8-3.5 12.3-.8 1.4-1.7 2.6-2.7 3.4l-.8.7.5 1 2.1 4.1-12 6.2-4.9 2.6-2.1-4.1-.4-.8h-.9c-5.3.2-11-1.4-16-4.4s-9.2-7.4-11.7-12.3c-2.2-4.2-3.2-8.9-3.1-13.6.1-4.6 1.5-9 3.8-12.9m-1.2-.8c-4.9 8.2-5.6 18.8-.8 27.9 5.5 10.6 17.5 17.8 29 17.4l2.8 5.4 6.2-3.2 13.3-6.9-2.8-5.4c1-.9 2-2.2 2.9-3.7 3.9-6.6 6.2-18.1-.4-30-7.7-13.8-24.6-19.5-38.7-12.2-5 2.5-8.9 6.3-11.5 10.7z"/><path class="st3 st1" d="M420.1 519.9c-19-.2-29.1 23.5-16.9 35.6.4.4 1 0 .9-.5-.6-3.4-1.5-11.7 1.4-17.8 3.4-7.2 11.7-13.9 14.9-16.3.5-.4.2-1-.3-1z"/><path class="st5" d="M445.4 579.7c-1.3 0-2.5-.7-3.1-1.9-.9-1.7-.2-3.9 1.5-4.8l5.3-2.7c1.7-.9 3.9-.2 4.8 1.5s.2 3.9-1.5 4.8l-5.3 2.7c-.6.2-1.2.4-1.7.4zM433.6 591.7c-1.3 0-2.5-.7-3.1-1.9-.9-1.7-.2-3.9 1.5-4.8l5.3-2.7c1.7-.9 3.9-.2 4.8 1.5s.2 3.9-1.5 4.8l-5.3 2.7c-.6.3-1.1.4-1.7.4z"/><path class="st5" d="M447.8 584.3c-1.3 0-2.5-.7-3.1-1.9-.9-1.7-.2-3.9 1.5-4.8l5.3-2.7c1.7-.9 3.9-.2 4.8 1.5s.2 3.9-1.5 4.8l-5.4 2.7c-.5.3-1 .4-1.6.4z"/><path class="st8" d="M440 572.5l-3 1.6-8.8-16.9L415 553l1-3.2 14.6 4.6z"/><circle class="st6" cx="415.5" cy="551.4" r="3.9"/><path class="st8" d="M420.4 554.3c-.5.9-1.3 1.6-2.3 2.1-2.8 1.4-6.2.4-7.6-2.4-.9-1.8-.8-3.8.2-5.5.5-.9 1.3-1.6 2.3-2.1 1.3-.7 2.9-.8 4.3-.4 1.4.5 2.6 1.4 3.3 2.8.8 1.7.8 3.8-.2 5.5zm-6.8-4.1c-.4.7-.4 1.5-.1 2.2.6 1.1 1.9 1.5 3 1 .4-.2.7-.5.9-.8.4-.7.4-1.5.1-2.2-.3-.5-.7-.9-1.3-1.1s-1.2-.1-1.7.1c-.4.2-.7.5-.9.8z"/><g><path transform="rotate(19.341 431.994 548.721)" class="st8" d="M430.3 541.2h3.4v15h-3.4z"/></g><g><circle class="st6" cx="434.4" cy="541.6" r="3.9"/><path class="st8" d="M439.2 544.5c-.5.9-1.3 1.6-2.3 2.1-2.8 1.4-6.2.4-7.6-2.4-.9-1.8-.8-3.8.2-5.5.5-.9 1.3-1.6 2.3-2.1 2.8-1.4 6.2-.4 7.6 2.4.9 1.7.9 3.8-.2 5.5zm-6.7-4c-.4.7-.4 1.5-.1 2.2.6 1.1 1.9 1.5 3 1 .4-.2.7-.5.9-.8.4-.7.4-1.5.1-2.2-.6-1.1-1.9-1.5-3-1-.4.1-.7.4-.9.8z"/></g><g><path class="st7" d="M406.1 511.3l1.2-.6c-.7-1.3-1.3-2.5-2-3.8-.6-1.2-1.2-2.4-1.8-3.5l-1.2.6c-.3.1-.5.3-.8.4 1.3 2.4 2.5 4.9 3.8 7.3.3-.1.5-.3.8-.4z"/><path class="st9 st7" d="M394.8 520.7c.4-.6.9-1.1 1.4-1.7-2-1.8-4-3.7-6-5.5-.5.5-.9 1.1-1.4 1.7 1.7 1.5 3.3 3.1 5 4.6.3.3.7.6 1 .9z"/><path class="st7" d="M388.8 532.9l.6-2.1c-2.5-1-5-2.1-7.5-3.1-.2.7-.5 1.4-.7 2.1 1.8.7 3.6 1.5 5.3 2.2.8.3 1.6.6 2.3.9z"/><path class="st9 st7" d="M387.5 543.9c-2.7-.1-5.3-.2-8-.4 0 .7.1 1.5.1 2.2 2.7.1 5.4.2 8 .4 0-.7 0-1.5-.1-2.2z"/><path class="st7" d="M457.9 549.2c2.7.1 5.4.2 8 .4.1-.7.1-1.5.2-2.2-2.7-.1-5.3-.2-8-.4-.1.8-.1 1.5-.2 2.2zM390.2 556.3c-2.5.8-5.1 1.6-7.6 2.4.3.7.5 1.4.8 2 2.5-.8 5.1-1.6 7.6-2.4-.3-.6-.6-1.3-.8-2z"/><path class="st9 st7" d="M457.5 537.5c2.5-.8 5.1-1.6 7.6-2.4-.2-.7-.3-1.4-.5-2.1-2.5.8-5.1 1.6-7.6 2.4.1.7.3 1.4.5 2.1z"/><path class="st7" d="M453.2 526.2c2.1-1.6 4.2-3.2 6.3-4.9-.4-.6-.8-1.2-1.2-1.9l-6.3 4.8c.5.7.8 1.3 1.2 2z"/><path class="st9 st7" d="M396.5 566.8l-6.3 4.8c.5.6.9 1.1 1.4 1.6 2.1-1.6 4.2-3.2 6.3-4.9-.4-.4-.9-.9-1.4-1.5z"/><path class="st7" d="M405.5 574.5c-1.4 2.2-2.9 4.5-4.3 6.7.6.4 1.3.8 1.9 1.1 1.4-2.3 2.9-4.5 4.3-6.8-.6-.2-1.2-.6-1.9-1z"/><path class="st9 st7" d="M445.3 516.4c1.4-2.3 2.9-4.5 4.3-6.8-.6-.5-1.1-.9-1.7-1.4-1.4 2.2-2.9 4.5-4.3 6.7.5.6 1.1 1 1.7 1.5z"/><path class="st7" d="M431.9 509c.7.2 1.4.4 2.1.7.6-2.6 1.2-5.3 1.8-7.9-.7-.2-1.4-.5-2.1-.7l-1.2 5.4c-.2.8-.4 1.7-.6 2.5z"/><path class="st9 st7" d="M418.5 507.7c.7-.1 1.5-.1 2.2-.1-.4-2.7-.7-5.4-1.1-8.1-.7 0-1.5.1-2.2.2l.9 6.9c.1.2.1.6.2 1.1z"/></g></g><g><path class="st2" d="M590.6 465.3c-13.3-6.5-29.2-1-35.7 12.3-4.9 10-3.6 23 3.1 31.3l-7.9 16.3c-1 2.9.1 5.6 2.4 8-.2.1-.3.2-.4.4-.2.5 0 1.1.5 1.4l6.6 3.2c.5.2 1.1 0 1.4-.5.1-.2.1-.4.1-.6 3.3.3 6 0 7.7-2.6l8.1-16.7c6.1 1.7 21.7-6.9 26.6-16.9 6.2-13.2.7-29.2-12.5-35.6z"/><path class="st3 st4" d="M576.3 464c4.7-.5 9.4.4 13.7 2.4 6.1 3 10.7 8.1 12.9 14.5s1.8 13.3-1.2 19.4c-1.9 3.8-5.5 7.7-10.4 11-4.3 2.9-9 5-12.4 5.3-.9.1-1.7.1-2.3-.1l-1.1-.3-.5 1-8 16.6c-.8 1.2-1.9 1.8-3.6 2-.8.1-1.7.1-2.8 0l-1.7-.2.2 1.1-5.6-2.7 1-.6-1.2-1.2c-2.2-2.3-2.8-4.4-2.1-6.7l.1-.4 7.7-15.8.4-.7-.5-.7c-3.1-3.8-5.1-8.9-5.6-14.4-.5-5.4.4-11 2.7-15.6 1.9-4 4.9-7.3 8.5-9.8 3.5-2.2 7.6-3.6 11.8-4.1m-.1-1.3c-8.9.9-17.1 6.2-21.3 14.9-4.9 10-3.6 23 3.1 31.3l-7.9 16.3c-1 2.9.1 5.6 2.4 8-.2.1-.3.2-.4.4-.2.5 0 1.1.5 1.4l6.6 3.2c.2.1.4.1.5.1.3 0 .7-.2.8-.6.1-.2.1-.4.1-.6 1.1.1 2.1.1 3 0 1.9-.2 3.5-.9 4.6-2.7l8.1-16.7c.8.2 1.7.3 2.8.2 7.1-.7 19.5-8.3 23.8-17 6.5-13.3 1-29.2-12.3-35.7-4.6-2.2-9.6-3-14.4-2.5z"/><path class="st5" d="M558.2 524.5c-.5 0-1-.1-1.5-.4l-4.9-2.4c-1.8-.9-2.5-3-1.6-4.7.9-1.8 3-2.5 4.7-1.6l4.9 2.4c1.8.9 2.5 3 1.6 4.7-.6 1.3-1.9 2-3.2 2z"/><path class="st6" d="M590.6 465.3c-13.3-6.5-29.2-1-35.7 12.3-4.9 10-3.6 23 3.1 31.3l-2.5 5.1 5.8 2.8 12.5 6.1 2.5-5.1c6.6 1.2 20.1-2.6 26.6-16.9 6-13.4.9-29.2-12.3-35.6z"/><path class="st3 st7" d="M576.3 464c4.7-.5 9.4.4 13.7 2.4 6 2.9 10.6 8.1 12.7 14.5 2.1 6.3 1.8 13.3-1 19.5-2.3 5.1-5.6 9.1-9.9 12-3.4 2.3-7.4 3.8-11.2 4.2-1.5.2-2.9.1-4-.1l-1-.2-.4.9-1.9 3.9-11.3-5.5-4.6-2.3 1.9-3.9.4-.7-.5-.7c-3.1-3.8-5.1-8.9-5.6-14.4-.5-5.4.4-11 2.7-15.6 1.9-4 4.9-7.3 8.5-9.8 3.2-2.3 7.3-3.7 11.5-4.2m-.1-1.3c-8.9.9-17.1 6.2-21.3 14.9-4.9 10-3.6 23 3.1 31.3l-2.5 5.1 5.8 2.8 12.5 6.1 2.5-5.1c1.2.2 2.7.3 4.4.1 7.1-.7 17-5.4 22.2-17 6-13.4 1-29.2-12.3-35.7-4.6-2.2-9.6-3-14.4-2.5z"/><path class="st3 st1" d="M594.7 475c-10.4-14.3-33.7-8.7-36 7.1-.1.5.5.8.9.4 2.3-2.3 7.9-7.6 14.1-8.8 7.3-1.4 16.9 1.1 20.4 2.1.5.1.9-.4.6-.8z"/><path class="st5" d="M571.6 531.1c-.5 0-1-.1-1.5-.4l-4.9-2.4c-1.8-.9-2.5-3-1.6-4.7.9-1.8 3-2.5 4.7-1.6l4.9 2.4c1.8.9 2.5 3 1.6 4.7-.6 1.2-1.9 2-3.2 2zM556.1 528.9c-.5 0-1.1-.1-1.6-.4l-4.9-2.4c-1.8-.9-2.5-3-1.6-4.7.9-1.8 3-2.5 4.7-1.6l4.9 2.4c1.8.9 2.5 3 1.6 4.7-.6 1.3-1.8 2-3.1 2z"/><path class="st5" d="M569.4 535.5c-.5 0-1-.1-1.5-.4l-4.9-2.4c-1.8-.9-2.5-3-1.6-4.7.9-1.8 3-2.5 4.7-1.6l4.9 2.4c1.8.9 2.5 3 1.6 4.7-.6 1.2-1.8 2-3.2 2z"/><path class="st8" d="M566.4 519.1l-2.9-1.4 7.8-15.9-4.2-12.2 3-1.1 4.6 13.5z"/><circle class="st6" cx="568.6" cy="489" r="3.7"/><path class="st8" d="M569.1 494.3c-1 .1-2-.1-2.8-.5-2.6-1.3-3.7-4.4-2.4-7 .8-1.7 2.4-2.7 4.2-2.9 1-.1 2 .1 2.8.5 1.3.6 2.2 1.7 2.7 3s.4 2.8-.2 4c-.9 1.6-2.5 2.7-4.3 2.9zm-.7-7.3c-.7.1-1.3.5-1.7 1.2-.5 1-.1 2.3 1 2.8.3.2.7.2 1.1.2.7-.1 1.3-.5 1.7-1.2.2-.5.3-1.1.1-1.6s-.6-.9-1.1-1.2c-.4-.2-.8-.3-1.1-.2z"/><g><path transform="rotate(72.759 579.776 499.822)" class="st8" d="M578.2 492.8h3.2v14h-3.2z"/></g><g><circle class="st6" cx="586.3" cy="497.7" r="3.7"/><path class="st8" d="M586.9 503c-1 .1-2-.1-2.8-.5-2.6-1.3-3.7-4.4-2.4-7 .8-1.7 2.4-2.7 4.2-2.9 1-.1 2 .1 2.8.5 2.6 1.3 3.7 4.4 2.4 7-.8 1.6-2.4 2.7-4.2 2.9zm-.8-7.3c-.7.1-1.3.5-1.7 1.2-.5 1-.1 2.3 1 2.8.3.2.7.2 1.1.2.7-.1 1.3-.5 1.7-1.2.5-1 .1-2.3-1-2.8-.3-.2-.7-.3-1.1-.2z"/></g><g><path class="st7" d="M593.3 459.8c.4.2.7.4 1.1.6.6-1.2 1.2-2.4 1.7-3.6.5-1.1 1.1-2.2 1.6-3.3-.4-.2-.7-.4-1.1-.6-.2-.1-.5-.2-.7-.3-1.1 2.3-2.2 4.6-3.4 6.9.3 0 .5.1.8.3z"/><path class="st9 st7" d="M580 456.6c.7 0 1.4 0 2 .1.3-2.5.5-5.1.8-7.6-.7-.1-1.4-.1-2-.1-.2 2.1-.4 4.2-.7 6.3 0 .4 0 .8-.1 1.3z"/><path class="st7" d="M567.5 458.8c.6-.2 1.3-.5 1.9-.7-.6-2.4-1.2-4.9-1.8-7.3-.6.2-1.3.4-1.9.7.4 1.7.9 3.5 1.3 5.2.2.7.4 1.4.5 2.1z"/><path class="st9 st7" d="M558.7 464c-1.4-2.1-2.8-4.1-4.2-6.2-.5.4-1.1.9-1.6 1.3 1.4 2.1 2.8 4.1 4.2 6.2.5-.5 1-.9 1.6-1.3z"/><path class="st7" d="M593.7 519.5c1.4 2.1 2.8 4.1 4.2 6.2.6-.3 1.2-.7 1.7-1.1-1.4-2.1-2.8-4.1-4.2-6.2-.5.4-1.1.8-1.7 1.1zM550.8 472.8c-2-1.4-4-2.9-6-4.3-.4.6-.7 1.2-1 1.7 2 1.5 4 2.9 6 4.4.3-.6.7-1.2 1-1.8z"/><path class="st9 st7" d="M602.2 512.7c2 1.5 4 2.9 6 4.4.4-.5.9-1 1.3-1.6-2-1.4-4-2.9-6-4.3-.4.5-.8 1-1.3 1.5z"/><path class="st7" d="M608.3 503.2c2.4.7 4.8 1.4 7.1 2 .3-.6.5-1.3.7-1.9-2.4-.7-4.7-1.4-7.1-2-.1.7-.4 1.3-.7 1.9z"/><path class="st9 st7" d="M546.5 483.4c-2.4-.7-4.7-1.4-7.1-2-.2.7-.3 1.3-.4 2 2.4.7 4.8 1.4 7.1 2 .1-.7.2-1.3.4-2z"/><path class="st7" d="M545.7 494.4c-2.5.2-5 .3-7.4.5.1.7.1 1.4.2 2 2.5-.2 5-.3 7.5-.5-.1-.6-.2-1.3-.3-2z"/><path class="st9 st7" d="M611.2 491.9c2.5-.2 5-.3 7.5-.5 0-.7.1-1.4.1-2-2.5.2-5 .3-7.4.5-.1.6-.2 1.3-.2 2z"/><path class="st7" d="M609.3 477.8c.2.6.4 1.3.6 1.9 2.3-1 4.6-2.1 6.9-3.1-.2-.7-.4-1.3-.7-1.9-1.6.7-3.1 1.4-4.7 2.1-.6.4-1.3.7-2.1 1z"/><path class="st9 st7" d="M602.9 467c.5.5.9 1 1.3 1.6 1.8-1.8 3.7-3.5 5.5-5.3-.4-.5-.9-1-1.3-1.5-1.5 1.5-3.1 3-4.6 4.5-.3.2-.6.4-.9.7z"/></g></g><g><path class="st1" d="M449.8 188.6c-1.8 0-3.6-.7-5-2.1-2.8-2.8-2.8-7.3 0-10l19.2-19.4c1.3-1.3 3.1-2.2 5-2.2h.2c1.9 0 3.7.9 5 2.2l19.2 19.3c2.8 2.8 2.8 7.3 0 10.1s-7.3 2.8-10 0l-14.3-14.3-14.3 14.3c-1.3 1.4-3.1 2.1-5 2.1z"/></g><g><path class="st1" d="M469.4 165.1c-3.9 0-7 3.2-7 7.1v170.5c0 19.7-7.7 38.3-21.7 52.3l-61.9 61.9c-.6 8.2-2 16.3-4.3 24.3l76.1-76.2c16.6-16.6 25.7-38.8 25.7-62.3V172.2c.1-3.9-3-7.1-6.9-7.1zM334.4 375.2c-40.5-40.5-106.3-40.5-146.8 0s-40.5 106.3 0 146.8c20.2 20.2 46.8 30.4 73.4 30.4h2.3l16-16c-28.6 5.9-59.6-2.2-81.7-24.3-35-35-35-91.8 0-126.8 17.5-17.5 40.4-26.2 63.4-26.2s45.9 8.7 63.4 26.2c32.2 32.2 34.7 82.9 7.7 118-.3.5-.7 1-1.1 1.5l-.2.2c-.1.1-.2.3-.3.4l-5.9 5.9c-.2.2-.4.3-.6.5L198.6 637c-2.8 2.8-2.8 7.3 0 10 1.4 1.4 3.2 2.1 5 2.1 1.8 0 3.6-.7 5-2.1l118.2-118.2c2.6-2.1 5.1-4.4 7.5-6.8 2.3-2.3 4.5-4.7 6.5-7.1l1.7-1.7c9.4-11.9 15.9-25.4 19.4-39.4l-.3.3c8.6-34.3-.5-72.1-27.2-98.9z"/></g><g><path class="st11" d="M699.1 521.8c1.4 1.4 3.2 2.1 5 2.1s3.6-.7 5-2.1c2.8-2.8 2.8-7.3 0-10l-37.9-37.9c3.5 14.1 10 27.5 19.4 39.4l8.5 8.5z"/><path class="st1" d="M654.2 456.9l-62-61.9c-14-14-21.8-32.5-21.8-52.3V172.2c0-3.9-3.1-7.1-7-7.1s-7 3.2-7 7.1v170.5c0 23.5 9.2 45.6 25.8 62.3l76.2 76.2c-2.2-8-3.6-16.2-4.2-24.3z"/></g><g><path class="st1" d="M583.2 188.6c-1.8 0-3.6-.7-5-2.1l-14.3-14.3-14.3 14.3c-2.8 2.8-7.3 2.8-10 0-2.8-2.8-2.8-7.3 0-10l19.2-19.4c1.3-1.3 3.1-2.2 5-2.2h.2c1.9 0 3.7.9 5 2.2l19.2 19.3c2.8 2.8 2.8 7.3 0 10.1-1.4 1.4-3.2 2.1-5 2.1z"/></g><path class="st1" d="M845.5 375.2c-40.5-40.5-106.3-40.5-146.8 0-40.5 40.5-40.5 106.3 0 146.8 13.7 13.7 30.4 22.8 48 27.2l-30.9-30.9c-2.4-2-4.8-4.1-7-6.3-2.3-2.3-4.4-4.6-6.3-7l-.2-.2c-.5-.5-.8-1-1.1-1.5-27-35.1-24.5-85.9 7.7-118 35-35 91.8-35 126.8 0s35 91.8 0 126.8c-22.2 22.2-53.1 30.3-81.7 24.3l16 16h2.3c26.6 0 53.2-10.1 73.4-30.4 40.3-40.5 40.3-106.3-.2-146.8z"/><g><path class="st1" d="M829.4 649.1c-1.8 0-3.6-.7-5-2.1L699.1 521.8c-2.8-2.8-2.8-7.3 0-10 2.8-2.8 7.3-2.8 10 0L834.4 637c2.8 2.8 2.8 7.3 0 10-1.4 1.4-3.2 2.1-5 2.1z"/></g><g><path class="st1" d="M534.6 146c-1.8 0-3.6-.7-5-2.1l-14.4-14.3-14.2 14.3c-2.8 2.8-7.3 2.7-10 0-2.8-2.8-2.7-7.3 0-10l19.2-19c1.3-1.3 3.1-2 5-2h.2c1.9 0 3.7.6 5 2l19.2 19.1c2.8 2.8 2.8 7.2 0 10-1.3 1.4-3.1 2-5 2z"/></g><g><path class="st1" d="M523.4 129.7c0-3.9-3.6-7.1-7.5-7.1s-7.5 3.2-7.5 7.1v471.4c4-7.3 8-14.1 15-20.4v-451zM612.5 554.1c-38 0-71.1 20.6-89.1 51.2v-.4c-9 13-14 27.8-15 43.6v3.2c0 2.1.2 4.2.2 6.3 0 19.2 4.8 37.2 14.8 52.6v-46.8c0-1.3-.1-2.7-.2-4 .1-.5.2-1 .2-1.5v-10c0-1.1-.1-2.1.3-3 6.1-43.5 43.4-77.1 88.6-77.1 49.4 0 89.6 40.2 89.6 89.7s-40.5 89.7-89.9 89.7c-31.5 0-59.5-16.4-75.5-41v22.8c19 19.9 45.9 32.4 75.5 32.4 57.2 0 104.1-46.6 104.1-103.8-.1-57.3-46.4-103.9-103.6-103.9z"/></g><g><path class="st1" d="M515.9 842.6c-3.9 0-7.5-3.2-7.5-7.1V658.4c0-3.9 3.6-7.1 7.5-7.1s7.5 3.2 7.5 7.1v177.2c0 3.8-3.6 7-7.5 7z"/></g><g><path class="st1" d="M304 789.3c-3.9 0-7.7-2-10-5.2-2.3-3.3-2.9-7.4-1.5-11.1l28.5-88.2v-.1c.8-2 1-4.2.6-6.3v-.1l-4.9-43.9-1.1.2c-.4.1-.7.1-1.1.1-2.9 0-5.4-2.1-5.9-4.9-.6-3.3 1.5-6.4 4.8-7h.1l7.8-.7c12.6-1.1 25.1-3.4 37.3-7l7.6-2.2h.1c.4-.1.7-.1 1.1-.1 2.9 0 5.4 2.1 5.9 4.9.6 3.3-1.5 6.4-4.8 7l-1.1.2 11.2 42.7v.1c.4 2.1 1.4 4.1 2.9 5.7l.1.1 58.5 72c2.9 3.3 3.7 7.8 2.3 12-1.5 4.2-4.9 7.2-9.3 8l-126.7 23.6c-.9.1-1.6.2-2.4.2z"/><path class="st12" d="M367.4 615c1.8 0 3.5 1.3 3.8 3.2.4 2.1-1 4.1-3.1 4.5l-3.4.6 11.8 44.9c.5 2.5 1.6 4.8 3.4 6.7l58.4 71.9c5.1 5.9 1.9 15.1-5.8 16.5l-126.7 23.6c-.6.1-1.3.2-1.9.2-6.8 0-11.9-6.8-9.4-13.5l28.5-88.2c1-2.4 1.2-5 .7-7.5l-5.2-46.1-3.4.6c-.2 0-.5.1-.7.1-1.8 0-3.5-1.3-3.8-3.2-.4-2.1 1-4.1 3.1-4.5l7.7-.7c12.8-1.1 25.4-3.5 37.7-7l7.5-2.2c.3.1.6.1.8.1m0-4.3c-.5 0-1 0-1.5.1h-.2l-.2.1-7.5 2.2c-12 3.5-24.4 5.8-36.9 6.9l-7.7.7h-.4c-4.4.8-7.3 5.1-6.5 9.5.7 3.8 4.1 6.6 8 6.6h.4l4.7 41.7v.4c.3 1.7.1 3.5-.5 5.1l-.1.1v.1l-28.5 88.1c-1.6 4.4-.9 9.2 1.8 13 2.7 3.8 7.1 6.1 11.7 6.1.9 0 1.8-.1 2.7-.3l126.7-23.6c5.1-1 9.2-4.5 10.9-9.4 1.7-4.9.7-10.1-2.7-14.1l-58.4-71.9-.1-.1-.1-.1c-1.2-1.3-2-2.9-2.3-4.6V667L370 626.5c1.7-.6 3.1-1.6 4.1-3.1 1.2-1.8 1.7-4 1.3-6.1-.7-3.8-4.1-6.6-8-6.6z"/><path class="st13" d="M309.6 776l115.6-21.6c2.5-.5 3.6-3.4 2-5.4l-38.9-48c-30.1 14.9-46-.1-63.3 11.8l-19.2 58.8c-.8 2.5 1.3 4.9 3.8 4.4z"/><path class="st9 st1" d="M340.8 741.4c-3.8 0-7.2-2.7-8-6.6-.4-2.1.1-4.3 1.3-6.1 1.2-1.8 3.1-3 5.2-3.4s4.3.1 6.1 1.3c1.8 1.2 3 3.1 3.4 5.2s-.1 4.3-1.3 6.1c-1.2 1.8-3.1 3-5.2 3.4-.5.1-1 .1-1.5.1zm0-12.7c-.3 0-.6 0-.8.1-1.2.2-2.2.9-2.9 1.9-.7 1-.9 2.2-.7 3.4.2 1.2.9 2.2 1.9 2.9s2.2.9 3.4.7c2.5-.5 4.1-2.9 3.7-5.3-.5-2.1-2.4-3.7-4.6-3.7z"/><circle class="st9 st1" cx="367.6" cy="725.8" r="2.4"/><circle class="st9 st1" cx="361.6" cy="747.9" r="5.1"/><path class="st9 st1" d="M388 743.1c-3.3 0-6.2-2.3-6.8-5.6-.7-3.7 1.8-7.4 5.5-8.1 3.7-.7 7.4 1.8 8.1 5.5.7 3.7-1.8 7.4-5.5 8.1-.4 0-.8.1-1.3.1zm0-10.3c-.2 0-.4 0-.6.1-1.8.3-3 2.1-2.7 3.9s2.1 3 3.9 2.7 3-2.1 2.7-3.9c-.3-1.7-1.7-2.8-3.3-2.8z"/><path class="st13" d="M342.9 675.3c1.1 0 2.2.8 2.4 2 .2 1.3-.6 2.6-1.9 2.8h-.4c-1.1 0-2.2-.8-2.4-2-.2-1.3.6-2.6 1.9-2.8h.4m0-3.5c-.4 0-.7 0-1.1.1-1.6.3-2.9 1.2-3.8 2.5s-1.2 2.9-.9 4.5c.5 2.8 3 4.9 5.9 4.9.4 0 .7 0 1.1-.1 1.6-.3 2.9-1.2 3.8-2.5s1.2-2.9.9-4.5c-.5-2.9-3-4.9-5.9-4.9z"/><circle class="st13" cx="365.1" cy="696.1" r="3.5"/><circle class="st13" cx="349.6" cy="652.4" r="5.5"/><circle class="st13" cx="357.2" cy="582.5" r="2.4"/><circle class="st13" cx="311.5" cy="577.8" r="5.5"/><path class="st13" d="M334.4 607.8c-1.4 0-2.7-.4-3.9-1.2-1.5-1-2.5-2.6-2.9-4.4-.3-1.8 0-3.7 1.1-5.2 1-1.5 2.6-2.5 4.4-2.9 3.7-.7 7.4 1.8 8.1 5.5s-1.8 7.4-5.5 8.1c-.5.1-.9.1-1.3.1zm0-10.3c-.2 0-.4 0-.6.1-.9.2-1.7.7-2.2 1.4s-.7 1.6-.5 2.5c.2.9.7 1.7 1.4 2.2.7.5 1.6.7 2.5.5 1.8-.3 3-2.1 2.7-3.9-.3-1.6-1.7-2.8-3.3-2.8z"/><path class="st14" d="M425.4 746.9c-.4.3-.9.6-1.5.7l-115.6 21.6c-.6.1-1.2.1-1.7-.1l-.9 2.7c-.8 2.4 1.3 4.8 3.8 4.3l115.6-21.6c2.5-.5 3.6-3.4 2-5.4l-1.7-2.2z"/><g><path class="st12" d="M325.2 635.7c-1.1 0-2-.8-2.1-1.9-.1-1.2.8-2.2 1.9-2.3 11.6-1 22.7-3.1 33.8-6.3 1.1-.3 2.3.3 2.6 1.5.3 1.1-.3 2.3-1.5 2.6-11.4 3.3-22.7 5.4-34.7 6.4.2 0 .1 0 0 0z"/></g></g><g><path class="st1" d="M704.5 704.5c-3.2-2.2-5.2-6-5.2-10s1.8-7.7 5.1-10l73.6-56.3h.1c1.8-1.2 3.2-2.9 4.1-4.8v-.1l20.9-38.9-1.1-.5c-.3-.2-.7-.3-1-.5-2.4-1.6-3.2-4.8-2.1-7.4 1.4-3 4.9-4.4 7.9-3h.1l6.8 3.9c11 6.3 22.6 11.5 34.6 15.5l7.5 2.5h.1c.3.2.7.3 1 .5 2.4 1.6 3.2 4.8 2.1 7.4-1.4 3-4.9 4.4-7.9 3l-1.1-.5-15 41.6v.1c-.9 2-1.2 4.1-.9 6.3v.1l7.1 92.5c.5 4.3-1.4 8.5-5 11.1s-8.1 3.1-12.2 1.3l-117.6-52.6c-.6-.4-1.3-.8-1.9-1.2z"/><path class="st12" d="M855.8 597.2c1.5 1 2.1 3 1.3 4.8-.9 2-3.2 2.8-5.1 2l-3.1-1.4-15.8 43.6c-1 2.3-1.4 4.9-1 7.5l7.1 92.4c.9 7.7-7 13.5-14.1 10.3l-117.7-52.7c-.6-.3-1.2-.6-1.7-.9-5.6-3.8-5.9-12.3-.1-16.5l73.6-56.3c2.1-1.4 3.8-3.4 4.9-5.7l22-40.9-3.1-1.4c-.2-.1-.4-.2-.6-.4-1.5-1-2.1-3-1.3-4.8.9-2 3.2-2.8 5.1-2l6.7 3.8c11.1 6.3 22.8 11.6 35 15.6l7.4 2.5c.1.2.3.4.5.5m2.5-3.5c-.4-.3-.9-.5-1.3-.7l-.2-.1-.2-.1-7.4-2.5c-11.8-4-23.4-9.1-34.2-15.3l-6.7-3.8-.2-.1-.2-.1c-4.1-1.8-8.9 0-10.7 4.1-1.6 3.6-.4 7.8 2.8 10 .1.1.2.1.3.2l-19.9 36.9-.1.1-.1.1c-.7 1.6-1.9 3-3.3 3.9l-.1.1-.1.1-73.6 56.4c-3.8 2.8-6 7-5.9 11.7 0 4.7 2.3 9 6.1 11.7.7.5 1.5 1 2.4 1.3l117.6 52.6c4.8 2.1 10.1 1.6 14.3-1.5s6.4-7.9 5.8-13.1l-7.1-92.3v-.2c-.3-1.7 0-3.5.7-5.1l.1-.1.1-.1 14.3-39.4c1.7.5 3.5.4 5.2-.2 2-.8 3.6-2.3 4.5-4.3 1.5-3.8.3-8-2.9-10.2z"/><path class="st11" d="M716.7 696.8l107.3 48c2.3 1 4.9-.8 4.7-3.3l-4.7-61.6c-33.2-4.9-37.7-26.3-58.8-26.3l-49.3 37.5c-1.9 1.5-1.6 4.6.8 5.7z"/><path class="st9 st1" d="M762 686.1c-3.1-2.2-4.4-6.4-2.8-10 .9-2 2.5-3.5 4.5-4.3s4.2-.7 6.2.2 3.5 2.5 4.3 4.5.7 4.2-.2 6.2-2.5 3.5-4.5 4.3-4.2.7-6.2-.2c-.4-.2-.9-.4-1.3-.7zm7.3-10.5c-.2-.2-.5-.3-.7-.4-1.1-.5-2.4-.5-3.5-.1s-2 1.3-2.5 2.4c-.5 1.1-.5 2.4-.1 3.5s1.3 2 2.4 2.5c2.3 1 5 0 6-2.3.8-2 .1-4.3-1.6-5.6z"/><circle class="st9 st1" cx="793" cy="688.5" r="2.4"/><circle class="st9 st1" cx="775.4" cy="703.2" r="5.1"/><path class="st9 st1" d="M799.9 714.3c-2.7-1.9-3.8-5.4-2.4-8.5 1.6-3.5 5.7-5 9.1-3.5 3.5 1.6 5 5.7 3.5 9.1-1.6 3.5-5.7 5-9.1 3.5-.4-.2-.8-.4-1.1-.6zm5.9-8.5c-.2-.1-.3-.2-.5-.3-1.7-.8-3.7 0-4.4 1.7-.8 1.7 0 3.7 1.7 4.4 1.7.8 3.7 0 4.4-1.7.6-1.4.1-3.2-1.2-4.1z"/><path class="st11" d="M801.4 632.9c.9.7 1.3 1.9.8 3-.5 1.2-2 1.8-3.2 1.2-.1-.1-.3-.1-.4-.2-.9-.7-1.3-1.9-.8-3 .5-1.2 2-1.8 3.2-1.2.1.1.2.1.4.2m2-2.9c-.3-.2-.6-.4-1-.5-1.5-.7-3.1-.7-4.6-.1s-2.7 1.7-3.3 3.1c-1.2 2.6-.3 5.7 2.1 7.4.3.2.6.4 1 .5 1.5.7 3.1.7 4.6.1 1.5-.6 2.7-1.7 3.3-3.1 1.1-2.7.2-5.8-2.1-7.4z"/><circle class="st11" cx="807.7" cy="662.6" r="3.5"/><circle class="st11" cx="819.9" cy="617.8" r="5.5"/><circle class="st11" cx="865.9" cy="564.7" r="2.4"/><circle class="st11" cx="831" cy="534.8" r="5.5"/><path class="st11" d="M832.7 572.5c-1.1-.8-2-1.9-2.5-3.2-.7-1.7-.6-3.6.1-5.3.8-1.7 2.1-3 3.8-3.6 1.7-.7 3.6-.6 5.3.1 3.5 1.6 5 5.7 3.5 9.1-1.6 3.5-5.7 5-9.1 3.5-.4-.1-.7-.4-1.1-.6zm5.9-8.4c-.2-.1-.3-.2-.5-.3-.8-.4-1.7-.4-2.6-.1-.8.3-1.5.9-1.9 1.8-.4.8-.4 1.7-.1 2.6.3.8.9 1.5 1.8 1.9 1.7.8 3.7 0 4.4-1.7.7-1.6.2-3.3-1.1-4.2z"/><path class="st15" d="M828.5 738.7c-.5 0-1.1 0-1.6-.3l-107.3-48c-.5-.2-1-.6-1.3-1l-2.2 1.7c-2 1.5-1.7 4.7.7 5.7l107.3 48c2.3 1 4.9-.8 4.7-3.3l-.3-2.8z"/><g><path class="st12" d="M809.4 590.2c-.9-.6-1.2-1.8-.6-2.8.6-1 1.9-1.4 2.9-.8 10.2 5.8 20.4 10.3 31.4 14 1.1.4 1.7 1.6 1.3 2.7s-1.6 1.7-2.7 1.3c-11.2-3.8-21.7-8.5-32.1-14.4-.1.1-.2.1-.2 0z"/></g></g><g><path class="st1" d="M448.1 497.3c-1.8.1-3.5-.7-4.6-2.2-1.1-1.4-1.5-3.3-.9-5l11.1-40.7c.3-.9.4-1.9.1-2.9l-3.2-19.9-.5.1c-.2 0-.3.1-.5.1-1.3.1-2.5-.8-2.8-2.1-.3-1.5.6-2.9 2-3.3l3.5-.5c5.7-.8 11.3-2.1 16.8-4l3.4-1.2c.2 0 .3-.1.5-.1 1.3-.1 2.5.8 2.8 2.1.3 1.5-.6 2.9-2 3.3l-.5.1 6 19.2c.2 1 .7 1.8 1.4 2.5l28.1 31.5c1.4 1.4 1.9 3.5 1.3 5.4s-2.1 3.4-4.1 3.8L448.9 497c-.1.3-.4.3-.8.3z"/><path class="st12" d="M473.2 416.7c.8 0 1.6.5 1.8 1.4.2.9-.4 1.9-1.3 2.1l-1.5.4 6.3 20.1c.3 1.1.9 2.2 1.7 3l28.1 31.4c2.5 2.6 1.2 6.8-2.3 7.6l-57.1 13.5c-.3.1-.6.1-.9.1-3.1.1-5.5-2.8-4.6-5.9l11.1-40.7c.4-1.1.4-2.3.2-3.4l-3.4-20.9-1.5.4h-.3c-.8 0-1.6-.5-1.8-1.4-.2-.9.4-1.9 1.3-2.1l3.5-.5c5.8-.8 11.5-2.1 17-4l3.3-1.1h.4m-.1-1.9c-.2 0-.5 0-.7.1h-.2l-3.3 1.1c-5.4 1.8-11 3.2-16.6 3.9l-3.5.5h-.2c-2 .5-3.2 2.5-2.8 4.5.4 1.7 2 2.9 3.8 2.8h.2l3 18.8v.2c.2.8.1 1.6-.1 2.3v.2l-11.1 40.7c-.6 2-.2 4.2 1.1 5.9 1.3 1.7 3.3 2.6 5.4 2.5.4 0 .8-.1 1.2-.2l57.1-13.5c2.3-.5 4.1-2.2 4.8-4.5s.1-4.6-1.5-6.3l-28.1-31.4v-.1c-.6-.6-1-1.3-1.2-2v-.2l-5.7-18.2c.7-.3 1.4-.8 1.8-1.5.5-.8.7-1.8.5-2.8-.6-1.7-2.1-2.9-3.9-2.8z"/><path class="st16" d="M450.4 491.2l52-12.3c1.1-.3 1.6-1.6.8-2.5l-18.7-21c-13.4 7.4-20.9.9-28.5 6.7l-7.5 27.2c-.3 1.1.7 2.1 1.9 1.9z"/><path class="st9 st1" d="M463.8 474.8c-1.7.1-3.4-1.1-3.8-2.8-.2-1-.1-2 .5-2.8.5-.8 1.3-1.4 2.3-1.7 1-.2 1.9-.1 2.8.5.8.5 1.4 1.3 1.7 2.3.2 1 .1 2-.5 2.8-.5.8-1.3 1.4-2.3 1.7-.2-.1-.5 0-.7 0zm-.3-5.8c-.1 0-.3 0-.4.1-.5.1-1 .5-1.3.9-.3.5-.4 1-.3 1.6.1.5.5 1 .9 1.3.5.3 1 .4 1.6.3 1.1-.3 1.8-1.4 1.5-2.5-.1-1.1-1-1.7-2-1.7z"/><circle class="st9 st1" cx="475.7" cy="467.1" r="1.1"/><circle class="st9 st1" cx="473.4" cy="477.3" r="2.3"/><path class="st9 st1" d="M485.3 474.5c-1.5.1-2.9-.9-3.2-2.4-.4-1.7.6-3.4 2.3-3.8 1.7-.4 3.4.7 3.8 2.3.4 1.7-.7 3.4-2.3 3.8-.2.1-.4.1-.6.1zm-.2-4.7h-.3c-.8.2-1.3 1-1.1 1.8.2.8 1 1.3 1.8 1.1.8-.2 1.3-1 1.1-1.8-.1-.6-.8-1.1-1.5-1.1z"/><path class="st16" d="M463.3 444.7c.5 0 1 .3 1.1.9s-.2 1.2-.8 1.3h-.2c-.5 0-1-.3-1.1-.9s.2-1.2.8-1.3h.2m0-1.6c-.2 0-.3 0-.5.1-.7.2-1.3.6-1.7 1.2-.4.6-.5 1.3-.3 2.1.3 1.3 1.5 2.2 2.8 2.1.2 0 .3 0 .5-.1.7-.2 1.3-.6 1.7-1.2s.5-1.3.3-2.1c-.4-1.3-1.5-2.2-2.8-2.1z"/><circle class="st16" cx="473.8" cy="453.7" r="1.6"/><circle class="st16" cx="465.9" cy="434.1" r="2.5"/><circle class="st16" cx="467.8" cy="402.2" r="1.1"/><circle class="st16" cx="446.9" cy="401" r="2.5"/><path class="st16" d="M458 414.2c-.6 0-1.2-.1-1.8-.5-.7-.4-1.2-1.1-1.4-2-.2-.8-.1-1.7.4-2.4.4-.7 1.1-1.2 2-1.4 1.7-.4 3.4.7 3.8 2.3.4 1.7-.6 3.4-2.3 3.8-.3.1-.5.2-.7.2zm-.2-4.7h-.3c-.4.1-.7.3-1 .7-.2.3-.3.8-.2 1.2.1.4.3.7.7 1 .3.2.8.3 1.2.2.8-.2 1.3-1 1.1-1.8-.1-.8-.8-1.3-1.5-1.3z"/><path class="st17" d="M502.4 475.4c-.2.2-.4.3-.7.4l-52.1 12.3c-.3.1-.5 0-.8 0l-.3 1.2c-.3 1.1.7 2.2 1.8 1.9l52.1-12.3c1.1-.3 1.6-1.6.8-2.5l-.8-1z"/><g><path class="st12" d="M454.4 427c-.5 0-.9-.3-1-.8s.3-1 .8-1.1c5.3-.7 10.2-1.9 15.2-3.6.5-.2 1.1.1 1.2.6.2.5-.1 1.1-.6 1.2-5 1.8-10.1 3-15.6 3.7.1 0 .1 0 0 0z"/></g></g></svg>