<svg id="Layer_1" xmlns="http://www.w3.org/2000/svg" viewBox="120 231 800 500"><style>.st0,.st1,.st2{stroke:gray;stroke-width:9;stroke-miterlimit:10}.st0{stroke-linecap:round;stroke-linejoin:round;fill:none}.st1,.st2{fill:#b3b3b3}.st2{fill:#f2f2f2;stroke:#b3b3b3}.st3{enable-background:new}</style><path class="st0" d="M397.6 609.6l-27.3 15.3 27.3 15.3M752.2 625.4l-376.5-.9M635.9 360.2l27.3-15.3-27.3-15.3M281.3 344.4l376.5 1"/><circle class="st1" cx="281.3" cy="484.7" r="140"/><circle class="st1" cx="751.3" cy="484.7" r="140"/><path class="st2" d="M351.5 528.1H211.1c-12.9 0-23.4-10.5-23.4-23.4v-40c0-12.9 10.5-23.4 23.4-23.4h140.4c12.9 0 23.4 10.5 23.4 23.4v40c0 12.9-10.5 23.4-23.4 23.4z"/><g class="st3"><path d="M225.9 456.6h7.5c1.1 0 2.2.1 3.1.5 1.8.8 2.9 2.4 2.9 4.6 0 2.9-1.7 6.1-4.9 7.1v.1s.2.3.5 1.1l2.8 7.9h-4.1L231 470h-3.8l-1.5 7.9h-3.9l4.1-21.3zm5.3 10c2.3 0 4.2-1.6 4.2-4.2 0-1.6-1-2.5-2.8-2.5h-3.5l-1.3 6.7h3.4zM249.8 462.2c4.1 0 6.1 2.4 6.1 5.8 0 1.3-.5 2.9-.5 2.9h-10.5v.6c0 1.9 1.3 3.5 3.8 3.5s4.7-1.7 4.7-1.7l1 2.9s-2.6 2-6 2c-4.8 0-7.4-2.9-7.4-6.6 0-5.1 3.7-9.4 8.8-9.4zm2.3 6.2s.1-.3.1-.7c0-1.6-1-2.5-2.4-2.5-2 0-3.5 1.3-4.3 3.2h6.6zM258.4 473.6s1.5 1.5 4.1 1.5c1.2 0 2.5-.5 2.5-1.6 0-2-6.4-1.9-6.4-6.4 0-3 3-4.8 6.1-4.8 3.5 0 5.3 1.7 5.3 1.7l-1.7 2.6s-1.2-1.2-3.6-1.2c-1.1 0-2.5.5-2.5 1.7 0 1.9 6.4 1.9 6.4 6.4 0 2.8-2.6 4.8-6.1 4.8-3.8 0-6.1-2.2-6.1-2.2l2-2.5zM279.9 462.2c4.1 0 6.1 2.4 6.1 5.8 0 1.3-.5 2.9-.5 2.9H275v.6c0 1.9 1.3 3.5 3.8 3.5s4.7-1.7 4.7-1.7l1 2.9s-2.6 2-6 2c-4.8 0-7.4-2.9-7.4-6.6 0-5.1 3.7-9.4 8.8-9.4zm2.3 6.2s.1-.3.1-.7c0-1.6-1-2.5-2.4-2.5-2 0-3.5 1.3-4.3 3.2h6.6zM296.9 468.3h.6c.1-.4.1-.6.1-.8 0-1.3-.7-2.1-2.5-2.1-2.2 0-4.5 1.4-4.5 1.4l-.9-2.9s2.8-1.6 6.1-1.6c2.8 0 5.6 1.2 5.6 4.7 0 .4-.1 1-.2 1.5l-1.8 9.4h-3.5l.2-1.3c.1-.6.3-1.1.3-1.1h-.1s-1.7 2.8-5 2.8c-2.4 0-4.5-1.4-4.5-3.9.1-4.9 6.1-6.1 10.1-6.1zm-4.2 7c2 0 3.9-2.2 4.3-4.1l.1-.3h-.6c-1.7 0-5.7.3-5.7 2.8-.1.9.5 1.6 1.9 1.6zM306.3 462.6h3.7l-.5 2.6c-.1.6-.3 1.1-.3 1.1 1-2.1 3.1-4 5.5-4 .5 0 .9.1.9.1l-.8 3.8s-.4-.1-.9-.1c-2.3 0-5 2.5-5.7 6.3l-1 5.4h-3.8l2.9-15.2zM324.9 462.2c4.1 0 5.9 2.2 5.9 2.2l-2 2.4s-1.4-1.4-3.8-1.4c-3.2 0-5.8 2.7-5.8 5.8 0 2.1 1.4 3.8 3.9 3.8 2.6 0 4.9-2 4.9-2l1 2.9s-2.6 2.2-6.4 2.2c-4.6 0-7.3-2.9-7.3-6.8.2-4.7 4.3-9.1 9.6-9.1zM335.7 456.6h3.8l-1.4 7.4c-.2.8-.3 1.4-.3 1.4h.1c.8-1.4 3.1-3.1 5.6-3.1 2.7 0 4.6 1.2 4.6 4.2 0 .6-.1 1.2-.2 1.8L346 478h-3.8l1.7-8.9c.1-.5.1-1 .1-1.4 0-1.3-.7-1.9-1.9-1.9-2.6 0-4.9 2.5-5.5 5.3l-1.3 6.9h-3.8l4.2-21.4z"/></g><g class="st3"><path d="M232.7 508.6s1.9 2.1 5.1 2.1c1.7 0 3.7-1 3.7-3 0-3.2-8.3-3.2-8.3-9 0-3.8 3.7-6.5 7.7-6.5 4.5 0 6.6 2.3 6.6 2.3l-2.1 2.9s-1.8-1.6-4.5-1.6c-1.9 0-3.8 1.3-3.8 2.9 0 3.1 8.3 3.1 8.3 9 0 3.5-3.2 6.5-7.6 6.5-5 0-7.4-2.9-7.4-2.9l2.3-2.7zM257.2 498.2c4.1 0 5.9 2.2 5.9 2.2l-2 2.4s-1.4-1.4-3.8-1.4c-3.2 0-5.8 2.7-5.8 5.8 0 2.1 1.4 3.8 3.9 3.8 2.6 0 4.9-2 4.9-2l1 2.9s-2.6 2.2-6.4 2.2c-4.6 0-7.3-2.9-7.3-6.8.1-4.7 4.3-9.1 9.6-9.1zM266.8 498.6h3.8l-3 15.3h-3.7l2.9-15.3zm1.2-6h3.8l-.7 3.4h-3.8l.7-3.4zM281 498.2c4.1 0 6.1 2.4 6.1 5.8 0 1.3-.5 2.9-.5 2.9h-10.5v.6c0 1.9 1.3 3.5 3.8 3.5s4.7-1.7 4.7-1.7l1 2.9s-2.6 2-6 2c-4.8 0-7.4-2.9-7.4-6.6-.1-5.1 3.7-9.4 8.8-9.4zm2.3 6.2s.1-.3.1-.7c0-1.6-1-2.5-2.4-2.5-2 0-3.5 1.3-4.3 3.2h6.6zM291.4 498.6h3.7l-.3 1.4c-.1.8-.4 1.5-.4 1.5h.1c.8-1.4 3.1-3.2 5.8-3.2 2.7 0 4.6 1.2 4.6 4.2 0 .6-.1 1.3-.3 2l-1.8 9.5H299l1.7-8.9c.1-.5.2-1 .2-1.4 0-1.3-.7-1.9-1.9-1.9-2.6 0-4.9 2.5-5.5 5.3l-1.3 6.9h-3.8l3-15.4zM316.6 498.2c4.1 0 5.9 2.2 5.9 2.2l-2 2.4s-1.4-1.4-3.8-1.4c-3.2 0-5.8 2.7-5.8 5.8 0 2.1 1.4 3.8 3.9 3.8 2.6 0 4.9-2 4.9-2l1 2.9s-2.6 2.2-6.4 2.2c-4.6 0-7.3-2.9-7.3-6.8.1-4.7 4.2-9.1 9.6-9.1zM332.3 498.2c4.1 0 6.1 2.4 6.1 5.8 0 1.3-.5 2.9-.5 2.9h-10.5v.6c0 1.9 1.3 3.5 3.8 3.5s4.7-1.7 4.7-1.7l1 2.9s-2.6 2-6 2c-4.8 0-7.4-2.9-7.4-6.6 0-5.1 3.7-9.4 8.8-9.4zm2.4 6.2s.1-.3.1-.7c0-1.6-1-2.5-2.4-2.5-2 0-3.5 1.3-4.3 3.2h6.6z"/></g><path class="st2" d="M596.1 388.8H435.6c-12.9 0-23.4-10.5-23.4-23.4v-40c0-12.9 10.5-23.4 23.4-23.4H596c12.9 0 23.4 10.5 23.4 23.4v40c0 12.9-10.4 23.4-23.3 23.4z"/><g class="st3"><path d="M488.1 316.3h12.7l-.7 3.3h-8.9l-1.1 5.6h7.2l-.7 3.3h-7.2l-1.1 5.7h9.4l-.6 3.3h-13.2l4.2-21.2zM510.1 328h.6c.1-.4.1-.6.1-.8 0-1.3-.7-2.1-2.5-2.1-2.2 0-4.5 1.4-4.5 1.4l-.9-2.9s2.8-1.6 6.1-1.6c2.8 0 5.6 1.2 5.6 4.7 0 .4-.1 1-.1 1.5l-1.8 9.4h-3.5l.2-1.3c.1-.6.3-1.1.3-1.1h-.1s-1.7 2.8-5 2.8c-2.4 0-4.5-1.4-4.5-3.9-.1-4.9 5.9-6.1 10-6.1zm-4.2 7c2 0 3.9-2.2 4.3-4.1l.1-.3h-.6c-1.7 0-5.7.3-5.7 2.8-.1.9.5 1.6 1.9 1.6zM519.5 322.3h3.7l-.5 2.6c-.1.6-.3 1.1-.3 1.1 1-2.1 3.1-4 5.5-4 .5 0 .9.1.9.1l-.8 3.8s-.4-.1-.9-.1c-2.3 0-5 2.5-5.7 6.3l-1 5.4h-3.8l2.9-15.2zM529.1 332.6l3.1-16.3h3.8l-3 15.7c-.1.4-.2 1-.2 1.2 0 1 .7 1.1 1.3 1.1h.5l-.7 3.3s-.5.1-1.1.1c-2 0-4-.8-4-3.6.2-.4.2-.9.3-1.5zM537 340.7c1.1 0 2.2-.6 3-2l.9-1.4-3.5-15.1h4l1.7 9.3c.2.8.2 1.9.2 1.9h.1s.5-1.1.9-1.9l4.8-9.3h4.3l-10.3 17.6c-1.6 2.8-3.8 4-5.8 4s-3.5-1.1-3.5-1.1l1.7-2.7c-.1.1.6.7 1.5.7z"/></g><g class="st3"><path d="M454.6 373.6l11.4-21.3h4.4l3.3 21.3h-3.9l-.8-5.5h-7.5l-2.9 5.5h-4zm14.1-8.6l-.8-5.7c-.1-1.2-.2-3.3-.2-3.3h-.1s-.8 2.1-1.4 3.3l-3 5.7h5.5zM484.5 357.9c1.7 0 3.5.6 4.2 2.1h.1s0-.5.1-.9l1.3-6.8h3.8l-4.1 21.3h-3.6l.2-1.1c.1-.6.3-1.1.3-1.1h-.1c-1 1.5-2.8 2.6-4.9 2.6-3.7 0-5.8-2.5-5.8-6.4 0-5.8 4.1-9.7 8.5-9.7zm-1.5 12.8c2.5 0 4.9-2.9 4.9-6.1 0-1.9-.9-3.4-3-3.4-2.3 0-4.9 2.3-4.9 6.1-.1 2.1 1.1 3.4 3 3.4zM503.8 357.9c4.4 0 7.5 2.7 7.5 6.8 0 5.4-4.7 9.3-9.5 9.3-4.4 0-7.5-2.7-7.5-6.8.1-5.3 4.7-9.3 9.5-9.3zm-1.9 12.8c2.7 0 5.5-2.4 5.5-5.8 0-2.2-1.5-3.8-3.7-3.8-2.7 0-5.6 2.5-5.6 5.8.1 2.4 1.7 3.8 3.8 3.8zM515.4 379.6h-3.8l4.1-21.3h3.5l-.2 1.1c-.1.6-.3 1.1-.3 1.1h.1c1-1.5 2.9-2.6 5-2.6 3.6 0 5.8 2.5 5.8 6.4 0 5.7-4.1 9.6-8.3 9.6-1.8 0-3.5-.7-4.4-2.2 0 0 0 .6-.2 1.4l-1.3 6.5zm5.4-8.9c2.3 0 4.9-2.2 4.9-6.1 0-2.1-1.1-3.5-3-3.5-2.5 0-4.9 2.8-4.9 6.1 0 2 .9 3.5 3 3.5zM532.9 367.6l1.2-6.1h-2l.6-3h2.1l.9-4.4h3.7l-.9 4.4h3.5l-.6 3h-3.5l-1.1 5.6c-.1.5-.1 1-.1 1.2 0 1.7 1.3 2 2.4 2 .5 0 .8-.1.8-.1l-.7 3.3s-.6.1-1.1.1c-2.8 0-5.4-1.1-5.4-4.7 0-.2.1-.7.2-1.3zM551.5 357.9c4.1 0 6.1 2.4 6.1 5.8 0 1.3-.5 2.9-.5 2.9h-10.5v.6c0 1.9 1.3 3.5 3.8 3.5s4.7-1.7 4.7-1.7l1 2.9s-2.6 2-6 2c-4.8 0-7.4-2.9-7.4-6.6 0-5.1 3.7-9.4 8.8-9.4zm2.3 6.1s.1-.3.1-.7c0-1.6-1-2.5-2.4-2.5-2 0-3.5 1.3-4.3 3.2h6.6zM561.9 358.3h3.7l-.5 2.6c-.1.6-.3 1.1-.3 1.1 1-2.1 3.1-4 5.5-4 .5 0 .9.1.9.1l-.8 3.8s-.4-.1-.9-.1c-2.3 0-5 2.5-5.7 6.3l-1 5.4h-3.9l3-15.2zM571.9 369.3s1.5 1.5 4.1 1.5c1.2 0 2.5-.5 2.5-1.6 0-2-6.4-1.9-6.4-6.4 0-3 3-4.8 6.1-4.8 3.5 0 5.3 1.7 5.3 1.7l-1.7 2.6s-1.2-1.2-3.6-1.2c-1.1 0-2.5.5-2.5 1.7 0 1.9 6.4 1.9 6.4 6.4 0 2.8-2.6 4.8-6.1 4.8-3.8 0-6.1-2.2-6.1-2.2l2-2.5z"/></g><g><path class="st2" d="M596.5 668.8H436.1c-12.9 0-23.4-10.5-23.4-23.4v-40c0-12.9 10.5-23.4 23.4-23.4h160.4c12.9 0 23.4 10.5 23.4 23.4v40c0 12.9-10.5 23.4-23.4 23.4z"/></g><g class="st3"><path d="M437.6 599.5c5.9 0 9.7 3.8 9.7 9.1 0 7-6.2 12.9-12.6 12.9-5.9 0-9.7-3.9-9.7-9.4 0-6.7 6.1-12.6 12.6-12.6zm-2.9 18.5c4.3 0 8.6-4 8.6-9.1 0-3.5-2.4-5.8-5.8-5.8-4.3 0-8.6 4-8.6 8.9.1 3.6 2.5 6 5.8 6zM462.1 608.9h-6.7l-2.4 12.3h-3.8l2.4-12.3h-1.9l.6-3h1.9l.2-.7c1-4.8 5-5.4 7-5.4.9 0 1.6.1 1.6.1l-.7 3.2s-.3-.1-.8-.1c-1.1 0-3.1.3-3.5 2.5l-.1.3h6.7l.1-.7c1.1-4.8 5-5.4 7-5.4.9 0 1.6.1 1.6.1l-.7 3.2s-.3-.1-.8-.1c-1.1 0-3.1.3-3.4 2.5l-.1.3h3.3l-.6 3h-3.1l-2.4 12.3h-3.8l2.4-12.1zM471.6 611h9l-.6 3.3h-9l.6-3.3zM484.8 615.3l1.2-6.1h-1.9l.6-3h2.1l.9-4.4h3.7l-.9 4.4h3.5l-.6 3h-3.5l-1.1 5.6c-.1.5-.1 1-.1 1.2 0 1.7 1.3 2 2.4 2 .5 0 .8-.1.8-.1l-.7 3.3s-.6.1-1.1.1c-2.8 0-5.4-1.1-5.4-4.7 0-.3.1-.8.1-1.3zM498.4 599.9h3.8l-1.4 7.4c-.2.8-.3 1.4-.3 1.4h.1c.8-1.4 3.1-3.1 5.6-3.1 2.7 0 4.6 1.2 4.6 4.2 0 .6-.1 1.2-.2 1.8l-1.9 9.7h-3.8l1.7-8.9c.1-.5.2-1 .2-1.4 0-1.3-.7-1.9-1.9-1.9-2.6 0-4.9 2.5-5.5 5.3l-1.3 6.9h-3.8l4.1-21.4zM521.8 605.5c4.1 0 6.1 2.4 6.1 5.8 0 1.3-.5 2.9-.5 2.9h-10.5v.6c0 1.9 1.3 3.5 3.8 3.5s4.7-1.7 4.7-1.7l1 2.9s-2.6 2-6 2c-4.8 0-7.4-2.9-7.4-6.6 0-5.1 3.7-9.4 8.8-9.4zm2.3 6.2s.1-.3.1-.7c0-1.6-1-2.5-2.4-2.5-2 0-3.5 1.3-4.3 3.2h6.6zM531.5 611h9l-.6 3.3h-9l.6-3.3zM544.1 616.9s1.5 1.5 4.1 1.5c1.2 0 2.5-.5 2.5-1.6 0-2-6.4-1.9-6.4-6.4 0-3 3-4.8 6.1-4.8 3.5 0 5.3 1.7 5.3 1.7l-1.7 2.6s-1.2-1.2-3.6-1.2c-1.1 0-2.5.5-2.5 1.7 0 1.9 6.4 1.9 6.4 6.4 0 2.8-2.6 4.8-6.1 4.8-3.8 0-6.1-2.2-6.1-2.2l2-2.5zM560.6 599.9h3.8l-1.4 7.4c-.2.8-.3 1.4-.3 1.4h.1c.8-1.4 3.1-3.1 5.6-3.1 2.7 0 4.6 1.2 4.6 4.2 0 .6-.1 1.2-.2 1.8l-1.9 9.7h-3.8l1.7-8.9c.1-.5.2-1 .2-1.4 0-1.3-.7-1.9-1.9-1.9-2.6 0-4.9 2.5-5.5 5.3l-1.3 6.9h-3.8l4.1-21.4zM584 605.5c4.1 0 6.1 2.4 6.1 5.8 0 1.3-.5 2.9-.5 2.9h-10.5v.6c0 1.9 1.3 3.5 3.8 3.5s4.7-1.7 4.7-1.7l1 2.9s-2.6 2-6 2c-4.8 0-7.4-2.9-7.4-6.6 0-5.1 3.7-9.4 8.8-9.4zm2.3 6.2s.1-.3.1-.7c0-1.6-1-2.5-2.4-2.5-1.9 0-3.5 1.3-4.3 3.2h6.6zM592.2 616.2l3.1-16.3h3.8l-3 15.7c-.1.4-.2 1-.2 1.2 0 1 .7 1.1 1.3 1.1h.5l-.7 3.3s-.5.1-1.1.1c-2 0-4-.8-4-3.6.2-.4.2-.9.3-1.5zM603 609.1h-1.9l.6-3h1.9l.2-.8c1.1-4.9 5-5.5 7-5.5.9 0 1.6.1 1.6.1l-.7 3.2s-.3-.1-.8-.1c-1.1 0-3.1.3-3.4 2.5l-.1.5h3.3l-.6 3h-3.3l-2.3 12.1h-3.8l2.3-12z"/></g><g class="st3"><path d="M454.1 635.9h7.6c1.3 0 2.4.2 3.3.7 1.8.9 2.8 2.7 2.8 5 0 3.5-2 6.3-4.7 7.6-1 .5-2.1.7-3.2.7h-4.7l-1.4 7.3h-3.9l4.2-21.3zm5.4 10.6c.8 0 1.5-.1 2.1-.4 1.4-.7 2.3-2.2 2.3-4.1 0-1.6-1-2.7-2.9-2.7h-3.6l-1.4 7.3 3.5-.1zM470.8 641.9h3.7l-.5 2.6c-.1.6-.3 1.1-.3 1.1 1-2.1 3.1-4 5.5-4 .5 0 .9.1.9.1l-.8 3.8s-.4-.1-.9-.1c-2.3 0-5 2.5-5.7 6.3l-1 5.4h-3.8l2.9-15.2zM489.3 641.5c4.4 0 7.5 2.7 7.5 6.8 0 5.4-4.7 9.3-9.5 9.3-4.4 0-7.5-2.7-7.5-6.8.1-5.3 4.8-9.3 9.5-9.3zm-1.9 12.8c2.7 0 5.5-2.4 5.5-5.8 0-2.2-1.5-3.8-3.7-3.8-2.7 0-5.6 2.5-5.6 5.8.1 2.4 1.7 3.8 3.8 3.8zM507.2 641.5c1.6 0 3.4.6 4.2 2.1h.1s0-.5.1-.9l1.3-6.8h3.8l-4.1 21.3H509l.2-1.1c.1-.6.3-1.1.3-1.1h-.1c-1 1.5-2.8 2.6-4.9 2.6-3.7 0-5.8-2.5-5.8-6.4 0-5.8 4-9.7 8.5-9.7zm-1.6 12.9c2.5 0 4.9-2.9 4.9-6.1 0-1.9-.9-3.4-3-3.4-2.3 0-4.9 2.3-4.9 6.1-.1 2 1.1 3.4 3 3.4zM517.7 651.5l1.9-9.6h3.8l-1.7 8.8c-.1.6-.2 1.2-.2 1.6 0 1.1.5 1.8 1.9 1.8 2.6 0 4.8-2.6 5.3-5.3l1.3-6.9h3.8l-3 15.3h-3.7l.3-1.4c.1-.8.4-1.5.4-1.5h-.1c-.9 1.4-3 3.2-5.7 3.2-2.5 0-4.6-1.1-4.6-4.2 0-.4.1-1.1.3-1.8zM544.7 641.5c4.1 0 5.9 2.2 5.9 2.2l-2 2.4s-1.4-1.4-3.8-1.4c-3.2 0-5.8 2.7-5.8 5.8 0 2.1 1.4 3.8 3.9 3.8 2.6 0 4.9-2 4.9-2l1 2.9s-2.6 2.2-6.4 2.2c-4.6 0-7.3-2.9-7.3-6.8.2-4.7 4.3-9.1 9.6-9.1zM553.1 651.3l1.2-6.1h-2l.6-3h2.1l.9-4.4h3.7l-.9 4.4h3.5l-.6 3h-3.5l-1.1 5.6c-.1.5-.1 1-.1 1.2 0 1.7 1.3 2 2.4 2 .5 0 .8-.1.8-.1l-.7 3.3s-.6.1-1.1.1c-2.8 0-5.4-1.1-5.4-4.7.1-.3.2-.8.2-1.3zM563.7 652.9s1.5 1.5 4.1 1.5c1.2 0 2.5-.5 2.5-1.6 0-2-6.4-1.9-6.4-6.4 0-3 3-4.8 6.1-4.8 3.5 0 5.3 1.7 5.3 1.7l-1.7 2.6s-1.2-1.2-3.6-1.2c-1.1 0-2.5.5-2.5 1.7 0 1.9 6.5 1.9 6.5 6.4 0 2.8-2.6 4.8-6.1 4.8-3.8 0-6.1-2.2-6.1-2.2l1.9-2.5z"/></g><g><path class="st2" d="M821.5 528.1H681.1c-12.9 0-23.4-10.5-23.4-23.4v-40c0-12.9 10.5-23.4 23.4-23.4h140.4c12.9 0 23.4 10.5 23.4 23.4v40c0 12.9-10.5 23.4-23.4 23.4z"/><g class="st3"><path d="M701.5 456.2c5.5 0 7.9 2.9 7.9 2.9l-2.2 2.7s-2.1-2.1-5.5-2.1c-5.1 0-8.7 4.5-8.7 8.9 0 3.4 2.1 6 5.8 6 3.7 0 6.8-2.7 6.8-2.7l1.6 3.1s-3.5 3.2-8.5 3.2c-6 0-9.7-3.9-9.7-9.3 0-6.9 5.8-12.7 12.5-12.7zM719.1 462.2c4.4 0 7.5 2.7 7.5 6.8 0 5.4-4.7 9.3-9.5 9.3-4.4 0-7.5-2.7-7.5-6.8 0-5.3 4.7-9.3 9.5-9.3zm-1.9 12.8c2.7 0 5.5-2.4 5.5-5.8 0-2.2-1.5-3.8-3.7-3.8-2.7 0-5.6 2.5-5.6 5.8.1 2.4 1.6 3.8 3.8 3.8zM731.1 462.6h3.7l-.3 1.7c-.1.6-.3 1.2-.3 1.2h.1c1-1.5 3-3.2 5.4-3.2s3.7 1.1 4 3.1h.1c1.1-1.6 3.3-3.1 5.6-3.1 2.7 0 4.3 1.3 4.3 4.1 0 .6-.1 1.3-.2 2.1l-1.8 9.4h-3.8l1.7-9c.1-.6.2-1 .2-1.4 0-1.1-.4-1.8-1.7-1.8-2.5 0-4.3 2.7-4.9 5.5l-1.3 6.7h-4l1.8-9c.1-.6.1-1 .1-1.4 0-1.1-.4-1.8-1.7-1.8-2.4 0-4.4 2.7-4.9 5.5l-1.3 6.7h-3.8l3-15.3zM758.1 483.9h-3.8l4.1-21.3h3.5l-.2 1.1c-.1.6-.3 1.1-.3 1.1h.1c1-1.5 2.9-2.6 5-2.6 3.6 0 5.8 2.5 5.8 6.4 0 5.7-4.1 9.6-8.3 9.6-1.8 0-3.5-.7-4.4-2.2h-.1s0 .6-.2 1.4l-1.2 6.5zm5.4-8.9c2.3 0 4.9-2.2 4.9-6.1 0-2.1-1.1-3.5-3-3.5-2.5 0-4.9 2.8-4.9 6.1 0 2 .9 3.5 3 3.5zM774.7 472.2l1.9-9.6h3.8l-1.7 8.8c-.1.6-.2 1.2-.2 1.6 0 1.1.5 1.8 1.9 1.8 2.6 0 4.8-2.6 5.3-5.3l1.3-6.9h3.8l-3 15.3h-3.7l.3-1.4c.1-.8.4-1.5.4-1.5h-.1c-.9 1.4-3 3.2-5.7 3.2-2.5 0-4.6-1.1-4.6-4.2.1-.5.2-1.1.3-1.8zM793.8 472l1.2-6.1h-2l.6-3h2.1l.9-4.4h3.7l-.9 4.4h3.5l-.6 3h-3.5l-1.1 5.6c-.1.5-.1 1-.1 1.2 0 1.7 1.3 2 2.4 2 .5 0 .8-.1.8-.1l-.7 3.3s-.6.1-1.1.1c-2.8 0-5.4-1.1-5.4-4.7 0-.3.1-.8.2-1.3zM812.4 462.2c4.1 0 6.1 2.4 6.1 5.8 0 1.3-.5 2.9-.5 2.9h-10.5v.6c0 1.9 1.3 3.5 3.8 3.5s4.7-1.7 4.7-1.7l1 2.9s-2.6 2-6 2c-4.8 0-7.4-2.9-7.4-6.6 0-5.1 3.7-9.4 8.8-9.4zm2.3 6.2s.1-.3.1-.7c0-1.6-1-2.5-2.4-2.5-2 0-3.5 1.3-4.3 3.2h6.6zM822.8 462.6h3.7l-.5 2.6c-.1.6-.3 1.1-.3 1.1 1-2.1 3.1-4 5.5-4 .5 0 .9.1.9.1l-.8 3.8s-.4-.1-.9-.1c-2.3 0-5 2.5-5.7 6.3l-1 5.4h-3.8l2.9-15.2z"/></g><g class="st3"><path d="M702.8 508.6s1.9 2.1 5.1 2.1c1.7 0 3.7-1 3.7-3 0-3.2-8.3-3.2-8.3-9 0-3.8 3.7-6.5 7.7-6.5 4.5 0 6.6 2.3 6.6 2.3l-2.1 2.9s-1.8-1.6-4.5-1.6c-1.9 0-3.8 1.3-3.8 2.9 0 3.1 8.3 3.1 8.3 9 0 3.5-3.2 6.5-7.6 6.5-5 0-7.4-2.9-7.4-2.9l2.3-2.7zM727.3 498.2c4.1 0 5.9 2.2 5.9 2.2l-2 2.4s-1.4-1.4-3.8-1.4c-3.2 0-5.8 2.7-5.8 5.8 0 2.1 1.4 3.8 3.9 3.8 2.6 0 4.9-2 4.9-2l1 2.9s-2.6 2.2-6.4 2.2c-4.6 0-7.3-2.9-7.3-6.8.1-4.7 4.2-9.1 9.6-9.1zM736.9 498.6h3.8l-3 15.3h-3.8l3-15.3zm1.2-6h3.8l-.7 3.4h-3.8l.7-3.4zM751 498.2c4.1 0 6.1 2.4 6.1 5.8 0 1.3-.5 2.9-.5 2.9h-10.5v.6c0 1.9 1.3 3.5 3.8 3.5s4.7-1.7 4.7-1.7l1 2.9s-2.6 2-6 2c-4.8 0-7.4-2.9-7.4-6.6 0-5.1 3.7-9.4 8.8-9.4zm2.4 6.2s.1-.3.1-.7c0-1.6-1-2.5-2.4-2.5-2 0-3.5 1.3-4.3 3.2h6.6zM761.5 498.6h3.7l-.3 1.4c-.2.8-.4 1.5-.4 1.5h.1c.8-1.4 3.2-3.2 5.8-3.2 2.7 0 4.6 1.2 4.6 4.2 0 .6-.1 1.3-.3 2l-1.8 9.5h-3.8l1.7-8.9c.1-.5.2-1 .2-1.4 0-1.3-.7-1.9-1.9-1.9-2.6 0-4.9 2.5-5.5 5.3l-1.3 6.9h-3.8l3-15.4zM786.6 498.2c4.1 0 5.9 2.2 5.9 2.2l-2 2.4s-1.4-1.4-3.8-1.4c-3.2 0-5.8 2.7-5.8 5.8 0 2.1 1.4 3.8 3.9 3.8 2.6 0 4.9-2 4.9-2l1 2.9s-2.6 2.2-6.4 2.2c-4.6 0-7.3-2.9-7.3-6.8.1-4.7 4.3-9.1 9.6-9.1zM802.4 498.2c4.1 0 6.1 2.4 6.1 5.8 0 1.3-.5 2.9-.5 2.9h-10.5v.6c0 1.9 1.3 3.5 3.8 3.5s4.7-1.7 4.7-1.7l1 2.9s-2.6 2-6 2c-4.8 0-7.4-2.9-7.4-6.6 0-5.1 3.7-9.4 8.8-9.4zm2.3 6.2s.1-.3.1-.7c0-1.6-1-2.5-2.4-2.5-2 0-3.5 1.3-4.3 3.2h6.6z"/></g></g></svg>