<svg id="Layer_1" xmlns="http://www.w3.org/2000/svg" viewBox="0 0 269 270"><style>.st0{opacity:.1}.st1{fill:#ed4f7e}.st2{fill:none;stroke:#fff;stroke-width:6;stroke-linecap:round;stroke-linejoin:round;stroke-miterlimit:10}</style><path d="M106.3 270C84.6 270 67 252.4 67 230.7V203H38.9C17.5 203 0 185.2 0 163.3v-56.6C0 85 17.1 68 38.9 68H67V39.5C67 17.7 84.6 0 106.3 0h56.6C184.4 0 202 17.7 202 39.5V68h28.2C252 68 269 85 269 106.8v56.6c0 21.9-17.4 39.7-38.8 39.7H202v27.7c0 21.7-17.6 39.3-39.2 39.3h-56.5z" class="st0"/><path d="M106.3 260C90.1 260 77 246.8 77 230.7V193H38.9C23 193 10 179.7 10 163.3v-56.6C10 90.6 22.7 78 38.9 78H77V39.5C77 23.2 90.1 10 106.3 10h56.6c16.1 0 29.2 13.2 29.2 29.5V78h38.2c16.2 0 28.8 12.6 28.8 28.8v56.6c0 16.4-12.9 29.7-28.8 29.7H192v37.7c0 16.2-13.1 29.3-29.2 29.3h-56.5z" class="st0"/><path class="st1" d="M230.2 88H182V39.5c0-10.6-8.5-19.5-19.2-19.5h-56.6C95.6 20 87 28.8 87 39.5V88H38.9C28.3 88 20 96.1 20 106.8v56.6C20 174 28.3 183 38.9 183H87v47.7c0 10.6 8.6 19.3 19.3 19.3h56.6c10.6 0 19.2-8.7 19.2-19.3V183h48.2c10.6 0 18.8-9 18.8-19.7v-56.6C249 96.1 240.8 88 230.2 88z"/><path class="st2" d="M33 143h59l12-27.4 18 49.2 24-71.9 24 84.7 20-58.6 10 32h36"/></svg>