<svg id="Layer_1" xmlns="http://www.w3.org/2000/svg" viewBox="-103 105.1 303.9 303.9"><style>.st0{fill:#ed4f7e;stroke:#b23b5f;stroke-width:10;stroke-miterlimit:10}.st1{fill:#1c74a0}.st2{fill:#c7a97d}.st3{fill:#8c6239}.st4{opacity:.3;fill:#fff}.st5{opacity:.2}.st6{fill:#ccc}.st7{fill:#fff}.st8{fill:#f2f2f2}.st9{fill:#666}.st10{fill:gray}.st11{fill:#b3b3b3}.st12{fill:#e6e6e6}.st13{fill:#4d4d4d}.st14,.st15{fill:none;stroke:#000;stroke-width:4;stroke-linecap:round;stroke-linejoin:round;stroke-miterlimit:10}.st15{stroke:#fff}</style><title>vert-transport-future-b</title><circle class="st0" cx="49" cy="257.7" r="146.9"/><path class="st2" d="M-56.3 163.6h84v148.5h-84z"/><path class="st3" d="M-12.9 237.2h28.5v57.3h-28.5z"/><path class="st2" d="M-9.1 241.4h20.9v48.9H-9.1z"/><path class="st4" d="M-2 281.6V249h7.3l3-4H-6v41.3z"/><path class="st3" d="M-48.6 237.2h28.5v57.3h-28.5z"/><path class="st2" d="M-44.8 241.4h20.9v48.9h-20.9z"/><path class="st4" d="M-37.8 281.6V249h7.4l3-4h-14.3v41.3z"/><g><path class="st3" d="M-12.9 174.3h28.5v57.3h-28.5z"/><path class="st2" d="M-9.1 178.5h20.9v48.9H-9.1z"/><path class="st4" d="M-2 218.7v-32.6h7.3l3-4H-6v41.4z"/><g><path class="st3" d="M-48.6 174.3h28.5v57.3h-28.5z"/><path class="st2" d="M-44.8 178.5h20.9v48.9h-20.9z"/><path class="st4" d="M-37.8 218.7v-32.6h7.4l3-4h-14.3v41.4z"/></g></g><path class="st5" d="M28 311h-83.9l7.3-8.5 69.2-.3-.3-57.2H-8.1l.5 57.6-11.4.2v-57.4L-8.4 232h28.5l.2-57.5 7.7-11z"/><circle cx="18.9" cy="238.8" r="3.6"/><g><path d="M153.6 331.5s-1.2 0-7.8-1-8.9-8.5-7.6-16.7 7.6-14.1 14.2-13.1 2.5 22.5 1.2 30.8zM77.7 368.1s-1.5-.7-9.9-2-11.3-10.1-9.7-20.6c1.6-10.5 9.7-18 18.1-16.7 8.3 1.3 3.1 28.8 1.5 39.3z"/><path class="st6" d="M-17.9 333.7s3 9.3 18.4 14.6c15.4 5.3 49.9 7.9 49.9 7.9s9-40.2 13.1-49c0 0-23.7-2-41-7.3-13.1-4-21-13.9-21-13.9s-12.9 18.6-19.4 47.7z"/><path d="M1.5 286s5.6 8.6 21 13.9c15.4 5.3 41 7.3 41 7.3s19.6-34.8 25.1-39.7c5.3-4.6-15.5-5-32.8-10.3-17.2-5.2-17.8-9.9-17.8-9.9s-24.1 9-36.5 38.7z"/><path class="st6" d="M90.2 235.7c19.4 0 49.6 15.3 49.6 15.3s-47.3 12.7-50.3 13.8-16.3-2.3-33.6-7.6C38.6 252 38 247.3 38 247.3s32.8-11.5 52.2-11.6z"/><path class="st7" d="M168 313.4L50.4 356.2s9-40.2 13.1-49c0 0 18.4-38.7 24-42.2 11.2-7 47-17.1 52.3-14s34.6 33.3 28.2 62.4z"/><ellipse transform="rotate(8.534 80.55 349.1)" cx="80.6" cy="349.1" rx="15.4" ry="19.2"/><ellipse transform="rotate(8.534 81.211 349.761)" class="st8" cx="81.2" cy="349.8" rx="8.6" ry="12"/><ellipse transform="rotate(8.534 81.211 349.761)" class="st6" cx="81.2" cy="349.8" rx="7" ry="9.8"/><path class="st9" d="M86.6 346.7c-.5.5-1.3.4-1.7-.2-.4-.7-.3-1.6.2-2.2s1.3-.4 1.7.2c.4.7.3 1.6-.2 2.2zM86.6 352.7c-.7-.2-1.1-1-.9-1.9.2-.8.8-1.4 1.5-1.2.7.2 1.1 1 .9 1.9s-.9 1.4-1.5 1.2zM82.8 356.4c-.3-.8 0-1.7.6-2.1s1.3 0 1.6.7c.3.8 0 1.7-.6 2.1-.6.4-1.3.1-1.6-.7zM78.2 355c.3-.8 1-1.1 1.6-.7s.9 1.3.6 2.1-1 1.1-1.6.7c-.6-.4-.9-1.3-.6-2.1zM76.2 349.5c.7-.2 1.3.3 1.5 1.2.2.8-.3 1.7-.9 1.9-.7.2-1.3-.3-1.5-1.2s.2-1.7.9-1.9zM78.3 344.1c.5.5.6 1.5.2 2.2-.4.7-1.2.8-1.7.2s-.6-1.5-.2-2.2c.4-.6 1.2-.7 1.7-.2z"/><ellipse class="st9" cx="81.7" cy="342.8" rx="1.2" ry="1.6"/><ellipse transform="matrix(1 -.0064 .0064 1 -2.238 .531)" class="st10" cx="81.9" cy="349.8" rx="2.9" ry="4.1"/><ellipse transform="rotate(8.534 155.857 316.532)" cx="155.9" cy="316.6" rx="12.1" ry="15.1"/><ellipse transform="rotate(8.534 157.04 316.391)" class="st8" cx="157.1" cy="316.4" rx="6.7" ry="9.4"/><ellipse transform="rotate(8.534 157.04 316.391)" class="st6" cx="157.1" cy="316.4" rx="5.5" ry="7.7"/><path class="st9" d="M161.3 314c-.4.4-1 .3-1.4-.2s-.3-1.3.2-1.7c.4-.4 1-.3 1.4.2s.2 1.2-.2 1.7zM161.3 318.7c-.5-.2-.8-.8-.7-1.5.1-.7.6-1.1 1.2-.9.5.2.8.8.7 1.5s-.7 1.1-1.2.9zM158.3 321.6c-.2-.6 0-1.3.4-1.6.5-.3 1.1 0 1.3.6s0 1.3-.4 1.6c-.5.3-1.1 0-1.3-.6zM154.7 320.5c.2-.6.8-.9 1.3-.6.5.3.7 1 .4 1.6-.2.6-.8.9-1.3.6s-.7-1-.4-1.6zM153.1 316.2c.5-.2 1 .3 1.2.9s-.2 1.3-.7 1.5c-.5.2-1-.3-1.2-.9s.2-1.3.7-1.5zM154.7 312c.4.4.5 1.2.2 1.7s-.9.6-1.4.2c-.4-.4-.5-1.2-.2-1.7.4-.6 1-.7 1.4-.2z"/><ellipse class="st9" cx="157.4" cy="311" rx="1" ry="1.2"/><ellipse transform="matrix(1 -.0064 .0064 1 -2.022 1.015)" class="st10" cx="157.6" cy="316.4" rx="2.3" ry="3.2"/><path d="M91.4 299.6s-1.1-20.8 11.8-31.4c9.9-8.2 27.2-9.7 34.7-5.9s8.6 23.1 8.6 23.1l-55.1 14.2z"/><path class="st6" d="M146.4 285.4s-2.4 26.8-10.9 33.4c-8.7 6.7-23.5 10.1-31.7 10-5.5-.1-12.5-29.1-12.5-29.1l55.1-14.3zM65.1 351.2c0-1.4 0-2.9.3-4.3 1.6-10.5 9.7-18 18.1-16.7 5.1.8 9.8 5.2 11.8 10.5l4.4-2.3c-2.6-7.8-8.4-13.6-15.9-14.7-11.6-1.7-22.1 7.9-24.2 22.4-.3 2.3-.4 4.5-.3 6.6l5.8-1.5z"/><path class="st6" d="M144.4 322.3c0-1.4-.7-18.4 14.2-19.5 5.1-.4 7.4 5.4 9.5 10.7l4-2.4c-2.3-6.7-3.2-13-9.6-13-22.2-.1-21.7 23.5-21.6 25.4l3.5-1.2z"/><path class="st8" d="M99.5 294.3s0-14.4 8.1-21.2c6.3-5.2 21.1-7.4 25.9-5 4.7 2.4 6.1 15.9 6.1 15.9l-40.1 10.3z"/><g><path class="st11" d="M41.9 324.1c1.1-2.9 8.2-1.8 8.5 1.7.3 3.5-1.6 12.3-2.3 14.3-1.8 4.3-8.2 4.6-8.7 0-.6-4.6 1.4-13.1 2.5-16z"/><path class="st12" d="M42.6 330.4c1.4-1.2 4.2-.9 4.4.9.2 1.8-.1 3.1-.5 4.1-.9 2.2-4.2 2.4-4.5 0-.3-2.4.6-5 .6-5z"/></g><g><path class="st11" d="M-12.5 325.4c-.3 2.7 5.7 4.5 7.2 2s3.6-10.1 3.7-11.9c.3-4-4.5-6.7-6.7-3.4-2.2 3.3-3.9 10.6-4.2 13.3z"/><path class="st12" d="M-9.5 320.8c.6 1.4 2.9 2.3 3.7 1s1.1-2.4 1.1-3.3c.2-2.1-2.3-3.5-3.5-1.7-1 1.6-1.3 4-1.3 4z"/></g><path class="st12" d="M6.1 283.4c-.4.8 4.3 6 19.6 10.3 15.4 4.3 34.9 8 35.6 6.6.7-1.4 16.1-30.1 16.9-31.1.7-1-17.8-2.6-29.4-8.9-5.3-2.8-7.5-3-12.7-6.4-1.7-1.1-9.2 3.1-18.5 13.2-6.5 7-11 15.5-11.5 16.3z"/><path class="st5" d="M4.1 284.7c.5.1 4.1 9.6 9.1 4.3 22-23.5 66.1-21.8 66.1-21.8L35 250.5l-16.9 13.2-14 21zM93.2 297.3s-.7-18.3 9.2-26.4c7.6-6.3 25.7-9.1 31.5-6.1l6.2 6.7c-4.7-2.4-19.6-.1-25.9 5-8.2 6.7-9.1 18.8-9.1 18.8l-11.9 2z"/><ellipse class="st13" cx="81.2" cy="237.9" rx="5.8" ry="7.8"/><path d="M143.7 254.2s8 19.8 11.6 19.4 4.7-5.7 4.1-7.2c-.6-1.3-13.1-17.5-15.7-12.2z"/><path class="st14" d="M129.4 297.3l8.5-2"/><path d="M86.8 238.9c-.3 1.5-2.7 2.8-5.6 2.8-2.9 0-5.3-1.2-5.6-2.8-1.9.9-3.1 2.2-3.1 3.6 0 2.6 3.9 4.8 8.6 4.8 4.8 0 8.6-2.1 8.6-4.8.2-1.4-1-2.7-2.9-3.6z"/></g><g><path class="st15" d="M68.3 233.3c0-4.1 3.3-7.4 7.4-7.4M58.6 233.5c0-4.4 1.7-8.5 4.5-11.5 3.1-3.4 7.6-5.6 12.6-5.6M49 233.7c0-7 2.7-13.3 7-18 4.9-5.3 11.9-8.7 19.7-8.7"/><path class="st15" d="M39.3 233.9c0-9.5 3.6-18.1 9.5-24.5 6.7-7.3 16.2-11.8 26.8-11.8"/></g><g><path class="st15" d="M21.6 168.4c0 4.1-3.3 7.4-7.4 7.4M31.3 168.2c0 4.4-1.7 8.5-4.5 11.5-3.1 3.4-7.6 5.6-12.6 5.6M40.9 167.9c0 7-2.7 13.3-7 18-4.9 5.3-11.9 8.7-19.7 8.7"/><path class="st15" d="M50.6 167.7c0 9.5-3.6 18.1-9.5 24.5-6.7 7.3-16.2 11.8-26.8 11.8"/></g><path class="st13" d="M12.3 171.3H-2.5c-1.2 0-2.1-.9-2.1-2.1v-.2c0-1.2.9-2.1 2.1-2.1h14.7c1.2 0 2.1.9 2.1 2.1v.2c0 1.2-.9 2.1-2 2.1z"/></svg>