<svg id="Layer_1" xmlns="http://www.w3.org/2000/svg" viewBox="120 231 800 500"><style>.st0{fill:#a4ce4e}.st1{fill:#0ea2dc}.st2{stroke-width:10}.st2,.st3{fill:none;stroke:#37bec0;stroke-miterlimit:10}.st4{opacity:.55;fill:#d7f2f2;enable-background:new}.st5{fill:#37bec0}.st6{fill:#fff;stroke:#f2f2f2;stroke-width:9;stroke-miterlimit:10}.st7{enable-background:new}</style><circle class="st0" cx="384.2" cy="483.8" r="215.9"/><circle class="st1" cx="660.2" cy="483.8" r="215.9"/><path class="st2" d="M660.2 267.9c-52.5 0-100.6 18.7-138 49.9-37.4-31.1-85.5-49.9-138-49.9-119.3 0-215.9 96.7-215.9 215.9s96.6 215.9 215.9 215.9c52.5 0 100.6-18.7 138-49.9 37.4 31.1 85.5 49.9 138 49.9 119.3 0 215.9-96.7 215.9-215.9s-96.6-215.9-215.9-215.9z"/><path class="st3" d="M444.3 483.8c0 66.8 30.3 126.5 77.9 166.1 47.6-39.6 77.9-99.3 77.9-166.1s-30.3-126.5-77.9-166.1c-47.6 39.6-77.9 99.3-77.9 166.1z"/><path class="st4" d="M391.9 483.8c0 97.4 50.6 184.5 130.3 242.2 79.5-57.8 130.3-144.8 130.3-242.2s-50.7-184.5-130.3-242.2c-79.5 57.7-130.3 144.8-130.3 242.2z"/><path class="st5" d="M444.3 483.8c0 66.8 30.3 126.5 77.9 166.1 47.6-39.6 77.9-99.3 77.9-166.1s-30.3-126.5-77.9-166.1c-47.6 39.6-77.9 99.3-77.9 166.1z"/><path class="st6" d="M388.6 527.2H248.2c-12.9 0-23.4-10.5-23.4-23.4v-40c0-12.9 10.5-23.4 23.4-23.4h140.4c12.9 0 23.4 10.5 23.4 23.4v40c0 12.9-10.5 23.4-23.4 23.4z"/><g class="st7"><path d="M263 455.7h7.5c1.1 0 2.2.1 3.1.5 1.8.8 2.9 2.4 2.9 4.6 0 2.9-1.6 6.1-4.9 7.1v.1s.2.3.5 1.1l2.8 7.9h-4.1l-2.7-7.9h-3.9l-1.5 7.9h-3.9l4.2-21.3zm5.3 10c2.3 0 4.2-1.6 4.2-4.2 0-1.6-1-2.5-2.8-2.5h-3.5l-1.3 6.7h3.4zM286.9 461.3c4.1 0 6.1 2.4 6.1 5.8 0 1.3-.5 2.9-.5 2.9H282v.6c0 1.9 1.3 3.5 3.8 3.5s4.7-1.7 4.7-1.7l1 2.9s-2.6 2-6 2c-4.8 0-7.4-2.9-7.4-6.6-.1-5.1 3.7-9.4 8.8-9.4zm2.3 6.2s.1-.3.1-.7c0-1.6-1-2.5-2.4-2.5-2 0-3.5 1.3-4.3 3.2h6.6zM295.5 472.7s1.5 1.5 4.1 1.5c1.2 0 2.5-.5 2.5-1.6 0-2-6.4-1.9-6.4-6.4 0-3 3-4.8 6.1-4.8 3.5 0 5.3 1.7 5.3 1.7l-1.7 2.6s-1.2-1.2-3.6-1.2c-1.1 0-2.5.5-2.5 1.7 0 1.9 6.4 1.9 6.4 6.4 0 2.8-2.6 4.8-6.1 4.8-3.8 0-6.1-2.2-6.1-2.2l2-2.5zM317 461.3c4.1 0 6.1 2.4 6.1 5.8 0 1.3-.5 2.9-.5 2.9h-10.5v.6c0 1.9 1.3 3.5 3.8 3.5s4.7-1.7 4.7-1.7l1 2.9s-2.6 2-6 2c-4.8 0-7.4-2.9-7.4-6.6-.1-5.1 3.7-9.4 8.8-9.4zm2.3 6.2s.1-.3.1-.7c0-1.6-1-2.5-2.4-2.5-2 0-3.5 1.3-4.3 3.2h6.6zM334 467.4h.6c.1-.4.1-.6.1-.8 0-1.3-.7-2.1-2.5-2.1-2.2 0-4.5 1.4-4.5 1.4l-.9-2.9s2.8-1.6 6.1-1.6c2.8 0 5.6 1.2 5.6 4.7 0 .4-.1 1-.1 1.5l-1.8 9.4h-3.5l.2-1.3c.1-.6.3-1.1.3-1.1h-.1s-1.7 2.8-5 2.8c-2.4 0-4.5-1.4-4.5-3.9-.1-4.9 5.9-6.1 10-6.1zm-4.2 7c2 0 3.9-2.2 4.3-4.1l.1-.3h-.6c-1.7 0-5.7.3-5.7 2.8-.1.9.5 1.6 1.9 1.6zM343.4 461.7h3.7l-.5 2.6c-.1.6-.3 1.1-.3 1.1 1-2.1 3.1-4 5.5-4 .5 0 .9.1.9.1l-.8 3.8s-.4-.1-.9-.1c-2.3 0-5 2.5-5.7 6.3l-1 5.4h-3.8l2.9-15.2zM362 461.3c4.1 0 5.9 2.2 5.9 2.2l-2 2.4s-1.4-1.4-3.8-1.4c-3.2 0-5.8 2.7-5.8 5.8 0 2.1 1.4 3.8 3.9 3.8 2.6 0 4.9-2 4.9-2l1 2.9s-2.6 2.2-6.4 2.2c-4.6 0-7.3-2.9-7.3-6.8.1-4.7 4.2-9.1 9.6-9.1zM372.8 455.7h3.8l-1.4 7.4c-.2.8-.3 1.4-.3 1.4h.1c.8-1.4 3.1-3.1 5.6-3.1 2.7 0 4.6 1.2 4.6 4.2 0 .6-.1 1.2-.2 1.8l-1.9 9.7h-3.8l1.7-8.9c.1-.5.1-1 .1-1.4 0-1.3-.7-1.9-1.9-1.9-2.6 0-4.9 2.5-5.5 5.3l-1.3 6.9h-3.8l4.2-21.4z"/></g><g class="st7"><path d="M269.8 507.7s1.9 2.1 5.1 2.1c1.7 0 3.7-1 3.7-3 0-3.2-8.3-3.2-8.3-9 0-3.8 3.7-6.5 7.7-6.5 4.5 0 6.6 2.3 6.6 2.3l-2.1 2.9s-1.8-1.6-4.5-1.6c-1.9 0-3.8 1.3-3.8 2.9 0 3.1 8.3 3.1 8.3 9 0 3.5-3.2 6.5-7.6 6.5-5 0-7.4-2.9-7.4-2.9l2.3-2.7zM294.3 497.3c4.1 0 5.9 2.2 5.9 2.2l-2 2.4s-1.4-1.4-3.8-1.4c-3.2 0-5.8 2.7-5.8 5.8 0 2.1 1.4 3.8 3.9 3.8 2.6 0 4.9-2 4.9-2l1 2.9s-2.6 2.2-6.4 2.2c-4.6 0-7.3-2.9-7.3-6.8.1-4.7 4.2-9.1 9.6-9.1zM303.9 497.7h3.8l-3 15.3h-3.8l3-15.3zm1.2-6h3.8l-.7 3.4h-3.8l.7-3.4zM318.1 497.3c4.1 0 6.1 2.4 6.1 5.8 0 1.3-.5 2.9-.5 2.9h-10.5v.6c0 1.9 1.3 3.5 3.8 3.5s4.7-1.7 4.7-1.7l1 2.9s-2.6 2-6 2c-4.8 0-7.4-2.9-7.4-6.6-.1-5.1 3.7-9.4 8.8-9.4zm2.3 6.2s.1-.3.1-.7c0-1.6-1-2.5-2.4-2.5-2 0-3.5 1.3-4.3 3.2h6.6zM328.5 497.7h3.7l-.3 1.4c-.1.8-.4 1.5-.4 1.5h.1c.8-1.4 3.1-3.2 5.8-3.2s4.6 1.2 4.6 4.2c0 .6-.1 1.3-.3 2l-1.8 9.5h-3.8l1.7-8.9c.1-.5.2-1 .2-1.4 0-1.3-.7-1.9-1.9-1.9-2.6 0-4.9 2.5-5.5 5.3l-1.3 6.9h-3.8l3-15.4zM353.6 497.3c4.1 0 5.9 2.2 5.9 2.2l-2 2.4s-1.4-1.4-3.8-1.4c-3.2 0-5.8 2.7-5.8 5.8 0 2.1 1.4 3.8 3.9 3.8 2.6 0 4.9-2 4.9-2l1 2.9s-2.6 2.2-6.4 2.2c-4.6 0-7.3-2.9-7.3-6.8.2-4.7 4.3-9.1 9.6-9.1zM369.4 497.3c4.1 0 6.1 2.4 6.1 5.8 0 1.3-.5 2.9-.5 2.9h-10.5v.6c0 1.9 1.3 3.5 3.8 3.5s4.7-1.7 4.7-1.7l1 2.9s-2.6 2-6 2c-4.8 0-7.4-2.9-7.4-6.6 0-5.1 3.7-9.4 8.8-9.4zm2.3 6.2s.1-.3.1-.7c0-1.6-1-2.5-2.4-2.5-2 0-3.5 1.3-4.3 3.2h6.6z"/></g><g><path class="st6" d="M812 527.2H671.5c-12.9 0-23.4-10.5-23.4-23.4v-40c0-12.9 10.5-23.4 23.4-23.4h140.4c12.9 0 23.4 10.5 23.4 23.4v40c0 12.9-10.4 23.4-23.3 23.4z"/><g class="st7"><path d="M692 455.3c5.5 0 7.9 2.9 7.9 2.9l-2.2 2.7s-2.1-2.1-5.5-2.1c-5.1 0-8.7 4.5-8.7 8.9 0 3.4 2.1 6 5.8 6s6.8-2.7 6.8-2.7l1.6 3.1s-3.5 3.2-8.5 3.2c-6 0-9.7-3.9-9.7-9.3-.1-6.9 5.7-12.7 12.5-12.7zM709.5 461.3c4.4 0 7.5 2.7 7.5 6.8 0 5.4-4.7 9.3-9.5 9.3-4.4 0-7.5-2.7-7.5-6.8.1-5.3 4.7-9.3 9.5-9.3zm-1.9 12.8c2.7 0 5.5-2.4 5.5-5.8 0-2.2-1.5-3.8-3.7-3.8-2.7 0-5.6 2.5-5.6 5.8.1 2.4 1.7 3.8 3.8 3.8zM721.5 461.7h3.7l-.3 1.7c-.1.6-.3 1.2-.3 1.2h.1c1-1.5 3-3.2 5.4-3.2s3.7 1.1 4 3.1h.1c1.1-1.6 3.3-3.1 5.6-3.1 2.7 0 4.3 1.3 4.3 4.1 0 .6-.1 1.3-.2 2.1l-1.8 9.4h-3.8l1.7-9c.1-.6.1-1 .1-1.4 0-1.1-.4-1.8-1.7-1.8-2.5 0-4.3 2.7-4.9 5.5l-1.3 6.7h-3.8l1.8-9c.1-.6.2-1 .2-1.4 0-1.1-.4-1.8-1.7-1.8-2.4 0-4.4 2.7-4.9 5.5l-1.3 6.7h-3.8l2.8-15.3zM748.5 483h-3.8l4.1-21.3h3.5l-.2 1.1c-.1.6-.3 1.1-.3 1.1h.1c1.1-1.5 2.9-2.6 5-2.6 3.6 0 5.8 2.5 5.8 6.4 0 5.7-4.1 9.6-8.3 9.6-1.8 0-3.5-.7-4.3-2.2h-.1s0 .6-.2 1.4l-1.3 6.5zm5.4-8.9c2.3 0 4.9-2.2 4.9-6.1 0-2.1-1.1-3.5-3-3.5-2.5 0-4.9 2.8-4.9 6.1 0 2 .9 3.5 3 3.5zM765.1 471.3l1.9-9.6h3.8l-1.7 8.8c-.1.6-.2 1.2-.2 1.6 0 1.1.5 1.8 1.9 1.8 2.6 0 4.8-2.6 5.3-5.3l1.3-6.9h3.8l-3 15.3h-3.7l.3-1.4c.2-.8.4-1.5.4-1.5-.9 1.4-3 3.2-5.7 3.2-2.5 0-4.6-1.1-4.6-4.2 0-.5.1-1.1.2-1.8zM784.2 471.1l1.2-6.1h-2l.6-3h2.1l.9-4.4h3.7l-.9 4.4h3.5l-.6 3h-3.5l-1.1 5.6c-.1.5-.1 1-.1 1.2 0 1.7 1.3 2 2.4 2 .5 0 .8-.1.8-.1l-.7 3.3s-.6.1-1.1.1c-2.8 0-5.4-1.1-5.4-4.7.1-.3.1-.8.2-1.3zM802.8 461.3c4.1 0 6.1 2.4 6.1 5.8 0 1.3-.5 2.9-.5 2.9h-10.5v.6c0 1.9 1.3 3.5 3.8 3.5s4.7-1.7 4.7-1.7l1 2.9s-2.6 2-6 2c-4.8 0-7.4-2.9-7.4-6.6 0-5.1 3.7-9.4 8.8-9.4zm2.3 6.2s.1-.3.1-.7c0-1.6-1-2.5-2.4-2.5-2 0-3.5 1.3-4.3 3.2h6.6zM813.2 461.7h3.7l-.5 2.6c-.1.6-.3 1.1-.3 1.1 1-2.1 3.1-4 5.5-4 .5 0 .9.1.9.1l-.8 3.8s-.4-.1-.9-.1c-2.3 0-5 2.5-5.7 6.3l-1 5.4h-3.8l2.9-15.2z"/></g><g class="st7"><path d="M693.2 507.7s1.9 2.1 5.1 2.1c1.7 0 3.7-1 3.7-3 0-3.2-8.3-3.2-8.3-9 0-3.8 3.7-6.5 7.7-6.5 4.5 0 6.6 2.3 6.6 2.3l-2.1 2.9s-1.8-1.6-4.5-1.6c-2 0-3.8 1.3-3.8 2.9 0 3.1 8.3 3.1 8.3 9 0 3.5-3.2 6.5-7.6 6.5-5 0-7.4-2.9-7.4-2.9l2.3-2.7zM717.7 497.3c4.1 0 5.9 2.2 5.9 2.2l-2 2.4s-1.4-1.4-3.8-1.4c-3.2 0-5.8 2.7-5.8 5.8 0 2.1 1.4 3.8 3.9 3.8 2.6 0 4.9-2 4.9-2l1 2.9s-2.6 2.2-6.4 2.2c-4.6 0-7.3-2.9-7.3-6.8.1-4.7 4.2-9.1 9.6-9.1zM727.3 497.7h3.8l-3 15.3h-3.8l3-15.3zm1.2-6h3.8l-.7 3.4h-3.8l.7-3.4zM741.5 497.3c4.1 0 6.1 2.4 6.1 5.8 0 1.3-.5 2.9-.5 2.9h-10.5v.6c0 1.9 1.3 3.5 3.8 3.5s4.7-1.7 4.7-1.7l1 2.9s-2.6 2-6 2c-4.8 0-7.4-2.9-7.4-6.6-.1-5.1 3.7-9.4 8.8-9.4zm2.3 6.2s.1-.3.1-.7c0-1.6-1-2.5-2.4-2.5-2 0-3.5 1.3-4.3 3.2h6.6zM751.9 497.7h3.7l-.3 1.4c-.1.8-.4 1.5-.4 1.5h.1c.8-1.4 3.1-3.2 5.8-3.2s4.6 1.2 4.6 4.2c0 .6-.2 1.3-.3 2l-1.8 9.5h-3.8l1.7-8.9c.1-.5.2-1 .2-1.4 0-1.3-.7-1.9-1.9-1.9-2.6 0-4.9 2.5-5.5 5.3l-1.3 6.9h-3.8l3-15.4zM777 497.3c4.1 0 5.9 2.2 5.9 2.2l-2 2.4s-1.4-1.4-3.8-1.4c-3.2 0-5.8 2.7-5.8 5.8 0 2.1 1.4 3.8 3.9 3.8 2.6 0 4.9-2 4.9-2l1 2.9s-2.6 2.2-6.4 2.2c-4.6 0-7.3-2.9-7.3-6.8.2-4.7 4.3-9.1 9.6-9.1zM792.8 497.3c4.1 0 6.1 2.4 6.1 5.8 0 1.3-.5 2.9-.5 2.9h-10.5v.6c0 1.9 1.3 3.5 3.8 3.5s4.7-1.7 4.7-1.7l1 2.9s-2.6 2-6 2c-4.8 0-7.4-2.9-7.4-6.6 0-5.1 3.7-9.4 8.8-9.4zm2.3 6.2s.1-.3.1-.7c0-1.6-1-2.5-2.4-2.5-2 0-3.5 1.3-4.3 3.2h6.6z"/></g></g><g><path class="st6" d="M597.2 525.8H456.8c-12.9 0-23.4-10.5-23.4-23.4v-40c0-12.9 10.5-23.4 23.4-23.4h140.4c12.9 0 23.4 10.5 23.4 23.4v40c-.1 12.9-10.5 23.4-23.4 23.4z"/><g class="st7"><path d="M489.9 470.3s1.9 2.1 5.1 2.1c1.7 0 3.7-1 3.7-3 0-3.2-8.3-3.2-8.3-9 0-3.8 3.7-6.5 7.7-6.5 4.5 0 6.6 2.3 6.6 2.3l-2.1 2.9s-1.8-1.6-4.5-1.6c-2 0-3.8 1.3-3.8 2.9 0 3.1 8.3 3.1 8.3 9 0 3.5-3.2 6.5-7.6 6.5-5 0-7.4-2.9-7.4-2.9l2.3-2.7zM507.6 460.3h3.7l-.3 1.7c-.1.6-.3 1.2-.3 1.2h.1c1-1.5 3-3.2 5.4-3.2s3.7 1.1 4 3.1h.1c1.1-1.6 3.3-3.1 5.6-3.1 2.7 0 4.3 1.3 4.3 4.1 0 .6-.1 1.3-.2 2.1l-1.8 9.4h-3.8l1.7-9c.1-.6.1-1 .1-1.4 0-1.1-.4-1.8-1.7-1.8-2.5 0-4.3 2.7-4.9 5.5l-1.3 6.7h-3.8l1.8-9c.1-.6.2-1 .2-1.4 0-1.1-.4-1.8-1.7-1.8-2.4 0-4.4 2.7-4.9 5.5l-1.3 6.7h-3.8l2.8-15.3zM541.6 466h.6c.1-.4.1-.6.1-.8 0-1.3-.7-2.1-2.5-2.1-2.2 0-4.5 1.4-4.5 1.4l-.9-2.9s2.8-1.6 6.1-1.6c2.8 0 5.6 1.2 5.6 4.7 0 .4-.1 1-.2 1.5l-1.8 9.4h-3.5l.2-1.3c.1-.6.3-1.1.3-1.1h-.1s-1.7 2.8-5 2.8c-2.4 0-4.5-1.4-4.5-3.9.1-4.9 6.1-6.1 10.1-6.1zm-4.2 7c2 0 3.9-2.2 4.3-4.1l.1-.3h-.6c-1.7 0-5.7.3-5.7 2.8-.1.9.5 1.6 1.9 1.6zM551 460.3h3.7l-.5 2.6c-.1.6-.3 1.1-.3 1.1 1-2.1 3.1-4 5.5-4 .5 0 .9.1.9.1l-.8 3.8s-.4-.1-.9-.1c-2.3 0-5 2.5-5.7 6.3l-1 5.4h-3.8l2.9-15.2zM561.6 469.7l1.2-6.1h-2l.6-3h2.1l.9-4.4h3.7l-.9 4.4h3.5l-.6 3h-3.5l-1.1 5.6c-.1.5-.1 1-.1 1.2 0 1.7 1.3 2 2.4 2 .5 0 .8-.1.8-.1l-.7 3.3s-.6.1-1.1.1c-2.8 0-5.4-1.1-5.4-4.7.1-.3.2-.8.2-1.3z"/></g><g class="st7"><path d="M471.5 490.3h7.5c1.1 0 2.2.1 3.1.5 1.8.8 2.9 2.4 2.9 4.6 0 2.9-1.7 6.1-4.9 7.1v.1s.2.3.5 1.1l2.8 7.9h-4.1l-2.7-7.9h-3.8l-1.5 7.9h-3.9l4.1-21.3zm5.4 10c2.3 0 4.2-1.6 4.2-4.2 0-1.6-1-2.5-2.8-2.5h-3.5l-1.3 6.7h3.4zM495.5 495.9c4.1 0 6.1 2.4 6.1 5.8 0 1.3-.5 2.9-.5 2.9h-10.5v.6c0 1.9 1.3 3.5 3.8 3.5s4.7-1.7 4.7-1.7l1 2.9s-2.6 2-6 2c-4.8 0-7.4-2.9-7.4-6.6-.1-5.1 3.7-9.4 8.8-9.4zm2.3 6.2s.1-.3.1-.7c0-1.6-1-2.5-2.4-2.5-2 0-3.5 1.3-4.3 3.2h6.6zM504.1 507.3s1.5 1.5 4.1 1.5c1.2 0 2.5-.5 2.5-1.6 0-2-6.4-1.9-6.4-6.4 0-3 3-4.8 6.1-4.8 3.5 0 5.3 1.7 5.3 1.7l-1.7 2.6s-1.2-1.2-3.6-1.2c-1.1 0-2.5.5-2.5 1.7 0 1.9 6.4 1.9 6.4 6.4 0 2.8-2.6 4.8-6.1 4.8-3.8 0-6.1-2.2-6.1-2.2l2-2.5zM525.6 495.9c4.1 0 6.1 2.4 6.1 5.8 0 1.3-.5 2.9-.5 2.9h-10.5v.6c0 1.9 1.3 3.5 3.8 3.5s4.7-1.7 4.7-1.7l1 2.9s-2.6 2-6 2c-4.8 0-7.4-2.9-7.4-6.6-.1-5.1 3.7-9.4 8.8-9.4zm2.3 6.2s.1-.3.1-.7c0-1.6-1-2.5-2.4-2.5-2 0-3.5 1.3-4.3 3.2h6.6zM542.6 502h.6c.1-.4.1-.6.1-.8 0-1.3-.7-2.1-2.5-2.1-2.2 0-4.5 1.4-4.5 1.4l-.9-2.9s2.8-1.6 6.1-1.6c2.8 0 5.6 1.2 5.6 4.7 0 .4-.1 1-.2 1.5l-1.8 9.4h-3.5l.2-1.3c.1-.6.3-1.1.3-1.1h-.1s-1.7 2.8-5 2.8c-2.4 0-4.5-1.4-4.5-3.9 0-4.9 6-6.1 10.1-6.1zm-4.3 7c2 0 3.9-2.2 4.3-4.1l.1-.3h-.6c-1.7 0-5.7.3-5.7 2.8 0 .9.6 1.6 1.9 1.6zM552 496.3h3.7l-.5 2.6c-.1.6-.3 1.1-.3 1.1 1-2.1 3.1-4 5.5-4 .5 0 .9.1.9.1l-.8 3.8s-.4-.1-.9-.1c-2.3 0-5 2.5-5.7 6.3l-1 5.4h-3.8l2.9-15.2zM570.6 495.9c4.1 0 5.9 2.2 5.9 2.2l-2 2.4s-1.4-1.4-3.8-1.4c-3.2 0-5.8 2.7-5.8 5.8 0 2.1 1.4 3.8 3.9 3.8 2.6 0 4.9-2 4.9-2l1 2.9s-2.6 2.2-6.4 2.2c-4.6 0-7.3-2.9-7.3-6.8.1-4.7 4.2-9.1 9.6-9.1zM581.4 490.3h3.8l-1.4 7.4c-.2.8-.3 1.4-.3 1.4h.1c.8-1.4 3.1-3.1 5.6-3.1 2.7 0 4.6 1.2 4.6 4.2 0 .6-.1 1.2-.2 1.8l-1.9 9.7h-3.8l1.7-8.9c.1-.5.1-1 .1-1.4 0-1.3-.7-1.9-1.9-1.9-2.6 0-4.9 2.5-5.5 5.3l-1.3 6.9h-3.8l4.2-21.4z"/></g></g></svg>