<svg id="Layer_3" data-name="Layer 3" xmlns="http://www.w3.org/2000/svg" viewBox="0 0 303.85 303.85"><defs><style>.cls-1{fill:#ea507e;stroke:#b33b5f;stroke-width:10px}.cls-1,.cls-12{stroke-miterlimit:10}.cls-2{fill:#e5e5e4}.cls-3{fill:#2e4555}.cls-4{fill:#3fb9bc}.cls-12,.cls-15,.cls-5{opacity:.2}.cls-6{fill:#bcc2c7}.cls-7{fill:#f4f4f4}.cls-15,.cls-8{fill:#fff}.cls-9{fill:#9e9e9e}.cls-10{fill:#a7a7a7}.cls-11{fill:#a4c851}.cls-12{fill:none;stroke:#020202;stroke-linecap:round;stroke-width:3px;stroke-dasharray:8 8}.cls-13{fill:#c6c6c6}.cls-14{opacity:.1}</style></defs><title>vert-transport-tech-forward-b</title><circle class="cls-1" cx="151.92" cy="151.92" r="146.92"/><rect class="cls-2" x="2689.56" y="240.68" width="126.12" height="55.25" rx="1.41" ry="1.41" transform="rotate(-27.14 1177.767 5687.024)"/><path class="cls-3" transform="rotate(-27.14 1149.517 5672.554)" d="M2724.11 253.41h.82v.82h-.82z"/><path class="cls-3" transform="rotate(-27.14 1150.525 5674.464)" d="M2725.09 255.32h.82v.82h-.82z"/><path class="cls-3" transform="rotate(-27.14 1151.491 5676.363)" d="M2726.06 257.22h.82v.82h-.82z"/><path class="cls-3" transform="rotate(-27.14 1152.52 5678.277)" d="M2727.04 259.13h.82v.82h-.82z"/><path class="cls-3" transform="rotate(-27.14 1153.347 5680.209)" d="M2728.02 261.04h.82v.82h-.82z"/><path class="cls-3" transform="rotate(-27.14 1154.52 5682.07)" d="M2729 262.94h.82v.82h-.82z"/><path class="cls-3" transform="rotate(-27.14 1155.394 5683.991)" d="M2729.97 264.85h.82v.82h-.82z"/><path class="cls-3" transform="rotate(-27.14 1156.944 5685.834)" d="M2730.95 266.76h.82v.82h-.82z"/><path class="cls-3" transform="rotate(-27.14 1157.342 5687.816)" d="M2731.93 268.66h.82v.82h-.82z"/><path class="cls-3" transform="rotate(-27.14 1158.283 5689.73)" d="M2732.9 270.57h.82v.82h-.82z"/><path class="cls-3" transform="rotate(-27.14 1159.885 5691.542)" d="M2733.88 272.48h.82v.82h-.82z"/><path class="cls-3" transform="rotate(-27.14 1160.19 5693.545)" d="M2734.86 274.38h.82v.82h-.82z"/><path class="cls-3" transform="rotate(-27.14 1161.425 5695.422)" d="M2735.84 276.29h.82v.82h-.82z"/><path class="cls-3" transform="rotate(-27.14 1162.82 5697.27)" d="M2736.81 278.2h.82v.82h-.82z"/><path class="cls-3" transform="rotate(-27.14 1163.219 5699.252)" d="M2737.79 280.1h.82v.82h-.82z"/><path class="cls-3" transform="rotate(-27.14 1164.186 5701.152)" d="M2738.77 282.01h.82v.82h-.82z"/><path class="cls-3" transform="rotate(-27.14 1165.173 5703.056)" d="M2739.74 283.92h.82v.82h-.82z"/><path class="cls-3" transform="rotate(-27.14 1166.155 5704.981)" d="M2740.72 285.82h.82v.82h-.82z"/><path class="cls-3" transform="rotate(-27.14 1167.075 5706.891)" d="M2741.7 287.73h.82v.82h-.82z"/><path class="cls-3" transform="rotate(-27.14 1168.201 5708.763)" d="M2742.68 289.64h.82v.82h-.82z"/><path class="cls-3" transform="rotate(-27.14 1169.142 5710.678)" d="M2743.65 291.54h.82v.82h-.82z"/><path class="cls-3" transform="rotate(-27.14 1170.062 5712.588)" d="M2744.63 293.45h.82v.82h-.82z"/><path class="cls-3" transform="rotate(-27.14 1171.024 5714.508)" d="M2745.61 295.36h.82v.82h-.82z"/><path class="cls-3" transform="rotate(-27.14 1172.01 5716.413)" d="M2746.59 297.26h.82v.82h-.82z"/><path class="cls-3" transform="rotate(-27.14 1172.977 5718.312)" d="M2747.56 299.17h.82v.82h-.82z"/><path class="cls-4" transform="rotate(-27.14 1141.717 5705.506)" d="M2696.65 261.63h39.83v50.32h-39.83z"/><g class="cls-5"><path class="cls-6" transform="rotate(-27.14 1168.156 5669.534)" d="M2731.17 249.91h23.68v1.78h-23.68z"/><path class="cls-6" transform="rotate(-27.14 1224.2 5685.649)" d="M2787.21 266.04h23.68v1.78h-23.68z"/><path class="cls-6" transform="rotate(-27.14 1190.275 5666.083)" d="M2732.04 246.47h66.2v1.78h-66.2z"/><path class="cls-6" transform="rotate(-27.14 1193.474 5672.357)" d="M2735.24 252.73h66.2v1.78h-66.2z"/><path class="cls-6" transform="rotate(-27.14 1200.349 5685.744)" d="M2742.11 266.13h66.2v1.78h-66.2z"/></g><rect class="cls-7" x="2704.4" y="264.21" width="126.12" height="55.25" rx="1.41" ry="1.41" transform="rotate(-5.73 228.33 26658.964)"/><g><path class="cls-3" transform="rotate(-5.73 207.485 26635.185)" d="M2746.17 267.69h.82v.82h-.82z"/><path class="cls-3" transform="rotate(-5.73 207.68 26637.298)" d="M2746.39 269.82h.82v.82h-.82z"/><path class="cls-3" transform="rotate(-5.73 207.974 26639.416)" d="M2746.6 271.95h.82v.82h-.82z"/><path class="cls-3" transform="rotate(-5.73 208.164 26641.629)" d="M2746.82 274.08h.82v.82h-.82z"/><path class="cls-3" transform="rotate(-5.73 208.359 26643.742)" d="M2747.03 276.21h.82v.82h-.82z"/><path class="cls-3" transform="rotate(-5.73 208.553 26645.855)" d="M2747.24 278.34h.82v.82h-.82z"/><path class="cls-3" transform="rotate(-5.73 208.748 26647.968)" d="M2747.46 280.48h.82v.82h-.82z"/><path class="cls-3" transform="rotate(-5.73 209.043 26650.086)" d="M2747.67 282.61h.82v.82h-.82z"/><path class="cls-3" transform="rotate(-5.73 209.237 26652.2)" d="M2747.88 284.74h.82v.82h-.82z"/><path class="cls-3" transform="rotate(-5.73 209.427 26654.412)" d="M2748.1 286.87h.82v.82h-.82z"/><path class="cls-3" transform="rotate(-5.73 209.622 26656.525)" d="M2748.31 289h.82v.82h-.82z"/><path class="cls-3" transform="rotate(-5.73 209.817 26658.639)" d="M2748.53 291.13h.82v.82h-.82z"/><path class="cls-3" transform="rotate(-5.73 210.111 26660.757)" d="M2748.74 293.27h.82v.82h-.82z"/><path class="cls-3" transform="rotate(-5.73 210.306 26662.87)" d="M2748.95 295.4h.82v.82h-.82z"/><path class="cls-3" transform="rotate(-5.73 210.5 26664.983)" d="M2749.17 297.53h.82v.82h-.82z"/><path class="cls-3" transform="rotate(-5.73 210.69 26667.196)" d="M2749.38 299.66h.82v.82h-.82z"/><path class="cls-3" transform="rotate(-5.73 210.885 26669.309)" d="M2749.59 301.79h.82v.82h-.82z"/><path class="cls-3" transform="rotate(-5.73 211.18 26671.427)" d="M2749.81 303.93h.82v.82h-.82z"/><path class="cls-3" transform="rotate(-5.73 211.374 26673.54)" d="M2750.02 306.06h.82v.82h-.82z"/><path class="cls-3" transform="rotate(-5.73 211.57 26675.653)" d="M2750.24 308.19h.82v.82h-.82z"/><path class="cls-3" transform="rotate(-5.73 211.764 26677.766)" d="M2750.45 310.32h.82v.82h-.82z"/><path class="cls-3" transform="rotate(-5.73 211.954 26679.98)" d="M2750.66 312.45h.82v.82h-.82z"/><path class="cls-3" transform="rotate(-5.73 212.248 26682.097)" d="M2750.88 314.58h.82v.82h-.82z"/><path class="cls-3" transform="rotate(-5.73 212.443 26684.21)" d="M2751.09 316.72h.82v.82h-.82z"/><path class="cls-3" transform="rotate(-5.73 212.638 26686.324)" d="M2751.31 318.85h.82v.82h-.82z"/></g><path class="cls-4" transform="rotate(-5.73 188.066 26662.959)" d="M2707.23 270.72h39.83v50.32h-39.83z"/><g class="cls-5"><path class="cls-6" transform="rotate(-5.73 225.818 26639.107)" d="M2753.06 271.14h23.68v1.78h-23.68z"/><path class="cls-6" transform="rotate(-5.73 272.12 26674.577)" d="M2799.35 306.62h23.68v1.78h-23.68z"/><path class="cls-6" transform="rotate(-5.73 247.708 26644.009)" d="M2753.65 276.02h66.2v1.78h-66.2z"/><path class="cls-6" transform="rotate(-5.73 248.362 26650.952)" d="M2754.35 283.02h66.2v1.78h-66.2z"/><path class="cls-6" transform="rotate(-5.73 249.915 26665.954)" d="M2755.86 298h66.2v1.78h-66.2z"/></g><path class="cls-8" d="M2735.76 285.24a5.7 5.7 0 0 0-6.23-5.09l-7.85.79a5.7 5.7 0 0 0-5.09 6.23l.18 11.25a5.7 5.7 0 0 0 6.23 5.09l9.74-1a5.7 5.7 0 0 0 5.09-6.23zm-13.26-2.48l6.52-.65.09.94-6.52.65zm-3 5.88a2.71 2.71 0 0 1 2.42-3l8.27-.83a2.71 2.71 0 0 1 3 2.42l.8 3.22a2.71 2.71 0 0 1-2.42 3l-9.22.92a2.71 2.71 0 0 1-3-2.42zm2.19 12.38a1.9 1.9 0 1 1 1.7-2.08 1.89 1.89 0 0 1-1.68 2.06zm11.94-1.2a1.9 1.9 0 1 1 1.7-2.08 1.89 1.89 0 0 1-1.68 2.08zM2728.17 306.31l4.47-.45c.69-.07 1.11-.27.57-1-.42-.58-.11-.82.46-1 1.68-.5 1.84-.45 2.84 1 .68 1 1.41 1.9 2.08 2.87.48.69.76 1.51 0 2.12a1.35 1.35 0 0 1-2.11-.51 1.75 1.75 0 0 0-1.91-.8q-6.06.64-12.12 1.21a1.68 1.68 0 0 0-1.7 1.16 1.37 1.37 0 0 1-2 1c-.95-.39-.83-1.26-.5-2 .6-1.41 1.24-2.81 1.91-4.19a2.45 2.45 0 0 1 2.74-.45.57.57 0 0 1 .11.66c-.42 1 .18 1 .91.92 1.42-.27 2.83-.39 4.25-.54z" transform="translate(-2645.2 -121.66)"/><g><rect class="cls-3" x="91.99" y="44.03" width="125.24" height="221.54" rx="2.95" ry="2.95"/><path class="cls-8" d="M96.16 61.42h117.12v167.15H96.16z"/><path class="cls-9" d="M143.58 51.19h22.29v2.43h-22.29z"/><circle class="cls-10" cx="155.13" cy="245.7" r="9.42"/><path class="cls-5" d="M2790.91 367.25a7.47 7.47 0 0 1 .08-1.09 9.4 9.4 0 0 0 18.68 0 7.47 7.47 0 0 1 .08 1.09 9.42 9.42 0 1 1-18.84 0z" transform="translate(-2645.2 -121.66)"/></g><path class="cls-11" d="M206.99 125.15H102.42l-.86-56.44 107.13-.85-1.7 57.29z"/><path class="cls-12" d="M202.3 219.76h-97.74v-27.5l99.45 1.7-1.71 25.8z"/><path class="cls-13" d="M105.1 136.49h85.08v4.92H105.1zM203.77 214.58h.53v.53h-.53zM104.29 148.11h100.87v4.92H104.29zM104.29 159.44h100.87v4.92H104.29zM104.29 172.91h60.26v4.92h-60.26z"/><path class="cls-14" d="M95.73 81.92V228.6l117.12-.02L95.73 81.92z"/><path class="cls-15" d="M184.21 89.39h-37.9l-.6-13.63h38.5v13.63zM194.6 100.79h-48.89v-8.57H194l.6 8.57zM197.95 115.37h-51.3v-8.56h51.9l-.6 8.56z"/><path class="cls-8" d="M2757 209.78c0 14 14 30.77 14 30.77s14-16.78 14-30.77a14 14 0 1 0-28 0zm5.59 0a8.39 8.39 0 1 1 8.39 8.39 8.39 8.39 0 0 1-8.37-8.39z" transform="translate(-2645.2 -121.66)"/></svg>