<svg id="Layer_3" data-name="Layer 3" xmlns="http://www.w3.org/2000/svg" viewBox="0 0 323.46 303.85"><defs><style>.cls-1{fill:#9b5ca2;stroke:#75457b;stroke-width:10px}.cls-1,.cls-8{stroke-miterlimit:10}.cls-2{fill:#434955}.cls-3{fill:#eaeaea}.cls-4{fill:#c4c4c4}.cls-5{fill:#828282}.cls-6{fill:#13a1dc}.cls-7{fill:#fff}.cls-12,.cls-8{fill:#ffd900}.cls-8{stroke:#f0c400;stroke-width:2px}.cls-9{opacity:.3}.cls-10{fill:#000100}.cls-11{opacity:.1}.cls-13{fill:#a4c851}</style></defs><title>vert-transport-rail-service-b</title><circle class="cls-1" cx="151.92" cy="151.92" r="146.92"/><path class="cls-2" d="M1607 398.41l-34.89-34.88a6.17 6.17 0 0 0-8.73 8.72l12 12h-105.83l12-12a6.17 6.17 0 0 0-8.73-8.72L1438 398.42a6.17 6.17 0 1 0 8.72 8.72l10.53-10.53h130.55l10.53 10.53a6.17 6.17 0 0 0 8.67-8.73z" transform="translate(-1369.64 -161.66)"/><path class="cls-3" d="M1464 369.46a9.84 9.84 0 0 1-9.83-9.83l3-135.61a9.86 9.86 0 0 1 9.83-9.89h111a9.84 9.84 0 0 1 9.83 9.83l3 135.72a9.83 9.83 0 0 1-9.83 9.78h-117z" transform="translate(-1369.64 -161.66)"/><path class="cls-4" d="M1578 216.63a7.34 7.34 0 0 1 7.33 7.33v.11l3 135.6A7.34 7.34 0 0 1 1581 367h-117a7.34 7.34 0 0 1-7.33-7.29l3-135.6V224a7.34 7.34 0 0 1 7.33-7.33h111m0-5h-111a12.33 12.33 0 0 0-12.34 12.33l-3 135.66A12.33 12.33 0 0 0 1464 372h117a12.33 12.33 0 0 0 12.33-12.33l-3-135.66a12.33 12.33 0 0 0-12.33-12.38z" transform="translate(-1369.64 -161.66)"/><path class="cls-5" d="M207.35 143.62H98.36l1-56.67h106.99l1 56.67z"/><path class="cls-6" d="M1541 230.11a6.16 6.16 0 0 1-6.17 6.17h-24.67a6.16 6.16 0 0 1-6.17-6.17 6.16 6.16 0 0 1 6.17-6.17h24.67a6.16 6.16 0 0 1 6.17 6.17z" transform="translate(-1369.64 -161.66)"/><circle class="cls-7" cx="109.69" cy="173.28" r="12.33"/><circle class="cls-8" cx="109.69" cy="173.28" r="6.17"/><circle class="cls-7" cx="196.02" cy="173.28" r="12.33"/><circle class="cls-8" cx="196.02" cy="173.28" r="6.17"/><g class="cls-9"><path class="cls-10" d="M1464.44 371.94l-6.17 6.17h17.45l5.85-5.85c.09-.09.12-.22.21-.31h-17.34zM1580.55 371.94h-17.35c.08.1.11.22.2.31l5.86 5.86h17.45z" transform="translate(-1369.64 -161.66)"/></g><path class="cls-11" d="M1541 230.11a6.17 6.17 0 0 1-6.17 6.17h-24.67a6.16 6.16 0 0 1-6.16-6.17 4.88 4.88 0 0 1 0-.54c.32 3.11 2.94 4.54 6.13 4.54h24.67c3.2 0 5.82-1.43 6.14-4.54a4.88 4.88 0 0 1 .06.54z" transform="translate(-1369.64 -161.66)"/><path class="cls-6" d="M207.35 142.62H99.36l1-55.67h105.99l1 55.67z"/><path class="cls-11" d="M1519.47 359.69c1-1 4.58-4.65 5.53-5.72l6.11-6.83c27-32.33 31.88-59.33 37.15-92.66 1.58-10 3.22-29.94 2.89-40v-1.62c.29-.72 2.2-1.18 3-1.2 11.21-.36 14.29 4.26 16 11.34v1l2.52 135.94c.78 5.85-4.77 12.06-10.67 12.06h-78.85c8.66-5.53 11.46-7.42 16.32-12.31z" transform="translate(-1369.64 -161.66)"/><path class="cls-12" d="M1602.46 265.56a46.26 46.26 0 0 1-6-35c5.87-25.45 32-41.15 58.35-35.07s43 31.64 37.1 57.08-32 41.15-58.35 35.07a50.31 50.31 0 0 1-15.88-6.72l-41 35.29z" transform="translate(-1369.64 -161.66)"/><g id="_Group_" data-name="&amp;lt;Group&amp;gt;"><path id="_Compound_Path_" data-name="&amp;lt;Compound Path&amp;gt;" class="cls-7" d="M1633.32 261.56l-7.95 1.85-6.65-28.61 7.95-1.85zm33.24-31.34a6.13 6.13 0 0 1 2.32 4.33l.54 3.43c2.41 15.77 3 19.51-11.93 23-6.66 1.55-9.41.51-11.8-.29-1.94-.7-3.47-1.18-7.39-.27l-1.79.42-5.43-23.35c9-4.45 8.58-10 8.46-14.06 0-2.4-.15-5.15 2.63-5.8a3.46 3.46 0 0 1 2.77.66c2.65 1.95 3.68 7.26 4.65 14.36l12.42-2.89a5.76 5.76 0 0 1 4.54.46z" transform="translate(-1369.64 -161.66)"/></g><path class="cls-13" d="M1611.48 307a30.15 30.15 0 0 1 15.06-17.57c15.21-7.65 34-1.08 41.87 14.67s2 34.72-13.19 42.36-34 1.08-41.87-14.67a32.79 32.79 0 0 1-3.24-10.76l-34.75-5.87z" transform="translate(-1369.64 -161.66)"/><g><path class="cls-7" d="M1654.43 305h-9.35a4.15 4.15 0 0 0-8.31 0h-9.35a1 1 0 0 0-1 1v26a1 1 0 0 0 1 1h27a1 1 0 0 0 1-1v-26a1 1 0 0 0-.99-1zm-13.5-2.08a2.08 2.08 0 1 1-2.08 2.08 2.08 2.08 0 0 1 2.08-2.07zm11.46 27.08h-22.93v-21.91h3.15v2.12a1 1 0 0 0 1 1h14.54a1 1 0 0 0 1-1v-2.12h3.15V330z" transform="translate(-1369.64 -161.66)"/><path class="cls-7" d="M1638.85 326.72l-6.66-7.7 1.9-1.9 4.77 3.72 8.92-7.88 1.9 1.9z" transform="translate(-1369.64 -161.66)"/></g></svg>