<svg id="Layer_1" xmlns="http://www.w3.org/2000/svg" xmlns:xlink="http://www.w3.org/1999/xlink" viewBox="-249.5 12.7 595.9 492.6"><style>.st0{fill:none}.st1{fill:#f9e8d8}.st2{fill:#0ea2dc}.st3{opacity:.2;fill:#fff;stroke:#000;stroke-width:8;stroke-miterlimit:10}.st4{fill:#faad40}.st5{fill:#fff}.st6{fill:#666}.st7{fill:#37bec0}.st8{fill:#9b5ca4}.st9{fill:#a4ce4e}.st10{fill:#ed4f7e}.st11{opacity:.3;fill:#fff;enable-background:new}.st12{fill:url(#SVGID_2_)}.st13{opacity:.4}.st14{opacity:.2}.st15{clip-path:url(#SVGID_4_)}.st16{opacity:.5;fill:#f2f2f2}.st17,.st18{opacity:.5;fill:#e6e6e6}.st18{fill:#ccc}.st19{fill:#085c7c}.st20{fill:#0b7aa5}.st21{fill:#fffbda}.st22{fill:#c1272d}.st23{fill:#999}.st24{fill:#4d4d4d}.st25{fill:#333}</style><pattern x="-103" y="409" width="40" height="40" patternUnits="userSpaceOnUse" id="SVGID_1_" viewBox="110.2 -135.2 40 40" overflow="visible"><path class="st0" d="M110.2-95.2h40v-40h-40z"/><path class="st0" d="M110.2-95.2h40v-40h-40z"/><path class="st1" d="M140-206.8l23.7 86.8 86.8-23.7-23.7-86.8z"/><path class="st1" d="M120-206.8l23.7 86.8 86.8-23.7-23.7-86.8z"/><path class="st1" d="M100-206.8l23.7 86.8 86.8-23.7-23.7-86.8z"/><path class="st1" d="M80-206.8l23.7 86.8 86.8-23.7-23.7-86.8z"/><path class="st1" d="M60-206.8L83.7-120l86.8-23.7-23.7-86.8z"/><path class="st1" d="M40-206.8L63.7-120l86.8-23.7-23.7-86.8z"/><path class="st1" d="M20-206.8L43.7-120l86.8-23.7-23.7-86.8z"/><path class="st1" d="M0-206.8L23.7-120l86.8-23.7-23.7-86.8zM150-186.8l23.7 86.8 86.8-23.7-23.7-86.8z"/><path class="st1" d="M130-186.8l23.7 86.8 86.8-23.7-23.7-86.8z"/><path class="st1" d="M110-186.8l23.7 86.8 86.8-23.7-23.7-86.8z"/><path class="st1" d="M90-186.8l23.7 86.8 86.8-23.7-23.7-86.8z"/><path class="st1" d="M70-186.8L93.7-100l86.8-23.7-23.7-86.8z"/><path class="st1" d="M50-186.8L73.7-100l86.8-23.7-23.7-86.8z"/><path class="st1" d="M30-186.8L53.7-100l86.8-23.7-23.7-86.8z"/><path class="st1" d="M10-186.8L33.7-100l86.8-23.7-23.7-86.8zM140-166.8L163.7-80l86.8-23.7-23.7-86.8z"/><path class="st1" d="M120-166.8L143.7-80l86.8-23.7-23.7-86.8z"/><path class="st1" d="M100-166.8L123.7-80l86.8-23.7-23.7-86.8z"/><path class="st2" d="M176.7-134.8c0-9.1-7.4-16.5-16.5-16.5s-16.5 7.4-16.5 16.5 7.4 16.5 16.5 16.5 16.5-7.3 16.5-16.5z"/><path class="st1" d="M80-166.8L103.7-80l86.8-23.7-23.7-86.8z"/><path class="st2" d="M156.7-134.8c0-9.1-7.4-16.5-16.5-16.5s-16.5 7.4-16.5 16.5 7.4 16.5 16.5 16.5 16.5-7.3 16.5-16.5z"/><path class="st1" d="M60-166.8L83.7-80l86.8-23.7-23.7-86.8z"/><path class="st2" d="M136.7-134.8c0-9.1-7.4-16.5-16.5-16.5s-16.5 7.4-16.5 16.5 7.4 16.5 16.5 16.5 16.5-7.3 16.5-16.5z"/><path class="st1" d="M40-166.8L63.7-80l86.8-23.7-23.7-86.8z"/><path class="st2" d="M116.7-134.8c0-9.1-7.4-16.5-16.5-16.5s-16.5 7.4-16.5 16.5 7.4 16.5 16.5 16.5 16.5-7.3 16.5-16.5z"/><path class="st1" d="M20-166.8L43.7-80l86.8-23.7-23.7-86.8z"/><path class="st1" d="M0-166.8L23.7-80l86.8-23.7-23.7-86.8zM150-146.8L173.7-60l86.8-23.7-23.7-86.8z"/><path class="st1" d="M130-146.8L153.7-60l86.8-23.7-23.7-86.8z"/><path class="st1" d="M110-146.8L133.7-60l86.8-23.7-23.7-86.8z"/><path class="st1" d="M90-146.8L113.7-60l86.8-23.7-23.7-86.8z"/><path class="st2" d="M166.7-114.8c0-9.1-7.4-16.5-16.5-16.5s-16.5 7.4-16.5 16.5 7.4 16.5 16.5 16.5 16.5-7.3 16.5-16.5z"/><path class="st1" d="M70-146.8L93.7-60l86.8-23.7-23.7-86.8z"/><path class="st2" d="M146.7-114.8c0-9.1-7.4-16.5-16.5-16.5s-16.5 7.4-16.5 16.5 7.4 16.5 16.5 16.5 16.5-7.3 16.5-16.5z"/><path class="st1" d="M50-146.8L73.7-60l86.8-23.7-23.7-86.8z"/><path class="st2" d="M126.7-114.8c0-9.1-7.4-16.5-16.5-16.5s-16.5 7.4-16.5 16.5 7.4 16.5 16.5 16.5 16.5-7.3 16.5-16.5z"/><path class="st1" d="M30-146.8L53.7-60l86.8-23.7-23.7-86.8z"/><path class="st1" d="M10-146.8L33.7-60l86.8-23.7-23.7-86.8zM140-126.8L163.7-40l86.8-23.7-23.7-86.8z"/><path class="st1" d="M120-126.8L143.7-40l86.8-23.7-23.7-86.8z"/><path class="st1" d="M100-126.8L123.7-40l86.8-23.7-23.7-86.8z"/><path class="st2" d="M176.7-94.8c0-9.1-7.4-16.5-16.5-16.5s-16.5 7.4-16.5 16.5 7.4 16.5 16.5 16.5 16.5-7.3 16.5-16.5z"/><path class="st1" d="M80-126.8L103.7-40l86.8-23.7-23.7-86.8z"/><path class="st2" d="M156.7-94.8c0-9.1-7.4-16.5-16.5-16.5s-16.5 7.4-16.5 16.5 7.4 16.5 16.5 16.5 16.5-7.3 16.5-16.5z"/><path class="st1" d="M60-126.8L83.7-40l86.8-23.7-23.7-86.8z"/><path class="st2" d="M136.7-94.8c0-9.1-7.4-16.5-16.5-16.5s-16.5 7.4-16.5 16.5 7.4 16.5 16.5 16.5 16.5-7.3 16.5-16.5z"/><path class="st1" d="M40-126.8L63.7-40l86.8-23.7-23.7-86.8z"/><path class="st2" d="M116.7-94.8c0-9.1-7.4-16.5-16.5-16.5s-16.5 7.4-16.5 16.5 7.4 16.5 16.5 16.5 16.5-7.3 16.5-16.5z"/><path class="st1" d="M20-126.8L43.7-40l86.8-23.7-23.7-86.8z"/><path class="st1" d="M0-126.8L23.7-40l86.8-23.7-23.7-86.8zM150-106.8L173.7-20l86.8-23.7-23.7-86.8z"/><path class="st1" d="M130-106.8L153.7-20l86.8-23.7-23.7-86.8z"/><path class="st1" d="M110-106.8L133.7-20l86.8-23.7-23.7-86.8z"/><path class="st1" d="M90-106.8L113.7-20l86.8-23.7-23.7-86.8z"/><path class="st1" d="M70-106.8L93.7-20l86.8-23.7-23.7-86.8z"/><g><path class="st1" d="M50-106.8L73.7-20l86.8-23.7-23.7-86.8z"/></g><g><path class="st1" d="M30-106.8L53.7-20l86.8-23.7-23.7-86.8z"/></g><g><path class="st1" d="M10-106.8L33.7-20l86.8-23.7-23.7-86.8z"/></g><g><path class="st1" d="M140-86.8L163.7 0l86.8-23.7-23.7-86.8z"/></g><g><path class="st1" d="M120-86.8L143.7 0l86.8-23.7-23.7-86.8z"/></g><g><path class="st1" d="M100-86.8L123.7 0l86.8-23.7-23.7-86.8z"/></g><g><path class="st1" d="M80-86.8L103.7 0l86.8-23.7-23.7-86.8z"/></g><g><path class="st1" d="M60-86.8L83.7 0l86.8-23.7-23.7-86.8z"/></g><g><path class="st1" d="M40-86.8L63.7 0l86.8-23.7-23.7-86.8z"/></g><g><path class="st1" d="M20-86.8L43.7 0l86.8-23.7-23.7-86.8z"/></g><g><path class="st1" d="M0-86.8L23.7 0l86.8-23.7-23.7-86.8z"/></g></pattern><title>vert-transport-future-b</title><path class="st3" d="M172.6 311.8l-70.3-89.1c4.5-35.1-3.2-71.9-24.5-103.5C31.1 50-62.7 31.8-131.9 78.4s-87.4 140.5-40.8 209.6 140.5 87.4 209.6 40.8c6.9-4.7 13.3-9.8 19.2-15.3l116.5-1.7z"/><path class="st4" d="M197.9 325.1l-36 13.7s3.1 9.7 8.5 12.8c5.4 3.1 25.2-7.1 25.2-7.1l2.3-19.4z"/><path class="st4" d="M188.7 345l-31 14.7s2.1 9.7 7.5 12.8 21.2-8.1 21.2-8.1l2.3-19.4zM315.8 327.7s6 32.9 5.1 42.5c-.9 9.7-15.7 42.4-21.9 55-6.2 12.6-50.1 23.2-59.1 29-9 5.8-12.6-29-12.6-29s14.6-34.8 31.3-41.5 57.2-56 57.2-56z"/><path class="st5" d="M225.7 441.8l-78.1-28.1c-9-3.2-12.3-14.2-6.7-21.9l101.6-139.2c3.8-5.1 10.5-7.1 16.4-5l78.1 28.1c9 3.2 12.3 14.2 6.7 21.9L242.1 436.7c-3.8 5.1-10.5 7.3-16.4 5.1z"/><path class="st6" d="M232.7 417.7l-63.4-22.8c-7.2-2.6-10.1-11.5-5.5-17.7l82.4-112.9c3.1-4.2 8.5-5.8 13.3-4l63.4 22.8c7.2 2.6 10.1 11.5 5.5 17.7L246 413.6c-3.1 4.1-8.5 5.8-13.3 4.1z"/><path class="st7" d="M250.8 285.7l-6.6-2.4c-2.3-.8-3.1-3.6-1.6-5.6l4.7-6c.9-1.2 2.7-1.7 4.2-1.2l6.6 2.4c2.3.8 3.1 3.6 1.6 5.6l-4.7 6c-1.1 1.4-2.7 1.8-4.2 1.2z"/><path class="st4" d="M268.8 292.8l-6.6-2.4c-2.3-.8-3.1-3.6-1.6-5.6l4.7-6c.9-1.2 2.7-1.7 4.2-1.2l6.6 2.4c2.3.8 3.1 3.6 1.6 5.6l-4.7 6c-1.1 1.2-2.7 1.8-4.2 1.2z"/><path class="st2" d="M288.4 299.8l-6.6-2.4c-2.3-.8-3.1-3.6-1.6-5.6l4.7-6c.9-1.2 2.7-1.7 4.2-1.2l6.6 2.4c2.3.8 3.1 3.6 1.6 5.6l-4.7 6c-1.1 1.2-2.7 1.8-4.2 1.2z"/><path class="st8" d="M308.5 307.3l-6.6-2.4c-2.3-.8-3.1-3.6-1.6-5.6l4.7-6c.9-1.2 2.7-1.7 4.2-1.2l6.6 2.4c2.3.8 3.1 3.6 1.6 5.6l-4.7 6c-1.1 1.4-2.7 1.8-4.2 1.2z"/><path class="st2" d="M237.9 305.3l-6.6-2.4c-2.3-.8-3.1-3.6-1.6-5.6l4.7-6c.9-1.2 2.7-1.7 4.2-1.2l6.6 2.4c2.3.8 3.1 3.6 1.6 5.6l-4.7 6c-.9 1.4-2.7 1.8-4.2 1.2z"/><path class="st9" d="M255.9 312.4l-6.6-2.4c-2.3-.8-3.1-3.6-1.6-5.6l4.7-6c.9-1.2 2.7-1.7 4.2-1.2l6.6 2.4c2.3.8 3.1 3.6 1.6 5.6l-4.7 6c-1.1 1.2-2.7 1.8-4.2 1.2z"/><path class="st8" d="M275.5 319.4l-6.6-2.4c-2.3-.8-3.1-3.6-1.6-5.6l4.7-6c.9-1.2 2.7-1.7 4.2-1.2l6.6 2.4c2.3.8 3.1 3.6 1.6 5.6l-4.7 6c-1 1.2-2.7 1.8-4.2 1.2z"/><path class="st10" d="M295.7 327.1l-6.6-2.4c-2.3-.8-3.1-3.6-1.6-5.6l4.7-6c.9-1.2 2.7-1.7 4.2-1.2l6.6 2.4c2.3.8 3.1 3.6 1.6 5.6l-4.7 6c-1.2 1.2-2.8 1.7-4.2 1.2z"/><path class="st7" d="M222.9 325.9l-6.6-2.4c-2.3-.8-3.1-3.6-1.6-5.6l4.7-6c.9-1.2 2.7-1.7 4.2-1.2l6.6 2.4c2.3.8 3.1 3.6 1.6 5.6l-4.7 6c-1.1 1.3-2.7 1.7-4.2 1.2z"/><path class="st4" d="M240.9 332.8l-6.6-2.4c-2.3-.8-3.1-3.6-1.6-5.6l4.7-6c.9-1.2 2.7-1.7 4.2-1.2l6.6 2.4c2.3.8 3.1 3.6 1.6 5.6l-4.7 6c-1.1 1.4-2.7 1.8-4.2 1.2z"/><path class="st2" d="M260.5 339.8l-6.6-2.4c-2.3-.8-3.1-3.6-1.6-5.6l4.7-6c.9-1.2 2.7-1.7 4.2-1.2l6.6 2.4c2.3.8 3.1 3.6 1.6 5.6l-4.7 6c-1.1 1.4-2.7 1.8-4.2 1.2z"/><path class="st8" d="M280.6 347.5l-6.6-2.4c-2.3-.8-3.1-3.6-1.6-5.6l4.7-6c.9-1.2 2.7-1.7 4.2-1.2l6.6 2.4c2.3.8 3.1 3.6 1.6 5.6l-4.7 6c-1.1 1.3-2.7 1.7-4.2 1.2z"/><path class="st2" d="M210 345.5l-6.6-2.4c-2.3-.8-3.1-3.6-1.6-5.6l4.7-6c.9-1.2 2.7-1.7 4.2-1.2l6.6 2.4c2.3.8 3.1 3.6 1.6 5.6l-4.7 6c-1 1.3-2.7 1.7-4.2 1.2z"/><path class="st9" d="M228 352.4l-6.6-2.4c-2.3-.8-3.1-3.6-1.6-5.6l4.7-6c.9-1.2 2.7-1.7 4.2-1.2l6.6 2.4c2.3.8 3.1 3.6 1.6 5.6l-4.7 6c-1.1 1.4-2.7 1.8-4.2 1.2z"/><path class="st8" d="M247.6 359.4L241 357c-2.3-.8-3.1-3.6-1.6-5.6l4.7-6c.9-1.2 2.7-1.7 4.2-1.2l6.6 2.4c2.3.8 3.1 3.6 1.6 5.6l-4.7 6c-1 1.4-2.7 1.8-4.2 1.2z"/><path class="st10" d="M267.7 367.1l-6.6-2.4c-2.3-.8-3.1-3.6-1.6-5.6l4.7-6c.9-1.2 2.7-1.7 4.2-1.2l6.6 2.4c2.3.8 3.1 3.6 1.6 5.6l-4.7 6c-1.1 1.3-2.7 1.7-4.2 1.2z"/><path class="st7" d="M193 366.3l-6.6-2.4c-2.3-.8-3.1-3.6-1.6-5.6l4.7-6c.9-1.2 2.7-1.7 4.2-1.2l6.6 2.4c2.3.8 3.1 3.6 1.6 5.6l-4.7 6c-1 1.2-2.7 1.7-4.2 1.2z"/><path class="st4" d="M211 373.2l-6.6-2.4c-2.3-.8-3.1-3.6-1.6-5.6l4.7-6c.9-1.2 2.7-1.7 4.2-1.2l6.6 2.4c2.3.8 3.1 3.6 1.6 5.6l-4.7 6c-1 1.2-2.8 1.8-4.2 1.2z"/><path class="st2" d="M230.7 380.2l-6.6-2.4c-2.3-.8-3.1-3.6-1.6-5.6l4.7-6c.9-1.2 2.7-1.7 4.2-1.2l6.6 2.4c2.3.8 3.1 3.6 1.6 5.6l-4.7 6c-1.1 1.2-2.7 1.8-4.2 1.2z"/><path class="st8" d="M250.7 387.9l-6.6-2.4c-2.3-.8-3.1-3.6-1.6-5.6l4.7-6c.9-1.2 2.7-1.7 4.2-1.2l6.6 2.4c2.3.8 3.1 3.6 1.6 5.6l-4.7 6c-1 1.2-2.7 1.7-4.2 1.2z"/><path class="st2" d="M180.2 385.9l-6.6-2.4c-2.3-.8-3.1-3.6-1.6-5.6l4.7-6c.9-1.2 2.7-1.7 4.2-1.2l6.6 2.4c2.3.8 3.1 3.6 1.6 5.6l-4.7 6c-1.1 1.2-2.7 1.7-4.2 1.2z"/><path class="st9" d="M198.2 392.8l-6.6-2.4c-2.3-.8-3.1-3.6-1.6-5.6l4.7-6c.9-1.2 2.7-1.7 4.2-1.2l6.6 2.4c2.3.8 3.1 3.6 1.6 5.6l-4.7 6c-1.1 1.2-2.7 1.8-4.2 1.2z"/><path class="st8" d="M217.8 399.8l-6.6-2.4c-2.3-.8-3.1-3.6-1.6-5.6l4.7-6c.9-1.2 2.7-1.7 4.2-1.2l6.6 2.4c2.3.8 3.1 3.6 1.6 5.6l-4.7 6c-1 1.2-2.7 1.8-4.2 1.2z"/><path class="st10" d="M237.9 407.5l-6.6-2.4c-2.3-.8-3.1-3.6-1.6-5.6l4.7-6c.9-1.2 2.7-1.7 4.2-1.2l6.6 2.4c2.3.8 3.1 3.6 1.6 5.6l-4.7 6c-1.1 1.2-2.7 1.7-4.2 1.2z"/><path class="st11" d="M169.4 394.9c-7.2-2.6-10.1-11.5-5.5-17.7l82.4-112.9c3.1-4.2 8.5-5.8 13.3-4l63.4 22.8c7.2 2.6 10.1 11.5 5.5 17.7l-159.1 94.1z"/><path class="st4" d="M-1.9 505.3s162.8-71.9 173.9-82.7c17.9-17.3 35-16.2 37.8-20.5 10.6-16.4 25.3-25 27-36.8 1.6-11.8 2.4-38.5 6.6-44.3 4.2-5.8 19.6-7.8 20.1 0s1.2 26 1.9 32.3c.5 6.3-1.3 25.5-1.9 33.2-.5 7.7 10.9 27.2 10.9 27.2 15-2.7 25.5 24.2-28.2 41.2-14.9 4.8-56.3 8.1-56.3 8.1l-66.4 42.2H-1.9z"/><pattern id="SVGID_2_" xlink:href="#SVGID_1_" patternTransform="matrix(1.5535 0 0 -1.5535 6591.183 -22961.871)"/><path class="st12" d="M245.1 336.5s-1.2-11.9 2-14.8c3.2-3 12.3-4.2 13.2-2 .8 2 2.4 12.8.9 14.5-1.5 1.6-16.1 2.3-16.1 2.3z"/><path class="st13" d="M-14.3 268.7l-25.2-19.2c-1.7-1.3-4.2-.1-4.2 2.1v8.3c0 1.4-1.2 2.6-2.6 2.6h-40.2c-1.4 0-2.6 1.2-2.6 2.6v11.6c0 1.4 1.2 2.6 2.6 2.6h40.2c1.4 0 2.6 1.2 2.6 2.6v8c0 2.2 2.5 3.4 4.2 2.1l25.2-19.2c1.4-1 1.4-3 0-4.1z"/><g><path d="M22.9 296.5c8.7-14.1 10.3-26.5 10-37.8h-5.7c-1.3 0-2.2-1.3-2.1-2.8l.3-2.5c.2-1.5 1.2-2.8 3-2.8h4c-.6-5.2-1-11.8-1-16 0-25 12.7-38.8 33.3-38.8 11.5 0 19.8 7.3 22.8 10.6.9.9.7 2.7-.3 3.9l-9 10.9c-1.3 1.3-3.3 1-4.2.1-1.8-1.6-5.8-5.1-10.8-5.1-4.3 0-8.7 4.6-8.7 13.2 0 4 1.9 11.7 2.7 21.1h10.5c1.5 0 2.2 1.3 2.1 2.8l-.3 2.7c-.2 1.5-1.5 2.7-3 2.7h-9.3c-.6 6.9-1.6 14.5-4 23.2h20.5c1.3 0 2.2 1.2 1.9 2.8l-1.9 14.4c-.3 1.5-1.5 2.8-2.8 2.8H24.7c-1.3 0-2.2-1.3-2.1-2.8l.3-2.6z" class="st14"/><path class="st5" d="M15 286.4c8.7-14.1 10.3-26.5 10-37.8h-5.7c-1.3 0-2.2-1.3-2.1-2.8l.3-2.5c.2-1.5 1.2-2.8 3-2.8h4c-.6-5.2-1-11.8-1-16 0-25 12.7-38.8 33.3-38.8 11.5 0 19.8 7.3 22.8 10.6.9.9.7 2.7-.3 3.9l-9 10.9c-1.3 1.3-3.3 1-4.2.1-1.8-1.6-5.8-5.1-10.8-5.1-4.3 0-8.7 4.6-8.7 13.2 0 4 1.9 11.7 2.7 21.1h10.5c1.5 0 2.2 1.3 2.1 2.8l-.3 2.7c-.2 1.5-1.5 2.7-3 2.7h-9.3c-.6 6.9-1.6 14.5-4 23.2h20.5c1.3 0 2.2 1.2 1.9 2.8L65.8 289c-.3 1.5-1.5 2.8-2.8 2.8H16.8c-1.3 0-2.2-1.3-2.1-2.8l.3-2.6z"/></g><g><defs><circle id="SVGID_3_" cx="-48.4" cy="203.7" r="147.7"/></defs><clipPath id="SVGID_4_"><use xlink:href="#SVGID_3_" overflow="visible"/></clipPath><g class="st15"><path class="st16" d="M6.7 168.5l19-14.5h11.7l2-3.6s4.9-17.7 7.3-19c2.4-1.3 63.3-14.1 63.3-14.1S95.1 70.5 92.1 64.7c-3-5.8-37.2 6.4-37.2 6.4L68 43.5l-20.7-6.2-24-16-18-8-38-.7L-45.5 63-51 74.8v23.9l9.8 21.2 11.2 15.4V148l.3 9 4 11.1 11.3 7.2 21.1-6.8z"/><path class="st17" d="M-15.2 174.8l18-5.8H15v-12.1l5.1-4.5L31 149v-7.4-13.8s3.5-11.1 4-14.8c.5-3.7 5.2-6.6-.1-9.8C29.6 100 23.1 96 23.1 96H7.7l-5 9.3s-8.8 5.2-8.8 7.8c0 2.7-2.5 12.1-2.5 12.1l-.7 10-5.9 10.6L-19 157v15.4l3.8 2.4z"/><path class="st17" d="M-30.4 172.1s-1.1-6.6-.6-11.4c.6-4.8 3.5-5.8-4.9-9.5s-13.1-1.1-11.8-8.5 3.4-18.6 3.4-18.6l-8.1-17 9.4-17s4.8 3.2 7.1 6.9 4.9 15.4 4.9 15.4 6.9-1.1 13.8 5.8 8.7 12.9 8.7 12.9 10.1 6.8 8.9 11-4.3 13.8-4.3 13.8-8 2.7-10.6 6.9 1.6 4.2-3.2 6.9l-4.8 2.7-7.9-.3z"/><path class="st18" d="M-30.9 175s6-11.6 8.6-14.3c2.7-2.7 2.3-6.9 2.3-6.9v-27.6l6 5v14.6l3.7 11.2-3.7 9.5v4.2l10.3-4.8 3.5-9s2.3-3.4 3-7.5c.7-4.1 2.3-1 2.3-7.3s2.6-15.9 2.6-15.9l10.1-13.3-3.7 10.1-2.9 19.8 6.6 6.2 19.4-5.3 5.3-17 9.4-9.5-5.3 14.1-2 12.5-7.5 15.4-5.7 7.7-8 5.5-6.9 3.5s-1.7-.2-11-.7-9.6.7-9.6.7l-6.9.3-3.7 2.7-5.3.1-10.9-4z"/><path class="st18" d="M33.1 121.2c.5-1.6 4.9-13 4.9-13v-9.5l-2.6-8.5 7.3 9 2.1 6.5-2.2 7.3-1.9 6.2-7.6 2zM-17 118.3l-7-12.6V83.8l-1.5-9 8.5 15.3v10.1l6 9v14.9z"/><path class="st19" d="M-47 178s10.8 2.3 10.5-.9c-.5-6.6 10.1-9.2 10-3.4-.1 5.8-3.4 15.7-2.4 10.8 1-4.9 2.4-11.5 5.7-11.8s1.2 9.2 3.2 10.8c1.9 1.6-3 6.5-1.6-.2 2.4-11.5 2.7-8.5 5-6.2 4.6 4.7 2.2 4.1 5 4.6s8.4 4.4 8.4 4.4-8.5 4.3-10.3 6.4c-1.8 2.1-19-.4-20.6 0-1.6.3-12.9-14.5-12.9-14.5z"/><path class="st20" d="M-2.9 188.5c-6.2-3.5 4.5-4.5-10.5-6.6-.7-.1-10.5 9.2-15 8.8-6.3-.7-8-11.2-9.2-11.3-7.1-1-6.4-.8-16.8-2.3 0 0-31.7-21.2-56.4-24.6-24.7-3.4-64.6-2-73.9 1.8-9.4 3.8-27 14.2-35.2 18-8.2 3.7-11.8 3.7-19.4 8s-9.6 40 2.1 42.9l205.9.5s30.7-.1 34.1-5.8 3.8-23.9-5.7-29.4zm-200.9-13.1c.9-4.3 23.5-18 29.1-19 1.4-.3 3.6-.4 6.3-.6l-3.3 22.3c-17 0-32.5-.7-32.1-2.7zm75.3 2.5c-3.2-.1-21.9.3-39.8.3l3.1-22.5c7.7-.3 17.7-.3 24.3-.3 2.8 0 16.6 22.7 12.4 22.5zm10.7.2s-17.8-22.7-13.9-22.7c3.9-.1 21.2 1.3 26.4 2.1 6.4 1.1 33.1 15.6 35.5 19 2.4 3.4-40.8 2.9-48 1.6z"/><path class="st21" d="M-9.2 198.3c0-2.1 3.7-6.1 4.5-7.2.8-1.1-1.1 0 1.3 0s4.5 4.1 4.8 6.6-10.6 2.7-10.6.6z"/><path class="st22" d="M-241.8 195.2c.4-2.4-.2-11.2 2.6-12.6s6.2-3.5 6.2-3.5v17.6l-8.8-1.5z"/><path class="st14" d="M-237.2 223.2l27.9-23.5s114.9 2.7 126.2 0c11.3-2.7 30-11.8 30-11.8s7.3.2 16.8.5c4.1.1 8.3 11.2 12.8 11.3 3.4.1 7-10.6 10.3-10.5 11.4.5 12.1 1 12.9 1.4 5.2 2.9 8.7 20.8 3.1 27.3-8 9.2-91.2 5.6-123.6 5.5s-116.4-.2-116.4-.2z"/><circle cx="-190" cy="218.9" r="22.3"/><circle class="st23" cx="-190" cy="218.9" r="16.9"/><circle class="st5" cx="-189.7" cy="207" r="2.6"/><circle class="st5" cx="-180.5" cy="211.7" r="2.6"/><circle class="st5" cx="-178.4" cy="221.8" r="2.6"/><circle class="st5" cx="-185" cy="229.7" r="2.6"/><circle class="st5" cx="-195.3" cy="229.5" r="2.6"/><circle class="st5" cx="-201.6" cy="221.3" r="2.6"/><circle class="st5" cx="-199.1" cy="211.3" r="2.6"/><circle class="st5" cx="-189.7" cy="207" r="2.6"/><circle class="st24" cx="-190" cy="218.9" r="6.6"/><g><circle cx="-42.6" cy="218.9" r="22.3"/><circle class="st23" cx="-42.6" cy="218.9" r="16.9"/><circle class="st5" cx="-42.3" cy="207" r="2.6"/><circle class="st5" cx="-33.1" cy="211.7" r="2.6"/><circle class="st5" cx="-31" cy="221.8" r="2.6"/><circle class="st5" cx="-37.6" cy="229.7" r="2.6"/><circle class="st5" cx="-47.9" cy="229.5" r="2.6"/><circle class="st5" cx="-54.2" cy="221.3" r="2.6"/><circle class="st5" cx="-51.7" cy="211.3" r="2.6"/><circle class="st5" cx="-42.3" cy="207" r="2.6"/><circle class="st24" cx="-42.6" cy="218.9" r="6.6"/></g><path class="st25" d="M-247.6 205s35.9-.9 35.1 1.6c-.8 2.5-1.9 6.1-1.9 7.7 0 1.6-25.1 0-30.6.2-5.5.1-5.3-9.3-2.6-9.5zM4.1 223.5s-24.8-7.4-23.2-9.5c1.6-2.1 3.7-5.2 4.2-6.7S.3 212.4 5.6 214c5.2 1.6 1 10.1-1.5 9.5z"/></g></g></svg>