<svg id="Layer_1" xmlns="http://www.w3.org/2000/svg" viewBox="120 81 800 800"><style>.st0{fill:url(#SVGID_1_)}.st1{fill:#37bec0;stroke:#87d8d9;stroke-width:12;stroke-miterlimit:10}.st2{fill:none;stroke:#37bec0;stroke-width:9;stroke-linecap:round;stroke-linejoin:round}.st2,.st3,.st4{stroke-miterlimit:10}.st3{stroke-linecap:round;stroke-linejoin:round;fill:none;stroke:#fff;stroke-width:20}.st4{fill:#87d8d9;stroke:#37bec0;stroke-width:12}.st5{fill:#faad40}.st6{fill:#f9e8d8}.st7{fill:#bc842c}.st8{fill:#461a00}.st9{fill:#fbb03b}.st10,.st11{enable-background:new}.st10{fill:#542700;opacity:.4}.st11{opacity:.2}.st12{fill:#603813}.st13{opacity:.3;fill:#fff;enable-background:new}.st14{fill:#ed4f7e}.st15{fill:#0ea2dc}.st16{opacity:.4;fill:#fff;enable-background:new}.st17{fill:#bbaea2}.st18,.st19{fill:#fff}.st19{opacity:.2;enable-background:new}.st20{fill:#fff;stroke:#37bec0;stroke-width:9;stroke-miterlimit:10}.st21{enable-background:new}</style><radialGradient id="SVGID_1_" cx="519.65" cy="472.2" r="308.9" gradientTransform="translate(0 4)" gradientUnits="userSpaceOnUse"><stop offset=".466" stop-color="#37bec0"/><stop offset="1" stop-color="#fff" stop-opacity="0"/></radialGradient><circle class="st0" cx="519.7" cy="476.2" r="308.9"/><circle class="st1" cx="519.7" cy="476.2" r="175.7"/><path class="st2" d="M697.2 774.9h-165c-10.2 0-18.5-8.3-18.5-18.5s-8.3-18.5-18.5-18.5h-134"/><path class="st2" d="M384.3 722.6l-27.4 15.3 27.4 15.3M648.8 722.6l27.4 15.3-27.4 15.3"/><path class="st3" d="M335.9 774.9h165c10.2 0 18.5-8.3 18.5-18.5s8.3-18.5 18.5-18.5h134"/><path class="st2" d="M335.9 774.9h165c10.2 0 18.5-8.3 18.5-18.5s8.3-18.5 18.5-18.5h134"/><path class="st2" d="M648.8 722.6l27.4 15.3-27.4 15.3M697.2 181h-165c-10.2 0-18.5 8.3-18.5 18.5s-8.3 18.5-18.5 18.5h-134"/><path class="st2" d="M384.3 233.3L356.9 218l27.4-15.4M648.8 233.3l27.4-15.3-27.4-15.4"/><path class="st3" d="M335.9 181h165c10.2 0 18.5 8.3 18.5 18.5s8.3 18.5 18.5 18.5h134"/><path class="st2" d="M335.9 181h165c10.2 0 18.5 8.3 18.5 18.5s8.3 18.5 18.5 18.5h134"/><path class="st2" d="M648.8 233.3l27.4-15.3-27.4-15.4M219.6 297.3v165c0 10.2 8.3 18.5 18.5 18.5s18.5 8.3 18.5 18.5v134"/><path class="st2" d="M271.9 610.3l-15.3 27.3-15.3-27.3M271.9 345.6l-15.3-27.3-15.3 27.3"/><path class="st3" d="M219.6 658.6v-165c0-10.2 8.3-18.5 18.5-18.5s18.5-8.3 18.5-18.5v-134"/><path class="st2" d="M219.6 658.6v-165c0-10.2 8.3-18.5 18.5-18.5s18.5-8.3 18.5-18.5v-134"/><path class="st2" d="M271.9 345.6l-15.3-27.3-15.3 27.3M813.6 297.3v165c0 10.2-8.3 18.5-18.5 18.5s-18.5 8.3-18.5 18.5v134"/><path class="st2" d="M761.2 610.3l15.4 27.3 15.2-27.3M761.2 345.6l15.4-27.3 15.2 27.3"/><path class="st3" d="M813.6 658.6v-165c0-10.2-8.3-18.5-18.5-18.5s-18.5-8.3-18.5-18.5v-134"/><path class="st2" d="M813.6 658.6v-165c0-10.2-8.3-18.5-18.5-18.5s-18.5-8.3-18.5-18.5v-134"/><path class="st2" d="M761.2 345.6l15.4-27.3 15.2 27.3"/><circle class="st4" cx="248.4" cy="755.3" r="96.6"/><circle class="st4" cx="248.4" cy="197.3" r="96.6"/><path class="st5" d="M225.4 764s-2.1 3.4-1.6 4.4-2.1 21.2-2.1 21.2h5.3s2.1-17.6 2.8-19.7c.8-2.1 2.8-4.8 2.8-4.8l-7.2-1.1zM279.3 764s2.1 3.4 1.6 4.4 2.2 21.2 2.2 21.2h-5.3s-2.1-17.6-2.8-19.7c-.8-2.1-2.8-4.8-2.8-4.8l7.1-1.1z"/><path class="st6" d="M246.8 734.4s-11.4 3.2-13.6 4.8c-2.2 1.6-10.1 21.5-10.1 24.2s7.8 4.2 9.5 4.5c1.6.2 3.9-6.2 3.9-6.2l.6 27.9H268l-.4-29.2s2.8 7.7 3.7 7.6c.9-.1 8.8-2.4 10.4-3.3 1.5-.9-6.4-24-8.7-25.4s-15.6-4.9-18.1-4.8c-2.8 0-8.1-.1-8.1-.1z"/><path class="st7" d="M251.6 728.2s4.6-.9 4.6 4.3c0 4 6 7.1-4.6 7.1M251.6 728.2s-4.6-.9-4.6 4.3c0 4-6 7.1 4.6 7.1"/><g><path class="st5" d="M251.2 732.2c-15.2 0-12.9-25.4-11.6-30.9 1.2-5.1 11.6-4.9 11.6-4.9s10.3-.1 11.6 4.9c1.3 5.5 3.6 30.9-11.6 30.9z"/><circle class="st8" cx="257.4" cy="709.1" r="1.1"/><path class="st9" d="M265.9 709.3c0 3.2.2 5.8-2.1 5.8-2.3 0-.9-2.6-.9-5.8s.4-5.8.9-5.8 2.1 2.6 2.1 5.8z"/><circle class="st8" cx="245.1" cy="709.1" r="1.1"/><path class="st10" d="M248.4 715c.1 2.6 1.2 5.7 2.8 5.7s2.7-3 2.8-5.7c0 0-1.1 2.1-2.8 2.1-1.7 0-2.8-2.1-2.8-2.1z"/><path class="st9" d="M236.6 709.3c0 3.2-.2 5.8 2.1 5.8s.9-2.6.9-5.8-.4-5.8-.9-5.8-2.1 2.6-2.1 5.8z"/><path class="st11" d="M240 704.7s3.5-1.7 6.1-1.1 5.7.9 7.9 1.1c2.2.2 3.3-1.3 3.3-1.3s3.1 4.2 4.5 4.6c1.3.4 0 0 0 0v-12.7l-22 5.1.2 4.3z"/><path class="st12" d="M238.5 704.3c1.2-.8.4 2.4 1.5 3.7s1.8-4.6 2.1-6.1c.4-1.5 7 0 10.7.6 3.8.6 5.9-4.8 5.9-4.8s-.5 5.7.5 6.7 2 5.1 2.9 5.1.2-3.3 1.1-3.2 2.6 1.9 2.6 1.9 2-8.2-.8-11.9c-1-1.3-6.6-8.3-12-7.8-9.6.8-13.8 3.4-15.7 7.8-1.9 4.4-.8 10-.8 10l.6 1.1c.1 0 .2-2.3 1.4-3.1z"/><path class="st13" d="M238.7 699s.8-3.6 3.3-5.1c2.5-1.4 11.6-2.9 11.6-2.9s2.4 2.7 0 4-10.1 2.5-10.1 2.5l-4.8 1.5z"/></g><g><path class="st5" d="M450.1 543.1s-5.6 8.5-4.3 11c1.3 2.5-5.7 55.5-5.7 55.5h14s5.5-46 7.5-51.5 7.5-12.5 7.5-12.5l-19-2.5zM592.1 543.1s5.6 8.5 4.3 11c-1.3 2.5 5.7 55.5 5.7 55.5h-14s-5.5-46-7.5-51.5-7.5-12.5-7.5-12.5l19-2.5z"/><path class="st6" d="M506.3 464.9s-30.1 8.4-35.8 12.7c-5.7 4.3-26.7 56.7-26.7 63.8s20.6 11.1 25 11.8c4.3.7 10.3-16.6 10.3-16.6l1.5 73h81.5l-1-76.6s7.4 20.5 9.7 20.3c2.3-.3 23.3-6.3 27.3-8.7 3.9-2.2-17-63.3-23-67s-41-13-47.9-12.7c-6.9.4-20.9 0-20.9 0z"/><path class="st7" d="M519.1 448.6s12-2.4 12 11.3c0 10.7 15.7 18.7-12 18.7M519.1 448.6s-12-2.4-12 11.3c0 10.7-15.7 18.7 12 18.7"/><g><path class="st5" d="M518.1 459.1c-40 0-34-67-30.5-81.5 3.2-13.3 30.5-13 30.5-13s27.3-.3 30.5 13c3.5 14.5 9.5 81.5-30.5 81.5z"/><circle class="st8" cx="534.2" cy="398.4" r="2.9"/><path class="st9" d="M556.7 398.8c0 8.4.5 15.2-5.5 15.2s-2.4-6.8-2.4-15.2c0-8.4 1.1-15.2 2.4-15.2s5.5 6.8 5.5 15.2z"/><circle class="st8" cx="501.9" cy="398.4" r="2.9"/><path class="st10" d="M510.6 413.9c.3 7 3.2 15 7.5 15s7.2-8 7.5-15c0 0-2.8 5.5-7.5 5.5-4.8 0-7.5-5.5-7.5-5.5z"/><path class="st9" d="M479.5 398.8c0 8.4-.5 15.2 5.5 15.2s2.4-6.8 2.4-15.2c0-8.4-1.1-15.2-2.4-15.2s-5.5 6.8-5.5 15.2z"/><path class="st11" d="M488.6 386.6s9.2-4.5 16.1-3 15 2.5 20.9 3 8.8-3.3 8.8-3.3 8.3 11.1 11.8 12.2c3.5 1.1 0 0 0 0V362l-58 13.3.4 11.3z"/><path class="st12" d="M484.5 385.6c3.1-2 .9 6.3 3.9 9.7 3 3.3 4.7-12 5.7-16s18.3 0 28.3 1.7 15.7-12.7 15.7-12.7-1.3 15 1.3 17.7c2.7 2.7 5.2 13.5 7.7 13.5s.6-8.8 2.9-8.4c2.3.3 6.7 5 6.7 5s5.3-21.6-2-31.3c-2.6-3.4-17.4-21.8-31.7-20.7-25.2 2-36.3 9-41.3 20.7s-2.2 26.3-2.2 26.3l1.5 2.8c0-.2.4-6.3 3.5-8.3z"/><path class="st13" d="M485.1 371.7s2-9.6 8.7-13.3c6.7-3.7 30.7-7.6 30.7-7.6s6.3 7.1 0 10.5c-6.3 3.4-26.5 6.7-26.5 6.7l-12.9 3.7z"/></g></g><g><path class="st5" d="M187.7 775.8s-2.1 3-1.6 4c.5.9-2.2 20.9-2.2 20.9h5.3s2.1-17.2 2.8-19.3c.8-2.1 2.8-4.6 2.8-4.6l-7.1-1zM241.5 775.8s2.1 3 1.6 4c-.5.9 2.2 20.9 2.2 20.9H240s-2.1-17.2-2.8-19.3c-.8-2.1-2.8-4.6-2.8-4.6l7.1-1z"/><path class="st6" d="M209 746.1s-11.4 3.2-13.6 4.8-10.1 21.5-10.1 24.2 7.8 4.2 9.5 4.5 3.9-6.5 3.9-6.5l.6 27.5h30.9l-.4-28.9s2.8 7.9 3.7 7.8c.9-.1 8.8-2.3 10.4-3.2 1.5-.9-6.4-24-8.7-25.4s-15.6-4.9-18.1-4.8c-2.8.1-8.1 0-8.1 0z"/><path class="st7" d="M213.8 739.9s4.6-.9 4.6 4.3c0 4 6 7.1-4.6 7.1M213.8 739.9s-4.6-.9-4.6 4.3c0 4-6 7.1 4.6 7.1"/><g><path class="st5" d="M213.5 743.9c-15.2 0-12.9-25.4-11.6-30.9 1.2-5.1 11.6-4.9 11.6-4.9s10.3-.1 11.6 4.9c1.3 5.5 3.5 30.9-11.6 30.9z"/><circle class="st8" cx="219.6" cy="720.9" r="1.1"/><path class="st9" d="M228.1 721c0 3.2.2 5.8-2.1 5.8s-.9-2.6-.9-5.8.4-5.8.9-5.8c.5.1 2.1 2.7 2.1 5.8z"/><circle class="st8" cx="207.3" cy="720.9" r="1.1"/><path class="st10" d="M210.6 726.8c.1 2.6 1.2 5.7 2.8 5.7s2.7-3 2.8-5.7c0 0-1.1 2.1-2.8 2.1s-2.8-2.1-2.8-2.1z"/><path class="st9" d="M198.8 721c0 3.2-.2 5.8 2.1 5.8s.9-2.6.9-5.8-.4-5.8-.9-5.8-2.1 2.7-2.1 5.8z"/><path class="st11" d="M202.3 716.4s3.5-1.7 6.1-1.1c2.6.6 5.7.9 7.9 1.1s3.3-1.3 3.3-1.3 3.1 4.2 4.5 4.6c1.3.4 0 0 0 0V707l-22 5.1.2 4.3z"/><path class="st12" d="M200.7 716c1.2-.8.4 2.4 1.5 3.7s1.8-4.6 2.1-6.1c.4-1.5 7 0 10.7.6 3.8.6 5.9-4.8 5.9-4.8s-.5 5.7.5 6.7 2 5.1 2.9 5.1.2-3.3 1.1-3.2c.9.1 2.6 1.9 2.6 1.9s2-8.2-.8-11.9c-1-1.3-6.6-8.3-12-7.8-9.6.8-13.8 3.4-15.7 7.8-1.9 4.4-.8 10-.8 10l.6 1.1c.1 0 .2-2.3 1.4-3.1z"/><path class="st13" d="M200.9 710.7s.8-3.6 3.3-5.1c2.5-1.4 11.6-2.9 11.6-2.9s2.4 2.7 0 4-10.1 2.5-10.1 2.5l-4.8 1.5z"/></g></g><g><path class="st5" d="M255.7 775.8s-2.1 3-1.6 4c.5.9-2.2 20.9-2.2 20.9h5.3s2.1-17.2 2.8-19.3c.8-2.1 2.8-4.6 2.8-4.6l-7.1-1zM309.5 775.8s2.1 3 1.6 4c-.5.9 2.2 20.9 2.2 20.9H308s-2.1-17.2-2.8-19.3c-.8-2.1-2.8-4.6-2.8-4.6l7.1-1z"/><path class="st6" d="M277 746.1s-11.4 3.2-13.6 4.8-10.1 21.5-10.1 24.2 7.8 4.2 9.5 4.5c1.6.2 3.9-6.5 3.9-6.5l.6 27.5h30.8l-.4-28.9s2.8 7.9 3.7 7.8c.9-.1 8.8-2.3 10.4-3.2 1.5-.9-6.4-24-8.7-25.4s-15.6-4.9-18.1-4.8c-2.7.1-8 0-8 0z"/><path class="st7" d="M281.8 739.9s4.6-.9 4.6 4.3c0 4 6 7.1-4.6 7.1M281.8 739.9s-4.6-.9-4.6 4.3c0 4-6 7.1 4.6 7.1"/><g><path class="st5" d="M281.5 743.9c-15.2 0-12.9-25.4-11.6-30.9 1.2-5.1 11.6-4.9 11.6-4.9s10.3-.1 11.6 4.9c1.3 5.5 3.5 30.9-11.6 30.9z"/><circle class="st8" cx="287.6" cy="720.9" r="1.1"/><path class="st9" d="M296.1 721c0 3.2.2 5.8-2.1 5.8s-.9-2.6-.9-5.8.4-5.8.9-5.8 2.1 2.7 2.1 5.8z"/><circle class="st8" cx="275.3" cy="720.9" r="1.1"/><path class="st10" d="M278.6 726.8c.1 2.6 1.2 5.7 2.8 5.7 1.6 0 2.7-3 2.8-5.7 0 0-1.1 2.1-2.8 2.1s-2.8-2.1-2.8-2.1z"/><path class="st9" d="M266.8 721c0 3.2-.2 5.8 2.1 5.8 2.3 0 .9-2.6.9-5.8s-.4-5.8-.9-5.8c-.5.1-2.1 2.7-2.1 5.8z"/><path class="st11" d="M270.3 716.4s3.5-1.7 6.1-1.1c2.6.6 5.7.9 7.9 1.1 2.2.2 3.3-1.3 3.3-1.3s3.1 4.2 4.5 4.6c1.3.4 0 0 0 0V707l-22 5.1.2 4.3z"/><path class="st12" d="M268.7 716c1.2-.8.4 2.4 1.5 3.7s1.8-4.6 2.1-6.1c.4-1.5 7 0 10.7.6 3.8.6 5.9-4.8 5.9-4.8s-.5 5.7.5 6.7 2 5.1 2.9 5.1.2-3.3 1.1-3.2 2.6 1.9 2.6 1.9 2-8.2-.8-11.9c-1-1.3-6.6-8.3-12-7.8-9.6.8-13.8 3.4-15.7 7.8-1.9 4.4-.8 10-.8 10l.6 1.1c.1 0 .2-2.3 1.4-3.1z"/><path class="st13" d="M268.9 710.7s.8-3.6 3.3-5.1c2.5-1.4 11.6-2.9 11.6-2.9s2.4 2.7 0 4-10.1 2.5-10.1 2.5l-4.8 1.5z"/></g></g><g><path class="st2" d="M371 308.2l-30.1-8.5 8.5 30.1M389.5 327.3l8.5 30.2-30.2-8.5M398 357.5l-53-54.3"/></g><g><path class="st2" d="M670.8 308.2l30.2-8.5-8.5 30.1M652.3 327.3l-8.5 30.2L674 349M643.8 357.5l53-54.3"/></g><g><path class="st2" d="M371 701l-30.1 8.5 8.5-30.2M389.5 681.8l8.5-30.1-30.2 8.5M398 651.7L345 706"/></g><g><path class="st2" d="M670.8 701l30.2 8.5-8.5-30.2M652.3 681.8l-8.5-30.1 30.2 8.5M643.8 651.7l53 54.3"/></g><circle class="st4" cx="797.3" cy="197.3" r="96.6"/><circle class="st4" cx="797.3" cy="755.3" r="96.6"/><g><path class="st14" d="M811.5 212.2l-33.1 33c-7.6 7.6-20 7.6-27.7-.1-7.7-7.7-7.6-20.1 0-27.8l32.8-32.8 28 27.7z"/><path class="st15" d="M809.8 213.8l33-33.1c7.6-7.6 7.6-20-.1-27.7s-20.1-7.6-27.8 0l-32.8 32.8 27.7 28z"/><path class="st16" d="M761.2 243.3c-5.4-6.2-4.8-15.7 1-21.5l54.6-54.6c3.1-3.1 3.1-8.2 0-11.3l-63.2 63.2c-6.3 6.3-6.6 16.7-.3 23 3.4 3.5 7.9 5 12.2 4.7-1.5-.9-2.9-2.1-4.3-3.5z"/><path class="st11" d="M834.3 152.5c6.2 7.2 5.6 18.1-1.2 24.9l-55.8 55.8c-3.6 3.6-3.6 9.4 0 13l-7.3 7.3 73-73c7.3-7.3 7.6-19.3.3-26.6-4-4-9.1-5.7-14.1-5.4 2 1 3.8 2.3 5.1 4z"/></g><g><path class="st17" d="M725.7 735.5h142.9v61.7H725.7z"/><path class="st11" d="M736.8 735.5h120.5v61.7H736.8z"/><path class="st6" d="M746.3 699.9h101.4v97.3H746.3z"/><path class="st11" d="M838.7 731.3h-84.4l-2.8-3.2 91.2-21.9v21.9z"/><path class="st15" d="M751.5 706.2h91.2v21.9h-91.2z"/><path class="st18" d="M794.2 708.5h5.9v16.6h-5.9z"/><path class="st18" d="M788.8 713.9h16.6v5.9h-16.6z"/><path class="st11" d="M761.8 736.7h70.3v59.8h-70.3z"/><path class="st11" d="M769.1 742.9H825v53.7h-55.9z"/><path class="st11" d="M775 748.6h44.1v48H775z"/><path class="st19" d="M839.2 710.6l-80.5 15.5h-5.2v-17.6h85.7z"/></g><g><path class="st20" d="M621.3 665.6H421c-12.9 0-23.4-10.5-23.4-23.4 0-12.9 10.5-23.4 23.4-23.4h200.4c12.9 0 23.4 10.5 23.4 23.4 0 12.9-10.6 23.4-23.5 23.4z"/><g class="st21"><path d="M477.9 630.7h7.6c1.3 0 2.4.2 3.3.7 1.8.9 2.8 2.7 2.8 5 0 3.5-2 6.3-4.7 7.6-1 .5-2.1.7-3.2.7h-4.6l-1.4 7.3h-3.9l4.1-21.3zm5.4 10.6c.8 0 1.5-.1 2.1-.4 1.4-.7 2.3-2.2 2.3-4.1 0-1.6-1-2.7-2.9-2.7h-3.6l-1.4 7.3h3.5zM501.2 642.4h.6c.1-.4.1-.6.1-.8 0-1.3-.7-2.1-2.5-2.1-2.2 0-4.5 1.4-4.5 1.4l-.9-2.9s2.8-1.6 6.1-1.6c2.8 0 5.6 1.2 5.6 4.7 0 .4-.1 1-.1 1.5l-1.8 9.4h-3.5l.2-1.3c.1-.6.3-1.1.3-1.1h-.1s-1.7 2.8-5 2.8c-2.4 0-4.5-1.4-4.5-3.9 0-4.9 6-6.1 10-6.1zm-4.2 7c2 0 3.9-2.2 4.3-4.1l.1-.3h-.6c-1.7 0-5.7.3-5.7 2.8-.1.9.5 1.6 1.9 1.6zM509.3 646.1l1.2-6.1h-2l.6-3h2.1l.9-4.4h3.7l-.9 4.4h3.5l-.6 3h-3.5l-1.1 5.6c-.1.5-.1 1-.1 1.2 0 1.7 1.3 2 2.4 2 .5 0 .8-.1.8-.1l-.7 3.3s-.6.1-1.1.1c-2.8 0-5.4-1.1-5.4-4.7 0-.3.1-.8.2-1.3zM521.7 636.7h3.8l-3 15.3h-3.8l3-15.3zm1.2-6h3.8l-.7 3.4h-3.8l.7-3.4zM535.9 636.4c4.1 0 6.1 2.4 6.1 5.8 0 1.3-.5 2.9-.5 2.9H531v.6c0 1.9 1.3 3.5 3.8 3.5s4.7-1.7 4.7-1.7l1 2.9s-2.6 2-6 2c-4.8 0-7.4-2.9-7.4-6.6 0-5.2 3.7-9.4 8.8-9.4zm2.3 6.1s.1-.3.1-.7c0-1.6-1-2.5-2.4-2.5-2 0-3.5 1.3-4.3 3.2h6.6zM546.3 636.7h3.7l-.3 1.4c-.1.8-.4 1.5-.4 1.5h.1c.8-1.4 3.1-3.2 5.8-3.2 2.7 0 4.6 1.2 4.6 4.2 0 .6-.2 1.3-.3 2l-1.8 9.5h-3.8l1.7-8.9c.1-.5.2-1 .2-1.4 0-1.3-.7-1.9-1.9-1.9-2.6 0-4.9 2.5-5.5 5.3l-1.3 6.9h-3.8l3-15.4zM563.4 646.1l1.2-6.1h-2l.6-3h2.1l.9-4.4h3.7l-.9 4.4h3.5l-.6 3h-3.5l-1.1 5.6c-.1.5-.1 1-.1 1.2 0 1.7 1.3 2 2.4 2 .5 0 .8-.1.8-.1l-.7 3.3s-.6.1-1.1.1c-2.8 0-5.4-1.1-5.4-4.7 0-.3.1-.8.2-1.3z"/></g></g><g><path class="st20" d="M870.2 317.3H729.8c-12.9 0-23.4-10.5-23.4-23.4 0-12.9 10.5-23.4 23.4-23.4h140.4c12.9 0 23.4 10.5 23.4 23.4 0 13-10.5 23.4-23.4 23.4z"/><g class="st21"><path d="M751.7 282.5h7.6c1.3 0 2.4.2 3.3.7 1.8.9 2.8 2.7 2.8 5 0 3.5-2 6.3-4.7 7.6-1 .5-2.1.7-3.2.7h-4.7l-1.4 7.3h-3.9l4.2-21.3zm5.4 10.6c.8 0 1.5-.1 2.1-.4 1.4-.7 2.3-2.2 2.3-4.1 0-1.6-1-2.7-2.9-2.7H755l-1.4 7.3h3.5zM769.5 282.5h3.8l-1.4 7.4c-.2.8-.3 1.4-.3 1.4h.1c.8-1.4 3.1-3.1 5.6-3.1 2.7 0 4.6 1.2 4.6 4.2 0 .6-.1 1.2-.2 1.8l-1.9 9.7H776l1.7-8.9c.1-.5.2-1 .2-1.4 0-1.3-.7-1.9-1.9-1.9-2.6 0-4.9 2.5-5.5 5.3l-1.4 6.9h-3.8l4.2-21.4zM793.3 294.2h.6c.1-.4.1-.6.1-.8 0-1.3-.7-2.1-2.5-2.1-2.2 0-4.5 1.4-4.5 1.4l-.9-2.9s2.8-1.6 6.1-1.6c2.8 0 5.6 1.2 5.6 4.7 0 .4-.1 1-.1 1.5l-1.8 9.4h-3.5l.2-1.3c.1-.6.3-1.1.3-1.1h-.1s-1.7 2.8-5 2.8c-2.4 0-4.5-1.4-4.5-3.9 0-5 6-6.1 10-6.1zm-4.2 7c2 0 3.9-2.2 4.3-4.1l.1-.3h-.6c-1.7 0-5.7.3-5.7 2.8-.1.8.6 1.6 1.9 1.6zM802.8 288.5h3.7l-.5 2.6c-.1.6-.3 1.1-.3 1.1 1-2.1 3.1-4 5.5-4 .5 0 .9.1.9.1l-.8 3.8s-.4-.1-.9-.1c-2.3 0-5 2.5-5.7 6.3l-1 5.4h-3.8l2.9-15.2zM814.6 288.5h3.7l-.3 1.7c-.1.6-.3 1.2-.3 1.2h.1c1-1.5 3-3.2 5.4-3.2 2.4 0 3.7 1.1 4 3.1h.1c1.1-1.6 3.3-3.1 5.6-3.1 2.7 0 4.3 1.3 4.3 4.1 0 .6-.1 1.3-.2 2.1l-1.8 9.4h-3.8l1.7-9c.1-.6.1-1 .1-1.4 0-1.1-.4-1.8-1.7-1.8-2.5 0-4.3 2.7-4.9 5.5l-1.3 6.7h-3.8l1.8-9c.1-.6.2-1 .2-1.4 0-1.1-.4-1.8-1.7-1.8-2.4 0-4.4 2.7-4.9 5.5l-1.3 6.7h-3.8l2.8-15.3zM848.6 294.2h.6c.1-.4.1-.6.1-.8 0-1.3-.7-2.1-2.5-2.1-2.2 0-4.5 1.4-4.5 1.4l-.9-2.9s2.8-1.6 6.1-1.6c2.8 0 5.6 1.2 5.6 4.7 0 .4-.1 1-.2 1.5l-1.8 9.4h-3.5l.2-1.3c.1-.6.3-1.1.3-1.1h-.1s-1.7 2.8-5 2.8c-2.4 0-4.5-1.4-4.5-3.9 0-5 6-6.1 10.1-6.1zm-4.3 7c2 0 3.9-2.2 4.3-4.1l.1-.3h-.7c-1.7 0-5.7.3-5.7 2.8.1.8.7 1.6 2 1.6z"/></g></g><g><path class="st20" d="M316.9 317.3H176.5c-12.9 0-23.4-10.5-23.4-23.4 0-12.9 10.5-23.4 23.4-23.4h140.4c12.9 0 23.4 10.5 23.4 23.4 0 13-10.5 23.4-23.4 23.4z"/><g class="st21"><path d="M182.7 282.5h7.6c1.3 0 2.4.2 3.3.7 1.8.9 2.8 2.7 2.8 5 0 3.5-2 6.3-4.7 7.6-1 .5-2.1.7-3.2.7h-4.6l-1.4 7.3h-3.9l4.1-21.3zm5.4 10.6c.8 0 1.5-.1 2.1-.4 1.4-.7 2.3-2.2 2.3-4.1 0-1.6-1-2.7-2.9-2.7H186l-1.4 7.3h3.5zM199.4 288.5h3.7l-.5 2.6c-.1.6-.3 1.1-.3 1.1 1-2.1 3.1-4 5.5-4 .5 0 .9.1.9.1l-.8 3.8s-.4-.1-.9-.1c-2.3 0-5 2.5-5.7 6.3l-1 5.4h-3.8l2.9-15.2zM217.9 288.1c4.4 0 7.5 2.7 7.5 6.8 0 5.4-4.7 9.3-9.5 9.3-4.4 0-7.5-2.7-7.5-6.8.1-5.4 4.8-9.3 9.5-9.3zm-1.9 12.8c2.7 0 5.5-2.4 5.5-5.8 0-2.2-1.5-3.8-3.7-3.8-2.7 0-5.6 2.5-5.6 5.8.1 2.3 1.7 3.8 3.8 3.8zM227.8 288.5h3.8l1.3 9.5c.1.6.1 2.3.1 2.3h.1s.5-1.4 1-2.3l5-9.5h4l-8.5 15.3h-4.3l-2.5-15.3zM245.3 288.5h3.8l-3 15.3h-3.8l3-15.3zm1.2-6h3.8l-.7 3.4h-3.8l.7-3.4zM259.1 288.1c1.6 0 3.4.6 4.2 2.1h.1s0-.5.1-.9l1.3-6.8h3.8l-4.1 21.3h-3.6l.2-1.1c.1-.6.3-1.1.3-1.1h-.1c-1 1.5-2.8 2.6-4.9 2.6-3.7 0-5.8-2.5-5.8-6.4 0-5.8 4.1-9.7 8.5-9.7zm-1.5 12.8c2.5 0 4.9-2.9 4.9-6.1 0-1.9-.9-3.4-3-3.4-2.3 0-4.9 2.3-4.9 6.1-.1 2.1 1.1 3.4 3 3.4zM277.9 288.1c4.1 0 6.1 2.4 6.1 5.8 0 1.3-.5 2.9-.5 2.9H273v.6c0 1.9 1.3 3.5 3.8 3.5s4.7-1.7 4.7-1.7l1 2.9s-2.6 2-6 2c-4.8 0-7.4-2.9-7.4-6.6-.1-5.1 3.7-9.4 8.8-9.4zm2.3 6.1s.1-.3.1-.7c0-1.6-1-2.5-2.4-2.5-2 0-3.5 1.3-4.3 3.2h6.6zM288.3 288.5h3.7l-.5 2.6c-.1.6-.3 1.1-.3 1.1 1-2.1 3.1-4 5.5-4 .5 0 .9.1.9.1l-.8 3.8s-.4-.1-.9-.1c-2.3 0-5 2.5-5.7 6.3l-1 5.4h-3.8l2.9-15.2zM298.3 299.4s1.5 1.5 4.1 1.5c1.2 0 2.5-.5 2.5-1.6 0-2-6.4-1.9-6.4-6.4 0-3 3-4.8 6.1-4.8 3.5 0 5.3 1.7 5.3 1.7l-1.7 2.6s-1.2-1.2-3.6-1.2c-1.1 0-2.5.5-2.5 1.7 0 1.9 6.4 1.9 6.4 6.4 0 2.8-2.6 4.8-6.1 4.8-3.8 0-6.1-2.2-6.1-2.2l2-2.5z"/></g></g><g><path class="st20" d="M870.2 863.1H729.8c-12.9 0-23.4-10.5-23.4-23.4 0-12.9 10.5-23.4 23.4-23.4h140.4c12.9 0 23.4 10.5 23.4 23.4 0 12.9-10.5 23.4-23.4 23.4z"/><g class="st21"><path d="M725.9 828.2h3.8l-4.1 21.3h-3.9l4.2-21.3zM733.4 834.2h3.7l-.3 1.4c-.2.8-.4 1.5-.4 1.5h.1c.8-1.4 3.2-3.2 5.8-3.2 2.7 0 4.6 1.2 4.6 4.2 0 .6-.1 1.3-.3 2l-1.8 9.5H741l1.7-8.9c.1-.5.2-1 .2-1.4 0-1.3-.7-1.9-1.9-1.9-2.6 0-4.9 2.5-5.5 5.3l-1.3 6.9h-3.8l3-15.4zM750 845.2s1.5 1.5 4.1 1.5c1.2 0 2.5-.5 2.5-1.6 0-2-6.4-1.9-6.4-6.4 0-3 3-4.8 6.1-4.8 3.5 0 5.3 1.7 5.3 1.7l-1.7 2.6s-1.2-1.2-3.6-1.2c-1.1 0-2.5.5-2.5 1.7 0 1.9 6.4 1.9 6.4 6.4 0 2.8-2.6 4.8-6.1 4.8-3.8 0-6.1-2.2-6.1-2.2l2-2.5zM764.1 843.6l1.2-6.1h-2l.6-3h2.1l.9-4.4h3.7l-.9 4.4h3.5l-.6 3h-3.5l-1.1 5.6c-.1.5-.1 1-.1 1.2 0 1.7 1.3 2 2.4 2 .5 0 .8-.1.8-.1l-.7 3.3s-.6.1-1.1.1c-2.8 0-5.4-1.1-5.4-4.7 0-.3.1-.8.2-1.3zM776.5 834.2h3.8l-3 15.3h-3.8l3-15.3zm1.2-6h3.8l-.7 3.4H777l.7-3.4zM783.3 843.6l1.2-6.1h-2l.6-3h2.1l.9-4.4h3.7l-.9 4.4h3.5l-.6 3h-3.5l-1.1 5.6c-.1.5-.1 1-.1 1.2 0 1.7 1.3 2 2.4 2 .5 0 .8-.1.8-.1l-.7 3.3s-.6.1-1.1.1c-2.8 0-5.4-1.1-5.4-4.7 0-.3.1-.8.2-1.3zM793.6 843.9l1.9-9.6h3.8l-1.7 8.8c-.1.6-.2 1.2-.2 1.6 0 1.1.5 1.8 1.9 1.8 2.6 0 4.8-2.6 5.3-5.3l1.3-6.9h3.8l-3 15.3H803l.3-1.4c.1-.8.4-1.5.4-1.5h-.1c-.9 1.4-3 3.2-5.7 3.2-2.5 0-4.6-1.1-4.6-4.2.1-.5.2-1.2.3-1.8zM812.7 843.6l1.2-6.1h-2l.6-3h2.1l.9-4.4h3.7l-.9 4.4h3.5l-.6 3h-3.5l-1.1 5.6c-.1.5-.1 1-.1 1.2 0 1.7 1.3 2 2.4 2 .5 0 .8-.1.8-.1l-.7 3.3s-.6.1-1.1.1c-2.8 0-5.4-1.1-5.4-4.7.1-.3.2-.8.2-1.3zM825.2 834.2h3.8l-3 15.3h-3.8l3-15.3zm1.1-6h3.8l-.7 3.4h-3.8l.7-3.4zM839.9 833.9c4.4 0 7.5 2.7 7.5 6.8 0 5.4-4.7 9.3-9.5 9.3-4.4 0-7.5-2.7-7.5-6.8 0-5.4 4.7-9.3 9.5-9.3zm-1.9 12.8c2.7 0 5.5-2.4 5.5-5.8 0-2.2-1.5-3.8-3.7-3.8-2.7 0-5.6 2.5-5.6 5.8.1 2.3 1.6 3.8 3.8 3.8zM851.8 834.2h3.7l-.3 1.4c-.1.8-.4 1.5-.4 1.5h.1c.8-1.4 3.1-3.2 5.8-3.2 2.7 0 4.6 1.2 4.6 4.2 0 .6-.2 1.3-.3 2l-1.8 9.5h-3.8l1.7-8.9c.1-.5.2-1 .2-1.4 0-1.3-.7-1.9-1.9-1.9-2.6 0-4.9 2.5-5.5 5.3l-1.3 6.9h-3.8l3-15.4zM868.4 845.2s1.5 1.5 4.1 1.5c1.2 0 2.5-.5 2.5-1.6 0-2-6.4-1.9-6.4-6.4 0-3 3-4.8 6.1-4.8 3.5 0 5.3 1.7 5.3 1.7l-1.7 2.6s-1.2-1.2-3.6-1.2c-1.1 0-2.5.5-2.5 1.7 0 1.9 6.4 1.9 6.4 6.4 0 2.8-2.6 4.8-6.1 4.8-3.8 0-6.1-2.2-6.1-2.2l2-2.5z"/></g></g><g><path class="st20" d="M311.5 863.1H171.1c-12.9 0-23.4-10.5-23.4-23.4 0-12.9 10.5-23.4 23.4-23.4h140.4c12.9 0 23.4 10.5 23.4 23.4 0 12.9-10.5 23.4-23.4 23.4z"/><g class="st21"><path d="M200.6 828.2h12.2l-.6 3.3h-8.4l-1.1 6h7l-.6 3.3H202l-1.7 8.6h-3.8l4.1-21.2zM221.2 839.9h.6c.1-.4.1-.6.1-.8 0-1.3-.7-2.1-2.5-2.1-2.2 0-4.5 1.4-4.5 1.4l-.9-2.9s2.8-1.6 6.1-1.6c2.8 0 5.6 1.2 5.6 4.7 0 .4-.1 1-.1 1.5l-1.8 9.4h-3.5l.2-1.3c.1-.6.3-1.1.3-1.1h-.1s-1.7 2.8-5 2.8c-2.4 0-4.5-1.4-4.5-3.9 0-4.9 6-6.1 10-6.1zm-4.2 7c2 0 3.9-2.2 4.3-4.1l.1-.3h-.6c-1.7 0-5.7.3-5.7 2.8-.1.9.5 1.6 1.9 1.6zM230.6 834.2h3.7l-.3 1.7c-.1.6-.3 1.2-.3 1.2h.1c1-1.5 3-3.2 5.4-3.2 2.4 0 3.7 1.1 4 3.1h.1c1.1-1.6 3.3-3.1 5.6-3.1 2.7 0 4.3 1.3 4.3 4.1 0 .6-.1 1.3-.2 2.1l-1.8 9.4h-3.8l1.7-9c.1-.6.1-1 .1-1.4 0-1.1-.4-1.8-1.7-1.8-2.5 0-4.3 2.7-4.9 5.5l-1.3 6.7h-3.8l1.8-9c.1-.6.1-1 .1-1.4 0-1.1-.4-1.8-1.7-1.8-2.4 0-4.4 2.7-4.9 5.5l-1.3 6.7h-3.8l2.9-15.3zM258 834.2h3.8l-3 15.3H255l3-15.3zm1.2-6h3.8l-.7 3.4h-3.8l.7-3.4zM263.8 844.5l3.1-16.3h3.8l-3 15.7c-.1.4-.2 1-.2 1.2 0 1 .7 1.1 1.3 1.1h.5l-.7 3.3s-.5.1-1.1.1c-2 0-4-.8-4-3.6.1-.4.2-.9.3-1.5zM271.7 852.6c1.1 0 2.2-.6 3-2l.9-1.4-3.5-15.1h4l1.7 9.3c.1.8.2 1.9.2 1.9h.1s.5-1.1.9-1.9l4.8-9.3h4.3l-10.3 17.6c-1.6 2.8-3.8 4-5.8 4s-3.5-1.1-3.5-1.1l1.7-2.7c-.1.2.5.7 1.5.7z"/></g></g><g><path class="st14" d="M283.6 181.6h-19.5v-19.3c0-4.3-3.3-7.7-7.6-7.7h-22.7c-4.3 0-7.7 3.4-7.7 7.7v19.3h-19.4c-4.3 0-7.6 3.5-7.6 7.7V212c0 4.3 3.4 7.5 7.6 7.5h19.4V239c0 4.3 3.4 7.5 7.7 7.5h22.7c4.3 0 7.6-3.2 7.6-7.5v-19.4h19.5c4.3 0 7.5-3.3 7.5-7.5v-22.7c0-4.3-3.2-7.8-7.5-7.8z"/><path class="st19" d="M260.1 163.6h-20.3c-2 0-3.7 1.4-3.7 3.5v19.8c0 2.2-3.6 3.7-5.9 3.7H212c-2.1 0-3.9 2-3.9 4v22.5s-5-.2-5-4.8v-22.9c0-2 1.5-3.7 3.6-3.7h19.5c2.2 0 3.9-1.7 3.9-3.9v-19.5c0-2.1 1.7-3.7 3.7-3.7h22.7c2 0 3.6 1.7 3.6 3.8v1.2z"/><path class="st11" d="M264.4 189.9c0-2.3 1.9-4.2 4.2-4.2h15c2.1 0 3.7 1.6 3.7 3.6V212c0 2.1-1.7 3.8-3.7 3.8h-19.2c-2.2 0-4 1.8-4 4V239c0 2-1.8 3.7-3.8 3.7h-22.7c-2 0-3.6-1.6-3.6-3.7v-14.1c0-2.8 2.3-5.1 5.1-5.1h13.5c2.4 0 4.3-1.9 4.3-4.3v-.9c0-3.6 2.9-6.5 6.5-6.5h.5c2.4 0 4.3-1.9 4.3-4.3l-.1-13.9z"/></g></svg>