<svg id="Layer_1" xmlns="http://www.w3.org/2000/svg" viewBox="-98.3 300.4 362 362"><style>.st0{fill:#9b5ca4;stroke:#74457b;stroke-width:10;stroke-miterlimit:10}.st1{fill:#ed4f7e}.st2,.st3{opacity:.2;fill:#fff}.st3{fill:none;stroke:#000;stroke-width:10;stroke-linecap:round;stroke-linejoin:round;stroke-miterlimit:10}.st4{fill:#0b7aa5}.st5,.st6{stroke:#0b7aa5;stroke-miterlimit:10}.st5{stroke-linecap:round;stroke-linejoin:round;fill:none;stroke-width:3}.st6{fill:#faad40;stroke-width:2}.st7{opacity:.2}.st8,.st9{opacity:.5}.st9{fill:none;stroke:#fff;stroke-width:4;stroke-linecap:round;stroke-miterlimit:10}.st10{fill:#fff}.st11,.st12,.st13{fill:none;stroke:#fff;stroke-width:3;stroke-linecap:round;stroke-linejoin:round;stroke-miterlimit:10}.st12,.st13{stroke:#0b7aa5;stroke-width:9}.st13{stroke:#0ea2dc}.st14{fill:#010f14}.st15{fill:#031d28}.st16{fill:#042c3c}.st17{fill:#053b50}.st18{fill:#064a64}.st19{fill:#085878}.st20{fill:#09678c}.st21{fill:#0a76a0}.st22{fill:#0b85b4}.st23{fill:#0d93c8}.st24{fill:#0ea2dc}</style><circle class="st0" cx="82.7" cy="481.4" r="176"/><path class="st1" d="M4 476.3c-1.5 1.9-4.4 1.9-6 0-35.5-43.4-81.6 9.5-53 38.9 16.5 16.9 39.6 41.7 50.2 53 3.1 3.3 8.4 3.3 11.5 0 10.6-11.4 33.8-36.1 50.2-53C85.5 485.9 39.5 433 4 476.3z"/><path class="st2" d="M-50.6 512.1c-5-5-8-11.8-8-19.4 0-15.2 12.3-27.4 27.4-27.4 8.7 0 16.4 4 21.4 10.3 0 0-16.9-8.1-32.4 6.9s-8.4 29.6-8.4 29.6zM9.4 482c4.2-9.8 13.9-16.8 25.3-16.8 8.7 0 16.4 4 21.4 10.3 0 0-20.8-1.7-30.2-.3S9.4 482 9.4 482z"/><path class="st3" d="M4.1 560.6L52.8 508"/><path class="st4" d="M-21.5 400l-9.2-16 9.2-16h18.4l9.2 16-9.2 16zM35.5 400l-9.2-16 9.2-16h18.4l9.2 16-9.2 16z"/><path class="st5" d="M34.1 398.8l-9.2 16.7H6.5l-9.2-16.4"/><path class="st4" d="M91.5 400l-9.2-16 9.2-16h18.4l9.2 16-9.2 16z"/><path class="st5" d="M91 336.5h18.9l9.2 15.3-9.2 16.3"/><path class="st4" d="M63.5 415l-9.2-16 9.2-16h18.4l9.2 16-9.2 16z"/><path class="st5" d="M80.9 414l9.2 16M62.5 446l-9.2-16 9.2-16"/><path class="st4" d="M119.5 415l-9.2-16 9.2-16h18.4l9.2 16-9.2 16zM119.5 447l-9.2-16 9.2-16h18.4l9.2 16-9.2 16z"/><path class="st6" d="M82.6 341l-3.1-5 3.1-5h6.2l3 5-3 5zM61.6 454l-3.1-5 3.1-5h6.2l3 5-3 5zM88.6 438l-3.1-5 3.1-5h6.2l3 5-3 5z"/><path class="st7" d="M-18 397h13.5l6.9-12-6.9-12h-4.7L-21 391.8z"/><path class="st2" d="M-15.3 372h-3.8l-6.9 12 1.7 3z"/><path class="st7" d="M39 397h13.5l6.9-12-6.9-12h-4.7L36 391.8z"/><path class="st2" d="M41.7 372h-3.8L31 384l1.7 3z"/><path class="st7" d="M94 397h13.5l6.9-12-6.9-12h-4.7L91 391.8z"/><path class="st2" d="M96.8 372h-3.9L86 384l1.7 3z"/><g><path class="st7" d="M67 411h13.5l6.9-12-6.9-12h-4.7L64 405.8z"/><path class="st2" d="M69.8 386h-3.9L59 398l1.7 3z"/></g><g><path class="st7" d="M123 411h13.5l6.9-12-6.9-12h-4.7L120 405.8z"/><path class="st2" d="M125.8 386h-3.9l-6.9 12 1.7 3z"/></g><g><path class="st7" d="M123 444h13.5l6.9-12-6.9-12h-4.7L120 438.8z"/><path class="st2" d="M125.8 419h-3.9l-6.9 12 1.7 3z"/></g><g class="st8"><path class="st9" d="M43.7 415.6L15.2 444H-57"/><circle class="st10" cx="43.2" cy="415.9" r="6"/><circle class="st10" cx="-56.8" cy="443.9" r="6"/></g><g class="st8"><path class="st9" d="M210.2 487l-44-44-.2-22.1 28.3-28.3"/><circle class="st10" cx="209.9" cy="487.4" r="6"/><circle class="st10" cx="194.2" cy="392.7" r="6"/></g><g class="st8"><path class="st9" d="M223.2 474l-44-44-.2-12.7"/><circle class="st10" cx="222.9" cy="474.4" r="6"/></g><g><path class="st11" d="M139.4 470.9l46.7 46.7M43.9 566.4L90.6 613M75.8 537.4l43.8 43.8M82.1 521.1l53.8 53.8M94.2 509.1l53.7 53.7M110.4 502.7l43.9 43.9"/><path class="st12" d="M27.9 571.1c23.3-23.3 82.4 33.8 116.2 0"/><path class="st13" d="M202.2 512.9c-23.3 23.3-82.4-33.8-116.2 0s23.3 93 0 116.2"/><path class="st12" d="M144.1 571.1c33.8-33.8-23.3-93 0-116.2"/></g><g><g class="st8"><path d="M51.3 493.6h10.2v44.2H51.3z"/><path class="st14" d="M30.3 504.8h10.2v32.9H30.3z"/><path class="st15" d="M9.3 484.8h10.2v52.9H9.3z"/><path class="st16" d="M-11.7 465.8h10.2v71.9h-10.2z"/><path class="st17" d="M-32.7 498.9h10.2v38.8h-10.2z"/><path class="st18" d="M-53.7 513.6h10.2v24.2h-10.2z"/></g><path class="st19" d="M46.9 490.1h10.2v44.2H46.9z"/><path class="st20" d="M25.9 501.3h10.2v32.9H25.9z"/><path class="st21" d="M4.9 481.3h10.2v52.9H4.9z"/><path class="st22" d="M-16.1 462.3h10.2v71.9h-10.2z"/><path class="st23" d="M-37.1 495.4h10.2v38.8h-10.2z"/><path class="st24" d="M-58.1 510.1h10.2v24.2h-10.2z"/></g></svg>