<svg id="Layer_1" xmlns="http://www.w3.org/2000/svg" xmlns:xlink="http://www.w3.org/1999/xlink" viewBox="-103 105.1 303.9 303.9"><style>.st0{fill:none}.st1{fill:#f9e8d8}.st2{fill:#0ea2dc}.st3,.st4{fill:#3b5272;stroke:#333c47;stroke-width:10;stroke-miterlimit:10}.st4{fill:none;stroke:#faad40;stroke-width:9}.st5{clip-path:url(#SVGID_2_)}.st6{fill:#faad40}.st7{clip-path:url(#SVGID_4_)}.st8{opacity:.2}.st9{fill:#42210b}.st10{fill:#603813}.st11{fill:#461a00}.st12{fill:#fbb03b}.st13,.st14{opacity:.3;fill:#fff}.st14{opacity:.8}.st15{opacity:.1}.st16{clip-path:url(#SVGID_6_)}.st17{clip-path:url(#SVGID_8_)}.st18{fill:#fff}.st19{fill:#666}.st20{fill:#37bec0}.st21{fill:#9b5ca4}.st22{fill:#a4ce4e}.st23{fill:#ed4f7e}.st24{fill:#4d4d4d}.st25{fill:url(#SVGID_9_)}.st26{clip-path:url(#SVGID_11_)}.st27{clip-path:url(#SVGID_13_)}.st28{opacity:.5}.st29{fill:#ccc}.st30{clip-path:url(#SVGID_15_);fill:#faad40}.st31{clip-path:url(#SVGID_17_)}.st32{fill:gray}.st33{fill:#e6e6e6}.st34{fill:#999}</style><pattern x="-103" y="409" width="40" height="40" patternUnits="userSpaceOnUse" id="New_Pattern_Swatch_6" viewBox="110.2 -135.3 40 40" overflow="visible"><path class="st0" d="M110.2-135.3h40v40h-40z"/><path class="st1" d="M140-23.7l23.7-86.8 86.8 23.7L226.8 0z"/><path class="st1" d="M120-23.7l23.7-86.8 86.8 23.7L206.8 0z"/><path class="st1" d="M100-23.7l23.7-86.8 86.8 23.7L186.8 0z"/><path class="st1" d="M80-23.7l23.7-86.8 86.8 23.7L166.8 0z"/><path class="st1" d="M60-23.7l23.7-86.8 86.8 23.7L146.8 0z"/><path class="st1" d="M40-23.7l23.7-86.8 86.8 23.7L126.8 0z"/><path class="st1" d="M20-23.7l23.7-86.8 86.8 23.7L106.8 0z"/><path class="st1" d="M0-23.7l23.7-86.8 86.8 23.7L86.8 0zM150-43.7l23.7-86.8 86.8 23.7L236.8-20z"/><path class="st1" d="M130-43.7l23.7-86.8 86.8 23.7L216.8-20z"/><path class="st1" d="M110-43.7l23.7-86.8 86.8 23.7L196.8-20z"/><path class="st1" d="M90-43.7l23.7-86.8 86.8 23.7L176.8-20z"/><path class="st1" d="M70-43.7l23.7-86.8 86.8 23.7L156.8-20z"/><path class="st1" d="M50-43.7l23.7-86.8 86.8 23.7L136.8-20z"/><path class="st1" d="M30-43.7l23.7-86.8 86.8 23.7L116.8-20z"/><path class="st1" d="M10-43.7l23.7-86.8 86.8 23.7L96.8-20zM140-63.7l23.7-86.8 86.8 23.7L226.8-40z"/><path class="st1" d="M120-63.7l23.7-86.8 86.8 23.7L206.8-40z"/><path class="st1" d="M100-63.7l23.7-86.8 86.8 23.7L186.8-40z"/><path class="st2" d="M176.7-95.7c0 9.1-7.4 16.5-16.5 16.5s-16.5-7.4-16.5-16.5 7.4-16.5 16.5-16.5 16.5 7.3 16.5 16.5z"/><path class="st1" d="M80-63.7l23.7-86.8 86.8 23.7L166.8-40z"/><path class="st2" d="M156.7-95.7c0 9.1-7.4 16.5-16.5 16.5s-16.5-7.4-16.5-16.5 7.4-16.5 16.5-16.5 16.5 7.3 16.5 16.5z"/><path class="st1" d="M60-63.7l23.7-86.8 86.8 23.7L146.8-40z"/><path class="st2" d="M136.7-95.7c0 9.1-7.4 16.5-16.5 16.5s-16.5-7.4-16.5-16.5 7.4-16.5 16.5-16.5 16.5 7.3 16.5 16.5z"/><path class="st1" d="M40-63.7l23.7-86.8 86.8 23.7L126.8-40z"/><path class="st2" d="M116.7-95.7c0 9.1-7.4 16.5-16.5 16.5s-16.5-7.4-16.5-16.5 7.4-16.5 16.5-16.5 16.5 7.3 16.5 16.5z"/><path class="st1" d="M20-63.7l23.7-86.8 86.8 23.7L106.8-40z"/><path class="st1" d="M0-63.7l23.7-86.8 86.8 23.7L86.8-40zM150-83.7l23.7-86.8 86.8 23.7L236.8-60z"/><path class="st1" d="M130-83.7l23.7-86.8 86.8 23.7L216.8-60z"/><path class="st1" d="M110-83.7l23.7-86.8 86.8 23.7L196.8-60z"/><path class="st1" d="M90-83.7l23.7-86.8 86.8 23.7L176.8-60z"/><path class="st2" d="M166.7-115.7c0 9.1-7.4 16.5-16.5 16.5s-16.5-7.4-16.5-16.5 7.4-16.5 16.5-16.5 16.5 7.3 16.5 16.5z"/><path class="st1" d="M70-83.7l23.7-86.8 86.8 23.7L156.8-60z"/><path class="st2" d="M146.7-115.7c0 9.1-7.4 16.5-16.5 16.5s-16.5-7.4-16.5-16.5 7.4-16.5 16.5-16.5 16.5 7.3 16.5 16.5z"/><path class="st1" d="M50-83.7l23.7-86.8 86.8 23.7L136.8-60z"/><path class="st2" d="M126.7-115.7c0 9.1-7.4 16.5-16.5 16.5s-16.5-7.4-16.5-16.5 7.4-16.5 16.5-16.5 16.5 7.3 16.5 16.5z"/><path class="st1" d="M30-83.7l23.7-86.8 86.8 23.7L116.8-60z"/><path class="st1" d="M10-83.7l23.7-86.8 86.8 23.7L96.8-60zM140-103.7l23.7-86.8 86.8 23.7L226.8-80z"/><path class="st1" d="M120-103.7l23.7-86.8 86.8 23.7L206.8-80z"/><path class="st1" d="M100-103.7l23.7-86.8 86.8 23.7L186.8-80z"/><path class="st2" d="M176.7-135.7c0 9.1-7.4 16.5-16.5 16.5s-16.5-7.4-16.5-16.5 7.4-16.5 16.5-16.5 16.5 7.3 16.5 16.5z"/><path class="st1" d="M80-103.7l23.7-86.8 86.8 23.7L166.8-80z"/><path class="st2" d="M156.7-135.7c0 9.1-7.4 16.5-16.5 16.5s-16.5-7.4-16.5-16.5 7.4-16.5 16.5-16.5 16.5 7.3 16.5 16.5z"/><path class="st1" d="M60-103.7l23.7-86.8 86.8 23.7L146.8-80z"/><path class="st2" d="M136.7-135.7c0 9.1-7.4 16.5-16.5 16.5s-16.5-7.4-16.5-16.5 7.4-16.5 16.5-16.5 16.5 7.3 16.5 16.5z"/><path class="st1" d="M40-103.7l23.7-86.8 86.8 23.7L126.8-80z"/><path class="st2" d="M116.7-135.7c0 9.1-7.4 16.5-16.5 16.5s-16.5-7.4-16.5-16.5 7.4-16.5 16.5-16.5 16.5 7.3 16.5 16.5z"/><path class="st1" d="M20-103.7l23.7-86.8 86.8 23.7L106.8-80z"/><path class="st1" d="M0-103.7l23.7-86.8 86.8 23.7L86.8-80zM150-123.7l23.7-86.8 86.8 23.7-23.7 86.8z"/><path class="st1" d="M130-123.7l23.7-86.8 86.8 23.7-23.7 86.8z"/><path class="st1" d="M110-123.7l23.7-86.8 86.8 23.7-23.7 86.8z"/><path class="st1" d="M90-123.7l23.7-86.8 86.8 23.7-23.7 86.8z"/><path class="st1" d="M70-123.7l23.7-86.8 86.8 23.7-23.7 86.8z"/><g><path class="st1" d="M50-123.7l23.7-86.8 86.8 23.7-23.7 86.8z"/></g><g><path class="st1" d="M30-123.7l23.7-86.8 86.8 23.7-23.7 86.8z"/></g><g><path class="st1" d="M10-123.7l23.7-86.8 86.8 23.7L96.8-100z"/></g><g><path class="st1" d="M140-143.7l23.7-86.8 86.8 23.7-23.7 86.8z"/></g><g><path class="st1" d="M120-143.7l23.7-86.8 86.8 23.7-23.7 86.8z"/></g><g><path class="st1" d="M100-143.7l23.7-86.8 86.8 23.7-23.7 86.8z"/></g><g><path class="st1" d="M80-143.7l23.7-86.8 86.8 23.7-23.7 86.8z"/></g><g><path class="st1" d="M60-143.7l23.7-86.8 86.8 23.7-23.7 86.8z"/></g><g><path class="st1" d="M40-143.7l23.7-86.8 86.8 23.7-23.7 86.8z"/></g><g><path class="st1" d="M20-143.7l23.7-86.8 86.8 23.7-23.7 86.8z"/></g><g><path class="st1" d="M0-143.7l23.7-86.8 86.8 23.7L86.8-120z"/></g></pattern><title>vert-transport-future-b</title><circle class="st3" cx="48.9" cy="257.1" r="146.9" id="Layer_3"/><path class="st4" d="M-43 268.1l71.3-93.5M69.8 335.9L26.4 174.6M-43 268.1l112.8 67.8M131.5 240L29.2 179.3M131.5 240l-59.3 99.1"/><defs><circle id="SVGID_1_" cx="129.4" cy="240" r="41.7"/></defs><clipPath id="SVGID_2_"><use xlink:href="#SVGID_1_" overflow="visible"/></clipPath><path class="st5 st6" d="M74.8 182.6h106.7v119.1H74.8z"/><defs><circle id="SVGID_3_" cx="129.4" cy="240" r="35.9"/></defs><clipPath id="SVGID_4_"><use xlink:href="#SVGID_3_" overflow="visible"/></clipPath><g class="st7"><path class="st8" d="M79 193.2h98.6v110H79z"/><path class="st9" d="M116.4 249.5c6.5-2.4 20.5-2.5 23.7-1 1.8.9 0-10 0-10l-13.7-8.4-7.7 2.8c-.1 0-4.7 17.5-2.3 16.6z"/><path class="st10" d="M117.4 231.5s.9 6.4.4 8c-.5 1.6-2.3 2.4-2.3 2.4s.5 1 1.6 1 4-1.5 4-1.5l-.7-10.9-2.9-.3-.1 1.3z"/><path class="st6" d="M105.2 275.9s-1.9 3-1.5 3.9-2 21.2-2 21.2l4.1 2.3s2.7-20.1 3.4-22.1c.7-1.9 2.6-4.4 2.6-4.4l-6.6-.9zM154.8 275.9s1.9 3 1.5 3.9 2 21.2 2 21.2l-4.6 2.5s-2.2-20.4-2.9-22.3c-.7-1.9-2.6-4.4-2.6-4.4l6.6-.9z"/><path class="st1" d="M124.8 248.6s-10.5 2.9-12.5 4.4c-2 1.5-9.3 19.8-9.3 22.3s7.2 3.9 8.7 4.1 3.6-5.8 3.6-5.8l.6 33.5s9.2 2.1 14.8 1.8c5.6-.3 14.1-2.1 14.1-2.1l-.9-34.4s2.6 7.1 3.4 7c.8-.1 8.1-2.2 9.5-3 1.3-.8-5.9-22.1-8-23.4-2.1-1.3-14.3-4.5-16.7-4.4s-7.3 0-7.3 0z"/><path class="st6" d="M132.5 246.2c0-4.8-3.2-4-3.2-4s-3.2-.8-3.2 4c0 3.7-4.2 6.5 3.2 6.5s3.2-2.8 3.2-6.5z"/><path class="st6" d="M125.8 249.5s-4.7 1.1-5.9 1.8c-1.2.7 4.1 3.1 9.1 3.1s11-2.3 11.8-2.8-11.8-2.8-11.8-2.8l-3.2.7zM128.9 246.9c-3.6 0-11.8-6.9-9.9-24.5.5-4.8 9.9-4.5 9.9-4.5s9.1-.2 9.9 4.5c2.5 16.4-6.3 24.5-9.9 24.5z"/><circle class="st11" cx="133.6" cy="229.7" r="1"/><path class="st12" d="M142.4 227.6c0 2.9.2 5.3-1.9 5.3s-.9-2.4-.9-5.3.4-3.2.9-3.2c.4 0 1.9.3 1.9 3.2z"/><circle class="st11" cx="124.3" cy="229.7" r="1"/><path class="st8" d="M126.3 234c.1 2.4 2 3.5 2.6 3.5s2.5-1.1 2.6-3.5c0 0-1.7 1.6-2.6 1.6-.9-.1-2.6-1.6-2.6-1.6zM126.1 246l-.2 2.5s2.4 1.6 3.5 1.6c1 0 2.7-1.1 3.3-2.6.3-.8-.2-1.2-.2-2.1 0 0-1.9 1.3-3.5 1.3s-2.9-.7-2.9-.7z"/><path class="st12" d="M115.5 227.6c0 2.9-.2 5.3 1.9 5.3s.9-2.4.9-5.3-.4-3.2-.9-3.2-1.9.3-1.9 3.2z"/><path class="st8" d="M118.6 225.5s2.5.5 6.6.3c4.9-.2 6-2.7 9.3-1.4 3.3 1.2 2.9 1.8 4.1 2.2 1.2.4 0 0 0 0V217l-20.2 4.7.2 3.8z"/><path class="st10" d="M144.1 245c-1.8-2.3-2.9-4.5-.5-10.5 2.4-5.9.7-12.4-3.5-17.7-2-3.3-.4-6.9-9.3-7.3-2.8-.1-5.1 0-12.9 3.3s-6 16.8-4 21.7c2.5 6 1.4 8.3-.5 10.5-2.1 2.6-5.6 1.2-1.3 4.2s12.1-4.8 12.1-4.8-3.7-4.5-4.3-7.2c-.6-2.9-1.9-14-.6-13.7 9 1.8 16.4-5.7 17.6-1.5.3 1 .6 4 1.2 5.2 0 0-1.5 6.7-1 9.7.5 3-3.6 7.5-3.6 7.5s7.5 7.9 11.8 4.9c4.3-3.1.8-1.7-1.2-4.3z"/><path class="st13" d="M114.3 219.5s.7-3.4 3-4.7c2.3-1.3 9.8-3.9 9.8-3.9s1.5 2.5-.8 3.7c-2.2 1.2-5.7-.3-8.1 2.1-1.7 2-2.2 3.5-3.9 2.8z"/><path class="st14" d="M104.5 273.9s6.3-18 8-18.9 5.8-2.3 5.8-2.3 1.1 1.9-.6 3.1c-.4.3-2.4.9-3.3 2.6-2.9 5.4-6.3 16.2-7.5 16.8-1.7.7-2.4-1.3-2.4-1.3z"/><path class="st15" d="M147.3 279.4s8.4-2.1 9.5-3c1.2-1-4.7-18.2-7-22.1-.4-.6-2.1-2.9-1.7 1.5.2 2.4 1.6 17.9.4 19.8s-1.2 3.8-1.2 3.8zM144.8 306.9l-.9-34.5s-1.8-.9-2.7 1.5c-.9 2.4-5.5 34.5-5.5 34.5 4.6-.3 9.1-1.5 9.1-1.5z"/></g><g><defs><circle id="SVGID_5_" cx="69.1" cy="337.1" r="41.7"/></defs><clipPath id="SVGID_6_"><use xlink:href="#SVGID_5_" overflow="visible"/></clipPath><path class="st16 st6" d="M14.4 279.7h106.7v119.1H14.4z"/><g><defs><circle id="SVGID_7_" cx="69.3" cy="337.6" r="35.2"/></defs><clipPath id="SVGID_8_"><use xlink:href="#SVGID_7_" overflow="visible"/></clipPath><g class="st17"><path class="st8" d="M6.6 271.4h132.3v132.3H6.6z"/><path class="st6" d="M62.7 327.4l-7.7 2.9s.7 2.1 1.8 2.7c1.2.7 5.4-1.5 5.4-1.5l.5-4.1zM87.9 328s1.3 7 1.1 9.1c-.2 2.1-3.4 9.1-4.7 11.8-1.3 2.7-10.7 5-12.7 6.2-1.9 1.2-2.7-6.2-2.7-6.2s3.1-7.4 6.7-8.9c3.7-1.5 12.3-12 12.3-12z"/><path class="st18" d="M68.6 352.4l-16.7-6c-1.9-.7-2.6-3-1.4-4.7l21.8-29.8c.8-1.1 2.2-1.5 3.5-1.1l16.7 6c1.9.7 2.6 3 1.4 4.7l-21.8 29.8c-.7 1.1-2.2 1.5-3.5 1.1z"/><path class="st19" d="M70.1 347.2l-13.6-4.9c-1.6-.6-2.1-2.5-1.2-3.8l17.6-24.2c.6-.9 1.8-1.2 2.8-.9l13.6 4.9c1.6.6 2.1 2.5 1.2 3.8L73 346.3c-.7.9-1.8 1.3-2.9.9z"/><path class="st20" d="M74 319l-1.4-.5c-.5-.2-.7-.8-.3-1.2l1-1.3c.2-.3.6-.4.9-.3l1.4.5c.5.2.7.8.3 1.2l-1 1.3c-.2.3-.6.4-.9.3z"/><path class="st6" d="M77.9 320.5l-1.4-.5c-.5-.2-.7-.8-.3-1.2l1-1.3c.2-.3.6-.4.9-.3l1.4.5c.5.2.7.8.3 1.2l-1 1.3c-.3.3-.6.4-.9.3z"/><path class="st2" d="M82.1 322l-1.4-.5c-.5-.2-.7-.8-.3-1.2l1-1.3c.2-.3.6-.4.9-.3l1.4.5c.5.2.7.8.3 1.2l-1 1.3c-.3.3-.6.4-.9.3z"/><path class="st21" d="M86.4 323.6l-1.4-.5c-.5-.2-.7-.8-.3-1.2l1-1.3c.2-.3.6-.4.9-.3l1.4.5c.5.2.7.8.3 1.2l-1 1.3c-.2.3-.6.4-.9.3z"/><path class="st2" d="M71.3 323.2l-1.4-.5c-.5-.2-.7-.8-.3-1.2l1-1.3c.2-.3.6-.4.9-.3l1.4.5c.5.2.7.8.3 1.2l-1 1.3c-.3.3-.6.4-.9.3z"/><path class="st22" d="M75.1 324.7l-1.4-.5c-.5-.2-.7-.8-.3-1.2l1-1.3c.2-.3.6-.4.9-.3l1.4.5c.5.2.7.8.3 1.2l-1 1.3c-.2.3-.6.4-.9.3z"/><path class="st21" d="M79.3 326.2l-1.4-.5c-.5-.2-.7-.8-.3-1.2l1-1.3c.2-.3.6-.4.9-.3l1.4.5c.5.2.7.8.3 1.2l-1 1.3c-.2.3-.6.4-.9.3z"/><path class="st23" d="M83.6 327.8l-1.4-.5c-.5-.2-.7-.8-.3-1.2l1-1.3c.2-.3.6-.4.9-.3l1.4.5c.5.2.7.8.3 1.2l-1 1.3c-.2.3-.6.4-.9.3z"/><path class="st20" d="M68 327.6l-1.4-.5c-.5-.2-.7-.8-.3-1.2l1-1.3c.2-.3.6-.4.9-.3l1.4.5c.5.2.7.8.3 1.2l-1 1.3c-.2.3-.5.4-.9.3z"/><path class="st6" d="M71.9 329.1l-1.4-.5c-.5-.2-.7-.8-.3-1.2l1-1.3c.2-.3.6-.4.9-.3l1.4.5c.5.2.7.8.3 1.2l-1 1.3c-.2.3-.6.4-.9.3z"/><path class="st2" d="M76.1 330.6l-1.4-.5c-.5-.2-.7-.8-.3-1.2l1-1.3c.2-.3.6-.4.9-.3l1.4.5c.5.2.7.8.3 1.2l-1 1.3c-.2.3-.6.4-.9.3z"/><path class="st21" d="M80.4 332.2l-1.4-.5c-.5-.2-.7-.8-.3-1.2l1-1.3c.2-.3.6-.4.9-.3l1.4.5c.5.2.7.8.3 1.2l-1 1.3c-.2.3-.6.4-.9.3z"/><path class="st2" d="M65.3 331.8l-1.4-.5c-.5-.2-.7-.8-.3-1.2l1-1.3c.2-.3.6-.4.9-.3l1.4.5c.5.2.7.8.3 1.2l-1 1.3c-.2.3-.6.4-.9.3z"/><path class="st22" d="M69.1 333.3l-1.4-.5c-.5-.2-.7-.8-.3-1.2l1-1.3c.2-.3.6-.4.9-.3l1.4.5c.5.2.7.8.3 1.2l-1 1.3c-.2.3-.5.4-.9.3z"/><path class="st21" d="M73.3 334.8l-1.4-.5c-.5-.2-.7-.8-.3-1.2l1-1.3c.2-.3.6-.4.9-.3l1.4.5c.5.2.7.8.3 1.2l-1 1.3c-.2.3-.5.4-.9.3z"/><path class="st23" d="M77.7 336.4l-1.4-.5c-.5-.2-.7-.8-.3-1.2l1-1.3c.2-.3.6-.4.9-.3l1.4.5c.5.2.7.8.3 1.2l-1 1.3c-.3.3-.6.4-.9.3z"/><path class="st20" d="M61.7 336.2l-1.4-.5c-.5-.2-.7-.8-.3-1.2l1-1.3c.2-.3.6-.4.9-.3l1.4.5c.5.2.7.8.3 1.2l-1 1.3c-.3.3-.6.4-.9.3z"/><path class="st6" d="M65.5 337.7l-1.4-.5c-.5-.2-.7-.8-.3-1.2l1-1.3c.2-.3.6-.4.9-.3l1.3.6c.5.2.7.8.3 1.2l-1 1.3c-.1.2-.5.3-.8.2z"/><path class="st2" d="M69.7 339.2l-1.4-.5c-.5-.2-.7-.8-.3-1.2l1-1.3c.2-.3.6-.4.9-.3l1.4.5c.5.2.7.8.3 1.2l-1 1.3c-.2.3-.6.4-.9.3z"/><path class="st21" d="M74 340.8l-1.4-.5c-.5-.2-.7-.8-.3-1.2l1-1.3c.2-.3.6-.4.9-.3l1.4.5c.5.2.7.8.3 1.2l-1 1.3c-.2.3-.6.4-.9.3z"/><path class="st2" d="M58.9 340.4l-1.4-.5c-.5-.2-.7-.8-.3-1.2l1-1.3c.2-.3.6-.4.9-.3l1.4.5c.5.2.7.8.3 1.2l-1 1.3c-.2.3-.6.4-.9.3z"/><path class="st22" d="M62.8 341.9l-1.4-.5c-.5-.2-.7-.8-.3-1.2l1-1.3c.2-.3.6-.4.9-.3l1.4.5c.5.2.7.8.3 1.2l-1 1.3c-.3.3-.6.4-.9.3z"/><path class="st21" d="M67 343.4l-1.4-.5c-.5-.2-.7-.8-.3-1.2l1-1.3c.2-.3.6-.4.9-.3l1.4.5c.5.2.7.8.3 1.2l-1 1.3c-.3.3-.6.4-.9.3z"/><path class="st23" d="M71.3 345l-1.4-.5c-.5-.2-.7-.8-.3-1.2l1-1.3c.2-.3.6-.4.9-.3l1.4.5c.5.2.7.8.3 1.2l-1 1.3c-.3.3-.6.4-.9.3z"/><path class="st13" d="M56.6 342.3c-1.6-.6-2.1-2.5-1.2-3.8L73 314.3c.6-.9 1.8-1.2 2.8-.9l13.6 4.9c1.6.6 2.1 2.5 1.2 3.8l-34 20.2z"/><path class="st6" d="M53.7 352.3s10.1-4.4 12.4-7.9c2.3-3.5 4.6-5.8 4.9-8.3.4-2.5.5-8.2 1.4-9.5s4.2-1.7 4.3 0 .3 5.6.4 6.9-.3 5.4-.4 7.1 2.3 5.8 2.3 5.8c3.2-.6 5.5 5.2-6 8.8-3.2 1-11.8 2.1-11.8 2.1l-7.5-5z"/><path class="st18" d="M34.1 359.3l18.6-9s6.4.2 9.2 2c2.8 1.8 6.5 5.4 5.4 6.1-1.1.7-18.8 13.8-18.8 13.8l-14.4-12.9z"/><path class="st24" d="M12.2 368.3l32.6-15.7s10.4-.1 14.2 2c3.8 2.1 8.7 6.3 7.2 7.2-1.5.9-22.5 14.9-22.5 14.9l-31.5-8.4z"/><pattern id="SVGID_9_" xlink:href="#New_Pattern_Swatch_6" patternTransform="translate(-5268.699 -5580.716) scale(.3327)"/><path class="st25" d="M72.8 329.8s-.3-2.6.4-3.2c.7-.6 2.7-.9 2.8-.4.2.4.5 2.7.2 3.1s-3.4.5-3.4.5z"/></g></g></g><g><defs><circle id="SVGID_10_" cx="27.6" cy="176.7" r="41.7"/></defs><clipPath id="SVGID_11_"><use xlink:href="#SVGID_10_" overflow="visible"/></clipPath><path class="st26 st6" d="M-27.1 119.3H79.6v119.1H-27.1z"/><g><defs><circle id="SVGID_12_" cx="27.6" cy="176.7" r="35.9"/></defs><clipPath id="SVGID_13_"><use xlink:href="#SVGID_12_" overflow="visible"/></clipPath><g class="st27"><path class="st8" d="M-22.8 129.9h98.6v110h-98.6z"/><path class="st15" d="M43 243.6l-.9-34.5s-1.8-.9-2.7 1.5c-.9 2.4-5.5 34.5-5.5 34.5 4.6-.3 9.1-1.5 9.1-1.5z"/></g></g><g><path class="st28" d="M48.6 186.9l.8.5 9.3-23.8c.2-.5 0-1.1-.5-1.4l-.6-.4-9 25.1zM-3.1 188.6l30.3 7.4c1.6.4 3.3.2 4.8-.5l16.4-8.1v1.8c0 .7-.4 1.4-1.1 1.7l-15.3 7c-1.5.7-3.2.8-4.8.5L-2 191.8c-.7-.2-1.2-.8-1.2-1.5v-1.7z"/><path class="st18" d="M32 195.5l16-7.4c.7-.3.6-1.3-.1-1.4l-32-7.3h-.5l-18.1 8.4c-.7.3-.6 1.3.1 1.4l29.7 6.8c1.7.3 3.4.1 4.9-.5z"/><path class="st18" d="M32 195.5l16-7.4c.7-.3.6-1.3-.1-1.4l-32-7.3h-.5l-18.1 8.4c-.7.3-.6 1.3.1 1.4l29.7 6.8c1.7.3 3.4.1 4.9-.5z"/><path class="st18" d="M48.6 186.9l-33-7.6 9.6-24.3c.2-.4.6-.6 1-.5l31.1 7.2c.6.1.9.8.7 1.3l-9.4 23.9z"/><path class="st24" d="M47 184.6l-28.4-6.5 8.6-21.5 28.3 6.6z"/><ellipse class="st18" cx="49" cy="186.9" rx=".7" ry=".9"/><path class="st18" d="M46.6 185.4l2.5.6-.2 1.8-2.4-.5z"/><ellipse class="st24" cx="49" cy="186.9" rx=".5" ry=".6"/><path class="st29" d="M20.7 185.7l3.8.9 3-1.4-3.7-.8zM24.9 186.7l3.7.8 3.1-1.4-3.8-.8zM29.1 187.6l3.7.8 3-1.4-3.7-.8zM12.4 183.9l3.7.8 3.1-1.4-3.7-.8zM16.5 184.8l3.8.8 3-1.3-3.7-.9zM40.6 186.2l-3.8-.8-2.2 1 3.7.9zM36.4 185.3l-3.7-.8-2.3 1 3.7.8zM28.1 183.5l-3.8-.8-2.2 1 3.7.8zM23.9 182.6l-3.8-.8-2.2.9 3.8.9zM32.2 184.4l-3.7-.8-2.3 1 3.8.8zM33.2 188.5l3.8.9 3-1.4-3.7-.9zM13.9 188.9l3.8.8 3-1.4-3.7-.8zM18.1 189.8l3.8.8 3-1.3-3.7-.9zM22.3 190.7l3.7.9 3.1-1.4-3.8-.9zM5.6 187l3.7.8 3.1-1.3-3.7-.9zM9.7 187.9l3.8.9 3.1-1.4-3.8-.8zM26.4 191.7l3.8.8 3-1.4-3.7-.8zM45.1 187.2l-4.1-.9-2.3 1.1 4 .9zM17.5 182.6l2.2-.9-3.8-.9-2.1 1zM6.9 184.9l3.6.8 3.1-1.3-3.7-.9zM11 185.8l3.7.9 3.1-1.4-3.8-.8zM23.5 188.6l3.8.9 3-1.4-3.7-.9zM27.7 192.1l-3.8-.8-2.8 1.3 3.8.8zM20.7 192.5l2.8-1.3-12.2-2.7-2.6 1.1zM8.2 189.5l2.6-1.1-3.7-.9-2.6 1.2zM34.5 189l-3.8-.8-3 1.4 3.8.8zM15.1 186.8l3.8.8 3.1-1.4-3.8-.8zM19.3 187.7l3.8.8 3-1.3-3.7-.9zM34.9 189.1l-3 1.4 3.8.8 3.1-1.3z"/><path class="st13" d="M23.1 166.7l4.1-10.1 28.3 6.6z"/><path class="st15" d="M32 195.5l16-7.4c.7-.3.6-1.3-.1-1.4l-32-7.3h-.5l11.8 16.5c1.6.4 3.3.2 4.8-.4z"/></g></g><g><defs><circle id="SVGID_14_" cx="-34.9" cy="268.2" r="41.7"/></defs><clipPath id="SVGID_15_"><use xlink:href="#SVGID_14_" overflow="visible"/></clipPath><path class="st30" d="M8.7 329.9h-98.2L-98 210.8H8.7z"/><defs><circle id="SVGID_16_" cx="-34.9" cy="268.2" r="35.9"/></defs><clipPath id="SVGID_17_"><use xlink:href="#SVGID_16_" overflow="visible"/></clipPath><g class="st31"><path class="st8" d="M-85.3 221.5h98.6v110h-98.6z"/><path class="st15" d="M-27.9 335.1l7.6-34.5s-1.8-.9-2.7 1.5c-.9 2.4-14 34.5-14 34.5 4.5-.2 9.1-1.5 9.1-1.5z"/></g><g><path class="st18" d="M-28.1 295.6l-30.3-4.7v-24.2l30.3 4.7z"/><path class="st32" d="M-40.6 293.6l-8.4-1.3v-13.2l8.4 1.3zM-28.1 295.6l23.1-14v-24.2l-23.1 14z"/><path class="st8" d="M-28.1 295.6l-30.3-25.5v-3.4l30.3 4.7z"/></g><path class="st8" d="M-28.1 276.5l23.1-5.1v-14l-23.1 14-30.3-4.4v1.9z"/><path class="st33" d="M-35 240.9L-66.3 267l40.9 6.1z"/><path class="st34" d="M-35 240.9l33.3 16.5-23.7 15.7z"/></g></svg>