<svg id="Layer_1" xmlns="http://www.w3.org/2000/svg" viewBox="-284 231.2 362 362"><style>.st0{fill:#ed4f7e;stroke:#b23b5f;stroke-width:10;stroke-miterlimit:10}.st1{fill:#77808e}.st2{opacity:.3}.st3{fill:#4b5764}.st4{fill:#6a7581}.st5{fill:#ffd900}.st6{fill:#ce9700}.st7{fill:#fff}.st8{fill:#f0c400}.st9{opacity:.5;fill:#ce9700;enable-background:new}</style><circle class="st0" cx="-103" cy="412.2" r="176"/><path class="st1" d="M-62.6 337.8c-34.4-21.3-79.5-10.7-100.8 23.7-16.1 25.9-16.2 61.7-.3 86.3l-26.2 42.2.1.1c-3.7 7.7-1.3 15.4 4.3 22.4-.5.3-.9.6-1.3 1.1-.8 1.3-.4 3 .9 3.9l17.1 10.6c1.3.8 3 .4 3.9-.9.3-.5.4-1 .4-1.6 8.8 1.8 16.4 1.6 21.7-5l26.6-43.2c16 6.3 61.1-12.7 77.2-38.7 21.4-34.5 10.8-79.6-23.6-100.9z"/><path class="st2 st3" d="M-101.1 330.4c12.8 0 25.6 3.7 36.7 10.5 15.7 9.8 26.8 25.2 31.1 43.2 4.3 18.1 1.1 36.8-8.6 52.5-6.2 9.8-17.3 19.5-31.2 27.1-12.6 6.8-26.1 11.1-35.1 11.1-2.5 0-4.7-.4-6.3-1l-2.8-1.1-1.6 2.5-26.5 43.1c-2.5 3.1-5.8 4.5-10.5 4.5-2.1 0-4.5-.3-7.6-.9l-4.5-.9.1 3-14.5-8.9 2.8-1.3-2.8-3.7c-5.3-6.8-6.6-13-3.8-18.8l.5-1 25.1-40.7 1.3-1.9-1.3-1.9c-7.3-11.3-11.3-25.8-11.3-40.7 0-15 4.2-29.7 11.6-41.7 6.3-10.2 15.2-18.6 25.8-24.4 10.2-5.7 21.8-8.6 33.4-8.6m0-3.7c-24.4 0-48.4 12.3-62.2 34.6-16.1 25.9-16.2 61.7-.3 86.3l-26.2 42.2.1.1c-3.7 7.7-1.3 15.4 4.3 22.4-.5.3-.9.6-1.3 1.1-.8 1.3-.4 3 .9 3.9l17.1 10.6c.5.3 1 .4 1.5.4.9 0 1.9-.5 2.4-1.4.3-.5.4-1 .4-1.6 2.9.6 5.7 1 8.3 1 5.3 0 9.8-1.5 13.4-6l26.6-43.2c2.1.9 4.7 1.3 7.7 1.3 19.7 0 55.5-17.3 69.5-39.8 21.3-34.4 10.7-79.5-23.7-100.8-12.1-7.4-25.3-11.1-38.5-11.1z"/><path class="st4" d="M-166.4 483.3c-.5 0-.9-.1-1.4-.4l-12.8-7.9c-1.3-.8-1.6-2.4-.9-3.5.8-1.3 2.4-1.6 3.5-.9l12.8 7.9c1.3.8 1.6 2.4.9 3.5-.3.9-1.2 1.3-2.1 1.3z"/><path class="st5" d="M-62.6 337.8c-34.4-21.3-79.5-10.7-100.8 23.7-16.1 25.9-16.2 61.7-.3 86.3l-8.2 13.2 15.1 9.3 32.4 20.2 8.2-13.2c17.6 5 55.7-1.4 77.2-38.7 20.3-35.1 10.8-79.5-23.6-100.8z"/><path class="st2 st6" d="M-101.1 330.4c12.8 0 25.6 3.7 36.7 10.5 15.6 9.7 26.6 24.9 30.6 43 4 17.9 1.1 36.7-8.3 52.9-7.7 13.2-17.9 23.3-30.5 30-10.1 5.4-21.3 8.3-31.6 8.3-4 0-7.8-.5-11-1.4l-2.6-.8-1.4 2.3-6.3 10.1-29.3-18.1-12.1-7.4 6.3-10.1 1.3-1.9-1.3-1.9c-7.3-11.3-11.3-25.8-11.3-40.7 0-15 4.2-29.7 11.6-41.7 6.3-10.2 15.2-18.6 25.8-24.4 10.2-5.8 21.8-8.7 33.4-8.7m0-3.7c-24.4 0-48.4 12.3-62.2 34.6-16.1 25.9-16.2 61.7-.3 86.3l-8.2 13.2 15.1 9.3 32.4 20.2 8.2-13.2c3.4 1 7.4 1.5 12 1.5 19.5 0 47.7-10 65.2-40.2 20.3-35 10.7-79.5-23.7-100.8-12.1-7.2-25.3-10.9-38.5-10.9z"/><path class="st2 st7" d="M-54.1 365.4c-24.3-41.9-89.6-33.1-100 9.4-.4 1.4 1.3 2.4 2.3 1.4 6.8-5.8 23.7-18.6 40.9-20.2 20.3-1.8 45.7 7.6 55 11.3 1.3.6 2.4-.8 1.8-1.9z"/><path class="st4" d="M-131.7 504.8c-.5 0-.9-.1-1.4-.4l-12.8-7.9c-1.3-.8-1.6-2.4-.9-3.5.8-1.3 2.4-1.6 3.5-.9l12.8 7.9c1.3.8 1.6 2.4.9 3.5-.4.8-1.2 1.3-2.1 1.3zM-173.4 494.7c-.5 0-.9-.1-1.4-.4l-12.8-7.9c-1.3-.8-1.6-2.4-.9-3.5.8-1.3 2.4-1.6 3.5-.9l12.8 7.9c1.3.8 1.6 2.4.9 3.5-.5.8-1.2 1.3-2.1 1.3zM-138.8 516.2c-.5 0-.9-.1-1.4-.4l-12.8-7.9c-1.3-.8-1.6-2.4-.9-3.5.8-1.3 2.4-1.6 3.5-.9l12.8 7.9c1.3.8 1.6 2.4.9 3.5-.3.9-1.2 1.3-2.1 1.3z"/><path class="st8" d="M-143.6 477.7l-7.4-4.6 25.6-41.2-8.1-34.4 8.5-2 8.9 37.9z"/><circle class="st5" cx="-129.2" cy="396.5" r="10.1"/><path class="st8" d="M-129.3 411c-2.6 0-5.3-.8-7.6-2.1-3.3-2-5.5-5.2-6.4-8.9-.9-3.8-.3-7.7 1.8-11 2-3.3 5.2-5.5 8.9-6.4 3.8-.9 7.7-.3 11 1.8 3.3 2 5.5 5.2 6.4 8.9.9 3.8.3 7.7-1.8 11-2 3.3-5.2 5.5-8.9 6.4-1.2.1-2.3.3-3.4.3zm.1-20.2c-1.9 0-3.8 1-4.8 2.6-1.6 2.6-.9 6.2 1.9 7.8 2.6 1.6 6.2.9 7.8-1.9.8-1.3 1-2.8.8-4.3-.4-1.5-1.3-2.8-2.5-3.5-1.2-.4-2.2-.7-3.2-.7z"/><g><path transform="scale(-1) rotate(78.569 524.212 124.745)" class="st8" d="M-106.5 409.6h8.8V448h-8.8z"/></g><g><circle class="st5" cx="-83.1" cy="425.1" r="10.1"/><path class="st8" d="M-83.2 439.4c-2.6 0-5.3-.8-7.6-2.1-6.8-4.2-8.8-13.1-4.7-19.9 4.2-6.8 13.1-8.8 19.9-4.7 6.8 4.2 8.8 13.1 4.7 19.9-2 3.3-5.2 5.5-8.9 6.4-1.2.3-2.3.4-3.4.4zm.1-20c-1.9 0-3.8 1-4.8 2.6-1.6 2.6-.9 6.2 1.9 7.8 1.3.8 2.8 1 4.3.8 1.5-.4 2.8-1.3 3.5-2.5.8-1.3 1-2.8.8-4.3-.4-1.5-1.3-2.8-2.5-3.5-1.2-.6-2.2-.9-3.2-.9z"/></g><g><path class="st6" d="M-53.7 323.4c1 .6 1.9 1.3 2.8 1.9 1.9-3 3.8-6.2 5.7-9.2 1.8-2.9 3.5-5.8 5.4-8.7-.9-.6-1.9-1.3-2.8-1.8-.6-.4-1.3-.8-1.9-1.1-3.7 5.9-7.4 11.8-11.1 17.9.6.3 1.2.7 1.9 1z"/><path class="st9" d="M-89 311.1c1.9.3 3.7.5 5.5.9 1.4-6.8 2.9-13.6 4.3-20.5-1.9-.4-3.7-.6-5.5-.9-1.1 5.7-2.4 11.3-3.5 17-.3 1.1-.6 2.2-.8 3.5z"/><path class="st6" d="M-123.7 313.7c1.8-.5 3.7-.9 5.4-1.4-1-6.8-2-13.6-2.9-20.4-1.8.4-3.7.8-5.4 1.3.8 4.9 1.4 9.7 2.1 14.6.3 2 .6 4 .8 5.9z"/><path class="st9" d="M-149.4 325.3c-3.3-6-6.4-12-9.7-18-1.6 1-3.1 2-4.7 3.1 3.3 6 6.4 12.1 9.7 18.1 1.6-1.2 3.2-2.2 4.7-3.2z"/><path class="st6" d="M-69.2 486.6c3.3 6 6.4 12.1 9.7 18 1.6-.8 3.4-1.6 5-2.5-3.3-6-6.4-12-9.7-18-1.6.9-3.3 1.7-5 2.5zM-173.2 347.4c-5-4.5-10.1-8.9-15.1-13.5-1.1 1.5-2.3 2.9-3.4 4.5 5 4.5 10.1 9.1 15.2 13.6 1.1-1.6 2.2-3.1 3.3-4.6z"/><path class="st9" d="M-44 470.3c5 4.5 10.1 9.1 15.2 13.6 1.4-1.3 2.6-2.5 3.9-3.9-5-4.5-10.1-9.1-15.1-13.5-1.3 1.3-2.7 2.5-4 3.8z"/><path class="st6" d="M-24.8 446.1c6.3 2.5 12.6 5 18.9 7.6.9-1.6 1.8-3.3 2.5-5-6.3-2.5-12.6-5-18.8-7.6-.7 1.7-1.6 3.5-2.6 5z"/><path class="st9" d="M-187.9 374.9c-6.3-2.5-12.6-5-18.8-7.6-.6 1.8-1.3 3.5-1.8 5.3 6.3 2.5 12.6 5 18.9 7.6.6-1.7 1.1-3.5 1.7-5.3z"/><path class="st6" d="M-193.1 404.8c-6.8-.3-13.6-.4-20.4-.6v5.5c6.8.3 13.7.4 20.5.6.1-1.7-.1-3.6-.1-5.5z"/><path class="st9" d="M-13.8 416c6.8.3 13.7.4 20.5.6.3-1.9.5-3.7.8-5.5-6.8-.3-13.6-.4-20.4-.6-.3 1.9-.5 3.6-.9 5.5z"/><path class="st6" d="M-15 377.1c.5 1.8.9 3.7 1.1 5.4 6.6-2.1 13.1-4.3 19.7-6.4-.4-1.9-.8-3.7-1.3-5.4-4.4 1.5-8.8 2.9-13.4 4.4-1.8.6-3.9 1.4-6.1 2z"/><path class="st9" d="M-29.4 345.9c1.1 1.5 2.1 3 3.1 4.7 5.5-4.3 11-8.7 16.5-13-1-1.5-2.1-3-3.1-4.5-4.7 3.7-9.3 7.3-13.9 11-1 .4-1.9 1.1-2.6 1.8z"/></g></svg>