<svg id="Layer_1" data-name="Layer 1" xmlns="http://www.w3.org/2000/svg" viewBox="0 0 139.42 139.42"><defs><style>.cls-1{fill:#faad40}.cls-2,.cls-6{fill:#db8928}.cls-2{clip-path:url(#clip-path)}.cls-3{fill:#ed4f7e}.cls-4{fill:#b23b5f}.cls-5{fill:#484f59}.cls-7{clip-path:url(#clip-path-2)}.cls-8{opacity:.3}.cls-9{fill:#1c74a0}.cls-10{fill:#318a8d}.cls-11{fill:#399}.cls-12{fill:#43b9bc}.cls-13{opacity:.1}.cls-14{fill:#fff}</style><clipPath id="clip-path"><circle class="cls-1" cx="69.26" cy="90.57" r="21.49"/></clipPath><clipPath id="clip-path-2"><path class="cls-2" d="M69.26 113.06a22.49 22.49 0 1 1 22.49-22.49 22.52 22.52 0 0 1-22.49 22.49zm0-43a20.49 20.49 0 1 0 20.49 20.51 20.51 20.51 0 0 0-20.49-20.49z"/></clipPath></defs><title>vert-insurance-home</title><circle class="cls-3" cx="69.71" cy="69.71" r="66.71"/><path class="cls-4" d="M69.71 139.42a69.71 69.71 0 1 1 69.71-69.71 69.79 69.79 0 0 1-69.71 69.71zM69.71 6a63.71 63.71 0 1 0 63.71 63.71A63.78 63.78 0 0 0 69.71 6z"/><path class="cls-5" d="M46.23 108.94l-.23-.11c-6.29-2.81-6.8-9.82-5.31-15 .06-.2.09-.31.09-.31A2.26 2.26 0 0 1 45.05 95v.14a13.4 13.4 0 0 0-.46 4.74 5.46 5.46 0 0 0 3.27 4.85 4.87 4.87 0 0 0 3.76.32c3.36-1.33 6-6.94 7.38-10.35l17.2-41a2.28 2.28 0 0 1 4.2 1.76l-17.2 41c-1.7 4.06-4.77 10.77-9.91 12.8a9.33 9.33 0 0 1-7.06-.32z"/><circle class="cls-1" cx="69.26" cy="90.57" r="21.49"/><path class="cls-6" d="M69.26 113.06a22.49 22.49 0 1 1 22.49-22.49 22.52 22.52 0 0 1-22.49 22.49zm0-43a20.49 20.49 0 1 0 20.49 20.51 20.51 20.51 0 0 0-20.49-20.49z"/><g class="cls-7"><path class="cls-1" d="M41.11 60.99h54.98v61.38H41.11z"/><path class="cls-6" d="M98.09 124.37h-59V59h59v65.38zm-55-4h51V63h-51v57.38z"/></g><path d="M92.86 18.53S71.09 23.21 53.5 61.19a20.35 20.35 0 0 0-8.1-17.27c-9.15-6.8-11-3.83-11-3.83S52.24 1.06 92.86 18.53z" class="cls-8"/><path class="cls-10" d="M93.86 19.53S72.09 24.21 54.5 62.19a20.35 20.35 0 0 0-8.1-17.27c-9.15-6.8-11-3.83-11-3.83S53.24 2.06 93.86 19.53z"/><path class="cls-11" d="M54.45 62.33S71 23.93 94.18 19.62c0 0 13.13 25.15-1.7 58.66 0 0-3.18-15.82-14.33-18.95s-17.2-.98-23.7 3z"/><path class="cls-12" d="M120.68 77.34S138.12 43.2 94 19.54c0 0 12.22 22.12-1.7 58.66 0 0 7-8.58 16.31-6.56s12.07 5.7 12.07 5.7z"/><ellipse class="cls-5" cx="94.81" cy="18.85" rx="3.42" ry="1.65" transform="rotate(-67.24 94.815 18.851)"/><path d="M60.22 104A17.33 17.33 0 0 0 64 94.16L62.48 94a.64.64 0 0 1-.48-.83l.15-.67a.81.81 0 0 1 .85-.68l1.09.12c0-1.42.06-3.2.18-4.32.72-6.69 4.55-10 10.09-9.41a8.74 8.74 0 0 1 5.84 3.51.8.8 0 0 1-.19 1l-2.71 2.7a.83.83 0 0 1-1.14-.08 4.63 4.63 0 0 0-2.76-1.68c-1.17-.13-2.48 1-2.72 3.27-.12 1.08.19 3.18.12 5.73l2.83.34a.62.62 0 0 1 .48.82l-.11.68a.83.83 0 0 1-.89.63l-2.51-.27a33.74 33.74 0 0 1-1.8 6.14l5.54.6a.58.58 0 0 1 .44.82l-.94 3.79a.9.9 0 0 1-.85.68l-12.45-1.39a.64.64 0 0 1-.48-.82z" class="cls-13"/><path class="cls-14" d="M58.68 101.89a17.33 17.33 0 0 0 3.8-9.81l-1.54-.17a.64.64 0 0 1-.48-.82l.15-.67a.81.81 0 0 1 .89-.67l1.09.12c0-1.42.06-3.2.18-4.32.72-6.69 4.55-10 10.09-9.41a8.74 8.74 0 0 1 5.84 3.51.8.8 0 0 1-.19 1l-2.74 2.66a.83.83 0 0 1-1.14-.08 4.63 4.63 0 0 0-2.76-1.68c-1.17-.13-2.48 1-2.72 3.27-.12 1.08.19 3.18.12 5.73l2.83.31a.62.62 0 0 1 .48.82l-.16.71a.83.83 0 0 1-.89.63L69 92.79a33.74 33.74 0 0 1-1.76 6.09l5.54.6a.58.58 0 0 1 .44.82l-.94 3.79a.9.9 0 0 1-.85.68L59 103.43a.64.64 0 0 1-.48-.82z"/></svg>