<svg id="Layer_1" xmlns="http://www.w3.org/2000/svg" viewBox="-103 105.1 303.9 303.9"><style>.st0{fill:#a4ce4e;stroke:#7b9b3b;stroke-width:10;stroke-miterlimit:10}.st1{fill:#3f2b10}.st2{fill:#bb8230}.st3{opacity:.2;fill:#fff}.st4{fill:#faad40}.st5{opacity:.3}.st6{opacity:.2}.st7{opacity:.5}.st8{fill:#fff}.st9{fill:#550061}.st10{fill:#f0ab00}.st11{fill:#a37910}</style><title>vert-transport-future-b</title><circle class="st0" cx="48.9" cy="257.1" r="146.9" id="Layer_3"/><path class="st1" d="M74.9 177.8L4.1 207.5l70.3 29.7 70.7-29.7z"/><path d="M74.9 177.8L4.1 207.5l70.3 29.7z"/><path class="st2" d="M59.2 150.9l-70.8 29.7 15.8 26.9L75 177.7z"/><path class="st3" d="M59.2 150.9l-70.8 29.7 15.8 26.9L62.8 157z"/><path class="st4" d="M145.1 278.2l-70.7 29.7v-70.7l70.7-29.7zM3.6 278.2l70.8 29.7v-70.7L3.6 207.5z"/><path class="st4" d="M-16.7 183.5l70.8 29.8 20.3 23.9-70.8-29.7z"/><path class="st2" d="M88.2 152.4l70.8 29.7-13.9 25.4L75 177.8z"/><path class="st5" d="M145.1 278.2L75 307.9v-70.7l70.6-29.7z"/><path class="st6" d="M5 221.3l69.7 86.6.7-70.7L5 207.5z"/><path class="st7" d="M-16.7 183.5l70.8 29.8 20.8 23.9-70.5-29.7z"/><path class="st3" d="M88.2 152.4l70.8 29.7-12.8 19.5-59.3-46.7z"/><path class="st4" d="M164.6 183.5l-70.7 29.8-19.5 23.9 70.7-29.7z"/><path class="st7" d="M164.6 183.5l-70.7 29.8-19.5 23.9 70.7-29.7z"/><path class="st5" d="M145.1 250.6L75 245.4v-8.2l70.6-29.7zM4.4 210.4l70.6 35v-8.2L4.1 207.5z"/><g><path class="st8" d="M6.6 368C-29 368-58 339-58 303.4c0-35.6 29-64.6 64.6-64.6s64.6 29 64.6 64.6C71.1 339 42.2 368 6.6 368z"/><path class="st9" d="M6.6 241.5c34.2 0 61.9 27.7 61.9 61.9s-27.7 61.9-61.9 61.9-61.9-27.7-61.9-61.9 27.7-61.9 61.9-61.9m0-5.3c-37.1 0-67.2 30.2-67.2 67.2s30.2 67.2 67.2 67.2 67.2-30.2 67.2-67.2-30.2-67.2-67.2-67.2z"/><path class="st9" d="M-3.8 224.9h20.5v16.6H-3.8z"/><path class="st10" d="M-13.9 217.1h40.6v12.3h-40.6z"/><path class="st11" d="M-13.9 224.9h40.6v4.5h-40.6z"/><g><path class="st9" d="M7.3 256.7c-1.5 0-2.6-1.2-2.6-2.6v-5.9c0-1.5 1.2-2.6 2.6-2.6s2.6 1.2 2.6 2.6v5.9c.1 1.4-1.1 2.6-2.6 2.6zM31.9 263.7c-.4 0-.9-.1-1.3-.4-1.3-.7-1.7-2.3-1-3.6l3-5.1c.7-1.3 2.4-1.7 3.6-1 1.3.7 1.7 2.3 1 3.6l-3 5.1c-.5.9-1.4 1.4-2.3 1.4zM49.7 282c-.9 0-1.8-.5-2.3-1.3-.7-1.3-.3-2.9 1-3.6l5.1-3c1.3-.7 2.9-.3 3.6 1 .7 1.3.3 2.9-1 3.6l-5.1 3c-.4.2-.8.3-1.3.3zM61.9 306.8H56c-1.5 0-2.6-1.2-2.6-2.6s1.2-2.6 2.6-2.6h5.9c1.5 0 2.6 1.2 2.6 2.6s-1.2 2.6-2.6 2.6zM54.1 334.4c-.4 0-.9-.1-1.3-.4l-5.1-3c-1.3-.7-1.7-2.3-1-3.6.7-1.3 2.4-1.7 3.6-1l5.1 3c1.3.7 1.7 2.3 1 3.6-.5.9-1.4 1.4-2.3 1.4zM33.6 354.4c-.9 0-1.8-.5-2.3-1.3l-3-5.1c-.7-1.3-.3-2.9 1-3.6 1.3-.7 2.9-.3 3.6 1l3 5.1c.7 1.3.3 2.9-1 3.6-.4.1-.9.3-1.3.3zM5.8 361.4c-1.5 0-2.6-1.2-2.6-2.6v-5.9c0-1.5 1.2-2.6 2.6-2.6s2.6 1.2 2.6 2.6v5.9c0 1.4-1.1 2.6-2.6 2.6zM-21.8 353.6c-.4 0-.9-.1-1.3-.4-1.3-.7-1.7-2.3-1-3.6l3-5.1c.7-1.3 2.3-1.7 3.6-1 1.3.7 1.7 2.3 1 3.6l-3 5.1c-.5.9-1.3 1.4-2.3 1.4zM-41.7 333.1c-.9 0-1.8-.5-2.3-1.3-.7-1.3-.3-2.9 1-3.6l5.1-3c1.3-.7 2.9-.3 3.6 1 .7 1.3.3 2.9-1 3.6l-5.1 3c-.4.1-.9.3-1.3.3zM-42.8 305.3h-5.9c-1.5 0-2.6-1.2-2.6-2.6s1.2-2.6 2.6-2.6h5.9c1.5 0 2.6 1.2 2.6 2.6s-1.2 2.6-2.6 2.6zM-35.8 280.7c-.4 0-.9-.1-1.3-.4l-5.1-3c-1.3-.7-1.7-2.3-1-3.6.7-1.3 2.3-1.7 3.6-1l5.1 3c1.3.7 1.7 2.3 1 3.6-.5.9-1.4 1.4-2.3 1.4zM-17.5 262.9c-.9 0-1.8-.5-2.3-1.3l-3-5.1c-.7-1.3-.3-2.9 1-3.6 1.3-.7 2.9-.3 3.6 1l3 5.1c.7 1.3.3 2.9-1 3.6-.4.2-.8.3-1.3.3z"/><path class="st9" d="M7.3 256.7c-1.5 0-2.6-1.2-2.6-2.6v-5.9c0-1.5 1.2-2.6 2.6-2.6s2.6 1.2 2.6 2.6v5.9c.1 1.4-1.1 2.6-2.6 2.6z"/></g><g><circle class="st9" cx="6.6" cy="303.4" r="11.6"/></g><g><path class="st10" d="M8.8 267.9l3 35.5c.2 2.9-1.9 5.5-4.8 5.7-2.9.2-5.5-1.9-5.7-4.8v-.9l3-35.5c.1-1.3 1.2-2.2 2.5-2.1 1.1.1 1.9 1 2 2.1z"/></g><path class="st6" d="M56.4 288.3c-1.1 34.4-29.9 61.4-64.3 60.2-16.5-.5-31.4-7.5-42.2-18.4 9.6 20.5 30.2 35.1 54.4 35.9 34.4 1.1 63.2-25.8 64.3-60.2.6-17.9-6.4-34.2-18.1-46 4.1 8.6 6.2 18.3 5.9 28.5z"/></g></svg>