<svg id="Layer_1" xmlns="http://www.w3.org/2000/svg" xmlns:xlink="http://www.w3.org/1999/xlink" viewBox="29 -39.9 644 590"><style>.st0{fill:none}.st1{fill:#f9e8d8}.st2{fill:#0ea2dc}.st3{opacity:.15}.st4,.st5{fill:#3b5272;stroke:#333c47;stroke-width:6;stroke-miterlimit:10}.st5{fill:none;stroke:#faad40;stroke-width:5}.st6{clip-path:url(#SVGID_2_)}.st7{fill:#faad40}.st8{clip-path:url(#SVGID_4_)}.st9{opacity:.2;enable-background:new}.st10{fill:#42210b}.st11{fill:#603813}.st12{fill:#461a00}.st13{fill:#fbb03b}.st14{opacity:.3;fill:#fff}.st14,.st15,.st16{enable-background:new}.st15{fill:#fff;opacity:.8}.st16{opacity:.1}.st17{clip-path:url(#SVGID_6_)}.st18{clip-path:url(#SVGID_8_)}.st19{fill:#fff}.st20{fill:#666}.st21{fill:#37bec0}.st22{fill:#9b5ca4}.st23{fill:#a4ce4e}.st24{fill:#ed4f7e}.st25{fill:#4d4d4d}.st26{fill:url(#SVGID_9_)}.st27{clip-path:url(#SVGID_12_)}.st28{clip-path:url(#SVGID_14_)}.st29{opacity:.5;enable-background:new}.st30{fill:#ccc}.st31{clip-path:url(#SVGID_16_);fill:#faad40}.st32{clip-path:url(#SVGID_18_)}.st33{fill:gray}.st34{fill:#e6e6e6}.st35{fill:#999}.st36{fill:#ed4f7e;stroke:#b23b5f;stroke-width:6;stroke-miterlimit:10}.st37{fill:url(#SVGID_19_)}.st38{fill:#a4ce4e;stroke:#7b9b3b;stroke-width:6;stroke-miterlimit:10}.st39{fill:#3f2b10}.st40{fill:#bb8230}.st41,.st42{enable-background:new}.st41{fill:#fff;opacity:.2}.st42{opacity:.3}.st43{fill:#550061}.st44{fill:#f0ab00}.st45{fill:#a37910}.st46{fill:#faad40;stroke:#bb8230;stroke-width:6;stroke-miterlimit:10}.st47{fill:#a67c52}.st48{fill:#5f4100}.st49{fill:#6b3010}.st50{fill:#8e6008}.st51{opacity:.4;enable-background:new}.st52{fill:#bf4b5c;stroke:#732706;stroke-width:6;stroke-miterlimit:10}.st53{fill:#1c74a0}.st54{fill:#c7a97d}.st55{fill:#8c6239}.st56{fill:none;stroke:#fff;stroke-width:2;stroke-linecap:round;stroke-linejoin:round;stroke-miterlimit:10}.st57{fill:#f2f2f2}.st58{fill:#b3b3b3}.st59,.st60{stroke-miterlimit:10}.st59{stroke-linecap:round;stroke-linejoin:round;fill:none;stroke:#000;stroke-width:4}.st60{fill:#9b5ca4;stroke:#74457b;stroke-width:6}.st61{fill:#3e4e5a}.st62{fill:#e6ebf0}.st63{fill:#34414b}.st64{opacity:.1}.st65{fill:#3bbec0}.st66{opacity:.2}.st67{fill:#3b5272}.st68{fill:#07516e}.st69{opacity:.4}.st70{fill:#613d6e}.st71{fill:#f8ce86}.st72{fill:#dcae6c}.st73{fill:#6b7482}.st74{fill:#525662}.st75{fill:#cfe9ff}.st76{opacity:.7}.st77{fill:#a5d0ec}.st78{fill:#ee7a99}.st79{fill:#de738e}.st80{fill:#95c0de}.st81{fill:#7cabd5}.st82{opacity:5e-2}.st83{opacity:.3}.st84{fill:#89bad9}.st85{fill:#90bad6}.st86{fill:#37bec0;stroke:#298f90;stroke-width:6;stroke-miterlimit:10}.st87{clip-path:url(#SVGID_22_)}.st88{clip-path:url(#SVGID_24_)}.st89{fill:#333}.st90{clip-path:url(#SVGID_26_)}.st91{clip-path:url(#SVGID_28_)}.st92{fill:none;stroke:#754c24;stroke-width:12;stroke-miterlimit:10}.st93{fill:#c69c6d}</style><pattern x="46" y="523" width="40" height="40" patternUnits="userSpaceOnUse" id="SVGID_11_" viewBox="110.2 -135.3 40 40" overflow="visible"><path class="st0" d="M110.2-95.3h40v-40h-40z"/><path class="st0" d="M110.2-135.3h40v40h-40z"/><path class="st0" d="M110.2-135.3h40v40h-40z"/><path class="st1" d="M140-23.7l23.7-86.8 86.8 23.7L226.8 0z"/><path class="st1" d="M120-23.7l23.7-86.8 86.8 23.7L206.8 0z"/><path class="st1" d="M100-23.7l23.7-86.8 86.8 23.7L186.8 0z"/><path class="st1" d="M80-23.7l23.7-86.8 86.8 23.7L166.8 0z"/><path class="st1" d="M60-23.7l23.7-86.8 86.8 23.7L146.8 0z"/><path class="st1" d="M40-23.7l23.7-86.8 86.8 23.7L126.8 0z"/><path class="st1" d="M20-23.7l23.7-86.8 86.8 23.7L106.8 0z"/><path class="st1" d="M0-23.7l23.7-86.8 86.8 23.7L86.8 0zM150-43.7l23.7-86.8 86.8 23.7L236.8-20z"/><path class="st1" d="M130-43.7l23.7-86.8 86.8 23.7L216.8-20z"/><path class="st1" d="M110-43.7l23.7-86.8 86.8 23.7L196.8-20z"/><path class="st1" d="M90-43.7l23.7-86.8 86.8 23.7L176.8-20z"/><path class="st1" d="M70-43.7l23.7-86.8 86.8 23.7L156.8-20z"/><path class="st1" d="M50-43.7l23.7-86.8 86.8 23.7L136.8-20z"/><path class="st1" d="M30-43.7l23.7-86.8 86.8 23.7L116.8-20z"/><path class="st1" d="M10-43.7l23.7-86.8 86.8 23.7L96.8-20zM140-63.7l23.7-86.8 86.8 23.7L226.8-40z"/><path class="st1" d="M120-63.7l23.7-86.8 86.8 23.7L206.8-40z"/><path class="st1" d="M100-63.7l23.7-86.8 86.8 23.7L186.8-40z"/><path class="st2" d="M176.7-95.7c0 9.1-7.4 16.5-16.5 16.5s-16.5-7.4-16.5-16.5 7.4-16.5 16.5-16.5 16.5 7.3 16.5 16.5z"/><path class="st1" d="M80-63.7l23.7-86.8 86.8 23.7L166.8-40z"/><path class="st2" d="M156.7-95.7c0 9.1-7.4 16.5-16.5 16.5s-16.5-7.4-16.5-16.5 7.4-16.5 16.5-16.5 16.5 7.3 16.5 16.5z"/><path class="st1" d="M60-63.7l23.7-86.8 86.8 23.7L146.8-40z"/><path class="st2" d="M136.7-95.7c0 9.1-7.4 16.5-16.5 16.5s-16.5-7.4-16.5-16.5 7.4-16.5 16.5-16.5 16.5 7.3 16.5 16.5z"/><path class="st1" d="M40-63.7l23.7-86.8 86.8 23.7L126.8-40z"/><path class="st2" d="M116.7-95.7c0 9.1-7.4 16.5-16.5 16.5s-16.5-7.4-16.5-16.5 7.4-16.5 16.5-16.5 16.5 7.3 16.5 16.5z"/><path class="st1" d="M20-63.7l23.7-86.8 86.8 23.7L106.8-40z"/><path class="st1" d="M0-63.7l23.7-86.8 86.8 23.7L86.8-40zM150-83.7l23.7-86.8 86.8 23.7L236.8-60z"/><path class="st1" d="M130-83.7l23.7-86.8 86.8 23.7L216.8-60z"/><path class="st1" d="M110-83.7l23.7-86.8 86.8 23.7L196.8-60z"/><path class="st1" d="M90-83.7l23.7-86.8 86.8 23.7L176.8-60z"/><path class="st2" d="M166.7-115.7c0 9.1-7.4 16.5-16.5 16.5s-16.5-7.4-16.5-16.5 7.4-16.5 16.5-16.5 16.5 7.3 16.5 16.5z"/><path class="st1" d="M70-83.7l23.7-86.8 86.8 23.7L156.8-60z"/><path class="st2" d="M146.7-115.7c0 9.1-7.4 16.5-16.5 16.5s-16.5-7.4-16.5-16.5 7.4-16.5 16.5-16.5 16.5 7.3 16.5 16.5z"/><path class="st1" d="M50-83.7l23.7-86.8 86.8 23.7L136.8-60z"/><path class="st2" d="M126.7-115.7c0 9.1-7.4 16.5-16.5 16.5s-16.5-7.4-16.5-16.5 7.4-16.5 16.5-16.5 16.5 7.3 16.5 16.5z"/><path class="st1" d="M30-83.7l23.7-86.8 86.8 23.7L116.8-60z"/><path class="st1" d="M10-83.7l23.7-86.8 86.8 23.7L96.8-60zM140-103.7l23.7-86.8 86.8 23.7L226.8-80z"/><path class="st1" d="M120-103.7l23.7-86.8 86.8 23.7L206.8-80z"/><path class="st1" d="M100-103.7l23.7-86.8 86.8 23.7L186.8-80z"/><path class="st2" d="M176.7-135.7c0 9.1-7.4 16.5-16.5 16.5s-16.5-7.4-16.5-16.5 7.4-16.5 16.5-16.5 16.5 7.3 16.5 16.5z"/><path class="st1" d="M80-103.7l23.7-86.8 86.8 23.7L166.8-80z"/><path class="st2" d="M156.7-135.7c0 9.1-7.4 16.5-16.5 16.5s-16.5-7.4-16.5-16.5 7.4-16.5 16.5-16.5 16.5 7.3 16.5 16.5z"/><path class="st1" d="M60-103.7l23.7-86.8 86.8 23.7L146.8-80z"/><path class="st2" d="M136.7-135.7c0 9.1-7.4 16.5-16.5 16.5s-16.5-7.4-16.5-16.5 7.4-16.5 16.5-16.5 16.5 7.3 16.5 16.5z"/><path class="st1" d="M40-103.7l23.7-86.8 86.8 23.7L126.8-80z"/><path class="st2" d="M116.7-135.7c0 9.1-7.4 16.5-16.5 16.5s-16.5-7.4-16.5-16.5 7.4-16.5 16.5-16.5 16.5 7.3 16.5 16.5z"/><path class="st1" d="M20-103.7l23.7-86.8 86.8 23.7L106.8-80z"/><path class="st1" d="M0-103.7l23.7-86.8 86.8 23.7L86.8-80zM150-123.7l23.7-86.8 86.8 23.7-23.7 86.8z"/><path class="st1" d="M130-123.7l23.7-86.8 86.8 23.7-23.7 86.8z"/><path class="st1" d="M110-123.7l23.7-86.8 86.8 23.7-23.7 86.8z"/><path class="st1" d="M90-123.7l23.7-86.8 86.8 23.7-23.7 86.8z"/><path class="st1" d="M70-123.7l23.7-86.8 86.8 23.7-23.7 86.8z"/><g><path class="st1" d="M50-123.7l23.7-86.8 86.8 23.7-23.7 86.8z"/></g><g><path class="st1" d="M30-123.7l23.7-86.8 86.8 23.7-23.7 86.8z"/></g><g><path class="st1" d="M10-123.7l23.7-86.8 86.8 23.7L96.8-100z"/></g><g><path class="st1" d="M140-143.7l23.7-86.8 86.8 23.7-23.7 86.8z"/></g><g><path class="st1" d="M120-143.7l23.7-86.8 86.8 23.7-23.7 86.8z"/></g><g><path class="st1" d="M100-143.7l23.7-86.8 86.8 23.7-23.7 86.8z"/></g><g><path class="st1" d="M80-143.7l23.7-86.8 86.8 23.7-23.7 86.8z"/></g><g><path class="st1" d="M60-143.7l23.7-86.8 86.8 23.7-23.7 86.8z"/></g><g><path class="st1" d="M40-143.7l23.7-86.8 86.8 23.7-23.7 86.8z"/></g><g><path class="st1" d="M20-143.7l23.7-86.8 86.8 23.7-23.7 86.8z"/></g><g><path class="st1" d="M0-143.7l23.7-86.8 86.8 23.7L86.8-120z"/></g></pattern><pattern x="46" y="523" width="40" height="40" patternUnits="userSpaceOnUse" id="SVGID_20_" viewBox="110.2 -135.3 40 40" overflow="visible"><path class="st0" d="M110.2-95.3h40v-40h-40z"/><path class="st0" d="M110.2-135.3h40v40h-40z"/><path class="st0" d="M110.2-135.3h40v40h-40z"/><path class="st1" d="M140-23.7l23.7-86.8 86.8 23.7L226.8 0z"/><path class="st1" d="M120-23.7l23.7-86.8 86.8 23.7L206.8 0z"/><path class="st1" d="M100-23.7l23.7-86.8 86.8 23.7L186.8 0z"/><path class="st1" d="M80-23.7l23.7-86.8 86.8 23.7L166.8 0z"/><path class="st1" d="M60-23.7l23.7-86.8 86.8 23.7L146.8 0z"/><path class="st1" d="M40-23.7l23.7-86.8 86.8 23.7L126.8 0z"/><path class="st1" d="M20-23.7l23.7-86.8 86.8 23.7L106.8 0z"/><path class="st1" d="M0-23.7l23.7-86.8 86.8 23.7L86.8 0zM150-43.7l23.7-86.8 86.8 23.7L236.8-20z"/><path class="st1" d="M130-43.7l23.7-86.8 86.8 23.7L216.8-20z"/><path class="st1" d="M110-43.7l23.7-86.8 86.8 23.7L196.8-20z"/><path class="st1" d="M90-43.7l23.7-86.8 86.8 23.7L176.8-20z"/><path class="st1" d="M70-43.7l23.7-86.8 86.8 23.7L156.8-20z"/><path class="st1" d="M50-43.7l23.7-86.8 86.8 23.7L136.8-20z"/><path class="st1" d="M30-43.7l23.7-86.8 86.8 23.7L116.8-20z"/><path class="st1" d="M10-43.7l23.7-86.8 86.8 23.7L96.8-20zM140-63.7l23.7-86.8 86.8 23.7L226.8-40z"/><path class="st1" d="M120-63.7l23.7-86.8 86.8 23.7L206.8-40z"/><path class="st1" d="M100-63.7l23.7-86.8 86.8 23.7L186.8-40z"/><path class="st2" d="M176.7-95.7c0 9.1-7.4 16.5-16.5 16.5s-16.5-7.4-16.5-16.5 7.4-16.5 16.5-16.5 16.5 7.3 16.5 16.5z"/><path class="st1" d="M80-63.7l23.7-86.8 86.8 23.7L166.8-40z"/><path class="st2" d="M156.7-95.7c0 9.1-7.4 16.5-16.5 16.5s-16.5-7.4-16.5-16.5 7.4-16.5 16.5-16.5 16.5 7.3 16.5 16.5z"/><path class="st1" d="M60-63.7l23.7-86.8 86.8 23.7L146.8-40z"/><path class="st2" d="M136.7-95.7c0 9.1-7.4 16.5-16.5 16.5s-16.5-7.4-16.5-16.5 7.4-16.5 16.5-16.5 16.5 7.3 16.5 16.5z"/><path class="st1" d="M40-63.7l23.7-86.8 86.8 23.7L126.8-40z"/><path class="st2" d="M116.7-95.7c0 9.1-7.4 16.5-16.5 16.5s-16.5-7.4-16.5-16.5 7.4-16.5 16.5-16.5 16.5 7.3 16.5 16.5z"/><path class="st1" d="M20-63.7l23.7-86.8 86.8 23.7L106.8-40z"/><path class="st1" d="M0-63.7l23.7-86.8 86.8 23.7L86.8-40zM150-83.7l23.7-86.8 86.8 23.7L236.8-60z"/><path class="st1" d="M130-83.7l23.7-86.8 86.8 23.7L216.8-60z"/><path class="st1" d="M110-83.7l23.7-86.8 86.8 23.7L196.8-60z"/><path class="st1" d="M90-83.7l23.7-86.8 86.8 23.7L176.8-60z"/><path class="st2" d="M166.7-115.7c0 9.1-7.4 16.5-16.5 16.5s-16.5-7.4-16.5-16.5 7.4-16.5 16.5-16.5 16.5 7.3 16.5 16.5z"/><path class="st1" d="M70-83.7l23.7-86.8 86.8 23.7L156.8-60z"/><path class="st2" d="M146.7-115.7c0 9.1-7.4 16.5-16.5 16.5s-16.5-7.4-16.5-16.5 7.4-16.5 16.5-16.5 16.5 7.3 16.5 16.5z"/><path class="st1" d="M50-83.7l23.7-86.8 86.8 23.7L136.8-60z"/><path class="st2" d="M126.7-115.7c0 9.1-7.4 16.5-16.5 16.5s-16.5-7.4-16.5-16.5 7.4-16.5 16.5-16.5 16.5 7.3 16.5 16.5z"/><path class="st1" d="M30-83.7l23.7-86.8 86.8 23.7L116.8-60z"/><path class="st1" d="M10-83.7l23.7-86.8 86.8 23.7L96.8-60zM140-103.7l23.7-86.8 86.8 23.7L226.8-80z"/><path class="st1" d="M120-103.7l23.7-86.8 86.8 23.7L206.8-80z"/><path class="st1" d="M100-103.7l23.7-86.8 86.8 23.7L186.8-80z"/><path class="st2" d="M176.7-135.7c0 9.1-7.4 16.5-16.5 16.5s-16.5-7.4-16.5-16.5 7.4-16.5 16.5-16.5 16.5 7.3 16.5 16.5z"/><path class="st1" d="M80-103.7l23.7-86.8 86.8 23.7L166.8-80z"/><path class="st2" d="M156.7-135.7c0 9.1-7.4 16.5-16.5 16.5s-16.5-7.4-16.5-16.5 7.4-16.5 16.5-16.5 16.5 7.3 16.5 16.5z"/><path class="st1" d="M60-103.7l23.7-86.8 86.8 23.7L146.8-80z"/><path class="st2" d="M136.7-135.7c0 9.1-7.4 16.5-16.5 16.5s-16.5-7.4-16.5-16.5 7.4-16.5 16.5-16.5 16.5 7.3 16.5 16.5z"/><path class="st1" d="M40-103.7l23.7-86.8 86.8 23.7L126.8-80z"/><path class="st2" d="M116.7-135.7c0 9.1-7.4 16.5-16.5 16.5s-16.5-7.4-16.5-16.5 7.4-16.5 16.5-16.5 16.5 7.3 16.5 16.5z"/><path class="st1" d="M20-103.7l23.7-86.8 86.8 23.7L106.8-80z"/><path class="st1" d="M0-103.7l23.7-86.8 86.8 23.7L86.8-80zM150-123.7l23.7-86.8 86.8 23.7-23.7 86.8z"/><path class="st1" d="M130-123.7l23.7-86.8 86.8 23.7-23.7 86.8z"/><path class="st1" d="M110-123.7l23.7-86.8 86.8 23.7-23.7 86.8z"/><path class="st1" d="M90-123.7l23.7-86.8 86.8 23.7-23.7 86.8z"/><path class="st1" d="M70-123.7l23.7-86.8 86.8 23.7-23.7 86.8z"/><g><path class="st1" d="M50-123.7l23.7-86.8 86.8 23.7-23.7 86.8z"/></g><g><path class="st1" d="M30-123.7l23.7-86.8 86.8 23.7-23.7 86.8z"/></g><g><path class="st1" d="M10-123.7l23.7-86.8 86.8 23.7L96.8-100z"/></g><g><path class="st1" d="M140-143.7l23.7-86.8 86.8 23.7-23.7 86.8z"/></g><g><path class="st1" d="M120-143.7l23.7-86.8 86.8 23.7-23.7 86.8z"/></g><g><path class="st1" d="M100-143.7l23.7-86.8 86.8 23.7-23.7 86.8z"/></g><g><path class="st1" d="M80-143.7l23.7-86.8 86.8 23.7-23.7 86.8z"/></g><g><path class="st1" d="M60-143.7l23.7-86.8 86.8 23.7-23.7 86.8z"/></g><g><path class="st1" d="M40-143.7l23.7-86.8 86.8 23.7-23.7 86.8z"/></g><g><path class="st1" d="M20-143.7l23.7-86.8 86.8 23.7-23.7 86.8z"/></g><g><path class="st1" d="M0-143.7l23.7-86.8 86.8 23.7L86.8-120z"/></g></pattern><g id="background_shapes"><path d="M263.2 198.2c-1.8-1-2.4-3.2-1.4-4.9l3.3-6c1-1.8 3.2-2.4 4.9-1.4 1.8 1 2.4 3.2 1.4 4.9l-3.3 6c-.5.8-1.3 1.5-2.2 1.7-.8.2-1.9.1-2.7-.3zm26.4 7.4c-1.1-1.6-2.3-4.2-3.3-6.7l18.2-5.2c.4 2.6.8 5.5.8 7.4-.1 4.9-1.2 7.8-5.9 9.1-4.7 1.4-7.2-.4-9.8-4.6zm-5.1-11.1c-.3-.8-.5-1.4-.5-1.4-1.7-3.4-4.1-5.6-8.9-9.1-4.8-3.5-7.6-6.6-9.1-11.8-3.2-11.3 3.2-23.5 14.9-26.8s23.6 3.6 26.8 14.9c1.5 5.2.8 9.3-1.5 14.8s-3.3 8.7-2.8 12.5c0 0 .1.5.2 1.4l-19.1 5.5zm-27.2-34.8l-6-3.3c-1.8-1-2.4-3.2-1.4-4.9 1-1.8 3.2-2.4 4.9-1.4l6 3.3c1.8 1 2.4 3.2 1.4 4.9-.5.8-1.3 1.5-2.2 1.7-.8.3-1.9.2-2.7-.3zm61.6 22.6l-6-3.3c-1.8-1-2.4-3.2-1.4-4.9 1-1.8 3.2-2.4 4.9-1.4l6 3.3c1.8 1 2.4 3.2 1.4 4.9-.5.8-1.3 1.5-2.2 1.7-.8.3-1.9.2-2.7-.3zm-15.2-35.8c-1.8-1-2.4-3.2-1.4-4.9l3.3-6c1-1.8 3.2-2.4 4.9-1.4 1.8 1 2.4 3.2 1.4 4.9l-3.3 6c-.5.8-1.3 1.5-2.2 1.7-.8.3-1.9.2-2.7-.3z" class="st3"/><g class="st3"><path d="M577.6 402.5l-41.1-18.7c-2.2-1-5 .1-6 2.4l-17 37.4c-1 2.2-.1 5 2.1 6.1l41.2 18.7c2.2 1 4.9-.2 6-2.4l17-37.3c1-2.3 0-5.2-2.2-6.2zm-28.7 16.2l-5.4 13.2-7-3.2 6.4-12.9c-1.9-2.3-2.3-5.6-1.1-8.5 1.8-4 6.5-5.7 10.5-3.9 4 1.8 5.7 6.5 3.9 10.5-1.4 2.9-4.3 4.8-7.3 4.8zM552 373.8c2.9-6.4 10.3-9.4 16.8-6.5 6.4 2.9 9.1 10.5 6.1 16.9l-4.9 10.7 6.9 3.1 4.9-10.7c4.7-10.2.3-22.2-9.9-26.9-10.2-4.7-22.1 0-26.8 10.2l-4.9 10.7 6.9 3.1 4.9-10.6z"/></g><path d="M103.4 175.8L58.9 159c-1 .8-2.2 1.4-3.6 1.6-4.4.7-8.5-2.2-9.2-6.6-.7-4.4 2.2-8.5 6.6-9.2 4-.7 7.7 1.8 8.9 5.5l44.5 16.8c1-.8 2.2-1.4 3.6-1.6 4.4-.7 8.5 2.2 9.2 6.6.7 4.4-2.2 8.5-6.6 9.2-3.9.6-7.7-1.8-8.9-5.5zm-51.6 12.1c-.7-4.3 2.1-8.3 6.4-9.2l4.7-12.7 8.5 3.2-4.8 13.2c.5.9.9 1.8 1.1 2.8.7 4.4-2.2 8.5-6.6 9.2-4.4.8-8.6-2.1-9.3-6.5zm17.8-40.2l4-10.8c-.2-.5-.3-.9-.4-1.4-.7-4.4 2.2-8.5 6.6-9.2 4.4-.7 8.5 2.2 9.2 6.6v.4l14.1 8c.7-.3 1.4-.6 2.3-.7 4.4-.7 8.5 2.2 9.2 6.6.7 4.4-2.2 8.5-6.6 9.2s-8.5-2.2-9.2-6.6v-.4l-14.1-8c-.7.3-1.5.6-2.3.7-.4.1-.7 0-1.1.1L78 151l-8.4-3.3zM180.5 114.2c-8.5 17.6-29.6 24.9-47.2 16.3-19.7-9.6-24.3-32.5-15.6-48.7L143 105c2 1.8 5.3.9 6.4-1.2l17.2-35.4c15.6 9.2 22 29.2 13.9 45.8zm-63.8-44.4c-1.1-1-1.2-2.8-.2-3.8 11.3-12.8 29.2-17 44-9.9 1.3.6 1.8 2.4 1.3 3.6l-17.4 35.7-27.7-25.6zM543.5 59.1c1.5-3.5 5.4-5.2 9-3.8l9.4-7.2 4.8 6.3-9.7 7.5c0 .9-.2 1.7-.5 2.6-1.5 3.6-5.6 5.3-9.1 3.8-3.7-1.5-5.4-5.6-3.9-9.2zm43.7 15l-25-33c-1.1.1-2.3 0-3.4-.5-3.6-1.5-5.3-5.6-3.8-9.1 1.5-3.6 5.6-5.3 9.1-3.8 3.2 1.3 4.9 4.9 4 8.2l25 33c1.1-.1 2.3 0 3.4.5 3.6 1.5 5.3 5.6 3.8 9.1-1.5 3.6-5.6 5.3-9.1 3.8-3.2-1.3-4.9-4.9-4-8.2zm-11.9-36.3l8-6.1c.1-.4.2-.8.4-1.2 1.5-3.6 5.6-5.3 9.1-3.8 3.6 1.5 5.3 5.6 3.8 9.1 0 .1-.2.2-.2.3l6.7 12.5c.7.1 1.3.2 2 .5 3.6 1.5 5.3 5.6 3.8 9.1-1.5 3.6-5.6 5.2-9.1 3.8-3.6-1.5-5.3-5.6-3.8-9.1 0-.1.1-.2.2-.3l-6.8-12.5c-.7-.1-1.4-.2-2-.5-.3-.1-.6-.3-.8-.4l-6.5 4.9-4.8-6.3zM493.2 144.3l-8.4-6.6-4.9 7c.1.4.3.8.3 1.2.6 3.8-1.9 7.4-5.7 8.1-3.8.6-7.4-1.9-8.1-5.7s1.9-7.4 5.7-8.1c.4-.1.7-.1 1.2-.1l7.3-10.3c.7-.9 1.7-1.5 2.7-1.7 1.1-.1 2.2.1 3.1.8l8.8 6.8 11.6-12.3v-.2c-.6-3.8 1.9-7.4 5.7-8.1 3.8-.6 7.4 1.9 8.1 5.7.6 3.8-1.9 7.4-5.7 8.1-.7.1-1.5.1-2.2 0l-14.2 14.9c-1.4 1.6-3.7 1.7-5.3.5zm-8 19.3l2.3 13.5c.3 1.7-.7 3.2-2.1 3.4l-8.6 1.4c-1.4.2-2.8-.9-3.1-2.5l-2.3-13.5c-.3-1.5.5-3 1.8-3.3 1.4-.4 3-.8 4.5-1s3-.4 4.6-.5c1.4-.2 2.6.9 2.9 2.5zm18.7-9.2l3.3 19.5c.3 1.7-.7 3.2-2.1 3.4l-8.6 1.4c-1.4.2-2.8-.9-3.1-2.5l-3.3-19.5c-.3-1.5.5-3 1.8-3.3 1.4-.4 3-.8 4.5-1 1.5-.3 3-.4 4.6-.5 1.4-.2 2.7.9 2.9 2.5zm18.1-13.2l4.9 29.3c.3 1.7-.7 3.2-2.1 3.4l-8.6 1.4c-1.4.2-2.8-.9-3.1-2.5l-4.9-29.3c-.3-1.5.5-3 1.8-3.3 1.4-.4 3-.8 4.5-1s3-.4 4.6-.5c1.4-.1 2.6 1 2.9 2.5zM575.8 129.7l-9.9 34.3c-.4 1.6-2.1 2.5-3.7 2.1l-9.6-2.8c-1.6-.5-2.5-2.1-2.1-3.7l9.9-34.3c.4-1.5 1.9-2.4 3.4-2.1 1.7.3 3.5.7 5.2 1.2s3.3 1 5 1.7c1.4.5 2.2 2.1 1.8 3.6zm25-7.4L587 170.1c-.4 1.6-2.1 2.5-3.7 2.1l-9.6-2.8c-1.6-.5-2.5-2.1-2.1-3.7l13.7-47.8c.4-1.5 1.9-2.4 3.4-2.1 1.7.3 3.5.7 5.2 1.2 1.7.5 3.3 1 5 1.7 1.5.5 2.3 2.1 1.9 3.6zm13.4 33l-6 20.9c-.4 1.6-2.1 2.5-3.7 2.1l-9.6-2.8c-1.6-.5-2.5-2.1-2.1-3.7l6-20.9c.4-1.5 1.9-2.4 3.4-2.1 1.7.3 3.5.7 5.2 1.2s3.3 1 5 1.7c1.4.5 2.2 2.1 1.8 3.6z" class="st3"/><g class="st3"><path d="M98.7 335.2l.8 35.7c0 1.6-1.3 3-2.9 3.1l-10 .2c-1.7 0-3-1.3-3.1-2.9l-.8-35.7c0-1.6 1.1-2.9 2.6-3.1 1.7-.2 3.6-.3 5.3-.4 1.7 0 3.5 0 5.2.1 1.7.1 2.9 1.4 2.9 3zm21.7-14.5l1.1 49.7c0 1.6-1.3 3-2.9 3.1l-10 .2c-1.7 0-3-1.3-3.1-2.9l-1.1-49.7c0-1.6 1.1-2.9 2.6-3.1 1.7-.2 3.6-.3 5.3-.4 1.7 0 3.5 0 5.3.1 1.5.2 2.7 1.4 2.8 3zm22.5 27.5l.5 21.7c0 1.6-1.3 3-2.9 3.1l-10 .2c-1.7 0-3-1.3-3.1-2.9l-.4-21.8c0-1.6 1.1-2.9 2.6-3.1 1.7-.2 3.6-.3 5.3-.4 1.7 0 3.5 0 5.3.1 1.5.3 2.7 1.5 2.7 3.1z"/></g></g><g id="vert-insur-bbl-iot"><circle class="st4" cx="207.9" cy="71.1" r="79" id="Layer_3_14_"/><path class="st5" d="M158.4 77l38.4-50.3M219.1 113.5l-23.4-86.8M158.4 77l60.7 36.5M252.3 61.9l-55-32.6M252.3 61.9l-31.9 53.3"/><defs><circle id="SVGID_1_" cx="251.2" cy="61.9" r="22.4"/></defs><clipPath id="SVGID_2_"><use xlink:href="#SVGID_1_" overflow="visible"/></clipPath><path class="st6 st7" d="M221.8 31h57.4v64.1h-57.4z"/><defs><circle id="SVGID_3_" cx="251.2" cy="61.9" r="19.3"/></defs><clipPath id="SVGID_4_"><use xlink:href="#SVGID_3_" overflow="visible"/></clipPath><g class="st8"><path class="st9" d="M224 36.7h53v59.2h-53z"/><path class="st10" d="M244.2 67c3.5-1.3 11-1.3 12.7-.5 1 .5 0-5.4 0-5.4l-7.4-4.5-4.1 1.5c-.1 0-2.5 9.4-1.2 8.9z"/><path class="st11" d="M244.7 57.4s.5 3.4.2 4.3-1.2 1.3-1.2 1.3.3.5.9.5 2.2-.8 2.2-.8l-.4-5.9-1.6-.2-.1.8z"/><path class="st7" d="M238.1 81.2s-1 1.6-.8 2.1-1.1 11.4-1.1 11.4l2.2 1.2s1.5-10.8 1.8-11.9c.4-1 1.4-2.4 1.4-2.4l-3.5-.4zM264.8 81.2s1 1.6.8 2.1 1.1 11.4 1.1 11.4l-2.5 1.3s-1.2-11-1.6-12-1.4-2.4-1.4-2.4l3.6-.4z"/><path class="st1" d="M248.7 66.5s-5.6 1.6-6.7 2.4c-1.1.8-5 10.7-5 12s3.9 2.1 4.7 2.2 1.9-3.1 1.9-3.1l.3 18s4.9 1.1 8 1c3-.2 7.6-1.1 7.6-1.1l-.5-18.5s1.4 3.8 1.8 3.8c.4-.1 4.4-1.2 5.1-1.6.7-.4-3.2-11.9-4.3-12.6s-7.7-2.4-9-2.4-3.9-.1-3.9-.1z"/><path class="st7" d="M252.8 65.3c0-2.6-1.7-2.2-1.7-2.2s-1.7-.4-1.7 2.2c0 2-2.3 3.5 1.7 3.5s1.7-1.6 1.7-3.5z"/><path class="st7" d="M249.2 67s-2.5.6-3.2 1c-.6.4 2.2 1.7 4.9 1.7s5.9-1.2 6.3-1.5c.4-.3-6.3-1.5-6.3-1.5l-1.7.3zM250.9 65.6c-1.9 0-6.3-3.7-5.3-13.2.3-2.6 5.3-2.4 5.3-2.4s4.9-.1 5.3 2.4c1.4 8.9-3.4 13.2-5.3 13.2z"/><circle class="st12" cx="253.4" cy="56.4" r=".5"/><path class="st13" d="M258.1 55.3c0 1.6.1 2.9-1 2.9s-.5-1.3-.5-2.9.2-1.7.5-1.7c.2-.1 1 .1 1 1.7z"/><circle class="st12" cx="248.4" cy="56.4" r=".5"/><path class="st9" d="M249.5 58.7c.1 1.3 1.1 1.9 1.4 1.9.3 0 1.3-.6 1.4-1.9 0 0-.9.9-1.4.9-.5-.1-1.4-.9-1.4-.9zM249.4 65.2l-.1 1.3s1.3.9 1.9.9c.5 0 1.5-.6 1.8-1.4.2-.4-.1-.6-.1-1.1 0 0-1 .7-1.9.7-.9-.1-1.6-.4-1.6-.4z"/><path class="st13" d="M243.7 55.3c0 1.6-.1 2.9 1 2.9s.5-1.3.5-2.9-.2-1.7-.5-1.7c-.3-.1-1 .1-1 1.7z"/><path class="st9" d="M245.3 54.1s1.3.3 3.6.2c2.6-.1 3.2-1.5 5-.8 1.8.6 1.6 1 2.2 1.2.6.2 0 0 0 0v-5.2l-10.9 2.6.1 2z"/><path class="st11" d="M259.1 64.6c-1-1.2-1.6-2.4-.3-5.6 1.3-3.2.4-6.7-1.9-9.5-1.1-1.8-.2-3.7-5-3.9-1.5-.1-2.7 0-6.9 1.8s-3.2 9-2.2 11.7c1.3 3.2.8 4.5-.3 5.6-1.1 1.4-3 .6-.7 2.3 2.3 1.6 6.5-2.6 6.5-2.6s-2-2.4-2.3-3.9c-.3-1.6-1-7.5-.3-7.4 4.8 1 8.8-3.1 9.5-.8.2.5.3 2.2.6 2.8 0 0-.8 3.6-.5 5.2s-1.9 4-1.9 4 4 4.2 6.3 2.6.4-.9-.6-2.3z"/><path class="st14" d="M243 50.9s.4-1.8 1.6-2.5c1.2-.7 5.3-2.1 5.3-2.1s.8 1.3-.4 2c-1.2.6-3.1-.2-4.4 1.1-.9 1.1-1.2 1.9-2.1 1.5z"/><path class="st15" d="M237.8 80.2s3.4-9.7 4.3-10.2c.9-.5 3.1-1.2 3.1-1.2s.6 1-.3 1.7c-.2.2-1.3.5-1.8 1.4-1.6 2.9-3.4 8.7-4 9-1 .3-1.3-.7-1.3-.7z"/><path class="st16" d="M260.8 83.1s4.5-1.1 5.1-1.6c.6-.5-2.5-9.8-3.8-11.9-.2-.3-1.1-1.6-.9.8.1 1.3.9 9.6.2 10.7-.7 1.1-.6 2-.6 2zM259.4 97.9l-.4-18.5s-1-.5-1.5.8-3 18.6-3 18.6c2.5-.2 4.9-.9 4.9-.9z"/></g><g><defs><circle id="SVGID_5_" cx="218.7" cy="114.2" r="22.4"/></defs><clipPath id="SVGID_6_"><use xlink:href="#SVGID_5_" overflow="visible"/></clipPath><path class="st17 st7" d="M189.3 83.3h57.4v64.1h-57.4z"/><g><defs><circle id="SVGID_7_" cx="218.8" cy="114.4" r="18.9"/></defs><clipPath id="SVGID_8_"><use xlink:href="#SVGID_7_" overflow="visible"/></clipPath><g class="st18"><path class="st9" d="M185.1 78.8h71.2V150h-71.2z"/><path class="st7" d="M215.3 108.9l-4.1 1.6s.4 1.1 1 1.5 2.9-.8 2.9-.8l.2-2.3zM228.8 109.3s.7 3.8.6 4.9-1.8 4.9-2.5 6.3c-.7 1.5-5.8 2.7-6.8 3.3s-1.5-3.3-1.5-3.3 1.7-4 3.6-4.8c2-.8 6.6-6.4 6.6-6.4z"/><path class="st19" d="M218.5 122.4l-9-3.2c-1-.4-1.4-1.6-.8-2.5l11.7-16c.4-.6 1.2-.8 1.9-.6l9 3.2c1 .4 1.4 1.6.8 2.5l-11.7 16c-.4.6-1.3.8-1.9.6z"/><path class="st20" d="M219.3 119.6L212 117c-.9-.3-1.1-1.3-.6-2l9.5-13c.3-.5 1-.6 1.5-.5l7.3 2.6c.9.3 1.1 1.3.6 2l-9.4 13c-.5.5-1.1.7-1.6.5z"/><path class="st21" d="M221.4 104.4l-.8-.3c-.3-.1-.4-.4-.2-.6l.5-.7c.1-.2.3-.2.5-.2l.8.3c.3.1.4.4.2.6l-.5.7c-.2.2-.4.3-.5.2z"/><path class="st7" d="M223.5 105.2l-.8-.3c-.3-.1-.4-.4-.2-.6l.5-.7c.1-.2.3-.2.5-.2l.8.3c.3.1.4.4.2.6l-.5.7c-.2.2-.4.3-.5.2z"/><path class="st2" d="M225.7 106l-.8-.3c-.3-.1-.4-.4-.2-.6l.5-.7c.1-.2.3-.2.5-.2l.8.3c.3.1.4.4.2.6l-.5.7c-.2.2-.3.3-.5.2z"/><path class="st22" d="M228 106.9l-.8-.3c-.3-.1-.4-.4-.2-.6l.5-.7c.1-.2.3-.2.5-.2l.8.3c.3.1.4.4.2.6l-.5.7c-.1.2-.3.2-.5.2z"/><path class="st2" d="M219.9 106.7l-.8-.3c-.3-.1-.4-.4-.2-.6l.5-.7c.1-.2.3-.2.5-.2l.8.3c.3.1.4.4.2.6l-.5.7c-.2.2-.3.2-.5.2z"/><path class="st23" d="M221.9 107.5l-.8-.3c-.3-.1-.4-.4-.2-.6l.5-.7c.1-.2.3-.2.5-.2l.8.3c.3.1.4.4.2.6l-.5.7c-.1.2-.3.2-.5.2z"/><path class="st22" d="M224.2 108.3l-.8-.3c-.3-.1-.4-.4-.2-.6l.5-.7c.1-.2.3-.2.5-.2l.8.3c.3.1.4.4.2.6l-.5.7c-.1.2-.3.2-.5.2z"/><path class="st24" d="M226.5 109.2l-.8-.3c-.3-.1-.4-.4-.2-.6l.5-.7c.1-.2.3-.2.5-.2l.8.3c.3.1.4.4.2.6l-.5.7c-.1.2-.3.2-.5.2z"/><path class="st21" d="M218.1 109l-.8-.3c-.3-.1-.4-.4-.2-.6l.5-.7c.1-.2.3-.2.5-.2l.8.3c.3.1.4.4.2.6l-.5.7c-.1.2-.3.3-.5.2z"/><path class="st7" d="M220.2 109.9l-.8-.3c-.3-.1-.4-.4-.2-.6l.5-.7c.1-.2.3-.2.5-.2l.8.3c.3.1.4.4.2.6l-.5.7c-.1.2-.3.2-.5.2z"/><path class="st2" d="M222.5 110.7l-.8-.3c-.3-.1-.4-.4-.2-.6l.5-.7c.1-.2.3-.2.5-.2l.8.3c.3.1.4.4.2.6l-.5.7c-.1.2-.4.2-.5.2z"/><path class="st22" d="M224.8 111.5l-.8-.3c-.3-.1-.4-.4-.2-.6l.5-.7c.1-.2.3-.2.5-.2l.8.3c.3.1.4.4.2.6l-.5.7c-.1.2-.3.3-.5.2z"/><path class="st2" d="M216.7 111.3l-.8-.3c-.3-.1-.4-.4-.2-.6l.5-.7c.1-.2.3-.2.5-.2l.8.3c.3.1.4.4.2.6l-.5.7c-.1.2-.4.3-.5.2z"/><path class="st23" d="M218.7 112.1l-.8-.3c-.3-.1-.4-.4-.2-.6l.5-.7c.1-.2.3-.2.5-.2l.8.3c.3.1.4.4.2.6l-.5.7c-.1.2-.3.3-.5.2z"/><path class="st22" d="M221 112.9l-.8-.3c-.3-.1-.4-.4-.2-.6l.5-.7c.1-.2.3-.2.5-.2l.8.3c.3.1.4.4.2.6l-.5.7c-.1.2-.3.3-.5.2z"/><path class="st24" d="M223.3 113.8l-.8-.3c-.3-.1-.4-.4-.2-.6l.5-.7c.1-.2.3-.2.5-.2l.8.3c.3.1.4.4.2.6l-.5.7c-.1.2-.3.2-.5.2z"/><path class="st21" d="M214.7 113.7l-.8-.3c-.3-.1-.4-.4-.2-.6l.5-.7c.1-.2.3-.2.5-.2l.8.3c.3.1.4.4.2.6l-.5.7c-.1.2-.3.2-.5.2z"/><path class="st7" d="M216.8 114.5l-.8-.3c-.3-.1-.4-.4-.2-.6l.5-.7c.1-.2.3-.2.5-.2l.7.3c.3.1.4.4.2.6l-.5.7c0 .2-.3.2-.4.2z"/><path class="st2" d="M219 115.3l-.8-.3c-.3-.1-.4-.4-.2-.6l.5-.7c.1-.2.3-.2.5-.2l.8.3c.3.1.4.4.2.6l-.5.7c-.1.2-.3.2-.5.2z"/><path class="st22" d="M221.4 116.1l-.8-.3c-.3-.1-.4-.4-.2-.6l.5-.7c.1-.2.3-.2.5-.2l.8.3c.3.1.4.4.2.6l-.5.7c-.2.2-.4.3-.5.2z"/><path class="st2" d="M213.2 115.9l-.8-.3c-.3-.1-.4-.4-.2-.6l.5-.7c.1-.2.3-.2.5-.2l.8.3c.3.1.4.4.2.6l-.5.7c-.1.2-.3.3-.5.2z"/><path class="st23" d="M215.3 116.7l-.8-.3c-.3-.1-.4-.4-.2-.6l.5-.7c.1-.2.3-.2.5-.2l.8.3c.3.1.4.4.2.6l-.5.7c-.1.2-.3.3-.5.2z"/><path class="st22" d="M217.6 117.5l-.8-.3c-.3-.1-.4-.4-.2-.6l.5-.7c.1-.2.3-.2.5-.2l.8.3c.3.1.4.4.2.6l-.5.7c-.2.2-.3.3-.5.2z"/><path class="st24" d="M219.9 118.4l-.8-.3c-.3-.1-.4-.4-.2-.6l.5-.7c.1-.2.3-.2.5-.2l.8.3c.3.1.4.4.2.6l-.5.7c-.2.2-.3.3-.5.2z"/><path class="st14" d="M212 117c-.9-.3-1.1-1.3-.6-2l9.5-13c.3-.5 1-.6 1.5-.5l7.3 2.6c.9.3 1.1 1.3.6 2L212 117z"/><path class="st7" d="M210.4 122.3s5.4-2.4 6.7-4.2c1.2-1.9 2.5-3.1 2.6-4.5.2-1.3.3-4.4.8-5.1s2.3-.9 2.3 0c.1.9.2 3 .2 3.7.1.7-.2 2.9-.2 3.8-.1.9 1.2 3.1 1.2 3.1 1.7-.3 3 2.8-3.2 4.7-1.7.5-6.3 1.1-6.3 1.1l-4.1-2.6z"/><path class="st19" d="M199.9 126.1l10-4.8s3.4.1 4.9 1.1 3.5 2.9 2.9 3.3c-.6.4-10.1 7.4-10.1 7.4l-7.7-7z"/><path class="st25" d="M188.1 130.9l17.5-8.4s5.6-.1 7.6 1.1c2 1.1 4.7 3.4 3.9 3.9s-12.1 8-12.1 8l-16.9-4.6z"/><pattern id="SVGID_9_" xlink:href="#SVGID_11_" patternTransform="matrix(.179 0 0 .179 -15553.004 -818.992)"/><path class="st26" d="M220.7 110.2s-.2-1.4.2-1.7c.4-.3 1.5-.5 1.5-.2.1.2.3 1.5.1 1.7-.1.2-1.8.2-1.8.2z"/></g></g></g><g><defs><circle id="SVGID_10_" cx="196.4" cy="27.9" r="22.4"/></defs><clipPath id="SVGID_12_"><use xlink:href="#SVGID_10_" overflow="visible"/></clipPath><path class="st27 st7" d="M167-3h57.4v64.1H167z"/><g><defs><circle id="SVGID_13_" cx="196.4" cy="27.9" r="19.3"/></defs><clipPath id="SVGID_14_"><use xlink:href="#SVGID_13_" overflow="visible"/></clipPath><g class="st28"><path class="st9" d="M169.3 2.7h53v59.2h-53z"/><path class="st16" d="M204.7 63.9l-.5-18.6s-1-.5-1.5.8-3 18.6-3 18.6c2.6-.2 5-.8 5-.8z"/></g></g><g><path class="st29" d="M207.7 33.4l.4.3 5-12.8c.1-.3 0-.6-.3-.8l-.3-.2-4.8 13.5zM179.9 34.3l16.3 4c.9.2 1.8.1 2.6-.3l8.8-4.4v1c0 .4-.2.8-.6.9l-8.2 3.8c-.8.4-1.7.4-2.6.3L180.5 36c-.4-.1-.6-.4-.6-.8v-.9z"/><path class="st19" d="M198.8 38l8.6-4c.4-.2.3-.7-.1-.8l-17.2-3.9h-.3l-9.7 4.5c-.4.2-.3.7.1.8l16 3.7c.8.1 1.8 0 2.6-.3z"/><path class="st19" d="M198.8 38l8.6-4c.4-.2.3-.7-.1-.8l-17.2-3.9h-.3l-9.7 4.5c-.4.2-.3.7.1.8l16 3.7c.8.1 1.8 0 2.6-.3z"/><path class="st19" d="M207.7 33.4l-17.8-4.1 5.2-13.1c.1-.2.3-.3.5-.3l16.7 3.9c.3.1.5.4.4.7l-5 12.9z"/><path class="st25" d="M206.8 32.1l-15.2-3.5 4.6-11.5 15.2 3.5z"/><ellipse class="st19" cx="207.9" cy="33.4" rx=".4" ry=".5"/><path class="st19" d="M206.6 32.6l1.4.3-.1.9-1.3-.2z"/><ellipse class="st25" cx="207.9" cy="33.4" rx=".3" ry=".3"/><path class="st30" d="M192.7 32.7l2 .5 1.6-.8-1.9-.4zM194.9 33.3l2 .4 1.7-.8-2-.4zM197.2 33.7l2 .5 1.6-.8-2-.4zM188.2 31.7l2 .5 1.7-.8-2-.4zM190.4 32.2l2.1.5 1.6-.7-2-.5zM203.4 33l-2.1-.4-1.1.5 2 .5zM201.1 32.5l-2-.4-1.2.5 2 .4zM196.7 31.5l-2.1-.4-1.2.5 2 .5zM194.4 31l-2-.4-1.2.5 2 .5zM198.9 32l-2-.4-1.3.5 2.1.5zM199.4 34.2l2.1.5 1.6-.7-2-.5zM189 34.4l2.1.5 1.6-.8-2-.4zM191.3 34.9l2 .4 1.6-.6-1.9-.5zM193.5 35.4l2 .5 1.7-.8-2-.4zM184.6 33.4l2 .4 1.6-.7-2-.4zM186.8 33.9l2 .5 1.7-.8-2.1-.4zM195.7 35.9l2.1.5 1.6-.8-2-.4zM205.8 33.5l-2.2-.5-1.2.6 2.1.5zM191 31l1.1-.4-2-.5-1.1.5zM185.3 32.3l1.9.4 1.7-.7-2-.5zM187.5 32.8l2 .5 1.6-.8-2-.4zM194.2 34.3l2 .5 1.6-.8-1.9-.5zM196.4 36.2l-2-.5-1.5.7 2 .5zM192.7 36.4l1.5-.7-6.6-1.5-1.4.6zM186 34.8l1.4-.6-2-.5-1.4.6zM200.1 34.5l-2-.4-1.7.7 2.1.4zM189.7 33.3l2 .4 1.7-.7-2.1-.4zM191.9 33.8l2.1.4 1.6-.7-2-.5zM200.3 34.5l-1.6.8 2.1.4 1.6-.7z"/><path class="st14" d="M194 22.5l2.2-5.4 15.2 3.5z"/><path class="st16" d="M198.8 38l8.6-4c.4-.2.3-.7-.1-.8l-17.2-3.9h-.3l6.3 8.9c.9.2 1.9.1 2.7-.2z"/></g></g><g><defs><circle id="SVGID_15_" cx="162.8" cy="77.1" r="22.4"/></defs><clipPath id="SVGID_16_"><use xlink:href="#SVGID_15_" overflow="visible"/></clipPath><path class="st31" d="M186.2 110.3h-52.8l-4.6-64.1h57.4z"/><defs><circle id="SVGID_17_" cx="162.8" cy="77.1" r="19.3"/></defs><clipPath id="SVGID_18_"><use xlink:href="#SVGID_17_" overflow="visible"/></clipPath><g class="st32"><path class="st9" d="M135.7 52h53v59.2h-53z"/><path class="st16" d="M166.5 113.1l4.1-18.6s-1-.5-1.5.8-7.5 18.6-7.5 18.6c2.5-.1 4.9-.8 4.9-.8z"/></g><g><path class="st19" d="M166.4 91.8l-16.3-2.5v-13l16.3 2.5z"/><path class="st33" d="M159.7 90.8l-4.5-.7V83l4.5.7zM166.4 91.8l12.5-7.5v-13l-12.5 7.5z"/><path class="st9" d="M166.4 91.8l-16.3-13.7v-1.8l16.3 2.5z"/></g><path class="st9" d="M166.4 81.6l12.5-2.8v-7.5l-12.5 7.5-16.3-2.4v1.1z"/><path class="st34" d="M162.7 62.4l-16.8 14 22 3.3z"/><path class="st35" d="M162.7 62.4l17.9 8.9-12.7 8.4z"/></g></g><g id="vert-insur-bbl-mobile"><circle class="st36" cx="146.5" cy="228.9" r="75.7" id="Layer_3_16_"/><path class="st7" d="M142.6 212.2l-13.8 5.3s1.2 3.7 3.2 4.9c2.1 1.2 9.7-2.7 9.7-2.7l.9-7.5zM187.9 213.2s2.3 12.6 2 16.3c-.4 3.7-6 16.3-8.4 21.1s-19.2 8.9-22.7 11.1-4.8-11.1-4.8-11.1 5.6-13.3 12-15.9c6.3-2.5 21.9-21.5 21.9-21.5z"/><path class="st19" d="M153.3 257l-30-10.8c-3.5-1.2-4.7-5.5-2.6-8.4l39-53.4c1.4-2 4-2.7 6.3-1.9l30 10.8c3.5 1.2 4.7 5.5 2.6 8.4l-39 53.4c-1.5 1.9-4.1 2.7-6.3 1.9z"/><path class="st20" d="M156 247.7l-24.3-8.8c-2.8-1-3.9-4.4-2.1-6.8l31.6-43.3c1.2-1.6 3.2-2.2 5.1-1.5l24.3 8.8c2.8 1 3.9 4.4 2.1 6.8l-31.6 43.3c-1.2 1.5-3.3 2.2-5.1 1.5z"/><path class="st21" d="M162.9 197.1l-2.5-.9c-.9-.3-1.2-1.4-.6-2.2l1.8-2.3c.4-.5 1-.7 1.6-.5l2.5.9c.9.3 1.2 1.4.6 2.2l-1.8 2.3c-.4.5-1 .7-1.6.5z"/><path class="st7" d="M169.8 199.8l-2.5-.9c-.9-.3-1.2-1.4-.6-2.2l1.8-2.3c.4-.5 1-.7 1.6-.5l2.5.9c.9.3 1.2 1.4.6 2.2l-1.8 2.3c-.4.5-1 .7-1.6.5z"/><path class="st2" d="M177.3 202.5l-2.5-.9c-.9-.3-1.2-1.4-.6-2.2l1.8-2.3c.4-.5 1-.7 1.6-.5l2.5.9c.9.3 1.2 1.4.6 2.2l-1.8 2.3c-.4.5-1 .7-1.6.5z"/><path class="st22" d="M185.1 205.4l-2.5-.9c-.9-.3-1.2-1.4-.6-2.2l1.8-2.3c.4-.5 1-.7 1.6-.5l2.5.9c.9.3 1.2 1.4.6 2.2l-1.8 2.3c-.4.5-1.1.7-1.6.5z"/><path class="st2" d="M158 204.6l-2.5-.9c-.9-.3-1.2-1.4-.6-2.2l1.8-2.3c.4-.5 1-.7 1.6-.5l2.5.9c.9.3 1.2 1.4.6 2.2l-1.8 2.3c-.4.5-1.1.7-1.6.5z"/><path class="st23" d="M164.9 207.3l-2.5-.9c-.9-.3-1.2-1.4-.6-2.2l1.8-2.3c.4-.5 1-.7 1.6-.5l2.5.9c.9.3 1.2 1.4.6 2.2l-1.8 2.3c-.4.5-1.1.7-1.6.5z"/><path class="st22" d="M172.4 210l-2.5-.9c-.9-.3-1.2-1.4-.6-2.2l1.8-2.3c.4-.5 1-.7 1.6-.5l2.5.9c.9.3 1.2 1.4.6 2.2l-1.8 2.3c-.4.5-1 .7-1.6.5z"/><path class="st24" d="M180.1 212.9l-2.5-.9c-.9-.3-1.2-1.4-.6-2.2l1.8-2.3c.4-.5 1-.7 1.6-.5l2.5.9c.9.3 1.2 1.4.6 2.2l-1.8 2.3c-.4.5-1 .7-1.6.5z"/><path class="st21" d="M152.2 212.5l-2.5-.9c-.9-.3-1.2-1.4-.6-2.2l1.8-2.3c.4-.5 1-.7 1.6-.5l2.5.9c.9.3 1.2 1.4.6 2.2l-1.8 2.3c-.4.5-1 .7-1.6.5z"/><path class="st7" d="M159.1 215.1l-2.5-.9c-.9-.3-1.2-1.4-.6-2.2l1.8-2.3c.4-.5 1-.7 1.6-.5l2.5.9c.9.3 1.2 1.4.6 2.2l-1.8 2.3c-.4.6-1 .7-1.6.5z"/><path class="st2" d="M166.6 217.8l-2.5-.9c-.9-.3-1.2-1.4-.6-2.2l1.8-2.3c.4-.5 1-.7 1.6-.5l2.5.9c.9.3 1.2 1.4.6 2.2l-1.8 2.3c-.4.6-1 .7-1.6.5z"/><path class="st22" d="M174.4 220.8l-2.5-.9c-.9-.3-1.2-1.4-.6-2.2l1.8-2.3c.4-.5 1-.7 1.6-.5l2.5.9c.9.3 1.2 1.4.6 2.2l-1.8 2.3c-.5.5-1.1.7-1.6.5z"/><path class="st2" d="M147.2 220l-2.5-.9c-.9-.3-1.2-1.4-.6-2.2l1.8-2.3c.4-.5 1-.7 1.6-.5l2.5.9c.9.3 1.2 1.4.6 2.2l-1.8 2.3c-.3.5-1 .7-1.6.5z"/><path class="st23" d="M154.2 222.7l-2.5-.9c-.9-.3-1.2-1.4-.6-2.2l1.8-2.3c.4-.5 1-.7 1.6-.5l2.5.9c.9.3 1.2 1.4.6 2.2l-1.8 2.3c-.5.5-1.1.7-1.6.5z"/><path class="st22" d="M161.7 225.3l-2.5-.9c-.9-.3-1.2-1.4-.6-2.2l1.8-2.3c.4-.5 1-.7 1.6-.5l2.5.9c.9.3 1.2 1.4.6 2.2l-1.8 2.3c-.4.6-1.1.8-1.6.5z"/><path class="st24" d="M169.4 228.3l-2.5-.9c-.9-.3-1.2-1.4-.6-2.2l1.8-2.3c.4-.5 1-.7 1.6-.5l2.5.9c.9.3 1.2 1.4.6 2.2l-1.8 2.3c-.4.5-1 .7-1.6.5z"/><path class="st21" d="M140.7 228l-2.5-.9c-.9-.3-1.2-1.4-.6-2.2l1.8-2.3c.4-.5 1-.7 1.6-.5l2.5.9c.9.3 1.2 1.4.6 2.2l-1.8 2.3c-.4.5-1 .7-1.6.5z"/><path class="st7" d="M147.6 230.7l-2.5-.9c-.9-.3-1.2-1.4-.6-2.2l1.8-2.3c.4-.5 1-.7 1.6-.5l2.5.9c.9.3 1.2 1.4.6 2.2l-1.8 2.3c-.4.5-1 .7-1.6.5z"/><path class="st2" d="M155.2 233.3l-2.5-.9c-.9-.3-1.2-1.4-.6-2.2l1.8-2.3c.4-.5 1-.7 1.6-.5l2.5.9c.9.3 1.2 1.4.6 2.2l-1.8 2.3c-.4.5-1 .7-1.6.5z"/><path class="st22" d="M162.9 236.3l-2.5-.9c-.9-.3-1.2-1.4-.6-2.2l1.8-2.3c.4-.5 1-.7 1.6-.5l2.5.9c.9.3 1.2 1.4.6 2.2l-1.8 2.3c-.4.5-1.1.7-1.6.5z"/><path class="st2" d="M135.8 235.5l-2.5-.9c-.9-.3-1.2-1.4-.6-2.2l1.8-2.3c.4-.5 1-.7 1.6-.5l2.5.9c.9.3 1.2 1.4.6 2.2l-1.8 2.3c-.4.5-1 .7-1.6.5z"/><path class="st23" d="M142.7 238.2l-2.5-.9c-.9-.3-1.2-1.4-.6-2.2l1.8-2.3c.4-.5 1-.7 1.6-.5l2.5.9c.9.3 1.2 1.4.6 2.2l-1.8 2.3c-.4.5-1 .7-1.6.5z"/><path class="st22" d="M150.2 240.9l-2.5-.9c-.9-.3-1.2-1.4-.6-2.2l1.8-2.3c.4-.5 1-.7 1.6-.5l2.5.9c.9.3 1.2 1.4.6 2.2l-1.8 2.3c-.3.5-1 .7-1.6.5z"/><path class="st24" d="M158 243.8l-2.5-.9c-.9-.3-1.2-1.4-.6-2.2l1.8-2.3c.4-.5 1-.7 1.6-.5l2.5.9c.9.3 1.2 1.4.6 2.2l-1.8 2.3c-.4.5-1.1.7-1.6.5z"/><path class="st14" d="M131.6 239c-2.8-1-3.9-4.4-2.1-6.8l31.6-43.3c1.2-1.6 3.2-2.2 5.1-1.5l24.3 8.8c2.8 1 3.9 4.4 2.1 6.8l-61 36z"/><path class="st7" d="M126.5 256.7s18.1-7.9 22.2-14.2 8.2-10.4 8.8-14.9.9-14.8 2.5-17 7.5-3 7.7 0 .5 10 .7 12.4-.5 9.8-.7 12.7 4.2 10.5 4.2 10.5c5.8-1 9.8 9.3-10.8 15.8-5.7 1.9-21.2 3.9-21.2 3.9l-13.4-9.2z"/><path class="st19" d="M91.2 269.4l33.4-16.3s11.4.4 16.5 3.7c5.1 3.2 11.7 9.6 9.8 10.9s-33.7 24.8-33.7 24.8l-26-23.1z"/><path class="st25" d="M85.8 269.4l24.8-12.1s18.7-.2 25.5 3.6c6.8 3.8 15.5 11.3 12.9 12.9s-31.4 22.3-31.4 22.3c.5.3-9-3.6-19-11.9-9-7.5-12.8-14.8-12.8-14.8z"/><pattern id="SVGID_19_" xlink:href="#SVGID_20_" patternTransform="translate(-5573.618 9609.296) scale(.5965)"/><path class="st37" d="M160.7 216.5s-.5-4.6.8-5.7c1.2-1.1 4.7-1.6 5.1-.8.3.8.9 4.9.4 5.6-.7.7-6.3.9-6.3.9z"/></g><g id="vert-insur-bbl-speedtomarket"><circle class="st38" cx="181.5" cy="400.2" r="63.1" id="Layer_3_18_"/><path class="st39" d="M192.6 366.2l-30.4 12.7 30.2 12.8 30.4-12.8z"/><path d="M192.6 366.2l-30.4 12.7 30.2 12.8z"/><path class="st40" d="M185.9 354.6l-30.4 12.8 6.8 11.5 30.4-12.8z"/><path class="st41" d="M185.9 354.6l-30.4 12.8 6.8 11.5 25.1-21.7z"/><path class="st7" d="M222.8 409.3l-30.4 12.8v-30.4l30.4-12.8zM162 409.3l30.4 12.8v-30.4L162 378.9z"/><path class="st7" d="M153.3 368.6l30.4 12.8 8.7 10.3-30.4-12.8z"/><path class="st40" d="M198.4 355.3l30.4 12.7-6 10.9-30.1-12.7z"/><path class="st42" d="M222.8 409.3l-30.1 12.8v-30.4l30.3-12.8z"/><path class="st9" d="M162.6 384.9l30 37.2.3-30.4-30.3-12.8z"/><path class="st29" d="M153.3 368.6l30.4 12.8 8.9 10.3-30.3-12.8z"/><path class="st41" d="M198.4 355.3l30.4 12.7-5.5 8.4-25.5-20.1z"/><path class="st7" d="M231.2 368.6l-30.4 12.8-8.4 10.3 30.4-12.8z"/><path class="st29" d="M231.2 368.6l-30.4 12.8-8.4 10.3 30.4-12.8z"/><path class="st42" d="M222.8 397.5l-30.1-2.3v-3.5l30.3-12.8zM162.3 380.2l30.4 15v-3.5l-30.5-12.8z"/><g><path class="st19" d="M163.3 447.9c-15.3 0-27.8-12.5-27.8-27.8s12.5-27.8 27.8-27.8 27.7 12.5 27.7 27.8-12.4 27.8-27.7 27.8z"/><path class="st43" d="M163.3 393.5c14.7 0 26.6 11.9 26.6 26.6s-11.9 26.6-26.6 26.6c-14.7 0-26.6-11.9-26.6-26.6s11.9-26.6 26.6-26.6m0-2.2c-15.9 0-28.9 13-28.9 28.9s13 28.9 28.9 28.9 28.9-13 28.9-28.9c0-16-13-28.9-28.9-28.9z"/><path class="st43" d="M158.8 386.4h8.8v7.1h-8.8z"/><path class="st44" d="M154.5 383.1h17.4v5.3h-17.4z"/><path class="st45" d="M154.5 386.4h17.4v1.9h-17.4z"/><g><path class="st43" d="M163.6 400.1c-.6 0-1.1-.5-1.1-1.1v-2.5c0-.6.5-1.1 1.1-1.1.6 0 1.1.5 1.1 1.1v2.5c0 .6-.5 1.1-1.1 1.1zM174.2 403.1c-.2 0-.4 0-.6-.2-.6-.3-.7-1-.4-1.5l1.3-2.2c.3-.6 1-.7 1.5-.4.6.3.7 1 .4 1.5l-1.3 2.2c-.2.4-.6.6-.9.6zM181.8 410.9c-.4 0-.8-.2-1-.6-.3-.6-.1-1.2.4-1.5l2.2-1.3c.6-.3 1.2-.1 1.5.4.3.6.1 1.2-.4 1.5l-2.2 1.3c-.1.2-.3.2-.5.2zM187.1 421.6h-2.5c-.6 0-1.1-.5-1.1-1.1s.5-1.1 1.1-1.1h2.5c.6 0 1.1.5 1.1 1.1s-.5 1.1-1.1 1.1zM183.7 433.5c-.2 0-.4 0-.6-.2l-2.2-1.3c-.6-.3-.7-1-.4-1.5.3-.6 1-.7 1.5-.4l2.2 1.3c.6.3.7 1 .4 1.5-.1.4-.5.6-.9.6zM174.9 442.1c-.4 0-.8-.2-1-.6l-1.3-2.2c-.3-.6-.1-1.2.4-1.5.6-.3 1.2-.1 1.5.4l1.3 2.2c.3.6.1 1.2-.4 1.5-.1.1-.3.2-.5.2zM162.9 445.1c-.6 0-1.1-.5-1.1-1.1v-2.5c0-.6.5-1.1 1.1-1.1.6 0 1.1.5 1.1 1.1v2.5c.1.6-.4 1.1-1.1 1.1zM151.1 441.7c-.2 0-.4 0-.6-.2-.6-.3-.7-1-.4-1.5l1.3-2.2c.3-.6 1-.7 1.5-.4.6.3.7 1 .4 1.5l-1.3 2.2c-.1.4-.5.6-.9.6zM142.5 432.9c-.4 0-.8-.2-1-.6-.3-.6-.1-1.2.4-1.5l2.2-1.3c.6-.3 1.2-.1 1.5.4.3.6.1 1.2-.4 1.5l-2.2 1.3c-.1.1-.3.2-.5.2zM142.1 421h-2.5c-.6 0-1.1-.5-1.1-1.1s.5-1.1 1.1-1.1h2.5c.6 0 1.1.5 1.1 1.1s-.5 1.1-1.1 1.1zM145.1 410.4c-.2 0-.4 0-.6-.2l-2.2-1.3c-.6-.3-.7-1-.4-1.5.3-.6 1-.7 1.5-.4l2.2 1.3c.6.3.7 1 .4 1.5-.2.4-.5.6-.9.6zM152.9 402.7c-.4 0-.8-.2-1-.6l-1.3-2.2c-.3-.6-.1-1.2.4-1.5.6-.3 1.2-.1 1.5.4l1.3 2.2c.3.6.1 1.2-.4 1.5-.1.2-.3.2-.5.2z"/><path class="st43" d="M163.6 400.1c-.6 0-1.1-.5-1.1-1.1v-2.5c0-.6.5-1.1 1.1-1.1.6 0 1.1.5 1.1 1.1v2.5c0 .6-.5 1.1-1.1 1.1z"/></g><g><circle class="st43" cx="163.3" cy="420.1" r="5"/></g><g><path class="st44" d="M164.2 404.9l1.3 15.3c.1 1.2-.8 2.4-2.1 2.4-1.2.1-2.4-.8-2.4-2.1v-.4l1.3-15.3c0-.6.5-.9 1.1-.9.4.1.8.5.8 1z"/></g><path class="st9" d="M184.7 413.7c-.5 14.8-12.8 26.4-27.6 25.9-7.1-.2-13.5-3.2-18.1-7.9 4.1 8.8 13 15.1 23.4 15.4 14.8.5 27.2-11.1 27.6-25.9.3-7.7-2.8-14.7-7.8-19.8 1.7 3.7 2.6 7.9 2.5 12.3z"/></g></g><g id="vert-insur-bbl-customerfirst"><circle class="st46" cx="326" cy="304.6" r="106.6" id="Layer_3_19_"/><circle class="st0" cx="326" cy="304.6" r="100.2"/><path class="st47" d="M332.6 309.2c0-9.3-6.2-8.3-6.2-8.3s-6.2-1-6.2 8.3c0 7.2-8.2 12.7 6.2 12.7 14.3 0 6.2-5.5 6.2-12.7z"/><path class="st47" d="M319.5 315.7s-14.7 1.9-17.1 3.3.4 18.9 23.9 19c31.3.1 23.9-16.9 25.5-18s-26.1-5.8-26.1-5.8l-6.2 1.5zM325.6 310.5c-14.1 0-23.1-11.6-19.2-46.1 1-9.3 19.2-8.9 19.2-8.9s17.8-.3 19.2 8.9c5 32.1-5.1 46.1-19.2 46.1z"/><circle class="st12" cx="334.7" cy="278.7" r="2"/><path class="st13" d="M351.9 274.8c0 5.7.3 10.3-3.8 10.3s-1.6-4.6-1.6-10.3.8-6.2 1.6-6.2 3.8.5 3.8 6.2z"/><circle class="st12" cx="316.5" cy="278.7" r="2"/><path d="M320.5 287.1c.2 4.7 3.9 7.4 5.1 7.4s4.9-2.7 5.1-7.4c0 0-3.2 3.1-5.1 3.1-1.8 0-5.1-3.1-5.1-3.1zM320.1 309.2l-.5 4.4s4.7 3.2 6.9 3.2c1.9 0 5.9 0 7-2.7.6-1.5-1.1-3.2-1-4.8 0 0-3.8 1-6.9 1s-5.5-1.1-5.5-1.1z" class="st9"/><path class="st13" d="M299.4 274.8c0 5.7-.3 10.3 3.8 10.3s1.6-4.6 1.6-10.3-.8-6.2-1.6-6.2-3.8.5-3.8 6.2z"/><path d="M305.5 270.6s4.8 1 13 .5c9.6-.4 11.7-5.2 18.2-2.8s5.6 3.5 8 4.2c2.4.8 0 0 0 0v-18.7l-39.5 9.1.3 7.7z" class="st9"/><g><path d="M356.9 287.1c2.5-12.3-1.4-23.1-9.5-33.6-3.9-6.4-.7-13.4-18.1-14.2-5.5-.3-10-.1-25.2 6.5s-13.1 33.4-9.3 43.1c3.7 9.7 7.6 12.3 21.7 14.2 0 0-7.2-4.6-8.4-9.9-1.2-5.7-3.6-27.3-1.2-26.7 17.6 3.5 32-11.1 34.4-2.9.5 1.9 1.2 7.7 2.3 10.2 0 0-2.9 13.1-2 18.9 1 5.8-6.9 11.7-6.9 11.7s18.7.6 22.2-17.3z"/></g><g class="st42"><path class="st19" d="M297 259s1.4-6.6 5.9-9.1 19-7.5 19-7.5 2.9 4.9-1.5 7.2c-4.3 2.3-11.2-.7-15.8 4.2-3.2 3.7-4.2 6.6-7.6 5.2z"/></g><path class="st22" d="M365.6 322.9c-.7-1.8-16.7-6.1-16.7-6.1s-4.4 9.8-12.2 13.7c-7.8 4-13.6 4.4-22.1 0-8.4-4.4-9.8-13.7-9.8-13.7s-11.5 2.8-12.5 4.2c-1 1.4 12.5 46.2 12.5 46.2l-3.5 38.7c7.9 1.9 16.2 2.9 24.7 2.9 10.4 0 20.5-1.5 30-4.4-.8-29.5-.8-30.3-1-36.1-.1-6.9 11.3-43.6 10.6-45.4z"/><g><path d="M378.6 367c-.8-4.1-11.9-42-13.2-43.7-1.4-1.9-8.1-6.3-8.1-6.3s-14.5 54-15.7 56c-2.2 3.7-1.2 20.1.1 34.6 5.2-.8 10.3-2 15.2-3.5-.8-5.3-1.5-11.2-1.8-17.3-.6-11.3 5.4-23.7 5.5-23.8.2-.2 7.6 13.2 7.7 17.5.1 1.7.6 9.7 1.3 18.7 3.9-1.8 7.6-3.8 11.2-6-.9-12.8-1.9-24.4-2.2-26.2zM299.3 317s-9 4.5-10.4 6.2c-1.4 1.7-10.6 36.6-11.3 40.7-.4 1.9-1.8 16.4-3.3 31.2 3.7 2.1 7.5 4 11.4 5.6 1.1-9.7 2-18.5 2.1-20.2.1-4.3 5.7-17.7 5.9-17.5.1.1 6.1 12.6 5.5 23.8-.3 6.4-1.1 12.5-1.9 18 4.9 1.4 10 2.5 15.3 3.1 1.3-14.6 2.4-31.3.2-34.9-1.3-2-13.5-56-13.5-56z"/></g><path class="st9" d="M326 408.8c8.7 0 17.1-1.1 25.1-3.1-.6-15.8-1.5-34.3-2.4-33.1-1.6 2.2-38.8 1.4-38.8 1.4l-3.1 33c6.3 1.2 12.7 1.8 19.2 1.8z"/><g><path transform="rotate(42.597 265.064 347.476)" class="st48" d="M258.7 327.2h12.7v40.6h-12.7z"/><path class="st49" d="M259.2 336.9l16.8 15.4-16.3 18.3-16.8-15.4z"/><path class="st10" d="M324.2 354.8c-39.5 0-71.6-32.1-71.6-71.6s32.1-71.6 71.6-71.6 71.6 32.1 71.6 71.6-32.1 71.6-71.6 71.6zm0-133.9c-34.3 0-62.2 27.9-62.2 62.2s27.9 62.2 62.2 62.2 62.2-27.9 62.2-62.2-27.9-62.2-62.2-62.2z"/><path class="st50" d="M324.2 351.3c-37.6 0-68.2-30.6-68.2-68.2s30.6-68.2 68.2-68.2 68.2 30.6 68.2 68.2-30.6 68.2-68.2 68.2zm0-127c-32.4 0-58.8 26.4-58.8 58.8s26.4 58.8 58.8 58.8 58.8-26.4 58.8-58.8-26.4-58.8-58.8-58.8z"/><path class="st51 st19" d="M278.6 287.7c7-29.7 36.6-48.2 66.4-41.3 14.3 3.3 26 11.9 33.5 23.3-4.8-19.5-20.2-35.7-41.1-40.6-29.7-7-59.4 11.5-66.4 41.3-3.6 15.4-.3 30.8 7.8 43.1-2.1-8.2-2.3-17-.2-25.8z"/></g><path d="M244.2 347.4l-8.4 9.2c5.2 9.1 11.8 17.3 19.4 24.3l11.7-12.7-22.7-20.8z"/></g><g id="vert-insur-bbl-emergingtech"><circle class="st52" cx="454.9" cy="444.4" r="75.6"/><path class="st54" d="M396.7 397h43.2v76.5h-43.2z"/><path class="st55" d="M419 434.9h14.7v29.5H419z"/><path class="st54" d="M421 437h10.8v25.2H421z"/><path class="st14" d="M424.7 457.7v-16.8h3.7l1.6-2h-7.4v21.2z"/><g><path class="st55" d="M400.7 434.9h14.7v29.5h-14.7z"/><path class="st54" d="M402.6 437h10.8v25.2h-10.8z"/><path class="st14" d="M406.2 457.7v-16.8h3.8l1.6-2h-7.4v21.2z"/></g><g><path class="st55" d="M419 402.5h14.7V432H419z"/><path class="st54" d="M421 404.6h10.8v25.2H421z"/><path class="st14" d="M424.7 425.3v-16.8h3.7l1.6-2h-7.4v21.3z"/><g><path class="st55" d="M400.7 402.5h14.7V432h-14.7z"/><path class="st54" d="M402.6 404.6h10.8v25.2h-10.8z"/><path class="st14" d="M406.2 425.3v-16.8h3.8l1.6-2h-7.4v21.3z"/></g></g><path class="st9" d="M440.1 472.9h-43.2l3.8-4.4 35.6-.2-.2-29.4h-14.6l.3 29.6-5.9.1v-29.5l5.5-6.9H436l.1-29.6 4-5.7z"/><circle cx="435.4" cy="435.7" r="1.9"/><g><path class="st56" d="M438.1 399.6c0 2.8-2.3 5.1-5.1 5.1M444.7 399.4c0 3-1.2 5.8-3.1 7.9-2.1 2.3-5.2 3.8-8.7 3.8M451.3 399.2c0 4.8-1.9 9.1-4.8 12.4-3.4 3.6-8.2 6-13.5 6"/><path class="st56" d="M458 399.1c0 6.5-2.5 12.4-6.5 16.8-4.6 5-11.1 8.1-18.4 8.1"/></g><path class="st25" d="M432.8 401h-7.6c-.6 0-1.1-.5-1.1-1.1v-.1c0-.6.5-1.1 1.1-1.1h7.6c.6 0 1.1.5 1.1 1.1v.1c-.1.6-.6 1.1-1.1 1.1z"/><g><path d="M510.8 484.4s-.6 0-4-.5-4.6-4.4-3.9-8.6 3.9-7.3 7.3-6.7c3.3.5 1.2 11.5.6 15.8zM471.7 503.3s-.8-.4-5.1-1c-4.3-.7-5.8-5.2-5-10.6s5-9.3 9.3-8.6c4.3.6 1.6 14.7.8 20.2z"/><path class="st30" d="M422.5 485.5s1.5 4.8 9.5 7.5c7.9 2.7 25.7 4.1 25.7 4.1s4.6-20.7 6.7-25.2c0 0-12.2-1-21.1-3.8-6.7-2.1-10.8-7.2-10.8-7.2s-6.7 9.7-10 24.6z"/><path d="M432.5 461s2.9 4.4 10.8 7.2c7.9 2.7 21.1 3.8 21.1 3.8s10.1-17.9 12.9-20.4c2.7-2.4-8-2.6-16.9-5.3-8.9-2.7-9.2-5.1-9.2-5.1s-12.4 4.5-18.7 19.8z"/><path class="st30" d="M478.1 435.1c10 0 25.5 7.9 25.5 7.9s-24.4 6.5-25.9 7.1-8.4-1.2-17.3-3.9-9.2-5.1-9.2-5.1 16.9-6 26.9-6z"/><path class="st19" d="M518.2 475.1l-60.5 22s4.6-20.7 6.7-25.2c0 0 9.5-19.9 12.4-21.7 5.8-3.6 24.2-8.8 26.9-7.2 2.7 1.6 17.8 17.1 14.5 32.1z"/><ellipse transform="scale(-1) rotate(8.534 6613.604 -6342.05)" cx="473.2" cy="493.5" rx="7.9" ry="9.9"/><ellipse transform="scale(-1) rotate(8.534 6618.343 -6345.407)" class="st57" cx="473.5" cy="493.8" rx="4.4" ry="6.2"/><ellipse transform="scale(-1) rotate(8.534 6618.343 -6345.407)" class="st30" cx="473.5" cy="493.8" rx="3.6" ry="5"/><path class="st20" d="M476.3 492.2c-.3.3-.7.2-.9-.1-.2-.4-.2-.8.1-1.1.3-.3.7-.2.9.1.2.4.1.8-.1 1.1zM476.3 495.3c-.4-.1-.6-.5-.5-1 .1-.4.4-.7.8-.6s.6.5.5 1c-.2.5-.5.7-.8.6zM474.3 497.2c-.2-.4 0-.9.3-1.1s.7 0 .8.4c.2.4 0 .9-.3 1.1s-.6 0-.8-.4zM471.9 496.5c.2-.4.5-.6.8-.4s.5.7.3 1.1-.5.6-.8.4-.4-.7-.3-1.1zM470.9 493.7c.4-.1.7.2.8.6.1.4-.2.9-.5 1-.4.1-.7-.2-.8-.6s.2-.9.5-1zM472 490.9c.3.3.3.8.1 1.1-.2.4-.6.4-.9.1s-.3-.8-.1-1.1c.2-.3.6-.4.9-.1z"/><ellipse class="st20" cx="473.7" cy="490.2" rx=".6" ry=".8"/><ellipse transform="matrix(-1 .0064 -.0064 -1 950.81 984.507)" class="st33" cx="473.8" cy="493.8" rx="1.5" ry="2.1"/><ellipse transform="scale(-1) rotate(8.534 6390.04 -6860.547)" cx="511.9" cy="476.8" rx="6.2" ry="7.8"/><ellipse transform="scale(-1) rotate(8.534 6387.656 -6869.058)" class="st57" cx="512.5" cy="476.6" rx="3.4" ry="4.8"/><ellipse transform="scale(-1) rotate(8.534 6387.656 -6869.058)" class="st30" cx="512.5" cy="476.6" rx="2.8" ry="4"/><path class="st20" d="M514.7 475.4c-.2.2-.5.2-.7-.1-.2-.3-.2-.7.1-.9.2-.2.5-.2.7.1.2.3.1.6-.1.9zM514.7 477.8c-.3-.1-.4-.4-.4-.8.1-.4.3-.6.6-.5.3.1.4.4.4.8s-.3.6-.6.5zM513.2 479.3c-.1-.3 0-.7.2-.8.3-.2.6 0 .7.3s0 .7-.2.8c-.3.2-.6 0-.7-.3zM511.3 478.7c.1-.3.4-.5.7-.3.3.2.4.5.2.8-.1.3-.4.5-.7.3-.2-.1-.3-.4-.2-.8zM510.5 476.5c.3-.1.5.2.6.5s-.1.7-.4.8c-.3.1-.5-.2-.6-.5s.2-.7.4-.8zM511.3 474.4c.2.2.3.6.1.9-.2.3-.5.3-.7.1-.2-.2-.3-.6-.1-.9.2-.3.5-.4.7-.1z"/><ellipse class="st20" cx="512.7" cy="473.9" rx=".5" ry=".6"/><ellipse transform="matrix(-1 .0064 -.0064 -1 1028.641 950.013)" class="st33" cx="512.8" cy="476.7" rx="1.2" ry="1.6"/><path d="M478.7 468s-.6-10.7 6.1-16.2c5.1-4.2 14-5 17.9-3s4.4 11.9 4.4 11.9l-28.4 7.3z"/><path class="st30" d="M507.1 460.7s-1.2 13.8-5.6 17.2c-4.5 3.4-12.1 5.2-16.3 5.1-2.8-.1-6.4-15-6.4-15l28.3-7.3zM465.2 494.5c0-.7 0-1.5.2-2.2.8-5.4 5-9.3 9.3-8.6 2.6.4 5 2.7 6.1 5.4l2.3-1.2c-1.3-4-4.3-7-8.2-7.6-6-.9-11.4 4.1-12.5 11.5-.2 1.2-.2 2.3-.2 3.4l3-.7z"/><path class="st30" d="M506 479.7c0-.7-.4-9.5 7.3-10 2.6-.2 3.8 2.8 4.9 5.5l2.1-1.2c-1.2-3.4-1.6-6.7-4.9-6.7-11.4-.1-11.2 12.1-11.1 13.1l1.7-.7z"/><path class="st57" d="M482.9 465.3s0-7.4 4.2-10.9c3.2-2.7 10.9-3.8 13.3-2.6 2.4 1.2 3.1 8.2 3.1 8.2l-20.6 5.3z"/><g><path class="st58" d="M453.3 480.6c.6-1.5 4.2-.9 4.4.9s-.8 6.3-1.2 7.4c-.9 2.2-4.2 2.4-4.5 0-.3-2.4.7-6.8 1.3-8.3z"/><path class="st34" d="M453.6 483.8c.7-.6 2.2-.5 2.3.5.1.9-.1 1.6-.3 2.1-.5 1.1-2.2 1.2-2.3 0-.1-1.2.3-2.6.3-2.6z"/></g><g><path class="st58" d="M425.2 481.3c-.2 1.4 2.9 2.3 3.7 1 .8-1.3 1.9-5.2 1.9-6.1.2-2.1-2.3-3.4-3.4-1.8s-2 5.5-2.2 6.9z"/><path class="st34" d="M426.8 478.9c.3.7 1.5 1.2 1.9.5s.6-1.2.6-1.7c.1-1.1-1.2-1.8-1.8-.9-.6.9-.7 2.1-.7 2.1z"/></g><path class="st34" d="M434.8 459.6c-.2.4 2.2 3.1 10.1 5.3 7.9 2.2 18 4.1 18.3 3.4.4-.7 8.3-15.5 8.7-16 .4-.5-9.2-1.3-15.1-4.6-2.7-1.4-3.9-1.5-6.5-3.3-.9-.6-4.7 1.6-9.5 6.8-3.4 3.7-5.7 8-6 8.4z"/><path class="st9" d="M433.8 460.3c.3.1 2.1 4.9 4.7 2.2 11.3-12.1 34-11.2 34-11.2l-22.8-8.6-8.7 6.8-7.2 10.8zM479.7 466.8s-.4-9.4 4.7-13.6c3.9-3.2 13.2-4.7 16.2-3.1l3.2 3.4c-2.4-1.2-10.1-.1-13.3 2.6-4.2 3.4-4.7 9.7-4.7 9.7l-6.1 1z"/><ellipse class="st25" cx="473.5" cy="436.2" rx="3" ry="4"/><path d="M505.7 444.6s4.1 10.2 6 10c1.9-.2 2.4-2.9 2.1-3.7-.4-.7-6.8-9-8.1-6.3z"/><path class="st59" d="M498.3 466.8l4.4-1"/><path d="M476.4 436.7c-.2.8-1.4 1.4-2.9 1.4s-2.7-.6-2.9-1.4c-1 .5-1.6 1.1-1.6 1.9 0 1.3 2 2.5 4.4 2.5 2.5 0 4.4-1.1 4.4-2.5.2-.7-.4-1.4-1.4-1.9z"/></g><g><path class="st56" d="M466.8 433.8c0-2.1 1.7-3.8 3.8-3.8M461.9 434c0-2.3.9-4.4 2.3-5.9 1.6-1.8 3.9-2.9 6.5-2.9M456.9 434.1c0-3.6 1.4-6.8 3.6-9.3 2.5-2.7 6.1-4.5 10.1-4.5"/><path class="st56" d="M451.9 434.2c0-4.9 1.9-9.3 4.9-12.6 3.4-3.8 8.3-6.1 13.8-6.1"/></g></g><g id="vert-insur-bbl-hacking"><circle class="st60" cx="547.9" cy="272.8" r="98.6" id="Layer_3_15_"/><path class="st61" d="M599.7 206.2l-47.9-17c-3.7-1.3-7.8.7-9.1 4.3l-33.5 97.3c-1.3 3.7.7 7.8 4.3 9.1l45.8 16.5c3.7 1.3 7.8-.7 9.1-4.3l35.7-96.8c1.2-3.7-.7-7.8-4.4-9.1z"/><path class="st62" d="M546.8 201l49.2 17.5c.8.3 1.2 1.1.9 1.9l-27.5 77.5c-.3.8-1.1 1.2-1.9.9l-49.1-18c-.8-.3-1.2-1.1-.9-1.9l27.3-77c.3-.8 1.2-1.2 2-.9z"/><path class="st63" d="M578.6 205.7c-.3.7-1 1.1-1.7.8l-7.6-2.7c-.7-.3-1.1-1-.8-1.7.3-.7 1-1.1 1.7-.8l7.6 2.7c.7.3 1 1.1.8 1.7zM544.8 300.6c-1 2.8-3.4 4.5-6.2 3.5-2.8-1-4.9-4.2-3.9-7s4.2-4.2 7-3.2 4.1 3.9 3.1 6.7z"/><path d="M590.1 235.4l-47.3-16.8 4.2-13.1 48 17.5z" class="st64"/><path class="st65" d="M589.6 234.5l-47.3-16.8 4.3-13.2 48 17.5z"/><path d="M549.3 217.1l-2.4-5c-.1-.1 0-.2.1-.2l5-2.3c.1-.1.2 0 .2.1l.7 1.5c.1.1 0 .2-.1.2l-3.4 1.6 1.6 3.4c.1.1 0 .2-.1.2l-1.5.7h-.1c.1-.2 0-.2 0-.2z" class="st66"/><path d="M578 263.6l-44.6-15.9 8.7-25.1 45.3 16z" class="st64"/><path class="st23" d="M577.5 262.6l-44.6-15.8 8.7-25.2 45.3 16z"/><g class="st64"><path d="M565 290.2l.6-1.6.6.2.3-.6 1.6.6-.9 2.2zM528 277l.6-1.6 2.6.9-.6 1.6-2.6-.9zm5.3 1.9l.6-1.6 2.6.9-.6 1.6-2.6-.9zm5.3 1.9l.6-1.6 2.6.9-.6 1.6-2.6-.9zm5.3 1.8l.6-1.6 2.6.9-.6 1.6-2.6-.9zm5.3 1.9l.6-1.6 2.6.9-.6 1.6-2.6-.9zm5.3 1.9l.6-1.6 2.6.9-.6 1.6-2.6-.9zm5.3 1.9l.6-1.6 2.6.9-.6 1.6-2.6-.9zM523.2 275.3l.7-2.3 1.7.7-.2.6.6.2-.6 1.6zM524.8 270.4l.9-2.6 1.7.5-.9 2.6-1.7-.5zm1.8-5.2l.9-2.6 1.7.5-.9 2.6-1.7-.5zm1.8-5.2l.9-2.6 1.7.5-.9 2.6-1.7-.5zM530.2 254.7l.8-2.2 2.2.7-.6 1.7-.5-.2-.2.6zM535.3 255.9l.6-1.6 2.7.9-.6 1.6-2.7-.9zm5.4 1.9l.6-1.6 2.7.9-.6 1.6-2.7-.9zm5.4 1.9l.6-1.6 2.7.9-.6 1.6-2.7-.9zm5.4 1.9l.6-1.6 2.7.9-.6 1.6-2.7-.9zm5.3 1.9l.6-1.6 2.7.9-.6 1.6-2.7-.9zm5.4 1.9l.6-1.6 2.7.9-.6 1.6-2.7-.9zm5.4 1.9l.6-1.6 2.7.9-.6 1.6-2.7-.9zM575 270.6l-1.6-.6.2-.6-.6-.2.6-1.6 2.2.8zM569.1 286.1l-1.6-.6 1-2.6 1.6.6-1 2.6zm2-5.1l-1.6-.6 1-2.6 1.6.6-1 2.6zm1.9-5.2l-1.6-.6 1-2.6 1.6.6-1 2.6z"/></g><path d="M572.7 243.1l-30.4-10.8 1.4-5.4 31.1 10.8z" class="st66"/><g class="st66"><path d="M587.9 229.8l-18.1-6.3 1.6-5.4 18.5 6.3z"/></g><g class="st66"><path d="M562.2 244.1l-21.5-7.6.4-2.1 22 7.7z"/></g><g><path class="st64 st19" d="M546.8 201l49.2 17.5c.8.3 1.2 1.1.9 1.9l-22.3 62.9-36.3-62.9 6.6-18.5c.2-.8 1.1-1.2 1.9-.9z"/></g><g class="st66"><path d="M565.7 250.3l-26.5-9.7.5-2 26.8 9.4z"/></g><g class="st66"><path d="M561.7 253.1l-24.5-8.6 1.1-1.9 24 8.5z"/></g><g><path class="st67" d="M621.9 325.6l-10.1-5.8-25.9 1.5c4.2-6 6.6-13.4 6.1-21.3-1.1-18.7-17-33-35.7-31.9-18.6 1.1-32.9 17-31.8 35.6.5 8 3.7 15.2 8.7 20.7l-22.8 1.2.7 12.7 49.1-2.8c1-.1 1.9 0 2.9-.1l49.5-2.8 9.3-7zm-60.2-3.1l-2.3.1c-11.6.7-21.6-8.3-22.3-19.9s8.3-21.6 19.9-22.3c11.6-.7 21.7 8.3 22.3 20 .6 11-7.1 20.3-17.6 22.1z"/><path class="st68" d="M613.3 334.6l-50 2.8c-.3.1-.7.1-1.1.1-.3 0-.7 0-1 .1-.3 0-.6 0-.9.1l-51.2 2.8-.9-17 20.7-1.1c-3.9-5.5-6.2-12-6.6-18.7-1.1-19.8 14.1-36.8 33.9-37.9 19.8-1.1 36.8 14.1 38 34 .4 6.7-1.1 13.2-4.2 19.1l22.4-1.3 13.5 7.9-12.6 9.1zm-100.2 1.3l46.9-2.7c.3 0 .7 0 1-.1.3 0 .6 0 .9-.1.3 0 .5-.1.8-.1h.2l48.8-2.8 6.2-4.6-6.7-3.9-29.7 1.7 2.6-3.6c4.2-5.9 6.1-12.8 5.7-20-1-17.5-16-30.9-33.4-29.9-17.5 1-30.8 16-29.8 33.4.4 7.2 3.3 14.1 8.1 19.4l3 3.4-25.1 1.4.5 8.5zm48.8-11.3l-2.4.1c-12.8.7-23.8-9.1-24.5-21.9s9.1-23.8 21.9-24.5c12.8-.7 23.8 9.1 24.6 22 .3 5.8-1.5 11.4-5.1 15.9-3.6 4.4-8.7 7.4-14.3 8.4h-.2zm-4.8-41.9c-10.4.6-18.4 9.5-17.9 20 .6 10.4 9.5 18.4 20 17.9l2.2-.1c9.5-1.6 16.2-10.1 15.7-19.7-.5-10.7-9.5-18.7-20-18.1z"/><path class="st2" d="M560.1 335.4l-49.1 2.8-.7-12.7 22.8-1.3c-5-5.5-8.3-12.8-8.7-20.7-1.1-18.6 13.2-34.6 31.8-35.6 18.7-1.1 34.6 13.3 35.7 31.9.5 7.9-1.9 15.3-6.1 21.3l27.2-1.5.7 12.8-50.7 2.9c-.9.1-1.9.1-2.9.1zm-3.1-54.9c-11.6.7-20.5 10.7-19.9 22.3.7 11.6 10.7 20.5 22.3 19.9l2.3-.1c10.5-1.7 18.2-11.1 17.6-22-.7-11.8-10.7-20.7-22.3-20.1z"/><path transform="rotate(-3.242 524.665 331.09)" class="st69 st70" d="M511.1 329.8h27.2v2.6h-27.2z"/><path class="st69 st70" d="M613.5 327.3l-53.6 3c-15.8.9-29.4-11.2-30.3-27s11.2-29.4 27-30.3c15.9-.9 29.6 11.2 30.5 27 .5 7.9-2.3 15.5-7.7 21.3l-1.9-1.7c5-5.3 7.4-12.1 7-19.4-.8-14.4-13.3-25.4-27.8-24.6-14.4.8-25.5 13.2-24.6 27.6.8 14.4 13.2 25.5 27.6 24.6l53.6-3 .2 2.5z"/><path d="M570.7 315.8l21.1-1.2s-1.7 4.4-3 5.2l-31.3 1.8c10.9-2.5 13.2-5.8 13.2-5.8z" class="st66"/><path class="st68" d="M612.3 334.4l-51.7 3c-10.1.6-19.6-2.7-26.6-9.1s-11.2-15.5-11.7-25.6l2-.1c.5 9.6 4.5 18.3 11.1 24.3 6.6 6.1 15.6 9.1 25.2 8.6l51.7-3v1.9z"/><path class="st68" d="M612.4 319.7l-52.6 3c-5.9.3-11.5-1.7-15.9-5.9-4-3.9-6.5-9.2-6.8-14.6l2.3-.1c.3 4.8 2.5 9.6 6.1 13.1 3.8 3.7 8.9 5.6 14.2 5.2l52.6-3 .1 2.3z"/><path d="M542.9 338.5l17.5-1c-13 .7-24.8-5.4-31.9-15.2l-5.6.3c4.3 7.5 11.5 13.2 20 15.9z" class="st66"/><path class="st71" d="M613.2 334.6l-2.5-3.7 2.1-4.7-2.7-4.5 2.2-4.2 13.9 7.9z"/><path class="st72" d="M613.2 334.6l-2.5-3.7 2.1-4.7 13.4-.8z"/><path class="st73" d="M619.9 321.8l.4 7.8 5.9-4.2z"/><g><path class="st74" d="M620.1 325.8l.2 3.8 5.9-4.2z"/></g><g><path transform="rotate(176.758 506.449 332.102)" class="st75" d="M501.8 323.6h9.3v17h-9.3z"/><path transform="rotate(-93.239 506.852 337.919)" class="st76 st77" d="M504.1 333.3h5.6v9.3h-5.6z"/><path transform="rotate(-93.239 506.069 324.762)" class="st69 st19" d="M504.9 320.1h2.3v9.3h-2.3z"/><path class="st78" d="M499.9 341.1l2.4-.1-.9-17-2.4.1c-4.2.2-7.3 3.8-7.1 7.9l.1 2c.2 4.1 3.8 7.3 7.9 7.1z"/><path class="st79" d="M498.1 335.6c-2.1.1-4-1.5-4.1-3.6 0 0-.4-5-.4-5.3-1.3.7-2.1 4.2-2 5.8l.5 5.2c.1 2.1 1.9 3.8 4.1 3.6l6-.3-.3-5.6-3.8.2z"/></g></g><g><path class="st77" d="M519.8 286.9l-20.3-11.5c-.5-.3-1-.4-1.5-.3l-3.8.4c-.5.1-15.2-8.5-25.2-14.3-5.1-3-7.2-9.3-4.8-14.7 0 0 .6-1.7 1.5-1.4l59.8 31.5-5.7 10.3z"/><path class="st80" d="M465.7 245.1c-.9-.3-1.5 1.4-1.5 1.4-.1.2-.2.5-.3.7l60.1 31.7 1.4-2.3-59.7-31.5z"/><path class="st81" d="M465.7 245.1c-.3-.1-.5 0-.7.2.1 0 .2 0 .3.1l59.8 31.5.5-.2-59.9-31.6z"/><path class="st69 st19" d="M524.5 276.1l-5.2 9.5-19.7-11.2c-.5-.3-1-.3-1.5-.3l-3.8.4c-.5.1-14.9-8.3-24.6-13.9-5-2.9-7-9.1-4.7-14.4 0 0 .3-.7.7-1.1-.8-.2-1.3 1.4-1.3 1.4-2.3 5.4-.3 11.7 4.8 14.7 9.9 5.8 24.6 14.4 25.2 14.3l3.8-.4c.5-.1 1.1.1 1.5.3l20.2 11.5 5.7-10.3-1.1-.5z"/><path class="st67" d="M528.5 280.1c4.3-2 9.4-.2 11.4 4.1s.2 9.4-4.1 11.4-9.4.2-11.4-4.1-.2-9.4 4.1-11.4m-2.8-5.9c-7.6 3.6-10.8 12.6-7.2 20.2s12.6 10.8 20.2 7.2c7.6-3.6 10.8-12.6 7.2-20.2-3.7-7.6-12.7-10.9-20.2-7.2z"/><path d="M537.6 296.6c4.3-2 6.1-7.1 4.1-11.4-.9-2-2.6-3.5-4.5-4.2 1.1.8 2 1.9 2.7 3.2 2 4.3.2 9.4-4.1 11.4-2.3 1.1-4.8 1.1-6.9.2 2.4 1.7 5.7 2.2 8.7.8z" class="st82"/><path d="M520.9 295.6c-3.5-7.4-.4-16.2 7-19.7 4.1-1.9 8.6-1.8 12.4-.1-4.2-2.8-9.7-3.5-14.6-1.1-7.4 3.5-10.5 12.3-7 19.7 1.5 3.3 4.2 5.8 7.2 7.2-2.1-1.5-3.8-3.6-5-6z" class="st82"/><path class="st83 st81" d="M499.5 262.9l-2.5 12.3 1.1-.1 11.9 6.2 1.8-10.6c.1-.4.3-.8.5-1.1l-12.8-6.7z"/><path class="st75" d="M506.5 293.4l3.9-22.9c.1-.5.3-1 .7-1.4l2.8-2.7c.3-.3 3.1-17.2 4.9-28.5.9-5.8-2.7-11.4-8.3-13.1 0 0-1.7-.7-2 .3L495 291.3l11.5 2.1z"/><g><path class="st77" d="M508.4 225c.3-.9 2-.3 2-.3.2.1.5.1.7.2l-13.5 66.7-2.7-.4 13.5-66.2z"/></g><g><path class="st84" d="M508.4 225c.1-.3.3-.4.6-.5-.1.1-.1.1-.1.3l-13.5 66.3-.5.2 13.5-66.3z"/></g><g class="st69"><path class="st19" d="M495.1 290.2l10.7 1.9 3.8-22.3c.1-.5.3-1 .7-1.3l2.7-2.6c.3-.3 3-16.7 4.8-27.9.9-5.7-2.6-11.1-8.2-12.8 0 0-.7-.3-1.3-.2.4-.7 2-.1 2-.1 5.8 1.5 9.3 7.1 8.4 13-1.8 11.3-4.5 28.2-4.9 28.5l-2.8 2.7c-.4.4-.7.9-.7 1.4l-3.9 22.9-11.6-2.1.3-1.1z"/></g><g><path class="st67" d="M495.7 295.8c4.3-2 9.4-.2 11.4 4.1s.2 9.4-4.1 11.4-9.4.2-11.4-4.1-.2-9.4 4.1-11.4m-2.8-6a15.12 15.12 0 0 0-7.2 20.2c3.6 7.6 12.6 10.8 20.2 7.2 7.6-3.6 10.8-12.6 7.2-20.2-3.6-7.5-12.7-10.8-20.2-7.2z"/></g><g><path d="M502.7 313.3c-4.3 2-9.4.2-11.4-4.1-.9-2-1.1-4.2-.5-6.2-.1 1.4.2 2.8.8 4.1 2 4.3 7.1 6.1 11.4 4.1 2.3-1.1 3.8-3 4.5-5.2-.1 3.1-1.9 5.9-4.8 7.3z" class="st82"/><path d="M512.4 299.7c-3.5-7.4-12.3-10.6-19.7-7.1-4.1 1.9-6.8 5.5-7.9 9.6.5-5 3.5-9.7 8.3-12 7.4-3.5 16.2-.3 19.7 7.1 1.5 3.3 1.8 6.9.9 10.1.3-2.5-.1-5.2-1.3-7.7z" class="st82"/></g><g><g class="st64"><circle cx="505.7" cy="272.8" r="1.7"/><path d="M507.2 273.7c-.2.3-.5.6-.8.8-.9.4-2 .1-2.4-.9-.3-.5-.2-1.1.1-1.7.2-.3.5-.6.8-.8.9-.4 2-.1 2.4.9.2.5.2 1.2-.1 1.7zm-2.9-1.6c-.3.4-.3.9-.1 1.4.3.7 1.3 1.1 2 .7.3-.1.5-.3.7-.7.3-.4.3-.9.1-1.4-.3-.7-1.3-1.1-2-.7-.4.2-.6.4-.7.7z"/></g><circle class="st77" cx="505.2" cy="272.9" r="1.7"/><path class="st85" d="M506.8 273.8c-.2.3-.5.6-.8.8-.9.4-2 .1-2.4-.9-.3-.5-.2-1.1.1-1.7.2-.3.5-.6.8-.8.9-.4 2-.1 2.4.9.2.6.2 1.3-.1 1.7zm-3-1.6c-.3.4-.3.9-.1 1.4.3.7 1.3 1.1 2 .7.3-.1.5-.3.7-.7.3-.4.3-.9.1-1.4-.3-.7-1.3-1.1-2-.7-.3.2-.5.4-.7.7z"/><g class="st69"><path class="st19" d="M506.2 273.3c-.3-.7-1.1-1-1.9-.7-.2.1-.3.2-.5.4 0-.5.3-1.1.8-1.3.7-.3 1.5 0 1.9.7.2.5.1 1.1-.1 1.5-.1-.3-.1-.5-.2-.6z"/></g></g></g></g><g id="vert-insur-bbl-onlinesec"><circle class="st86" cx="404.8" cy="102" r="103.6" id="Layer_3_17_"/><circle class="st19" cx="351.2" cy="110.2" r="37"/><circle class="st19" cx="458" cy="110.2" r="37"/><circle class="st19" cx="388" cy="80.6" r="48.9"/><circle class="st19" cx="436.4" cy="73.5" r="31.6"/><path class="st19" d="M351.2 107.7h106.9v39.5H351.2z"/><defs><circle id="SVGID_21_" cx="434.2" cy="75.2" r="27.2"/></defs><clipPath id="SVGID_22_"><use xlink:href="#SVGID_21_" overflow="visible"/></clipPath><path class="st87 st23" d="M398.6 37.8h69.5v77.5h-69.5z"/><path d="M424 66.5c0-.4.1-.8.1-1.5h-.8c-.2 0-.4-.2-.4-.4l.1-.4c0-.2.3-.4.5-.4h.9c.9-3.5 3.2-6.4 7.3-6.4 1.8 0 3.2.4 4.3 1.8.1.2.1.4-.1.7l-1.6 2c-.1.2-.4.1-.6 0-.6-.7-1.3-1-2.2-1-1.3 0-2.8 1-3.4 3h4.7c.3 0 .4.2.4.4l-.1.4c0 .2-.3.4-.5.4h-4.7c-.1.6-.1 1.1-.2 1.5h3.8c.3 0 .4.2.4.4l-.1.4c0 .2-.3.4-.5.4h-3.6c.1 1.3.8 2.2 2.5 2.2.9 0 1.6-.4 2.3-1 .2-.1.4-.2.6 0l1.3 2.2c.1.2.1.5-.1.6-1.3 1.1-2.8 1.8-4.6 1.8-3.1 0-5.5-2.1-5.8-5.8h-1.1c-.2 0-.4-.2-.4-.4l.1-.4c0-.2.3-.4.5-.4l1-.1z" class="st64"/><path class="st16" d="M421.1 93.9c1.3-2.2 1.6-4.2 1.6-5.9h-.9c-.2 0-.4-.2-.4-.4l.1-.4c0-.2.2-.4.5-.4h.6c-.1-.8-.1-1.8-.1-2.5 0-3.9 2-6.1 5.2-6.1 1.8 0 3.1 1.1 3.6 1.7.1.1.1.4-.1.6l-1.4 1.7c-.2.2-.5.1-.6 0-.3-.3-.9-.8-1.7-.8-.7 0-1.3.7-1.3 2 0 .6.3 1.8.4 3.3h1.6c.2 0 .4.2.4.4l-.1.4c0 .2-.2.4-.5.4h-1.5c-.1 1.1-.3 2.3-.6 3.7h3.2c.2 0 .4.2.3.4l-.3 2.3c-.1.2-.2.4-.4.4h-7.3c-.2 0-.4-.2-.4-.4l.1-.4zM438.4 87.1l1.3-1.8c.2-.3.6-.3.8-.1.4.4 1.1 1 2.3 1.1l.5-3.6c-1.5-1.2-3.7-2.5-3.7-5 0-2.4 1.6-4.8 5.1-4.9l.1-.8c.1-.3.3-.4.5-.4h.2c.2 0 .4.2.4.4l-.1.8c1.9.2 3.3 1.2 3.9 1.7.2.2.4.6.1.8l-1.4 1.8c-.2.2-.6.3-.8.1-.4-.4-1.2-.8-2.3-1.1l-.5 3.2c1.3 1 3.9 2.4 3.9 5.3 0 2.6-1.8 5.1-5.5 5.3l-.4 2.5c0 .2-.3.4-.5.4h-.2c-.2 0-.4-.2-.4-.4l.4-2.5c-2.1-.2-3.5-1.4-3.9-1.8 0-.6-.1-.7.2-1zm5.9-11.4c-.8.1-1.1.8-1.1 1.3 0 .6.2 1 .7 1.4l.4-2.7zm.6 9c0-.6-.3-1.1-.7-1.5l-.4 3.1c.6-.2 1.1-.8 1.1-1.6z"/><path class="st19" d="M422.9 65.4c0-.4.1-.8.1-1.5h-.8c-.2 0-.4-.2-.4-.4l.1-.4c0-.2.3-.4.5-.4h.9c.9-3.5 3.2-6.4 7.3-6.4 1.8 0 3.2.4 4.3 1.8.1.2.1.4-.1.7l-1.6 2c-.1.2-.4.1-.6 0-.6-.7-1.3-1-2.2-1-1.3 0-2.8 1-3.4 3h4.7c.2 0 .4.2.4.4l-.1.4c0 .2-.3.4-.5.4h-4.7c-.1.6-.1 1.1-.2 1.5h3.8c.3 0 .4.2.4.4l-.1.4c0 .2-.3.4-.5.4h-3.6c.1 1.3.8 2.2 2.5 2.2.9 0 1.6-.4 2.3-1 .2-.1.4-.2.6 0l1.3 2.2c.1.2.1.5-.1.6-1.3 1.1-2.8 1.8-4.6 1.8-3.1 0-5.5-2.1-5.8-5.8h-1.1c-.2 0-.4-.2-.4-.4l.1-.4c0-.2.3-.4.5-.4l1-.1zM420.2 92.9c1.3-2.2 1.6-4.2 1.6-5.9h-.9c-.2 0-.4-.2-.4-.4l.1-.4c0-.2.2-.4.5-.4h.6c-.1-.8-.1-1.8-.1-2.5 0-3.9 2-6.1 5.2-6.1 1.8 0 3.1 1.1 3.6 1.7.1.1.1.4-.1.6l-1.4 1.7c-.2.2-.5.1-.6 0-.3-.3-.9-.8-1.7-.8-.7 0-1.3.7-1.3 2 0 .6.3 1.8.4 3.3h1.6c.2 0 .4.2.4.4l-.1.4c0 .2-.2.4-.5.4h-1.5c-.1 1.1-.3 2.3-.6 3.7h3.2c.2 0 .4.2.3.4l-.3 2.3c-.1.2-.2.4-.4.4h-7.3c-.2 0-.4-.2-.4-.4l.1-.4zM437.4 86l1.3-1.8c.2-.3.6-.3.8-.1.4.4 1.1 1 2.3 1.1l.5-3.6c-1.5-1.2-3.7-2.5-3.7-5 0-2.4 1.6-4.8 5.1-4.9l.1-.8c.1-.3.3-.4.5-.4h.2c.2 0 .4.2.4.4l-.1.8c1.9.2 3.3 1.2 3.9 1.7.2.2.4.6.1.8l-1.4 1.8c-.2.2-.6.3-.8.1-.4-.4-1.2-.8-2.3-1.1l-.5 3.2c1.3 1 3.9 2.4 3.9 5.3 0 2.6-1.8 5.1-5.5 5.3l-.4 2.5c0 .2-.3.4-.5.4h-.2c-.2 0-.4-.2-.4-.4l.4-2.5c-2.1-.2-3.5-1.4-3.9-1.8 0-.6-.1-.7.2-1zm5.8-11.4c-.8.1-1.1.8-1.1 1.3 0 .6.2 1 .7 1.4l.4-2.7zm.7 9c0-.6-.3-1.1-.7-1.5l-.4 3.1c.6-.1 1.1-.7 1.1-1.6z"/><g><defs><circle id="SVGID_23_" cx="386.7" cy="77.8" r="39.1"/></defs><clipPath id="SVGID_24_"><use xlink:href="#SVGID_23_" overflow="visible"/></clipPath><path class="st88 st22" d="M335.4 23.9h100.2v111.8H335.4z"/><path class="st89" d="M390.6 53.7c12.1 0 19.3 8.5 19.3 20.4 0 8.4-4.4 19-14.5 19-3.4 0-4.8-2-5.4-4.3h-.4c-1.4 2.3-4 4.3-7.2 4.3-4.8 0-7.7-4.8-7.7-9.9 0-7 5.1-13 11.1-13 4.2 0 5.7 3.4 5.7 3.4l.9-2c.4-.6.7-.8 1.2-.8h2.3c.5 0 .8.4.8 1.1l-1.3 9.2c-.6 4.8.8 5.4 1.8 5.4 3.5 0 5-7.5 5-12 0-7.7-4-13.7-12.8-13.7-11.6 0-19.7 9.2-19.7 22.4 0 6.8 3.4 13 8.7 15.7.4.2.6.8.4 1.3l-2.3 4.5c-.4.6-.8.8-1.3.6-7.5-3-12.8-12.2-12.8-21.4.2-17.3 12.1-30.2 28.2-30.2zM384 86c1.7 0 3.8-2.3 3.8-5.7.1-2.5-1.3-3.7-2.8-3.7-1.8 0-3.7 2.6-3.7 6.1.1 1.9 1.3 3.3 2.7 3.3z"/><path class="st57" d="M387.6 52c12.1 0 19.3 8.5 19.3 20.4 0 8.4-4.4 19-14.5 19-3.4 0-4.8-2-5.4-4.3h-.4c-1.4 2.3-4 4.3-7.2 4.3-4.8 0-7.7-4.8-7.7-9.9 0-7 5.1-13 11.1-13 4.2 0 5.7 3.4 5.7 3.4l.9-2c.4-.6.7-.8 1.2-.8h2.3c.5 0 .8.4.8 1.1l-1.3 9.2c-.6 4.8.8 5.4 1.8 5.4 3.5 0 5-7.5 5-12 0-7.7-4-13.7-12.8-13.7-11.6 0-19.7 9.2-19.7 22.4 0 6.8 3.4 13 8.7 15.7.4.2.6.8.4 1.3l-2.3 4.5c-.4.6-.8.8-1.3.6-7.5-3-12.8-12.2-12.8-21.4.2-17.3 12-30.2 28.2-30.2zM381 84.3c1.7 0 3.8-2.3 3.8-5.7.1-2.5-1.3-3.7-2.8-3.7-1.8 0-3.7 2.6-3.7 6.1.1 1.9 1.3 3.3 2.7 3.3z"/></g><g><defs><circle id="SVGID_25_" cx="460.5" cy="110.5" r="31.5"/></defs><clipPath id="SVGID_26_"><use xlink:href="#SVGID_25_" overflow="visible"/></clipPath><path class="st90 st7" d="M419.2 67.1h80.5V157h-80.5z"/><g><path class="st29" d="M478 119l.6.4 7.6-19.6c.1-.4 0-.9-.4-1.1l-.5-.4L478 119zM435.3 120.4l25 6.1c1.3.3 2.8.1 4-.4l13.5-6.7v1.6c0 .6-.4 1.1-.9 1.4l-12.6 5.8c-1.3.6-2.7.7-4 .4l-24-5.4c-.6-.1-1-.6-1-1.2v-1.6z"/><path class="st19" d="M464.3 126.1l13.1-6.1c.6-.2.5-1.1-.1-1.2l-26.3-6c-.1 0-.3 0-.4.1l-14.9 6.9c-.6.2-.5 1.1.1 1.2l24.5 5.6c1.3.1 2.7 0 4-.5z"/><path class="st19" d="M464.3 126.1l13.1-6.1c.6-.2.5-1.1-.1-1.2l-26.3-6c-.1 0-.3 0-.4.1l-14.9 6.9c-.6.2-.5 1.1.1 1.2l24.5 5.6c1.3.1 2.7 0 4-.5z"/><path class="st19" d="M478 119l-27.2-6.3 7.9-20c.1-.4.5-.5.8-.4l25.7 5.9c.5.1.8.6.6 1.1L478 119z"/><path class="st25" d="M476.7 117.1l-23.5-5.3 7.1-17.7 23.4 5.4z"/><ellipse class="st19" cx="478.3" cy="119" rx=".6" ry=".8"/><path class="st19" d="M476.3 117.8l2 .5-.1 1.5-2-.5z"/><ellipse class="st25" cx="478.3" cy="119" rx=".4" ry=".5"/><path class="st30" d="M455 118.1l3.1.7 2.5-1.2-3.1-.7zM458.5 118.8l3 .7 2.5-1.2-3.1-.6zM461.8 119.6l3.1.6 2.6-1.1-3.1-.6zM448.2 116.5l3 .7 2.5-1.1-3-.7zM451.5 117.3l3.1.7 2.6-1.1-3.1-.7zM471.4 118.5l-3.1-.7-1.9.8 3.1.7zM467.9 117.7l-3-.7-1.9.8 3.1.8zM461.1 116.2l-3.1-.7-1.9.9 3.1.6zM457.6 115.4l-3.1-.6-1.8.8 3.1.7zM464.5 116.9l-3.1-.6-1.8.8 3 .7zM465.3 120.3l3.1.7 2.5-1.1-3.1-.7zM449.4 120.6l3.1.7 2.5-1.1-3-.7zM452.8 121.4l3.1.7 2.6-1.1-3.1-.8zM456.3 122.1l3.1.8 2.4-1.2-3-.7zM442.6 119.1l3 .7 2.6-1.2-3.1-.6zM446 119.9l3.1.6 2.5-1.1-3.1-.6zM459.7 122.9l3.1.7 2.5-1.1-3.1-.7zM475 119.3l-3.3-.7-1.9.8 3.3.7zM452.3 115.5l1.9-.8-3.2-.7-1.7.8zM443.6 117.4l3 .7 2.5-1.2-3-.7zM447 118.1l3.1.7 2.5-1.1-3.1-.7zM457.3 120.5l3.1.6 2.5-1.1-3.1-.7zM460.7 123.3l-3.1-.7-2.2 1.1 3.1.7zM455 123.6l2.3-1-10.1-2.3-2.1 1zM444.7 121.2l2.2-1-3.1-.7-2.1 1zM466.4 120.7l-3.2-.7-2.4 1.2 3.1.7zM450.4 118.9l3.1.7 2.6-1.1-3.1-.7zM453.9 119.7l3.1.7 2.4-1.1-3-.7zM466.7 120.8l-2.5 1.1 3.1.7 2.6-1.1z"/><path class="st14" d="M457 102.4l3.3-8.3 23.4 5.4z"/><path class="st16" d="M464.3 126.1l13.1-6.1c.6-.2.5-1.1-.1-1.2l-26.3-6c-.1 0-.3 0-.4.1l9.7 13.6c1.3.2 2.7.1 4-.4z"/></g></g><g><defs><circle id="SVGID_27_" cx="351.4" cy="110.5" r="31.5"/></defs><clipPath id="SVGID_28_"><use xlink:href="#SVGID_27_" overflow="visible"/></clipPath><g class="st91"><path class="st2" d="M307.2 69.5h86.3v96.4h-86.3z"/><path class="st10" d="M340 118.8c5.6-2.1 17.9-2.2 20.7-.8 1.6.8 0-8.7 0-8.7l-12.1-7.3-6.8 2.5c.1-.2-3.9 15.1-1.8 14.3z"/><path class="st11" d="M340.9 103.1s.8 5.6.4 7-2 2-2 2 .4.9 1.4.8 3.5-1.3 3.5-1.3l-.6-9.6-2.5-.3v1.4h-.2z"/><path class="st7" d="M330.2 142s-1.7 2.6-1.3 3.4c.4.8-1.8 18.5-1.8 18.5l3.6 2s2.3-17.6 3-19.3 2.3-3.8 2.3-3.8l-5.8-.8zM373.6 142s1.7 2.6 1.3 3.4c-.4.8 1.7 18.5 1.7 18.5l-4 2.3s-2-17.8-2.5-19.5c-.6-1.7-2.3-3.8-2.3-3.8l5.8-.9z"/><path class="st1" d="M347.4 118.1s-9.2 2.5-10.9 3.9c-1.8 1.3-8.2 17.4-8.2 19.5s6.3 3.4 7.6 3.6c1.3.2 3.2-5.1 3.2-5.1l.5 29.3s8 1.8 13 1.6c4.9-.3 12.4-1.8 12.4-1.8l-.8-30.2s2.3 6.3 3 6.2 7.1-2 8.4-2.7c1.2-.7-5.2-19.4-7.1-20.5s-12.6-3.9-14.6-3.9c-2.2.2-6.5.1-6.5.1z"/><path class="st7" d="M354.1 115.9c0-4.2-2.8-3.5-2.8-3.5s-2.8-.7-2.8 3.5c0 3.2-3.7 5.7 2.8 5.7s2.8-2.4 2.8-5.7z"/><path class="st7" d="M348.2 118.9s-4.1.9-5.2 1.6c-1.1.6 3.6 2.7 8 2.7s9.7-2 10.4-2.5-10.4-2.5-10.4-2.5l-2.8.7zM351 116.6c-3.1 0-10.4-6-8.6-21.5.5-4.2 8.6-3.9 8.6-3.9s8-.1 8.6 3.9c2.2 14.4-5.5 21.5-8.6 21.5z"/><circle class="st12" cx="355.1" cy="101.5" r=".8"/><path class="st13" d="M362.7 99.7c0 2.5.1 4.7-1.7 4.7s-.8-2-.8-4.7.4-2.8.8-2.8c.5 0 1.7.2 1.7 2.8z"/><circle class="st12" cx="346.9" cy="101.5" r=".8"/><path class="st9" d="M348.7 105.2c.1 2.1 1.8 3 2.3 3 .6 0 2.2-.9 2.3-3 0 0-1.5 1.4-2.3 1.4-.9 0-2.3-1.4-2.3-1.4zM348.5 115.7l-.2 2.1s2.1 1.4 3.1 1.4c.8 0 2.3-1 2.9-2.3.3-.7-.2-1.1-.1-1.8 0 0-1.7 1.1-3.1 1.1-1.5.1-2.6-.5-2.6-.5z"/><path class="st13" d="M339.2 99.7c0 2.5-.1 4.7 1.7 4.7s.8-2 .8-4.7-.4-2.8-.8-2.8c-.4-.1-1.7.2-1.7 2.8z"/><path class="st9" d="M341.9 97.8s2.2.4 5.9.3c4.3-.2 5.3-2.3 8.2-1.3 2.9 1.1 2.5 1.6 3.6 1.9 1.1.4 0 0 0 0v-8.4l-17.7 4.1v3.4z"/><path class="st11" d="M364.2 114.9c-1.6-2-2.6-3.9-.4-9.2 2.1-5.2.6-10.9-3-15.5-1.8-2.9-.3-6-8.1-6.4-2.5-.1-4.5-.1-11.4 2.9-6.8 3-5.3 14.7-3.5 19 2.2 5.3 1.2 7.3-.4 9.2-1.8 2.3-4.9 1-1.1 3.7 3.7 2.6 10.6-4.2 10.6-4.2s-3.2-3.9-3.7-6.3c-.6-2.6-1.6-12.3-.5-12.1 7.9 1.6 14.4-5 15.4-1.3.3.8.6 3.5 1.1 4.6 0 0-1.3 5.9-.9 8.5s-3.2 6.6-3.2 6.6 6.6 6.9 10.3 4.3c3.8-2.8.7-1.5-1.2-3.8z"/><path class="st14" d="M338.1 92.6s.6-3 2.7-4.1c2-1.1 8.5-3.4 8.5-3.4s1.3 2.2-.6 3.2c-1.9 1.1-5-.3-7.1 1.8-1.5 1.8-1.9 3.1-3.5 2.5z"/><path class="st15" d="M329.6 140.2s5.6-15.8 7-16.6 5.1-2 5.1-2 1 1.7-.6 2.8c-.4.3-2.1.8-2.9 2.3-2.5 4.7-5.5 14.2-6.6 14.7-1.4.6-2-1.2-2-1.2z"/><path class="st16" d="M367.1 145.1s7.4-1.8 8.4-2.7c1.1-.9-4.1-15.9-6.1-19.3-.3-.5-1.8-2.5-1.5 1.3.2 2 1.4 15.7.4 17.4-1.2 1.6-1.2 3.3-1.2 3.3zM364.9 169.1l-.8-30.2s-1.6-.8-2.4 1.3-4.8 30.3-4.8 30.3c4-.3 8-1.4 8-1.4z"/></g></g><g><path class="st92" d="M386.2 107.5V89.9c0-10.3 8.3-18.6 18.6-18.6s18.6 8.3 18.6 18.6v17.6"/><path class="st93" d="M430.2 163.4h-50.7c-2.8 0-4.9-2.2-4.9-4.9v-46.1c0-2.8 2.2-4.9 4.9-4.9h50.6c2.8 0 4.9 2.2 4.9 4.9v46c.1 2.8-2.1 5-4.8 5z"/><circle cx="404.6" cy="128.8" r="8.9"/><path d="M408.9 152.8l-.9-22.6h-7l-.8 22.6z"/><path class="st9" d="M430.6 163.4h-16.2l16.2-55.9c2.5 0 4.5 2 4.5 4.5v46.9c0 2.5-2 4.5-4.5 4.5z"/></g><g><path class="st92" d="M386.2 107.5V89.9c0-10.3 8.3-18.6 18.6-18.6s18.6 8.3 18.6 18.6v17.6"/><path class="st93" d="M430.2 163.4h-50.7c-2.8 0-4.9-2.2-4.9-4.9v-46.1c0-2.8 2.2-4.9 4.9-4.9h50.6c2.8 0 4.9 2.2 4.9 4.9v46c.1 2.8-2.1 5-4.8 5z"/><circle cx="404.6" cy="128.8" r="8.9"/><path d="M408.9 152.8l-.9-22.6h-7l-.8 22.6z"/></g><path class="st14" d="M378.5 153.7V115c0-2.4 1.9-4.3 4.3-4.3l39.8.1s-.4 3.6-2.3 4.1c-1.8.5-35.3-.1-35.7 1.3-1 3-1.5 37.5-1.5 37.5h-4.6z"/><path class="st9" d="M430.5 107.5l-5.6 42c-.5 3.9-3.9 6.8-7.8 6.8h-42.5v2.6c0 2.5 2 4.4 4.4 4.4H430.6c2.4 0 4.4-2 4.4-4.4v-47c0-2.4-1.9-4.4-4.5-4.4z"/></g></svg>