<svg id="Layer_1" xmlns="http://www.w3.org/2000/svg" viewBox="120 81 800 800"><style>.st0,.st1{opacity:.1;fill:#fff}.st1{opacity:.28}.st2,.st3{opacity:.46;fill:#fff}.st3{opacity:.64}.st4{opacity:.82}.st4,.st5{fill:#fff}.st6{fill:#42210b}.st7{fill:#603813}.st8{fill:#faad40}.st9{fill:#f9e8d8}.st10{fill:#461a00}.st11{fill:#fbb03b}.st12{opacity:.2}.st13{opacity:.3}.st14{fill:#9fdaf1}.st15{fill:#0ea2dc}.st16{opacity:.8}.st17{opacity:.1}</style><circle class="st0" cx="520" cy="481" r="376.3"/><circle class="st1" cx="520" cy="481" r="316.5"/><circle class="st2" cx="520" cy="481" r="256.8"/><circle class="st3" cx="520" cy="481" r="197"/><circle class="st4" cx="520" cy="481" r="137.3"/><circle class="st5" cx="520" cy="481" r="77.6"/><g><path class="st6" d="M425.2 442.3c45.1-16.6 142.8-17.6 165.2-6.9 12.7 6 0-69.8 0-69.8l-95.9-58.5-53.7 19.5c-.1 0-32 121.8-15.6 115.7z"/><path class="st7" d="M432.2 316.8s6.3 44.9 2.9 55.8c-3.4 11-16.3 16.4-16.3 16.4s3.6 7.1 11 6.9 27.7-10.3 27.7-10.3l-5-76.4-20.2-2.4-.1 10z"/><path class="st8" d="M347 626.6s-13.6 20.9-10.5 27c3.1 6.1-13.9 147.7-13.9 147.7l28.8 16.1s18.8-140.6 23.6-154c4.9-13.4 18.3-30.6 18.3-30.6l-46.3-6.2zM693 626.6s13.6 20.9 10.5 27c-3.1 6.1 13.9 147.7 13.9 147.7l-32 17.7s-15.5-142.2-20.3-155.6c-4.9-13.4-18.3-30.6-18.3-30.6l46.2-6.2z"/><path class="st9" d="M484 436.2s-73.4 20.5-87.2 31-65.1 138.1-65.1 155.5c0 17.4 50.3 27.1 60.8 28.7 10.5 1.6 25.2-40.2 25.2-40.2l4.2 233.5s64.2 14.6 103.1 12.5 98.7-14.4 98.7-14.4l-6.3-240.3s18 49.8 23.6 49.2 56.7-15.5 66.6-21.2c9.4-5.5-41.4-154.4-56-163.3-14.6-8.9-100-31.7-116.6-30.9-16.6.8-51-.1-51-.1z"/><path class="st8" d="M537.5 419.2c0-33.4-22.3-27.6-22.3-27.6s-22.3-5.8-22.3 27.6c0 26-29.2 45.5 22.3 45.5 51.5-.1 22.3-19.6 22.3-45.5z"/><path class="st8" d="M490.8 442.6s-32.8 7.5-41.4 12.3c-8.6 4.9 28.7 21.4 63.9 21.4s76.8-15.8 82.4-19.9c5.7-4.1-82.4-19.9-82.4-19.9l-22.5 6.1zM512.7 424c-24.8 0-82.7-47.9-68.8-171.4 3.7-33.2 68.8-31.7 68.8-31.7s63.7-1.3 68.8 31.7C599 367.4 537.5 424 512.7 424z"/><circle class="st10" cx="545.3" cy="303.9" r="7"/><path class="st11" d="M606.6 289.6c0 20.4 1.3 36.9-13.4 36.9s-6-16.5-6-36.9 2.7-22.3 6-22.3 13.4 1.9 13.4 22.3z"/><circle class="st10" cx="480.1" cy="303.9" r="7"/><path d="M494.4 333.9c.8 17 14 24.4 18.3 24.4 4.3 0 17.5-7.4 18.3-24.4 0 0-11.6 11-18.3 11-6.7 0-18.3-11-18.3-11zM492.8 417.8l-1.7 17.1s16.9 11.4 24.8 11.4c6.8 0 18.7-8 22.8-17.9 2.2-5.3-1.6-8.5-1.3-14.4 0 0-13.2 8.8-24.6 8.8-11.5.1-20-5-20-5z" class="st12"/><path class="st11" d="M418.8 289.6c0 20.4-1.3 36.9 13.4 36.9s6-16.5 6-36.9-2.7-22.3-6-22.3-13.4 1.9-13.4 22.3z"/><path d="M440.7 274.6s17.1 3.3 46.4 2c34.1-1.6 42.1-18.5 65.1-10.1s20.1 12.5 28.7 15.1c8.5 2.6 0 0 0 0l-.1-66.9-141.2 32.5 1.1 27.4z" class="st12"/><g><path class="st7" d="M618.3 411c-12.7-15.9-20.5-31.5-3.2-73.5 17.1-41.4 5-86.3-24.2-123.8-14-22.9-2.5-47.9-64.7-50.8-19.8-.9-35.8-.3-90.2 23.2s-42.1 117.2-27.9 151.5c17.3 41.9 9.5 57.6-3.2 73.5-14.6 18.3-39 8.1-8.9 29 30 20.9 84.4-33.7 84.4-33.7s-25.9-31.5-30-50.5c-4.4-20.6-13.1-97.6-4.1-95.8 63 12.7 114.5-39.8 123.2-10.6 2 6.8 4.3 27.7 8.2 36.3 0 0-10.4 46.9-7.1 67.6 3.3 20.8-25.4 52.4-25.4 52.4s52.2 55.2 82.3 34.3c29.7-20.9 5.4-10.8-9.2-29.1z"/></g><g class="st13"><path class="st5" d="M410.3 233.3s5-23.4 21.2-32.5c16.2-9.1 68.2-26.9 68.2-26.9s10.2 17.7-5.3 26c-15.4 8.3-40.1-2.4-56.4 14.8-12 12.8-15.5 23.4-27.7 18.6z"/></g><g><path class="st14" d="M433.5 530.7h77v62.4h-77z"/><path class="st5" d="M439.7 548.5h64.6v39.2h-64.6z"/><path class="st8" d="M472 552.5h28.8v5.2H472z"/><path class="st14" d="M472 561.9h28.8v5.2H472zM472 569.9h28.8v5.2H472zM472 578.5h28.8v5.2H472zM444.3 552.5h23.2v31.2h-23.2z"/><circle class="st15" cx="455.7" cy="561.6" r="6.5"/><path class="st15" d="M447 584h20v-6.8c0-3.6-4.9-6.5-10-6.5s-10 2.9-10 6.5v6.8zM483 539.1h-22l3.7-16.3c.8-3.3 3.7-5.7 7.2-5.7h.2c3.4 0 6.4 2.4 7.2 5.7l3.7 16.3z"/><circle class="st5" cx="471.8" cy="525.7" r="4.3"/></g><g class="st16"><path class="st5" d="M342.1 612.4s44.2-125.9 55.6-132c11.4-6.1 40.3-15.8 40.3-15.8s7.7 13.4-4.5 21.9c-3 2.1-16.7 6.2-23.3 18.3-20.4 37.8-44 113.3-52.3 116.9-10.9 4.9-15.8-9.3-15.8-9.3z"/></g><g class="st17"><path d="M641 651.4s58.8-14.4 66.6-21.1c8.3-7.2-32.8-126.7-49.1-154-2.5-4.2-14.5-20.1-11.8 10.3 1.5 16.5 11.3 125.1 3 138.5-8.2 13.3-8.7 26.3-8.7 26.3z"/></g><g class="st17"><path d="M623.7 842.7l-6.3-240.5s-12.8-6.6-18.9 10.5c-6.1 17.1-38.2 240.9-38.2 240.9 31.7-2.1 63.4-10.9 63.4-10.9z"/></g></g></svg>