<?xml version="1.0" encoding="utf-8"?>
<!-- Generator: Adobe Illustrator 19.1.0, SVG Export Plug-In . SVG Version: 6.00 Build 0)  -->
<svg version="1.1" id="Layer_1" xmlns="http://www.w3.org/2000/svg" xmlns:xlink="http://www.w3.org/1999/xlink" x="0px" y="0px"
	 viewBox="120 81 800 800" style="enable-background:new 120 81 800 800;" xml:space="preserve">
<style type="text/css">
	.st0{opacity:0.2;}
	.st1{fill:#FFFFFF;}
	.st2{fill:#77808E;}
	.st3{opacity:0.3;}
	.st4{fill:#4B5764;}
	.st5{fill:#6A7581;}
	.st6{fill:#FFD900;}
	.st7{fill:#CE9700;}
	.st8{fill:#F0C400;}
	.st9{opacity:0.5;}
	.st10{fill:#FFE133;}
	.st11{fill:#ED4F7E;}
	.st12{fill:#E3E5EA;}
	.st13{fill:#0EA1DC;}
	.st14{fill:#1A8FC5;}
	.st15{fill:#B23B5F;}
	.st16{fill:#A4CE4E;}
	.st17{fill:#7B9B3B;}
</style>
<g class="st0">
	<path class="st1" d="M605.2,562.3c2.3-0.2,4.6-0.3,6.9-0.3c2.9,0,5.8,0.1,8.7,0.4l-55.4-121.7c-13.7-30.3-21-62.6-21-95.9V226.1
		c0-3.9-3.1-7.1-7-7.1s-7,3.2-7,7.1v118.8c0,35.3,7.6,69.5,22.2,101.7L605.2,562.3z"/>
	<path class="st1" d="M747.1,841.1l-57.4-126.6c-3.1,4.2-6.5,8.2-10.2,11.8l54.7,120.6c1.2,2.6,3.8,4.2,6.5,4.2c1,0,2-0.2,2.9-0.6
		C747.2,848.9,748.8,844.7,747.1,841.1z"/>
</g>
<g class="st0">
	<path class="st1" d="M288.6,851.1c-1,0-2-0.2-2.9-0.6c-3.6-1.6-5.1-5.8-3.5-9.4l181.5-400.4c13.7-30.3,20.7-62.6,20.7-95.9V226.1
		c0-3.9,3.2-7.1,7.1-7.1s7.1,3.2,7.1,7.1v118.8c0,35.3-7.4,69.5-22,101.7L295,847C293.8,849.6,291.3,851.1,288.6,851.1z"/>
</g>
<g>
	<g>
		<g>
			<g>
				<path class="st2" d="M273.1,397c-24-6.3-48.5,8.1-54.8,32.1c-4.7,18.1,1.6,39.1,15.4,50.7l-7.7,29.4h0.1
					c-0.7,5.2,2,9.3,6.5,12.4c-0.3,0.2-0.4,0.5-0.5,0.9c-0.2,0.9,0.3,1.9,1.2,2.1l11.9,3.1c0.9,0.2,1.9-0.3,2.1-1.2
					c0.1-0.3,0.1-0.7,0-1c5.5-0.5,9.9-2,11.8-6.9l7.8-30.2c10.5,0.8,33.5-18.5,38.3-36.6C311.4,427.8,297.1,403.3,273.1,397z"/>
			</g>
			<g class="st3">
				<g>
					<path class="st4" d="M249.2,399.6c7.6-2.3,15.6-2.5,23.3-0.5c11,2.9,20.3,9.9,26,19.7c5.8,9.8,7.3,21.3,4.4,32.4
						c-1.8,6.9-6.6,14.5-13.4,21.5c-6.1,6.3-13.3,11.2-18.6,12.8c-1.5,0.5-2.8,0.7-3.9,0.6l-1.8-0.1l-0.5,1.8l-7.8,30
						c-0.9,2.3-2.6,3.7-5.3,4.5c-1.2,0.4-2.7,0.7-4.6,0.8l-2.8,0.3l0.6,1.8l-10.1-2.6l1.4-1.2l-2.3-1.6c-4.3-3-6.2-6.4-5.6-10.3
						l0.1-0.6l7.5-28.6l0.4-1.4l-1.1-0.9c-6.3-5.3-11.3-13.1-14-21.8c-2.7-8.8-2.9-18.2-0.7-26.6c1.9-7.2,5.6-13.7,10.7-19
						C236.1,405.5,242.4,401.7,249.2,399.6 M248.6,397.5c-14.4,4.4-26.2,15.9-30.2,31.5c-4.7,18.1,1.6,39.1,15.4,50.7l-7.7,29.4h0.1
						c-0.7,5.2,2,9.3,6.5,12.4c-0.3,0.2-0.4,0.5-0.5,0.9c-0.2,0.9,0.3,1.9,1.2,2.1l11.9,3.1c0.3,0.1,0.6,0.1,0.9,0
						c0.5-0.2,1-0.6,1.2-1.2c0.1-0.3,0.1-0.7,0-1c1.8-0.2,3.5-0.5,5-0.9c3.1-0.9,5.5-2.7,6.7-5.9l7.8-30.2c1.4,0.1,3-0.1,4.7-0.7
						c11.5-3.6,29.4-20.2,33.6-35.9c6.3-24-8.1-48.5-32.1-54.8C264.7,394.8,256.3,395.1,248.6,397.5L248.6,397.5z"/>
				</g>
			</g>
		</g>
		<g>
			<path class="st5" d="M238.1,503.1c-0.3,0-0.6,0-0.9-0.1l-9-2.3c-1.9-0.5-3-2.4-2.5-4.3s2.4-3,4.3-2.5l9,2.3
				c1.9,0.5,3,2.4,2.5,4.3C241.1,502,239.7,503.1,238.1,503.1z"/>
		</g>
		<g>
			<g>
				<path class="st6" d="M273.1,397c-24-6.3-48.5,8.1-54.8,32.1c-4.7,18.1,1.6,39.1,15.4,50.7l-2.4,9.2l10.6,2.8l22.6,5.9l2.4-9.2
					c11.2-0.2,32.4-10.9,38.3-36.6C310.7,427.6,297.1,403.3,273.1,397z"/>
			</g>
			<g class="st3">
				<g>
					<path class="st7" d="M249.2,399.6c7.6-2.3,15.6-2.5,23.3-0.5c10.9,2.9,20.1,9.8,25.7,19.7c5.6,9.7,7.3,21.3,4.7,32.5
						c-2.1,9.1-6.3,16.9-12.4,23.1c-4.9,5-11,8.7-17.1,10.6c-2.4,0.7-4.7,1.1-6.7,1.2H265l-0.4,1.6l-1.8,7.1l-20.5-5.4l-8.4-2.2
						l1.8-7.1l0.4-1.4l-1.1-0.9c-6.3-5.3-11.3-13.1-14-21.8c-2.7-8.8-2.9-18.2-0.7-26.6c1.9-7.2,5.6-13.7,10.7-19
						C236.1,405.5,242.4,401.7,249.2,399.6 M248.6,397.5c-14.4,4.4-26.2,15.9-30.2,31.5c-4.7,18.1,1.6,39.1,15.4,50.7l-2.4,9.2
						l10.6,2.8l22.6,5.9l2.4-9.2c2.1,0,4.6-0.5,7.3-1.3c11.4-3.5,26.2-14.5,31-35.3c5.5-24.2-8.1-48.5-32.1-54.8
						C264.7,394.8,256.3,395.1,248.6,397.5L248.6,397.5z"/>
				</g>
			</g>
		</g>
		<g class="st3">
			<g>
				<path class="st1" d="M283.1,411.7c-21.8-20.2-58.5-3.2-57,23.6c0,0.8,1.2,1.1,1.6,0.4c2.9-4.6,10.5-15.2,20.4-19.2
					c11.5-4.7,28.2-3.8,34.3-3.3C283.2,413.3,283.7,412.2,283.1,411.7z"/>
			</g>
		</g>
		<g>
			<path class="st5" d="M262.3,509.4c-0.3,0-0.6,0-0.9-0.1l-9-2.3c-1.9-0.5-3-2.4-2.5-4.3s2.4-3,4.3-2.5l9,2.3
				c1.9,0.5,3,2.4,2.5,4.3C265.3,508.4,263.9,509.4,262.3,509.4z"/>
		</g>
		<g>
			<path class="st5" d="M236,511.1c-0.3,0-0.6,0-0.9-0.1l-9-2.3c-1.9-0.5-3-2.4-2.5-4.3s2.4-3,4.3-2.5l9,2.3c1.9,0.5,3,2.4,2.5,4.3
				C239,510,237.6,511.1,236,511.1z"/>
		</g>
		<g>
			<path class="st5" d="M260.2,517.4c-0.3,0-0.6,0-0.9-0.1l-9-2.3c-1.9-0.5-3-2.4-2.5-4.3s2.4-3,4.3-2.5l9,2.3
				c1.9,0.5,3,2.4,2.5,4.3C263.3,516.4,261.8,517.4,260.2,517.4z"/>
		</g>
		<g>
			<g>
				<polygon class="st8" points="250.9,493.7 245.7,492.3 253.3,463.5 242.3,444.8 247,442.1 259,462.8 				"/>
			</g>
		</g>
		<g>
			<g>
				<circle class="st6" cx="244.6" cy="443.5" r="6.2"/>
			</g>
			<g>
				<path class="st8" d="M247.2,451.9L247.2,451.9c-1.6,0.5-3.3,0.5-4.8,0.1c-4.7-1.2-7.6-6.1-6.3-10.8c0.8-3,3-5.3,6-6.2
					c1.6-0.5,3.3-0.5,4.8-0.1c2.3,0.6,4.2,2.1,5.4,4.1c1.2,2,1.5,4.4,0.9,6.7C252.4,448.7,250.2,451,247.2,451.9z M243.6,440.1
					c-1.2,0.4-2,1.3-2.4,2.5c-0.5,1.9,0.6,3.8,2.5,4.3c0.6,0.2,1.3,0.2,1.9,0c1.2-0.4,2-1.3,2.4-2.5c0.2-0.9,0.1-1.8-0.4-2.6
					c-0.5-0.8-1.2-1.4-2.1-1.6C244.9,439.9,244.2,440,243.6,440.1z"/>
			</g>
		</g>
		<g>
			<g>
				
					<rect x="263.9" y="445.8" transform="matrix(0.478 0.8783 -0.8783 0.478 541.0194 4.6951)" class="st8" width="5.4" height="23.5"/>
			</g>
		</g>
		<g>
			<g>
				<circle class="st6" cx="276.8" cy="451.9" r="6.2"/>
			</g>
			<g>
				<path class="st8" d="M279.4,460.4c-1.6,0.5-3.3,0.5-4.8,0.1c-4.7-1.2-7.6-6.1-6.3-10.8c0.8-3,3-5.3,6-6.2
					c1.6-0.5,3.3-0.5,4.8-0.1c4.7,1.2,7.6,6.1,6.3,10.8C284.6,457.1,282.4,459.5,279.4,460.4z M275.8,448.6c-1.2,0.4-2,1.3-2.4,2.5
					c-0.5,1.9,0.6,3.8,2.5,4.3c0.6,0.2,1.3,0.2,1.9,0c1.2-0.4,2-1.3,2.4-2.5c0.5-1.9-0.6-3.8-2.5-4.3
					C277.1,448.4,276.4,448.4,275.8,448.6z"/>
			</g>
		</g>
	</g>
	<g>
		<g>
			<path class="st7" d="M275.7,387c0.7,0.2,1.3,0.4,2,0.6c0.6-2.1,1.1-4.3,1.7-6.4c0.5-2,1.1-4,1.6-6c-0.7-0.2-1.3-0.4-2-0.6
				c-0.4-0.1-0.9-0.2-1.3-0.3c-1.1,4.2-2.2,8.3-3.3,12.5C274.8,386.8,275.3,386.9,275.7,387z"/>
		</g>
		<g class="st9">
			<path class="st7" d="M252.8,386.1c1.1-0.2,2.3-0.4,3.4-0.5c-0.4-4.3-0.8-8.5-1.2-12.8c-1.1,0.1-2.3,0.3-3.4,0.5
				c0.3,3.5,0.7,7.1,1,10.6C252.6,384.7,252.7,385.4,252.8,386.1z"/>
		</g>
		<g>
			<path class="st7" d="M233,394c1-0.6,1.9-1.2,2.9-1.8c-1.8-3.8-3.6-7.6-5.4-11.5c-1,0.6-2,1.1-3,1.7c1.3,2.7,2.6,5.5,3.9,8.2
				C231.9,391.8,232.5,392.9,233,394z"/>
		</g>
		<g class="st9">
			<path class="st7" d="M220,405.4c-3-2.9-5.9-5.9-8.9-8.8c-0.7,0.9-1.5,1.8-2.2,2.7c3,2.9,6,5.9,8.9,8.8
				C218.6,407.2,219.3,406.3,220,405.4z"/>
		</g>
		<g>
			<path class="st7" d="M296.1,485.4c3,2.9,6,5.9,8.9,8.8c0.8-0.8,1.7-1.5,2.5-2.4c-3-2.9-5.9-5.9-8.9-8.8
				C297.8,483.9,297,484.7,296.1,485.4z"/>
		</g>
		<g>
			<path class="st7" d="M210,422.6c-3.8-1.7-7.5-3.5-11.3-5.2c-0.4,1.1-0.8,2.1-1.2,3.2c3.8,1.7,7.6,3.5,11.4,5.2
				C209.3,424.8,209.6,423.7,210,422.6z"/>
		</g>
		<g class="st9">
			<path class="st7" d="M307.9,471.3c3.8,1.7,7.6,3.5,11.4,5.2c0.6-1,1.1-2,1.6-3c-3.8-1.7-7.5-3.5-11.3-5.2
				C309.1,469.4,308.5,470.4,307.9,471.3z"/>
		</g>
		<g>
			<path class="st7" d="M314.9,453.7c4.2,0.3,8.3,0.7,12.5,1c0.2-1.1,0.4-2.3,0.6-3.4c-4.1-0.3-8.3-0.7-12.4-1
				C315.3,451.5,315.1,452.6,314.9,453.7z"/>
		</g>
		<g class="st9">
			<path class="st7" d="M206.3,441.4c-4.1-0.3-8.3-0.7-12.4-1c0,1.1-0.1,2.3-0.1,3.4c4.2,0.3,8.3,0.7,12.5,1
				C206.3,443.7,206.3,442.6,206.3,441.4z"/>
		</g>
		<g>
			<path class="st7" d="M208.8,459.9c-4,1.1-8.1,2.2-12.1,3.3c0.3,1.1,0.7,2.2,1,3.3c4-1.1,8.1-2.2,12.1-3.3
				C209.5,462.1,209.1,461,208.8,459.9z"/>
		</g>
		<g class="st9">
			<path class="st7" d="M315.9,434.1c4-1.1,8.1-2.2,12.1-3.3c-0.2-1.1-0.4-2.3-0.6-3.4c-4,1.1-8.1,2.2-12.1,3.3
				C315.6,431.8,315.7,432.9,315.9,434.1z"/>
		</g>
		<g>
			<path class="st7" d="M308.1,411.5c0.6,1,1.1,2,1.7,3c3.5-2.5,6.9-4.9,10.4-7.4c-0.5-1-1.1-2-1.7-3c-2.3,1.7-4.7,3.3-7,5
				C310.4,409.9,309.3,410.7,308.1,411.5z"/>
		</g>
		<g class="st9">
			<path class="st7" d="M294,395.8c0.9,0.7,1.8,1.4,2.7,2.1c2.4-3.5,4.9-7,7.3-10.6c-0.9-0.7-1.8-1.4-2.7-2.1
				c-2.1,3-4.1,5.9-6.2,8.9C294.7,394.7,294.3,395.2,294,395.8z"/>
		</g>
	</g>
</g>
<g>
	<g>
		<g>
			<g>
				<path class="st2" d="M753.4,398c-23.4,8.2-35.7,33.9-27.4,57.2c6.2,17.7,23.2,31.5,41.1,33.3l10.1,28.7h0.1
					c2.3,4.7,6.9,6.5,12.4,6.6c-0.1,0.3-0.1,0.7,0,1c0.3,0.9,1.3,1.4,2.2,1l11.6-4.1c0.9-0.3,1.4-1.3,1-2.2
					c-0.1-0.3-0.3-0.6-0.6-0.8c4.2-3.5,7.1-7.2,5.9-12.3l-10.4-29.2c9.2-5.2,17.4-34.1,11.2-51.7C802.4,402.1,776.8,389.8,753.4,398
					z"/>
			</g>
			<g class="st3">
				<g>
					<path class="st4" d="M735.1,413.6c5-6.2,11.6-10.8,19.1-13.5c10.8-3.8,22.3-3.2,32.6,1.8c10.3,4.9,18,13.6,21.8,24.3
						c2.4,6.7,2.7,15.7,0.9,25.4c-1.6,8.6-4.7,16.7-8.3,21.1c-1,1.2-2,2.1-2.9,2.6l-1.6,0.9l0.6,1.7l10.4,29.2
						c0.5,2.4-0.1,4.5-1.9,6.7c-0.8,1-1.9,2.1-3.3,3.3l-2.2,1.8l1.5,1.1l-9.9,3.5l0.5-1.8h-2.8c-5.3-0.1-8.7-1.9-10.4-5.4l-0.3-0.6
						l-9.8-27.9l-0.5-1.3l-1.4-0.1c-8.2-0.9-16.7-4.5-23.8-10.3s-12.6-13.4-15.5-21.6c-2.5-7-3.1-14.5-1.8-21.7
						C727.5,425.8,730.6,419.2,735.1,413.6 M733.3,412.2c-9.4,11.7-12.7,27.9-7.4,43.1c6.2,17.7,23.2,31.5,41.1,33.3l10.1,28.7h0.1
						c2.3,4.7,6.9,6.5,12.4,6.6c-0.1,0.3-0.1,0.7,0,1c0.3,0.9,1.3,1.4,2.2,1l11.6-4.1c0.3-0.1,0.6-0.3,0.8-0.5
						c0.4-0.4,0.5-1.1,0.3-1.6c-0.1-0.3-0.3-0.6-0.6-0.8c1.4-1.2,2.6-2.3,3.6-3.6c2-2.5,3-5.3,2.3-8.7l-10.4-29.4
						c1.2-0.7,2.4-1.8,3.5-3.2c7.6-9.4,13.1-33.2,7.7-48.6c-8.2-23.4-33.9-35.7-57.2-27.4C745.2,400.9,738.4,405.9,733.3,412.2
						L733.3,412.2z"/>
				</g>
			</g>
		</g>
		<g>
			<path class="st5" d="M773.1,509.2c-1.5,0-2.8-0.9-3.3-2.4c-0.6-1.8,0.3-3.9,2.2-4.5l8.7-3.1c1.8-0.7,3.9,0.3,4.5,2.2
				c0.6,1.8-0.3,3.9-2.2,4.5l-8.7,3.1C773.9,509.1,773.5,509.2,773.1,509.2z"/>
		</g>
		<g>
			<g>
				<path class="st10" d="M753.4,398c-23.4,8.2-35.7,33.9-27.4,57.2c6.2,17.7,23.2,31.5,41.1,33.3l3.2,9l10.3-3.6l22.1-7.8l-3.2-9
					c9.2-6.5,20.7-27.1,11.2-51.7C801.7,402.4,776.8,389.8,753.4,398z"/>
			</g>
			<g class="st3">
				<g>
					<path class="st7" d="M735.1,413.6c5-6.2,11.6-10.8,19.1-13.5c10.7-3.8,22.2-3.1,32.3,1.9c10.1,4.9,18,13.5,22.1,24.3
						c3.4,8.7,4.3,17.5,2.7,26.1c-1.3,6.9-4.2,13.4-8.2,18.3c-1.6,1.9-3.2,3.6-4.9,4.7l-1.4,1l0.6,1.6l2.4,6.9l-20,7l-8.2,2.9
						l-2.4-6.9l-0.5-1.3l-1.4-0.1c-8.2-0.9-16.7-4.5-23.8-10.3s-12.6-13.4-15.5-21.6c-2.5-7-3.1-14.5-1.8-21.7
						C727.5,425.8,730.6,419.2,735.1,413.6 M733.3,412.2c-9.4,11.7-12.7,27.9-7.4,43.1c6.2,17.7,23.2,31.5,41.1,33.3l3.2,9l10.3-3.6
						l22.1-7.8l-3.2-9c1.7-1.2,3.6-3,5.3-5.1c7.5-9.3,13.6-26.7,5.9-46.6c-8.9-23.1-33.9-35.7-57.2-27.4
						C745.2,400.9,738.4,405.9,733.3,412.2L733.3,412.2z"/>
				</g>
			</g>
		</g>
		<g class="st3">
			<g>
				<path class="st1" d="M769.8,404.6c-29.4-4.5-50.3,30.1-34,51.4c0.5,0.7,1.6,0.3,1.6-0.5c-0.2-5.5,0.2-18.5,6.1-27.3
					c6.9-10.4,21.2-18.9,26.6-22C770.9,405.8,770.7,404.7,769.8,404.6z"/>
			</g>
		</g>
		<g>
			<path class="st5" d="M796.7,500.9c-1.5,0-2.8-0.9-3.3-2.4c-0.6-1.8,0.3-3.9,2.2-4.5l8.7-3.1c1.8-0.7,3.9,0.3,4.5,2.2
				c0.6,1.8-0.3,3.9-2.2,4.5l-8.7,3.1C797.5,500.8,797.1,500.9,796.7,500.9z"/>
		</g>
		<g>
			<path class="st5" d="M775.8,517c-1.5,0-2.8-0.9-3.3-2.4c-0.6-1.8,0.3-3.9,2.2-4.5l8.7-3.1c1.8-0.7,3.9,0.3,4.5,2.2
				c0.6,1.8-0.3,3.9-2.2,4.5l-8.7,3.1C776.6,516.9,776.2,517,775.8,517z"/>
		</g>
		<g>
			<path class="st5" d="M799.4,508.7c-1.5,0-2.8-0.9-3.3-2.4c-0.6-1.8,0.3-3.9,2.2-4.5l8.7-3.1c1.8-0.6,3.9,0.3,4.5,2.2
				c0.6,1.8-0.3,3.9-2.2,4.5l-8.7,3.1C800.2,508.6,799.8,508.7,799.4,508.7z"/>
		</g>
		<g>
			<g>
				<polygon class="st8" points="789.2,490.6 784.1,492.3 774.2,464.3 754.7,454.9 757,450 778.5,460.4 				"/>
			</g>
		</g>
		<g>
			<g>
				<circle class="st6" cx="755.8" cy="452.5" r="6.2"/>
			</g>
			<g>
				<path class="st8" d="M762.7,458L762.7,458c-1,1.3-2.4,2.3-4,2.8c-4.6,1.6-9.7-0.8-11.3-5.4c-1-2.9-0.5-6.1,1.5-8.5
					c1-1.3,2.4-2.3,4-2.8c2.2-0.8,4.6-0.7,6.8,0.4c2.1,1,3.7,2.8,4.5,5C765.2,452.4,764.7,455.6,762.7,458z M753.1,450.3
					c-0.8,0.9-1,2.2-0.6,3.3c0.6,1.8,2.6,2.8,4.4,2.1c0.6-0.2,1.2-0.6,1.6-1.1c0.8-0.9,1-2.2,0.6-3.3c-0.3-0.9-0.9-1.6-1.8-2
					s-1.8-0.5-2.7-0.1C754,449.4,753.5,449.8,753.1,450.3z"/>
			</g>
		</g>
		<g>
			<g>
				
					<rect x="779.2" y="440" transform="matrix(0.888 0.4599 -0.4599 0.888 295.3535 -308.961)" class="st8" width="5.4" height="23.5"/>
			</g>
		</g>
		<g>
			<g>
				<circle class="st6" cx="787.2" cy="441.4" r="6.2"/>
			</g>
			<g>
				<path class="st8" d="M794.1,447c-1,1.3-2.4,2.3-4,2.8c-4.6,1.6-9.7-0.8-11.3-5.4c-1-2.9-0.5-6.1,1.5-8.5c1-1.3,2.4-2.3,4-2.8
					c4.6-1.6,9.7,0.8,11.3,5.4C796.6,441.4,796,444.6,794.1,447z M784.5,439.2c-0.8,0.9-1,2.2-0.6,3.3c0.6,1.8,2.6,2.8,4.4,2.1
					c0.6-0.2,1.2-0.6,1.6-1.1c0.8-0.9,1-2.2,0.6-3.3c-0.6-1.8-2.6-2.8-4.4-2.1C785.4,438.4,784.9,438.7,784.5,439.2z"/>
			</g>
		</g>
	</g>
	<g>
		<g>
			<path class="st7" d="M750,388.3c0.7-0.2,1.3-0.4,2-0.6c-0.7-2.1-1.5-4.2-2.2-6.3c-0.7-2-1.4-3.9-2.1-5.9c-0.7,0.2-1.3,0.4-2,0.6
				c-0.4,0.2-0.9,0.3-1.3,0.5c1.4,4.1,2.9,8.1,4.3,12.2C749.1,388.6,749.5,388.4,750,388.3z"/>
		</g>
		<g class="st9">
			<path class="st7" d="M730.5,400.4c0.8-0.8,1.7-1.6,2.5-2.3c-2.7-3.3-5.4-6.6-8.1-9.9c-0.9,0.7-1.7,1.5-2.5,2.3
				c2.3,2.7,4.5,5.5,6.8,8.2C729.5,399.3,730,399.8,730.5,400.4z"/>
		</g>
		<g>
			<path class="st7" d="M718.4,418c0.5-1.1,0.9-2.1,1.5-3.1c-3.6-2.2-7.3-4.3-10.9-6.5c-0.5,1-1,2-1.5,3.1c2.6,1.5,5.2,3.1,7.8,4.6
				C716.3,416.7,717.4,417.4,718.4,418z"/>
		</g>
		<g class="st9">
			<path class="st7" d="M714.1,434.7c-4.1-0.8-8.2-1.5-12.3-2.3c-0.1,1.1-0.2,2.3-0.3,3.4c4.1,0.8,8.2,1.5,12.4,2.3
				C713.9,437,714,435.8,714.1,434.7z"/>
		</g>
		<g>
			<path class="st7" d="M822,458.4c4.1,0.8,8.2,1.5,12.4,2.3c0.3-1.1,0.5-2.2,0.7-3.4c-4.1-0.8-8.2-1.5-12.3-2.3
				C822.5,456.2,822.3,457.3,822,458.4z"/>
		</g>
		<g>
			<path class="st7" d="M715.5,454.6c-4.1,0.7-8.2,1.4-12.3,2c0.3,1.1,0.5,2.2,0.9,3.3c4.1-0.7,8.2-1.4,12.3-2
				C716,456.8,715.7,455.7,715.5,454.6z"/>
		</g>
		<g class="st9">
			<path class="st7" d="M823.9,440.1c4.1-0.7,8.2-1.4,12.3-2c-0.1-1.1-0.2-2.3-0.4-3.4c-4.1,0.7-8.2,1.4-12.3,2
				C823.7,437.8,823.8,439,823.9,440.1z"/>
		</g>
		<g>
			<path class="st7" d="M819.8,421.6c3.6-2,7.3-4.1,10.9-6.1c-0.4-1.1-0.9-2.1-1.4-3.1c-3.6,2-7.2,4.1-10.8,6.1
				C818.9,419.5,819.3,420.6,819.8,421.6z"/>
		</g>
		<g class="st9">
			<path class="st7" d="M723,472.2c-3.6,2-7.2,4.1-10.8,6.1c0.6,1,1.2,1.9,1.9,2.9c3.6-2,7.3-4.1,10.9-6.1
				C724.2,474.1,723.6,473.2,723,472.2z"/>
		</g>
		<g>
			<path class="st7" d="M735.3,486.2c-2.7,3.2-5.4,6.3-8.2,9.5c0.9,0.7,1.8,1.4,2.7,2.1c2.7-3.2,5.5-6.4,8.2-9.6
				C737.1,487.6,736.2,486.9,735.3,486.2z"/>
		</g>
		<g class="st9">
			<path class="st7" d="M809.6,404.8c2.7-3.2,5.5-6.4,8.2-9.6c-0.8-0.9-1.6-1.7-2.4-2.5c-2.7,3.2-5.4,6.3-8.2,9.5
				C808,403.1,808.8,403.9,809.6,404.8z"/>
		</g>
		<g>
			<path class="st7" d="M790.5,390.4c1,0.5,2.1,1,3.1,1.5c1.5-4,3-7.9,4.5-11.9c-1-0.5-2-1-3.1-1.5c-1,2.7-2,5.4-3,8
				C791.5,387.9,791,389.1,790.5,390.4z"/>
		</g>
		<g class="st9">
			<path class="st7" d="M770,385.3c1.1,0.1,2.3,0.1,3.4,0.3c0-4.3,0.1-8.6,0.1-12.9c-1.1-0.1-2.3-0.2-3.4-0.2
				c0,3.6-0.1,7.2-0.1,10.9C770,384,770,384.7,770,385.3z"/>
		</g>
	</g>
</g>
<g>
	<g>
		<g>
			<g>
				<path class="st2" d="M634.5,623c-18.2-9.6-40.7-2.6-50.2,15.6c-7.2,13.7-6,31.8,2.9,43.8l-11.8,22.2h0.1
					c-1.6,4.1-0.1,7.8,2.9,11.2c-0.2,0.1-0.5,0.3-0.6,0.6c-0.4,0.7-0.1,1.6,0.6,1.9l9,4.8c0.7,0.4,1.6,0.1,1.9-0.6
					c0.1-0.3,0.2-0.5,0.2-0.8c4.5,0.6,8.3,0.3,10.8-3.3l12-22.9c8.4,2.6,30.5-8.6,37.7-22.3C659.6,655,652.7,632.5,634.5,623z"/>
			</g>
			<g class="st3">
				<g>
					<path class="st4" d="M614.7,620.6c6.5-0.5,13.1,0.9,18.9,4c8.4,4.4,14.5,11.8,17.3,20.8s1.9,18.6-2.5,26.9
						c-2.7,5.2-8,10.5-14.9,14.9c-6.1,3.9-12.8,6.5-17.4,6.8c-1.3,0.1-2.4,0-3.2-0.3l-1.5-0.5l-0.7,1.4l-11.9,22.8
						c-1.2,1.7-2.8,2.5-5.1,2.6c-1.1,0.1-2.3,0-3.9-0.2l-2.3-0.3l0.2,1.6l-7.7-4l1.4-0.7l-1.6-1.7c-2.9-3.3-3.8-6.3-2.6-9.4l0.2-0.5
						l11.4-21.6l0.5-1l-0.7-0.9c-4.1-5.5-6.7-12.7-7.2-20.2c-0.5-7.6,1.1-15.2,4.4-21.6c2.9-5.4,7.1-10,12.2-13.3
						C603.1,622.9,608.8,621,614.7,620.6 M614.6,618.8c-12.4,0.9-24.1,7.9-30.3,19.8c-7.2,13.7-6,31.8,2.9,43.8l-11.8,22.2h0.1
						c-1.6,4.1-0.1,7.8,2.9,11.2c-0.2,0.1-0.5,0.3-0.6,0.6c-0.4,0.7-0.1,1.6,0.6,1.9l9,4.8c0.2,0.1,0.5,0.2,0.8,0.2
						c0.5,0,0.9-0.3,1.2-0.8c0.1-0.3,0.2-0.5,0.2-0.8c1.5,0.2,2.9,0.3,4.2,0.2c2.7-0.2,4.9-1.1,6.6-3.5l12-22.9
						c1.1,0.3,2.4,0.4,3.9,0.3c10-0.7,27.5-10.7,33.8-22.7c9.6-18.2,2.6-40.7-15.6-50.2C628.1,619.6,621.3,618.3,614.6,618.8
						L614.6,618.8z"/>
				</g>
			</g>
		</g>
		<g>
			<path class="st5" d="M587,702.7c-0.6,0-1.1-0.1-1.6-0.4l-6.8-3.6c-1.7-0.9-2.4-3.1-1.5-4.8s3.1-2.4,4.8-1.5l6.8,3.6
				c1.7,0.9,2.4,3.1,1.5,4.8C589.5,702,588.3,702.7,587,702.7z"/>
		</g>
		<g>
			<g>
				<path class="st10" d="M634.5,623c-18.2-9.6-40.7-2.6-50.2,15.6c-7.2,13.7-6,31.8,2.9,43.8l-3.7,7l8,4.2l17.1,9l3.7-7
					c9.1,1.9,28.2-2.7,37.7-22.3C659.1,654.7,652.7,632.5,634.5,623z"/>
			</g>
			<g class="st3">
				<g>
					<path class="st7" d="M614.7,620.6c6.5-0.5,13.1,0.9,18.9,4c8.3,4.4,14.3,11.7,17.1,20.7c2.7,8.9,1.9,18.5-2.3,27.1
						c-3.4,7-8.2,12.4-14.4,16.3c-4.9,3.1-10.5,5-15.7,5.3c-2.1,0.1-4,0-5.6-0.3l-1.4-0.3l-0.6,1.2l-2.8,5.3l-15.5-8.2l-6.4-3.4
						l2.8-5.3l0.5-1l-0.7-0.9c-4.1-5.5-6.7-12.7-7.2-20.2c-0.5-7.6,1.1-15.2,4.4-21.6c2.9-5.4,7.1-10,12.2-13.3
						C603.1,622.9,608.8,621,614.7,620.6 M614.6,618.8c-12.4,0.9-24.1,7.9-30.3,19.8c-7.2,13.7-6,31.8,2.9,43.8l-3.7,7l8,4.2l17.1,9
						l3.7-7c1.7,0.4,3.8,0.5,6.1,0.3c9.9-0.7,23.8-6.8,31.6-22.7c9-18.5,2.6-40.7-15.6-50.2C628.1,619.6,621.3,618.3,614.6,618.8
						L614.6,618.8z"/>
				</g>
			</g>
		</g>
		<g class="st3">
			<g>
				<path class="st1" d="M639.8,636.7c-13.8-20.4-46.6-13.6-50.4,8.3c-0.1,0.7,0.7,1.1,1.2,0.7c3.2-3.2,11.3-10.3,20-11.7
					c10.2-1.6,23.4,2.2,28.3,3.8C639.6,638,640.2,637.2,639.8,636.7z"/>
			</g>
		</g>
		<g>
			<path class="st5" d="M605.3,712.3c-0.6,0-1.1-0.1-1.6-0.4l-6.8-3.6c-1.7-0.9-2.4-3.1-1.5-4.8s3.1-2.4,4.8-1.5l6.8,3.6
				c1.7,0.9,2.4,3.1,1.5,4.8C607.8,711.6,606.6,712.3,605.3,712.3z"/>
		</g>
		<g>
			<path class="st5" d="M583.8,708.7c-0.6,0-1.1-0.1-1.6-0.4l-6.8-3.6c-1.7-0.9-2.4-3.1-1.5-4.8s3.1-2.4,4.8-1.5l6.8,3.6
				c1.7,0.9,2.4,3.1,1.5,4.8C586.3,708,585.1,708.7,583.8,708.7z"/>
		</g>
		<g>
			<path class="st5" d="M602.1,718.4c-0.6,0-1.1-0.1-1.6-0.4l-6.8-3.6c-1.7-0.9-2.4-3.1-1.5-4.8s3.1-2.4,4.8-1.5l6.8,3.6
				c1.7,0.9,2.4,3.1,1.5,4.8C604.7,717.7,603.4,718.4,602.1,718.4z"/>
		</g>
		<g>
			<g>
				<polygon class="st8" points="598.4,696.8 594.5,694.7 606,672.9 600.7,655.8 604.9,654.4 610.8,673.4 				"/>
			</g>
		</g>
		<g>
			<g>
				<circle class="st6" cx="602.8" cy="655.1" r="5.1"/>
			</g>
			<g>
				<path class="st8" d="M603.3,662.4L603.3,662.4c-1.4,0.1-2.7-0.2-3.9-0.8c-3.6-1.9-5-6.3-3.1-9.9c1.2-2.3,3.4-3.7,6-3.9
					c1.4-0.1,2.7,0.2,3.9,0.8c1.7,0.9,3,2.4,3.6,4.3c0.6,1.9,0.4,3.9-0.5,5.6C608.1,660.8,605.9,662.2,603.3,662.4z M602.6,652.2
					c-1,0.1-1.9,0.6-2.4,1.5c-0.7,1.4-0.2,3.2,1.2,3.9c0.5,0.3,1,0.4,1.5,0.3c1-0.1,1.9-0.6,2.4-1.5c0.4-0.7,0.4-1.5,0.2-2.2
					s-0.7-1.3-1.4-1.7C603.7,652.3,603.1,652.2,602.6,652.2z"/>
			</g>
		</g>
		<g>
			<g>
				
					<rect x="615.5" y="660.8" transform="matrix(0.2662 0.9639 -0.9639 0.2662 1099.7145 -103.4315)" class="st8" width="4.5" height="19.5"/>
			</g>
		</g>
		<g>
			<g>
				<circle class="st6" cx="627.2" cy="667.9" r="5.1"/>
			</g>
			<g>
				<path class="st8" d="M627.7,675.3c-1.4,0.1-2.7-0.2-3.9-0.8c-3.6-1.9-5-6.3-3.1-9.9c1.2-2.3,3.4-3.7,6-3.9
					c1.4-0.1,2.7,0.2,3.9,0.8c3.6,1.9,5,6.3,3.1,9.9C632.5,673.6,630.2,675.1,627.7,675.3z M627,665.1c-1,0.1-1.9,0.6-2.4,1.5
					c-0.7,1.4-0.2,3.2,1.2,3.9c0.5,0.3,1,0.4,1.5,0.3c1-0.1,1.9-0.6,2.4-1.5c0.7-1.4,0.2-3.2-1.2-3.9C628,665.1,627.5,665,627,665.1
					z"/>
			</g>
		</g>
	</g>
	<g>
		<g>
			<path class="st7" d="M638.5,615.4c0.5,0.3,1,0.5,1.5,0.8c0.9-1.6,1.7-3.2,2.6-4.9c0.8-1.5,1.6-3,2.4-4.6c-0.5-0.3-1-0.6-1.5-0.8
				c-0.3-0.2-0.7-0.3-1-0.5c-1.7,3.1-3.3,6.3-5,9.4C637.8,615,638.2,615.2,638.5,615.4z"/>
		</g>
		<g class="st9">
			<path class="st7" d="M620.1,610.4c0.9,0,1.9,0.1,2.8,0.2c0.5-3.5,1-7,1.4-10.5c-0.9-0.1-1.9-0.2-2.8-0.2
				c-0.4,2.9-0.8,5.8-1.2,8.7C620.3,609.2,620.2,609.8,620.1,610.4z"/>
		</g>
		<g>
			<path class="st7" d="M602.7,613c0.9-0.3,1.8-0.6,2.7-0.9c-0.7-3.4-1.5-6.8-2.2-10.3c-0.9,0.3-1.8,0.5-2.7,0.8
				c0.5,2.4,1.1,4.9,1.6,7.3C602.3,611,602.5,612,602.7,613z"/>
		</g>
		<g class="st9">
			<path class="st7" d="M590.1,619.7c-1.8-2.9-3.7-5.9-5.5-8.8c-0.8,0.6-1.5,1.1-2.3,1.7c1.9,2.9,3.7,5.9,5.6,8.8
				C588.6,620.9,589.3,620.3,590.1,619.7z"/>
		</g>
		<g>
			<path class="st7" d="M636.4,698.6c1.9,2.9,3.7,5.9,5.6,8.8c0.8-0.5,1.6-0.9,2.5-1.4c-1.8-2.9-3.7-5.9-5.5-8.8
				C638.1,697.7,637.3,698.2,636.4,698.6z"/>
		</g>
		<g>
			<path class="st7" d="M578.8,631.8c-2.7-2.1-5.4-4.2-8.1-6.3c-0.5,0.8-1,1.6-1.5,2.4c2.7,2.1,5.5,4.2,8.2,6.3
				C577.8,633.4,578.3,632.6,578.8,631.8z"/>
		</g>
		<g class="st9">
			<path class="st7" d="M648.6,689.5c2.7,2.1,5.5,4.2,8.2,6.3c0.6-0.7,1.3-1.4,1.9-2.1c-2.7-2.1-5.4-4.2-8.1-6.3
				C649.9,688.1,649.3,688.8,648.6,689.5z"/>
		</g>
		<g>
			<path class="st7" d="M657.5,676.6c3.3,1.1,6.6,2.1,9.9,3.2c0.4-0.9,0.8-1.7,1.1-2.6c-3.3-1-6.5-2.1-9.8-3.1
				C658.3,674.9,657.9,675.7,657.5,676.6z"/>
		</g>
		<g class="st9">
			<path class="st7" d="M572.3,646.3c-3.3-1-6.5-2.1-9.8-3.1c-0.3,0.9-0.5,1.8-0.7,2.7c3.3,1.1,6.6,2.1,9.9,3.2
				C571.8,648.1,572,647.2,572.3,646.3z"/>
		</g>
		<g>
			<path class="st7" d="M570.8,661.6c-3.5,0.1-6.9,0.3-10.4,0.4c0.1,0.9,0.1,1.9,0.2,2.8c3.5-0.1,6.9-0.3,10.4-0.4
				C570.9,663.5,570.8,662.5,570.8,661.6z"/>
		</g>
		<g class="st9">
			<path class="st7" d="M662,660.9c3.5-0.1,6.9-0.3,10.4-0.4c0.1-1,0.1-1.9,0.2-2.9c-3.5,0.1-6.9,0.3-10.4,0.4
				C662.2,659,662.1,660,662,660.9z"/>
		</g>
		<g>
			<path class="st7" d="M660,641.2c0.3,0.9,0.6,1.8,0.8,2.7c3.3-1.3,6.5-2.7,9.8-4c-0.3-0.9-0.5-1.8-0.8-2.7
				c-2.2,0.9-4.4,1.8-6.6,2.7C662.1,640.4,661.1,640.8,660,641.2z"/>
		</g>
		<g class="st9">
			<path class="st7" d="M651.6,625.9c0.6,0.7,1.2,1.5,1.8,2.2c2.6-2.4,5.3-4.8,7.9-7.2c-0.6-0.8-1.2-1.5-1.8-2.2c-2.2,2-4.4,4-6.7,6
				C652.4,625.2,652,625.5,651.6,625.9z"/>
		</g>
	</g>
</g>
<g>
	<g>
		<g>
			<g>
				<path class="st2" d="M409.1,517.2c-14.1,7.3-19.5,24.6-12.2,38.7c5.5,10.6,17.5,17.8,29,17.4l9,17.3h0.1
					c1.9,2.8,4.9,3.5,8.4,3.1c0,0.2,0,0.4,0.1,0.6c0.3,0.5,0.9,0.7,1.5,0.5l7-3.6c0.5-0.3,0.7-0.9,0.5-1.5c-0.1-0.2-0.3-0.4-0.5-0.5
					c2.4-2.6,3.8-5.2,2.6-8.3l-9.2-17.6c5.3-4.1,8-23.1,2.5-33.7C440.5,515.4,423.2,509.9,409.1,517.2z"/>
			</g>
			<g class="st3">
				<g>
					<path class="st4" d="M398.9,528.7c2.6-4.3,6.3-7.9,10.9-10.2c6.5-3.4,13.8-4,20.8-1.8c6.9,2.2,12.6,7,16,13.4
						c2.1,4,3.1,9.7,2.9,16c-0.2,5.6-1.5,11-3.3,14.1c-0.5,0.9-1,1.5-1.6,1.9l-0.9,0.7l0.5,1l9.2,17.6c0.5,1.5,0.4,2.8-0.6,4.4
						c-0.4,0.7-1,1.5-1.8,2.4l-1.2,1.3l1.1,0.6l-5.9,3.1l0.1-1.2l-1.8,0.2c-3.3,0.4-5.7-0.4-7.1-2.5l-0.2-0.3l-8.7-16.7l-0.4-0.8
						H426c-5.3,0.2-11-1.4-16-4.4s-9.2-7.4-11.7-12.3c-2.2-4.2-3.2-8.9-3.1-13.6C395.2,537,396.6,532.6,398.9,528.7 M397.7,527.9
						c-4.9,8.2-5.6,18.8-0.8,27.9c5.5,10.6,17.5,17.8,29,17.4l9,17.3h0.1c1.9,2.8,4.9,3.5,8.4,3.1c0,0.2,0,0.4,0.1,0.6
						c0.3,0.5,0.9,0.7,1.5,0.5l7-3.6c0.2-0.1,0.3-0.2,0.4-0.4c0.2-0.3,0.2-0.7,0-1.1c-0.1-0.2-0.3-0.4-0.5-0.5
						c0.8-0.9,1.5-1.7,2-2.6c1.1-1.8,1.4-3.6,0.7-5.7l-9.2-17.6c0.7-0.5,1.3-1.3,1.9-2.3c3.9-6.6,5.3-22.2,0.5-31.4
						c-7.3-14.1-24.6-19.5-38.7-12.2C404.2,519.7,400.3,523.5,397.7,527.9L397.7,527.9z"/>
				</g>
			</g>
		</g>
		<g>
			<path class="st5" d="M431.2,587c-1.3,0-2.5-0.7-3.1-1.9c-0.9-1.7-0.2-3.9,1.5-4.8l5.3-2.7c1.7-0.9,3.9-0.2,4.8,1.5
				s0.2,3.9-1.5,4.8l-5.3,2.7C432.3,586.9,431.7,587,431.2,587z"/>
		</g>
		<g>
			<g>
				<path class="st6" d="M409.1,517.2c-14.1,7.3-19.5,24.6-12.2,38.7c5.5,10.6,17.5,17.8,29,17.4l2.8,5.4l6.2-3.2l13.3-6.9l-2.8-5.4
					c5.2-4.9,10.7-19,2.5-33.7C440.1,515.6,423.2,509.9,409.1,517.2z"/>
			</g>
			<g class="st3">
				<g>
					<path class="st7" d="M398.9,528.7c2.6-4.3,6.3-7.9,10.9-10.2c6.4-3.3,13.7-3.9,20.6-1.7c6.8,2.2,12.6,7,16.2,13.4
						c2.9,5.2,4.3,10.7,4,16.3c-0.2,4.5-1.5,8.8-3.5,12.3c-0.8,1.4-1.7,2.6-2.7,3.4l-0.8,0.7l0.5,1l2.1,4.1l-12,6.2l-4.9,2.6
						l-2.1-4.1l-0.4-0.8h-0.9c-5.3,0.2-11-1.4-16-4.4s-9.2-7.4-11.7-12.3c-2.2-4.2-3.2-8.9-3.1-13.6
						C395.2,537,396.6,532.6,398.9,528.7 M397.7,527.9c-4.9,8.2-5.6,18.8-0.8,27.9c5.5,10.6,17.5,17.8,29,17.4l2.8,5.4l6.2-3.2
						l13.3-6.9l-2.8-5.4c1-0.9,2-2.2,2.9-3.7c3.9-6.6,6.2-18.1-0.4-30c-7.7-13.8-24.6-19.5-38.7-12.2
						C404.2,519.7,400.3,523.5,397.7,527.9L397.7,527.9z"/>
				</g>
			</g>
		</g>
		<g class="st3">
			<g>
				<path class="st1" d="M420.1,519.9c-19-0.2-29.1,23.5-16.9,35.6c0.4,0.4,1,0,0.9-0.5c-0.6-3.4-1.5-11.7,1.4-17.8
					c3.4-7.2,11.7-13.9,14.9-16.3C420.9,520.5,420.6,519.9,420.1,519.9z"/>
			</g>
		</g>
		<g>
			<path class="st5" d="M445.4,579.7c-1.3,0-2.5-0.7-3.1-1.9c-0.9-1.7-0.2-3.9,1.5-4.8l5.3-2.7c1.7-0.9,3.9-0.2,4.8,1.5
				s0.2,3.9-1.5,4.8l-5.3,2.7C446.5,579.5,445.9,579.7,445.4,579.7z"/>
		</g>
		<g>
			<path class="st5" d="M433.6,591.7c-1.3,0-2.5-0.7-3.1-1.9c-0.9-1.7-0.2-3.9,1.5-4.8l5.3-2.7c1.7-0.9,3.9-0.2,4.8,1.5
				s0.2,3.9-1.5,4.8l-5.3,2.7C434.7,591.6,434.2,591.7,433.6,591.7z"/>
		</g>
		<g>
			<path class="st5" d="M447.8,584.3c-1.3,0-2.5-0.7-3.1-1.9c-0.9-1.7-0.2-3.9,1.5-4.8l5.3-2.7c1.7-0.9,3.9-0.2,4.8,1.5
				s0.2,3.9-1.5,4.8l-5.4,2.7C448.9,584.2,448.4,584.3,447.8,584.3z"/>
		</g>
		<g>
			<g>
				<polygon class="st8" points="440,572.5 437,574.1 428.2,557.2 415,553 416,549.8 430.6,554.4 				"/>
			</g>
		</g>
		<g>
			<g>
				<circle class="st6" cx="415.5" cy="551.4" r="3.9"/>
			</g>
			<g>
				<path class="st8" d="M420.4,554.3L420.4,554.3c-0.5,0.9-1.3,1.6-2.3,2.1c-2.8,1.4-6.2,0.4-7.6-2.4c-0.9-1.8-0.8-3.8,0.2-5.5
					c0.5-0.9,1.3-1.6,2.3-2.1c1.3-0.7,2.9-0.8,4.3-0.4c1.4,0.5,2.6,1.4,3.3,2.8C421.4,550.5,421.4,552.6,420.4,554.3z M413.6,550.2
					c-0.4,0.7-0.4,1.5-0.1,2.2c0.6,1.1,1.9,1.5,3,1c0.4-0.2,0.7-0.5,0.9-0.8c0.4-0.7,0.4-1.5,0.1-2.2c-0.3-0.5-0.7-0.9-1.3-1.1
					s-1.2-0.1-1.7,0.1C414.1,549.6,413.8,549.9,413.6,550.2z"/>
			</g>
		</g>
		<g>
			<g>
				
					<rect x="430.3" y="541.2" transform="matrix(0.9436 0.3312 -0.3312 0.9436 206.1171 -112.1082)" class="st8" width="3.4" height="15"/>
			</g>
		</g>
		<g>
			<g>
				<circle class="st6" cx="434.4" cy="541.6" r="3.9"/>
			</g>
			<g>
				<path class="st8" d="M439.2,544.5c-0.5,0.9-1.3,1.6-2.3,2.1c-2.8,1.4-6.2,0.4-7.6-2.4c-0.9-1.8-0.8-3.8,0.2-5.5
					c0.5-0.9,1.3-1.6,2.3-2.1c2.8-1.4,6.2-0.4,7.6,2.4C440.3,540.7,440.3,542.8,439.2,544.5z M432.5,540.5c-0.4,0.7-0.4,1.5-0.1,2.2
					c0.6,1.1,1.9,1.5,3,1c0.4-0.2,0.7-0.5,0.9-0.8c0.4-0.7,0.4-1.5,0.1-2.2c-0.6-1.1-1.9-1.5-3-1C433,539.8,432.7,540.1,432.5,540.5
					z"/>
			</g>
		</g>
	</g>
	<g>
		<g>
			<path class="st7" d="M406.1,511.3c0.4-0.2,0.8-0.4,1.2-0.6c-0.7-1.3-1.3-2.5-2-3.8c-0.6-1.2-1.2-2.4-1.8-3.5
				c-0.4,0.2-0.8,0.4-1.2,0.6c-0.3,0.1-0.5,0.3-0.8,0.4c1.3,2.4,2.5,4.9,3.8,7.3C405.6,511.6,405.8,511.4,406.1,511.3z"/>
		</g>
		<g class="st9">
			<path class="st7" d="M394.8,520.7c0.4-0.6,0.9-1.1,1.4-1.7c-2-1.8-4-3.7-6-5.5c-0.5,0.5-0.9,1.1-1.4,1.7c1.7,1.5,3.3,3.1,5,4.6
				C394.1,520.1,394.5,520.4,394.8,520.7z"/>
		</g>
		<g>
			<path class="st7" d="M388.8,532.9c0.2-0.7,0.4-1.4,0.6-2.1c-2.5-1-5-2.1-7.5-3.1c-0.2,0.7-0.5,1.4-0.7,2.1
				c1.8,0.7,3.6,1.5,5.3,2.2C387.3,532.3,388.1,532.6,388.8,532.9z"/>
		</g>
		<g class="st9">
			<path class="st7" d="M387.5,543.9c-2.7-0.1-5.3-0.2-8-0.4c0,0.7,0.1,1.5,0.1,2.2c2.7,0.1,5.4,0.2,8,0.4
				C387.6,545.4,387.6,544.6,387.5,543.9z"/>
		</g>
		<g>
			<path class="st7" d="M457.9,549.2c2.7,0.1,5.4,0.2,8,0.4c0.1-0.7,0.1-1.5,0.2-2.2c-2.7-0.1-5.3-0.2-8-0.4
				C458,547.8,458,548.5,457.9,549.2z"/>
		</g>
		<g>
			<path class="st7" d="M390.2,556.3c-2.5,0.8-5.1,1.6-7.6,2.4c0.3,0.7,0.5,1.4,0.8,2c2.5-0.8,5.1-1.6,7.6-2.4
				C390.7,557.7,390.4,557,390.2,556.3z"/>
		</g>
		<g class="st9">
			<path class="st7" d="M457.5,537.5c2.5-0.8,5.1-1.6,7.6-2.4c-0.2-0.7-0.3-1.4-0.5-2.1c-2.5,0.8-5.1,1.6-7.6,2.4
				C457.1,536.1,457.3,536.8,457.5,537.5z"/>
		</g>
		<g>
			<path class="st7" d="M453.2,526.2c2.1-1.6,4.2-3.2,6.3-4.9c-0.4-0.6-0.8-1.2-1.2-1.9c-2.1,1.6-4.2,3.2-6.3,4.8
				C452.5,524.9,452.8,525.5,453.2,526.2z"/>
		</g>
		<g class="st9">
			<path class="st7" d="M396.5,566.8c-2.1,1.6-4.2,3.2-6.3,4.8c0.5,0.6,0.9,1.1,1.4,1.6c2.1-1.6,4.2-3.2,6.3-4.9
				C397.5,567.9,397,567.4,396.5,566.8z"/>
		</g>
		<g>
			<path class="st7" d="M405.5,574.5c-1.4,2.2-2.9,4.5-4.3,6.7c0.6,0.4,1.3,0.8,1.9,1.1c1.4-2.3,2.9-4.5,4.3-6.8
				C406.8,575.3,406.2,574.9,405.5,574.5z"/>
		</g>
		<g class="st9">
			<path class="st7" d="M445.3,516.4c1.4-2.3,2.9-4.5,4.3-6.8c-0.6-0.5-1.1-0.9-1.7-1.4c-1.4,2.2-2.9,4.5-4.3,6.7
				C444.1,515.5,444.7,515.9,445.3,516.4z"/>
		</g>
		<g>
			<path class="st7" d="M431.9,509c0.7,0.2,1.4,0.4,2.1,0.7c0.6-2.6,1.2-5.3,1.8-7.9c-0.7-0.2-1.4-0.5-2.1-0.7
				c-0.4,1.8-0.8,3.6-1.2,5.4C432.3,507.3,432.1,508.2,431.9,509z"/>
		</g>
		<g class="st9">
			<path class="st7" d="M418.5,507.7c0.7-0.1,1.5-0.1,2.2-0.1c-0.4-2.7-0.7-5.4-1.1-8.1c-0.7,0-1.5,0.1-2.2,0.2
				c0.3,2.3,0.6,4.6,0.9,6.9C418.4,506.8,418.4,507.2,418.5,507.7z"/>
		</g>
	</g>
</g>
<g>
	<g>
		<g>
			<g>
				<path class="st2" d="M590.6,465.3c-13.3-6.5-29.2-1-35.7,12.3c-4.9,10-3.6,23,3.1,31.3l-7.9,16.3l0,0c-1,2.9,0.1,5.6,2.4,8
					c-0.2,0.1-0.3,0.2-0.4,0.4c-0.2,0.5,0,1.1,0.5,1.4l6.6,3.2c0.5,0.2,1.1,0,1.4-0.5c0.1-0.2,0.1-0.4,0.1-0.6c3.3,0.3,6,0,7.7-2.6
					l8.1-16.7c6.1,1.7,21.7-6.9,26.6-16.9C609.3,487.7,603.8,471.7,590.6,465.3z"/>
			</g>
			<g class="st3">
				<g>
					<path class="st4" d="M576.3,464c4.7-0.5,9.4,0.4,13.7,2.4c6.1,3,10.7,8.1,12.9,14.5s1.8,13.3-1.2,19.4
						c-1.9,3.8-5.5,7.7-10.4,11c-4.3,2.9-9,5-12.4,5.3c-0.9,0.1-1.7,0.1-2.3-0.1l-1.1-0.3l-0.5,1l-8,16.6c-0.8,1.2-1.9,1.8-3.6,2
						c-0.8,0.1-1.7,0.1-2.8,0l-1.7-0.2l0.2,1.1l-5.6-2.7l1-0.6l-1.2-1.2c-2.2-2.3-2.8-4.4-2.1-6.7l0.1-0.4l7.7-15.8l0.4-0.7
						l-0.5-0.7c-3.1-3.8-5.1-8.9-5.6-14.4c-0.5-5.4,0.4-11,2.7-15.6c1.9-4,4.9-7.3,8.5-9.8C568,465.9,572.1,464.5,576.3,464
						 M576.2,462.7c-8.9,0.9-17.1,6.2-21.3,14.9c-4.9,10-3.6,23,3.1,31.3l-7.9,16.3l0,0c-1,2.9,0.1,5.6,2.4,8
						c-0.2,0.1-0.3,0.2-0.4,0.4c-0.2,0.5,0,1.1,0.5,1.4l6.6,3.2c0.2,0.1,0.4,0.1,0.5,0.1c0.3,0,0.7-0.2,0.8-0.6
						c0.1-0.2,0.1-0.4,0.1-0.6c1.1,0.1,2.1,0.1,3,0c1.9-0.2,3.5-0.9,4.6-2.7l8.1-16.7c0.8,0.2,1.7,0.3,2.8,0.2
						c7.1-0.7,19.5-8.3,23.8-17c6.5-13.3,1-29.2-12.3-35.7C586,463,581,462.2,576.2,462.7L576.2,462.7z"/>
				</g>
			</g>
		</g>
		<g>
			<path class="st5" d="M558.2,524.5c-0.5,0-1-0.1-1.5-0.4l-4.9-2.4c-1.8-0.9-2.5-3-1.6-4.7c0.9-1.8,3-2.5,4.7-1.6l4.9,2.4
				c1.8,0.9,2.5,3,1.6,4.7C560.8,523.8,559.5,524.5,558.2,524.5z"/>
		</g>
		<g>
			<g>
				<path class="st6" d="M590.6,465.3c-13.3-6.5-29.2-1-35.7,12.3c-4.9,10-3.6,23,3.1,31.3l-2.5,5.1l5.8,2.8l12.5,6.1l2.5-5.1
					c6.6,1.2,20.1-2.6,26.6-16.9C608.9,487.5,603.8,471.7,590.6,465.3z"/>
			</g>
			<g class="st3">
				<g>
					<path class="st7" d="M576.3,464c4.7-0.5,9.4,0.4,13.7,2.4c6,2.9,10.6,8.1,12.7,14.5c2.1,6.3,1.8,13.3-1,19.5
						c-2.3,5.1-5.6,9.1-9.9,12c-3.4,2.3-7.4,3.8-11.2,4.2c-1.5,0.2-2.9,0.1-4-0.1l-1-0.2l-0.4,0.9l-1.9,3.9l-11.3-5.5l-4.6-2.3
						l1.9-3.9l0.4-0.7l-0.5-0.7c-3.1-3.8-5.1-8.9-5.6-14.4c-0.5-5.4,0.4-11,2.7-15.6c1.9-4,4.9-7.3,8.5-9.8
						C568,465.9,572.1,464.5,576.3,464 M576.2,462.7c-8.9,0.9-17.1,6.2-21.3,14.9c-4.9,10-3.6,23,3.1,31.3l-2.5,5.1l5.8,2.8
						l12.5,6.1l2.5-5.1c1.2,0.2,2.7,0.3,4.4,0.1c7.1-0.7,17-5.4,22.2-17c6-13.4,1-29.2-12.3-35.7C586,463,581,462.2,576.2,462.7
						L576.2,462.7z"/>
				</g>
			</g>
		</g>
		<g class="st3">
			<g>
				<path class="st1" d="M594.7,475c-10.4-14.3-33.7-8.7-36,7.1c-0.1,0.5,0.5,0.8,0.9,0.4c2.3-2.3,7.9-7.6,14.1-8.8
					c7.3-1.4,16.9,1.1,20.4,2.1C594.6,475.9,595,475.4,594.7,475z"/>
			</g>
		</g>
		<g>
			<path class="st5" d="M571.6,531.1c-0.5,0-1-0.1-1.5-0.4l-4.9-2.4c-1.8-0.9-2.5-3-1.6-4.7c0.9-1.8,3-2.5,4.7-1.6l4.9,2.4
				c1.8,0.9,2.5,3,1.6,4.7C574.2,530.3,572.9,531.1,571.6,531.1z"/>
		</g>
		<g>
			<path class="st5" d="M556.1,528.9c-0.5,0-1.1-0.1-1.6-0.4l-4.9-2.4c-1.8-0.9-2.5-3-1.6-4.7c0.9-1.8,3-2.5,4.7-1.6l4.9,2.4
				c1.8,0.9,2.5,3,1.6,4.7C558.6,528.2,557.4,528.9,556.1,528.9z"/>
		</g>
		<g>
			<path class="st5" d="M569.4,535.5c-0.5,0-1-0.1-1.5-0.4l-4.9-2.4c-1.8-0.9-2.5-3-1.6-4.7c0.9-1.8,3-2.5,4.7-1.6l4.9,2.4
				c1.8,0.9,2.5,3,1.6,4.7C572,534.7,570.8,535.5,569.4,535.5z"/>
		</g>
		<g>
			<g>
				<polygon class="st8" points="566.4,519.1 563.5,517.7 571.3,501.8 567.1,489.6 570.1,488.5 574.7,502 				"/>
			</g>
		</g>
		<g>
			<g>
				<circle class="st6" cx="568.6" cy="489" r="3.7"/>
			</g>
			<g>
				<path class="st8" d="M569.1,494.3L569.1,494.3c-1,0.1-2-0.1-2.8-0.5c-2.6-1.3-3.7-4.4-2.4-7c0.8-1.7,2.4-2.7,4.2-2.9
					c1-0.1,2,0.1,2.8,0.5c1.3,0.6,2.2,1.7,2.7,3s0.4,2.8-0.2,4C572.5,493,570.9,494.1,569.1,494.3z M568.4,487
					c-0.7,0.1-1.3,0.5-1.7,1.2c-0.5,1-0.1,2.3,1,2.8c0.3,0.2,0.7,0.2,1.1,0.2c0.7-0.1,1.3-0.5,1.7-1.2c0.2-0.5,0.3-1.1,0.1-1.6
					s-0.6-0.9-1.1-1.2C569.1,487,568.7,486.9,568.4,487z"/>
			</g>
		</g>
		<g>
			<g>
				
					<rect x="578.2" y="492.8" transform="matrix(0.2964 0.9551 -0.9551 0.2964 885.3307 -202.052)" class="st8" width="3.2" height="14"/>
			</g>
		</g>
		<g>
			<g>
				<circle class="st6" cx="586.3" cy="497.7" r="3.7"/>
			</g>
			<g>
				<path class="st8" d="M586.9,503c-1,0.1-2-0.1-2.8-0.5c-2.6-1.3-3.7-4.4-2.4-7c0.8-1.7,2.4-2.7,4.2-2.9c1-0.1,2,0.1,2.8,0.5
					c2.6,1.3,3.7,4.4,2.4,7C590.3,501.7,588.7,502.8,586.9,503z M586.1,495.7c-0.7,0.1-1.3,0.5-1.7,1.2c-0.5,1-0.1,2.3,1,2.8
					c0.3,0.2,0.7,0.2,1.1,0.2c0.7-0.1,1.3-0.5,1.7-1.2c0.5-1,0.1-2.3-1-2.8C586.9,495.7,586.5,495.6,586.1,495.7z"/>
			</g>
		</g>
	</g>
	<g>
		<g>
			<path class="st7" d="M593.3,459.8c0.4,0.2,0.7,0.4,1.1,0.6c0.6-1.2,1.2-2.4,1.7-3.6c0.5-1.1,1.1-2.2,1.6-3.3
				c-0.4-0.2-0.7-0.4-1.1-0.6c-0.2-0.1-0.5-0.2-0.7-0.3c-1.1,2.3-2.2,4.6-3.4,6.9C592.8,459.5,593,459.6,593.3,459.8z"/>
		</g>
		<g class="st9">
			<path class="st7" d="M580,456.6c0.7,0,1.4,0,2,0.1c0.3-2.5,0.5-5.1,0.8-7.6c-0.7-0.1-1.4-0.1-2-0.1c-0.2,2.1-0.4,4.2-0.7,6.3
				C580.1,455.7,580.1,456.1,580,456.6z"/>
		</g>
		<g>
			<path class="st7" d="M567.5,458.8c0.6-0.2,1.3-0.5,1.9-0.7c-0.6-2.4-1.2-4.9-1.8-7.3c-0.6,0.2-1.3,0.4-1.9,0.7
				c0.4,1.7,0.9,3.5,1.3,5.2C567.2,457.4,567.4,458.1,567.5,458.8z"/>
		</g>
		<g class="st9">
			<path class="st7" d="M558.7,464c-1.4-2.1-2.8-4.1-4.2-6.2c-0.5,0.4-1.1,0.9-1.6,1.3c1.4,2.1,2.8,4.1,4.2,6.2
				C557.6,464.8,558.1,464.4,558.7,464z"/>
		</g>
		<g>
			<path class="st7" d="M593.7,519.5c1.4,2.1,2.8,4.1,4.2,6.2c0.6-0.3,1.2-0.7,1.7-1.1c-1.4-2.1-2.8-4.1-4.2-6.2
				C594.9,518.8,594.3,519.2,593.7,519.5z"/>
		</g>
		<g>
			<path class="st7" d="M550.8,472.8c-2-1.4-4-2.9-6-4.3c-0.4,0.6-0.7,1.2-1,1.7c2,1.5,4,2.9,6,4.4
				C550.1,474,550.5,473.4,550.8,472.8z"/>
		</g>
		<g class="st9">
			<path class="st7" d="M602.2,512.7c2,1.5,4,2.9,6,4.4c0.4-0.5,0.9-1,1.3-1.6c-2-1.4-4-2.9-6-4.3
				C603.1,511.7,602.7,512.2,602.2,512.7z"/>
		</g>
		<g>
			<path class="st7" d="M608.3,503.2c2.4,0.7,4.8,1.4,7.1,2c0.3-0.6,0.5-1.3,0.7-1.9c-2.4-0.7-4.7-1.4-7.1-2
				C608.9,502,608.6,502.6,608.3,503.2z"/>
		</g>
		<g class="st9">
			<path class="st7" d="M546.5,483.4c-2.4-0.7-4.7-1.4-7.1-2c-0.2,0.7-0.3,1.3-0.4,2c2.4,0.7,4.8,1.4,7.1,2
				C546.2,484.7,546.3,484.1,546.5,483.4z"/>
		</g>
		<g>
			<path class="st7" d="M545.7,494.4c-2.5,0.2-5,0.3-7.4,0.5c0.1,0.7,0.1,1.4,0.2,2c2.5-0.2,5-0.3,7.5-0.5
				C545.9,495.8,545.8,495.1,545.7,494.4z"/>
		</g>
		<g class="st9">
			<path class="st7" d="M611.2,491.9c2.5-0.2,5-0.3,7.5-0.5c0-0.7,0.1-1.4,0.1-2c-2.5,0.2-5,0.3-7.4,0.5
				C611.3,490.5,611.2,491.2,611.2,491.9z"/>
		</g>
		<g>
			<path class="st7" d="M609.3,477.8c0.2,0.6,0.4,1.3,0.6,1.9c2.3-1,4.6-2.1,6.9-3.1c-0.2-0.7-0.4-1.3-0.7-1.9
				c-1.6,0.7-3.1,1.4-4.7,2.1C610.8,477.2,610.1,477.5,609.3,477.8z"/>
		</g>
		<g class="st9">
			<path class="st7" d="M602.9,467c0.5,0.5,0.9,1,1.3,1.6c1.8-1.8,3.7-3.5,5.5-5.3c-0.4-0.5-0.9-1-1.3-1.5c-1.5,1.5-3.1,3-4.6,4.5
				C603.5,466.5,603.2,466.7,602.9,467z"/>
		</g>
	</g>
</g>
<g>
	<path class="st1" d="M449.8,188.6c-1.8,0-3.6-0.7-5-2.1c-2.8-2.8-2.8-7.3,0-10l19.2-19.4c1.3-1.3,3.1-2.2,5-2.2h0.2
		c1.9,0,3.7,0.9,5,2.2l19.2,19.3c2.8,2.8,2.8,7.3,0,10.1c-2.8,2.8-7.3,2.8-10,0l-14.3-14.3l-14.3,14.3
		C453.5,187.9,451.7,188.6,449.8,188.6z"/>
</g>
<g>
	<path class="st1" d="M469.4,165.1c-3.9,0-7,3.2-7,7.1v170.5c0,19.7-7.7,38.3-21.7,52.3l-61.9,61.9c-0.6,8.2-2,16.3-4.3,24.3
		l76.1-76.2c16.6-16.6,25.7-38.8,25.7-62.3V172.2C476.4,168.3,473.3,165.1,469.4,165.1z"/>
	<path class="st1" d="M334.4,375.2L334.4,375.2c-40.5-40.5-106.3-40.5-146.8,0s-40.5,106.3,0,146.8c20.2,20.2,46.8,30.4,73.4,30.4
		c0.8,0,1.5,0,2.3,0l16-16c-28.6,5.9-59.6-2.2-81.7-24.3c-35-35-35-91.8,0-126.8c17.5-17.5,40.4-26.2,63.4-26.2s45.9,8.7,63.4,26.2
		c32.2,32.2,34.7,82.9,7.7,118c-0.3,0.5-0.7,1-1.1,1.5l-0.2,0.2c-0.1,0.1-0.2,0.3-0.3,0.4l-5.9,5.9c-0.2,0.2-0.4,0.3-0.6,0.5
		L198.6,637c-2.8,2.8-2.8,7.3,0,10c1.4,1.4,3.2,2.1,5,2.1c1.8,0,3.6-0.7,5-2.1l118.2-118.2c2.6-2.1,5.1-4.4,7.5-6.8
		c2.3-2.3,4.5-4.7,6.5-7.1l1.7-1.7c9.4-11.9,15.9-25.4,19.4-39.4l-0.3,0.3C370.2,439.8,361.1,402,334.4,375.2z"/>
</g>
<g>
	<path class="st11" d="M699.1,521.8c1.4,1.4,3.2,2.1,5,2.1s3.6-0.7,5-2.1c2.8-2.8,2.8-7.3,0-10l-37.9-37.9
		c3.5,14.1,10,27.5,19.4,39.4L699.1,521.8z"/>
	<path class="st1" d="M654.2,456.9l-62-61.9c-14-14-21.8-32.5-21.8-52.3V172.2c0-3.9-3.1-7.1-7-7.1s-7,3.2-7,7.1v170.5
		c0,23.5,9.2,45.6,25.8,62.3l76.2,76.2C656.2,473.2,654.8,465,654.2,456.9z"/>
</g>
<g>
	<path class="st1" d="M583.2,188.6c-1.8,0-3.6-0.7-5-2.1l-14.3-14.3l-14.3,14.3c-2.8,2.8-7.3,2.8-10,0c-2.8-2.8-2.8-7.3,0-10
		l19.2-19.4c1.3-1.3,3.1-2.2,5-2.2h0.2c1.9,0,3.7,0.9,5,2.2l19.2,19.3c2.8,2.8,2.8,7.3,0,10.1C586.8,187.9,585,188.6,583.2,188.6z"
		/>
</g>
<path class="st1" d="M845.5,375.2c-40.5-40.5-106.3-40.5-146.8,0l0,0c-40.5,40.5-40.5,106.3,0,146.8c13.7,13.7,30.4,22.8,48,27.2
	l-30.9-30.9c-2.4-2-4.8-4.1-7-6.3c-2.3-2.3-4.4-4.6-6.3-7l-0.2-0.2c-0.5-0.5-0.8-1-1.1-1.5c-27-35.1-24.5-85.9,7.7-118l0,0
	c35-35,91.8-35,126.8,0s35,91.8,0,126.8c-22.2,22.2-53.1,30.3-81.7,24.3l16,16c0.8,0,1.5,0,2.3,0c26.6,0,53.2-10.1,73.4-30.4
	C886,481.5,886,415.7,845.5,375.2z"/>
<g>
	<path class="st1" d="M829.4,649.1c-1.8,0-3.6-0.7-5-2.1L699.1,521.8c-2.8-2.8-2.8-7.3,0-10c2.8-2.8,7.3-2.8,10,0L834.4,637
		c2.8,2.8,2.8,7.3,0,10C833,648.4,831.2,649.1,829.4,649.1z"/>
</g>
<g>
	<path class="st1" d="M534.6,146c-1.8,0-3.6-0.7-5-2.1l-14.4-14.3L501,143.9c-2.8,2.8-7.3,2.7-10,0c-2.8-2.8-2.7-7.3,0-10l19.2-19
		c1.3-1.3,3.1-2,5-2h0.2c1.9,0,3.7,0.6,5,2l19.2,19.1c2.8,2.8,2.8,7.2,0,10C538.3,145.4,536.5,146,534.6,146z"/>
</g>
<g>
	<path class="st1" d="M523.4,129.7c0-3.9-3.6-7.1-7.5-7.1s-7.5,3.2-7.5,7.1v471.4c4-7.3,8-14.1,15-20.4V129.7z"/>
	<path class="st1" d="M612.5,554.1c-38,0-71.1,20.6-89.1,51.2v-0.4c-9,13-14,27.8-15,43.6v3.2c0,2.1,0.2,4.2,0.2,6.3
		c0,19.2,4.8,37.2,14.8,52.6v-46.8c0-1.3-0.1-2.7-0.2-4c0.1-0.5,0.2-1,0.2-1.5V652v-3.7c0-1.1-0.1-2.1,0.3-3
		c6.1-43.5,43.4-77.1,88.6-77.1c49.4,0,89.6,40.2,89.6,89.7s-40.5,89.7-89.9,89.7c-31.5,0-59.5-16.4-75.5-41v22.8
		c19,19.9,45.9,32.4,75.5,32.4c57.2,0,104.1-46.6,104.1-103.8C716,600.7,669.7,554.1,612.5,554.1z"/>
</g>
<g>
	<path class="st1" d="M515.9,842.6c-3.9,0-7.5-3.2-7.5-7.1V658.4c0-3.9,3.6-7.1,7.5-7.1s7.5,3.2,7.5,7.1v177.2
		C523.4,839.4,519.8,842.6,515.9,842.6z"/>
</g>
<g>
	<g>
		<g>
			<path class="st1" d="M304,789.3c-3.9,0-7.7-2-10-5.2c-2.3-3.3-2.9-7.4-1.5-11.1l28.5-88.2v-0.1c0.8-2,1-4.2,0.6-6.3v-0.1
				l-4.9-43.9l-1.1,0.2c-0.4,0.1-0.7,0.1-1.1,0.1c-2.9,0-5.4-2.1-5.9-4.9c-0.6-3.3,1.5-6.4,4.8-7h0.1l7.8-0.7
				c12.6-1.1,25.1-3.4,37.3-7l7.6-2.2h0.1c0.4-0.1,0.7-0.1,1.1-0.1c2.9,0,5.4,2.1,5.9,4.9c0.6,3.3-1.5,6.4-4.8,7l-1.1,0.2l11.2,42.7
				v0.1c0.4,2.1,1.4,4.1,2.9,5.7l0.1,0.1l58.5,72c2.9,3.3,3.7,7.8,2.3,12c-1.5,4.2-4.9,7.2-9.3,8l-126.7,23.6
				C305.5,789.2,304.8,789.3,304,789.3L304,789.3z"/>
		</g>
		<g>
			<path class="st12" d="M367.4,615c1.8,0,3.5,1.3,3.8,3.2c0.4,2.1-1,4.1-3.1,4.5l-3.4,0.6l11.8,44.9c0.5,2.5,1.6,4.8,3.4,6.7
				l58.4,71.9c5.1,5.9,1.9,15.1-5.8,16.5l-126.7,23.6c-0.6,0.1-1.3,0.2-1.9,0.2c-6.8,0-11.9-6.8-9.4-13.5l28.5-88.2
				c1-2.4,1.2-5,0.7-7.5l-5.2-46.1l-3.4,0.6c-0.2,0-0.5,0.1-0.7,0.1c-1.8,0-3.5-1.3-3.8-3.2c-0.4-2.1,1-4.1,3.1-4.5l7.7-0.7
				c12.8-1.1,25.4-3.5,37.7-7l7.5-2.2C366.9,615,367.2,615,367.4,615 M367.4,610.7c-0.5,0-1,0-1.5,0.1h-0.2l-0.2,0.1l-7.5,2.2
				c-12,3.5-24.4,5.8-36.9,6.9l-7.7,0.7h-0.2H313c-4.4,0.8-7.3,5.1-6.5,9.5c0.7,3.8,4.1,6.6,8,6.6c0.1,0,0.2,0,0.4,0l4.7,41.7v0.2
				v0.2c0.3,1.7,0.1,3.5-0.5,5.1l-0.1,0.1v0.1l-28.5,88.1c-1.6,4.4-0.9,9.2,1.8,13c2.7,3.8,7.1,6.1,11.7,6.1c0.9,0,1.8-0.1,2.7-0.3
				l126.7-23.6c5.1-1,9.2-4.5,10.9-9.4c1.7-4.9,0.7-10.1-2.7-14.1l-58.4-71.9l-0.1-0.1l-0.1-0.1c-1.2-1.3-2-2.9-2.3-4.6v-0.2V667
				L370,626.5c1.7-0.6,3.1-1.6,4.1-3.1c1.2-1.8,1.7-4,1.3-6.1C374.7,613.5,371.3,610.7,367.4,610.7L367.4,610.7z"/>
		</g>
	</g>
	<g>
		<path class="st13" d="M309.6,776l115.6-21.6c2.5-0.5,3.6-3.4,2-5.4l-38.9-48c-30.1,14.9-46-0.1-63.3,11.8l-19.2,58.8
			C305,774.1,307.1,776.5,309.6,776z"/>
	</g>
	<g class="st9">
		<path class="st1" d="M340.8,741.4c-3.8,0-7.2-2.7-8-6.6c-0.4-2.1,0.1-4.3,1.3-6.1c1.2-1.8,3.1-3,5.2-3.4s4.3,0.1,6.1,1.3
			c1.8,1.2,3,3.1,3.4,5.2s-0.1,4.3-1.3,6.1c-1.2,1.8-3.1,3-5.2,3.4C341.8,741.4,341.3,741.4,340.8,741.4z M340.8,728.7
			c-0.3,0-0.6,0-0.8,0.1c-1.2,0.2-2.2,0.9-2.9,1.9c-0.7,1-0.9,2.2-0.7,3.4c0.2,1.2,0.9,2.2,1.9,2.9s2.2,0.9,3.4,0.7
			c2.5-0.5,4.1-2.9,3.7-5.3C344.9,730.3,343,728.7,340.8,728.7z"/>
	</g>
	<g class="st9">
		<circle class="st1" cx="367.6" cy="725.8" r="2.4"/>
	</g>
	<g class="st9">
		<circle class="st1" cx="361.6" cy="747.9" r="5.1"/>
	</g>
	<g class="st9">
		<path class="st1" d="M388,743.1c-3.3,0-6.2-2.3-6.8-5.6c-0.7-3.7,1.8-7.4,5.5-8.1c3.7-0.7,7.4,1.8,8.1,5.5l0,0
			c0.7,3.7-1.8,7.4-5.5,8.1C388.9,743,388.5,743.1,388,743.1z M388,732.8c-0.2,0-0.4,0-0.6,0.1c-1.8,0.3-3,2.1-2.7,3.9
			s2.1,3,3.9,2.7s3-2.1,2.7-3.9C391,733.9,389.6,732.8,388,732.8z"/>
	</g>
	<g>
		<g>
			<path class="st13" d="M342.9,675.3c1.1,0,2.2,0.8,2.4,2c0.2,1.3-0.6,2.6-1.9,2.8c-0.2,0-0.3,0-0.4,0c-1.1,0-2.2-0.8-2.4-2
				c-0.2-1.3,0.6-2.6,1.9-2.8C342.6,675.3,342.8,675.3,342.9,675.3 M342.9,671.8c-0.4,0-0.7,0-1.1,0.1c-1.6,0.3-2.9,1.2-3.8,2.5
				s-1.2,2.9-0.9,4.5c0.5,2.8,3,4.9,5.9,4.9c0.4,0,0.7,0,1.1-0.1c1.6-0.3,2.9-1.2,3.8-2.5s1.2-2.9,0.9-4.5
				C348.3,673.8,345.8,671.8,342.9,671.8L342.9,671.8z"/>
		</g>
	</g>
	<g>
		<circle class="st13" cx="365.1" cy="696.1" r="3.5"/>
	</g>
	<g>
		<circle class="st13" cx="349.6" cy="652.4" r="5.5"/>
	</g>
	<g>
		<circle class="st13" cx="357.2" cy="582.5" r="2.4"/>
	</g>
	<g>
		<circle class="st13" cx="311.5" cy="577.8" r="5.5"/>
	</g>
	<g>
		<path class="st13" d="M334.4,607.8c-1.4,0-2.7-0.4-3.9-1.2c-1.5-1-2.5-2.6-2.9-4.4c-0.3-1.8,0-3.7,1.1-5.2c1-1.5,2.6-2.5,4.4-2.9
			c3.7-0.7,7.4,1.8,8.1,5.5s-1.8,7.4-5.5,8.1C335.2,607.8,334.8,607.8,334.4,607.8z M334.4,597.5c-0.2,0-0.4,0-0.6,0.1
			c-0.9,0.2-1.7,0.7-2.2,1.4s-0.7,1.6-0.5,2.5l0,0c0.2,0.9,0.7,1.7,1.4,2.2c0.7,0.5,1.6,0.7,2.5,0.5c1.8-0.3,3-2.1,2.7-3.9
			C337.4,598.7,336,597.5,334.4,597.5z"/>
	</g>
	<g>
		<path class="st14" d="M425.4,746.9c-0.4,0.3-0.9,0.6-1.5,0.7l-115.6,21.6c-0.6,0.1-1.2,0.1-1.7-0.1l-0.9,2.7
			c-0.8,2.4,1.3,4.8,3.8,4.3l115.6-21.6c2.5-0.5,3.6-3.4,2-5.4L425.4,746.9z"/>
	</g>
	<g>
		<path class="st12" d="M325.2,635.7c-1.1,0-2-0.8-2.1-1.9c-0.1-1.2,0.8-2.2,1.9-2.3c11.6-1,22.7-3.1,33.8-6.3
			c1.1-0.3,2.3,0.3,2.6,1.5c0.3,1.1-0.3,2.3-1.5,2.6C348.5,632.6,337.2,634.7,325.2,635.7C325.4,635.7,325.3,635.7,325.2,635.7z"/>
	</g>
</g>
<g>
	<g>
		<g>
			<path class="st1" d="M704.5,704.5c-3.2-2.2-5.2-6-5.2-10s1.8-7.7,5.1-10l73.6-56.3h0.1c1.8-1.2,3.2-2.9,4.1-4.8v-0.1l20.9-38.9
				l-1.1-0.5c-0.3-0.2-0.7-0.3-1-0.5c-2.4-1.6-3.2-4.8-2.1-7.4c1.4-3,4.9-4.4,7.9-3h0.1l6.8,3.9c11,6.3,22.6,11.5,34.6,15.5l7.5,2.5
				h0.1c0.3,0.2,0.7,0.3,1,0.5c2.4,1.6,3.2,4.8,2.1,7.4c-1.4,3-4.9,4.4-7.9,3l-1.1-0.5l-15,41.6v0.1c-0.9,2-1.2,4.1-0.9,6.3v0.1
				l7.1,92.5c0.5,4.3-1.4,8.5-5,11.1s-8.1,3.1-12.2,1.3l-117.6-52.6C705.8,705.3,705.1,704.9,704.5,704.5L704.5,704.5z"/>
		</g>
		<g>
			<path class="st12" d="M855.8,597.2c1.5,1,2.1,3,1.3,4.8c-0.9,2-3.2,2.8-5.1,2l-3.1-1.4l-15.8,43.6c-1,2.3-1.4,4.9-1,7.5l7.1,92.4
				c0.9,7.7-7,13.5-14.1,10.3l-117.7-52.7c-0.6-0.3-1.2-0.6-1.7-0.9c-5.6-3.8-5.9-12.3-0.1-16.5l73.6-56.3c2.1-1.4,3.8-3.4,4.9-5.7
				l22-40.9L803,582c-0.2-0.1-0.4-0.2-0.6-0.4c-1.5-1-2.1-3-1.3-4.8c0.9-2,3.2-2.8,5.1-2l6.7,3.8c11.1,6.3,22.8,11.6,35,15.6
				l7.4,2.5C855.4,596.9,855.6,597.1,855.8,597.2 M858.3,593.7c-0.4-0.3-0.9-0.5-1.3-0.7l-0.2-0.1l-0.2-0.1l-7.4-2.5
				c-11.8-4-23.4-9.1-34.2-15.3l-6.7-3.8l-0.2-0.1l-0.2-0.1c-4.1-1.8-8.9,0-10.7,4.1c-1.6,3.6-0.4,7.8,2.8,10
				c0.1,0.1,0.2,0.1,0.3,0.2l-19.9,36.9l-0.1,0.1l-0.1,0.1c-0.7,1.6-1.9,3-3.3,3.9l-0.1,0.1l-0.1,0.1l-73.6,56.4
				c-3.8,2.8-6,7-5.9,11.7c0,4.7,2.3,9,6.1,11.7c0.7,0.5,1.5,1,2.4,1.3l117.6,52.6c4.8,2.1,10.1,1.6,14.3-1.5s6.4-7.9,5.8-13.1
				l-7.1-92.3v-0.1v-0.1c-0.3-1.7,0-3.5,0.7-5.1l0.1-0.1l0.1-0.1l14.3-39.4c1.7,0.5,3.5,0.4,5.2-0.2c2-0.8,3.6-2.3,4.5-4.3
				C862.7,600.1,861.5,595.9,858.3,593.7L858.3,593.7z"/>
		</g>
	</g>
	<g>
		<path class="st11" d="M716.7,696.8l107.3,48c2.3,1,4.9-0.8,4.7-3.3l-4.7-61.6c-33.2-4.9-37.7-26.3-58.8-26.3l-49.3,37.5
			C714,692.6,714.3,695.7,716.7,696.8z"/>
	</g>
	<g class="st9">
		<path class="st1" d="M762,686.1c-3.1-2.2-4.4-6.4-2.8-10c0.9-2,2.5-3.5,4.5-4.3s4.2-0.7,6.2,0.2s3.5,2.5,4.3,4.5s0.7,4.2-0.2,6.2
			s-2.5,3.5-4.5,4.3s-4.2,0.7-6.2-0.2C762.9,686.6,762.4,686.4,762,686.1z M769.3,675.6c-0.2-0.2-0.5-0.3-0.7-0.4
			c-1.1-0.5-2.4-0.5-3.5-0.1s-2,1.3-2.5,2.4c-0.5,1.1-0.5,2.4-0.1,3.5s1.3,2,2.4,2.5c2.3,1,5,0,6-2.3
			C771.7,679.2,771,676.9,769.3,675.6z"/>
	</g>
	<g class="st9">
		<circle class="st1" cx="793" cy="688.5" r="2.4"/>
	</g>
	<g class="st9">
		<circle class="st1" cx="775.4" cy="703.2" r="5.1"/>
	</g>
	<g class="st9">
		<path class="st1" d="M799.9,714.3c-2.7-1.9-3.8-5.4-2.4-8.5c1.6-3.5,5.7-5,9.1-3.5c3.5,1.6,5,5.7,3.5,9.1l0,0
			c-1.6,3.5-5.7,5-9.1,3.5C800.6,714.7,800.2,714.5,799.9,714.3z M805.8,705.8c-0.2-0.1-0.3-0.2-0.5-0.3c-1.7-0.8-3.7,0-4.4,1.7
			c-0.8,1.7,0,3.7,1.7,4.4c1.7,0.8,3.7,0,4.4-1.7C807.6,708.5,807.1,706.7,805.8,705.8z"/>
	</g>
	<g>
		<g>
			<path class="st11" d="M801.4,632.9c0.9,0.7,1.3,1.9,0.8,3c-0.5,1.2-2,1.8-3.2,1.2c-0.1-0.1-0.3-0.1-0.4-0.2
				c-0.9-0.7-1.3-1.9-0.8-3c0.5-1.2,2-1.8,3.2-1.2C801.1,632.8,801.2,632.8,801.4,632.9 M803.4,630c-0.3-0.2-0.6-0.4-1-0.5
				c-1.5-0.7-3.1-0.7-4.6-0.1s-2.7,1.7-3.3,3.1c-1.2,2.6-0.3,5.7,2.1,7.4c0.3,0.2,0.6,0.4,1,0.5c1.5,0.7,3.1,0.7,4.6,0.1
				c1.5-0.6,2.7-1.7,3.3-3.1C806.6,634.7,805.7,631.6,803.4,630L803.4,630z"/>
		</g>
	</g>
	<g>
		<circle class="st11" cx="807.7" cy="662.6" r="3.5"/>
	</g>
	<g>
		<circle class="st11" cx="819.9" cy="617.8" r="5.5"/>
	</g>
	<g>
		<circle class="st11" cx="865.9" cy="564.7" r="2.4"/>
	</g>
	<g>
		<circle class="st11" cx="831" cy="534.8" r="5.5"/>
	</g>
	<g>
		<path class="st11" d="M832.7,572.5c-1.1-0.8-2-1.9-2.5-3.2c-0.7-1.7-0.6-3.6,0.1-5.3c0.8-1.7,2.1-3,3.8-3.6
			c1.7-0.7,3.6-0.6,5.3,0.1c3.5,1.6,5,5.7,3.5,9.1c-1.6,3.5-5.7,5-9.1,3.5C833.4,573,833.1,572.7,832.7,572.5z M838.6,564.1
			c-0.2-0.1-0.3-0.2-0.5-0.3c-0.8-0.4-1.7-0.4-2.6-0.1c-0.8,0.3-1.5,0.9-1.9,1.8l0,0c-0.4,0.8-0.4,1.7-0.1,2.6
			c0.3,0.8,0.9,1.5,1.8,1.9c1.7,0.8,3.7,0,4.4-1.7C840.4,566.7,839.9,565,838.6,564.1z"/>
	</g>
	<g>
		<path class="st15" d="M828.5,738.7c-0.5,0-1.1,0-1.6-0.3l-107.3-48c-0.5-0.2-1-0.6-1.3-1l-2.2,1.7c-2,1.5-1.7,4.7,0.7,5.7
			l107.3,48c2.3,1,4.9-0.8,4.7-3.3L828.5,738.7z"/>
	</g>
	<g>
		<path class="st12" d="M809.4,590.2c-0.9-0.6-1.2-1.8-0.6-2.8c0.6-1,1.9-1.4,2.9-0.8c10.2,5.8,20.4,10.3,31.4,14
			c1.1,0.4,1.7,1.6,1.3,2.7s-1.6,1.7-2.7,1.3c-11.2-3.8-21.7-8.5-32.1-14.4C809.5,590.3,809.4,590.3,809.4,590.2z"/>
	</g>
</g>
<g>
	<g>
		<g>
			<path class="st1" d="M448.1,497.3c-1.8,0.1-3.5-0.7-4.6-2.2c-1.1-1.4-1.5-3.3-0.9-5l11.1-40.7l0,0c0.3-0.9,0.4-1.9,0.1-2.9l0,0
				l-3.2-19.9l-0.5,0.1c-0.2,0-0.3,0.1-0.5,0.1c-1.3,0.1-2.5-0.8-2.8-2.1c-0.3-1.5,0.6-2.9,2-3.3l0,0l3.5-0.5
				c5.7-0.8,11.3-2.1,16.8-4l3.4-1.2l0,0c0.2,0,0.3-0.1,0.5-0.1c1.3-0.1,2.5,0.8,2.8,2.1c0.3,1.5-0.6,2.9-2,3.3l-0.5,0.1l6,19.2l0,0
				c0.2,1,0.7,1.8,1.4,2.5l0,0l28.1,31.5c1.4,1.4,1.9,3.5,1.3,5.4s-2.1,3.4-4.1,3.8L448.9,497C448.8,497.3,448.5,497.3,448.1,497.3
				L448.1,497.3z"/>
		</g>
		<g>
			<path class="st12" d="M473.2,416.7c0.8,0,1.6,0.5,1.8,1.4c0.2,0.9-0.4,1.9-1.3,2.1l-1.5,0.4l6.3,20.1c0.3,1.1,0.9,2.2,1.7,3
				l28.1,31.4c2.5,2.6,1.2,6.8-2.3,7.6l-57.1,13.5c-0.3,0.1-0.6,0.1-0.9,0.1c-3.1,0.1-5.5-2.8-4.6-5.9l11.1-40.7
				c0.4-1.1,0.4-2.3,0.2-3.4l-3.4-20.9l-1.5,0.4c-0.1,0-0.2,0-0.3,0c-0.8,0-1.6-0.5-1.8-1.4c-0.2-0.9,0.4-1.9,1.3-2.1l3.5-0.5
				c5.8-0.8,11.5-2.1,17-4l3.3-1.1C473,416.7,473.1,416.7,473.2,416.7 M473.1,414.8c-0.2,0-0.5,0-0.7,0.1h-0.1h-0.1l-3.3,1.1
				c-5.4,1.8-11,3.2-16.6,3.9l-3.5,0.5h-0.1h-0.1c-2,0.5-3.2,2.5-2.8,4.5c0.4,1.7,2,2.9,3.8,2.8c0.1,0,0.1,0,0.2,0l3,18.8v0.1v0.1
				c0.2,0.8,0.1,1.6-0.1,2.3v0.1v0.1l-11.1,40.7c-0.6,2-0.2,4.2,1.1,5.9c1.3,1.7,3.3,2.6,5.4,2.5c0.4,0,0.8-0.1,1.2-0.2l57.1-13.5
				c2.3-0.5,4.1-2.2,4.8-4.5s0.1-4.6-1.5-6.3l-28.1-31.4v-0.1l0,0c-0.6-0.6-1-1.3-1.2-2v-0.1v-0.1l-5.7-18.2
				c0.7-0.3,1.4-0.8,1.8-1.5c0.5-0.8,0.7-1.8,0.5-2.8C476.4,415.9,474.9,414.7,473.1,414.8L473.1,414.8z"/>
		</g>
	</g>
	<g>
		<path class="st16" d="M450.4,491.2l52-12.3c1.1-0.3,1.6-1.6,0.8-2.5l-18.7-21c-13.4,7.4-20.9,0.9-28.5,6.7l-7.5,27.2
			C448.2,490.4,449.2,491.4,450.4,491.2z"/>
	</g>
	<g class="st9">
		<path class="st1" d="M463.8,474.8c-1.7,0.1-3.4-1.1-3.8-2.8c-0.2-1-0.1-2,0.5-2.8c0.5-0.8,1.3-1.4,2.3-1.7c1-0.2,1.9-0.1,2.8,0.5
			c0.8,0.5,1.4,1.3,1.7,2.3c0.2,1,0.1,2-0.5,2.8c-0.5,0.8-1.3,1.4-2.3,1.7C464.3,474.7,464,474.8,463.8,474.8z M463.5,469
			c-0.1,0-0.3,0-0.4,0.1c-0.5,0.1-1,0.5-1.3,0.9c-0.3,0.5-0.4,1-0.3,1.6c0.1,0.5,0.5,1,0.9,1.3c0.5,0.3,1,0.4,1.6,0.3
			c1.1-0.3,1.8-1.4,1.5-2.5C465.4,469.6,464.5,469,463.5,469z"/>
	</g>
	<g class="st9">
		<circle class="st1" cx="475.7" cy="467.1" r="1.1"/>
	</g>
	<g class="st9">
		<circle class="st1" cx="473.4" cy="477.3" r="2.3"/>
	</g>
	<g class="st9">
		<path class="st1" d="M485.3,474.5c-1.5,0.1-2.9-0.9-3.2-2.4c-0.4-1.7,0.6-3.4,2.3-3.8c1.7-0.4,3.4,0.7,3.8,2.3l0,0
			c0.4,1.7-0.7,3.4-2.3,3.8C485.7,474.5,485.5,474.5,485.3,474.5z M485.1,469.8c-0.1,0-0.2,0-0.3,0c-0.8,0.2-1.3,1-1.1,1.8
			c0.2,0.8,1,1.3,1.8,1.1c0.8-0.2,1.3-1,1.1-1.8C486.5,470.3,485.8,469.8,485.1,469.8z"/>
	</g>
	<g>
		<g>
			<path class="st16" d="M463.3,444.7c0.5,0,1,0.3,1.1,0.9s-0.2,1.2-0.8,1.3c-0.1,0-0.1,0-0.2,0c-0.5,0-1-0.3-1.1-0.9
				s0.2-1.2,0.8-1.3C463.2,444.7,463.3,444.7,463.3,444.7 M463.3,443.1c-0.2,0-0.3,0-0.5,0.1c-0.7,0.2-1.3,0.6-1.7,1.2
				c-0.4,0.6-0.5,1.3-0.3,2.1c0.3,1.3,1.5,2.2,2.8,2.1c0.2,0,0.3,0,0.5-0.1c0.7-0.2,1.3-0.6,1.7-1.2s0.5-1.3,0.3-2.1
				C465.7,443.9,464.6,443,463.3,443.1L463.3,443.1z"/>
		</g>
	</g>
	<g>
		<circle class="st16" cx="473.8" cy="453.7" r="1.6"/>
	</g>
	<g>
		<circle class="st16" cx="465.9" cy="434.1" r="2.5"/>
	</g>
	<g>
		<circle class="st16" cx="467.8" cy="402.2" r="1.1"/>
	</g>
	<g>
		<circle class="st16" cx="446.9" cy="401" r="2.5"/>
	</g>
	<g>
		<path class="st16" d="M458,414.2c-0.6,0-1.2-0.1-1.8-0.5c-0.7-0.4-1.2-1.1-1.4-2c-0.2-0.8-0.1-1.7,0.4-2.4c0.4-0.7,1.1-1.2,2-1.4
			c1.7-0.4,3.4,0.7,3.8,2.3c0.4,1.7-0.6,3.4-2.3,3.8C458.4,414.1,458.2,414.2,458,414.2z M457.8,409.5c-0.1,0-0.2,0-0.3,0
			c-0.4,0.1-0.7,0.3-1,0.7c-0.2,0.3-0.3,0.8-0.2,1.2l0,0c0.1,0.4,0.3,0.7,0.7,1c0.3,0.2,0.8,0.3,1.2,0.2c0.8-0.2,1.3-1,1.1-1.8
			C459.2,410,458.5,409.5,457.8,409.5z"/>
	</g>
	<g>
		<path class="st17" d="M502.4,475.4c-0.2,0.2-0.4,0.3-0.7,0.4l-52.1,12.3c-0.3,0.1-0.5,0-0.8,0l-0.3,1.2c-0.3,1.1,0.7,2.2,1.8,1.9
			l52.1-12.3c1.1-0.3,1.6-1.6,0.8-2.5L502.4,475.4z"/>
	</g>
	<g>
		<path class="st12" d="M454.4,427c-0.5,0-0.9-0.3-1-0.8s0.3-1,0.8-1.1c5.3-0.7,10.2-1.9,15.2-3.6c0.5-0.2,1.1,0.1,1.2,0.6
			c0.2,0.5-0.1,1.1-0.6,1.2C465,425.1,459.9,426.3,454.4,427C454.5,427,454.5,427,454.4,427z"/>
	</g>
</g>
</svg>
