<svg id="Layer_3" data-name="Layer 3" xmlns="http://www.w3.org/2000/svg" viewBox="0 0 303.85 303.85">
  <defs>
    <style>
      .cls-1 {
        fill: #ea507e;
        stroke: #b33b5f;
        stroke-width: 10px;
      }

      .cls-1, .cls-12 {
        stroke-miterlimit: 10;
      }

      .cls-2 {
        fill: #e5e5e4;
      }

      .cls-3 {
        fill: #2e4555;
      }

      .cls-4 {
        fill: #3fb9bc;
      }

      .cls-12, .cls-15, .cls-5 {
        opacity: 0.2;
      }

      .cls-6 {
        fill: #bcc2c7;
      }

      .cls-7 {
        fill: #f4f4f4;
      }

      .cls-15, .cls-8 {
        fill: #fff;
      }

      .cls-9 {
        fill: #9e9e9e;
      }

      .cls-10 {
        fill: #a7a7a7;
      }

      .cls-11 {
        fill: #a4c851;
      }

      .cls-12 {
        fill: none;
        stroke: #020202;
        stroke-linecap: round;
        stroke-width: 3px;
        stroke-dasharray: 8 8;
      }

      .cls-13 {
        fill: #c6c6c6;
      }

      .cls-14 {
        opacity: 0.1;
      }
    </style>
  </defs>
  <title>vert-transport-tech-forward-b</title>
  <circle class="cls-1" cx="151.92" cy="151.92" r="146.92"/>
  <g>
    <rect class="cls-2" x="2689.56" y="240.68" width="126.12" height="55.25" rx="1.41" ry="1.41" transform="translate(-2464.55 1163.43) rotate(-27.14)"/>
    <g>
      <rect class="cls-3" x="2724.11" y="253.41" width="0.82" height="0.82" transform="translate(-2461.06 1148.95) rotate(-27.14)"/>
      <rect class="cls-3" x="2725.09" y="255.32" width="0.82" height="0.82" transform="translate(-2461.82 1149.62) rotate(-27.14)"/>
      <rect class="cls-3" x="2726.06" y="257.22" width="0.82" height="0.82" transform="translate(-2462.58 1150.27) rotate(-27.14)"/>
      <rect class="cls-3" x="2727.04" y="259.13" width="0.82" height="0.82" transform="translate(-2463.34 1150.95) rotate(-27.14)"/>
      <rect class="cls-3" x="2728.02" y="261.04" width="0.82" height="0.82" transform="translate(-2464.13 1151.54) rotate(-27.14)"/>
      <rect class="cls-3" x="2729" y="262.94" width="0.82" height="0.82" transform="translate(-2464.85 1152.28) rotate(-27.14)"/>
      <rect class="cls-3" x="2729.97" y="264.85" width="0.82" height="0.82" transform="translate(-2465.63 1152.89) rotate(-27.14)"/>
      <rect class="cls-3" x="2730.95" y="266.76" width="0.82" height="0.82" transform="translate(-2466.3 1153.8) rotate(-27.14)"/>
      <rect class="cls-3" x="2731.93" y="268.66" width="0.82" height="0.82" transform="translate(-2467.16 1154.2) rotate(-27.14)"/>
      <rect class="cls-3" x="2732.9" y="270.57" width="0.82" height="0.82" transform="translate(-2467.93 1154.84) rotate(-27.14)"/>
      <rect class="cls-3" x="2733.88" y="272.48" width="0.82" height="0.82" transform="translate(-2468.58 1155.77) rotate(-27.14)"/>
      <rect class="cls-3" x="2734.86" y="274.38" width="0.82" height="0.82" transform="translate(-2469.46 1156.13) rotate(-27.14)"/>
      <rect class="cls-3" x="2735.84" y="276.29" width="0.82" height="0.82" transform="translate(-2470.18 1156.9) rotate(-27.14)"/>
      <rect class="cls-3" x="2736.81" y="278.2" width="0.82" height="0.82" transform="translate(-2470.87 1157.74) rotate(-27.14)"/>
      <rect class="cls-3" x="2737.79" y="280.1" width="0.82" height="0.82" transform="translate(-2471.73 1158.14) rotate(-27.14)"/>
      <rect class="cls-3" x="2738.77" y="282.01" width="0.82" height="0.82" transform="translate(-2472.49 1158.79) rotate(-27.14)"/>
      <rect class="cls-3" x="2739.74" y="283.92" width="0.82" height="0.82" transform="translate(-2473.25 1159.45) rotate(-27.14)"/>
      <rect class="cls-3" x="2740.72" y="285.82" width="0.82" height="0.82" transform="translate(-2474.02 1160.11) rotate(-27.14)"/>
      <rect class="cls-3" x="2741.7" y="287.73" width="0.82" height="0.82" transform="translate(-2474.79 1160.74) rotate(-27.14)"/>
      <rect class="cls-3" x="2742.68" y="289.64" width="0.82" height="0.82" transform="translate(-2475.52 1161.46) rotate(-27.14)"/>
      <rect class="cls-3" x="2743.65" y="291.54" width="0.82" height="0.82" transform="translate(-2476.29 1162.1) rotate(-27.14)"/>
      <rect class="cls-3" x="2744.63" y="293.45" width="0.82" height="0.82" transform="translate(-2477.06 1162.73) rotate(-27.14)"/>
      <rect class="cls-3" x="2745.61" y="295.36" width="0.82" height="0.82" transform="translate(-2477.83 1163.38) rotate(-27.14)"/>
      <rect class="cls-3" x="2746.59" y="297.26" width="0.82" height="0.82" transform="translate(-2478.59 1164.04) rotate(-27.14)"/>
      <rect class="cls-3" x="2747.56" y="299.17" width="0.82" height="0.82" transform="translate(-2479.35 1164.69) rotate(-27.14)"/>
    </g>
    <rect class="cls-4" x="2696.65" y="261.63" width="39.83" height="50.32" transform="translate(-2476.95 1149.02) rotate(-27.14)"/>
    <g class="cls-5">
      <rect class="cls-6" x="2731.17" y="249.91" width="23.68" height="1.78" transform="translate(-2457.63 1157.12) rotate(-27.14)"/>
      <rect class="cls-6" x="2787.21" y="266.04" width="23.68" height="1.78" transform="translate(-2458.81 1184.46) rotate(-27.14)"/>
      <rect class="cls-6" x="2732.04" y="246.47" width="66.2" height="1.78" transform="translate(-2453.62 1166.83) rotate(-27.14)"/>
      <rect class="cls-6" x="2735.24" y="252.73" width="66.2" height="1.78" transform="translate(-2456.13 1168.98) rotate(-27.14)"/>
      <rect class="cls-6" x="2742.11" y="266.13" width="66.2" height="1.78" transform="translate(-2461.48 1173.59) rotate(-27.14)"/>
    </g>
    <rect class="cls-7" x="2704.4" y="264.21" width="126.12" height="55.25" rx="1.41" ry="1.41" transform="translate(-2660.51 156) rotate(-5.73)"/>
    <g>
      <rect class="cls-3" x="2746.17" y="267.69" width="0.82" height="0.82" transform="translate(-2658.24 153.8) rotate(-5.73)"/>
      <rect class="cls-3" x="2746.39" y="269.82" width="0.82" height="0.82" transform="translate(-2658.45 153.83) rotate(-5.73)"/>
      <rect class="cls-3" x="2746.6" y="271.95" width="0.82" height="0.82" transform="translate(-2658.66 153.87) rotate(-5.73)"/>
      <rect class="cls-3" x="2746.82" y="274.08" width="0.82" height="0.82" transform="translate(-2658.88 153.9) rotate(-5.73)"/>
      <rect class="cls-3" x="2747.03" y="276.21" width="0.82" height="0.82" transform="translate(-2659.09 153.93) rotate(-5.73)"/>
      <rect class="cls-3" x="2747.24" y="278.34" width="0.82" height="0.82" transform="translate(-2659.3 153.96) rotate(-5.73)"/>
      <rect class="cls-3" x="2747.46" y="280.48" width="0.82" height="0.82" transform="translate(-2659.51 153.99) rotate(-5.73)"/>
      <rect class="cls-3" x="2747.67" y="282.61" width="0.82" height="0.82" transform="translate(-2659.72 154.03) rotate(-5.73)"/>
      <rect class="cls-3" x="2747.88" y="284.74" width="0.82" height="0.82" transform="translate(-2659.93 154.06) rotate(-5.73)"/>
      <rect class="cls-3" x="2748.1" y="286.87" width="0.82" height="0.82" transform="translate(-2660.15 154.09) rotate(-5.73)"/>
      <rect class="cls-3" x="2748.31" y="289" width="0.82" height="0.82" transform="translate(-2660.36 154.12) rotate(-5.73)"/>
      <rect class="cls-3" x="2748.53" y="291.13" width="0.82" height="0.82" transform="translate(-2660.57 154.15) rotate(-5.73)"/>
      <rect class="cls-3" x="2748.74" y="293.27" width="0.82" height="0.82" transform="translate(-2660.78 154.19) rotate(-5.73)"/>
      <rect class="cls-3" x="2748.95" y="295.4" width="0.82" height="0.82" transform="translate(-2660.99 154.22) rotate(-5.73)"/>
      <rect class="cls-3" x="2749.17" y="297.53" width="0.82" height="0.82" transform="translate(-2661.2 154.25) rotate(-5.73)"/>
      <rect class="cls-3" x="2749.38" y="299.66" width="0.82" height="0.82" transform="translate(-2661.42 154.28) rotate(-5.73)"/>
      <rect class="cls-3" x="2749.59" y="301.79" width="0.82" height="0.82" transform="translate(-2661.63 154.31) rotate(-5.73)"/>
      <rect class="cls-3" x="2749.81" y="303.93" width="0.82" height="0.82" transform="translate(-2661.84 154.35) rotate(-5.73)"/>
      <rect class="cls-3" x="2750.02" y="306.06" width="0.82" height="0.82" transform="translate(-2662.05 154.38) rotate(-5.73)"/>
      <rect class="cls-3" x="2750.24" y="308.19" width="0.82" height="0.82" transform="translate(-2662.26 154.41) rotate(-5.73)"/>
      <rect class="cls-3" x="2750.45" y="310.32" width="0.82" height="0.82" transform="translate(-2662.47 154.44) rotate(-5.73)"/>
      <rect class="cls-3" x="2750.66" y="312.45" width="0.82" height="0.82" transform="translate(-2662.69 154.47) rotate(-5.73)"/>
      <rect class="cls-3" x="2750.88" y="314.58" width="0.82" height="0.82" transform="translate(-2662.9 154.51) rotate(-5.73)"/>
      <rect class="cls-3" x="2751.09" y="316.72" width="0.82" height="0.82" transform="translate(-2663.11 154.54) rotate(-5.73)"/>
      <rect class="cls-3" x="2751.31" y="318.85" width="0.82" height="0.82" transform="translate(-2663.32 154.57) rotate(-5.73)"/>
    </g>
    <rect class="cls-4" x="2707.23" y="270.72" width="39.83" height="50.32" transform="translate(-2661.11 152) rotate(-5.73)"/>
    <g class="cls-5">
      <rect class="cls-6" x="2753.06" y="271.14" width="23.68" height="1.78" transform="translate(-2658.54 155.65) rotate(-5.73)"/>
      <rect class="cls-6" x="2799.35" y="306.62" width="23.68" height="1.78" transform="translate(-2661.85 160.45) rotate(-5.73)"/>
      <rect class="cls-6" x="2753.65" y="276.02" width="66.2" height="1.78" transform="translate(-2658.92 157.86) rotate(-5.73)"/>
      <rect class="cls-6" x="2754.35" y="283.02" width="66.2" height="1.78" transform="translate(-2659.61 157.96) rotate(-5.73)"/>
      <rect class="cls-6" x="2755.86" y="298" width="66.2" height="1.78" transform="translate(-2661.1 158.19) rotate(-5.73)"/>
    </g>
    <path class="cls-8" d="M2735.76,285.24a5.7,5.7,0,0,0-6.23-5.09l-7.85.79a5.7,5.7,0,0,0-5.09,6.23l0.18,11.25a5.7,5.7,0,0,0,6.23,5.09l9.74-1a5.7,5.7,0,0,0,5.09-6.23Zm-13.26-2.48,6.52-.65,0.09,0.94-6.52.65Zm-3,5.88a2.71,2.71,0,0,1,2.42-3l8.27-.83a2.71,2.71,0,0,1,3,2.42l0.8,3.22a2.71,2.71,0,0,1-2.42,3l-9.22.92a2.71,2.71,0,0,1-3-2.42Zm2.19,12.38a1.9,1.9,0,1,1,1.7-2.08A1.89,1.89,0,0,1,2721.71,301Zm11.94-1.2a1.9,1.9,0,1,1,1.7-2.08A1.89,1.89,0,0,1,2733.65,299.82Z" transform="translate(-2645.2 -121.66)"/>
    <path class="cls-8" d="M2728.17,306.31l4.47-.45c0.69-.07,1.11-0.27.57-1-0.42-.58-0.11-0.82.46-1,1.68-.5,1.84-0.45,2.84,1,0.68,1,1.41,1.9,2.08,2.87,0.48,0.69.76,1.51,0,2.12a1.35,1.35,0,0,1-2.11-.51,1.75,1.75,0,0,0-1.91-.8q-6.06.64-12.12,1.21a1.68,1.68,0,0,0-1.7,1.16,1.37,1.37,0,0,1-2,1c-0.95-.39-0.83-1.26-0.5-2,0.6-1.41,1.24-2.81,1.91-4.19a2.45,2.45,0,0,1,2.74-.45,0.57,0.57,0,0,1,.11.66c-0.42,1,.18,1,0.91.92C2725.34,306.58,2726.75,306.46,2728.17,306.31Z" transform="translate(-2645.2 -121.66)"/>
  </g>
  <g>
    <rect class="cls-3" x="91.99" y="44.03" width="125.24" height="221.54" rx="2.95" ry="2.95"/>
    <rect class="cls-8" x="96.16" y="61.42" width="117.12" height="167.15"/>
    <rect class="cls-9" x="143.58" y="51.19" width="22.29" height="2.43"/>
    <circle class="cls-10" cx="155.13" cy="245.7" r="9.42"/>
    <path class="cls-5" d="M2790.91,367.25a7.47,7.47,0,0,1,.08-1.09,9.4,9.4,0,0,0,18.68,0,7.47,7.47,0,0,1,.08,1.09A9.42,9.42,0,1,1,2790.91,367.25Z" transform="translate(-2645.2 -121.66)"/>
  </g>
  <polygon class="cls-11" points="206.99 125.15 102.42 125.15 101.56 68.71 208.69 67.86 206.99 125.15"/>
  <polygon class="cls-12" points="202.3 219.76 104.56 219.76 104.56 192.26 204.01 193.96 202.3 219.76"/>
  <rect class="cls-13" x="105.1" y="136.49" width="85.08" height="4.92"/>
  <rect class="cls-13" x="203.77" y="214.58" width="0.53" height="0.53"/>
  <rect class="cls-13" x="104.29" y="148.11" width="100.87" height="4.92"/>
  <rect class="cls-13" x="104.29" y="159.44" width="100.87" height="4.92"/>
  <rect class="cls-13" x="104.29" y="172.91" width="60.26" height="4.92"/>
  <polygon class="cls-14" points="95.73 81.92 95.73 228.6 212.85 228.58 95.73 81.92"/>
  <polygon class="cls-15" points="184.21 89.39 146.31 89.39 145.71 75.76 184.21 75.76 184.21 89.39"/>
  <polygon class="cls-15" points="194.6 100.79 145.71 100.79 145.71 92.22 194 92.22 194.6 100.79"/>
  <polygon class="cls-15" points="197.95 115.37 146.65 115.37 146.65 106.81 198.55 106.81 197.95 115.37"/>
  <path class="cls-8" d="M2757,209.78c0,14,14,30.77,14,30.77s14-16.78,14-30.77A14,14,0,1,0,2757,209.78Zm5.59,0a8.39,8.39,0,1,1,8.39,8.39A8.39,8.39,0,0,1,2762.61,209.78Z" transform="translate(-2645.2 -121.66)"/>
</svg>
