<?xml version="1.0" encoding="utf-8"?>
<!-- Generator: Adobe Illustrator 19.1.0, SVG Export Plug-In . SVG Version: 6.00 Build 0)  -->
<svg version="1.1" id="Layer_1" xmlns="http://www.w3.org/2000/svg" xmlns:xlink="http://www.w3.org/1999/xlink" x="0px" y="0px"
	 viewBox="-382 531.2 362 362" style="enable-background:new -382 531.2 362 362;" xml:space="preserve">
<style type="text/css">
	.st0{fill:#0EA2DC;stroke:#0B7AA5;stroke-width:10;stroke-miterlimit:10;}
	.st1{opacity:0.1;fill:none;stroke:#FFFFFF;stroke-width:10;stroke-miterlimit:10;}
	.st2{opacity:0.28;fill:none;stroke:#FFFFFF;stroke-width:10;stroke-miterlimit:10;}
	.st3{opacity:0.46;fill:none;stroke:#FFFFFF;stroke-width:10;stroke-miterlimit:10;}
	.st4{opacity:0.64;fill:none;stroke:#FFFFFF;stroke-width:10;stroke-miterlimit:10;}
	.st5{opacity:0.82;fill:none;stroke:#FFFFFF;stroke-width:10;stroke-miterlimit:10;}
	.st6{fill:none;stroke:#FFFFFF;stroke-width:10;stroke-miterlimit:10;}
	.st7{fill:#42210B;}
	.st8{fill:#603813;}
	.st9{fill:#FAAD40;}
	.st10{fill:#F9E8D8;}
	.st11{fill:#461A00;}
	.st12{fill:#FBB03B;}
	.st13{opacity:0.2;}
	.st14{opacity:0.3;fill:#FFFFFF;}
	.st15{fill:#9FDAF1;}
	.st16{fill:#FFFFFF;}
	.st17{fill:#0EA2DC;}
	.st18{opacity:0.8;fill:#FFFFFF;}
	.st19{opacity:0.1;}
</style>
<circle class="st0" cx="-201" cy="712.2" r="176"/>
<g>
	<circle class="st1" cx="-201" cy="712.2" r="170.6"/>
	<circle class="st2" cx="-201" cy="712.2" r="143.5"/>
	<circle class="st3" cx="-201" cy="712.2" r="116.5"/>
	<circle class="st4" cx="-201" cy="712.2" r="89.4"/>
	<circle class="st5" cx="-201" cy="712.2" r="62.3"/>
	<circle class="st6" cx="-201" cy="712.2" r="35.2"/>
</g>
<g>
	<g>
		<path class="st7" d="M-244,694.7c20.5-7.5,64.8-8,74.9-3.1c5.7,2.7,0-31.7,0-31.7l-43.5-26.5l-24.4,8.8
			C-237,642.2-251.4,697.4-244,694.7z"/>
		<path class="st8" d="M-240.8,637.8c0,0,2.8,20.3,1.3,25.3c-1.5,5-7.4,7.5-7.4,7.5s1.6,3.2,5,3.1c3.4-0.1,12.5-4.7,12.5-4.7
			l-2.3-34.7l-9.2-1.1L-240.8,637.8z"/>
		<g>
			<path class="st9" d="M-279.4,778.3c0,0-6.2,9.5-4.7,12.2c1.4,2.8-6.3,67-6.3,67l13,7.3c0,0,8.5-63.8,10.7-69.8
				c2.2-6.1,8.3-13.9,8.3-13.9L-279.4,778.3z"/>
			<path class="st9" d="M-122.6,778.3c0,0,6.2,9.5,4.7,12.2s6.3,67,6.3,67l-14.5,8c0,0-7-64.5-9.2-70.6c-2.2-6.1-8.3-13.9-8.3-13.9
				L-122.6,778.3z"/>
			<path class="st10" d="M-217.3,691.9c0,0-33.3,9.3-39.6,14.1s-29.5,62.6-29.5,70.5c0,7.9,22.8,12.3,27.6,13
				c4.8,0.7,11.4-18.2,11.4-18.2l1.9,105.9c0,0,29.1,6.6,46.8,5.6s44.8-6.6,44.8-6.6l-2.8-109c0,0,8.2,22.6,10.7,22.3
				c2.5-0.3,25.7-7,30.2-9.6c4.3-2.5-18.8-70-25.4-74.1c-6.6-4.1-45.3-14.4-52.9-14C-201.7,692.3-217.3,691.9-217.3,691.9z"/>
			<path class="st9" d="M-193.1,684.2c0-15.2-10.1-12.5-10.1-12.5s-10.1-2.6-10.1,12.5c0,11.8-13.3,20.6,10.1,20.6
				C-179.8,704.8-193.1,696-193.1,684.2z"/>
			<path class="st9" d="M-214.3,694.8c0,0-14.9,3.4-18.8,5.6c-3.9,2.2,13,9.7,29,9.7c16,0,34.8-7.2,37.4-9c2.6-1.8-37.4-9-37.4-9
				L-214.3,694.8z"/>
			<g>
				<path class="st9" d="M-204.3,686.4c-11.3,0-37.5-21.7-31.2-77.7c1.7-15.1,31.2-14.4,31.2-14.4s28.9-0.6,31.2,14.4
					C-165.2,660.7-193,686.4-204.3,686.4z"/>
				<circle class="st11" cx="-189.5" cy="631.9" r="3.2"/>
				<path class="st12" d="M-161.7,625.4c0,9.3,0.6,16.8-6.1,16.8s-2.7-7.5-2.7-16.8s1.2-10.1,2.7-10.1S-161.7,616.2-161.7,625.4z"/>
				<circle class="st11" cx="-219.1" cy="631.9" r="3.2"/>
				<path class="st13" d="M-212.6,645.5c0.4,7.7,6.4,11,8.3,11s7.9-3.4,8.3-11c0,0-5.2,5-8.3,5
					C-207.4,650.5-212.6,645.5-212.6,645.5z"/>
				<path class="st13" d="M-213.3,683.6l-0.8,7.8c0,0,7.6,5.2,11.2,5.2c3.1,0,8.5-3.6,10.3-8.1c1-2.4-0.7-3.8-0.6-6.5
					c0,0-6,4-11.1,4S-213.3,683.6-213.3,683.6z"/>
				<path class="st12" d="M-246.9,625.4c0,9.3-0.6,16.8,6.1,16.8c6.7,0,2.7-7.5,2.7-16.8s-1.2-10.1-2.7-10.1
					C-242.3,615.3-246.9,616.2-246.9,625.4z"/>
				<path class="st13" d="M-237,618.6c0,0,7.8,1.5,21,0.9c15.5-0.7,19.1-8.4,29.5-4.6c10.4,3.8,9.1,5.6,13,6.8c3.9,1.2,0,0,0,0
					l0-30.3l-64,14.7L-237,618.6z"/>
			</g>
			<path class="st8" d="M-156.4,680.5c-5.8-7.2-9.3-14.3-1.5-33.3c7.7-18.8,2.3-39.1-11-56.2c-6.4-10.4-1.1-21.7-29.3-23.1
				c-9-0.4-16.3-0.1-40.9,10.5c-24.7,10.7-19.1,53.1-12.7,68.7c7.8,19,4.3,26.1-1.5,33.3c-6.6,8.3-17.7,3.7-4.1,13.2
				c13.6,9.5,38.3-15.3,38.3-15.3s-11.7-14.3-13.6-22.9c-2-9.3-5.9-44.3-1.8-43.4c28.6,5.8,51.9-18.1,55.9-4.8
				c0.9,3.1,1.9,12.6,3.7,16.5c0,0-4.7,21.3-3.2,30.7c1.5,9.4-11.5,23.8-11.5,23.8s23.7,25,37.3,15.6
				C-138.8,684.2-149.8,688.8-156.4,680.5z"/>
			<path class="st14" d="M-250.8,599.9c0,0,2.3-10.6,9.6-14.7c7.4-4.1,30.9-12.2,30.9-12.2s4.6,8-2.4,11.8s-18.2-1.1-25.6,6.7
				C-243.6,597.3-245.2,602.1-250.8,599.9z"/>
		</g>
		<g>
			<rect x="-240.2" y="734.8" class="st15" width="34.9" height="28.3"/>
			<rect x="-237.4" y="742.8" class="st16" width="29.3" height="17.8"/>
			<rect x="-222.8" y="744.7" class="st9" width="13.1" height="2.4"/>
			<rect x="-222.8" y="748.9" class="st15" width="13.1" height="2.4"/>
			<rect x="-222.8" y="752.5" class="st15" width="13.1" height="2.4"/>
			<rect x="-222.8" y="756.4" class="st15" width="13.1" height="2.4"/>
			<rect x="-235.3" y="744.7" class="st15" width="10.5" height="14.1"/>
			<circle class="st17" cx="-230.2" cy="748.8" r="2.9"/>
			<path class="st17" d="M-234,758h8v-2.1c0-1.6-1.7-2.9-4-2.9s-4,1.3-4,2.9V758z"/>
			<path class="st17" d="M-217.8,738.6h-10l1.7-7.4c0.3-1.5,1.7-2.6,3.2-2.6h0.1c1.6,0,2.9,1.1,3.2,2.6L-217.8,738.6z"/>
			<circle class="st16" cx="-222.8" cy="732.5" r="1.9"/>
		</g>
	</g>
	<path class="st18" d="M-281.7,771.8c0,0,20.1-57.1,25.2-59.8c5.2-2.8,18.3-7.2,18.3-7.2s3.5,6.1-2,9.9c-1.3,0.9-7.6,2.8-10.6,8.3
		c-9.2,17.2-19.9,51.4-23.7,53C-279.4,778.3-281.7,771.8-281.7,771.8z"/>
	<path class="st19" d="M-146.1,789.5c0,0,26.7-6.5,30.2-9.6c3.8-3.3-14.9-57.5-22.3-69.8c-1.1-1.9-6.6-9.1-5.3,4.7
		c0.7,7.5,5.1,56.7,1.4,62.8S-146.1,789.5-146.1,789.5z"/>
	<path class="st19" d="M-154,876.3l-2.8-109.1c0,0-5.8-3-8.6,4.8c-2.8,7.7-17.3,109.2-17.3,109.2C-168.3,880.2-154,876.3-154,876.3z
		"/>
</g>
</svg>
