<?xml version="1.0" encoding="utf-8"?>
<!-- Generator: Adobe Illustrator 19.1.0, SVG Export Plug-In . SVG Version: 6.00 Build 0)  -->
<svg version="1.1" id="Layer_1" xmlns="http://www.w3.org/2000/svg" xmlns:xlink="http://www.w3.org/1999/xlink" x="0px" y="0px"
	 viewBox="120 231 800 500" style="enable-background:new 120 231 800 500;" xml:space="preserve">
<style type="text/css">
	.st0{fill:none;stroke:#808080;stroke-width:9;stroke-linecap:round;stroke-linejoin:round;stroke-miterlimit:10;}
	.st1{fill:#B3B3B3;stroke:#808080;stroke-width:9;stroke-miterlimit:10;}
	.st2{fill:#F2F2F2;stroke:#B3B3B3;stroke-width:9;stroke-miterlimit:10;}
	.st3{enable-background:new    ;}
</style>
<g id="Now">
</g>
<g>
	<polyline class="st0" points="397.6,609.6 370.3,624.9 397.6,640.2 	"/>
	<line class="st0" x1="752.2" y1="625.4" x2="375.7" y2="624.5"/>
</g>
<g>
	<polyline class="st0" points="635.9,360.2 663.2,344.9 635.9,329.6 	"/>
	<line class="st0" x1="281.3" y1="344.4" x2="657.8" y2="345.4"/>
</g>
<circle class="st1" cx="281.3" cy="484.7" r="140"/>
<circle class="st1" cx="751.3" cy="484.7" r="140"/>
<g>
	<g>
		<path class="st2" d="M351.5,528.1H211.1c-12.9,0-23.4-10.5-23.4-23.4v-40c0-12.9,10.5-23.4,23.4-23.4h140.4
			c12.9,0,23.4,10.5,23.4,23.4v40C374.9,517.6,364.4,528.1,351.5,528.1z"/>
	</g>
	<g class="st3">
		<path d="M225.9,456.6h7.5c1.1,0,2.2,0.1,3.1,0.5c1.8,0.8,2.9,2.4,2.9,4.6c0,2.9-1.7,6.1-4.9,7.1v0.1c0,0,0.2,0.3,0.5,1.1l2.8,7.9
			h-4.1L231,470h-3.8l-1.5,7.9h-3.9L225.9,456.6z M231.2,466.6c2.3,0,4.2-1.6,4.2-4.2c0-1.6-1-2.5-2.8-2.5h-3.5l-1.3,6.7H231.2z"/>
		<path d="M249.8,462.2c4.1,0,6.1,2.4,6.1,5.8c0,1.3-0.5,2.9-0.5,2.9h-10.5c0,0.2,0,0.4,0,0.6c0,1.9,1.3,3.5,3.8,3.5
			s4.7-1.7,4.7-1.7l1,2.9c0,0-2.6,2-6,2c-4.8,0-7.4-2.9-7.4-6.6C241,466.5,244.7,462.2,249.8,462.2z M252.1,468.4
			c0,0,0.1-0.3,0.1-0.7c0-1.6-1-2.5-2.4-2.5c-2,0-3.5,1.3-4.3,3.2H252.1z"/>
		<path d="M258.4,473.6c0,0,1.5,1.5,4.1,1.5c1.2,0,2.5-0.5,2.5-1.6c0-2-6.4-1.9-6.4-6.4c0-3,3-4.8,6.1-4.8c3.5,0,5.3,1.7,5.3,1.7
			l-1.7,2.6c0,0-1.2-1.2-3.6-1.2c-1.1,0-2.5,0.5-2.5,1.7c0,1.9,6.4,1.9,6.4,6.4c0,2.8-2.6,4.8-6.1,4.8c-3.8,0-6.1-2.2-6.1-2.2
			L258.4,473.6z"/>
		<path d="M279.9,462.2c4.1,0,6.1,2.4,6.1,5.8c0,1.3-0.5,2.9-0.5,2.9H275c0,0.2,0,0.4,0,0.6c0,1.9,1.3,3.5,3.8,3.5s4.7-1.7,4.7-1.7
			l1,2.9c0,0-2.6,2-6,2c-4.8,0-7.4-2.9-7.4-6.6C271.1,466.5,274.8,462.2,279.9,462.2z M282.2,468.4c0,0,0.1-0.3,0.1-0.7
			c0-1.6-1-2.5-2.4-2.5c-2,0-3.5,1.3-4.3,3.2H282.2z"/>
		<path d="M296.9,468.3h0.6c0.1-0.4,0.1-0.6,0.1-0.8c0-1.3-0.7-2.1-2.5-2.1c-2.2,0-4.5,1.4-4.5,1.4l-0.9-2.9c0,0,2.8-1.6,6.1-1.6
			c2.8,0,5.6,1.2,5.6,4.7c0,0.4-0.1,1-0.2,1.5l-1.8,9.4h-3.5l0.2-1.3c0.1-0.6,0.3-1.1,0.3-1.1h-0.1c0,0-1.7,2.8-5,2.8
			c-2.4,0-4.5-1.4-4.5-3.9C286.9,469.5,292.9,468.3,296.9,468.3z M292.7,475.3c2,0,3.9-2.2,4.3-4.1l0.1-0.3h-0.6
			c-1.7,0-5.7,0.3-5.7,2.8C290.7,474.6,291.3,475.3,292.7,475.3z"/>
		<path d="M306.3,462.6h3.7l-0.5,2.6c-0.1,0.6-0.3,1.1-0.3,1.1l0,0c1-2.1,3.1-4,5.5-4c0.5,0,0.9,0.1,0.9,0.1l-0.8,3.8
			c0,0-0.4-0.1-0.9-0.1c-2.3,0-5,2.5-5.7,6.3l-1,5.4h-3.8L306.3,462.6z"/>
		<path d="M324.9,462.2c4.1,0,5.9,2.2,5.9,2.2l-2,2.4c0,0-1.4-1.4-3.8-1.4c-3.2,0-5.8,2.7-5.8,5.8c0,2.1,1.4,3.8,3.9,3.8
			c2.6,0,4.9-2,4.9-2l1,2.9c0,0-2.6,2.2-6.4,2.2c-4.6,0-7.3-2.9-7.3-6.8C315.5,466.6,319.6,462.2,324.9,462.2z"/>
		<path d="M335.7,456.6h3.8l-1.4,7.4c-0.2,0.8-0.3,1.4-0.3,1.4h0.1c0.8-1.4,3.1-3.1,5.6-3.1c2.7,0,4.6,1.2,4.6,4.2
			c0,0.6-0.1,1.2-0.2,1.8L346,478h-3.8l1.7-8.9c0.1-0.5,0.1-1,0.1-1.4c0-1.3-0.7-1.9-1.9-1.9c-2.6,0-4.9,2.5-5.5,5.3l-1.3,6.9h-3.8
			L335.7,456.6z"/>
	</g>
	<g class="st3">
		<path d="M232.7,508.6c0,0,1.9,2.1,5.1,2.1c1.7,0,3.7-1,3.7-3c0-3.2-8.3-3.2-8.3-9c0-3.8,3.7-6.5,7.7-6.5c4.5,0,6.6,2.3,6.6,2.3
			l-2.1,2.9c0,0-1.8-1.6-4.5-1.6c-1.9,0-3.8,1.3-3.8,2.9c0,3.1,8.3,3.1,8.3,9c0,3.5-3.2,6.5-7.6,6.5c-5,0-7.4-2.9-7.4-2.9
			L232.7,508.6z"/>
		<path d="M257.2,498.2c4.1,0,5.9,2.2,5.9,2.2l-2,2.4c0,0-1.4-1.4-3.8-1.4c-3.2,0-5.8,2.7-5.8,5.8c0,2.1,1.4,3.8,3.9,3.8
			c2.6,0,4.9-2,4.9-2l1,2.9c0,0-2.6,2.2-6.4,2.2c-4.6,0-7.3-2.9-7.3-6.8C247.7,502.6,251.9,498.2,257.2,498.2z"/>
		<path d="M266.8,498.6h3.8l-3,15.3h-3.7L266.8,498.6z M268,492.6h3.8l-0.7,3.4h-3.8L268,492.6z"/>
		<path d="M281,498.2c4.1,0,6.1,2.4,6.1,5.8c0,1.3-0.5,2.9-0.5,2.9h-10.5c0,0.2,0,0.4,0,0.6c0,1.9,1.3,3.5,3.8,3.5s4.7-1.7,4.7-1.7
			l1,2.9c0,0-2.6,2-6,2c-4.8,0-7.4-2.9-7.4-6.6C272.1,502.5,275.9,498.2,281,498.2z M283.3,504.4c0,0,0.1-0.3,0.1-0.7
			c0-1.6-1-2.5-2.4-2.5c-2,0-3.5,1.3-4.3,3.2H283.3z"/>
		<path d="M291.4,498.6h3.7l-0.3,1.4c-0.1,0.8-0.4,1.5-0.4,1.5h0.1c0.8-1.4,3.1-3.2,5.8-3.2c2.7,0,4.6,1.2,4.6,4.2
			c0,0.6-0.1,1.3-0.3,2l-1.8,9.5H299l1.7-8.9c0.1-0.5,0.2-1,0.2-1.4c0-1.3-0.7-1.9-1.9-1.9c-2.6,0-4.9,2.5-5.5,5.3l-1.3,6.9h-3.8
			L291.4,498.6z"/>
		<path d="M316.6,498.2c4.1,0,5.9,2.2,5.9,2.2l-2,2.4c0,0-1.4-1.4-3.8-1.4c-3.2,0-5.8,2.7-5.8,5.8c0,2.1,1.4,3.8,3.9,3.8
			c2.6,0,4.9-2,4.9-2l1,2.9c0,0-2.6,2.2-6.4,2.2c-4.6,0-7.3-2.9-7.3-6.8C307.1,502.6,311.2,498.2,316.6,498.2z"/>
		<path d="M332.3,498.2c4.1,0,6.1,2.4,6.1,5.8c0,1.3-0.5,2.9-0.5,2.9h-10.5c0,0.2,0,0.4,0,0.6c0,1.9,1.3,3.5,3.8,3.5
			s4.7-1.7,4.7-1.7l1,2.9c0,0-2.6,2-6,2c-4.8,0-7.4-2.9-7.4-6.6C323.5,502.5,327.2,498.2,332.3,498.2z M334.7,504.4
			c0,0,0.1-0.3,0.1-0.7c0-1.6-1-2.5-2.4-2.5c-2,0-3.5,1.3-4.3,3.2H334.7z"/>
	</g>
</g>
<g>
	<path class="st2" d="M596.1,388.8H435.6c-12.9,0-23.4-10.5-23.4-23.4v-40c0-12.9,10.5-23.4,23.4-23.4H596
		c12.9,0,23.4,10.5,23.4,23.4v40C619.4,378.3,609,388.8,596.1,388.8z"/>
</g>
<g class="st3">
	<path d="M488.1,316.3h12.7l-0.7,3.3h-8.9l-1.1,5.6h7.2l-0.7,3.3h-7.2l-1.1,5.7h9.4l-0.6,3.3h-13.2L488.1,316.3z"/>
	<path d="M510.1,328h0.6c0.1-0.4,0.1-0.6,0.1-0.8c0-1.3-0.7-2.1-2.5-2.1c-2.2,0-4.5,1.4-4.5,1.4l-0.9-2.9c0,0,2.8-1.6,6.1-1.6
		c2.8,0,5.6,1.2,5.6,4.7c0,0.4-0.1,1-0.1,1.5l-1.8,9.4h-3.5l0.2-1.3c0.1-0.6,0.3-1.1,0.3-1.1h-0.1c0,0-1.7,2.8-5,2.8
		c-2.4,0-4.5-1.4-4.5-3.9C500,329.2,506,328,510.1,328z M505.9,335c2,0,3.9-2.2,4.3-4.1l0.1-0.3h-0.6c-1.7,0-5.7,0.3-5.7,2.8
		C503.9,334.3,504.5,335,505.9,335z"/>
	<path d="M519.5,322.3h3.7l-0.5,2.6c-0.1,0.6-0.3,1.1-0.3,1.1l0,0c1-2.1,3.1-4,5.5-4c0.5,0,0.9,0.1,0.9,0.1l-0.8,3.8
		c0,0-0.4-0.1-0.9-0.1c-2.3,0-5,2.5-5.7,6.3l-1,5.4h-3.8L519.5,322.3z"/>
	<path d="M529.1,332.6l3.1-16.3h3.8l-3,15.7c-0.1,0.4-0.2,1-0.2,1.2c0,1,0.7,1.1,1.3,1.1c0.3,0,0.5,0,0.5,0l-0.7,3.3
		c0,0-0.5,0.1-1.1,0.1c-2,0-4-0.8-4-3.6C529,333.7,529,333.2,529.1,332.6z"/>
	<path d="M537,340.7c1.1,0,2.2-0.6,3-2l0.9-1.4l-3.5-15.1h4l1.7,9.3c0.2,0.8,0.2,1.9,0.2,1.9h0.1c0,0,0.5-1.1,0.9-1.9l4.8-9.3h4.3
		l-10.3,17.6c-1.6,2.8-3.8,4-5.8,4s-3.5-1.1-3.5-1.1l1.7-2.7C535.4,340.1,536.1,340.7,537,340.7z"/>
</g>
<g class="st3">
	<path d="M454.6,373.6l11.4-21.3h4.4l3.3,21.3h-3.9l-0.8-5.5h-7.5l-2.9,5.5H454.6z M468.7,365l-0.8-5.7c-0.1-1.2-0.2-3.3-0.2-3.3
		h-0.1c0,0-0.8,2.1-1.4,3.3l-3,5.7H468.7z"/>
	<path d="M484.5,357.9c1.7,0,3.5,0.6,4.2,2.1h0.1c0,0,0-0.5,0.1-0.9l1.3-6.8h3.8l-4.1,21.3h-3.6l0.2-1.1c0.1-0.6,0.3-1.1,0.3-1.1
		h-0.1c-1,1.5-2.8,2.6-4.9,2.6c-3.7,0-5.8-2.5-5.8-6.4C476,361.8,480.1,357.9,484.5,357.9z M483,370.7c2.5,0,4.9-2.9,4.9-6.1
		c0-1.9-0.9-3.4-3-3.4c-2.3,0-4.9,2.3-4.9,6.1C479.9,369.4,481.1,370.7,483,370.7z"/>
	<path d="M503.8,357.9c4.4,0,7.5,2.7,7.5,6.8c0,5.4-4.7,9.3-9.5,9.3c-4.4,0-7.5-2.7-7.5-6.8C494.4,361.9,499,357.9,503.8,357.9z
		 M501.9,370.7c2.7,0,5.5-2.4,5.5-5.8c0-2.2-1.5-3.8-3.7-3.8c-2.7,0-5.6,2.5-5.6,5.8C498.2,369.3,499.8,370.7,501.9,370.7z"/>
	<path d="M515.4,379.6h-3.8l4.1-21.3h3.5l-0.2,1.1c-0.1,0.6-0.3,1.1-0.3,1.1h0.1c1-1.5,2.9-2.6,5-2.6c3.6,0,5.8,2.5,5.8,6.4
		c0,5.7-4.1,9.6-8.3,9.6c-1.8,0-3.5-0.7-4.4-2.2l0,0c0,0,0,0.6-0.2,1.4L515.4,379.6z M520.8,370.7c2.3,0,4.9-2.2,4.9-6.1
		c0-2.1-1.1-3.5-3-3.5c-2.5,0-4.9,2.8-4.9,6.1C517.8,369.2,518.7,370.7,520.8,370.7z"/>
	<path d="M532.9,367.6l1.2-6.1h-2l0.6-3h2.1l0.9-4.4h3.7l-0.9,4.4h3.5l-0.6,3h-3.5l-1.1,5.6c-0.1,0.5-0.1,1-0.1,1.2
		c0,1.7,1.3,2,2.4,2c0.5,0,0.8-0.1,0.8-0.1l-0.7,3.3c0,0-0.6,0.1-1.1,0.1c-2.8,0-5.4-1.1-5.4-4.7
		C532.7,368.7,532.8,368.2,532.9,367.6z"/>
	<path d="M551.5,357.9c4.1,0,6.1,2.4,6.1,5.8c0,1.3-0.5,2.9-0.5,2.9h-10.5c0,0.2,0,0.4,0,0.6c0,1.9,1.3,3.5,3.8,3.5s4.7-1.7,4.7-1.7
		l1,2.9c0,0-2.6,2-6,2c-4.8,0-7.4-2.9-7.4-6.6C542.7,362.2,546.4,357.9,551.5,357.9z M553.8,364c0,0,0.1-0.3,0.1-0.7
		c0-1.6-1-2.5-2.4-2.5c-2,0-3.5,1.3-4.3,3.2H553.8z"/>
	<path d="M561.9,358.3h3.7l-0.5,2.6c-0.1,0.6-0.3,1.1-0.3,1.1l0,0c1-2.1,3.1-4,5.5-4c0.5,0,0.9,0.1,0.9,0.1l-0.8,3.8
		c0,0-0.4-0.1-0.9-0.1c-2.3,0-5,2.5-5.7,6.3l-1,5.4h-3.9L561.9,358.3z"/>
	<path d="M571.9,369.3c0,0,1.5,1.5,4.1,1.5c1.2,0,2.5-0.5,2.5-1.6c0-2-6.4-1.9-6.4-6.4c0-3,3-4.8,6.1-4.8c3.5,0,5.3,1.7,5.3,1.7
		l-1.7,2.6c0,0-1.2-1.2-3.6-1.2c-1.1,0-2.5,0.5-2.5,1.7c0,1.9,6.4,1.9,6.4,6.4c0,2.8-2.6,4.8-6.1,4.8c-3.8,0-6.1-2.2-6.1-2.2
		L571.9,369.3z"/>
</g>
<g>
	<path class="st2" d="M596.5,668.8H436.1c-12.9,0-23.4-10.5-23.4-23.4v-40c0-12.9,10.5-23.4,23.4-23.4h160.4
		c12.9,0,23.4,10.5,23.4,23.4v40C619.9,658.3,609.4,668.8,596.5,668.8z"/>
</g>
<g class="st3">
	<path d="M437.6,599.5c5.9,0,9.7,3.8,9.7,9.1c0,7-6.2,12.9-12.6,12.9c-5.9,0-9.7-3.9-9.7-9.4C425,605.4,431.1,599.5,437.6,599.5z
		 M434.7,618c4.3,0,8.6-4,8.6-9.1c0-3.5-2.4-5.8-5.8-5.8c-4.3,0-8.6,4-8.6,8.9C429,615.6,431.4,618,434.7,618z"/>
	<path d="M462.1,608.9h-6.7l-2.4,12.3h-3.8l2.4-12.3h-1.9l0.6-3h1.9l0.2-0.7c1-4.8,5-5.4,7-5.4c0.9,0,1.6,0.1,1.6,0.1l-0.7,3.2
		c0,0-0.3-0.1-0.8-0.1c-1.1,0-3.1,0.3-3.5,2.5l-0.1,0.3h6.7l0.1-0.7c1.1-4.8,5-5.4,7-5.4c0.9,0,1.6,0.1,1.6,0.1l-0.7,3.2
		c0,0-0.3-0.1-0.8-0.1c-1.1,0-3.1,0.3-3.4,2.5l-0.1,0.3h3.3l-0.6,3h-3.1l-2.4,12.3h-3.8L462.1,608.9z"/>
	<path d="M471.6,611h9l-0.6,3.3h-9L471.6,611z"/>
	<path d="M484.8,615.3l1.2-6.1h-1.9l0.6-3h2.1l0.9-4.4h3.7l-0.9,4.4h3.5l-0.6,3h-3.5l-1.1,5.6c-0.1,0.5-0.1,1-0.1,1.2
		c0,1.7,1.3,2,2.4,2c0.5,0,0.8-0.1,0.8-0.1l-0.7,3.3c0,0-0.6,0.1-1.1,0.1c-2.8,0-5.4-1.1-5.4-4.7
		C484.7,616.3,484.8,615.8,484.8,615.3z"/>
	<path d="M498.4,599.9h3.8l-1.4,7.4c-0.2,0.8-0.3,1.4-0.3,1.4h0.1c0.8-1.4,3.1-3.1,5.6-3.1c2.7,0,4.6,1.2,4.6,4.2
		c0,0.6-0.1,1.2-0.2,1.8l-1.9,9.7h-3.8l1.7-8.9c0.1-0.5,0.2-1,0.2-1.4c0-1.3-0.7-1.9-1.9-1.9c-2.6,0-4.9,2.5-5.5,5.3l-1.3,6.9h-3.8
		L498.4,599.9z"/>
	<path d="M521.8,605.5c4.1,0,6.1,2.4,6.1,5.8c0,1.3-0.5,2.9-0.5,2.9h-10.5c0,0.2,0,0.4,0,0.6c0,1.9,1.3,3.5,3.8,3.5s4.7-1.7,4.7-1.7
		l1,2.9c0,0-2.6,2-6,2c-4.8,0-7.4-2.9-7.4-6.6C513,609.8,516.7,605.5,521.8,605.5z M524.1,611.7c0,0,0.1-0.3,0.1-0.7
		c0-1.6-1-2.5-2.4-2.5c-2,0-3.5,1.3-4.3,3.2H524.1z"/>
	<path d="M531.5,611h9l-0.6,3.3h-9L531.5,611z"/>
	<path d="M544.1,616.9c0,0,1.5,1.5,4.1,1.5c1.2,0,2.5-0.5,2.5-1.6c0-2-6.4-1.9-6.4-6.4c0-3,3-4.8,6.1-4.8c3.5,0,5.3,1.7,5.3,1.7
		l-1.7,2.6c0,0-1.2-1.2-3.6-1.2c-1.1,0-2.5,0.5-2.5,1.7c0,1.9,6.4,1.9,6.4,6.4c0,2.8-2.6,4.8-6.1,4.8c-3.8,0-6.1-2.2-6.1-2.2
		L544.1,616.9z"/>
	<path d="M560.6,599.9h3.8l-1.4,7.4c-0.2,0.8-0.3,1.4-0.3,1.4h0.1c0.8-1.4,3.1-3.1,5.6-3.1c2.7,0,4.6,1.2,4.6,4.2
		c0,0.6-0.1,1.2-0.2,1.8l-1.9,9.7h-3.8l1.7-8.9c0.1-0.5,0.2-1,0.2-1.4c0-1.3-0.7-1.9-1.9-1.9c-2.6,0-4.9,2.5-5.5,5.3l-1.3,6.9h-3.8
		L560.6,599.9z"/>
	<path d="M584,605.5c4.1,0,6.1,2.4,6.1,5.8c0,1.3-0.5,2.9-0.5,2.9h-10.5c0,0.2,0,0.4,0,0.6c0,1.9,1.3,3.5,3.8,3.5s4.7-1.7,4.7-1.7
		l1,2.9c0,0-2.6,2-6,2c-4.8,0-7.4-2.9-7.4-6.6C575.2,609.8,578.9,605.5,584,605.5z M586.3,611.7c0,0,0.1-0.3,0.1-0.7
		c0-1.6-1-2.5-2.4-2.5c-1.9,0-3.5,1.3-4.3,3.2H586.3z"/>
	<path d="M592.2,616.2l3.1-16.3h3.8l-3,15.7c-0.1,0.4-0.2,1-0.2,1.2c0,1,0.7,1.1,1.3,1.1c0.3,0,0.5,0,0.5,0l-0.7,3.3
		c0,0-0.5,0.1-1.1,0.1c-2,0-4-0.8-4-3.6C592.1,617.3,592.1,616.8,592.2,616.2z"/>
	<path d="M603,609.1h-1.9l0.6-3h1.9l0.2-0.8c1.1-4.9,5-5.5,7-5.5c0.9,0,1.6,0.1,1.6,0.1l-0.7,3.2c0,0-0.3-0.1-0.8-0.1
		c-1.1,0-3.1,0.3-3.4,2.5l-0.1,0.5h3.3l-0.6,3h-3.3l-2.3,12.1h-3.8L603,609.1z"/>
</g>
<g class="st3">
	<path d="M454.1,635.9h7.6c1.3,0,2.4,0.2,3.3,0.7c1.8,0.9,2.8,2.7,2.8,5c0,3.5-2,6.3-4.7,7.6c-1,0.5-2.1,0.7-3.2,0.7h-4.7l-1.4,7.3
		h-3.9L454.1,635.9z M459.5,646.5c0.8,0,1.5-0.1,2.1-0.4c1.4-0.7,2.3-2.2,2.3-4.1c0-1.6-1-2.7-2.9-2.7h-3.6l-1.4,7.3L459.5,646.5
		L459.5,646.5z"/>
	<path d="M470.8,641.9h3.7l-0.5,2.6c-0.1,0.6-0.3,1.1-0.3,1.1l0,0c1-2.1,3.1-4,5.5-4c0.5,0,0.9,0.1,0.9,0.1l-0.8,3.8
		c0,0-0.4-0.1-0.9-0.1c-2.3,0-5,2.5-5.7,6.3l-1,5.4h-3.8L470.8,641.9z"/>
	<path d="M489.3,641.5c4.4,0,7.5,2.7,7.5,6.8c0,5.4-4.7,9.3-9.5,9.3c-4.4,0-7.5-2.7-7.5-6.8C479.9,645.5,484.6,641.5,489.3,641.5z
		 M487.4,654.3c2.7,0,5.5-2.4,5.5-5.8c0-2.2-1.5-3.8-3.7-3.8c-2.7,0-5.6,2.5-5.6,5.8C483.7,652.9,485.3,654.3,487.4,654.3z"/>
	<path d="M507.2,641.5c1.6,0,3.4,0.6,4.2,2.1h0.1c0,0,0-0.5,0.1-0.9l1.3-6.8h3.8l-4.1,21.3H509l0.2-1.1c0.1-0.6,0.3-1.1,0.3-1.1
		h-0.1c-1,1.5-2.8,2.6-4.9,2.6c-3.7,0-5.8-2.5-5.8-6.4C498.7,645.4,502.7,641.5,507.2,641.5z M505.6,654.4c2.5,0,4.9-2.9,4.9-6.1
		c0-1.9-0.9-3.4-3-3.4c-2.3,0-4.9,2.3-4.9,6.1C502.5,653,503.7,654.4,505.6,654.4z"/>
	<path d="M517.7,651.5l1.9-9.6h3.8l-1.7,8.8c-0.1,0.6-0.2,1.2-0.2,1.6c0,1.1,0.5,1.8,1.9,1.8c2.6,0,4.8-2.6,5.3-5.3l1.3-6.9h3.8
		l-3,15.3h-3.7l0.3-1.4c0.1-0.8,0.4-1.5,0.4-1.5h-0.1c-0.9,1.4-3,3.2-5.7,3.2c-2.5,0-4.6-1.1-4.6-4.2
		C517.4,652.9,517.5,652.2,517.7,651.5z"/>
	<path d="M544.7,641.5c4.1,0,5.9,2.2,5.9,2.2l-2,2.4c0,0-1.4-1.4-3.8-1.4c-3.2,0-5.8,2.7-5.8,5.8c0,2.1,1.4,3.8,3.9,3.8
		c2.6,0,4.9-2,4.9-2l1,2.9c0,0-2.6,2.2-6.4,2.2c-4.6,0-7.3-2.9-7.3-6.8C535.3,645.9,539.4,641.5,544.7,641.5z"/>
	<path d="M553.1,651.3l1.2-6.1h-2l0.6-3h2.1l0.9-4.4h3.7l-0.9,4.4h3.5l-0.6,3h-3.5l-1.1,5.6c-0.1,0.5-0.1,1-0.1,1.2
		c0,1.7,1.3,2,2.4,2c0.5,0,0.8-0.1,0.8-0.1l-0.7,3.3c0,0-0.6,0.1-1.1,0.1c-2.8,0-5.4-1.1-5.4-4.7C553,652.3,553.1,651.8,553.1,651.3
		z"/>
	<path d="M563.7,652.9c0,0,1.5,1.5,4.1,1.5c1.2,0,2.5-0.5,2.5-1.6c0-2-6.4-1.9-6.4-6.4c0-3,3-4.8,6.1-4.8c3.5,0,5.3,1.7,5.3,1.7
		l-1.7,2.6c0,0-1.2-1.2-3.6-1.2c-1.1,0-2.5,0.5-2.5,1.7c0,1.9,6.5,1.9,6.5,6.4c0,2.8-2.6,4.8-6.1,4.8c-3.8,0-6.1-2.2-6.1-2.2
		L563.7,652.9z"/>
</g>
<g>
	<g>
		<path class="st2" d="M821.5,528.1H681.1c-12.9,0-23.4-10.5-23.4-23.4v-40c0-12.9,10.5-23.4,23.4-23.4h140.4
			c12.9,0,23.4,10.5,23.4,23.4v40C844.9,517.6,834.4,528.1,821.5,528.1z"/>
	</g>
	<g class="st3">
		<path d="M701.5,456.2c5.5,0,7.9,2.9,7.9,2.9l-2.2,2.7c0,0-2.1-2.1-5.5-2.1c-5.1,0-8.7,4.5-8.7,8.9c0,3.4,2.1,6,5.8,6
			c3.7,0,6.8-2.7,6.8-2.7l1.6,3.1c0,0-3.5,3.2-8.5,3.2c-6,0-9.7-3.9-9.7-9.3C689,462,694.8,456.2,701.5,456.2z"/>
		<path d="M719.1,462.2c4.4,0,7.5,2.7,7.5,6.8c0,5.4-4.7,9.3-9.5,9.3c-4.4,0-7.5-2.7-7.5-6.8C709.6,466.2,714.3,462.2,719.1,462.2z
			 M717.2,475c2.7,0,5.5-2.4,5.5-5.8c0-2.2-1.5-3.8-3.7-3.8c-2.7,0-5.6,2.5-5.6,5.8C713.5,473.6,715,475,717.2,475z"/>
		<path d="M731.1,462.6h3.7l-0.3,1.7c-0.1,0.6-0.3,1.2-0.3,1.2h0.1c1-1.5,3-3.2,5.4-3.2s3.7,1.1,4,3.1h0.1c1.1-1.6,3.3-3.1,5.6-3.1
			c2.7,0,4.3,1.3,4.3,4.1c0,0.6-0.1,1.3-0.2,2.1l-1.8,9.4h-3.8l1.7-9c0.1-0.6,0.2-1,0.2-1.4c0-1.1-0.4-1.8-1.7-1.8
			c-2.5,0-4.3,2.7-4.9,5.5l-1.3,6.7h-4l1.8-9c0.1-0.6,0.1-1,0.1-1.4c0-1.1-0.4-1.8-1.7-1.8c-2.4,0-4.4,2.7-4.9,5.5l-1.3,6.7h-3.8
			L731.1,462.6z"/>
		<path d="M758.1,483.9h-3.8l4.1-21.3h3.5l-0.2,1.1c-0.1,0.6-0.3,1.1-0.3,1.1h0.1c1-1.5,2.9-2.6,5-2.6c3.6,0,5.8,2.5,5.8,6.4
			c0,5.7-4.1,9.6-8.3,9.6c-1.8,0-3.5-0.7-4.4-2.2h-0.1c0,0,0,0.6-0.2,1.4L758.1,483.9z M763.5,475c2.3,0,4.9-2.2,4.9-6.1
			c0-2.1-1.1-3.5-3-3.5c-2.5,0-4.9,2.8-4.9,6.1C760.5,473.5,761.4,475,763.5,475z"/>
		<path d="M774.7,472.2l1.9-9.6h3.8l-1.7,8.8c-0.1,0.6-0.2,1.2-0.2,1.6c0,1.1,0.5,1.8,1.9,1.8c2.6,0,4.8-2.6,5.3-5.3l1.3-6.9h3.8
			l-3,15.3h-3.7l0.3-1.4c0.1-0.8,0.4-1.5,0.4-1.5h-0.1c-0.9,1.4-3,3.2-5.7,3.2c-2.5,0-4.6-1.1-4.6-4.2
			C774.5,473.5,774.6,472.9,774.7,472.2z"/>
		<path d="M793.8,472l1.2-6.1h-2l0.6-3h2.1l0.9-4.4h3.7l-0.9,4.4h3.5l-0.6,3h-3.5l-1.1,5.6c-0.1,0.5-0.1,1-0.1,1.2
			c0,1.7,1.3,2,2.4,2c0.5,0,0.8-0.1,0.8-0.1l-0.7,3.3c0,0-0.6,0.1-1.1,0.1c-2.8,0-5.4-1.1-5.4-4.7C793.6,473,793.7,472.5,793.8,472z
			"/>
		<path d="M812.4,462.2c4.1,0,6.1,2.4,6.1,5.8c0,1.3-0.5,2.9-0.5,2.9h-10.5c0,0.2,0,0.4,0,0.6c0,1.9,1.3,3.5,3.8,3.5
			s4.7-1.7,4.7-1.7l1,2.9c0,0-2.6,2-6,2c-4.8,0-7.4-2.9-7.4-6.6C803.6,466.5,807.3,462.2,812.4,462.2z M814.7,468.4
			c0,0,0.1-0.3,0.1-0.7c0-1.6-1-2.5-2.4-2.5c-2,0-3.5,1.3-4.3,3.2H814.7z"/>
		<path d="M822.8,462.6h3.7l-0.5,2.6c-0.1,0.6-0.3,1.1-0.3,1.1l0,0c1-2.1,3.1-4,5.5-4c0.5,0,0.9,0.1,0.9,0.1l-0.8,3.8
			c0,0-0.4-0.1-0.9-0.1c-2.3,0-5,2.5-5.7,6.3l-1,5.4h-3.8L822.8,462.6z"/>
	</g>
	<g class="st3">
		<path d="M702.8,508.6c0,0,1.9,2.1,5.1,2.1c1.7,0,3.7-1,3.7-3c0-3.2-8.3-3.2-8.3-9c0-3.8,3.7-6.5,7.7-6.5c4.5,0,6.6,2.3,6.6,2.3
			l-2.1,2.9c0,0-1.8-1.6-4.5-1.6c-1.9,0-3.8,1.3-3.8,2.9c0,3.1,8.3,3.1,8.3,9c0,3.5-3.2,6.5-7.6,6.5c-5,0-7.4-2.9-7.4-2.9
			L702.8,508.6z"/>
		<path d="M727.3,498.2c4.1,0,5.9,2.2,5.9,2.2l-2,2.4c0,0-1.4-1.4-3.8-1.4c-3.2,0-5.8,2.7-5.8,5.8c0,2.1,1.4,3.8,3.9,3.8
			c2.6,0,4.9-2,4.9-2l1,2.9c0,0-2.6,2.2-6.4,2.2c-4.6,0-7.3-2.9-7.3-6.8C717.8,502.6,721.9,498.2,727.3,498.2z"/>
		<path d="M736.9,498.6h3.8l-3,15.3h-3.8L736.9,498.6z M738.1,492.6h3.8l-0.7,3.4h-3.8L738.1,492.6z"/>
		<path d="M751,498.2c4.1,0,6.1,2.4,6.1,5.8c0,1.3-0.5,2.9-0.5,2.9h-10.5c0,0.2,0,0.4,0,0.6c0,1.9,1.3,3.5,3.8,3.5s4.7-1.7,4.7-1.7
			l1,2.9c0,0-2.6,2-6,2c-4.8,0-7.4-2.9-7.4-6.6C742.2,502.5,745.9,498.2,751,498.2z M753.4,504.4c0,0,0.1-0.3,0.1-0.7
			c0-1.6-1-2.5-2.4-2.5c-2,0-3.5,1.3-4.3,3.2H753.4z"/>
		<path d="M761.5,498.6h3.7l-0.3,1.4c-0.2,0.8-0.4,1.5-0.4,1.5h0.1c0.8-1.4,3.2-3.2,5.8-3.2c2.7,0,4.6,1.2,4.6,4.2
			c0,0.6-0.1,1.3-0.3,2l-1.8,9.5h-3.8l1.7-8.9c0.1-0.5,0.2-1,0.2-1.4c0-1.3-0.7-1.9-1.9-1.9c-2.6,0-4.9,2.5-5.5,5.3l-1.3,6.9h-3.8
			L761.5,498.6z"/>
		<path d="M786.6,498.2c4.1,0,5.9,2.2,5.9,2.2l-2,2.4c0,0-1.4-1.4-3.8-1.4c-3.2,0-5.8,2.7-5.8,5.8c0,2.1,1.4,3.8,3.9,3.8
			c2.6,0,4.9-2,4.9-2l1,2.9c0,0-2.6,2.2-6.4,2.2c-4.6,0-7.3-2.9-7.3-6.8C777.1,502.6,781.3,498.2,786.6,498.2z"/>
		<path d="M802.4,498.2c4.1,0,6.1,2.4,6.1,5.8c0,1.3-0.5,2.9-0.5,2.9h-10.5c0,0.2,0,0.4,0,0.6c0,1.9,1.3,3.5,3.8,3.5
			s4.7-1.7,4.7-1.7l1,2.9c0,0-2.6,2-6,2c-4.8,0-7.4-2.9-7.4-6.6C793.6,502.5,797.3,498.2,802.4,498.2z M804.7,504.4
			c0,0,0.1-0.3,0.1-0.7c0-1.6-1-2.5-2.4-2.5c-2,0-3.5,1.3-4.3,3.2H804.7z"/>
	</g>
</g>
</svg>
