<?xml version="1.0" encoding="utf-8"?>
<!-- Generator: Adobe Illustrator 19.1.0, SVG Export Plug-In . SVG Version: 6.00 Build 0)  -->
<svg version="1.1" id="Layer_1" xmlns="http://www.w3.org/2000/svg" xmlns:xlink="http://www.w3.org/1999/xlink" x="0px" y="0px"
	 viewBox="-284 231.2 362 362" style="enable-background:new -284 231.2 362 362;" xml:space="preserve">
<style type="text/css">
	.st0{fill:#A4CE4E;stroke:#7B9B3B;stroke-width:10;stroke-miterlimit:10;}
	.st1{fill:#FAAD40;}
	.st2{fill:#F9E8D8;}
	.st3{fill:#BC842C;}
	.st4{fill:#461A00;}
	.st5{fill:#FBB03B;}
	.st6{opacity:0.4;fill:#542700;}
	.st7{opacity:0.2;}
	.st8{fill:#603813;}
	.st9{opacity:0.3;fill:#FFFFFF;}
</style>
<circle class="st0" cx="-103" cy="412.2" r="176"/>
<g>
	<path class="st1" d="M-199.8,544.1c0.3,0.5,0.3,2.5,0.1,5.4c6,3.4,12.2,8.5,18.6,11.2c0.8-4.6,1.5-10,2-11.4
		c0.9-2.4,2.2-4.9,3.6-7.3c-6.4-1.3-15.7-3.8-21.6-7.4C-198.8,538-200.7,542.3-199.8,544.1z"/>
	<path class="st1" d="M-23.2,549.4c0.4,1,0.9,5.2,1.4,8.1c6.6-3.2,13-8.7,19.1-12.6c0-0.4,0.1-0.6,0.2-0.8c1-1.9-1.2-6.6-3.1-10.1
		c-6,2.2-15.2,5-21.9,6.9C-25.8,543.6-24.2,546.6-23.2,549.4z"/>
	<path class="st2" d="M-30.4,444c-6.6-4.1-40.3-13.4-56.1-15.9c4,10.2,12.5,17.3-17.3,17.3c-30.3,0-21-7.3-17.1-17.8
		c-3.7,1-39.5,11.2-46.6,16.6c-7.4,5.7-35,74.2-35,83.6c0,2.6,2.2,4.9,5.4,6.9c5.8,3.6,15.2,6.1,21.6,7.4c2.5,0.5,4.6,0.9,5.8,1.1
		c5.6,0.8,13.5-22,13.5-22l1,48.6c16,4.3,32.8,6.6,50.1,6.6c19.8,0,39-3,57-8.6l-0.6-51.3c0,0,9.7,27,12.7,26.6
		c0.9-0.1,4.3-1,8.6-2.2c6.8-1.9,15.9-4.7,21.9-6.9c2.4-0.9,4.3-1.7,5.3-2.3C4.8,528.8-22.5,448.8-30.4,444z"/>
	<path class="st3" d="M-103.7,445.3c29.7,0,21.3-7,17.3-17.3c-0.9-2.3-1.6-4.7-1.6-7.2c0-1.8-0.2-3.3-0.4-4.7
		c-4.7,2.3-10.2,3.6-16.6,3.6c-5.3,0-10-0.9-14.2-2.6c-0.2,1.1-0.3,2.3-0.3,3.7c0,2.3-0.6,4.6-1.4,6.7
		C-124.7,438.1-134,445.3-103.7,445.3z"/>
	<path class="st1" d="M-88.5,416.1c18-8.9,24.6-32.7,26.2-55.6c-7.2-0.4-2.7-9.1-2.7-19.8c0-3.1,0.1-6.1,0.3-8.7
		c-0.8,3,0,9.6-2.4,9.6c-1.7,0-3.3-3.6-5-7.6c-5.1-4.5-11.7-13.5-11.7-13.5s-3.7,5-11.5,4.3s-18.4-1.9-27.4-3.9
		c-5-1.1-10.9,0.2-15.2,1.6c-1.3,7.5-3.3,16.8-6,13.7c-0.6-0.7-1.1-1.6-1.4-2.6c0.1,2.2,0.2,4.7,0.2,7.2c0,10.7,4.5,19.5-2.7,19.8
		c1.7,23.9,8.8,48.8,28.7,56.6c4.1,1.6,8.8,2.6,14.2,2.6C-98.7,419.8-93.2,418.5-88.5,416.1z M-83.8,336.4c2.1,0,3.8,1.7,3.8,3.8
		c0,2.1-1.7,3.8-3.8,3.8c-2.1,0-3.8-1.7-3.8-3.8C-87.5,338.1-85.8,336.4-83.8,336.4z M-105,367.8c6.1,0,9.8-7.2,9.8-7.2
		c-0.4,9.1-4.1,19.7-9.8,19.7c-5.7,0-9.4-10.5-9.8-19.7C-114.9,360.6-111.2,367.8-105,367.8z M-126.3,344c-2.1,0-3.8-1.7-3.8-3.8
		c0-2.1,1.7-3.8,3.8-3.8s3.8,1.7,3.8,3.8C-122.6,342.3-124.3,344-126.3,344z"/>
	<circle class="st4" cx="-83.8" cy="340.2" r="3.8"/>
	<path class="st5" d="M-63.2,330.5c-0.7-0.1-1.2,0.5-1.4,1.5c-0.2,2.6-0.3,5.6-0.3,8.7c0,10.7-4.5,19.5,2.7,19.8c0.2,0,0.3,0,0.5,0
		c7.9,0,7.2-8.9,7.2-19.9c0-1.4-0.1-2.8-0.3-4.1C-56.1,335.3-60.6,330.9-63.2,330.5z"/>
	<circle class="st4" cx="-126.3" cy="340.2" r="3.8"/>
	<path class="st1" d="M-105,380.3c5.7,0,9.4-10.5,9.8-19.7c0,0-3.7,7.2-9.8,7.2c-6.1,0-9.8-7.2-9.8-7.2
		C-114.5,369.7-110.7,380.3-105,380.3z"/>
	<path class="st6" d="M-105,380.3c5.7,0,9.4-10.5,9.8-19.7c0,0-3.7,7.2-9.8,7.2c-6.1,0-9.8-7.2-9.8-7.2
		C-114.5,369.7-110.7,380.3-105,380.3z"/>
	<path class="st5" d="M-145.1,340.8c0-2.5-0.1-5-0.2-7.2c-1.7-5-0.3-12.2-3.7-10c-4.1,2.6-4.6,10.6-4.6,10.6l-0.9-1.7
		c-0.6,2.5-1,5.3-1,8.3c0,11-0.7,19.9,7.2,19.9c0.2,0,0.3,0,0.5,0C-140.7,360.2-145.1,351.5-145.1,340.8z"/>
	<path class="st1" d="M-78.8,300.8c0,0-7.4,18.8-20.5,16.6s-35.8-7.4-37.1-2.2c-0.4,1.5-0.8,4.3-1.4,7.3c4.3-1.4,10.2-2.7,15.2-1.6
		c9,2,19.7,3.3,27.4,3.9s11.5-4.3,11.5-4.3s6.6,8.9,11.7,13.5c-1.6-3.9-3.3-8.3-5-10C-80.6,320.4-78.8,300.8-78.8,300.8z"/>
	<path class="st7" d="M-78.8,300.8c0,0-7.4,18.8-20.5,16.6s-35.8-7.4-37.1-2.2c-0.4,1.5-0.8,4.3-1.4,7.3c4.3-1.4,10.2-2.7,15.2-1.6
		c9,2,19.7,3.3,27.4,3.9s11.5-4.3,11.5-4.3s6.6,8.9,11.7,13.5c-1.6-3.9-3.3-8.3-5-10C-80.6,320.4-78.8,300.8-78.8,300.8z"/>
	<path class="st8" d="M-149.1,323.5c3.4-2.2,2,5.1,3.7,10c0.3,1,0.8,1.9,1.4,2.6c2.8,3.1,4.7-6.2,6-13.7c0.5-3,1-5.8,1.4-7.3
		c1.3-5.2,24,0,37.1,2.2s20.5-16.6,20.5-16.6s-1.7,19.7,1.7,23.1c1.7,1.7,3.4,6.1,5,10c1.7,4,3.3,7.7,5,7.6c2.5,0,1.7-6.6,2.4-9.6
		c0.2-1,0.7-1.6,1.4-1.5c2.6,0.4,7.1,4.7,8.4,6.1c0.2,0.2,0.4,0.4,0.4,0.4s7-28.3-2.6-41c-3.4-4.5-22.8-28.6-41.5-27.1
		c-33,2.6-47.6,11.8-54.1,27.1c-6.6,15.3-2.9,34.5-2.9,34.5l1,2l0.9,1.7C-153.6,334.1-153.1,326.1-149.1,323.5z M-136.9,287.8
		c8.7-4.9,40.2-10,40.2-10s8.3,9.2,0,13.7c-8.3,4.5-34.7,8.8-34.7,8.8l-16.8,4.9C-148.3,305.2-145.7,292.7-136.9,287.8z"/>
	<path class="st8" d="M-96.8,291.5c8.3-4.5,0-13.7,0-13.7s-31.4,5.1-40.2,10c-8.7,4.9-11.4,17.5-11.4,17.5l16.8-4.9
		C-131.5,300.3-105,296-96.8,291.5z"/>
	<path class="st9" d="M-96.8,291.5c8.3-4.5,0-13.7,0-13.7s-31.4,5.1-40.2,10c-8.7,4.9-11.4,17.5-11.4,17.5l16.8-4.9
		C-131.5,300.3-105,296-96.8,291.5z"/>
</g>
</svg>
