<?xml version="1.0" encoding="utf-8"?>
<!-- Generator: Adobe Illustrator 19.1.0, SVG Export Plug-In . SVG Version: 6.00 Build 0)  -->
<svg version="1.1" id="Layer_1" xmlns="http://www.w3.org/2000/svg" xmlns:xlink="http://www.w3.org/1999/xlink" x="0px" y="0px"
	 viewBox="0 0 146.6 195.7" style="enable-background:new 0 0 146.6 195.7;" xml:space="preserve">
<style type="text/css">
	.st0{fill:#FFFFFF;}
	.st1{fill:#E3E5EA;}
	.st2{fill:#0EA1DC;}
	.st3{opacity:0.5;fill:none;stroke:#FFFFFF;stroke-width:5;stroke-miterlimit:10;}
	.st4{opacity:0.5;fill:#FFFFFF;}
	.st5{fill:none;stroke:#0EA1DC;stroke-width:5;stroke-miterlimit:10;}
	.st6{fill:#1A8FC5;}
	.st7{fill:none;stroke:#E3E5EA;stroke-width:6;stroke-linecap:round;stroke-miterlimit:10;}
</style>
<g>
	<g>
		<path class="st0" d="M15.1,192.7c-4.4,0-8.3-2.3-10.5-6.1c-2.2-3.8-2.2-8.4,0.1-12.1l39.9-73.5l0.1-0.1c0.9-1.5,1.4-3.2,1.4-4.9
			v-0.1l2.8-38.7c-3.5-0.1-6.4-3-6.4-6.5c0-3.6,2.9-6.5,6.5-6.5h0.1l7.1,0.7c5.6,0.5,11.4,0.8,17,0.8c5.7,0,11.4-0.3,17-0.8l7.1-0.7
			h0.1c3.6,0,6.5,2.9,6.5,6.5c0,3.5-2.9,6.4-6.4,6.5l2.8,38.7v0.1c0,1.7,0.5,3.4,1.4,4.9l0.1,0.2l39.9,73.5c2.2,3.7,2.2,8.2,0,12.1
			c-2.2,3.8-6.1,6.1-10.5,6.1H15.1z"/>
		<path class="st1" d="M97.6,47.1c1.9,0,3.5,1.6,3.5,3.5s-1.6,3.5-3.5,3.5h-3.1l3,41.8c0,2.3,0.7,4.6,1.9,6.5l39.9,73.5
			c3.6,6.1-0.8,13.7-7.9,13.7H15.1c-7,0-11.4-7.6-7.9-13.7l39.9-73.5c1.2-1.9,1.9-4.2,1.9-6.5l3-41.8H49c-1.9,0-3.5-1.6-3.5-3.5
			s1.6-3.5,3.5-3.5l7,0.7c5.8,0.6,11.5,0.8,17.3,0.8c5.8,0,11.5-0.3,17.3-0.8L97.6,47.1 M97.6,41.1h-0.3l-0.3,0l-7,0.7
			c-5.5,0.5-11.2,0.8-16.7,0.8c-5.6,0-11.2-0.3-16.7-0.8l-7-0.7l-0.3,0H49c-5.2,0-9.5,4.3-9.5,9.5c0,4.1,2.6,7.6,6.2,8.9l-2.6,35.9
			l0,0.2v0.2c0,1.2-0.3,2.3-1,3.3L42,99.4l-0.1,0.2L2,173.1c-2.7,4.7-2.7,10.3,0,15.1c2.7,4.8,7.6,7.6,13.1,7.6h116.3
			c5.5,0,10.4-2.8,13.1-7.6c2.7-4.7,2.7-10.3,0-15.1l-39.9-73.5l-0.1-0.2l-0.1-0.2c-0.6-1-1-2.1-1-3.3v-0.2l0-0.2l-2.6-35.9
			c3.6-1.3,6.2-4.8,6.2-8.9C107.1,45.4,102.8,41.1,97.6,41.1L97.6,41.1z"/>
	</g>
	<path class="st2" d="M20.2,180.6h106.1c2.3,0,3.8-2.5,2.7-4.5l-26.6-49c-29.2,8.2-40.8-7.7-58.1,0l-26.8,49
		C16.5,178.1,17.9,180.6,20.2,180.6z"/>
	<circle class="st3" cx="55" cy="147.8" r="5.7"/>
	<circle class="st4" cx="80.1" cy="145.6" r="2.2"/>
	<circle class="st4" cx="71" cy="164.2" r="4.6"/>
	<circle class="st3" cx="96.4" cy="158.2" r="4.6"/>
	<g>
		<g>
			<path class="st2" d="M66.1,96.7c1.2,0,2.2,1,2.2,2.2s-1,2.2-2.2,2.2s-2.2-1-2.2-2.2S64.9,96.7,66.1,96.7 M66.1,91.7
				c-4,0-7.2,3.2-7.2,7.2s3.2,7.2,7.2,7.2s7.2-3.2,7.2-7.2S70.1,91.7,66.1,91.7L66.1,91.7z"/>
		</g>
	</g>
	<circle class="st2" cx="82.7" cy="118.9" r="3.2"/>
	<circle class="st2" cx="76.2" cy="77.5" r="5"/>
	<circle class="st2" cx="94.5" cy="16.7" r="2.2"/>
	<circle class="st2" cx="54.7" cy="5" r="5"/>
	<circle class="st5" cx="71.2" cy="29.3" r="4.6"/>
	<path class="st6" d="M127.8,173.9c-0.4,0.2-0.9,0.4-1.5,0.4H20.2c-0.5,0-1-0.1-1.5-0.4l-1.2,2.2c-1.1,2,0.4,4.5,2.7,4.5h106.1
		c2.3,0,3.8-2.5,2.7-4.5L127.8,173.9z"/>
	<path class="st7" d="M57.7,56.7c10.6,1,20.9,1,31.4,0"/>
</g>
</svg>
