<?xml version="1.0" encoding="utf-8"?>
<!-- Generator: Adobe Illustrator 19.1.0, SVG Export Plug-In . SVG Version: 6.00 Build 0)  -->
<svg version="1.1" id="Layer_1" xmlns="http://www.w3.org/2000/svg" xmlns:xlink="http://www.w3.org/1999/xlink" x="0px" y="0px"
	 viewBox="-174 55 437 415.1" style="enable-background:new -174 55 437 415.1;" xml:space="preserve">
<style type="text/css">
	.st0{opacity:0.2;fill:#FFFFFF;stroke:#000000;stroke-width:8;stroke-miterlimit:10;}
	.st1{fill:#A67C52;}
	.st2{fill:#FFFFFF;}
	.st3{fill:#666666;}
	.st4{fill:#E6E6E6;}
	.st5{fill:#C1272D;}
	.st6{fill:#FCE9F3;}
	.st7{fill:#9B5CA4;}
	.st8{opacity:0.2;}
	.st9{opacity:0.2;fill:#FFFFFF;}
	.st10{clip-path:url(#SVGID_2_);}
	.st11{fill:#FAAD40;}
	.st12{fill:#F2F2F2;}
	.st13{fill:#4D4D4D;}
	.st14{fill:#CCCCCC;}
	.st15{fill:#333333;}
	.st16{fill:#BB8230;}
	.st17{fill:#603813;}
	.st18{fill:#42210B;}
	.st19{fill:#461A00;}
	.st20{fill:none;stroke:#000000;stroke-width:4;stroke-miterlimit:10;}
</style>
<title>vert-transport-future-b</title>
<path class="st0" d="M-7.6,309l37.5-84.9c-10.8-25.8-12.6-55.4-3-83.9c21-62.4,88.6-96,151-75s96,88.6,75,151s-88.6,96-151,75
	c-6.2-2.1-12.2-4.7-17.8-7.7L-7.6,309z"/>
<path d="M-139.5,365.8c0,0,21.3-7.6,27.2-7.7c8.6-0.2,33,4,37.7,7.3c1.7,1.1,1.5,7,1.5,7s-67.5,5-66.5,4S-139.5,365.8-139.5,365.8z"
	/>
<path d="M-73.4,338.8c0,0,12-6.9,14.2-9.7c3.8-4.8,6.2-42.8-15.7-61.3c-3.7-3.1,3.5,17.1-1.1,13.6
	C-90.9,269.9-73.4,338.8-73.4,338.8z"/>
<g>
	<path class="st1" d="M-49.2,344.6c-7.2-9.2-2.7-11.7-2.2-13.5c2.5-9.7,28.4,1.7,28.4,1.7s-0.1,2-1,5.5c-3,10.9-8,10.4-7.2,20.1
		c0.4,4.3-10.8,3.9-11,1.2C-43.2,348-42,353.8-49.2,344.6z"/>
	<g>
		<g>
			<g>
				<path class="st2" d="M-22.6,310.7l1.9,17.9c0.2,2.1-1.7,4.3-3.9,4.5l-38.8,3.1c-1.4,0.1-2.5-0.8-2.6-2.1l-1.9-17.9
					c-0.2-2.1,1.7-4.3,3.9-4.5l38.7-3.1C-23.8,308.5-22.7,309.3-22.6,310.7z"/>
				<g>
					<path class="st3" d="M-28.2,313.1l1.5,14.5c0.2,1.6-1.4,3.5-3.1,3.6l-31.4,2.5c-1.2,0.1-2-0.6-2.1-1.7l-1.5-14.5
						c-0.2-1.6,1.4-3.5,3.1-3.6l31.4-2.5C-29.2,311.3-28.4,312-28.2,313.1z"/>
					<path class="st4" d="M-38.4,328.7l-1.3-13.4c0-0.5,0.3-0.9,0.7-0.9l1.5-0.2c0.5-0.1,0.9,0.3,0.9,0.7l1.3,13.4
						c0,0.5-0.3,0.9-0.7,0.9l-1.5,0.2C-38,329.5-38.4,329.1-38.4,328.7z"/>
					<circle class="st5" cx="-32.7" cy="321.4" r="2"/>
				</g>
			</g>
		</g>
	</g>
	<path class="st1" d="M-51.5,347.5c-4-1.4-7.2-5.5-8.9-5.8c-1.7-0.3-10.1-4.3-9.5-5.4c1.7-3.1,5-2.7,7-2c3.2,1.2,5.8,2.1,8.2,2.8
		c0.5,0.2,1.4-1.5,2.4-1.4c3.8,0.2,9.9,1.6,9.9,1.6l0.5,17.9C-41.9,355.2-48.8,348.5-51.5,347.5z"/>
	<path class="st1" d="M-52.3,308.1c0,0-1.9,1.4-1.5,2.4c0.7,1.5,2.4,2.3,3.4,1.8c1.1-0.5,3.2-2.9,3.2-2.9s-1-3-2.5-2.6
		C-51.1,307.3-52.3,308.1-52.3,308.1z"/>
	<path class="st1" d="M-47,307.8c0,0-2.4,2.7-1.9,3.7s2.4,2.3,3.4,1.8c1.1-0.5,3.7-4.3,3.7-4.3s-1-3-2.5-2.6
		C-45.7,307-47,307.8-47,307.8z"/>
	<path class="st1" d="M-41.6,307.5c0,0-3.3,3.2-2.9,4.2c0.5,1,2.4,2.3,3.4,1.8c1.1-0.5,4.6-4.7,4.6-4.7s-1-3-2.5-2.6
		S-41.6,307.5-41.6,307.5z"/>
	<path class="st1" d="M-37.5,306.7c0,0-1.9,1.4-1.5,2.4c0.5,1,2.4,2.3,3.4,1.8c1.1-0.5,4.6-2.2,4.6-2.2s-2.4-3.8-3.8-3.3
		S-37.5,306.7-37.5,306.7z"/>
	<path class="st6" d="M-53.3,310.2c0,0,0.6,0.8,1.4,0.5s2.1-2.1,2.1-2.1s-1.5-0.2-2.2-0.2C-52.7,308.4-53.3,310.2-53.3,310.2z"/>
	<path class="st6" d="M-48,310.8c0,0,1.4,0.3,2.1,0c0.7-0.3,1.8-1.8,1.8-1.8s-2.2,0.2-2.8,0.2C-47.5,309.3-48,310.8-48,310.8z"/>
	<path class="st6" d="M-43.5,311c0,0,1.4,0.3,2.1,0c0.7-0.3,1.8-1.8,1.8-1.8s-2.2,0.2-2.8,0.2C-43,309.4-43.5,311-43.5,311z"/>
	<path class="st6" d="M-37.4,309.2c0,0,1.3,0.4,1.9,0.1c0.6-0.3,1.5-1.7,1.5-1.7s-1.9,0.1-2.5,0.1C-37,307.7-37.4,309.2-37.4,309.2z
		"/>
	<path class="st6" d="M-66.4,339.2l0.7-1.4c0,0-2.2-1.4-3.1-1.4s-0.4,0.9-0.4,0.9L-66.4,339.2z"/>
</g>
<path class="st7" d="M-141,368l34-10l34,9c0,0,12.7,31.9,11,39.9s-5.3,63-5.3,63H-127L-141,368z"/>
<path class="st1" d="M-130.2,367.8c0-1.9,20.5-7.9,19.9-15.2c-0.6-7.2,2-16.5,2-16.5l12.6,2.7c0,0-3.3,20.3-2,23.8
	c1.3,3.5,17.6,2,18.3,4.5c0.7,2.5-13.8,19-24.3,16.5C-114.2,381-130.2,369.7-130.2,367.8z"/>
<path class="st1" d="M-65,314.2c0,21.4-11.4,40.1-19,40.8c-20.4,2-44.5-16.4-44.5-37.9s24.1-41.8,39.9-41.8S-65,292.8-65,314.2z"/>
<path class="st8" d="M-90.2,325.1c0,3,1.2,6.3,7.7,6.1c4.4-0.1,6.2-5.5,6.5-9.6c0.1-2.2-2,2-5.2,3
	C-85.4,325.8-90.2,322.1-90.2,325.1z"/>
<circle cx="-101" cy="310.8" r="2.7"/>
<circle cx="-73" cy="304.8" r="2.7"/>
<path class="st8" d="M-112.2,302c0,0,13.1-0.2,21.5-2.4c10-2.7,10-6,20.4-14.8c9.3-7.9-52.4,2.5-51.8,3.5c0.6,1-4.2,12.7-0.1,25.2
	C-121,317.5-117.9,308.2-112.2,302z"/>
<path d="M-150.9,275.4c-4.9,16.4-4.1,44.7-5.6,60.7c-0.7,7,8.5,28.5,51.8,13.3c3.5-1.2-15.5-9.3-17.4-25.3c-0.7-6-0.6-23.3,6.1-26.7
	c0,0,19.4-1.3,24.9-2.7c5.6-1.3,4.4-6.7,13.7-9.3s4-11.1,4.6-17.6c1.5-16.1-43.5-19.3-51-12.5C-131.5,262.2-148,265.9-150.9,275.4z"
	/>
<path class="st9" d="M-141.3,275.6c3.6-2.2,31.1-14.8,31-10.2c-0.3,6.5-16.1,10.9-20.9,15.6c-4.8,4.7-9.9,16.7-14.4,16.7
	C-149,297.6-144.9,277.9-141.3,275.6z"/>
<path d="M-79.2,470c0,0,6.5-45.6,5.5-49.6s-4.4-56.3-4.4-56.3s19.2,6.9,21.3,7.6c2,0.7-7.3,45.9-7.3,45.9l2.2,52.4H-79.2z"/>
<path d="M-44,358h14c0,0,12.2,102.9,1.5,103.8c-10.7,1-29.8-39-37.3-40.3c-5.5-0.9,5.5-52.3,9-49.9c3.5,2.4,15.2,37.1,15.2,37.1
	L-44,358z"/>
<path d="M-128.6,362.2c0,0-5.1,5.2-4.1,7.5s23.5,50.2,22.3,56.2s-1.4,44.2-1.4,44.2l-34.5-0.2c0,0,2.3-35.1,1.8-39.1
	c-0.8-5.6-10.5-34.5-10.5-38.5s7.8-23.5,9.5-25S-128.6,362.2-128.6,362.2z"/>
<path d="M-146.9,369.6c0,0-14.1,21.4-18.1,33.9c-4,12.5-9,66.5-9,66.5h16c0,0,6.5-34.7,7-38.5s12.5-24.7,12.5-24.7L-146.9,369.6z"/>
<g>
	<defs>
		<circle id="SVGID_1_" cx="139.9" cy="178.6" r="115.4"/>
	</defs>
	<clipPath id="SVGID_2_">
		<use xlink:href="#SVGID_1_"  style="overflow:visible;"/>
	</clipPath>
	<g class="st10">
		<path class="st11" d="M79.5,221.2c-0.3-5.3,10.1-10.2,11.1-14.5c0.7-3,2-16.9,3-18.7c1-1.8,5-8.2,1.4-8.2c-3.8,0-8.2,6-8.8,8.2
			c-0.7,2.2-1,10.7-4.7,6.9c-2.6-2.7-13.1-1.5-15.1-0.9c-2,0.6-15.1,0.2-12.7,5.3c2.4,5.1,7.3,16.8,10.4,18.7c5.7,3.7,5,12.1,7,12.1
			c2,0,10.4-4,10.4-4S79.8,226.4,79.5,221.2z"/>
		<polygon class="st12" points="69,234.1 65.7,226.2 82.1,219.8 84.8,230.6 		"/>
		<path class="st13" d="M65.7,234.1l21.7-8.8l18.7,41.6c0,0,29-56.4,31-59.5c16-25.7,15.6,48.3,3.3,73c-12.3,24.8-6.8,29.7-6.8,29.7
			l-39,0.5L65.7,234.1z"/>
		<path class="st13" d="M208.5,196.7c0,0,27.3,8.3,32.3,18.4c5,10.1,7.2,51.4,8.2,57.1c2.2,12.1,1.5,38.4,1.5,38.4l-33.3-0.9
			l-1.7-6.4l-1.2,7.3l-84.9-0.7c0,0-2.2-47.6,0-58.2c2.2-10.6,7.1-45.8,16.8-50.7C155.9,196.1,208.5,196.7,208.5,196.7z"/>
		<path class="st14" d="M150.6,206.6c0,0,41.2-5.7,41.2-3.5s-32.7,107-32.7,107h-18.7C140.4,308,150.6,206.6,150.6,206.6z"/>
		<path class="st5" d="M163.2,215c0,0-16.1,30.9-16.9,35.9c-0.8,5-3.2,59.1-3.2,59.1h16.1l11.5-55.6L168,215H163.2z"/>
		<path class="st15" d="M177.3,221.9c-4.2,4.9-14.3,41.5-15.6,45.6c-1.3,4.1-5,42.5-5,42.5h6.3c8-17,21.3-51.8,25-55.4
			c5.8-5.6-3.8-16.6-3.4-18.4s9.7,0,16.1-7.6c6.4-7.6,10.7-17.4,10-25.1s-12-11.4-12-11.4S181.6,217,177.3,221.9z"/>
		<path class="st15" d="M149.8,234.2c-0.7,6.4-5.1,34.7-5.2,39c-0.4,10.9-2.1,36.7-2.1,36.7s-2.8,0-2.8,0c-4-19-7.4-68-7.4-73.4
			c0-5.4,10.9-7.9,11.9-9.5s-4.9-15.1-2.5-18.1s3.8-9.1,10.8-12.4c8.7-4.1,15.5-4.6,15.5-4.6S150.5,227.8,149.8,234.2z"/>
		<path class="st16" d="M165.5,188.2l2,19.8c0,0,15.7,6.4,24-0.7c12.4-10.6,2.9-22.1,2.9-22.1l-2.9-41.5l-12.4,8.7L165.5,188.2z"/>
		<path class="st17" d="M192.4,158.2c0,0,4.3-4.1,5.2-5.7c0.9-1.6,13-22.8,13.6-24.8c0.7-2-0.4-20.3-2-26
			c-3.4-12-22.9-17.4-39.7-17.4c-12.8,0-25.6,8.2-29.6,11.8c-6.8,6.1-7.4,17.4-7.4,19.8c0,13.2,2.5,16.9,4.7,20.9
			C139.5,140.8,192.4,158.2,192.4,158.2z"/>
		<path class="st18" d="M190,116.5c0,0-1.9-8.3,8.3-4.8c10.3,3.5,12.3,3.7,12.3,3.7s1.7,7.1,0,11.6c-1.7,4.4-8.9,30.6-15.6,35.8
			c-2.9,2.3-5.2-2.2-5.2-2.2L190,116.5z"/>
		<path class="st11" d="M135.5,129c1,19.1-1,58,20.8,60.7c17.2,2.1,27.7-4.6,32.4-12.3c4.7-7.7,7-31.6,6.1-45.1
			c-1.3-20-16.1-30.9-32.6-28.9C145.7,105.5,134.5,109.9,135.5,129z"/>
		<circle class="st19" cx="170.4" cy="139.3" r="2.4"/>
		<circle class="st19" cx="147.9" cy="136.6" r="2.4"/>
		<path class="st8" d="M149,149.9c-0.9,7.3,3.5,9.2,5,9.2c1.5,0,8.8-1.2,9.1-7.1c0,0-6.7,1.1-9.1,1.1
			C151.7,153.1,149,149.9,149,149.9z"/>
		<ellipse transform="matrix(0.9887 0.1498 -0.1498 0.9887 27.3543 -20.9989)" cx="153.1" cy="171.1" rx="7.3" ry="3.4"/>
		<g>
			<ellipse cx="194.3" cy="139.8" rx="6.6" ry="11.4"/>
			<ellipse class="st3" cx="198.3" cy="139.8" rx="6.8" ry="8.5"/>
			<ellipse cx="201.7" cy="139.8" rx="4.1" ry="6.3"/>
		</g>
		<path class="st20" d="M156.8,172.1c0,0,28.7,7.1,36.5-7.9c4.8-9.2,4.5-18.8,4.5-18.8"/>
		<path class="st17" d="M133.6,122.9c0,0,6-7.3,9.5-9.4c18.9-11.4,31.2,6.6,44.6-0.3c8.2-4.2,2.8-14.9,2.8-14.9s-50.6,3.1-52.3,7.3
			S133.6,122.9,133.6,122.9z"/>
		<path class="st9" d="M138,109.7c0,0,2.8-7.4,4.4-9.2c5.2-6.1,21.2-11.1,21.2-11.4c0-0.3,1.7,1-0.7,4.7c-2.3,3.7-13.2,5.4-16.4,9.2
			C142.5,107.6,143.1,109.8,138,109.7z"/>
		<path class="st5" d="M163.9,207.3c0,0,12.3,2,11.6,3.5c-0.7,1.5,0.5,8.3-3.1,9.6s-11.6,2.7-12.7-1.3
			C158.5,215.1,159.3,210.4,163.9,207.3z"/>
		<path class="st12" d="M175.5,207.3c0,0,16.1-4.8,18.8-9.3s0.6-12.9,0.6-12.9l4.5,2.1c0,0,5.1,6.6,4.3,12.9
			c-0.8,6.4-20.6,22.9-22.1,21.6C180.2,220.5,172.2,208.4,175.5,207.3z"/>
		<path class="st12" d="M167.2,204.5c0,0-8.7,9.7-10.4,7.7c-1.7-2,2-15.4,4.7-16.8c2.8-1.4,4.8-2.7,4.8-2.7L167.2,204.5z"/>
		<path class="st11" d="M74.3,195.3c0,0-3.4-14.1-2.7-18.5c0.7-4.4,1.9-12.2,2.7-14c0.7-1.8-3-3.6-4.6-1.7s-3.4,13.3-3.7,15.7
			c-0.3,2.4-1,21.2,2,21.9C71,199.3,74.3,195.3,74.3,195.3z"/>
		<path class="st11" d="M81.1,196c0,0-2.7-14.1-2-18.5c0.7-4.4,0.6-8.1,1.3-10s-3-3.6-4.6-1.7s-2.7,9.3-3,11.7
			c-0.3,2.4-1,21.2,2,21.9C77.8,200,81.1,196,81.1,196z"/>
		<path class="st11" d="M68.8,196.1c0,0-4.8-15.8-4.5-20.8c0.3-5.1-0.3-9.3,0.3-11.5c0.6-2.2-3.8-3.7-5.5-1.4
			c-1.7,2.4-1.9,10.9-2,13.6s1.5,24.2,5,24.6S68.8,196.1,68.8,196.1z"/>
		<path class="st11" d="M61.3,199.9c0,0-5-12.2-5.2-16.3s-1-7.4-0.6-9.2c0.3-1.8-3.3-2.7-4.5-0.7c-1.2,2-0.7,8.8-0.6,11
			c0.1,2.2,2.9,19.2,5.8,19.2C59.1,204.1,61.3,199.9,61.3,199.9z"/>
		<path class="st11" d="M78.7,186.6c2.4,2,2.4,9.4,2.4,9.4s1.7,3.9-2,7.6s-10.5,6.6-10.3,8.9c0.2,2.3-3.1,7-3.1,7s-5.3-5.3-8.6-12.7
			C53.7,199.4,76.3,184.6,78.7,186.6z"/>
	</g>
</g>
</svg>
