<?xml version="1.0" encoding="utf-8"?>
<!-- Generator: Adobe Illustrator 19.1.0, SVG Export Plug-In . SVG Version: 6.00 Build 0)  -->
<svg version="1.1" id="Layer_1" xmlns="http://www.w3.org/2000/svg" xmlns:xlink="http://www.w3.org/1999/xlink" x="0px" y="0px"
	 viewBox="0 0 175.4 188.8" style="enable-background:new 0 0 175.4 188.8;" xml:space="preserve">
<style type="text/css">
	.st0{fill:#77808E;}
	.st1{opacity:0.3;}
	.st2{fill:#4B5764;}
	.st3{fill:#6A7581;}
	.st4{fill:#FFD900;}
	.st5{fill:#CE9700;}
	.st6{fill:#FFFFFF;}
	.st7{fill:#F0C400;}
	.st8{opacity:0.5;fill:#CE9700;}
</style>
<g>
	<g>
		<g>
			<g>
				<path class="st0" d="M119.8,37.5c-27.3-16.9-63.1-8.5-80,18.8c-12.8,20.6-12.9,49-0.2,68.5l-20.8,33.5l0.1,0.1
					c-2.9,6.1-1,12.2,3.4,17.8c-0.4,0.2-0.7,0.5-1,0.9c-0.6,1-0.3,2.4,0.7,3.1l13.6,8.4c1,0.6,2.4,0.3,3.1-0.7
					c0.2-0.4,0.3-0.8,0.3-1.3c7,1.4,13,1.3,17.2-4l21.1-34.3c12.7,5,48.5-10.1,61.3-30.7C155.5,90.2,147.1,54.4,119.8,37.5z"/>
			</g>
			<g class="st1">
				<g>
					<path class="st2" d="M89.2,31.6c10.2,0,20.3,2.9,29.1,8.3c12.5,7.8,21.3,20,24.7,34.3c3.4,14.4,0.9,29.2-6.8,41.7
						c-4.9,7.8-13.7,15.5-24.8,21.5c-10,5.4-20.7,8.8-27.9,8.8c-2,0-3.7-0.3-5-0.8l-2.2-0.9l-1.3,2l-21,34.2c-2,2.5-4.6,3.6-8.3,3.6
						c-1.7,0-3.6-0.2-6-0.7l-3.6-0.7l0.1,2.4l-11.5-7.1l2.2-1l-2.2-2.9c-4.2-5.4-5.2-10.3-3-14.9l0.4-0.8L42,126.3l1-1.5l-1-1.5
						c-5.8-9-9-20.5-9-32.3c0-11.9,3.3-23.6,9.2-33.1c5-8.1,12.1-14.8,20.5-19.4C70.8,33.9,80,31.6,89.2,31.6 M89.2,28.7
						c-19.4,0-38.4,9.8-49.4,27.5c-12.8,20.6-12.9,49-0.2,68.5l-20.8,33.5l0.1,0.1c-2.9,6.1-1,12.2,3.4,17.8c-0.4,0.2-0.7,0.5-1,0.9
						c-0.6,1-0.3,2.4,0.7,3.1l13.6,8.4c0.4,0.2,0.8,0.3,1.2,0.3c0.7,0,1.5-0.4,1.9-1.1c0.2-0.4,0.3-0.8,0.3-1.3
						c2.3,0.5,4.5,0.8,6.6,0.8c4.2,0,7.8-1.2,10.6-4.8l21.1-34.3c1.7,0.7,3.7,1,6.1,1c15.6,0,44.1-13.7,55.2-31.6
						c16.9-27.3,8.5-63.1-18.8-80C110.2,31.6,99.7,28.7,89.2,28.7L89.2,28.7z"/>
				</g>
			</g>
		</g>
		<g>
			<path class="st3" d="M37.4,153c-0.4,0-0.7-0.1-1.1-0.3l-10.2-6.3c-1-0.6-1.3-1.9-0.7-2.8c0.6-1,1.9-1.3,2.8-0.7l10.2,6.3
				c1,0.6,1.3,1.9,0.7,2.8C38.8,152.7,38.1,153,37.4,153z"/>
		</g>
		<g>
			<g>
				<path class="st4" d="M119.8,37.5c-27.3-16.9-63.1-8.5-80,18.8c-12.8,20.6-12.9,49-0.2,68.5l-6.5,10.5l12,7.4l25.7,16l6.5-10.5
					c14,4,44.2-1.1,61.3-30.7C154.6,89.7,147.1,54.4,119.8,37.5z"/>
			</g>
			<g class="st1">
				<g>
					<path class="st5" d="M89.2,31.6c10.2,0,20.3,2.9,29.1,8.3c12.4,7.7,21.1,19.8,24.3,34.1c3.2,14.2,0.9,29.1-6.6,42
						c-6.1,10.5-14.2,18.5-24.2,23.8c-8,4.3-16.9,6.6-25.1,6.6c-3.2,0-6.2-0.4-8.7-1.1l-2.1-0.6l-1.1,1.8l-5,8l-23.3-14.4l-9.6-5.9
						l5-8l1-1.5l-1-1.5c-5.8-9-9-20.5-9-32.3c0-11.9,3.3-23.6,9.2-33.1c5-8.1,12.1-14.8,20.5-19.4C70.8,33.9,80,31.6,89.2,31.6
						 M89.2,28.7c-19.4,0-38.4,9.8-49.4,27.5c-12.8,20.6-12.9,49-0.2,68.5l-6.5,10.5l12,7.4l25.7,16l6.5-10.5
						c2.7,0.8,5.9,1.2,9.5,1.2c15.5,0,37.9-7.9,51.8-31.9c16.1-27.8,8.5-63.1-18.8-80C110.2,31.6,99.7,28.7,89.2,28.7L89.2,28.7z"/>
				</g>
			</g>
		</g>
		<g class="st1">
			<g>
				<path class="st6" d="M126.5,59.4c-19.3-33.3-71.1-26.3-79.4,7.5c-0.3,1.1,1,1.9,1.8,1.1c5.4-4.6,18.8-14.8,32.5-16
					c16.1-1.4,36.3,6,43.7,9C126.1,61.4,127,60.3,126.5,59.4z"/>
			</g>
		</g>
		<g>
			<path class="st3" d="M64.9,170.1c-0.4,0-0.7-0.1-1.1-0.3l-10.2-6.3c-1-0.6-1.3-1.9-0.7-2.8c0.6-1,1.9-1.3,2.8-0.7l10.2,6.3
				c1,0.6,1.3,1.9,0.7,2.8C66.3,169.7,65.6,170.1,64.9,170.1z"/>
		</g>
		<g>
			<path class="st3" d="M31.8,162.1c-0.4,0-0.7-0.1-1.1-0.3l-10.2-6.3c-1-0.6-1.3-1.9-0.7-2.8c0.6-1,1.9-1.3,2.8-0.7l10.2,6.3
				c1,0.6,1.3,1.9,0.7,2.8C33.1,161.7,32.5,162.1,31.8,162.1z"/>
		</g>
		<g>
			<path class="st3" d="M59.3,179.1c-0.4,0-0.7-0.1-1.1-0.3l-10.2-6.3c-1-0.6-1.3-1.9-0.7-2.8c0.6-1,1.9-1.3,2.8-0.7l10.2,6.3
				c1,0.6,1.3,1.9,0.7,2.8C60.7,178.8,60,179.1,59.3,179.1z"/>
		</g>
		<g>
			<polygon class="st7" points="55.5,148.6 49.6,144.9 69.9,112.2 63.5,84.9 70.2,83.3 77.3,113.4 			"/>
		</g>
		<g>
			<circle class="st4" cx="66.9" cy="84.1" r="8"/>
			<path class="st7" d="M66.8,95.6c-2.1,0-4.2-0.6-6-1.7c-2.6-1.6-4.4-4.1-5.1-7.1c-0.7-3-0.2-6.1,1.4-8.7s4.1-4.4,7.1-5.1
				c3-0.7,6.1-0.2,8.7,1.4c2.6,1.6,4.4,4.1,5.1,7.1c0.7,3,0.2,6.1-1.4,8.7s-4.1,4.4-7.1,5.1C68.6,95.5,67.7,95.6,66.8,95.6z
				 M66.9,79.6c-1.5,0-3,0.8-3.8,2.1c-1.3,2.1-0.7,4.9,1.5,6.2c2.1,1.3,4.9,0.7,6.2-1.5c0.6-1,0.8-2.2,0.6-3.4c-0.3-1.2-1-2.2-2-2.8
				C68.5,79.8,67.7,79.6,66.9,79.6z"/>
		</g>
		<g>
			<rect x="85" y="94.6" transform="matrix(0.1982 0.9802 -0.9802 0.1982 178.5886 1.2636)" class="st7" width="7" height="30.5"/>
		</g>
		<g>
			<circle class="st4" cx="103.5" cy="106.8" r="8"/>
			<path class="st7" d="M103.4,118.2c-2.1,0-4.2-0.6-6-1.7c-5.4-3.3-7-10.4-3.7-15.8c3.3-5.4,10.4-7,15.8-3.7
				c5.4,3.3,7,10.4,3.7,15.8v0c-1.6,2.6-4.1,4.4-7.1,5.1C105.2,118.1,104.3,118.2,103.4,118.2z M103.5,102.3c-1.5,0-3,0.8-3.8,2.1
				c-1.3,2.1-0.7,4.9,1.5,6.2c1,0.6,2.2,0.8,3.4,0.6c1.2-0.3,2.2-1,2.8-2l0,0c0.6-1,0.8-2.2,0.6-3.4c-0.3-1.2-1-2.2-2-2.8
				C105.1,102.5,104.3,102.3,103.5,102.3z"/>
		</g>
	</g>
	<g>
		<path class="st5" d="M126.8,26.1c0.8,0.5,1.5,1,2.2,1.5c1.5-2.4,3-4.9,4.5-7.3c1.4-2.3,2.8-4.6,4.3-6.9c-0.7-0.5-1.5-1-2.2-1.4
			c-0.5-0.3-1-0.6-1.5-0.9c-2.9,4.7-5.9,9.4-8.8,14.2C125.8,25.5,126.3,25.8,126.8,26.1z"/>
		<path class="st8" d="M98.8,16.3c1.5,0.2,2.9,0.4,4.4,0.7c1.1-5.4,2.3-10.8,3.4-16.3c-1.5-0.3-2.9-0.5-4.4-0.7
			c-0.9,4.5-1.9,9-2.8,13.5C99.2,14.4,99,15.3,98.8,16.3z"/>
		<path class="st5" d="M71.3,18.4c1.4-0.4,2.9-0.7,4.3-1.1c-0.8-5.4-1.6-10.8-2.3-16.2c-1.4,0.3-2.9,0.6-4.3,1
			c0.6,3.9,1.1,7.7,1.7,11.6C70.9,15.3,71.1,16.9,71.3,18.4z"/>
		<path class="st8" d="M50.9,27.6c-2.6-4.8-5.1-9.5-7.7-14.3c-1.3,0.8-2.5,1.6-3.7,2.5c2.6,4.8,5.1,9.6,7.7,14.4
			C48.4,29.2,49.7,28.4,50.9,27.6z"/>
		<path class="st5" d="M114.5,155.6c2.6,4.8,5.1,9.6,7.7,14.3c1.3-0.6,2.7-1.3,4-2c-2.6-4.8-5.1-9.5-7.7-14.3
			C117.2,154.4,115.9,155,114.5,155.6z"/>
		<path class="st5" d="M32,45.1c-4-3.6-8-7.1-12-10.7c-0.9,1.2-1.8,2.3-2.7,3.6c4,3.6,8,7.2,12.1,10.8C30.2,47.5,31.1,46.3,32,45.1z
			"/>
		<path class="st8" d="M134.5,142.7c4,3.6,8,7.2,12.1,10.8c1.1-1,2.1-2,3.1-3.1c-4-3.6-8-7.2-12-10.7
			C136.7,140.7,135.6,141.7,134.5,142.7z"/>
		<path class="st5" d="M149.8,123.5c5,2,10,4,15,6c0.7-1.3,1.4-2.6,2-4c-5-2-10-4-14.9-6C151.3,120.9,150.6,122.3,149.8,123.5z"/>
		<path class="st8" d="M20.3,67c-5-2-10-4-14.9-6c-0.5,1.4-1,2.8-1.4,4.2c5,2,10,4,15,6C19.4,69.8,19.8,68.4,20.3,67z"/>
		<path class="st5" d="M16.2,90.7C10.8,90.5,5.4,90.4,0,90.2c0,1.5,0,3,0,4.4c5.4,0.2,10.9,0.3,16.3,0.5
			C16.3,93.7,16.2,92.2,16.2,90.7z"/>
		<path class="st8" d="M158.5,99.6c5.4,0.2,10.9,0.3,16.3,0.5c0.2-1.5,0.4-2.9,0.6-4.4c-5.4-0.2-10.8-0.3-16.2-0.5
			C159,96.7,158.8,98.1,158.5,99.6z"/>
		<path class="st5" d="M157.6,68.7c0.4,1.4,0.7,2.9,0.9,4.3c5.2-1.7,10.4-3.4,15.6-5.1c-0.3-1.5-0.6-2.9-1-4.3
			c-3.5,1.2-7,2.3-10.6,3.5C161,67.6,159.3,68.2,157.6,68.7z"/>
		<path class="st8" d="M146.1,43.9c0.9,1.2,1.7,2.4,2.5,3.7c4.4-3.4,8.7-6.9,13.1-10.3c-0.8-1.2-1.7-2.4-2.5-3.6
			c-3.7,2.9-7.4,5.8-11,8.7C147.4,42.8,146.7,43.4,146.1,43.9z"/>
	</g>
</g>
</svg>
