<?xml version="1.0" encoding="utf-8"?>
<!-- Generator: Adobe Illustrator 19.1.0, SVG Export Plug-In . SVG Version: 6.00 Build 0)  -->
<svg version="1.1" id="Layer_1" xmlns="http://www.w3.org/2000/svg" xmlns:xlink="http://www.w3.org/1999/xlink" x="0px" y="0px"
	 viewBox="120 81 800 800" style="enable-background:new 120 81 800 800;" xml:space="preserve">
<style type="text/css">
	.st0{opacity:0.1;fill:#FFFFFF;}
	.st1{opacity:0.28;fill:#FFFFFF;}
	.st2{opacity:0.46;fill:#FFFFFF;}
	.st3{opacity:0.64;fill:#FFFFFF;}
	.st4{opacity:0.82;fill:#FFFFFF;}
	.st5{fill:#FFFFFF;}
	.st6{fill:#42210B;}
	.st7{fill:#603813;}
	.st8{fill:#FAAD40;}
	.st9{fill:#F9E8D8;}
	.st10{fill:#461A00;}
	.st11{fill:#FBB03B;}
	.st12{opacity:0.2;}
	.st13{opacity:0.3;}
	.st14{fill:#9FDAF1;}
	.st15{fill:#0EA2DC;}
	.st16{opacity:0.8;}
	.st17{opacity:0.1;}
</style>
<g>
	<circle class="st0" cx="520" cy="481" r="376.3"/>
	<circle class="st1" cx="520" cy="481" r="316.5"/>
	<circle class="st2" cx="520" cy="481" r="256.8"/>
	<circle class="st3" cx="520" cy="481" r="197"/>
	<circle class="st4" cx="520" cy="481" r="137.3"/>
	<circle class="st5" cx="520" cy="481" r="77.6"/>
</g>
<g>
	<g>
		<g>
			<path class="st6" d="M425.2,442.3c45.1-16.6,142.8-17.6,165.2-6.9c12.7,6,0-69.8,0-69.8l-95.9-58.5l-53.7,19.5
				C440.7,326.6,408.8,448.4,425.2,442.3z"/>
		</g>
		<g>
			<path class="st7" d="M432.2,316.8c0,0,6.3,44.9,2.9,55.8c-3.4,11-16.3,16.4-16.3,16.4s3.6,7.1,11,6.9s27.7-10.3,27.7-10.3
				l-5-76.4l-20.2-2.4L432.2,316.8z"/>
		</g>
		<g>
			<g>
				<path class="st8" d="M347,626.6c0,0-13.6,20.9-10.5,27c3.1,6.1-13.9,147.7-13.9,147.7l28.8,16.1c0,0,18.8-140.6,23.6-154
					c4.9-13.4,18.3-30.6,18.3-30.6L347,626.6z"/>
			</g>
			<g>
				<path class="st8" d="M693,626.6c0,0,13.6,20.9,10.5,27c-3.1,6.1,13.9,147.7,13.9,147.7l-32,17.7c0,0-15.5-142.2-20.3-155.6
					c-4.9-13.4-18.3-30.6-18.3-30.6L693,626.6z"/>
			</g>
			<g>
				<path class="st9" d="M484,436.2c0,0-73.4,20.5-87.2,31s-65.1,138.1-65.1,155.5c0,17.4,50.3,27.1,60.8,28.7
					c10.5,1.6,25.2-40.2,25.2-40.2l4.2,233.5c0,0,64.2,14.6,103.1,12.5s98.7-14.4,98.7-14.4l-6.3-240.3c0,0,18,49.8,23.6,49.2
					s56.7-15.5,66.6-21.2c9.4-5.5-41.4-154.4-56-163.3c-14.6-8.9-100-31.7-116.6-30.9C518.4,437.1,484,436.2,484,436.2z"/>
			</g>
			<g>
				<path class="st8" d="M537.5,419.2c0-33.4-22.3-27.6-22.3-27.6s-22.3-5.8-22.3,27.6c0,26-29.2,45.5,22.3,45.5
					C566.7,464.6,537.5,445.1,537.5,419.2z"/>
			</g>
			<g>
				<path class="st8" d="M490.8,442.6c0,0-32.8,7.5-41.4,12.3c-8.6,4.9,28.7,21.4,63.9,21.4c35.2,0,76.8-15.8,82.4-19.9
					c5.7-4.1-82.4-19.9-82.4-19.9L490.8,442.6z"/>
			</g>
			<g>
				<g>
					<path class="st8" d="M512.7,424c-24.8,0-82.7-47.9-68.8-171.4c3.7-33.2,68.8-31.7,68.8-31.7s63.7-1.3,68.8,31.7
						C599,367.4,537.5,424,512.7,424z"/>
				</g>
				<g>
					<circle class="st10" cx="545.3" cy="303.9" r="7"/>
				</g>
				<g>
					<path class="st11" d="M606.6,289.6c0,20.4,1.3,36.9-13.4,36.9s-6-16.5-6-36.9c0-20.4,2.7-22.3,6-22.3S606.6,269.2,606.6,289.6z
						"/>
				</g>
				<g>
					<circle class="st10" cx="480.1" cy="303.9" r="7"/>
				</g>
				<g class="st12">
					<path d="M494.4,333.9c0.8,17,14,24.4,18.3,24.4c4.3,0,17.5-7.4,18.3-24.4c0,0-11.6,11-18.3,11
						C506,344.9,494.4,333.9,494.4,333.9z"/>
				</g>
				<g class="st12">
					<path d="M492.8,417.8l-1.7,17.1c0,0,16.9,11.4,24.8,11.4c6.8,0,18.7-8,22.8-17.9c2.2-5.3-1.6-8.5-1.3-14.4
						c0,0-13.2,8.8-24.6,8.8C501.3,422.9,492.8,417.8,492.8,417.8z"/>
				</g>
				<g>
					<path class="st11" d="M418.8,289.6c0,20.4-1.3,36.9,13.4,36.9s6-16.5,6-36.9c0-20.4-2.7-22.3-6-22.3S418.8,269.2,418.8,289.6z"
						/>
				</g>
				<g class="st12">
					<path d="M440.7,274.6c0,0,17.1,3.3,46.4,2c34.1-1.6,42.1-18.5,65.1-10.1s20.1,12.5,28.7,15.1c8.5,2.6,0,0,0,0l-0.1-66.9
						l-141.2,32.5L440.7,274.6z"/>
				</g>
			</g>
			<g>
				<path class="st7" d="M618.3,411c-12.7-15.9-20.5-31.5-3.2-73.5c17.1-41.4,5-86.3-24.2-123.8c-14-22.9-2.5-47.9-64.7-50.8
					c-19.8-0.9-35.8-0.3-90.2,23.2s-42.1,117.2-27.9,151.5c17.3,41.9,9.5,57.6-3.2,73.5c-14.6,18.3-39,8.1-8.9,29
					c30,20.9,84.4-33.7,84.4-33.7s-25.9-31.5-30-50.5c-4.4-20.6-13.1-97.6-4.1-95.8c63,12.7,114.5-39.8,123.2-10.6
					c2,6.8,4.3,27.7,8.2,36.3c0,0-10.4,46.9-7.1,67.6c3.3,20.8-25.4,52.4-25.4,52.4s52.2,55.2,82.3,34.3
					C657.2,419.2,632.9,429.3,618.3,411z"/>
			</g>
			<g class="st13">
				<path class="st5" d="M410.3,233.3c0,0,5-23.4,21.2-32.5c16.2-9.1,68.2-26.9,68.2-26.9s10.2,17.7-5.3,26
					c-15.4,8.3-40.1-2.4-56.4,14.8C426,227.5,422.5,238.1,410.3,233.3z"/>
			</g>
		</g>
		<g>
			<g>
				<rect x="433.5" y="530.7" class="st14" width="77" height="62.4"/>
			</g>
			<g>
				<rect x="439.7" y="548.5" class="st5" width="64.6" height="39.2"/>
			</g>
			<g>
				<rect x="472" y="552.5" class="st8" width="28.8" height="5.2"/>
			</g>
			<g>
				<rect x="472" y="561.9" class="st14" width="28.8" height="5.2"/>
			</g>
			<g>
				<rect x="472" y="569.9" class="st14" width="28.8" height="5.2"/>
			</g>
			<g>
				<rect x="472" y="578.5" class="st14" width="28.8" height="5.2"/>
			</g>
			<g>
				<rect x="444.3" y="552.5" class="st14" width="23.2" height="31.2"/>
			</g>
			<g>
				<circle class="st15" cx="455.7" cy="561.6" r="6.5"/>
			</g>
			<g>
				<path class="st15" d="M447,584h20v-6.8c0-3.6-4.9-6.5-10-6.5s-10,2.9-10,6.5V584z"/>
			</g>
			<g>
				<path class="st15" d="M483,539.1h-22l3.7-16.3c0.8-3.3,3.7-5.7,7.2-5.7h0.2c3.4,0,6.4,2.4,7.2,5.7L483,539.1z"/>
			</g>
			<g>
				<circle class="st5" cx="471.8" cy="525.7" r="4.3"/>
			</g>
		</g>
	</g>
	<g class="st16">
		<path class="st5" d="M342.1,612.4c0,0,44.2-125.9,55.6-132c11.4-6.1,40.3-15.8,40.3-15.8s7.7,13.4-4.5,21.9
			c-3,2.1-16.7,6.2-23.3,18.3c-20.4,37.8-44,113.3-52.3,116.9C347,626.6,342.1,612.4,342.1,612.4z"/>
	</g>
	<g class="st17">
		<path d="M641,651.4c0,0,58.8-14.4,66.6-21.1c8.3-7.2-32.8-126.7-49.1-154c-2.5-4.2-14.5-20.1-11.8,10.3
			c1.5,16.5,11.3,125.1,3,138.5C641.5,638.4,641,651.4,641,651.4z"/>
	</g>
	<g class="st17">
		<path d="M623.7,842.7l-6.3-240.5c0,0-12.8-6.6-18.9,10.5c-6.1,17.1-38.2,240.9-38.2,240.9C592,851.5,623.7,842.7,623.7,842.7z"/>
	</g>
</g>
</svg>
