<?xml version="1.0" encoding="utf-8"?>
<!-- Generator: Adobe Illustrator 19.1.0, SVG Export Plug-In . SVG Version: 6.00 Build 0)  -->
<svg version="1.1" id="Layer_1" xmlns="http://www.w3.org/2000/svg" xmlns:xlink="http://www.w3.org/1999/xlink" x="0px" y="0px"
	 viewBox="0 0 162 265.7" style="enable-background:new 0 0 162 265.7;" xml:space="preserve">
<style type="text/css">
	.st0{fill:#FAAD40;}
	.st1{fill:#F9E8D8;}
	.st2{fill:#BC842C;}
	.st3{fill:#461A00;}
	.st4{fill:#FBB03B;}
	.st5{opacity:0.4;fill:#542700;}
	.st6{opacity:0.2;}
	.st7{fill:#603813;}
	.st8{opacity:0.3;fill:#FFFFFF;}
</style>
<g>
	<path class="st0" d="M10,199.2c0,0-5.6,8.5-4.3,11S0,265.7,0,265.7h14c0,0,5.5-46,7.5-51.5s7.5-12.5,7.5-12.5L10,199.2z"/>
	<path class="st0" d="M152,199.2c0,0,5.6,8.5,4.3,11c-1.3,2.5,5.7,55.5,5.7,55.5h-14c0,0-5.5-46-7.5-51.5s-7.5-12.5-7.5-12.5
		L152,199.2z"/>
	<path class="st1" d="M66.2,121.1c0,0-30.1,8.4-35.8,12.7c-5.7,4.3-26.7,56.7-26.7,63.8s20.6,11.1,25,11.8S39,192.7,39,192.7l1.5,73
		H122l-1-76.6c0,0,7.4,20.5,9.7,20.3c2.3-0.3,23.3-6.3,27.3-8.7c3.9-2.2-17-63.3-23-67c-6-3.7-41-13-47.9-12.7
		C80.3,121.4,66.2,121.1,66.2,121.1z"/>
	<g>
		<g>
			<g>
				<path class="st2" d="M79,104.7c0,0,12-2.4,12,11.3c0,10.7,15.7,18.7-12,18.7"/>
			</g>
			<g>
				<path class="st2" d="M79,104.7c0,0-12-2.4-12,11.3c0,10.7-15.7,18.7,12,18.7"/>
			</g>
		</g>
	</g>
	<g>
		<path class="st0" d="M78,115.2c-40,0-34-67-30.5-81.5c3.2-13.3,30.5-13,30.5-13s27.3-0.3,30.5,13C112,48.2,118,115.2,78,115.2z"/>
		<circle class="st3" cx="94.2" cy="54.5" r="2.9"/>
		<path class="st4" d="M116.6,54.9c0,8.4,0.5,15.2-5.5,15.2c-6.1,0-2.4-6.8-2.4-15.2s1.1-15.2,2.4-15.2
			C112.4,39.7,116.6,46.5,116.6,54.9z"/>
		<circle class="st3" cx="61.8" cy="54.5" r="2.9"/>
		<path class="st5" d="M70.5,70.1c0.3,7,3.2,15,7.5,15s7.2-8,7.5-15c0,0-2.8,5.5-7.5,5.5S70.5,70.1,70.5,70.1z"/>
		<path class="st4" d="M39.4,54.9c0,8.4-0.5,15.2,5.5,15.2s2.4-6.8,2.4-15.2s-1.1-15.2-2.4-15.2S39.4,46.5,39.4,54.9z"/>
		<path class="st6" d="M48.5,42.7c0,0,9.2-4.5,16.1-3c6.9,1.5,15,2.5,20.9,3c5.9,0.5,8.8-3.3,8.8-3.3s8.3,11.1,11.8,12.2s0,0,0,0
			l0-33.5L48,31.5L48.5,42.7z"/>
		<path class="st7" d="M44.4,41.7c3.1-2,0.9,6.3,3.9,9.7s4.7-12,5.7-16s18.3,0,28.3,1.7C92.3,38.7,98,24.4,98,24.4s-1.3,15,1.3,17.7
			c2.7,2.7,5.2,13.5,7.7,13.5c2.5,0,0.6-8.8,2.9-8.4c2.3,0.3,6.7,5,6.7,5s5.3-21.6-2-31.3C112.1,17.3,97.3-1.1,83,0.1
			c-25.2,2-36.3,9-41.3,20.7S39.4,47,39.4,47l1.5,2.8C40.9,49.8,41.3,43.7,44.4,41.7z"/>
		<path class="st8" d="M45,27.8c0,0,2-9.6,8.7-13.3s30.7-7.6,30.7-7.6s6.3,7.1,0,10.5C78,20.7,57.8,24,57.8,24L45,27.8z"/>
	</g>
</g>
</svg>
