<?xml version="1.0" encoding="utf-8"?>
<!-- Generator: Adobe Illustrator 19.1.0, SVG Export Plug-In . SVG Version: 6.00 Build 0)  -->
<svg version="1.1" id="Layer_1" xmlns="http://www.w3.org/2000/svg" xmlns:xlink="http://www.w3.org/1999/xlink" x="0px" y="0px"
	 viewBox="-284 231.2 362 362" style="enable-background:new -284 231.2 362 362;" xml:space="preserve">
<style type="text/css">
	.st0{fill:#9B5CA4;stroke:#74457B;stroke-width:10;stroke-miterlimit:10;}
	.st1{fill:#FFFFFF;}
	.st2{fill:#E3E5EA;}
	.st3{fill:#0EA1DC;}
	.st4{opacity:0.5;fill:none;stroke:#FFFFFF;stroke-width:5;stroke-miterlimit:10;}
	.st5{opacity:0.5;fill:#FFFFFF;}
	.st6{fill:none;stroke:#0EA1DC;stroke-width:5;stroke-miterlimit:10;}
	.st7{fill:#1A8FC5;}
	.st8{fill:none;stroke:#E3E5EA;stroke-width:6;stroke-linecap:round;stroke-miterlimit:10;}
</style>
<circle class="st0" cx="-103" cy="412.2" r="176"/>
<g>
	<g>
		<path class="st1" d="M-180.3,527.7c-5.2,0-9.9-2.7-12.5-7.3c-2.6-4.6-2.6-10,0.1-14.5l50.2-92.5l0.1-0.1c1.3-2,1.9-4.3,1.9-6.6
			v-0.1l3.6-49.4h-0.7c-4.1,0-7.4-3.3-7.4-7.4s3.3-7.4,7.4-7.4h0.1l8.9,0.9c7.1,0.7,14.3,1,21.5,1c7.1,0,14.4-0.4,21.5-1l8.9-0.9
			h0.1c4.1,0,7.4,3.3,7.4,7.4s-3.3,7.4-7.4,7.4h-0.7l3.6,49.4v0.1c0,2.3,0.7,4.6,1.9,6.6l0.1,0.1l50.3,92.6c2.6,4.4,2.6,9.9,0,14.4
			c-2.6,4.6-7.3,7.3-12.5,7.3H-180.3z"/>
		<path class="st2" d="M-76.6,345.4c2.4,0,4.4,2,4.4,4.4s-2,4.4-4.4,4.4h-3.9l3.8,52.6c0,2.9,0.8,5.8,2.4,8.2l50.2,92.5
			c4.5,7.6-1,17.2-9.9,17.2h-146.3c-8.9,0-14.4-9.6-9.9-17.2L-140,415c1.6-2.5,2.4-5.3,2.4-8.2l3.8-52.6h-3.9c-2.4,0-4.4-2-4.4-4.4
			s2-4.4,4.4-4.4l8.8,0.9c7.2,0.7,14.5,1.1,21.8,1.1c7.3,0,14.5-0.4,21.8-1.1L-76.6,345.4 M-76.6,339.4h-0.3l-0.3,0l-8.8,0.9
			c-7,0.7-14.1,1-21.2,1c-7,0-14.2-0.3-21.2-1l-8.8-0.9l-0.3,0h-0.3c-5.7,0-10.4,4.7-10.4,10.4c0,4.9,3.4,9,7.9,10.1l-3.4,46.4
			l0,0.2v0.2c0,1.8-0.5,3.5-1.5,5l-0.1,0.2l-0.1,0.2l-50.2,92.4c-3.2,5.4-3.2,11.9,0,17.4c3.1,5.5,8.8,8.8,15.1,8.8H-34
			c6.3,0,12-3.3,15.1-8.8c3.1-5.5,3.1-12,0-17.4L-69,412.1l-0.1-0.2l-0.1-0.2c-1-1.5-1.5-3.2-1.5-5v-0.2l0-0.2l-3.4-46.4
			c4.5-1.1,7.9-5.2,7.9-10.1C-66.2,344.1-70.9,339.4-76.6,339.4L-76.6,339.4z"/>
	</g>
	<path class="st3" d="M-173.9,513.2h133.5c2.9,0,4.7-3.1,3.4-5.6l-33.4-61.7c-36.7,10.3-51.3-9.7-73.1,0l-33.7,61.7
		C-178.6,510.1-176.8,513.2-173.9,513.2z"/>
	<circle class="st4" cx="-130.1" cy="472" r="7.2"/>
	<circle class="st5" cx="-98.7" cy="469.3" r="2.8"/>
	<circle class="st5" cx="-110" cy="492.7" r="5.8"/>
	<circle class="st4" cx="-78" cy="485.1" r="5.8"/>
	<g>
		<g>
			<path class="st3" d="M-116.2,407.7c1.5,0,2.8,1.2,2.8,2.8s-1.2,2.8-2.8,2.8s-2.8-1.2-2.8-2.8S-117.7,407.7-116.2,407.7
				 M-116.2,402.7c-4.3,0-7.8,3.5-7.8,7.8s3.5,7.8,7.8,7.8s7.8-3.5,7.8-7.8S-111.9,402.7-116.2,402.7L-116.2,402.7z"/>
		</g>
	</g>
	<circle class="st3" cx="-95.4" cy="435.6" r="4"/>
	<circle class="st3" cx="-103.5" cy="383.5" r="6.3"/>
	<circle class="st3" cx="-80.4" cy="307.1" r="2.8"/>
	<circle class="st3" cx="-130.5" cy="292.4" r="6.3"/>
	<circle class="st6" cx="-109.8" cy="322.9" r="5.8"/>
	<path class="st7" d="M-38.6,504.8c-0.5,0.3-1.2,0.5-1.8,0.5h-133.5c-0.7,0-1.3-0.2-1.8-0.5l-1.5,2.8c-1.4,2.5,0.5,5.6,3.4,5.6
		h133.5c2.9,0,4.7-3.1,3.4-5.6L-38.6,504.8z"/>
	<path class="st8" d="M-126.8,357.4c13.4,1.3,26.3,1.3,39.5,0"/>
</g>
</svg>
