<?xml version="1.0" encoding="utf-8"?>
<!-- Generator: Adobe Illustrator 19.1.0, SVG Export Plug-In . SVG Version: 6.00 Build 0)  -->
<svg version="1.1" id="Layer_1" xmlns="http://www.w3.org/2000/svg" xmlns:xlink="http://www.w3.org/1999/xlink" x="0px" y="0px"
	 viewBox="-103 105.1 303.9 303.9" style="enable-background:new -103 105.1 303.9 303.9;" xml:space="preserve">
<style type="text/css">
	.st0{fill:#9B5CA4;stroke:#74457B;stroke-width:10;stroke-miterlimit:10;}
	.st1{fill:#3E4E5A;}
	.st2{fill:#E6EBF0;}
	.st3{fill:#34414B;}
	.st4{opacity:0.1;}
	.st5{fill:#3BBEC0;}
	.st6{opacity:0.2;}
	.st7{fill:#A4CE4E;}
	.st8{fill:#FFFFFF;}
	.st9{fill:#3B5272;}
	.st10{fill:#07516E;}
	.st11{fill:#0EA2DC;}
	.st12{opacity:0.4;}
	.st13{fill:#613D6E;}
	.st14{fill:#CFE9FF;}
	.st15{opacity:0.7;}
	.st16{fill:#A5D0EC;}
	.st17{fill:#EE7A99;}
	.st18{fill:#DE738E;}
	.st19{fill:#F8CE86;}
	.st20{fill:#DCAE6C;}
	.st21{fill:#6B7482;}
	.st22{fill:#525662;}
	.st23{fill:#95C0DE;}
	.st24{fill:#7CABD5;}
	.st25{opacity:5.000000e-02;}
	.st26{opacity:0.3;}
	.st27{fill:#89BAD9;}
	.st28{fill:#90BAD6;}
</style>
<title>vert-transport-future-b</title>
<g>
	<g id="Layer_3">
		<circle class="st0" cx="48.9" cy="257.1" r="146.9"/>
	</g>
</g>
<g>
	<g>
		
			<image style="overflow:visible;opacity:0.3;" width="1338" height="2213" xlink:href="136F8807347ED374.png"  transform="matrix(8.396292e-02 2.981161e-02 -2.981161e-02 8.396292e-02 41.0527 120.2658)">
		</image>
		<g>
			<g>
				<g>
					<g>
						<g>
							<path class="st1" d="M129.2,162.2l-71.3-25.3c-5.5-2-11.6,1-13.6,6.4L-5.6,288.2c-2,5.5,1,11.6,6.4,13.5L69,326.3
								c5.5,2,11.6-1,13.5-6.4l53.2-144.2C137.6,170.3,134.7,164.2,129.2,162.2L129.2,162.2z"/>
						</g>
					</g>
					<g>
						<g>
							<path class="st2" d="M50.4,154.4l73.3,26c1.2,0.4,1.8,1.7,1.4,2.9l-41,115.4c-0.4,1.2-1.7,1.8-2.9,1.4L8.1,273.3
								c-1.2-0.4-1.8-1.7-1.4-2.9l40.7-114.7C47.9,154.6,49.2,154,50.4,154.4z"/>
						</g>
					</g>
				</g>
				<g>
					<g>
						<path class="st3" d="M97.8,161.5c-0.4,1-1.5,1.6-2.6,1.2l-11.3-4c-1-0.4-1.6-1.5-1.2-2.6l0,0c0.4-1,1.5-1.6,2.6-1.2l11.3,4
							C97.6,159.3,98.1,160.5,97.8,161.5L97.8,161.5z"/>
					</g>
				</g>
			</g>
			<g>
				<g>
					<path class="st3" d="M47.5,302.8c-1.5,4.1-5,6.7-9.2,5.2c-4.1-1.5-7.3-6.3-5.8-10.5c1.5-4.1,6.3-6.2,10.5-4.7
						C47.2,294.3,49,298.7,47.5,302.8z"/>
				</g>
			</g>
		</g>
	</g>
	<g>
		<g class="st4">
			<g>
				<polygon points="114.9,205.7 44.5,180.7 50.8,161.1 122.3,187.3 				"/>
			</g>
		</g>
		<g>
			<g>
				<polygon class="st5" points="114.2,204.3 43.8,179.3 50.2,159.7 121.7,185.8 				"/>
			</g>
		</g>
	</g>
	<g class="st6">
		<g>
			<path d="M54.2,178.4l-3.6-7.5c-0.1-0.1,0-0.3,0.1-0.3l7.5-3.5c0.1-0.1,0.3,0,0.3,0.1l1.1,2.3c0.1,0.1,0,0.3-0.1,0.3l-5,2.4l2.4,5
				c0.1,0.1,0,0.3-0.1,0.3l-2.3,1.1c-0.1,0-0.1,0-0.2,0C54.3,178.5,54.2,178.5,54.2,178.4z"/>
		</g>
	</g>
	<g>
		<g class="st4">
			<g>
				<polygon points="96.9,247.7 30.4,224.1 43.4,186.6 110.9,210.5 				"/>
			</g>
		</g>
		<g>
			<g>
				<polygon class="st7" points="96.2,246.2 29.8,222.7 42.7,185.1 110.2,209 				"/>
			</g>
		</g>
	</g>
	<g class="st4">
		<g>
			<polygon points="77.6,287.3 78.5,284.9 79.4,285.2 79.8,284.3 82.2,285.2 80.9,288.5 			"/>
		</g>
		<g>
			<path d="M22.4,267.7l0.9-2.4l3.9,1.4l-0.9,2.4L22.4,267.7z M30.3,270.5l0.9-2.4l3.9,1.4l-0.9,2.4L30.3,270.5z M38.2,273.3
				l0.9-2.4l3.9,1.4l-0.9,2.4L38.2,273.3z M46.1,276.1l0.9-2.4l3.9,1.4l-0.9,2.4L46.1,276.1z M54,278.9l0.9-2.4l3.9,1.4l-0.9,2.4
				L54,278.9z M61.9,281.7l0.9-2.4l3.9,1.4l-0.9,2.4L61.9,281.7z M69.8,284.5l0.9-2.4l3.9,1.4l-0.9,2.4L69.8,284.5z"/>
		</g>
		<g>
			<polygon points="15.2,265.2 16.3,261.8 18.8,262.7 18.5,263.6 19.4,263.9 18.5,266.3 			"/>
		</g>
		<g>
			<path d="M17.7,257.9L19,254l2.5,0.8l-1.3,3.9L17.7,257.9z M20.3,250.1l1.3-3.9l2.5,0.8l-1.3,3.9L20.3,250.1z M23,242.3l1.3-3.9
				l2.5,0.8l-1.3,3.9L23,242.3z"/>
		</g>
		<g>
			<polygon points="25.7,234.5 26.9,231.2 30.2,232.3 29.3,234.8 28.5,234.5 28.2,235.4 			"/>
		</g>
		<g>
			<path d="M33.3,236.2l0.9-2.4l4,1.4l-0.9,2.4L33.3,236.2z M41.4,239.1l0.9-2.4l4,1.4l-0.9,2.4L41.4,239.1z M49.4,241.9l0.9-2.4
				l4,1.4l-0.9,2.4L49.4,241.9z M57.4,244.7l0.9-2.4l4,1.4l-0.9,2.4L57.4,244.7z M65.4,247.6l0.9-2.4l4,1.4l-0.9,2.4L65.4,247.6z
				 M73.4,250.4l0.9-2.4l4,1.4l-0.9,2.4L73.4,250.4z M81.5,253.3l0.9-2.4l4,1.4l-0.9,2.4L81.5,253.3z"/>
		</g>
		<g>
			<polygon points="92.4,258.2 90,257.3 90.3,256.4 89.5,256.1 90.3,253.7 93.7,254.9 			"/>
		</g>
		<g>
			<path d="M83.7,281.3l-2.4-0.9l1.5-3.9l2.4,0.9L83.7,281.3z M86.6,273.6l-2.4-0.9l1.5-3.9l2.4,0.9L86.6,273.6z M89.5,265.9
				l-2.4-0.9l1.5-3.9L91,262L89.5,265.9z"/>
		</g>
	</g>
	<g class="st6">
		<polygon points="89,217.2 43.7,201.1 45.8,193.1 92.2,209.2 		"/>
	</g>
	<g class="st6">
		<polygon points="111.6,197.4 84.7,187.9 87.1,179.9 114.7,189.3 		"/>
	</g>
	<g class="st6">
		<polygon points="73.4,218.7 41.3,207.3 41.9,204.2 74.7,215.7 		"/>
	</g>
	<g>
		<g>
			<g class="st4">
				<path class="st8" d="M50.4,154.4l73.3,26c1.2,0.4,1.8,1.7,1.4,2.9L91.8,277l-54.1-93.7l9.8-27.5C47.9,154.6,49.2,154,50.4,154.4
					z"/>
			</g>
		</g>
	</g>
	<g class="st6">
		<polygon points="78.6,227.9 39.1,213.5 39.8,210.4 79.8,224.5 		"/>
	</g>
	<g class="st6">
		<polygon points="72.6,232.1 36.2,219.2 37.7,216.5 73.6,229.1 		"/>
	</g>
</g>
<g>
	
		<image style="overflow:visible;opacity:0.3;" width="2456" height="1491" xlink:href="136F8807347ED375.png"  transform="matrix(9.087739e-02 0 0 9.087737e-02 -44.9101 234.3423)">
	</image>
	<g>
		<g>
			<g>
				<path class="st9" d="M160.1,333.9l-15-8.7l-38.6,2.2c6.3-9,9.8-20,9.1-31.8c-1.6-27.8-25.4-49.2-53.2-47.6
					c-27.7,1.6-49,25.4-47.4,53.1c0.7,11.9,5.5,22.7,13,30.9L-6,333.8l1.1,18.9l73.1-4.1c1.5-0.1,2.9,0,4.3-0.2l73.7-4.1
					L160.1,333.9z M70.5,329.3l-3.5,0.2c-17.3,1-32.2-12.3-33.2-29.6c-1-17.3,12.3-32.2,29.6-33.2c17.3-1,32.3,12.4,33.2,29.8
					C97.6,312.7,86.1,326.7,70.5,329.3z"/>
			</g>
			<g>
				<path class="st10" d="M147.3,347.4l-74.5,4.2c-0.5,0.1-1,0.1-1.6,0.1c-0.5,0-1,0-1.5,0.1c-0.5,0-0.9,0-1.4,0.1L-8,356.1
					l-1.4-25.3l30.9-1.7c-5.8-8.2-9.2-17.9-9.8-27.9c-1.7-29.5,21-54.9,50.5-56.5c29.5-1.7,54.9,21,56.6,50.6
					c0.6,10-1.6,19.7-6.3,28.4l33.4-1.9l20.1,11.7L147.3,347.4z M-1.9,349.3l69.9-4c0.5,0,1,0,1.5-0.1c0.5,0,0.9,0,1.3-0.1
					c0.4,0,0.8-0.1,1.2-0.1l0.1,0l0.1,0l72.7-4.1l9.3-6.9l-10-5.8l-44.3,2.5l3.8-5.4c6.2-8.8,9.1-19.1,8.5-29.8
					c-1.5-26.1-23.8-46.1-49.8-44.6c-26,1.5-45.9,23.8-44.4,49.7c0.6,10.7,4.9,21,12.1,28.9l4.5,5l-37.4,2.1L-1.9,349.3z
					 M70.8,332.5l-3.6,0.2c-19.1,1.1-35.5-13.6-36.5-32.6c-1.1-19.1,13.6-35.5,32.6-36.5c19.1-1.1,35.5,13.6,36.6,32.8
					c0.5,8.6-2.2,17-7.6,23.7c-5.4,6.6-12.9,11.1-21.3,12.5L70.8,332.5z M63.6,270c-15.5,0.9-27.4,14.2-26.6,29.8
					c0.9,15.5,14.2,27.4,29.8,26.6l3.3-0.2c14.1-2.4,24.2-15,23.4-29.4C92.6,281.1,79.2,269.1,63.6,270z"/>
			</g>
		</g>
		<g>
			<g>
				<path class="st11" d="M68.1,348.6l-73.1,4.1L-6,333.8l33.9-1.9c-7.5-8.2-12.3-19-13-30.9c-1.6-27.7,19.7-51.6,47.4-53.1
					c27.8-1.6,51.6,19.8,53.2,47.6c0.7,11.8-2.8,22.8-9.1,31.8L147,325l1.1,19.1l-75.6,4.3C71,348.6,69.6,348.5,68.1,348.6z
					 M63.4,266.8c-17.3,1-30.6,15.9-29.6,33.2c1,17.3,15.9,30.6,33.2,29.6l3.5-0.2c15.6-2.6,27.1-16.6,26.2-32.8
					C95.7,279.1,80.8,265.8,63.4,266.8z"/>
			</g>
		</g>
		<g class="st12">
			<g>
				
					<rect x="-5" y="340.2" transform="matrix(0.9984 -5.650182e-02 5.650182e-02 0.9984 -19.3021 1.4108)" class="st13" width="40.6" height="3.8"/>
			</g>
		</g>
		<g class="st12">
			<g>
				<path class="st13" d="M147.6,336.5L67.7,341c-23.6,1.3-43.8-16.7-45.1-40.3s16.7-43.8,40.3-45.1c23.7-1.3,44.1,16.7,45.4,40.3
					c0.7,11.8-3.4,23.1-11.5,31.7L94,325c7.4-7.9,11.1-18.1,10.5-28.9c-1.2-21.5-19.8-37.9-41.4-36.7c-21.5,1.2-38,19.7-36.7,41.1
					c1.2,21.5,19.7,38,41.1,36.7l79.9-4.5L147.6,336.5z"/>
			</g>
		</g>
		<g class="st6">
			<g>
				<path d="M83.9,319.3l31.4-1.8c0,0-2.5,6.6-4.4,7.8L64.3,328C80.4,324.3,83.9,319.3,83.9,319.3z"/>
			</g>
		</g>
		<g>
			<g>
				<g>
					<path class="st10" d="M145.9,347l-77.1,4.4c-15.1,0.9-29.2-4-39.7-13.6c-10.4-9.6-16.7-23.1-17.5-38.2l3-0.2
						c0.8,14.3,6.7,27.2,16.5,36.2c9.9,9.1,23.3,13.6,37.5,12.8l77.1-4.4L145.9,347z"/>
				</g>
			</g>
			<g>
				<g>
					<path class="st10" d="M146,325.1l-78.4,4.4c-8.8,0.5-17.2-2.6-23.7-8.8c-6-5.8-9.7-13.7-10.2-21.8l3.4-0.2
						c0.4,7.2,3.7,14.3,9.1,19.5c5.7,5.5,13.2,8.3,21.1,7.8l78.4-4.4L146,325.1z"/>
				</g>
			</g>
		</g>
		<g class="st6">
			<g>
				<path d="M42.4,353.1l26-1.5c-19.4,1.1-36.9-8.1-47.5-22.7l-8.4,0.5C19.1,340.7,29.7,349.2,42.4,353.1z"/>
			</g>
		</g>
		<g>
			<g>
				
					<rect x="-18.8" y="331" transform="matrix(-0.9984 5.650182e-02 -5.650182e-02 -0.9984 -4.2365 687.4097)" class="st14" width="13.9" height="25.3"/>
			</g>
		</g>
		<g class="st15">
			<g>
				
					<rect x="-15.5" y="345.3" transform="matrix(-5.650185e-02 -0.9984 0.9984 -5.650185e-02 -363.6962 360.8441)" class="st16" width="8.3" height="13.9"/>
			</g>
		</g>
		<g class="st12">
			<g>
				
					<rect x="-14.2" y="325.8" transform="matrix(-5.650185e-02 -0.9984 0.9984 -5.650185e-02 -345.3875 339.0573)" class="st8" width="3.5" height="13.9"/>
			</g>
		</g>
		<g>
			<g>
				<path class="st17" d="M-21.6,357l3.6-0.2l-1.4-25.4l-3.6,0.2c-6.2,0.3-10.9,5.6-10.6,11.8l0.2,3
					C-33.1,352.6-27.8,357.3-21.6,357z"/>
			</g>
		</g>
		<g>
			<g>
				<path class="st18" d="M-24.3,348.9c-3.2,0.2-5.9-2.3-6.1-5.4l-0.6-9.7c0-0.4,0-0.7,0-1.1c-1.9,1-3.2,3.1-3,5.4l0.8,13.9
					c0.2,3.2,2.9,5.6,6.1,5.4l9-0.5l-0.5-8.3L-24.3,348.9z"/>
			</g>
		</g>
		<g>
			<g>
				<polygon class="st19" points="147.2,347.4 143.4,341.8 146.6,334.8 142.6,328.1 145.8,321.8 166.5,333.7 				"/>
			</g>
		</g>
		<g>
			<g>
				<polygon class="st20" points="147.2,347.4 143.4,341.8 146.6,334.8 166.5,333.7 				"/>
			</g>
		</g>
		<g>
			<g>
				<polygon class="st21" points="157.1,328.3 157.8,339.9 166.5,333.7 				"/>
			</g>
		</g>
		<g>
			<g>
				<polygon class="st22" points="157.5,334.2 157.8,339.9 166.5,333.7 				"/>
			</g>
		</g>
	</g>
</g>
<g>
	
		<image style="overflow:visible;opacity:0.3;" width="1475" height="1541" xlink:href="136F8807347ED373.png"  transform="matrix(5.251614e-02 -9.581883e-02 9.581887e-02 5.251617e-02 -127.5145 286.6078)">
	</image>
	<g>
		<g>
			<g>
				<g>
					<path class="st16" d="M7.1,278.1L-23.1,261c-0.7-0.4-1.5-0.6-2.3-0.5l-5.7,0.6c-0.7,0.1-22.7-12.6-37.5-21.3
						c-7.6-4.4-10.7-13.9-7.2-21.9v0c0,0,0.9-2.6,2.2-2.1l89.1,46.9L7.1,278.1z"/>
				</g>
			</g>
			<g>
				<path class="st23" d="M-73.6,215.8c-1.3-0.5-2.2,2.1-2.2,2.1c-0.1,0.3-0.3,0.7-0.4,1l89.6,47.3l2.1-3.5L-73.6,215.8z"/>
			</g>
			<g>
				<path class="st24" d="M-73.6,215.8c-0.4-0.2-0.8,0-1.1,0.3c0.1,0,0.3,0,0.4,0.1l89.1,46.9l0.7-0.3L-73.6,215.8z"/>
			</g>
			<g class="st12">
				<path class="st8" d="M14.1,262l-7.8,14.2l-29.4-16.7c-0.7-0.4-1.5-0.5-2.3-0.4l-5.6,0.6c-0.7,0.1-22.2-12.3-36.6-20.7
					c-7.4-4.3-10.4-13.5-7-21.4l0,0c0,0,0.4-1.1,1-1.7c-1.2-0.3-2,2.1-2,2.1c-3.5,8.1-0.4,17.5,7.2,21.9
					c14.8,8.6,36.7,21.4,37.5,21.3l5.7-0.6c0.8-0.1,1.6,0.1,2.3,0.5l30.1,17.1l8.5-15.4L14.1,262z"/>
			</g>
			<g>
				<path class="st9" d="M20,268c6.4-3,14-0.3,17,6.1c3,6.4,0.3,14-6.1,17c-6.4,3-14,0.3-17-6.1C10.9,278.6,13.6,271,20,268
					 M15.8,259.1C4.5,264.4-0.3,277.9,5,289.2c5.3,11.3,18.8,16.1,30.1,10.7c11.3-5.3,16.1-18.8,10.7-30.1
					C40.5,258.5,27,253.7,15.8,259.1L15.8,259.1z"/>
			</g>
			<g>
				<g class="st25">
					<path d="M33.6,292.5c6.4-3,9.1-10.6,6.1-17c-1.4-3-3.8-5.2-6.7-6.3c1.7,1.2,3,2.8,4,4.8c3,6.4,0.3,14-6.1,17
						c-3.4,1.6-7.1,1.6-10.3,0.3C24.2,293.9,29.2,294.6,33.6,292.5z"/>
				</g>
				<g class="st25">
					<path d="M8.7,291c-5.2-11.1-0.6-24.2,10.4-29.4c6.1-2.9,12.8-2.7,18.5-0.1c-6.2-4.2-14.5-5.2-21.8-1.7
						c-11,5.2-15.6,18.4-10.4,29.4c2.3,4.9,6.2,8.6,10.8,10.7C13.1,297.7,10.5,294.7,8.7,291z"/>
				</g>
			</g>
		</g>
		<g class="st26">
			<path class="st24" d="M-23.1,242.3l-3.7,18.4l1.7-0.2l17.7,9.3l2.7-15.8c0.1-0.6,0.4-1.2,0.7-1.7L-23.1,242.3z"/>
		</g>
		<g>
			<g>
				<path class="st14" d="M-12.8,287.8l5.8-34.1c0.1-0.8,0.5-1.5,1.1-2.1l4.1-4c0.5-0.5,4.6-25.6,7.3-42.5c1.4-8.7-4-17-12.4-19.5
					l0,0c0,0-2.6-1-3,0.4l-20.1,98.7L-12.8,287.8z"/>
			</g>
		</g>
		<g>
			<path class="st16" d="M-9.9,185.9c0.4-1.4,3-0.4,3-0.4c0.3,0.1,0.7,0.2,1,0.3L-26,285.2l-4-0.6L-9.9,185.9z"/>
		</g>
		<g>
			<path class="st27" d="M-9.9,185.9c0.1-0.4,0.5-0.6,0.9-0.7c-0.1,0.1-0.2,0.2-0.2,0.4l-20.1,98.7l-0.7,0.3L-9.9,185.9z"/>
		</g>
		<g class="st12">
			<path class="st8" d="M-29.7,283l15.9,2.9l5.7-33.3c0.1-0.8,0.5-1.5,1.1-2l4-3.9c0.5-0.5,4.5-24.9,7.1-41.5
				c1.4-8.5-3.9-16.6-12.2-19l0,0c0,0-1-0.4-1.9-0.3c0.6-1.1,3-0.2,3-0.2C1.6,188,6.9,196.3,5.5,205c-2.7,16.9-6.7,42-7.3,42.5
				l-4.1,4c-0.6,0.6-1,1.3-1.1,2.1l-5.8,34.1l-17.3-3.2L-29.7,283z"/>
		</g>
		<g>
			<path class="st9" d="M-28.8,291.3c6.4-3,14-0.3,17,6.1c3,6.4,0.3,14-6.1,17c-6.4,3-14,0.3-17-6.1
				C-37.9,302-35.2,294.4-28.8,291.3 M-33,282.4c-11.3,5.3-16.1,18.8-10.7,30.1s18.8,16.1,30.1,10.7c11.3-5.3,16.1-18.8,10.7-30.1
				C-8.3,281.9-21.8,277.1-33,282.4L-33,282.4z"/>
		</g>
		<g>
			<g class="st25">
				<path d="M-18.4,317.4c-6.4,3-14,0.3-17-6.1c-1.4-3-1.6-6.2-0.7-9.2c-0.1,2.1,0.3,4.2,1.2,6.1c3,6.4,10.6,9.1,17,6.1
					c3.4-1.6,5.7-4.5,6.7-7.8C-11.4,311.1-14.1,315.3-18.4,317.4z"/>
			</g>
			<g class="st25">
				<path d="M-3.9,297.2c-5.2-11.1-18.4-15.8-29.3-10.6c-6.1,2.9-10.2,8.2-11.8,14.3c0.7-7.5,5.2-14.5,12.4-17.9
					c11-5.2,24.1-0.4,29.3,10.6c2.3,4.9,2.7,10.3,1.4,15.1C-1.5,304.9-2.1,300.9-3.9,297.2z"/>
			</g>
		</g>
		<g>
			<g>
				<g class="st4">
					<g>
						<circle cx="-14" cy="257.1" r="2.5"/>
					</g>
					<g>
						<path d="M-11.7,258.4L-11.7,258.4c-0.3,0.5-0.7,0.9-1.2,1.2c-1.4,0.6-3,0.1-3.6-1.3c-0.4-0.8-0.3-1.7,0.1-2.5
							c0.3-0.5,0.7-0.9,1.2-1.2c1.4-0.6,3-0.1,3.6,1.3C-11.2,256.7-11.2,257.7-11.7,258.4z M-16,256c-0.4,0.6-0.4,1.4-0.1,2.1
							c0.5,1.1,1.9,1.6,3,1.1c0.4-0.2,0.8-0.5,1-1l0,0c0.4-0.6,0.4-1.4,0.1-2.1c-0.5-1.1-1.9-1.6-3-1.1
							C-15.5,255.3-15.8,255.6-16,256z"/>
					</g>
				</g>
				<g>
					<g>
						<circle class="st16" cx="-14.7" cy="257.3" r="2.5"/>
					</g>
					<g>
						<path class="st28" d="M-12.3,258.6L-12.3,258.6c-0.3,0.5-0.7,0.9-1.2,1.2c-1.4,0.6-3,0.1-3.6-1.3c-0.4-0.8-0.3-1.7,0.1-2.5
							c0.3-0.5,0.7-0.9,1.2-1.2c1.4-0.6,3-0.1,3.6,1.3C-11.8,256.9-11.8,257.9-12.3,258.6z M-16.7,256.2c-0.4,0.6-0.4,1.4-0.1,2.1
							c0.5,1.1,1.9,1.6,3,1.1c0.4-0.2,0.8-0.5,1-1l0,0c0.4-0.6,0.4-1.4,0.1-2.1c-0.5-1.1-1.9-1.6-3-1.1
							C-16.1,255.5-16.4,255.8-16.7,256.2z"/>
					</g>
				</g>
			</g>
			<g class="st12">
				<g>
					<path class="st8" d="M-13.2,257.8c-0.5-1-1.7-1.5-2.8-1c-0.3,0.1-0.5,0.3-0.7,0.6c0-0.8,0.4-1.6,1.2-2c1-0.5,2.3,0,2.8,1
						c0.3,0.7,0.2,1.6-0.2,2.2C-13,258.3-13.1,258-13.2,257.8z"/>
				</g>
			</g>
		</g>
	</g>
</g>
</svg>
