<?xml version="1.0" encoding="utf-8"?>
<!-- Generator: Adobe Illustrator 19.1.0, SVG Export Plug-In . SVG Version: 6.00 Build 0)  -->
<svg version="1.1" xmlns="http://www.w3.org/2000/svg" xmlns:xlink="http://www.w3.org/1999/xlink" x="0px" y="0px"
	 viewBox="0 0 800 800" style="enable-background:new 0 0 800 800;" xml:space="preserve">
<style type="text/css">
	.st0{fill:#E6E6E6;}
	.st1{fill:#B3B3B3;}
	.st2{fill:#CCCCCC;}
	.st3{fill:#999999;}
	.st4{fill:#461A00;}
	.st5{fill:#808080;}
	.st6{opacity:0.4;fill:#4D4D4D;}
	.st7{opacity:0.2;}
	.st8{fill:#666666;}
	.st9{opacity:0.3;fill:#FFFFFF;}
	.st10{opacity:0.4;fill:#FFFFFF;}
	.st11{fill:#FAAD40;}
	.st12{fill:#F9E8D8;}
	.st13{fill:#BC842C;}
	.st14{fill:#FBB03B;}
	.st15{opacity:0.4;fill:#542700;}
	.st16{fill:#603813;}
	.st17{font-family:'MetaOT-Bold';}
	.st18{font-size:30px;}
	.st19{fill:#ED4F7E;}
	.st20{fill:#0EA2DC;}
</style>
<g id="Now">
</g>
<g id="future">
	<g>
		<g>
			<path class="st11" d="M85.9,667.1c0,0-2.5,3.8-1.9,4.9s-2.6,25-2.6,25h6.3c0,0,2.5-20.7,3.4-23.2c0.9-2.5,3.4-5.6,3.4-5.6
				L85.9,667.1z"/>
			<path class="st11" d="M150.1,667.1c0,0,2.5,3.8,1.9,4.9c-0.6,1.1,2.6,25,2.6,25h-6.3c0,0-2.5-20.7-3.4-23.2
				c-0.9-2.5-3.4-5.6-3.4-5.6L150.1,667.1z"/>
			<path class="st12" d="M111.3,631.8c0,0-13.6,3.8-16.2,5.8c-2.6,2-12.1,25.6-12.1,28.8c0,3.2,9.3,5,11.3,5.3s4.7-7.6,4.7-7.6
				l0.7,32.9h36.8l-0.5-34.5c0,0,3.3,9.3,4.4,9.2s10.5-2.8,12.3-3.9c1.7-1-7.7-28.6-10.4-30.3c-2.7-1.7-18.5-5.9-21.6-5.7
				S111.3,631.8,111.3,631.8z"/>
			<g>
				<g>
					<g>
						<g>
							<path class="st13" d="M117.1,624.4c0,0,5.4-1.1,5.4,5.1c0,4.8,7.1,8.4-5.4,8.4"/>
						</g>
					</g>
					<g>
						<g>
							<path class="st13" d="M117.1,624.4c0,0-5.4-1.1-5.4,5.1c0,4.8-7.1,8.4,5.4,8.4"/>
						</g>
					</g>
				</g>
			</g>
			<g>
				<path class="st11" d="M116.6,629.2c-18.1,0-15.4-30.3-13.8-36.8c1.5-6,13.8-5.9,13.8-5.9s12.3-0.2,13.8,5.9
					C132,598.9,134.7,629.2,116.6,629.2z"/>
				<circle class="st4" cx="124" cy="601.7" r="1.3"/>
				<path class="st14" d="M134.1,601.9c0,3.8,0.2,6.8-2.5,6.8s-1.1-3.1-1.1-6.8s0.5-6.8,1.1-6.8
					C132.2,595.1,134.1,598.1,134.1,601.9z"/>
				<circle class="st4" cx="109.3" cy="601.7" r="1.3"/>
				<path class="st15" d="M113.3,608.8c0.1,3.1,1.4,6.8,3.4,6.8s3.2-3.6,3.4-6.8c0,0-1.3,2.5-3.4,2.5
					C114.5,611.2,113.3,608.8,113.3,608.8z"/>
				<path class="st14" d="M99.2,601.9c0,3.8-0.2,6.8,2.5,6.8s1.1-3.1,1.1-6.8s-0.5-6.8-1.1-6.8S99.2,598.1,99.2,601.9z"/>
				<path class="st7" d="M103.3,596.4c0,0,4.2-2,7.3-1.4c3.1,0.7,6.8,1.1,9.4,1.4s4-1.5,4-1.5s3.7,5,5.3,5.5c1.6,0.5,0,0,0,0l0-15.1
					l-26.2,6L103.3,596.4z"/>
				<path class="st16" d="M101.5,596c1.4-0.9,0.4,2.9,1.8,4.4c1.4,1.5,2.1-5.4,2.6-7.2c0.5-1.8,8.3,0,12.8,0.8
					c4.5,0.8,7.1-5.7,7.1-5.7s-0.6,6.8,0.6,8c1.2,1.2,2.3,6.1,3.5,6.1c1.1,0,0.3-4,1.3-3.8s3,2.2,3,2.2s2.4-9.8-0.9-14.2
					c-1.2-1.5-7.9-9.8-14.3-9.3c-11.4,0.9-16.4,4.1-18.7,9.3c-2.3,5.3-1,11.9-1,11.9l0.7,1.3C99.9,599.6,100.1,596.9,101.5,596z"/>
				<path class="st9" d="M101.7,589.7c0,0,0.9-4.3,3.9-6s13.9-3.4,13.9-3.4s2.9,3.2,0,4.7s-12,3-12,3L101.7,589.7z"/>
			</g>
		</g>
		<text transform="matrix(1 0 0 1 44.8682 250.9376)" class="st17 st18">Healthcare providers</text>
		<text transform="matrix(1 0 0 1 535.8127 213.7011)" class="st17 st18">Pharmaceuticals</text>
		<text transform="matrix(1 0 0 1 606.0013 741.0057)" class="st17 st18">Institutions</text>
		<text transform="matrix(1 0 0 1 340.6907 282.5862)" class="st17 st18">Patient</text>
		<text transform="matrix(1 0 0 1 70.575 751.9389)" class="st17 st18">Family</text>
		<g>
			<path class="st11" d="M320,498.5c0,0-5.6,8.5-4.3,11C317,512,310,565,310,565h14c0,0,5.5-46,7.5-51.5S339,501,339,501L320,498.5z
				"/>
			<path class="st11" d="M462,498.5c0,0,5.6,8.5,4.3,11C465,512,472,565,472,565h-14c0,0-5.5-46-7.5-51.5S443,501,443,501L462,498.5
				z"/>
			<path class="st12" d="M376.2,420.3c0,0-30.1,8.4-35.8,12.7c-5.7,4.3-26.7,56.7-26.7,63.8s20.6,11.1,25,11.8
				C343,509.3,349,492,349,492l1.5,73H432l-1-76.6c0,0,7.4,20.5,9.7,20.3c2.3-0.3,23.3-6.3,27.3-8.7c3.9-2.2-17-63.3-23-67
				s-41-13-47.9-12.7C390.3,420.7,376.2,420.3,376.2,420.3z"/>
			<g>
				<g>
					<g>
						<g>
							<path class="st13" d="M389,404c0,0,12-2.4,12,11.3c0,10.7,15.7,18.7-12,18.7"/>
						</g>
					</g>
					<g>
						<g>
							<path class="st13" d="M389,404c0,0-12-2.4-12,11.3c0,10.7-15.7,18.7,12,18.7"/>
						</g>
					</g>
				</g>
			</g>
			<g>
				<path class="st11" d="M388,414.5c-40,0-34-67-30.5-81.5c3.2-13.3,30.5-13,30.5-13s27.3-0.3,30.5,13
					C422,347.5,428,414.5,388,414.5z"/>
				<circle class="st4" cx="404.2" cy="353.8" r="2.9"/>
				<path class="st14" d="M426.6,354.2c0,8.4,0.5,15.2-5.5,15.2s-2.4-6.8-2.4-15.2c0-8.4,1.1-15.2,2.4-15.2S426.6,345.8,426.6,354.2
					z"/>
				<circle class="st4" cx="371.8" cy="353.8" r="2.9"/>
				<path class="st15" d="M380.5,369.3c0.3,7,3.2,15,7.5,15s7.2-8,7.5-15c0,0-2.8,5.5-7.5,5.5S380.5,369.3,380.5,369.3z"/>
				<path class="st14" d="M349.4,354.2c0,8.4-0.5,15.2,5.5,15.2s2.4-6.8,2.4-15.2c0-8.4-1.1-15.2-2.4-15.2S349.4,345.8,349.4,354.2z
					"/>
				<path class="st7" d="M358.5,342c0,0,9.2-4.5,16.1-3c6.9,1.5,15,2.5,20.9,3s8.8-3.3,8.8-3.3s8.3,11.1,11.8,12.2s0,0,0,0l0-33.5
					l-58,13.3L358.5,342z"/>
				<path class="st16" d="M354.4,341c3.1-2,0.9,6.3,3.9,9.7c3,3.3,4.7-12,5.7-16s18.3,0,28.3,1.7c10,1.7,15.7-12.7,15.7-12.7
					s-1.3,15,1.3,17.7c2.7,2.7,5.2,13.5,7.7,13.5s0.6-8.8,2.9-8.4c2.3,0.3,6.7,5,6.7,5s5.3-21.6-2-31.3
					c-2.6-3.4-17.4-21.8-31.7-20.7c-25.2,2-36.3,9-41.3,20.7s-2.2,26.3-2.2,26.3l1.5,2.8C350.9,349.1,351.3,343,354.4,341z"/>
				<path class="st9" d="M355,327.1c0,0,2-9.6,8.7-13.3c6.7-3.7,30.7-7.6,30.7-7.6s6.3,7.1,0,10.5c-6.3,3.4-26.5,6.7-26.5,6.7
					L355,327.1z"/>
			</g>
		</g>
		<g>
			<path class="st11" d="M40.9,681.1c0,0-2.5,3.8-1.9,4.9c0.6,1.1-2.6,25-2.6,25h6.3c0,0,2.5-20.7,3.4-23.2c0.9-2.5,3.4-5.6,3.4-5.6
				L40.9,681.1z"/>
			<path class="st11" d="M105.1,681.1c0,0,2.5,3.8,1.9,4.9s2.6,25,2.6,25h-6.3c0,0-2.5-20.7-3.4-23.2c-0.9-2.5-3.4-5.6-3.4-5.6
				L105.1,681.1z"/>
			<path class="st12" d="M66.3,645.8c0,0-13.6,3.8-16.2,5.8c-2.6,2-12.1,25.6-12.1,28.8c0,3.2,9.3,5,11.3,5.3
				c1.9,0.3,4.7-7.6,4.7-7.6l0.7,32.9h36.8l-0.5-34.5c0,0,3.3,9.3,4.4,9.2c1-0.1,10.5-2.8,12.3-3.9c1.7-1-7.7-28.6-10.4-30.3
				s-18.5-5.9-21.6-5.7S66.3,645.8,66.3,645.8z"/>
			<g>
				<g>
					<g>
						<g>
							<path class="st13" d="M72.1,638.4c0,0,5.4-1.1,5.4,5.1c0,4.8,7.1,8.4-5.4,8.4"/>
						</g>
					</g>
					<g>
						<g>
							<path class="st13" d="M72.1,638.4c0,0-5.4-1.1-5.4,5.1c0,4.8-7.1,8.4,5.4,8.4"/>
						</g>
					</g>
				</g>
			</g>
			<g>
				<path class="st11" d="M71.6,643.2c-18.1,0-15.4-30.3-13.8-36.8c1.5-6,13.8-5.9,13.8-5.9s12.3-0.2,13.8,5.9
					C87,612.9,89.7,643.2,71.6,643.2z"/>
				<circle class="st4" cx="79" cy="615.7" r="1.3"/>
				<path class="st14" d="M89.1,615.9c0,3.8,0.2,6.8-2.5,6.8s-1.1-3.1-1.1-6.8s0.5-6.8,1.1-6.8S89.1,612.1,89.1,615.9z"/>
				<circle class="st4" cx="64.3" cy="615.7" r="1.3"/>
				<path class="st15" d="M68.3,622.8c0.1,3.1,1.4,6.8,3.4,6.8s3.2-3.6,3.4-6.8c0,0-1.3,2.5-3.4,2.5
					C69.5,625.2,68.3,622.8,68.3,622.8z"/>
				<path class="st14" d="M54.2,615.9c0,3.8-0.2,6.8,2.5,6.8s1.1-3.1,1.1-6.8s-0.5-6.8-1.1-6.8C56.1,609.1,54.2,612.1,54.2,615.9z"
					/>
				<path class="st7" d="M58.3,610.4c0,0,4.2-2,7.3-1.4c3.1,0.7,6.8,1.1,9.4,1.4s4-1.5,4-1.5s3.7,5,5.3,5.5c1.6,0.5,0,0,0,0l0-15.1
					l-26.2,6L58.3,610.4z"/>
				<path class="st16" d="M56.5,610c1.4-0.9,0.4,2.9,1.8,4.4c1.4,1.5,2.1-5.4,2.6-7.2s8.3,0,12.8,0.8c4.5,0.8,7.1-5.7,7.1-5.7
					s-0.6,6.8,0.6,8c1.2,1.2,2.3,6.1,3.5,6.1c1.1,0,0.3-4,1.3-3.8c1.1,0.2,3,2.2,3,2.2s2.4-9.8-0.9-14.2c-1.2-1.5-7.9-9.8-14.3-9.3
					c-11.4,0.9-16.4,4.1-18.7,9.3c-2.3,5.3-1,11.9-1,11.9l0.7,1.3C54.9,613.6,55.1,610.9,56.5,610z"/>
				<path class="st9" d="M56.7,603.7c0,0,0.9-4.3,3.9-6s13.9-3.4,13.9-3.4s2.9,3.2,0,4.7s-12,3-12,3L56.7,603.7z"/>
			</g>
		</g>
		<g>
			<path class="st11" d="M121.9,681.1c0,0-2.5,3.8-1.9,4.9s-2.6,25-2.6,25h6.3c0,0,2.5-20.7,3.4-23.2c0.9-2.5,3.4-5.6,3.4-5.6
				L121.9,681.1z"/>
			<path class="st11" d="M186.1,681.1c0,0,2.5,3.8,1.9,4.9c-0.6,1.1,2.6,25,2.6,25h-6.3c0,0-2.5-20.7-3.4-23.2
				c-0.9-2.5-3.4-5.6-3.4-5.6L186.1,681.1z"/>
			<path class="st12" d="M147.3,645.8c0,0-13.6,3.8-16.2,5.8c-2.6,2-12.1,25.6-12.1,28.8c0,3.2,9.3,5,11.3,5.3s4.7-7.6,4.7-7.6
				l0.7,32.9h36.8l-0.5-34.5c0,0,3.3,9.3,4.4,9.2s10.5-2.8,12.3-3.9c1.7-1-7.7-28.6-10.4-30.3c-2.7-1.7-18.5-5.9-21.6-5.7
				S147.3,645.8,147.3,645.8z"/>
			<g>
				<g>
					<g>
						<g>
							<path class="st13" d="M153.1,638.4c0,0,5.4-1.1,5.4,5.1c0,4.8,7.1,8.4-5.4,8.4"/>
						</g>
					</g>
					<g>
						<g>
							<path class="st13" d="M153.1,638.4c0,0-5.4-1.1-5.4,5.1c0,4.8-7.1,8.4,5.4,8.4"/>
						</g>
					</g>
				</g>
			</g>
			<g>
				<path class="st11" d="M152.6,643.2c-18.1,0-15.4-30.3-13.8-36.8c1.5-6,13.8-5.9,13.8-5.9s12.3-0.2,13.8,5.9
					C168,612.9,170.7,643.2,152.6,643.2z"/>
				<circle class="st4" cx="160" cy="615.7" r="1.3"/>
				<path class="st14" d="M170.1,615.9c0,3.8,0.2,6.8-2.5,6.8s-1.1-3.1-1.1-6.8s0.5-6.8,1.1-6.8
					C168.2,609.1,170.1,612.1,170.1,615.9z"/>
				<circle class="st4" cx="145.3" cy="615.7" r="1.3"/>
				<path class="st15" d="M149.3,622.8c0.1,3.1,1.4,6.8,3.4,6.8s3.2-3.6,3.4-6.8c0,0-1.3,2.5-3.4,2.5
					C150.5,625.2,149.3,622.8,149.3,622.8z"/>
				<path class="st14" d="M135.2,615.9c0,3.8-0.2,6.8,2.5,6.8s1.1-3.1,1.1-6.8s-0.5-6.8-1.1-6.8S135.2,612.1,135.2,615.9z"/>
				<path class="st7" d="M139.3,610.4c0,0,4.2-2,7.3-1.4s6.8,1.1,9.4,1.4s4-1.5,4-1.5s3.7,5,5.3,5.5s0,0,0,0l0-15.1l-26.2,6
					L139.3,610.4z"/>
				<path class="st16" d="M137.5,610c1.4-0.9,0.4,2.9,1.8,4.4c1.4,1.5,2.1-5.4,2.6-7.2s8.3,0,12.8,0.8c4.5,0.8,7.1-5.7,7.1-5.7
					s-0.6,6.8,0.6,8c1.2,1.2,2.3,6.1,3.5,6.1c1.1,0,0.3-4,1.3-3.8s3,2.2,3,2.2s2.4-9.8-0.9-14.2c-1.2-1.5-7.9-9.8-14.3-9.3
					c-11.4,0.9-16.4,4.1-18.7,9.3c-2.3,5.3-1,11.9-1,11.9l0.7,1.3C135.9,613.6,136.1,610.9,137.5,610z"/>
				<path class="st9" d="M137.7,603.7c0,0,0.9-4.3,3.9-6c3-1.7,13.9-3.4,13.9-3.4s2.9,3.2,0,4.7s-12,3-12,3L137.7,603.7z"/>
			</g>
		</g>
		<g>
			<path class="st19" d="M643.4,166l-70.2-0.1c-16.2,0-29.3-13.2-29.3-29.5s13.3-29.5,29.5-29.5H643L643.4,166z"/>
			<path class="st20" d="M639.9,166l70.2-0.1c16.2,0,29.3-13.2,29.3-29.5S726.1,107,709.9,107h-69.6L639.9,166z"/>
			<path class="st10" d="M557.1,145.8c0.9-12.4,11.5-21.8,23.9-21.8h116c6.6,0,12-5.4,11.9-12v0H574.7c-13.4,0-24.7,10.7-24.7,24.1
				c0,7.3,3.1,13.6,8,17.9C557.2,151.4,556.9,148.7,557.1,145.8z"/>
			<path class="st7" d="M731.2,127c-1,14.3-13.3,25.1-27.7,25.1l-118.5,0c-7.6,0-13.8,6.2-13.8,13.9l-15.5,0l155.1,0
				c15.5,0,28.5-12.4,28.6-27.9c0-8.5-3.6-15.7-9.3-20.7C731,120.4,731.4,123.7,731.2,127z"/>
		</g>
		<rect x="618.2" y="593.2" class="st19" width="96" height="79.8"/>
		<rect x="95" y="103.2" class="st19" width="96" height="79.8"/>
	</g>
</g>
</svg>
