<?xml version="1.0" encoding="utf-8"?>
<!-- Generator: Adobe Illustrator 19.1.0, SVG Export Plug-In . SVG Version: 6.00 Build 0)  -->
<svg version="1.1" id="Layer_1" xmlns="http://www.w3.org/2000/svg" xmlns:xlink="http://www.w3.org/1999/xlink" x="0px" y="0px"
	 viewBox="120 81 800 800" style="enable-background:new 120 81 800 800;" xml:space="preserve">
<style type="text/css">
	.st0{fill:url(#SVGID_1_);}
	.st1{fill:#37BEC0;stroke:#87D8D9;stroke-width:12;stroke-miterlimit:10;}
	.st2{fill:none;stroke:#37BEC0;stroke-width:9;stroke-linecap:round;stroke-linejoin:round;stroke-miterlimit:10;}
	.st3{fill:none;stroke:#FFFFFF;stroke-width:20;stroke-linecap:round;stroke-linejoin:round;stroke-miterlimit:10;}
	.st4{fill:#87D8D9;stroke:#37BEC0;stroke-width:12;stroke-miterlimit:10;}
	.st5{fill:#FAAD40;}
	.st6{fill:#F9E8D8;}
	.st7{fill:#BC842C;}
	.st8{fill:#461A00;}
	.st9{fill:#FBB03B;}
	.st10{opacity:0.4;fill:#542700;enable-background:new    ;}
	.st11{opacity:0.2;enable-background:new    ;}
	.st12{fill:#603813;}
	.st13{opacity:0.3;fill:#FFFFFF;enable-background:new    ;}
	.st14{fill:#ED4F7E;}
	.st15{fill:#0EA2DC;}
	.st16{opacity:0.4;fill:#FFFFFF;enable-background:new    ;}
	.st17{fill:#BBAEA2;}
	.st18{fill:#FFFFFF;}
	.st19{opacity:0.2;fill:#FFFFFF;enable-background:new    ;}
	.st20{fill:#FFFFFF;stroke:#37BEC0;stroke-width:9;stroke-miterlimit:10;}
	.st21{font-family:'MuseoSans-700Italic';}
	.st22{font-size:30px;}
</style>
<g id="Now">
</g>
<radialGradient id="SVGID_1_" cx="516.6" cy="489.4" r="308.9" gradientTransform="matrix(1 0 0 -1 0 964)" gradientUnits="userSpaceOnUse">
	<stop  offset="0.4663" style="stop-color:#37BEC0"/>
	<stop  offset="1" style="stop-color:#FFFFFF;stop-opacity:0"/>
</radialGradient>
<circle class="st0" cx="516.6" cy="474.6" r="308.9"/>
<circle class="st1" cx="516.6" cy="474.6" r="175.7"/>
<g>
	<path class="st2" d="M694.1,773.3h-165c-10.2,0-18.5-8.3-18.5-18.5l0,0c0-10.2-8.3-18.5-18.5-18.5h-134"/>
	<polyline class="st2" points="381.2,721 353.8,736.3 381.2,751.6 	"/>
	<polyline class="st2" points="645.8,721 673.1,736.3 645.8,751.6 	"/>
</g>
<g>
	<g>
		<path class="st3" d="M332.8,773.3h165c10.2,0,18.5-8.3,18.5-18.5l0,0c0-10.2,8.3-18.5,18.5-18.5h134"/>
		<path class="st2" d="M332.8,773.3h165c10.2,0,18.5-8.3,18.5-18.5l0,0c0-10.2,8.3-18.5,18.5-18.5h134"/>
	</g>
	<polyline class="st2" points="645.8,721 673.1,736.3 645.8,751.6 	"/>
</g>
<g>
	<path class="st2" d="M694.1,179.4h-165c-10.2,0-18.5,8.3-18.5,18.5l0,0c0,10.2-8.3,18.5-18.5,18.5h-134"/>
	<polyline class="st2" points="381.2,231.7 353.8,216.4 381.2,201 	"/>
	<polyline class="st2" points="645.8,231.7 673.1,216.4 645.8,201 	"/>
</g>
<g>
	<g>
		<path class="st3" d="M332.8,179.4h165c10.2,0,18.5,8.3,18.5,18.5l0,0c0,10.2,8.3,18.5,18.5,18.5h134"/>
		<path class="st2" d="M332.8,179.4h165c10.2,0,18.5,8.3,18.5,18.5l0,0c0,10.2,8.3,18.5,18.5,18.5h134"/>
	</g>
	<polyline class="st2" points="645.8,231.7 673.1,216.4 645.8,201 	"/>
</g>
<g>
	<path class="st2" d="M216.5,295.7v165c0,10.2,8.3,18.5,18.5,18.5l0,0c10.2,0,18.5,8.3,18.5,18.5v134"/>
	<polyline class="st2" points="268.8,608.7 253.5,636 238.2,608.7 	"/>
	<polyline class="st2" points="268.8,344 253.5,316.7 238.2,344 	"/>
</g>
<g>
	<g>
		<path class="st3" d="M216.5,657V492c0-10.2,8.3-18.5,18.5-18.5l0,0c10.2,0,18.5-8.3,18.5-18.5V321"/>
		<path class="st2" d="M216.5,657V492c0-10.2,8.3-18.5,18.5-18.5l0,0c10.2,0,18.5-8.3,18.5-18.5V321"/>
	</g>
	<polyline class="st2" points="268.8,344 253.5,316.7 238.2,344 	"/>
</g>
<g>
	<path class="st2" d="M810.5,295.7v165c0,10.2-8.3,18.5-18.5,18.5l0,0c-10.2,0-18.5,8.3-18.5,18.5v134"/>
	<polyline class="st2" points="758.2,608.7 773.5,636 788.8,608.7 	"/>
	<polyline class="st2" points="758.2,344 773.5,316.7 788.8,344 	"/>
</g>
<g>
	<g>
		<path class="st3" d="M810.5,657V492c0-10.2-8.3-18.5-18.5-18.5l0,0c-10.2,0-18.5-8.3-18.5-18.5V321"/>
		<path class="st2" d="M810.5,657V492c0-10.2-8.3-18.5-18.5-18.5l0,0c-10.2,0-18.5-8.3-18.5-18.5V321"/>
	</g>
	<polyline class="st2" points="758.2,344 773.5,316.7 788.8,344 	"/>
</g>
<circle class="st4" cx="245.3" cy="753.7" r="96.6"/>
<circle class="st4" cx="245.3" cy="195.7" r="96.6"/>
<g>
	<path class="st5" d="M222.3,762.4c0,0-2.1,3.4-1.6,4.4s-2.1,21.2-2.1,21.2h5.3c0,0,2.1-17.6,2.8-19.7c0.8-2.1,2.8-4.8,2.8-4.8
		L222.3,762.4z"/>
	<path class="st5" d="M276.2,762.4c0,0,2.1,3.4,1.6,4.4S280,788,280,788h-5.3c0,0-2.1-17.6-2.8-19.7c-0.8-2.1-2.8-4.8-2.8-4.8
		L276.2,762.4z"/>
	<path class="st6" d="M243.7,732.8c0,0-11.4,3.2-13.6,4.8c-2.2,1.6-10.1,21.5-10.1,24.2s7.8,4.2,9.5,4.5c1.6,0.2,3.9-6.2,3.9-6.2
		L234,788h30.9l-0.4-29.2c0,0,2.8,7.7,3.7,7.6c0.9-0.1,8.8-2.4,10.4-3.3c1.5-0.9-6.4-24-8.7-25.4s-15.6-4.9-18.1-4.8
		C249,732.9,243.7,732.8,243.7,732.8z"/>
	<g>
		<g>
			<g>
				<g>
					<path class="st7" d="M248.5,726.6c0,0,4.6-0.9,4.6,4.3c0,4,6,7.1-4.6,7.1"/>
				</g>
			</g>
			<g>
				<g>
					<path class="st7" d="M248.5,726.6c0,0-4.6-0.9-4.6,4.3c0,4-6,7.1,4.6,7.1"/>
				</g>
			</g>
		</g>
	</g>
	<g>
		<path class="st5" d="M248.1,730.6c-15.2,0-12.9-25.4-11.6-30.9c1.2-5.1,11.6-4.9,11.6-4.9s10.3-0.1,11.6,4.9
			C261,705.2,263.3,730.6,248.1,730.6z"/>
		<circle class="st8" cx="254.3" cy="707.5" r="1.1"/>
		<path class="st9" d="M262.8,707.7c0,3.2,0.2,5.8-2.1,5.8c-2.3,0-0.9-2.6-0.9-5.8s0.4-5.8,0.9-5.8S262.8,704.5,262.8,707.7z"/>
		<circle class="st8" cx="242" cy="707.5" r="1.1"/>
		<path class="st10" d="M245.3,713.4c0.1,2.6,1.2,5.7,2.8,5.7s2.7-3,2.8-5.7c0,0-1.1,2.1-2.8,2.1
			C246.4,715.5,245.3,713.4,245.3,713.4z"/>
		<path class="st9" d="M233.5,707.7c0,3.2-0.2,5.8,2.1,5.8c2.3,0,0.9-2.6,0.9-5.8s-0.4-5.8-0.9-5.8S233.5,704.5,233.5,707.7z"/>
		<path class="st11" d="M236.9,703.1c0,0,3.5-1.7,6.1-1.1s5.7,0.9,7.9,1.1s3.3-1.3,3.3-1.3s3.1,4.2,4.5,4.6c1.3,0.4,0,0,0,0v-12.7
			l-22,5.1L236.9,703.1z"/>
		<path class="st12" d="M235.4,702.7c1.2-0.8,0.4,2.4,1.5,3.7c1.1,1.3,1.8-4.6,2.1-6.1c0.4-1.5,7,0,10.7,0.6
			c3.8,0.6,5.9-4.8,5.9-4.8s-0.5,5.7,0.5,6.7c1,1,2,5.1,2.9,5.1c0.9,0,0.2-3.3,1.1-3.2c0.9,0.1,2.6,1.9,2.6,1.9s2-8.2-0.8-11.9
			c-1-1.3-6.6-8.3-12-7.8c-9.6,0.8-13.8,3.4-15.7,7.8c-1.9,4.4-0.8,10-0.8,10l0.6,1.1C234.1,705.8,234.2,703.5,235.4,702.7z"/>
		<path class="st13" d="M235.6,697.4c0,0,0.8-3.6,3.3-5.1c2.5-1.4,11.6-2.9,11.6-2.9s2.4,2.7,0,4s-10.1,2.5-10.1,2.5L235.6,697.4z"
			/>
	</g>
</g>
<g>
	<path class="st5" d="M447,541.5c0,0-5.6,8.5-4.3,11C444,555,437,608,437,608h14c0,0,5.5-46,7.5-51.5S466,544,466,544L447,541.5z"/>
	<path class="st5" d="M589,541.5c0,0,5.6,8.5,4.3,11S599,608,599,608h-14c0,0-5.5-46-7.5-51.5S570,544,570,544L589,541.5z"/>
	<path class="st6" d="M503.2,463.3c0,0-30.1,8.4-35.8,12.7c-5.7,4.3-26.7,56.7-26.7,63.8s20.6,11.1,25,11.8
		C470,552.3,476,535,476,535l1.5,73H559l-1-76.6c0,0,7.4,20.5,9.7,20.3c2.3-0.3,23.3-6.3,27.3-8.7c3.9-2.2-17-63.3-23-67
		s-41-13-47.9-12.7C517.3,463.7,503.2,463.3,503.2,463.3z"/>
	<g>
		<g>
			<g>
				<g>
					<path class="st7" d="M516,447c0,0,12-2.4,12,11.3c0,10.7,15.7,18.7-12,18.7"/>
				</g>
			</g>
			<g>
				<g>
					<path class="st7" d="M516,447c0,0-12-2.4-12,11.3c0,10.7-15.7,18.7,12,18.7"/>
				</g>
			</g>
		</g>
	</g>
	<g>
		<path class="st5" d="M515,457.5c-40,0-34-67-30.5-81.5c3.2-13.3,30.5-13,30.5-13s27.3-0.3,30.5,13C549,390.5,555,457.5,515,457.5z
			"/>
		<circle class="st8" cx="531.2" cy="396.8" r="2.9"/>
		<path class="st9" d="M553.6,397.2c0,8.4,0.5,15.2-5.5,15.2s-2.4-6.8-2.4-15.2c0-8.4,1.1-15.2,2.4-15.2
			C549.4,382,553.6,388.8,553.6,397.2z"/>
		<circle class="st8" cx="498.8" cy="396.8" r="2.9"/>
		<path class="st10" d="M507.5,412.3c0.3,7,3.2,15,7.5,15s7.2-8,7.5-15c0,0-2.8,5.5-7.5,5.5S507.5,412.3,507.5,412.3z"/>
		<path class="st9" d="M476.4,397.2c0,8.4-0.5,15.2,5.5,15.2s2.4-6.8,2.4-15.2c0-8.4-1.1-15.2-2.4-15.2S476.4,388.8,476.4,397.2z"/>
		<path class="st11" d="M485.5,385c0,0,9.2-4.5,16.1-3s15,2.5,20.9,3s8.8-3.3,8.8-3.3s8.3,11.1,11.8,12.2s0,0,0,0v-33.5l-58,13.3
			L485.5,385z"/>
		<path class="st12" d="M481.4,384c3.1-2,0.9,6.3,3.9,9.7c3,3.3,4.7-12,5.7-16s18.3,0,28.3,1.7s15.7-12.7,15.7-12.7
			s-1.3,15,1.3,17.7c2.7,2.7,5.2,13.5,7.7,13.5s0.6-8.8,2.9-8.4c2.3,0.3,6.7,5,6.7,5s5.3-21.6-2-31.3c-2.6-3.4-17.4-21.8-31.7-20.7
			c-25.2,2-36.3,9-41.3,20.7s-2.2,26.3-2.2,26.3l1.5,2.8C477.9,392.1,478.3,386,481.4,384z"/>
		<path class="st13" d="M482,370.1c0,0,2-9.6,8.7-13.3c6.7-3.7,30.7-7.6,30.7-7.6s6.3,7.1,0,10.5s-26.5,6.7-26.5,6.7L482,370.1z"/>
	</g>
</g>
<g>
	<path class="st5" d="M184.6,774.2c0,0-2.1,3-1.6,4c0.5,0.9-2.2,20.9-2.2,20.9h5.3c0,0,2.1-17.2,2.8-19.3c0.8-2.1,2.8-4.6,2.8-4.6
		L184.6,774.2z"/>
	<path class="st5" d="M238.4,774.2c0,0,2.1,3,1.6,4c-0.5,0.9,2.2,20.9,2.2,20.9h-5.3c0,0-2.1-17.2-2.8-19.3
		c-0.8-2.1-2.8-4.6-2.8-4.6L238.4,774.2z"/>
	<path class="st6" d="M205.9,744.5c0,0-11.4,3.2-13.6,4.8s-10.1,21.5-10.1,24.2s7.8,4.2,9.5,4.5c1.7,0.3,3.9-6.5,3.9-6.5l0.6,27.5
		h30.9l-0.4-28.9c0,0,2.8,7.9,3.7,7.8c0.9-0.1,8.8-2.3,10.4-3.2c1.5-0.9-6.4-24-8.7-25.4c-2.3-1.4-15.6-4.9-18.1-4.8
		C211.2,744.6,205.9,744.5,205.9,744.5z"/>
	<g>
		<g>
			<g>
				<g>
					<path class="st7" d="M210.7,738.3c0,0,4.6-0.9,4.6,4.3c0,4,6,7.1-4.6,7.1"/>
				</g>
			</g>
			<g>
				<g>
					<path class="st7" d="M210.7,738.3c0,0-4.6-0.9-4.6,4.3c0,4-6,7.1,4.6,7.1"/>
				</g>
			</g>
		</g>
	</g>
	<g>
		<path class="st5" d="M210.4,742.3c-15.2,0-12.9-25.4-11.6-30.9c1.2-5.1,11.6-4.9,11.6-4.9s10.3-0.1,11.6,4.9
			C223.3,716.9,225.5,742.3,210.4,742.3z"/>
		<circle class="st8" cx="216.5" cy="719.3" r="1.1"/>
		<path class="st9" d="M225,719.4c0,3.2,0.2,5.8-2.1,5.8c-2.3,0-0.9-2.6-0.9-5.8s0.4-5.8,0.9-5.8C223.4,713.7,225,716.3,225,719.4z"
			/>
		<circle class="st8" cx="204.2" cy="719.3" r="1.1"/>
		<path class="st10" d="M207.5,725.2c0.1,2.6,1.2,5.7,2.8,5.7c1.6,0,2.7-3,2.8-5.7c0,0-1.1,2.1-2.8,2.1S207.5,725.2,207.5,725.2z"/>
		<path class="st9" d="M195.7,719.4c0,3.2-0.2,5.8,2.1,5.8c2.3,0,0.9-2.6,0.9-5.8s-0.4-5.8-0.9-5.8S195.7,716.3,195.7,719.4z"/>
		<path class="st11" d="M199.2,714.8c0,0,3.5-1.7,6.1-1.1c2.6,0.6,5.7,0.9,7.9,1.1s3.3-1.3,3.3-1.3s3.1,4.2,4.5,4.6c1.3,0.4,0,0,0,0
			v-12.7l-22,5.1L199.2,714.8z"/>
		<path class="st12" d="M197.6,714.4c1.2-0.8,0.4,2.4,1.5,3.7c1.1,1.3,1.8-4.6,2.1-6.1c0.4-1.5,7,0,10.7,0.6
			c3.8,0.6,5.9-4.8,5.9-4.8s-0.5,5.7,0.5,6.7s2,5.1,2.9,5.1s0.2-3.3,1.1-3.2c0.9,0.1,2.6,1.9,2.6,1.9s2-8.2-0.8-11.9
			c-1-1.3-6.6-8.3-12-7.8c-9.6,0.8-13.8,3.4-15.7,7.8c-1.9,4.4-0.8,10-0.8,10l0.6,1.1C196.3,717.5,196.4,715.2,197.6,714.4z"/>
		<path class="st13" d="M197.8,709.1c0,0,0.8-3.6,3.3-5.1c2.5-1.4,11.6-2.9,11.6-2.9s2.4,2.7,0,4c-2.4,1.3-10.1,2.5-10.1,2.5
			L197.8,709.1z"/>
	</g>
</g>
<g>
	<path class="st5" d="M252.6,774.2c0,0-2.1,3-1.6,4c0.5,0.9-2.2,20.9-2.2,20.9h5.3c0,0,2.1-17.2,2.8-19.3c0.8-2.1,2.8-4.6,2.8-4.6
		L252.6,774.2z"/>
	<path class="st5" d="M306.4,774.2c0,0,2.1,3,1.6,4c-0.5,0.9,2.2,20.9,2.2,20.9h-5.3c0,0-2.1-17.2-2.8-19.3
		c-0.8-2.1-2.8-4.6-2.8-4.6L306.4,774.2z"/>
	<path class="st6" d="M273.9,744.5c0,0-11.4,3.2-13.6,4.8s-10.1,21.5-10.1,24.2s7.8,4.2,9.5,4.5c1.6,0.2,3.9-6.5,3.9-6.5l0.6,27.5
		H295l-0.4-28.9c0,0,2.8,7.9,3.7,7.8c0.9-0.1,8.8-2.3,10.4-3.2c1.5-0.9-6.4-24-8.7-25.4s-15.6-4.9-18.1-4.8
		C279.2,744.6,273.9,744.5,273.9,744.5z"/>
	<g>
		<g>
			<g>
				<g>
					<path class="st7" d="M278.7,738.3c0,0,4.6-0.9,4.6,4.3c0,4,6,7.1-4.6,7.1"/>
				</g>
			</g>
			<g>
				<g>
					<path class="st7" d="M278.7,738.3c0,0-4.6-0.9-4.6,4.3c0,4-6,7.1,4.6,7.1"/>
				</g>
			</g>
		</g>
	</g>
	<g>
		<path class="st5" d="M278.4,742.3c-15.2,0-12.9-25.4-11.6-30.9c1.2-5.1,11.6-4.9,11.6-4.9s10.3-0.1,11.6,4.9
			C291.3,716.9,293.5,742.3,278.4,742.3z"/>
		<circle class="st8" cx="284.5" cy="719.3" r="1.1"/>
		<path class="st9" d="M293,719.4c0,3.2,0.2,5.8-2.1,5.8s-0.9-2.6-0.9-5.8s0.4-5.8,0.9-5.8S293,716.3,293,719.4z"/>
		<circle class="st8" cx="272.2" cy="719.3" r="1.1"/>
		<path class="st10" d="M275.5,725.2c0.1,2.6,1.2,5.7,2.8,5.7c1.6,0,2.7-3,2.8-5.7c0,0-1.1,2.1-2.8,2.1
			C276.6,727.3,275.5,725.2,275.5,725.2z"/>
		<path class="st9" d="M263.7,719.4c0,3.2-0.2,5.8,2.1,5.8c2.3,0,0.9-2.6,0.9-5.8s-0.4-5.8-0.9-5.8
			C265.3,713.7,263.7,716.3,263.7,719.4z"/>
		<path class="st11" d="M267.2,714.8c0,0,3.5-1.7,6.1-1.1c2.6,0.6,5.7,0.9,7.9,1.1c2.2,0.2,3.3-1.3,3.3-1.3s3.1,4.2,4.5,4.6
			c1.3,0.4,0,0,0,0v-12.7l-22,5.1L267.2,714.8z"/>
		<path class="st12" d="M265.6,714.4c1.2-0.8,0.4,2.4,1.5,3.7s1.8-4.6,2.1-6.1c0.4-1.5,7,0,10.7,0.6c3.8,0.6,5.9-4.8,5.9-4.8
			s-0.5,5.7,0.5,6.7s2,5.1,2.9,5.1c0.9,0,0.2-3.3,1.1-3.2c0.9,0.1,2.6,1.9,2.6,1.9s2-8.2-0.8-11.9c-1-1.3-6.6-8.3-12-7.8
			c-9.6,0.8-13.8,3.4-15.7,7.8c-1.9,4.4-0.8,10-0.8,10l0.6,1.1C264.3,717.5,264.4,715.2,265.6,714.4z"/>
		<path class="st13" d="M265.8,709.1c0,0,0.8-3.6,3.3-5.1c2.5-1.4,11.6-2.9,11.6-2.9s2.4,2.7,0,4s-10.1,2.5-10.1,2.5L265.8,709.1z"
			/>
	</g>
</g>
<g>
	<polyline class="st2" points="367.9,306.6 337.8,298.1 346.3,328.2 	"/>
	<polyline class="st2" points="386.4,325.7 394.9,355.9 364.7,347.4 	"/>
	<line class="st2" x1="394.9" y1="355.9" x2="341.9" y2="301.6"/>
</g>
<g>
	<polyline class="st2" points="667.7,306.6 697.9,298.1 689.4,328.2 	"/>
	<polyline class="st2" points="649.3,325.7 640.8,355.9 670.9,347.4 	"/>
	<line class="st2" x1="640.8" y1="355.9" x2="693.7" y2="301.6"/>
</g>
<g>
	<polyline class="st2" points="367.9,699.4 337.8,707.9 346.3,677.7 	"/>
	<polyline class="st2" points="386.4,680.2 394.9,650.1 364.7,658.6 	"/>
	<line class="st2" x1="394.9" y1="650.1" x2="341.9" y2="704.4"/>
</g>
<g>
	<polyline class="st2" points="667.7,699.4 697.9,707.9 689.4,677.7 	"/>
	<polyline class="st2" points="649.3,680.2 640.8,650.1 670.9,658.6 	"/>
	<line class="st2" x1="640.8" y1="650.1" x2="693.7" y2="704.4"/>
</g>
<circle class="st4" cx="794.3" cy="195.7" r="96.6"/>
<circle class="st4" cx="794.3" cy="753.7" r="96.6"/>
<g>
	<path class="st14" d="M808.4,210.6l-33.1,33c-7.6,7.6-20,7.6-27.7-0.1s-7.6-20.1,0-27.8l32.8-32.8L808.4,210.6z"/>
	<path class="st15" d="M806.7,212.2l33-33.1c7.6-7.6,7.6-20-0.1-27.7s-20.1-7.6-27.8,0L779,184.2L806.7,212.2z"/>
	<path class="st16" d="M758.2,241.7c-5.4-6.2-4.8-15.7,1-21.5l54.6-54.6c3.1-3.1,3.1-8.2,0-11.3l0,0l-63.2,63.2
		c-6.3,6.3-6.6,16.7-0.3,23c3.4,3.5,7.9,5,12.2,4.7C760.9,244.3,759.5,243.1,758.2,241.7z"/>
	<path class="st11" d="M831.3,150.9c6.2,7.2,5.6,18.1-1.2,24.9l-55.8,55.8c-3.6,3.6-3.6,9.4,0,13l-7.3,7.3l73-73
		c7.3-7.3,7.6-19.3,0.3-26.6c-4-4-9.1-5.7-14.1-5.4C828.2,147.9,829.9,149.2,831.3,150.9z"/>
</g>
<g>
	<rect x="722.6" y="733.9" class="st17" width="142.9" height="61.7"/>
	<rect x="733.8" y="733.9" class="st11" width="120.5" height="61.7"/>
	<rect x="743.3" y="698.3" class="st6" width="101.4" height="97.3"/>
	<polygon class="st11" points="835.6,729.7 751.3,729.7 748.4,726.5 839.6,704.6 839.6,726.5 	"/>
	<rect x="748.4" y="704.6" class="st15" width="91.2" height="21.9"/>
	<g>
		<rect x="791.1" y="706.9" class="st18" width="5.9" height="16.6"/>
		<rect x="785.7" y="712.3" class="st18" width="16.6" height="5.9"/>
	</g>
	<rect x="758.8" y="735.1" class="st11" width="70.3" height="59.8"/>
	<rect x="766" y="741.3" class="st11" width="55.9" height="53.7"/>
	<rect x="771.9" y="747" class="st11" width="44.1" height="48"/>
	<polygon class="st19" points="836.2,709 755.6,724.5 750.4,724.5 750.4,706.9 836.2,706.9 	"/>
</g>
<g>
	<path class="st20" d="M618.3,664H417.9c-12.9,0-23.4-10.5-23.4-23.4l0,0c0-12.9,10.5-23.4,23.4-23.4h200.4
		c12.9,0,23.4,10.5,23.4,23.4l0,0C641.7,653.5,631.2,664,618.3,664z"/>
	<text transform="matrix(1 0 0 1 469.7922 650.447)" class="st21 st22">Patient</text>
</g>
<g>
	<path class="st20" d="M867.1,315.7H726.7c-12.9,0-23.4-10.5-23.4-23.4l0,0c0-12.9,10.5-23.4,23.4-23.4h140.4
		c12.9,0,23.4,10.5,23.4,23.4l0,0C890.5,305.3,880,315.7,867.1,315.7z"/>
	<text transform="matrix(1 0 0 1 743.5124 302.1615)" class="st21 st22">Pharma</text>
</g>
<g>
	<path class="st20" d="M313.8,315.7H173.4c-12.9,0-23.4-10.5-23.4-23.4l0,0c0-12.9,10.5-23.4,23.4-23.4h140.4
		c12.9,0,23.4,10.5,23.4,23.4l0,0C337.2,305.3,326.7,315.7,313.8,315.7z"/>
	<text transform="matrix(1 0 0 1 174.5707 302.1615)" class="st21 st22">Providers</text>
</g>
<g>
	<path class="st20" d="M867.1,861.5H726.7c-12.9,0-23.4-10.5-23.4-23.4l0,0c0-12.9,10.5-23.4,23.4-23.4h140.4
		c12.9,0,23.4,10.5,23.4,23.4l0,0C890.5,851,880,861.5,867.1,861.5z"/>
	<text transform="matrix(1 0 0 1 717.7728 847.9411)" class="st21 st22">Institutions</text>
</g>
<g>
	<path class="st20" d="M308.4,861.5H168c-12.9,0-23.4-10.5-23.4-23.4l0,0c0-12.9,10.5-23.4,23.4-23.4h140.4
		c12.9,0,23.4,10.5,23.4,23.4l0,0C331.8,851,321.3,861.5,308.4,861.5z"/>
	<text transform="matrix(1 0 0 1 192.4804 847.9411)" class="st21 st22">Family</text>
</g>
<g>
	<path class="st14" d="M280.5,180H261v-19.3c0-4.3-3.3-7.7-7.6-7.7h-22.7c-4.3,0-7.7,3.4-7.7,7.7V180h-19.4c-4.3,0-7.6,3.5-7.6,7.7
		v22.7c0,4.3,3.4,7.5,7.6,7.5H223v19.5c0,4.3,3.4,7.5,7.7,7.5h22.7c4.3,0,7.6-3.2,7.6-7.5V218h19.5c4.3,0,7.5-3.3,7.5-7.5v-22.7
		C288,183.5,284.8,180,280.5,180z"/>
	<path class="st19" d="M257,162h-20.3c-2,0-3.7,1.4-3.7,3.5v19.8c0,2.2-3.6,3.7-5.9,3.7h-18.2c-2.1,0-3.9,2-3.9,4v22.5
		c0,0-5-0.2-5-4.8c0-3.7,0-22.9,0-22.9c0-2,1.5-3.7,3.6-3.7h19.5c2.2,0,3.9-1.7,3.9-3.9v-19.5c0-2.1,1.7-3.7,3.7-3.7h22.7
		c2,0,3.6,1.7,3.6,3.8V162z"/>
	<path class="st11" d="M261.3,188.3c0-2.3,1.9-4.2,4.2-4.2h15c2.1,0,3.7,1.6,3.7,3.6v22.7c0,2.1-1.7,3.8-3.7,3.8h-19.2
		c-2.2,0-4,1.8-4,4v19.2c0,2-1.8,3.7-3.8,3.7h-22.7c-2,0-3.6-1.6-3.6-3.7v-14.1c0-2.8,2.3-5.1,5.1-5.1h13.5c2.4,0,4.3-1.9,4.3-4.3
		V213c0-3.6,2.9-6.5,6.5-6.5h0.5c2.4,0,4.3-1.9,4.3-4.3v-13.9H261.3z"/>
</g>
</svg>
