<?xml version="1.0" encoding="utf-8"?>
<!-- Generator: Adobe Illustrator 19.1.0, SVG Export Plug-In . SVG Version: 6.00 Build 0)  -->
<svg version="1.1" id="Layer_1" xmlns="http://www.w3.org/2000/svg" xmlns:xlink="http://www.w3.org/1999/xlink" x="0px" y="0px"
	 viewBox="0 0 800 800" style="enable-background:new 0 0 800 800;" xml:space="preserve">
<style type="text/css">
	.st0{fill:url(#SVGID_1_);}
	.st1{fill:#37BEC0;stroke:#87D8D9;stroke-width:12;stroke-miterlimit:10;}
	.st2{fill:none;stroke:#37BEC0;stroke-width:9;stroke-linecap:round;stroke-linejoin:round;stroke-miterlimit:10;}
	.st3{fill:none;stroke:#FFFFFF;stroke-width:20;stroke-linecap:round;stroke-linejoin:round;stroke-miterlimit:10;}
	.st4{fill:#87D8D9;stroke:#37BEC0;stroke-width:12;stroke-miterlimit:10;}
	.st5{fill:#FAAD40;}
	.st6{fill:#F9E8D8;}
	.st7{fill:#BC842C;}
	.st8{fill:#461A00;}
	.st9{fill:#FBB03B;}
	.st10{opacity:0.4;fill:#542700;}
	.st11{opacity:0.2;}
	.st12{fill:#603813;}
	.st13{opacity:0.3;fill:#FFFFFF;}
	.st14{fill:#ED4F7E;}
	.st15{fill:#0EA2DC;}
	.st16{opacity:0.4;fill:#FFFFFF;}
	.st17{fill:#BBAEA2;}
	.st18{fill:#FFFFFF;}
	.st19{opacity:0.2;fill:#FFFFFF;}
	.st20{fill:#FFFFFF;stroke:#37BEC0;stroke-width:9;stroke-miterlimit:10;}
	.st21{font-family:'MetaOT-Bold';}
	.st22{font-size:30px;}
</style>
<g id="Now">
</g>
<radialGradient id="SVGID_1_" cx="396.5539" cy="393.5942" r="308.9365" gradientUnits="userSpaceOnUse">
	<stop  offset="0.4663" style="stop-color:#37BEC0"/>
	<stop  offset="1" style="stop-color:#FFFFFF;stop-opacity:0"/>
</radialGradient>
<circle class="st0" cx="396.6" cy="393.6" r="308.9"/>
<circle class="st1" cx="396.6" cy="393.6" r="175.7"/>
<g>
	<path class="st2" d="M574.1,692.3h-165c-10.2,0-18.5-8.3-18.5-18.5v0c0-10.2-8.3-18.5-18.5-18.5h-134"/>
	<polyline class="st2" points="261.2,640 233.8,655.3 261.2,670.6 	"/>
	<polyline class="st2" points="525.8,640 553.1,655.3 525.8,670.6 	"/>
</g>
<g>
	<g>
		<path class="st3" d="M212.8,692.3h165c10.2,0,18.5-8.3,18.5-18.5v0c0-10.2,8.3-18.5,18.5-18.5h134"/>
		<path class="st2" d="M212.8,692.3h165c10.2,0,18.5-8.3,18.5-18.5v0c0-10.2,8.3-18.5,18.5-18.5h134"/>
	</g>
	<polyline class="st2" points="525.8,640 553.1,655.3 525.8,670.6 	"/>
</g>
<g>
	<path class="st2" d="M574.1,98.4h-165c-10.2,0-18.5,8.3-18.5,18.5v0c0,10.2-8.3,18.5-18.5,18.5h-134"/>
	<polyline class="st2" points="261.2,150.7 233.8,135.4 261.2,120 	"/>
	<polyline class="st2" points="525.8,150.7 553.1,135.4 525.8,120 	"/>
</g>
<g>
	<g>
		<path class="st3" d="M212.8,98.4h165c10.2,0,18.5,8.3,18.5,18.5v0c0,10.2,8.3,18.5,18.5,18.5h134"/>
		<path class="st2" d="M212.8,98.4h165c10.2,0,18.5,8.3,18.5,18.5v0c0,10.2,8.3,18.5,18.5,18.5h134"/>
	</g>
	<polyline class="st2" points="525.8,150.7 553.1,135.4 525.8,120 	"/>
</g>
<g>
	<path class="st2" d="M96.5,214.7v165c0,10.2,8.3,18.5,18.5,18.5h0c10.2,0,18.5,8.3,18.5,18.5v134"/>
	<polyline class="st2" points="148.8,527.7 133.5,555 118.2,527.7 	"/>
	<polyline class="st2" points="148.8,263 133.5,235.7 118.2,263 	"/>
</g>
<g>
	<g>
		<path class="st3" d="M96.5,576V411c0-10.2,8.3-18.5,18.5-18.5h0c10.2,0,18.5-8.3,18.5-18.5V240"/>
		<path class="st2" d="M96.5,576V411c0-10.2,8.3-18.5,18.5-18.5h0c10.2,0,18.5-8.3,18.5-18.5V240"/>
	</g>
	<polyline class="st2" points="148.8,263 133.5,235.7 118.2,263 	"/>
</g>
<g>
	<path class="st2" d="M690.5,214.7v165c0,10.2-8.3,18.5-18.5,18.5l0,0c-10.2,0-18.5,8.3-18.5,18.5v134"/>
	<polyline class="st2" points="638.2,527.7 653.5,555 668.8,527.7 	"/>
	<polyline class="st2" points="638.2,263 653.5,235.7 668.8,263 	"/>
</g>
<g>
	<g>
		<path class="st3" d="M690.5,576V411c0-10.2-8.3-18.5-18.5-18.5l0,0c-10.2,0-18.5-8.3-18.5-18.5V240"/>
		<path class="st2" d="M690.5,576V411c0-10.2-8.3-18.5-18.5-18.5l0,0c-10.2,0-18.5-8.3-18.5-18.5V240"/>
	</g>
	<polyline class="st2" points="638.2,263 653.5,235.7 668.8,263 	"/>
</g>
<circle class="st4" cx="125.3" cy="672.7" r="96.6"/>
<circle class="st4" cx="125.3" cy="114.7" r="96.6"/>
<g>
	<path class="st5" d="M102.3,681.4c0,0-2.1,3.4-1.6,4.4S98.6,707,98.6,707h5.3c0,0,2.1-17.6,2.8-19.7c0.8-2.1,2.8-4.8,2.8-4.8
		L102.3,681.4z"/>
	<path class="st5" d="M156.2,681.4c0,0,2.1,3.4,1.6,4.4S160,707,160,707h-5.3c0,0-2.1-17.6-2.8-19.7c-0.8-2.1-2.8-4.8-2.8-4.8
		L156.2,681.4z"/>
	<path class="st6" d="M123.7,651.8c0,0-11.4,3.2-13.6,4.8c-2.2,1.6-10.1,21.5-10.1,24.2c0,2.7,7.8,4.2,9.5,4.5
		c1.6,0.2,3.9-6.2,3.9-6.2l0.6,27.9h30.9l-0.4-29.2c0,0,2.8,7.7,3.7,7.6s8.8-2.4,10.4-3.3c1.5-0.9-6.4-24-8.7-25.4
		c-2.3-1.4-15.6-4.9-18.1-4.8C129,651.9,123.7,651.8,123.7,651.8z"/>
	<g>
		<g>
			<g>
				<g>
					<path class="st7" d="M128.5,645.6c0,0,4.6-0.9,4.6,4.3c0,4,6,7.1-4.6,7.1"/>
				</g>
			</g>
			<g>
				<g>
					<path class="st7" d="M128.5,645.6c0,0-4.6-0.9-4.6,4.3c0,4-6,7.1,4.6,7.1"/>
				</g>
			</g>
		</g>
	</g>
	<g>
		<path class="st5" d="M128.1,649.6c-15.2,0-12.9-25.4-11.6-30.9c1.2-5.1,11.6-4.9,11.6-4.9s10.3-0.1,11.6,4.9
			C141,624.2,143.3,649.6,128.1,649.6z"/>
		<circle class="st8" cx="134.3" cy="626.5" r="1.1"/>
		<path class="st9" d="M142.8,626.7c0,3.2,0.2,5.8-2.1,5.8s-0.9-2.6-0.9-5.8c0-3.2,0.4-5.8,0.9-5.8S142.8,623.5,142.8,626.7z"/>
		<circle class="st8" cx="122" cy="626.5" r="1.1"/>
		<path class="st10" d="M125.3,632.4c0.1,2.6,1.2,5.7,2.8,5.7c1.6,0,2.7-3,2.8-5.7c0,0-1.1,2.1-2.8,2.1
			C126.4,634.5,125.3,632.4,125.3,632.4z"/>
		<path class="st9" d="M113.5,626.7c0,3.2-0.2,5.8,2.1,5.8c2.3,0,0.9-2.6,0.9-5.8c0-3.2-0.4-5.8-0.9-5.8
			C115.1,620.9,113.5,623.5,113.5,626.7z"/>
		<path class="st11" d="M116.9,622.1c0,0,3.5-1.7,6.1-1.1s5.7,0.9,7.9,1.1s3.3-1.3,3.3-1.3s3.1,4.2,4.5,4.6c1.3,0.4,0,0,0,0l0-12.7
			l-22,5.1L116.9,622.1z"/>
		<path class="st12" d="M115.4,621.7c1.2-0.8,0.4,2.4,1.5,3.7s1.8-4.6,2.1-6.1c0.4-1.5,7,0,10.7,0.6c3.8,0.6,5.9-4.8,5.9-4.8
			s-0.5,5.7,0.5,6.7c1,1,2,5.1,2.9,5.1s0.2-3.3,1.1-3.2c0.9,0.1,2.6,1.9,2.6,1.9s2-8.2-0.8-11.9c-1-1.3-6.6-8.3-12-7.8
			c-9.6,0.8-13.8,3.4-15.7,7.8c-1.9,4.4-0.8,10-0.8,10l0.6,1.1C114.1,624.8,114.2,622.5,115.4,621.7z"/>
		<path class="st13" d="M115.6,616.4c0,0,0.8-3.6,3.3-5.1c2.5-1.4,11.6-2.9,11.6-2.9s2.4,2.7,0,4s-10.1,2.5-10.1,2.5L115.6,616.4z"
			/>
	</g>
</g>
<g>
	<path class="st5" d="M327,460.5c0,0-5.6,8.5-4.3,11C324,474,317,527,317,527h14c0,0,5.5-46,7.5-51.5S346,463,346,463L327,460.5z"/>
	<path class="st5" d="M469,460.5c0,0,5.6,8.5,4.3,11C472,474,479,527,479,527h-14c0,0-5.5-46-7.5-51.5S450,463,450,463L469,460.5z"
		/>
	<path class="st6" d="M383.2,382.3c0,0-30.1,8.4-35.8,12.7c-5.7,4.3-26.7,56.7-26.7,63.8s20.6,11.1,25,11.8
		C350,471.3,356,454,356,454l1.5,73H439l-1-76.6c0,0,7.4,20.5,9.7,20.3c2.3-0.3,23.3-6.3,27.3-8.7c3.9-2.2-17-63.3-23-67
		s-41-13-47.9-12.7C397.3,382.7,383.2,382.3,383.2,382.3z"/>
	<g>
		<g>
			<g>
				<g>
					<path class="st7" d="M396,366c0,0,12-2.4,12,11.3c0,10.7,15.7,18.7-12,18.7"/>
				</g>
			</g>
			<g>
				<g>
					<path class="st7" d="M396,366c0,0-12-2.4-12,11.3c0,10.7-15.7,18.7,12,18.7"/>
				</g>
			</g>
		</g>
	</g>
	<g>
		<path class="st5" d="M395,376.5c-40,0-34-67-30.5-81.5c3.2-13.3,30.5-13,30.5-13s27.3-0.3,30.5,13C429,309.5,435,376.5,395,376.5z
			"/>
		<circle class="st8" cx="411.2" cy="315.8" r="2.9"/>
		<path class="st9" d="M433.6,316.2c0,8.4,0.5,15.2-5.5,15.2s-2.4-6.8-2.4-15.2c0-8.4,1.1-15.2,2.4-15.2S433.6,307.8,433.6,316.2z"
			/>
		<circle class="st8" cx="378.8" cy="315.8" r="2.9"/>
		<path class="st10" d="M387.5,331.3c0.3,7,3.2,15,7.5,15s7.2-8,7.5-15c0,0-2.8,5.5-7.5,5.5S387.5,331.3,387.5,331.3z"/>
		<path class="st9" d="M356.4,316.2c0,8.4-0.5,15.2,5.5,15.2s2.4-6.8,2.4-15.2c0-8.4-1.1-15.2-2.4-15.2S356.4,307.8,356.4,316.2z"/>
		<path class="st11" d="M365.5,304c0,0,9.2-4.5,16.1-3c6.9,1.5,15,2.5,20.9,3s8.8-3.3,8.8-3.3s8.3,11.1,11.8,12.2s0,0,0,0l0-33.5
			l-58,13.3L365.5,304z"/>
		<path class="st12" d="M361.4,303c3.1-2,0.9,6.3,3.9,9.7c3,3.3,4.7-12,5.7-16s18.3,0,28.3,1.7c10,1.7,15.7-12.7,15.7-12.7
			s-1.3,15,1.3,17.7c2.7,2.7,5.2,13.5,7.7,13.5s0.6-8.8,2.9-8.4c2.3,0.3,6.7,5,6.7,5s5.3-21.6-2-31.3c-2.6-3.4-17.4-21.8-31.7-20.7
			c-25.2,2-36.3,9-41.3,20.7s-2.2,26.3-2.2,26.3l1.5,2.8C357.9,311.1,358.3,305,361.4,303z"/>
		<path class="st13" d="M362,289.1c0,0,2-9.6,8.7-13.3c6.7-3.7,30.7-7.6,30.7-7.6s6.3,7.1,0,10.5c-6.3,3.4-26.5,6.7-26.5,6.7
			L362,289.1z"/>
	</g>
</g>
<g>
	<path class="st5" d="M64.6,693.2c0,0-2.1,3-1.6,4c0.5,0.9-2.2,20.9-2.2,20.9h5.3c0,0,2.1-17.2,2.8-19.3c0.8-2.1,2.8-4.6,2.8-4.6
		L64.6,693.2z"/>
	<path class="st5" d="M118.4,693.2c0,0,2.1,3,1.6,4c-0.5,0.9,2.2,20.9,2.2,20.9h-5.3c0,0-2.1-17.2-2.8-19.3
		c-0.8-2.1-2.8-4.6-2.8-4.6L118.4,693.2z"/>
	<path class="st6" d="M85.9,663.5c0,0-11.4,3.2-13.6,4.8s-10.1,21.5-10.1,24.2s7.8,4.2,9.5,4.5s3.9-6.5,3.9-6.5l0.6,27.5h30.9
		l-0.4-28.9c0,0,2.8,7.9,3.7,7.8c0.9-0.1,8.8-2.3,10.4-3.2c1.5-0.9-6.4-24-8.7-25.4c-2.3-1.4-15.6-4.9-18.1-4.8
		C91.2,663.6,85.9,663.5,85.9,663.5z"/>
	<g>
		<g>
			<g>
				<g>
					<path class="st7" d="M90.7,657.3c0,0,4.6-0.9,4.6,4.3c0,4,6,7.1-4.6,7.1"/>
				</g>
			</g>
			<g>
				<g>
					<path class="st7" d="M90.7,657.3c0,0-4.6-0.9-4.6,4.3c0,4-6,7.1,4.6,7.1"/>
				</g>
			</g>
		</g>
	</g>
	<g>
		<path class="st5" d="M90.4,661.3c-15.2,0-12.9-25.4-11.6-30.9c1.2-5.1,11.6-4.9,11.6-4.9s10.3-0.1,11.6,4.9
			C103.3,635.9,105.5,661.3,90.4,661.3z"/>
		<circle class="st8" cx="96.5" cy="638.3" r="1.1"/>
		<path class="st9" d="M105,638.4c0,3.2,0.2,5.8-2.1,5.8s-0.9-2.6-0.9-5.8s0.4-5.8,0.9-5.8C103.4,632.7,105,635.3,105,638.4z"/>
		<circle class="st8" cx="84.2" cy="638.3" r="1.1"/>
		<path class="st10" d="M87.5,644.2c0.1,2.6,1.2,5.7,2.8,5.7c1.6,0,2.7-3,2.8-5.7c0,0-1.1,2.1-2.8,2.1S87.5,644.2,87.5,644.2z"/>
		<path class="st9" d="M75.7,638.4c0,3.2-0.2,5.8,2.1,5.8s0.9-2.6,0.9-5.8s-0.4-5.8-0.9-5.8S75.7,635.3,75.7,638.4z"/>
		<path class="st11" d="M79.2,633.8c0,0,3.5-1.7,6.1-1.1s5.7,0.9,7.9,1.1s3.3-1.3,3.3-1.3s3.1,4.2,4.5,4.6c1.3,0.4,0,0,0,0l0-12.7
			l-22,5.1L79.2,633.8z"/>
		<path class="st12" d="M77.6,633.4c1.2-0.8,0.4,2.4,1.5,3.7s1.8-4.6,2.1-6.1c0.4-1.5,7,0,10.7,0.6c3.8,0.6,5.9-4.8,5.9-4.8
			s-0.5,5.7,0.5,6.7c1,1,2,5.1,2.9,5.1c0.9,0,0.2-3.3,1.1-3.2c0.9,0.1,2.6,1.9,2.6,1.9s2-8.2-0.8-11.9c-1-1.3-6.6-8.3-12-7.8
			c-9.6,0.8-13.8,3.4-15.7,7.8c-1.9,4.4-0.8,10-0.8,10l0.6,1.1C76.3,636.5,76.4,634.2,77.6,633.4z"/>
		<path class="st13" d="M77.8,628.1c0,0,0.8-3.6,3.3-5.1c2.5-1.4,11.6-2.9,11.6-2.9s2.4,2.7,0,4c-2.4,1.3-10.1,2.5-10.1,2.5
			L77.8,628.1z"/>
	</g>
</g>
<g>
	<path class="st5" d="M132.6,693.2c0,0-2.1,3-1.6,4c0.5,0.9-2.2,20.9-2.2,20.9h5.3c0,0,2.1-17.2,2.8-19.3c0.8-2.1,2.8-4.6,2.8-4.6
		L132.6,693.2z"/>
	<path class="st5" d="M186.4,693.2c0,0,2.1,3,1.6,4c-0.5,0.9,2.2,20.9,2.2,20.9h-5.3c0,0-2.1-17.2-2.8-19.3
		c-0.8-2.1-2.8-4.6-2.8-4.6L186.4,693.2z"/>
	<path class="st6" d="M153.9,663.5c0,0-11.4,3.2-13.6,4.8s-10.1,21.5-10.1,24.2s7.8,4.2,9.5,4.5c1.6,0.2,3.9-6.5,3.9-6.5l0.6,27.5
		H175l-0.4-28.9c0,0,2.8,7.9,3.7,7.8c0.9-0.1,8.8-2.3,10.4-3.2c1.5-0.9-6.4-24-8.7-25.4s-15.6-4.9-18.1-4.8
		C159.2,663.6,153.9,663.5,153.9,663.5z"/>
	<g>
		<g>
			<g>
				<g>
					<path class="st7" d="M158.7,657.3c0,0,4.6-0.9,4.6,4.3c0,4,6,7.1-4.6,7.1"/>
				</g>
			</g>
			<g>
				<g>
					<path class="st7" d="M158.7,657.3c0,0-4.6-0.9-4.6,4.3c0,4-6,7.1,4.6,7.1"/>
				</g>
			</g>
		</g>
	</g>
	<g>
		<path class="st5" d="M158.4,661.3c-15.2,0-12.9-25.4-11.6-30.9c1.2-5.1,11.6-4.9,11.6-4.9s10.3-0.1,11.6,4.9
			C171.3,635.9,173.5,661.3,158.4,661.3z"/>
		<circle class="st8" cx="164.5" cy="638.3" r="1.1"/>
		<path class="st9" d="M173,638.4c0,3.2,0.2,5.8-2.1,5.8s-0.9-2.6-0.9-5.8s0.4-5.8,0.9-5.8S173,635.3,173,638.4z"/>
		<circle class="st8" cx="152.2" cy="638.3" r="1.1"/>
		<path class="st10" d="M155.5,644.2c0.1,2.6,1.2,5.7,2.8,5.7s2.7-3,2.8-5.7c0,0-1.1,2.1-2.8,2.1S155.5,644.2,155.5,644.2z"/>
		<path class="st9" d="M143.7,638.4c0,3.2-0.2,5.8,2.1,5.8c2.3,0,0.9-2.6,0.9-5.8s-0.4-5.8-0.9-5.8
			C145.3,632.7,143.7,635.3,143.7,638.4z"/>
		<path class="st11" d="M147.2,633.8c0,0,3.5-1.7,6.1-1.1c2.6,0.6,5.7,0.9,7.9,1.1c2.2,0.2,3.3-1.3,3.3-1.3s3.1,4.2,4.5,4.6
			c1.3,0.4,0,0,0,0l0-12.7l-22,5.1L147.2,633.8z"/>
		<path class="st12" d="M145.6,633.4c1.2-0.8,0.4,2.4,1.5,3.7s1.8-4.6,2.1-6.1c0.4-1.5,7,0,10.7,0.6c3.8,0.6,5.9-4.8,5.9-4.8
			s-0.5,5.7,0.5,6.7c1,1,2,5.1,2.9,5.1c0.9,0,0.2-3.3,1.1-3.2c0.9,0.1,2.6,1.9,2.6,1.9s2-8.2-0.8-11.9c-1-1.3-6.6-8.3-12-7.8
			c-9.6,0.8-13.8,3.4-15.7,7.8c-1.9,4.4-0.8,10-0.8,10l0.6,1.1C144.3,636.5,144.4,634.2,145.6,633.4z"/>
		<path class="st13" d="M145.8,628.1c0,0,0.8-3.6,3.3-5.1c2.5-1.4,11.6-2.9,11.6-2.9s2.4,2.7,0,4c-2.4,1.3-10.1,2.5-10.1,2.5
			L145.8,628.1z"/>
	</g>
</g>
<g>
	<polyline class="st2" points="247.9,225.6 217.8,217.1 226.3,247.2 	"/>
	<polyline class="st2" points="266.4,244.7 274.9,274.9 244.7,266.4 	"/>
	<line class="st2" x1="274.9" y1="274.9" x2="221.9" y2="220.6"/>
</g>
<g>
	<polyline class="st2" points="547.7,225.6 577.9,217.1 569.4,247.2 	"/>
	<polyline class="st2" points="529.3,244.7 520.8,274.9 550.9,266.4 	"/>
	<line class="st2" x1="520.8" y1="274.9" x2="573.7" y2="220.6"/>
</g>
<g>
	<polyline class="st2" points="247.9,618.4 217.8,626.9 226.3,596.7 	"/>
	<polyline class="st2" points="266.4,599.2 274.9,569.1 244.7,577.6 	"/>
	<line class="st2" x1="274.9" y1="569.1" x2="221.9" y2="623.4"/>
</g>
<g>
	<polyline class="st2" points="547.7,618.4 577.9,626.9 569.4,596.7 	"/>
	<polyline class="st2" points="529.3,599.2 520.8,569.1 550.9,577.6 	"/>
	<line class="st2" x1="520.8" y1="569.1" x2="573.7" y2="623.4"/>
</g>
<circle class="st4" cx="674.3" cy="114.7" r="96.6"/>
<circle class="st4" cx="674.3" cy="672.7" r="96.6"/>
<g>
	<path class="st14" d="M688.4,129.6l-33.1,33c-7.6,7.6-20,7.6-27.7-0.1s-7.6-20.1,0-27.8l32.8-32.8L688.4,129.6z"/>
	<path class="st15" d="M686.7,131.2l33-33.1c7.6-7.6,7.6-20-0.1-27.7s-20.1-7.6-27.8,0l-32.8,32.8L686.7,131.2z"/>
	<path class="st16" d="M638.2,160.7c-5.4-6.2-4.8-15.7,1-21.5l54.6-54.6c3.1-3.1,3.1-8.2,0-11.3v0l-63.2,63.2
		c-6.3,6.3-6.6,16.7-0.3,23c3.4,3.5,7.9,5,12.2,4.7C640.9,163.3,639.5,162.1,638.2,160.7z"/>
	<path class="st11" d="M711.3,69.9c6.2,7.2,5.6,18.1-1.2,24.9l-55.8,55.8c-3.6,3.6-3.6,9.4,0,13l-7.3,7.3l73-73
		c7.3-7.3,7.6-19.3,0.3-26.6c-4-4-9.1-5.7-14.1-5.4C708.2,66.9,709.9,68.2,711.3,69.9z"/>
</g>
<g>
	<rect x="602.6" y="652.9" class="st17" width="142.9" height="61.7"/>
	<rect x="613.8" y="652.9" class="st11" width="120.5" height="61.7"/>
	<rect x="623.3" y="617.3" class="st6" width="101.4" height="97.3"/>
	<polygon class="st11" points="715.6,648.7 631.3,648.7 628.4,645.5 719.6,623.6 719.6,645.5 	"/>
	<rect x="628.4" y="623.6" class="st15" width="91.2" height="21.9"/>
	<g>
		<rect x="671.1" y="625.9" class="st18" width="5.9" height="16.6"/>
		<rect x="665.7" y="631.3" class="st18" width="16.6" height="5.9"/>
	</g>
	<rect x="638.8" y="654.1" class="st11" width="70.3" height="59.8"/>
	<rect x="646" y="660.3" class="st11" width="55.9" height="53.7"/>
	<rect x="651.9" y="666" class="st11" width="44.1" height="48"/>
	<polygon class="st19" points="716.2,628 635.6,643.5 630.4,643.5 630.4,625.9 716.2,625.9 	"/>
</g>
<g>
	<path class="st20" d="M498.3,583H297.9c-12.9,0-23.4-10.5-23.4-23.4v0c0-12.9,10.5-23.4,23.4-23.4h200.4
		c12.9,0,23.4,10.5,23.4,23.4v0C521.7,572.5,511.2,583,498.3,583z"/>
	<text transform="matrix(1 0 0 1 348.2987 569.447)" class="st21 st22">Patient</text>
</g>
<g>
	<path class="st20" d="M747.1,234.7H606.7c-12.9,0-23.4-10.5-23.4-23.4v0c0-12.9,10.5-23.4,23.4-23.4h140.4
		c12.9,0,23.4,10.5,23.4,23.4v0C770.5,224.3,760,234.7,747.1,234.7z"/>
	<text transform="matrix(1 0 0 1 626.1293 221.1615)" class="st21 st22">Pharma</text>
</g>
<g>
	<path class="st20" d="M193.8,234.7H53.4c-12.9,0-23.4-10.5-23.4-23.4v0c0-12.9,10.5-23.4,23.4-23.4h140.4
		c12.9,0,23.4,10.5,23.4,23.4v0C217.2,224.3,206.7,234.7,193.8,234.7z"/>
	<text transform="matrix(1 0 0 1 60.7715 221.1615)" class="st21 st22">Providers</text>
</g>
<g>
	<path class="st20" d="M747.1,780.5H606.7c-12.9,0-23.4-10.5-23.4-23.4v0c0-12.9,10.5-23.4,23.4-23.4h140.4
		c12.9,0,23.4,10.5,23.4,23.4v0C770.5,770,760,780.5,747.1,780.5z"/>
	<text transform="matrix(1 0 0 1 600.0145 766.9411)" class="st21 st22">Institutions</text>
</g>
<g>
	<path class="st20" d="M188.4,780.5H48c-12.9,0-23.4-10.5-23.4-23.4v0c0-12.9,10.5-23.4,23.4-23.4h140.4c12.9,0,23.4,10.5,23.4,23.4
		v0C211.8,770,201.3,780.5,188.4,780.5z"/>
	<text transform="matrix(1 0 0 1 74.9222 766.9411)" class="st21 st22">Family</text>
</g>
<g>
	<path class="st14" d="M160.5,99H141V79.7c0-4.3-3.3-7.7-7.6-7.7h-22.7c-4.3,0-7.7,3.4-7.7,7.7V99H83.6c-4.3,0-7.6,3.5-7.6,7.7v22.7
		c0,4.3,3.4,7.5,7.6,7.5H103v19.5c0,4.3,3.4,7.5,7.7,7.5h22.7c4.3,0,7.6-3.2,7.6-7.5V137h19.5c4.3,0,7.5-3.3,7.5-7.5v-22.7
		C168,102.5,164.8,99,160.5,99z"/>
	<path class="st19" d="M137,81h-20.3c-2,0-3.7,1.4-3.7,3.5v19.8c0,2.2-3.6,3.7-5.9,3.7H88.9c-2.1,0-3.9,2-3.9,4v22.5
		c0,0-5-0.2-5-4.8c0-3.7,0-22.9,0-22.9c0-2,1.5-3.7,3.6-3.7h19.5c2.2,0,3.9-1.7,3.9-3.9V79.7c0-2.1,1.7-3.7,3.7-3.7h22.7
		c2,0,3.6,1.7,3.6,3.8V81z"/>
	<path class="st11" d="M141.3,107.3c0-2.3,1.9-4.2,4.2-4.2h15c2.1,0,3.7,1.6,3.7,3.6v22.7c0,2.1-1.7,3.8-3.7,3.8h-19.2
		c-2.2,0-4,1.8-4,4v19.2c0,2-1.8,3.7-3.8,3.7h-22.7c-2,0-3.6-1.6-3.6-3.7v-14.1c0-2.8,2.3-5.1,5.1-5.1h13.5c2.4,0,4.3-1.9,4.3-4.3
		v-0.9c0-3.6,2.9-6.5,6.5-6.5h0.5c2.4,0,4.3-1.9,4.3-4.3V107.3z"/>
</g>
</svg>
