<svg id="Layer_1" data-name="Layer 1" xmlns="http://www.w3.org/2000/svg" viewBox="0 0 313.94 230.45">
  <defs>
    <style>
      .cls-1 {
        opacity: 0.15;
      }

      .cls-2 {
        fill: #000100;
      }

      .cls-3 {
        fill: #b2b2b2;
      }

      .cls-4 {
        fill: #434955;
      }

      .cls-5 {
        fill: #a4c851;
      }

      .cls-6 {
        fill: #7b9b3a;
      }

      .cls-7 {
        fill: #63825b;
      }

      .cls-8 {
        fill: #fff;
      }

      .cls-9 {
        fill: #ffd900;
        stroke: #f0c400;
        stroke-miterlimit: 10;
        stroke-width: 2px;
      }

      .cls-10 {
        opacity: 0.3;
      }

      .cls-11 {
        opacity: 0.1;
      }

      .cls-12 {
        fill: #ea507e;
      }

      .cls-13 {
        fill: #13a1dc;
      }
    </style>
  </defs>
  <title>vert-transport-rail-service</title>
  <g id="_Group_" data-name="&lt;Group&gt;" class="cls-1">
    <path id="_Compound_Path_" data-name="&lt;Compound Path&gt;" class="cls-2" d="M4034.65,392.61a1.75,1.75,0,0,1-1.34-.61,2,2,0,0,1-.48-1.39,15.15,15.15,0,0,1,5.59-10.58,26,26,0,0,1,3-1.91c1.94-1.11,4.12-2.41,4.34-3.85,0.2-1.17-1-2.72-1.92-3.76-4.84-5.48-6.38-11-4.49-15.7a11.12,11.12,0,0,1,8.67-6.67,11,11,0,0,1,10.26,3.8c3.24,3.89,3.41,9.65.42,16.27-0.66,1.34-1.25,3.16-.76,4.23,0.63,1.31,3.1,1.91,5.28,2.39a26,26,0,0,1,3.39.95,15.15,15.15,0,0,1,8.48,8.45,2,2,0,0,1,0,1.47,1.76,1.76,0,0,1-1,1c-0.2.09-5.43,1.64-19.54,3.78S4034.87,392.64,4034.65,392.61Zm32.21-28.31-0.51-3.38,13.53-2.06,0.51,3.38Zm12-12.21,0.51,3.38-13.53,2.06-0.51-3.38Z" transform="translate(-3836.28 -181.21)"/>
  </g>
  <g id="_Group_2" data-name="&lt;Group&gt;" class="cls-1">
    <path id="_Compound_Path_2" data-name="&lt;Compound Path&gt;" class="cls-2" d="M3883.09,181.46a28.15,28.15,0,0,1,20.12,42.84l10.11,18.38a6.76,6.76,0,0,1-10.6,8.17l-15.16-14.58A28.14,28.14,0,1,1,3883.09,181.46Zm-6.31,47.41a19.69,19.69,0,1,0-16.92-22.12A19.66,19.66,0,0,0,3876.77,228.87Zm-0.15-7.4a2.22,2.22,0,0,1-1.93-2.53l0.89-6.69-6.69-.89a2.22,2.22,0,0,1-1.93-2.53l0.3-2.23a2.22,2.22,0,0,1,2.53-1.93l6.69,0.89,0.89-6.69a2.22,2.22,0,0,1,2.53-1.93l2.23,0.3a2.22,2.22,0,0,1,1.93,2.53l-0.89,6.69,6.69,0.89a2.22,2.22,0,0,1,1.93,2.53l-0.3,2.23A2.22,2.22,0,0,1,3889,214l-6.69-.89-0.89,6.69a2.22,2.22,0,0,1-2.53,1.93Z" transform="translate(-3836.28 -181.21)"/>
  </g>
  <g id="_Group_3" data-name="&lt;Group&gt;" class="cls-1">
    <path id="_Compound_Path_3" data-name="&lt;Compound Path&gt;" class="cls-2" d="M3861.7,280.36l-8.89-5.2-3.78,7.37a7.45,7.45,0,0,1,.47,1.12,6.76,6.76,0,1,1-8.47-4.45,8.37,8.37,0,0,1,1.13-.23l5.68-10.81a4.24,4.24,0,0,1,2.37-1.94,4,4,0,0,1,3,.39l9.31,5.32,9.53-13.27-0.07-.23a6.76,6.76,0,1,1,8.47,4.45,5.64,5.64,0,0,1-2.07.26l-11.61,16.13A3.89,3.89,0,0,1,3861.7,280.36Zm-5.11,19.55,3.95,12.68a2.72,2.72,0,0,1-1.56,3.52l-8.07,2.51a2.72,2.72,0,0,1-3.28-2l-3.95-12.68a2.74,2.74,0,0,1,1.33-3.45,36.15,36.15,0,0,1,4.19-1.56,36.85,36.85,0,0,1,4.34-1.1A2.79,2.79,0,0,1,3856.59,299.91Zm16.73-11.28,5.67,18.22a2.73,2.73,0,0,1-1.56,3.52l-8.07,2.51a2.72,2.72,0,0,1-3.28-2l-5.67-18.22a2.74,2.74,0,0,1,1.33-3.45,36.3,36.3,0,0,1,4.2-1.56,37,37,0,0,1,4.34-1.1A2.79,2.79,0,0,1,3873.32,288.64Zm15.58-15,8.54,27.44a2.73,2.73,0,0,1-1.56,3.52l-8.07,2.51a2.72,2.72,0,0,1-3.28-2L3876,277.69a2.75,2.75,0,0,1,1.33-3.45,36.19,36.19,0,0,1,4.19-1.56,37,37,0,0,1,4.34-1.1A2.8,2.8,0,0,1,3888.89,273.67Z" transform="translate(-3836.28 -181.21)"/>
  </g>
  <circle class="cls-3" cx="20.71" cy="65.79"/>
  <g>
    <path class="cls-4" d="M4061.85,401.13L4027,366.25a6.17,6.17,0,0,0-8.73,8.72l12,12H3924.39l12-12a6.17,6.17,0,0,0-8.73-8.72l-34.88,34.88a6.17,6.17,0,1,0,8.72,8.72L3912,399.33H4042.6l10.53,10.53A6.17,6.17,0,0,0,4061.85,401.13Z" transform="translate(-3836.28 -181.21)"/>
    <g>
      <path class="cls-5" d="M3918.83,372.16a9.84,9.84,0,0,1-9.83-9.83l3-135.61a9.86,9.86,0,0,1,9.83-9.89h111a9.84,9.84,0,0,1,9.83,9.83l3,135.72a9.83,9.83,0,0,1-9.83,9.78h-117Z" transform="translate(-3836.28 -181.21)"/>
      <path class="cls-6" d="M4032.83,219.33a7.34,7.34,0,0,1,7.33,7.33v0.11l3,135.6a7.34,7.34,0,0,1-7.33,7.29h-117a7.34,7.34,0,0,1-7.33-7.29l3-135.6v-0.11a7.34,7.34,0,0,1,7.33-7.33h111m0-5h-111a12.33,12.33,0,0,0-12.33,12.33l-3,135.66a12.33,12.33,0,0,0,12.33,12.33h117a12.33,12.33,0,0,0,12.33-12.33l-3-135.66a12.33,12.33,0,0,0-12.33-12.33h0Z" transform="translate(-3836.28 -181.21)"/>
    </g>
    <polygon class="cls-7" points="195.55 126.79 86.55 126.79 87.55 70.12 194.55 70.12 195.55 126.79"/>
    <path class="cls-6" d="M3995.83,232.83a6.16,6.16,0,0,1-6.17,6.17H3965a6.16,6.16,0,0,1-6.17-6.17h0a6.16,6.16,0,0,1,6.17-6.17h24.67a6.16,6.16,0,0,1,6.17,6.17h0Z" transform="translate(-3836.28 -181.21)"/>
    <circle class="cls-8" cx="97.88" cy="156.45" r="12.33"/>
    <circle class="cls-9" cx="97.88" cy="156.45" r="6.17"/>
    <circle class="cls-8" cx="184.21" cy="156.45" r="12.33"/>
    <circle class="cls-9" cx="184.21" cy="156.45" r="6.17"/>
    <g class="cls-10">
      <path class="cls-2" d="M3919.28,374.66l-6.17,6.17h17.45l5.85-5.85c0.09-.09.12-0.22,0.21-0.31h-17.34Z" transform="translate(-3836.28 -181.21)"/>
      <path class="cls-2" d="M4035.38,374.66H4018c0.08,0.1.11,0.22,0.2,0.31l5.86,5.86h17.45Z" transform="translate(-3836.28 -181.21)"/>
    </g>
    <path class="cls-11" d="M3995.83,232.83a6.17,6.17,0,0,1-6.17,6.17H3965a6.16,6.16,0,0,1-6.16-6.17,4.88,4.88,0,0,1,0-.54c0.32,3.11,2.94,4.54,6.13,4.54h24.67c3.2,0,5.82-1.43,6.14-4.54A4.88,4.88,0,0,1,3995.83,232.83Z" transform="translate(-3836.28 -181.21)"/>
    <polygon class="cls-8" points="195.55 124.79 88.55 124.79 89.55 70.12 194.55 70.12 195.55 124.79"/>
    <path class="cls-11" d="M3982.19,362.41c-1-1-4.58-4.65-5.53-5.72l-6.11-6.83c-27-32.33-31.88-59.33-37.15-92.66-1.58-10-3.22-29.94-2.89-40l0-1.62c-0.29-.72-2.2-1.18-3-1.2-11.21-.36-14.29,4.26-16,11.34,0,0.08,0,.92,0,1L3909,362.63c-0.78,5.85,4.77,12.06,10.67,12.06h78.85C3989.86,369.19,3987.05,367.3,3982.19,362.41Z" transform="translate(-3836.28 -181.21)"/>
  </g>
  <path class="cls-12" d="M4059.58,264.56a46.26,46.26,0,0,1-6-35c5.87-25.45,32-41.15,58.35-35.07s43,31.64,37.1,57.08-32,41.15-58.35,35.07a50.31,50.31,0,0,1-15.88-6.72l-41,35.29Z" transform="translate(-3836.28 -181.21)"/>
  <g id="_Group_4" data-name="&lt;Group&gt;">
    <path id="_Compound_Path_4" data-name="&lt;Compound Path&gt;" class="cls-8" d="M4091.44,259.56l-7.95,1.85-6.65-28.61,7.95-1.85Zm33.24-31.34a6.13,6.13,0,0,1,2.32,4.33l0.54,3.43c2.41,15.77,3,19.51-11.93,23-6.66,1.55-9.41.51-11.8-.29-1.94-.7-3.47-1.18-7.39-0.27l-1.79.42-5.43-23.35c9-4.45,8.58-10,8.46-14.06,0-2.4-.15-5.15,2.63-5.8a3.46,3.46,0,0,1,2.77.66c2.65,1.95,3.68,7.26,4.65,14.36l12.42-2.89A5.76,5.76,0,0,1,4124.67,228.22Z" transform="translate(-3836.28 -181.21)"/>
  </g>
  <path class="cls-13" d="M4069.6,307a30.15,30.15,0,0,1,15.06-17.57c15.21-7.65,34-1.08,41.87,14.67s2,34.72-13.19,42.36-34,1.08-41.87-14.67a32.79,32.79,0,0,1-3.24-10.76l-34.75-5.87Z" transform="translate(-3836.28 -181.21)"/>
  <g>
    <path class="cls-8" d="M4112.55,305h-9.35a4.15,4.15,0,1,0-8.31,0h-9.35a1,1,0,0,0-1,1v26a1,1,0,0,0,1,1h27a1,1,0,0,0,1-1V306A1,1,0,0,0,4112.55,305Zm-13.5-2.08A2.08,2.08,0,1,1,4097,305,2.08,2.08,0,0,1,4099,302.93ZM4110.51,330h-22.93V308.09h3.15v2.12a1,1,0,0,0,1,1h14.54a1,1,0,0,0,1-1v-2.12h3.15V330Z" transform="translate(-3836.28 -181.21)"/>
    <path class="cls-8" d="M4097,326.72l-6.66-7.7,1.9-1.9,4.77,3.72,8.92-7.88,1.9,1.9Z" transform="translate(-3836.28 -181.21)"/>
  </g>
</svg>
