<?xml version="1.0" encoding="utf-8"?>
<!-- Generator: Adobe Illustrator 19.1.0, SVG Export Plug-In . SVG Version: 6.00 Build 0)  -->
<svg version="1.1" id="Layer_1" xmlns="http://www.w3.org/2000/svg" xmlns:xlink="http://www.w3.org/1999/xlink" x="0px" y="0px"
	 viewBox="-103 105.1 303.9 303.9" style="enable-background:new -103 105.1 303.9 303.9;" xml:space="preserve">
<style type="text/css">
	.st0{fill:none;}
	.st1{fill:#F9E8D8;}
	.st2{fill:#0EA2DC;}
	.st3{fill:#3B5272;stroke:#333C47;stroke-width:10;stroke-miterlimit:10;}
	.st4{fill:none;stroke:#FAAD40;stroke-width:9;stroke-miterlimit:10;}
	.st5{clip-path:url(#SVGID_2_);}
	.st6{fill:#FAAD40;}
	.st7{clip-path:url(#SVGID_4_);}
	.st8{opacity:0.2;}
	.st9{fill:#42210B;}
	.st10{fill:#603813;}
	.st11{fill:#461A00;}
	.st12{fill:#FBB03B;}
	.st13{opacity:0.3;fill:#FFFFFF;}
	.st14{opacity:0.8;fill:#FFFFFF;}
	.st15{opacity:0.1;}
	.st16{clip-path:url(#SVGID_6_);}
	.st17{clip-path:url(#SVGID_8_);}
	.st18{fill:#FFFFFF;}
	.st19{fill:#666666;}
	.st20{fill:#37BEC0;}
	.st21{fill:#9B5CA4;}
	.st22{fill:#A4CE4E;}
	.st23{fill:#ED4F7E;}
	.st24{fill:#4D4D4D;}
	.st25{fill:url(#SVGID_9_);}
	.st26{clip-path:url(#SVGID_11_);}
	.st27{clip-path:url(#SVGID_13_);}
	.st28{opacity:0.5;}
	.st29{fill:#CCCCCC;}
	.st30{clip-path:url(#SVGID_15_);fill:#FAAD40;}
	.st31{clip-path:url(#SVGID_17_);}
	.st32{fill:#808080;}
	.st33{fill:#E6E6E6;}
	.st34{fill:#999999;}
</style>
<pattern  x="-103" y="409" width="40" height="40" patternUnits="userSpaceOnUse" id="New_Pattern_Swatch_6" viewBox="110.2 -135.3 40 40" style="overflow:visible;">
	<g>
		<polygon class="st0" points="110.2,-135.3 150.2,-135.3 150.2,-95.3 110.2,-95.3 		"/>
		<g>
			<polygon class="st1" points="140,-23.7 163.7,-110.5 250.5,-86.8 226.8,0 			"/>
		</g>
		<g>
			<polygon class="st1" points="120,-23.7 143.7,-110.5 230.5,-86.8 206.8,0 			"/>
		</g>
		<g>
			<polygon class="st1" points="100,-23.7 123.7,-110.5 210.5,-86.8 186.8,0 			"/>
		</g>
		<g>
			<polygon class="st1" points="80,-23.7 103.7,-110.5 190.5,-86.8 166.8,0 			"/>
		</g>
		<g>
			<polygon class="st1" points="60,-23.7 83.7,-110.5 170.5,-86.8 146.8,0 			"/>
		</g>
		<g>
			<polygon class="st1" points="40,-23.7 63.7,-110.5 150.5,-86.8 126.8,0 			"/>
		</g>
		<g>
			<polygon class="st1" points="20,-23.7 43.7,-110.5 130.5,-86.8 106.8,0 			"/>
		</g>
		<g>
			<polygon class="st1" points="0,-23.7 23.7,-110.5 110.5,-86.8 86.8,0 			"/>
		</g>
		<g>
			<polygon class="st1" points="150,-43.7 173.7,-130.5 260.5,-106.8 236.8,-20 			"/>
		</g>
		<g>
			<polygon class="st1" points="130,-43.7 153.7,-130.5 240.5,-106.8 216.8,-20 			"/>
		</g>
		<g>
			<polygon class="st1" points="110,-43.7 133.7,-130.5 220.5,-106.8 196.8,-20 			"/>
		</g>
		<g>
			<polygon class="st1" points="90,-43.7 113.7,-130.5 200.5,-106.8 176.8,-20 			"/>
		</g>
		<g>
			<polygon class="st1" points="70,-43.7 93.7,-130.5 180.5,-106.8 156.8,-20 			"/>
		</g>
		<g>
			<polygon class="st1" points="50,-43.7 73.7,-130.5 160.5,-106.8 136.8,-20 			"/>
		</g>
		<g>
			<polygon class="st1" points="30,-43.7 53.7,-130.5 140.5,-106.8 116.8,-20 			"/>
		</g>
		<g>
			<polygon class="st1" points="10,-43.7 33.7,-130.5 120.5,-106.8 96.8,-20 			"/>
		</g>
		<g>
			<polygon class="st1" points="140,-63.7 163.7,-150.5 250.5,-126.8 226.8,-40 			"/>
		</g>
		<g>
			<polygon class="st1" points="120,-63.7 143.7,-150.5 230.5,-126.8 206.8,-40 			"/>
		</g>
		<g>
			<polygon class="st1" points="100,-63.7 123.7,-150.5 210.5,-126.8 186.8,-40 			"/>
			<path class="st2" d="M176.7-95.7c0,9.1-7.4,16.5-16.5,16.5s-16.5-7.4-16.5-16.5s7.4-16.5,16.5-16.5S176.7-104.9,176.7-95.7z"/>
		</g>
		<g>
			<polygon class="st1" points="80,-63.7 103.7,-150.5 190.5,-126.8 166.8,-40 			"/>
			<path class="st2" d="M156.7-95.7c0,9.1-7.4,16.5-16.5,16.5s-16.5-7.4-16.5-16.5s7.4-16.5,16.5-16.5S156.7-104.9,156.7-95.7z"/>
		</g>
		<g>
			<polygon class="st1" points="60,-63.7 83.7,-150.5 170.5,-126.8 146.8,-40 			"/>
			<path class="st2" d="M136.7-95.7c0,9.1-7.4,16.5-16.5,16.5s-16.5-7.4-16.5-16.5s7.4-16.5,16.5-16.5S136.7-104.9,136.7-95.7z"/>
		</g>
		<g>
			<polygon class="st1" points="40,-63.7 63.7,-150.5 150.5,-126.8 126.8,-40 			"/>
			<path class="st2" d="M116.7-95.7c0,9.1-7.4,16.5-16.5,16.5s-16.5-7.4-16.5-16.5s7.4-16.5,16.5-16.5S116.7-104.9,116.7-95.7z"/>
		</g>
		<g>
			<polygon class="st1" points="20,-63.7 43.7,-150.5 130.5,-126.8 106.8,-40 			"/>
		</g>
		<g>
			<polygon class="st1" points="0,-63.7 23.7,-150.5 110.5,-126.8 86.8,-40 			"/>
		</g>
		<g>
			<polygon class="st1" points="150,-83.7 173.7,-170.5 260.5,-146.8 236.8,-60 			"/>
		</g>
		<g>
			<polygon class="st1" points="130,-83.7 153.7,-170.5 240.5,-146.8 216.8,-60 			"/>
		</g>
		<g>
			<polygon class="st1" points="110,-83.7 133.7,-170.5 220.5,-146.8 196.8,-60 			"/>
		</g>
		<g>
			<polygon class="st1" points="90,-83.7 113.7,-170.5 200.5,-146.8 176.8,-60 			"/>
			<path class="st2" d="M166.7-115.7c0,9.1-7.4,16.5-16.5,16.5s-16.5-7.4-16.5-16.5s7.4-16.5,16.5-16.5S166.7-124.9,166.7-115.7z"/>
		</g>
		<g>
			<polygon class="st1" points="70,-83.7 93.7,-170.5 180.5,-146.8 156.8,-60 			"/>
			<path class="st2" d="M146.7-115.7c0,9.1-7.4,16.5-16.5,16.5s-16.5-7.4-16.5-16.5s7.4-16.5,16.5-16.5S146.7-124.9,146.7-115.7z"/>
		</g>
		<g>
			<polygon class="st1" points="50,-83.7 73.7,-170.5 160.5,-146.8 136.8,-60 			"/>
			<path class="st2" d="M126.7-115.7c0,9.1-7.4,16.5-16.5,16.5s-16.5-7.4-16.5-16.5s7.4-16.5,16.5-16.5S126.7-124.9,126.7-115.7z"/>
		</g>
		<g>
			<polygon class="st1" points="30,-83.7 53.7,-170.5 140.5,-146.8 116.8,-60 			"/>
		</g>
		<g>
			<polygon class="st1" points="10,-83.7 33.7,-170.5 120.5,-146.8 96.8,-60 			"/>
		</g>
		<g>
			<polygon class="st1" points="140,-103.7 163.7,-190.5 250.5,-166.8 226.8,-80 			"/>
		</g>
		<g>
			<polygon class="st1" points="120,-103.7 143.7,-190.5 230.5,-166.8 206.8,-80 			"/>
		</g>
		<g>
			<polygon class="st1" points="100,-103.7 123.7,-190.5 210.5,-166.8 186.8,-80 			"/>
			<path class="st2" d="M176.7-135.7c0,9.1-7.4,16.5-16.5,16.5s-16.5-7.4-16.5-16.5s7.4-16.5,16.5-16.5S176.7-144.9,176.7-135.7z"/>
		</g>
		<g>
			<polygon class="st1" points="80,-103.7 103.7,-190.5 190.5,-166.8 166.8,-80 			"/>
			<path class="st2" d="M156.7-135.7c0,9.1-7.4,16.5-16.5,16.5s-16.5-7.4-16.5-16.5s7.4-16.5,16.5-16.5S156.7-144.9,156.7-135.7z"/>
		</g>
		<g>
			<polygon class="st1" points="60,-103.7 83.7,-190.5 170.5,-166.8 146.8,-80 			"/>
			<path class="st2" d="M136.7-135.7c0,9.1-7.4,16.5-16.5,16.5s-16.5-7.4-16.5-16.5s7.4-16.5,16.5-16.5S136.7-144.9,136.7-135.7z"/>
		</g>
		<g>
			<polygon class="st1" points="40,-103.7 63.7,-190.5 150.5,-166.8 126.8,-80 			"/>
			<path class="st2" d="M116.7-135.7c0,9.1-7.4,16.5-16.5,16.5s-16.5-7.4-16.5-16.5s7.4-16.5,16.5-16.5S116.7-144.9,116.7-135.7z"/>
		</g>
		<g>
			<polygon class="st1" points="20,-103.7 43.7,-190.5 130.5,-166.8 106.8,-80 			"/>
		</g>
		<g>
			<polygon class="st1" points="0,-103.7 23.7,-190.5 110.5,-166.8 86.8,-80 			"/>
		</g>
		<g>
			<polygon class="st1" points="150,-123.7 173.7,-210.5 260.5,-186.8 236.8,-100 			"/>
		</g>
		<g>
			<polygon class="st1" points="130,-123.7 153.7,-210.5 240.5,-186.8 216.8,-100 			"/>
		</g>
		<g>
			<polygon class="st1" points="110,-123.7 133.7,-210.5 220.5,-186.8 196.8,-100 			"/>
		</g>
		<g>
			<polygon class="st1" points="90,-123.7 113.7,-210.5 200.5,-186.8 176.8,-100 			"/>
		</g>
		<g>
			<polygon class="st1" points="70,-123.7 93.7,-210.5 180.5,-186.8 156.8,-100 			"/>
		</g>
		<g>
			<polygon class="st1" points="50,-123.7 73.7,-210.5 160.5,-186.8 136.8,-100 			"/>
		</g>
		<g>
			<polygon class="st1" points="30,-123.7 53.7,-210.5 140.5,-186.8 116.8,-100 			"/>
		</g>
		<g>
			<polygon class="st1" points="10,-123.7 33.7,-210.5 120.5,-186.8 96.8,-100 			"/>
		</g>
		<g>
			<polygon class="st1" points="140,-143.7 163.7,-230.5 250.5,-206.8 226.8,-120 			"/>
		</g>
		<g>
			<polygon class="st1" points="120,-143.7 143.7,-230.5 230.5,-206.8 206.8,-120 			"/>
		</g>
		<g>
			<polygon class="st1" points="100,-143.7 123.7,-230.5 210.5,-206.8 186.8,-120 			"/>
		</g>
		<g>
			<polygon class="st1" points="80,-143.7 103.7,-230.5 190.5,-206.8 166.8,-120 			"/>
		</g>
		<g>
			<polygon class="st1" points="60,-143.7 83.7,-230.5 170.5,-206.8 146.8,-120 			"/>
		</g>
		<g>
			<polygon class="st1" points="40,-143.7 63.7,-230.5 150.5,-206.8 126.8,-120 			"/>
		</g>
		<g>
			<polygon class="st1" points="20,-143.7 43.7,-230.5 130.5,-206.8 106.8,-120 			"/>
		</g>
		<g>
			<polygon class="st1" points="0,-143.7 23.7,-230.5 110.5,-206.8 86.8,-120 			"/>
		</g>
	</g>
</pattern>
<title>vert-transport-future-b</title>
<g>
	<g id="Layer_3">
		<circle class="st3" cx="48.9" cy="257.1" r="146.9"/>
	</g>
</g>
<line class="st4" x1="-43" y1="268.1" x2="28.3" y2="174.6"/>
<line class="st4" x1="69.8" y1="335.9" x2="26.4" y2="174.6"/>
<line class="st4" x1="-43" y1="268.1" x2="69.8" y2="335.9"/>
<line class="st4" x1="131.5" y1="240" x2="29.2" y2="179.3"/>
<line class="st4" x1="131.5" y1="240" x2="72.2" y2="339.1"/>
<g>
	<g>
		<g>
			<defs>
				<circle id="SVGID_1_" cx="129.4" cy="240" r="41.7"/>
			</defs>
			<clipPath id="SVGID_2_">
				<use xlink:href="#SVGID_1_"  style="overflow:visible;"/>
			</clipPath>
			<g class="st5">
				<rect x="74.8" y="182.6" class="st6" width="106.7" height="119.1"/>
			</g>
		</g>
	</g>
	<g>
		<defs>
			<circle id="SVGID_3_" cx="129.4" cy="240" r="35.9"/>
		</defs>
		<clipPath id="SVGID_4_">
			<use xlink:href="#SVGID_3_"  style="overflow:visible;"/>
		</clipPath>
		<g class="st7">
			<rect x="79" y="193.2" class="st8" width="98.6" height="110"/>
			<g>
				<path class="st9" d="M116.4,249.5c6.5-2.4,20.5-2.5,23.7-1c1.8,0.9,0-10,0-10l-13.7-8.4l-7.7,2.8
					C118.6,232.9,114,250.4,116.4,249.5z"/>
				<path class="st10" d="M117.4,231.5c0,0,0.9,6.4,0.4,8c-0.5,1.6-2.3,2.4-2.3,2.4s0.5,1,1.6,1s4-1.5,4-1.5l-0.7-10.9l-2.9-0.3
					L117.4,231.5z"/>
				<g>
					<path class="st6" d="M105.2,275.9c0,0-1.9,3-1.5,3.9s-2,21.2-2,21.2l4.1,2.3c0,0,2.7-20.1,3.4-22.1c0.7-1.9,2.6-4.4,2.6-4.4
						L105.2,275.9z"/>
					<path class="st6" d="M154.8,275.9c0,0,1.9,3,1.5,3.9s2,21.2,2,21.2l-4.6,2.5c0,0-2.2-20.4-2.9-22.3c-0.7-1.9-2.6-4.4-2.6-4.4
						L154.8,275.9z"/>
					<path class="st1" d="M124.8,248.6c0,0-10.5,2.9-12.5,4.4c-2,1.5-9.3,19.8-9.3,22.3s7.2,3.9,8.7,4.1s3.6-5.8,3.6-5.8l0.6,33.5
						c0,0,9.2,2.1,14.8,1.8c5.6-0.3,14.1-2.1,14.1-2.1l-0.9-34.4c0,0,2.6,7.1,3.4,7c0.8-0.1,8.1-2.2,9.5-3c1.3-0.8-5.9-22.1-8-23.4
						c-2.1-1.3-14.3-4.5-16.7-4.4S124.8,248.6,124.8,248.6z"/>
					<path class="st6" d="M132.5,246.2c0-4.8-3.2-4-3.2-4s-3.2-0.8-3.2,4c0,3.7-4.2,6.5,3.2,6.5
						C136.7,252.7,132.5,249.9,132.5,246.2z"/>
					<path class="st6" d="M125.8,249.5c0,0-4.7,1.1-5.9,1.8c-1.2,0.7,4.1,3.1,9.1,3.1c5,0,11-2.3,11.8-2.8s-11.8-2.8-11.8-2.8
						L125.8,249.5z"/>
					<g>
						<path class="st6" d="M128.9,246.9c-3.6,0-11.8-6.9-9.9-24.5c0.5-4.8,9.9-4.5,9.9-4.5s9.1-0.2,9.9,4.5
							C141.3,238.8,132.5,246.9,128.9,246.9z"/>
						<circle class="st11" cx="133.6" cy="229.7" r="1"/>
						<path class="st12" d="M142.4,227.6c0,2.9,0.2,5.3-1.9,5.3c-2.1,0-0.9-2.4-0.9-5.3c0-2.9,0.4-3.2,0.9-3.2
							C140.9,224.4,142.4,224.7,142.4,227.6z"/>
						<circle class="st11" cx="124.3" cy="229.7" r="1"/>
						<path class="st8" d="M126.3,234c0.1,2.4,2,3.5,2.6,3.5s2.5-1.1,2.6-3.5c0,0-1.7,1.6-2.6,1.6C128,235.5,126.3,234,126.3,234z"
							/>
						<path class="st8" d="M126.1,246l-0.2,2.5c0,0,2.4,1.6,3.5,1.6c1,0,2.7-1.1,3.3-2.6c0.3-0.8-0.2-1.2-0.2-2.1
							c0,0-1.9,1.3-3.5,1.3S126.1,246,126.1,246z"/>
						<path class="st12" d="M115.5,227.6c0,2.9-0.2,5.3,1.9,5.3s0.9-2.4,0.9-5.3c0-2.9-0.4-3.2-0.9-3.2
							C116.9,224.4,115.5,224.7,115.5,227.6z"/>
						<path class="st8" d="M118.6,225.5c0,0,2.5,0.5,6.6,0.3c4.9-0.2,6-2.7,9.3-1.4c3.3,1.2,2.9,1.8,4.1,2.2c1.2,0.4,0,0,0,0l0-9.6
							l-20.2,4.7L118.6,225.5z"/>
					</g>
					<path class="st10" d="M144.1,245c-1.8-2.3-2.9-4.5-0.5-10.5c2.4-5.9,0.7-12.4-3.5-17.7c-2-3.3-0.4-6.9-9.3-7.3
						c-2.8-0.1-5.1,0-12.9,3.3s-6,16.8-4,21.7c2.5,6,1.4,8.3-0.5,10.5c-2.1,2.6-5.6,1.2-1.3,4.2c4.3,3,12.1-4.8,12.1-4.8
						s-3.7-4.5-4.3-7.2c-0.6-2.9-1.9-14-0.6-13.7c9,1.8,16.4-5.7,17.6-1.5c0.3,1,0.6,4,1.2,5.2c0,0-1.5,6.7-1,9.7
						c0.5,3-3.6,7.5-3.6,7.5s7.5,7.9,11.8,4.9C149.6,246.2,146.1,247.6,144.1,245z"/>
					<path class="st13" d="M114.3,219.5c0,0,0.7-3.4,3-4.7c2.3-1.3,9.8-3.9,9.8-3.9s1.5,2.5-0.8,3.7c-2.2,1.2-5.7-0.3-8.1,2.1
						C116.5,218.7,116,220.2,114.3,219.5z"/>
				</g>
			</g>
			<path class="st14" d="M104.5,273.9c0,0,6.3-18,8-18.9s5.8-2.3,5.8-2.3s1.1,1.9-0.6,3.1c-0.4,0.3-2.4,0.9-3.3,2.6
				c-2.9,5.4-6.3,16.2-7.5,16.8C105.2,275.9,104.5,273.9,104.5,273.9z"/>
			<path class="st15" d="M147.3,279.4c0,0,8.4-2.1,9.5-3c1.2-1-4.7-18.2-7-22.1c-0.4-0.6-2.1-2.9-1.7,1.5c0.2,2.4,1.6,17.9,0.4,19.8
				S147.3,279.4,147.3,279.4z"/>
			<path class="st15" d="M144.8,306.9l-0.9-34.5c0,0-1.8-0.9-2.7,1.5c-0.9,2.4-5.5,34.5-5.5,34.5
				C140.3,308.1,144.8,306.9,144.8,306.9z"/>
		</g>
	</g>
</g>
<g>
	<g>
		<g>
			<defs>
				<circle id="SVGID_5_" cx="69.1" cy="337.1" r="41.7"/>
			</defs>
			<clipPath id="SVGID_6_">
				<use xlink:href="#SVGID_5_"  style="overflow:visible;"/>
			</clipPath>
			<g class="st16">
				<rect x="14.4" y="279.7" class="st6" width="106.7" height="119.1"/>
			</g>
		</g>
	</g>
	<g>
		<defs>
			<circle id="SVGID_7_" cx="69.3" cy="337.6" r="35.2"/>
		</defs>
		<clipPath id="SVGID_8_">
			<use xlink:href="#SVGID_7_"  style="overflow:visible;"/>
		</clipPath>
		<g class="st17">
			<rect x="6.6" y="271.4" class="st8" width="132.3" height="132.3"/>
			<g>
				<path class="st6" d="M62.7,327.4l-7.7,2.9c0,0,0.7,2.1,1.8,2.7c1.2,0.7,5.4-1.5,5.4-1.5L62.7,327.4z"/>
				<path class="st6" d="M87.9,328c0,0,1.3,7,1.1,9.1c-0.2,2.1-3.4,9.1-4.7,11.8c-1.3,2.7-10.7,5-12.7,6.2c-1.9,1.2-2.7-6.2-2.7-6.2
					s3.1-7.4,6.7-8.9C79.3,338.5,87.9,328,87.9,328z"/>
				<path class="st18" d="M68.6,352.4l-16.7-6c-1.9-0.7-2.6-3-1.4-4.7l21.8-29.8c0.8-1.1,2.2-1.5,3.5-1.1l16.7,6
					c1.9,0.7,2.6,3,1.4,4.7l-21.8,29.8C71.4,352.4,69.9,352.8,68.6,352.4z"/>
				<g>
					<path class="st19" d="M70.1,347.2l-13.6-4.9c-1.6-0.6-2.1-2.5-1.2-3.8l17.6-24.2c0.6-0.9,1.8-1.2,2.8-0.9l13.6,4.9
						c1.6,0.6,2.1,2.5,1.2,3.8L73,346.3C72.3,347.2,71.2,347.6,70.1,347.2z"/>
					<path class="st20" d="M74,319l-1.4-0.5c-0.5-0.2-0.7-0.8-0.3-1.2l1-1.3c0.2-0.3,0.6-0.4,0.9-0.3l1.4,0.5
						c0.5,0.2,0.7,0.8,0.3,1.2l-1,1.3C74.7,319,74.3,319.1,74,319z"/>
					<path class="st6" d="M77.9,320.5l-1.4-0.5c-0.5-0.2-0.7-0.8-0.3-1.2l1-1.3c0.2-0.3,0.6-0.4,0.9-0.3l1.4,0.5
						c0.5,0.2,0.7,0.8,0.3,1.2l-1,1.3C78.5,320.5,78.2,320.6,77.9,320.5z"/>
					<path class="st2" d="M82.1,322l-1.4-0.5c-0.5-0.2-0.7-0.8-0.3-1.2l1-1.3c0.2-0.3,0.6-0.4,0.9-0.3l1.4,0.5
						c0.5,0.2,0.7,0.8,0.3,1.2l-1,1.3C82.7,322,82.4,322.1,82.1,322z"/>
					<path class="st21" d="M86.4,323.6l-1.4-0.5c-0.5-0.2-0.7-0.8-0.3-1.2l1-1.3c0.2-0.3,0.6-0.4,0.9-0.3l1.4,0.5
						c0.5,0.2,0.7,0.8,0.3,1.2l-1,1.3C87.1,323.6,86.7,323.7,86.4,323.6z"/>
					<path class="st2" d="M71.3,323.2l-1.4-0.5c-0.5-0.2-0.7-0.8-0.3-1.2l1-1.3c0.2-0.3,0.6-0.4,0.9-0.3l1.4,0.5
						c0.5,0.2,0.7,0.8,0.3,1.2l-1,1.3C71.9,323.2,71.6,323.3,71.3,323.2z"/>
					<path class="st22" d="M75.1,324.7l-1.4-0.5c-0.5-0.2-0.7-0.8-0.3-1.2l1-1.3c0.2-0.3,0.6-0.4,0.9-0.3l1.4,0.5
						c0.5,0.2,0.7,0.8,0.3,1.2l-1,1.3C75.8,324.7,75.4,324.8,75.1,324.7z"/>
					<path class="st21" d="M79.3,326.2l-1.4-0.5c-0.5-0.2-0.7-0.8-0.3-1.2l1-1.3c0.2-0.3,0.6-0.4,0.9-0.3l1.4,0.5
						c0.5,0.2,0.7,0.8,0.3,1.2l-1,1.3C80,326.2,79.6,326.3,79.3,326.2z"/>
					<path class="st23" d="M83.6,327.8l-1.4-0.5c-0.5-0.2-0.7-0.8-0.3-1.2l1-1.3c0.2-0.3,0.6-0.4,0.9-0.3l1.4,0.5
						c0.5,0.2,0.7,0.8,0.3,1.2l-1,1.3C84.3,327.8,83.9,327.9,83.6,327.8z"/>
					<path class="st20" d="M68,327.6l-1.4-0.5c-0.5-0.2-0.7-0.8-0.3-1.2l1-1.3c0.2-0.3,0.6-0.4,0.9-0.3l1.4,0.5
						c0.5,0.2,0.7,0.8,0.3,1.2l-1,1.3C68.7,327.6,68.4,327.7,68,327.6z"/>
					<path class="st6" d="M71.9,329.1l-1.4-0.5c-0.5-0.2-0.7-0.8-0.3-1.2l1-1.3c0.2-0.3,0.6-0.4,0.9-0.3l1.4,0.5
						c0.5,0.2,0.7,0.8,0.3,1.2l-1,1.3C72.6,329.1,72.2,329.2,71.9,329.1z"/>
					<path class="st2" d="M76.1,330.6l-1.4-0.5c-0.5-0.2-0.7-0.8-0.3-1.2l1-1.3c0.2-0.3,0.6-0.4,0.9-0.3l1.4,0.5
						c0.5,0.2,0.7,0.8,0.3,1.2l-1,1.3C76.8,330.6,76.4,330.7,76.1,330.6z"/>
					<path class="st21" d="M80.4,332.2l-1.4-0.5c-0.5-0.2-0.7-0.8-0.3-1.2l1-1.3c0.2-0.3,0.6-0.4,0.9-0.3l1.4,0.5
						c0.5,0.2,0.7,0.8,0.3,1.2l-1,1.3C81.1,332.2,80.7,332.3,80.4,332.2z"/>
					<path class="st2" d="M65.3,331.8l-1.4-0.5c-0.5-0.2-0.7-0.8-0.3-1.2l1-1.3c0.2-0.3,0.6-0.4,0.9-0.3l1.4,0.5
						c0.5,0.2,0.7,0.8,0.3,1.2l-1,1.3C66,331.8,65.6,331.9,65.3,331.8z"/>
					<path class="st22" d="M69.1,333.3l-1.4-0.5c-0.5-0.2-0.7-0.8-0.3-1.2l1-1.3c0.2-0.3,0.6-0.4,0.9-0.3l1.4,0.5
						c0.5,0.2,0.7,0.8,0.3,1.2l-1,1.3C69.8,333.3,69.5,333.4,69.1,333.3z"/>
					<path class="st21" d="M73.3,334.8l-1.4-0.5c-0.5-0.2-0.7-0.8-0.3-1.2l1-1.3c0.2-0.3,0.6-0.4,0.9-0.3l1.4,0.5
						c0.5,0.2,0.7,0.8,0.3,1.2l-1,1.3C74,334.8,73.7,334.9,73.3,334.8z"/>
					<path class="st23" d="M77.7,336.4l-1.4-0.5c-0.5-0.2-0.7-0.8-0.3-1.2l1-1.3c0.2-0.3,0.6-0.4,0.9-0.3l1.4,0.5
						c0.5,0.2,0.7,0.8,0.3,1.2l-1,1.3C78.3,336.4,78,336.5,77.7,336.4z"/>
					<path class="st20" d="M61.7,336.2l-1.4-0.5c-0.5-0.2-0.7-0.8-0.3-1.2l1-1.3c0.2-0.3,0.6-0.4,0.9-0.3l1.4,0.5
						c0.5,0.2,0.7,0.8,0.3,1.2l-1,1.3C62.3,336.2,62,336.3,61.7,336.2z"/>
					<path class="st6" d="M65.5,337.7l-1.4-0.5c-0.5-0.2-0.7-0.8-0.3-1.2l1-1.3c0.2-0.3,0.6-0.4,0.9-0.3L67,335
						c0.5,0.2,0.7,0.8,0.3,1.2l-1,1.3C66.2,337.7,65.8,337.8,65.5,337.7z"/>
					<path class="st2" d="M69.7,339.2l-1.4-0.5c-0.5-0.2-0.7-0.8-0.3-1.2l1-1.3c0.2-0.3,0.6-0.4,0.9-0.3l1.4,0.5
						c0.5,0.2,0.7,0.8,0.3,1.2l-1,1.3C70.4,339.2,70,339.3,69.7,339.2z"/>
					<path class="st21" d="M74,340.8l-1.4-0.5c-0.5-0.2-0.7-0.8-0.3-1.2l1-1.3c0.2-0.3,0.6-0.4,0.9-0.3l1.4,0.5
						c0.5,0.2,0.7,0.8,0.3,1.2l-1,1.3C74.7,340.8,74.3,340.9,74,340.8z"/>
					<path class="st2" d="M58.9,340.4l-1.4-0.5c-0.5-0.2-0.7-0.8-0.3-1.2l1-1.3c0.2-0.3,0.6-0.4,0.9-0.3l1.4,0.5
						c0.5,0.2,0.7,0.8,0.3,1.2l-1,1.3C59.6,340.4,59.2,340.5,58.9,340.4z"/>
					<path class="st22" d="M62.8,341.9l-1.4-0.5c-0.5-0.2-0.7-0.8-0.3-1.2l1-1.3c0.2-0.3,0.6-0.4,0.9-0.3l1.4,0.5
						c0.5,0.2,0.7,0.8,0.3,1.2l-1,1.3C63.4,341.9,63.1,342,62.8,341.9z"/>
					<path class="st21" d="M67,343.4l-1.4-0.5c-0.5-0.2-0.7-0.8-0.3-1.2l1-1.3c0.2-0.3,0.6-0.4,0.9-0.3l1.4,0.5
						c0.5,0.2,0.7,0.8,0.3,1.2l-1,1.3C67.6,343.4,67.3,343.5,67,343.4z"/>
					<path class="st23" d="M71.3,345l-1.4-0.5c-0.5-0.2-0.7-0.8-0.3-1.2l1-1.3c0.2-0.3,0.6-0.4,0.9-0.3l1.4,0.5
						c0.5,0.2,0.7,0.8,0.3,1.2l-1,1.3C71.9,345,71.6,345.1,71.3,345z"/>
					<path class="st13" d="M56.6,342.3c-1.6-0.6-2.1-2.5-1.2-3.8l17.6-24.2c0.6-0.9,1.8-1.2,2.8-0.9l13.6,4.9
						c1.6,0.6,2.1,2.5,1.2,3.8L56.6,342.3z"/>
				</g>
				<path class="st6" d="M53.7,352.3c0,0,10.1-4.4,12.4-7.9c2.3-3.5,4.6-5.8,4.9-8.3c0.4-2.5,0.5-8.2,1.4-9.5s4.2-1.7,4.3,0
					s0.3,5.6,0.4,6.9s-0.3,5.4-0.4,7.1s2.3,5.8,2.3,5.8c3.2-0.6,5.5,5.2-6,8.8c-3.2,1-11.8,2.1-11.8,2.1L53.7,352.3z"/>
				<path class="st18" d="M34.1,359.3l18.6-9c0,0,6.4,0.2,9.2,2c2.8,1.8,6.5,5.4,5.4,6.1c-1.1,0.7-18.8,13.8-18.8,13.8L34.1,359.3z"
					/>
				<path class="st24" d="M12.2,368.3l32.6-15.7c0,0,10.4-0.1,14.2,2c3.8,2.1,8.7,6.3,7.2,7.2c-1.5,0.9-22.5,14.9-22.5,14.9
					L12.2,368.3z"/>
				
					<pattern  id="SVGID_9_" xlink:href="#New_Pattern_Swatch_6" patternTransform="matrix(0.3327 0 0 0.3327 -5268.6987 -5580.7163)">
				</pattern>
				<path class="st25" d="M72.8,329.8c0,0-0.3-2.6,0.4-3.2c0.7-0.6,2.7-0.9,2.8-0.4c0.2,0.4,0.5,2.7,0.2,3.1S72.8,329.8,72.8,329.8z
					"/>
			</g>
		</g>
	</g>
</g>
<g>
	<g>
		<defs>
			<circle id="SVGID_10_" cx="27.6" cy="176.7" r="41.7"/>
		</defs>
		<clipPath id="SVGID_11_">
			<use xlink:href="#SVGID_10_"  style="overflow:visible;"/>
		</clipPath>
		<g class="st26">
			<rect x="-27.1" y="119.3" class="st6" width="106.7" height="119.1"/>
		</g>
	</g>
	<g>
		<defs>
			<circle id="SVGID_12_" cx="27.6" cy="176.7" r="35.9"/>
		</defs>
		<clipPath id="SVGID_13_">
			<use xlink:href="#SVGID_12_"  style="overflow:visible;"/>
		</clipPath>
		<g class="st27">
			<rect x="-22.8" y="129.9" class="st8" width="98.6" height="110"/>
			<path class="st15" d="M43,243.6l-0.9-34.5c0,0-1.8-0.9-2.7,1.5c-0.9,2.4-5.5,34.5-5.5,34.5C38.5,244.8,43,243.6,43,243.6z"/>
		</g>
	</g>
	<g>
		<path class="st28" d="M48.6,186.9l0.8,0.5l9.3-23.8c0.2-0.5,0-1.1-0.5-1.4l-0.6-0.4L48.6,186.9z"/>
		<path class="st28" d="M-3.1,188.6l30.3,7.4c1.6,0.4,3.3,0.2,4.8-0.5l16.4-8.1v1.8c0,0.7-0.4,1.4-1.1,1.7l-15.3,7
			c-1.5,0.7-3.2,0.8-4.8,0.5L-2,191.8c-0.7-0.2-1.2-0.8-1.2-1.5V188.6z"/>
		<path class="st18" d="M50.4,187.1"/>
		<path class="st18" d="M32,195.5l16-7.4c0.7-0.3,0.6-1.3-0.1-1.4l-32-7.3c-0.2,0-0.3,0-0.5,0l-18.1,8.4c-0.7,0.3-0.6,1.3,0.1,1.4
			l29.7,6.8C28.8,196.3,30.5,196.1,32,195.5z"/>
		<path class="st18" d="M32,195.5l16-7.4c0.7-0.3,0.6-1.3-0.1-1.4l-32-7.3c-0.2,0-0.3,0-0.5,0l-18.1,8.4c-0.7,0.3-0.6,1.3,0.1,1.4
			l29.7,6.8C28.8,196.3,30.5,196.1,32,195.5z"/>
		<path class="st18" d="M48.6,186.9l-33-7.6l9.6-24.3c0.2-0.4,0.6-0.6,1-0.5l31.1,7.2c0.6,0.1,0.9,0.8,0.7,1.3L48.6,186.9z"/>
		<polygon class="st24" points="47,184.6 18.6,178.1 27.2,156.6 55.5,163.2 		"/>
		<g>
			<ellipse class="st18" cx="49" cy="186.9" rx="0.7" ry="0.9"/>
			<polygon class="st18" points="46.6,185.4 49.1,186 48.9,187.8 46.5,187.3 			"/>
			<ellipse class="st24" cx="49" cy="186.9" rx="0.5" ry="0.6"/>
		</g>
		<g>
			<polygon class="st29" points="20.7,185.7 24.5,186.6 27.5,185.2 23.8,184.4 			"/>
			<polygon class="st29" points="24.9,186.7 28.6,187.5 31.7,186.1 27.9,185.3 			"/>
			<polygon class="st29" points="29.1,187.6 32.8,188.4 35.8,187 32.1,186.2 			"/>
			<polygon class="st29" points="12.4,183.9 16.1,184.7 19.2,183.3 15.5,182.5 			"/>
			<polygon class="st29" points="16.5,184.8 20.3,185.6 23.3,184.3 19.6,183.4 			"/>
			<polygon class="st29" points="40.6,186.2 36.8,185.4 34.6,186.4 38.3,187.3 			"/>
			<polygon class="st29" points="36.4,185.3 32.7,184.5 30.4,185.5 34.1,186.3 			"/>
			<polygon class="st29" points="28.1,183.5 24.3,182.7 22.1,183.7 25.8,184.5 			"/>
			<polygon class="st29" points="23.9,182.6 20.1,181.8 17.9,182.7 21.7,183.6 			"/>
			<polygon class="st29" points="32.2,184.4 28.5,183.6 26.2,184.6 30,185.4 			"/>
			<polygon class="st29" points="33.2,188.5 37,189.4 40,188 36.3,187.1 			"/>
			<polygon class="st29" points="13.9,188.9 17.7,189.7 20.7,188.3 17,187.5 			"/>
			<polygon class="st29" points="18.1,189.8 21.9,190.6 24.9,189.3 21.2,188.4 			"/>
			<polygon class="st29" points="22.3,190.7 26,191.6 29.1,190.2 25.3,189.3 			"/>
			<polygon class="st29" points="5.6,187 9.3,187.8 12.4,186.5 8.7,185.6 			"/>
			<polygon class="st29" points="9.7,187.9 13.5,188.8 16.6,187.4 12.8,186.6 			"/>
			<polygon class="st29" points="26.4,191.7 30.2,192.5 33.2,191.1 29.5,190.3 			"/>
			<polygon class="st29" points="45.1,187.2 41,186.3 38.7,187.4 42.7,188.3 			"/>
			<polygon class="st29" points="17.5,182.6 19.7,181.7 15.9,180.8 13.8,181.8 			"/>
			<polygon class="st29" points="6.9,184.9 10.5,185.7 13.6,184.4 9.9,183.5 			"/>
			<polygon class="st29" points="11,185.8 14.7,186.7 17.8,185.3 14,184.5 			"/>
			<polygon class="st29" points="23.5,188.6 27.3,189.5 30.3,188.1 26.6,187.2 			"/>
			<polygon class="st29" points="27.7,192.1 23.9,191.3 21.1,192.6 24.9,193.4 			"/>
			<polygon class="st29" points="20.7,192.5 23.5,191.2 11.3,188.5 8.7,189.6 			"/>
			<polygon class="st29" points="8.2,189.5 10.8,188.4 7.1,187.5 4.5,188.7 			"/>
			<polygon class="st29" points="34.5,189 30.7,188.2 27.7,189.6 31.5,190.4 			"/>
			<polygon class="st29" points="15.1,186.8 18.9,187.6 22,186.2 18.2,185.4 			"/>
			<polygon class="st29" points="19.3,187.7 23.1,188.5 26.1,187.2 22.4,186.3 			"/>
			<polygon class="st29" points="34.9,189.1 31.9,190.5 35.7,191.3 38.8,190 			"/>
		</g>
		<polygon class="st13" points="23.1,166.7 27.2,156.6 55.5,163.2 		"/>
		<path class="st15" d="M32,195.5l16-7.4c0.7-0.3,0.6-1.3-0.1-1.4l-32-7.3c-0.2,0-0.3,0-0.5,0l11.8,16.5
			C28.8,196.3,30.5,196.1,32,195.5z"/>
	</g>
</g>
<g>
	<g>
		<defs>
			<circle id="SVGID_14_" cx="-34.9" cy="268.2" r="41.7"/>
		</defs>
		<clipPath id="SVGID_15_">
			<use xlink:href="#SVGID_14_"  style="overflow:visible;"/>
		</clipPath>
		<polygon class="st30" points="8.7,329.9 -89.5,329.9 -98,210.8 8.7,210.8 		"/>
	</g>
	<g>
		<defs>
			<circle id="SVGID_16_" cx="-34.9" cy="268.2" r="35.9"/>
		</defs>
		<clipPath id="SVGID_17_">
			<use xlink:href="#SVGID_16_"  style="overflow:visible;"/>
		</clipPath>
		<g class="st31">
			<rect x="-85.3" y="221.5" class="st8" width="98.6" height="110"/>
			<path class="st15" d="M-27.9,335.1l7.6-34.5c0,0-1.8-0.9-2.7,1.5c-0.9,2.4-14,34.5-14,34.5C-32.5,336.4-27.9,335.1-27.9,335.1z"
				/>
		</g>
	</g>
	<g>
		<polygon class="st18" points="-28.1,295.6 -58.4,290.9 -58.4,266.7 -28.1,271.4 		"/>
		<polygon class="st32" points="-40.6,293.6 -49,292.3 -49,279.1 -40.6,280.4 		"/>
		<polygon class="st32" points="-28.1,295.6 -5,281.6 -5,257.4 -28.1,271.4 		"/>
		<polygon class="st8" points="-28.1,295.6 -58.4,270.1 -58.4,266.7 -28.1,271.4 		"/>
	</g>
	<polygon class="st8" points="-28.1,276.5 -5,271.4 -5,257.4 -28.1,271.4 -58.4,267 -58.4,268.9 	"/>
	<polygon class="st33" points="-35,240.9 -66.3,267 -25.4,273.1 	"/>
	<polygon class="st34" points="-35,240.9 -1.7,257.4 -25.4,273.1 	"/>
</g>
</svg>
