<?xml version="1.0" encoding="utf-8"?>
<!-- Generator: Adobe Illustrator 19.1.0, SVG Export Plug-In . SVG Version: 6.00 Build 0)  -->
<svg version="1.1" id="Layer_1" xmlns="http://www.w3.org/2000/svg" xmlns:xlink="http://www.w3.org/1999/xlink" x="0px" y="0px"
	 viewBox="120 81 800 800" style="enable-background:new 120 81 800 800;" xml:space="preserve">
<style type="text/css">
	.st0{fill:url(#SVGID_1_);}
	.st1{fill:#37BEC0;stroke:#87D8D9;stroke-width:12;stroke-miterlimit:10;}
	.st2{fill:none;stroke:#37BEC0;stroke-width:9;stroke-linecap:round;stroke-linejoin:round;stroke-miterlimit:10;}
	.st3{fill:none;stroke:#FFFFFF;stroke-width:20;stroke-linecap:round;stroke-linejoin:round;stroke-miterlimit:10;}
	.st4{fill:#87D8D9;stroke:#37BEC0;stroke-width:12;stroke-miterlimit:10;}
	.st5{fill:#FAAD40;}
	.st6{fill:#F9E8D8;}
	.st7{fill:#BC842C;}
	.st8{fill:#461A00;}
	.st9{fill:#FBB03B;}
	.st10{opacity:0.4;fill:#542700;enable-background:new    ;}
	.st11{opacity:0.2;enable-background:new    ;}
	.st12{fill:#603813;}
	.st13{opacity:0.3;fill:#FFFFFF;enable-background:new    ;}
	.st14{fill:#ED4F7E;}
	.st15{fill:#0EA2DC;}
	.st16{opacity:0.4;fill:#FFFFFF;enable-background:new    ;}
	.st17{fill:#BBAEA2;}
	.st18{fill:#FFFFFF;}
	.st19{opacity:0.2;fill:#FFFFFF;enable-background:new    ;}
	.st20{fill:#FFFFFF;stroke:#37BEC0;stroke-width:9;stroke-miterlimit:10;}
	.st21{enable-background:new    ;}
</style>
<g id="Now">
</g>
<radialGradient id="SVGID_1_" cx="519.65" cy="472.2" r="308.9" gradientTransform="matrix(1 0 0 1 0 4)" gradientUnits="userSpaceOnUse">
	<stop  offset="0.4663" style="stop-color:#37BEC0"/>
	<stop  offset="1" style="stop-color:#FFFFFF;stop-opacity:0"/>
</radialGradient>
<circle class="st0" cx="519.7" cy="476.2" r="308.9"/>
<circle class="st1" cx="519.7" cy="476.2" r="175.7"/>
<g>
	<path class="st2" d="M697.2,774.9h-165c-10.2,0-18.5-8.3-18.5-18.5l0,0c0-10.2-8.3-18.5-18.5-18.5h-134"/>
	<polyline class="st2" points="384.3,722.6 356.9,737.9 384.3,753.2 	"/>
	<polyline class="st2" points="648.8,722.6 676.2,737.9 648.8,753.2 	"/>
</g>
<g>
	<g>
		<path class="st3" d="M335.9,774.9h165c10.2,0,18.5-8.3,18.5-18.5l0,0c0-10.2,8.3-18.5,18.5-18.5h134"/>
		<path class="st2" d="M335.9,774.9h165c10.2,0,18.5-8.3,18.5-18.5l0,0c0-10.2,8.3-18.5,18.5-18.5h134"/>
	</g>
	<polyline class="st2" points="648.8,722.6 676.2,737.9 648.8,753.2 	"/>
</g>
<g>
	<path class="st2" d="M697.2,181h-165c-10.2,0-18.5,8.3-18.5,18.5l0,0c0,10.2-8.3,18.5-18.5,18.5h-134"/>
	<polyline class="st2" points="384.3,233.3 356.9,218 384.3,202.6 	"/>
	<polyline class="st2" points="648.8,233.3 676.2,218 648.8,202.6 	"/>
</g>
<g>
	<g>
		<path class="st3" d="M335.9,181h165c10.2,0,18.5,8.3,18.5,18.5l0,0c0,10.2,8.3,18.5,18.5,18.5h134"/>
		<path class="st2" d="M335.9,181h165c10.2,0,18.5,8.3,18.5,18.5l0,0c0,10.2,8.3,18.5,18.5,18.5h134"/>
	</g>
	<polyline class="st2" points="648.8,233.3 676.2,218 648.8,202.6 	"/>
</g>
<g>
	<path class="st2" d="M219.6,297.3v165c0,10.2,8.3,18.5,18.5,18.5l0,0c10.2,0,18.5,8.3,18.5,18.5v134"/>
	<polyline class="st2" points="271.9,610.3 256.6,637.6 241.3,610.3 	"/>
	<polyline class="st2" points="271.9,345.6 256.6,318.3 241.3,345.6 	"/>
</g>
<g>
	<g>
		<path class="st3" d="M219.6,658.6v-165c0-10.2,8.3-18.5,18.5-18.5l0,0c10.2,0,18.5-8.3,18.5-18.5v-134"/>
		<path class="st2" d="M219.6,658.6v-165c0-10.2,8.3-18.5,18.5-18.5l0,0c10.2,0,18.5-8.3,18.5-18.5v-134"/>
	</g>
	<polyline class="st2" points="271.9,345.6 256.6,318.3 241.3,345.6 	"/>
</g>
<g>
	<path class="st2" d="M813.6,297.3v165c0,10.2-8.3,18.5-18.5,18.5l0,0c-10.2,0-18.5,8.3-18.5,18.5v134"/>
	<polyline class="st2" points="761.2,610.3 776.6,637.6 791.8,610.3 	"/>
	<polyline class="st2" points="761.2,345.6 776.6,318.3 791.8,345.6 	"/>
</g>
<g>
	<g>
		<path class="st3" d="M813.6,658.6v-165c0-10.2-8.3-18.5-18.5-18.5l0,0c-10.2,0-18.5-8.3-18.5-18.5v-134"/>
		<path class="st2" d="M813.6,658.6v-165c0-10.2-8.3-18.5-18.5-18.5l0,0c-10.2,0-18.5-8.3-18.5-18.5v-134"/>
	</g>
	<polyline class="st2" points="761.2,345.6 776.6,318.3 791.8,345.6 	"/>
</g>
<circle class="st4" cx="248.4" cy="755.3" r="96.6"/>
<circle class="st4" cx="248.4" cy="197.3" r="96.6"/>
<g>
	<path class="st5" d="M225.4,764c0,0-2.1,3.4-1.6,4.4s-2.1,21.2-2.1,21.2h5.3c0,0,2.1-17.6,2.8-19.7c0.8-2.1,2.8-4.8,2.8-4.8
		L225.4,764z"/>
	<path class="st5" d="M279.3,764c0,0,2.1,3.4,1.6,4.4s2.2,21.2,2.2,21.2h-5.3c0,0-2.1-17.6-2.8-19.7c-0.8-2.1-2.8-4.8-2.8-4.8
		L279.3,764z"/>
	<path class="st6" d="M246.8,734.4c0,0-11.4,3.2-13.6,4.8c-2.2,1.6-10.1,21.5-10.1,24.2s7.8,4.2,9.5,4.5c1.6,0.2,3.9-6.2,3.9-6.2
		l0.6,27.9H268l-0.4-29.2c0,0,2.8,7.7,3.7,7.6c0.9-0.1,8.8-2.4,10.4-3.3c1.5-0.9-6.4-24-8.7-25.4s-15.6-4.9-18.1-4.8
		C252.1,734.5,246.8,734.4,246.8,734.4z"/>
	<g>
		<g>
			<g>
				<g>
					<path class="st7" d="M251.6,728.2c0,0,4.6-0.9,4.6,4.3c0,4,6,7.1-4.6,7.1"/>
				</g>
			</g>
			<g>
				<g>
					<path class="st7" d="M251.6,728.2c0,0-4.6-0.9-4.6,4.3c0,4-6,7.1,4.6,7.1"/>
				</g>
			</g>
		</g>
	</g>
	<g>
		<path class="st5" d="M251.2,732.2c-15.2,0-12.9-25.4-11.6-30.9c1.2-5.1,11.6-4.9,11.6-4.9s10.3-0.1,11.6,4.9
			C264.1,706.8,266.4,732.2,251.2,732.2z"/>
		<circle class="st8" cx="257.4" cy="709.1" r="1.1"/>
		<path class="st9" d="M265.9,709.3c0,3.2,0.2,5.8-2.1,5.8c-2.3,0-0.9-2.6-0.9-5.8s0.4-5.8,0.9-5.8S265.9,706.1,265.9,709.3z"/>
		<circle class="st8" cx="245.1" cy="709.1" r="1.1"/>
		<path class="st10" d="M248.4,715c0.1,2.6,1.2,5.7,2.8,5.7s2.7-3,2.8-5.7c0,0-1.1,2.1-2.8,2.1C249.5,717.1,248.4,715,248.4,715z"/>
		<path class="st9" d="M236.6,709.3c0,3.2-0.2,5.8,2.1,5.8s0.9-2.6,0.9-5.8s-0.4-5.8-0.9-5.8S236.6,706.1,236.6,709.3z"/>
		<path class="st11" d="M240,704.7c0,0,3.5-1.7,6.1-1.1s5.7,0.9,7.9,1.1c2.2,0.2,3.3-1.3,3.3-1.3s3.1,4.2,4.5,4.6c1.3,0.4,0,0,0,0
			v-12.7l-22,5.1L240,704.7z"/>
		<path class="st12" d="M238.5,704.3c1.2-0.8,0.4,2.4,1.5,3.7s1.8-4.6,2.1-6.1c0.4-1.5,7,0,10.7,0.6c3.8,0.6,5.9-4.8,5.9-4.8
			s-0.5,5.7,0.5,6.7c1,1,2,5.1,2.9,5.1s0.2-3.3,1.1-3.2s2.6,1.9,2.6,1.9s2-8.2-0.8-11.9c-1-1.3-6.6-8.3-12-7.8
			c-9.6,0.8-13.8,3.4-15.7,7.8c-1.9,4.4-0.8,10-0.8,10l0.6,1.1C237.2,707.4,237.3,705.1,238.5,704.3z"/>
		<path class="st13" d="M238.7,699c0,0,0.8-3.6,3.3-5.1c2.5-1.4,11.6-2.9,11.6-2.9s2.4,2.7,0,4s-10.1,2.5-10.1,2.5L238.7,699z"/>
	</g>
</g>
<g>
	<path class="st5" d="M450.1,543.1c0,0-5.6,8.5-4.3,11c1.3,2.5-5.7,55.5-5.7,55.5h14c0,0,5.5-46,7.5-51.5s7.5-12.5,7.5-12.5
		L450.1,543.1z"/>
	<path class="st5" d="M592.1,543.1c0,0,5.6,8.5,4.3,11c-1.3,2.5,5.7,55.5,5.7,55.5h-14c0,0-5.5-46-7.5-51.5s-7.5-12.5-7.5-12.5
		L592.1,543.1z"/>
	<path class="st6" d="M506.3,464.9c0,0-30.1,8.4-35.8,12.7c-5.7,4.3-26.7,56.7-26.7,63.8s20.6,11.1,25,11.8
		c4.3,0.7,10.3-16.6,10.3-16.6l1.5,73h81.5l-1-76.6c0,0,7.4,20.5,9.7,20.3c2.3-0.3,23.3-6.3,27.3-8.7c3.9-2.2-17-63.3-23-67
		s-41-13-47.9-12.7C520.3,465.3,506.3,464.9,506.3,464.9z"/>
	<g>
		<g>
			<g>
				<g>
					<path class="st7" d="M519.1,448.6c0,0,12-2.4,12,11.3c0,10.7,15.7,18.7-12,18.7"/>
				</g>
			</g>
			<g>
				<g>
					<path class="st7" d="M519.1,448.6c0,0-12-2.4-12,11.3c0,10.7-15.7,18.7,12,18.7"/>
				</g>
			</g>
		</g>
	</g>
	<g>
		<path class="st5" d="M518.1,459.1c-40,0-34-67-30.5-81.5c3.2-13.3,30.5-13,30.5-13s27.3-0.3,30.5,13
			C552.1,392.1,558.1,459.1,518.1,459.1z"/>
		<circle class="st8" cx="534.2" cy="398.4" r="2.9"/>
		<path class="st9" d="M556.7,398.8c0,8.4,0.5,15.2-5.5,15.2s-2.4-6.8-2.4-15.2c0-8.4,1.1-15.2,2.4-15.2S556.7,390.4,556.7,398.8z"
			/>
		<circle class="st8" cx="501.9" cy="398.4" r="2.9"/>
		<path class="st10" d="M510.6,413.9c0.3,7,3.2,15,7.5,15c4.3,0,7.2-8,7.5-15c0,0-2.8,5.5-7.5,5.5
			C513.3,419.4,510.6,413.9,510.6,413.9z"/>
		<path class="st9" d="M479.5,398.8c0,8.4-0.5,15.2,5.5,15.2s2.4-6.8,2.4-15.2c0-8.4-1.1-15.2-2.4-15.2S479.5,390.4,479.5,398.8z"/>
		<path class="st11" d="M488.6,386.6c0,0,9.2-4.5,16.1-3s15,2.5,20.9,3s8.8-3.3,8.8-3.3s8.3,11.1,11.8,12.2c3.5,1.1,0,0,0,0V362
			l-58,13.3L488.6,386.6z"/>
		<path class="st12" d="M484.5,385.6c3.1-2,0.9,6.3,3.9,9.7c3,3.3,4.7-12,5.7-16s18.3,0,28.3,1.7s15.7-12.7,15.7-12.7
			s-1.3,15,1.3,17.7c2.7,2.7,5.2,13.5,7.7,13.5s0.6-8.8,2.9-8.4c2.3,0.3,6.7,5,6.7,5s5.3-21.6-2-31.3c-2.6-3.4-17.4-21.8-31.7-20.7
			c-25.2,2-36.3,9-41.3,20.7s-2.2,26.3-2.2,26.3l1.5,2.8C481,393.7,481.4,387.6,484.5,385.6z"/>
		<path class="st13" d="M485.1,371.7c0,0,2-9.6,8.7-13.3c6.7-3.7,30.7-7.6,30.7-7.6s6.3,7.1,0,10.5c-6.3,3.4-26.5,6.7-26.5,6.7
			L485.1,371.7z"/>
	</g>
</g>
<g>
	<path class="st5" d="M187.7,775.8c0,0-2.1,3-1.6,4c0.5,0.9-2.2,20.9-2.2,20.9h5.3c0,0,2.1-17.2,2.8-19.3c0.8-2.1,2.8-4.6,2.8-4.6
		L187.7,775.8z"/>
	<path class="st5" d="M241.5,775.8c0,0,2.1,3,1.6,4c-0.5,0.9,2.2,20.9,2.2,20.9H240c0,0-2.1-17.2-2.8-19.3c-0.8-2.1-2.8-4.6-2.8-4.6
		L241.5,775.8z"/>
	<path class="st6" d="M209,746.1c0,0-11.4,3.2-13.6,4.8s-10.1,21.5-10.1,24.2s7.8,4.2,9.5,4.5s3.9-6.5,3.9-6.5l0.6,27.5h30.9
		l-0.4-28.9c0,0,2.8,7.9,3.7,7.8c0.9-0.1,8.8-2.3,10.4-3.2c1.5-0.9-6.4-24-8.7-25.4s-15.6-4.9-18.1-4.8
		C214.3,746.2,209,746.1,209,746.1z"/>
	<g>
		<g>
			<g>
				<g>
					<path class="st7" d="M213.8,739.9c0,0,4.6-0.9,4.6,4.3c0,4,6,7.1-4.6,7.1"/>
				</g>
			</g>
			<g>
				<g>
					<path class="st7" d="M213.8,739.9c0,0-4.6-0.9-4.6,4.3c0,4-6,7.1,4.6,7.1"/>
				</g>
			</g>
		</g>
	</g>
	<g>
		<path class="st5" d="M213.5,743.9c-15.2,0-12.9-25.4-11.6-30.9c1.2-5.1,11.6-4.9,11.6-4.9s10.3-0.1,11.6,4.9
			C226.4,718.5,228.6,743.9,213.5,743.9z"/>
		<circle class="st8" cx="219.6" cy="720.9" r="1.1"/>
		<path class="st9" d="M228.1,721c0,3.2,0.2,5.8-2.1,5.8s-0.9-2.6-0.9-5.8s0.4-5.8,0.9-5.8C226.5,715.3,228.1,717.9,228.1,721z"/>
		<circle class="st8" cx="207.3" cy="720.9" r="1.1"/>
		<path class="st10" d="M210.6,726.8c0.1,2.6,1.2,5.7,2.8,5.7s2.7-3,2.8-5.7c0,0-1.1,2.1-2.8,2.1S210.6,726.8,210.6,726.8z"/>
		<path class="st9" d="M198.8,721c0,3.2-0.2,5.8,2.1,5.8s0.9-2.6,0.9-5.8s-0.4-5.8-0.9-5.8S198.8,717.9,198.8,721z"/>
		<path class="st11" d="M202.3,716.4c0,0,3.5-1.7,6.1-1.1c2.6,0.6,5.7,0.9,7.9,1.1s3.3-1.3,3.3-1.3s3.1,4.2,4.5,4.6c1.3,0.4,0,0,0,0
			V707l-22,5.1L202.3,716.4z"/>
		<path class="st12" d="M200.7,716c1.2-0.8,0.4,2.4,1.5,3.7s1.8-4.6,2.1-6.1c0.4-1.5,7,0,10.7,0.6c3.8,0.6,5.9-4.8,5.9-4.8
			s-0.5,5.7,0.5,6.7s2,5.1,2.9,5.1s0.2-3.3,1.1-3.2c0.9,0.1,2.6,1.9,2.6,1.9s2-8.2-0.8-11.9c-1-1.3-6.6-8.3-12-7.8
			c-9.6,0.8-13.8,3.4-15.7,7.8c-1.9,4.4-0.8,10-0.8,10l0.6,1.1C199.4,719.1,199.5,716.8,200.7,716z"/>
		<path class="st13" d="M200.9,710.7c0,0,0.8-3.6,3.3-5.1c2.5-1.4,11.6-2.9,11.6-2.9s2.4,2.7,0,4s-10.1,2.5-10.1,2.5L200.9,710.7z"
			/>
	</g>
</g>
<g>
	<path class="st5" d="M255.7,775.8c0,0-2.1,3-1.6,4c0.5,0.9-2.2,20.9-2.2,20.9h5.3c0,0,2.1-17.2,2.8-19.3c0.8-2.1,2.8-4.6,2.8-4.6
		L255.7,775.8z"/>
	<path class="st5" d="M309.5,775.8c0,0,2.1,3,1.6,4c-0.5,0.9,2.2,20.9,2.2,20.9H308c0,0-2.1-17.2-2.8-19.3c-0.8-2.1-2.8-4.6-2.8-4.6
		L309.5,775.8z"/>
	<path class="st6" d="M277,746.1c0,0-11.4,3.2-13.6,4.8s-10.1,21.5-10.1,24.2s7.8,4.2,9.5,4.5c1.6,0.2,3.9-6.5,3.9-6.5l0.6,27.5
		h30.8l-0.4-28.9c0,0,2.8,7.9,3.7,7.8c0.9-0.1,8.8-2.3,10.4-3.2c1.5-0.9-6.4-24-8.7-25.4s-15.6-4.9-18.1-4.8
		C282.3,746.2,277,746.1,277,746.1z"/>
	<g>
		<g>
			<g>
				<g>
					<path class="st7" d="M281.8,739.9c0,0,4.6-0.9,4.6,4.3c0,4,6,7.1-4.6,7.1"/>
				</g>
			</g>
			<g>
				<g>
					<path class="st7" d="M281.8,739.9c0,0-4.6-0.9-4.6,4.3c0,4-6,7.1,4.6,7.1"/>
				</g>
			</g>
		</g>
	</g>
	<g>
		<path class="st5" d="M281.5,743.9c-15.2,0-12.9-25.4-11.6-30.9c1.2-5.1,11.6-4.9,11.6-4.9s10.3-0.1,11.6,4.9
			C294.4,718.5,296.6,743.9,281.5,743.9z"/>
		<circle class="st8" cx="287.6" cy="720.9" r="1.1"/>
		<path class="st9" d="M296.1,721c0,3.2,0.2,5.8-2.1,5.8s-0.9-2.6-0.9-5.8s0.4-5.8,0.9-5.8S296.1,717.9,296.1,721z"/>
		<circle class="st8" cx="275.3" cy="720.9" r="1.1"/>
		<path class="st10" d="M278.6,726.8c0.1,2.6,1.2,5.7,2.8,5.7c1.6,0,2.7-3,2.8-5.7c0,0-1.1,2.1-2.8,2.1S278.6,726.8,278.6,726.8z"/>
		<path class="st9" d="M266.8,721c0,3.2-0.2,5.8,2.1,5.8c2.3,0,0.9-2.6,0.9-5.8s-0.4-5.8-0.9-5.8C268.4,715.3,266.8,717.9,266.8,721
			z"/>
		<path class="st11" d="M270.3,716.4c0,0,3.5-1.7,6.1-1.1c2.6,0.6,5.7,0.9,7.9,1.1c2.2,0.2,3.3-1.3,3.3-1.3s3.1,4.2,4.5,4.6
			c1.3,0.4,0,0,0,0V707l-22,5.1L270.3,716.4z"/>
		<path class="st12" d="M268.7,716c1.2-0.8,0.4,2.4,1.5,3.7s1.8-4.6,2.1-6.1c0.4-1.5,7,0,10.7,0.6c3.8,0.6,5.9-4.8,5.9-4.8
			s-0.5,5.7,0.5,6.7s2,5.1,2.9,5.1s0.2-3.3,1.1-3.2s2.6,1.9,2.6,1.9s2-8.2-0.8-11.9c-1-1.3-6.6-8.3-12-7.8
			c-9.6,0.8-13.8,3.4-15.7,7.8c-1.9,4.4-0.8,10-0.8,10l0.6,1.1C267.4,719.1,267.5,716.8,268.7,716z"/>
		<path class="st13" d="M268.9,710.7c0,0,0.8-3.6,3.3-5.1c2.5-1.4,11.6-2.9,11.6-2.9s2.4,2.7,0,4s-10.1,2.5-10.1,2.5L268.9,710.7z"
			/>
	</g>
</g>
<g>
	<polyline class="st2" points="371,308.2 340.9,299.7 349.4,329.8 	"/>
	<polyline class="st2" points="389.5,327.3 398,357.5 367.8,349 	"/>
	<line class="st2" x1="398" y1="357.5" x2="345" y2="303.2"/>
</g>
<g>
	<polyline class="st2" points="670.8,308.2 701,299.7 692.5,329.8 	"/>
	<polyline class="st2" points="652.3,327.3 643.8,357.5 674,349 	"/>
	<line class="st2" x1="643.8" y1="357.5" x2="696.8" y2="303.2"/>
</g>
<g>
	<polyline class="st2" points="371,701 340.9,709.5 349.4,679.3 	"/>
	<polyline class="st2" points="389.5,681.8 398,651.7 367.8,660.2 	"/>
	<line class="st2" x1="398" y1="651.7" x2="345" y2="706"/>
</g>
<g>
	<polyline class="st2" points="670.8,701 701,709.5 692.5,679.3 	"/>
	<polyline class="st2" points="652.3,681.8 643.8,651.7 674,660.2 	"/>
	<line class="st2" x1="643.8" y1="651.7" x2="696.8" y2="706"/>
</g>
<circle class="st4" cx="797.3" cy="197.3" r="96.6"/>
<circle class="st4" cx="797.3" cy="755.3" r="96.6"/>
<g>
	<path class="st14" d="M811.5,212.2l-33.1,33c-7.6,7.6-20,7.6-27.7-0.1c-7.7-7.7-7.6-20.1,0-27.8l32.8-32.8L811.5,212.2z"/>
	<path class="st15" d="M809.8,213.8l33-33.1c7.6-7.6,7.6-20-0.1-27.7s-20.1-7.6-27.8,0l-32.8,32.8L809.8,213.8z"/>
	<path class="st16" d="M761.2,243.3c-5.4-6.2-4.8-15.7,1-21.5l54.6-54.6c3.1-3.1,3.1-8.2,0-11.3l0,0l-63.2,63.2
		c-6.3,6.3-6.6,16.7-0.3,23c3.4,3.5,7.9,5,12.2,4.7C764,245.9,762.6,244.7,761.2,243.3z"/>
	<path class="st11" d="M834.3,152.5c6.2,7.2,5.6,18.1-1.2,24.9l-55.8,55.8c-3.6,3.6-3.6,9.4,0,13l-7.3,7.3l73-73
		c7.3-7.3,7.6-19.3,0.3-26.6c-4-4-9.1-5.7-14.1-5.4C831.2,149.5,833,150.8,834.3,152.5z"/>
</g>
<g>
	<rect x="725.7" y="735.5" class="st17" width="142.9" height="61.7"/>
	<rect x="736.8" y="735.5" class="st11" width="120.5" height="61.7"/>
	<rect x="746.3" y="699.9" class="st6" width="101.4" height="97.3"/>
	<polygon class="st11" points="838.7,731.3 754.3,731.3 751.5,728.1 842.7,706.2 842.7,728.1 	"/>
	<rect x="751.5" y="706.2" class="st15" width="91.2" height="21.9"/>
	<g>
		<rect x="794.2" y="708.5" class="st18" width="5.9" height="16.6"/>
		<rect x="788.8" y="713.9" class="st18" width="16.6" height="5.9"/>
	</g>
	<rect x="761.8" y="736.7" class="st11" width="70.3" height="59.8"/>
	<rect x="769.1" y="742.9" class="st11" width="55.9" height="53.7"/>
	<rect x="775" y="748.6" class="st11" width="44.1" height="48"/>
	<polygon class="st19" points="839.2,710.6 758.7,726.1 753.5,726.1 753.5,708.5 839.2,708.5 	"/>
</g>
<g>
	<path class="st20" d="M621.3,665.6H421c-12.9,0-23.4-10.5-23.4-23.4l0,0c0-12.9,10.5-23.4,23.4-23.4h200.4
		c12.9,0,23.4,10.5,23.4,23.4l0,0C644.8,655.1,634.2,665.6,621.3,665.6z"/>
	<g class="st21">
		<path d="M477.9,630.7h7.6c1.3,0,2.4,0.2,3.3,0.7c1.8,0.9,2.8,2.7,2.8,5c0,3.5-2,6.3-4.7,7.6c-1,0.5-2.1,0.7-3.2,0.7h-4.6l-1.4,7.3
			h-3.9L477.9,630.7z M483.3,641.3c0.8,0,1.5-0.1,2.1-0.4c1.4-0.7,2.3-2.2,2.3-4.1c0-1.6-1-2.7-2.9-2.7h-3.6l-1.4,7.3H483.3z"/>
		<path d="M501.2,642.4h0.6c0.1-0.4,0.1-0.6,0.1-0.8c0-1.3-0.7-2.1-2.5-2.1c-2.2,0-4.5,1.4-4.5,1.4L494,638c0,0,2.8-1.6,6.1-1.6
			c2.8,0,5.6,1.2,5.6,4.7c0,0.4-0.1,1-0.1,1.5l-1.8,9.4h-3.5l0.2-1.3c0.1-0.6,0.3-1.1,0.3-1.1h-0.1c0,0-1.7,2.8-5,2.8
			c-2.4,0-4.5-1.4-4.5-3.9C491.2,643.6,497.2,642.4,501.2,642.4z M497,649.4c2,0,3.9-2.2,4.3-4.1l0.1-0.3h-0.6
			c-1.7,0-5.7,0.3-5.7,2.8C495,648.7,495.6,649.4,497,649.4z"/>
		<path d="M509.3,646.1l1.2-6.1h-2l0.6-3h2.1l0.9-4.4h3.7l-0.9,4.4h3.5l-0.6,3h-3.5l-1.1,5.6c-0.1,0.5-0.1,1-0.1,1.2
			c0,1.7,1.3,2,2.4,2c0.5,0,0.8-0.1,0.8-0.1l-0.7,3.3c0,0-0.6,0.1-1.1,0.1c-2.8,0-5.4-1.1-5.4-4.7
			C509.1,647.1,509.2,646.6,509.3,646.1z"/>
		<path d="M521.7,636.7h3.8l-3,15.3h-3.8L521.7,636.7z M522.9,630.7h3.8l-0.7,3.4h-3.8L522.9,630.7z"/>
		<path d="M535.9,636.4c4.1,0,6.1,2.4,6.1,5.8c0,1.3-0.5,2.9-0.5,2.9H531c0,0.2,0,0.4,0,0.6c0,1.9,1.3,3.5,3.8,3.5s4.7-1.7,4.7-1.7
			l1,2.9c0,0-2.6,2-6,2c-4.8,0-7.4-2.9-7.4-6.6C527.1,640.6,530.8,636.4,535.9,636.4z M538.2,642.5c0,0,0.1-0.3,0.1-0.7
			c0-1.6-1-2.5-2.4-2.5c-2,0-3.5,1.3-4.3,3.2H538.2z"/>
		<path d="M546.3,636.7h3.7l-0.3,1.4c-0.1,0.8-0.4,1.5-0.4,1.5h0.1c0.8-1.4,3.1-3.2,5.8-3.2c2.7,0,4.6,1.2,4.6,4.2
			c0,0.6-0.2,1.3-0.3,2l-1.8,9.5h-3.8l1.7-8.9c0.1-0.5,0.2-1,0.2-1.4c0-1.3-0.7-1.9-1.9-1.9c-2.6,0-4.9,2.5-5.5,5.3l-1.3,6.9h-3.8
			L546.3,636.7z"/>
		<path d="M563.4,646.1l1.2-6.1h-2l0.6-3h2.1l0.9-4.4h3.7L569,637h3.5l-0.6,3h-3.5l-1.1,5.6c-0.1,0.5-0.1,1-0.1,1.2
			c0,1.7,1.3,2,2.4,2c0.5,0,0.8-0.1,0.8-0.1l-0.7,3.3c0,0-0.6,0.1-1.1,0.1c-2.8,0-5.4-1.1-5.4-4.7
			C563.2,647.1,563.3,646.6,563.4,646.1z"/>
	</g>
</g>
<g>
	<path class="st20" d="M870.2,317.3H729.8c-12.9,0-23.4-10.5-23.4-23.4l0,0c0-12.9,10.5-23.4,23.4-23.4h140.4
		c12.9,0,23.4,10.5,23.4,23.4l0,0C893.6,306.9,883.1,317.3,870.2,317.3z"/>
	<g class="st21">
		<path d="M751.7,282.5h7.6c1.3,0,2.4,0.2,3.3,0.7c1.8,0.9,2.8,2.7,2.8,5c0,3.5-2,6.3-4.7,7.6c-1,0.5-2.1,0.7-3.2,0.7h-4.7l-1.4,7.3
			h-3.9L751.7,282.5z M757.1,293.1c0.8,0,1.5-0.1,2.1-0.4c1.4-0.7,2.3-2.2,2.3-4.1c0-1.6-1-2.7-2.9-2.7h-3.6l-1.4,7.3H757.1z"/>
		<path d="M769.5,282.5h3.8l-1.4,7.4c-0.2,0.8-0.3,1.4-0.3,1.4h0.1c0.8-1.4,3.1-3.1,5.6-3.1c2.7,0,4.6,1.2,4.6,4.2
			c0,0.6-0.1,1.2-0.2,1.8l-1.9,9.7H776l1.7-8.9c0.1-0.5,0.2-1,0.2-1.4c0-1.3-0.7-1.9-1.9-1.9c-2.6,0-4.9,2.5-5.5,5.3l-1.4,6.9h-3.8
			L769.5,282.5z"/>
		<path d="M793.3,294.2h0.6c0.1-0.4,0.1-0.6,0.1-0.8c0-1.3-0.7-2.1-2.5-2.1c-2.2,0-4.5,1.4-4.5,1.4l-0.9-2.9c0,0,2.8-1.6,6.1-1.6
			c2.8,0,5.6,1.2,5.6,4.7c0,0.4-0.1,1-0.1,1.5l-1.8,9.4h-3.5l0.2-1.3c0.1-0.6,0.3-1.1,0.3-1.1h-0.1c0,0-1.7,2.8-5,2.8
			c-2.4,0-4.5-1.4-4.5-3.9C783.3,295.3,789.3,294.2,793.3,294.2z M789.1,301.2c2,0,3.9-2.2,4.3-4.1l0.1-0.3h-0.6
			c-1.7,0-5.7,0.3-5.7,2.8C787.1,300.4,787.8,301.2,789.1,301.2z"/>
		<path d="M802.8,288.5h3.7l-0.5,2.6c-0.1,0.6-0.3,1.1-0.3,1.1h0c1-2.1,3.1-4,5.5-4c0.5,0,0.9,0.1,0.9,0.1l-0.8,3.8
			c0,0-0.4-0.1-0.9-0.1c-2.3,0-5,2.5-5.7,6.3l-1,5.4h-3.8L802.8,288.5z"/>
		<path d="M814.6,288.5h3.7l-0.3,1.7c-0.1,0.6-0.3,1.2-0.3,1.2h0.1c1-1.5,3-3.2,5.4-3.2c2.4,0,3.7,1.1,4,3.1h0.1
			c1.1-1.6,3.3-3.1,5.6-3.1c2.7,0,4.3,1.3,4.3,4.1c0,0.6-0.1,1.3-0.2,2.1l-1.8,9.4h-3.8l1.7-9c0.1-0.6,0.1-1,0.1-1.4
			c0-1.1-0.4-1.8-1.7-1.8c-2.5,0-4.3,2.7-4.9,5.5l-1.3,6.7h-3.8l1.8-9c0.1-0.6,0.2-1,0.2-1.4c0-1.1-0.4-1.8-1.7-1.8
			c-2.4,0-4.4,2.7-4.9,5.5l-1.3,6.7h-3.8L814.6,288.5z"/>
		<path d="M848.6,294.2h0.6c0.1-0.4,0.1-0.6,0.1-0.8c0-1.3-0.7-2.1-2.5-2.1c-2.2,0-4.5,1.4-4.5,1.4l-0.9-2.9c0,0,2.8-1.6,6.1-1.6
			c2.8,0,5.6,1.2,5.6,4.7c0,0.4-0.1,1-0.2,1.5l-1.8,9.4h-3.5l0.2-1.3c0.1-0.6,0.3-1.1,0.3-1.1H848c0,0-1.7,2.8-5,2.8
			c-2.4,0-4.5-1.4-4.5-3.9C838.5,295.3,844.5,294.2,848.6,294.2z M844.3,301.2c2,0,3.9-2.2,4.3-4.1l0.1-0.3H848
			c-1.7,0-5.7,0.3-5.7,2.8C842.4,300.4,843,301.2,844.3,301.2z"/>
	</g>
</g>
<g>
	<path class="st20" d="M316.9,317.3H176.5c-12.9,0-23.4-10.5-23.4-23.4l0,0c0-12.9,10.5-23.4,23.4-23.4h140.4
		c12.9,0,23.4,10.5,23.4,23.4l0,0C340.3,306.9,329.8,317.3,316.9,317.3z"/>
	<g class="st21">
		<path d="M182.7,282.5h7.6c1.3,0,2.4,0.2,3.3,0.7c1.8,0.9,2.8,2.7,2.8,5c0,3.5-2,6.3-4.7,7.6c-1,0.5-2.1,0.7-3.2,0.7h-4.6l-1.4,7.3
			h-3.9L182.7,282.5z M188.1,293.1c0.8,0,1.5-0.1,2.1-0.4c1.4-0.7,2.3-2.2,2.3-4.1c0-1.6-1-2.7-2.9-2.7h-3.6l-1.4,7.3H188.1z"/>
		<path d="M199.4,288.5h3.7l-0.5,2.6c-0.1,0.6-0.3,1.1-0.3,1.1h0c1-2.1,3.1-4,5.5-4c0.5,0,0.9,0.1,0.9,0.1l-0.8,3.8
			c0,0-0.4-0.1-0.9-0.1c-2.3,0-5,2.5-5.7,6.3l-1,5.4h-3.8L199.4,288.5z"/>
		<path d="M217.9,288.1c4.4,0,7.5,2.7,7.5,6.8c0,5.4-4.7,9.3-9.5,9.3c-4.4,0-7.5-2.7-7.5-6.8C208.5,292,213.2,288.1,217.9,288.1z
			 M216,300.9c2.7,0,5.5-2.4,5.5-5.8c0-2.2-1.5-3.8-3.7-3.8c-2.7,0-5.6,2.5-5.6,5.8C212.3,299.4,213.9,300.9,216,300.9z"/>
		<path d="M227.8,288.5h3.8l1.3,9.5c0.1,0.6,0.1,2.3,0.1,2.3h0.1c0,0,0.5-1.4,1-2.3l5-9.5h4l-8.5,15.3h-4.3L227.8,288.5z"/>
		<path d="M245.3,288.5h3.8l-3,15.3h-3.8L245.3,288.5z M246.5,282.5h3.8l-0.7,3.4h-3.8L246.5,282.5z"/>
		<path d="M259.1,288.1c1.6,0,3.4,0.6,4.2,2.1h0.1c0,0,0-0.5,0.1-0.9l1.3-6.8h3.8l-4.1,21.3h-3.6l0.2-1.1c0.1-0.6,0.3-1.1,0.3-1.1
			h-0.1c-1,1.5-2.8,2.6-4.9,2.6c-3.7,0-5.8-2.5-5.8-6.4C250.6,292,254.7,288.1,259.1,288.1z M257.6,300.9c2.5,0,4.9-2.9,4.9-6.1
			c0-1.9-0.9-3.4-3-3.4c-2.3,0-4.9,2.3-4.9,6.1C254.5,299.6,255.7,300.9,257.6,300.9z"/>
		<path d="M277.9,288.1c4.1,0,6.1,2.4,6.1,5.8c0,1.3-0.5,2.9-0.5,2.9h-10.5c0,0.2,0,0.4,0,0.6c0,1.9,1.3,3.5,3.8,3.5
			s4.7-1.7,4.7-1.7l1,2.9c0,0-2.6,2-6,2c-4.8,0-7.4-2.9-7.4-6.6C269,292.4,272.8,288.1,277.9,288.1z M280.2,294.2
			c0,0,0.1-0.3,0.1-0.7c0-1.6-1-2.5-2.4-2.5c-2,0-3.5,1.3-4.3,3.2H280.2z"/>
		<path d="M288.3,288.5h3.7l-0.5,2.6c-0.1,0.6-0.3,1.1-0.3,1.1h0c1-2.1,3.1-4,5.5-4c0.5,0,0.9,0.1,0.9,0.1l-0.8,3.8
			c0,0-0.4-0.1-0.9-0.1c-2.3,0-5,2.5-5.7,6.3l-1,5.4h-3.8L288.3,288.5z"/>
		<path d="M298.3,299.4c0,0,1.5,1.5,4.1,1.5c1.2,0,2.5-0.5,2.5-1.6c0-2-6.4-1.9-6.4-6.4c0-3,3-4.8,6.1-4.8c3.5,0,5.3,1.7,5.3,1.7
			l-1.7,2.6c0,0-1.2-1.2-3.6-1.2c-1.1,0-2.5,0.5-2.5,1.7c0,1.9,6.4,1.9,6.4,6.4c0,2.8-2.6,4.8-6.1,4.8c-3.8,0-6.1-2.2-6.1-2.2
			L298.3,299.4z"/>
	</g>
</g>
<g>
	<path class="st20" d="M870.2,863.1H729.8c-12.9,0-23.4-10.5-23.4-23.4l0,0c0-12.9,10.5-23.4,23.4-23.4h140.4
		c12.9,0,23.4,10.5,23.4,23.4l0,0C893.6,852.6,883.1,863.1,870.2,863.1z"/>
	<g class="st21">
		<path d="M725.9,828.2h3.8l-4.1,21.3h-3.9L725.9,828.2z"/>
		<path d="M733.4,834.2h3.7l-0.3,1.4c-0.2,0.8-0.4,1.5-0.4,1.5h0.1c0.8-1.4,3.2-3.2,5.8-3.2c2.7,0,4.6,1.2,4.6,4.2
			c0,0.6-0.1,1.3-0.3,2l-1.8,9.5H741l1.7-8.9c0.1-0.5,0.2-1,0.2-1.4c0-1.3-0.7-1.9-1.9-1.9c-2.6,0-4.9,2.5-5.5,5.3l-1.3,6.9h-3.8
			L733.4,834.2z"/>
		<path d="M750,845.2c0,0,1.5,1.5,4.1,1.5c1.2,0,2.5-0.5,2.5-1.6c0-2-6.4-1.9-6.4-6.4c0-3,3-4.8,6.1-4.8c3.5,0,5.3,1.7,5.3,1.7
			l-1.7,2.6c0,0-1.2-1.2-3.6-1.2c-1.1,0-2.5,0.5-2.5,1.7c0,1.9,6.4,1.9,6.4,6.4c0,2.8-2.6,4.8-6.1,4.8c-3.8,0-6.1-2.2-6.1-2.2
			L750,845.2z"/>
		<path d="M764.1,843.6l1.2-6.1h-2l0.6-3h2.1l0.9-4.4h3.7l-0.9,4.4h3.5l-0.6,3h-3.5l-1.1,5.6c-0.1,0.5-0.1,1-0.1,1.2
			c0,1.7,1.3,2,2.4,2c0.5,0,0.8-0.1,0.8-0.1l-0.7,3.3c0,0-0.6,0.1-1.1,0.1c-2.8,0-5.4-1.1-5.4-4.7
			C763.9,844.6,764,844.1,764.1,843.6z"/>
		<path d="M776.5,834.2h3.8l-3,15.3h-3.8L776.5,834.2z M777.7,828.2h3.8l-0.7,3.4H777L777.7,828.2z"/>
		<path d="M783.3,843.6l1.2-6.1h-2l0.6-3h2.1l0.9-4.4h3.7l-0.9,4.4h3.5l-0.6,3h-3.5l-1.1,5.6c-0.1,0.5-0.1,1-0.1,1.2
			c0,1.7,1.3,2,2.4,2c0.5,0,0.8-0.1,0.8-0.1l-0.7,3.3c0,0-0.6,0.1-1.1,0.1c-2.8,0-5.4-1.1-5.4-4.7
			C783.1,844.6,783.2,844.1,783.3,843.6z"/>
		<path d="M793.6,843.9l1.9-9.6h3.8l-1.7,8.8c-0.1,0.6-0.2,1.2-0.2,1.6c0,1.1,0.5,1.8,1.9,1.8c2.6,0,4.8-2.6,5.3-5.3l1.3-6.9h3.8
			l-3,15.3h-3.7l0.3-1.4c0.1-0.8,0.4-1.5,0.4-1.5h-0.1c-0.9,1.4-3,3.2-5.7,3.2c-2.5,0-4.6-1.1-4.6-4.2
			C793.4,845.2,793.5,844.5,793.6,843.9z"/>
		<path d="M812.7,843.6l1.2-6.1h-2l0.6-3h2.1l0.9-4.4h3.7l-0.9,4.4h3.5l-0.6,3h-3.5l-1.1,5.6c-0.1,0.5-0.1,1-0.1,1.2
			c0,1.7,1.3,2,2.4,2c0.5,0,0.8-0.1,0.8-0.1l-0.7,3.3c0,0-0.6,0.1-1.1,0.1c-2.8,0-5.4-1.1-5.4-4.7
			C812.6,844.6,812.7,844.1,812.7,843.6z"/>
		<path d="M825.2,834.2h3.8l-3,15.3h-3.8L825.2,834.2z M826.3,828.2h3.8l-0.7,3.4h-3.8L826.3,828.2z"/>
		<path d="M839.9,833.9c4.4,0,7.5,2.7,7.5,6.8c0,5.4-4.7,9.3-9.5,9.3c-4.4,0-7.5-2.7-7.5-6.8C830.4,837.8,835.1,833.9,839.9,833.9z
			 M838,846.7c2.7,0,5.5-2.4,5.5-5.8c0-2.2-1.5-3.8-3.7-3.8c-2.7,0-5.6,2.5-5.6,5.8C834.3,845.2,835.8,846.7,838,846.7z"/>
		<path d="M851.8,834.2h3.7l-0.3,1.4c-0.1,0.8-0.4,1.5-0.4,1.5h0.1c0.8-1.4,3.1-3.2,5.8-3.2c2.7,0,4.6,1.2,4.6,4.2
			c0,0.6-0.2,1.3-0.3,2l-1.8,9.5h-3.8l1.7-8.9c0.1-0.5,0.2-1,0.2-1.4c0-1.3-0.7-1.9-1.9-1.9c-2.6,0-4.9,2.5-5.5,5.3l-1.3,6.9h-3.8
			L851.8,834.2z"/>
		<path d="M868.4,845.2c0,0,1.5,1.5,4.1,1.5c1.2,0,2.5-0.5,2.5-1.6c0-2-6.4-1.9-6.4-6.4c0-3,3-4.8,6.1-4.8c3.5,0,5.3,1.7,5.3,1.7
			l-1.7,2.6c0,0-1.2-1.2-3.6-1.2c-1.1,0-2.5,0.5-2.5,1.7c0,1.9,6.4,1.9,6.4,6.4c0,2.8-2.6,4.8-6.1,4.8c-3.8,0-6.1-2.2-6.1-2.2
			L868.4,845.2z"/>
	</g>
</g>
<g>
	<path class="st20" d="M311.5,863.1H171.1c-12.9,0-23.4-10.5-23.4-23.4l0,0c0-12.9,10.5-23.4,23.4-23.4h140.4
		c12.9,0,23.4,10.5,23.4,23.4l0,0C334.9,852.6,324.4,863.1,311.5,863.1z"/>
	<g class="st21">
		<path d="M200.6,828.2h12.2l-0.6,3.3h-8.4l-1.1,6h7l-0.6,3.3H202l-1.7,8.6h-3.8L200.6,828.2z"/>
		<path d="M221.2,839.9h0.6c0.1-0.4,0.1-0.6,0.1-0.8c0-1.3-0.7-2.1-2.5-2.1c-2.2,0-4.5,1.4-4.5,1.4l-0.9-2.9c0,0,2.8-1.6,6.1-1.6
			c2.8,0,5.6,1.2,5.6,4.7c0,0.4-0.1,1-0.1,1.5l-1.8,9.4h-3.5l0.2-1.3c0.1-0.6,0.3-1.1,0.3-1.1h-0.1c0,0-1.7,2.8-5,2.8
			c-2.4,0-4.5-1.4-4.5-3.9C211.2,841.1,217.2,839.9,221.2,839.9z M217,846.9c2,0,3.9-2.2,4.3-4.1l0.1-0.3h-0.6
			c-1.7,0-5.7,0.3-5.7,2.8C215,846.2,215.6,846.9,217,846.9z"/>
		<path d="M230.6,834.2h3.7l-0.3,1.7c-0.1,0.6-0.3,1.2-0.3,1.2h0.1c1-1.5,3-3.2,5.4-3.2c2.4,0,3.7,1.1,4,3.1h0.1
			c1.1-1.6,3.3-3.1,5.6-3.1c2.7,0,4.3,1.3,4.3,4.1c0,0.6-0.1,1.3-0.2,2.1l-1.8,9.4h-3.8l1.7-9c0.1-0.6,0.1-1,0.1-1.4
			c0-1.1-0.4-1.8-1.7-1.8c-2.5,0-4.3,2.7-4.9,5.5l-1.3,6.7h-3.8l1.8-9c0.1-0.6,0.1-1,0.1-1.4c0-1.1-0.4-1.8-1.7-1.8
			c-2.4,0-4.4,2.7-4.9,5.5l-1.3,6.7h-3.8L230.6,834.2z"/>
		<path d="M258,834.2h3.8l-3,15.3h-3.8L258,834.2z M259.2,828.2h3.8l-0.7,3.4h-3.8L259.2,828.2z"/>
		<path d="M263.8,844.5l3.1-16.3h3.8l-3,15.7c-0.1,0.4-0.2,1-0.2,1.2c0,1,0.7,1.1,1.3,1.1c0.3,0,0.5,0,0.5,0l-0.7,3.3
			c0,0-0.5,0.1-1.1,0.1c-2,0-4-0.8-4-3.6C263.6,845.6,263.7,845.1,263.8,844.5z"/>
		<path d="M271.7,852.6c1.1,0,2.2-0.6,3-2l0.9-1.4l-3.5-15.1h4l1.7,9.3c0.1,0.8,0.2,1.9,0.2,1.9h0.1c0,0,0.5-1.1,0.9-1.9l4.8-9.3
			h4.3l-10.3,17.6c-1.6,2.8-3.8,4-5.8,4s-3.5-1.1-3.5-1.1l1.7-2.7C270.1,852.1,270.7,852.6,271.7,852.6z"/>
	</g>
</g>
<g>
	<path class="st14" d="M283.6,181.6h-19.5v-19.3c0-4.3-3.3-7.7-7.6-7.7h-22.7c-4.3,0-7.7,3.4-7.7,7.7v19.3h-19.4
		c-4.3,0-7.6,3.5-7.6,7.7V212c0,4.3,3.4,7.5,7.6,7.5h19.4V239c0,4.3,3.4,7.5,7.7,7.5h22.7c4.3,0,7.6-3.2,7.6-7.5v-19.4h19.5
		c4.3,0,7.5-3.3,7.5-7.5v-22.7C291.1,185.1,287.9,181.6,283.6,181.6z"/>
	<path class="st19" d="M260.1,163.6h-20.3c-2,0-3.7,1.4-3.7,3.5v19.8c0,2.2-3.6,3.7-5.9,3.7H212c-2.1,0-3.9,2-3.9,4v22.5
		c0,0-5-0.2-5-4.8c0-3.7,0-22.9,0-22.9c0-2,1.5-3.7,3.6-3.7h19.5c2.2,0,3.9-1.7,3.9-3.9v-19.5c0-2.1,1.7-3.7,3.7-3.7h22.7
		c2,0,3.6,1.7,3.6,3.8V163.6z"/>
	<path class="st11" d="M264.4,189.9c0-2.3,1.9-4.2,4.2-4.2h15c2.1,0,3.7,1.6,3.7,3.6V212c0,2.1-1.7,3.8-3.7,3.8h-19.2
		c-2.2,0-4,1.8-4,4V239c0,2-1.8,3.7-3.8,3.7h-22.7c-2,0-3.6-1.6-3.6-3.7v-14.1c0-2.8,2.3-5.1,5.1-5.1h13.5c2.4,0,4.3-1.9,4.3-4.3
		v-0.9c0-3.6,2.9-6.5,6.5-6.5h0.5c2.4,0,4.3-1.9,4.3-4.3L264.4,189.9L264.4,189.9z"/>
</g>
</svg>
