<?xml version="1.0" encoding="utf-8"?>
<!-- Generator: Adobe Illustrator 19.2.0, SVG Export Plug-In . SVG Version: 6.00 Build 0)  -->
<svg version="1.1" id="Layer_1" xmlns="http://www.w3.org/2000/svg" xmlns:xlink="http://www.w3.org/1999/xlink" x="0px" y="0px"
	 viewBox="0 0 364.5 282.8" style="enable-background:new 0 0 364.5 282.8;" xml:space="preserve">
<style type="text/css">
	.st0{opacity:0.15;}
	.st1{fill:#1C74A0;}
</style>
<g>
	<g class="st0">
		<g>
			<path d="M363.2,31.7c-3.1,6.3-10.6,8.9-16.9,5.8c-7-3.4-8.7-11.6-5.6-17.4l9,8.3c0.7,0.7,1.9,0.3,2.3-0.4l6.2-12.7
				C363.8,18.6,366.1,25.7,363.2,31.7z M340.4,15.8c-0.4-0.4-0.4-1-0.1-1.4c4-4.6,10.5-6.1,15.7-3.5c0.5,0.2,0.6,0.8,0.4,1.3
				L350.3,25L340.4,15.8z"/>
		</g>
	</g>
	<g class="st0">
		<g>
			<path d="M156.2,116.9c0.2-0.3,0.6-0.4,0.9-0.2c2.5,0.8,4.9,2.2,6.9,3.9c0.3,0.2,0.4,0.6,0.2,0.9l-1.7,5c1,1.2,1.8,2.6,2.4,4.1
				l5.2,1c0.3,0.1,0.6,0.3,0.7,0.7c0.2,1.3,0.4,2.6,0.4,3.9c0,1.3-0.1,2.6-0.4,3.9c0,0.3-0.3,0.6-0.7,0.7l-5.2,1
				c-0.6,1.5-1.4,2.9-2.4,4.1l1.7,5c0.1,0.3,0,0.7-0.2,0.9c-2,1.7-4.4,3.1-6.9,3.9c-0.3,0.1-0.7,0-0.9-0.2l-3.5-4
				c-0.8,0.1-1.6,0.2-2.4,0.2c-0.8,0-1.6,0-2.4-0.2l-3.5,4c-0.2,0.3-0.6,0.4-0.9,0.2c-2.5-0.8-4.9-2.2-6.9-3.9
				c-0.3-0.2-0.4-0.6-0.2-0.9l1.7-5c-1-1.2-1.8-2.6-2.4-4.1l-5.2-1c-0.3-0.1-0.6-0.3-0.7-0.7c-0.5-2.6-0.5-5.3,0-7.9
				c0-0.3,0.3-0.6,0.7-0.7l5.2-1c0.6-1.5,1.4-2.9,2.4-4.1l-1.7-5c-0.1-0.3,0-0.7,0.2-0.9c2-1.7,4.4-3.1,6.9-3.9
				c0.3-0.1,0.7,0,0.9,0.2l3.5,4c0.8-0.1,1.6-0.2,2.4-0.2c0.8,0,1.6,0,2.4,0.2L156.2,116.9z M150.3,128.5c-4.3,0-7.8,3.5-7.8,7.8
				c0,4.3,3.5,7.8,7.8,7.8c4.3,0,7.8-3.5,7.8-7.8C158.1,132,154.6,128.5,150.3,128.5z"/>
		</g>
	</g>
	<g class="st0">
		<g>
			<path d="M277.9,279.3c-0.6,0.1-1.3,0.1-1.9,0.1c-1,1.3-3,3.2-5.7,3.5c-0.2,0-0.4-0.1-0.5-0.2c-0.1-0.2-0.1-0.4,0.1-0.5
				c0,0,1.2-1.5,1.3-3.9c-2.9-1.4-5-3.8-5.3-6.8c-0.5-5,4-9.5,10.2-10.1c6.1-0.6,11.5,2.9,11.9,7.9
				C288.5,274.1,284,278.7,277.9,279.3z"/>
		</g>
	</g>
	<g class="st0">
		<g>
			<path d="M13.4,220.9c-0.3,0.1-0.6,0-0.8-0.2c-0.2-0.2-0.4-0.5-0.4-0.7c-0.2-2.3,0.6-4.5,2.2-6.3c0.4-0.4,0.9-0.8,1.5-1.3
				c1-0.8,2.1-1.7,2.1-2.5c0-0.7-0.7-1.4-1.4-1.9c-3.1-2.6-4.4-5.5-3.8-8.3c0.5-2.1,2.1-3.7,4.2-4.4c2.1-0.7,4.4-0.2,6,1.2
				c2.1,1.9,2.7,5,1.6,8.9c-0.3,0.8-0.4,1.8-0.1,2.4c0.5,0.7,1.9,0.8,3.1,0.9c0.7,0.1,1.4,0.1,1.9,0.2c2.3,0.6,4.2,2,5.4,4
				c0.1,0.2,0.2,0.5,0.1,0.8c-0.1,0.3-0.2,0.5-0.5,0.6c-0.1,0.1-2.9,1.3-10.4,3.7C16.4,220.4,13.5,220.8,13.4,220.9z M28.7,202.6
				l-0.6-1.8l7.3-2.2l0.6,1.8L28.7,202.6z M34.3,194.9l0.6,1.8l-7.3,2.2l-0.6-1.8L34.3,194.9z"/>
		</g>
	</g>
	<g class="st0">
		<g>
			<path d="M295.2,148.6c-0.3-0.1-0.4-0.3-0.6-0.5c-0.1-0.2-0.1-0.5,0-0.7c0.7-1.9,2.3-3.3,4.2-4c0.5-0.2,1.1-0.3,1.7-0.4
				c1.1-0.2,2.3-0.5,2.6-1.1c0.3-0.5,0-1.4-0.3-2c-1.4-3.3-1.3-5.9,0.3-7.8c1.2-1.4,3.1-2.1,5-1.8c1.9,0.3,3.5,1.6,4.2,3.3
				c0.9,2.3,0.1,4.8-2.3,7.4c-0.5,0.5-1.1,1.2-1,1.8c0.1,0.7,1.2,1.3,2.1,1.9c0.5,0.3,1,0.6,1.4,1c1.6,1.4,2.6,3.2,2.7,5.2
				c0,0.3-0.1,0.5-0.3,0.7c-0.2,0.2-0.4,0.3-0.7,0.3c-0.1,0-2.8-0.1-9.6-1.3C297.9,149.4,295.3,148.6,295.2,148.6z M323.2,149.1
				c-0.2,0.2-0.4,0.3-0.7,0.3c-0.1,0-1.6,0-5.1-0.5c-0.5-1.9-1.6-3.6-3.2-5c-0.6-0.5-1.2-0.8-1.8-1.2c-0.1-0.1-0.3-0.2-0.4-0.3
				c3.7-4.1,3.8-7.6,2.9-9.8c-0.6-1.5-1.3-2.6-2.6-3.5c1.2-1.1,2.3-1.7,4-1.4c1.9,0.3,3.5,1.6,4.2,3.3c0.9,2.3,0.1,4.8-2.3,7.4
				c-0.5,0.5-1.1,1.2-1,1.8c0.1,0.7,1.2,1.3,2.1,1.9c0.5,0.3,1,0.6,1.4,1c1.6,1.4,2.6,3.2,2.7,5.2
				C323.4,148.7,323.3,148.9,323.2,149.1z"/>
		</g>
	</g>
	<g class="st0">
		<g>
			<path d="M141.4,54.6l-3.8,1.3l-4.8-13.5l3.8-1.3L141.4,54.6z M156.4,37.3l0.5,1.7c2,7.5,2.5,9.3-4.5,11.8
				c-3.1,1.1-4.5,0.8-5.7,0.5c-1-0.2-1.8-0.4-3.6,0.3l-0.8,0.3l-3.9-11c4.1-2.7,3.6-5.3,3.3-7.3c-0.1-1.2-0.4-2.5,1-3
				c0.5-0.2,1-0.1,1.4,0.2c1.4,0.8,2.2,3.3,3,6.7l5.9-2.1c0.5-0.2,1.4-0.5,2.2,0C155.7,35.6,156.1,36.3,156.4,37.3z"/>
		</g>
	</g>
	<g class="st0">
		<g>
			<path d="M10.2,0.3c7-1.5,13.9,2.9,15.4,9.9c0.4,1.9,0.4,3.8,0,5.5l7.2,6.4c1.3,1.1,1.4,3.1,0.3,4.4c-0.9,1.1-2.4,1.3-3.6,0.8
				l-8.8-3.9c-1.4,1.1-3.1,1.9-5,2.3c-7,1.5-13.9-2.9-15.4-9.9S3.2,1.8,10.2,0.3z M11,4.1C6.1,5.2,3,10,4.1,14.9s5.9,8,10.8,6.9
				c4.9-1.1,8-5.9,6.9-10.8S15.9,3,11,4.1z M18.6,12.2c0.1,0.6-0.2,1.1-0.8,1.2l-3,0.7l0.7,3c0.1,0.6-0.2,1.1-0.8,1.2l-1,0.2
				c-0.6,0.1-1.1-0.2-1.2-0.8l-0.7-3l-3,0.7c-0.6,0.1-1.1-0.2-1.2-0.8l-0.2-1c-0.1-0.6,0.2-1.1,0.8-1.2l3-0.7l-0.7-3
				c-0.1-0.6,0.2-1.1,0.8-1.2l1-0.2c0.6-0.1,1.1,0.2,1.2,0.8l0.7,3l3-0.7c0.6-0.1,1.1,0.2,1.2,0.8L18.6,12.2z"/>
		</g>
	</g>
	<g class="st0">
		<g>
			<path d="M98.5,242.5l-3.9-3l-2.3,3.2c0.1,0.2,0.1,0.4,0.2,0.6c0.3,1.8-0.9,3.4-2.6,3.7c-1.8,0.3-3.4-0.9-3.7-2.6
				c-0.3-1.8,0.9-3.4,2.6-3.7c0.2,0,0.3,0,0.5,0l3.4-4.7c0.3-0.4,0.8-0.7,1.2-0.8c0.5-0.1,1,0.1,1.4,0.4l4,3.1l5.3-5.6
				c0,0,0-0.1,0-0.1c-0.3-1.8,0.9-3.4,2.6-3.7c1.8-0.3,3.4,0.9,3.7,2.6c0.3,1.8-0.9,3.4-2.6,3.7c-0.3,0.1-0.7,0.1-1,0l-6.5,6.9
				C100.3,243,99.2,243,98.5,242.5z M94.8,251.3l1,6.2c0.1,0.8-0.3,1.4-1,1.6l-4,0.7c-0.7,0.1-1.3-0.4-1.4-1.2l-1-6.2
				c-0.1-0.7,0.2-1.4,0.8-1.5c0.7-0.2,1.4-0.3,2.1-0.5c0.7-0.1,1.4-0.2,2.1-0.2C94.1,250.1,94.7,250.6,94.8,251.3z M103.4,247.1
				l1.5,8.9c0.1,0.8-0.3,1.4-1,1.6l-4,0.7c-0.7,0.1-1.3-0.4-1.4-1.2l-1.5-8.9c-0.1-0.7,0.2-1.4,0.8-1.5c0.7-0.2,1.4-0.3,2.1-0.5
				c0.7-0.1,1.4-0.2,2.1-0.2C102.7,245.9,103.3,246.4,103.4,247.1z M111.7,241.1l2.3,13.5c0.1,0.8-0.3,1.4-1,1.6l-4,0.7
				c-0.7,0.1-1.3-0.4-1.4-1.2l-2.3-13.5c-0.1-0.7,0.2-1.4,0.8-1.5c0.7-0.2,1.4-0.3,2.1-0.5c0.7-0.1,1.4-0.2,2.1-0.2
				C111,239.8,111.6,240.3,111.7,241.1z"/>
		</g>
	</g>
	<path class="st1" d="M234.6,191.6"/>
</g>
</svg>
