<?xml version="1.0" encoding="utf-8"?>
<!-- Generator: Adobe Illustrator 19.1.0, SVG Export Plug-In . SVG Version: 6.00 Build 0)  -->
<svg version="1.1" id="Layer_1" xmlns="http://www.w3.org/2000/svg" xmlns:xlink="http://www.w3.org/1999/xlink" x="0px" y="0px"
	 viewBox="0 0 800 800" style="enable-background:new 0 0 800 800;" xml:space="preserve">
<style type="text/css">
	.st0{fill:#B3B3B3;}
	.st1{fill:#CCCCCC;}
	.st2{fill:#999999;}
	.st3{fill:#461A00;}
	.st4{fill:#808080;}
	.st5{opacity:0.4;fill:#4D4D4D;}
	.st6{opacity:0.2;}
	.st7{fill:#666666;}
	.st8{opacity:0.3;fill:#FFFFFF;}
	.st9{fill:none;stroke:#999999;stroke-width:9;stroke-linecap:round;stroke-linejoin:round;stroke-miterlimit:10;}
	.st10{fill:#B3B3B3;stroke:#999999;stroke-width:12;stroke-miterlimit:10;}
	.st11{fill:#FFFFFF;stroke:#999999;stroke-width:9;stroke-miterlimit:10;}
	.st12{font-family:'MuseoSans-700Italic';}
	.st13{font-size:30px;}
	.st14{opacity:0.2;fill:#FFFFFF;}
	.st15{fill:#969696;}
	.st16{fill:#F2F2F2;}
	.st17{fill:#FFFFFF;}
	.st18{opacity:0.4;fill:#FFFFFF;}
</style>
<g>
	<path class="st0" d="M323,705.5c0,0-5.6,8.5-4.3,11C320,719,313,772,313,772h14c0,0,5.5-46,7.5-51.5S342,708,342,708L323,705.5z"/>
	<path class="st0" d="M465,705.5c0,0,5.6,8.5,4.3,11C468,719,475,772,475,772h-14c0,0-5.5-46-7.5-51.5S446,708,446,708L465,705.5z"
		/>
	<path class="st1" d="M379.2,627.3c0,0-30.1,8.4-35.8,12.7c-5.7,4.3-26.7,56.7-26.7,63.8c0,7.1,20.6,11.1,25,11.8
		C346,716.3,352,699,352,699l1.5,73H435l-1-76.6c0,0,7.4,20.5,9.7,20.3c2.3-0.3,23.3-6.3,27.3-8.7c3.9-2.2-17-63.3-23-67
		s-41-13-47.9-12.7C393.3,627.7,379.2,627.3,379.2,627.3z"/>
	<g>
		<g>
			<g>
				<g>
					<path class="st2" d="M392,611c0,0,12-2.4,12,11.3c0,10.7,15.7,18.7-12,18.7"/>
				</g>
			</g>
			<g>
				<g>
					<path class="st2" d="M392,611c0,0-12-2.4-12,11.3c0,10.7-15.7,18.7,12,18.7"/>
				</g>
			</g>
		</g>
	</g>
	<g>
		<path class="st0" d="M391,621.5c-40,0-34-67-30.5-81.5c3.2-13.3,30.5-13,30.5-13s27.3-0.3,30.5,13C425,554.5,431,621.5,391,621.5z
			"/>
		<circle class="st3" cx="407.2" cy="560.8" r="2.9"/>
		<path class="st4" d="M429.6,561.2c0,8.4,0.5,15.2-5.5,15.2s-2.4-6.8-2.4-15.2c0-8.4,1.1-15.2,2.4-15.2S429.6,552.8,429.6,561.2z"
			/>
		<circle class="st3" cx="374.8" cy="560.8" r="2.9"/>
		<path class="st5" d="M383.5,576.3c0.3,7,3.2,15,7.5,15s7.2-8,7.5-15c0,0-2.8,5.5-7.5,5.5S383.5,576.3,383.5,576.3z"/>
		<path class="st4" d="M352.4,561.2c0,8.4-0.5,15.2,5.5,15.2s2.4-6.8,2.4-15.2c0-8.4-1.1-15.2-2.4-15.2S352.4,552.8,352.4,561.2z"/>
		<path class="st6" d="M361.5,549c0,0,9.2-4.5,16.1-3c6.9,1.5,15,2.5,20.9,3s8.8-3.3,8.8-3.3s8.3,11.1,11.8,12.2c3.5,1.1,0,0,0,0
			l0-33.5l-58,13.3L361.5,549z"/>
		<path class="st7" d="M357.4,548c3.1-2,0.9,6.3,3.9,9.7c3,3.3,4.7-12,5.7-16s18.3,0,28.3,1.7c10,1.7,15.7-12.7,15.7-12.7
			s-1.3,15,1.3,17.7c2.7,2.7,5.2,13.5,7.7,13.5c2.5,0,0.6-8.8,2.9-8.4c2.3,0.3,6.7,5,6.7,5s5.3-21.6-2-31.3
			c-2.6-3.4-17.4-21.8-31.7-20.7c-25.2,2-36.3,9-41.3,20.7c-5,11.7-2.2,26.3-2.2,26.3l1.5,2.8C353.9,556.1,354.3,550,357.4,548z"/>
		<path class="st8" d="M358,534.1c0,0,2-9.6,8.7-13.3c6.7-3.7,30.7-7.6,30.7-7.6s6.3,7.1,0,10.5c-6.3,3.4-26.5,6.7-26.5,6.7
			L358,534.1z"/>
	</g>
</g>
<g>
	<polyline class="st9" points="268.2,547.3 298.3,555.8 289.8,525.6 	"/>
	<line class="st9" x1="154.1" y1="413.5" x2="298.3" y2="555.8"/>
</g>
<g>
	<polyline class="st9" points="351,461.6 373,483.9 380.6,453.5 	"/>
	<line class="st9" x1="307.1" y1="244.6" x2="373" y2="483.9"/>
</g>
<g>
	<polyline class="st9" points="454.6,461.6 432.6,483.9 425.1,453.5 	"/>
	<line class="st9" x1="498.6" y1="244.6" x2="432.6" y2="483.9"/>
</g>
<g>
	<polyline class="st9" points="492.8,531.1 484.3,561.2 514.4,552.7 	"/>
	<line class="st9" x1="626.1" y1="418.5" x2="484.3" y2="561.2"/>
</g>
<circle class="st10" cx="111.3" cy="289.7" r="96.6"/>
<g>
	<path class="st11" d="M179.8,409.7H39.4c-12.9,0-23.4-10.5-23.4-23.4v0c0-12.9,10.5-23.4,23.4-23.4h140.4
		c12.9,0,23.4,10.5,23.4,23.4v0C203.2,399.3,192.7,409.7,179.8,409.7z"/>
	<text transform="matrix(1 0 0 1 46.7715 396.1615)" class="st12 st13">Providers</text>
</g>
<circle class="st10" cx="296.3" cy="119.7" r="96.6"/>
<g>
	<path class="st11" d="M364.8,239.7H224.4c-12.9,0-23.4-10.5-23.4-23.4v0c0-12.9,10.5-23.4,23.4-23.4h140.4
		c12.9,0,23.4,10.5,23.4,23.4v0C388.2,229.3,377.7,239.7,364.8,239.7z"/>
	<text transform="matrix(1 0 0 1 243.8018 226.1615)" class="st12 st13">Pharma</text>
</g>
<circle class="st10" cx="698.3" cy="292.7" r="96.6"/>
<g>
	<path class="st11" d="M766.8,412.7H626.4c-12.9,0-23.4-10.5-23.4-23.4v0c0-12.9,10.5-23.4,23.4-23.4h140.4
		c12.9,0,23.4,10.5,23.4,23.4v0C790.2,402.3,779.7,412.7,766.8,412.7z"/>
	<text transform="matrix(1 0 0 1 653.3169 399.1615)" class="st12 st13">Family</text>
</g>
<circle class="st10" cx="505.3" cy="119.7" r="96.6"/>
<g>
	<path class="st11" d="M573.8,239.7H433.4c-12.9,0-23.4-10.5-23.4-23.4v0c0-12.9,10.5-23.4,23.4-23.4h140.4
		c12.9,0,23.4,10.5,23.4,23.4v0C597.2,229.3,586.7,239.7,573.8,239.7z"/>
	<text transform="matrix(1 0 0 1 426.687 226.1615)" class="st12 st13">Institutions</text>
</g>
<g>
	<path class="st2" d="M148.5,271H129v-19.3c0-4.3-3.3-7.7-7.6-7.7H98.7c-4.3,0-7.7,3.4-7.7,7.7V271H71.6c-4.3,0-7.6,3.5-7.6,7.7
		v22.7c0,4.3,3.4,7.5,7.6,7.5H91v19.5c0,4.3,3.4,7.5,7.7,7.5h22.7c4.3,0,7.6-3.2,7.6-7.5V309h19.5c4.3,0,7.5-3.3,7.5-7.5v-22.7
		C156,274.5,152.8,271,148.5,271z"/>
	<path class="st14" d="M125,253h-20.3c-2,0-3.7,1.4-3.7,3.5v19.8c0,2.2-3.6,3.7-5.9,3.7H76.9c-2.1,0-3.9,2-3.9,4v22.5
		c0,0-5-0.2-5-4.8c0-3.7,0-22.9,0-22.9c0-2,1.5-3.7,3.6-3.7h19.5c2.2,0,3.9-1.7,3.9-3.9v-19.4c0-2.1,1.7-3.7,3.7-3.7h22.7
		c2,0,3.6,1.7,3.6,3.8V253z"/>
	<path class="st6" d="M129.3,279.3c0-2.3,1.9-4.2,4.2-4.2h15c2.1,0,3.7,1.6,3.7,3.6v22.7c0,2.1-1.7,3.8-3.7,3.8h-19.2
		c-2.2,0-4,1.8-4,4v19.2c0,2-1.8,3.7-3.8,3.7H98.7c-2,0-3.6-1.6-3.6-3.7v-14.1c0-2.8,2.3-5.1,5.1-5.1h13.5c2.4,0,4.3-1.9,4.3-4.3
		v-0.9c0-3.6,2.9-6.5,6.5-6.5h0.5c2.4,0,4.3-1.9,4.3-4.3V279.3z"/>
</g>
<g>
	<rect x="434.9" y="109" class="st15" width="142.9" height="61.7"/>
	<rect x="446.1" y="109" class="st6" width="120.5" height="61.7"/>
	<rect x="455.6" y="73.4" class="st16" width="101.4" height="97.3"/>
	<polygon class="st6" points="547.9,104.8 463.6,104.8 460.7,101.6 551.9,79.7 551.9,101.6 	"/>
	<rect x="460.7" y="79.7" class="st0" width="91.2" height="21.9"/>
	<g>
		<rect x="503.4" y="82" class="st17" width="5.9" height="16.6"/>
		<rect x="498" y="87.4" class="st17" width="16.6" height="5.9"/>
	</g>
	<rect x="471.1" y="110.2" class="st6" width="70.3" height="59.8"/>
	<rect x="478.3" y="116.4" class="st6" width="55.9" height="53.7"/>
	<rect x="484.2" y="122" class="st6" width="44.1" height="48"/>
	<polygon class="st14" points="548.5,84.1 467.9,99.6 462.7,99.6 462.7,82 548.5,82 	"/>
</g>
<g>
	<path class="st0" d="M677,301.8c0,0-2.1,3-1.6,3.9c0.5,0.9-2.1,20.3-2.1,20.3h5.2c0,0,2-16.8,2.8-18.8c0.7-2,2.8-4.5,2.8-4.5
		L677,301.8z"/>
	<path class="st0" d="M729.3,301.8c0,0,2.1,3,1.6,3.9c-0.5,0.9,2.1,20.3,2.1,20.3h-5.2c0,0-2-16.8-2.8-18.8s-2.8-4.5-2.8-4.5
		L729.3,301.8z"/>
	<path class="st1" d="M697.7,273.1c0,0-11.1,3.1-13.2,4.7c-2.1,1.6-9.8,20.9-9.8,23.5c0,2.6,7.6,4.1,9.2,4.3
		c1.6,0.2,3.8-6.3,3.8-6.3l0.6,26.7h30l-0.4-28c0,0,2.7,7.6,3.6,7.5c0.8-0.1,8.6-2.3,10.1-3.1c1.4-0.8-6.3-23.3-8.5-24.6
		c-2.2-1.3-15.1-4.8-17.6-4.6C702.9,273.2,697.7,273.1,697.7,273.1z"/>
	<g>
		<g>
			<g>
				<g>
					<path class="st2" d="M702.4,267.1c0,0,4.4-0.9,4.4,4.2c0,3.9,5.8,6.9-4.4,6.9"/>
				</g>
			</g>
			<g>
				<g>
					<path class="st2" d="M702.4,267.1c0,0-4.4-0.9-4.4,4.2c0,3.9-5.8,6.9,4.4,6.9"/>
				</g>
			</g>
		</g>
	</g>
	<g>
		<path class="st0" d="M702.1,270.9c-14.7,0-12.5-24.7-11.2-30c1.2-4.9,11.2-4.8,11.2-4.8s10-0.1,11.2,4.8
			C714.6,246.3,716.8,270.9,702.1,270.9z"/>
		<circle class="st3" cx="708" cy="248.6" r="1.1"/>
		<path class="st4" d="M716.3,248.7c0,3.1,0.2,5.6-2,5.6c-2.2,0-0.9-2.5-0.9-5.6c0-3.1,0.4-5.6,0.9-5.6S716.3,245.6,716.3,248.7z"/>
		<circle class="st3" cx="696.1" cy="248.6" r="1.1"/>
		<path class="st5" d="M699.3,254.3c0.1,2.6,1.2,5.5,2.8,5.5c1.6,0,2.6-3,2.8-5.5c0,0-1,2-2.8,2
			C700.3,256.3,699.3,254.3,699.3,254.3z"/>
		<path class="st4" d="M687.9,248.7c0,3.1-0.2,5.6,2,5.6s0.9-2.5,0.9-5.6c0-3.1-0.4-5.6-0.9-5.6S687.9,245.6,687.9,248.7z"/>
		<path class="st6" d="M691.2,244.2c0,0,3.4-1.7,5.9-1.1c2.5,0.6,5.5,0.9,7.7,1.1c2.2,0.2,3.2-1.2,3.2-1.2s3,4.1,4.3,4.5s0,0,0,0
			l0-12.3l-21.3,4.9L691.2,244.2z"/>
		<path class="st7" d="M689.7,243.9c1.1-0.7,0.3,2.3,1.4,3.6c1.1,1.2,1.7-4.4,2.1-5.9c0.4-1.5,6.7,0,10.4,0.6
			c3.7,0.6,5.8-4.7,5.8-4.7s-0.5,5.5,0.5,6.5s1.9,5,2.8,5c0.9,0,0.2-3.2,1.1-3.1c0.9,0.1,2.5,1.8,2.5,1.8s2-8-0.7-11.5
			c-0.9-1.3-6.4-8-11.7-7.6c-9.3,0.7-13.4,3.3-15.2,7.6s-0.8,9.7-0.8,9.7l0.5,1C688.4,246.9,688.6,244.6,689.7,243.9z"/>
		<path class="st8" d="M689.9,238.7c0,0,0.8-3.5,3.2-4.9c2.5-1.4,11.3-2.8,11.3-2.8s2.3,2.6,0,3.9c-2.3,1.3-9.8,2.5-9.8,2.5
			L689.9,238.7z"/>
	</g>
</g>
<g>
	<path class="st0" d="M640.4,313.3c0,0-2.1,3.3-1.6,4.2c0.5,0.9-2.1,20.6-2.1,20.6h5.2c0,0,2-17.1,2.8-19.1c0.7-2,2.8-4.7,2.8-4.7
		L640.4,313.3z"/>
	<path class="st0" d="M692.6,313.3c0,0,2.1,3.3,1.6,4.2c-0.5,0.9,2.1,20.6,2.1,20.6h-5.2c0,0-2-17.1-2.8-19.1
		c-0.7-2-2.8-4.7-2.8-4.7L692.6,313.3z"/>
	<path class="st1" d="M661.1,284.5c0,0-11.1,3.1-13.2,4.7c-2.1,1.6-9.8,20.9-9.8,23.5c0,2.6,7.6,4.1,9.2,4.3c1.6,0.2,3.8-6,3.8-6
		l0.6,27h30l-0.4-28.3c0,0,2.7,7.5,3.6,7.4c0.8-0.1,8.6-2.4,10.1-3.2c1.4-0.8-6.3-23.3-8.5-24.7s-15.1-4.8-17.6-4.7
		C666.3,284.6,661.1,284.5,661.1,284.5z"/>
	<g>
		<g>
			<g>
				<g>
					<path class="st2" d="M665.8,278.5c0,0,4.4-0.9,4.4,4.2c0,3.9,5.8,6.9-4.4,6.9"/>
				</g>
			</g>
			<g>
				<g>
					<path class="st2" d="M665.8,278.5c0,0-4.4-0.9-4.4,4.2c0,3.9-5.8,6.9,4.4,6.9"/>
				</g>
			</g>
		</g>
	</g>
	<g>
		<path class="st0" d="M665.4,282.3c-14.7,0-12.5-24.7-11.2-30c1.2-4.9,11.2-4.8,11.2-4.8s10-0.1,11.2,4.8
			C677.9,257.7,680.1,282.3,665.4,282.3z"/>
		<circle class="st3" cx="671.4" cy="260" r="1.1"/>
		<path class="st4" d="M679.6,260.1c0,3.1,0.2,5.6-2,5.6c-2.2,0-0.9-2.5-0.9-5.6s0.4-5.6,0.9-5.6
			C678.1,254.6,679.6,257.1,679.6,260.1z"/>
		<circle class="st3" cx="659.4" cy="260" r="1.1"/>
		<path class="st5" d="M662.6,265.7c0.1,2.6,1.2,5.5,2.8,5.5s2.6-3,2.8-5.5c0,0-1,2-2.8,2S662.6,265.7,662.6,265.7z"/>
		<path class="st4" d="M651.2,260.1c0,3.1-0.2,5.6,2,5.6c2.2,0,0.9-2.5,0.9-5.6s-0.4-5.6-0.9-5.6
			C652.7,254.6,651.2,257.1,651.2,260.1z"/>
		<path class="st6" d="M654.5,255.7c0,0,3.4-1.7,5.9-1.1c2.5,0.6,5.5,0.9,7.7,1.1c2.2,0.2,3.2-1.2,3.2-1.2s3,4.1,4.3,4.5
			c1.3,0.4,0,0,0,0l0-12.3l-21.3,4.9L654.5,255.7z"/>
		<path class="st7" d="M653,255.3c1.1-0.7,0.3,2.3,1.4,3.6s1.7-4.4,2.1-5.9c0.4-1.5,6.7,0,10.4,0.6s5.8-4.7,5.8-4.7
			s-0.5,5.5,0.5,6.5c1,1,1.9,5,2.8,5c0.9,0,0.2-3.2,1.1-3.1s2.5,1.8,2.5,1.8s2-8-0.7-11.5c-0.9-1.3-6.4-8-11.7-7.6
			c-9.3,0.7-13.4,3.3-15.2,7.6c-1.8,4.3-0.8,9.7-0.8,9.7l0.5,1C651.8,258.3,651.9,256,653,255.3z"/>
		<path class="st8" d="M653.2,250.2c0,0,0.8-3.5,3.2-4.9c2.5-1.4,11.3-2.8,11.3-2.8s2.3,2.6,0,3.9c-2.3,1.3-9.8,2.5-9.8,2.5
			L653.2,250.2z"/>
	</g>
</g>
<g>
	<path class="st0" d="M706.4,313.3c0,0-2.1,3.3-1.6,4.2c0.5,0.9-2.1,20.6-2.1,20.6h5.2c0,0,2-17.1,2.8-19.1c0.7-2,2.8-4.7,2.8-4.7
		L706.4,313.3z"/>
	<path class="st0" d="M758.6,313.3c0,0,2.1,3.3,1.6,4.2c-0.5,0.9,2.1,20.6,2.1,20.6h-5.2c0,0-2-17.1-2.8-19.1
		c-0.7-2-2.8-4.7-2.8-4.7L758.6,313.3z"/>
	<path class="st1" d="M727.1,284.5c0,0-11.1,3.1-13.2,4.7c-2.1,1.6-9.8,20.9-9.8,23.5c0,2.6,7.6,4.1,9.2,4.3c1.6,0.2,3.8-6,3.8-6
		l0.6,27h30l-0.4-28.3c0,0,2.7,7.5,3.6,7.4c0.8-0.1,8.6-2.4,10.1-3.2c1.4-0.8-6.3-23.3-8.5-24.7c-2.2-1.3-15.1-4.8-17.6-4.7
		C732.2,284.6,727.1,284.5,727.1,284.5z"/>
	<g>
		<g>
			<g>
				<g>
					<path class="st2" d="M731.8,278.5c0,0,4.4-0.9,4.4,4.2c0,3.9,5.8,6.9-4.4,6.9"/>
				</g>
			</g>
			<g>
				<g>
					<path class="st2" d="M731.8,278.5c0,0-4.4-0.9-4.4,4.2c0,3.9-5.8,6.9,4.4,6.9"/>
				</g>
			</g>
		</g>
	</g>
	<g>
		<path class="st0" d="M731.4,282.3c-14.7,0-12.5-24.7-11.2-30c1.2-4.9,11.2-4.8,11.2-4.8s10-0.1,11.2,4.8
			C743.9,257.7,746.1,282.3,731.4,282.3z"/>
		<circle class="st3" cx="737.4" cy="260" r="1.1"/>
		<path class="st4" d="M745.6,260.1c0,3.1,0.2,5.6-2,5.6s-0.9-2.5-0.9-5.6s0.4-5.6,0.9-5.6S745.6,257.1,745.6,260.1z"/>
		<circle class="st3" cx="725.4" cy="260" r="1.1"/>
		<path class="st5" d="M728.6,265.7c0.1,2.6,1.2,5.5,2.8,5.5c1.6,0,2.6-3,2.8-5.5c0,0-1,2-2.8,2
			C729.7,267.7,728.6,265.7,728.6,265.7z"/>
		<path class="st4" d="M717.2,260.1c0,3.1-0.2,5.6,2,5.6s0.9-2.5,0.9-5.6s-0.4-5.6-0.9-5.6S717.2,257.1,717.2,260.1z"/>
		<path class="st6" d="M720.5,255.7c0,0,3.4-1.7,5.9-1.1c2.5,0.6,5.5,0.9,7.7,1.1c2.2,0.2,3.2-1.2,3.2-1.2s3,4.1,4.3,4.5
			c1.3,0.4,0,0,0,0l0-12.3l-21.3,4.9L720.5,255.7z"/>
		<path class="st7" d="M719,255.3c1.1-0.7,0.3,2.3,1.4,3.6c1.1,1.2,1.7-4.4,2.1-5.9s6.7,0,10.4,0.6c3.7,0.6,5.8-4.7,5.8-4.7
			s-0.5,5.5,0.5,6.5c1,1,1.9,5,2.8,5c0.9,0,0.2-3.2,1.1-3.1c0.9,0.1,2.5,1.8,2.5,1.8s2-8-0.7-11.5c-0.9-1.3-6.4-8-11.7-7.6
			c-9.3,0.7-13.4,3.3-15.2,7.6s-0.8,9.7-0.8,9.7l0.5,1C717.7,258.3,717.9,256,719,255.3z"/>
		<path class="st8" d="M719.2,250.2c0,0,0.8-3.5,3.2-4.9c2.5-1.4,11.3-2.8,11.3-2.8s2.3,2.6,0,3.9s-9.8,2.5-9.8,2.5L719.2,250.2z"/>
	</g>
</g>
<g>
	<path class="st7" d="M309.1,133.2L274.3,168c-8,8-21.1,8-29.1-0.1c-8-8-8-21.2,0-29.2l34.5-34.5L309.1,133.2z"/>
	<path class="st0" d="M307.4,135l34.7-34.8c8-8,8-21.1-0.1-29.1c-8-8-21.2-8-29.2,0l-34.5,34.5L307.4,135z"/>
	<path class="st18" d="M256.4,166c-5.7-6.6-5.1-16.5,1.1-22.6l57.5-57.5c3.3-3.3,3.3-8.6,0-11.8v0l-66.5,66.5
		c-6.6,6.6-6.9,17.5-0.3,24.2c3.6,3.6,8.3,5.2,12.9,4.9C259.2,168.7,257.7,167.5,256.4,166z"/>
	<path class="st6" d="M333.3,70.5c6.6,7.6,5.8,19.1-1.3,26.1l-58.7,58.7c-3.8,3.8-3.8,9.9,0,13.7l-7.7,7.7l76.8-76.8
		c7.7-7.7,8-20.3,0.3-27.9c-4.2-4.2-9.5-6-14.9-5.7C330,67.3,331.7,68.7,333.3,70.5z"/>
</g>
</svg>
