<svg xmlns="http://www.w3.org/2000/svg" xmlns:xlink="http://www.w3.org/1999/xlink" viewBox="0 0 303.85 303.85">
  <defs>
    <style>
      .cls-1 {
        fill: none;
      }

      .cls-2 {
        isolation: isolate;
      }

      .cls-3 {
        fill: #3b5272;
        stroke: #333c47;
        stroke-miterlimit: 10;
        stroke-width: 10px;
      }

      .cls-4 {
        fill: #f8ad42;
      }

      .cls-5 {
        fill: #e94e3b;
      }

      .cls-14, .cls-6 {
        fill: #328b8f;
      }

      .cls-7 {
        fill: #44babd;
      }

      .cls-8 {
        fill: #919db2;
      }

      .cls-9 {
        fill: #000100;
        opacity: 0.37;
        mix-blend-mode: multiply;
      }

      .cls-10 {
        fill: #bcc4d1;
      }

      .cls-11 {
        fill: #49505a;
      }

      .cls-12 {
        fill: #3c5373;
      }

      .cls-13 {
        clip-path: url(#clip-path);
      }

      .cls-14 {
        opacity: 0.66;
      }
    </style>
    <clipPath id="clip-path" transform="translate(-147.08 -268.66)">
      <path id="_Clipping_Path_" data-name="&lt;Clipping Path&gt;" class="cls-1" d="M339.19,316.31S271.58,351.6,220,464.49a3,3,0,0,0-.42.91c-0.63,1.28-1.24,2.56-1.87,3.85-1.19,2.46-2.4,4.9-3.58,7.37-0.54,1.14-1.15,2.25-1.62,3.43Q209.77,485.52,207,491a0.81,0.81,0,0,0,0,.69,34.74,34.74,0,0,0,1.52,3.68,53.84,53.84,0,0,0,11.5,15.8c0.09-.11.19-0.21,0.27-0.32q2.13-2.81,4.27-5.61c1-1.3,1.95-2.6,2.92-3.91,0.13-.15.27-0.3,0.39-0.46l1.86-2.45a21.43,21.43,0,0,0,5.58,6.38c-0.49.57-1,1.15-1.42,1.75l-3,3.59-1.13,1.34L226,516c0.83,0.6,1.7,1.15,2.56,1.7a50.56,50.56,0,0,0,5.49,3,60.11,60.11,0,0,0,12.9,4.34,0.81,0.81,0,0,0,.72-0.17c2.21-1.61,4.43-3.2,6.64-4.81,1.06-.77,2.1-1.55,3.15-2.33,1.43-1,2.87-2,4.29-3q4.7-3.32,9.39-6.65a27.45,27.45,0,0,0,2.37-1.75s97.14-72.53,117.32-149.88C390.83,356.47,374.28,307.78,339.19,316.31Z"/>
    </clipPath>
  </defs>
  <title>vert-transport-future</title>
  <g class="cls-2">
    <g id="Layer_1" data-name="Layer 1">
      <circle class="cls-3" cx="151.92" cy="151.92" r="146.92"/>
      <g id="_Group_" data-name="&lt;Group&gt;">
        <g id="_Group_2" data-name="&lt;Group&gt;">
          <g>
            <polygon id="_Path_" data-name="&lt;Path&gt;" class="cls-4" points="69.61 231.95 49.4 242.82 56.36 243.61 42.22 252.94 48.5 251.93 33.38 274.87 40.98 271.07 28.31 296 37.19 292.1 34.49 303.34 55.73 286.27 53.36 296.16 66.61 279.27 66.5 288.44 79.32 268.1 80.82 275.57 91.81 246.31 69.61 231.95"/>
            <polygon id="_Path_2" data-name="&lt;Path&gt;" class="cls-5" points="44.23 283.67 38.85 286.04 52.03 260.09 47.45 262.38 55.67 249.92 70.27 240.28 65.45 239.73 69.39 237.61 85.86 248.27 82.25 257.89 81.7 255.17 71.58 271.23 71.66 264.92 63.32 275.56 63.8 273.52 42.57 290.59 44.23 283.67"/>
            <path id="_Path_3" data-name="&lt;Path&gt;" class="cls-6" d="M256.52,401.59s-25.85-8.06-43,4.78-44.66,59.53-43.25,65.48,42.24-22.5,56.87-15.69S256.52,401.59,256.52,401.59Z" transform="translate(-147.08 -268.66)"/>
            <path id="_Path_4" data-name="&lt;Path&gt;" class="cls-7" d="M328.22,453s13.07,23.71,3.91,43.08-49.4,55.66-55.51,55.47,13.6-45.88,4-58.86S328.22,453,328.22,453Z" transform="translate(-147.08 -268.66)"/>
            <path id="_Path_5" data-name="&lt;Path&gt;" class="cls-8" d="M339.19,316.31s-68,35.47-119.63,149.09c-14.1,31,5.24,22.57,9.23,31.09,10.63,22.69,44.73,9.86,44.73,9.86s97.14-72.53,117.32-149.88C390.83,356.47,374.28,307.78,339.19,316.31Z" transform="translate(-147.08 -268.66)"/>
            <g id="_Group_4" data-name="&lt;Group&gt;">
              <path id="_Compound_Path_" data-name="&lt;Compound Path&gt;" class="cls-9" d="M346.1,359.61a30.66,30.66,0,1,1-43,4.94A30.66,30.66,0,0,1,346.1,359.61Zm-36.32,10.67a21.75,21.75,0,1,0,30.65-3.5A21.76,21.76,0,0,0,309.78,370.28Z" transform="translate(-147.08 -268.66)"/>
              <path id="_Path_6" data-name="&lt;Path&gt;" class="cls-10" d="M233.95,506.53c0.85-1.17,1.85-2.22,2.77-3.34,2.1-2.56,4.24-5.1,6.37-7.64,0.46-.55.95-1.09,1.42-1.64,0.86,0.69,1.82,1.25,2.72,1.87s2.06,1.31,3.11,1.93c1.46,0.87,3,1.63,4.5,2.4a70.92,70.92,0,0,0,7.91,3.37,67.21,67.21,0,0,0,7,2.11c1.23,0.3,2.49.48,3.72,0.76a27.46,27.46,0,0,1-2.37,1.75q-4.69,3.34-9.39,6.65l-4.29,3a0.44,0.44,0,0,0-.46-0.3c-2.27-.61-4.5-1.32-6.71-2.15a69.7,69.7,0,0,1-8.12-3.61c-1.93-1-3.81-2.12-5.64-3.3A18.31,18.31,0,0,1,233.95,506.53Z" transform="translate(-147.08 -268.66)"/>
              <path id="_Path_7" data-name="&lt;Path&gt;" class="cls-10" d="M237.5,488.22c-0.7,1-1.5,2-2.25,3l-7.32,9.65c-0.12.16-.26,0.31-0.39,0.46a2.78,2.78,0,0,1-.28-0.23c-0.83-.89-1.72-1.72-2.56-2.6-1.2-1.26-2.33-2.57-3.43-3.92a62,62,0,0,1-4.59-6.47,58.57,58.57,0,0,1-3.71-7,3.38,3.38,0,0,0-.48-1c0.47-1.18,1.08-2.29,1.62-3.43,1.17-2.47,2.38-4.91,3.58-7.37,0.62-1.28,1.24-2.57,1.87-3.85a2.41,2.41,0,0,1,.47-1,0.76,0.76,0,0,1,.23.35,77.39,77.39,0,0,0,11.28,17.36c1,1.19,2.09,2.37,3.22,3.48A30.34,30.34,0,0,0,237.5,488.22Z" transform="translate(-147.08 -268.66)"/>
              <path id="_Path_8" data-name="&lt;Path&gt;" class="cls-11" d="M212.49,480a3.38,3.38,0,0,1,.48,1,58.57,58.57,0,0,0,3.71,7,62,62,0,0,0,4.59,6.47c1.09,1.35,2.23,2.66,3.43,3.92,0.84,0.88,1.72,1.72,2.56,2.6a2.78,2.78,0,0,0,.28.23c-1,1.3-1.94,2.61-2.92,3.91q-2.13,2.81-4.27,5.61c-0.08.11-.18,0.21-0.27,0.32a53.84,53.84,0,0,1-11.5-15.8,34.77,34.77,0,0,1-1.52-3.68,0.81,0.81,0,0,1,0-.69Q209.78,485.52,212.49,480Z" transform="translate(-147.08 -268.66)"/>
              <path id="_Path_9" data-name="&lt;Path&gt;" class="cls-11" d="M233.95,506.53a18.31,18.31,0,0,0,2.59,1.86c1.83,1.17,3.71,2.28,5.64,3.3a69.7,69.7,0,0,0,8.12,3.61c2.2,0.82,4.44,1.53,6.71,2.15a0.44,0.44,0,0,1,.46.3c-1,.78-2.09,1.56-3.15,2.33-2.21,1.61-4.44,3.2-6.64,4.81a0.81,0.81,0,0,1-.72.17,60.1,60.1,0,0,1-12.9-4.34,50.57,50.57,0,0,1-5.49-3c-0.87-.55-1.73-1.1-2.56-1.7l3.78-4.55,1.13-1.34Z" transform="translate(-147.08 -268.66)"/>
              <path id="_Compound_Path_2" data-name="&lt;Compound Path&gt;" class="cls-7" d="M346.94,359.58a30.66,30.66,0,1,1-43,4.94A30.66,30.66,0,0,1,346.94,359.58Zm-36.32,10.67a21.75,21.75,0,1,0,30.65-3.5A21.76,21.76,0,0,0,310.63,370.25Z" transform="translate(-147.08 -268.66)"/>
              <path id="_Path_10" data-name="&lt;Path&gt;" class="cls-12" d="M310.63,370.25a21.75,21.75,0,1,1,3.56,30.52A21.78,21.78,0,0,1,310.63,370.25Z" transform="translate(-147.08 -268.66)"/>
              <path id="_Path_11" data-name="&lt;Path&gt;" class="cls-9" d="M341.28,366.75a21.83,21.83,0,0,0-23.05-2.6,19.7,19.7,0,1,1-5,35.77c0.32,0.29.65,0.58,1,.85A21.75,21.75,0,0,0,341.28,366.75Z" transform="translate(-147.08 -268.66)"/>
              <g id="_Clip_Group_2" data-name="&lt;Clip Group&gt;">
                <g class="cls-13">
                  <path id="_Path_12" data-name="&lt;Path&gt;" class="cls-9" d="M291.08,429.13s-17-20.93-38.31-4.6-55.44,74.66-63.83,86.56c-5.51,7.81,53.48-53.25,57.32-37.79C247.34,477.64,291.08,429.13,291.08,429.13Z" transform="translate(-147.08 -268.66)"/>
                </g>
              </g>
              <path id="_Path_13" data-name="&lt;Path&gt;" class="cls-7" d="M237.5,488.22c1-1.32,2-2.64,3.06-4l8.89-11.69,8.2-10.77c2.94-3.86,5.9-7.71,8.83-11.58,2.15-2.84,4.26-5.72,6.41-8.56a95.48,95.48,0,0,1,6.4-7.64,36.34,36.34,0,0,1,5.08-4.63,12.63,12.63,0,0,1,2.55-1.48,5.58,5.58,0,0,1,2-.48,3.26,3.26,0,0,1,3.33,2.52,5.55,5.55,0,0,1-.06,2.63,15.86,15.86,0,0,1-1.59,4,55.59,55.59,0,0,1-3.27,5.15c-1.06,1.55-2.19,3-3.36,4.5q-2.24,2.81-4.55,5.57c-1.62,1.93-3.15,3.93-4.75,5.88q-4.22,5.14-8.47,10.25l-8.53,10.27-5.77,6.91-5.62,6.72c-0.6.71-1.22,1.4-1.76,2.15-0.47.54-1,1.08-1.42,1.64-2.13,2.54-4.27,5.07-6.37,7.64-0.92,1.12-1.92,2.17-2.77,3.34l-3,3.59-1.13,1.34L226,516l-3.58,4.25-10,11.94-9.7,11.5-1.92,2.25c-0.29.33-.3,0.34-0.64,0.08q-1.87-1.44-3.72-2.9c-0.29-.23-0.28-0.24,0-0.63q1.87-2.49,3.74-5l10.65-14.07,7.45-9.82c0.62-.82,1.22-1.65,1.83-2.48,0.09-.11.19-0.21,0.27-0.32q2.13-2.81,4.27-5.61c1-1.3,1.95-2.6,2.92-3.91,0.13-.15.27-0.3,0.39-0.46l7.32-9.65C236,490.21,236.81,489.26,237.5,488.22Z" transform="translate(-147.08 -268.66)"/>
              <path id="_Path_14" data-name="&lt;Path&gt;" class="cls-14" d="M196.4,543.13l1.84,1.44C225.58,510.18,281.7,439.74,291,428.06a3.32,3.32,0,0,0-2.11-.65,5.58,5.58,0,0,0-2,.48,12.64,12.64,0,0,0-2.55,1.49,36.34,36.34,0,0,0-5.08,4.63,95.52,95.52,0,0,0-6.4,7.64c-2.15,2.84-4.26,5.72-6.41,8.56-2.93,3.87-5.89,7.72-8.83,11.58l-8.2,10.77-8.89,11.69c-1,1.33-2,2.65-3.06,4-0.7,1-1.5,2-2.25,3l-7.32,9.65c-0.12.16-.26,0.31-0.39,0.46-1,1.3-1.94,2.61-2.92,3.91q-2.13,2.81-4.27,5.61c-0.08.11-.18,0.21-0.27,0.32-0.61.83-1.21,1.66-1.83,2.48l-7.45,9.82-10.65,14.07q-1.88,2.48-3.74,5C196.12,542.89,196.12,542.9,196.4,543.13Z" transform="translate(-147.08 -268.66)"/>
            </g>
            <path id="_Path_15" data-name="&lt;Path&gt;" class="cls-7" d="M389.11,362.5c14-31.39,16.27-76.78,16.27-76.78l-0.08-.07s-45.6,15-71.29,33.66c0,0,10.84,18.12,22.38,27.17l1.61,1.26C369.27,356.58,389.11,362.5,389.11,362.5Z" transform="translate(-147.08 -268.66)"/>
            <path id="_Path_16" data-name="&lt;Path&gt;" class="cls-14" d="M405.31,285.65h0s-45.6,15-71.29,33.66c0,0,8.88,14.85,19.12,24.37C364,321.87,395.12,294.33,405.31,285.65Z" transform="translate(-147.08 -268.66)"/>
          </g>
        </g>
      </g>
    </g>
  </g>
</svg>
