<?xml version="1.0" encoding="utf-8"?>
<!-- Generator: Adobe Illustrator 19.1.0, SVG Export Plug-In . SVG Version: 6.00 Build 0)  -->
<svg version="1.1" id="Layer_1" xmlns="http://www.w3.org/2000/svg" xmlns:xlink="http://www.w3.org/1999/xlink" x="0px" y="0px"
	 viewBox="120 81 800 800" style="enable-background:new 120 81 800 800;" xml:space="preserve">
<style type="text/css">
	.st0{fill:#B3B3B3;}
	.st1{fill:#CCCCCC;}
	.st2{fill:#999999;}
	.st3{fill:#461A00;}
	.st4{fill:#808080;}
	.st5{opacity:0.4;fill:#4D4D4D;enable-background:new    ;}
	.st6{opacity:0.2;enable-background:new    ;}
	.st7{fill:#666666;}
	.st8{opacity:0.3;fill:#FFFFFF;enable-background:new    ;}
	.st9{fill:none;stroke:#999999;stroke-width:9;stroke-linecap:round;stroke-linejoin:round;stroke-miterlimit:10;}
	.st10{fill:#B3B3B3;stroke:#999999;stroke-width:12;stroke-miterlimit:10;}
	.st11{fill:#FFFFFF;stroke:#999999;stroke-width:9;stroke-miterlimit:10;}
	.st12{enable-background:new    ;}
	.st13{opacity:0.2;fill:#FFFFFF;enable-background:new    ;}
	.st14{fill:#969696;}
	.st15{fill:#F2F2F2;}
	.st16{fill:#FFFFFF;}
	.st17{opacity:0.4;fill:#FFFFFF;enable-background:new    ;}
</style>
<g>
	<path class="st0" d="M443,786.5c0,0-5.6,8.5-4.3,11C440,800,433,853,433,853h14c0,0,5.5-46,7.5-51.5S462,789,462,789L443,786.5z"/>
	<path class="st0" d="M585,786.5c0,0,5.6,8.5,4.3,11S595,853,595,853h-14c0,0-5.5-46-7.5-51.5S566,789,566,789L585,786.5z"/>
	<path class="st1" d="M499.2,708.3c0,0-30.1,8.4-35.8,12.7c-5.7,4.3-26.7,56.7-26.7,63.8s20.6,11.1,25,11.8
		C466,797.3,472,780,472,780l1.5,73H555l-1-76.6c0,0,7.4,20.5,9.7,20.3c2.3-0.3,23.3-6.3,27.3-8.7c3.9-2.2-17-63.3-23-67
		s-41-13-47.9-12.7C513.3,708.7,499.2,708.3,499.2,708.3z"/>
	<g>
		<g>
			<g>
				<g>
					<path class="st2" d="M512,692c0,0,12-2.4,12,11.3c0,10.7,15.7,18.7-12,18.7"/>
				</g>
			</g>
			<g>
				<g>
					<path class="st2" d="M512,692c0,0-12-2.4-12,11.3c0,10.7-15.7,18.7,12,18.7"/>
				</g>
			</g>
		</g>
	</g>
	<g>
		<path class="st0" d="M511,702.5c-40,0-34-67-30.5-81.5c3.2-13.3,30.5-13,30.5-13s27.3-0.3,30.5,13C545,635.5,551,702.5,511,702.5z
			"/>
		<circle class="st3" cx="527.2" cy="641.8" r="2.9"/>
		<path class="st4" d="M549.6,642.2c0,8.4,0.5,15.2-5.5,15.2s-2.4-6.8-2.4-15.2s1.1-15.2,2.4-15.2
			C545.4,627,549.6,633.8,549.6,642.2z"/>
		<circle class="st3" cx="494.8" cy="641.8" r="2.9"/>
		<path class="st5" d="M503.5,657.3c0.3,7,3.2,15,7.5,15s7.2-8,7.5-15c0,0-2.8,5.5-7.5,5.5S503.5,657.3,503.5,657.3z"/>
		<path class="st4" d="M472.4,642.2c0,8.4-0.5,15.2,5.5,15.2s2.4-6.8,2.4-15.2s-1.1-15.2-2.4-15.2S472.4,633.8,472.4,642.2z"/>
		<path class="st6" d="M481.5,630c0,0,9.2-4.5,16.1-3s15,2.5,20.9,3s8.8-3.3,8.8-3.3s8.3,11.1,11.8,12.2c3.5,1.1,0,0,0,0v-33.5
			l-58,13.3L481.5,630z"/>
		<path class="st7" d="M477.4,629c3.1-2,0.9,6.3,3.9,9.7c3,3.3,4.7-12,5.7-16s18.3,0,28.3,1.7s15.7-12.7,15.7-12.7s-1.3,15,1.3,17.7
			c2.7,2.7,5.2,13.5,7.7,13.5s0.6-8.8,2.9-8.4c2.3,0.3,6.7,5,6.7,5s5.3-21.6-2-31.3c-2.6-3.4-17.4-21.8-31.7-20.7
			c-25.2,2-36.3,9-41.3,20.7s-2.2,26.3-2.2,26.3l1.5,2.8C473.9,637.1,474.3,631,477.4,629z"/>
		<path class="st8" d="M478,615.1c0,0,2-9.6,8.7-13.3s30.7-7.6,30.7-7.6s6.3,7.1,0,10.5s-26.5,6.7-26.5,6.7L478,615.1z"/>
	</g>
</g>
<g>
	<polyline class="st9" points="388.2,628.3 418.3,636.8 409.8,606.6 	"/>
	<line class="st9" x1="274.1" y1="494.5" x2="418.3" y2="636.8"/>
</g>
<g>
	<polyline class="st9" points="471,542.6 493,564.9 500.6,534.5 	"/>
	<line class="st9" x1="427.1" y1="325.6" x2="493" y2="564.9"/>
</g>
<g>
	<polyline class="st9" points="574.6,542.6 552.6,564.9 545.1,534.5 	"/>
	<line class="st9" x1="618.6" y1="325.6" x2="552.6" y2="564.9"/>
</g>
<g>
	<polyline class="st9" points="612.8,612.1 604.3,642.2 634.4,633.7 	"/>
	<line class="st9" x1="746.1" y1="499.5" x2="604.3" y2="642.2"/>
</g>
<circle class="st10" cx="231.3" cy="370.7" r="96.6"/>
<g>
	<path class="st11" d="M299.8,490.7H159.4c-12.9,0-23.4-10.5-23.4-23.4l0,0c0-12.9,10.5-23.4,23.4-23.4h140.4
		c12.9,0,23.4,10.5,23.4,23.4l0,0C323.2,480.3,312.7,490.7,299.8,490.7z"/>
	<g class="st12">
		<path d="M171.9,455.9h7.6c1.3,0,2.4,0.2,3.3,0.7c1.8,0.9,2.8,2.7,2.8,5c0,3.5-2,6.3-4.7,7.6c-1,0.5-2.1,0.7-3.2,0.7H173l-1.4,7.3
			h-3.9L171.9,455.9z M177.3,466.5c0.8,0,1.5-0.1,2.1-0.4c1.4-0.7,2.3-2.2,2.3-4.1c0-1.6-1-2.7-2.9-2.7h-3.6l-1.4,7.3H177.3z"/>
		<path d="M188.6,461.9h3.7l-0.5,2.6c-0.1,0.6-0.3,1.1-0.3,1.1h0c1-2.1,3.1-4,5.5-4c0.5,0,0.9,0.1,0.9,0.1l-0.8,3.8
			c0,0-0.4-0.1-0.9-0.1c-2.3,0-5,2.5-5.7,6.3l-1,5.4h-3.8L188.6,461.9z"/>
		<path d="M207.1,461.5c4.4,0,7.5,2.7,7.5,6.8c0,5.4-4.7,9.3-9.5,9.3c-4.4,0-7.5-2.7-7.5-6.8C197.6,465.4,202.3,461.5,207.1,461.5z
			 M205.2,474.3c2.7,0,5.5-2.4,5.5-5.8c0-2.2-1.5-3.8-3.7-3.8c-2.7,0-5.6,2.5-5.6,5.8C201.5,472.8,203,474.3,205.2,474.3z"/>
		<path d="M216.9,461.9h3.8l1.3,9.5c0.1,0.6,0.1,2.3,0.1,2.3h0.1c0,0,0.5-1.4,1-2.3l5-9.5h4l-8.5,15.3h-4.3L216.9,461.9z"/>
		<path d="M234.5,461.9h3.8l-3,15.3h-3.8L234.5,461.9z M235.6,455.9h3.8l-0.7,3.4H235L235.6,455.9z"/>
		<path d="M248.3,461.5c1.6,0,3.4,0.6,4.2,2.1h0.1c0,0,0-0.5,0.1-0.9l1.3-6.8h3.8l-4.1,21.3h-3.6l0.2-1.1c0.1-0.6,0.3-1.1,0.3-1.1
			h-0.1c-1,1.5-2.8,2.6-4.9,2.6c-3.7,0-5.8-2.5-5.8-6.4C239.8,465.4,243.8,461.5,248.3,461.5z M246.7,474.3c2.5,0,4.9-2.9,4.9-6.1
			c0-1.9-0.9-3.4-3-3.4c-2.3,0-4.9,2.3-4.9,6.1C243.7,473,244.8,474.3,246.7,474.3z"/>
		<path d="M267,461.5c4.1,0,6.1,2.4,6.1,5.8c0,1.3-0.5,2.9-0.5,2.9h-10.5c0,0.2,0,0.4,0,0.6c0,1.9,1.3,3.5,3.8,3.5s4.7-1.7,4.7-1.7
			l1,2.9c0,0-2.6,2-6,2c-4.8,0-7.4-2.9-7.4-6.6C258.2,465.8,261.9,461.5,267,461.5z M269.3,467.6c0,0,0.1-0.3,0.1-0.7
			c0-1.6-1-2.5-2.4-2.5c-2,0-3.5,1.3-4.3,3.2H269.3z"/>
		<path d="M277.4,461.9h3.7l-0.5,2.6c-0.1,0.6-0.3,1.1-0.3,1.1h0c1-2.1,3.1-4,5.5-4c0.5,0,0.9,0.1,0.9,0.1l-0.8,3.8
			c0,0-0.4-0.1-0.9-0.1c-2.3,0-5,2.5-5.7,6.3l-1,5.4h-3.8L277.4,461.9z"/>
		<path d="M287.4,472.8c0,0,1.5,1.5,4.1,1.5c1.2,0,2.5-0.5,2.5-1.6c0-2-6.4-1.9-6.4-6.4c0-3,3-4.8,6.1-4.8c3.5,0,5.3,1.7,5.3,1.7
			l-1.7,2.6c0,0-1.2-1.2-3.6-1.2c-1.1,0-2.5,0.5-2.5,1.7c0,1.9,6.4,1.9,6.4,6.4c0,2.8-2.6,4.8-6.1,4.8c-3.8,0-6.1-2.2-6.1-2.2
			L287.4,472.8z"/>
	</g>
</g>
<circle class="st10" cx="416.3" cy="200.7" r="96.6"/>
<g>
	<path class="st11" d="M484.8,320.7H344.4c-12.9,0-23.4-10.5-23.4-23.4l0,0c0-12.9,10.5-23.4,23.4-23.4h140.4
		c12.9,0,23.4,10.5,23.4,23.4l0,0C508.2,310.3,497.7,320.7,484.8,320.7z"/>
	<g class="st12">
		<path d="M368.9,285.9h7.6c1.3,0,2.4,0.2,3.3,0.7c1.8,0.9,2.8,2.7,2.8,5c0,3.5-2,6.3-4.7,7.6c-1,0.5-2.1,0.7-3.2,0.7H370l-1.4,7.3
			h-3.9L368.9,285.9z M374.3,296.5c0.8,0,1.5-0.1,2.1-0.4c1.4-0.7,2.3-2.2,2.3-4.1c0-1.6-1-2.7-2.9-2.7h-3.6l-1.4,7.3H374.3z"/>
		<path d="M386.8,285.9h3.8l-1.4,7.4c-0.2,0.8-0.3,1.4-0.3,1.4h0.1c0.8-1.4,3.1-3.1,5.6-3.1c2.7,0,4.6,1.2,4.6,4.2
			c0,0.6-0.1,1.2-0.2,1.8l-1.9,9.7h-3.8l1.7-8.9c0.1-0.5,0.2-1,0.2-1.4c0-1.3-0.7-1.9-1.9-1.9c-2.6,0-4.9,2.5-5.5,5.3l-1.4,6.9h-3.8
			L386.8,285.9z"/>
		<path d="M410.6,297.6h0.6c0.1-0.4,0.1-0.6,0.1-0.8c0-1.3-0.7-2.1-2.5-2.1c-2.2,0-4.5,1.4-4.5,1.4l-0.9-2.9c0,0,2.8-1.6,6.1-1.6
			c2.8,0,5.6,1.2,5.6,4.7c0,0.4-0.1,1-0.1,1.5l-1.8,9.4h-3.5l0.2-1.3c0.1-0.6,0.3-1.1,0.3-1.1H410c0,0-1.7,2.8-5,2.8
			c-2.4,0-4.5-1.4-4.5-3.9C400.5,298.7,406.5,297.6,410.6,297.6z M406.3,304.6c2,0,3.9-2.2,4.3-4.1l0.1-0.3H410
			c-1.7,0-5.7,0.3-5.7,2.8C404.4,303.8,405,304.6,406.3,304.6z"/>
		<path d="M420,291.9h3.7l-0.5,2.6c-0.1,0.6-0.3,1.1-0.3,1.1h0c1-2.1,3.1-4,5.5-4c0.5,0,0.9,0.1,0.9,0.1l-0.8,3.8
			c0,0-0.4-0.1-0.9-0.1c-2.3,0-5,2.5-5.7,6.3l-1,5.4H417L420,291.9z"/>
		<path d="M431.8,291.9h3.7l-0.3,1.7c-0.1,0.6-0.3,1.2-0.3,1.2h0.1c1-1.5,3-3.2,5.4-3.2c2.4,0,3.7,1.1,4,3.1h0.1
			c1.1-1.6,3.3-3.1,5.6-3.1c2.7,0,4.3,1.3,4.3,4.1c0,0.6-0.1,1.3-0.2,2.1l-1.8,9.4h-3.8l1.7-9c0.1-0.6,0.1-1,0.1-1.4
			c0-1.1-0.4-1.8-1.7-1.8c-2.5,0-4.3,2.7-4.9,5.5l-1.3,6.7h-3.8l1.8-9c0.1-0.6,0.1-1,0.1-1.4c0-1.1-0.4-1.8-1.7-1.8
			c-2.4,0-4.4,2.7-4.9,5.5l-1.3,6.7h-3.8L431.8,291.9z"/>
		<path d="M465.8,297.6h0.6c0.1-0.4,0.1-0.6,0.1-0.8c0-1.3-0.7-2.1-2.5-2.1c-2.2,0-4.5,1.4-4.5,1.4l-0.9-2.9c0,0,2.8-1.6,6.1-1.6
			c2.8,0,5.6,1.2,5.6,4.7c0,0.4-0.1,1-0.1,1.5l-1.8,9.4h-3.5l0.2-1.3c0.1-0.6,0.3-1.1,0.3-1.1h-0.1c0,0-1.7,2.8-5,2.8
			c-2.4,0-4.5-1.4-4.5-3.9C455.8,298.7,461.8,297.6,465.8,297.6z M461.6,304.6c2,0,3.9-2.2,4.3-4.1l0.1-0.3h-0.6
			c-1.7,0-5.7,0.3-5.7,2.8C459.6,303.8,460.2,304.6,461.6,304.6z"/>
	</g>
</g>
<circle class="st10" cx="818.3" cy="373.7" r="96.6"/>
<g>
	<path class="st11" d="M886.8,493.7H746.4c-12.9,0-23.4-10.5-23.4-23.4l0,0c0-12.9,10.5-23.4,23.4-23.4h140.4
		c12.9,0,23.4,10.5,23.4,23.4l0,0C910.2,483.3,899.7,493.7,886.8,493.7z"/>
	<g class="st12">
		<path d="M778.4,458.9h12.2l-0.6,3.3h-8.4l-1.1,6h7l-0.6,3.3h-7.1l-1.7,8.6h-3.8L778.4,458.9z"/>
		<path d="M799,470.6h0.6c0.1-0.4,0.1-0.6,0.1-0.8c0-1.3-0.7-2.1-2.5-2.1c-2.2,0-4.5,1.4-4.5,1.4l-0.9-2.9c0,0,2.8-1.6,6.1-1.6
			c2.8,0,5.6,1.2,5.6,4.7c0,0.4-0.1,1-0.2,1.5l-1.8,9.4H798l0.2-1.3c0.1-0.6,0.3-1.1,0.3-1.1h-0.1c0,0-1.7,2.8-5,2.8
			c-2.4,0-4.5-1.4-4.5-3.9C788.9,471.7,794.9,470.6,799,470.6z M794.8,477.6c2,0,3.9-2.2,4.3-4.1l0.1-0.3h-0.6
			c-1.7,0-5.7,0.3-5.7,2.8C792.8,476.8,793.4,477.6,794.8,477.6z"/>
		<path d="M808.4,464.9h3.7l-0.3,1.7c-0.1,0.6-0.3,1.2-0.3,1.2h0.1c1-1.5,3-3.2,5.4-3.2c2.4,0,3.7,1.1,4,3.1h0.1
			c1.1-1.6,3.3-3.1,5.6-3.1c2.7,0,4.3,1.3,4.3,4.1c0,0.6-0.1,1.3-0.2,2.1l-1.8,9.4h-3.8l1.7-9c0.1-0.6,0.1-1,0.1-1.4
			c0-1.1-0.4-1.8-1.7-1.8c-2.5,0-4.3,2.7-4.9,5.5l-1.3,6.7h-3.8l1.8-9c0.1-0.6,0.1-1,0.1-1.4c0-1.1-0.4-1.8-1.7-1.8
			c-2.4,0-4.4,2.7-4.9,5.5l-1.3,6.7h-3.8L808.4,464.9z"/>
		<path d="M835.8,464.9h3.8l-3,15.3h-3.8L835.8,464.9z M837,458.9h3.8l-0.7,3.4h-3.8L837,458.9z"/>
		<path d="M841.6,475.2l3.1-16.3h3.8l-3,15.7c-0.1,0.4-0.2,1-0.2,1.2c0,1,0.7,1.1,1.3,1.1c0.3,0,0.5,0,0.5,0l-0.7,3.3
			c0,0-0.5,0.1-1.1,0.1c-2,0-4-0.8-4-3.6C841.4,476.3,841.5,475.8,841.6,475.2z"/>
		<path d="M849.5,483.3c1.1,0,2.2-0.6,3-1.9l0.9-1.4l-3.5-15.1h4l1.7,9.3c0.1,0.8,0.2,1.9,0.2,1.9h0.1c0,0,0.5-1.1,0.9-1.9l4.8-9.3
			h4.3l-10.3,17.6c-1.6,2.8-3.8,4-5.8,4s-3.5-1.1-3.5-1.1l1.7-2.7C847.9,482.7,848.5,483.3,849.5,483.3z"/>
	</g>
</g>
<circle class="st10" cx="625.3" cy="200.7" r="96.6"/>
<g>
	<path class="st11" d="M693.8,320.7H553.4c-12.9,0-23.4-10.5-23.4-23.4l0,0c0-12.9,10.5-23.4,23.4-23.4h140.4
		c12.9,0,23.4,10.5,23.4,23.4l0,0C717.2,310.3,706.7,320.7,693.8,320.7z"/>
	<g class="st12">
		<path d="M551.8,285.9h3.8l-4.1,21.3h-3.9L551.8,285.9z"/>
		<path d="M559.3,291.9h3.7l-0.3,1.4c-0.1,0.8-0.4,1.5-0.4,1.5h0.1c0.8-1.4,3.1-3.2,5.8-3.2c2.7,0,4.6,1.2,4.6,4.2
			c0,0.6-0.1,1.3-0.3,2l-1.8,9.5h-3.8l1.7-8.9c0.1-0.5,0.2-1,0.2-1.4c0-1.3-0.7-1.9-1.9-1.9c-2.6,0-4.9,2.5-5.5,5.3l-1.3,6.9h-3.8
			L559.3,291.9z"/>
		<path d="M575.8,302.8c0,0,1.5,1.5,4.1,1.5c1.2,0,2.5-0.5,2.5-1.6c0-2-6.4-1.9-6.4-6.4c0-3,3-4.8,6.1-4.8c3.5,0,5.3,1.7,5.3,1.7
			l-1.7,2.6c0,0-1.2-1.2-3.6-1.2c-1.1,0-2.5,0.5-2.5,1.7c0,1.9,6.4,1.9,6.4,6.4c0,2.8-2.6,4.8-6.1,4.8c-3.8,0-6.1-2.2-6.1-2.2
			L575.8,302.8z"/>
		<path d="M589.9,301.2l1.2-6.1h-2l0.6-3h2.1l0.9-4.4h3.7l-0.9,4.4h3.5l-0.6,3h-3.5l-1.1,5.6c-0.1,0.5-0.1,1-0.1,1.2
			c0,1.7,1.3,2,2.4,2c0.5,0,0.8-0.1,0.8-0.1l-0.7,3.3c0,0-0.6,0.1-1.1,0.1c-2.8,0-5.4-1.1-5.4-4.7
			C589.8,302.2,589.9,301.7,589.9,301.2z"/>
		<path d="M602.4,291.9h3.8l-3,15.3h-3.8L602.4,291.9z M603.5,285.9h3.8l-0.7,3.4h-3.8L603.5,285.9z"/>
		<path d="M609.1,301.2l1.2-6.1h-1.9l0.6-3h2.1l0.9-4.4h3.7l-0.9,4.4h3.5l-0.6,3h-3.5l-1.1,5.6c-0.1,0.5-0.1,1-0.1,1.2
			c0,1.7,1.3,2,2.4,2c0.5,0,0.8-0.1,0.8-0.1l-0.7,3.3c0,0-0.6,0.1-1.1,0.1c-2.8,0-5.4-1.1-5.4-4.7
			C609,302.2,609.1,301.7,609.1,301.2z"/>
		<path d="M619.5,301.5l1.9-9.6h3.8l-1.7,8.8c-0.1,0.6-0.2,1.2-0.2,1.6c0,1.1,0.5,1.8,1.9,1.8c2.6,0,4.8-2.6,5.3-5.3l1.3-6.9h3.8
			l-3,15.3h-3.7l0.3-1.4c0.2-0.8,0.4-1.5,0.4-1.5h-0.1c-0.9,1.4-3,3.2-5.7,3.2c-2.5,0-4.6-1.1-4.6-4.2
			C619.3,302.8,619.4,302.2,619.5,301.5z"/>
		<path d="M638.6,301.2l1.2-6.1h-2l0.6-3h2.1l0.9-4.4h3.7l-0.9,4.4h3.5l-0.6,3h-3.5l-1.1,5.6c-0.1,0.5-0.1,1-0.1,1.2
			c0,1.7,1.3,2,2.4,2c0.5,0,0.8-0.1,0.8-0.1l-0.7,3.3c0,0-0.6,0.1-1.1,0.1c-2.8,0-5.4-1.1-5.4-4.7
			C638.4,302.2,638.5,301.7,638.6,301.2z"/>
		<path d="M651,291.9h3.8l-3,15.3h-3.8L651,291.9z M652.2,285.9h3.8l-0.7,3.4h-3.8L652.2,285.9z"/>
		<path d="M665.7,291.5c4.4,0,7.5,2.7,7.5,6.8c0,5.4-4.7,9.3-9.5,9.3c-4.4,0-7.5-2.7-7.5-6.8C656.3,295.4,661,291.5,665.7,291.5z
			 M663.8,304.3c2.7,0,5.5-2.4,5.5-5.8c0-2.2-1.5-3.8-3.7-3.8c-2.7,0-5.6,2.5-5.6,5.8C660.1,302.8,661.7,304.3,663.8,304.3z"/>
		<path d="M677.7,291.9h3.7l-0.3,1.4c-0.1,0.8-0.4,1.5-0.4,1.5h0.1c0.8-1.4,3.1-3.2,5.8-3.2c2.7,0,4.6,1.2,4.6,4.2
			c0,0.6-0.2,1.3-0.3,2l-1.8,9.5h-3.8l1.7-8.9c0.1-0.5,0.2-1,0.2-1.4c0-1.3-0.7-1.9-1.9-1.9c-2.6,0-4.9,2.5-5.5,5.3l-1.3,6.9h-3.8
			L677.7,291.9z"/>
		<path d="M694.3,302.8c0,0,1.5,1.5,4.1,1.5c1.2,0,2.5-0.5,2.5-1.6c0-2-6.4-1.9-6.4-6.4c0-3,3-4.8,6.1-4.8c3.5,0,5.3,1.7,5.3,1.7
			l-1.7,2.6c0,0-1.2-1.2-3.6-1.2c-1.1,0-2.5,0.5-2.5,1.7c0,1.9,6.4,1.9,6.4,6.4c0,2.8-2.6,4.8-6.1,4.8c-3.8,0-6.1-2.2-6.1-2.2
			L694.3,302.8z"/>
	</g>
</g>
<g>
	<path class="st2" d="M268.5,352H249v-19.3c0-4.3-3.3-7.7-7.6-7.7h-22.7c-4.3,0-7.7,3.4-7.7,7.7V352h-19.4c-4.3,0-7.6,3.5-7.6,7.7
		v22.7c0,4.3,3.4,7.5,7.6,7.5H211v19.5c0,4.3,3.4,7.5,7.7,7.5h22.7c4.3,0,7.6-3.2,7.6-7.5V390h19.5c4.3,0,7.5-3.3,7.5-7.5v-22.7
		C276,355.5,272.8,352,268.5,352z"/>
	<path class="st13" d="M245,334h-20.3c-2,0-3.7,1.4-3.7,3.5v19.8c0,2.2-3.6,3.7-5.9,3.7h-18.2c-2.1,0-3.9,2-3.9,4v22.5
		c0,0-5-0.2-5-4.8c0-3.7,0-22.9,0-22.9c0-2,1.5-3.7,3.6-3.7h19.5c2.2,0,3.9-1.7,3.9-3.9v-19.4c0-2.1,1.7-3.7,3.7-3.7h22.7
		c2,0,3.6,1.7,3.6,3.8C245,332.9,245,334,245,334z"/>
	<path class="st6" d="M249.3,360.3c0-2.3,1.9-4.2,4.2-4.2h15c2.1,0,3.7,1.6,3.7,3.6v22.7c0,2.1-1.7,3.8-3.7,3.8h-19.2
		c-2.2,0-4,1.8-4,4v19.2c0,2-1.8,3.7-3.8,3.7h-22.8c-2,0-3.6-1.6-3.6-3.7v-14.1c0-2.8,2.3-5.1,5.1-5.1h13.5c2.4,0,4.3-1.9,4.3-4.3
		V385c0-3.6,2.9-6.5,6.5-6.5h0.5c2.4,0,4.3-1.9,4.3-4.3V360.3z"/>
</g>
<g>
	<rect x="554.9" y="190" class="st14" width="142.9" height="61.7"/>
	<rect x="566.1" y="190" class="st6" width="120.5" height="61.7"/>
	<rect x="575.6" y="154.4" class="st15" width="101.4" height="97.3"/>
	<polygon class="st6" points="667.9,185.8 583.6,185.8 580.7,182.6 671.9,160.7 671.9,182.6 	"/>
	<rect x="580.7" y="160.7" class="st0" width="91.2" height="21.9"/>
	<g>
		<rect x="623.4" y="163" class="st16" width="5.9" height="16.6"/>
		<rect x="618" y="168.4" class="st16" width="16.6" height="5.9"/>
	</g>
	<rect x="591.1" y="191.2" class="st6" width="70.3" height="59.8"/>
	<rect x="598.3" y="197.4" class="st6" width="55.9" height="53.7"/>
	<rect x="604.2" y="203" class="st6" width="44.1" height="48"/>
	<polygon class="st13" points="668.5,165.1 587.9,180.6 582.7,180.6 582.7,163 668.5,163 	"/>
</g>
<g>
	<path class="st0" d="M797,382.8c0,0-2.1,3-1.6,3.9s-2.1,20.3-2.1,20.3h5.2c0,0,2-16.8,2.8-18.8c0.7-2,2.8-4.5,2.8-4.5L797,382.8z"
		/>
	<path class="st0" d="M849.3,382.8c0,0,2.1,3,1.6,3.9S853,407,853,407h-5.2c0,0-2-16.8-2.8-18.8s-2.8-4.5-2.8-4.5L849.3,382.8z"/>
	<path class="st1" d="M817.7,354.1c0,0-11.1,3.1-13.2,4.7c-2.1,1.6-9.8,20.9-9.8,23.5s7.6,4.1,9.2,4.3c1.6,0.2,3.8-6.3,3.8-6.3
		l0.6,26.7h30l-0.4-28c0,0,2.7,7.6,3.6,7.5c0.8-0.1,8.6-2.3,10.1-3.1c1.4-0.8-6.3-23.3-8.5-24.6c-2.2-1.3-15.1-4.8-17.6-4.6
		C822.9,354.2,817.7,354.1,817.7,354.1z"/>
	<g>
		<g>
			<g>
				<g>
					<path class="st2" d="M822.4,348.1c0,0,4.4-0.9,4.4,4.2c0,3.9,5.8,6.9-4.4,6.9"/>
				</g>
			</g>
			<g>
				<g>
					<path class="st2" d="M822.4,348.1c0,0-4.4-0.9-4.4,4.2c0,3.9-5.8,6.9,4.4,6.9"/>
				</g>
			</g>
		</g>
	</g>
	<g>
		<path class="st0" d="M822.1,351.9c-14.7,0-12.5-24.7-11.2-30c1.2-4.9,11.2-4.8,11.2-4.8s10-0.1,11.2,4.8
			C834.6,327.3,836.8,351.9,822.1,351.9z"/>
		<circle class="st3" cx="828" cy="329.6" r="1.1"/>
		<path class="st4" d="M836.3,329.7c0,3.1,0.2,5.6-2,5.6s-0.9-2.5-0.9-5.6c0-3.1,0.4-5.6,0.9-5.6S836.3,326.6,836.3,329.7z"/>
		<circle class="st3" cx="816.1" cy="329.6" r="1.1"/>
		<path class="st5" d="M819.3,335.3c0.1,2.6,1.2,5.5,2.8,5.5s2.6-3,2.8-5.5c0,0-1,2-2.8,2S819.3,335.3,819.3,335.3z"/>
		<path class="st4" d="M807.9,329.7c0,3.1-0.2,5.6,2,5.6s0.9-2.5,0.9-5.6c0-3.1-0.4-5.6-0.9-5.6S807.9,326.6,807.9,329.7z"/>
		<path class="st6" d="M811.2,325.2c0,0,3.4-1.7,5.9-1.1c2.5,0.6,5.5,0.9,7.7,1.1c2.2,0.2,3.2-1.2,3.2-1.2s3,4.1,4.3,4.5s0,0,0,0
			v-12.3l-21.3,4.9L811.2,325.2z"/>
		<path class="st7" d="M809.7,324.9c1.1-0.7,0.3,2.3,1.4,3.6c1.1,1.2,1.7-4.4,2.1-5.9c0.4-1.5,6.7,0,10.4,0.6s5.8-4.7,5.8-4.7
			s-0.5,5.5,0.5,6.5s1.9,5,2.8,5c0.9,0,0.2-3.2,1.1-3.1c0.9,0.1,2.5,1.8,2.5,1.8s2-8-0.7-11.5c-0.9-1.3-6.4-8-11.7-7.6
			c-9.3,0.7-13.4,3.3-15.2,7.6s-0.8,9.7-0.8,9.7l0.5,1C808.4,327.9,808.6,325.6,809.7,324.9z"/>
		<path class="st8" d="M809.9,319.7c0,0,0.8-3.5,3.2-4.9c2.5-1.4,11.3-2.8,11.3-2.8s2.3,2.6,0,3.9c-2.3,1.3-9.8,2.5-9.8,2.5
			L809.9,319.7z"/>
	</g>
</g>
<g>
	<path class="st0" d="M760.4,394.3c0,0-2.1,3.3-1.6,4.2c0.5,0.9-2.1,20.6-2.1,20.6h5.2c0,0,2-17.1,2.8-19.1c0.7-2,2.8-4.7,2.8-4.7
		L760.4,394.3z"/>
	<path class="st0" d="M812.6,394.3c0,0,2.1,3.3,1.6,4.2c-0.5,0.9,2.1,20.6,2.1,20.6h-5.2c0,0-2-17.1-2.8-19.1
		c-0.7-2-2.8-4.7-2.8-4.7L812.6,394.3z"/>
	<path class="st1" d="M781.1,365.5c0,0-11.1,3.1-13.2,4.7c-2.1,1.6-9.8,20.9-9.8,23.5s7.6,4.1,9.2,4.3c1.6,0.2,3.8-6,3.8-6l0.6,27
		h30l-0.4-28.3c0,0,2.7,7.5,3.6,7.4c0.8-0.1,8.6-2.4,10.1-3.2c1.4-0.8-6.3-23.3-8.5-24.7s-15.1-4.8-17.6-4.7
		C786.3,365.6,781.1,365.5,781.1,365.5z"/>
	<g>
		<g>
			<g>
				<g>
					<path class="st2" d="M785.8,359.5c0,0,4.4-0.9,4.4,4.2c0,3.9,5.8,6.9-4.4,6.9"/>
				</g>
			</g>
			<g>
				<g>
					<path class="st2" d="M785.8,359.5c0,0-4.4-0.9-4.4,4.2c0,3.9-5.8,6.9,4.4,6.9"/>
				</g>
			</g>
		</g>
	</g>
	<g>
		<path class="st0" d="M785.4,363.3c-14.7,0-12.5-24.7-11.2-30c1.2-4.9,11.2-4.8,11.2-4.8s10-0.1,11.2,4.8
			C797.9,338.7,800.1,363.3,785.4,363.3z"/>
		<circle class="st3" cx="791.4" cy="341" r="1.1"/>
		<path class="st4" d="M799.6,341.1c0,3.1,0.2,5.6-2,5.6s-0.9-2.5-0.9-5.6s0.4-5.6,0.9-5.6C798.1,335.6,799.6,338.1,799.6,341.1z"/>
		<circle class="st3" cx="779.4" cy="341" r="1.1"/>
		<path class="st5" d="M782.6,346.7c0.1,2.6,1.2,5.5,2.8,5.5s2.6-3,2.8-5.5c0,0-1,2-2.8,2S782.6,346.7,782.6,346.7z"/>
		<path class="st4" d="M771.2,341.1c0,3.1-0.2,5.6,2,5.6s0.9-2.5,0.9-5.6s-0.4-5.6-0.9-5.6C772.7,335.6,771.2,338.1,771.2,341.1z"/>
		<path class="st6" d="M774.5,336.7c0,0,3.4-1.7,5.9-1.1c2.5,0.6,5.5,0.9,7.7,1.1c2.2,0.2,3.2-1.2,3.2-1.2s3,4.1,4.3,4.5s0,0,0,0
			v-12.3l-21.3,4.9L774.5,336.7z"/>
		<path class="st7" d="M773,336.3c1.1-0.7,0.3,2.3,1.4,3.6s1.7-4.4,2.1-5.9c0.4-1.5,6.7,0,10.4,0.6s5.8-4.7,5.8-4.7
			s-0.5,5.5,0.5,6.5s1.9,5,2.8,5c0.9,0,0.2-3.2,1.1-3.1s2.5,1.8,2.5,1.8s2-8-0.7-11.5c-0.9-1.3-6.4-8-11.7-7.6
			c-9.3,0.7-13.4,3.3-15.2,7.6s-0.8,9.7-0.8,9.7l0.5,1C771.8,339.3,771.9,337,773,336.3z"/>
		<path class="st8" d="M773.2,331.2c0,0,0.8-3.5,3.2-4.9c2.5-1.4,11.3-2.8,11.3-2.8s2.3,2.6,0,3.9c-2.3,1.3-9.8,2.5-9.8,2.5
			L773.2,331.2z"/>
	</g>
</g>
<g>
	<path class="st0" d="M826.4,394.3c0,0-2.1,3.3-1.6,4.2c0.5,0.9-2.1,20.6-2.1,20.6h5.2c0,0,2-17.1,2.8-19.1c0.7-2,2.8-4.7,2.8-4.7
		L826.4,394.3z"/>
	<path class="st0" d="M878.6,394.3c0,0,2.1,3.3,1.6,4.2c-0.5,0.9,2.1,20.6,2.1,20.6h-5.2c0,0-2-17.1-2.8-19.1
		c-0.7-2-2.8-4.7-2.8-4.7L878.6,394.3z"/>
	<path class="st1" d="M847.1,365.5c0,0-11.1,3.1-13.2,4.7c-2.1,1.6-9.8,20.9-9.8,23.5s7.6,4.1,9.2,4.3c1.6,0.2,3.8-6,3.8-6l0.6,27
		h30l-0.4-28.3c0,0,2.7,7.5,3.6,7.4c0.8-0.1,8.6-2.4,10.1-3.2c1.4-0.8-6.3-23.3-8.5-24.7c-2.2-1.3-15.1-4.8-17.6-4.7
		C852.2,365.6,847.1,365.5,847.1,365.5z"/>
	<g>
		<g>
			<g>
				<g>
					<path class="st2" d="M851.8,359.5c0,0,4.4-0.9,4.4,4.2c0,3.9,5.8,6.9-4.4,6.9"/>
				</g>
			</g>
			<g>
				<g>
					<path class="st2" d="M851.8,359.5c0,0-4.4-0.9-4.4,4.2c0,3.9-5.8,6.9,4.4,6.9"/>
				</g>
			</g>
		</g>
	</g>
	<g>
		<path class="st0" d="M851.4,363.3c-14.7,0-12.5-24.7-11.2-30c1.2-4.9,11.2-4.8,11.2-4.8s10-0.1,11.2,4.8
			C863.9,338.7,866.1,363.3,851.4,363.3z"/>
		<circle class="st3" cx="857.4" cy="341" r="1.1"/>
		<path class="st4" d="M865.6,341.1c0,3.1,0.2,5.6-2,5.6s-0.9-2.5-0.9-5.6s0.4-5.6,0.9-5.6S865.6,338.1,865.6,341.1z"/>
		<circle class="st3" cx="845.4" cy="341" r="1.1"/>
		<path class="st5" d="M848.6,346.7c0.1,2.6,1.2,5.5,2.8,5.5s2.6-3,2.8-5.5c0,0-1,2-2.8,2C849.7,348.7,848.6,346.7,848.6,346.7z"/>
		<path class="st4" d="M837.2,341.1c0,3.1-0.2,5.6,2,5.6s0.9-2.5,0.9-5.6s-0.4-5.6-0.9-5.6S837.2,338.1,837.2,341.1z"/>
		<path class="st6" d="M840.5,336.7c0,0,3.4-1.7,5.9-1.1c2.5,0.6,5.5,0.9,7.7,1.1c2.2,0.2,3.2-1.2,3.2-1.2s3,4.1,4.3,4.5s0,0,0,0
			v-12.3l-21.3,4.9L840.5,336.7z"/>
		<path class="st7" d="M839,336.3c1.1-0.7,0.3,2.3,1.4,3.6c1.1,1.2,1.7-4.4,2.1-5.9s6.7,0,10.4,0.6s5.8-4.7,5.8-4.7
			s-0.5,5.5,0.5,6.5s1.9,5,2.8,5c0.9,0,0.2-3.2,1.1-3.1c0.9,0.1,2.5,1.8,2.5,1.8s2-8-0.7-11.5c-0.9-1.3-6.4-8-11.7-7.6
			c-9.3,0.7-13.4,3.3-15.2,7.6s-0.8,9.7-0.8,9.7l0.5,1C837.7,339.3,837.9,337,839,336.3z"/>
		<path class="st8" d="M839.2,331.2c0,0,0.8-3.5,3.2-4.9c2.5-1.4,11.3-2.8,11.3-2.8s2.3,2.6,0,3.9s-9.8,2.5-9.8,2.5L839.2,331.2z"/>
	</g>
</g>
<g>
	<path class="st7" d="M429.1,214.2L394.3,249c-8,8-21.1,8-29.1-0.1c-8-8-8-21.2,0-29.2l34.5-34.5L429.1,214.2z"/>
	<path class="st0" d="M427.4,216l34.7-34.8c8-8,8-21.1-0.1-29.1c-8-8-21.2-8-29.2,0l-34.5,34.5L427.4,216z"/>
	<path class="st17" d="M376.4,247c-5.7-6.6-5.1-16.5,1.1-22.6l57.5-57.5c3.3-3.3,3.3-8.6,0-11.8l0,0l-66.5,66.5
		c-6.6,6.6-6.9,17.5-0.3,24.2c3.6,3.6,8.3,5.2,12.9,4.9C379.2,249.7,377.7,248.5,376.4,247z"/>
	<path class="st6" d="M453.3,151.5c6.6,7.6,5.8,19.1-1.3,26.1l-58.7,58.7c-3.8,3.8-3.8,9.9,0,13.7l-7.7,7.7l76.8-76.8
		c7.7-7.7,8-20.3,0.3-27.9c-4.2-4.2-9.5-6-14.9-5.7C450,148.3,451.7,149.7,453.3,151.5z"/>
</g>
</svg>
