<?xml version="1.0" encoding="UTF-8" standalone="no"?>
<svg width="250px" height="265px" viewBox="0 0 250 265" version="1.1" xmlns="http://www.w3.org/2000/svg" xmlns:xlink="http://www.w3.org/1999/xlink" xmlns:sketch="http://www.bohemiancoding.com/sketch/ns">
    <!-- Generator: Sketch 3.4.4 (17249) - http://www.bohemiancoding.com/sketch -->
    <title>vert-transport-header</title>
    <desc>Created with Sketch.</desc>
    <defs></defs>
    <g id="Page-1" stroke="none" stroke-width="1" fill="none" fill-rule="evenodd" sketch:type="MSPage">
        <g id="vert-transport-header" sketch:type="MSLayerGroup" transform="translate(-1.000000, -1.000000)">
            <g id="Page-1" sketch:type="MSShapeGroup">
                <g id="vert-transport-header">
                    <g id="Page-1">
                        <g id="icons">
                            <g id="Group" transform="translate(175.000000, 0.000000)" fill-opacity="0.2" fill="#454545">
                                <path d="M28.79,0.98 C13.3757326,0.98 0.88,13.4757326 0.88,28.89 C0.88,56.8 28.79,90.29 28.79,90.29 C28.79,90.29 56.7,56.8 56.7,28.89 C56.6944809,13.4780193 44.2019807,0.985519063 28.79,0.98 L28.79,0.98 L28.79,0.98 L28.79,0.98 Z M28.79,45.64 C19.5392304,45.64 12.04,38.1407696 12.04,28.89 C12.04,19.6392304 19.5392304,12.14 28.79,12.14 C38.0407696,12.14 45.54,19.6392304 45.54,28.89 C45.5479697,33.3366529 43.7864418,37.6037668 40.6440549,40.7499058 C37.501668,43.8960448 33.2366593,45.6626635 28.79,45.66 L28.79,45.64 L28.79,45.64 L28.79,45.64 Z" id="Shape"></path>
                            </g>
                            <g id="Group" transform="translate(0.000000, 99.000000)" fill-opacity="0.2" fill="#2B2B2B">
                                <path d="M207.14,11.57 L206.01,8.79 C205.53,7.6 205.01,6.36 204.51,5.06 L203.4,2.27 L208.98,0.05 L210.09,2.84 C210.6,4.13 211.09,5.36 211.57,6.53 L212.7,9.31 L207.14,11.57 L207.14,11.57 L207.14,11.57 Z" id="Shape"></path>
                                <path d="M50.58,166.06 C49.46,166.06 48.33,166.06 47.23,165.97 L44.23,165.81 L44.56,159.81 L47.56,159.97 C50.1262398,160.1055 52.698678,160.068751 55.26,159.86 L58.26,159.62 L58.74,165.62 L55.74,165.86 C54.02,165.98 52.28,166.06 50.58,166.06 L50.58,166.06 L50.58,166.06 L50.58,166.06 Z M29.27,162.18 L26.55,160.92 C23.9407957,159.719275 21.4355597,158.304436 19.06,156.69 L16.57,154.98 L19.95,149.98 L22.43,151.67 C24.5299184,153.096827 26.7441141,154.347747 29.05,155.41 L31.77,156.67 L29.27,162.18 L29.27,162.18 L29.27,162.18 Z M5.92,143.38 L4.55,140.71 C3.1610047,138.057507 2.15115543,135.223196 1.55,132.29 L0.97,129.35 L6.86,128.19 L7.44,131.13 C7.92390999,133.508464 8.73848541,135.807452 9.86,137.96 L11.23,140.63 L5.92,143.38 L5.92,143.38 L5.92,143.38 Z M8.77,115.62 L3.1,113.62 L4.1,110.79 C5.03982427,108.06834 6.21771559,105.434816 7.62,102.92 L9.08,100.3 L14.32,103.23 L12.86,105.85 C11.6328461,108.055163 10.6022012,110.364075 9.78,112.75 L8.77,115.62 L8.77,115.62 L8.77,115.62 Z M23.01,93.71 L19.51,88.83 L21.95,87.08 C24.2686386,85.4267673 26.7013836,83.9397184 29.23,82.63 L31.89,81.24 L34.66,86.56 L32.01,87.98 C29.7317247,89.1569374 27.5395839,90.4936086 25.45,91.98 L23.01,93.71 L23.01,93.71 L23.01,93.71 Z M215.54,89.71 L215.54,83.71 L218.54,83.71 C221.016922,83.7142679 223.486238,83.4357989 225.9,82.88 L228.82,82.19 L230.14,87.98 L227.22,88.67 C224.360794,89.3337078 221.435229,89.6692084 218.5,89.67 L215.5,89.67 L215.54,89.71 L215.54,89.71 L215.54,89.71 Z M200.83,86.77 L197.91,86.07 C195.323333,85.4433333 192.703333,84.83 190.05,84.23 L187.13,83.57 L188.46,77.72 L191.39,78.38 C194.056667,78.9866667 196.703333,79.6066667 199.33,80.24 L202.25,80.94 L200.83,86.77 L200.83,86.77 L200.83,86.77 Z M47.45,82.12 L46.14,76.25 L49.06,75.58 C51.67,74.98 54.43,74.46 57.26,74.03 L60.26,73.57 L61.17,79.5 L58.17,79.96 C55.48,80.37 52.87,80.87 50.4,81.43 L47.45,82.12 L47.45,82.12 L47.45,82.12 Z M173.26,80.72 L170.26,80.19 C167.6,79.71 164.93,79.27 162.32,78.86 L159.32,78.4 L160.24,72.47 L163.24,72.93 C165.89,73.34 168.61,73.8 171.31,74.28 L174.31,74.81 L173.26,80.72 L173.26,80.72 L173.26,80.72 Z M243.85,79.16 L239.02,75.59 L240.8,73.18 C242.243222,71.2254675 243.404581,69.0777956 244.25,66.8 L245.25,63.99 L250.87,66.08 L249.87,68.89 C248.827776,71.6927084 247.39714,74.335176 245.62,76.74 L243.85,79.16 L243.85,79.16 L243.85,79.16 Z M75.35,78.25 L74.54,72.31 L77.54,71.9 C80.25,71.53 82.99,71.19 85.68,70.9 L88.68,70.58 L89.33,76.58 L86.33,76.9 C83.7,77.19 81.01,77.51 78.33,77.9 L75.35,78.25 L75.35,78.25 L75.35,78.25 Z M145.41,76.67 L142.41,76.4 C139.74,76.16 137.04,75.95 134.41,75.78 L131.41,75.59 L131.79,69.59 L134.79,69.78 C137.49,69.95 140.24,70.16 142.96,70.41 L145.96,70.68 L145.41,76.67 L145.41,76.67 L145.41,76.67 Z M103.32,75.52 L103.1,69.52 L106.1,69.41 C108.82,69.31 111.58,69.25 114.3,69.23 L117.3,69.23 L117.3,75.23 L114.3,75.23 C111.64,75.23 108.94,75.31 106.3,75.41 L103.32,75.52 L103.32,75.52 L103.32,75.52 Z M245.26,52.19 L243.85,49.54 C242.834572,47.5798485 241.329086,45.91589 239.48,44.71 L236.96,43.08 L240.21,38.08 L242.73,39.71 C245.444542,41.4685278 247.656563,43.9010625 249.15,46.77 L250.56,49.42 L245.26,52.19 L245.26,52.19 L245.26,52.19 Z M224.49,35.43 L222.14,33.5 C219.894158,31.6670556 217.831187,29.6208296 215.98,27.39 L214.14,25.07 L218.77,21.26 L220.68,23.58 C222.28782,25.5154506 224.079538,27.2904242 226.03,28.88 L228.34,30.79 L224.49,35.43 L224.49,35.43 L224.49,35.43 Z" id="Shape"></path>
                                <path d="M73.57,162.07 L71.4,156.48 L74.2,155.39 C75.39,154.93 76.59,154.39 77.76,153.91 L80.5,152.69 L82.94,158.17 L80.2,159.39 C78.94,159.95 77.65,160.49 76.37,160.98 L73.57,162.07 L73.57,162.07 L73.57,162.07 Z" id="Shape"></path>
                            </g>
                            <circle id="Oval" fill="#B2B2B2" cx="7.72" cy="83.23" r="-0.05"></circle>
                            <g id="Group" transform="translate(42.000000, 50.000000)">
                                <path d="M170.84,187.61 L135.95,152.73 C133.533336,150.370933 129.669141,150.393126 127.279734,152.779797 C124.890327,155.166467 124.863704,159.030634 127.22,161.45 L139.22,173.45 L33.37,173.45 L45.37,161.45 C47.7262958,159.030634 47.6996733,155.166467 45.310266,152.779797 C42.9208587,150.393126 39.0566639,150.370933 36.64,152.73 L1.76,187.61 C-0.501809375,190.041499 -0.433397615,193.827022 1.91478999,196.17521 C4.26297759,198.523398 8.04850079,198.591809 10.48,196.33 L21.01,185.8 L151.58,185.8 L162.14,196.34 C164.581639,198.543533 168.32251,198.444498 170.644139,196.114864 C172.965768,193.785229 173.051925,190.044039 170.84,187.61 L170.84,187.61 L170.84,187.61 L170.84,187.61 Z" id="Shape" fill="#434955"></path>
                                <g id="Shape" transform="translate(15.000000, 0.000000)">
                                    <path d="M12.81,158.64 C7.38332574,158.634488 2.98551212,154.236674 2.98,148.81 L5.98,13.2 C5.97203139,10.5849617 7.00321531,8.07386443 8.84670053,6.21912701 C10.6901857,4.3643896 13.1949617,3.3179444 15.81,3.31 L126.81,3.31 C132.236674,3.31551212 136.634488,7.71332574 136.64,13.14 L139.64,148.86 C139.612485,154.269423 135.219493,158.64007 129.81,158.64 L12.81,158.64 L12.81,158.64 L12.81,158.64 L12.81,158.64 Z" fill="#A4C851"></path>
                                    <path d="M126.81,5.81 C130.855963,5.81550847 134.134492,9.09403666 134.14,13.14 L134.14,13.25 L137.14,148.85 C137.112548,152.880334 133.840424,156.134602 129.81,156.14 L12.81,156.14 C8.77957643,156.134602 5.50745161,152.880334 5.48,148.85 L8.48,13.25 L8.48,13.14 C8.48550847,9.09403666 11.7640367,5.81550847 15.81,5.81 L126.81,5.81 L126.81,5.81 L126.81,5.81 L126.81,5.81 Z M126.81,0.81 L15.81,0.81 C9.00032903,0.81 3.48,6.33032903 3.48,13.14 L0.48,148.8 C0.48,155.609671 6.00032903,161.13 12.81,161.13 L129.81,161.13 C136.615768,161.130002 142.13448,155.615765 142.14,148.81 L139.14,13.15 C139.14,9.87988068 137.84095,6.74369693 135.528627,4.43137339 C133.216303,2.11904984 130.080119,0.82 126.81,0.82 L126.81,0.82 L126.81,0.81 L126.81,0.81 L126.81,0.81 Z" fill="#7B9B3A"></path>
                                </g>
                                <path d="M140.81,94.47 L31.81,94.47 L32.81,37.81 L139.81,37.81 L140.81,94.47 L140.81,94.47 L140.81,94.47 L140.81,94.47 Z" id="Shape" fill="#FFFFFF"></path>
                                <path d="M104.81,19.31 C104.81266,20.9471997 104.163462,22.5181093 103.005786,23.6757859 C101.848109,24.8334625 100.2772,25.48266 98.64,25.48 L73.98,25.48 C72.3428003,25.48266 70.7718907,24.8334625 69.6142141,23.6757859 C68.4565375,22.5181093 67.80734,20.9471997 67.81,19.31 L67.81,19.31 C67.80734,17.6728003 68.4565375,16.1018907 69.6142141,14.9442141 C70.7718907,13.7865375 72.3428003,13.13734 73.98,13.14 L98.64,13.14 C100.2772,13.13734 101.848109,13.7865375 103.005786,14.9442141 C104.163462,16.1018907 104.81266,17.6728003 104.81,19.31 L104.81,19.31 L104.81,19.31 L104.81,19.31 L104.81,19.31 Z" id="Shape" fill="#7B9B3A"></path>
                                <circle id="Oval" fill="#FFFFFF" cx="43.14" cy="124.14" r="12.33"></circle>
                                <circle id="Oval" stroke="#F0C400" stroke-width="2" fill="#FFD900" cx="43.14" cy="124.14" r="6.17"></circle>
                                <circle id="Oval" fill="#FFFFFF" cx="129.47" cy="124.14" r="12.33"></circle>
                                <circle id="Oval" stroke="#F0C400" stroke-width="2" fill="#FFD900" cx="129.47" cy="124.14" r="6.17"></circle>
                                <g id="Shape" transform="translate(22.000000, 161.000000)" fill="#000100">
                                    <path d="M6.26,0.14 L0.14,6.31 L17.54,6.31 L23.39,0.46 C23.48,0.37 23.51,0.24 23.6,0.15 L6.26,0.15 L6.26,0.14 L6.26,0.14 L6.26,0.14 Z"></path>
                                    <path d="M122.36,0.14 L105.02,0.14 C105.1,0.24 105.13,0.36 105.22,0.45 L111.08,6.31 L128.53,6.31 L122.36,0.14 L122.36,0.14 L122.36,0.14 Z"></path>
                                </g>
                                <path d="M104.81,19.31 C104.81,20.9463857 104.159948,22.5157494 103.002849,23.6728488 C101.845749,24.8299483 100.276386,25.48 98.64,25.48 L73.97,25.48 C72.3345323,25.4800022 70.7661949,24.8296315 69.6106829,23.6722437 C68.4551709,22.5148559 67.807345,20.9454655 67.81,19.31 C67.8000334,19.130138 67.8000334,18.949862 67.81,18.77 C68.13,21.88 70.75,23.31 73.94,23.31 L98.64,23.31 C101.84,23.31 104.46,21.88 104.78,18.77 C104.799974,18.9493071 104.80999,19.1295838 104.81,19.31 L104.81,19.31 L104.81,19.31 L104.81,19.31 Z" id="Shape" opacity="0.1" fill="#000000"></path>
                                <path d="M83.29,148.89 C84.29,147.89 87.87,144.24 88.82,143.17 L94.93,136.34 C121.93,104.01 126.81,77.01 132.08,43.68 C133.66,33.68 135.3,13.74 134.97,3.68 L134.97,2.06 C135.26,1.34 137.17,0.88 137.97,0.86 C149.18,0.5 152.26,5.12 153.97,12.2 L153.97,13.2 L156.49,149.14 C157.27,154.99 151.72,161.2 145.82,161.2 L66.93,161.2 C75.63,155.67 78.43,153.78 83.29,148.89 L83.29,148.89 L83.29,148.89 L83.29,148.89 Z" id="Shape" opacity="0.1" fill="#000000"></path>
                            </g>
                        </g>
                    </g>
                </g>
            </g>
        </g>
    </g>
</svg>