<svg id="Layer_3" data-name="Layer 3" xmlns="http://www.w3.org/2000/svg" viewBox="0 0 354.69 340.44">
  <defs>
    <style>
      .cls-1 {
        opacity: 0.15;
      }

      .cls-2 {
        fill: #000100;
      }

      .cls-3 {
        opacity: 0.1;
      }

      .cls-4 {
        fill: #e5e5e4;
      }

      .cls-5 {
        fill: #2e4555;
      }

      .cls-6 {
        fill: #3fb9bc;
      }

      .cls-14, .cls-16, .cls-7 {
        opacity: 0.2;
      }

      .cls-8 {
        fill: #bcc2c7;
      }

      .cls-9 {
        fill: #f4f4f4;
      }

      .cls-10, .cls-16 {
        fill: #fff;
      }

      .cls-11 {
        fill: #9e9e9e;
      }

      .cls-12 {
        fill: #13a1dc;
      }

      .cls-13 {
        fill: #ea507e;
      }

      .cls-14 {
        fill: none;
        stroke: #020202;
        stroke-linecap: round;
        stroke-miterlimit: 10;
        stroke-width: 3px;
        stroke-dasharray: 8 8;
      }

      .cls-15 {
        fill: #c6c6c6;
      }
    </style>
  </defs>
  <title>vert-transport-tech-forward</title>
  <g id="_Group_" data-name="&lt;Group&gt;" class="cls-1">
    <path id="_Compound_Path_" data-name="&lt;Compound Path&gt;" class="cls-2" d="M2284.77,251.83l25.4,16.26-2.17,3.3a12.65,12.65,0,0,1-7.93,5.83c-3.61.79-7.69-.17-11.83-2.82q-5.7-3.65-7.25-8.66a12.12,12.12,0,0,1,1.69-10.55Zm51.53-46.74c-1,8-2.14,17.33-3,26.12a5.53,5.53,0,0,1-.56,1.53l-19.31,30.08-5.88-3.76,18.87-29.39c0.31-3.34.69-6.69,1.06-10l-6-3.87c-2.88,1.75-5.77,3.49-8.67,5.17L2294,250.39l-5.88-3.76,19.23-30.14a5.52,5.52,0,0,1,1.16-1.15c7.43-4.38,15.23-9.13,22.48-13.62A3.45,3.45,0,0,1,2336.29,205.09Zm-14.66,23.57-17.84,28-5.88-3.76,17.91-28a3.37,3.37,0,0,1,4.75-1A3.46,3.46,0,0,1,2321.64,228.66Z" transform="translate(-1988 -116.56)"/>
  </g>
  <g id="_Group_2" data-name="&lt;Group&gt;" class="cls-1">
    <path id="_Compound_Path_2" data-name="&lt;Compound Path&gt;" class="cls-2" d="M2130.64,434.87a2.58,2.58,0,0,1-.62-3.62l2.83-4a2.6,2.6,0,0,1,4.24,3l-2.83,4A2.61,2.61,0,0,1,2130.64,434.87Zm18.24,7.36a29.38,29.38,0,0,1-1.84-5l13.37-2.28a35.79,35.79,0,0,1,0,5.32c-0.45,3.47-1.43,5.45-4.89,6S2150.41,445.37,2148.89,442.23Zm-2.79-8.35c-0.16-.63-0.23-1-0.23-1-0.93-2.58-2.49-4.34-5.67-7.2s-4.9-5.3-5.56-9.14a15.56,15.56,0,1,1,30.68-5.22c0.65,3.83-.17,6.72-2.22,10.46s-3,5.94-3,8.67c0,0,0,.38.07,1ZM2129.41,407l-4-2.83a2.6,2.6,0,0,1,3-4.24l4,2.83a2.58,2.58,0,0,1,.62,3.62A2.61,2.61,0,0,1,2129.41,407Zm42.14,20.89-4-2.83a2.6,2.6,0,0,1,3-4.24l4,2.83a2.58,2.58,0,0,1,.62,3.62A2.61,2.61,0,0,1,2171.55,427.91Zm-8.05-26.69a2.58,2.58,0,0,1-.62-3.62l2.83-4a2.6,2.6,0,1,1,4.24,3l-2.83,4A2.61,2.61,0,0,1,2163.5,401.21Z" transform="translate(-1988 -116.56)"/>
  </g>
  <g class="cls-3">
    <path d="M2034.3,148c0,31.45,31.45,69.19,31.45,69.19s31.45-37.74,31.45-69.19A31.45,31.45,0,0,0,2034.3,148Zm12.58,0a18.87,18.87,0,1,1,18.87,18.87A18.87,18.87,0,0,1,2046.88,148Z" transform="translate(-1988 -116.56)"/>
  </g>
  <g class="cls-3">
    <path d="M2055.13,247.17l1.6-3.85c0.68-1.64,1.39-3.36,2.12-5.17l1.57-3.86-7.91-3.07-1.57,3.86c-0.73,1.79-1.42,3.49-2.1,5.11l-1.6,3.85Z" transform="translate(-1988 -116.56)"/>
    <path d="M2265,456.71l-4.24-.34,0.69-8.28,4.24,0.34a83.63,83.63,0,0,0,10.93.15l4.25-.23,0.46,8.29-4.25.23c-1.57.08-3.17,0.13-4.76,0.13C2269.92,457,2267.45,456.9,2265,456.71Zm34-12.62,3.87-1.74a65.89,65.89,0,0,0,9.4-5.18l3.52-2.34,4.8,6.86-3.52,2.34a74.36,74.36,0,0,1-10.63,5.86l-3.87,1.74Zm29.11-22.26,1.94-3.69a35.44,35.44,0,0,0,3.44-9.46l0.82-4.07,8.36,1.6-0.82,4.07a43.62,43.62,0,0,1-4.22,11.65l-1.94,3.69Zm2.13-38.56a58.86,58.86,0,0,0-4.37-9.55l-2.08-3.62,7.43-4.05,2.08,3.63a67,67,0,0,1,5,10.89l1.39,3.92-8,2.72ZM2308,354.44a77.52,77.52,0,0,0-9.3-5.55l-3.78-1.92,3.93-7.37,3.78,1.92a86.06,86.06,0,0,1,10.33,6.17l3.46,2.42-5,6.75Zm-274-3.16a56.11,56.11,0,0,1-12.38-1.37l-4.14-1,2-8.08,4.14,1A47.31,47.31,0,0,0,2034,343h4.26l0,8.3H2034Zm23.14-12.13,4.14-1q5.57-1.31,11.27-2.58l4.15-.92,1.88,8.1-4.15.92q-5.65,1.25-11.16,2.55l-4.14,1Zm215.51,0.71c-3.51-.78-7.22-1.47-11-2l-4.21-.63,1.29-8.21,4.21,0.63c4,0.6,7.93,1.33,11.63,2.15l4.15,0.92-1.9,8.1Zm-175.89-9.18,4.19-.73c3.84-.67,7.69-1.3,11.45-1.87l4.21-.64,1.31,8.21-4.21.64c-3.7.56-7.49,1.18-11.27,1.84l-4.19.73Zm-101.22,2.67a43.88,43.88,0,0,1-6-10.87l-1.48-3.89,8-2.89,1.48,3.89a35.62,35.62,0,0,0,4.9,8.83l2.53,3.34-6.85,4.94Zm237.43,1.52c-3.77-.5-7.58-1-11.31-1.35l-4.23-.45,0.92-8.26,4.23,0.45c3.82,0.4,7.7.87,11.55,1.38l4.22,0.56-1.15,8.23ZM2137,325l4.24-.38c3.87-.34,7.77-0.64,11.6-0.87l4.25-.26,0.54,8.29-4.25.26c-3.75.23-7.57,0.52-11.37,0.85l-4.24.38Zm56.24,6.52c-3.78-.14-7.62-0.22-11.39-0.25l-4.26,0,0.07-8.3,4.26,0c3.86,0,7.77.12,11.64,0.26l4.25,0.15-0.31,8.3Zm-204.69-36,2-3.67a26.13,26.13,0,0,1,9.11-9.77l3.58-2.25,4.61,7-3.58,2.25a17.87,17.87,0,0,0-6.2,6.68l-2,3.67Zm31.57-25.71,3.28-2.64a54.58,54.58,0,0,0,7.59-7.33l2.71-3.21,6.58,5.28-2.7,3.21a63,63,0,0,1-8.74,8.46l-3.28,2.65Z" transform="translate(-1988 -116.56)"/>
    <path d="M2239.7,451.47l3.08-7.74-4-1.5c-1.69-.64-3.39-1.33-5.05-2.05l-3.89-1.69-3.46,7.59,3.89,1.69c1.79,0.78,3.62,1.52,5.43,2.2Z" transform="translate(-1988 -116.56)"/>
  </g>
  <g>
    <rect class="cls-4" x="2024.5" y="271.85" width="192.62" height="84.38" rx="1.41" ry="1.41" transform="translate(-1897.77 885.37) rotate(-27.14)"/>
    <g>
      <rect class="cls-5" x="2077.27" y="291.3" width="1.25" height="1.25" transform="translate(-1892.43 863.31) rotate(-27.14)"/>
      <rect class="cls-5" x="2078.76" y="294.21" width="1.25" height="1.25" transform="translate(-1893.59 864.32) rotate(-27.14)"/>
      <rect class="cls-5" x="2080.25" y="297.12" width="1.25" height="1.25" transform="translate(-1894.75 865.32) rotate(-27.14)"/>
      <rect class="cls-5" x="2081.74" y="300.04" width="1.25" height="1.25" transform="translate(-1895.91 866.34) rotate(-27.14)"/>
      <rect class="cls-5" x="2083.24" y="302.95" width="1.25" height="1.25" transform="translate(-1897.09 867.29) rotate(-27.14)"/>
      <rect class="cls-5" x="2084.73" y="305.86" width="1.25" height="1.25" transform="matrix(0.89, -0.46, 0.46, 0.89, -1898.23, 868.36)"/>
      <rect class="cls-5" x="2086.22" y="308.77" width="1.25" height="1.25" transform="translate(-1899.41 869.33) rotate(-27.14)"/>
      <rect class="cls-5" x="2087.71" y="311.68" width="1.25" height="1.25" transform="translate(-1900.5 870.52) rotate(-27.14)"/>
      <rect class="cls-5" x="2089.2" y="314.59" width="1.25" height="1.25" transform="translate(-1901.73 871.33) rotate(-27.14)"/>
      <rect class="cls-5" x="2090.7" y="317.51" width="1.25" height="1.25" transform="translate(-1902.9 872.31) rotate(-27.14)"/>
      <rect class="cls-5" x="2092.19" y="320.42" width="1.25" height="1.25" transform="translate(-1903.99 873.53) rotate(-27.14)"/>
      <rect class="cls-5" x="2093.68" y="323.33" width="1.25" height="1.25" transform="translate(-1905.24 874.3) rotate(-27.14)"/>
      <rect class="cls-5" x="2095.17" y="326.24" width="1.25" height="1.25" transform="translate(-1906.37 875.39) rotate(-27.14)"/>
      <rect class="cls-5" x="2096.67" y="329.15" width="1.25" height="1.25" transform="translate(-1907.49 876.53) rotate(-27.14)"/>
      <rect class="cls-5" x="2098.16" y="332.06" width="1.25" height="1.25" transform="translate(-1908.72 877.34) rotate(-27.14)"/>
      <rect class="cls-5" x="2099.65" y="334.98" width="1.25" height="1.25" transform="translate(-1909.88 878.34) rotate(-27.14)"/>
      <rect class="cls-5" x="2101.14" y="337.89" width="1.25" height="1.25" transform="translate(-1911.04 879.34) rotate(-27.14)"/>
      <rect class="cls-5" x="2102.64" y="340.8" width="1.25" height="1.25" transform="translate(-1912.21 880.34) rotate(-27.14)"/>
      <rect class="cls-5" x="2104.13" y="343.71" width="1.25" height="1.25" transform="translate(-1913.38 881.32) rotate(-27.14)"/>
      <rect class="cls-5" x="2105.62" y="346.62" width="1.25" height="1.25" transform="translate(-1914.52 882.38) rotate(-27.14)"/>
      <rect class="cls-5" x="2107.11" y="349.53" width="1.25" height="1.25" transform="translate(-1915.69 883.36) rotate(-27.14)"/>
      <rect class="cls-5" x="2108.61" y="352.45" width="1.25" height="1.25" transform="translate(-1916.86 884.34) rotate(-27.14)"/>
      <rect class="cls-5" x="2110.1" y="355.36" width="1.25" height="1.25" transform="translate(-1918.03 885.34) rotate(-27.14)"/>
      <rect class="cls-5" x="2111.59" y="358.27" width="1.25" height="1.25" transform="translate(-1919.19 886.35) rotate(-27.14)"/>
      <rect class="cls-5" x="2113.08" y="361.18" width="1.25" height="1.25" transform="translate(-1920.35 887.35) rotate(-27.14)"/>
    </g>
    <rect class="cls-6" x="2035.34" y="303.85" width="60.82" height="76.84" transform="translate(-1916.71 863.36) rotate(-27.14)"/>
    <g class="cls-7">
      <rect class="cls-8" x="2088.05" y="285.96" width="36.17" height="2.72" transform="translate(-1887.2 875.73) rotate(-27.14)"/>
      <rect class="cls-8" x="2173.64" y="310.59" width="36.17" height="2.72" transform="translate(-1889.01 917.49) rotate(-27.14)"/>
      <rect class="cls-8" x="2089.37" y="280.71" width="101.1" height="2.72" transform="translate(-1881.08 890.57) rotate(-27.14)"/>
      <rect class="cls-8" x="2094.27" y="290.26" width="101.1" height="2.72" transform="translate(-1884.9 893.86) rotate(-27.14)"/>
      <rect class="cls-8" x="2104.76" y="310.72" width="101.1" height="2.72" transform="translate(-1893.08 900.89) rotate(-27.14)"/>
    </g>
    <rect class="cls-9" x="2047.16" y="307.79" width="192.61" height="84.38" rx="1.41" ry="1.41" transform="translate(-2012.23 99.12) rotate(-5.73)"/>
    <g>
      <rect class="cls-5" x="2110.96" y="313.1" width="1.25" height="1.25" transform="translate(-2008.77 95.75) rotate(-5.73)"/>
      <rect class="cls-5" x="2111.29" y="316.36" width="1.25" height="1.25" transform="translate(-2009.09 95.8) rotate(-5.73)"/>
      <rect class="cls-5" x="2111.61" y="319.61" width="1.25" height="1.25" transform="translate(-2009.41 95.85) rotate(-5.73)"/>
      <rect class="cls-5" x="2111.94" y="322.87" width="1.25" height="1.25" transform="translate(-2009.74 95.9) rotate(-5.73)"/>
      <rect class="cls-5" x="2112.27" y="326.12" width="1.25" height="1.25" transform="translate(-2010.06 95.95) rotate(-5.73)"/>
      <rect class="cls-5" x="2112.59" y="329.38" width="1.25" height="1.25" transform="translate(-2010.38 96) rotate(-5.73)"/>
      <rect class="cls-5" x="2112.92" y="332.63" width="1.25" height="1.25" transform="translate(-2010.71 96.04) rotate(-5.73)"/>
      <rect class="cls-5" x="2113.25" y="335.89" width="1.25" height="1.25" transform="translate(-2011.03 96.09) rotate(-5.73)"/>
      <rect class="cls-5" x="2113.57" y="339.14" width="1.25" height="1.25" transform="translate(-2011.35 96.14) rotate(-5.73)"/>
      <rect class="cls-5" x="2113.9" y="342.4" width="1.25" height="1.25" transform="translate(-2011.68 96.19) rotate(-5.73)"/>
      <rect class="cls-5" x="2114.23" y="345.66" width="1.25" height="1.25" transform="translate(-2012 96.24) rotate(-5.73)"/>
      <rect class="cls-5" x="2114.55" y="348.91" width="1.25" height="1.25" transform="translate(-2012.32 96.29) rotate(-5.73)"/>
      <rect class="cls-5" x="2114.88" y="352.17" width="1.25" height="1.25" transform="translate(-2012.65 96.34) rotate(-5.73)"/>
      <rect class="cls-5" x="2115.21" y="355.42" width="1.25" height="1.25" transform="translate(-2012.97 96.39) rotate(-5.73)"/>
      <rect class="cls-5" x="2115.53" y="358.68" width="1.25" height="1.25" transform="translate(-2013.29 96.44) rotate(-5.73)"/>
      <rect class="cls-5" x="2115.86" y="361.93" width="1.25" height="1.25" transform="translate(-2013.62 96.48) rotate(-5.73)"/>
      <rect class="cls-5" x="2116.19" y="365.19" width="1.25" height="1.25" transform="translate(-2013.94 96.53) rotate(-5.73)"/>
      <rect class="cls-5" x="2116.51" y="368.44" width="1.25" height="1.25" transform="translate(-2014.26 96.58) rotate(-5.73)"/>
      <rect class="cls-5" x="2116.84" y="371.7" width="1.25" height="1.25" transform="translate(-2014.59 96.63) rotate(-5.73)"/>
      <rect class="cls-5" x="2117.17" y="374.96" width="1.25" height="1.25" transform="translate(-2014.91 96.68) rotate(-5.73)"/>
      <rect class="cls-5" x="2117.49" y="378.21" width="1.25" height="1.25" transform="translate(-2015.23 96.73) rotate(-5.73)"/>
      <rect class="cls-5" x="2117.82" y="381.47" width="1.25" height="1.25" transform="translate(-2015.56 96.78) rotate(-5.73)"/>
      <rect class="cls-5" x="2118.15" y="384.72" width="1.25" height="1.25" transform="translate(-2015.88 96.83) rotate(-5.73)"/>
      <rect class="cls-5" x="2118.47" y="387.98" width="1.25" height="1.25" transform="translate(-2016.2 96.88) rotate(-5.73)"/>
      <rect class="cls-5" x="2118.8" y="391.23" width="1.25" height="1.25" transform="translate(-2016.53 96.92) rotate(-5.73)"/>
    </g>
    <rect class="cls-6" x="2051.49" y="317.74" width="60.82" height="76.84" transform="translate(-2013.15 93) rotate(-5.73)"/>
    <g class="cls-7">
      <rect class="cls-8" x="2121.47" y="318.38" width="36.17" height="2.73" transform="translate(-2009.23 98.57) rotate(-5.73)"/>
      <rect class="cls-8" x="2192.17" y="372.56" width="36.17" height="2.72" transform="translate(-2014.28 105.9) rotate(-5.73)"/>
      <rect class="cls-8" x="2122.38" y="325.83" width="101.1" height="2.72" transform="translate(-2009.81 101.94) rotate(-5.73)"/>
      <rect class="cls-8" x="2123.46" y="336.51" width="101.1" height="2.72" transform="translate(-2010.87 102.1) rotate(-5.73)"/>
      <rect class="cls-8" x="2125.75" y="359.39" width="101.1" height="2.72" transform="translate(-2013.14 102.45) rotate(-5.73)"/>
    </g>
    <path class="cls-10" d="M2095.06,339.91a8.71,8.71,0,0,0-9.51-7.77l-12,1.2a8.71,8.71,0,0,0-7.77,9.51l0.27,17.19a8.71,8.71,0,0,0,9.51,7.77l14.88-1.49a8.71,8.71,0,0,0,7.77-9.51Zm-20.26-3.79,10-1,0.14,1.44-10,1Zm-4.55,9a4.14,4.14,0,0,1,3.69-4.52l12.64-1.27a4.14,4.14,0,0,1,4.52,3.7l1.22,4.91a4.14,4.14,0,0,1-3.69,4.52l-14.08,1.41a4.14,4.14,0,0,1-4.52-3.7ZM2073.6,364a2.89,2.89,0,1,1,2.59-3.17A2.89,2.89,0,0,1,2073.6,364Zm18.24-1.83a2.89,2.89,0,1,1,2.59-3.17A2.89,2.89,0,0,1,2091.84,362.18Z" transform="translate(-1988 -116.56)"/>
    <path class="cls-10" d="M2083.46,372.09l6.83-.69c1-.1,1.69-0.41.86-1.56-0.64-.89-0.17-1.26.7-1.52,2.56-.77,2.8-0.69,4.34,1.48,1,1.47,2.15,2.9,3.18,4.38,0.74,1.06,1.16,2.31,0,3.24s-2.46.42-3.23-.79a2.68,2.68,0,0,0-2.92-1.22q-9.25,1-18.51,1.85a2.56,2.56,0,0,0-2.6,1.78,2.1,2.1,0,0,1-3,1.48c-1.45-.6-1.27-1.92-0.77-3.1,0.92-2.16,1.9-4.29,2.92-6.41,0.47-1,3.43-1.43,4.18-.68a0.88,0.88,0,0,1,.17,1c-0.64,1.59.28,1.53,1.39,1.4C2079.14,372.5,2081.3,372.31,2083.46,372.09Z" transform="translate(-1988 -116.56)"/>
  </g>
  <g>
    <rect class="cls-5" x="158.02" y="37.88" width="146.99" height="260.01" rx="2.95" ry="2.95"/>
    <rect class="cls-10" x="162.91" y="58.29" width="137.46" height="196.18"/>
    <rect class="cls-11" x="218.56" y="46.28" width="26.16" height="2.85"/>
    <circle class="cls-12" cx="232.12" cy="274.57" r="11.06"/>
    <path class="cls-7" d="M2209.07,391a8.77,8.77,0,0,1,.09-1.28,11,11,0,0,0,21.92,0,8.77,8.77,0,0,1,.09,1.28A11.05,11.05,0,1,1,2209.07,391Z" transform="translate(-1988 -116.56)"/>
  </g>
  <polygon class="cls-13" points="292.99 133.09 170.25 133.09 169.25 66.85 294.99 65.85 292.99 133.09"/>
  <polygon class="cls-14" points="287.49 244.13 172.78 244.13 172.78 211.85 289.49 213.85 287.49 244.13"/>
  <rect class="cls-15" x="173.4" y="146.39" width="99.85" height="5.77"/>
  <rect class="cls-15" x="328.72" y="220.03" width="0.8" height="0.8"/>
  <rect class="cls-15" x="172.45" y="160.04" width="118.38" height="5.77"/>
  <rect class="cls-15" x="172.45" y="173.33" width="118.38" height="5.77"/>
  <rect class="cls-15" x="172.45" y="189.14" width="70.73" height="5.77"/>
  <polygon class="cls-3" points="162.4 82.35 162.4 254.51 299.86 254.48 162.4 82.35"/>
  <polygon class="cls-16" points="240.38 88.77 177.33 88.77 176.33 72.77 240.38 72.77 240.38 88.77"/>
  <polygon class="cls-16" points="257.67 104.49 176.33 104.49 176.33 94.44 256.67 94.44 257.67 104.49"/>
  <polygon class="cls-16" points="263.23 121.61 177.9 121.61 177.9 111.56 264.23 111.56 263.23 121.61"/>
</svg>
