<svg xmlns="http://www.w3.org/2000/svg" xmlns:xlink="http://www.w3.org/1999/xlink" viewBox="0 0 395.2 315.58">
  <defs>
    <style>
      .cls-1, .cls-3 {
        fill: none;
      }

      .cls-2 {
        isolation: isolate;
      }

      .cls-3 {
        stroke: #231f20;
        stroke-miterlimit: 10;
        stroke-width: 8px;
        stroke-dasharray: 20 15;
      }

      .cls-3, .cls-4 {
        opacity: 0.15;
      }

      .cls-14, .cls-5 {
        fill: #000100;
      }

      .cls-6 {
        fill: #ffd900;
      }

      .cls-7 {
        fill: #ea507e;
      }

      .cls-15, .cls-8 {
        fill: #328b8f;
      }

      .cls-9 {
        fill: #44babd;
      }

      .cls-10 {
        fill: #919db2;
      }

      .cls-11 {
        fill: #bcc4d1;
      }

      .cls-12 {
        fill: #49505a;
      }

      .cls-13 {
        clip-path: url(#clip-path);
      }

      .cls-14 {
        opacity: 0.37;
        mix-blend-mode: multiply;
      }

      .cls-15 {
        opacity: 0.66;
      }

      .cls-16 {
        fill: #f8f9fa;
      }

      .cls-17 {
        fill: #13a1dc;
      }

      .cls-18 {
        fill: #132d47;
      }

      .cls-19 {
        fill: #fff;
      }

      .cls-20 {
        opacity: 0.3;
      }
    </style>
    <clipPath id="clip-path" transform="translate(-3157.34 -120.42)">
      <path id="_Clipping_Path_" data-name="&lt;Clipping Path&gt;" class="cls-1" d="M3411.59,180.31S3344,215.6,3292.38,328.49a3,3,0,0,0-.42.91c-0.63,1.28-1.24,2.56-1.87,3.85-1.19,2.46-2.4,4.9-3.58,7.37-0.54,1.14-1.15,2.25-1.62,3.43q-2.72,5.48-5.44,10.95a0.81,0.81,0,0,0,0,.69,34.74,34.74,0,0,0,1.52,3.68,53.84,53.84,0,0,0,11.5,15.8c0.09-.11.19-0.21,0.27-0.32q2.13-2.81,4.27-5.61c1-1.3,1.95-2.6,2.92-3.91,0.13-.15.27-0.3,0.39-0.46l1.86-2.45a21.43,21.43,0,0,0,5.58,6.38c-0.49.57-1,1.15-1.42,1.75l-3,3.59-1.13,1.34L3298.4,380c0.83,0.6,1.7,1.15,2.56,1.7a50.56,50.56,0,0,0,5.49,3,60.11,60.11,0,0,0,12.9,4.34,0.81,0.81,0,0,0,.72-0.17c2.21-1.61,4.43-3.2,6.64-4.81,1.06-.77,2.1-1.55,3.15-2.33,1.43-1,2.87-2,4.29-3q4.7-3.32,9.39-6.65a27.45,27.45,0,0,0,2.37-1.75s97.14-72.53,117.32-149.88C3463.23,220.47,3446.68,171.78,3411.59,180.31Z"/>
    </clipPath>
  </defs>
  <title>vert-transport-future</title>
  <g class="cls-2">
    <g id="Layer_3" data-name="Layer 3">
      <path class="cls-3" d="M3513,124s49,25.47,31.84,81.75c-8.79,28.78-43.11,38.86-79,41.63" transform="translate(-3157.34 -120.42)"/>
      <path class="cls-3" d="M3202,427s-70.33-52.84-26-115c28-39.21,73.5-39.86,121.4-23.6" transform="translate(-3157.34 -120.42)"/>
      <g class="cls-4">
        <path d="M3498.79,311.07c-0.12-4.29-.76-8.5-3.5-11.92-1.76-2.2-2.77-4.28-1.88-7.09a7.27,7.27,0,0,0,0-2.37c-0.36-7.55-3.39-13.56-10.07-17.44a2.57,2.57,0,0,1-1.3-1.53,17.29,17.29,0,0,0-2.1-4.26c-4-6.3-13.44-8.71-19.87-4.94a1.62,1.62,0,0,1-2.49-.48,11.39,11.39,0,0,0-5.46-3.71c-7.61-2.45-13.21-.77-18.28,5.42a2.23,2.23,0,0,1-1.61.92,13.36,13.36,0,0,0-5.07,1.58,21.4,21.4,0,0,0-11.47,16.88,1.58,1.58,0,0,1-1,1.39,16.37,16.37,0,0,0-6,4.79,22.81,22.81,0,0,0-3.44,6c-1.66,4-2.52,8.25-1.19,12.47,0.89,2.81,1.71,5.43.59,7.44a18.56,18.56,0,0,0-.33,7.17c0.57,4.85,3.13,8.71,6.31,12.22a12.73,12.73,0,0,0,5.91,4.12c1.58,0.43,2.69,1.17,3,2.86a4.21,4.21,0,0,0,.5,1.08c2.69,5.06,7,7.89,12.45,9.35a13.93,13.93,0,0,0,9-.54c0.88-.35,1.54-1.34,2.49-1.22s1.2,1.37,1.95,1.94c0.27,0.21.52,0.46,0.8,0.66a15.4,15.4,0,0,0,9.18,2.88c5.92,0,10.86-1.91,14.74-6.41a2.44,2.44,0,0,1,2.18-1,11.11,11.11,0,0,0,4.4-.57c9.19-3.29,15.26-9.73,15.76-20.34a3,3,0,0,1,.92-2.11,14.08,14.08,0,0,0,2.58-3.42A19.55,19.55,0,0,0,3498.79,311.07ZM3450.4,293.5c-0.27,1.58-.65,1.76-2.09,1.11a15.71,15.71,0,0,0-18.61,4.21c-1.3,1.57-1.34,1.54-3,.35a2.73,2.73,0,0,0-.5-0.32c-2.34-.95-4-2.25-4-5.17,0-1.47-1.48-2.25-2.92-2.14A2.35,2.35,0,0,0,3417,294a4.33,4.33,0,0,0-.09.73,4.43,4.43,0,0,1-2.94,4.67,2.91,2.91,0,0,0-1.33,3.59,2.62,2.62,0,0,0,2.62,1.85,5.33,5.33,0,0,0,2.25-.74c1-.5,1.81-1.64,3.19-1.31a9.22,9.22,0,0,1,4.18,2.45,16.48,16.48,0,0,1,1.55,1.81,2.8,2.8,0,0,0,4.95-.4,22.14,22.14,0,0,1,2.19-3.54c2.44-3,5.49-4.49,9.41-3.85a10.07,10.07,0,0,1,4.63,1.48,2.29,2.29,0,0,1,1.14,2.49c-0.74,4.15-1.42,8.32-2.1,12.49-0.2,1.21-.71,1.65-1.93,1.11a15.51,15.51,0,0,1-3.56-1.82c-1.5-1.19-1.65-1.53-.83-3.23a7.47,7.47,0,0,0,.76-3,2.62,2.62,0,0,0-1.9-2.86,2.56,2.56,0,0,0-3.28,1.29,5.13,5.13,0,0,0-.73,1.62c-0.73,4.17-5,5.24-8.55,4.27-2.12-.57-3.3-2.09-4.23-3.91-1.06-2.06-2.11-2.69-3.51-2.07-1.91.83-2.47,2.27-1.7,4.42a11.66,11.66,0,0,0,1.73,3.11,1.19,1.19,0,0,1-.24,1.91,9.42,9.42,0,0,0-1.55,1.59,2.69,2.69,0,0,0,.18,3.88,2.37,2.37,0,0,0,3.59.11c2.6-2.21,5.67-2.63,8.89-2.8a11,11,0,0,0,4.46-1,1.5,1.5,0,0,1,1.91.16,17.79,17.79,0,0,0,7.32,4.11c1.46,0.42,1.92,1.22,1.6,2.75-0.56,2.62-.91,5.28-1.36,7.92-0.39,2.35-.88,4.69-1.16,7.06-0.48,4-3.16,5.68-6.71,5.38-4.78-.4-10.2-3.42-11.67-9.12a6.4,6.4,0,0,1,.4-4.65,2.53,2.53,0,0,1,4.05-1,15.87,15.87,0,0,0,1.35.92,1.75,1.75,0,0,1,.91,2.13,6.84,6.84,0,0,0,.73,4.47A2.77,2.77,0,0,0,3435,340a2.66,2.66,0,0,0,1.39-3.23c0-.2-0.12-0.38-0.18-0.57-0.78-2.53-.78-2.53,1.74-3.33a8.43,8.43,0,0,0,3.8-2.24,2.87,2.87,0,0,0,.22-3.92,2.67,2.67,0,0,0-3.74-.48c-2.78,2.06-4.54,1.37-6.63-.47-2.69-2.37-7.87-1.8-10.29,1a10.91,10.91,0,0,0-2.62,4.27c-0.25,1-.94,1-1.6.47-4.51-3.37-8.77-9.61-6.78-16.57a15.43,15.43,0,0,1,1.22-3.51,2.77,2.77,0,0,0-.47-3.08c-2.2-2.94-2.35-6.18-1.39-9.5s2.52-6.68,5.54-8.95a10.21,10.21,0,0,1,3.18-1.55c2.23-.7,2.77-1.65,2.82-4a15.69,15.69,0,0,1,7.33-13.38,1.75,1.75,0,0,1,1.66-.45c0.63,0.3.22,1,.25,1.49a19.49,19.49,0,0,0,1.39,7,1.75,1.75,0,0,1-.78,2.59,11.93,11.93,0,0,0-4.46,5.25,2.75,2.75,0,0,0,1,3.8,3,3,0,0,0,4.06-1.33,7.48,7.48,0,0,1,1.05-1.61c1.68-1.86,2.39-2,4.56-.82a11.59,11.59,0,0,0,5.8,1.6,3,3,0,0,0,3.07-2.45,2.86,2.86,0,0,0-2.67-3.16,10.51,10.51,0,0,1-2.55-.7,5,5,0,0,1-2.65-2.68,17.1,17.1,0,0,1-2.17-8c0-2.86,1.69-5,3.54-6.82,3.63-3.66,10.6-3.32,13.91.56a3.87,3.87,0,0,1,1,3.16c-0.29,2-.64,3.92-1,5.88-0.19,1.16-.84,1.31-1.83.86a9.26,9.26,0,0,1-3.86-3.8c-1.1-1.72-2.38-2.13-3.86-1.31s-1.9,2.27-1.08,4.11a12.35,12.35,0,0,0,7.7,6.78,1.88,1.88,0,0,1,1.45,2.54C3451.46,286.83,3451,290.17,3450.4,293.5Zm41.15,24.82a8,8,0,0,1-2.63,3,3.3,3.3,0,0,0-1.53,3c0.2,3.48-.15,6.85-2.15,9.83a17.85,17.85,0,0,1-9.66,7.05c-1.07.35-1.57,0-1.56-1.19,0-5.26-3.16-8-6.5-9.38a3,3,0,0,0-2.19-.07c-0.61.21-1.22,0.41-1.82,0.64-2.88,1.12-4.32.74-6.21-1.66-1.49-1.89-3.66-1.78-4.9.23a2.32,2.32,0,0,0-.07,2.41,9.93,9.93,0,0,0,3.48,4c1.3,0.87,1.41,1.72.37,2.92a4,4,0,0,0-1.12,2c-0.14.94-.14,1.86,0.77,2.38a2.55,2.55,0,0,0,3.07,0,6.43,6.43,0,0,0,2.55-4.06c0.25-1.6,3.25-3.16,4.91-2.63,1.47,0.47,2.46,2.87,1.87,4.54a11.86,11.86,0,0,1-10.51,7.53c-2.19.07-4.33,0.12-6.36-1a5.49,5.49,0,0,1-3-5.89c0.43-2.7.9-5.39,1.35-8.08s0.94-5.38,1.34-8.08c0.17-1.13.58-1.64,1.82-1.57a18.35,18.35,0,0,0,8.71-1.49,1.18,1.18,0,0,1,1.4,0c1.89,2,4.52,2.62,6.79,3.89,2,1.13,4,2.32,5.15,4.55a2.44,2.44,0,0,0,3.57,1,2.86,2.86,0,0,0,1.36-3.44,5.51,5.51,0,0,0-1-2.14,1.18,1.18,0,0,1,.36-2A9.82,9.82,0,0,0,3482,322c1.07-1.6.93-3.37-.4-4.4-1.17-.9-2.76-0.52-4,1a6.26,6.26,0,0,1-6.46,2c-2.62-.54-4.76-1.72-5.42-4.62a7,7,0,0,1,0-2.36c0.22-2.09-.75-3.49-2.55-3.68a3.22,3.22,0,0,0-3.32,3.12,20.49,20.49,0,0,0,.08,2.82,1.72,1.72,0,0,1-1.25,1.8,14.28,14.28,0,0,1-5.26.76c-1,0-1-.76-0.91-1.51,0.25-1.57.51-3.13,0.77-4.71q0.54-3.24,1.09-6.46c0.52-3.1,1.88-4,5.08-3.72,7.3,0.56,9.75,5.37,10.58,11,0.37,2.46,2.32,3.45,4.39,2.1a13,13,0,0,1,5.63-2.19,2.86,2.86,0,0,1,3,1.17,10.1,10.1,0,0,0,1.72,1.85,2.64,2.64,0,0,0,3.87.07c1-1,1.36-2.93.3-3.94-2-1.87-2.07-3.83-1.18-6.22a2.41,2.41,0,0,0-1.4-3.1,2.53,2.53,0,0,0-3.34.72,4.76,4.76,0,0,0-.74,1.27c-0.58,1.54-1.52,2.52-3.31,2.39a2.92,2.92,0,0,0-.87.16c-3.1.77-3.11,0.78-4.45-2.21a15.79,15.79,0,0,0-15.66-8.9c-1.72.15-2-.09-1.74-1.72,0.56-3.43,1.17-6.86,1.7-10.29a1.56,1.56,0,0,1,1.85-1.55c3.28-.1,6.4-0.82,8.94-3.11a9.09,9.09,0,0,0,1-.91c1.28-1.53,1.31-3.06.13-4.27s-2.64-1.27-4.17.23a7.93,7.93,0,0,1-4.5,2.08c-1.53.24-1.89-.09-1.66-1.66s0.5-3,.76-4.56a6,6,0,0,1,5.47-4.79c7.26-.45,11.28,4.32,11.53,10.71,0.09,2.25-1.16,4.17-2.38,6a27.87,27.87,0,0,1-1.95,2.25,6.64,6.64,0,0,1-6.83,2.22,2.53,2.53,0,0,0-2.75,1,2.71,2.71,0,0,0-.24,3,2.33,2.33,0,0,0,1.4,1.24,10.43,10.43,0,0,0,6.73.36c1.68-.44,2.52.2,3.27,1.47a8.64,8.64,0,0,1,.86,2.68,3.06,3.06,0,0,0,2.28,2.68,2.89,2.89,0,0,0,2.82-1,2.34,2.34,0,0,0,.67-2.18c-0.44-2.25-.95-4.49-2.52-6.28a2,2,0,0,1-.07-2.92,23.87,23.87,0,0,0,3.76-6.71c0.42-1.26,1.27-.57,1.81,0a15.79,15.79,0,0,1,2.58,15.67c-0.63,1.72-.36,3,1.15,3.9,3.19,2,4.52,5,5,8.53A16.31,16.31,0,0,1,3491.56,318.32Z" transform="translate(-3157.34 -120.42)"/>
      </g>
      <g id="_Group_" data-name="&lt;Group&gt;" class="cls-4">
        <path id="_Compound_Path_" data-name="&lt;Compound Path&gt;" class="cls-5" d="M3309.71,172.69a28.14,28.14,0,0,1,10.19,46.22l5.79,20.22a6.76,6.76,0,0,1-12.18,5.54L3302,227.14A28.14,28.14,0,1,1,3309.71,172.69Zm-2.93,7.92a19.69,19.69,0,1,0,11.63,25.31A19.66,19.66,0,0,0,3306.78,180.61Z" transform="translate(-3157.34 -120.42)"/>
      </g>
      <g id="_Group_2" data-name="&lt;Group&gt;">
        <g id="_Group_3" data-name="&lt;Group&gt;">
          <g>
            <polygon id="_Path_" data-name="&lt;Path&gt;" class="cls-6" points="131.75 244.19 111.54 255.06 118.5 255.85 104.36 265.18 110.64 264.17 95.52 287.11 103.12 283.31 90.45 308.24 99.33 304.33 96.64 315.58 117.87 298.51 115.5 308.4 128.75 291.5 128.64 300.68 141.46 280.34 142.96 287.81 153.95 258.54 131.75 244.19"/>
            <polygon id="_Path_2" data-name="&lt;Path&gt;" class="cls-7" points="106.37 295.91 100.99 298.27 114.17 272.33 109.59 274.62 117.81 262.16 132.41 252.52 127.59 251.97 131.53 249.85 148 260.51 144.39 270.13 143.84 267.41 133.72 283.47 133.79 277.16 125.46 287.79 125.94 285.76 104.71 302.83 106.37 295.91"/>
            <path id="_Path_3" data-name="&lt;Path&gt;" class="cls-8" d="M3328.92,265.59s-25.85-8.06-43,4.78-44.66,59.53-43.25,65.48,42.24-22.5,56.87-15.69S3328.92,265.59,3328.92,265.59Z" transform="translate(-3157.34 -120.42)"/>
            <path id="_Path_4" data-name="&lt;Path&gt;" class="cls-9" d="M3400.62,317s13.07,23.71,3.91,43.08-49.4,55.66-55.51,55.47,13.6-45.88,4-58.86S3400.62,317,3400.62,317Z" transform="translate(-3157.34 -120.42)"/>
            <path id="_Path_5" data-name="&lt;Path&gt;" class="cls-10" d="M3411.59,180.31s-68,35.47-119.63,149.09c-14.1,31,5.24,22.57,9.23,31.09,10.63,22.69,44.73,9.86,44.73,9.86s97.14-72.53,117.32-149.88C3463.23,220.47,3446.68,171.78,3411.59,180.31Z" transform="translate(-3157.34 -120.42)"/>
            <g id="_Group_5" data-name="&lt;Group&gt;">
              <path id="_Path_6" data-name="&lt;Path&gt;" class="cls-11" d="M3306.35,370.53c0.85-1.17,1.85-2.22,2.77-3.34,2.1-2.56,4.24-5.1,6.37-7.64,0.46-.55.95-1.09,1.42-1.64,0.86,0.69,1.82,1.25,2.72,1.87s2.06,1.31,3.11,1.93c1.46,0.87,3,1.63,4.5,2.4a70.92,70.92,0,0,0,7.91,3.37,67.21,67.21,0,0,0,7,2.11c1.23,0.3,2.49.48,3.72,0.76a27.46,27.46,0,0,1-2.37,1.75q-4.69,3.34-9.39,6.65l-4.29,3a0.44,0.44,0,0,0-.46-0.3c-2.27-.61-4.5-1.32-6.71-2.15a69.7,69.7,0,0,1-8.12-3.61c-1.93-1-3.81-2.12-5.64-3.3A18.31,18.31,0,0,1,3306.35,370.53Z" transform="translate(-3157.34 -120.42)"/>
              <path id="_Path_7" data-name="&lt;Path&gt;" class="cls-11" d="M3309.9,352.22c-0.7,1-1.5,2-2.25,3l-7.32,9.65c-0.12.16-.26,0.31-0.39,0.46a2.78,2.78,0,0,1-.28-0.23c-0.83-.89-1.72-1.72-2.56-2.6-1.2-1.26-2.33-2.57-3.43-3.92a62,62,0,0,1-4.59-6.47,58.57,58.57,0,0,1-3.71-7,3.38,3.38,0,0,0-.48-1c0.47-1.18,1.08-2.29,1.62-3.43,1.17-2.47,2.38-4.91,3.58-7.37,0.62-1.28,1.24-2.57,1.87-3.85a2.41,2.41,0,0,1,.47-1,0.76,0.76,0,0,1,.23.35,77.39,77.39,0,0,0,11.28,17.36c1,1.19,2.09,2.37,3.22,3.48A30.34,30.34,0,0,0,3309.9,352.22Z" transform="translate(-3157.34 -120.42)"/>
              <path id="_Path_8" data-name="&lt;Path&gt;" class="cls-12" d="M3284.89,344a3.38,3.38,0,0,1,.48,1,58.57,58.57,0,0,0,3.71,7,62,62,0,0,0,4.59,6.47c1.09,1.35,2.23,2.66,3.43,3.92,0.84,0.88,1.72,1.72,2.56,2.6a2.78,2.78,0,0,0,.28.23c-1,1.3-1.94,2.61-2.92,3.91q-2.13,2.81-4.27,5.61c-0.08.11-.18,0.21-0.27,0.32a53.84,53.84,0,0,1-11.5-15.8,34.77,34.77,0,0,1-1.52-3.68,0.81,0.81,0,0,1,0-.69Q3282.18,349.52,3284.89,344Z" transform="translate(-3157.34 -120.42)"/>
              <path id="_Path_9" data-name="&lt;Path&gt;" class="cls-12" d="M3306.35,370.53a18.31,18.31,0,0,0,2.59,1.86c1.83,1.17,3.71,2.28,5.64,3.3a69.7,69.7,0,0,0,8.12,3.61c2.2,0.82,4.44,1.53,6.71,2.15a0.44,0.44,0,0,1,.46.3c-1,.78-2.09,1.56-3.15,2.33-2.21,1.61-4.44,3.2-6.64,4.81a0.81,0.81,0,0,1-.72.17,60.1,60.1,0,0,1-12.9-4.34,50.57,50.57,0,0,1-5.49-3c-0.87-.55-1.73-1.1-2.56-1.7l3.78-4.55,1.13-1.34Z" transform="translate(-3157.34 -120.42)"/>
              <g id="_Clip_Group_2" data-name="&lt;Clip Group&gt;">
                <g class="cls-13">
                  <path id="_Path_10" data-name="&lt;Path&gt;" class="cls-14" d="M3363.48,293.13s-17-20.93-38.31-4.6-55.44,74.66-63.83,86.56c-5.51,7.81,53.48-53.25,57.32-37.79C3319.74,341.64,3363.48,293.13,3363.48,293.13Z" transform="translate(-3157.34 -120.42)"/>
                </g>
              </g>
              <path id="_Path_11" data-name="&lt;Path&gt;" class="cls-9" d="M3309.9,352.22c1-1.32,2-2.64,3.06-4l8.89-11.69,8.2-10.77c2.94-3.86,5.9-7.71,8.83-11.58,2.15-2.84,4.26-5.72,6.41-8.56a95.48,95.48,0,0,1,6.4-7.64,36.34,36.34,0,0,1,5.08-4.63,12.63,12.63,0,0,1,2.55-1.48,5.58,5.58,0,0,1,2-.48,3.26,3.26,0,0,1,3.33,2.52,5.55,5.55,0,0,1-.06,2.63,15.86,15.86,0,0,1-1.59,4,55.59,55.59,0,0,1-3.27,5.15c-1.06,1.55-2.19,3-3.36,4.5q-2.24,2.81-4.55,5.57c-1.62,1.93-3.15,3.93-4.75,5.88q-4.22,5.14-8.47,10.25l-8.53,10.27-5.77,6.91-5.62,6.72c-0.6.71-1.22,1.4-1.76,2.15-0.47.54-1,1.08-1.42,1.64-2.13,2.54-4.27,5.07-6.37,7.64-0.92,1.12-1.92,2.17-2.77,3.34l-3,3.59-1.13,1.34L3298.4,380l-3.58,4.25-10,11.94-9.7,11.5-1.92,2.25c-0.29.33-.3,0.34-0.64,0.08q-1.87-1.44-3.72-2.9c-0.29-.23-0.28-0.24,0-0.63q1.87-2.49,3.74-5l10.65-14.07,7.45-9.82c0.62-.82,1.22-1.65,1.83-2.48,0.09-.11.19-0.21,0.27-0.32q2.13-2.81,4.27-5.61c1-1.3,1.95-2.6,2.92-3.91,0.13-.15.27-0.3,0.39-0.46l7.32-9.65C3308.4,354.21,3309.21,353.26,3309.9,352.22Z" transform="translate(-3157.34 -120.42)"/>
              <path id="_Path_12" data-name="&lt;Path&gt;" class="cls-15" d="M3268.8,407.13l1.84,1.44c27.34-34.39,83.46-104.82,92.77-116.51a3.32,3.32,0,0,0-2.11-.65,5.58,5.58,0,0,0-2,.48,12.64,12.64,0,0,0-2.55,1.49,36.34,36.34,0,0,0-5.08,4.63,95.52,95.52,0,0,0-6.4,7.64c-2.15,2.84-4.26,5.72-6.41,8.56-2.93,3.87-5.89,7.72-8.83,11.58l-8.2,10.77L3313,348.25c-1,1.33-2,2.65-3.06,4-0.7,1-1.5,2-2.25,3l-7.32,9.65c-0.12.16-.26,0.31-0.39,0.46-1,1.3-1.94,2.61-2.92,3.91q-2.13,2.81-4.27,5.61c-0.08.11-.18,0.21-0.27,0.32-0.61.83-1.21,1.66-1.83,2.48l-7.45,9.82-10.65,14.07q-1.88,2.48-3.74,5C3268.52,406.89,3268.52,406.9,3268.8,407.13Z" transform="translate(-3157.34 -120.42)"/>
              <g>
                <circle class="cls-7" cx="3396.96" cy="251.72" r="24.16" transform="translate(-1995.13 2702.02) rotate(-53.24)"/>
                <path class="cls-16" d="M3404.83,241.18c-7.4-5.53-17-6.21-25.63-2.73-0.91,9.23,2.49,18.28,9.89,23.81s17,6.21,25.63,2.73C3415.63,255.76,3412.23,246.71,3404.83,241.18Z" transform="translate(-3157.34 -120.42)"/>
                <circle class="cls-17" cx="3396.96" cy="251.72" r="12.69" transform="translate(-1995.13 2702.02) rotate(-53.24)"/>
                <ellipse class="cls-18" cx="3396.27" cy="251.21" rx="5.15" ry="4.29" transform="translate(-1994.95 2701.3) rotate(-53.24)"/>
                <circle class="cls-19" cx="3396.82" cy="247.15" r="2.85" transform="translate(-1991.52 2700.07) rotate(-53.24)"/>
              </g>
              <path id="_Compound_Path_2" data-name="&lt;Compound Path&gt;" class="cls-9" d="M3375.92,239.34a23.94,23.94,0,1,0,32.86-8.59A23.95,23.95,0,0,0,3375.92,239.34Zm37.91-17.29a33.75,33.75,0,1,1-46.1,12.09A33.75,33.75,0,0,1,3413.83,222.05Z" transform="translate(-3157.34 -120.42)"/>
              <path class="cls-20" d="M3379.68,280.7c0.65,0.38,1.3.74,2,1.08a33.11,33.11,0,0,1,10.46-63.56A33.75,33.75,0,0,0,3379.68,280.7Z" transform="translate(-3157.34 -120.42)"/>
            </g>
            <path id="_Path_13" data-name="&lt;Path&gt;" class="cls-9" d="M3461.51,226.5c14-31.39,16.27-76.78,16.27-76.78l-0.08-.07s-45.6,15-71.29,33.66c0,0,10.84,18.12,22.38,27.17l1.61,1.26C3441.67,220.58,3461.51,226.5,3461.51,226.5Z" transform="translate(-3157.34 -120.42)"/>
            <path id="_Path_14" data-name="&lt;Path&gt;" class="cls-15" d="M3477.71,149.65h0s-45.6,15-71.29,33.66c0,0,8.88,14.85,19.12,24.37C3436.44,185.87,3467.52,158.33,3477.71,149.65Z" transform="translate(-3157.34 -120.42)"/>
          </g>
        </g>
        <path class="cls-20" d="M3401.64,227.75a23.81,23.81,0,0,1,4.25,1.15,24.15,24.15,0,0,1-15.68,45.68,24.15,24.15,0,0,0,12.54-46.44C3402.39,228,3402,227.86,3401.64,227.75Z" transform="translate(-3157.34 -120.42)"/>
      </g>
      <g id="_Group_7" data-name="&lt;Group&gt;" class="cls-4">
        <path id="_Compound_Path_3" data-name="&lt;Compound Path&gt;" class="cls-5" d="M3341.37,139.33l-4-5.05a3.42,3.42,0,1,1,5.37-4.23l4,5.06a3.39,3.39,0,0,1-.57,4.8A3.43,3.43,0,0,1,3341.37,139.33Zm11.06,40.12c0-.86.09-1.35,0.09-1.35-0.22-3.61-1.53-6.41-4.47-11.2s-4.22-8.52-3.61-13.6a20.48,20.48,0,1,1,40.67,4.83c-0.6,5.08-2.72,8.41-6.7,12.38s-6,6.38-7,9.84c0,0-.13.49-0.3,1.32Zm-19.87-4.51a3.39,3.39,0,0,1,.57-4.8l5.06-4a3.42,3.42,0,1,1,4.23,5.37l-5.06,4A3.43,3.43,0,0,1,3332.56,174.94ZM3352.85,191a38.67,38.67,0,0,1-.46-7l17.72,2.1a47,47,0,0,1-2,6.71c-1.86,4.22-3.83,6.35-8.42,5.8S3353.6,195.56,3352.85,191Zm33.71-46.33a3.39,3.39,0,0,1,.57-4.8l5.06-4a3.42,3.42,0,1,1,4.23,5.37l-5.06,4A3.43,3.43,0,0,1,3386.56,144.7Zm0.23,36.69-4-5.06a3.42,3.42,0,0,1,5.37-4.23l4,5.05a3.39,3.39,0,0,1-.57,4.8A3.43,3.43,0,0,1,3386.78,181.38Z" transform="translate(-3157.34 -120.42)"/>
      </g>
    </g>
  </g>
</svg>
