<?xml version="1.0" encoding="utf-8"?>
<!-- Generator: Adobe Illustrator 19.1.0, SVG Export Plug-In . SVG Version: 6.00 Build 0)  -->
<svg version="1.1" id="Layer_1" xmlns="http://www.w3.org/2000/svg" xmlns:xlink="http://www.w3.org/1999/xlink" x="0px" y="0px"
	 viewBox="-103 105.1 303.9 303.9" style="enable-background:new -103 105.1 303.9 303.9;" xml:space="preserve">
<style type="text/css">
	.st0{fill:#ED4F7E;stroke:#B23B5F;stroke-width:10;stroke-miterlimit:10;}
	.st1{fill:#1C74A0;}
	.st2{fill:#C7A97D;}
	.st3{fill:#8C6239;}
	.st4{opacity:0.3;fill:#FFFFFF;}
	.st5{opacity:0.2;}
	.st6{fill:#CCCCCC;}
	.st7{fill:#FFFFFF;}
	.st8{fill:#F2F2F2;}
	.st9{fill:#666666;}
	.st10{fill:#808080;}
	.st11{fill:#B3B3B3;}
	.st12{fill:#E6E6E6;}
	.st13{fill:#4D4D4D;}
	.st14{fill:none;stroke:#000000;stroke-width:4;stroke-linecap:round;stroke-linejoin:round;stroke-miterlimit:10;}
	.st15{fill:none;stroke:#FFFFFF;stroke-width:4;stroke-linecap:round;stroke-linejoin:round;stroke-miterlimit:10;}
</style>
<title>vert-transport-future-b</title>
<circle class="st0" cx="49" cy="257.7" r="146.9"/>
<g>
	<path class="st1" d="M-23.5,179.7"/>
	<g>
		<rect x="-56.3" y="163.6" class="st2" width="84" height="148.5"/>
		<g>
			<g>
				<g>
					<rect x="-12.9" y="237.2" class="st3" width="28.5" height="57.3"/>
					<rect x="-9.1" y="241.4" class="st2" width="20.9" height="48.9"/>
					<polygon class="st4" points="-2,281.6 -2,249 5.3,249 8.3,245 -6,245 -6,286.3 					"/>
				</g>
				<g>
					<rect x="-48.6" y="237.2" class="st3" width="28.5" height="57.3"/>
					<rect x="-44.8" y="241.4" class="st2" width="20.9" height="48.9"/>
					<polygon class="st4" points="-37.8,281.6 -37.8,249 -30.4,249 -27.4,245 -41.7,245 -41.7,286.3 					"/>
				</g>
			</g>
			<g>
				<g>
					<rect x="-12.9" y="174.3" class="st3" width="28.5" height="57.3"/>
					<rect x="-9.1" y="178.5" class="st2" width="20.9" height="48.9"/>
					<polygon class="st4" points="-2,218.7 -2,186.1 5.3,186.1 8.3,182.1 -6,182.1 -6,223.5 					"/>
				</g>
				<g>
					<rect x="-48.6" y="174.3" class="st3" width="28.5" height="57.3"/>
					<rect x="-44.8" y="178.5" class="st2" width="20.9" height="48.9"/>
					<polygon class="st4" points="-37.8,218.7 -37.8,186.1 -30.4,186.1 -27.4,182.1 -41.7,182.1 -41.7,223.5 					"/>
				</g>
			</g>
		</g>
		<polygon class="st5" points="28,311 -55.9,311 -48.6,302.5 20.6,302.2 20.3,245 -8.1,245 -7.6,302.6 -19,302.8 -19,245.4 
			-8.4,232 20.1,232 20.3,174.5 28,163.5 		"/>
		<circle cx="18.9" cy="238.8" r="3.6"/>
	</g>
	<g>
		<g>
			<path d="M153.6,331.5c0,0-1.2,0-7.8-1s-8.9-8.5-7.6-16.7s7.6-14.1,14.2-13.1S154.9,323.2,153.6,331.5z"/>
		</g>
		<g>
			<path d="M77.7,368.1c0,0-1.5-0.7-9.9-2s-11.3-10.1-9.7-20.6c1.6-10.5,9.7-18,18.1-16.7C84.5,330.1,79.3,357.6,77.7,368.1z"/>
		</g>
		<path class="st6" d="M-17.9,333.7c0,0,3,9.3,18.4,14.6c15.4,5.3,49.9,7.9,49.9,7.9s9-40.2,13.1-49c0,0-23.7-2-41-7.3
			c-13.1-4-21-13.9-21-13.9S-11.4,304.6-17.9,333.7z"/>
		<path d="M1.5,286c0,0,5.6,8.6,21,13.9c15.4,5.3,41,7.3,41,7.3s19.6-34.8,25.1-39.7c5.3-4.6-15.5-5-32.8-10.3
			C38.6,252,38,247.3,38,247.3S13.9,256.3,1.5,286z"/>
		<path class="st6" d="M90.2,235.7c19.4,0,49.6,15.3,49.6,15.3s-47.3,12.7-50.3,13.8s-16.3-2.3-33.6-7.6C38.6,252,38,247.3,38,247.3
			S70.8,235.8,90.2,235.7z"/>
		<path class="st7" d="M168,313.4L50.4,356.2c0,0,9-40.2,13.1-49c0,0,18.4-38.7,24-42.2c11.2-7,47-17.1,52.3-14
			S174.4,284.3,168,313.4z"/>
		<g>
			<ellipse transform="matrix(0.9889 0.1484 -0.1484 0.9889 52.6983 -8.088)" cx="80.6" cy="349.1" rx="15.4" ry="19.2"/>
			<ellipse transform="matrix(0.9889 0.1484 -0.1484 0.9889 52.8038 -8.1789)" class="st8" cx="81.2" cy="349.8" rx="8.6" ry="12"/>
			<ellipse transform="matrix(0.9889 0.1484 -0.1484 0.9889 52.8038 -8.1789)" class="st6" cx="81.2" cy="349.8" rx="7" ry="9.8"/>
			<g>
				<g>
					<path class="st9" d="M86.6,346.7c-0.5,0.5-1.3,0.4-1.7-0.2c-0.4-0.7-0.3-1.6,0.2-2.2s1.3-0.4,1.7,0.2
						C87.2,345.2,87.1,346.1,86.6,346.7z"/>
				</g>
				<g>
					<path class="st9" d="M86.6,352.7c-0.7-0.2-1.1-1-0.9-1.9c0.2-0.8,0.8-1.4,1.5-1.2c0.7,0.2,1.1,1,0.9,1.9S87.2,352.9,86.6,352.7
						z"/>
				</g>
				<g>
					<path class="st9" d="M82.8,356.4c-0.3-0.8,0-1.7,0.6-2.1s1.3,0,1.6,0.7c0.3,0.8,0,1.7-0.6,2.1
						C83.8,357.5,83.1,357.2,82.8,356.4z"/>
				</g>
				<g>
					<path class="st9" d="M78.2,355c0.3-0.8,1-1.1,1.6-0.7s0.9,1.3,0.6,2.1s-1,1.1-1.6,0.7C78.2,356.7,77.9,355.8,78.2,355z"/>
				</g>
				<g>
					<path class="st9" d="M76.2,349.5c0.7-0.2,1.3,0.3,1.5,1.2c0.2,0.8-0.3,1.7-0.9,1.9c-0.7,0.2-1.3-0.3-1.5-1.2
						S75.5,349.7,76.2,349.5z"/>
				</g>
				<g>
					<path class="st9" d="M78.3,344.1c0.5,0.5,0.6,1.5,0.2,2.2c-0.4,0.7-1.2,0.8-1.7,0.2s-0.6-1.5-0.2-2.2
						C77,343.7,77.8,343.6,78.3,344.1z"/>
				</g>
				<g>
					<ellipse class="st9" cx="81.7" cy="342.8" rx="1.2" ry="1.6"/>
				</g>
			</g>
			
				<ellipse transform="matrix(1 -6.401708e-03 6.401708e-03 1 -2.2376 0.5313)" class="st10" cx="81.9" cy="349.8" rx="2.9" ry="4.1"/>
		</g>
		<g>
			<ellipse transform="matrix(0.9889 0.1484 -0.1484 0.9889 48.6991 -19.6243)" cx="155.9" cy="316.6" rx="12.1" ry="15.1"/>
			
				<ellipse transform="matrix(0.9889 0.1484 -0.1484 0.9889 48.6913 -19.8013)" class="st8" cx="157.1" cy="316.4" rx="6.7" ry="9.4"/>
			
				<ellipse transform="matrix(0.9889 0.1484 -0.1484 0.9889 48.6913 -19.8013)" class="st6" cx="157.1" cy="316.4" rx="5.5" ry="7.7"/>
			<g>
				<g>
					<path class="st9" d="M161.3,314c-0.4,0.4-1,0.3-1.4-0.2s-0.3-1.3,0.2-1.7c0.4-0.4,1-0.3,1.4,0.2S161.7,313.5,161.3,314z"/>
				</g>
				<g>
					<path class="st9" d="M161.3,318.7c-0.5-0.2-0.8-0.8-0.7-1.5c0.1-0.7,0.6-1.1,1.2-0.9c0.5,0.2,0.8,0.8,0.7,1.5
						S161.8,318.9,161.3,318.7z"/>
				</g>
				<g>
					<path class="st9" d="M158.3,321.6c-0.2-0.6,0-1.3,0.4-1.6c0.5-0.3,1.1,0,1.3,0.6s0,1.3-0.4,1.6
						C159.1,322.5,158.5,322.2,158.3,321.6z"/>
				</g>
				<g>
					<path class="st9" d="M154.7,320.5c0.2-0.6,0.8-0.9,1.3-0.6c0.5,0.3,0.7,1,0.4,1.6c-0.2,0.6-0.8,0.9-1.3,0.6
						S154.4,321.1,154.7,320.5z"/>
				</g>
				<g>
					<path class="st9" d="M153.1,316.2c0.5-0.2,1,0.3,1.2,0.9s-0.2,1.3-0.7,1.5c-0.5,0.2-1-0.3-1.2-0.9S152.6,316.4,153.1,316.2z"/>
				</g>
				<g>
					<path class="st9" d="M154.7,312c0.4,0.4,0.5,1.2,0.2,1.7s-0.9,0.6-1.4,0.2c-0.4-0.4-0.5-1.2-0.2-1.7
						C153.7,311.6,154.3,311.5,154.7,312z"/>
				</g>
				<g>
					<ellipse class="st9" cx="157.4" cy="311" rx="1" ry="1.2"/>
				</g>
			</g>
			
				<ellipse transform="matrix(1 -6.401708e-03 6.401708e-03 1 -2.0224 1.0152)" class="st10" cx="157.6" cy="316.4" rx="2.3" ry="3.2"/>
		</g>
		<path d="M91.4,299.6c0,0-1.1-20.8,11.8-31.4c9.9-8.2,27.2-9.7,34.7-5.9s8.6,23.1,8.6,23.1L91.4,299.6z"/>
		<path class="st6" d="M146.4,285.4c0,0-2.4,26.8-10.9,33.4c-8.7,6.7-23.5,10.1-31.7,10c-5.5-0.1-12.5-29.1-12.5-29.1L146.4,285.4z"
			/>
		<path class="st6" d="M65.1,351.2c0-1.4,0-2.9,0.3-4.3c1.6-10.5,9.7-18,18.1-16.7c5.1,0.8,9.8,5.2,11.8,10.5l4.4-2.3
			c-2.6-7.8-8.4-13.6-15.9-14.7c-11.6-1.7-22.1,7.9-24.2,22.4c-0.3,2.3-0.4,4.5-0.3,6.6L65.1,351.2z"/>
		<path class="st6" d="M144.4,322.3c0-1.4-0.7-18.4,14.2-19.5c5.1-0.4,7.4,5.4,9.5,10.7l4-2.4c-2.3-6.7-3.2-13-9.6-13
			c-22.2-0.1-21.7,23.5-21.6,25.4L144.4,322.3z"/>
		<path class="st8" d="M99.5,294.3c0,0,0-14.4,8.1-21.2c6.3-5.2,21.1-7.4,25.9-5c4.7,2.4,6.1,15.9,6.1,15.9L99.5,294.3z"/>
		<g>
			<path class="st11" d="M41.9,324.1c1.1-2.9,8.2-1.8,8.5,1.7c0.3,3.5-1.6,12.3-2.3,14.3c-1.8,4.3-8.2,4.6-8.7,0
				C38.8,335.5,40.8,327,41.9,324.1z"/>
			<path class="st12" d="M42.6,330.4c1.4-1.2,4.2-0.9,4.4,0.9c0.2,1.8-0.1,3.1-0.5,4.1c-0.9,2.2-4.2,2.4-4.5,0
				C41.7,333,42.6,330.4,42.6,330.4z"/>
		</g>
		<g>
			<path class="st11" d="M-12.5,325.4c-0.3,2.7,5.7,4.5,7.2,2s3.6-10.1,3.7-11.9c0.3-4-4.5-6.7-6.7-3.4
				C-10.5,315.4-12.2,322.7-12.5,325.4z"/>
			<path class="st12" d="M-9.5,320.8c0.6,1.4,2.9,2.3,3.7,1s1.1-2.4,1.1-3.3c0.2-2.1-2.3-3.5-3.5-1.7
				C-9.2,318.4-9.5,320.8-9.5,320.8z"/>
		</g>
		<path class="st12" d="M6.1,283.4c-0.4,0.8,4.3,6,19.6,10.3c15.4,4.3,34.9,8,35.6,6.6c0.7-1.4,16.1-30.1,16.9-31.1
			c0.7-1-17.8-2.6-29.4-8.9c-5.3-2.8-7.5-3-12.7-6.4c-1.7-1.1-9.2,3.1-18.5,13.2C11.1,274.1,6.6,282.6,6.1,283.4z"/>
		<path class="st5" d="M4.1,284.7c0.5,0.1,4.1,9.6,9.1,4.3c22-23.5,66.1-21.8,66.1-21.8L35,250.5l-16.9,13.2L4.1,284.7z"/>
		<path class="st5" d="M93.2,297.3c0,0-0.7-18.3,9.2-26.4c7.6-6.3,25.7-9.1,31.5-6.1l6.2,6.7c-4.7-2.4-19.6-0.1-25.9,5
			c-8.2,6.7-9.1,18.8-9.1,18.8L93.2,297.3z"/>
		<ellipse class="st13" cx="81.2" cy="237.9" rx="5.8" ry="7.8"/>
		<path d="M143.7,254.2c0,0,8,19.8,11.6,19.4s4.7-5.7,4.1-7.2C158.8,265.1,146.3,248.9,143.7,254.2z"/>
		<line class="st14" x1="129.4" y1="297.3" x2="137.9" y2="295.3"/>
		<path d="M86.8,238.9c-0.3,1.5-2.7,2.8-5.6,2.8c-2.9,0-5.3-1.2-5.6-2.8c-1.9,0.9-3.1,2.2-3.1,3.6c0,2.6,3.9,4.8,8.6,4.8
			c4.8,0,8.6-2.1,8.6-4.8C89.9,241.1,88.7,239.8,86.8,238.9z"/>
	</g>
	<g>
		<path class="st15" d="M68.3,233.3c0-4.1,3.3-7.4,7.4-7.4"/>
		<path class="st15" d="M58.6,233.5c0-4.4,1.7-8.5,4.5-11.5c3.1-3.4,7.6-5.6,12.6-5.6"/>
		<path class="st15" d="M49,233.7c0-7,2.7-13.3,7-18c4.9-5.3,11.9-8.7,19.7-8.7"/>
		<path class="st15" d="M39.3,233.9c0-9.5,3.6-18.1,9.5-24.5c6.7-7.3,16.2-11.8,26.8-11.8"/>
	</g>
	<g>
		<path class="st15" d="M21.6,168.4c0,4.1-3.3,7.4-7.4,7.4"/>
		<path class="st15" d="M31.3,168.2c0,4.4-1.7,8.5-4.5,11.5c-3.1,3.4-7.6,5.6-12.6,5.6"/>
		<path class="st15" d="M40.9,167.9c0,7-2.7,13.3-7,18c-4.9,5.3-11.9,8.7-19.7,8.7"/>
		<path class="st15" d="M50.6,167.7c0,9.5-3.6,18.1-9.5,24.5c-6.7,7.3-16.2,11.8-26.8,11.8"/>
	</g>
	<path class="st13" d="M12.3,171.3H-2.5c-1.2,0-2.1-0.9-2.1-2.1V169c0-1.2,0.9-2.1,2.1-2.1h14.7c1.2,0,2.1,0.9,2.1,2.1v0.2
		C14.3,170.4,13.4,171.3,12.3,171.3z"/>
</g>
</svg>
