<?xml version="1.0" encoding="utf-8"?>
<!-- Generator: Adobe Illustrator 19.1.0, SVG Export Plug-In . SVG Version: 6.00 Build 0)  -->
<svg version="1.1" id="Layer_1" xmlns="http://www.w3.org/2000/svg" xmlns:xlink="http://www.w3.org/1999/xlink" x="0px" y="0px"
	 viewBox="-284 231.2 362 362" style="enable-background:new -284 231.2 362 362;" xml:space="preserve">
<style type="text/css">
	.st0{fill:#ED4F7E;stroke:#B23B5F;stroke-width:10;stroke-miterlimit:10;}
	.st1{fill:#77808E;}
	.st2{opacity:0.3;}
	.st3{fill:#4B5764;}
	.st4{fill:#6A7581;}
	.st5{fill:#FFD900;}
	.st6{fill:#CE9700;}
	.st7{fill:#FFFFFF;}
	.st8{fill:#F0C400;}
	.st9{opacity:0.5;fill:#CE9700;enable-background:new    ;}
</style>
<circle class="st0" cx="-103" cy="412.2" r="176"/>
<g>
	<g>
		<g>
			<g>
				<path class="st1" d="M-62.6,337.8c-34.4-21.3-79.5-10.7-100.8,23.7c-16.1,25.9-16.2,61.7-0.3,86.3l-26.2,42.2l0.1,0.1
					c-3.7,7.7-1.3,15.4,4.3,22.4c-0.5,0.3-0.9,0.6-1.3,1.1c-0.8,1.3-0.4,3,0.9,3.9l17.1,10.6c1.3,0.8,3,0.4,3.9-0.9
					c0.3-0.5,0.4-1,0.4-1.6c8.8,1.8,16.4,1.6,21.7-5l26.6-43.2c16,6.3,61.1-12.7,77.2-38.7C-17.6,404.2-28.2,359.1-62.6,337.8z"/>
			</g>
			<g class="st2">
				<g>
					<path class="st3" d="M-101.1,330.4c12.8,0,25.6,3.7,36.7,10.5c15.7,9.8,26.8,25.2,31.1,43.2c4.3,18.1,1.1,36.8-8.6,52.5
						c-6.2,9.8-17.3,19.5-31.2,27.1c-12.6,6.8-26.1,11.1-35.1,11.1c-2.5,0-4.7-0.4-6.3-1l-2.8-1.1l-1.6,2.5l-26.5,43.1
						c-2.5,3.1-5.8,4.5-10.5,4.5c-2.1,0-4.5-0.3-7.6-0.9l-4.5-0.9l0.1,3l-14.5-8.9l2.8-1.3l-2.8-3.7c-5.3-6.8-6.6-13-3.8-18.8l0.5-1
						l25.1-40.7l1.3-1.9l-1.3-1.9c-7.3-11.3-11.3-25.8-11.3-40.7c0-15,4.2-29.7,11.6-41.7c6.3-10.2,15.2-18.6,25.8-24.4
						C-124.3,333.3-112.7,330.4-101.1,330.4 M-101.1,326.7c-24.4,0-48.4,12.3-62.2,34.6c-16.1,25.9-16.2,61.7-0.3,86.3l-26.2,42.2
						l0.1,0.1c-3.7,7.7-1.3,15.4,4.3,22.4c-0.5,0.3-0.9,0.6-1.3,1.1c-0.8,1.3-0.4,3,0.9,3.9l17.1,10.6c0.5,0.3,1,0.4,1.5,0.4
						c0.9,0,1.9-0.5,2.4-1.4c0.3-0.5,0.4-1,0.4-1.6c2.9,0.6,5.7,1,8.3,1c5.3,0,9.8-1.5,13.4-6l26.6-43.2c2.1,0.9,4.7,1.3,7.7,1.3
						c19.7,0,55.5-17.3,69.5-39.8c21.3-34.4,10.7-79.5-23.7-100.8C-74.7,330.4-87.9,326.7-101.1,326.7L-101.1,326.7z"/>
				</g>
			</g>
		</g>
		<g>
			<path class="st4" d="M-166.4,483.3c-0.5,0-0.9-0.1-1.4-0.4l-12.8-7.9c-1.3-0.8-1.6-2.4-0.9-3.5c0.8-1.3,2.4-1.6,3.5-0.9l12.8,7.9
				c1.3,0.8,1.6,2.4,0.9,3.5C-164.6,482.9-165.5,483.3-166.4,483.3z"/>
		</g>
		<g>
			<g>
				<path class="st5" d="M-62.6,337.8c-34.4-21.3-79.5-10.7-100.8,23.7c-16.1,25.9-16.2,61.7-0.3,86.3l-8.2,13.2l15.1,9.3l32.4,20.2
					l8.2-13.2c17.6,5,55.7-1.4,77.2-38.7C-18.7,403.5-28.2,359.1-62.6,337.8z"/>
			</g>
			<g class="st2">
				<g>
					<path class="st6" d="M-101.1,330.4c12.8,0,25.6,3.7,36.7,10.5c15.6,9.7,26.6,24.9,30.6,43c4,17.9,1.1,36.7-8.3,52.9
						c-7.7,13.2-17.9,23.3-30.5,30c-10.1,5.4-21.3,8.3-31.6,8.3c-4,0-7.8-0.5-11-1.4l-2.6-0.8l-1.4,2.3l-6.3,10.1l-29.3-18.1
						l-12.1-7.4l6.3-10.1l1.3-1.9l-1.3-1.9c-7.3-11.3-11.3-25.8-11.3-40.7c0-15,4.2-29.7,11.6-41.7c6.3-10.2,15.2-18.6,25.8-24.4
						C-124.3,333.3-112.7,330.4-101.1,330.4 M-101.1,326.7c-24.4,0-48.4,12.3-62.2,34.6c-16.1,25.9-16.2,61.7-0.3,86.3l-8.2,13.2
						l15.1,9.3l32.4,20.2l8.2-13.2c3.4,1,7.4,1.5,12,1.5c19.5,0,47.7-10,65.2-40.2c20.3-35,10.7-79.5-23.7-100.8
						C-74.7,330.4-87.9,326.7-101.1,326.7L-101.1,326.7z"/>
				</g>
			</g>
		</g>
		<g class="st2">
			<g>
				<path class="st7" d="M-54.1,365.4c-24.3-41.9-89.6-33.1-100,9.4c-0.4,1.4,1.3,2.4,2.3,1.4c6.8-5.8,23.7-18.6,40.9-20.2
					c20.3-1.8,45.7,7.6,55,11.3C-54.6,367.9-53.5,366.5-54.1,365.4z"/>
			</g>
		</g>
		<g>
			<path class="st4" d="M-131.7,504.8c-0.5,0-0.9-0.1-1.4-0.4l-12.8-7.9c-1.3-0.8-1.6-2.4-0.9-3.5c0.8-1.3,2.4-1.6,3.5-0.9l12.8,7.9
				c1.3,0.8,1.6,2.4,0.9,3.5C-130,504.3-130.8,504.8-131.7,504.8z"/>
		</g>
		<g>
			<path class="st4" d="M-173.4,494.7c-0.5,0-0.9-0.1-1.4-0.4l-12.8-7.9c-1.3-0.8-1.6-2.4-0.9-3.5c0.8-1.3,2.4-1.6,3.5-0.9l12.8,7.9
				c1.3,0.8,1.6,2.4,0.9,3.5C-171.8,494.2-172.5,494.7-173.4,494.7z"/>
		</g>
		<g>
			<path class="st4" d="M-138.8,516.2c-0.5,0-0.9-0.1-1.4-0.4l-12.8-7.9c-1.3-0.8-1.6-2.4-0.9-3.5c0.8-1.3,2.4-1.6,3.5-0.9l12.8,7.9
				c1.3,0.8,1.6,2.4,0.9,3.5C-137,515.8-137.9,516.2-138.8,516.2z"/>
		</g>
		<g>
			<polygon class="st8" points="-143.6,477.7 -151,473.1 -125.4,431.9 -133.5,397.5 -125,395.5 -116.1,433.4 			"/>
		</g>
		<g>
			<circle class="st5" cx="-129.2" cy="396.5" r="10.1"/>
			<path class="st8" d="M-129.3,411c-2.6,0-5.3-0.8-7.6-2.1c-3.3-2-5.5-5.2-6.4-8.9c-0.9-3.8-0.3-7.7,1.8-11c2-3.3,5.2-5.5,8.9-6.4
				c3.8-0.9,7.7-0.3,11,1.8c3.3,2,5.5,5.2,6.4,8.9c0.9,3.8,0.3,7.7-1.8,11c-2,3.3-5.2,5.5-8.9,6.4C-127.1,410.8-128.2,411-129.3,411
				z M-129.2,390.8c-1.9,0-3.8,1-4.8,2.6c-1.6,2.6-0.9,6.2,1.9,7.8c2.6,1.6,6.2,0.9,7.8-1.9c0.8-1.3,1-2.8,0.8-4.3
				c-0.4-1.5-1.3-2.8-2.5-3.5C-127.2,391.1-128.2,390.8-129.2,390.8z"/>
		</g>
		<g>
			
				<rect x="-106.5" y="409.6" transform="matrix(-0.1982 -0.9802 0.9802 -0.1982 -542.6084 413.8072)" class="st8" width="8.8" height="38.4"/>
		</g>
		<g>
			<circle class="st5" cx="-83.1" cy="425.1" r="10.1"/>
			<path class="st8" d="M-83.2,439.4c-2.6,0-5.3-0.8-7.6-2.1c-6.8-4.2-8.8-13.1-4.7-19.9c4.2-6.8,13.1-8.8,19.9-4.7
				c6.8,4.2,8.8,13.1,4.7,19.9l0,0c-2,3.3-5.2,5.5-8.9,6.4C-81,439.3-82.1,439.4-83.2,439.4z M-83.1,419.4c-1.9,0-3.8,1-4.8,2.6
				c-1.6,2.6-0.9,6.2,1.9,7.8c1.3,0.8,2.8,1,4.3,0.8c1.5-0.4,2.8-1.3,3.5-2.5l0,0c0.8-1.3,1-2.8,0.8-4.3c-0.4-1.5-1.3-2.8-2.5-3.5
				C-81.1,419.7-82.1,419.4-83.1,419.4z"/>
		</g>
	</g>
	<g>
		<path class="st6" d="M-53.7,323.4c1,0.6,1.9,1.3,2.8,1.9c1.9-3,3.8-6.2,5.7-9.2c1.8-2.9,3.5-5.8,5.4-8.7c-0.9-0.6-1.9-1.3-2.8-1.8
			c-0.6-0.4-1.3-0.8-1.9-1.1c-3.7,5.9-7.4,11.8-11.1,17.9C-55,322.7-54.4,323.1-53.7,323.4z"/>
		<path class="st9" d="M-89,311.1c1.9,0.3,3.7,0.5,5.5,0.9c1.4-6.8,2.9-13.6,4.3-20.5c-1.9-0.4-3.7-0.6-5.5-0.9
			c-1.1,5.7-2.4,11.3-3.5,17C-88.5,308.7-88.8,309.8-89,311.1z"/>
		<path class="st6" d="M-123.7,313.7c1.8-0.5,3.7-0.9,5.4-1.4c-1-6.8-2-13.6-2.9-20.4c-1.8,0.4-3.7,0.8-5.4,1.3
			c0.8,4.9,1.4,9.7,2.1,14.6C-124.2,309.8-123.9,311.8-123.7,313.7z"/>
		<path class="st9" d="M-149.4,325.3c-3.3-6-6.4-12-9.7-18c-1.6,1-3.1,2-4.7,3.1c3.3,6,6.4,12.1,9.7,18.1
			C-152.5,327.3-150.9,326.3-149.4,325.3z"/>
		<path class="st6" d="M-69.2,486.6c3.3,6,6.4,12.1,9.7,18c1.6-0.8,3.4-1.6,5-2.5c-3.3-6-6.4-12-9.7-18
			C-65.8,485-67.5,485.8-69.2,486.6z"/>
		<path class="st6" d="M-173.2,347.4c-5-4.5-10.1-8.9-15.1-13.5c-1.1,1.5-2.3,2.9-3.4,4.5c5,4.5,10.1,9.1,15.2,13.6
			C-175.4,350.4-174.3,348.9-173.2,347.4z"/>
		<path class="st9" d="M-44,470.3c5,4.5,10.1,9.1,15.2,13.6c1.4-1.3,2.6-2.5,3.9-3.9c-5-4.5-10.1-9.1-15.1-13.5
			C-41.3,467.8-42.7,469-44,470.3z"/>
		<path class="st6" d="M-24.8,446.1c6.3,2.5,12.6,5,18.9,7.6c0.9-1.6,1.8-3.3,2.5-5c-6.3-2.5-12.6-5-18.8-7.6
			C-22.9,442.8-23.8,444.6-24.8,446.1z"/>
		<path class="st9" d="M-187.9,374.9c-6.3-2.5-12.6-5-18.8-7.6c-0.6,1.8-1.3,3.5-1.8,5.3c6.3,2.5,12.6,5,18.9,7.6
			C-189,378.5-188.5,376.7-187.9,374.9z"/>
		<path class="st6" d="M-193.1,404.8c-6.8-0.3-13.6-0.4-20.4-0.6c0,1.9,0,3.8,0,5.5c6.8,0.3,13.7,0.4,20.5,0.6
			C-192.9,408.6-193.1,406.7-193.1,404.8z"/>
		<path class="st9" d="M-13.8,416c6.8,0.3,13.7,0.4,20.5,0.6c0.3-1.9,0.5-3.7,0.8-5.5c-6.8-0.3-13.6-0.4-20.4-0.6
			C-13.2,412.4-13.4,414.1-13.8,416z"/>
		<path class="st6" d="M-15,377.1c0.5,1.8,0.9,3.7,1.1,5.4c6.6-2.1,13.1-4.3,19.7-6.4c-0.4-1.9-0.8-3.7-1.3-5.4
			c-4.4,1.5-8.8,2.9-13.4,4.4C-10.7,375.7-12.8,376.5-15,377.1z"/>
		<path class="st9" d="M-29.4,345.9c1.1,1.5,2.1,3,3.1,4.7c5.5-4.3,11-8.7,16.5-13c-1-1.5-2.1-3-3.1-4.5c-4.7,3.7-9.3,7.3-13.9,11
			C-27.8,344.5-28.7,345.2-29.4,345.9z"/>
	</g>
</g>
</svg>
