<?xml version="1.0" encoding="utf-8"?>
<!-- Generator: Adobe Illustrator 19.1.0, SVG Export Plug-In . SVG Version: 6.00 Build 0)  -->
<svg version="1.1" id="Layer_1" xmlns="http://www.w3.org/2000/svg" xmlns:xlink="http://www.w3.org/1999/xlink" x="0px" y="0px"
	 viewBox="-103 105.1 303.9 303.9" style="enable-background:new -103 105.1 303.9 303.9;" xml:space="preserve">
<style type="text/css">
	.st0{fill:#37BEC0;stroke:#298F90;stroke-width:10;stroke-miterlimit:10;}
	.st1{fill:#FFFFFF;}
	.st2{clip-path:url(#SVGID_2_);}
	.st3{fill:#A4CE4E;}
	.st4{opacity:0.1;}
	.st5{clip-path:url(#SVGID_4_);}
	.st6{fill:#9B5CA4;}
	.st7{fill:#333333;}
	.st8{fill:#F2F2F2;}
	.st9{clip-path:url(#SVGID_6_);}
	.st10{fill:#FAAD40;}
	.st11{opacity:0.5;}
	.st12{fill:#4D4D4D;}
	.st13{fill:#CCCCCC;}
	.st14{opacity:0.3;fill:#FFFFFF;}
	.st15{clip-path:url(#SVGID_8_);}
	.st16{fill:#0EA2DC;}
	.st17{fill:#42210B;}
	.st18{fill:#603813;}
	.st19{fill:#F9E8D8;}
	.st20{fill:#461A00;}
	.st21{fill:#FBB03B;}
	.st22{opacity:0.2;}
	.st23{opacity:0.8;fill:#FFFFFF;}
	.st24{fill:none;stroke:#754C24;stroke-width:12;stroke-miterlimit:10;}
	.st25{fill:#C69C6D;}
</style>
<title>vert-transport-future-b</title>
<g>
	<g id="Layer_3">
		<circle class="st0" cx="48.9" cy="257.1" r="146.9"/>
	</g>
</g>
<g>
	<g>
		<g>
			<circle class="st1" cx="-27.1" cy="268.7" r="52.4"/>
			<circle class="st1" cx="124.4" cy="268.7" r="52.4"/>
			<circle class="st1" cx="25.1" cy="226.7" r="69.3"/>
			<circle class="st1" cx="93.8" cy="216.6" r="44.8"/>
			<rect x="-27.1" y="265.1" class="st1" width="151.5" height="56"/>
		</g>
		<g>
			<g>
				<defs>
					<circle id="SVGID_1_" cx="90.6" cy="219" r="38.5"/>
				</defs>
				<clipPath id="SVGID_2_">
					<use xlink:href="#SVGID_1_"  style="overflow:visible;"/>
				</clipPath>
				<g class="st2">
					<rect x="40.2" y="166" class="st3" width="98.5" height="109.9"/>
				</g>
			</g>
			<g class="st4">
				<path d="M76.1,206.7c0-0.5,0.1-1.2,0.2-2.1h-1.2c-0.3,0-0.5-0.3-0.5-0.6l0.1-0.6c0-0.3,0.4-0.6,0.7-0.6h1.3
					c1.3-5,4.6-9.1,10.3-9.1c2.5,0,4.6,0.6,6.1,2.5c0.2,0.3,0.2,0.6-0.1,1l-2.2,2.8c-0.2,0.3-0.6,0.2-0.8,0c-0.9-1-1.9-1.4-3.1-1.4
					c-1.8,0-3.9,1.4-4.8,4.3h6.6c0.4,0,0.5,0.3,0.5,0.6l-0.1,0.6c0,0.3-0.4,0.6-0.7,0.6h-6.7c-0.2,0.9-0.2,1.6-0.3,2.1h5.4
					c0.4,0,0.5,0.3,0.5,0.6l-0.1,0.6c0,0.3-0.4,0.6-0.7,0.6h-5.1c0.2,1.8,1.1,3.1,3.5,3.1c1.3,0,2.2-0.6,3.2-1.4
					c0.3-0.2,0.6-0.3,0.8,0l1.8,3.1c0.2,0.3,0.1,0.7-0.2,0.9c-1.9,1.5-3.9,2.5-6.5,2.5c-4.4,0-7.8-3-8.2-8.2h-1.5
					c-0.3,0-0.5-0.3-0.5-0.6l0.1-0.6c0-0.3,0.4-0.6,0.7-0.6H76.1z"/>
			</g>
			<path class="st4" d="M72.1,245.6c1.9-3.1,2.3-5.9,2.2-8.4h-1.3c-0.3,0-0.5-0.3-0.5-0.6l0.1-0.6c0-0.3,0.3-0.6,0.7-0.6h0.9
				c-0.1-1.2-0.2-2.6-0.2-3.6c0-5.6,2.8-8.7,7.4-8.7c2.6,0,4.4,1.6,5.1,2.4c0.2,0.2,0.2,0.6-0.1,0.9l-2,2.4c-0.3,0.3-0.7,0.2-0.9,0
				c-0.4-0.4-1.3-1.1-2.4-1.1c-1,0-1.9,1-1.9,2.9c0,0.9,0.4,2.6,0.6,4.7h2.3c0.3,0,0.5,0.3,0.5,0.6l-0.1,0.6c0,0.3-0.3,0.6-0.7,0.6
				h-2.1c-0.1,1.5-0.4,3.2-0.9,5.2h4.6c0.3,0,0.5,0.3,0.4,0.6l-0.4,3.2c-0.1,0.3-0.3,0.6-0.6,0.6H72.5c-0.3,0-0.5-0.3-0.5-0.6
				L72.1,245.6z"/>
			<path class="st4" d="M96.5,235.9l1.8-2.5c0.3-0.4,0.9-0.4,1.1-0.2c0.5,0.5,1.5,1.4,3.3,1.5l0.7-5.1c-2.1-1.7-5.2-3.6-5.2-7.1
				c0-3.4,2.3-6.8,7.2-7l0.2-1.1c0.1-0.4,0.4-0.6,0.7-0.6h0.3c0.3,0,0.6,0.3,0.5,0.6l-0.2,1.1c2.7,0.3,4.7,1.7,5.5,2.4
				c0.3,0.3,0.5,0.8,0.2,1.1l-2,2.5c-0.3,0.3-0.8,0.4-1.1,0.2c-0.6-0.5-1.7-1.2-3.2-1.6l-0.7,4.5c1.9,1.4,5.6,3.4,5.6,7.5
				c0,3.7-2.6,7.2-7.8,7.5l-0.5,3.5c0,0.3-0.4,0.6-0.7,0.6h-0.3c-0.3,0-0.6-0.3-0.6-0.6l0.5-3.5c-3-0.3-4.9-2-5.5-2.5
				C96.3,236.5,96.2,236.3,96.5,235.9z M104.9,219.8c-1.1,0.2-1.6,1.1-1.6,1.9c0,0.8,0.3,1.4,1,2L104.9,219.8z M105.8,232.5
				c0-0.8-0.4-1.5-1-2.1l-0.6,4.4C105.1,234.5,105.8,233.7,105.8,232.5z"/>
			<g>
				<path class="st1" d="M74.6,205.2c0-0.5,0.1-1.2,0.2-2.1h-1.2c-0.3,0-0.5-0.3-0.5-0.6l0.1-0.6c0-0.3,0.4-0.6,0.7-0.6h1.3
					c1.3-5,4.6-9.1,10.3-9.1c2.5,0,4.6,0.6,6.1,2.5c0.2,0.3,0.2,0.6-0.1,1l-2.2,2.8c-0.2,0.3-0.6,0.2-0.8,0c-0.9-1-1.9-1.4-3.1-1.4
					c-1.8,0-3.9,1.4-4.8,4.3h6.6c0.3,0,0.5,0.3,0.5,0.6l-0.1,0.6c0,0.3-0.4,0.6-0.7,0.6h-6.7c-0.2,0.9-0.2,1.6-0.3,2.1h5.4
					c0.4,0,0.5,0.3,0.5,0.6l-0.1,0.6c0,0.3-0.4,0.6-0.7,0.6h-5.1c0.2,1.8,1.1,3.1,3.5,3.1c1.3,0,2.2-0.6,3.2-1.4
					c0.3-0.2,0.6-0.3,0.8,0l1.8,3.1c0.2,0.3,0.1,0.7-0.2,0.9c-1.9,1.5-3.9,2.5-6.5,2.5c-4.4,0-7.8-3-8.2-8.2h-1.5
					c-0.3,0-0.5-0.3-0.5-0.6l0.1-0.6c0-0.3,0.4-0.6,0.7-0.6H74.6z"/>
			</g>
			<path class="st1" d="M70.7,244.1c1.9-3.1,2.3-5.9,2.2-8.4h-1.3c-0.3,0-0.5-0.3-0.5-0.6l0.1-0.6c0-0.3,0.3-0.6,0.7-0.6h0.9
				c-0.1-1.2-0.2-2.6-0.2-3.6c0-5.6,2.8-8.7,7.4-8.7c2.6,0,4.4,1.6,5.1,2.4c0.2,0.2,0.2,0.6-0.1,0.9l-2,2.4c-0.3,0.3-0.7,0.2-0.9,0
				c-0.4-0.4-1.3-1.1-2.4-1.1c-1,0-1.9,1-1.9,2.9c0,0.9,0.4,2.6,0.6,4.7h2.3c0.3,0,0.5,0.3,0.5,0.6l-0.1,0.6c0,0.3-0.3,0.6-0.7,0.6
				h-2.1c-0.1,1.5-0.4,3.2-0.9,5.2H82c0.3,0,0.5,0.3,0.4,0.6l-0.4,3.2c-0.1,0.3-0.3,0.6-0.6,0.6H71.1c-0.3,0-0.5-0.3-0.5-0.6
				L70.7,244.1z"/>
			<path class="st1" d="M95.1,234.3l1.8-2.5c0.3-0.4,0.9-0.4,1.1-0.2c0.5,0.5,1.5,1.4,3.3,1.5l0.7-5.1c-2.1-1.7-5.2-3.6-5.2-7.1
				c0-3.4,2.3-6.8,7.2-7l0.2-1.1c0.1-0.4,0.4-0.6,0.7-0.6h0.3c0.3,0,0.6,0.3,0.5,0.6l-0.2,1.1c2.7,0.3,4.7,1.7,5.5,2.4
				c0.3,0.3,0.5,0.8,0.2,1.1l-2,2.5c-0.3,0.3-0.8,0.4-1.1,0.2c-0.6-0.5-1.7-1.2-3.2-1.6l-0.7,4.5c1.9,1.4,5.6,3.4,5.6,7.5
				c0,3.7-2.6,7.2-7.8,7.5l-0.5,3.5c0,0.3-0.4,0.6-0.7,0.6h-0.3c-0.3,0-0.6-0.3-0.6-0.6l0.5-3.5c-3-0.3-4.9-2-5.5-2.5
				C94.8,234.9,94.7,234.8,95.1,234.3z M103.4,218.2c-1.1,0.2-1.6,1.1-1.6,1.9c0,0.8,0.3,1.4,1,2L103.4,218.2z M104.3,231
				c0-0.8-0.4-1.5-1-2.1l-0.6,4.4C103.6,233,104.3,232.2,104.3,231z"/>
		</g>
		<g>
			<g>
				<defs>
					<circle id="SVGID_3_" cx="23.3" cy="222.7" r="55.5"/>
				</defs>
				<clipPath id="SVGID_4_">
					<use xlink:href="#SVGID_3_"  style="overflow:visible;"/>
				</clipPath>
				<g class="st5">
					<rect x="-49.5" y="146.3" class="st6" width="142" height="158.5"/>
				</g>
			</g>
			<path class="st7" d="M28.8,188.5c17.1,0,27.3,12,27.3,28.9c0,11.9-6.2,26.9-20.6,26.9c-4.8,0-6.8-2.8-7.6-6.1h-0.5
				c-2,3.3-5.7,6.1-10.2,6.1c-6.8,0-10.9-6.8-10.9-14c0-9.9,7.2-18.5,15.8-18.5c5.9,0,8.1,4.8,8.1,4.8l1.3-2.9
				c0.5-0.9,1-1.1,1.7-1.1h3.2c0.7,0,1.2,0.6,1.2,1.5l-1.9,13c-0.9,6.8,1.1,7.6,2.6,7.6c5,0,7.1-10.6,7.1-17
				c0-10.9-5.7-19.4-18.1-19.4c-16.4,0-27.9,13-27.9,31.7c0,9.7,4.8,18.5,12.3,22.2c0.5,0.3,0.9,1.1,0.5,1.8l-3.2,6.4
				c-0.5,0.8-1.1,1.2-1.9,0.9c-10.7-4.2-18.1-17.3-18.1-30.3C-10.9,206.8,5.9,188.5,28.8,188.5z M19.5,234.4c2.4,0,5.4-3.3,5.4-8.1
				c0.1-3.5-1.9-5.2-3.9-5.2c-2.6,0-5.3,3.7-5.3,8.6C15.8,232.4,17.5,234.4,19.5,234.4z"/>
			<path class="st8" d="M24.5,186.1c17.1,0,27.3,12,27.3,28.9c0,11.9-6.2,26.9-20.6,26.9c-4.8,0-6.8-2.8-7.6-6.1h-0.5
				c-2,3.3-5.7,6.1-10.2,6.1c-6.8,0-10.9-6.8-10.9-14c0-9.9,7.2-18.5,15.8-18.5c5.9,0,8.1,4.8,8.1,4.8l1.3-2.9
				c0.5-0.9,1-1.1,1.7-1.1h3.2c0.7,0,1.2,0.6,1.2,1.5l-1.9,13c-0.9,6.8,1.1,7.6,2.6,7.6c5,0,7.1-10.6,7.1-17
				c0-10.9-5.7-19.4-18.1-19.4c-16.4,0-27.9,13-27.9,31.7c0,9.7,4.8,18.5,12.3,22.2c0.5,0.3,0.9,1.1,0.5,1.8l-3.2,6.4
				c-0.5,0.8-1.1,1.2-1.9,0.9c-10.7-4.2-18.1-17.3-18.1-30.3C-15.2,204.4,1.6,186.1,24.5,186.1z M15.2,232c2.4,0,5.4-3.3,5.4-8.1
				c0.1-3.5-1.9-5.2-3.9-5.2c-2.6,0-5.3,3.7-5.3,8.6C11.5,230,13.2,232,15.2,232z"/>
		</g>
		<g>
			<g>
				<defs>
					<circle id="SVGID_5_" cx="127.9" cy="269.1" r="44.6"/>
				</defs>
				<clipPath id="SVGID_6_">
					<use xlink:href="#SVGID_5_"  style="overflow:visible;"/>
				</clipPath>
				<g class="st9">
					<rect x="69.4" y="207.6" class="st10" width="114.2" height="127.5"/>
				</g>
			</g>
			<g>
				<path class="st11" d="M152.7,281.2l0.9,0.6l10.8-27.8c0.2-0.6,0-1.3-0.5-1.6l-0.7-0.5L152.7,281.2z"/>
				<path class="st11" d="M92.2,283.1l35.4,8.6c1.9,0.4,3.9,0.2,5.7-0.6l19.2-9.5v2.2c0,0.9-0.5,1.6-1.3,2l-17.9,8.2
					c-1.8,0.8-3.8,1-5.7,0.6l-34-7.7c-0.8-0.2-1.4-0.9-1.4-1.7V283.1z"/>
				<path class="st1" d="M154.7,281.4"/>
				<path class="st1" d="M133.3,291.2l18.6-8.7c0.8-0.3,0.7-1.5-0.2-1.7l-37.3-8.5c-0.2,0-0.4,0-0.6,0.1l-21.1,9.8
					c-0.8,0.3-0.7,1.5,0.2,1.7l34.7,7.9C129.5,292.1,131.5,291.9,133.3,291.2z"/>
				<path class="st1" d="M133.3,291.2l18.6-8.7c0.8-0.3,0.7-1.5-0.2-1.7l-37.3-8.5c-0.2,0-0.4,0-0.6,0.1l-21.1,9.8
					c-0.8,0.3-0.7,1.5,0.2,1.7l34.7,7.9C129.5,292.1,131.5,291.9,133.3,291.2z"/>
				<path class="st1" d="M152.7,281.2l-38.5-8.9l11.2-28.4c0.2-0.5,0.7-0.7,1.1-0.6l36.4,8.4c0.7,0.2,1.1,0.9,0.8,1.5L152.7,281.2z"
					/>
				<polygon class="st12" points="150.8,278.5 117.6,270.9 127.6,245.8 160.8,253.5 				"/>
				<g>
					<ellipse class="st1" cx="153.1" cy="281.1" rx="0.8" ry="1.1"/>
					<polygon class="st1" points="150.3,279.4 153.2,280.1 153,282.2 150.2,281.6 					"/>
					<ellipse class="st12" cx="153.1" cy="281.1" rx="0.5" ry="0.7"/>
				</g>
				<g>
					<polygon class="st13" points="120.1,279.8 124.5,280.8 128,279.2 123.7,278.2 					"/>
					<polygon class="st13" points="125,280.9 129.3,281.9 132.9,280.2 128.5,279.3 					"/>
					<polygon class="st13" points="129.8,282 134.2,282.9 137.8,281.3 133.4,280.4 					"/>
					<polygon class="st13" points="110.4,277.6 114.7,278.6 118.3,277 114,276 					"/>
					<polygon class="st13" points="115.2,278.7 119.6,279.7 123.2,278.1 118.8,277.1 					"/>
					<polygon class="st13" points="143.3,280.4 138.9,279.4 136.3,280.6 140.6,281.6 					"/>
					<polygon class="st13" points="138.4,279.3 134.1,278.3 131.4,279.5 135.8,280.5 					"/>
					<polygon class="st13" points="128.7,277.2 124.3,276.2 121.7,277.4 126.1,278.3 					"/>
					<polygon class="st13" points="123.8,276.1 119.4,275.2 116.8,276.3 121.2,277.3 					"/>
					<polygon class="st13" points="133.6,278.2 129.2,277.3 126.6,278.5 130.9,279.4 					"/>
					<polygon class="st13" points="134.7,283 139.1,284 142.6,282.4 138.2,281.4 					"/>
					<polygon class="st13" points="112.2,283.4 116.5,284.4 120.1,282.8 115.8,281.8 					"/>
					<polygon class="st13" points="117,284.5 121.4,285.5 125,283.9 120.6,282.9 					"/>
					<polygon class="st13" points="121.9,285.6 126.3,286.6 129.8,285 125.5,284 					"/>
					<polygon class="st13" points="102.5,281.3 106.8,282.2 110.4,280.6 106.1,279.7 					"/>
					<polygon class="st13" points="107.3,282.4 111.7,283.3 115.3,281.7 110.9,280.8 					"/>
					<polygon class="st13" points="126.8,286.7 131.2,287.7 134.7,286.1 130.3,285.1 					"/>
					<polygon class="st13" points="148.5,281.5 143.8,280.5 141.1,281.7 145.7,282.7 					"/>
					<polygon class="st13" points="116.3,276.2 118.9,275 114.5,274.1 112,275.2 					"/>
					<polygon class="st13" points="104,278.8 108.2,279.8 111.8,278.2 107.5,277.2 					"/>
					<polygon class="st13" points="108.7,279.9 113.1,280.9 116.7,279.3 112.3,278.3 					"/>
					<polygon class="st13" points="123.4,283.2 127.8,284.1 131.3,282.5 126.9,281.6 					"/>
					<polygon class="st13" points="128.2,287.3 123.8,286.3 120.6,287.8 125,288.8 					"/>
					<polygon class="st13" points="120.1,287.6 123.3,286.2 109.1,283 106,284.4 					"/>
					<polygon class="st13" points="105.5,284.2 108.6,282.9 104.2,281.9 101.2,283.2 					"/>
					<polygon class="st13" points="136.2,283.6 131.8,282.6 128.3,284.3 132.7,285.2 					"/>
					<polygon class="st13" points="113.6,281 118,282 121.6,280.4 117.2,279.4 					"/>
					<polygon class="st13" points="118.5,282.1 122.9,283.1 126.4,281.5 122.1,280.5 					"/>
					<polygon class="st13" points="136.7,283.7 133.2,285.3 137.5,286.3 141.2,284.7 					"/>
				</g>
				<polygon class="st14" points="122.9,257.6 127.6,245.8 160.8,253.5 				"/>
				<path class="st4" d="M133.3,291.2l18.6-8.7c0.8-0.3,0.7-1.5-0.2-1.7l-37.3-8.5c-0.2,0-0.4,0-0.6,0.1l13.7,19.3
					C129.5,292.1,131.5,291.9,133.3,291.2z"/>
			</g>
		</g>
		<g>
			<defs>
				<circle id="SVGID_7_" cx="-26.8" cy="269.1" r="44.6"/>
			</defs>
			<clipPath id="SVGID_8_">
				<use xlink:href="#SVGID_7_"  style="overflow:visible;"/>
			</clipPath>
			<g class="st15">
				<rect x="-89.4" y="211" class="st16" width="122.4" height="136.7"/>
				<g>
					<path class="st17" d="M-43,280.9c8-3,25.4-3.1,29.4-1.2c2.3,1.1,0-12.4,0-12.4l-17.1-10.4l-9.6,3.5
						C-40.2,260.3-45.9,282-43,280.9z"/>
					<path class="st18" d="M-41.7,258.6c0,0,1.1,8,0.5,9.9c-0.6,2-2.9,2.9-2.9,2.9s0.6,1.3,2,1.2s4.9-1.8,4.9-1.8l-0.9-13.6
						l-3.6-0.4L-41.7,258.6z"/>
					<g>
						<path class="st10" d="M-56.9,313.7c0,0-2.4,3.7-1.9,4.8s-2.5,26.3-2.5,26.3l5.1,2.9c0,0,3.3-25,4.2-27.4s3.3-5.4,3.3-5.4
							L-56.9,313.7z"/>
						<path class="st10" d="M4.7,313.7c0,0,2.4,3.7,1.9,4.8S9,344.8,9,344.8L3.3,348c0,0-2.8-25.3-3.6-27.7s-3.3-5.4-3.3-5.4
							L4.7,313.7z"/>
						<path class="st19" d="M-32.5,279.8c0,0-13.1,3.6-15.5,5.5c-2.5,1.9-11.6,24.6-11.6,27.7s9,4.8,10.8,5.1
							c1.9,0.3,4.5-7.2,4.5-7.2l0.7,41.6c0,0,11.4,2.6,18.4,2.2c6.9-0.4,17.6-2.6,17.6-2.6l-1.1-42.8c0,0,3.2,8.9,4.2,8.8
							c1-0.1,10.1-2.8,11.9-3.8c1.7-1-7.4-27.5-10-29.1c-2.6-1.6-17.8-5.6-20.7-5.5C-26.4,280-32.5,279.8-32.5,279.8z"/>
						<path class="st10" d="M-23,276.8c0-6-4-4.9-4-4.9s-4-1-4,4.9c0,4.6-5.2,8.1,4,8.1C-17.8,284.9-23,281.4-23,276.8z"/>
						<path class="st10" d="M-31.3,281c0,0-5.8,1.3-7.4,2.2c-1.5,0.9,5.1,3.8,11.4,3.8c6.3,0,13.7-2.8,14.7-3.5
							c1-0.7-14.7-3.5-14.7-3.5L-31.3,281z"/>
						<g>
							<path class="st10" d="M-27.4,277.7c-4.4,0-14.7-8.5-12.2-30.5c0.7-5.9,12.2-5.6,12.2-5.6s11.3-0.2,12.2,5.6
								C-12,267.6-23,277.7-27.4,277.7z"/>
							<circle class="st20" cx="-21.6" cy="256.3" r="1.2"/>
							<path class="st21" d="M-10.7,253.7c0,3.6,0.2,6.6-2.4,6.6s-1.1-2.9-1.1-6.6s0.5-4,1.1-4C-12.5,249.8-10.7,250.1-10.7,253.7z"
								/>
							<circle class="st20" cx="-33.2" cy="256.3" r="1.2"/>
							<path class="st22" d="M-30.6,261.6c0.1,3,2.5,4.3,3.3,4.3c0.8,0,3.1-1.3,3.3-4.3c0,0-2.1,2-3.3,2
								C-28.6,263.6-30.6,261.6-30.6,261.6z"/>
							<path class="st22" d="M-30.9,276.5l-0.3,3c0,0,3,2,4.4,2c1.2,0,3.3-1.4,4.1-3.2c0.4-1-0.3-1.5-0.2-2.6c0,0-2.4,1.6-4.4,1.6
								S-30.9,276.5-30.9,276.5z"/>
							<path class="st21" d="M-44.1,253.7c0,3.6-0.2,6.6,2.4,6.6s1.1-2.9,1.1-6.6s-0.5-4-1.1-4S-44.1,250.1-44.1,253.7z"/>
							<path class="st22" d="M-40.2,251.1c0,0,3.1,0.6,8.3,0.4c6.1-0.3,7.5-3.3,11.6-1.8c4.1,1.5,3.6,2.2,5.1,2.7c1.5,0.5,0,0,0,0
								l0-11.9l-25.1,5.8L-40.2,251.1z"/>
						</g>
						<path class="st18" d="M-8.6,275.3c-2.3-2.8-3.7-5.6-0.6-13.1c3-7.4,0.9-15.4-4.3-22c-2.5-4.1-0.4-8.5-11.5-9.1
							c-3.5-0.2-6.4-0.1-16.1,4.1c-9.7,4.2-7.5,20.9-5,27c3.1,7.5,1.7,10.3-0.6,13.1c-2.6,3.3-6.9,1.4-1.6,5.2c5.3,3.7,15-6,15-6
							s-4.6-5.6-5.3-9c-0.8-3.7-2.3-17.4-0.7-17.1c11.2,2.3,20.4-7.1,21.9-1.9c0.4,1.2,0.8,4.9,1.5,6.5c0,0-1.9,8.3-1.3,12
							c0.6,3.7-4.5,9.3-4.5,9.3s9.3,9.8,14.6,6.1C-1.6,276.8-6,278.6-8.6,275.3z"/>
						<path class="st14" d="M-45.6,243.7c0,0,0.9-4.2,3.8-5.8c2.9-1.6,12.1-4.8,12.1-4.8s1.8,3.1-0.9,4.6c-2.7,1.5-7.1-0.4-10,2.6
							C-42.8,242.7-43.4,244.6-45.6,243.7z"/>
					</g>
				</g>
				<path class="st23" d="M-57.7,311.2c0,0,7.9-22.4,9.9-23.5c2-1.1,7.2-2.8,7.2-2.8s1.4,2.4-0.8,3.9c-0.5,0.4-3,1.1-4.1,3.3
					c-3.6,6.7-7.8,20.2-9.3,20.8C-56.9,313.7-57.7,311.2-57.7,311.2z"/>
				<path class="st4" d="M-4.5,318.1c0,0,10.5-2.6,11.9-3.8c1.5-1.3-5.8-22.5-8.7-27.4c-0.4-0.7-2.6-3.6-2.1,1.8
					c0.3,2.9,2,22.3,0.5,24.6C-4.5,315.8-4.5,318.1-4.5,318.1z"/>
				<path class="st4" d="M-7.6,352.2l-1.1-42.8c0,0-2.3-1.2-3.4,1.9c-1.1,3-6.8,42.9-6.8,42.9C-13.3,353.7-7.6,352.2-7.6,352.2z"/>
			</g>
		</g>
		<g>
			<path class="st24" d="M22.6,264.8v-25c0-14.6,11.8-26.4,26.4-26.4h0c14.6,0,26.4,11.8,26.4,26.4v25"/>
			<path class="st25" d="M84.9,344.1H13c-3.9,0-7-3.1-7-7v-65.3c0-3.9,3.1-7,7-7h71.8c3.9,0,7,3.1,7,7V337
				C91.9,340.9,88.7,344.1,84.9,344.1z"/>
			<g>
				<circle cx="48.7" cy="295" r="12.6"/>
				<polygon points="54.7,329 53.5,297 43.5,297 42.4,329 				"/>
			</g>
			<path class="st22" d="M85.5,344.1H62.6l22.9-79.3c3.5,0,6.4,2.9,6.4,6.4v66.5C91.9,341.2,89,344.1,85.5,344.1z"/>
		</g>
		<g>
			<path class="st24" d="M22.6,264.8v-25c0-14.6,11.8-26.4,26.4-26.4h0c14.6,0,26.4,11.8,26.4,26.4v25"/>
			<path class="st25" d="M84.9,344.1H13c-3.9,0-7-3.1-7-7v-65.3c0-3.9,3.1-7,7-7h71.8c3.9,0,7,3.1,7,7V337
				C91.9,340.9,88.7,344.1,84.9,344.1z"/>
			<g>
				<circle cx="48.7" cy="295" r="12.6"/>
				<polygon points="54.7,329 53.5,297 43.5,297 42.4,329 				"/>
			</g>
		</g>
	</g>
	<path class="st14" d="M11.6,330.3v-54.9c0-3.4,2.7-6.1,6.1-6.1l56.4,0.1c0,0-0.6,5.1-3.2,5.8s-50-0.1-50.6,1.9
		c-1.4,4.2-2.1,53.2-2.1,53.2H11.6z"/>
	<path class="st22" d="M85.4,264.8l-7.9,59.5c-0.7,5.6-5.5,9.7-11.1,9.7H6.2v3.7c0,3.5,2.8,6.3,6.3,6.3h50.2h22.9
		c3.4,0,6.2-2.8,6.2-6.2v-3.8v-62.8C91.7,267.6,89,264.8,85.4,264.8z"/>
</g>
</svg>
