<?xml version="1.0" encoding="utf-8"?>
<!-- Generator: Adobe Illustrator 19.1.0, SVG Export Plug-In . SVG Version: 6.00 Build 0)  -->
<svg version="1.1" id="Layer_1" xmlns="http://www.w3.org/2000/svg" xmlns:xlink="http://www.w3.org/1999/xlink" x="0px" y="0px"
	 viewBox="0 0 800 800" style="enable-background:new 0 0 800 800;" xml:space="preserve">
<style type="text/css">
	.st0{fill:#ED4F7E;}
	.st1{fill:#0EA2DC;}
	.st2{opacity:0.4;fill:#FFFFFF;}
	.st3{opacity:0.2;}
</style>
<g>
	<path class="st0" d="M494.6,478.9l-215.5,215c-49.8,49.8-130.4,49.4-180.2-0.4c-49.8-49.8-49.6-131,0.2-180.8l213.4-213.4
		L494.6,478.9z"/>
	<path class="st1" d="M483.8,489.7l215-215.5c49.8-49.8,49.4-130.4-0.4-180.2c-49.8-49.8-131-49.6-180.8,0.2L304.2,307.5
		L483.8,489.7z"/>
	<path class="st2" d="M167.9,681.5c-35.2-40.6-31.3-102.1,6.7-140.1l355.7-355.7c20.3-20.3,20.2-53.2-0.3-73.3l0,0L118.3,524.1
		c-41.1,41.1-42.9,108.5-1.9,149.7c22.4,22.5,51.2,32.3,79.6,30.4C185.8,698.6,176.2,691,167.9,681.5z"/>
</g>
<path class="st3" d="M698.4,94c-22.8-22.8-52.2-35.1-82.2-37c10.4,11.3,21.7,26.2,27.9,33.3c40.7,46.9,36.1,118-7.8,161.9L273,615.5
	c-23.3,23.3-23.3,60.9-0.1,84.2c2.1-1.9,4.2-3.8,6.2-5.8l419.8-419.8C748.7,224.4,748.2,143.8,698.4,94z"/>
</svg>
