<?xml version="1.0" encoding="utf-8"?>
<!-- Generator: Adobe Illustrator 19.1.0, SVG Export Plug-In . SVG Version: 6.00 Build 0)  -->
<svg version="1.1" id="Layer_1" xmlns="http://www.w3.org/2000/svg" xmlns:xlink="http://www.w3.org/1999/xlink" x="0px" y="0px"
	 viewBox="-103 105.1 303.9 303.9" style="enable-background:new -103 105.1 303.9 303.9;" xml:space="preserve">
<style type="text/css">
	.st0{fill:#FAAD40;stroke:#BB8230;stroke-width:10;stroke-miterlimit:10;}
	.st1{clip-path:url(#SVGID_2_);}
	.st2{fill:#A67C52;}
	.st3{fill:#461A00;}
	.st4{fill:#FBB03B;}
	.st5{opacity:0.2;}
	.st6{opacity:0.3;fill:#FFFFFF;}
	.st7{fill:#9B5CA4;}
	.st8{fill:#5F4100;}
	.st9{fill:#6B3010;}
	.st10{fill:none;stroke:#42210B;stroke-width:10;stroke-miterlimit:10;}
	.st11{fill:none;stroke:#8E6008;stroke-width:10;stroke-miterlimit:10;}
	.st12{opacity:0.4;fill:#FFFFFF;}
</style>
<title>vert-transport-future-b</title>
<g>
	<g id="Layer_3">
		<circle class="st0" cx="48.9" cy="257.1" r="146.9"/>
	</g>
</g>
<g>
	<defs>
		<circle id="SVGID_1_" cx="48.9" cy="257.1" r="146.9"/>
	</defs>
	<clipPath id="SVGID_2_">
		<use xlink:href="#SVGID_1_"  style="overflow:visible;"/>
	</clipPath>
	<g class="st1">
		<g>
			<g>
				<g>
					<g>
						<path class="st2" d="M58.5,263.8c0-13.7-9.1-12.2-9.1-12.2s-9.1-1.5-9.1,12.2c0,10.6-12,18.6,9.1,18.6
							C70.4,282.4,58.5,274.4,58.5,263.8z"/>
						<path class="st2" d="M39.3,273.4c0,0-21.5,2.8-25,4.8c-3.5,2,0.6,27.7,35,27.8c45.8,0.1,35.1-24.8,37.4-26.4
							s-38.3-8.5-38.3-8.5L39.3,273.4z"/>
						<g>
							<path class="st2" d="M48.3,265.8c-20.7,0-33.9-17-28.2-67.5c1.5-13.6,28.2-13,28.2-13s26.1-0.5,28.2,13
								C83.7,245.2,69,265.8,48.3,265.8z"/>
							<circle class="st3" cx="61.6" cy="219.2" r="2.9"/>
							<path class="st4" d="M86.8,213.4c0,8.4,0.5,15.1-5.5,15.1s-2.4-6.8-2.4-15.1s1.1-9.1,2.4-9.1
								C82.6,204.3,86.8,205.1,86.8,213.4z"/>
							<circle class="st3" cx="35" cy="219.2" r="2.9"/>
							<path class="st5" d="M40.8,231.5c0.3,6.9,5.7,10.8,7.5,10.8s7.2-3.9,7.5-10.8c0,0-4.7,4.5-7.5,4.5
								C45.6,236,40.8,231.5,40.8,231.5z"/>
							<path class="st5" d="M40.2,263.8l-0.7,6.5c0,0,6.9,4.7,10.1,4.7c2.8,0,8.6,0,10.3-4c0.9-2.2-1.6-4.7-1.4-7.1
								c0,0-5.5,1.5-10.1,1.5S40.2,263.8,40.2,263.8z"/>
							<path class="st4" d="M9.9,213.4c0,8.4-0.5,15.1,5.5,15.1s2.4-6.8,2.4-15.1s-1.1-9.1-2.4-9.1S9.9,205.1,9.9,213.4z"/>
							<path class="st5" d="M18.9,207.2c0,0,7,1.4,19,0.8c14-0.6,17.2-7.6,26.7-4.1s8.2,5.1,11.7,6.2s0,0,0,0l0-27.4L18.4,196
								L18.9,207.2z"/>
						</g>
						<path d="M94.2,231.5c3.6-18-2-33.8-13.9-49.2c-5.7-9.4-1-19.6-26.5-20.8c-8.1-0.4-14.7-0.1-36.9,9.5
							c-22.3,9.6-19.2,49-13.7,63.2c5.4,14.2,11.2,18,31.8,20.8c0,0-10.6-6.7-12.3-14.5c-1.8-8.4-5.3-40-1.7-39.2
							c25.8,5.2,46.9-16.3,50.4-4.3c0.8,2.8,1.7,11.3,3.4,14.9c0,0-4.3,19.2-2.9,27.7c1.4,8.5-10.1,17.2-10.1,17.2
							S89,257.7,94.2,231.5z"/>
						<path class="st6" d="M6.4,190.3c0,0,2-9.6,8.7-13.3c6.6-3.7,27.9-11,27.9-11s4.2,7.2-2.2,10.6c-6.3,3.4-16.4-1-23.1,6.1
							C12.8,188,11.4,192.3,6.4,190.3z"/>
					</g>
				</g>
				<path class="st7" d="M17.8,274.9c0,0,2,13.7,14.3,20.1c12.4,6.4,21,5.8,32.4,0s17.9-20.1,17.9-20.1s23.5,6.3,24.5,9
					c1,2.7-15.7,56.4-15.4,66.5c0.3,10.4,0.3,9.9,2.3,86.8l-84.1,2.1l8.1-90.6c0,0-19.8-65.7-18.3-67.7S17.8,274.9,17.8,274.9z"/>
			</g>
			<path d="M13.3,342.5"/>
			<path d="M9.8,275.2c0,0,17.8,79.2,19.6,82.1c5.7,9.5-3.3,78.2-3.7,84.8c0,0-25.8-0.5-26.4-2.2c-0.3-0.9,8.5-28.9,10.3-62.4
				c0.9-16.5-7.9-34.7-8.1-34.9c-0.3-0.3-8.5,19.4-8.7,25.7C-7.4,374.4-15,440-15,440h-16.9c0,0,8.8-90.1,9.9-96.1
				s14.6-57.1,16.6-59.6S9.8,275.2,9.8,275.2z"/>
			<path d="M94.8,275.2c0,0-21.3,79.2-23,82.1c-5.7,9.5,3.3,78.2,3.7,84.8c0,0,25.8-0.5,26.4-2.2c0.3-0.9-8.5-28.9-10.3-62.4
				c-0.9-16.5,7.9-34.7,8.1-34.9c0.3-0.3,11.1,19.4,11.3,25.7c0.2,6.3,5.2,71.9,5.2,71.9h16.9c0,0-6-85.6-7.1-91.6
				s-17.5-61.6-19.4-64.1C104.6,281.7,94.8,275.2,94.8,275.2z"/>
			<path class="st5" d="M25.4,358.8c0,0,54.5,1.2,56.8-2s4.6,80.1,4.6,80.1H18L25.4,358.8z"/>
		</g>
		<g>
			
				<rect x="-49.8" y="290.1" transform="matrix(0.7361 0.6768 -0.6768 0.7361 205.847 111.8126)" class="st8" width="18.6" height="59.5"/>
			
				<rect x="-103.2" y="296.4" transform="matrix(0.7361 0.6768 -0.6768 0.7361 227.5576 156.1211)" class="st9" width="33.4" height="147.1"/>
			<rect x="-117.9" y="319.2" transform="matrix(0.7361 0.6768 -0.6768 0.7361 231.7611 164.6999)" width="45.1" height="120.8"/>
			<circle class="st10" cx="46.2" cy="225.6" r="98.1"/>
			<circle class="st11" cx="46.2" cy="225.6" r="93.1"/>
			<path class="st12" d="M-20.6,232.3c10.2-43.6,53.7-70.7,97.3-60.5c20.9,4.9,38.1,17.5,49.1,34.1c-7.1-28.6-29.6-52.3-60.3-59.5
				c-43.6-10.2-87.1,16.9-97.3,60.5c-5.3,22.6-0.5,45.2,11.4,63.2C-23.4,258.1-23.6,245.2-20.6,232.3z"/>
		</g>
	</g>
</g>
</svg>
