<?xml version="1.0" encoding="utf-8"?>
<!-- Generator: Adobe Illustrator 19.1.0, SVG Export Plug-In . SVG Version: 6.00 Build 0)  -->
<svg version="1.1" id="Layer_1" xmlns="http://www.w3.org/2000/svg" xmlns:xlink="http://www.w3.org/1999/xlink" x="0px" y="0px"
	 viewBox="120 81 800 800" style="enable-background:new 120 81 800 800;" xml:space="preserve">
<style type="text/css">
	.st0{fill:#A4CE4E;}
	.st1{fill:#0EA2DC;}
	.st2{fill:none;stroke:#37BEC0;stroke-width:10;stroke-miterlimit:10;}
	.st3{fill:none;stroke:#37BEC0;stroke-miterlimit:10;}
	.st4{opacity:0.55;fill:#D7F2F2;enable-background:new    ;}
	.st5{fill:#37BEC0;}
	.st6{fill:#FFFFFF;stroke:#F2F2F2;stroke-width:9;stroke-miterlimit:10;}
	.st7{font-family:'MuseoSans-700Italic';}
	.st8{font-size:30px;}
</style>
<g id="Now">
</g>
<circle class="st0" cx="381" cy="470" r="215.9"/>
<circle class="st1" cx="657" cy="470" r="215.9"/>
<g>
	<g>
		<path class="st2" d="M657,254.1c-52.5,0-100.6,18.7-138,49.9c-37.4-31.1-85.5-49.9-138-49.9c-119.3,0-215.9,96.7-215.9,215.9
			S261.7,685.9,381,685.9c52.5,0,100.6-18.7,138-49.9c37.4,31.1,85.5,49.9,138,49.9c119.3,0,215.9-96.7,215.9-215.9
			S776.3,254.1,657,254.1z"/>
	</g>
</g>
<path class="st3" d="M441.1,470c0,66.8,30.3,126.5,77.9,166.1c47.6-39.6,77.9-99.3,77.9-166.1S566.6,343.5,519,303.9
	C471.4,343.5,441.1,403.2,441.1,470z"/>
<g>
	<path class="st4" d="M388.7,470c0,97.4,50.6,184.5,130.3,242.2c79.5-57.8,130.3-144.8,130.3-242.2S598.6,285.5,519,227.8
		C439.5,285.5,388.7,372.6,388.7,470z"/>
	<g>
		<g>
			<path class="st5" d="M441.1,470c0,66.8,30.3,126.5,77.9,166.1c47.6-39.6,77.9-99.3,77.9-166.1S566.6,343.5,519,303.9
				C471.4,343.5,441.1,403.2,441.1,470z"/>
		</g>
	</g>
</g>
<g>
	<g>
		<path class="st6" d="M385.4,513.4H245c-12.9,0-23.4-10.5-23.4-23.4v-40c0-12.9,10.5-23.4,23.4-23.4h140.4
			c12.9,0,23.4,10.5,23.4,23.4v40C408.8,502.9,398.3,513.4,385.4,513.4z"/>
	</g>
	<text transform="matrix(1 0 0 1 254.682 463.1991)" class="st7 st8">Research </text>
	<text transform="matrix(1 0 0 1 264.282 499.1991)" class="st7 st8">Science</text>
</g>
<g>
	<g>
		<path class="st6" d="M808.8,513.4H668.3c-12.9,0-23.4-10.5-23.4-23.4v-40c0-12.9,10.5-23.4,23.4-23.4h140.4
			c12.9,0,23.4,10.5,23.4,23.4v40C832.1,502.9,821.7,513.4,808.8,513.4z"/>
	</g>
	<text transform="matrix(1 0 0 1 674.7717 463.1991)" class="st7 st8">Computer </text>
	<text transform="matrix(1 0 0 1 687.6718 499.1991)" class="st7 st8">Science</text>
</g>
<g>
	<g>
		<path class="st6" d="M594,512H453.6c-12.9,0-23.4-10.5-23.4-23.4v-40c0-12.9,10.5-23.4,23.4-23.4H594c12.9,0,23.4,10.5,23.4,23.4
			v40C617.3,501.5,606.9,512,594,512z"/>
	</g>
	<text transform="matrix(1 0 0 1 484.3701 461.7928)" class="st7 st8">Smart </text>
	<text transform="matrix(1 0 0 1 463.2701 497.7928)" class="st7 st8">Research</text>
</g>
</svg>
