<?xml version="1.0" encoding="utf-8"?>
<!-- Generator: Adobe Illustrator 19.1.0, SVG Export Plug-In . SVG Version: 6.00 Build 0)  -->
<svg version="1.1" id="Layer_1" xmlns="http://www.w3.org/2000/svg" xmlns:xlink="http://www.w3.org/1999/xlink" x="0px" y="0px"
	 viewBox="120 231 800 500" style="enable-background:new 120 231 800 500;" xml:space="preserve">
<style type="text/css">
	.st0{fill:#A4CE4E;}
	.st1{fill:#0EA2DC;}
	.st2{fill:none;stroke:#37BEC0;stroke-width:10;stroke-miterlimit:10;}
	.st3{fill:none;stroke:#37BEC0;stroke-miterlimit:10;}
	.st4{opacity:0.55;fill:#D7F2F2;enable-background:new    ;}
	.st5{fill:#37BEC0;}
	.st6{fill:#FFFFFF;stroke:#F2F2F2;stroke-width:9;stroke-miterlimit:10;}
	.st7{enable-background:new    ;}
</style>
<g id="Now">
</g>
<circle class="st0" cx="384.2" cy="483.8" r="215.9"/>
<circle class="st1" cx="660.2" cy="483.8" r="215.9"/>
<g>
	<g>
		<path class="st2" d="M660.2,267.9c-52.5,0-100.6,18.7-138,49.9c-37.4-31.1-85.5-49.9-138-49.9c-119.3,0-215.9,96.7-215.9,215.9
			s96.6,215.9,215.9,215.9c52.5,0,100.6-18.7,138-49.9c37.4,31.1,85.5,49.9,138,49.9c119.3,0,215.9-96.7,215.9-215.9
			S779.5,267.9,660.2,267.9z"/>
	</g>
</g>
<path class="st3" d="M444.3,483.8c0,66.8,30.3,126.5,77.9,166.1c47.6-39.6,77.9-99.3,77.9-166.1s-30.3-126.5-77.9-166.1
	C474.6,357.3,444.3,417,444.3,483.8z"/>
<g>
	<path class="st4" d="M391.9,483.8c0,97.4,50.6,184.5,130.3,242.2c79.5-57.8,130.3-144.8,130.3-242.2s-50.7-184.5-130.3-242.2
		C442.7,299.3,391.9,386.4,391.9,483.8z"/>
	<g>
		<g>
			<path class="st5" d="M444.3,483.8c0,66.8,30.3,126.5,77.9,166.1c47.6-39.6,77.9-99.3,77.9-166.1s-30.3-126.5-77.9-166.1
				C474.6,357.3,444.3,417,444.3,483.8z"/>
		</g>
	</g>
</g>
<g>
	<g>
		<path class="st6" d="M388.6,527.2H248.2c-12.9,0-23.4-10.5-23.4-23.4v-40c0-12.9,10.5-23.4,23.4-23.4h140.4
			c12.9,0,23.4,10.5,23.4,23.4v40C412,516.7,401.5,527.2,388.6,527.2z"/>
	</g>
	<g class="st7">
		<path d="M263,455.7h7.5c1.1,0,2.2,0.1,3.1,0.5c1.8,0.8,2.9,2.4,2.9,4.6c0,2.9-1.6,6.1-4.9,7.1v0.1c0,0,0.2,0.3,0.5,1.1l2.8,7.9
			h-4.1l-2.7-7.9h-3.9l-1.5,7.9h-3.9L263,455.7z M268.3,465.7c2.3,0,4.2-1.6,4.2-4.2c0-1.6-1-2.5-2.8-2.5h-3.5l-1.3,6.7H268.3z"/>
		<path d="M286.9,461.3c4.1,0,6.1,2.4,6.1,5.8c0,1.3-0.5,2.9-0.5,2.9H282c0,0.2,0,0.4,0,0.6c0,1.9,1.3,3.5,3.8,3.5s4.7-1.7,4.7-1.7
			l1,2.9c0,0-2.6,2-6,2c-4.8,0-7.4-2.9-7.4-6.6C278,465.6,281.8,461.3,286.9,461.3z M289.2,467.5c0,0,0.1-0.3,0.1-0.7
			c0-1.6-1-2.5-2.4-2.5c-2,0-3.5,1.3-4.3,3.2H289.2z"/>
		<path d="M295.5,472.7c0,0,1.5,1.5,4.1,1.5c1.2,0,2.5-0.5,2.5-1.6c0-2-6.4-1.9-6.4-6.4c0-3,3-4.8,6.1-4.8c3.5,0,5.3,1.7,5.3,1.7
			l-1.7,2.6c0,0-1.2-1.2-3.6-1.2c-1.1,0-2.5,0.5-2.5,1.7c0,1.9,6.4,1.9,6.4,6.4c0,2.8-2.6,4.8-6.1,4.8c-3.8,0-6.1-2.2-6.1-2.2
			L295.5,472.7z"/>
		<path d="M317,461.3c4.1,0,6.1,2.4,6.1,5.8c0,1.3-0.5,2.9-0.5,2.9h-10.5c0,0.2,0,0.4,0,0.6c0,1.9,1.3,3.5,3.8,3.5s4.7-1.7,4.7-1.7
			l1,2.9c0,0-2.6,2-6,2c-4.8,0-7.4-2.9-7.4-6.6C308.1,465.6,311.9,461.3,317,461.3z M319.3,467.5c0,0,0.1-0.3,0.1-0.7
			c0-1.6-1-2.5-2.4-2.5c-2,0-3.5,1.3-4.3,3.2H319.3z"/>
		<path d="M334,467.4h0.6c0.1-0.4,0.1-0.6,0.1-0.8c0-1.3-0.7-2.1-2.5-2.1c-2.2,0-4.5,1.4-4.5,1.4l-0.9-2.9c0,0,2.8-1.6,6.1-1.6
			c2.8,0,5.6,1.2,5.6,4.7c0,0.4-0.1,1-0.1,1.5l-1.8,9.4h-3.5l0.2-1.3c0.1-0.6,0.3-1.1,0.3-1.1h-0.1c0,0-1.7,2.8-5,2.8
			c-2.4,0-4.5-1.4-4.5-3.9C323.9,468.6,329.9,467.4,334,467.4z M329.8,474.4c2,0,3.9-2.2,4.3-4.1l0.1-0.3h-0.6
			c-1.7,0-5.7,0.3-5.7,2.8C327.8,473.7,328.4,474.4,329.8,474.4z"/>
		<path d="M343.4,461.7h3.7l-0.5,2.6c-0.1,0.6-0.3,1.1-0.3,1.1l0,0c1-2.1,3.1-4,5.5-4c0.5,0,0.9,0.1,0.9,0.1l-0.8,3.8
			c0,0-0.4-0.1-0.9-0.1c-2.3,0-5,2.5-5.7,6.3l-1,5.4h-3.8L343.4,461.7z"/>
		<path d="M362,461.3c4.1,0,5.9,2.2,5.9,2.2l-2,2.4c0,0-1.4-1.4-3.8-1.4c-3.2,0-5.8,2.7-5.8,5.8c0,2.1,1.4,3.8,3.9,3.8
			c2.6,0,4.9-2,4.9-2l1,2.9c0,0-2.6,2.2-6.4,2.2c-4.6,0-7.3-2.9-7.3-6.8C352.5,465.7,356.6,461.3,362,461.3z"/>
		<path d="M372.8,455.7h3.8l-1.4,7.4c-0.2,0.8-0.3,1.4-0.3,1.4h0.1c0.8-1.4,3.1-3.1,5.6-3.1c2.7,0,4.6,1.2,4.6,4.2
			c0,0.6-0.1,1.2-0.2,1.8l-1.9,9.7h-3.8l1.7-8.9c0.1-0.5,0.1-1,0.1-1.4c0-1.3-0.7-1.9-1.9-1.9c-2.6,0-4.9,2.5-5.5,5.3l-1.3,6.9h-3.8
			L372.8,455.7z"/>
	</g>
	<g class="st7">
		<path d="M269.8,507.7c0,0,1.9,2.1,5.1,2.1c1.7,0,3.7-1,3.7-3c0-3.2-8.3-3.2-8.3-9c0-3.8,3.7-6.5,7.7-6.5c4.5,0,6.6,2.3,6.6,2.3
			l-2.1,2.9c0,0-1.8-1.6-4.5-1.6c-1.9,0-3.8,1.3-3.8,2.9c0,3.1,8.3,3.1,8.3,9c0,3.5-3.2,6.5-7.6,6.5c-5,0-7.4-2.9-7.4-2.9
			L269.8,507.7z"/>
		<path d="M294.3,497.3c4.1,0,5.9,2.2,5.9,2.2l-2,2.4c0,0-1.4-1.4-3.8-1.4c-3.2,0-5.8,2.7-5.8,5.8c0,2.1,1.4,3.8,3.9,3.8
			c2.6,0,4.9-2,4.9-2l1,2.9c0,0-2.6,2.2-6.4,2.2c-4.6,0-7.3-2.9-7.3-6.8C284.8,501.7,288.9,497.3,294.3,497.3z"/>
		<path d="M303.9,497.7h3.8l-3,15.3h-3.8L303.9,497.7z M305.1,491.7h3.8l-0.7,3.4h-3.8L305.1,491.7z"/>
		<path d="M318.1,497.3c4.1,0,6.1,2.4,6.1,5.8c0,1.3-0.5,2.9-0.5,2.9h-10.5c0,0.2,0,0.4,0,0.6c0,1.9,1.3,3.5,3.8,3.5
			s4.7-1.7,4.7-1.7l1,2.9c0,0-2.6,2-6,2c-4.8,0-7.4-2.9-7.4-6.6C309.2,501.6,313,497.3,318.1,497.3z M320.4,503.5
			c0,0,0.1-0.3,0.1-0.7c0-1.6-1-2.5-2.4-2.5c-2,0-3.5,1.3-4.3,3.2H320.4z"/>
		<path d="M328.5,497.7h3.7l-0.3,1.4c-0.1,0.8-0.4,1.5-0.4,1.5h0.1c0.8-1.4,3.1-3.2,5.8-3.2s4.6,1.2,4.6,4.2c0,0.6-0.1,1.3-0.3,2
			l-1.8,9.5h-3.8l1.7-8.9c0.1-0.5,0.2-1,0.2-1.4c0-1.3-0.7-1.9-1.9-1.9c-2.6,0-4.9,2.5-5.5,5.3l-1.3,6.9h-3.8L328.5,497.7z"/>
		<path d="M353.6,497.3c4.1,0,5.9,2.2,5.9,2.2l-2,2.4c0,0-1.4-1.4-3.8-1.4c-3.2,0-5.8,2.7-5.8,5.8c0,2.1,1.4,3.8,3.9,3.8
			c2.6,0,4.9-2,4.9-2l1,2.9c0,0-2.6,2.2-6.4,2.2c-4.6,0-7.3-2.9-7.3-6.8C344.2,501.7,348.3,497.3,353.6,497.3z"/>
		<path d="M369.4,497.3c4.1,0,6.1,2.4,6.1,5.8c0,1.3-0.5,2.9-0.5,2.9h-10.5c0,0.2,0,0.4,0,0.6c0,1.9,1.3,3.5,3.8,3.5
			s4.7-1.7,4.7-1.7l1,2.9c0,0-2.6,2-6,2c-4.8,0-7.4-2.9-7.4-6.6C360.6,501.6,364.3,497.3,369.4,497.3z M371.7,503.5
			c0,0,0.1-0.3,0.1-0.7c0-1.6-1-2.5-2.4-2.5c-2,0-3.5,1.3-4.3,3.2H371.7z"/>
	</g>
</g>
<g>
	<g>
		<path class="st6" d="M812,527.2H671.5c-12.9,0-23.4-10.5-23.4-23.4v-40c0-12.9,10.5-23.4,23.4-23.4h140.4
			c12.9,0,23.4,10.5,23.4,23.4v40C835.3,516.7,824.9,527.2,812,527.2z"/>
	</g>
	<g class="st7">
		<path d="M692,455.3c5.5,0,7.9,2.9,7.9,2.9l-2.2,2.7c0,0-2.1-2.1-5.5-2.1c-5.1,0-8.7,4.5-8.7,8.9c0,3.4,2.1,6,5.8,6
			s6.8-2.7,6.8-2.7l1.6,3.1c0,0-3.5,3.2-8.5,3.2c-6,0-9.7-3.9-9.7-9.3C679.4,461.1,685.2,455.3,692,455.3z"/>
		<path d="M709.5,461.3c4.4,0,7.5,2.7,7.5,6.8c0,5.4-4.7,9.3-9.5,9.3c-4.4,0-7.5-2.7-7.5-6.8C700.1,465.3,704.7,461.3,709.5,461.3z
			 M707.6,474.1c2.7,0,5.5-2.4,5.5-5.8c0-2.2-1.5-3.8-3.7-3.8c-2.7,0-5.6,2.5-5.6,5.8C703.9,472.7,705.5,474.1,707.6,474.1z"/>
		<path d="M721.5,461.7h3.7l-0.3,1.7c-0.1,0.6-0.3,1.2-0.3,1.2h0.1c1-1.5,3-3.2,5.4-3.2s3.7,1.1,4,3.1h0.1c1.1-1.6,3.3-3.1,5.6-3.1
			c2.7,0,4.3,1.3,4.3,4.1c0,0.6-0.1,1.3-0.2,2.1l-1.8,9.4h-3.8l1.7-9c0.1-0.6,0.1-1,0.1-1.4c0-1.1-0.4-1.8-1.7-1.8
			c-2.5,0-4.3,2.7-4.9,5.5l-1.3,6.7h-3.8l1.8-9c0.1-0.6,0.2-1,0.2-1.4c0-1.1-0.4-1.8-1.7-1.8c-2.4,0-4.4,2.7-4.9,5.5l-1.3,6.7h-3.8
			L721.5,461.7z"/>
		<path d="M748.5,483h-3.8l4.1-21.3h3.5l-0.2,1.1c-0.1,0.6-0.3,1.1-0.3,1.1h0.1c1.1-1.5,2.9-2.6,5-2.6c3.6,0,5.8,2.5,5.8,6.4
			c0,5.7-4.1,9.6-8.3,9.6c-1.8,0-3.5-0.7-4.3-2.2H750c0,0,0,0.6-0.2,1.4L748.5,483z M753.9,474.1c2.3,0,4.9-2.2,4.9-6.1
			c0-2.1-1.1-3.5-3-3.5c-2.5,0-4.9,2.8-4.9,6.1C750.9,472.6,751.8,474.1,753.9,474.1z"/>
		<path d="M765.1,471.3l1.9-9.6h3.8l-1.7,8.8c-0.1,0.6-0.2,1.2-0.2,1.6c0,1.1,0.5,1.8,1.9,1.8c2.6,0,4.8-2.6,5.3-5.3l1.3-6.9h3.8
			l-3,15.3h-3.7l0.3-1.4c0.2-0.8,0.4-1.5,0.4-1.5l0,0c-0.9,1.4-3,3.2-5.7,3.2c-2.5,0-4.6-1.1-4.6-4.2
			C764.9,472.6,765,472,765.1,471.3z"/>
		<path d="M784.2,471.1l1.2-6.1h-2l0.6-3h2.1l0.9-4.4h3.7l-0.9,4.4h3.5l-0.6,3h-3.5l-1.1,5.6c-0.1,0.5-0.1,1-0.1,1.2
			c0,1.7,1.3,2,2.4,2c0.5,0,0.8-0.1,0.8-0.1l-0.7,3.3c0,0-0.6,0.1-1.1,0.1c-2.8,0-5.4-1.1-5.4-4.7
			C784.1,472.1,784.1,471.6,784.2,471.1z"/>
		<path d="M802.8,461.3c4.1,0,6.1,2.4,6.1,5.8c0,1.3-0.5,2.9-0.5,2.9h-10.5c0,0.2,0,0.4,0,0.6c0,1.9,1.3,3.5,3.8,3.5
			s4.7-1.7,4.7-1.7l1,2.9c0,0-2.6,2-6,2c-4.8,0-7.4-2.9-7.4-6.6C794,465.6,797.7,461.3,802.8,461.3z M805.1,467.5
			c0,0,0.1-0.3,0.1-0.7c0-1.6-1-2.5-2.4-2.5c-2,0-3.5,1.3-4.3,3.2H805.1z"/>
		<path d="M813.2,461.7h3.7l-0.5,2.6c-0.1,0.6-0.3,1.1-0.3,1.1l0,0c1-2.1,3.1-4,5.5-4c0.5,0,0.9,0.1,0.9,0.1l-0.8,3.8
			c0,0-0.4-0.1-0.9-0.1c-2.3,0-5,2.5-5.7,6.3l-1,5.4h-3.8L813.2,461.7z"/>
	</g>
	<g class="st7">
		<path d="M693.2,507.7c0,0,1.9,2.1,5.1,2.1c1.7,0,3.7-1,3.7-3c0-3.2-8.3-3.2-8.3-9c0-3.8,3.7-6.5,7.7-6.5c4.5,0,6.6,2.3,6.6,2.3
			l-2.1,2.9c0,0-1.8-1.6-4.5-1.6c-2,0-3.8,1.3-3.8,2.9c0,3.1,8.3,3.1,8.3,9c0,3.5-3.2,6.5-7.6,6.5c-5,0-7.4-2.9-7.4-2.9L693.2,507.7
			z"/>
		<path d="M717.7,497.3c4.1,0,5.9,2.2,5.9,2.2l-2,2.4c0,0-1.4-1.4-3.8-1.4c-3.2,0-5.8,2.7-5.8,5.8c0,2.1,1.4,3.8,3.9,3.8
			c2.6,0,4.9-2,4.9-2l1,2.9c0,0-2.6,2.2-6.4,2.2c-4.6,0-7.3-2.9-7.3-6.8C708.2,501.7,712.3,497.3,717.7,497.3z"/>
		<path d="M727.3,497.7h3.8l-3,15.3h-3.8L727.3,497.7z M728.5,491.7h3.8l-0.7,3.4h-3.8L728.5,491.7z"/>
		<path d="M741.5,497.3c4.1,0,6.1,2.4,6.1,5.8c0,1.3-0.5,2.9-0.5,2.9h-10.5c0,0.2,0,0.4,0,0.6c0,1.9,1.3,3.5,3.8,3.5
			s4.7-1.7,4.7-1.7l1,2.9c0,0-2.6,2-6,2c-4.8,0-7.4-2.9-7.4-6.6C732.6,501.6,736.4,497.3,741.5,497.3z M743.8,503.5
			c0,0,0.1-0.3,0.1-0.7c0-1.6-1-2.5-2.4-2.5c-2,0-3.5,1.3-4.3,3.2H743.8z"/>
		<path d="M751.9,497.7h3.7l-0.3,1.4c-0.1,0.8-0.4,1.5-0.4,1.5h0.1c0.8-1.4,3.1-3.2,5.8-3.2s4.6,1.2,4.6,4.2c0,0.6-0.2,1.3-0.3,2
			l-1.8,9.5h-3.8l1.7-8.9c0.1-0.5,0.2-1,0.2-1.4c0-1.3-0.7-1.9-1.9-1.9c-2.6,0-4.9,2.5-5.5,5.3l-1.3,6.9h-3.8L751.9,497.7z"/>
		<path d="M777,497.3c4.1,0,5.9,2.2,5.9,2.2l-2,2.4c0,0-1.4-1.4-3.8-1.4c-3.2,0-5.8,2.7-5.8,5.8c0,2.1,1.4,3.8,3.9,3.8
			c2.6,0,4.9-2,4.9-2l1,2.9c0,0-2.6,2.2-6.4,2.2c-4.6,0-7.3-2.9-7.3-6.8C767.6,501.7,771.7,497.3,777,497.3z"/>
		<path d="M792.8,497.3c4.1,0,6.1,2.4,6.1,5.8c0,1.3-0.5,2.9-0.5,2.9h-10.5c0,0.2,0,0.4,0,0.6c0,1.9,1.3,3.5,3.8,3.5
			s4.7-1.7,4.7-1.7l1,2.9c0,0-2.6,2-6,2c-4.8,0-7.4-2.9-7.4-6.6C784,501.6,787.7,497.3,792.8,497.3z M795.1,503.5
			c0,0,0.1-0.3,0.1-0.7c0-1.6-1-2.5-2.4-2.5c-2,0-3.5,1.3-4.3,3.2H795.1z"/>
	</g>
</g>
<g>
	<g>
		<path class="st6" d="M597.2,525.8H456.8c-12.9,0-23.4-10.5-23.4-23.4v-40c0-12.9,10.5-23.4,23.4-23.4h140.4
			c12.9,0,23.4,10.5,23.4,23.4v40C620.5,515.3,610.1,525.8,597.2,525.8z"/>
	</g>
	<g class="st7">
		<path d="M489.9,470.3c0,0,1.9,2.1,5.1,2.1c1.7,0,3.7-1,3.7-3c0-3.2-8.3-3.2-8.3-9c0-3.8,3.7-6.5,7.7-6.5c4.5,0,6.6,2.3,6.6,2.3
			l-2.1,2.9c0,0-1.8-1.6-4.5-1.6c-2,0-3.8,1.3-3.8,2.9c0,3.1,8.3,3.1,8.3,9c0,3.5-3.2,6.5-7.6,6.5c-5,0-7.4-2.9-7.4-2.9L489.9,470.3
			z"/>
		<path d="M507.6,460.3h3.7L511,462c-0.1,0.6-0.3,1.2-0.3,1.2h0.1c1-1.5,3-3.2,5.4-3.2s3.7,1.1,4,3.1h0.1c1.1-1.6,3.3-3.1,5.6-3.1
			c2.7,0,4.3,1.3,4.3,4.1c0,0.6-0.1,1.3-0.2,2.1l-1.8,9.4h-3.8l1.7-9c0.1-0.6,0.1-1,0.1-1.4c0-1.1-0.4-1.8-1.7-1.8
			c-2.5,0-4.3,2.7-4.9,5.5l-1.3,6.7h-3.8l1.8-9c0.1-0.6,0.2-1,0.2-1.4c0-1.1-0.4-1.8-1.7-1.8c-2.4,0-4.4,2.7-4.9,5.5l-1.3,6.7h-3.8
			L507.6,460.3z"/>
		<path d="M541.6,466h0.6c0.1-0.4,0.1-0.6,0.1-0.8c0-1.3-0.7-2.1-2.5-2.1c-2.2,0-4.5,1.4-4.5,1.4l-0.9-2.9c0,0,2.8-1.6,6.1-1.6
			c2.8,0,5.6,1.2,5.6,4.7c0,0.4-0.1,1-0.2,1.5l-1.8,9.4h-3.5l0.2-1.3c0.1-0.6,0.3-1.1,0.3-1.1H541c0,0-1.7,2.8-5,2.8
			c-2.4,0-4.5-1.4-4.5-3.9C531.6,467.2,537.6,466,541.6,466z M537.4,473c2,0,3.9-2.2,4.3-4.1l0.1-0.3h-0.6c-1.7,0-5.7,0.3-5.7,2.8
			C535.4,472.3,536,473,537.4,473z"/>
		<path d="M551,460.3h3.7l-0.5,2.6c-0.1,0.6-0.3,1.1-0.3,1.1l0,0c1-2.1,3.1-4,5.5-4c0.5,0,0.9,0.1,0.9,0.1l-0.8,3.8
			c0,0-0.4-0.1-0.9-0.1c-2.3,0-5,2.5-5.7,6.3l-1,5.4h-3.8L551,460.3z"/>
		<path d="M561.6,469.7l1.2-6.1h-2l0.6-3h2.1l0.9-4.4h3.7l-0.9,4.4h3.5l-0.6,3h-3.5l-1.1,5.6c-0.1,0.5-0.1,1-0.1,1.2
			c0,1.7,1.3,2,2.4,2c0.5,0,0.8-0.1,0.8-0.1l-0.7,3.3c0,0-0.6,0.1-1.1,0.1c-2.8,0-5.4-1.1-5.4-4.7
			C561.5,470.7,561.6,470.2,561.6,469.7z"/>
	</g>
	<g class="st7">
		<path d="M471.5,490.3h7.5c1.1,0,2.2,0.1,3.1,0.5c1.8,0.8,2.9,2.4,2.9,4.6c0,2.9-1.7,6.1-4.9,7.1v0.1c0,0,0.2,0.3,0.5,1.1l2.8,7.9
			h-4.1l-2.7-7.9h-3.8l-1.5,7.9h-3.9L471.5,490.3z M476.9,500.3c2.3,0,4.2-1.6,4.2-4.2c0-1.6-1-2.5-2.8-2.5h-3.5l-1.3,6.7H476.9z"/>
		<path d="M495.5,495.9c4.1,0,6.1,2.4,6.1,5.8c0,1.3-0.5,2.9-0.5,2.9h-10.5c0,0.2,0,0.4,0,0.6c0,1.9,1.3,3.5,3.8,3.5
			s4.7-1.7,4.7-1.7l1,2.9c0,0-2.6,2-6,2c-4.8,0-7.4-2.9-7.4-6.6C486.6,500.2,490.4,495.9,495.5,495.9z M497.8,502.1
			c0,0,0.1-0.3,0.1-0.7c0-1.6-1-2.5-2.4-2.5c-2,0-3.5,1.3-4.3,3.2H497.8z"/>
		<path d="M504.1,507.3c0,0,1.5,1.5,4.1,1.5c1.2,0,2.5-0.5,2.5-1.6c0-2-6.4-1.9-6.4-6.4c0-3,3-4.8,6.1-4.8c3.5,0,5.3,1.7,5.3,1.7
			l-1.7,2.6c0,0-1.2-1.2-3.6-1.2c-1.1,0-2.5,0.5-2.5,1.7c0,1.9,6.4,1.9,6.4,6.4c0,2.8-2.6,4.8-6.1,4.8c-3.8,0-6.1-2.2-6.1-2.2
			L504.1,507.3z"/>
		<path d="M525.6,495.9c4.1,0,6.1,2.4,6.1,5.8c0,1.3-0.5,2.9-0.5,2.9h-10.5c0,0.2,0,0.4,0,0.6c0,1.9,1.3,3.5,3.8,3.5
			s4.7-1.7,4.7-1.7l1,2.9c0,0-2.6,2-6,2c-4.8,0-7.4-2.9-7.4-6.6C516.7,500.2,520.5,495.9,525.6,495.9z M527.9,502.1
			c0,0,0.1-0.3,0.1-0.7c0-1.6-1-2.5-2.4-2.5c-2,0-3.5,1.3-4.3,3.2H527.9z"/>
		<path d="M542.6,502h0.6c0.1-0.4,0.1-0.6,0.1-0.8c0-1.3-0.7-2.1-2.5-2.1c-2.2,0-4.5,1.4-4.5,1.4l-0.9-2.9c0,0,2.8-1.6,6.1-1.6
			c2.8,0,5.6,1.2,5.6,4.7c0,0.4-0.1,1-0.2,1.5l-1.8,9.4h-3.5l0.2-1.3c0.1-0.6,0.3-1.1,0.3-1.1H542c0,0-1.7,2.8-5,2.8
			c-2.4,0-4.5-1.4-4.5-3.9C532.5,503.2,538.5,502,542.6,502z M538.3,509c2,0,3.9-2.2,4.3-4.1l0.1-0.3h-0.6c-1.7,0-5.7,0.3-5.7,2.8
			C536.4,508.3,537,509,538.3,509z"/>
		<path d="M552,496.3h3.7l-0.5,2.6c-0.1,0.6-0.3,1.1-0.3,1.1l0,0c1-2.1,3.1-4,5.5-4c0.5,0,0.9,0.1,0.9,0.1l-0.8,3.8
			c0,0-0.4-0.1-0.9-0.1c-2.3,0-5,2.5-5.7,6.3l-1,5.4h-3.8L552,496.3z"/>
		<path d="M570.6,495.9c4.1,0,5.9,2.2,5.9,2.2l-2,2.4c0,0-1.4-1.4-3.8-1.4c-3.2,0-5.8,2.7-5.8,5.8c0,2.1,1.4,3.8,3.9,3.8
			c2.6,0,4.9-2,4.9-2l1,2.9c0,0-2.6,2.2-6.4,2.2c-4.6,0-7.3-2.9-7.3-6.8C561.1,500.3,565.2,495.9,570.6,495.9z"/>
		<path d="M581.4,490.3h3.8l-1.4,7.4c-0.2,0.8-0.3,1.4-0.3,1.4h0.1c0.8-1.4,3.1-3.1,5.6-3.1c2.7,0,4.6,1.2,4.6,4.2
			c0,0.6-0.1,1.2-0.2,1.8l-1.9,9.7h-3.8l1.7-8.9c0.1-0.5,0.1-1,0.1-1.4c0-1.3-0.7-1.9-1.9-1.9c-2.6,0-4.9,2.5-5.5,5.3l-1.3,6.9h-3.8
			L581.4,490.3z"/>
	</g>
</g>
</svg>
