<?xml version="1.0" encoding="utf-8"?>
<!-- Generator: Adobe Illustrator 19.1.0, SVG Export Plug-In . SVG Version: 6.00 Build 0)  -->
<svg version="1.1" id="Layer_1" xmlns="http://www.w3.org/2000/svg" xmlns:xlink="http://www.w3.org/1999/xlink" x="0px" y="0px"
	 viewBox="0 0 193.9 194" style="enable-background:new 0 0 193.9 194;" xml:space="preserve">
<style type="text/css">
	.st0{fill:#613D6E;}
	.st1{fill:#9B5CA3;}
	.st2{opacity:0.4;}
	.st3{fill:#F8CE86;}
	.st4{fill:#DCAE6C;}
	.st5{fill:#6B7482;}
	.st6{fill:#525662;}
	.st7{fill:#CFE9FF;}
	.st8{opacity:0.7;}
	.st9{fill:#A5D0EC;}
	.st10{fill:#FFFFFF;}
	.st11{fill:#EE7A99;}
	.st12{fill:#DE738E;}
</style>
<g>
	<g>
		<g>
			<path class="st0" d="M77.6,38.3L183,143.7l-38.7,38.7L38.9,77L77.6,38.3z"/>
		</g>
	</g>
	<g>
		<g>
			<path class="st1" d="M72.8,43.1l107,107l-29.1,29.1l-107-107L72.8,43.1z"/>
		</g>
	</g>
	<g class="st2">
		<g>
			
				<rect x="36.1" y="107.1" transform="matrix(-0.7071 -0.7071 0.7071 -0.7071 112.0806 268.8111)" class="st0" width="151.3" height="8.2"/>
		</g>
	</g>
	<g>
		<g>
			<polygon class="st3" points="144.1,182.6 147.6,168.3 163.5,163.5 168.6,147.4 183.2,143.5 193.9,194 			"/>
		</g>
	</g>
	<g>
		<g>
			<polygon class="st4" points="144.1,182.6 147.6,168.3 163.5,163.5 193.9,194 			"/>
		</g>
	</g>
	<g>
		<g>
			<polygon class="st5" points="189.1,171.1 171.3,188.8 193.9,194 			"/>
		</g>
	</g>
	<g>
		<g>
			<polygon class="st6" points="180,180.1 171.3,188.8 193.9,194 			"/>
		</g>
	</g>
</g>
<g>
	<g>
		
			<rect x="32.4" y="20" transform="matrix(-0.7067 -0.7075 0.7075 -0.7067 47.4407 114.264)" class="st7" width="30" height="54.6"/>
	</g>
</g>
<g class="st8">
	<g>
		
			<rect x="25.3" y="45.5" transform="matrix(0.7075 -0.7067 0.7067 0.7075 -32.7079 41.8784)" class="st9" width="17.8" height="30"/>
	</g>
</g>
<g class="st2">
	<g>
		
			<rect x="60.3" y="15.7" transform="matrix(0.7075 -0.7067 0.7067 0.7075 -2.8934 54.1961)" class="st10" width="7.5" height="29.8"/>
	</g>
</g>
<g>
	<g>
		<path class="st11" d="M5.6,44.4l11.7,11.7l38.8-38.7L44.4,5.7c-9-9-15.6-6-21.6,0L5.6,22.9C-0.3,28.8-0.3,38.5,5.6,44.4z"/>
	</g>
</g>
<g>
	<g>
		<path class="st12" d="M21.2,34.7c-4.9-4.9-4.9-12.7,0-17.6L36,2.3c0.6-0.6,1.2-1.1,1.8-1.5c-4.4-1.6-9.5-0.6-13,2.9L3.6,24.8
			c-4.9,4.9-4.9,12.7,0,17.6l13.7,13.7l12.6-12.6L21.2,34.7z"/>
	</g>
</g>
</svg>
