<?xml version="1.0" encoding="utf-8"?>
<!-- Generator: Adobe Illustrator 19.1.0, SVG Export Plug-In . SVG Version: 6.00 Build 0)  -->
<svg version="1.1" id="Layer_1" xmlns="http://www.w3.org/2000/svg" xmlns:xlink="http://www.w3.org/1999/xlink" x="0px" y="0px"
	 viewBox="120 81 800 800" style="enable-background:new 120 81 800 800;" xml:space="preserve">
<style type="text/css">
	.st0{opacity:0.2;}
	.st1{fill:#77808E;}
	.st2{opacity:0.3;}
	.st3{fill:#4B5764;}
	.st4{fill:#6A7581;}
	.st5{fill:#FFD900;}
	.st6{fill:#CE9700;}
	.st7{fill:#FFFFFF;}
	.st8{fill:#F0C400;}
	.st9{opacity:0.5;}
	.st10{fill:#ED4F7E;}
	.st11{fill:#E3E5EA;}
	.st12{fill:#0EA1DC;}
	.st13{fill:#1A8FC5;}
	.st14{fill:#B23B5F;}
	.st15{fill:#A4CE4E;}
	.st16{fill:#7B9B3B;}
</style>
<g class="st0">
	<path d="M600.8,561.4c2.3-0.2,4.6-0.3,6.9-0.3c2.9,0,5.8,0.1,8.7,0.4L561,439.8c-13.7-30.3-21-62.6-21-95.9V225.2
		c0-3.9-3.1-7.1-7-7.1s-7,3.2-7,7.1V344c0,35.3,7.6,69.5,22.2,101.7L600.8,561.4z"/>
	<path d="M742.7,840.2l-57.4-126.6c-3.1,4.2-6.5,8.2-10.2,11.8l54.7,120.6c1.2,2.6,3.8,4.2,6.5,4.2c1,0,2-0.2,2.9-0.6
		C742.8,848,744.4,843.8,742.7,840.2z"/>
</g>
<g class="st0">
	<path d="M284.2,850.2c-1,0-2-0.2-2.9-0.6c-3.6-1.6-5.1-5.8-3.5-9.4l181.5-400.4c13.7-30.3,20.7-62.6,20.7-95.9V225.2
		c0-3.9,3.2-7.1,7.1-7.1c3.9,0,7.1,3.2,7.1,7.1V344c0,35.3-7.4,69.5-22,101.7L290.6,846.1C289.4,848.7,286.9,850.2,284.2,850.2z"/>
</g>
<g>
	<g>
		<g>
			<g>
				<path class="st1" d="M268.7,396.1c-24-6.3-48.5,8.1-54.8,32.1c-4.7,18.1,1.6,39.1,15.4,50.7l-7.7,29.4l0.1,0
					c-0.7,5.2,2,9.3,6.5,12.4c-0.3,0.2-0.4,0.5-0.5,0.9c-0.2,0.9,0.3,1.9,1.2,2.1l11.9,3.1c0.9,0.2,1.9-0.3,2.1-1.2
					c0.1-0.3,0.1-0.7,0-1c5.5-0.5,9.9-2,11.8-6.9l7.8-30.2c10.5,0.8,33.5-18.5,38.3-36.6C307,426.9,292.7,402.4,268.7,396.1z"/>
			</g>
			<g class="st2">
				<g>
					<path class="st3" d="M244.8,398.7c7.6-2.3,15.6-2.5,23.3-0.5c11,2.9,20.3,9.9,26,19.7c5.8,9.8,7.3,21.3,4.4,32.4
						c-1.8,6.9-6.6,14.5-13.4,21.5c-6.1,6.3-13.3,11.2-18.6,12.8c-1.5,0.5-2.8,0.7-3.9,0.6l-1.8-0.1l-0.5,1.8l-7.8,30
						c-0.9,2.3-2.6,3.7-5.3,4.5c-1.2,0.4-2.7,0.7-4.6,0.8l-2.8,0.3l0.6,1.8l-10.1-2.6l1.4-1.2l-2.3-1.6c-4.3-3-6.2-6.4-5.6-10.3
						l0.1-0.6l7.5-28.6l0.4-1.4l-1.1-0.9c-6.3-5.3-11.3-13.1-14-21.8c-2.7-8.8-2.9-18.2-0.7-26.6c1.9-7.2,5.6-13.7,10.7-19
						C231.7,404.6,238,400.8,244.8,398.7 M244.2,396.6c-14.4,4.4-26.2,15.9-30.2,31.5c-4.7,18.1,1.6,39.1,15.4,50.7l-7.7,29.4l0.1,0
						c-0.7,5.2,2,9.3,6.5,12.4c-0.3,0.2-0.4,0.5-0.5,0.9c-0.2,0.9,0.3,1.9,1.2,2.1l11.9,3.1c0.3,0.1,0.6,0.1,0.9,0
						c0.5-0.2,1-0.6,1.2-1.2c0.1-0.3,0.1-0.7,0-1c1.8-0.2,3.5-0.5,5-0.9c3.1-0.9,5.5-2.7,6.7-5.9l7.8-30.2c1.4,0.1,3-0.1,4.7-0.7
						c11.5-3.6,29.4-20.2,33.6-35.9c6.3-24-8.1-48.5-32.1-54.8C260.3,393.9,251.9,394.2,244.2,396.6L244.2,396.6z"/>
				</g>
			</g>
		</g>
		<g>
			<path class="st4" d="M233.7,502.2c-0.3,0-0.6,0-0.9-0.1l-9-2.3c-1.9-0.5-3-2.4-2.5-4.3c0.5-1.9,2.4-3,4.3-2.5l9,2.3
				c1.9,0.5,3,2.4,2.5,4.3C236.7,501.1,235.3,502.2,233.7,502.2z"/>
		</g>
		<g>
			<g>
				<path class="st5" d="M268.7,396.1c-24-6.3-48.5,8.1-54.8,32.1c-4.7,18.1,1.6,39.1,15.4,50.7l-2.4,9.2l10.6,2.8l22.6,5.9l2.4-9.2
					c11.2-0.2,32.4-10.9,38.3-36.6C306.3,426.7,292.7,402.4,268.7,396.1z"/>
			</g>
			<g class="st2">
				<g>
					<path class="st6" d="M244.8,398.7c7.6-2.3,15.6-2.5,23.3-0.5c10.9,2.9,20.1,9.8,25.7,19.7c5.6,9.7,7.3,21.3,4.7,32.5
						c-2.1,9.1-6.3,16.9-12.4,23.1c-4.9,5-11,8.7-17.1,10.6c-2.4,0.7-4.7,1.1-6.7,1.2l-1.7,0l-0.4,1.6l-1.8,7.1l-20.5-5.4l-8.4-2.2
						l1.8-7.1l0.4-1.4l-1.1-0.9c-6.3-5.3-11.3-13.1-14-21.8c-2.7-8.8-2.9-18.2-0.7-26.6c1.9-7.2,5.6-13.7,10.7-19
						C231.7,404.6,238,400.8,244.8,398.7 M244.2,396.6c-14.4,4.4-26.2,15.9-30.2,31.5c-4.7,18.1,1.6,39.1,15.4,50.7l-2.4,9.2
						l10.6,2.8l22.6,5.9l2.4-9.2c2.1,0,4.6-0.5,7.3-1.3c11.4-3.5,26.2-14.5,31-35.3c5.5-24.2-8.1-48.5-32.1-54.8
						C260.3,393.9,251.9,394.2,244.2,396.6L244.2,396.6z"/>
				</g>
			</g>
		</g>
		<g class="st2">
			<g>
				<path class="st7" d="M278.7,410.8c-21.8-20.2-58.5-3.2-57,23.6c0,0.8,1.2,1.1,1.6,0.4c2.9-4.6,10.5-15.2,20.4-19.2
					c11.5-4.7,28.2-3.8,34.3-3.3C278.8,412.4,279.3,411.3,278.7,410.8z"/>
			</g>
		</g>
		<g>
			<path class="st4" d="M257.9,508.5c-0.3,0-0.6,0-0.9-0.1l-9-2.3c-1.9-0.5-3-2.4-2.5-4.3c0.5-1.9,2.4-3,4.3-2.5l9,2.3
				c1.9,0.5,3,2.4,2.5,4.3C260.9,507.5,259.5,508.5,257.9,508.5z"/>
		</g>
		<g>
			<path class="st4" d="M231.6,510.2c-0.3,0-0.6,0-0.9-0.1l-9-2.3c-1.9-0.5-3-2.4-2.5-4.3c0.5-1.9,2.4-3,4.3-2.5l9,2.3
				c1.9,0.5,3,2.4,2.5,4.3C234.6,509.1,233.2,510.2,231.6,510.2z"/>
		</g>
		<g>
			<path class="st4" d="M255.8,516.5c-0.3,0-0.6,0-0.9-0.1l-9-2.3c-1.9-0.5-3-2.4-2.5-4.3c0.5-1.9,2.4-3,4.3-2.5l9,2.3
				c1.9,0.5,3,2.4,2.5,4.3C258.9,515.5,257.4,516.5,255.8,516.5z"/>
		</g>
		<g>
			<g>
				<polygon class="st8" points="246.5,492.8 241.3,491.4 248.9,462.6 237.9,443.9 242.6,441.2 254.6,461.9 				"/>
			</g>
		</g>
		<g>
			<g>
				<circle class="st5" cx="240.2" cy="442.6" r="6.2"/>
			</g>
			<g>
				<path class="st8" d="M242.8,451L242.8,451c-1.6,0.5-3.3,0.5-4.8,0.1c-4.7-1.2-7.6-6.1-6.3-10.8c0.8-3,3-5.3,6-6.2
					c1.6-0.5,3.3-0.5,4.8-0.1c2.3,0.6,4.2,2.1,5.4,4.1c1.2,2,1.5,4.4,0.9,6.7C248,447.8,245.8,450.1,242.8,451z M239.2,439.2
					c-1.2,0.4-2,1.3-2.4,2.5c-0.5,1.9,0.6,3.8,2.5,4.3c0.6,0.2,1.3,0.2,1.9,0c1.2-0.4,2-1.3,2.4-2.5c0.2-0.9,0.1-1.8-0.4-2.6
					c-0.5-0.8-1.2-1.4-2.1-1.6C240.5,439,239.8,439.1,239.2,439.2z"/>
			</g>
		</g>
		<g>
			<g>
				
					<rect x="259.4" y="444.9" transform="matrix(0.478 0.8783 -0.8783 0.478 537.867 8.1415)" class="st8" width="5.4" height="23.5"/>
			</g>
		</g>
		<g>
			<g>
				<circle class="st5" cx="272.4" cy="451" r="6.2"/>
			</g>
			<g>
				<path class="st8" d="M275,459.5c-1.6,0.5-3.3,0.5-4.8,0.1c-4.7-1.2-7.6-6.1-6.3-10.8c0.8-3,3-5.3,6-6.2c1.6-0.5,3.3-0.5,4.8-0.1
					c4.7,1.2,7.6,6.1,6.3,10.8C280.2,456.2,278,458.6,275,459.5z M271.4,447.7c-1.2,0.4-2,1.3-2.4,2.5c-0.5,1.9,0.6,3.8,2.5,4.3
					c0.6,0.2,1.3,0.2,1.9,0c1.2-0.4,2-1.3,2.4-2.5c0.5-1.9-0.6-3.8-2.5-4.3C272.7,447.5,272,447.5,271.4,447.7z"/>
			</g>
		</g>
	</g>
	<g>
		<g>
			<path class="st6" d="M271.3,386.1c0.7,0.2,1.3,0.4,2,0.6c0.6-2.1,1.1-4.3,1.7-6.4c0.5-2,1.1-4,1.6-6c-0.7-0.2-1.3-0.4-2-0.6
				c-0.4-0.1-0.9-0.2-1.3-0.3c-1.1,4.2-2.2,8.3-3.3,12.5C270.4,385.9,270.9,386,271.3,386.1z"/>
		</g>
		<g class="st9">
			<path class="st6" d="M248.4,385.2c1.1-0.2,2.3-0.4,3.4-0.5c-0.4-4.3-0.8-8.5-1.2-12.8c-1.1,0.1-2.3,0.3-3.4,0.5
				c0.3,3.5,0.7,7.1,1,10.6C248.2,383.8,248.3,384.5,248.4,385.2z"/>
		</g>
		<g>
			<path class="st6" d="M228.6,393.1c1-0.6,1.9-1.2,2.9-1.8c-1.8-3.8-3.6-7.6-5.4-11.5c-1,0.6-2,1.1-3,1.7c1.3,2.7,2.6,5.5,3.9,8.2
				C227.5,390.9,228.1,392,228.6,393.1z"/>
		</g>
		<g class="st9">
			<path class="st6" d="M215.6,404.5c-3-2.9-5.9-5.9-8.9-8.8c-0.7,0.9-1.5,1.8-2.2,2.7c3,2.9,6,5.9,8.9,8.8
				C214.2,406.3,214.9,405.4,215.6,404.5z"/>
		</g>
		<g>
			<path class="st6" d="M291.7,484.5c3,2.9,6,5.9,8.9,8.8c0.8-0.8,1.7-1.5,2.5-2.4c-3-2.9-5.9-5.9-8.9-8.8
				C293.4,483,292.6,483.8,291.7,484.5z"/>
		</g>
		<g>
			<path class="st6" d="M205.6,421.7c-3.8-1.7-7.5-3.5-11.3-5.2c-0.4,1.1-0.8,2.1-1.2,3.2c3.8,1.7,7.6,3.5,11.4,5.2
				C204.9,423.9,205.2,422.8,205.6,421.7z"/>
		</g>
		<g class="st9">
			<path class="st6" d="M303.5,470.4c3.8,1.7,7.6,3.5,11.4,5.2c0.6-1,1.1-2,1.6-3c-3.8-1.7-7.5-3.5-11.3-5.2
				C304.7,468.5,304.1,469.5,303.5,470.4z"/>
		</g>
		<g>
			<path class="st6" d="M310.5,452.8c4.2,0.3,8.3,0.7,12.5,1c0.2-1.1,0.4-2.3,0.6-3.4c-4.1-0.3-8.3-0.7-12.4-1
				C310.9,450.6,310.7,451.7,310.5,452.8z"/>
		</g>
		<g class="st9">
			<path class="st6" d="M201.9,440.5c-4.1-0.3-8.3-0.7-12.4-1c0,1.1-0.1,2.3-0.1,3.4c4.2,0.3,8.3,0.7,12.5,1
				C201.9,442.8,201.9,441.7,201.9,440.5z"/>
		</g>
		<g>
			<path class="st6" d="M204.4,459c-4,1.1-8.1,2.2-12.1,3.3c0.3,1.1,0.7,2.2,1,3.3c4-1.1,8.1-2.2,12.1-3.3
				C205.1,461.2,204.7,460.1,204.4,459z"/>
		</g>
		<g class="st9">
			<path class="st6" d="M311.5,433.2c4-1.1,8.1-2.2,12.1-3.3c-0.2-1.1-0.4-2.3-0.6-3.4c-4,1.1-8.1,2.2-12.1,3.3
				C311.2,430.9,311.3,432,311.5,433.2z"/>
		</g>
		<g>
			<path class="st6" d="M303.7,410.6c0.6,1,1.1,2,1.7,3c3.5-2.5,6.9-4.9,10.4-7.4c-0.5-1-1.1-2-1.7-3c-2.3,1.7-4.7,3.3-7,5
				C306,409,304.9,409.8,303.7,410.6z"/>
		</g>
		<g class="st9">
			<path class="st6" d="M289.6,394.9c0.9,0.7,1.8,1.4,2.7,2.1c2.4-3.5,4.9-7,7.3-10.6c-0.9-0.7-1.8-1.4-2.7-2.1
				c-2.1,3-4.1,5.9-6.2,8.9C290.3,393.8,289.9,394.3,289.6,394.9z"/>
		</g>
	</g>
</g>
<g>
	<g>
		<g>
			<g>
				<path class="st1" d="M749,397.1c-23.4,8.2-35.7,33.9-27.4,57.2c6.2,17.7,23.2,31.5,41.1,33.3l10.1,28.7l0.1,0
					c2.3,4.7,6.9,6.5,12.4,6.6c-0.1,0.3-0.1,0.7,0,1c0.3,0.9,1.3,1.4,2.2,1l11.6-4.1c0.9-0.3,1.4-1.3,1-2.2
					c-0.1-0.3-0.3-0.6-0.6-0.8c4.2-3.5,7.1-7.2,5.9-12.3L795,476.3c9.2-5.2,17.4-34.1,11.2-51.7C798,401.2,772.4,388.9,749,397.1z"
					/>
			</g>
			<g class="st2">
				<g>
					<path class="st3" d="M730.7,412.7c5-6.2,11.6-10.8,19.1-13.5c10.8-3.8,22.3-3.2,32.6,1.8c10.3,4.9,18,13.6,21.8,24.3
						c2.4,6.7,2.7,15.7,0.9,25.4c-1.6,8.6-4.7,16.7-8.3,21.1c-1,1.2-2,2.1-2.9,2.6l-1.6,0.9l0.6,1.7l10.4,29.2
						c0.5,2.4-0.1,4.5-1.9,6.7c-0.8,1-1.9,2.1-3.3,3.3l-2.2,1.8l1.5,1.1l-9.9,3.5l0.5-1.8l-2.8,0c-5.3-0.1-8.7-1.9-10.4-5.4
						l-0.3-0.6l-9.8-27.9l-0.5-1.3l-1.4-0.1c-8.2-0.9-16.7-4.5-23.8-10.3c-7.1-5.8-12.6-13.4-15.5-21.6c-2.5-7-3.1-14.5-1.8-21.7
						C723.1,424.9,726.2,418.3,730.7,412.7 M728.9,411.3c-9.4,11.7-12.7,27.9-7.4,43.1c6.2,17.7,23.2,31.5,41.1,33.3l10.1,28.7
						l0.1,0c2.3,4.7,6.9,6.5,12.4,6.6c-0.1,0.3-0.1,0.7,0,1c0.3,0.9,1.3,1.4,2.2,1l11.6-4.1c0.3-0.1,0.6-0.3,0.8-0.5
						c0.4-0.4,0.5-1.1,0.3-1.6c-0.1-0.3-0.3-0.6-0.6-0.8c1.4-1.2,2.6-2.3,3.6-3.6c2-2.5,3-5.3,2.3-8.7L795,476.3
						c1.2-0.7,2.4-1.8,3.5-3.2c7.6-9.4,13.1-33.2,7.7-48.6c-8.2-23.4-33.9-35.7-57.2-27.4C740.8,400,734,405,728.9,411.3
						L728.9,411.3z"/>
				</g>
			</g>
		</g>
		<g>
			<path class="st4" d="M768.7,508.3c-1.5,0-2.8-0.9-3.3-2.4c-0.6-1.8,0.3-3.9,2.2-4.5l8.7-3.1c1.8-0.7,3.9,0.3,4.5,2.2
				c0.6,1.8-0.3,3.9-2.2,4.5l-8.7,3.1C769.5,508.2,769.1,508.3,768.7,508.3z"/>
		</g>
		<g>
			<g>
				<path class="st5" d="M749,397.1c-23.4,8.2-35.7,33.9-27.4,57.2c6.2,17.7,23.2,31.5,41.1,33.3l3.2,9l10.3-3.6l22.1-7.8l-3.2-9
					c9.2-6.5,20.7-27.1,11.2-51.7C797.3,401.5,772.4,388.9,749,397.1z"/>
			</g>
			<g class="st2">
				<g>
					<path class="st6" d="M730.7,412.7c5-6.2,11.6-10.8,19.1-13.5c10.7-3.8,22.2-3.1,32.3,1.9c10.1,4.9,18,13.5,22.1,24.3
						c3.4,8.7,4.3,17.5,2.7,26.1c-1.3,6.9-4.2,13.4-8.2,18.3c-1.6,1.9-3.2,3.6-4.9,4.7l-1.4,1l0.6,1.6l2.4,6.9l-20,7l-8.2,2.9
						l-2.4-6.9l-0.5-1.3l-1.4-0.1c-8.2-0.9-16.7-4.5-23.8-10.3c-7.1-5.8-12.6-13.4-15.5-21.6c-2.5-7-3.1-14.5-1.8-21.7
						C723.1,424.9,726.2,418.3,730.7,412.7 M728.9,411.3c-9.4,11.7-12.7,27.9-7.4,43.1c6.2,17.7,23.2,31.5,41.1,33.3l3.2,9l10.3-3.6
						l22.1-7.8l-3.2-9c1.7-1.2,3.6-3,5.3-5.1c7.5-9.3,13.6-26.7,5.9-46.6c-8.9-23.1-33.9-35.7-57.2-27.4
						C740.8,400,734,405,728.9,411.3L728.9,411.3z"/>
				</g>
			</g>
		</g>
		<g class="st2">
			<g>
				<path class="st7" d="M765.4,403.7c-29.4-4.5-50.3,30.1-34,51.4c0.5,0.7,1.6,0.3,1.6-0.5c-0.2-5.5,0.2-18.5,6.1-27.3
					c6.9-10.4,21.2-18.9,26.6-22C766.5,404.9,766.3,403.8,765.4,403.7z"/>
			</g>
		</g>
		<g>
			<path class="st4" d="M792.3,500c-1.5,0-2.8-0.9-3.3-2.4c-0.6-1.8,0.3-3.9,2.2-4.5l8.7-3.1c1.8-0.7,3.9,0.3,4.5,2.2
				c0.6,1.8-0.3,3.9-2.2,4.5l-8.7,3.1C793.1,499.9,792.7,500,792.3,500z"/>
		</g>
		<g>
			<path class="st4" d="M771.4,516.1c-1.5,0-2.8-0.9-3.3-2.4c-0.6-1.8,0.3-3.9,2.2-4.5l8.7-3.1c1.8-0.7,3.9,0.3,4.5,2.2
				c0.6,1.8-0.3,3.9-2.2,4.5l-8.7,3.1C772.2,516,771.8,516.1,771.4,516.1z"/>
		</g>
		<g>
			<path class="st4" d="M795,507.8c-1.5,0-2.8-0.9-3.3-2.4c-0.6-1.8,0.3-3.9,2.2-4.5l8.7-3.1c1.8-0.6,3.9,0.3,4.5,2.2
				c0.6,1.8-0.3,3.9-2.2,4.5l-8.7,3.1C795.8,507.7,795.4,507.8,795,507.8z"/>
		</g>
		<g>
			<g>
				<polygon class="st8" points="784.8,489.7 779.7,491.4 769.8,463.4 750.3,454 752.6,449.1 774.1,459.5 				"/>
			</g>
		</g>
		<g>
			<g>
				<circle class="st5" cx="751.4" cy="451.6" r="6.2"/>
			</g>
			<g>
				<path class="st8" d="M758.3,457.1L758.3,457.1c-1,1.3-2.4,2.3-4,2.8c-4.6,1.6-9.7-0.8-11.3-5.4c-1-2.9-0.5-6.1,1.5-8.5
					c1-1.3,2.4-2.3,4-2.8c2.2-0.8,4.6-0.7,6.8,0.4c2.1,1,3.7,2.8,4.5,5C760.8,451.5,760.3,454.7,758.3,457.1z M748.7,449.4
					c-0.8,0.9-1,2.2-0.6,3.3c0.6,1.8,2.6,2.8,4.4,2.1c0.6-0.2,1.2-0.6,1.6-1.1c0.8-0.9,1-2.2,0.6-3.3c-0.3-0.9-0.9-1.6-1.8-2
					s-1.8-0.5-2.7-0.1C749.6,448.5,749.1,448.9,748.7,449.4z"/>
			</g>
		</g>
		<g>
			<g>
				
					<rect x="774.7" y="439.2" transform="matrix(0.8879 0.4599 -0.4599 0.8879 294.5325 -307.0231)" class="st8" width="5.4" height="23.5"/>
			</g>
		</g>
		<g>
			<g>
				<circle class="st5" cx="782.8" cy="440.5" r="6.2"/>
			</g>
			<g>
				<path class="st8" d="M789.7,446.1c-1,1.3-2.4,2.3-4,2.8c-4.6,1.6-9.7-0.8-11.3-5.4c-1-2.9-0.5-6.1,1.5-8.5c1-1.3,2.4-2.3,4-2.8
					c4.6-1.6,9.7,0.8,11.3,5.4C792.2,440.5,791.6,443.7,789.7,446.1z M780.1,438.3c-0.8,0.9-1,2.2-0.6,3.3c0.6,1.8,2.6,2.8,4.4,2.1
					c0.6-0.2,1.2-0.6,1.6-1.1c0.8-0.9,1-2.2,0.6-3.3c-0.6-1.8-2.6-2.8-4.4-2.1C781,437.5,780.5,437.8,780.1,438.3z"/>
			</g>
		</g>
	</g>
	<g>
		<g>
			<path class="st6" d="M745.6,387.4c0.7-0.2,1.3-0.4,2-0.6c-0.7-2.1-1.5-4.2-2.2-6.3c-0.7-2-1.4-3.9-2.1-5.9
				c-0.7,0.2-1.3,0.4-2,0.6c-0.4,0.2-0.9,0.3-1.3,0.5c1.4,4.1,2.9,8.1,4.3,12.2C744.7,387.7,745.1,387.5,745.6,387.4z"/>
		</g>
		<g class="st9">
			<path class="st6" d="M726.1,399.5c0.8-0.8,1.7-1.6,2.5-2.3c-2.7-3.3-5.4-6.6-8.1-9.9c-0.9,0.7-1.7,1.5-2.5,2.3
				c2.3,2.7,4.5,5.5,6.8,8.2C725.1,398.4,725.6,398.9,726.1,399.5z"/>
		</g>
		<g>
			<path class="st6" d="M714,417.1c0.5-1.1,0.9-2.1,1.5-3.1c-3.6-2.2-7.3-4.3-10.9-6.5c-0.5,1-1,2-1.5,3.1c2.6,1.5,5.2,3.1,7.8,4.6
				C711.9,415.8,713,416.5,714,417.1z"/>
		</g>
		<g class="st9">
			<path class="st6" d="M709.7,433.8c-4.1-0.8-8.2-1.5-12.3-2.3c-0.1,1.1-0.2,2.3-0.3,3.4c4.1,0.8,8.2,1.5,12.4,2.3
				C709.5,436.1,709.6,434.9,709.7,433.8z"/>
		</g>
		<g>
			<path class="st6" d="M817.6,457.5c4.1,0.8,8.2,1.5,12.4,2.3c0.3-1.1,0.5-2.2,0.7-3.4c-4.1-0.8-8.2-1.5-12.3-2.3
				C818.1,455.3,817.9,456.4,817.6,457.5z"/>
		</g>
		<g>
			<path class="st6" d="M711.1,453.7c-4.1,0.7-8.2,1.4-12.3,2c0.3,1.1,0.5,2.2,0.9,3.3c4.1-0.7,8.2-1.4,12.3-2
				C711.6,455.9,711.3,454.8,711.1,453.7z"/>
		</g>
		<g class="st9">
			<path class="st6" d="M819.5,439.2c4.1-0.7,8.2-1.4,12.3-2c-0.1-1.1-0.2-2.3-0.4-3.4c-4.1,0.7-8.2,1.4-12.3,2
				C819.3,436.9,819.4,438.1,819.5,439.2z"/>
		</g>
		<g>
			<path class="st6" d="M815.4,420.7c3.6-2,7.3-4.1,10.9-6.1c-0.4-1.1-0.9-2.1-1.4-3.1c-3.6,2-7.2,4.1-10.8,6.1
				C814.5,418.6,814.9,419.7,815.4,420.7z"/>
		</g>
		<g class="st9">
			<path class="st6" d="M718.6,471.3c-3.6,2-7.2,4.1-10.8,6.1c0.6,1,1.2,1.9,1.9,2.9c3.6-2,7.3-4.1,10.9-6.1
				C719.8,473.2,719.2,472.3,718.6,471.3z"/>
		</g>
		<g>
			<path class="st6" d="M730.9,485.3c-2.7,3.2-5.4,6.3-8.2,9.5c0.9,0.7,1.8,1.4,2.7,2.1c2.7-3.2,5.5-6.4,8.2-9.6
				C732.7,486.7,731.8,486,730.9,485.3z"/>
		</g>
		<g class="st9">
			<path class="st6" d="M805.2,403.9c2.7-3.2,5.5-6.4,8.2-9.6c-0.8-0.9-1.6-1.7-2.4-2.5c-2.7,3.2-5.4,6.3-8.2,9.5
				C803.6,402.2,804.4,403,805.2,403.9z"/>
		</g>
		<g>
			<path class="st6" d="M786.1,389.5c1,0.5,2.1,1,3.1,1.5c1.5-4,3-7.9,4.5-11.9c-1-0.5-2-1-3.1-1.5c-1,2.7-2,5.4-3,8
				C787.1,387,786.6,388.2,786.1,389.5z"/>
		</g>
		<g class="st9">
			<path class="st6" d="M765.6,384.4c1.1,0.1,2.3,0.1,3.4,0.3c0-4.3,0.1-8.6,0.1-12.9c-1.1-0.1-2.3-0.2-3.4-0.2
				c0,3.6-0.1,7.2-0.1,10.9C765.6,383.1,765.6,383.8,765.6,384.4z"/>
		</g>
	</g>
</g>
<g>
	<g>
		<g>
			<g>
				<path class="st1" d="M630.1,622.1c-18.2-9.6-40.7-2.6-50.2,15.6c-7.2,13.7-6,31.8,2.9,43.8L571,703.7l0.1,0
					c-1.6,4.1-0.1,7.8,2.9,11.2c-0.2,0.1-0.5,0.3-0.6,0.6c-0.4,0.7-0.1,1.6,0.6,1.9l9,4.8c0.7,0.4,1.6,0.1,1.9-0.6
					c0.1-0.3,0.2-0.5,0.2-0.8c4.5,0.6,8.3,0.3,10.8-3.3l12-22.9c8.4,2.6,30.5-8.6,37.7-22.3C655.2,654.1,648.3,631.6,630.1,622.1z"
					/>
			</g>
			<g class="st2">
				<g>
					<path class="st3" d="M610.3,619.7c6.5-0.5,13.1,0.9,18.9,4c8.4,4.4,14.5,11.8,17.3,20.8c2.8,9,1.9,18.6-2.5,26.9
						c-2.7,5.2-8,10.5-14.9,14.9c-6.1,3.9-12.8,6.5-17.4,6.8c-1.3,0.1-2.4,0-3.2-0.3l-1.5-0.5l-0.7,1.4l-11.9,22.8
						c-1.2,1.7-2.8,2.5-5.1,2.6c-1.1,0.1-2.3,0-3.9-0.2l-2.3-0.3l0.2,1.6l-7.7-4l1.4-0.7l-1.6-1.7c-2.9-3.3-3.8-6.3-2.6-9.4l0.2-0.5
						l11.4-21.6l0.5-1l-0.7-0.9c-4.1-5.5-6.7-12.7-7.2-20.2c-0.5-7.6,1.1-15.2,4.4-21.6c2.9-5.4,7.1-10,12.2-13.3
						C598.7,622,604.4,620.1,610.3,619.7 M610.2,617.9c-12.4,0.9-24.1,7.9-30.3,19.8c-7.2,13.7-6,31.8,2.9,43.8L571,703.7l0.1,0
						c-1.6,4.1-0.1,7.8,2.9,11.2c-0.2,0.1-0.5,0.3-0.6,0.6c-0.4,0.7-0.1,1.6,0.6,1.9l9,4.8c0.2,0.1,0.5,0.2,0.8,0.2
						c0.5,0,0.9-0.3,1.2-0.8c0.1-0.3,0.2-0.5,0.2-0.8c1.5,0.2,2.9,0.3,4.2,0.2c2.7-0.2,4.9-1.1,6.6-3.5l12-22.9
						c1.1,0.3,2.4,0.4,3.9,0.3c10-0.7,27.5-10.7,33.8-22.7c9.6-18.2,2.6-40.7-15.6-50.2C623.7,618.7,616.9,617.4,610.2,617.9
						L610.2,617.9z"/>
				</g>
			</g>
		</g>
		<g>
			<path class="st4" d="M582.6,701.8c-0.6,0-1.1-0.1-1.6-0.4l-6.8-3.6c-1.7-0.9-2.4-3.1-1.5-4.8c0.9-1.7,3.1-2.4,4.8-1.5l6.8,3.6
				c1.7,0.9,2.4,3.1,1.5,4.8C585.1,701.1,583.9,701.8,582.6,701.8z"/>
		</g>
		<g>
			<g>
				<path class="st5" d="M630.1,622.1c-18.2-9.6-40.7-2.6-50.2,15.6c-7.2,13.7-6,31.8,2.9,43.8l-3.7,7l8,4.2l17.1,9l3.7-7
					c9.1,1.9,28.2-2.7,37.7-22.3C654.7,653.8,648.3,631.6,630.1,622.1z"/>
			</g>
			<g class="st2">
				<g>
					<path class="st6" d="M610.3,619.7c6.5-0.5,13.1,0.9,18.9,4c8.3,4.4,14.3,11.7,17.1,20.7c2.7,8.9,1.9,18.5-2.3,27.1
						c-3.4,7-8.2,12.4-14.4,16.3c-4.9,3.1-10.5,5-15.7,5.3c-2.1,0.1-4,0-5.6-0.3l-1.4-0.3l-0.6,1.2l-2.8,5.3l-15.5-8.2l-6.4-3.4
						l2.8-5.3l0.5-1l-0.7-0.9c-4.1-5.5-6.7-12.7-7.2-20.2c-0.5-7.6,1.1-15.2,4.4-21.6c2.9-5.4,7.1-10,12.2-13.3
						C598.7,622,604.4,620.1,610.3,619.7 M610.2,617.9c-12.4,0.9-24.1,7.9-30.3,19.8c-7.2,13.7-6,31.8,2.9,43.8l-3.7,7l8,4.2l17.1,9
						l3.7-7c1.7,0.4,3.8,0.5,6.1,0.3c9.9-0.7,23.8-6.8,31.6-22.7c9-18.5,2.6-40.7-15.6-50.2C623.7,618.7,616.9,617.4,610.2,617.9
						L610.2,617.9z"/>
				</g>
			</g>
		</g>
		<g class="st2">
			<g>
				<path class="st7" d="M635.4,635.8c-13.8-20.4-46.6-13.6-50.4,8.3c-0.1,0.7,0.7,1.1,1.2,0.7c3.2-3.2,11.3-10.3,20-11.7
					c10.2-1.6,23.4,2.2,28.3,3.8C635.2,637.1,635.8,636.3,635.4,635.8z"/>
			</g>
		</g>
		<g>
			<path class="st4" d="M600.9,711.4c-0.6,0-1.1-0.1-1.6-0.4l-6.8-3.6c-1.7-0.9-2.4-3.1-1.5-4.8c0.9-1.7,3.1-2.4,4.8-1.5l6.8,3.6
				c1.7,0.9,2.4,3.1,1.5,4.8C603.4,710.7,602.2,711.4,600.9,711.4z"/>
		</g>
		<g>
			<path class="st4" d="M579.4,707.8c-0.6,0-1.1-0.1-1.6-0.4l-6.8-3.6c-1.7-0.9-2.4-3.1-1.5-4.8c0.9-1.7,3.1-2.4,4.8-1.5l6.8,3.6
				c1.7,0.9,2.4,3.1,1.5,4.8C581.9,707.1,580.7,707.8,579.4,707.8z"/>
		</g>
		<g>
			<path class="st4" d="M597.7,717.5c-0.6,0-1.1-0.1-1.6-0.4l-6.8-3.6c-1.7-0.9-2.4-3.1-1.5-4.8c0.9-1.7,3.1-2.4,4.8-1.5l6.8,3.6
				c1.7,0.9,2.4,3.1,1.5,4.8C600.3,716.8,599,717.5,597.7,717.5z"/>
		</g>
		<g>
			<g>
				<polygon class="st8" points="594,695.9 590.1,693.8 601.6,672 596.3,654.9 600.5,653.5 606.4,672.5 				"/>
			</g>
		</g>
		<g>
			<g>
				<circle class="st5" cx="598.4" cy="654.2" r="5.1"/>
			</g>
			<g>
				<path class="st8" d="M598.9,661.5L598.9,661.5c-1.4,0.1-2.7-0.2-3.9-0.8c-3.6-1.9-5-6.3-3.1-9.9c1.2-2.3,3.4-3.7,6-3.9
					c1.4-0.1,2.7,0.2,3.9,0.8c1.7,0.9,3,2.4,3.6,4.3s0.4,3.9-0.5,5.6C603.7,659.9,601.5,661.3,598.9,661.5z M598.2,651.3
					c-1,0.1-1.9,0.6-2.4,1.5c-0.7,1.4-0.2,3.2,1.2,3.9c0.5,0.3,1,0.4,1.5,0.3c1-0.1,1.9-0.6,2.4-1.5c0.4-0.7,0.4-1.5,0.2-2.2
					c-0.2-0.7-0.7-1.3-1.4-1.7C599.3,651.4,598.7,651.3,598.2,651.3z"/>
			</g>
		</g>
		<g>
			<g>
				
					<rect x="611.2" y="659.9" transform="matrix(0.2662 0.9639 -0.9639 0.2662 1095.5531 -99.8765)" class="st8" width="4.5" height="19.5"/>
			</g>
		</g>
		<g>
			<g>
				<circle class="st5" cx="622.8" cy="667" r="5.1"/>
			</g>
			<g>
				<path class="st8" d="M623.3,674.4c-1.4,0.1-2.7-0.2-3.9-0.8c-3.6-1.9-5-6.3-3.1-9.9c1.2-2.3,3.4-3.7,6-3.9
					c1.4-0.1,2.7,0.2,3.9,0.8c3.6,1.9,5,6.3,3.1,9.9C628.1,672.7,625.8,674.2,623.3,674.4z M622.6,664.2c-1,0.1-1.9,0.6-2.4,1.5
					c-0.7,1.4-0.2,3.2,1.2,3.9c0.5,0.3,1,0.4,1.5,0.3c1-0.1,1.9-0.6,2.4-1.5c0.7-1.4,0.2-3.2-1.2-3.9
					C623.6,664.2,623.1,664.1,622.6,664.2z"/>
			</g>
		</g>
	</g>
	<g>
		<g>
			<path class="st6" d="M634.1,614.5c0.5,0.3,1,0.5,1.5,0.8c0.9-1.6,1.7-3.2,2.6-4.9c0.8-1.5,1.6-3,2.4-4.6c-0.5-0.3-1-0.6-1.5-0.8
				c-0.3-0.2-0.7-0.3-1-0.5c-1.7,3.1-3.3,6.3-5,9.4C633.4,614.1,633.8,614.3,634.1,614.5z"/>
		</g>
		<g class="st9">
			<path class="st6" d="M615.7,609.5c0.9,0,1.9,0.1,2.8,0.2c0.5-3.5,1-7,1.4-10.5c-0.9-0.1-1.9-0.2-2.8-0.2
				c-0.4,2.9-0.8,5.8-1.2,8.7C615.9,608.3,615.8,608.9,615.7,609.5z"/>
		</g>
		<g>
			<path class="st6" d="M598.3,612.1c0.9-0.3,1.8-0.6,2.7-0.9c-0.7-3.4-1.5-6.8-2.2-10.3c-0.9,0.3-1.8,0.5-2.7,0.8
				c0.5,2.4,1.1,4.9,1.6,7.3C597.9,610.1,598.1,611.1,598.3,612.1z"/>
		</g>
		<g class="st9">
			<path class="st6" d="M585.7,618.8c-1.8-2.9-3.7-5.9-5.5-8.8c-0.8,0.6-1.5,1.1-2.3,1.7c1.9,2.9,3.7,5.9,5.6,8.8
				C584.2,620,584.9,619.4,585.7,618.8z"/>
		</g>
		<g>
			<path class="st6" d="M632,697.7c1.9,2.9,3.7,5.9,5.6,8.8c0.8-0.5,1.6-0.9,2.5-1.4c-1.8-2.9-3.7-5.9-5.5-8.8
				C633.7,696.8,632.9,697.3,632,697.7z"/>
		</g>
		<g>
			<path class="st6" d="M574.4,630.9c-2.7-2.1-5.4-4.2-8.1-6.3c-0.5,0.8-1,1.6-1.5,2.4c2.7,2.1,5.5,4.2,8.2,6.3
				C573.4,632.5,573.9,631.7,574.4,630.9z"/>
		</g>
		<g class="st9">
			<path class="st6" d="M644.2,688.6c2.7,2.1,5.5,4.2,8.2,6.3c0.6-0.7,1.3-1.4,1.9-2.1c-2.7-2.1-5.4-4.2-8.1-6.3
				C645.5,687.2,644.9,687.9,644.2,688.6z"/>
		</g>
		<g>
			<path class="st6" d="M653.1,675.7c3.3,1.1,6.6,2.1,9.9,3.2c0.4-0.9,0.8-1.7,1.1-2.6c-3.3-1-6.5-2.1-9.8-3.1
				C653.9,674,653.5,674.8,653.1,675.7z"/>
		</g>
		<g class="st9">
			<path class="st6" d="M567.9,645.4c-3.3-1-6.5-2.1-9.8-3.1c-0.3,0.9-0.5,1.8-0.7,2.7c3.3,1.1,6.6,2.1,9.9,3.2
				C567.4,647.2,567.6,646.3,567.9,645.4z"/>
		</g>
		<g>
			<path class="st6" d="M566.4,660.7c-3.5,0.1-6.9,0.3-10.4,0.4c0.1,0.9,0.1,1.9,0.2,2.8c3.5-0.1,6.9-0.3,10.4-0.4
				C566.5,662.6,566.4,661.6,566.4,660.7z"/>
		</g>
		<g class="st9">
			<path class="st6" d="M657.6,660c3.5-0.1,6.9-0.3,10.4-0.4c0.1-1,0.1-1.9,0.2-2.9c-3.5,0.1-6.9,0.3-10.4,0.4
				C657.8,658.1,657.7,659.1,657.6,660z"/>
		</g>
		<g>
			<path class="st6" d="M655.6,640.3c0.3,0.9,0.6,1.8,0.8,2.7c3.3-1.3,6.5-2.7,9.8-4c-0.3-0.9-0.5-1.8-0.8-2.7
				c-2.2,0.9-4.4,1.8-6.6,2.7C657.7,639.5,656.7,639.9,655.6,640.3z"/>
		</g>
		<g class="st9">
			<path class="st6" d="M647.2,625c0.6,0.7,1.2,1.5,1.8,2.2c2.6-2.4,5.3-4.8,7.9-7.2c-0.6-0.8-1.2-1.5-1.8-2.2c-2.2,2-4.4,4-6.7,6
				C648,624.3,647.6,624.6,647.2,625z"/>
		</g>
	</g>
</g>
<g>
	<g>
		<g>
			<g>
				<path class="st1" d="M404.7,516.3c-14.1,7.3-19.5,24.6-12.2,38.7c5.5,10.6,17.5,17.8,29,17.4l9,17.3l0.1,0
					c1.9,2.8,4.9,3.5,8.4,3.1c0,0.2,0,0.4,0.1,0.6c0.3,0.5,0.9,0.7,1.5,0.5l7-3.6c0.5-0.3,0.7-0.9,0.5-1.5c-0.1-0.2-0.3-0.4-0.5-0.5
					c2.4-2.6,3.8-5.2,2.6-8.3l-9.2-17.6c5.3-4.1,8-23.1,2.5-33.7C436.1,514.5,418.8,509,404.7,516.3z"/>
			</g>
			<g class="st2">
				<g>
					<path class="st3" d="M394.5,527.8c2.6-4.3,6.3-7.9,10.9-10.2c6.5-3.4,13.8-4,20.8-1.8c6.9,2.2,12.6,7,16,13.4
						c2.1,4,3.1,9.7,2.9,16c-0.2,5.6-1.5,11-3.3,14.1c-0.5,0.9-1,1.5-1.6,1.9l-0.9,0.7l0.5,1l9.2,17.6c0.5,1.5,0.4,2.8-0.6,4.4
						c-0.4,0.7-1,1.5-1.8,2.4l-1.2,1.3l1.1,0.6l-5.9,3.1l0.1-1.2l-1.8,0.2c-3.3,0.4-5.7-0.4-7.1-2.5l-0.2-0.3l-8.7-16.7l-0.4-0.8
						l-0.9,0c-5.3,0.2-11-1.4-16-4.4c-5-3-9.2-7.4-11.7-12.3c-2.2-4.2-3.2-8.9-3.1-13.6C390.8,536.1,392.2,531.7,394.5,527.8
						 M393.3,527c-4.9,8.2-5.6,18.8-0.8,27.9c5.5,10.6,17.5,17.8,29,17.4l9,17.3l0.1,0c1.9,2.8,4.9,3.5,8.4,3.1c0,0.2,0,0.4,0.1,0.6
						c0.3,0.5,0.9,0.7,1.5,0.5l7-3.6c0.2-0.1,0.3-0.2,0.4-0.4c0.2-0.3,0.2-0.7,0-1.1c-0.1-0.2-0.3-0.4-0.5-0.5
						c0.8-0.9,1.5-1.7,2-2.6c1.1-1.8,1.4-3.6,0.7-5.7l-9.2-17.6c0.7-0.5,1.3-1.3,1.9-2.3c3.9-6.6,5.3-22.2,0.5-31.4
						c-7.3-14.1-24.6-19.5-38.7-12.2C399.8,518.8,395.9,522.6,393.3,527L393.3,527z"/>
				</g>
			</g>
		</g>
		<g>
			<path class="st4" d="M426.8,586.1c-1.3,0-2.5-0.7-3.1-1.9c-0.9-1.7-0.2-3.9,1.5-4.8l5.3-2.7c1.7-0.9,3.9-0.2,4.8,1.5
				c0.9,1.7,0.2,3.9-1.5,4.8l-5.3,2.7C427.9,586,427.3,586.1,426.8,586.1z"/>
		</g>
		<g>
			<g>
				<path class="st5" d="M404.7,516.3c-14.1,7.3-19.5,24.6-12.2,38.7c5.5,10.6,17.5,17.8,29,17.4l2.8,5.4l6.2-3.2l13.3-6.9l-2.8-5.4
					c5.2-4.9,10.7-19,2.5-33.7C435.7,514.7,418.8,509,404.7,516.3z"/>
			</g>
			<g class="st2">
				<g>
					<path class="st6" d="M394.5,527.8c2.6-4.3,6.3-7.9,10.9-10.2c6.4-3.3,13.7-3.9,20.6-1.7c6.8,2.2,12.6,7,16.2,13.4
						c2.9,5.2,4.3,10.7,4,16.3c-0.2,4.5-1.5,8.8-3.5,12.3c-0.8,1.4-1.7,2.6-2.7,3.4l-0.8,0.7l0.5,1l2.1,4.1l-12,6.2l-4.9,2.6
						l-2.1-4.1l-0.4-0.8l-0.9,0c-5.3,0.2-11-1.4-16-4.4c-5-3-9.2-7.4-11.7-12.3c-2.2-4.2-3.2-8.9-3.1-13.6
						C390.8,536.1,392.2,531.7,394.5,527.8 M393.3,527c-4.9,8.2-5.6,18.8-0.8,27.9c5.5,10.6,17.5,17.8,29,17.4l2.8,5.4l6.2-3.2
						l13.3-6.9l-2.8-5.4c1-0.9,2-2.2,2.9-3.7c3.9-6.6,6.2-18.1-0.4-30c-7.7-13.8-24.6-19.5-38.7-12.2
						C399.8,518.8,395.9,522.6,393.3,527L393.3,527z"/>
				</g>
			</g>
		</g>
		<g class="st2">
			<g>
				<path class="st7" d="M415.7,519c-19-0.2-29.1,23.5-16.9,35.6c0.4,0.4,1,0,0.9-0.5c-0.6-3.4-1.5-11.7,1.4-17.8
					c3.4-7.2,11.7-13.9,14.9-16.3C416.5,519.6,416.2,519,415.7,519z"/>
			</g>
		</g>
		<g>
			<path class="st4" d="M441,578.8c-1.3,0-2.5-0.7-3.1-1.9c-0.9-1.7-0.2-3.9,1.5-4.8l5.3-2.7c1.7-0.9,3.9-0.2,4.8,1.5
				c0.9,1.7,0.2,3.9-1.5,4.8l-5.3,2.7C442.1,578.6,441.5,578.8,441,578.8z"/>
		</g>
		<g>
			<path class="st4" d="M429.2,590.8c-1.3,0-2.5-0.7-3.1-1.9c-0.9-1.7-0.2-3.9,1.5-4.8l5.3-2.7c1.7-0.9,3.9-0.2,4.8,1.5
				c0.9,1.7,0.2,3.9-1.5,4.8l-5.3,2.7C430.3,590.7,429.8,590.8,429.2,590.8z"/>
		</g>
		<g>
			<path class="st4" d="M443.4,583.4c-1.3,0-2.5-0.7-3.1-1.9c-0.9-1.7-0.2-3.9,1.5-4.8l5.3-2.7c1.7-0.9,3.9-0.2,4.8,1.5
				c0.9,1.7,0.2,3.9-1.5,4.8L445,583C444.5,583.3,444,583.4,443.4,583.4z"/>
		</g>
		<g>
			<g>
				<polygon class="st8" points="435.6,571.6 432.6,573.2 423.8,556.3 410.6,552.1 411.6,548.9 426.2,553.5 				"/>
			</g>
		</g>
		<g>
			<g>
				<circle class="st5" cx="411.1" cy="550.5" r="3.9"/>
			</g>
			<g>
				<path class="st8" d="M416,553.4L416,553.4c-0.5,0.9-1.3,1.6-2.3,2.1c-2.8,1.4-6.2,0.4-7.6-2.4c-0.9-1.8-0.8-3.8,0.2-5.5
					c0.5-0.9,1.3-1.6,2.3-2.1c1.3-0.7,2.9-0.8,4.3-0.4c1.4,0.5,2.6,1.4,3.3,2.8C417,549.6,417,551.7,416,553.4z M409.2,549.3
					c-0.4,0.7-0.4,1.5-0.1,2.2c0.6,1.1,1.9,1.5,3,1c0.4-0.2,0.7-0.5,0.9-0.8c0.4-0.7,0.4-1.5,0.1-2.2c-0.3-0.5-0.7-0.9-1.3-1.1
					s-1.2-0.1-1.7,0.1C409.7,548.7,409.4,549,409.2,549.3z"/>
			</g>
		</g>
		<g>
			<g>
				
					<rect x="425.8" y="540.3" transform="matrix(0.9436 0.3312 -0.3312 0.9436 205.5546 -110.6666)" class="st8" width="3.4" height="15"/>
			</g>
		</g>
		<g>
			<g>
				<circle class="st5" cx="430" cy="540.7" r="3.9"/>
			</g>
			<g>
				<path class="st8" d="M434.8,543.6c-0.5,0.9-1.3,1.6-2.3,2.1c-2.8,1.4-6.2,0.4-7.6-2.4c-0.9-1.8-0.8-3.8,0.2-5.5
					c0.5-0.9,1.3-1.6,2.3-2.1c2.8-1.4,6.2-0.4,7.6,2.4C435.9,539.8,435.9,541.9,434.8,543.6z M428.1,539.6c-0.4,0.7-0.4,1.5-0.1,2.2
					c0.6,1.1,1.9,1.5,3,1c0.4-0.2,0.7-0.5,0.9-0.8c0.4-0.7,0.4-1.5,0.1-2.2c-0.6-1.1-1.9-1.5-3-1
					C428.6,538.9,428.3,539.2,428.1,539.6z"/>
			</g>
		</g>
	</g>
	<g>
		<g>
			<path class="st6" d="M401.7,510.4c0.4-0.2,0.8-0.4,1.2-0.6c-0.7-1.3-1.3-2.5-2-3.8c-0.6-1.2-1.2-2.4-1.8-3.5
				c-0.4,0.2-0.8,0.4-1.2,0.6c-0.3,0.1-0.5,0.3-0.8,0.4c1.3,2.4,2.5,4.9,3.8,7.3C401.2,510.7,401.4,510.5,401.7,510.4z"/>
		</g>
		<g class="st9">
			<path class="st6" d="M390.4,519.8c0.4-0.6,0.9-1.1,1.4-1.7c-2-1.8-4-3.7-6-5.5c-0.5,0.5-0.9,1.1-1.4,1.7c1.7,1.5,3.3,3.1,5,4.6
				C389.7,519.2,390.1,519.5,390.4,519.8z"/>
		</g>
		<g>
			<path class="st6" d="M384.4,532c0.2-0.7,0.4-1.4,0.6-2.1c-2.5-1-5-2.1-7.5-3.1c-0.2,0.7-0.5,1.4-0.7,2.1c1.8,0.7,3.6,1.5,5.3,2.2
				C382.9,531.4,383.7,531.7,384.4,532z"/>
		</g>
		<g class="st9">
			<path class="st6" d="M383.1,543c-2.7-0.1-5.3-0.2-8-0.4c0,0.7,0.1,1.5,0.1,2.2c2.7,0.1,5.4,0.2,8,0.4
				C383.2,544.5,383.2,543.7,383.1,543z"/>
		</g>
		<g>
			<path class="st6" d="M453.5,548.3c2.7,0.1,5.4,0.2,8,0.4c0.1-0.7,0.1-1.5,0.2-2.2c-2.7-0.1-5.3-0.2-8-0.4
				C453.6,546.9,453.6,547.6,453.5,548.3z"/>
		</g>
		<g>
			<path class="st6" d="M385.8,555.4c-2.5,0.8-5.1,1.6-7.6,2.4c0.3,0.7,0.5,1.4,0.8,2c2.5-0.8,5.1-1.6,7.6-2.4
				C386.3,556.8,386,556.1,385.8,555.4z"/>
		</g>
		<g class="st9">
			<path class="st6" d="M453.1,536.6c2.5-0.8,5.1-1.6,7.6-2.4c-0.2-0.7-0.3-1.4-0.5-2.1c-2.5,0.8-5.1,1.6-7.6,2.4
				C452.7,535.2,452.9,535.9,453.1,536.6z"/>
		</g>
		<g>
			<path class="st6" d="M448.8,525.3c2.1-1.6,4.2-3.2,6.3-4.9c-0.4-0.6-0.8-1.2-1.2-1.9c-2.1,1.6-4.2,3.2-6.3,4.8
				C448.1,524,448.4,524.6,448.8,525.3z"/>
		</g>
		<g class="st9">
			<path class="st6" d="M392.1,565.9c-2.1,1.6-4.2,3.2-6.3,4.8c0.5,0.6,0.9,1.1,1.4,1.6c2.1-1.6,4.2-3.2,6.3-4.9
				C393.1,567,392.6,566.5,392.1,565.9z"/>
		</g>
		<g>
			<path class="st6" d="M401.1,573.6c-1.4,2.2-2.9,4.5-4.3,6.7c0.6,0.4,1.3,0.8,1.9,1.1c1.4-2.3,2.9-4.5,4.3-6.8
				C402.4,574.4,401.8,574,401.1,573.6z"/>
		</g>
		<g class="st9">
			<path class="st6" d="M440.9,515.5c1.4-2.3,2.9-4.5,4.3-6.8c-0.6-0.5-1.1-0.9-1.7-1.4c-1.4,2.2-2.9,4.5-4.3,6.7
				C439.7,514.6,440.3,515,440.9,515.5z"/>
		</g>
		<g>
			<path class="st6" d="M427.5,508.1c0.7,0.2,1.4,0.4,2.1,0.7c0.6-2.6,1.2-5.3,1.8-7.9c-0.7-0.2-1.4-0.5-2.1-0.7
				c-0.4,1.8-0.8,3.6-1.2,5.4C427.9,506.4,427.7,507.3,427.5,508.1z"/>
		</g>
		<g class="st9">
			<path class="st6" d="M414.1,506.8c0.7-0.1,1.5-0.1,2.2-0.1c-0.4-2.7-0.7-5.4-1.1-8.1c-0.7,0-1.5,0.1-2.2,0.2
				c0.3,2.3,0.6,4.6,0.9,6.9C414,505.9,414,506.3,414.1,506.8z"/>
		</g>
	</g>
</g>
<g>
	<g>
		<g>
			<g>
				<path class="st1" d="M586.2,464.4c-13.3-6.5-29.2-1-35.7,12.3c-4.9,10-3.6,23,3.1,31.3l-7.9,16.3l0,0c-1,2.9,0.1,5.6,2.4,8
					c-0.2,0.1-0.3,0.2-0.4,0.4c-0.2,0.5,0,1.1,0.5,1.4l6.6,3.2c0.5,0.2,1.1,0,1.4-0.5c0.1-0.2,0.1-0.4,0.1-0.6c3.3,0.3,6,0,7.7-2.6
					l8.1-16.7c6.1,1.7,21.7-6.9,26.6-16.9C604.9,486.8,599.4,470.8,586.2,464.4z"/>
			</g>
			<g class="st2">
				<g>
					<path class="st3" d="M571.9,463.1c4.7-0.5,9.4,0.4,13.7,2.4c6.1,3,10.7,8.1,12.9,14.5c2.2,6.4,1.8,13.3-1.2,19.4
						c-1.9,3.8-5.5,7.7-10.4,11c-4.3,2.9-9,5-12.4,5.3c-0.9,0.1-1.7,0.1-2.3-0.1l-1.1-0.3l-0.5,1l-8,16.6c-0.8,1.2-1.9,1.8-3.6,2
						c-0.8,0.1-1.7,0.1-2.8,0l-1.7-0.2l0.2,1.1l-5.6-2.7l1-0.6l-1.2-1.2c-2.2-2.3-2.8-4.4-2.1-6.7l0.1-0.4l7.7-15.8l0.4-0.7
						l-0.5-0.7c-3.1-3.8-5.1-8.9-5.6-14.4c-0.5-5.4,0.4-11,2.7-15.6c1.9-4,4.9-7.3,8.5-9.8C563.6,465,567.7,463.6,571.9,463.1
						 M571.8,461.8c-8.9,0.9-17.1,6.2-21.3,14.9c-4.9,10-3.6,23,3.1,31.3l-7.9,16.3l0,0c-1,2.9,0.1,5.6,2.4,8
						c-0.2,0.1-0.3,0.2-0.4,0.4c-0.2,0.5,0,1.1,0.5,1.4l6.6,3.2c0.2,0.1,0.4,0.1,0.5,0.1c0.3,0,0.7-0.2,0.8-0.6
						c0.1-0.2,0.1-0.4,0.1-0.6c1.1,0.1,2.1,0.1,3,0c1.9-0.2,3.5-0.9,4.6-2.7l8.1-16.7c0.8,0.2,1.7,0.3,2.8,0.2
						c7.1-0.7,19.5-8.3,23.8-17c6.5-13.3,1-29.2-12.3-35.7C581.6,462.1,576.6,461.3,571.8,461.8L571.8,461.8z"/>
				</g>
			</g>
		</g>
		<g>
			<path class="st4" d="M553.8,523.6c-0.5,0-1-0.1-1.5-0.4l-4.9-2.4c-1.8-0.9-2.5-3-1.6-4.7c0.9-1.8,3-2.5,4.7-1.6l4.9,2.4
				c1.8,0.9,2.5,3,1.6,4.7C556.4,522.9,555.1,523.6,553.8,523.6z"/>
		</g>
		<g>
			<g>
				<path class="st5" d="M586.2,464.4c-13.3-6.5-29.2-1-35.7,12.3c-4.9,10-3.6,23,3.1,31.3l-2.5,5.1l5.8,2.8l12.5,6.1l2.5-5.1
					c6.6,1.2,20.1-2.6,26.6-16.9C604.5,486.6,599.4,470.8,586.2,464.4z"/>
			</g>
			<g class="st2">
				<g>
					<path class="st6" d="M571.9,463.1c4.7-0.5,9.4,0.4,13.7,2.4c6,2.9,10.6,8.1,12.7,14.5c2.1,6.3,1.8,13.3-1,19.5
						c-2.3,5.1-5.6,9.1-9.9,12c-3.4,2.3-7.4,3.8-11.2,4.2c-1.5,0.2-2.9,0.1-4-0.1l-1-0.2l-0.4,0.9l-1.9,3.9l-11.3-5.5l-4.6-2.3
						l1.9-3.9l0.4-0.7l-0.5-0.7c-3.1-3.8-5.1-8.9-5.6-14.4c-0.5-5.4,0.4-11,2.7-15.6c1.9-4,4.9-7.3,8.5-9.8
						C563.6,465,567.7,463.6,571.9,463.1 M571.8,461.8c-8.9,0.9-17.1,6.2-21.3,14.9c-4.9,10-3.6,23,3.1,31.3l-2.5,5.1l5.8,2.8
						l12.5,6.1l2.5-5.1c1.2,0.2,2.7,0.3,4.4,0.1c7.1-0.7,17-5.4,22.2-17c6-13.4,1-29.2-12.3-35.7
						C581.6,462.1,576.6,461.3,571.8,461.8L571.8,461.8z"/>
				</g>
			</g>
		</g>
		<g class="st2">
			<g>
				<path class="st7" d="M590.3,474.1c-10.4-14.3-33.7-8.7-36,7.1c-0.1,0.5,0.5,0.8,0.9,0.4c2.3-2.3,7.9-7.6,14.1-8.8
					c7.3-1.4,16.9,1.1,20.4,2.1C590.2,475,590.6,474.5,590.3,474.1z"/>
			</g>
		</g>
		<g>
			<path class="st4" d="M567.2,530.2c-0.5,0-1-0.1-1.5-0.4l-4.9-2.4c-1.8-0.9-2.5-3-1.6-4.7c0.9-1.8,3-2.5,4.7-1.6l4.9,2.4
				c1.8,0.9,2.5,3,1.6,4.7C569.8,529.4,568.5,530.2,567.2,530.2z"/>
		</g>
		<g>
			<path class="st4" d="M551.7,528c-0.5,0-1.1-0.1-1.6-0.4l-4.9-2.4c-1.8-0.9-2.5-3-1.6-4.7c0.9-1.8,3-2.5,4.7-1.6l4.9,2.4
				c1.8,0.9,2.5,3,1.6,4.7C554.2,527.3,553,528,551.7,528z"/>
		</g>
		<g>
			<path class="st4" d="M565,534.6c-0.5,0-1-0.1-1.5-0.4l-4.9-2.4c-1.8-0.9-2.5-3-1.6-4.7c0.9-1.8,3-2.5,4.7-1.6l4.9,2.4
				c1.8,0.9,2.5,3,1.6,4.7C567.6,533.8,566.4,534.6,565,534.6z"/>
		</g>
		<g>
			<g>
				<polygon class="st8" points="562,518.2 559.1,516.8 566.9,500.9 562.7,488.7 565.7,487.6 570.3,501.1 				"/>
			</g>
		</g>
		<g>
			<g>
				<circle class="st5" cx="564.2" cy="488.1" r="3.7"/>
			</g>
			<g>
				<path class="st8" d="M564.7,493.4L564.7,493.4c-1,0.1-2-0.1-2.8-0.5c-2.6-1.3-3.7-4.4-2.4-7c0.8-1.7,2.4-2.7,4.2-2.9
					c1-0.1,2,0.1,2.8,0.5c1.3,0.6,2.2,1.7,2.7,3c0.5,1.3,0.4,2.8-0.2,4C568.1,492.1,566.5,493.2,564.7,493.4z M564,486.1
					c-0.7,0.1-1.3,0.5-1.7,1.2c-0.5,1-0.1,2.3,1,2.8c0.3,0.2,0.7,0.2,1.1,0.2c0.7-0.1,1.3-0.5,1.7-1.2c0.2-0.5,0.3-1.1,0.1-1.6
					c-0.2-0.5-0.6-0.9-1.1-1.2C564.7,486.1,564.3,486,564,486.1z"/>
			</g>
		</g>
		<g>
			<g>
				
					<rect x="573.7" y="491.9" transform="matrix(0.2964 0.9551 -0.9551 0.2964 881.2572 -198.3816)" class="st8" width="3.2" height="14"/>
			</g>
		</g>
		<g>
			<g>
				<circle class="st5" cx="581.9" cy="496.8" r="3.7"/>
			</g>
			<g>
				<path class="st8" d="M582.5,502.1c-1,0.1-2-0.1-2.8-0.5c-2.6-1.3-3.7-4.4-2.4-7c0.8-1.7,2.4-2.7,4.2-2.9c1-0.1,2,0.1,2.8,0.5
					c2.6,1.3,3.7,4.4,2.4,7C585.9,500.8,584.3,501.9,582.5,502.1z M581.7,494.8c-0.7,0.1-1.3,0.5-1.7,1.2c-0.5,1-0.1,2.3,1,2.8
					c0.3,0.2,0.7,0.2,1.1,0.2c0.7-0.1,1.3-0.5,1.7-1.2c0.5-1,0.1-2.3-1-2.8C582.5,494.8,582.1,494.7,581.7,494.8z"/>
			</g>
		</g>
	</g>
	<g>
		<g>
			<path class="st6" d="M588.9,458.9c0.4,0.2,0.7,0.4,1.1,0.6c0.6-1.2,1.2-2.4,1.7-3.6c0.5-1.1,1.1-2.2,1.6-3.3
				c-0.4-0.2-0.7-0.4-1.1-0.6c-0.2-0.1-0.5-0.2-0.7-0.3c-1.1,2.3-2.2,4.6-3.4,6.9C588.4,458.6,588.6,458.7,588.9,458.9z"/>
		</g>
		<g class="st9">
			<path class="st6" d="M575.6,455.7c0.7,0,1.4,0,2,0.1c0.3-2.5,0.5-5.1,0.8-7.6c-0.7-0.1-1.4-0.1-2-0.1c-0.2,2.1-0.4,4.2-0.7,6.3
				C575.7,454.8,575.7,455.2,575.6,455.7z"/>
		</g>
		<g>
			<path class="st6" d="M563.1,457.9c0.6-0.2,1.3-0.5,1.9-0.7c-0.6-2.4-1.2-4.9-1.8-7.3c-0.6,0.2-1.3,0.4-1.9,0.7
				c0.4,1.7,0.9,3.5,1.3,5.2C562.8,456.5,563,457.2,563.1,457.9z"/>
		</g>
		<g class="st9">
			<path class="st6" d="M554.3,463.1c-1.4-2.1-2.8-4.1-4.2-6.2c-0.5,0.4-1.1,0.9-1.6,1.3c1.4,2.1,2.8,4.1,4.2,6.2
				C553.2,463.9,553.7,463.5,554.3,463.1z"/>
		</g>
		<g>
			<path class="st6" d="M589.3,518.6c1.4,2.1,2.8,4.1,4.2,6.2c0.6-0.3,1.2-0.7,1.7-1.1c-1.4-2.1-2.8-4.1-4.2-6.2
				C590.5,517.9,589.9,518.3,589.3,518.6z"/>
		</g>
		<g>
			<path class="st6" d="M546.4,471.9c-2-1.4-4-2.9-6-4.3c-0.4,0.6-0.7,1.2-1,1.7c2,1.5,4,2.9,6,4.4
				C545.7,473.1,546.1,472.5,546.4,471.9z"/>
		</g>
		<g class="st9">
			<path class="st6" d="M597.8,511.8c2,1.5,4,2.9,6,4.4c0.4-0.5,0.9-1,1.3-1.6c-2-1.4-4-2.9-6-4.3
				C598.7,510.8,598.3,511.3,597.8,511.8z"/>
		</g>
		<g>
			<path class="st6" d="M603.9,502.3c2.4,0.7,4.8,1.4,7.1,2c0.3-0.6,0.5-1.3,0.7-1.9c-2.4-0.7-4.7-1.4-7.1-2
				C604.5,501.1,604.2,501.7,603.9,502.3z"/>
		</g>
		<g class="st9">
			<path class="st6" d="M542.1,482.5c-2.4-0.7-4.7-1.4-7.1-2c-0.2,0.7-0.3,1.3-0.4,2c2.4,0.7,4.8,1.4,7.1,2
				C541.8,483.8,541.9,483.2,542.1,482.5z"/>
		</g>
		<g>
			<path class="st6" d="M541.3,493.5c-2.5,0.2-5,0.3-7.4,0.5c0.1,0.7,0.1,1.4,0.2,2c2.5-0.2,5-0.3,7.5-0.5
				C541.5,494.9,541.4,494.2,541.3,493.5z"/>
		</g>
		<g class="st9">
			<path class="st6" d="M606.8,491c2.5-0.2,5-0.3,7.5-0.5c0-0.7,0.1-1.4,0.1-2c-2.5,0.2-5,0.3-7.4,0.5
				C606.9,489.6,606.8,490.3,606.8,491z"/>
		</g>
		<g>
			<path class="st6" d="M604.9,476.9c0.2,0.6,0.4,1.3,0.6,1.9c2.3-1,4.6-2.1,6.9-3.1c-0.2-0.7-0.4-1.3-0.7-1.9
				c-1.6,0.7-3.1,1.4-4.7,2.1C606.4,476.3,605.7,476.6,604.9,476.9z"/>
		</g>
		<g class="st9">
			<path class="st6" d="M598.5,466.1c0.5,0.5,0.9,1,1.3,1.6c1.8-1.8,3.7-3.5,5.5-5.3c-0.4-0.5-0.9-1-1.3-1.5c-1.5,1.5-3.1,3-4.6,4.5
				C599.1,465.6,598.8,465.8,598.5,466.1z"/>
		</g>
	</g>
</g>
<g>
	<path class="st10" d="M445.4,187.7c-1.8,0-3.6-0.7-5-2.1c-2.8-2.8-2.8-7.3,0-10l19.2-19.4c1.3-1.3,3.1-2.2,5-2.2h0.2
		c1.9,0,3.7,0.9,5,2.2l19.2,19.3c2.8,2.8,2.8,7.3,0,10.1c-2.8,2.8-7.3,2.8-10,0l-14.3-14.3l-14.3,14.3
		C449.1,187,447.3,187.7,445.4,187.7z"/>
</g>
<g>
	<path class="st10" d="M465,164.2c-3.9,0-7,3.2-7,7.1v170.5c0,19.7-7.7,38.3-21.7,52.3L374.4,456c-0.6,8.2-2,16.3-4.3,24.3
		l76.1-76.2c16.6-16.6,25.7-38.8,25.7-62.3V171.3C472,167.4,468.9,164.2,465,164.2z"/>
	<path class="st10" d="M330,374.3L330,374.3c-40.5-40.5-106.3-40.5-146.8,0c-40.5,40.5-40.5,106.3,0,146.8
		c20.2,20.2,46.8,30.4,73.4,30.4c0.8,0,1.5,0,2.3,0l16-16c-28.6,5.9-59.6-2.2-81.7-24.3c-35-35-35-91.8,0-126.8
		c17.5-17.5,40.4-26.2,63.4-26.2s45.9,8.7,63.4,26.2c32.2,32.2,34.7,82.9,7.7,118c-0.3,0.5-0.7,1-1.1,1.5l-0.2,0.2
		c-0.1,0.1-0.2,0.3-0.3,0.4l-5.9,5.9c-0.2,0.2-0.4,0.3-0.6,0.5L194.2,636.1c-2.8,2.8-2.8,7.3,0,10c1.4,1.4,3.2,2.1,5,2.1
		c1.8,0,3.6-0.7,5-2.1l118.2-118.2c2.6-2.1,5.1-4.4,7.5-6.8c2.3-2.3,4.5-4.7,6.5-7.1l1.7-1.7c9.4-11.9,15.9-25.4,19.4-39.4l-0.3,0.3
		C365.8,438.9,356.7,401.1,330,374.3z"/>
</g>
<g>
	<path class="st10" d="M694.7,520.9c1.4,1.4,3.2,2.1,5,2.1c1.8,0,3.6-0.7,5-2.1c2.8-2.8,2.8-7.3,0-10l-37.9-37.9
		c3.5,14.1,10,27.5,19.4,39.4L694.7,520.9z"/>
	<path class="st10" d="M649.8,456l-62-61.9c-14-14-21.8-32.5-21.8-52.3V171.3c0-3.9-3.1-7.1-7-7.1s-7,3.2-7,7.1v170.5
		c0,23.5,9.2,45.6,25.8,62.3l76.2,76.2C651.8,472.3,650.4,464.1,649.8,456z"/>
</g>
<g>
	<path class="st10" d="M578.8,187.7c-1.8,0-3.6-0.7-5-2.1l-14.3-14.3l-14.3,14.3c-2.8,2.8-7.3,2.8-10,0c-2.8-2.8-2.8-7.3,0-10
		l19.2-19.4c1.3-1.3,3.1-2.2,5-2.2h0.2c1.9,0,3.7,0.9,5,2.2l19.2,19.3c2.8,2.8,2.8,7.3,0,10.1C582.4,187,580.6,187.7,578.8,187.7z"
		/>
</g>
<path class="st10" d="M841.1,374.3c-40.5-40.5-106.3-40.5-146.8,0c0,0,0,0,0,0c-40.5,40.5-40.5,106.3,0,146.8
	c13.7,13.7,30.4,22.8,48,27.2l-30.9-30.9c-2.4-2-4.8-4.1-7-6.3c-2.3-2.3-4.4-4.6-6.3-7l-0.2-0.2c-0.5-0.5-0.8-1-1.1-1.5
	c-27-35.1-24.5-85.9,7.7-118h0c35-35,91.8-35,126.8,0c35,35,35,91.8,0,126.8c-22.2,22.2-53.1,30.3-81.7,24.3l16,16
	c0.8,0,1.5,0,2.3,0c26.6,0,53.2-10.1,73.4-30.4C881.6,480.6,881.6,414.8,841.1,374.3z"/>
<g>
	<path class="st10" d="M825,648.2c-1.8,0-3.6-0.7-5-2.1L694.7,520.9c-2.8-2.8-2.8-7.3,0-10c2.8-2.8,7.3-2.8,10,0L830,636.1
		c2.8,2.8,2.8,7.3,0,10C828.6,647.5,826.8,648.2,825,648.2z"/>
</g>
<g>
	<path class="st10" d="M530.2,145.1c-1.8,0-3.6-0.7-5-2.1l-14.4-14.3L496.6,143c-2.8,2.8-7.3,2.7-10,0c-2.8-2.8-2.7-7.3,0-10
		l19.2-19c1.3-1.3,3.1-2,5-2h0.2c1.9,0,3.7,0.6,5,2l19.2,19.1c2.8,2.8,2.8,7.2,0,10C533.9,144.5,532.1,145.1,530.2,145.1z"/>
</g>
<g>
	<path class="st10" d="M519,128.8c0-3.9-3.6-7.1-7.5-7.1c-3.9,0-7.5,3.2-7.5,7.1v471.4c4-7.3,8-14.1,15-20.4V128.8z"/>
	<path class="st10" d="M608.1,553.2c-38,0-71.1,20.6-89.1,51.2V604c-9,13-14,27.8-15,43.6v3.2c0,2.1,0.2,4.2,0.2,6.3
		c0,19.2,4.8,37.2,14.8,52.6v-46.8c0-1.3-0.1-2.7-0.2-4c0.1-0.5,0.2-1,0.2-1.5v-6.3v-3.7c0-1.1-0.1-2.1,0.3-3
		c6.1-43.5,43.4-77.1,88.6-77.1c49.4,0,89.6,40.2,89.6,89.7s-40.5,89.7-89.9,89.7c-31.5,0-59.5-16.4-75.5-41v22.8
		c19,19.9,45.9,32.4,75.5,32.4c57.2,0,104.1-46.6,104.1-103.8C711.6,599.8,665.3,553.2,608.1,553.2z"/>
</g>
<g>
	<path class="st10" d="M511.5,841.7c-3.9,0-7.5-3.2-7.5-7.1V657.5c0-3.9,3.6-7.1,7.5-7.1c3.9,0,7.5,3.2,7.5,7.1v177.2
		C519,838.5,515.4,841.7,511.5,841.7z"/>
</g>
<g>
	<g>
		<g>
			<path class="st7" d="M299.6,788.4c-3.9,0-7.7-2-10-5.2c-2.3-3.3-2.9-7.4-1.5-11.1l28.5-88.2l0-0.1c0.8-2,1-4.2,0.6-6.3l0-0.1
				l-4.9-43.9l-1.1,0.2c-0.4,0.1-0.7,0.1-1.1,0.1c-2.9,0-5.4-2.1-5.9-4.9c-0.6-3.3,1.5-6.4,4.8-7l0.1,0l7.8-0.7
				c12.6-1.1,25.1-3.4,37.3-7l7.6-2.2l0.1,0c0.4-0.1,0.7-0.1,1.1-0.1c2.9,0,5.4,2.1,5.9,4.9c0.6,3.3-1.5,6.4-4.8,7l-1.1,0.2
				l11.2,42.7l0,0.1c0.4,2.1,1.4,4.1,2.9,5.7l0.1,0.1l58.5,72c2.9,3.3,3.7,7.8,2.3,12c-1.5,4.2-4.9,7.2-9.3,8l-126.7,23.6
				C301.1,788.3,300.4,788.4,299.6,788.4C299.6,788.4,299.6,788.4,299.6,788.4z"/>
		</g>
		<g>
			<path class="st11" d="M363,614.1c1.8,0,3.5,1.3,3.8,3.2c0.4,2.1-1,4.1-3.1,4.5l-3.4,0.6l11.8,44.9c0.5,2.5,1.6,4.8,3.4,6.7
				l58.4,71.9c5.1,5.9,1.9,15.1-5.8,16.5l-126.7,23.6c-0.6,0.1-1.3,0.2-1.9,0.2c-6.8,0-11.9-6.8-9.4-13.5l28.5-88.2
				c1-2.4,1.2-5,0.7-7.5l-5.2-46.1l-3.4,0.6c-0.2,0-0.5,0.1-0.7,0.1c-1.8,0-3.5-1.3-3.8-3.2c-0.4-2.1,1-4.1,3.1-4.5l7.7-0.7
				c12.8-1.1,25.4-3.5,37.7-7l7.5-2.2C362.5,614.1,362.8,614.1,363,614.1 M363,609.8c-0.5,0-1,0-1.5,0.1l-0.2,0l-0.2,0.1l-7.5,2.2
				c-12,3.5-24.4,5.8-36.9,6.9l-7.7,0.7l-0.2,0l-0.2,0c-4.4,0.8-7.3,5.1-6.5,9.5c0.7,3.8,4.1,6.6,8,6.6c0.1,0,0.2,0,0.4,0l4.7,41.7
				l0,0.2l0,0.2c0.3,1.7,0.1,3.5-0.5,5.1l-0.1,0.1l0,0.1l-28.5,88.1c-1.6,4.4-0.9,9.2,1.8,13c2.7,3.8,7.1,6.1,11.7,6.1
				c0.9,0,1.8-0.1,2.7-0.3L429,766.6c5.1-1,9.2-4.5,10.9-9.4c1.7-4.9,0.7-10.1-2.7-14.1l-58.4-71.9l-0.1-0.1l-0.1-0.1
				c-1.2-1.3-2-2.9-2.3-4.6l0-0.2l0-0.1l-10.7-40.5c1.7-0.6,3.1-1.6,4.1-3.1c1.2-1.8,1.7-4,1.3-6.1
				C370.3,612.6,366.9,609.8,363,609.8L363,609.8z"/>
		</g>
	</g>
	<g>
		<path class="st12" d="M305.2,775.1l115.6-21.6c2.5-0.5,3.6-3.4,2-5.4l-38.9-48c-30.1,14.9-46-0.1-63.3,11.8l-19.2,58.8
			C300.6,773.2,302.7,775.6,305.2,775.1z"/>
	</g>
	<g class="st9">
		<path class="st7" d="M336.4,740.5c-3.8,0-7.2-2.7-8-6.6c-0.4-2.1,0.1-4.3,1.3-6.1c1.2-1.8,3.1-3,5.2-3.4c2.1-0.4,4.3,0.1,6.1,1.3
			c1.8,1.2,3,3.1,3.4,5.2c0.4,2.1-0.1,4.3-1.3,6.1c-1.2,1.8-3.1,3-5.2,3.4C337.4,740.5,336.9,740.5,336.4,740.5z M336.4,727.8
			c-0.3,0-0.6,0-0.8,0.1c-1.2,0.2-2.2,0.9-2.9,1.9c-0.7,1-0.9,2.2-0.7,3.4c0.2,1.2,0.9,2.2,1.9,2.9c1,0.7,2.2,0.9,3.4,0.7
			c2.5-0.5,4.1-2.9,3.7-5.3C340.5,729.4,338.6,727.8,336.4,727.8z"/>
	</g>
	<g class="st9">
		<circle class="st7" cx="363.2" cy="724.9" r="2.4"/>
	</g>
	<g class="st9">
		<circle class="st7" cx="357.2" cy="747" r="5.1"/>
	</g>
	<g class="st9">
		<path class="st7" d="M383.6,742.2c-3.3,0-6.2-2.3-6.8-5.6c-0.7-3.7,1.8-7.4,5.5-8.1c3.7-0.7,7.4,1.8,8.1,5.5v0
			c0.7,3.7-1.8,7.4-5.5,8.1C384.5,742.1,384.1,742.2,383.6,742.2z M383.6,731.9c-0.2,0-0.4,0-0.6,0.1c-1.8,0.3-3,2.1-2.7,3.9
			c0.3,1.8,2.1,3,3.9,2.7c1.8-0.3,3-2.1,2.7-3.9C386.6,733,385.2,731.9,383.6,731.9z"/>
	</g>
	<g>
		<g>
			<path class="st12" d="M338.5,674.4c1.1,0,2.2,0.8,2.4,2c0.2,1.3-0.6,2.6-1.9,2.8c-0.2,0-0.3,0-0.4,0c-1.1,0-2.2-0.8-2.4-2
				c-0.2-1.3,0.6-2.6,1.9-2.8C338.2,674.4,338.4,674.4,338.5,674.4 M338.5,670.9c-0.4,0-0.7,0-1.1,0.1c-1.6,0.3-2.9,1.2-3.8,2.5
				c-0.9,1.3-1.2,2.9-0.9,4.5c0.5,2.8,3,4.9,5.9,4.9c0.4,0,0.7,0,1.1-0.1c1.6-0.3,2.9-1.2,3.8-2.5c0.9-1.3,1.2-2.9,0.9-4.5
				C343.9,672.9,341.4,670.9,338.5,670.9L338.5,670.9z"/>
		</g>
	</g>
	<g>
		<circle class="st12" cx="360.7" cy="695.2" r="3.5"/>
	</g>
	<g>
		<circle class="st12" cx="345.2" cy="651.5" r="5.5"/>
	</g>
	<g>
		<circle class="st12" cx="352.8" cy="581.6" r="2.4"/>
	</g>
	<g>
		<circle class="st12" cx="307.1" cy="576.9" r="5.5"/>
	</g>
	<g>
		<path class="st12" d="M330,606.9c-1.4,0-2.7-0.4-3.9-1.2c-1.5-1-2.5-2.6-2.9-4.4c-0.3-1.8,0-3.7,1.1-5.2c1-1.5,2.6-2.5,4.4-2.9
			c3.7-0.7,7.4,1.8,8.1,5.5c0.7,3.7-1.8,7.4-5.5,8.1C330.8,606.9,330.4,606.9,330,606.9z M330,596.6c-0.2,0-0.4,0-0.6,0.1
			c-0.9,0.2-1.7,0.7-2.2,1.4c-0.5,0.7-0.7,1.6-0.5,2.5v0c0.2,0.9,0.7,1.7,1.4,2.2c0.7,0.5,1.6,0.7,2.5,0.5c1.8-0.3,3-2.1,2.7-3.9
			C333,597.8,331.6,596.6,330,596.6z"/>
	</g>
	<g>
		<path class="st13" d="M421,746c-0.4,0.3-0.9,0.6-1.5,0.7l-115.6,21.6c-0.6,0.1-1.2,0.1-1.7-0.1l-0.9,2.7c-0.8,2.4,1.3,4.8,3.8,4.3
			l115.6-21.6c2.5-0.5,3.6-3.4,2-5.4L421,746z"/>
	</g>
	<g>
		<path class="st11" d="M320.8,634.8c-1.1,0-2-0.8-2.1-1.9c-0.1-1.2,0.8-2.2,1.9-2.3c11.6-1,22.7-3.1,33.8-6.3
			c1.1-0.3,2.3,0.3,2.6,1.5c0.3,1.1-0.3,2.3-1.5,2.6c-11.4,3.3-22.7,5.4-34.6,6.5C321,634.8,320.9,634.8,320.8,634.8z"/>
	</g>
</g>
<g>
	<g>
		<g>
			<path class="st7" d="M700.1,703.6c-3.2-2.2-5.2-6-5.2-10c0-4,1.8-7.7,5.1-10l73.6-56.3l0.1,0c1.8-1.2,3.2-2.9,4.1-4.8l0-0.1
				l20.9-38.9l-1.1-0.5c-0.3-0.2-0.7-0.3-1-0.5c-2.4-1.6-3.2-4.8-2.1-7.4c1.4-3,4.9-4.4,7.9-3l0.1,0l6.8,3.9
				c11,6.3,22.6,11.5,34.6,15.5l7.5,2.5l0.1,0c0.3,0.2,0.7,0.3,1,0.5c2.4,1.6,3.2,4.8,2.1,7.4c-1.4,3-4.9,4.4-7.9,3l-1.1-0.5
				L830.6,646l0,0.1c-0.9,2-1.2,4.1-0.9,6.3l0,0.1l7.1,92.5c0.5,4.3-1.4,8.5-5,11.1c-3.6,2.6-8.1,3.1-12.2,1.3l-117.6-52.6
				C701.4,704.4,700.7,704,700.1,703.6C700.1,703.6,700.1,703.6,700.1,703.6z"/>
		</g>
		<g>
			<path class="st11" d="M851.4,596.3c1.5,1,2.1,3,1.3,4.8c-0.9,2-3.2,2.8-5.1,2l-3.1-1.4l-15.8,43.6c-1,2.3-1.4,4.9-1,7.5l7.1,92.4
				c0.9,7.7-7,13.5-14.1,10.3L703,702.8c-0.6-0.3-1.2-0.6-1.7-0.9c-5.6-3.8-5.9-12.3-0.1-16.5l73.6-56.3c2.1-1.4,3.8-3.4,4.9-5.7
				l22-40.9l-3.1-1.4c-0.2-0.1-0.4-0.2-0.6-0.4c-1.5-1-2.1-3-1.3-4.8c0.9-2,3.2-2.8,5.1-2l6.7,3.8c11.1,6.3,22.8,11.6,35,15.6
				l7.4,2.5C851,596,851.2,596.2,851.4,596.3 M853.9,592.8c-0.4-0.3-0.9-0.5-1.3-0.7l-0.2-0.1l-0.2-0.1l-7.4-2.5
				c-11.8-4-23.4-9.1-34.2-15.3l-6.7-3.8l-0.2-0.1l-0.2-0.1c-4.1-1.8-8.9,0-10.7,4.1c-1.6,3.6-0.4,7.8,2.8,10
				c0.1,0.1,0.2,0.1,0.3,0.2L776,621.3l-0.1,0.1l-0.1,0.1c-0.7,1.6-1.9,3-3.3,3.9l-0.1,0.1l-0.1,0.1L698.7,682
				c-3.8,2.8-6,7-5.9,11.7c0,4.7,2.3,9,6.1,11.7c0.7,0.5,1.5,1,2.4,1.3l117.6,52.6c4.8,2.1,10.1,1.6,14.3-1.5
				c4.2-3.1,6.4-7.9,5.8-13.1l-7.1-92.3l0-0.1l0-0.1c-0.3-1.7,0-3.5,0.7-5.1l0.1-0.1l0.1-0.1l14.3-39.4c1.7,0.5,3.5,0.4,5.2-0.2
				c2-0.8,3.6-2.3,4.5-4.3C858.3,599.2,857.1,595,853.9,592.8L853.9,592.8z"/>
		</g>
	</g>
	<g>
		<path class="st10" d="M712.3,695.9l107.3,48c2.3,1,4.9-0.8,4.7-3.3l-4.7-61.6c-33.2-4.9-37.7-26.3-58.8-26.3l-49.3,37.5
			C709.6,691.7,709.9,694.8,712.3,695.9z"/>
	</g>
	<g class="st9">
		<path class="st7" d="M757.6,685.2c-3.1-2.2-4.4-6.4-2.8-10c0.9-2,2.5-3.5,4.5-4.3s4.2-0.7,6.2,0.2c2,0.9,3.5,2.5,4.3,4.5
			c0.8,2,0.7,4.2-0.2,6.2c-0.9,2-2.5,3.5-4.5,4.3s-4.2,0.7-6.2-0.2C758.5,685.7,758,685.5,757.6,685.2z M764.9,674.7
			c-0.2-0.2-0.5-0.3-0.7-0.4c-1.1-0.5-2.4-0.5-3.5-0.1c-1.1,0.4-2,1.3-2.5,2.4c-0.5,1.1-0.5,2.4-0.1,3.5c0.4,1.1,1.3,2,2.4,2.5
			c2.3,1,5,0,6-2.3C767.3,678.3,766.6,676,764.9,674.7z"/>
	</g>
	<g class="st9">
		<circle class="st7" cx="788.6" cy="687.6" r="2.4"/>
	</g>
	<g class="st9">
		<circle class="st7" cx="771" cy="702.3" r="5.1"/>
	</g>
	<g class="st9">
		<path class="st7" d="M795.5,713.4c-2.7-1.9-3.8-5.4-2.4-8.5c1.6-3.5,5.7-5,9.1-3.5c3.5,1.6,5,5.7,3.5,9.1l0,0
			c-1.6,3.5-5.7,5-9.1,3.5C796.2,713.8,795.8,713.6,795.5,713.4z M801.4,704.9c-0.2-0.1-0.3-0.2-0.5-0.3c-1.7-0.8-3.7,0-4.4,1.7
			c-0.8,1.7,0,3.7,1.7,4.4c1.7,0.8,3.7,0,4.4-1.7C803.2,707.6,802.7,705.8,801.4,704.9z"/>
	</g>
	<g>
		<g>
			<path class="st10" d="M797,632c0.9,0.7,1.3,1.9,0.8,3c-0.5,1.2-2,1.8-3.2,1.2c-0.1-0.1-0.3-0.1-0.4-0.2c-0.9-0.7-1.3-1.9-0.8-3
				c0.5-1.2,2-1.8,3.2-1.2C796.7,631.9,796.8,631.9,797,632 M799,629.1c-0.3-0.2-0.6-0.4-1-0.5c-1.5-0.7-3.1-0.7-4.6-0.1
				c-1.5,0.6-2.7,1.7-3.3,3.1c-1.2,2.6-0.3,5.7,2.1,7.4c0.3,0.2,0.6,0.4,1,0.5c1.5,0.7,3.1,0.7,4.6,0.1c1.5-0.6,2.7-1.7,3.3-3.1
				C802.2,633.8,801.3,630.7,799,629.1L799,629.1z"/>
		</g>
	</g>
	<g>
		<circle class="st10" cx="803.3" cy="661.7" r="3.5"/>
	</g>
	<g>
		<circle class="st10" cx="815.5" cy="616.9" r="5.5"/>
	</g>
	<g>
		<circle class="st10" cx="861.5" cy="563.8" r="2.4"/>
	</g>
	<g>
		<circle class="st10" cx="826.6" cy="533.9" r="5.5"/>
	</g>
	<g>
		<path class="st10" d="M828.3,571.6c-1.1-0.8-2-1.9-2.5-3.2c-0.7-1.7-0.6-3.6,0.1-5.3c0.8-1.7,2.1-3,3.8-3.6
			c1.7-0.7,3.6-0.6,5.3,0.1c3.5,1.6,5,5.7,3.5,9.1c-1.6,3.5-5.7,5-9.1,3.5C829,572.1,828.7,571.8,828.3,571.6z M834.2,563.2
			c-0.2-0.1-0.3-0.2-0.5-0.3c-0.8-0.4-1.7-0.4-2.6-0.1c-0.8,0.3-1.5,0.9-1.9,1.8l0,0c-0.4,0.8-0.4,1.7-0.1,2.6
			c0.3,0.8,0.9,1.5,1.8,1.9c1.7,0.8,3.7,0,4.4-1.7C836,565.8,835.5,564.1,834.2,563.2z"/>
	</g>
	<g>
		<path class="st14" d="M824.1,737.8c-0.5,0-1.1,0-1.6-0.3l-107.3-48c-0.5-0.2-1-0.6-1.3-1l-2.2,1.7c-2,1.5-1.7,4.7,0.7,5.7
			l107.3,48c2.3,1,4.9-0.8,4.7-3.3L824.1,737.8z"/>
	</g>
	<g>
		<path class="st11" d="M805,589.3c-0.9-0.6-1.2-1.8-0.6-2.8c0.6-1,1.9-1.4,2.9-0.8c10.2,5.8,20.4,10.3,31.4,14
			c1.1,0.4,1.7,1.6,1.3,2.7c-0.4,1.1-1.6,1.7-2.7,1.3c-11.2-3.8-21.7-8.5-32.1-14.4C805.1,589.4,805,589.4,805,589.3z"/>
	</g>
</g>
<g>
	<g>
		<g>
			<path class="st7" d="M443.7,496.4c-1.8,0.1-3.5-0.7-4.6-2.2c-1.1-1.4-1.5-3.3-0.9-5l11.1-40.7l0,0c0.3-0.9,0.4-1.9,0.1-2.9l0,0
				l-3.2-19.9l-0.5,0.1c-0.2,0-0.3,0.1-0.5,0.1c-1.3,0.1-2.5-0.8-2.8-2.1c-0.3-1.5,0.6-2.9,2-3.3l0,0l3.5-0.5
				c5.7-0.8,11.3-2.1,16.8-4l3.4-1.2l0,0c0.2,0,0.3-0.1,0.5-0.1c1.3-0.1,2.5,0.8,2.8,2.1c0.3,1.5-0.6,2.9-2,3.3l-0.5,0.1l6,19.2l0,0
				c0.2,1,0.7,1.8,1.4,2.5l0,0l28.1,31.5c1.4,1.4,1.9,3.5,1.3,5.4c-0.6,1.9-2.1,3.4-4.1,3.8l-57.1,13.5
				C444.4,496.4,444.1,496.4,443.7,496.4C443.7,496.4,443.7,496.4,443.7,496.4z"/>
		</g>
		<g>
			<path class="st11" d="M468.8,415.8c0.8,0,1.6,0.5,1.8,1.4c0.2,0.9-0.4,1.9-1.3,2.1l-1.5,0.4l6.3,20.1c0.3,1.1,0.9,2.2,1.7,3
				l28.1,31.4c2.5,2.6,1.2,6.8-2.3,7.6l-57.1,13.5c-0.3,0.1-0.6,0.1-0.9,0.1c-3.1,0.1-5.5-2.8-4.6-5.9l11.1-40.7
				c0.4-1.1,0.4-2.3,0.2-3.4l-3.4-20.9l-1.5,0.4c-0.1,0-0.2,0-0.3,0c-0.8,0-1.6-0.5-1.8-1.4c-0.2-0.9,0.4-1.9,1.3-2.1l3.5-0.5
				c5.8-0.8,11.5-2.1,17-4l3.3-1.1C468.6,415.8,468.7,415.8,468.8,415.8 M468.7,413.9c-0.2,0-0.5,0-0.7,0.1l-0.1,0l-0.1,0l-3.3,1.1
				c-5.4,1.8-11,3.2-16.6,3.9l-3.5,0.5l-0.1,0l-0.1,0c-2,0.5-3.2,2.5-2.8,4.5c0.4,1.7,2,2.9,3.8,2.8c0.1,0,0.1,0,0.2,0l3,18.8l0,0.1
				l0,0.1c0.2,0.8,0.1,1.6-0.1,2.3l0,0.1l0,0.1L437.2,489c-0.6,2-0.2,4.2,1.1,5.9c1.3,1.7,3.3,2.6,5.4,2.5c0.4,0,0.8-0.1,1.2-0.2
				l57.1-13.5c2.3-0.5,4.1-2.2,4.8-4.5c0.7-2.3,0.1-4.6-1.5-6.3l-28.1-31.4l0-0.1l0,0c-0.6-0.6-1-1.3-1.2-2l0-0.1l0-0.1l-5.7-18.2
				c0.7-0.3,1.4-0.8,1.8-1.5c0.5-0.8,0.7-1.8,0.5-2.8C472,415,470.5,413.8,468.7,413.9L468.7,413.9z"/>
		</g>
	</g>
	<g>
		<path class="st15" d="M446,490.3L498,478c1.1-0.3,1.6-1.6,0.8-2.5l-18.7-21c-13.4,7.4-20.9,0.9-28.5,6.7l-7.5,27.2
			C443.8,489.5,444.8,490.5,446,490.3z"/>
	</g>
	<g class="st9">
		<path class="st7" d="M459.4,473.9c-1.7,0.1-3.4-1.1-3.8-2.8c-0.2-1-0.1-2,0.5-2.8c0.5-0.8,1.3-1.4,2.3-1.7c1-0.2,1.9-0.1,2.8,0.5
			c0.8,0.5,1.4,1.3,1.7,2.3c0.2,1,0.1,2-0.5,2.8c-0.5,0.8-1.3,1.4-2.3,1.7C459.9,473.8,459.6,473.9,459.4,473.9z M459.1,468.1
			c-0.1,0-0.3,0-0.4,0.1c-0.5,0.1-1,0.5-1.3,0.9c-0.3,0.5-0.4,1-0.3,1.6c0.1,0.5,0.5,1,0.9,1.3c0.5,0.3,1,0.4,1.6,0.3
			c1.1-0.3,1.8-1.4,1.5-2.5C461,468.7,460.1,468.1,459.1,468.1z"/>
	</g>
	<g class="st9">
		<circle class="st7" cx="471.3" cy="466.2" r="1.1"/>
	</g>
	<g class="st9">
		<circle class="st7" cx="469" cy="476.4" r="2.3"/>
	</g>
	<g class="st9">
		<path class="st7" d="M480.9,473.6c-1.5,0.1-2.9-0.9-3.2-2.4c-0.4-1.7,0.6-3.4,2.3-3.8c1.7-0.4,3.4,0.7,3.8,2.3v0
			c0.4,1.7-0.7,3.4-2.3,3.8C481.3,473.6,481.1,473.6,480.9,473.6z M480.7,468.9c-0.1,0-0.2,0-0.3,0c-0.8,0.2-1.3,1-1.1,1.8
			c0.2,0.8,1,1.3,1.8,1.1c0.8-0.2,1.3-1,1.1-1.8C482.1,469.4,481.4,468.9,480.7,468.9z"/>
	</g>
	<g>
		<g>
			<path class="st15" d="M458.9,443.8c0.5,0,1,0.3,1.1,0.9c0.1,0.6-0.2,1.2-0.8,1.3c-0.1,0-0.1,0-0.2,0c-0.5,0-1-0.3-1.1-0.9
				c-0.1-0.6,0.2-1.2,0.8-1.3C458.8,443.8,458.9,443.8,458.9,443.8 M458.9,442.2c-0.2,0-0.3,0-0.5,0.1c-0.7,0.2-1.3,0.6-1.7,1.2
				c-0.4,0.6-0.5,1.3-0.3,2.1c0.3,1.3,1.5,2.2,2.8,2.1c0.2,0,0.3,0,0.5-0.1c0.7-0.2,1.3-0.6,1.7-1.2s0.5-1.3,0.3-2.1
				C461.3,443,460.2,442.1,458.9,442.2L458.9,442.2z"/>
		</g>
	</g>
	<g>
		<circle class="st15" cx="469.4" cy="452.8" r="1.6"/>
	</g>
	<g>
		<circle class="st15" cx="461.5" cy="433.2" r="2.5"/>
	</g>
	<g>
		<circle class="st15" cx="463.4" cy="401.3" r="1.1"/>
	</g>
	<g>
		<circle class="st10" cx="442.5" cy="400.1" r="2.5"/>
	</g>
	<g>
		<path class="st15" d="M453.6,413.3c-0.6,0-1.2-0.1-1.8-0.5c-0.7-0.4-1.2-1.1-1.4-2c-0.2-0.8-0.1-1.7,0.4-2.4
			c0.4-0.7,1.1-1.2,2-1.4c1.7-0.4,3.4,0.7,3.8,2.3c0.4,1.7-0.6,3.4-2.3,3.8C454,413.2,453.8,413.3,453.6,413.3z M453.4,408.6
			c-0.1,0-0.2,0-0.3,0c-0.4,0.1-0.7,0.3-1,0.7c-0.2,0.3-0.3,0.8-0.2,1.2l0,0c0.1,0.4,0.3,0.7,0.7,1c0.3,0.2,0.8,0.3,1.2,0.2
			c0.8-0.2,1.3-1,1.1-1.8C454.8,409.1,454.1,408.6,453.4,408.6z"/>
	</g>
	<g>
		<path class="st16" d="M498,474.5c-0.2,0.2-0.4,0.3-0.7,0.4l-52.1,12.3c-0.3,0.1-0.5,0-0.8,0l-0.3,1.2c-0.3,1.1,0.7,2.2,1.8,1.9
			L498,478c1.1-0.3,1.6-1.6,0.8-2.5L498,474.5z"/>
	</g>
	<g>
		<path class="st11" d="M450,426.1c-0.5,0-0.9-0.3-1-0.8c-0.1-0.5,0.3-1,0.8-1.1c5.3-0.7,10.2-1.9,15.2-3.6c0.5-0.2,1.1,0.1,1.2,0.6
			c0.2,0.5-0.1,1.1-0.6,1.2C460.6,424.2,455.5,425.4,450,426.1C450.1,426.1,450.1,426.1,450,426.1z"/>
	</g>
</g>
</svg>
