<?xml version="1.0" encoding="utf-8"?>
<!-- Generator: Adobe Illustrator 19.2.1, SVG Export Plug-In . SVG Version: 6.00 Build 0)  -->
<svg version="1.1" id="Layer_3" xmlns="http://www.w3.org/2000/svg" xmlns:xlink="http://www.w3.org/1999/xlink" x="0px" y="0px"
	 viewBox="0 0 303.8 303.8" style="enable-background:new 0 0 303.8 303.8;" xml:space="preserve">
<style type="text/css">
	.st0{fill:#9B5CA2;stroke:#75457B;stroke-width:10;stroke-miterlimit:10;}
	.st1{fill:#434955;}
	.st2{fill:#EAEAEA;}
	.st3{fill:#C4C4C4;}
	.st4{fill:#828282;}
	.st5{fill:#13A1DC;}
	.st6{fill:#FFFFFF;}
	.st7{fill:#FFD900;stroke:#F0C400;stroke-width:2;stroke-miterlimit:10;}
	.st8{opacity:0.3;}
	.st9{fill:#000100;}
	.st10{opacity:0.1;enable-background:new    ;}
	.st11{fill:#FFD900;}
	.st12{opacity:0.1;}
	.st13{fill:#A4C851;}
</style>
<title>vert-transport-rail-service-b</title>
<circle class="st0" cx="151.9" cy="151.9" r="146.9"/>
<g>
	<path class="st1" d="M237.4,236.8l-34.9-34.9c-2.4-2.4-6.3-2.3-8.7,0.1c-2.3,2.4-2.3,6.2,0,8.6l12,12H99.9l12-12
		c2.4-2.4,2.3-6.3-0.1-8.7c-2.4-2.3-6.2-2.3-8.6,0l-34.8,34.9c-2.5,2.3-2.6,6.2-0.3,8.7c2.3,2.5,6.2,2.6,8.7,0.3
		c0.1-0.1,0.2-0.2,0.3-0.3L87.6,235h130.6l10.5,10.5c2.6,2.2,6.5,1.9,8.7-0.7C239.4,242.5,239.3,239.1,237.4,236.8z"/>
	<g>
		<path class="st2" d="M94.4,207.8c-5.4,0-9.8-4.4-9.8-9.8l3-135.6c0-5.4,4.4-9.9,9.8-9.9l0,0h111c5.4,0,9.8,4.4,9.8,9.8l3,135.7
			c0,5.4-4.4,9.8-9.8,9.8H94.4z"/>
		<path class="st3" d="M208.4,55c4,0,7.3,3.3,7.3,7.3v0.1l3,135.6c0,4-3.3,7.3-7.3,7.3h-117c-4,0-7.3-3.3-7.3-7.3l3-135.6v-0.1
			c0-4,3.3-7.3,7.3-7.3L208.4,55 M208.4,50h-111C90.6,50,85,55.5,85,62.3c0,0,0,0,0,0L82,198c0,6.8,5.5,12.3,12.3,12.3c0,0,0,0,0,0
			h117c6.8,0,12.3-5.5,12.3-12.3l-3-135.7C220.7,55.5,215.2,50,208.4,50C208.4,50,208.4,50,208.4,50L208.4,50L208.4,50z"/>
	</g>
	<polygon class="st4" points="207.4,143.6 98.4,143.6 99.4,86.9 206.4,86.9 	"/>
	<path class="st5" d="M171.4,68.4c0,3.4-2.7,6.2-6.2,6.2c0,0,0,0,0,0h-24.7c-3.4,0-6.2-2.7-6.2-6.1c0,0,0,0,0,0l0,0
		c0-3.4,2.7-6.2,6.2-6.2c0,0,0,0,0,0h24.7C168.6,62.3,171.4,65,171.4,68.4C171.4,68.4,171.4,68.4,171.4,68.4L171.4,68.4z"/>
	<circle class="st6" cx="109.7" cy="173.3" r="12.3"/>
	<circle class="st7" cx="109.7" cy="173.3" r="6.2"/>
	<circle class="st6" cx="196" cy="173.3" r="12.3"/>
	<circle class="st7" cx="196" cy="173.3" r="6.2"/>
	<g class="st8">
		<path class="st9" d="M94.8,210.3l-6.2,6.2h17.4l5.8-5.9c0.1-0.1,0.1-0.2,0.2-0.3L94.8,210.3L94.8,210.3z"/>
		<path class="st9" d="M210.9,210.3h-17.4c0.1,0.1,0.1,0.2,0.2,0.3l5.9,5.9h17.4L210.9,210.3z"/>
	</g>
	<path class="st10" d="M171.4,68.4c0,3.4-2.8,6.2-6.2,6.2l0,0h-24.7c-3.4,0-6.2-2.8-6.2-6.2c0,0,0,0,0,0c0-0.2,0-0.4,0-0.5
		c0.3,3.1,2.9,4.5,6.1,4.5h24.7c3.2,0,5.8-1.4,6.1-4.5C171.3,68.1,171.3,68.3,171.4,68.4z"/>
	<polygon class="st5" points="207.4,142.6 99.4,142.6 100.4,86.9 206.4,86.9 	"/>
	<path class="st10" d="M149.8,198c1-1,4.6-4.6,5.5-5.7l6.1-6.8c27-32.3,31.9-59.3,37.2-92.7c1.6-10,3.2-29.9,2.9-40v-1.6
		c0.3-0.7,2.2-1.2,3-1.2c11.2-0.4,14.3,4.3,16,11.3c0,0.1,0,0.9,0,1l2.5,135.9c0.8,5.9-4.8,12.1-10.7,12.1h-78.8
		C142.2,204.8,145,202.9,149.8,198z"/>
</g>
<path class="st11" d="M205.6,138.8c-10.5-6.3-18.1-16.6-21.1-28.6c-6.2-25.4,10.1-51.1,36.4-57.5s52.6,9,58.8,34.3
	c6.1,25.4-10.1,51.1-36.4,57.5c-5.6,1.4-11.4,1.7-17.2,1.1l-30,28L205.6,138.8z"/>
<g id="_Group__1_" class="st12">
	<path id="_Compound_Path__1_" d="M225.7,121.6l-7.9,1.9l-6.7-28.6l7.9-1.9L225.7,121.6z M258.9,90.3c1.3,1.1,2.2,2.6,2.3,4.3
		l0.5,3.4c2.4,15.8,3,19.5-11.9,23c-6.7,1.5-9.4,0.5-11.8-0.3c-1.9-0.7-3.5-1.2-7.4-0.3l-1.8,0.4l-5.4-23.4c9-4.4,8.6-10,8.5-14.1
		c0-2.4-0.2-5.1,2.6-5.8c1-0.2,2,0.1,2.8,0.7c2.7,1.9,3.7,7.3,4.7,14.4l12.4-2.9C255.9,89.3,257.5,89.5,258.9,90.3L258.9,90.3z"/>
</g>
<g id="_Group_">
	<path id="_Compound_Path_" class="st6" d="M222.7,118.6l-7.9,1.9l-6.7-28.6l7.9-1.9L222.7,118.6z M255.9,87.3
		c1.3,1.1,2.2,2.6,2.3,4.3l0.5,3.4c2.4,15.8,3,19.5-11.9,23c-6.7,1.5-9.4,0.5-11.8-0.3c-1.9-0.7-3.5-1.2-7.4-0.3l-1.8,0.4l-5.4-23.4
		c9-4.4,8.6-10,8.5-14.1c0-2.4-0.2-5.1,2.6-5.8c1-0.2,2,0.1,2.8,0.7c2.7,1.9,3.7,7.3,4.7,14.4l12.4-2.9
		C252.9,86.3,254.5,86.5,255.9,87.3L255.9,87.3z"/>
</g>
<path class="st13" d="M226.8,163.3c2.5-7.6,7.9-13.9,15.1-17.6c15.2-7.6,34-1.1,41.9,14.7s2,34.7-13.2,42.4
	c-15.2,7.6-34,1.1-41.9-14.7c-1.7-3.4-2.8-7-3.2-10.8l-29.3-3.7L226.8,163.3z"/>
<g class="st12">
	<path d="M272.7,164.8h-9.3c0-2.3-1.9-4.2-4.2-4.2s-4.2,1.9-4.2,4.2h-9.3c-0.6,0-1,0.4-1,1v26c0,0.6,0.4,1,1,1h27c0.6,0,1-0.4,1-1
		v-26C273.6,165.3,273.2,164.8,272.7,164.8z M259.2,162.7c1.1,0,2.1,0.9,2.1,2.1s-0.9,2.1-2.1,2.1c-1.1,0-2.1-0.9-2.1-2.1
		c0,0,0,0,0,0C257.1,163.7,258,162.7,259.2,162.7L259.2,162.7z M270.6,189.8h-22.9v-21.9h3.2v2.1c0,0.6,0.4,1,1,1h14.5
		c0.6,0,1-0.4,1-1v-2.1h3.2L270.6,189.8L270.6,189.8z"/>
	<path d="M257.1,186.5l-6.7-7.7l1.9-1.9l4.8,3.7l8.9-7.9l1.9,1.9L257.1,186.5z"/>
</g>
<g>
	<path class="st6" d="M270.7,161.8h-9.3c0-2.3-1.9-4.2-4.2-4.2s-4.2,1.9-4.2,4.2h-9.3c-0.6,0-1,0.4-1,1v26c0,0.6,0.4,1,1,1h27
		c0.6,0,1-0.4,1-1v-26C271.6,162.3,271.2,161.8,270.7,161.8z M257.2,159.7c1.1,0,2.1,0.9,2.1,2.1s-0.9,2.1-2.1,2.1
		c-1.1,0-2.1-0.9-2.1-2.1c0,0,0,0,0,0C255.1,160.7,256,159.7,257.2,159.7L257.2,159.7z M268.6,186.8h-22.9v-21.9h3.2v2.1
		c0,0.6,0.4,1,1,1h14.5c0.6,0,1-0.4,1-1v-2.1h3.2L268.6,186.8L268.6,186.8z"/>
	<path class="st6" d="M255.1,183.5l-6.7-7.7l1.9-1.9l4.8,3.7l8.9-7.9l1.9,1.9L255.1,183.5z"/>
</g>
</svg>
