<?xml version="1.0" encoding="utf-8"?>
<!-- Generator: Adobe Illustrator 19.1.0, SVG Export Plug-In . SVG Version: 6.00 Build 0)  -->
<svg version="1.1" id="Layer_1" xmlns="http://www.w3.org/2000/svg" xmlns:xlink="http://www.w3.org/1999/xlink" x="0px" y="0px"
	 viewBox="0 0 800 800" style="enable-background:new 0 0 800 800;" xml:space="preserve">
<style type="text/css">
	.st0{fill:#B3B3B3;}
	.st1{fill:#CCCCCC;}
	.st2{fill:#999999;}
	.st3{fill:#461A00;}
	.st4{fill:#808080;}
	.st5{opacity:0.4;fill:#4D4D4D;enable-background:new    ;}
	.st6{opacity:0.2;enable-background:new    ;}
	.st7{fill:#666666;}
	.st8{opacity:0.3;fill:#FFFFFF;enable-background:new    ;}
	.st9{font-family:'MetaOT-Bold';}
	.st10{font-size:30px;}
	.st11{opacity:0.4;fill:#FFFFFF;enable-background:new    ;}
</style>
<g id="Now">
	<g>
		<path class="st0" d="M672.9,139.1c0,0-2.5,3.8-1.9,4.9c0.6,1.1-2.6,25-2.6,25h6.3c0,0,2.5-20.7,3.4-23.2s3.4-5.6,3.4-5.6
			L672.9,139.1z"/>
		<path class="st0" d="M737.1,139.1c0,0,2.5,3.8,1.9,4.9c-0.6,1.1,2.6,25,2.6,25h-6.3c0,0-2.5-20.7-3.4-23.2s-3.4-5.6-3.4-5.6
			L737.1,139.1z"/>
		<path class="st1" d="M698.3,103.8c0,0-13.6,3.8-16.2,5.8S670,135.2,670,138.4s9.3,5,11.3,5.3c1.9,0.3,4.7-7.6,4.7-7.6l0.7,32.9
			h36.8l-0.5-34.5c0,0,3.3,9.3,4.4,9.2c1-0.1,10.5-2.8,12.3-3.9c1.7-1-7.7-28.6-10.4-30.3s-18.5-5.9-21.6-5.7
			C704.7,104,698.3,103.8,698.3,103.8z"/>
		<g>
			<g>
				<g>
					<g>
						<path class="st2" d="M704.1,96.4c0,0,5.4-1.1,5.4,5.1c0,4.8,7.1,8.4-5.4,8.4"/>
					</g>
				</g>
				<g>
					<g>
						<path class="st2" d="M704.1,96.4c0,0-5.4-1.1-5.4,5.1c0,4.8-7.1,8.4,5.4,8.4"/>
					</g>
				</g>
			</g>
		</g>
		<g>
			<path class="st0" d="M703.6,101.2c-18.1,0-15.4-30.3-13.8-36.8c1.5-6,13.8-5.9,13.8-5.9s12.3-0.2,13.8,5.9
				C719,70.9,721.7,101.2,703.6,101.2z"/>
			<circle class="st3" cx="711" cy="73.7" r="1.3"/>
			<path class="st4" d="M721.1,73.9c0,3.8,0.2,6.8-2.5,6.8s-1.1-3.1-1.1-6.8c0-3.8,0.5-6.8,1.1-6.8
				C719.2,67.1,721.1,70.1,721.1,73.9z"/>
			<circle class="st3" cx="696.3" cy="73.7" r="1.3"/>
			<path class="st5" d="M700.3,80.8c0.1,3.1,1.4,6.8,3.4,6.8s3.2-3.6,3.4-6.8c0,0-1.3,2.5-3.4,2.5S700.3,80.8,700.3,80.8z"/>
			<path class="st4" d="M686.2,73.9c0,3.8-0.2,6.8,2.5,6.8s1.1-3.1,1.1-6.8c0-3.8-0.5-6.8-1.1-6.8C688.1,67.1,686.2,70.1,686.2,73.9
				z"/>
			<path class="st6" d="M690.3,68.4c0,0,4.2-2,7.3-1.4c3.1,0.7,6.8,1.1,9.4,1.4c2.7,0.2,4-1.5,4-1.5s3.7,5,5.3,5.5s0,0,0,0V57.3
				l-26.2,6L690.3,68.4z"/>
			<path class="st7" d="M688.5,68c1.4-0.9,0.4,2.9,1.8,4.4s2.1-5.4,2.6-7.2c0.5-1.8,8.3,0,12.8,0.8s7.1-5.7,7.1-5.7s-0.6,6.8,0.6,8
				s2.3,6.1,3.5,6.1c1.1,0,0.3-4,1.3-3.8s3,2.2,3,2.2s2.4-9.8-0.9-14.2c-1.2-1.5-7.9-9.8-14.3-9.3c-11.4,0.9-16.4,4.1-18.7,9.3
				s-1,11.9-1,11.9l0.7,1.3C686.9,71.6,687.1,68.9,688.5,68z"/>
			<path class="st8" d="M688.7,61.7c0,0,0.9-4.3,3.9-6s13.9-3.4,13.9-3.4s2.9,3.2,0,4.7s-12,3-12,3L688.7,61.7z"/>
		</g>
	</g>
	<text transform="matrix(1 0 0 1 44.8682 250.9376)" class="st9 st10">Healthcare providers</text>
	<text transform="matrix(1 0 0 1 245.8127 219.7011)" class="st9 st10">Pharmaceuticals</text>
	<text transform="matrix(1 0 0 1 472.7795 250.9376)" class="st9 st10">Institutions</text>
	<text transform="matrix(1 0 0 1 340.6907 490.5862)" class="st9 st10">Patient</text>
	<text transform="matrix(1 0 0 1 657.575 223.9389)" class="st9 st10">Family</text>
	<g>
		<path class="st0" d="M320,706.5c0,0-5.6,8.5-4.3,11C317,720,310,773,310,773h14c0,0,5.5-46,7.5-51.5S339,709,339,709L320,706.5z"
			/>
		<path class="st0" d="M462,706.5c0,0,5.6,8.5,4.3,11C465,720,472,773,472,773h-14c0,0-5.5-46-7.5-51.5S443,709,443,709L462,706.5z"
			/>
		<path class="st1" d="M376.2,628.3c0,0-30.1,8.4-35.8,12.7c-5.7,4.3-26.7,56.7-26.7,63.8s20.6,11.1,25,11.8
			C343,717.3,349,700,349,700l1.5,73H432l-1-76.6c0,0,7.4,20.5,9.7,20.3c2.3-0.3,23.3-6.3,27.3-8.7c3.9-2.2-17-63.3-23-67
			s-41-13-47.9-12.7C390.3,628.7,376.2,628.3,376.2,628.3z"/>
		<g>
			<g>
				<g>
					<g>
						<path class="st2" d="M389,612c0,0,12-2.4,12,11.3c0,10.7,15.7,18.7-12,18.7"/>
					</g>
				</g>
				<g>
					<g>
						<path class="st2" d="M389,612c0,0-12-2.4-12,11.3c0,10.7-15.7,18.7,12,18.7"/>
					</g>
				</g>
			</g>
		</g>
		<g>
			<path class="st0" d="M388,622.5c-40,0-34-67-30.5-81.5c3.2-13.3,30.5-13,30.5-13s27.3-0.3,30.5,13C422,555.5,428,622.5,388,622.5
				z"/>
			<circle class="st3" cx="404.2" cy="561.8" r="2.9"/>
			<path class="st4" d="M426.6,562.2c0,8.4,0.5,15.2-5.5,15.2s-2.4-6.8-2.4-15.2s1.1-15.2,2.4-15.2S426.6,553.8,426.6,562.2z"/>
			<circle class="st3" cx="371.8" cy="561.8" r="2.9"/>
			<path class="st5" d="M380.5,577.3c0.3,7,3.2,15,7.5,15s7.2-8,7.5-15c0,0-2.8,5.5-7.5,5.5S380.5,577.3,380.5,577.3z"/>
			<path class="st4" d="M349.4,562.2c0,8.4-0.5,15.2,5.5,15.2s2.4-6.8,2.4-15.2s-1.1-15.2-2.4-15.2S349.4,553.8,349.4,562.2z"/>
			<path class="st6" d="M358.5,550c0,0,9.2-4.5,16.1-3s15,2.5,20.9,3s8.8-3.3,8.8-3.3s8.3,11.1,11.8,12.2c3.5,1.1,0,0,0,0v-33.5
				l-58,13.3L358.5,550z"/>
			<path class="st7" d="M354.4,549c3.1-2,0.9,6.3,3.9,9.7c3,3.3,4.7-12,5.7-16s18.3,0,28.3,1.7s15.7-12.7,15.7-12.7
				s-1.3,15,1.3,17.7c2.7,2.7,5.2,13.5,7.7,13.5s0.6-8.8,2.9-8.4c2.3,0.3,6.7,5,6.7,5s5.3-21.6-2-31.3c-2.6-3.4-17.4-21.8-31.7-20.7
				c-25.2,2-36.3,9-41.3,20.7s-2.2,26.3-2.2,26.3l1.5,2.8C350.9,557.1,351.3,551,354.4,549z"/>
			<path class="st8" d="M355,535.1c0,0,2-9.6,8.7-13.3s30.7-7.6,30.7-7.6s6.3,7.1,0,10.5s-26.5,6.7-26.5,6.7L355,535.1z"/>
		</g>
	</g>
	<g>
		<path class="st0" d="M627.9,153.1c0,0-2.5,3.8-1.9,4.9c0.6,1.1-2.6,25-2.6,25h6.3c0,0,2.5-20.7,3.4-23.2s3.4-5.6,3.4-5.6
			L627.9,153.1z"/>
		<path class="st0" d="M692.1,153.1c0,0,2.5,3.8,1.9,4.9c-0.6,1.1,2.6,25,2.6,25h-6.3c0,0-2.5-20.7-3.4-23.2s-3.4-5.6-3.4-5.6
			L692.1,153.1z"/>
		<path class="st1" d="M653.3,117.8c0,0-13.6,3.8-16.2,5.8S625,149.2,625,152.4s9.3,5,11.3,5.3c1.9,0.3,4.7-7.6,4.7-7.6l0.7,32.9
			h36.8l-0.5-34.5c0,0,3.3,9.3,4.4,9.2c1-0.1,10.5-2.8,12.3-3.9c1.7-1-7.7-28.6-10.4-30.3s-18.5-5.9-21.6-5.7
			C659.7,118,653.3,117.8,653.3,117.8z"/>
		<g>
			<g>
				<g>
					<g>
						<path class="st2" d="M659.1,110.4c0,0,5.4-1.1,5.4,5.1c0,4.8,7.1,8.4-5.4,8.4"/>
					</g>
				</g>
				<g>
					<g>
						<path class="st2" d="M659.1,110.4c0,0-5.4-1.1-5.4,5.1c0,4.8-7.1,8.4,5.4,8.4"/>
					</g>
				</g>
			</g>
		</g>
		<g>
			<path class="st0" d="M658.6,115.2c-18.1,0-15.4-30.3-13.8-36.8c1.5-6,13.8-5.9,13.8-5.9s12.3-0.2,13.8,5.9
				C674,84.9,676.7,115.2,658.6,115.2z"/>
			<circle class="st3" cx="666" cy="87.7" r="1.3"/>
			<path class="st4" d="M676.1,87.9c0,3.8,0.2,6.8-2.5,6.8s-1.1-3.1-1.1-6.8c0-3.8,0.5-6.8,1.1-6.8
				C674.2,81.1,676.1,84.1,676.1,87.9z"/>
			<circle class="st3" cx="651.3" cy="87.7" r="1.3"/>
			<path class="st5" d="M655.3,94.8c0.1,3.1,1.4,6.8,3.4,6.8s3.2-3.6,3.4-6.8c0,0-1.3,2.5-3.4,2.5S655.3,94.8,655.3,94.8z"/>
			<path class="st4" d="M641.2,87.9c0,3.8-0.2,6.8,2.5,6.8s1.1-3.1,1.1-6.8c0-3.8-0.5-6.8-1.1-6.8C643.1,81.1,641.2,84.1,641.2,87.9
				z"/>
			<path class="st6" d="M645.3,82.4c0,0,4.2-2,7.3-1.4c3.1,0.7,6.8,1.1,9.4,1.4c2.7,0.2,4-1.5,4-1.5s3.7,5,5.3,5.5s0,0,0,0V71.3
				l-26.2,6L645.3,82.4z"/>
			<path class="st7" d="M643.5,82c1.4-0.9,0.4,2.9,1.8,4.4s2.1-5.4,2.6-7.2c0.5-1.8,8.3,0,12.8,0.8s7.1-5.7,7.1-5.7s-0.6,6.8,0.6,8
				s2.3,6.1,3.5,6.1c1.1,0,0.3-4,1.3-3.8s3,2.2,3,2.2s2.4-9.8-0.9-14.2c-1.2-1.5-7.9-9.8-14.3-9.3c-11.4,0.9-16.4,4.1-18.7,9.3
				c-2.3,5.3-1,11.9-1,11.9l0.7,1.3C641.9,85.6,642.1,82.9,643.5,82z"/>
			<path class="st8" d="M643.7,75.7c0,0,0.9-4.3,3.9-6s13.9-3.4,13.9-3.4s2.9,3.2,0,4.7s-12,3-12,3L643.7,75.7z"/>
		</g>
	</g>
	<g>
		<path class="st0" d="M708.9,153.1c0,0-2.5,3.8-1.9,4.9c0.6,1.1-2.6,25-2.6,25h6.3c0,0,2.5-20.7,3.4-23.2s3.4-5.6,3.4-5.6
			L708.9,153.1z"/>
		<path class="st0" d="M773.1,153.1c0,0,2.5,3.8,1.9,4.9c-0.6,1.1,2.6,25,2.6,25h-6.3c0,0-2.5-20.7-3.4-23.2s-3.4-5.6-3.4-5.6
			L773.1,153.1z"/>
		<path class="st1" d="M734.3,117.8c0,0-13.6,3.8-16.2,5.8S706,149.2,706,152.4s9.3,5,11.3,5.3c1.9,0.3,4.7-7.6,4.7-7.6l0.7,32.9
			h36.8l-0.5-34.5c0,0,3.3,9.3,4.4,9.2c1-0.1,10.5-2.8,12.3-3.9c1.7-1-7.7-28.6-10.4-30.3s-18.5-5.9-21.6-5.7
			C740.7,118,734.3,117.8,734.3,117.8z"/>
		<g>
			<g>
				<g>
					<g>
						<path class="st2" d="M740.1,110.4c0,0,5.4-1.1,5.4,5.1c0,4.8,7.1,8.4-5.4,8.4"/>
					</g>
				</g>
				<g>
					<g>
						<path class="st2" d="M740.1,110.4c0,0-5.4-1.1-5.4,5.1c0,4.8-7.1,8.4,5.4,8.4"/>
					</g>
				</g>
			</g>
		</g>
		<g>
			<path class="st0" d="M739.6,115.2c-18.1,0-15.4-30.3-13.8-36.8c1.5-6,13.8-5.9,13.8-5.9s12.3-0.2,13.8,5.9
				C755,84.9,757.7,115.2,739.6,115.2z"/>
			<circle class="st3" cx="747" cy="87.7" r="1.3"/>
			<path class="st4" d="M757.1,87.9c0,3.8,0.2,6.8-2.5,6.8s-1.1-3.1-1.1-6.8c0-3.8,0.5-6.8,1.1-6.8
				C755.2,81.1,757.1,84.1,757.1,87.9z"/>
			<circle class="st3" cx="732.3" cy="87.7" r="1.3"/>
			<path class="st5" d="M736.3,94.8c0.1,3.1,1.4,6.8,3.4,6.8s3.2-3.6,3.4-6.8c0,0-1.3,2.5-3.4,2.5S736.3,94.8,736.3,94.8z"/>
			<path class="st4" d="M722.2,87.9c0,3.8-0.2,6.8,2.5,6.8s1.1-3.1,1.1-6.8c0-3.8-0.5-6.8-1.1-6.8C724.1,81.1,722.2,84.1,722.2,87.9
				z"/>
			<path class="st6" d="M726.3,82.4c0,0,4.2-2,7.3-1.4c3.1,0.7,6.8,1.1,9.4,1.4c2.7,0.2,4-1.5,4-1.5s3.7,5,5.3,5.5s0,0,0,0V71.3
				l-26.2,6L726.3,82.4z"/>
			<path class="st7" d="M724.5,82c1.4-0.9,0.4,2.9,1.8,4.4s2.1-5.4,2.6-7.2c0.5-1.8,8.3,0,12.8,0.8s7.1-5.7,7.1-5.7s-0.6,6.8,0.6,8
				s2.3,6.1,3.5,6.1c1.1,0,0.3-4,1.3-3.8s3,2.2,3,2.2s2.4-9.8-0.9-14.2c-1.2-1.5-7.9-9.8-14.3-9.3c-11.4,0.9-16.4,4.1-18.7,9.3
				c-2.3,5.3-1,11.9-1,11.9l0.7,1.3C722.9,85.6,723.1,82.9,724.5,82z"/>
			<path class="st8" d="M724.7,75.7c0,0,0.9-4.3,3.9-6s13.9-3.4,13.9-3.4s2.9,3.2,0,4.7s-12,3-12,3L724.7,75.7z"/>
		</g>
	</g>
	<g>
		<path class="st7" d="M353.4,172l-70.2-0.1c-16.2,0-29.3-13.2-29.3-29.5s13.3-29.5,29.5-29.5H353L353.4,172z"/>
		<path class="st0" d="M349.9,172l70.2-0.1c16.2,0,29.3-13.2,29.3-29.5S436.1,113,419.9,113h-69.6L349.9,172z"/>
		<path class="st11" d="M267.1,151.8C268,139.4,278.6,130,291,130h116c6.6,0,12-5.4,11.9-12l0,0H284.7c-13.4,0-24.7,10.7-24.7,24.1
			c0,7.3,3.1,13.6,8,17.9C267.2,157.4,266.9,154.7,267.1,151.8z"/>
		<path class="st6" d="M441.2,133c-1,14.3-13.3,25.1-27.7,25.1H295c-7.6,0-13.8,6.2-13.8,13.9h-15.5h155.1
			c15.5,0,28.5-12.4,28.6-27.9c0-8.5-3.6-15.7-9.3-20.7C441,126.4,441.4,129.7,441.2,133z"/>
	</g>
	<rect x="485" y="103.2" class="st7" width="96" height="79.8"/>
	<rect x="95" y="103.2" class="st7" width="96" height="79.8"/>
</g>
<g id="future">
</g>
</svg>
