<?xml version="1.0" encoding="utf-8"?>
<!-- Generator: Adobe Illustrator 19.1.0, SVG Export Plug-In . SVG Version: 6.00 Build 0)  -->
<svg version="1.1" id="Layer_1" xmlns="http://www.w3.org/2000/svg" xmlns:xlink="http://www.w3.org/1999/xlink" x="0px" y="0px"
	 viewBox="-249.5 12.7 595.9 492.6" style="enable-background:new -249.5 12.7 595.9 492.6;" xml:space="preserve">
<style type="text/css">
	.st0{fill:none;}
	.st1{fill:#F9E8D8;}
	.st2{fill:#0EA2DC;}
	.st3{opacity:0.2;fill:#FFFFFF;stroke:#000000;stroke-width:8;stroke-miterlimit:10;}
	.st4{fill:#FAAD40;}
	.st5{fill:#FFFFFF;}
	.st6{fill:#666666;}
	.st7{fill:#37BEC0;}
	.st8{fill:#9B5CA4;}
	.st9{fill:#A4CE4E;}
	.st10{fill:#ED4F7E;}
	.st11{opacity:0.3;fill:#FFFFFF;enable-background:new    ;}
	.st12{fill:url(#SVGID_2_);}
	.st13{opacity:0.4;}
	.st14{opacity:0.2;}
	.st15{clip-path:url(#SVGID_4_);}
	.st16{opacity:0.5;fill:#F2F2F2;}
	.st17{opacity:0.5;fill:#E6E6E6;}
	.st18{opacity:0.5;fill:#CCCCCC;}
	.st19{fill:#085C7C;}
	.st20{fill:#0B7AA5;}
	.st21{fill:#FFFBDA;}
	.st22{fill:#C1272D;}
	.st23{fill:#999999;}
	.st24{fill:#4D4D4D;}
	.st25{fill:#333333;}
</style>
<pattern  x="-103" y="409" width="40" height="40" patternUnits="userSpaceOnUse" id="SVGID_1_" viewBox="110.2 -135.2 40 40" style="overflow:visible;">
	<g>
		<polygon class="st0" points="110.2,-95.2 150.2,-95.2 150.2,-135.2 110.2,-135.2 		"/>
		<g>
			<polygon class="st0" points="110.2,-95.2 150.2,-95.2 150.2,-135.2 110.2,-135.2 			"/>
			<g>
				<polygon class="st1" points="140,-206.8 163.7,-120 250.5,-143.7 226.8,-230.5 				"/>
			</g>
			<g>
				<polygon class="st1" points="120,-206.8 143.7,-120 230.5,-143.7 206.8,-230.5 				"/>
			</g>
			<g>
				<polygon class="st1" points="100,-206.8 123.7,-120 210.5,-143.7 186.8,-230.5 				"/>
			</g>
			<g>
				<polygon class="st1" points="80,-206.8 103.7,-120 190.5,-143.7 166.8,-230.5 				"/>
			</g>
			<g>
				<polygon class="st1" points="60,-206.8 83.7,-120 170.5,-143.7 146.8,-230.5 				"/>
			</g>
			<g>
				<polygon class="st1" points="40,-206.8 63.7,-120 150.5,-143.7 126.8,-230.5 				"/>
			</g>
			<g>
				<polygon class="st1" points="20,-206.8 43.7,-120 130.5,-143.7 106.8,-230.5 				"/>
			</g>
			<g>
				<polygon class="st1" points="0,-206.8 23.7,-120 110.5,-143.7 86.8,-230.5 				"/>
			</g>
			<g>
				<polygon class="st1" points="150,-186.8 173.7,-100 260.5,-123.7 236.8,-210.5 				"/>
			</g>
			<g>
				<polygon class="st1" points="130,-186.8 153.7,-100 240.5,-123.7 216.8,-210.5 				"/>
			</g>
			<g>
				<polygon class="st1" points="110,-186.8 133.7,-100 220.5,-123.7 196.8,-210.5 				"/>
			</g>
			<g>
				<polygon class="st1" points="90,-186.8 113.7,-100 200.5,-123.7 176.8,-210.5 				"/>
			</g>
			<g>
				<polygon class="st1" points="70,-186.8 93.7,-100 180.5,-123.7 156.8,-210.5 				"/>
			</g>
			<g>
				<polygon class="st1" points="50,-186.8 73.7,-100 160.5,-123.7 136.8,-210.5 				"/>
			</g>
			<g>
				<polygon class="st1" points="30,-186.8 53.7,-100 140.5,-123.7 116.8,-210.5 				"/>
			</g>
			<g>
				<polygon class="st1" points="10,-186.8 33.7,-100 120.5,-123.7 96.8,-210.5 				"/>
			</g>
			<g>
				<polygon class="st1" points="140,-166.8 163.7,-80 250.5,-103.7 226.8,-190.5 				"/>
			</g>
			<g>
				<polygon class="st1" points="120,-166.8 143.7,-80 230.5,-103.7 206.8,-190.5 				"/>
			</g>
			<g>
				<polygon class="st1" points="100,-166.8 123.7,-80 210.5,-103.7 186.8,-190.5 				"/>
				<path class="st2" d="M176.7-134.8c0-9.1-7.4-16.5-16.5-16.5s-16.5,7.4-16.5,16.5s7.4,16.5,16.5,16.5S176.7-125.6,176.7-134.8z"
					/>
			</g>
			<g>
				<polygon class="st1" points="80,-166.8 103.7,-80 190.5,-103.7 166.8,-190.5 				"/>
				<path class="st2" d="M156.7-134.8c0-9.1-7.4-16.5-16.5-16.5s-16.5,7.4-16.5,16.5s7.4,16.5,16.5,16.5S156.7-125.6,156.7-134.8z"
					/>
			</g>
			<g>
				<polygon class="st1" points="60,-166.8 83.7,-80 170.5,-103.7 146.8,-190.5 				"/>
				<path class="st2" d="M136.7-134.8c0-9.1-7.4-16.5-16.5-16.5s-16.5,7.4-16.5,16.5s7.4,16.5,16.5,16.5S136.7-125.6,136.7-134.8z"
					/>
			</g>
			<g>
				<polygon class="st1" points="40,-166.8 63.7,-80 150.5,-103.7 126.8,-190.5 				"/>
				<path class="st2" d="M116.7-134.8c0-9.1-7.4-16.5-16.5-16.5s-16.5,7.4-16.5,16.5s7.4,16.5,16.5,16.5S116.7-125.6,116.7-134.8z"
					/>
			</g>
			<g>
				<polygon class="st1" points="20,-166.8 43.7,-80 130.5,-103.7 106.8,-190.5 				"/>
			</g>
			<g>
				<polygon class="st1" points="0,-166.8 23.7,-80 110.5,-103.7 86.8,-190.5 				"/>
			</g>
			<g>
				<polygon class="st1" points="150,-146.8 173.7,-60 260.5,-83.7 236.8,-170.5 				"/>
			</g>
			<g>
				<polygon class="st1" points="130,-146.8 153.7,-60 240.5,-83.7 216.8,-170.5 				"/>
			</g>
			<g>
				<polygon class="st1" points="110,-146.8 133.7,-60 220.5,-83.7 196.8,-170.5 				"/>
			</g>
			<g>
				<polygon class="st1" points="90,-146.8 113.7,-60 200.5,-83.7 176.8,-170.5 				"/>
				<path class="st2" d="M166.7-114.8c0-9.1-7.4-16.5-16.5-16.5s-16.5,7.4-16.5,16.5s7.4,16.5,16.5,16.5S166.7-105.6,166.7-114.8z"
					/>
			</g>
			<g>
				<polygon class="st1" points="70,-146.8 93.7,-60 180.5,-83.7 156.8,-170.5 				"/>
				<path class="st2" d="M146.7-114.8c0-9.1-7.4-16.5-16.5-16.5s-16.5,7.4-16.5,16.5s7.4,16.5,16.5,16.5S146.7-105.6,146.7-114.8z"
					/>
			</g>
			<g>
				<polygon class="st1" points="50,-146.8 73.7,-60 160.5,-83.7 136.8,-170.5 				"/>
				<path class="st2" d="M126.7-114.8c0-9.1-7.4-16.5-16.5-16.5s-16.5,7.4-16.5,16.5s7.4,16.5,16.5,16.5S126.7-105.6,126.7-114.8z"
					/>
			</g>
			<g>
				<polygon class="st1" points="30,-146.8 53.7,-60 140.5,-83.7 116.8,-170.5 				"/>
			</g>
			<g>
				<polygon class="st1" points="10,-146.8 33.7,-60 120.5,-83.7 96.8,-170.5 				"/>
			</g>
			<g>
				<polygon class="st1" points="140,-126.8 163.7,-40 250.5,-63.7 226.8,-150.5 				"/>
			</g>
			<g>
				<polygon class="st1" points="120,-126.8 143.7,-40 230.5,-63.7 206.8,-150.5 				"/>
			</g>
			<g>
				<polygon class="st1" points="100,-126.8 123.7,-40 210.5,-63.7 186.8,-150.5 				"/>
				<path class="st2" d="M176.7-94.8c0-9.1-7.4-16.5-16.5-16.5s-16.5,7.4-16.5,16.5s7.4,16.5,16.5,16.5S176.7-85.6,176.7-94.8z"/>
			</g>
			<g>
				<polygon class="st1" points="80,-126.8 103.7,-40 190.5,-63.7 166.8,-150.5 				"/>
				<path class="st2" d="M156.7-94.8c0-9.1-7.4-16.5-16.5-16.5s-16.5,7.4-16.5,16.5s7.4,16.5,16.5,16.5S156.7-85.6,156.7-94.8z"/>
			</g>
			<g>
				<polygon class="st1" points="60,-126.8 83.7,-40 170.5,-63.7 146.8,-150.5 				"/>
				<path class="st2" d="M136.7-94.8c0-9.1-7.4-16.5-16.5-16.5s-16.5,7.4-16.5,16.5s7.4,16.5,16.5,16.5S136.7-85.6,136.7-94.8z"/>
			</g>
			<g>
				<polygon class="st1" points="40,-126.8 63.7,-40 150.5,-63.7 126.8,-150.5 				"/>
				<path class="st2" d="M116.7-94.8c0-9.1-7.4-16.5-16.5-16.5s-16.5,7.4-16.5,16.5s7.4,16.5,16.5,16.5S116.7-85.6,116.7-94.8z"/>
			</g>
			<g>
				<polygon class="st1" points="20,-126.8 43.7,-40 130.5,-63.7 106.8,-150.5 				"/>
			</g>
			<g>
				<polygon class="st1" points="0,-126.8 23.7,-40 110.5,-63.7 86.8,-150.5 				"/>
			</g>
			<g>
				<polygon class="st1" points="150,-106.8 173.7,-20 260.5,-43.7 236.8,-130.5 				"/>
			</g>
			<g>
				<polygon class="st1" points="130,-106.8 153.7,-20 240.5,-43.7 216.8,-130.5 				"/>
			</g>
			<g>
				<polygon class="st1" points="110,-106.8 133.7,-20 220.5,-43.7 196.8,-130.5 				"/>
			</g>
			<g>
				<polygon class="st1" points="90,-106.8 113.7,-20 200.5,-43.7 176.8,-130.5 				"/>
			</g>
			<g>
				<polygon class="st1" points="70,-106.8 93.7,-20 180.5,-43.7 156.8,-130.5 				"/>
			</g>
			<g>
				<polygon class="st1" points="50,-106.8 73.7,-20 160.5,-43.7 136.8,-130.5 				"/>
			</g>
			<g>
				<polygon class="st1" points="30,-106.8 53.7,-20 140.5,-43.7 116.8,-130.5 				"/>
			</g>
			<g>
				<polygon class="st1" points="10,-106.8 33.7,-20 120.5,-43.7 96.8,-130.5 				"/>
			</g>
			<g>
				<polygon class="st1" points="140,-86.8 163.7,0 250.5,-23.7 226.8,-110.5 				"/>
			</g>
			<g>
				<polygon class="st1" points="120,-86.8 143.7,0 230.5,-23.7 206.8,-110.5 				"/>
			</g>
			<g>
				<polygon class="st1" points="100,-86.8 123.7,0 210.5,-23.7 186.8,-110.5 				"/>
			</g>
			<g>
				<polygon class="st1" points="80,-86.8 103.7,0 190.5,-23.7 166.8,-110.5 				"/>
			</g>
			<g>
				<polygon class="st1" points="60,-86.8 83.7,0 170.5,-23.7 146.8,-110.5 				"/>
			</g>
			<g>
				<polygon class="st1" points="40,-86.8 63.7,0 150.5,-23.7 126.8,-110.5 				"/>
			</g>
			<g>
				<polygon class="st1" points="20,-86.8 43.7,0 130.5,-23.7 106.8,-110.5 				"/>
			</g>
			<g>
				<polygon class="st1" points="0,-86.8 23.7,0 110.5,-23.7 86.8,-110.5 				"/>
			</g>
		</g>
	</g>
</pattern>
<title>vert-transport-future-b</title>
<g>
	<path class="st3" d="M172.6,311.8l-70.3-89.1c4.5-35.1-3.2-71.9-24.5-103.5C31.1,50-62.7,31.8-131.9,78.4s-87.4,140.5-40.8,209.6
		s140.5,87.4,209.6,40.8c6.9-4.7,13.3-9.8,19.2-15.3L172.6,311.8z"/>
	<g>
		<g>
			<g>
				<path class="st4" d="M197.9,325.1l-36,13.7c0,0,3.1,9.7,8.5,12.8c5.4,3.1,25.2-7.1,25.2-7.1L197.9,325.1z"/>
				<path class="st4" d="M188.7,345l-31,14.7c0,0,2.1,9.7,7.5,12.8s21.2-8.1,21.2-8.1L188.7,345z"/>
				<path class="st4" d="M315.8,327.7c0,0,6,32.9,5.1,42.5c-0.9,9.7-15.7,42.4-21.9,55c-6.2,12.6-50.1,23.2-59.1,29
					c-9,5.8-12.6-29-12.6-29s14.6-34.8,31.3-41.5S315.8,327.7,315.8,327.7z"/>
				<path class="st5" d="M225.7,441.8l-78.1-28.1c-9-3.2-12.3-14.2-6.7-21.9l101.6-139.2c3.8-5.1,10.5-7.1,16.4-5l78.1,28.1
					c9,3.2,12.3,14.2,6.7,21.9L242.1,436.7C238.3,441.8,231.6,444,225.7,441.8z"/>
				<g>
					<path class="st6" d="M232.7,417.7l-63.4-22.8c-7.2-2.6-10.1-11.5-5.5-17.7l82.4-112.9c3.1-4.2,8.5-5.8,13.3-4l63.4,22.8
						c7.2,2.6,10.1,11.5,5.5,17.7L246,413.6C242.9,417.7,237.5,419.4,232.7,417.7z"/>
					<path class="st7" d="M250.8,285.7l-6.6-2.4c-2.3-0.8-3.1-3.6-1.6-5.6l4.7-6c0.9-1.2,2.7-1.7,4.2-1.2l6.6,2.4
						c2.3,0.8,3.1,3.6,1.6,5.6l-4.7,6C253.9,285.9,252.3,286.3,250.8,285.7z"/>
					<path class="st4" d="M268.8,292.8l-6.6-2.4c-2.3-0.8-3.1-3.6-1.6-5.6l4.7-6c0.9-1.2,2.7-1.7,4.2-1.2l6.6,2.4
						c2.3,0.8,3.1,3.6,1.6,5.6l-4.7,6C271.9,292.8,270.3,293.4,268.8,292.8z"/>
					<path class="st2" d="M288.4,299.8l-6.6-2.4c-2.3-0.8-3.1-3.6-1.6-5.6l4.7-6c0.9-1.2,2.7-1.7,4.2-1.2l6.6,2.4
						c2.3,0.8,3.1,3.6,1.6,5.6l-4.7,6C291.5,299.8,289.9,300.4,288.4,299.8z"/>
					<path class="st8" d="M308.5,307.3l-6.6-2.4c-2.3-0.8-3.1-3.6-1.6-5.6l4.7-6c0.9-1.2,2.7-1.7,4.2-1.2l6.6,2.4
						c2.3,0.8,3.1,3.6,1.6,5.6l-4.7,6C311.6,307.5,310,307.9,308.5,307.3z"/>
					<path class="st2" d="M237.9,305.3l-6.6-2.4c-2.3-0.8-3.1-3.6-1.6-5.6l4.7-6c0.9-1.2,2.7-1.7,4.2-1.2l6.6,2.4
						c2.3,0.8,3.1,3.6,1.6,5.6l-4.7,6C241.2,305.5,239.4,305.9,237.9,305.3z"/>
					<path class="st9" d="M255.9,312.4l-6.6-2.4c-2.3-0.8-3.1-3.6-1.6-5.6l4.7-6c0.9-1.2,2.7-1.7,4.2-1.2l6.6,2.4
						c2.3,0.8,3.1,3.6,1.6,5.6l-4.7,6C259,312.4,257.4,313,255.9,312.4z"/>
					<path class="st8" d="M275.5,319.4l-6.6-2.4c-2.3-0.8-3.1-3.6-1.6-5.6l4.7-6c0.9-1.2,2.7-1.7,4.2-1.2l6.6,2.4
						c2.3,0.8,3.1,3.6,1.6,5.6l-4.7,6C278.7,319.4,277,320,275.5,319.4z"/>
					<path class="st10" d="M295.7,327.1l-6.6-2.4c-2.3-0.8-3.1-3.6-1.6-5.6l4.7-6c0.9-1.2,2.7-1.7,4.2-1.2l6.6,2.4
						c2.3,0.8,3.1,3.6,1.6,5.6l-4.7,6C298.7,327.1,297.1,327.6,295.7,327.1z"/>
					<path class="st7" d="M222.9,325.9l-6.6-2.4c-2.3-0.8-3.1-3.6-1.6-5.6l4.7-6c0.9-1.2,2.7-1.7,4.2-1.2l6.6,2.4
						c2.3,0.8,3.1,3.6,1.6,5.6l-4.7,6C226,326,224.4,326.4,222.9,325.9z"/>
					<path class="st4" d="M240.9,332.8l-6.6-2.4c-2.3-0.8-3.1-3.6-1.6-5.6l4.7-6c0.9-1.2,2.7-1.7,4.2-1.2l6.6,2.4
						c2.3,0.8,3.1,3.6,1.6,5.6l-4.7,6C244,333,242.4,333.4,240.9,332.8z"/>
					<path class="st2" d="M260.5,339.8l-6.6-2.4c-2.3-0.8-3.1-3.6-1.6-5.6l4.7-6c0.9-1.2,2.7-1.7,4.2-1.2l6.6,2.4
						c2.3,0.8,3.1,3.6,1.6,5.6l-4.7,6C263.6,340,262,340.4,260.5,339.8z"/>
					<path class="st8" d="M280.6,347.5l-6.6-2.4c-2.3-0.8-3.1-3.6-1.6-5.6l4.7-6c0.9-1.2,2.7-1.7,4.2-1.2l6.6,2.4
						c2.3,0.8,3.1,3.6,1.6,5.6l-4.7,6C283.7,347.6,282.1,348,280.6,347.5z"/>
					<path class="st2" d="M210,345.5l-6.6-2.4c-2.3-0.8-3.1-3.6-1.6-5.6l4.7-6c0.9-1.2,2.7-1.7,4.2-1.2l6.6,2.4
						c2.3,0.8,3.1,3.6,1.6,5.6l-4.7,6C213.2,345.6,211.5,346,210,345.5z"/>
					<path class="st9" d="M228,352.4l-6.6-2.4c-2.3-0.8-3.1-3.6-1.6-5.6l4.7-6c0.9-1.2,2.7-1.7,4.2-1.2l6.6,2.4
						c2.3,0.8,3.1,3.6,1.6,5.6l-4.7,6C231.1,352.6,229.5,353,228,352.4z"/>
					<path class="st8" d="M247.6,359.4L241,357c-2.3-0.8-3.1-3.6-1.6-5.6l4.7-6c0.9-1.2,2.7-1.7,4.2-1.2l6.6,2.4
						c2.3,0.8,3.1,3.6,1.6,5.6l-4.7,6C250.8,359.6,249.1,360,247.6,359.4z"/>
					<path class="st10" d="M267.7,367.1l-6.6-2.4c-2.3-0.8-3.1-3.6-1.6-5.6l4.7-6c0.9-1.2,2.7-1.7,4.2-1.2l6.6,2.4
						c2.3,0.8,3.1,3.6,1.6,5.6l-4.7,6C270.8,367.2,269.2,367.6,267.7,367.1z"/>
					<path class="st7" d="M193,366.3l-6.6-2.4c-2.3-0.8-3.1-3.6-1.6-5.6l4.7-6c0.9-1.2,2.7-1.7,4.2-1.2l6.6,2.4
						c2.3,0.8,3.1,3.6,1.6,5.6l-4.7,6C196.2,366.3,194.5,366.8,193,366.3z"/>
					<path class="st4" d="M211,373.2l-6.6-2.4c-2.3-0.8-3.1-3.6-1.6-5.6l4.7-6c0.9-1.2,2.7-1.7,4.2-1.2l6.6,2.4
						c2.3,0.8,3.1,3.6,1.6,5.6l-4.7,6C214.2,373.2,212.4,373.8,211,373.2z"/>
					<path class="st2" d="M230.7,380.2l-6.6-2.4c-2.3-0.8-3.1-3.6-1.6-5.6l4.7-6c0.9-1.2,2.7-1.7,4.2-1.2l6.6,2.4
						c2.3,0.8,3.1,3.6,1.6,5.6l-4.7,6C233.8,380.2,232.2,380.8,230.7,380.2z"/>
					<path class="st8" d="M250.7,387.9l-6.6-2.4c-2.3-0.8-3.1-3.6-1.6-5.6l4.7-6c0.9-1.2,2.7-1.7,4.2-1.2l6.6,2.4
						c2.3,0.8,3.1,3.6,1.6,5.6l-4.7,6C253.9,387.9,252.2,388.4,250.7,387.9z"/>
					<path class="st2" d="M180.2,385.9l-6.6-2.4c-2.3-0.8-3.1-3.6-1.6-5.6l4.7-6c0.9-1.2,2.7-1.7,4.2-1.2l6.6,2.4
						c2.3,0.8,3.1,3.6,1.6,5.6l-4.7,6C183.3,385.9,181.7,386.4,180.2,385.9z"/>
					<path class="st9" d="M198.2,392.8l-6.6-2.4c-2.3-0.8-3.1-3.6-1.6-5.6l4.7-6c0.9-1.2,2.7-1.7,4.2-1.2l6.6,2.4
						c2.3,0.8,3.1,3.6,1.6,5.6l-4.7,6C201.3,392.8,199.7,393.4,198.2,392.8z"/>
					<path class="st8" d="M217.8,399.8l-6.6-2.4c-2.3-0.8-3.1-3.6-1.6-5.6l4.7-6c0.9-1.2,2.7-1.7,4.2-1.2l6.6,2.4
						c2.3,0.8,3.1,3.6,1.6,5.6l-4.7,6C221,399.8,219.3,400.4,217.8,399.8z"/>
					<path class="st10" d="M237.9,407.5l-6.6-2.4c-2.3-0.8-3.1-3.6-1.6-5.6l4.7-6c0.9-1.2,2.7-1.7,4.2-1.2l6.6,2.4
						c2.3,0.8,3.1,3.6,1.6,5.6l-4.7,6C241,407.5,239.4,408,237.9,407.5z"/>
					<path class="st11" d="M169.4,394.9c-7.2-2.6-10.1-11.5-5.5-17.7l82.4-112.9c3.1-4.2,8.5-5.8,13.3-4l63.4,22.8
						c7.2,2.6,10.1,11.5,5.5,17.7L169.4,394.9z"/>
				</g>
				<path class="st4" d="M-1.9,505.3c0,0,162.8-71.9,173.9-82.7c17.9-17.3,35-16.2,37.8-20.5c10.6-16.4,25.3-25,27-36.8
					c1.6-11.8,2.4-38.5,6.6-44.3c4.2-5.8,19.6-7.8,20.1,0s1.2,26,1.9,32.3c0.5,6.3-1.3,25.5-1.9,33.2c-0.5,7.7,10.9,27.2,10.9,27.2
					c15-2.7,25.5,24.2-28.2,41.2c-14.9,4.8-56.3,8.1-56.3,8.1l-66.4,42.2H-1.9z"/>
				<pattern  id="SVGID_2_" xlink:href="#SVGID_1_" patternTransform="matrix(1.5535 0 0 -1.5535 6591.1826 -22961.8711)">
				</pattern>
				<path class="st12" d="M245.1,336.5c0,0-1.2-11.9,2-14.8c3.2-3,12.3-4.2,13.2-2c0.8,2,2.4,12.8,0.9,14.5
					C259.7,335.8,245.1,336.5,245.1,336.5z"/>
			</g>
		</g>
	</g>
	<path class="st13" d="M-14.3,268.7l-25.2-19.2c-1.7-1.3-4.2-0.1-4.2,2.1v8.3c0,1.4-1.2,2.6-2.6,2.6h-40.2c-1.4,0-2.6,1.2-2.6,2.6
		v11.6c0,1.4,1.2,2.6,2.6,2.6h40.2c1.4,0,2.6,1.2,2.6,2.6v8c0,2.2,2.5,3.4,4.2,2.1l25.2-19.2C-12.9,271.8-12.9,269.8-14.3,268.7z"/>
	<g>
		<g class="st14">
			<path d="M22.9,296.5c8.7-14.1,10.3-26.5,10-37.8h-5.7c-1.3,0-2.2-1.3-2.1-2.8l0.3-2.5c0.2-1.5,1.2-2.8,3-2.8h4
				c-0.6-5.2-1-11.8-1-16c0-25,12.7-38.8,33.3-38.8c11.5,0,19.8,7.3,22.8,10.6c0.9,0.9,0.7,2.7-0.3,3.9l-9,10.9
				c-1.3,1.3-3.3,1-4.2,0.1c-1.8-1.6-5.8-5.1-10.8-5.1c-4.3,0-8.7,4.6-8.7,13.2c0,4,1.9,11.7,2.7,21.1h10.5c1.5,0,2.2,1.3,2.1,2.8
				l-0.3,2.7c-0.2,1.5-1.5,2.7-3,2.7h-9.3c-0.6,6.9-1.6,14.5-4,23.2h20.5c1.3,0,2.2,1.2,1.9,2.8l-1.9,14.4c-0.3,1.5-1.5,2.8-2.8,2.8
				H24.7c-1.3,0-2.2-1.3-2.1-2.8L22.9,296.5z"/>
		</g>
		<g>
			<path class="st5" d="M15,286.4c8.7-14.1,10.3-26.5,10-37.8h-5.7c-1.3,0-2.2-1.3-2.1-2.8l0.3-2.5c0.2-1.5,1.2-2.8,3-2.8h4
				c-0.6-5.2-1-11.8-1-16c0-25,12.7-38.8,33.3-38.8c11.5,0,19.8,7.3,22.8,10.6c0.9,0.9,0.7,2.7-0.3,3.9l-9,10.9
				c-1.3,1.3-3.3,1-4.2,0.1c-1.8-1.6-5.8-5.1-10.8-5.1c-4.3,0-8.7,4.6-8.7,13.2c0,4,1.9,11.7,2.7,21.1h10.5c1.5,0,2.2,1.3,2.1,2.8
				l-0.3,2.7c-0.2,1.5-1.5,2.7-3,2.7h-9.3c-0.6,6.9-1.6,14.5-4,23.2h20.5c1.3,0,2.2,1.2,1.9,2.8l-1.9,14.4c-0.3,1.5-1.5,2.8-2.8,2.8
				H16.8c-1.3,0-2.2-1.3-2.1-2.8L15,286.4z"/>
		</g>
	</g>
	<g>
		<defs>
			<circle id="SVGID_3_" cx="-48.4" cy="203.7" r="147.7"/>
		</defs>
		<clipPath id="SVGID_4_">
			<use xlink:href="#SVGID_3_"  style="overflow:visible;"/>
		</clipPath>
		<g class="st15">
			<path class="st16" d="M6.7,168.5l19-14.5h11.7l2-3.6c0,0,4.9-17.7,7.3-19c2.4-1.3,63.3-14.1,63.3-14.1S95.1,70.5,92.1,64.7
				c-3-5.8-37.2,6.4-37.2,6.4L68,43.5l-20.7-6.2l-24-16l-18-8l-38-0.7l-12.8,50.4L-51,74.8v23.9l9.8,21.2l11.2,15.4v12.7l0.3,9
				l4,11.1l11.3,7.2L6.7,168.5z"/>
			<path class="st17" d="M-15.2,174.8l18-5.8H15v-12.1l5.1-4.5L31,149c0,0,0-4.8,0-7.4c0-2.7,0-13.8,0-13.8s3.5-11.1,4-14.8
				c0.5-3.7,5.2-6.6-0.1-9.8C29.6,100,23.1,96,23.1,96H7.7l-5,9.3c0,0-8.8,5.2-8.8,7.8c0,2.7-2.5,12.1-2.5,12.1l-0.7,10l-5.9,10.6
				L-19,157v15.4L-15.2,174.8z"/>
			<path class="st17" d="M-30.4,172.1c0,0-1.1-6.6-0.6-11.4c0.6-4.8,3.5-5.8-4.9-9.5s-13.1-1.1-11.8-8.5s3.4-18.6,3.4-18.6l-8.1-17
				l9.4-17c0,0,4.8,3.2,7.1,6.9c2.3,3.7,4.9,15.4,4.9,15.4s6.9-1.1,13.8,5.8s8.7,12.9,8.7,12.9s10.1,6.8,8.9,11s-4.3,13.8-4.3,13.8
				s-8,2.7-10.6,6.9s1.6,4.2-3.2,6.9c-4.8,2.7-4.8,2.7-4.8,2.7L-30.4,172.1z"/>
			<path class="st18" d="M-30.9,175c0,0,6-11.6,8.6-14.3c2.7-2.7,2.3-6.9,2.3-6.9v-17v-10.6l6,5v14.6l3.7,11.2l-3.7,9.5v4.2
				l10.3-4.8l3.5-9c0,0,2.3-3.4,3-7.5c0.7-4.1,2.3-1,2.3-7.3s2.6-15.9,2.6-15.9l10.1-13.3L14.1,123l-2.9,19.8l6.6,6.2l19.4-5.3
				l5.3-17l9.4-9.5l-5.3,14.1l-2,12.5l-7.5,15.4l-5.7,7.7l-8,5.5l-6.9,3.5c0,0-1.7-0.2-11-0.7s-9.6,0.7-9.6,0.7l-6.9,0.3l-3.7,2.7
				l-5.3,0.1L-30.9,175z"/>
			<path class="st18" d="M33.1,121.2c0.5-1.6,4.9-13,4.9-13v-9.5l-2.6-8.5l7.3,9l2.1,6.5l-2.2,7.3l-1.9,6.2L33.1,121.2z"/>
			<polygon class="st18" points="-17,118.3 -24,105.7 -24,95.4 -24,83.8 -25.5,74.8 -17,90.1 -17,100.2 -11,109.2 -11,118.2 
				-11,124.1 			"/>
			<path class="st19" d="M-47,178c0,0,10.8,2.3,10.5-0.9c-0.5-6.6,10.1-9.2,10-3.4c-0.1,5.8-3.4,15.7-2.4,10.8
				c1-4.9,2.4-11.5,5.7-11.8s1.2,9.2,3.2,10.8c1.9,1.6-3,6.5-1.6-0.2c2.4-11.5,2.7-8.5,5-6.2c4.6,4.7,2.2,4.1,5,4.6s8.4,4.4,8.4,4.4
				s-8.5,4.3-10.3,6.4c-1.8,2.1-19-0.4-20.6,0C-35.7,192.8-47,178-47,178z"/>
			<path class="st20" d="M-2.9,188.5c-6.2-3.5,4.5-4.5-10.5-6.6c-0.7-0.1-10.5,9.2-15,8.8c-6.3-0.7-8-11.2-9.2-11.3
				c-7.1-1-6.4-0.8-16.8-2.3c0,0-31.7-21.2-56.4-24.6c-24.7-3.4-64.6-2-73.9,1.8c-9.4,3.8-27,14.2-35.2,18c-8.2,3.7-11.8,3.7-19.4,8
				s-9.6,40,2.1,42.9l205.9,0.5c0,0,30.7-0.1,34.1-5.8S6.6,194-2.9,188.5z M-203.8,175.4c0.9-4.3,23.5-18,29.1-19
				c1.4-0.3,3.6-0.4,6.3-0.6l-3.3,22.3C-188.7,178.1-204.2,177.4-203.8,175.4z M-128.5,177.9c-3.2-0.1-21.9,0.3-39.8,0.3l3.1-22.5
				c7.7-0.3,17.7-0.3,24.3-0.3C-138.1,155.4-124.3,178.1-128.5,177.9z M-117.8,178.1c0,0-17.8-22.7-13.9-22.7
				c3.9-0.1,21.2,1.3,26.4,2.1c6.4,1.1,33.1,15.6,35.5,19C-67.4,179.9-110.6,179.4-117.8,178.1z"/>
			<path class="st21" d="M-9.2,198.3c0-2.1,3.7-6.1,4.5-7.2c0.8-1.1-1.1,0,1.3,0s4.5,4.1,4.8,6.6S-9.2,200.4-9.2,198.3z"/>
			<path class="st22" d="M-241.8,195.2c0.4-2.4-0.2-11.2,2.6-12.6s6.2-3.5,6.2-3.5v17.6L-241.8,195.2z"/>
			<path class="st14" d="M-237.2,223.2l27.9-23.5c0,0,114.9,2.7,126.2,0c11.3-2.7,30-11.8,30-11.8s7.3,0.2,16.8,0.5
				c4.1,0.1,8.3,11.2,12.8,11.3c3.4,0.1,7-10.6,10.3-10.5c11.4,0.5,12.1,1,12.9,1.4c5.2,2.9,8.7,20.8,3.1,27.3
				c-8,9.2-91.2,5.6-123.6,5.5S-237.2,223.2-237.2,223.2z"/>
			<g>
				<circle cx="-190" cy="218.9" r="22.3"/>
				<circle class="st23" cx="-190" cy="218.9" r="16.9"/>
				<g>
					<g>
						<circle class="st5" cx="-189.7" cy="207" r="2.6"/>
					</g>
					<g>
						<circle class="st5" cx="-180.5" cy="211.7" r="2.6"/>
					</g>
					<g>
						<circle class="st5" cx="-178.4" cy="221.8" r="2.6"/>
					</g>
					<g>
						<circle class="st5" cx="-185" cy="229.7" r="2.6"/>
					</g>
					<g>
						<circle class="st5" cx="-195.3" cy="229.5" r="2.6"/>
					</g>
					<g>
						<circle class="st5" cx="-201.6" cy="221.3" r="2.6"/>
					</g>
					<g>
						<circle class="st5" cx="-199.1" cy="211.3" r="2.6"/>
					</g>
					<g>
						<circle class="st5" cx="-189.7" cy="207" r="2.6"/>
					</g>
				</g>
				<circle class="st24" cx="-190" cy="218.9" r="6.6"/>
			</g>
			<g>
				<circle cx="-42.6" cy="218.9" r="22.3"/>
				<circle class="st23" cx="-42.6" cy="218.9" r="16.9"/>
				<g>
					<g>
						<circle class="st5" cx="-42.3" cy="207" r="2.6"/>
					</g>
					<g>
						<circle class="st5" cx="-33.1" cy="211.7" r="2.6"/>
					</g>
					<g>
						<circle class="st5" cx="-31" cy="221.8" r="2.6"/>
					</g>
					<g>
						<circle class="st5" cx="-37.6" cy="229.7" r="2.6"/>
					</g>
					<g>
						<circle class="st5" cx="-47.9" cy="229.5" r="2.6"/>
					</g>
					<g>
						<circle class="st5" cx="-54.2" cy="221.3" r="2.6"/>
					</g>
					<g>
						<circle class="st5" cx="-51.7" cy="211.3" r="2.6"/>
					</g>
					<g>
						<circle class="st5" cx="-42.3" cy="207" r="2.6"/>
					</g>
				</g>
				<circle class="st24" cx="-42.6" cy="218.9" r="6.6"/>
			</g>
			<path class="st25" d="M-247.6,205c0,0,35.9-0.9,35.1,1.6c-0.8,2.5-1.9,6.1-1.9,7.7c0,1.6-25.1,0-30.6,0.2
				C-250.5,214.6-250.3,205.2-247.6,205z"/>
			<path class="st25" d="M4.1,223.5c0,0-24.8-7.4-23.2-9.5c1.6-2.1,3.7-5.2,4.2-6.7s15.2,5.1,20.5,6.7
				C10.8,215.6,6.6,224.1,4.1,223.5z"/>
		</g>
	</g>
</g>
</svg>
