<?xml version="1.0" encoding="utf-8"?>
<!-- Generator: Adobe Illustrator 18.1.1, SVG Export Plug-In . SVG Version: 6.00 Build 0)  -->
<svg version="1.1" id="Layer_1" xmlns="http://www.w3.org/2000/svg" xmlns:xlink="http://www.w3.org/1999/xlink" x="0px" y="0px"
	 width="343.9px" height="137.3px" viewBox="-508.8 101 343.9 137.3" enable-background="new -508.8 101 343.9 137.3"
	 xml:space="preserve">
<symbol  id="_x2E_logo-pearson" viewBox="-130.9 -20.7 261.8 41.4">
	<path fill="#6B7482" d="M68.9,20.6c-10.7,0-19.7-9.1-19.7-20c0-12.3,8.4-21.3,19.9-21.3c10.9,0,19.7,9.5,19.7,21.3
		C88.8,11.7,79.8,20.6,68.9,20.6 M69-15.6c-9.2,0-12.5,9.6-12.5,16c0,5.9,3.4,15.1,12.4,15.1c8.6,0,12.5-8.7,12.5-14.9
		C81.4-7.4,77.2-15.6,69-15.6 M-118.4,20.6c7,0,14.5-3.1,14.5-11.8c0-8.4-8.2-13.4-16.7-13.4c0,1.4-0.1,2.8-0.1,4.3
		c6.5,0.5,9.9,3.6,9.9,8.8c0,4.4-3.6,7.6-8.8,7.6h-4.2c0-12.9,0.3-31.6,0.8-36.2c-2.8,0.5-5.1,0.6-7.9,0c0.7,5.6,1.1,35.5,0,40.8
		c0,0,5.2-0.2,6.4-0.2C-123.2,20.6-119.8,20.6-118.4,20.6 M-51.5,20.3c-2-7.9-10.5-30.8-14.6-40.5c2.7,0.4,5.5,0.3,6.8,0.1
		c1.4,4.4,2.8,9.5,3.5,11.5c4.2,0.3,9.2,0.3,14.2,0c1.5-4.1,2.4-7,3.8-11.5c2.6,0.3,5.2,0.2,8.1,0c-4,9.7-13.4,34.7-14.9,40.5
		C-46.7,20.1-49.3,20.1-51.5,20.3 M-54.2-3.2c0,0,3.9,11.5,5.2,15.5c0,0,4-11.4,5.5-15.5C-47.9-3.6-50.1-3.6-54.2-3.2 M-87.9-15.1
		c4.3-0.2,14.4,0.4,14.4,0.4c0-4.4-0.3-5.7-0.3-5.7c-3.8,0.5-15.2,0.8-21.4,0c0.9,9.9,0.6,30.3,0,40.8c5.7-0.5,16.6-0.4,21.3,0v-5.7
		c-4,0.4-10.3,0.8-13.9,0.7c0,0-0.1-9.4,0-11.9c6.4-0.5,11.2,0.3,13.2,0.4v-5.7c0,0-7.5,0.7-13.2,0.3C-87.9-5.2-87.9-10.8-87.9-15.1
		 M130.8-19.3c0-0.1,0.1-0.8,0.1-0.8c-1.8,0.3-4.4,0.3-6.1,0c-3.2,4.7-15.9,22.1-20.9,28.6c-0.2-9.5-0.3-23.8,0.3-28.5
		c-0.8,0-1.9,0-2.5,0c-1.7,0-2.5,0.1-4-0.1c0.8,4.9,1,35.1,0,40.4c2.4,0,4.4-0.1,5.1,0c0.6,0,1,0.1,1,0.1S117.5,2,124.6-7.5
		c0.1,3.6,0.4,21.8-0.3,27.9c1-0.1,2.1-0.5,3.3-0.5c1.1,0,2.2,0.3,3.3,0.5C130,12.7,129.6-13.5,130.8-19.3 M4.3,9.7
		c0-6.5-4.4-10.3-8.7-11.1c3.1-4,14.2-18.8,14.2-18.8c-2.8,0.4-6.9,0.4-9,0.1C-2.7-14.5-8.7-5.9-11-3.2c0,1.6-0.1,2.8-0.1,4.4
		c6.9-0.1,8.4,4.4,8.4,7.7c0,4.3-3.9,6.6-7.8,6.6h-3.4c-0.3-7.8,0.3-26.8,0.6-35.7c-2.7,0.3-5.7,0.2-7.8,0c0.9,6.5,0.8,36.1,0,40.6
		c0,0,4.3-0.3,6.1-0.2c1.7,0.1,3.2,0.2,5.2,0.2C-5.6,20.4,4.3,19.4,4.3,9.7 M33,2.9c4.4-2.8,7.8-5.5,7.8-11.5
		c0-8.7-6.8-11.8-12.7-11.8c-4.8,0-9.9,2.5-12.3,4.4c0.9,1.7,1.8,3.5,2.5,6c2.6-2.9,6.7-5,9.4-5c3.7,0,5.9,2,5.9,5.3
		c0.1,2.5-1.7,4.3-3.9,6.2c-1.7,1.4-5.8,4.1-6.8,4.9c-3.3,2.7-5.3,4.9-5.3,9.2c0,5.7,5.1,10,11.8,10c3.4,0,6.7-1,10.6-3.7
		c-1-1.4-2.3-3.7-3-5.8c-1.6,2.1-4,4.4-7.4,4.4c-3.2,0-5.2-1.8-5.2-4.8c0-1,0.7-2.1,2.1-3.4C28,6.2,30,4.8,33,2.9"/>
</symbol>
<use xlink:href="#_x2E_logo-pearson"  width="261.8" height="41.4" id="XMLID_2_" x="-130.9" y="-20.7" transform="matrix(0.9957 0 0 -0.9952 -336.8498 169.653)" overflow="visible"/>
<rect x="-508.8" y="101" fill="none" width="343.9" height="137.3"/>
</svg>
