<?xml version="1.0" encoding="utf-8"?>
<!-- Generator: Adobe Illustrator 18.1.1, SVG Export Plug-In . SVG Version: 6.00 Build 0)  -->
<svg version="1.1" id="Layer_1" xmlns="http://www.w3.org/2000/svg" xmlns:xlink="http://www.w3.org/1999/xlink" x="0px" y="0px"
	 width="343.9px" height="137.3px" viewBox="0 0 343.9 137.3" enable-background="new 0 0 343.9 137.3" xml:space="preserve">
<symbol  id="_x2E_logo-cresearch" viewBox="-127.1 -49.1 254.3 98.2">
	<g>
		<path fill="#6B7482" d="M-86.2-27.4c0,2.2-1.5,4.1-3.5,4.7c0,0,0,0,0,0c0,0,0,0,0,0c0.2,0.2,0.3,0.5,0.3,0.8
			c0,0.8-0.6,1.4-1.4,1.4c-0.8,0-1.4-0.6-1.4-1.4c0-0.3,0.1-0.5,0.2-0.7c0,0,0,0,0,0c-2.2-0.4-3.9-2.4-3.9-4.8
			c0-0.9,0.2-1.7,0.6-2.4c0,0,0,0,0,0c0,0,0,0,0,0c-0.2-0.3-0.3-0.7-0.3-1.2c0-1.4,1.1-2.5,2.5-2.5c0.9,0,1.6,0.5,2.1,1.1
			c0,0,0,0,0,0h0C-88.4-32.3-86.2-30.1-86.2-27.4z"/>
		<path fill="#6B7482" d="M97.6,18c0.2-0.4,0.6-0.6,1.1-0.6h1.1c0.7,0,1,0.4,0.6,1.1l-3.5,6.5c-0.3,0.6-0.6,0.9-0.6,0.9v0.1
			c2.1,0.7,3.5,2.9,3.5,5.3c0,2.5-1.2,4.3-3.1,5.1c-0.8,0.4-1.7,0.5-3.6,0.5h-5.2c-0.6,0-0.9-0.3-0.9-0.9c0,0,0-17.6,0-17.6
			c0-0.6,0.3-0.9,0.9-0.9h0.9c0.6,0,0.9,0.3,0.9,0.9v6.8h4.2L97.6,18z M89.6,27.4v7h3.2c1.2,0,1.8-0.1,2.3-0.3
			c1.2-0.5,1.8-1.6,1.8-3c0-2.2-1.3-3.6-3.5-3.6H89.6z"/>
		<path fill="#6B7482" d="M73.3,17.3h9.9c0.6,0,0.9,0.3,0.9,0.9v0.5c0,0.6-0.3,0.9-0.9,0.9H75v6.2h6.1c0.6,0,0.9,0.3,0.9,0.9v0.6
			c0,0.6-0.3,0.9-0.9,0.9H75v6.1h7.7c0.6,0,0.9,0.3,0.9,0.9v0.6c0,0.6-0.3,0.9-0.9,0.9h-9.5c-0.6,0-0.9-0.3-0.9-0.9V18.2
			C72.3,17.6,72.6,17.3,73.3,17.3z"/>
		<path fill="#6B7482" d="M126.3,9.9h-0.9c-0.6,0-0.9-0.3-0.9-0.9V1.4h-10.1V9c0,0.6-0.3,0.9-0.9,0.9h-0.9c-0.6,0-0.9-0.3-0.9-0.9
			V-8.6c0-0.6,0.3-0.9,0.9-0.9h0.9c0.6,0,0.9,0.3,0.9,0.9V-1h10.1v-7.6c0-0.6,0.3-0.9,0.9-0.9h0.9c0.6,0,0.9,0.3,0.9,0.9V9
			C127.1,9.6,126.8,9.9,126.3,9.9z"/>
		<path fill="#6B7482" d="M15.4,17.3h0.9c0.5,0,0.9,0.2,1,0.7l1.7,4.8h7.3l1.7-4.8c0.2-0.5,0.5-0.7,1-0.7H30c0.7,0,1,0.4,0.7,1
			L24.4,36c-0.2,0.5-0.5,0.7-1,0.7H22c-0.5,0-0.8-0.2-1-0.7l-6.4-17.6C14.4,17.7,14.7,17.3,15.4,17.3z M21.9,31.3
			c0.3,1,0.8,2.7,0.8,2.7h0.1c0,0,0.4-1.8,0.7-2.7l2.1-6.2h-5.9L21.9,31.3z"/>
		<path fill="#6B7482" d="M108-5.5c-0.4,0.5-0.8,0.5-1.3,0.1c-0.9-0.7-2.7-1.9-5.3-1.9c-4.5,0-7.2,3.6-7.2,7.7
			c0,4.1,2.7,7.4,7.2,7.4c2.3,0,4-1,4.9-1.5c0.5-0.3,0.9-0.3,1.3,0.2l0.4,0.5c0.3,0.5,0.3,0.9-0.2,1.3c-1,0.7-3.1,2-6.4,2
			c-5.8,0-9.9-4.3-9.9-9.9c0-5.7,3.9-10.2,9.9-10.2c3.5,0,5.9,1.6,6.9,2.5c0.4,0.4,0.5,0.8,0.1,1.3L108-5.5z"/>
		<path fill="#6B7482" d="M67,9.2c-0.2,0.5-0.5,0.7-1,0.7h-1.3c-0.5,0-0.9-0.2-1-0.7L57.3-8.4c-0.2-0.6,0.1-1.1,0.7-1.1h0.9
			c0.5,0,0.9,0.3,1,0.7l1.7,4.8H69l1.7-4.8c0.2-0.5,0.5-0.7,1-0.7h0.9c0.7,0,1,0.4,0.7,1.1L67,9.2z M62.4-1.6l2.2,6.2
			c0.3,1,0.8,2.7,0.8,2.7h0.1c0,0,0.4-1.8,0.7-2.7l2.1-6.2H62.4z"/>
		<path fill="#6B7482" d="M54.4-7.1h-8.1v6.2h6.1c0.6,0,0.9,0.3,0.9,0.9v0.5c0,0.6-0.3,0.9-0.9,0.9h-6.1v6.1H54
			c0.6,0,0.9,0.3,0.9,0.9V9c0,0.6-0.3,0.9-0.9,0.9h-9.5c-0.6,0-0.9-0.3-0.9-0.9V-8.6c0-0.6,0.3-0.9,0.9-0.9h9.9
			c0.6,0,0.9,0.3,0.9,0.9V-8C55.3-7.4,55-7.1,54.4-7.1z"/>
		<path fill="#6B7482" d="M85.9-1.9c-0.3,0.6-0.6,0.9-0.6,0.9V-1c2.1,0.7,3.5,2.9,3.5,5.3c0,2.5-1.2,4.3-3.1,5.1
			C85,9.8,84,9.9,82.1,9.9h-5.2C76.3,9.9,76,9.6,76,9V-8.6c0-0.6,0.3-0.9,0.9-0.9h0.9c0.6,0,0.9,0.3,0.9,0.9v6.8h4.2l3.8-7.1
			c0.2-0.4,0.6-0.6,1.1-0.6h1.1c0.7,0,1,0.4,0.6,1.1L85.9-1.9z M82.6,0.6h-3.9v7H82c1.2,0,1.8-0.1,2.3-0.3c1.2-0.5,1.8-1.6,1.8-3
			C86.1,2,84.7,0.6,82.6,0.6z"/>
		<path fill="#6B7482" d="M9.8,4.3c0,2.5-1.2,4.3-3.1,5.1C5.9,9.8,5,9.9,3.1,9.9h-5.2C-2.7,9.9-3,9.6-3,9V-8.6
			c0-0.6,0.3-0.9,0.9-0.9h0.9c0.6,0,0.9,0.3,0.9,0.9v6.8h4.2l3.8-7.1c0.2-0.4,0.5-0.6,1.1-0.6h1.1c0.7,0,1,0.4,0.6,1.1L6.9-1.9
			C6.6-1.3,6.3-1.1,6.3-1.1V-1C8.5-0.3,9.8,1.9,9.8,4.3z M3.6,0.6h-3.9v7h3.2c1.2,0,1.8-0.1,2.3-0.3C6.4,6.7,7,5.6,7,4.2
			C7,2,5.7,0.6,3.6,0.6z"/>
		<path fill="#6B7482" d="M30.8,5c0,1.7,1.5,2.7,3.5,2.7c1.7,0,2.8-0.7,3.6-1.1c0.5-0.3,0.9-0.3,1.2,0.3l0.4,0.7
			c0.2,0.5,0.2,0.9-0.3,1.2c-0.7,0.6-2.6,1.5-4.9,1.5c-3.5,0-6.3-2.1-6.3-5.4c0-6.1,9.4-5.1,9.4-9.4c0-1.7-1.3-2.8-3.4-2.8
			c-2.1,0-3.5,1.1-4.2,1.6c-0.5,0.3-0.9,0.3-1.2-0.2L28-6.5c-0.4-0.5-0.2-0.9,0.1-1.3c0.9-0.7,3-2,5.8-2c3.9,0,6.2,2.5,6.2,5.5
			C40.1,2,30.8,0.8,30.8,5z"/>
		<path fill="#6B7482" d="M23.2-25.8L23.2-25.8l5.3,8.4c0.3,0.5,0.1,0.8-0.5,0.8h-0.7c-0.4,0-0.6-0.1-0.8-0.5L21.6-25h-3.3v7.7
			c0,0.4-0.2,0.7-0.7,0.7h-0.6c-0.4,0-0.7-0.2-0.7-0.7v-18c0-0.4,0.2-0.7,0.7-0.7h0.6c0.4,0,0.7,0.3,0.7,0.7v8.6h3.3l5.3-8.8
			c0.2-0.3,0.4-0.5,0.8-0.5h0.8c0.5,0,0.7,0.4,0.4,0.8L23.2-25.8z"/>
		<path fill="#6B7482" d="M12.3,21.3c-0.4,0.5-0.8,0.5-1.3,0.1c-0.9-0.7-2.7-1.9-5.3-1.9c-4.5,0-7.2,3.5-7.2,7.7
			c0,4.1,2.7,7.4,7.2,7.4c2.3,0,4-1,4.9-1.5c0.5-0.3,0.9-0.3,1.3,0.2l0.4,0.5c0.3,0.5,0.3,0.9-0.2,1.3c-1,0.7-3.1,2-6.4,2
			c-5.8,0-9.9-4.3-9.9-9.9c0-5.7,3.9-10.2,9.9-10.2c3.5,0,5.9,1.6,6.9,2.5c0.4,0.4,0.5,0.8,0.1,1.3L12.3,21.3z"/>
		<path fill="#6B7482" d="M25.5-8.6V-8c0,0.6-0.3,0.9-0.9,0.9h-8.1v6.2h6.1c0.6,0,0.9,0.3,0.9,0.9v0.5c0,0.6-0.3,0.9-0.9,0.9h-6.1
			v6.1h7.7c0.6,0,0.9,0.3,0.9,0.9V9c0,0.6-0.3,0.9-0.9,0.9h-9.5c-0.6,0-0.9-0.3-0.9-0.9V-8.6c0-0.6,0.3-0.9,0.9-0.9h9.9
			C25.2-9.5,25.5-9.2,25.5-8.6z"/>
		<path fill="#6B7482" d="M11.1-16.6h-0.5c-0.4,0-0.7-0.2-0.7-0.7v-11.8c0-3.4-2.2-5.4-5.5-5.4c-3.3,0-5.5,2-5.5,5.3v11.9
			c0,0.4-0.3,0.7-0.7,0.7h-0.6c-0.4,0-0.7-0.2-0.7-0.7v-11.9c0-4.3,3-7.1,7.4-7.1c4.4,0,7.4,2.8,7.4,7.1v11.9
			C11.7-16.8,11.5-16.6,11.1-16.6z"/>
		<path fill="#6B7482" d="M34.3,17.3h0.9c0.6,0,0.9,0.3,0.9,0.9v11.7c0,1.1-0.2,2.8-0.2,2.8H36c0,0,0.9-1.8,1.6-2.8l8.3-12
			c0.2-0.4,0.6-0.6,1.1-0.6h1c0.6,0,0.9,0.3,0.9,0.9v17.6c0,0.6-0.3,0.9-0.9,0.9h-0.9c-0.6,0-0.9-0.3-0.9-0.9V24.1
			c0-1.1,0.2-2.8,0.2-2.8h-0.1c0,0-0.9,1.8-1.6,2.8l-8.3,12c-0.3,0.4-0.6,0.6-1.1,0.6h-1c-0.6,0-0.9-0.3-0.9-0.9V18.2
			C33.4,17.6,33.7,17.3,34.3,17.3z"/>
		<path fill="#6B7482" d="M62.1,17c3.5,0,5.9,1.6,6.9,2.5c0.4,0.4,0.5,0.8,0.1,1.3l-0.4,0.6c-0.4,0.5-0.8,0.5-1.3,0.1
			c-0.9-0.7-2.7-1.9-5.3-1.9c-4.5,0-7.2,3.5-7.2,7.7c0,4.1,2.7,7.4,7.2,7.4c2.3,0,4-1,4.9-1.5c0.5-0.3,0.9-0.3,1.3,0.2l0.4,0.5
			c0.3,0.5,0.3,0.9-0.2,1.3c-1,0.7-3.1,2-6.4,2c-5.8,0-9.9-4.3-9.9-9.9C52.2,21.5,56.1,17,62.1,17z"/>
		<path fill="#6B7482" d="M-68.1,40.8c2.2,0,4,1.8,4,3.9c0,2.2-1.8,4-4,4s-3.9-1.8-3.9-4C-72,42.6-70.3,40.8-68.1,40.8z"/>
		<path fill="#6B7482" d="M-100.6,31.3c0-1.3,1-2.3,2.3-2.3c1.3,0,2.3,1,2.3,2.3c0,1.3-1,2.3-2.3,2.3
			C-99.6,33.6-100.6,32.5-100.6,31.3z"/>
		<path fill="#6B7482" d="M-116.3,38.2c0.8,0,1.4,0.6,1.4,1.4c0,0.8-0.6,1.4-1.4,1.4s-1.4-0.6-1.4-1.4
			C-117.7,38.8-117,38.2-116.3,38.2z"/>
		<path fill="#6B7482" d="M-91.9,44c0.8,0,1.4,0.6,1.4,1.4c0,0.8-0.6,1.4-1.4,1.4c-0.8,0-1.4-0.6-1.4-1.4
			C-93.3,44.6-92.6,44-91.9,44z"/>
		<path fill="#6B7482" d="M-97.2,21.6c0,1.4-1.1,2.5-2.5,2.5c-1.4,0-2.5-1.1-2.5-2.5c0-1.4,1.1-2.5,2.5-2.5
			C-98.3,19.2-97.2,20.3-97.2,21.6z"/>
		<path fill="#6B7482" d="M-112.9,26.7c1.3,0,2.4,1.1,2.4,2.4c0,1.3-1.1,2.4-2.4,2.4c-1.3,0-2.4-1.1-2.4-2.4
			C-115.3,27.8-114.3,26.7-112.9,26.7z"/>
		<path fill="#6B7482" d="M-90.2,32.4c0.3,0,0.5,0,0.8,0.1c0.1,0,0.1,0.1,0.2,0.1c-0.1,0-0.1-0.1-0.2-0.1c0.6,0.1,1.2,0.4,1.7,0.8
			c0,0,0,0,0,0c-0.5-0.4-1-0.7-1.7-0.8c-0.9-0.7-1.4-1.9-1.4-3.1c0-2.2,1.8-4.1,4.1-4.1s4.1,1.8,4.1,4.1c0,2.2-1.8,4.1-4.1,4.1
			c-0.3,0-0.6,0-0.9-0.1c0.8,0.7,1.2,1.6,1.2,2.7c0,1.2-0.5,2.2-1.4,2.9c-0.2,0.1-0.4,0.2-0.5,0.3c-0.5,0.3-1.1,0.5-1.8,0.5
			c-2,0-3.7-1.6-3.7-3.7S-92.3,32.4-90.2,32.4z"/>
		<path fill="#6B7482" d="M-102.5,31.9c1.8,0,3.2,1.4,3.2,3.2c0,1.8-1.4,3.2-3.2,3.2s-3.2-1.4-3.2-3.2
			C-105.7,33.3-104.3,31.9-102.5,31.9z"/>
		<path fill="#6B7482" d="M-112.3,19c0-1.5,1.2-2.7,2.7-2.7c1.5,0,2.7,1.2,2.7,2.7c0,1.5-1.2,2.7-2.7,2.7
			C-111.1,21.8-112.3,20.5-112.3,19z"/>
		<path fill="#6B7482" d="M-117.9,9.5C-117.9,9.5-117.9,9.5-117.9,9.5c-1.4,0-2.5-1.1-2.5-2.5c0-1.4,1.1-2.5,2.5-2.5h0
			c1.4,0,2.5,1.1,2.5,2.4C-115.4,8.4-116.6,9.5-117.9,9.5z"/>
		<path fill="#6B7482" d="M-125.3,14.8c1,0,1.8,0.8,1.9,1.8c0,1-0.8,1.9-1.8,1.9h0c-1,0-1.9-0.8-1.9-1.8
			C-127.1,15.7-126.3,14.8-125.3,14.8L-125.3,14.8z"/>
		<path fill="#6B7482" d="M-124.4-16.5c-1,0-1.9-0.8-1.9-1.8c0-1,0.8-1.9,1.8-1.9c0,0,0,0,0,0c1,0,1.8,0.8,1.8,1.8
			C-122.6-17.3-123.4-16.5-124.4-16.5z"/>
		<path fill="#6B7482" d="M-101.4-10.4C-101.4-10.4-101.4-10.4-101.4-10.4c1.4,0,2.5,1.1,2.5,2.4c0,1.4-1.1,2.5-2.5,2.5
			c-1.4,0-2.5-1.1-2.5-2.5C-103.9-9.2-102.8-10.4-101.4-10.4z"/>
		<path fill="#6B7482" d="M-98.3,1.7C-98.3,1.7-98.3,1.7-98.3,1.7c1.4,0,2.5,1.1,2.5,2.4c0,1.4-1.1,2.5-2.5,2.5h0
			c-1.4,0-2.5-1.1-2.5-2.4C-100.7,2.9-99.6,1.7-98.3,1.7z"/>
		<path fill="#6B7482" d="M-97.3,23.5c0-1.9,1.5-3.4,3.4-3.4h0c1.9,0,3.4,1.5,3.4,3.4c0,1.9-1.5,3.4-3.4,3.4c0,0,0,0,0,0
			C-95.8,26.9-97.3,25.4-97.3,23.5z"/>
		<path fill="#6B7482" d="M-82.5-12.9C-82.5-12.9-82.5-12.9-82.5-12.9c1.4,0,2.6,1.1,2.6,2.6c0,1.1-0.7,2-1.6,2.4
			c0.3,0.6,0.5,1.2,0.5,2c0,1.6-0.9,2.9-2.2,3.6c0,0,0,0,0,0c0.9,0.3,1.6,1.2,1.6,2.2c0,0.8-0.3,1.4-0.9,1.9c0,0,0,0,0,0
			c0,0,0,0,0,0c0.3,0.5,0.5,1.1,0.5,1.7c0,1.7-1.4,3.1-3.1,3.1c0,0,0,0,0,0c-1.3,0-2.3-0.7-2.8-1.8c0,0,0,0,0,0c0,0,0,0,0,0
			c0,0,0,0,0,0c-0.1,1.9-1.7,3.4-3.6,3.5c0,0,0,0,0,0c-2,0-3.6-1.6-3.7-3.6c0-2,1.6-3.7,3.6-3.7c0,0,0,0,0,0c1.5,0,2.9,0.9,3.4,2.3
			c0.1-1.2,0.9-2.2,2-2.6c0,0,0,0,0,0c-0.1-0.2-0.1-0.4-0.1-0.6c0-0.3,0-0.5,0.1-0.7c0,0,0,0,0,0c0-0.1,0.1-0.2,0.1-0.3
			C-86-1.1-86.1-1-86.1-0.8c-0.3,0.2-0.7,0.4-1.1,0.4c-0.9,0-1.6-0.6-1.8-1.3c0,0,0,0,0,0c0,1.3-1.1,2.4-2.5,2.4c0,0,0,0,0,0
			c-1.4,0-2.5-1.1-2.5-2.4c0-1.4,1.1-2.5,2.5-2.5c0,0,0,0,0,0c1.1,0,2.1,0.8,2.4,1.8c0,0,0,0,0,0c0,0,0,0,0,0c0-0.5,0.2-1,0.6-1.3
			c0,0,0,0,0,0c0,0,0,0,0.1-0.1c0,0,0,0,0,0c0,0,0,0-0.1,0.1c-1.4,0-2.6-0.9-3.2-2c0,0,0,0,0,0c0,0,0,0,0,0c0,0,0,0,0,0
			c-0.4,1.1-1.6,2-2.9,2h0c-1.7,0-3.1-1.4-3.1-3.1c0-1.7,1.4-3.1,3.1-3.1c0,0,0,0,0,0c1.1,0,2.1,0.6,2.7,1.5
			c0.5-1.5,1.8-2.6,3.5-2.6c0,0,0,0,0,0c1,0,2,0.4,2.6,1.1c0.3-0.1,0.5-0.1,0.8-0.1c0,0,0,0,0,0c0,0,0,0,0,0c0-0.1,0-0.2,0-0.3
			C-85.1-11.8-83.9-12.9-82.5-12.9z M-85-10L-85-10C-85-10-85-10-85-10C-85-10-85-10-85-10z M-86.2,0.5C-86.2,0.5-86.2,0.5-86.2,0.5
			C-86.2,0.5-86.2,0.5-86.2,0.5C-86.2,0.5-86.2,0.5-86.2,0.5z M-85.5-1.7C-85.5-1.7-85.5-1.7-85.5-1.7c-0.1,0.2-0.1,0.3-0.2,0.4
			C-85.7-1.4-85.6-1.5-85.5-1.7z M-88.5-3.7C-88.5-3.7-88.5-3.7-88.5-3.7C-88.5-3.7-88.5-3.7-88.5-3.7C-88.5-3.7-88.5-3.7-88.5-3.7
			C-88.5-3.7-88.5-3.7-88.5-3.7z"/>
		<path fill="#6B7482" d="M-52.4,42.6C-52.4,42.6-52.4,42.6-52.4,42.6C-52.4,42.6-52.4,42.6-52.4,42.6
			C-52.4,42.6-52.4,42.6-52.4,42.6c-0.4-0.7-0.7-1.5-0.7-2.4c0-1.5,0.8-2.8,1.9-3.6c0,0,0,0,0,0c0,0,0,0,0,0v0l0,0
			c-0.2-0.3-0.3-0.7-0.3-1.1c0-0.4,0.1-0.7,0.3-1.1c0,0,0,0,0,0c-0.1-0.2-0.2-0.4-0.2-0.7c0-0.8,0.6-1.4,1.4-1.4
			c0.6,0,1.2,0.4,1.3,1c0.9,0.3,1.6,1.1,1.6,2.1c0,0.2,0,0.5-0.1,0.7l0,0c0.9,0.3,1.7,1,2.2,1.8c-0.1-0.2-0.1-0.4-0.1-0.6
			c0-0.6,0.3-1.2,0.7-1.5c0,0,0,0,0,0c0,0,0,0,0,0c-1.4-0.3-2.5-1.5-2.5-3c0-1.2,0.7-2.3,1.8-2.8v0l0,0c-0.8-0.8-1.2-1.9-1.2-3.1
			c0-1,0.3-1.9,0.9-2.7c0,0,0,0,0,0c0,0,0,0,0,0c0,0,0,0,0,0c0,0,0,0,0,0c-1.1-0.2-1.9-1.2-1.9-2.4c0-1.4,1.1-2.5,2.5-2.5
			c0.3,0,0.6,0.1,0.9,0.2c0,0,0,0,0,0c0,0,0,0,0,0c0.4-0.6,1.2-1.1,2-1.1c0.3,0,0.7,0.1,1,0.2l0,0c0-0.1,0-0.2,0-0.3
			c0-1.4,1.1-2.5,2.5-2.5s2.5,1.1,2.5,2.5c0,0.6-0.2,1.1-0.5,1.5c0,0,0,0,0,0c0,0,0,0,0,0c0,0,0,0,0,0c0,0,0,0,0,0
			c0,0.1,0.1,0.1,0.1,0.2c0,0,0,0,0,0c0,0,0,0,0,0c0,0,0,0,0,0c0,0,0,0,0,0c0.7-0.6,1.6-0.9,2.6-0.9c2.3,0,4.1,1.8,4.1,4.1
			c0,0.5-0.1,0.9-0.2,1.3c0,0,0,0,0,0c0,0,0,0,0,0v0c0.4-0.3,1-0.4,1.5-0.4c1.4,0,2.5,0.9,2.9,2.1c0,0,0,0,0,0c0,0,0,0,0,0
			c0,0,0,0,0,0c0,0,0,0,0,0c2,0.2,3.6,1.9,3.6,3.9c0,2.2-1.8,3.9-3.9,3.9c-0.3,0-0.6,0-0.9-0.1c-0.3,0.5-0.7,0.9-1.2,1.2
			c0,0,0,0,0,0c0,0,0,0,0,0c0.1,0.3,0.2,0.7,0.2,1c0,1.7-1.4,3-3,3c-0.1,0-0.3,0-0.4,0c0,0,0,0,0,0c-0.2,1.2-1.2,2.1-2.4,2.1
			c-0.9,0-1.8-0.5-2.2-1.3c0.1,0.3,0.2,0.6,0.2,1c0,1.7-1.3,3-3,3c-1.7,0-3-1.3-3-3c0-0.8,0.3-1.6,0.8-2.1c0,0,0,0,0,0
			c-0.1-0.1-0.1-0.1-0.2-0.2c0,0,0,0,0,0c0,0,0,0,0,0c-0.4,0.5-1,0.8-1.6,0.8c-0.7,0-1.3-0.3-1.7-0.8c0.1,0.3,0.2,0.7,0.3,1
			c-0.1,0-0.2,0-0.3,0c0,0,0,0,0,0c0,0,0,0,0,0c0.1,0,0.2,0,0.3,0c0,0,0,0,0,0c0,0,0,0,0,0c1.1,0.2,1.9,1.1,1.9,2.2
			c0,1.2-1,2.2-2.2,2.2c-0.5,0-0.9-0.1-1.3-0.4c-0.2,0.2-0.5,0.3-0.7,0.5c0,0,0,0,0,0c0,0,0,0,0,0c0,0,0,0,0,0c0,0,0,0,0.1,0
			c1,0,1.7,0.8,1.7,1.7c0,1-0.8,1.7-1.7,1.7c-0.7,0-1.4-0.5-1.6-1.1c-0.4,1.1-1.5,1.9-2.8,1.9c-1.7,0-3-1.4-3-3
			C-54,44.1-53.4,43.1-52.4,42.6z M-48.7,33.3C-48.7,33.3-48.7,33.3-48.7,33.3C-48.7,33.3-48.7,33.3-48.7,33.3
			C-48.7,33.3-48.7,33.3-48.7,33.3C-48.7,33.3-48.7,33.3-48.7,33.3z M-51.2,34.4C-51.2,34.4-51.2,34.4-51.2,34.4
			C-51.2,34.4-51.2,34.4-51.2,34.4C-51.2,34.4-51.2,34.4-51.2,34.4z M-32.8,27C-32.8,27-32.8,27-32.8,27C-32.8,27-32.8,27-32.8,27
			C-32.8,27-32.8,27-32.8,27c0,0.2,0.1,0.4,0.1,0.6c0,1.3-1,2.4-2.3,2.5c0.6,0.2,1.1,0.5,1.5,0.9c0,0,0,0,0,0c0,0,0,0,0,0l0,0
			c0,0,0,0,0,0c0.3-1.1,1.2-2,2.3-2.4c0,0,0,0,0,0c0.1-0.1,0.3-0.1,0.5-0.1c-0.2,0-0.3,0.1-0.5,0.1c-0.2-0.4-0.3-0.9-0.3-1.4
			c0-0.2,0-0.5,0.1-0.7C-31.9,26.7-32.4,26.9-32.8,27C-32.8,27-32.8,27-32.8,27z M-38,23.6C-38,23.6-38,23.6-38,23.6
			C-38,23.6-38,23.6-38,23.6C-38,23.6-38,23.6-38,23.6C-38,23.6-38,23.6-38,23.6z M-37,25.8c-0.6-0.6-0.9-1.4-1-2.3c0,0,0,0,0,0
			c-0.2,0.1-0.4,0.1-0.7,0.1c-0.1,0-0.1,0-0.2,0c0,0,0,0,0,0c0.8,0.7,1.3,1.7,1.4,2.9c0,0,0,0,0,0C-37.3,26.3-37.2,26-37,25.8
			C-37,25.8-37,25.8-37,25.8C-37,25.8-37,25.8-37,25.8C-37,25.8-37,25.8-37,25.8z M-32.6,34.5C-32.6,34.5-32.6,34.5-32.6,34.5
			C-32.6,34.5-32.6,34.5-32.6,34.5C-32.6,34.5-32.6,34.5-32.6,34.5z M-30.5,28.3c0.2,0,0.3,0,0.5,0c0.1,0,0.1,0,0.2,0c0,0,0,0,0,0
			c-0.1,0-0.1,0-0.2,0C-30.2,28.3-30.4,28.3-30.5,28.3z M-27,33.9C-27,33.9-27,33.9-27,33.9C-27,33.9-27,33.9-27,33.9
			C-27,33.9-27,33.9-27,33.9C-27,33.9-27,33.9-27,33.9z M-32.6,34.5L-32.6,34.5L-32.6,34.5L-32.6,34.5z M-37.6,28.2L-37.6,28.2
			L-37.6,28.2c-0.5,1.6-1.9,2.9-3.6,3.1c0,0,0,0,0,0c0,0,0,0,0,0v0c0,0,0,0,0,0c0.2,0.4,0.4,0.9,0.4,1.5c0,1.1-0.5,2-1.4,2.5
			c0,0,0,0,0,0c0,0,0,0,0,0c0.4,0.2,0.7,0.4,1,0.8c0.4-0.4,0.9-0.7,1.5-0.7c0.1,0,0.2,0,0.4,0c0,0,0,0,0,0c0,0,0,0,0,0
			c-0.3-0.5-0.5-1.2-0.5-1.9c0-2,1.6-3.7,3.7-3.7c0,0,0,0,0.1,0C-36.8,29.6-37.4,28.9-37.6,28.2z M-31.5,39.1
			C-31.5,39.1-31.5,39.1-31.5,39.1C-31.5,39.1-31.5,39.1-31.5,39.1C-31.5,39.1-31.5,39.1-31.5,39.1z M-36.3,39.6
			c0,0.1,0.1,0.2,0.1,0.3C-36.2,39.8-36.3,39.7-36.3,39.6c-0.1-0.2-0.1-0.5-0.1-0.7c0-0.6,0.2-1.2,0.6-1.6c0,0,0,0,0,0
			c-0.1,0-0.2,0-0.3,0c-0.5,0-1.1-0.1-1.5-0.3c0.1,0.2,0.1,0.4,0.1,0.6c0,0.3-0.1,0.5-0.1,0.8c0,0,0,0,0,0c0,0,0,0,0,0c0,0,0,0,0,0
			C-37.1,38.5-36.6,39-36.3,39.6z M-41.1,38.8C-41.1,38.8-41.1,38.8-41.1,38.8C-41.1,38.8-41.1,38.8-41.1,38.8
			C-41.1,38.8-41.1,38.8-41.1,38.8z M-45.9,43.6C-45.9,43.6-45.9,43.6-45.9,43.6L-45.9,43.6C-45.9,43.6-45.9,43.6-45.9,43.6z
			 M-47.7,44.5c-0.1,0-0.3,0.1-0.4,0.1c0,0,0,0,0,0c0,0,0,0,0,0c0,0,0,0,0,0c0,0.1,0,0.2,0.1,0.3c0,0,0,0,0,0c0,0,0,0,0,0
			c0,0,0,0,0,0C-47.9,44.7-47.8,44.6-47.7,44.5C-47.7,44.5-47.7,44.5-47.7,44.5C-47.7,44.5-47.7,44.5-47.7,44.5z M-48.2,46.4
			C-48.2,46.4-48.2,46.4-48.2,46.4C-48.2,46.4-48.2,46.4-48.2,46.4C-48.2,46.4-48.2,46.4-48.2,46.4z"/>
		<path fill="#6B7482" d="M-62.7,41.9C-62.7,41.9-62.7,41.9-62.7,41.9c-0.4-0.5-0.7-1.1-0.7-1.8c0-1.4,1-2.5,2.4-2.6
			c-0.5-0.3-0.9-0.9-0.9-1.6c0-1.1,0.9-1.9,1.9-1.9c1.1,0,1.9,0.9,1.9,1.9c0,0.9-0.7,1.7-1.6,1.9c0.8,0.4,1.4,1.3,1.4,2.3
			c0,0,0,0,0,0c0,0,0,0,0,0c2.2,0.4,3.8,2.2,3.8,4.5c0,2.5-2,4.6-4.6,4.6c-2.5,0-4.6-2-4.6-4.6C-63.6,43.6-63.3,42.7-62.7,41.9
			C-62.7,41.9-62.7,41.9-62.7,41.9z"/>
		<path fill="#6B7482" d="M-55.1,39.5c-1.5,0-2.7-1.2-2.7-2.7c0-1.5,1.2-2.7,2.7-2.7c1.5,0,2.7,1.2,2.7,2.7
			C-52.4,38.3-53.6,39.5-55.1,39.5z"/>
		<path fill="#6B7482" d="M-77.7,42c1.5,0,2.7,1.2,2.7,2.7c0,1.5-1.2,2.7-2.7,2.7c-1.5,0-2.7-1.2-2.7-2.7
			C-80.4,43.2-79.2,42-77.7,42z"/>
		<path fill="#6B7482" d="M-88,38.9c0.3-0.1,0.5-0.2,0.8-0.2c1.1,0,2,0.9,2,2c0,1.1-0.9,2-2,2c-1.1,0-2-0.9-2-2
			c0-0.6,0.3-1.1,0.7-1.5C-88.3,39.2-88.1,39.1-88,38.9z"/>
		<path fill="#6B7482" d="M-103.9,5.7c1.8,0,3.3,1.5,3.3,3.3c0,1.8-1.5,3.3-3.3,3.3c-1.8,0-3.3-1.5-3.3-3.3
			C-107.2,7.2-105.7,5.7-103.9,5.7z"/>
		<path fill="#6B7482" d="M-23.5-24.9C-23.5-24.9-23.5-24.9-23.5-24.9c-0.1,0-0.3,0-0.4,0c-1.4,0-2.5-1.1-2.5-2.5c0,0,0,0,0,0
			c0,1.4,1.1,2.5,2.5,2.5C-23.8-24.9-23.6-24.9-23.5-24.9c-0.8,0.7-1.8,1.1-3,1.1c-0.2,0-0.4,0-0.6,0c0,0,0,0,0,0c0,0,0,0,0,0
			c0.1,0.2,0.1,0.4,0.1,0.6c0,1.4-1.1,2.5-2.5,2.5c-0.6,0-1.2-0.2-1.6-0.6c0,0,0,0,0,0c0,0,0,0,0,0c0,0,0,0,0,0c0,0.1,0,0.1,0,0.2
			c0,2.7-2.2,4.9-4.9,4.9c-0.3,0-0.6,0-0.9-0.1c0,0,0,0,0,0c0,0,0,0,0,0c0.1,0.2,0.1,0.4,0.1,0.6c0,1.4-1.1,2.5-2.5,2.5
			c-1.4,0-2.5-1.1-2.5-2.5c0-1.2,0.8-2.1,1.9-2.4c-0.2-0.2-0.3-0.5-0.5-0.7v0c0,0,0,0,0,0c0,0,0,0,0,0c-0.3,0.7-1,1.3-1.8,1.5
			c-0.3,0.1-0.5,0.1-0.8,0.1c-1.2,0-2.4-0.8-2.7-2.1c-0.1-0.3-0.1-0.7-0.1-1c0,0,0,0,0,0c0,0,0,0,0,0c-0.1,0-0.2,0.1-0.3,0.1
			c-0.2,0-0.3,0.1-0.5,0.1c-0.8,0-1.6-0.5-1.8-1.3c0-0.1-0.1-0.3-0.1-0.4c-0.2,0.1-0.5,0.2-0.8,0.2c-0.6,0-1.1-0.4-1.3-1
			c0,0,0,0,0,0c-0.2,0.1-0.5,0.1-0.7,0.1c-1.2,0-2.2-0.9-2.4-2c0,0,0,0,0,0c-0.8,0.7-1.9,1.2-3.1,1.2c-1.5,0-2.8-0.7-3.7-1.8
			c0,0,0,0,0,0c0,0,0,0,0,0c-0.5,0.5-1.3,0.9-2.1,0.9c-0.4,0-0.8-0.1-1.2-0.2c0,0,0,0,0,0c0,0,0,0,0,0c-0.7,0.8-1.7,1.4-2.8,1.4
			c-0.9,0-1.7-0.3-2.3-0.8c0,0,0,0,0,0c0,0,0,0,0,0c0,0,0,0,0,0c-0.1,0.1-0.2,0.2-0.3,0.3c0,0,0,0,0,0c-0.2,1.2-1.2,2.2-2.4,2.2
			c-0.4,0-0.7-0.1-1-0.2c0,0,0,0,0,0c-0.1,1.5-1.3,2.6-2.7,2.6c-0.4,0-0.8-0.1-1.1-0.2c0,0,0,0,0,0c0.2,0.5,0.4,1.1,0.4,1.8
			c0,2.4-1.9,4.3-4.3,4.3c-2.3,0-4.1-1.7-4.3-4c0,0,0,0,0,0c-0.4,0.3-0.9,0.5-1.4,0.5c-1.4,0-2.5-1.1-2.5-2.5c0-1.4,1.1-2.5,2.5-2.5
			c1,0,1.9,0.6,2.3,1.5c0,0,0,0,0,0c0,0,0,0,0,0c0.5-0.6,1.1-1.1,1.9-1.4c0,0,0,0,0,0c-0.3-0.4-0.5-0.9-0.5-1.5
			c0-0.7,0.3-1.4,0.8-1.9c0,0,0,0,0,0c-1.1-0.4-1.9-1.5-1.9-2.7c0-1.6,1.3-2.9,2.9-2.9c1.6,0,2.9,1.3,2.9,2.9c0,0.9-0.4,1.7-1.1,2.3
			c0,0,0,0,0,0c0,0,0,0,0,0c0.7,0.3,1.2,1,1.4,1.7c0,0,0,0,0,0c0,0,0,0,0,0c0.5-0.6,1.2-0.9,2-0.9c0.5,0,0.9,0.1,1.3,0.3
			c0,0,0,0,0,0c0-0.2,0.1-0.3,0.1-0.5c0,0,0,0,0,0v0c-0.2-0.4-0.3-0.8-0.3-1.3c0-0.6,0.2-1.2,0.5-1.7c0,0,0,0,0,0c0,0,0,0,0,0
			c-1.8,0-3.2-1.2-3.8-2.8c0,0,0,0,0,0c0,0,0,0,0,0c-0.2,0.1-0.5,0.1-0.7,0.1c-0.9,0-1.8-0.5-2.2-1.3c0,0,0,0,0,0c0,0,0,0,0,0
			c-0.2,0-0.4,0-0.6-0.1c-2.1-0.4-3.6-2.5-3.2-4.6c0.4-1.9,2-3.2,3.9-3.2c0.2,0,0.5,0,0.7,0.1c2.1,0.4,3.6,2.5,3.2,4.6
			c0,0,0,0.1,0,0.1c0.7-0.6,1.6-1,2.6-1c-0.2-0.3-0.3-0.7-0.3-1.2c0-1.4,1.1-2.5,2.5-2.5c1.4,0,2.5,1.1,2.5,2.5c0,1.1-0.7,2-1.7,2.3
			c0.7,0.7,1.2,1.8,1.2,2.9c0,1-0.4,2-1,2.7c0,0,0,0,0,0c0,0,0,0,0,0c0.3,0.1,0.6,0.2,0.9,0.3c-0.1,0.1-0.1,0.2-0.1,0.3
			c0-0.1,0.1-0.2,0.1-0.3c0,0,0,0,0,0c0.5-0.9,1.4-1.5,2.4-1.7c0,0,0,0,0,0c0,0,0,0,0,0c-0.1-0.3-0.2-0.7-0.2-1
			c0-1.4,1.1-2.5,2.5-2.6c0,0,0,0,0,0c0,0,0,0,0,0c-0.4-0.5-0.6-1.1-0.6-1.8c0-0.1,0-0.2,0-0.2c-0.2,0-0.4,0.1-0.6,0.1
			c-1.4,0-2.6-1.2-2.6-2.6c0-0.2,0-0.4,0.1-0.6c0,0,0,0,0,0c0,0,0,0,0,0c0,0,0,0,0,0c0,0,0,0,0,0c-1.8-0.4-3.1-2-3.1-3.8
			c0-2.2,1.8-3.9,3.9-3.9c2.2,0,4,1.8,4,3.9c0,0.9-0.3,1.7-0.8,2.4c0,0,0,0,0,0c0,0,0,0,0,0c0,0,0,0,0,0c0,0,0,0,0,0
			c0.6,0.5,1,1.2,1.1,2c0,0,0,0,0,0c0,0,0,0,0,0c0,0,0,0,0,0c0,0,0,0,0,0c0.3-0.1,0.7-0.2,1-0.2c0.9,0,1.7,0.4,2.3,1
			c0-0.1,0-0.1,0-0.2c0-0.3,0.1-0.6,0.2-0.9c0,0,0,0,0,0c0,0,0,0,0,0c-0.6-0.7-1-1.6-1-2.6c0-0.2,0-0.5,0.1-0.7c0,0,0,0,0,0
			c0,0,0,0,0,0c0,0,0,0,0,0c0,0,0,0,0,0c-0.1,0-0.2,0-0.3,0c-1.1,0-1.9-0.8-1.9-1.9c0-1,0.8-1.9,1.9-1.9h0c0.8,0,1.5,0.5,1.8,1.3
			l0,0l0,0c0,0,0,0,0,0c0.7-0.5,1.5-0.8,2.3-0.8c2.2,0,4,1.8,4,4c0,0.9-0.3,1.8-0.9,2.5c0,0,0,0,0,0c0,0,0,0,0,0
			c0.6-0.3,1.4-0.4,2.1-0.4c0.2,0,0.4,0,0.6,0c0,0,0,0,0,0c0,0,0,0,0,0c0.2-1,1.1-1.7,2.2-1.7c1.2,0,2.2,1,2.2,2.2
			c0,0.6-0.3,1.2-0.7,1.6c0.2,0.3,0.4,0.6,0.5,0.9c0,0,0,0,0-0.1c0-1.2,0.6-2.2,1.4-2.9c0,0,0,0,0,0c0,0,0,0,0,0
			c-0.4-0.4-0.6-0.9-0.6-1.5c0-1.2,1-2.2,2.2-2.2s2.2,1,2.2,2.2c0,0.4-0.1,0.8-0.3,1.1c0,0,0,0,0,0c0,0,0,0,0,0l0,0
			c0.3,0.1,0.6,0.3,0.8,0.5c0,0,0,0,0,0c0,0,0,0,0,0v0c-0.1-0.2-0.1-0.5-0.1-0.7c0-0.8,0.3-1.5,0.8-2c0,0,0,0,0,0c0,0,0,0,0,0
			c-0.7,0-1.3-0.6-1.3-1.4c0-0.8,0.6-1.4,1.4-1.4s1.4,0.6,1.4,1.4c0,0.2,0,0.4-0.1,0.5c0,0,0,0,0,0c0,0,0,0,0,0l0,0
			c0.3-0.1,0.6-0.1,0.8-0.1c1.4,0,2.6,1,2.9,2.3c0,0,0,0,0,0c0,0,0,0,0,0c0.2,0,0.4-0.1,0.5-0.1c1.2,0,2.2,1,2.2,2.1
			c0,1.2-1,2.1-2.2,2.1c-0.5,0-0.9-0.2-1.3-0.4c0,0.1,0,0.3,0,0.4c0,0.5-0.2,1-0.5,1.3c0,0,0,0,0,0c0.3-0.1,0.5-0.1,0.8-0.1
			c0.5,0,0.9,0.1,1.3,0.3c0,0,0,0,0,0v0c0.4-1.9,2.1-3.2,4.1-3.2c2.3,0,4.2,1.9,4.2,4.2c0,0.4-0.1,0.8-0.2,1.1c0,0,0,0,0,0
			c0,0,0.1,0,0.1,0c2.4,0,4.3,1.8,4.5,4.2c0,0,0,0,0,0c0,0,0,0,0,0c0.3,0.4,0.5,0.9,0.5,1.5C-21.4-26.1-22.3-25.1-23.5-24.9z
			 M-62.7-32.8c0.2,0.4,0.4,0.9,0.4,1.4c0,0.4-0.1,0.7-0.2,1.1c0,0,0,0,0,0c0,0,0,0,0,0c0.6,0,1.1,0.2,1.5,0.4c0,0,0,0,0,0
			c0,0,0,0,0,0c0.7-1.6,2.2-2.7,4.1-2.8c0,0,0,0,0,0c0,0,0,0,0,0c-0.2-0.5-0.3-1.1-0.3-1.7c0-0.4,0-0.7,0.1-1c0,0,0,0,0,0
			c0,0,0,0,0,0c-0.2,0-0.3,0.1-0.5,0.1c-0.8,0-1.4-0.3-1.9-0.8c0,0,0,0,0,0c0,0,0,0,0,0c0,0.1,0,0.2,0,0.4c0,1.7-1.4,3-3,3
			C-62.6-32.8-62.6-32.8-62.7-32.8z M-52-29.2c-0.1,0-0.1,0-0.2,0C-52-28.8-52-28.4-52-28c0,0.2,0,0.5,0,0.7c0,0,0,0,0,0
			c0.3-0.1,0.6-0.2,0.9-0.2c0.2,0,0.5,0,0.7,0.1c0,0,0,0,0,0c-0.1-0.2-0.1-0.5-0.1-0.7c0-0.5,0.2-1,0.5-1.5c0,0,0,0,0,0c0,0,0,0,0,0
			C-50.7-29.3-51.3-29.2-52-29.2z M-46.8-34.8c0,0.2,0,0.3,0,0.5c0,1.5-0.7,2.9-1.7,3.8c0.1,0,0.3,0,0.4,0c1.4,0,2.5,1.1,2.5,2.5
			c0,1.4-1.1,2.5-2.5,2.5c-0.2,0-0.4,0-0.6-0.1c0,0,0,0,0,0c0,0,0,0,0,0c0.1,0.2,0.1,0.5,0.1,0.7c0,0.2,0,0.4-0.1,0.6c0,0,0,0,0,0
			c0.5,0.1,0.9,0.5,1,1c0,0,0,0,0,0c0,0,0,0,0,0c0.2-0.2,0.5-0.3,0.8-0.4c0.2,0,0.3-0.1,0.5-0.1c0.8,0,1.6,0.5,1.8,1.3
			c0,0.1,0,0.1,0,0.2c0,0,0,0,0,0c0,0,0,0,0,0c0.1-0.1,0.3-0.2,0.5-0.3c-1-0.8-1.6-2.1-1.6-3.4c0-1.2,0.5-2.3,1.2-3.1c0,0,0,0,0,0
			c-1.1-0.5-1.8-1.5-1.8-2.8c0-0.7,0.2-1.3,0.6-1.8c0,0,0,0,0,0c0,0,0,0,0,0C-46.2-34-46.6-34.4-46.8-34.8z M-40.2-37.6
			C-40.2-37.6-40.2-37.6-40.2-37.6C-40.2-37.6-40.2-37.6-40.2-37.6c0,0.1,0,0.1,0.1,0.2c0,0,0,0,0,0c0,0,0,0,0,0c0,0,0,0,0,0
			c0,0,0,0,0,0c0,0,0-0.1,0.1-0.1c0,0,0,0,0,0c0,0,0,0,0,0C-40.2-37.5-40.2-37.6-40.2-37.6C-40.2-37.6-40.2-37.6-40.2-37.6
			C-40.2-37.6-40.2-37.6-40.2-37.6z M-39.1-32.1c0-0.9,0.4-1.8,1-2.3c0,0,0,0,0,0c-0.1,0-0.2,0-0.2,0c-0.8,0-1.5-0.5-1.9-1.2
			c-0.2,0.6-0.5,1.2-1,1.7c0,0,0,0,0,0c0,0,0,0,0,0c0,0,0,0,0,0c0,0,0,0,0,0c0.5,0.5,0.9,1.3,0.9,2.1c0,0.5-0.1,1-0.4,1.5
			c0,0,0,0,0,0c0,0,0,0,0,0c2.1,0.3,3.7,2.2,3.7,4.4c0,0,0,0,0,0v0c0.3-0.1,0.6-0.1,1-0.1c0,0,0.1,0,0.1,0c0,0,0,0,0,0c0,0,0,0,0,0
			c0,0,0,0,0,0c-0.1-0.2-0.1-0.5-0.1-0.7c0-1.4,1.1-2.5,2.5-2.5s2.5,1.1,2.5,2.5c0,1-0.6,1.8-1.4,2.2c0,0,0,0,0,0c0,0,0,0,0,0l0,0
			c0.2,0.2,0.4,0.5,0.6,0.8c0,0,0,0,0,0c0,0,0,0,0,0c0,0,0,0,0,0c0,0,0,0,0,0c0.2-0.8,0.9-1.5,1.7-1.7c0,0,0,0,0,0c0,0,0,0,0,0l0,0
			c0,0,0,0,0,0c-0.6-0.8-0.9-1.7-0.9-2.8c0-0.5,0.1-1,0.3-1.5c-0.9,0-1.7-0.3-2.3-0.8c0,0,0,0,0,0c0,0,0,0,0,0
			c-0.5,1.1-1.6,1.8-2.8,1.8C-37.7-29-39.1-30.4-39.1-32.1z M-26.6-33C-26.6-33-26.6-33-26.6-33C-26.6-33-26.6-33-26.6-33
			C-26.6-33-26.6-33-26.6-33z"/>
		<path fill="#6B7482" d="M-112.7-30.8c-1.4,0-2.5-1.1-2.5-2.5c0-1.4,1.1-2.5,2.5-2.5c1.4,0,2.5,1.1,2.5,2.5
			C-110.2-31.9-111.3-30.8-112.7-30.8z"/>
		<path fill="#6B7482" d="M-108.8-18.1c-1.4,0-2.5-1.1-2.5-2.5c0-1.4,1.1-2.5,2.5-2.5c1.4,0,2.5,1.1,2.5,2.5
			C-106.3-19.2-107.4-18.1-108.8-18.1z"/>
		<path fill="#6B7482" d="M-85.9-40.1c-1.4,0-2.5-1.1-2.5-2.5c0-1.4,1.1-2.5,2.5-2.5c1.4,0,2.5,1.1,2.5,2.5
			C-83.5-41.2-84.6-40.1-85.9-40.1z"/>
		<path fill="#6B7482" d="M-87.9-13.9c0-1,0.8-1.7,1.7-1.7c1,0,1.7,0.8,1.7,1.7c0,1-0.8,1.7-1.7,1.7C-87.1-12.2-87.9-12.9-87.9-13.9
			z"/>
		<path fill="#6B7482" d="M-102.5-33.7c-1,0-1.8-0.8-1.8-1.8c0-1,0.8-1.8,1.8-1.8c1,0,1.8,0.8,1.8,1.8
			C-100.7-34.5-101.5-33.7-102.5-33.7z"/>
		<path fill="#6B7482" d="M-85.8,22c0,0.8-0.6,1.4-1.4,1.4c-0.8,0-1.4-0.6-1.4-1.4c0-0.8,0.6-1.4,1.4-1.4
			C-86.4,20.6-85.8,21.2-85.8,22z"/>
		<path fill="#6B7482" d="M-59.1-45.5c-1,0-1.8-0.8-1.8-1.8c0-1,0.8-1.8,1.8-1.8c1,0,1.8,0.8,1.8,1.8
			C-57.3-46.3-58.1-45.5-59.1-45.5z"/>
		<path fill="#6B7482" d="M-95.2-19.6c2.4,0,4.3,1.9,4.3,4.3c0,2.4-1.9,4.3-4.3,4.3c-2.4,0-4.3-1.9-4.3-4.3
			C-99.5-17.7-97.6-19.6-95.2-19.6z"/>
		<path fill="#6B7482" d="M-112.6-10.3c0-1.7,1.3-3,3-3c1.7,0,3,1.3,3,3c0,1.7-1.3,3-3,3C-111.3-7.3-112.6-8.6-112.6-10.3z"/>
		<path fill="#6B7482" d="M-104.3-2.3c1.9,0,3.4,1.6,3.3,3.5c0,1.9-1.6,3.3-3.4,3.3c0,0,0,0-0.1,0c-1.9,0-3.4-1.6-3.3-3.5
			C-107.8-0.8-106.3-2.3-104.3-2.3C-104.4-2.3-104.4-2.3-104.3-2.3z"/>
		<path fill="#6B7482" d="M-77.7-41.1c-1.4,0-2.6-1.2-2.6-2.6c0-1.4,1.2-2.6,2.6-2.6c1.4,0,2.6,1.2,2.6,2.6
			C-75.2-42.3-76.3-41.1-77.7-41.1z"/>
		<path fill="#6B7482" d="M-50.5-41.4c-1.7,0-3-1.4-3-3c0-1.7,1.4-3,3-3c1.7,0,3,1.4,3,3C-47.5-42.8-48.8-41.4-50.5-41.4z"/>
		<path fill="#6B7482" d="M-98.6-19.1c0,0-0.1,0-0.1,0c-1.9,0-3.4-1.5-3.5-3.3c0-0.3,0-0.6,0.1-0.8c0,0,0,0,0,0c0,0,0,0,0,0
			c-0.1,0-0.2,0-0.3,0c-1.7,0-3.1-1.4-3.1-3.1c0-1.7,1.4-3.1,3.1-3.1c1.7,0,3.1,1.4,3.1,3.1c0,0.1,0,0.3,0,0.4c0,0,0,0,0,0
			c0.2,0,0.3,0,0.5,0c0,0,0.1,0,0.1,0c1.8,0,3.4,1.5,3.4,3.3C-95.2-20.8-96.7-19.2-98.6-19.1z"/>
		<path fill="#6B7482" d="M-79.7,31.6C-79.7,31.6-79.7,31.6-79.7,31.6C-79.7,31.6-79.7,31.6-79.7,31.6
			C-79.7,31.6-79.7,31.6-79.7,31.6C-79.7,31.6-79.7,31.6-79.7,31.6c-0.5-0.4-0.7-1.1-0.7-1.8c0-0.9,0.5-1.7,1.3-2.1c0,0,0,0,0,0
			c-0.6-0.5-0.9-1.2-0.9-2c0-1.4,1-2.5,2.4-2.7v0c0,0,0,0,0,0l0,0c-0.3-0.2-0.5-0.5-0.7-0.9c-0.4,0.1-0.8,0.2-1.3,0.2h0c0,0,0,0,0,0
			s0,0,0,0c0,0.1,0,0.2,0,0.3c0,1.4-1.1,2.5-2.5,2.5c0,0,0,0,0,0c-1.4,0-2.4-1.1-2.5-2.5c0-1.1,0.7-2,1.6-2.3
			c-0.1-0.3-0.2-0.6-0.3-0.9c-0.8,0.3-1.6,0.5-2.4,0.5c-3,0-5.6-2.1-6.2-5c0,0,0,0,0,0c0,0,0,0,0,0c0,0,0,0,0,0c0,0,0,0,0,0
			c-0.6,0.8-1.5,1.3-2.5,1.3c-1.7,0-3.1-1.4-3.1-3.1c0-1.7,1.4-3.1,3.1-3.1c1.1,0,2.1,0.6,2.7,1.5c0,0,0,0,0,0c0,0,0,0,0,0
			c0.8-2.6,3.2-4.5,6.1-4.5c3.5,0,6.4,2.9,6.4,6.4c0,0.5-0.1,1.1-0.2,1.6c1.9,0.1,3.5,1.6,3.5,3.6c0,0,0,0,0,0
			c1.3,0.1,2.3,1.1,2.3,2.4c0,0,0,0,0,0c0.2,0,0.5-0.1,0.7-0.1c1.7,0,3,1.3,3.2,2.9c0,0,0,0,0,0c0,0,0,0,0,0c0,0,0,0,0,0
			c0.7-0.7,1.6-1.2,2.7-1.2c2,0,3.7,1.6,3.7,3.7c0,1.5-0.9,2.7-2.1,3.3c0,0,0,0,0,0c0,0,0,0,0,0c0.3,0.4,0.5,0.8,0.6,1.2
			c0,0,0,0,0,0c0,0,0,0,0,0c0,0,0,0,0,0l0,0c0.5-0.6,1.2-1.1,2.1-1.1c0.4,0,0.7,0.1,1.1,0.2c-0.1-0.3-0.1-0.7-0.1-1.1
			c0-0.2,0-0.5,0-0.7c0,0,0,0,0,0c0,0,0,0,0,0c0,0,0,0,0,0c0,0,0,0,0,0c-0.7-0.3-1.2-1.1-1.2-1.9c0-1.1,0.9-2.1,2.1-2.1
			c0.6,0,1.1,0.2,1.4,0.6c0,0,0,0,0,0c0,0,0,0,0,0c0.7-0.4,1.5-0.6,2.4-0.6c1.3,0,2.6,0.6,3.4,1.5c0,0,0,0,0,0c0,0,0,0,0,0
			c0.1-1.3,1.2-2.3,2.5-2.3c0.1,0,0.3,0,0.4,0c0,0,0,0,0,0c0,0,0,0,0,0c0,0,0,0,0,0c0-0.1,0-0.2,0-0.3c0-0.8,0.6-1.4,1.4-1.4
			c0.8,0,1.4,0.6,1.4,1.4c0,0.7-0.5,1.2-1.1,1.4c0.3,0.4,0.4,0.9,0.4,1.4c0,0.2,0,0.4-0.1,0.6c0.1,0,0.2,0,0.2,0
			c1.4,0,2.5,1.1,2.5,2.5c0,1.4-1.1,2.5-2.5,2.5c-1.4,0-2.5-1.1-2.5-2.5c0-0.2,0-0.4,0.1-0.6c0,0,0,0,0,0c0,0,0,0,0,0v0
			c-0.1,0-0.2,0-0.3,0c-0.5,0-0.9-0.1-1.3-0.4c0,0,0,0,0,0c0,0,0,0,0,0c0,0,0,0,0,0c0,0,0,0,0,0c0,0.3,0.1,0.6,0.1,0.8
			c0,2.6-2.1,4.7-4.7,4.7c-1.2,0-2.2-0.4-3-1.1c0,0,0,0,0,0c0,0,0,0,0,0c0,0,0,0,0,0c-0.1,1.4-1.2,2.4-2.6,2.4
			c-0.9,0-1.8-0.5-2.2-1.3c-0.2,0.4-0.4,0.8-0.7,1.1c0,0,0,0,0,0c0,0,0,0,0,0l0,0c0.6,0.4,1.1,1.2,1.1,2c0,1.4-1.1,2.5-2.5,2.5
			c-1.4,0-2.5-1.1-2.5-2.5c0-0.3,0-0.5,0.1-0.7c0,0,0,0,0,0c0,0,0,0,0,0c-1.9-0.3-3.4-2-3.4-4c0-0.1,0-0.3,0-0.4c0,0,0,0,0,0
			c0,0,0,0,0,0c-1.1-0.2-2-1.1-2-2.3c0-0.9,0.5-1.6,1.2-2c0,0,0,0,0,0c-0.5-0.1-0.9-0.3-1.3-0.6c0,0,0,0,0,0c0,0,0,0,0,0
			c-0.2,0.6-0.7,1.1-1.3,1.4c0,0,0,0,0,0c0,0,0,0,0,0c0.4,0.4,0.7,1.1,0.7,1.7c0,1.2-0.8,2.1-1.9,2.4c0,0,0,0,0,0c0,0,0,0,0,0
			c0,0,0,0,0,0c0.9,0.6,1.4,1.7,1.4,2.8c0,0.5-0.1,0.9-0.3,1.3c0,0,0,0,0,0c0,0,0,0,0,0c0.7,0.3,1.1,1,1.1,1.8
			c0,1.1-0.9,1.9-1.9,1.9c-0.9,0-1.7-0.7-1.9-1.6c0,0,0,0,0,0c0,0,0,0,0,0c-0.2,0-0.3,0-0.5,0c-1.9,0-3.5-1.5-3.5-3.4
			C-82.8,33.2-81.5,31.8-79.7,31.6z M-61.7,29.9C-61.7,29.9-61.7,29.9-61.7,29.9C-61.7,29.9-61.7,29.9-61.7,29.9L-61.7,29.9z
			 M-82.9,20.3C-82.9,20.3-82.9,20.3-82.9,20.3C-82.9,20.3-82.9,20.3-82.9,20.3C-82.9,20.3-82.9,20.3-82.9,20.3
			C-82.9,20.3-82.9,20.3-82.9,20.3z M-70.1,28.2C-70.1,28.2-70.1,28.2-70.1,28.2c-0.3-0.5-0.5-1.1-0.6-1.8c0,0,0,0,0,0c0,0,0,0,0,0
			c0,0,0,0,0,0c-0.3,0.3-0.6,0.5-1,0.7c0.6,0.2,1.1,0.6,1.4,1.2c0,0,0,0,0,0c0,0,0,0,0,0C-70.3,28.2-70.2,28.2-70.1,28.2z"/>
		<path fill="#6B7482" d="M-117.2-3.2c-0.1,0-0.2,0-0.3,0c-0.9-0.2-1.5-1-1.4-2c0.2-0.8,0.9-1.4,1.6-1.4c0.1,0,0.2,0,0.3,0
			c0.9,0.2,1.5,1,1.3,2C-115.7-3.7-116.4-3.2-117.2-3.2z"/>
		<path fill="#6B7482" d="M-109.8,6.3c0.1,0,0.2,0,0.3,0c0.7,0.1,1.2,0.8,1.1,1.6c-0.1,0.7-0.7,1.1-1.3,1.1c-0.1,0-0.2,0-0.2,0
			c-0.7-0.1-1.2-0.9-1.1-1.6C-111,6.7-110.5,6.3-109.8,6.3z"/>
	</g>
</symbol>
<use xlink:href="#_x2E_logo-cresearch"  width="254.3" height="98.2" id="XMLID_2_" x="-127.1" y="-49.1" transform="matrix(1 0 0 -1 171.9321 68.6548)" overflow="visible"/>
<rect x="0" y="0" fill="none" width="343.9" height="137.3"/>
</svg>
