<?xml version="1.0" encoding="utf-8"?>
<!-- Generator: Adobe Illustrator 18.1.1, SVG Export Plug-In . SVG Version: 6.00 Build 0)  -->
<!DOCTYPE svg PUBLIC "-//W3C//DTD SVG 1.1//EN" "http://www.w3.org/Graphics/SVG/1.1/DTD/svg11.dtd">
<svg version="1.1" id="Layer_1" xmlns="http://www.w3.org/2000/svg" xmlns:xlink="http://www.w3.org/1999/xlink" x="0px" y="0px"
	 width="296.5px" height="100.2px" viewBox="0 0 296.5 100.2" enable-background="new 0 0 296.5 100.2" xml:space="preserve">
<symbol  id="_x2E_logo-aj" viewBox="-148.2 -44.7 296.3 100.2">
	<g>
		<path fill="#6B7482" d="M-93.6,10.4c-3.9,7.7-8.8,14.9-18.7,27.2c-4.2,5.2-5.4,7.4-6.1,10.4c-0.6,2.9,0,5.3,1.8,6.6
			c0.8,0.6,0.9,0.9,0.3,0.9c-0.9,0-2.6-1.6-3.2-2.9c-0.7-1.6-0.9-2.6-0.9-5c0-2.6,0.3-3.8,1.3-6.2c0.3-0.8,0.7-1.6,0.8-1.8
			c0.1-0.3,0.1-0.5-0.4-1.2c-1.8-2.8-2.1-5.8-1-8.8c1.3-3.6,1.5-4,1.5-5.3c0.2-3.2-0.8-6.6-4.7-15.7c-2.1-4.8-2.9-8-3-11.6
			c-0.1-1.9,0.1-5,0.3-5.2c0,0,0.4,0.2,0.7,0.6l0.7,0.6l0.1,2c0.1,2.2,0.3,3.5,1.1,5.7c0.7,2.1,1.1,3,2.9,6.6
			c2.8,5.6,3.8,9.5,3.7,14.6c0,1.2,0,2.2,0.1,2.2c0.2,0,4.4-4.5,5.9-6.3c3.3-3.9,4.4-6.2,4.4-8.7c0-2.4-0.8-4.7-2.5-6.7
			c-1.3-1.6-1.5-2.1-1.5-3.3c0-0.8,0.1-1.5,0.6-3c0.4-1.1,0.7-1.9,0.8-1.9s0.4,0.4,0.8,0.9c0.8,1.1,1.9,2.1,4.6,4.1
			c1,0.8,2.3,1.8,2.9,2.3c0.6,0.5,1.1,0.9,1.1,0.9s0.1-0.5,0-1.1c-0.3-3.1-2.5-6.5-7.1-10.9c-5.3-5-7.5-8-8.5-11.7
			c-0.4-1.3-1.1-6.1-1.7-10c-0.4-2.7-0.7-4-1.3-5.3c-2.2-4.8-6.9-4.2-10.3,1.3c-0.5,0.7-0.9,1.4-0.9,1.5c-0.1,0.2-1.5-0.6-1.5-0.8
			c0-0.1,0.4-0.9,0.9-1.8c2-4,4.9-6.8,7.9-7.8l0,0c1-0.3,1.4-0.4,2.6-0.3c1.3,0,1.6,0.1,2.5,0.5c1.4,0.7,2.4,1.9,2.9,3.8
			c0.4,1.2,0.9,4.7,1.4,9.6c0.3,3.4,0.9,6.7,1.4,8c0.5,1.3,1.9,3,5.9,7.2c4,4.2,5.4,5.9,6.4,7.9c1,2,1.3,3,1.4,5
			c0.1,1.9-0.1,3.8-0.6,6.6c-0.4,2-1.3,5.8-1.5,6c-0.1,0.1-0.4-0.2-0.7-0.6c-0.9-1.2-3.8-3.8-4-3.6c0,0,0,0.3,0.1,0.7
			c0.9,3.4-0.1,7.5-2.8,11.6c-1.5,2.2-3.1,4.2-6,7.3c-4.8,5-5.7,6.4-5.9,8.7c0,0.8,0,1.4,0.2,1.9c0.3,0.8,0.9,2,1.1,2
			c0.1,0,0.7-0.7,1.3-1.6c0.7-0.9,1.6-2.2,2.2-2.8c11.8-14.8,17.3-23,20.4-30.7c0.9-2.2,1.7-4.8,1.9-6.4c0.3-2,0.1-5.9-0.4-7.9
			c-0.7-2.6-1.8-5-3.2-6.8c-0.8-1.1-2.5-2.7-3.4-3.3c-2.9-1.9-6.6-2.7-10.1-2.1c-0.8,0.1-1.5,0.3-1.6,0.3c-0.3,0-0.6-0.8-0.9-3
			c-0.4-2.2-0.4-2.1,1.1-2.5c4.3-1.3,9.1-1,12.7,0.8c5.3,2.7,8.4,8.1,9.1,15.8c0.3,3.6,0,7-1.1,11.2C-90.1,2.9-91.1,5.5-93.6,10.4z"
			/>
		<path fill="#6B7482" d="M-106-35c0-0.5-0.1-0.6-0.5-0.8c-0.4-0.2-0.5-0.2-0.8,0c-0.4,0.3-0.9,1.1-1.4,2.3c-0.4,1-0.7,1.3-0.9,1.1
			c-0.1-0.1-0.1-0.5,0.3-1.3c0.9-2.5,1.7-3.7,2.8-4.3l0,0c0.8-0.4,1-0.4,1.5,0.1c0.5,0.5,0.5,0.7,0.2,1.8
			C-105.3-34.5-105.9-33.9-106-35z"/>
		<path fill="#6B7482" d="M-124.8-18.7c0.1,1.5,0.3,2.9,0.4,3.1c0.1,0.3,1.1,1.3,3.1,3.1c3.1,2.8,3.7,3.6,3.7,4.8
			c0,0.7-0.6,5-0.7,5.2c-0.1,0.1-0.4-0.3-0.8-0.8c-0.6-0.9-2.6-2.8-5.2-5c-1.7-1.5-2-2.3-2.6-6.4c-1-7.1-2.3-10.9-4.4-13
			c-2-2-5.2-2.5-7.7-1.2c-2.6,1.3-4.5,5.2-4.7,9.6l-0.1,1.7l1.2-1.1c1.6-1.5,2.8-2.1,4.2-2.1c1.3,0,1.7,0.1,2.4,0.7
			c1,0.9,1.4,2.2,1.4,4.3c0,4.1-2.2,9-4.6,10.3c-1,0.5-2.3,0.5-3.2-0.1c-0.9-0.6-1.8-1.8-2.2-3.1c-0.2-0.5-0.4-1-0.5-1.1
			c-0.3-0.1-0.5,1.7-0.5,3.9c0,1.6,0.1,2.5,0.3,3.7c0.9,4.3,2.6,7.3,5.9,10.6c2.3,2.2,4.6,4,9.8,7.5c4,2.7,5.8,4.1,6.7,5.6
			c0.4,0.7,0.5,0.7,0.5,0.4c0.1-1-1.1-4.1-3.9-9.9c-2.3-4.8-3-6.4-4.2-9.6c-1.5-4-2.4-7.6-2.9-11.5c-0.3-2.5-0.5-7.6-0.3-10.8
			c0.2-2.9,0.8-7.4,1.1-7.7c0.1-0.1,0.3,0,0.7,0.4l0.5,0.5l-0.3,1.7c-1,6.1-0.6,12.7,1.1,19.4c1.2,4.7,2.7,8.5,6.3,15.9
			c3.1,6.5,3.7,8.7,3.5,13.9c-0.1,4.3-0.7,6.9-1.9,8.1c-0.6,0.7-1.3,1.1-2.2,1.1c-2.1,0-3.3-1.4-3.3-3c0-1.6,1.4-3,3-3
			c0.8,0,1.4,0.3,2,0.7l0.4,0.3l-0.1-1.1c-0.1-1.4-0.6-2.4-1.9-3.8c-1.4-1.5-2.7-2.5-7.2-5.1c-6-3.6-8.1-5.1-10.3-7.2
			c-2.8-2.7-4.7-6-5.6-9.4c-1.2-4.7-0.8-9.2,1.2-14.3c0.6-1.5,0.6-1.6,0.7-4.1c0.2-6.7,1.9-11.3,5.4-14.7c1.8-1.8,3.4-2.6,5.5-2.8
			c0.5-0.1,1.3-0.1,1.7-0.1C-128.1-34.1-125.9-29.9-124.8-18.7z M-142.9-13.5c0.9,1.8,2.3,2.9,3.6,2.9c0.3,0,0.6-0.1,0.8-0.2
			c0.5-0.3,1.3-1.5,1.3-2c0-0.2-0.2-0.7-0.4-1.2c-0.3-0.6-0.6-0.9-1.2-1.2c-1.1-0.5-2.3-0.5-3.4,0
			C-143.3-14.7-143.4-14.6-142.9-13.5z"/>
		<path fill="#6B7482" d="M-121.2-15.1c-0.3,0.5-0.7,0.9-0.8,0.9s-0.5-0.3-0.8-0.7l-0.7-0.7l0.6-1.2c1.4-2.8,3.3-5.5,5.2-7.3
			c0.6-0.6,1.1-1,1.2-1c0,0,0.2,0.9,0.4,1.8c0.2,0.9,0.4,1.9,0.5,2.1c0.1,0.3,0,0.5-0.9,1.2C-117.9-18.8-120.4-16.1-121.2-15.1z"/>
		<path fill="#6B7482" d="M-133.8,7.9c0,1-3.1-1.7-4.1-3.6c-0.4-0.7-0.6-1.4-0.7-2.1c-0.2-1.3,0-2,0.5-2.6c1-1,2.4-0.2,3,1.8
			c0.3,0.9,0.3,1.4,0,1.5c-0.2,0.1-0.7-0.5-0.7-0.9c0-0.8-1-1-1.5-0.3c-0.8,1-0.1,2.5,2,4.7C-134.4,7.1-133.8,7.8-133.8,7.9z"/>
		<path fill="#6B7482" d="M-109.8,10.3c-0.2,1.1-0.3,1.1-0.7,0.5c-0.2-0.3-1.7-1.9-3.2-3.6c-3.7-4-3.8-4.2-3.5-5.6
			c0.1-0.3,0.2-0.6,0.3-0.6c0.1,0,0.3,0.3,0.6,0.7c0.3,0.4,1.8,2.1,3.3,3.8s2.9,3.3,3,3.6C-109.7,9.6-109.7,9.9-109.8,10.3z"/>
		<path fill="#6B7482" d="M-128.9,22c1.7,0,3,1.4,3,3v0c0,1.7-1.4,3-3,3c-1.7,0-3-1.4-3-3v0C-131.9,23.4-130.6,22-128.9,22z"/>
		<polygon fill="#6B7482" points="-116.1,-10.5 -112.2,-12.4 -110,-7.9 -113.9,-6 		"/>
		<polygon fill="#6B7482" points="-101.1,-14.2 -103.3,-18.7 -99.4,-20.6 -97.2,-16.1 		"/>
		<polygon fill="#6B7482" points="-121.2,-24.4 -124.4,-28.4 -121.1,-31.1 -117.8,-27.2 		"/>
		<polygon fill="#6B7482" points="-125.2,-35.2 -121.8,-37.9 -118.6,-34 -122,-31.3 		"/>
		<path fill="#6B7482" d="M-70.9,3.2L-80.8-25h7.3l1.7,5.1h9.5l1.4-5.1h7.7l-9.7,28.3H-70.9z M-69.7-13.4l2.7,8.4l2.7-8.4H-69.7z"/>
		<path fill="#6B7482" d="M-3.7,3.2L-13.6-25h7.3l1.7,5.1h9.5L6.3-25H14L4.3,3.2H-3.7z M-2.5-13.4l2.7,8.4l2.7-8.4H-2.5z"/>
		<path fill="#6B7482" d="M138.4,3.2h-8L120.5-25h7.3l1.7,5.1h9.5l1.4-5.1h7.7L138.4,3.2z M131.6-13.4l2.7,8.4l2.7-8.4H131.6z"/>
		<polygon fill="#6B7482" points="-32.2,-19 -41.2,-19 -41.2,3.2 -48.2,3.2 -48.2,-25 -32.2,-25 		"/>
		<polygon fill="#6B7482" points="52.5,-14 61.9,-14 61.9,-8.3 52.5,-8.3 52.5,-2.8 63.7,-2.8 63.7,3.2 45.6,3.2 45.6,-25.2 
			64.6,-25.2 64.6,-19.4 52.5,-19.4 		"/>
		<polygon fill="#6B7482" points="77.7,-14 87.2,-14 87.2,-8.3 77.8,-8.3 77.8,-2.8 88.9,-2.8 88.9,3.2 70.8,3.2 70.8,-25.2 
			89.8,-25.2 89.8,-19.4 77.7,-19.4 		"/>
		<polygon fill="#6B7482" points="38.8,-4 38.8,3.2 19.4,3.2 19.4,-2.8 29.4,-2.8 19,-18 19,-25.2 39,-25.2 39,-19 28.5,-19 		"/>
		<path fill="#6B7482" d="M-18.2,3.3h-7.1l0.1-28.2c0-2.2-1.7-4.2-3.5-4.2c-1.3,0-2.3,0.7-2.3,0.7l-1.6-5.9c0,0,7.6-3.9,11.9,0.7
			c3.1,3.4,2.6,7.8,2.6,7.8V3.3z"/>
		<path fill="#6B7482" d="M112-11.5c1.1,0.8,2.4,1.8,2.4,1.8s2,1.2,2,5.1c0,3.9-2.5,7.8-6.9,7.8H96.1l0,0V-25h7.1v10.5
			c1.7,0,2.8,0.2,3.6-0.7c0.9-1,4.3-9.8,4.3-9.8l7.3,0l-4.4,11.2C113.9-13.8,113-11.5,112-11.5z M106.6-8.4h-3.5v5.6h3.4
			c1.3,0,2.6-1.3,2.6-2.8C109.2-7.1,107.9-8.4,106.6-8.4z"/>
	</g>
</symbol>
<use xlink:href="#_x2E_logo-aj"  width="296.3" height="100.2" id="XMLID_4_" x="-148.2" y="-44.7" transform="matrix(1.0005 0 0 -1 148.2382 55.4806)" overflow="visible"/>
</svg>
