<svg xmlns="http://www.w3.org/2000/svg" width="900" height="625" viewBox="0 0 900 625">
  <defs>
    <filter id="a" width="200%" height="200%" x="-50%" y="-50%" filterUnits="objectBoundingBox">
      <feOffset dy="2" in="SourceAlpha" result="shadowOffsetOuter1"/>
      <feGaussianBlur stdDeviation="5" in="shadowOffsetOuter1" result="shadowBlurOuter1"/>
      <feColorMatrix values="0 0 0 0 0 0 0 0 0 0 0 0 0 0 0 0 0 0 0.3 0" in="shadowBlurOuter1" result="shadowMatrixOuter1"/>
      <feMerge>
        <feMergeNode in="shadowMatrixOuter1"/>
        <feMergeNode in="SourceGraphic"/>
      </feMerge>
    </filter>
  </defs>
  <g fill="none" fill-rule="evenodd" transform="rotate(-11 450.816 310.523)">
    <g fill="#6B7482" opacity=".1" transform="translate(125.676)">
      <path d="M54.770014,166.513635 L64.0333454,141.390796 C63.6786756,140.269356 63.3530242,139.315487 63.1595679,138.168267 C61.4571526,128.014077 68.2764865,118.452832 78.4361653,116.751336 C88.5926199,115.049841 98.1622572,121.868713 99.8646724,132.022903 C99.919485,132.348379 99.8130841,132.702857 99.8678967,133.031555 L132.632942,151.622327 C134.354703,150.829585 135.93782,150.226972 137.901401,149.898274 C148.06108,148.196778 157.630717,155.01565 159.333132,165.16984 C161.035548,175.324031 154.21299,184.885275 144.053311,186.586771 C133.893632,188.288266 124.323995,181.469394 122.624804,171.315204 C122.566767,170.986506 122.511954,170.657808 122.624804,170.306552 L89.8565343,151.71578 C88.1379977,152.5053 86.3904426,153.136916 84.5848507,153.439833 C83.7691101,153.57518 82.9211267,153.549399 82.0989375,153.687968 L74.5509184,173.977013 L54.770014,166.513635 Z M13.4380801,259.644735 C11.7646833,249.654894 18.2873841,240.312781 28.2278126,238.31159 L39.1290739,208.870562 L58.9099783,216.33394 L47.7088598,247.002752 C48.8824946,248.997498 49.7627206,251.20493 50.1464089,253.499371 C51.8455999,263.653561 45.0294903,273.214806 34.8698115,274.916302 C24.7069083,276.614575 15.1404953,269.798925 13.4380801,259.644735 L13.4380801,259.644735 Z M133.055321,231.531388 L29.9882647,192.551673 C27.615201,194.465855 24.8004122,195.780647 21.6889904,196.299474 C11.5293115,198.00097 1.95967425,191.18532 0.26048327,181.03113 C-1.44193198,170.87694 5.37740183,161.315695 15.540305,159.6142 C24.7133568,158.077053 33.4059923,163.693922 36.2014355,172.317411 L139.268492,211.297126 C141.641556,209.382944 144.456345,208.071374 147.567766,207.549325 C157.727445,205.847829 167.293858,212.666701 168.996273,222.817669 C170.698689,232.975082 163.879355,242.536326 153.716452,244.234599 C144.5434,245.774968 135.850764,240.154877 133.055321,231.531388 L133.055321,231.531388 Z"/>
      <path d="M546.25178,512.237256 L558.817481,587.192262 C559.529419,591.44735 557.091032,595.250601 553.467269,595.858979 L531.407878,599.55194 C527.784115,600.160318 524.235106,597.356798 523.523168,593.105269 L510.957467,518.143147 C510.298924,514.208259 512.263872,510.47972 515.677614,509.586721 C519.37969,508.476698 523.291788,507.66197 527.228804,507.003783 C531.169379,506.342039 534.978246,505.865298 538.997135,505.680294 C542.357481,505.441924 545.589678,508.29881 546.25178,512.237256 M500.05414,545.872372 L508.39805,595.638398 C509.109988,599.88637 506.671601,603.696737 503.047838,604.301557 L480.988447,607.998075 C477.361124,608.606453 473.815674,605.799376 473.100177,601.547846 L464.759826,551.785379 C464.101284,547.846932 466.069792,544.118394 469.479974,543.221837 C473.18205,542.11893 477.094148,541.300644 481.034723,540.638899 C484.975299,539.980713 488.780606,539.50753 492.799494,539.318968 C496.159841,539.080598 499.395598,541.937484 500.05414,545.872372 M452.169207,569.435454 L457.97506,604.077418 C458.690557,608.332505 456.25217,612.139315 452.628407,612.744135 L430.569016,616.437095 C426.945253,617.045473 423.396243,614.241954 422.684306,609.990424 L416.878453,575.344903 C416.216351,571.406456 418.184859,567.681476 421.595041,566.784919 C425.300677,565.674896 429.209215,564.860167 433.149791,564.201981 C437.090366,563.540236 440.895673,563.063496 444.914562,562.878492 C448.278468,562.640122 451.510665,565.497007 452.169207,569.435454 M472.562664,520.042994 L451.11554,503.236109 L438.574756,521.199268 C438.891568,522.117171 439.233299,523.195174 439.418402,524.294524 C441.055859,534.060591 434.498913,543.253857 424.731127,544.886871 C414.959781,546.527001 405.761546,539.970039 404.124089,530.20753 C402.486632,520.441464 409.047138,511.251755 418.814924,509.615183 C419.758242,509.455084 420.733596,509.455084 421.862018,509.426622 L440.618017,483.134734 C442.348026,480.904015 444.846928,479.349271 447.520254,478.900993 C450.385803,478.587909 453.091167,479.263885 455.323092,480.996517 L477.820324,498.276584 L507.550844,466.907765 C507.525927,466.751223 507.472531,466.43814 507.444054,466.27804 C505.810157,456.515532 512.367103,447.322265 522.134889,445.685693 C531.906235,444.052679 541.100911,450.606083 542.738367,460.365034 C544.375824,470.1311 537.815318,479.324367 528.047532,480.960939 C526.157337,481.27758 524.213747,481.27758 522.533574,480.91113 L486.320861,519.032589 C482.593867,522.892764 476.663425,523.241425 472.562664,520.042994" transform="rotate(-6 481.407 530.978)"/>
      <path d="M741.618778 384.785397L727.797511 432.826441C726.76636 436.414317 722.849907 438.577924 719.260092 437.54733L697.160795 431.197335C693.430077 430.121932 691.406203 426.252404 692.437354 422.664528L706.258622 374.623484C707.251345 371.170033 710.709864 369.02563 714.104337 369.704158 718.091241 370.401889 722.138989 371.413279 726.001002 372.527089 729.86942 373.637698 733.69941 374.885933 737.449341 376.412621 740.8246 377.680059 742.611502 381.331947 741.618778 384.785397M710.789922 308.966323L679.176495 418.852611C678.145343 422.440486 674.232093 424.607294 670.642278 423.573499L648.539778 417.223504C644.812263 416.148101 642.785187 412.278573 643.81954 408.690697L675.432968 298.804409C676.425691 295.35416 679.88421 293.206555 683.278683 293.885083 687.265587 294.582815 691.313335 295.597406 695.178551 296.708015 699.046969 297.818624 702.873756 299.066859 706.620485 300.593546 709.995744 301.864185 711.785848 305.516073 710.789922 308.966323M653.279231 325.913513L630.558681 404.87878C629.52753 408.466655 625.611077 410.633463 622.024464 409.599669L599.925167 403.249673C596.191247 402.174271 594.167373 398.304742 595.201726 394.716867L617.919074 315.7516C618.911797 312.304551 622.370316 310.156947 625.764789 310.835474 629.751693 311.530005 633.796239 312.544596 637.664657 313.655205 641.529872 314.765814 645.359862 316.01725 649.106591 317.540737 652.48185 318.811376 654.268751 322.466464 653.279231 325.913513M153.038139 33.0620087C150.931729 31.1438142 150.749824 27.8396715 152.597875 25.876684 174.05214 1.61995508 207.991954-6.38218328 235.91308 7.17955729 238.372754 8.37579398 239.271735 11.6720321 238.293665 14.0592357L205.384647 81.7282897 153.038139 33.0620087zM273.983987 117.199079C257.810244 150.456567 217.822743 164.279161 184.547278 148.114156 147.222446 129.983529 138.459362 86.5791085 154.952097 55.9802173L202.853792 99.806219C206.705437 103.284264 212.942939 101.489909 214.914896 97.4400945L247.541829 30.3454448C277.092193 47.9201115 289.314111 85.6779787 273.983987 117.199079L273.983987 117.199079z"/>
    </g>
    <g filter="url(#a)" transform="translate(0 44.57)">
      <path fill="#3B5373" d="M468.517625,380.872243 L452.925753,381.755363 C375.32273,386.144903 308.612579,326.611035 304.220666,249.049937 C299.828753,171.485943 359.391905,104.814728 436.997825,100.425187 C514.777567,96.0240645 581.649953,155.916972 586.067939,233.93266 C590.167252,306.339812 538.536196,369.255596 468.517625,380.872243 L468.517625,380.872243 Z M870.53124,401.17242 L803.085241,361.947416 L630.001558,371.737018 C658.343305,331.559402 673.839574,281.919373 670.852726,229.137753 C663.786844,104.397779 556.72961,8.641514 432.200326,15.6862055 C307.844864,22.7193151 212.398968,129.556565 219.438777,253.844844 C222.469081,307.385078 244.028856,355.559997 277.533129,392.500472 L125.444299,401.102929 L130.241798,485.839015 L458.088279,467.296391 C464.609518,466.928666 471.095991,467.108185 477.446304,466.201901 L807.943578,447.751932 L870.53124,401.17242 Z"/>
      <path fill="#613D6E" d="M437.813052,114.829308 C368.156611,118.77005 314.691729,178.613735 318.634601,248.235439 C322.577473,317.854249 382.453506,371.287351 452.112844,367.349504 L466.902235,366.512712 C530.312657,355.611247 575.297902,299.10315 571.653425,234.748315 C567.687376,164.674916 507.646213,110.87988 437.813052,114.829308 L437.813052,114.829308 Z M470.112156,395.232932 L453.743878,396.159484 C368.191375,400.997823 294.650003,335.371875 289.809049,249.865592 C284.965197,164.35931 350.629516,90.8576679 436.182018,86.0193285 C521.908343,81.1694073 595.614846,147.157291 600.481874,233.118163 C602.657552,271.544016 590.527643,309.234419 566.328664,339.251811 C542.312199,369.043357 508.413928,388.880259 470.882769,395.105531 L470.112156,395.232932 Z M143.838767,470.619528 L457.27537,452.890532 C459.590105,452.760236 461.901944,452.69364 464.205091,452.627044 C466.224328,452.569135 468.237771,452.514121 470.239626,452.401197 C472.226996,452.288274 473.918867,452.129022 475.407946,451.917653 L476.022119,451.830788 L476.639188,451.796043 L802.80249,433.586398 L844.372123,402.65114 L799.57229,376.597653 L600.988856,387.832097 L618.203071,363.426135 C645.933542,324.111371 659.155635,277.957494 656.438211,229.953408 C649.824268,113.155724 549.598256,23.4973294 433.015553,30.0903267 C316.606673,36.6746377 227.261945,136.684356 233.849815,253.030347 C236.570136,301.057596 255.881808,347.147773 288.230161,382.808447 L308.538415,405.196263 L140.672302,414.693422 L143.838767,470.619528 Z M813.081189,461.915729 L478.835145,480.574172 C476.708717,480.857929 474.422952,481.066403 471.87066,481.211177 C469.59938,481.338578 467.316512,481.405174 465.02785,481.47177 C462.991231,481.529679 460.951714,481.584693 458.906404,481.700512 L116.644249,501.05966 L110.215716,387.510699 L248.778264,379.675543 C222.904796,343.091212 207.570761,299.624336 205.024262,254.660499 C197.53831,122.429931 299.082475,8.76225532 431.384519,1.28034703 C563.860386,-6.21314317 677.751738,95.6380977 685.263764,228.323255 C687.810262,273.289988 678.055927,316.826355 656.904635,355.764707 L806.597613,347.298337 L896.692674,399.691964 L813.081189,461.915729 Z"/>
      <path fill="#9A5CA1" d="M436.997535,100.424318 C359.391615,104.813859 299.828463,171.48797 304.220376,249.049068 C308.61229,326.613062 375.322441,386.144035 452.928361,381.754494 L468.517335,380.871374 C538.535907,369.257623 590.166962,306.341839 586.06765,233.934687 C581.649663,155.916103 514.777278,96.0260913 436.997535,100.424318 M130.241508,485.841042 L125.444009,401.10206 L276.311796,392.37593 C242.804626,355.438351 222.468791,307.387105 219.438487,253.843975 C212.398679,129.558591 307.844574,22.721342 432.200036,15.6853369 C556.729321,8.64354084 663.789451,104.396911 670.852436,229.136884 C673.839285,281.9214 658.343015,331.558533 630.004165,371.739045 L811.721029,361.460107 L816.56488,447.021404 L477.446014,466.201033 C471.095701,467.107316 464.609228,466.927797 458.090887,467.295522 L130.241508,485.841042 Z"/>
      <polygon fill="#613D6E" fill-opacity=".4" points="312.379 441.244 130.68 451.52 129.718 434.573 311.42 424.297"/>
      <path fill="#613D6E" fill-opacity=".4" d="M814.630526,412.835395 L456.171018,433.109514 C350.515952,439.085775 259.696631,358.038524 253.717139,252.440538 C247.737647,146.842552 328.828707,56.0722957 434.483773,50.0960346 C540.770394,44.0821323 632.102492,125.103323 638.081983,230.701309 C641.083317,283.714567 622.692904,334.223239 586.294488,372.929954 L573.915434,361.30462 C607.095238,326.023253 623.863309,279.979404 621.125605,231.659712 C615.676272,135.405425 532.380565,61.5592215 435.445591,67.0432518 C339.139274,72.4896409 265.224184,155.227849 270.673517,251.482136 C276.12285,347.733527 358.908678,421.608685 455.212098,416.162296 L813.671606,395.888178 L814.630526,412.835395 Z"/>
      <path fill="#010202" fill-opacity=".15" d="M528.747676,336.01496 L669.488799,328.055298 C669.488799,328.055298 658.242488,357.704965 649.788924,363.171623 L440.796424,374.993849 C512.990673,358.159555 528.747676,336.01496 528.747676,336.01496"/>
      <path fill="#613D6E" d="M806.940043,460.089553 L461.082661,479.651384 C393.404898,483.479203 330.101667,461.80657 282.830657,418.62345 C235.962337,375.810952 208.040661,314.930687 204.204979,247.196832 L217.768923,246.429531 C221.404708,310.601952 247.76488,368.192956 291.996894,408.599315 C336.544685,449.295221 396.319321,469.714113 460.314945,466.094769 L806.172327,446.532937 L806.940043,460.089553 Z"/>
      <path fill="#613D6E" d="M807.06983,361.927148 L455.54294,381.810377 C415.940397,384.051475 378.247003,370.10397 349.409862,342.539045 C322.426827,316.743255 305.774639,281.181027 303.723534,244.970212 L318.985143,244.104465 C320.81897,276.496147 335.759007,308.349272 359.978266,331.495702 C385.71847,356.104347 419.350213,368.554891 454.676725,366.557013 L806.206512,346.673783 L807.06983,361.927148 Z"/>
      <path fill="#010202" fill-opacity=".15" d="M459.460608,481.04903 C408.539426,483.92974 359.828019,470.505397 319.571293,446.136928 C291.040805,428.866663 266.756891,406.099439 248.942543,379.743579 L209.792562,381.894136 C238.988936,432.646028 285.658459,469.753781 342.802582,487.647819 L459.460608,481.04903 Z"/>
      <polygon fill="#CFE8F9" points="71.379 503.514 133.726 499.987 127.307 386.588 64.959 390.115"/>
      <polygon fill="#A5CFEB" points="131.658 463.432 133.755 500.474 71.408 504.001 69.31 466.959"/>
      <polygon fill="#FEFEFE" fill-opacity=".3" points="127.003 386.607 127.881 402.086 65.835 405.596 64.957 390.116"/>
      <path fill="#EE7B9A" d="M71.4069617,503.999436 L64.9581496,390.117496 L30.5239265,392.063255 C4.83580881,392.654483 -0.370113015,408.040488 0.620674826,425.537845 L3.48295081,476.060995 C4.47373865,493.558352 19.4659231,506.938344 36.9727386,505.948091 L71.4069617,503.999436 Z"/>
      <path fill="#DE738E" d="M43.4473344,468.421283 C29.1678219,469.229121 16.936517,458.313179 16.1282428,444.041381 L13.6541702,400.363135 C13.5614649,398.701132 13.639685,397.073875 13.8511689,395.481364 C5.29910548,400.108333 -0.295079666,409.353586 0.290122508,419.699119 L3.81292372,481.896825 C4.62119801,496.171519 16.8525029,507.087461 31.1320153,506.279623 L71.4066719,504.000884 L69.3092146,466.959068 L43.4473344,468.421283 Z"/>
      <polygon fill="#F8CE86" points="812.732 461.918 795.427 436.721 810.008 405.444 791.945 375.227 806.231 347.098 899.428 400.389"/>
      <polygon fill="#DCAE6C" points="812.732 461.918 795.427 436.721 810.008 405.444 899.428 400.389"/>
      <polygon fill="#6B7483" points="857.213 376.25 860.159 428.258 899.429 400.389"/>
      <polygon fill="#535663" points="858.71 402.691 860.159 428.258 899.428 400.389"/>
    </g>
  </g>
</svg>
