<svg xmlns="http://www.w3.org/2000/svg" width="668" height="900" viewBox="0 0 668 900">
  <defs>
    <filter id="a" width="200%" height="200%" x="-50%" y="-50%" filterUnits="objectBoundingBox">
      <feOffset dy="1" in="SourceAlpha" result="shadowOffsetOuter1"/>
      <feGaussianBlur stdDeviation="4" in="shadowOffsetOuter1" result="shadowBlurOuter1"/>
      <feColorMatrix values="0 0 0 0 0 0 0 0 0 0 0 0 0 0 0 0 0 0 0.2 0" in="shadowBlurOuter1" result="shadowMatrixOuter1"/>
      <feMerge>
        <feMergeNode in="shadowMatrixOuter1"/>
        <feMergeNode in="SourceGraphic"/>
      </feMerge>
    </filter>
  </defs>
  <g fill="none" fill-rule="evenodd">
    <g opacity=".2" transform="translate(216.37 714.504)">
      <path stroke="#E94F7E" stroke-width="6.184" d="M.559471465 67.3976336C.559471465 79.1577481 10.0900627 88.6901908 21.8478931 88.6901908 33.6057234 88.6901908 43.1363147 79.1577481 43.1363147 67.3976336 43.1363147 55.6375191 33.6057234 46.1050763 21.8478931 46.1050763 10.0900627 46.1050763.559471465 55.6375191.559471465 67.3976336L.559471465 67.3976336zM43.6131877 171.071794C43.6131877 178.431527 49.5788226 184.398321 56.937126 184.398321 64.2971465 184.398321 70.2627815 178.431527 70.2627815 171.071794 70.2627815 163.712061 64.2971465 157.745267 56.937126 157.745267 49.5788226 157.745267 43.6131877 163.712061 43.6131877 171.071794L43.6131877 171.071794z"/>
      <path fill="#E94F7E" d="M77.1155342,13.3718702 C77.1155342,20.7316031 83.0811692,26.6983969 90.4394725,26.6983969 C97.7994931,26.6983969 103.763411,20.7316031 103.763411,13.3718702 C103.763411,6.0121374 97.7994931,0.0453435115 90.4394725,0.0453435115 C83.0811692,0.0453435115 77.1155342,6.0121374 77.1155342,13.3718702"/>
      <path fill="#E94F7E" d="M77.1155342,13.3718702 C77.1155342,20.7316031 83.0811692,26.6983969 90.4394725,26.6983969 C97.7994931,26.6983969 103.763411,20.7316031 103.763411,13.3718702 C103.763411,6.0121374 97.7994931,0.0453435115 90.4394725,0.0453435115 C83.0811692,0.0453435115 77.1155342,6.0121374 77.1155342,13.3718702"/>
      <path fill="#CF4066" d="M90.4398159,24.0437405 C83.5348596,24.0437405 77.92469,18.7708397 77.2498211,12.0431679 C77.2051733,12.4880153 77.1158776,12.9174046 77.1158776,13.3708397 C77.1158776,20.7322901 83.0815126,26.699084 90.4398159,26.699084 C97.7981193,26.699084 103.763754,20.7322901 103.763754,13.3708397 C103.763754,12.9174046 103.674459,12.4880153 103.629811,12.0431679 C102.954942,18.7708397 97.343055,24.0437405 90.4398159,24.0437405"/>
      <path fill="#E94F7E" d="M94.509636,93.2427481 C94.509636,106.507443 105.261173,117.261069 118.523292,117.261069 C131.787127,117.261069 142.538664,106.507443 142.538664,93.2427481 C142.538664,79.9780534 131.787127,69.2244275 118.523292,69.2244275 C105.261173,69.2244275 94.509636,79.9780534 94.509636,93.2427481"/>
      <path fill="#CF4066" d="M118.523978,112.70937 C106.029459,112.70937 95.7724823,103.163187 94.6253769,90.966813 C94.5532535,91.7156679 94.5103229,92.4748282 94.5103229,93.2425763 C94.5103229,106.507271 105.26186,117.262615 118.523978,117.262615 C131.786097,117.262615 142.537634,106.507271 142.537634,93.2425763 C142.537634,92.4748282 142.494703,91.7156679 142.42258,90.966813 C141.275475,103.163187 131.018498,112.70937 118.523978,112.70937"/>
    </g>
    <g filter="url(#a)">
      <path fill="#F3F9FD" d="M350.920835,692.179866 C350.771437,692.179866 350.620321,692.171279 350.467488,692.152385 L233.591529,678.126813 C232.49594,677.996279 231.530861,677.384828 230.941853,676.452195 C230.354562,675.517844 230.218902,674.384256 230.57265,673.338263 L238.035704,650.772996 L234.448424,649.874714 C78.45411,610.772805 -11.4305275,468.505821 5.4583671,287.432347 C13.1189018,205.30563 46.9293183,134.65563 103.230213,83.1203244 C160.180218,30.9907443 234.912074,3.43597328 319.351395,3.43597328 C335.031365,3.43597328 351.154377,4.41669847 367.270521,6.35066794 C458.729853,17.3241412 538.13084,55.5191794 590.844454,113.895515 C647.871735,177.04666 672.000444,260.573187 660.620403,355.445897 C650.983344,435.77605 617.811735,509.641317 567.217174,563.43521 C512.497843,621.615744 439.411087,655.417271 355.861287,661.184828 L352.399365,661.423569 L354.501246,687.913454 C354.652362,689.127767 354.339827,690.144561 353.640917,690.93979 C352.947159,691.728149 351.956321,692.179866 350.920835,692.179866"/>
      <path fill="#DDE3EF" d="M319.350193,0.00034351145 C144.26207,0.00034351145 17.7026869,119.188511 2.03988997,287.114084 C-15.0928504,470.793092 76.9039722,613.925725 233.612651,653.20626 L227.319026,672.236794 C225.878276,676.496336 228.718563,681.001489 233.181628,681.537366 L350.059304,695.562939 C350.349515,695.59729 350.636291,695.614466 350.919633,695.614466 C355.106224,695.614466 358.468548,691.923435 357.925905,687.641565 L356.098779,664.612557 C534.425587,652.301107 644.781247,516.316947 664.029607,355.855878 C688.345494,153.146336 550.134749,24.8345038 367.679736,2.93908397 C351.220147,0.96389313 335.073093,0.00034351145 319.350193,0.00034351145 M319.350193,6.87057252 C334.894502,6.87057252 350.87842,7.84270992 366.86062,9.76122137 C411.872486,15.1629389 453.777895,27.0226718 491.414286,45.0123664 C529.473114,63.2030153 562.067736,87.1526336 588.294893,116.196527 C644.637001,178.590229 668.466913,261.178969 657.208795,355.036603 C652.460671,394.615992 642.162481,432.374771 626.599283,467.263511 C610.819715,502.633168 590.000096,534.200153 564.715695,561.083359 C510.599108,618.621527 438.297124,652.050344 355.624826,657.757786 L348.70098,658.235267 L349.250492,665.155305 L351.077617,688.184313 L351.091355,688.345763 L351.110245,688.505496 C351.117114,688.553588 351.122265,688.599962 351.06388,688.668664 C351.020949,688.716756 350.974584,688.742519 350.89044,688.742519 C350.887006,688.742519 350.881854,688.740802 350.876702,688.740802 L234.000743,674.716947 C233.952661,674.710076 233.901144,674.704924 233.846193,674.619046 C233.792959,674.534885 233.810132,674.483359 233.841042,674.395763 L240.134666,655.363511 L242.456353,648.34042 L235.281792,646.542137 C81.0235918,607.874771 -7.84444936,467.041947 8.87787455,287.751298 C12.6643527,247.163702 23.0638591,209.025344 39.7896175,174.397672 C56.194255,140.436412 78.3172473,110.578397 105.547263,85.6532061 C132.961021,60.5596947 164.915119,41.0551145 200.523468,27.6787786 C237.280641,13.8713359 277.259324,6.87057252 319.350193,6.87057252"/>
      <path fill="#F3F9FD" d="M350.774871,689.594256 L233.897195,675.568683 C233.47991,675.518874 233.246367,675.274981 233.12101,675.077462 C232.99737,674.88166 232.878881,674.563912 233.012825,674.163721 L241.351663,648.948263 L235.073493,647.374981 C80.3825522,608.599408 -8.73963805,467.409332 8.02218201,287.672118 C15.6243311,206.19292 49.1479712,136.116584 104.968043,85.0192557 C161.435508,33.3328053 235.568053,6.01162214 319.351395,6.01162214 C334.928331,6.01162214 350.950028,6.9854771 366.964856,8.90742366 C457.804269,19.8087595 536.635138,57.7083779 588.933185,115.620973 C645.447015,178.203607 669.350768,261.02937 658.06174,355.139485 C648.489935,434.926889 615.560454,508.273454 565.340249,561.672309 C511.074264,619.37021 438.576516,652.891775 355.682696,658.614676 L349.626048,659.03376 L351.946017,688.257996 L351.96319,688.398836 C352.004403,688.716584 351.916825,688.998263 351.707323,689.237004 C351.587118,689.372691 351.324383,689.602844 350.920835,689.602844 C350.872753,689.602844 350.822953,689.599408 350.774871,689.594256"/>
      <path fill="#DDE3EF" d="M319.350022,0.00034351145 C144.261898,0.00034351145 17.7025152,119.188511 2.03971825,287.114084 C-15.0930221,470.793092 76.9038005,613.925725 233.612479,653.20626 L227.318854,672.236794 C225.878104,676.496336 228.718392,681.001489 233.181456,681.537366 L350.059132,695.562939 C350.349343,695.59729 350.636119,695.614466 350.919461,695.614466 C355.106052,695.614466 358.468376,691.923435 357.925734,687.641565 L356.098608,664.612557 C534.425415,652.301107 644.781076,516.316947 664.029435,355.855878 C688.345322,153.146336 550.134577,24.8345038 367.679564,2.93908397 C351.219975,0.96389313 335.072921,0.00034351145 319.350022,0.00034351145 M319.350022,12.0232443 C334.68998,12.0232443 350.467831,12.9833588 366.247399,14.8761069 C410.699451,20.2108397 452.063934,31.9142748 489.193744,49.6617939 C526.64124,67.560458 558.698371,91.1081679 584.472181,119.650534 C639.787389,180.905496 663.170824,262.089275 652.094731,354.423435 C647.408428,393.489275 637.247615,430.746527 621.893919,465.162939 C606.351328,500.005305 585.851112,531.089656 560.963389,557.552061 C507.753497,614.128397 436.624376,647.000725 355.270906,652.617137 L343.154176,653.453588 L344.115821,665.562366 L345.491317,682.90626 L240.6136,670.32 L245.025148,656.98145 L249.089816,644.690611 L236.535194,641.544046 C84.8820216,603.531069 -2.46627661,464.846908 14.0070499,288.230496 C17.7368596,248.256069 27.9715126,210.710267 44.4293841,176.639084 C60.5472452,143.268664 82.2804278,113.936221 109.026186,89.4541603 C135.952253,64.8072137 167.346536,45.646145 202.33325,32.5033969 C238.510001,18.914084 277.880788,12.0232443 319.350022,12.0232443"/>
      <path fill="#F3F9FD" d="M350.774871,689.594256 L233.897195,675.568683 C233.47991,675.518874 233.246367,675.274981 233.12101,675.077462 C232.99737,674.88166 232.878881,674.563912 233.012825,674.163721 L241.351663,648.948263 L235.073493,647.374981 C80.3825522,608.599408 -8.73963805,467.409332 8.02218201,287.672118 C15.6243311,206.19292 49.1479712,136.116584 104.968043,85.0192557 C161.435508,33.3328053 235.568053,6.01162214 319.351395,6.01162214 C334.928331,6.01162214 350.950028,6.9854771 366.964856,8.90742366 C457.804269,19.8087595 536.635138,57.7083779 588.933185,115.620973 C645.447015,178.203607 669.350768,261.02937 658.06174,355.139485 C648.489935,434.926889 615.560454,508.273454 565.340249,561.672309 C511.074264,619.37021 438.576516,652.891775 355.682696,658.614676 L349.626048,659.03376 L351.946017,688.257996 L351.96319,688.398836 C352.004403,688.716584 351.916825,688.998263 351.707323,689.237004 C351.587118,689.372691 351.324383,689.602844 350.920835,689.602844 C350.872753,689.602844 350.822953,689.599408 350.774871,689.594256"/>
      <path fill="#DDE3EF" d="M319.350022,0.00034351145 C144.261898,0.00034351145 17.7025152,119.188511 2.03971825,287.114084 C-15.0930221,470.793092 76.9038005,613.925725 233.612479,653.20626 L227.318854,672.236794 C225.878104,676.496336 228.718392,681.001489 233.181456,681.537366 L350.059132,695.562939 C350.349343,695.59729 350.636119,695.614466 350.919461,695.614466 C355.106052,695.614466 358.468376,691.923435 357.925734,687.641565 L356.098608,664.612557 C534.425415,652.301107 644.781076,516.316947 664.029435,355.855878 C688.345322,153.146336 550.134577,24.8345038 367.679564,2.93908397 C351.219975,0.96389313 335.072921,0.00034351145 319.350022,0.00034351145 M319.350022,12.0232443 C334.68998,12.0232443 350.467831,12.9833588 366.247399,14.8761069 C410.699451,20.2108397 452.063934,31.9142748 489.193744,49.6617939 C526.64124,67.560458 558.698371,91.1081679 584.472181,119.650534 C639.787389,180.905496 663.170824,262.089275 652.094731,354.423435 C647.408428,393.489275 637.247615,430.746527 621.893919,465.162939 C606.351328,500.005305 585.851112,531.089656 560.963389,557.552061 C507.753497,614.128397 436.624376,647.000725 355.270906,652.617137 L343.154176,653.453588 L344.115821,665.562366 L345.491317,682.90626 L240.6136,670.32 L245.025148,656.98145 L249.089816,644.690611 L236.535194,641.544046 C84.8820216,603.531069 -2.46627661,464.846908 14.0070499,288.230496 C17.7368596,248.256069 27.9715126,210.710267 44.4293841,176.639084 C60.5472452,143.268664 82.2804278,113.936221 109.026186,89.4541603 C135.952253,64.8072137 167.346536,45.646145 202.33325,32.5033969 C238.510001,18.914084 277.880788,12.0232443 319.350022,12.0232443"/>
      <path fill="#E94F7E" d="M350.920835,691.321088 C350.805781,691.321088 350.687293,691.314218 350.570521,691.300477 L233.692845,677.273187 C232.547457,677.1375 231.932691,676.412691 231.669956,675.993607 C231.403786,675.574523 231.015694,674.707156 231.386614,673.613073 L239.139879,650.164981 L234.656208,649.041698 C79.8656679,610.240363 -9.64461491,469.529485 6.07313316,290.177004 C14.2728761,287.22624 43.065565,278.037309 83.5302231,278.037309 C117.052146,278.037309 150.467601,284.215363 182.851005,296.394561 C213.700928,308.000095 246.402017,328.890744 281.022963,351.007729 C340.516177,389.013836 407.949832,432.091889 477.957606,432.086737 C479.862007,432.086737 481.781863,432.055821 483.691416,431.992271 C571.975601,429.055248 635.895817,384.486355 658.279827,366.439981 C647.049185,442.277004 614.724167,511.671469 566.592105,562.847805 C512.022172,620.866889 439.132897,654.575668 355.802902,660.327767 L351.473781,660.626622 L353.666676,688.181393 C353.805771,689.268607 353.306059,690.020897 352.996958,690.371279 C352.464619,690.974141 351.707323,691.321088 350.920835,691.321088"/>
      <path fill="#DD4775" d="M83.5303949,273.744447 C34.0125337,273.742729 2.03954653,287.113912 2.03954653,287.113912 C-15.0931938,470.79292 76.9036288,613.925553 233.612307,653.206088 L227.318683,672.23834 C225.877932,676.496164 228.71822,681.001317 233.181284,681.537195 L350.05896,695.562767 C350.349171,695.597118 350.635948,695.614294 350.919289,695.614294 C355.107598,695.614294 358.468205,691.923263 357.925562,687.641393 L356.098436,664.612385 C534.42696,652.300935 644.780904,516.316775 664.029264,355.855706 C664.029264,355.855706 593.494302,424.044447 483.549058,427.701126 C481.68587,427.762958 479.814097,427.793874 477.956061,427.793874 C369.886025,427.793874 270.316246,324.707805 184.362333,292.376508 C146.744832,278.227271 112.196009,273.744447 83.5303949,273.744447 M83.5303949,282.332233 C116.535433,282.332233 149.44259,288.417538 181.34002,300.414676 C211.769223,311.860477 244.288287,332.632615 278.715187,354.625935 C338.70296,392.946355 406.694714,436.38166 477.956061,436.38166 C479.913696,436.38166 481.89022,436.349027 483.834117,436.28376 C542.348513,434.337767 589.743886,414.340248 619.20114,397.90666 C632.863372,390.285859 643.985829,382.76124 652.302343,376.586622 C646.790056,408.098645 637.647557,438.279561 625.031115,466.562576 C609.330539,501.75876 588.617387,533.162576 563.465212,559.90666 C509.650858,617.123645 437.7404,650.366966 355.505994,656.04521 L346.852904,656.641202 L347.539793,665.290821 L349.246714,686.815248 L236.03531,673.231088 L241.763968,655.902653 L244.667793,647.124218 L235.700451,644.875935 C83.8635362,606.816584 -4.25407815,469.137195 10.1156494,293.321164 C20.516873,289.846546 47.2248524,282.332233 83.5303949,282.332233"/>
      <path fill="#DD4775" d="M664.029092,355.855706 C664.029092,355.855706 576.490182,661.359332 305.610172,628.852844 C13.841853,593.840439 2.03937481,287.113912 2.03937481,287.113912 C-15.0933656,470.79292 76.9034571,613.925553 233.612136,653.206088 L227.318511,672.23834 C225.87776,676.496164 228.719766,681.001317 233.181113,681.537195 L350.058789,695.562767 C354.633472,696.112385 358.505812,692.213531 357.92539,687.641393 L356.098264,664.612385 C534.426789,652.300935 644.780732,516.316775 664.029092,355.855706"/>
      <g transform="translate(0 272.152)">
        <path fill="#E94F7E" d="M350.774871,417.442156 L233.897195,403.416584 C233.47991,403.366775 233.246367,403.122882 233.12101,402.925363 C232.99737,402.729561 232.878881,402.411813 233.012825,402.011622 L241.351663,376.796164 L235.073493,375.222882 C81.4575342,336.716966 -7.49808535,197.223836 7.68904062,19.2745992 C16.9465933,16.0473092 44.8634982,7.60379771 83.5302231,7.60379771 C116.842645,7.60379771 150.055467,13.7440649 182.244825,25.851126 C212.928177,37.3913931 245.557143,58.2356679 280.099097,80.3028435 C339.791508,118.43605 407.448403,161.65666 477.957606,161.653225 C479.882614,161.653225 481.819642,161.622309 483.749802,161.557042 C569.329359,158.709332 630.857483,118.223073 655.889452,98.5329962 C644.116167,172.267729 612.282275,239.607996 565.340249,289.518492 C511.074264,347.218111 438.576516,380.739676 355.682696,386.462576 L349.626048,386.88166 L351.946017,416.105897 L351.96319,416.246737 C352.004403,416.564485 351.916825,416.846164 351.707323,417.084905 C351.587118,417.222309 351.322665,417.450744 350.920835,417.450744 C350.872753,417.450744 350.822953,417.447309 350.774871,417.442156"/>
        <path fill="#DD4775" d="M83.5303949,1.59234733 C34.0125337,1.59062977 2.03954653,14.961813 2.03954653,14.961813 C-15.0931938,198.640821 76.9036288,341.773454 233.612307,381.053989 L227.318683,400.08624 C225.877932,404.344065 228.71822,408.849218 233.181284,409.385095 L350.05896,423.410668 C350.349171,423.445019 350.635948,423.462195 350.919289,423.462195 C355.107598,423.462195 358.468205,419.771164 357.925562,415.489294 L356.098436,392.460286 C534.42696,380.148836 644.780904,244.164676 664.029264,83.7036069 C664.029264,83.7036069 593.494302,151.892347 483.549058,155.549027 C481.68587,155.610859 479.814097,155.641775 477.956061,155.641775 C369.886025,155.641775 270.316246,52.5557061 184.362333,20.2244084 C146.744832,6.07517176 112.196009,1.59234733 83.5303949,1.59234733 M83.5303949,13.6152481 L83.5303949,13.6152481 C116.119865,13.6152481 148.621757,19.6266985 180.131094,31.4778435 C210.223721,42.7982634 242.595104,63.4759351 276.865737,85.3696374 C337.250189,123.942538 405.691855,167.664676 477.956061,167.664676 C479.94804,167.664676 481.964061,167.630324 483.949171,167.565057 C543.148739,165.596737 591.085038,145.3725 620.873716,128.755134 C631.153017,123.02021 640.022477,117.33166 647.361891,112.21334 C641.803238,140.427653 633.275505,167.49979 621.895464,193.010668 C606.351156,227.854752 585.85094,258.937385 560.963217,285.39979 C507.753325,341.976126 436.625922,374.848454 355.270734,380.464866 L343.154004,381.301317 L344.115649,393.411813 L345.491146,410.753989 L240.613428,398.167729 L245.024976,384.829179 L249.089644,372.53834 L236.535022,369.391775 C87.0747445,331.928416 0.0750426735,196.693111 13.3577676,23.7265076 C24.754981,20.1196374 49.9706931,13.6152481 83.5303949,13.6152481"/>
      </g>
      <path stroke="#FFFFFF" stroke-width="6.184" d="M181.604472,415.405477 C183.350888,400.845744 172.96512,387.625706 158.408215,385.87895 C143.85131,384.132195 130.63384,394.518263 128.887423,409.079714 C127.141007,423.639447 137.525058,436.859485 152.08368,438.60624 C166.640585,440.352996 179.858056,429.96521 181.604472,415.405477 L181.604472,415.405477 Z" opacity=".3"/>
      <path stroke="#FFFFFF" stroke-width="3.979" d="M308.10856,434.558817 C309.231625,425.19126 302.549907,416.684198 293.18417,415.560916 C283.816715,414.435916 275.313023,421.120649 274.189959,430.488206 C273.065177,439.857481 279.746895,448.362824 289.11435,449.486107 C298.480087,450.611107 306.985496,443.926374 308.10856,434.558817 L308.10856,434.558817 Z" opacity=".3"/>
      <path fill="#FFFFFF" fill-opacity=".3" d="M527.656463 505.52708C528.32618 499.945019 524.345656 494.878225 518.764679 494.208378 513.183702 493.538531 508.117892 497.519828 507.448175 503.101889 506.778458 508.68395 510.758982 513.750744 516.339959 514.420592 521.920936 515.090439 526.986746 511.109141 527.656463 505.52708M282.292679 570.801641C283.707671 559.00374 275.293275 548.291336 263.495949 546.876069 251.700339 545.459084 240.990015 553.876832 239.575023 565.674733 238.160031 577.474351 246.574427 588.186756 258.371753 589.602023 270.167362 591.01729 280.877686 582.599542 282.292679 570.801641"/>
      <path stroke="#E94F7E" stroke-width="6.184" d="M147.179633,175.881469 C145.778378,187.557424 154.106913,198.158187 165.780599,199.559714 C177.454286,200.959523 188.05299,192.631088 189.454245,180.955134 C190.853782,169.279179 182.526965,158.676698 170.853278,157.276889 C159.179592,155.875363 148.580887,164.205515 147.179633,175.881469 L147.179633,175.881469 Z" opacity=".471"/>
      <path stroke="#E94F7E" stroke-width="6.184" d="M402.162445,110.959179 C401.286661,118.267385 406.498435,124.902309 413.805222,125.778263 C421.112008,126.655935 427.745643,121.441431 428.621427,114.134943 C429.497211,106.826737 424.285438,100.191813 416.978651,99.3141412 C409.673581,98.438187 403.038229,103.650973 402.162445,110.959179 L402.162445,110.959179 Z" opacity=".484"/>
      <path fill="#E94F7E" d="M490.807419,238.562347 C489.227573,251.732576 498.622504,263.691927 511.790175,265.27208 C524.957846,266.852233 536.914874,257.455477 538.49472,244.285248 C540.074566,231.113302 530.679635,219.155668 517.511964,217.575515 C504.342576,215.995363 492.387265,225.392118 490.807419,238.562347" opacity=".369"/>
      <path fill="#CF4066" d="M512.332302,260.751469 C499.927079,259.262347 490.879027,248.561966 491.193279,236.315782 C491.033577,237.052615 490.899634,237.799752 490.806904,238.562347 C489.227058,251.732576 498.621989,263.691927 511.78966,265.27208 C524.959048,266.852233 536.914359,257.455477 538.494205,244.285248 C538.585217,243.520935 538.631583,242.763492 538.650472,242.011202 C536.059181,253.984294 524.737526,262.240592 512.332302,260.751469" opacity=".276"/>
      <path fill="#221E1F" d="M370.988654,556.78208 C378.166649,552.457271 374.052181,542.395821 398.855759,527.143912 C416.465888,516.316431 437.668448,527.435897 457.698145,520.034943 C477.25904,512.809179 484.205209,488.686088 489.710628,486.874065 C532.723646,472.712805 528.796356,435.247729 534.487235,423.391431 C540.179831,411.535134 561.092181,407.655172 565.921014,380.260134 C569.855173,357.93876 546.154052,332.699256 549.392736,321.567767 C567.279338,260.094676 497.077518,259.206698 497.077518,259.206698 C486.399821,197.7525 427.787543,207.994294 427.787543,207.994294 C372.073939,134.087805 335.837086,177.928454 324.929281,178.299447 C324.929281,178.299447 306.512058,158.918531 276.184171,162.999447 C253.219739,166.089332 234.50887,193.443149 230.202073,198.692004 C225.893559,203.940859 203.586824,192.675401 178.295554,208.114523 C153.002567,223.555363 111.753137,257.645439 140.61795,288.822538 C172.999636,323.798874 209.777415,312.402882 208.182114,322.24792 C205.27142,340.222156 209.736202,361.277691 224.600489,375.607271 C244.832819,395.110134 277.396531,385.443721 277.396531,385.443721 C286.964901,392.253836 274.140675,423.056508 309.005466,449.005363 C317.258443,455.147347 332.852551,455.542385 333.300747,460.830744 C335.996788,492.631317 302.452541,515.497156 304.44452,524.062615 C308.127965,539.910515 356.266896,565.653263 370.988654,556.78208" opacity=".1"/>
      <path fill="#F197AF" stroke="#FFFFFF" stroke-width="5" d="M366.204812,537.864561 C373.259167,533.677156 369.070859,523.696431 393.445131,508.922004 C410.747877,498.434599 431.857707,509.655401 451.595476,502.580782 C470.873028,495.669332 477.468884,471.932691 482.897028,470.206546 C525.302149,456.718569 520.986766,419.684599 526.483599,408.044714 C531.980432,396.404828 552.631763,392.813416 557.096545,365.822004 C560.735342,343.830401 536.989573,318.640706 540.066838,307.686126 C557.063918,247.20063 487.576463,245.519141 487.576463,245.519141 C476.304607,184.722767 418.416997,194.162462 418.416997,194.162462 C362.432072,120.556546 327.07272,163.42334 316.283404,163.665515 C316.283404,163.665515 297.833553,144.31895 267.866283,148.001393 C245.174889,150.788989 226.972319,177.579447 222.768555,182.713225 C218.564792,187.845286 196.36109,176.466469 171.505995,191.419523 C146.652617,206.372576 106.222303,239.5575 135.143784,270.669332 C167.592442,305.571813 203.858488,294.742615 202.393697,304.445095 C199.718262,322.156546 204.378807,342.995668 219.255116,357.314943 C239.499465,376.80063 271.616699,367.630592 271.616699,367.630592 C281.164463,374.463034 268.824494,404.728111 303.627465,430.747385 C311.864987,436.906546 327.302828,437.475057 327.807692,442.699866 C330.838591,474.127729 297.905676,496.318569 299.973213,504.798149 C303.800905,520.486317 351.737203,546.454065 366.204812,537.864561"/>
      <path fill="#444444" d="M337.780468,539.565802 C348.255532,516.830496 379.287481,444.973053 425.145938,454.352634 C425.145938,454.352634 438.674226,455.850344 441.349661,470.90645 C443.74347,484.372099 440.937527,486.307786 444.966134,487.740229 C448.774936,489.095382 456.363347,466.430496 443.432653,451.424198 C443.432653,451.424198 485.628272,434.875534 487.443378,392.132405 C487.443378,392.132405 512.507974,394.629733 524.178226,361.436221 C527.458123,352.108168 515.635039,352.080687 513.308201,358.081832 C505.144519,379.139084 484.937949,376.712176 484.937949,376.712176 C484.18237,350.996908 449.770925,326.997481 449.946082,324.591183 C451.735429,300.076489 487.142864,306.137748 490.065578,299.930496 C493.319717,293.025916 451.646134,288.020954 437.116704,314.08145 C437.116704,314.08145 414.274195,298.396718 402.586771,276.564847 C398.168355,268.311985 394.819769,249.85855 394.900478,243.78355 C395.024118,234.611794 394.028129,229.661794 388.215326,239.372863 C382.404242,249.083931 387.049332,263.736412 387.049332,263.736412 C387.049332,263.736412 364.572591,266.566947 342.234946,255.023244 C313.763378,240.310649 316.131429,214.219237 311.585938,220.079542 C307.03873,225.939847 314.755933,249.161221 325.747882,257.912176 C325.747882,257.912176 317.494905,272.420382 303.722771,270.64271 C275.213424,266.963702 255.2009,233.703206 229.205568,234.065611 C198.932632,234.48813 178.702021,267.039275 184.301887,269.529733 C189.062031,271.645763 207.637239,234.489847 239.618812,247.479733 C266.491645,258.393092 283.112653,282.261985 308.288869,281.696908 C334.425013,281.111221 341.44674,267.997672 341.44674,267.997672 C357.52854,279.154924 386.948015,275.256069 386.948015,275.256069 L410.171748,308.027061 C410.171748,308.027061 375.104324,324.828206 372.700211,329.920763 C372.700211,329.920763 348.272704,315.71313 320.630555,334.686985 C316.426792,337.574198 315.645455,338.931069 316.81145,340.890802 C319.026668,344.614466 336.372344,335.418664 345.119882,335.578397 C355.208571,335.760458 364.87654,341.986603 363.688221,345.239656 C351.482195,378.623817 364.490165,392.218282 367.605208,391.579351 C372.530206,390.569427 362.645866,379.003397 374.527337,355.253015 C386.029301,332.261794 420.17801,316.980687 420.17801,316.980687 C439.792139,328.314847 487.996324,363.919809 467.762278,413.088321 C467.762278,413.088321 460.960355,396.153206 448.931203,391.735649 C434.863707,386.569237 418.64453,386.862939 417.997136,392.249198 C416.935892,401.091183 428.30563,394.47687 447.998751,404.072863 C456.315265,408.126298 460.584283,423.428015 455.880807,428.83145 C434.135604,453.797863 406.546689,414.95187 361.029959,479.315611 C343.945301,503.474771 332.278483,526.223817 327.116509,537.223053 C327.116509,537.223053 328.454226,537.94271 328.935049,538.095573 C331.072992,538.770573 337.780468,539.565802 337.780468,539.565802" opacity=".1"/>
      <path fill="#FFFFFF" d="M331.445973,536.210382 C331.445973,536.210382 371.328493,436.688244 422.065583,444.370878 C422.065583,444.370878 435.592153,445.86687 438.269305,460.922977 C440.663115,474.388626 437.855454,476.324313 441.884061,477.756756 C445.692863,479.111908 453.281274,456.447023 440.35058,441.440725 C440.35058,441.440725 482.547917,424.892061 484.363022,382.148931 C484.363022,382.148931 509.427619,384.64626 521.09787,351.454466 C524.377768,342.124695 512.554683,342.097214 510.227845,348.098359 C502.062446,369.155611 481.857593,366.728702 481.857593,366.728702 C481.102014,341.013435 446.688852,317.014008 446.865726,314.60771 C448.655074,290.093015 484.062508,296.154275 486.985223,289.947023 C490.237644,283.042443 448.564061,278.039198 434.034631,304.097977 C434.034631,304.097977 411.19384,288.413244 399.506415,266.581374 C395.087999,258.330229 391.739413,239.875076 391.820122,233.801794 C391.942045,224.628321 390.947773,219.678321 385.134971,229.389389 C379.322169,239.100458 383.968976,253.752939 383.968976,253.752939 C383.968976,253.752939 361.492235,256.583473 339.15459,245.039771 C310.683022,230.327176 313.051074,204.235763 308.503865,210.096069 C303.958374,215.956374 311.675577,239.177748 322.665809,247.928702 C322.665809,247.928702 314.414549,262.436908 300.642415,260.659237 C272.131351,256.980229 252.120544,223.72145 226.125212,224.083855 C195.852277,224.504656 175.621665,257.055802 181.221531,259.54626 C185.981675,261.664008 204.555166,224.506374 236.536739,237.49626 C263.409572,248.411336 280.03058,272.278511 305.206796,271.715153 C331.344657,271.129466 338.364667,258.014198 338.364667,258.014198 C354.448184,269.17145 383.86766,265.272595 383.86766,265.272595 L407.091392,298.043588 C407.091392,298.043588 372.023968,314.844733 369.619855,319.93729 C369.619855,319.93729 345.192349,305.729656 317.550199,324.705229 C313.344719,327.590725 312.565099,328.949313 313.731094,330.909046 C315.946313,334.63271 333.291989,325.436908 342.039526,325.594924 C352.128215,325.778702 361.796184,332.00313 360.606148,335.256183 C348.400122,368.642061 361.409809,382.234809 364.523135,381.595878 C369.44985,380.585954 359.563793,369.021641 371.446981,345.27126 C382.948945,322.278321 417.097654,306.997214 417.097654,306.997214 C436.711783,318.333092 484.915968,353.938053 464.680205,403.104847 C464.680205,403.104847 457.879999,386.169733 445.850847,381.753893 C431.783351,376.587481 415.562457,376.879466 414.91678,382.265725 C413.855536,391.10771 425.223557,384.493397 444.918395,394.091107 C453.234909,398.142824 457.503927,413.44626 452.798734,418.847977 C431.055248,443.814389 403.466333,404.968397 357.949603,469.333855 C334.581624,502.376221 322.42368,530.983855 322.42368,530.983855 C321.472338,535.057901 326.455721,538.673359 331.445973,536.210382"/>
      <path fill="#FFFFFF" d="M633.36171,168.752233 C584.091129,75.1333397 485.038234,17.0232252 367.679736,2.93925573 C167.927129,-21.0309733 19.1090931,104.110248 2.03988997,287.114256 C-3.30067558,344.370744 1.96261491,397.687156 16.4851753,445.146698 C21.1989542,460.551469 260.80317,533.293454 351.642584,499.840592 C540.647088,430.238302 651.820147,203.824752 633.36171,168.752233" opacity=".2"/>
      <path fill="#6B7492" d="M662.179254,254.551034 C637.568004,110.709049 517.549526,20.9237435 367.678832,2.93920154 C167.926225,-21.0310275 19.1081894,104.110194 2.03898628,287.112484 C-1.76122965,327.864965 -0.191687237,366.619927 6.26507369,402.688629 C17.2656084,464.132522 -34.8091988,134.322026 222.513331,59.9466443 C566.835562,-39.5754931 664.931963,270.63424 662.179254,254.551034" opacity=".03"/>
      <path fill="#FFFFFF" d="M2.03932552,287.11374 C-15.0934148,470.792748 76.9034078,613.925382 233.612086,653.205916 L227.318462,672.23645 C225.877711,676.495992 228.717999,681.001145 233.181063,681.537023 L350.058739,695.562595 C355.10566,695.614122 358.467984,691.923092 357.925341,687.641221 L356.098215,664.612214 C534.425022,652.300763 644.780683,516.316603 664.029043,355.855534 C688.34493,153.145992 550.134184,24.8341603 367.679171,2.93874046 C351.219583,0.963549618 335.072529,0 319.349629,0 C144.261505,0 17.7021224,119.188168 2.03932552,287.11374 Z M368.096968,41.7211287 C410.388267,46.625261 456.610976,57.3840367 491.935957,73.6990395 C527.563183,90.1529875 558.062062,111.800011 582.583043,138.038539 C635.209457,194.34922 652.140013,263.5973 643.484109,348.70874 C623.058297,549.550862 466.073225,648.273503 343.556372,653.749344 L345.853104,683.275441 L241.135483,671.380016 L248.304271,643.570033 C104.022746,608.625327 24.1748415,455.371897 39.8474227,293.01133 C43.3959316,256.263495 53.1330924,221.748256 68.7909698,190.427177 C84.1253644,159.750298 104.802127,132.785465 130.247812,110.279509 C155.86504,87.6219753 185.733291,70.0075195 219.01935,57.925607 C253.4376,45.4331747 290.894628,39.098539 330.3481,39.098539 C344.942405,39.098539 353.084422,39.9811565 368.096968,41.7211287 Z" opacity=".049"/>
      <path fill="#FFFFFF" d="M509.802488,46.6569275 C467.811219,23.9800191 419.533193,9.16265267 367.679907,2.93994275 C167.927301,-21.0302863 19.1092648,104.110935 2.03834447,287.113225 C-3.30050386,344.371431 220.041604,342.188416 310.879301,308.737271 C499.885522,239.134981 562.849244,75.3057824 509.802488,46.6569275" opacity=".12"/>
    </g>
  </g>
</svg>
