<svg xmlns="http://www.w3.org/2000/svg" width="762" height="900" viewBox="0 0 762 900" xmlns:xlink="http://www.w3.org/1999/xlink">
  <defs>
    <rect id="a" width="762" height="900"/>
    <filter id="c" width="200%" height="200%" x="-50%" y="-50%" filterUnits="objectBoundingBox">
      <feOffset in="SourceAlpha" result="shadowOffsetOuter1"/>
      <feGaussianBlur stdDeviation="6" in="shadowOffsetOuter1" result="shadowBlurOuter1"/>
      <feColorMatrix values="0 0 0 0 0 0 0 0 0 0 0 0 0 0 0 0 0 0 0.15 0" in="shadowBlurOuter1" result="shadowMatrixOuter1"/>
      <feMerge>
        <feMergeNode in="shadowMatrixOuter1"/>
        <feMergeNode in="SourceGraphic"/>
      </feMerge>
    </filter>
  </defs>
  <g fill="none" fill-rule="evenodd">
    <mask id="b" fill="white">
      <use xlink:href="#a"/>
    </mask>
    <g transform="rotate(-8 418.721 429.354)" mask="url(#b)">
      <g opacity=".1" transform="translate(85.875 47.572)">
        <path fill="#000000" d="M640.336567,34.5642915 C640.336567,15.426317 624.961298,0.0620276974 605.809648,0.0620276974 C586.657998,0.0620276974 571.282729,15.426317 571.282729,34.5642915 C571.282729,42.1116617 573.710403,48.850385 577.486785,54.5109127 L550.782371,112.463934 C545.927023,113.003032 541.341416,114.350776 537.295293,116.507168 L502.228891,95.4823509 L502.228891,94.943253 C502.228891,75.8052786 486.853623,60.4409893 467.701972,60.4409893 C448.550322,60.4409893 433.175053,75.8052786 433.175053,94.943253 C433.175053,102.490623 435.602727,109.229347 439.379109,114.889874 L412.674695,172.842895 C395.141494,174.460189 381.384675,189.015832 381.384675,207.07561 C381.384675,226.213585 396.759943,241.577874 415.911594,241.577874 C435.063244,241.577874 450.438513,226.213585 450.438513,207.07561 C450.438513,199.797789 448.010839,192.789517 443.964715,187.128989 L470.938871,129.175968 C475.794219,128.63687 480.379825,127.289125 484.425949,125.132734 L519.492351,146.157551 L519.492351,146.696649 C519.492351,165.834623 534.867619,181.198912 554.01927,181.198912 C573.17092,181.198912 588.546188,165.834623 588.546188,146.696649 C588.546188,139.418827 586.118515,132.410555 582.072391,126.750027 L609.046547,68.7970063 C626.579748,67.1797127 640.336567,52.6240701 640.336567,34.5642915 L640.336567,34.5642915 Z"/>
        <path fill="#000000" d="M192.230629,687.658014 C194.450781,687.658014 196.855946,686.733612 198.52106,685.069686 L210.361873,673.237329 C213.877115,669.724598 213.877115,664.17818 210.361873,660.665449 C206.846632,657.152718 201.296251,657.152718 197.78101,660.665449 L185.940197,672.497806 C182.424955,676.010537 182.424955,681.556955 185.940197,685.069686 C187.605311,686.733612 190.010476,687.658014 192.230629,687.658014 L192.230629,687.658014 Z M73.822499,687.658014 C76.0426514,687.658014 78.4478165,686.733612 80.1129309,685.069686 C83.6281722,681.556955 83.6281722,676.010537 80.1129309,672.497806 L68.2721179,660.665449 C64.7568766,657.152718 59.2064955,657.152718 55.6912541,660.665449 C52.1760128,664.17818 52.1760128,669.724598 55.6912541,673.237329 L67.5320671,685.069686 C69.1971814,686.733612 71.6023465,687.658014 73.822499,687.658014 L73.822499,687.658014 Z M157.44824,785.274965 C157.633253,783.056398 157.818266,781.762234 157.818266,781.762234 C159.298368,772.518204 163.55366,765.677622 172.804295,754.215026 C181.869917,742.75243 186.310222,733.5084 186.310222,720.196998 C186.310222,691.355626 162.998622,666.951389 133.026564,666.951389 C103.054506,666.951389 79.7429055,691.355626 79.7429055,720.196998 C79.7429055,733.5084 84.1832103,742.75243 93.2488327,754.215026 C102.314455,765.677622 106.569747,772.518204 108.234862,781.762234 C108.234862,781.762234 108.234862,783.056398 108.419874,785.274965 L157.44824,785.274965 Z M204.071442,782.316875 C206.291594,782.316875 208.696759,781.392472 210.361873,779.728547 C213.877115,776.215816 213.877115,770.669398 210.361873,767.156667 L198.52106,755.32431 C195.005819,751.811578 189.455438,751.811578 185.940197,755.32431 C182.424955,758.837041 182.424955,764.383458 185.940197,767.896189 L197.78101,779.728547 C199.446124,781.392472 201.851289,782.316875 204.071442,782.316875 L204.071442,782.316875 Z M61.981686,782.316875 C64.2018384,782.316875 66.6070036,781.392472 68.2721179,779.728547 L80.1129309,767.896189 C83.6281722,764.383458 83.6281722,758.837041 80.1129309,755.32431 C76.5976895,751.811578 71.0473084,751.811578 67.5320671,755.32431 L55.6912541,767.156667 C52.1760128,770.669398 52.1760128,776.215816 55.6912541,779.728547 C57.3563685,781.392472 59.7615336,782.316875 61.981686,782.316875 L61.981686,782.316875 Z M133.026564,832.604395 C145.052389,832.604395 149.492694,826.503336 153.007936,815.040739 C154.303025,810.603605 155.413101,803.578143 156.153152,797.107322 L109.714963,797.107322 C110.455014,803.578143 111.56509,810.603605 113.045192,815.040739 C116.375421,826.503336 121.000738,832.604395 133.026564,832.604395 L133.026564,832.604395 Z" transform="rotate(-33 133.027 745.318)"/>
        <path fill="#000000" d="M304.073766,670.677138 C304.278021,668.227837 304.482275,666.799077 304.482275,666.799077 C306.11631,656.593654 310.814159,649.041641 321.026875,636.386916 C331.035336,623.732192 335.93744,613.526769 335.93744,598.830959 C335.93744,566.990039 310.201396,540.047722 277.112197,540.047722 C244.022997,540.047722 218.286953,566.990039 218.286953,598.830959 C218.286953,613.526769 223.189057,623.732192 233.197518,636.386916 C243.20598,649.041641 247.903829,656.593654 249.742118,666.799077 C249.742118,666.799077 249.742118,668.227837 249.946372,670.677138 L304.073766,670.677138 Z M277.112197,722.928905 C290.388727,722.928905 295.290831,716.193325 299.171663,703.538601 C300.601443,698.639997 301.826969,690.883876 302.643986,683.74008 L251.376153,683.74008 C252.19317,690.883876 253.418696,698.639997 255.05273,703.538601 C258.729308,716.193325 263.835666,722.928905 277.112197,722.928905 L277.112197,722.928905 Z" transform="rotate(34 277.112 631.488)"/>
        <path fill="#000000" d="M77.1545744,155.078862 L77.1545744,88.7334573 C77.0127094,86.4652384 75.0265995,84.1970194 72.6148947,84.1970194 C45.2349518,84.1970194 21.4016336,103.618644 13.7409242,131.120799 C13.0315992,133.389018 14.4502491,135.940765 16.8619539,136.649583 L77.1545744,155.078862 Z M90.7736133,98.0898606 L90.7736133,163.868211 C90.7736133,167.837594 86.5176637,171.665213 82.119849,170.38934 L27.2180982,154.086516 C25.9413133,184.707472 49.6327665,215.753719 86.2339337,215.753719 C118.862881,215.753719 145.249769,189.385674 145.249769,156.780026 C145.249769,125.875543 120.990856,100.641607 90.7736133,98.0898606 L90.7736133,98.0898606 Z" transform="rotate(13 79.404 149.975)"/>
      </g>
      <g filter="url(#c)" transform="translate(134.6 122.971)">
        <path fill="#6B7482" d="M205.416944,520.11813 L237.721203,688.020827 C247.138257,715.996691 270.923714,729.900556 301.402255,734.992061 C300.661013,736.709941 300.401761,738.65809 300.78151,740.63548 C301.789307,745.862222 306.835592,749.283363 312.057146,748.274565 C312.057146,748.274565 335.883934,743.682327 347.797328,741.386209 C358.571526,739.309652 388.759221,729.096442 387.755076,723.869699 C387.375326,721.895965 386.411347,720.181739 385.085876,718.862261 C411.496716,702.801908 430.228585,684.848231 428.092494,655.468823 L394.484673,483.673482 L205.416944,520.11813 Z"/>
        <path fill="#656F7E" d="M205.416944,520.118496 L237.721203,688.021193 C247.138257,715.997056 270.923714,729.900921 301.402255,734.992426 C300.661013,736.710306 300.401761,738.658456 300.78151,740.635846 C301.668809,745.244882 305.703647,748.450374 310.227777,748.450374 C310.830264,748.450374 311.443705,748.395548 312.057146,748.27493 L380.119922,735.153249 C385.341476,734.148106 388.759221,729.096807 387.755076,723.870065 C387.375326,721.892675 386.414998,720.17845 385.085876,718.862627 C411.496716,702.802273 430.232236,684.848597 428.092494,655.469188 L394.484673,483.673848 C449.760118,462.112622 107.496372,494.960687 205.416944,520.118496 Z M387.123377,464.766199 L371.330914,470.924983 L374.587996,487.573801 L407.943868,658.064284 C408.630338,671.971804 402.952354,684.252821 374.562436,701.515691 L352.416473,714.984603 L356.498779,719.041725 L328.010272,724.531632 L330.296071,719.246408 L304.739668,714.977293 C288.125632,712.199444 265.154445,705.73729 257.544851,681.774687 L256.584523,678.755604 L225.328227,516.280678 L222.896371,503.65974 L210.459578,500.461559 C166.897941,489.269751 408.057062,456.600785 387.123377,464.766199 Z"/>
        <path fill="#5D6674" d="M274.138207,602.15972 L223.091125,611.999153 C218.730791,612.839617 215.87786,617.053172 216.718924,621.410391 C217.559988,625.767611 221.776554,628.618506 226.136888,627.778042 L277.183969,617.938608 C281.544303,617.098145 284.397234,612.88459 283.55617,608.52737 C282.715106,604.17015 278.49854,601.319256 274.138207,602.15972 L274.138207,602.15972 Z"/>
        <path fill="#000000" fill-opacity=".05" d="M205.416944,520.11813 C205.416944,520.11813 217.239191,581.016796 223.174,611.863209 C223.174,611.863209 214.805284,613.990523 216.776139,621.78387 C218.746995,629.577217 225.926613,627.314395 226.050355,627.944843 C227.941979,637.582413 229.965126,647.967886 231.786683,657.348729 C231.786682,657.348726 223.740474,659.749978 225.619778,667.301585 C227.499083,674.853191 234.886054,673.340468 234.886053,673.340466 C236.591405,682.155392 237.721203,688.020827 237.721203,688.020827 C247.138257,715.996691 270.923714,729.900556 301.402255,734.992061 C300.661013,736.709941 300.401761,738.65809 300.78151,740.63548 C301.789307,745.862222 306.835592,749.283363 312.057146,748.274565 L331.042508,744.166375 C331.042508,744.166375 385.898889,728.732247 374.818323,671.468105 C363.737758,614.203964 290.856654,629.474792 305.388123,502.042234 C306.704214,490.500882 205.416944,520.11813 205.416944,520.11813 Z"/>
        <path fill="#FFD800" d="M204.434708,5.40098482 C67.7760465,31.7430345 -21.6731926,163.990578 4.64270999,300.785021 C24.5138273,404.062523 107.496372,494.960321 205.416944,520.11813 L215.509515,572.568305 L275.663279,560.970786 L404.577243,536.123657 L394.484673,483.673482 C450.903018,455.317492 532.005073,350.04067 499.525546,205.391493 C469.010491,69.4742652 341.093369,-20.9410649 204.434708,5.40098482"/>
        <path fill="#FEE058" d="M251.895349,0.835443783 C236.285458,0.835443783 220.423618,2.31939996 204.433977,5.40061932 C67.7753162,31.742669 -21.6739229,163.993867 4.64563114,300.784655 C24.513097,404.062157 107.495642,494.959956 205.419865,520.117765 L215.508784,572.56794 L275.662549,560.974075 L404.576513,536.123292 L394.483943,483.673117 C450.902288,455.317126 532.004343,350.040304 499.528467,205.391127 C472.580866,85.3770852 369.687038,0.835443783 251.895349,0.835443783 M251.895349,21.1283618 C304.235039,21.1283618 355.727596,39.8240166 396.886588,73.7686004 C438.282923,107.914213 467.70985,156.23782 479.744984,209.839341 C496.632878,285.042293 479.474778,343.486774 462.104895,379.27351 C439.531714,425.791515 407.672931,454.337569 385.388215,465.536687 L371.677071,472.430138 L374.576311,487.510934 L380.834873,520.033698 L271.82854,541.046664 L231.582408,548.802711 L225.327497,516.283602 L222.899292,503.659009 L210.458848,500.464483 C166.900862,489.26902 124.372581,462.842904 90.7136401,426.043715 C56.9670643,389.145839 33.4700706,343.300365 24.5532628,296.946838 C12.8504089,236.111944 25.5135906,174.35232 60.2131913,123.05349 C94.9127921,71.7510048 147.493477,37.0425125 208.267986,25.3280309 C222.724023,22.5428717 237.402797,21.1283618 251.895349,21.1283618"/>
        <path fill="#5D6674" d="M412.156663 575.554505L361.109581 585.393939C356.749248 586.234402 353.896316 590.447957 354.73738 594.805177 355.578444 599.162397 359.79501 602.013291 364.155344 601.172828L415.202426 591.333394C419.562759 590.49293 422.415691 586.279376 421.574626 581.922156 420.733562 577.564936 416.516996 574.714042 412.156663 575.554505L412.156663 575.554505zM282.876459 647.58084L231.829378 657.420274C227.469044 658.260738 224.616113 662.474292 225.457177 666.831512 226.298241 671.188732 230.514807 674.039626 234.87514 673.199163L285.922222 663.359729C290.282555 662.519266 293.135487 658.305711 292.294423 653.948491 291.453359 649.591271 287.236793 646.740377 282.876459 647.58084L282.876459 647.58084zM420.894916 620.975626L369.847834 630.81506C365.4875 631.655523 362.634569 635.869078 363.475633 640.226298 364.316697 644.583518 368.533263 647.434412 372.893596 646.593948L423.940678 636.754515C428.301012 635.914051 431.153943 631.700496 430.312879 627.343277 429.471815 622.986057 425.255249 620.135163 420.894916 620.975626L420.894916 620.975626z"/>
        <polygon fill="#EFC300" points="166.059 319.921 272.031 391.743 266.962 384.07 300.46 556.148 324.138 551.546 290.64 379.467 289.689 374.586 285.57 371.794 179.598 299.972"/>
        <path fill="#FFD800" d="M138.796486,316.507281 C142.415059,335.319897 160.588259,347.637465 179.382202,344.011641 C198.176146,340.389472 210.481487,322.201871 206.859262,303.385599 C203.240688,284.572982 185.07114,272.25907 166.273545,275.881239 C147.479602,279.503408 135.177912,297.694664 138.796486,316.507281"/>
        <path fill="#EFC300" d="M126.95237,318.782223 C131.828259,344.131507 156.326671,360.734502 181.668501,355.845426 C207.004058,350.962488 223.582065,326.453837 218.703034,301.10887 C213.827649,275.762211 189.334425,259.163224 163.989896,264.046943 C138.654039,268.929939 122.077792,293.439761 126.95237,318.782223 L126.95237,318.782223 Z M150.640602,314.232338 C148.277757,301.948132 156.306596,290.076601 168.557622,287.715453 C180.807324,285.355018 192.653625,293.383222 195.015145,305.660541 C197.380247,317.946471 189.351665,329.815794 177.098126,332.177427 C164.851313,334.540145 153.002142,326.509757 150.640602,314.232338 L150.640602,314.232338 Z"/>
        <polygon fill="#EFC300" points="346.444 267.54 269.023 374.714 288.581 388.823 366.002 281.649"/>
        <path fill="#FFD800" d="M390.255214,268.034546 C393.873788,286.847163 381.572098,305.038419 362.778155,308.660588 C343.98056,312.282757 325.811012,299.968845 322.192438,281.156228 C318.570213,262.339956 330.875554,244.152355 349.669498,240.530186 C368.463441,236.904362 386.636641,249.22193 390.255214,268.034546"/>
        <path fill="#EFC300" d="M378.411098,270.309489 C380.773943,282.593695 372.745104,294.465226 360.494078,296.826374 C348.244376,299.186809 336.398075,291.158605 334.036555,278.881286 C331.671453,266.595356 339.700035,254.726033 351.953574,252.3644 C364.200386,250.001683 376.049558,258.03207 378.411098,270.309489 L378.411098,270.309489 Z M402.09933,265.759604 C397.223441,240.41032 372.725029,223.807325 347.383199,228.696401 C322.047642,233.579339 305.469635,258.08799 310.348666,283.432957 C315.224051,308.779616 339.717275,325.378603 365.061804,320.494884 C390.397661,315.611888 406.973908,291.102066 402.09933,265.759604 L402.09933,265.759604 Z"/>
        <path fill="#FFFFFF" fill-opacity=".2" d="M4.64270999,300.785021 C11.3212397,335.495795 25.1287126,368.808182 44.2362579,398.696395 C62.2604673,426.890042 231.154525,406.044963 306.961654,300.785025 C382.768784,195.525088 376.941401,34.167563 358.867775,25.4248009 C312.603597,3.04541175 259.221638,-5.15963412 204.434708,5.40098482 C67.7760465,31.7430345 -21.6731926,163.990578 4.64270999,300.785021 Z"/>
        <path fill="#FFFFFF" fill-opacity=".2" d="M328.086451,17.1156639 C119.901014,-47.5864336 -68.8024908,180.979929 26.2237647,353.585657 C29.2125514,359.006128 37.4734242,357.503092 38.2218126,351.352576 C43.0458191,311.510208 59.5961657,217.668309 111.983351,159.751342 C173.308296,91.9429717 286.019398,45.2152695 328.601266,29.249693 C334.326199,27.107271 333.925787,18.9288495 328.086451,17.1156639"/>
      </g>
      <g transform="translate(.741 .796)">
        <path fill="#FFD800" stroke="#FFD800" d="M315.285886,71.8867737 L319.087031,71.1557608 C323.260623,70.486884 325.623103,64.4596827 324.334145,57.7562944 C324.334145,57.7562944 321.971666,45.4825879 319.620141,33.2527421 C317.411022,21.7721846 315.337006,10.9933995 315.337006,10.9933995 C314.044398,4.29001121 309.578691,-0.626050517 305.405099,0.06475667 L301.611256,0.795769566 L299.080811,1.28554821 C296.323976,1.87401359 295.122654,7.83907882 296.411611,14.538812 L305.397796,61.2578462 C306.686753,67.9612344 309.998606,72.9613627 312.759092,72.3728973 L315.285886,71.8867737 Z" opacity=".8"/>
        <path fill="#FFF3AE" d="M204.840847,114.742066 C207.148555,118.601815 211.402479,120.111356 214.290765,118.093761 C217.1754,116.07251 222.108491,106.203836 218.606763,100.348422 L194.364876,59.7991372 C190.863149,53.9437239 185.575869,50.7236121 182.618205,52.646176 C179.660542,54.5687399 174.880811,64.6311324 178.382539,70.4865457 C178.382539,70.4865457 192.498992,94.1019173 202.741271,111.233205 L204.840847,114.742066 Z" opacity=".602"/>
        <path fill="#FFD800" stroke="#FFD800" d="M107.55887,202.081429 C112.849802,206.387095 118.74322,207.472649 120.652921,204.493771 C122.562623,201.514894 123.504693,190.312121 118.213762,186.006455 L82.2032954,156.714769 C76.912364,152.409103 70.9349625,151.261412 68.9193695,154.159878 C66.9037766,157.058345 66.1077634,168.363459 71.3986949,172.66547 C71.3986949,172.66547 88.1113196,186.26231 101.2784,196.971649 C106.580285,201.284625 107.55887,202.081429 107.55887,202.081429" opacity=".8"/>
        <path fill="#FFF3AE" d="M88.2523068,305.079184 C89.0848343,301.628803 84.4949786,296.975906 78.0501933,294.742661 L35.0107116,279.822688 C28.5695777,277.589444 22.5848733,278.576311 21.7158315,282.015727 C20.8431381,285.451487 24.0417965,296.420336 30.4829304,298.65358 L73.7889669,313.66493 C80.2337523,315.898175 87.4197793,308.529565 88.2523068,305.079184" opacity=".602"/>
        <path fill="#FFD800" stroke="#FFD800" d="M671.467042 514.043606C670.105056 517.303924 674.264043 521.799653 680.705177 524.032897L724.007562 539.044247C730.448696 541.277491 736.791241 540.418551 738.102106 537.136303 739.409321 533.854056 737.371819 523.276299 730.927034 521.043055L687.880249 506.119426C681.435464 503.886182 672.829028 510.783289 671.467042 514.043606M69.8913813 416.275756C69.5152834 412.766894 63.6255164 409.98539 56.8082845 410.091387L11.8225872 410.800469C5.0053553 410.906466-.307484758 413.867069.013841651 417.37593.338819497 420.884792 6.99903961 430.069969 13.8162715 429.963973L59.1452038 429.251235C65.9624357 429.141583 70.2674793 419.784618 69.8913813 416.275756" opacity=".8"/>
        <path fill="#FFF3AE" d="M695.164135,413.500458 C694.890277,417.012975 700.243283,419.798134 707.060515,419.688482 L752.400401,418.975744 C759.217633,418.869748 764.961343,415.909145 765.162172,412.392973 C765.366652,408.880456 760.090326,399.662384 753.273095,399.768381 L708.26914,400.477463 C701.451908,400.58346 695.437992,409.987941 695.164135,413.500458" opacity=".602"/>
        <path fill="#FFD800" stroke="#FFD800" d="M685.7102,307.491526 C686.560985,310.938252 692.469009,311.767952 698.837115,309.333679 L741.204732,293.138088 C747.572837,290.703815 752.031241,285.912026 751.111079,282.49454 C750.190917,279.0734 742.347632,272.158018 735.975875,274.592291 L693.936887,290.663609 C687.568782,293.097882 684.859416,304.0448 685.7102,307.491526" opacity=".8"/>
        <path fill="#FFF3AE" d="M110.559662,520.528421 C109.084482,517.311965 102.665257,516.672328 96.2971516,519.110256 L54.2326035,535.188885 C47.8644983,537.623158 43.8187067,542.25778 45.2427669,545.488857 C46.6704786,548.719934 55.8319327,555.119952 62.2000379,552.685679 L104.57861,536.486433 C110.946715,534.05216 112.034843,523.744878 110.559662,520.528421" opacity=".602"/>
        <path fill="#FFD800" stroke="#FFD800" d="M156.730606,605.622429 C154.306052,603.038298 148.105913,604.580736 142.953736,609.050879 L108.520691,638.909101 C103.364862,643.37559 101.100972,649.172522 103.489011,651.785893 C105.873399,654.399264 116.539245,657.458553 121.691422,652.98841 L156.365463,622.925504 C161.517639,618.45536 159.15516,608.20656 156.730606,605.622429" opacity=".8"/>
        <path fill="#FFF3AE" d="M641.042908,206.375629 C642.992776,209.358162 648.805862,208.144681 653.961691,203.674537 L688.635731,173.607976 C693.79156,169.141488 696.365822,163.081391 694.357532,160.146374 C692.352894,157.207702 682.669284,153.278508 677.517107,157.748652 L643.087713,187.599563 C637.935536,192.069707 639.093041,203.393097 641.042908,206.375629" opacity=".602"/>
        <path fill="#FFD800" stroke="#FFD800" d="M556.836037,105.184073 C553.520532,111.149138 553.195554,117.658808 556.116704,119.654473 C559.034201,121.650138 569.280132,122.278809 572.599288,116.317399 L595.282011,75.5195695 C598.597516,69.5545043 598.948053,63.0082838 596.059767,60.9687578 C593.175132,58.9292318 582.717418,58.6368267 579.401914,64.5982368 C579.401914,64.5982368 569.802288,81.8611064 561.988214,95.9148293 C558.263748,102.618218 556.836037,105.184073 556.836037,105.184073" opacity=".8"/>
        <path fill="#FFF3AE" d="M442.081978,63.418382 C441.439325,67.4389529 443.736078,71.3315966 447.190337,72.0699196 C450.644596,72.8082427 460.547292,69.5333049 461.624466,62.793366 L469.117213,15.97199 C470.194387,9.23570616 468.27008,3.05864719 464.841381,2.25087794 C461.409031,1.44676376 451.418701,5.07258772 450.341527,11.8088716 C450.341527,11.8088716 445.879472,39.6970135 442.666207,59.7633175 L442.081978,63.418382 Z" opacity=".602"/>
      </g>
    </g>
  </g>
</svg>
