<svg xmlns="http://www.w3.org/2000/svg" width="900" height="710" viewBox="0 0 900 710">
  <defs>
    <filter id="a" width="200%" height="200%" x="-50%" y="-50%" filterUnits="objectBoundingBox">
      <feOffset in="SourceAlpha" result="shadowOffsetOuter1"/>
      <feGaussianBlur stdDeviation="9.5" in="shadowOffsetOuter1" result="shadowBlurOuter1"/>
      <feColorMatrix values="0 0 0 0 0 0 0 0 0 0 0 0 0 0 0 0 0 0 0.2 0" in="shadowBlurOuter1" result="shadowMatrixOuter1"/>
      <feMerge>
        <feMergeNode in="shadowMatrixOuter1"/>
        <feMergeNode in="SourceGraphic"/>
      </feMerge>
    </filter>
    <filter id="b" width="200%" height="200%" x="-50%" y="-50%" filterUnits="objectBoundingBox">
      <feOffset in="SourceAlpha" result="shadowOffsetOuter1"/>
      <feGaussianBlur stdDeviation="2" in="shadowOffsetOuter1" result="shadowBlurOuter1"/>
      <feColorMatrix values="0 0 0 0 0 0 0 0 0 0 0 0 0 0 0 0 0 0 0.2 0" in="shadowBlurOuter1" result="shadowMatrixOuter1"/>
      <feMerge>
        <feMergeNode in="shadowMatrixOuter1"/>
        <feMergeNode in="SourceGraphic"/>
      </feMerge>
    </filter>
    <filter id="c" width="200%" height="200%" x="-50%" y="-50%" filterUnits="objectBoundingBox">
      <feOffset in="SourceAlpha" result="shadowOffsetOuter1"/>
      <feGaussianBlur stdDeviation="2" in="shadowOffsetOuter1" result="shadowBlurOuter1"/>
      <feColorMatrix values="0 0 0 0 0 0 0 0 0 0 0 0 0 0 0 0 0 0 0.2 0" in="shadowBlurOuter1" result="shadowMatrixOuter1"/>
      <feMerge>
        <feMergeNode in="shadowMatrixOuter1"/>
        <feMergeNode in="SourceGraphic"/>
      </feMerge>
    </filter>
    <filter id="d" width="200%" height="200%" x="-50%" y="-50%" filterUnits="objectBoundingBox">
      <feOffset in="SourceAlpha" result="shadowOffsetOuter1"/>
      <feGaussianBlur stdDeviation="2" in="shadowOffsetOuter1" result="shadowBlurOuter1"/>
      <feColorMatrix values="0 0 0 0 0 0 0 0 0 0 0 0 0 0 0 0 0 0 0.2 0" in="shadowBlurOuter1" result="shadowMatrixOuter1"/>
      <feMerge>
        <feMergeNode in="shadowMatrixOuter1"/>
        <feMergeNode in="SourceGraphic"/>
      </feMerge>
    </filter>
    <filter id="e" width="200%" height="200%" x="-50%" y="-50%" filterUnits="objectBoundingBox">
      <feOffset in="SourceAlpha" result="shadowOffsetOuter1"/>
      <feGaussianBlur stdDeviation="2" in="shadowOffsetOuter1" result="shadowBlurOuter1"/>
      <feColorMatrix values="0 0 0 0 0 0 0 0 0 0 0 0 0 0 0 0 0 0 0.2 0" in="shadowBlurOuter1" result="shadowMatrixOuter1"/>
      <feMerge>
        <feMergeNode in="shadowMatrixOuter1"/>
        <feMergeNode in="SourceGraphic"/>
      </feMerge>
    </filter>
  </defs>
  <g fill="none" fill-rule="evenodd">
    <g fill="#6B7482" opacity=".1">
      <path d="M397.828483 550.73089L425.670487 651.289857C427.246591 656.990974 424.460129 662.5376 419.596073 663.882807L390.000747 672.067095C385.140462 673.412302 379.891807 670.08508 378.315702 664.380195L350.473698 563.824996C349.014481 558.545904 351.167486 553.168843 355.69973 551.461899 360.59772 549.423363 365.823752 547.7541 371.110113 546.292082 376.392704 544.830064 381.528241 543.639348 386.988049 542.810368 391.542916 542.007766 396.365495 545.44803 397.828483 550.73089M339.539 603.235429L358.02241 669.990878C359.602286 675.695764 356.812053 681.242389 351.951768 682.587597L322.356441 690.771884C317.492386 692.113323 312.247501 688.78987 310.671397 683.084984L292.187986 616.325767C290.724999 611.046676 292.878003 605.673382 297.410247 603.966438 302.312008 601.931671 307.53804 600.254872 312.824401 598.796622 318.106991 597.334603 323.242529 596.143887 328.698566 595.314908 333.253434 594.508537 338.079783 597.95257 339.539 603.235429M277.509096 642.220069L290.374334 688.695668C291.95421 694.400553 289.167747 699.947179 284.303691 701.288618L254.708365 709.472905C249.84808 710.818113 244.599425 707.494659 243.02332 701.789774L230.154312 655.314175C228.691324 650.031316 230.848099 644.658022 235.380343 642.951078 240.278334 640.912542 245.508136 639.243279 250.790727 637.781261 256.077088 636.319243 261.208855 635.128527 266.668663 634.303316 271.22353 633.496945 276.046109 636.937209 277.509096 642.220069M298.315188 571.8774L266.634727 551.981895 252.072726 578.294454C252.634543 579.50401 253.25669 580.92458 253.667683 582.40167 257.291216 595.503313 249.648239 608.985532 236.541684 612.610433 223.431358 616.235333 209.936432 608.593651 206.312899 595.495776 202.685596 582.397902 210.332343 568.911915 223.438899 565.290782 224.705816 564.94035 226.036832 564.800931 227.571461 564.601222L249.437086 526.031072C251.484514 522.737763 254.666889 520.265897 258.264027 519.271122 262.125107 518.430838 265.914545 518.977211 269.213808 521.019515L302.394961 541.412408 338.524712 494.352755C338.468154 494.141742 338.351265 493.719717 338.290936 493.508704 334.663633 480.407061 342.31038 466.924842 355.416936 463.299941 368.523491 459.67504 382.014647 467.316723 385.64195 480.414597 389.265483 493.512472 381.622506 506.998459 368.51595 510.619592 365.982117 511.320456 363.327624 511.603063 360.97855 511.339297L316.960733 568.542642C312.424719 574.345498 304.370748 575.664329 298.315188 571.8774M142.027184 549.03841C151.275305 582.448986 131.721247 616.942587 98.2885273 626.184582 60.7878791 636.553649 27.7051724 611.452319 20.3289733 579.715511L81.2027093 580.865902C86.0743712 580.928086 89.3463443 575.800553 88.2211174 571.735319L69.5615374 504.333791C101.246785 498.387512 133.258711 517.371559 142.027184 549.03841L142.027184 549.03841zM4.77024886 564.781152C2.0971869 564.739697-.0806715409 562.527007.00229449487 560.00081.04896289 529.650172 18.9600337 502.99685 47.0129245 495.242073 49.4837568 494.558057 52.1620041 496.319917 52.9501815 498.605154L71.7731008 566.584468 4.77024886 564.781152zM701.96797 73.020038L711.139181 37.0169741C710.485227 35.5237777 709.894686 34.2523824 709.46268 32.699775 705.653893 18.9322667 713.68762 4.75680295 727.464253.946577704 741.240887-2.86364754 755.425746 5.16871919 759.238497 18.9362275 759.361361 19.3798296 759.258314 19.8868034 759.381178 20.3304055L807.282326 41.2708015C809.545403 39.9281129 811.64202 38.8705972 814.30936 38.1339008 828.085993 34.3236756 842.270853 42.3560423 846.07964 56.1195899 849.892391 69.8910589 841.8547 84.0625619 828.078067 87.8727872 814.301433 91.6830124 800.120537 83.6506457 796.307787 69.8831374 796.184923 69.4395353 796.062059 68.9959332 796.161143 68.4929201L748.259994 47.5485634C746.00088 48.891252 743.682315 50.0121394 741.236923 50.685464 740.12322 50.9944012 738.950066 51.0815374 737.844289 51.3865138L730.345615 80.470177 701.96797 73.020038zM658.339322 207.479006C654.589985 193.933298 662.24323 180.102418 675.675051 175.908002L686.479165 133.718273 714.856811 141.172373 703.818858 185.100863C705.725233 187.683261 707.25509 190.606282 708.115138 193.715458 711.927889 207.482966 703.890198 221.65843 690.113565 225.464695 676.336932 229.27492 662.152072 221.242553 658.339322 207.479006L658.339322 207.479006zM819.374532 151.4782L671.517488 112.516469C668.517226 115.49494 664.827339 117.71295 660.602399 118.881367 646.825766 122.687631 632.640907 114.659225 628.828156 100.891717 625.019369 87.1242086 633.053096 72.9487448 646.833693 69.1385196 659.274674 65.6966425 672.080285 72.2001663 677.177164 83.6981745L825.034208 122.659906C828.03447 119.681435 831.724356 117.463424 835.949296 116.295008 849.72593 112.488743 863.910789 120.517149 867.719576 134.284658 871.532327 148.052166 863.494636 162.22763 849.718003 166.037855 837.277021 169.475771 824.471411 162.976208 819.374532 151.4782L819.374532 151.4782z"/>
    </g>
    <g filter="url(#a)" transform="translate(31.112 75.356)">
      <g filter="url(#b)" transform="translate(127.903)">
        <path fill="#C7C6CE" d="M82.3035062 42.917857C90.1710287 43.4173963 96.2776539 49.7211061 96.7446486 57.3896286 96.7476231 57.3569207 96.7535721 57.3271862 96.7565465 57.2944783 97.300878 48.7725762 90.8283907 41.4251861 82.3035062 40.8840185 73.7786217 40.3398775 66.4286602 46.8101005 65.8873033 55.3320025 65.8456604 55.9861611 65.8605329 56.6313993 65.8992012 57.2706907 66.48815 48.7963638 73.8113411 42.3766894 82.3035062 42.917857M138.712899 46.5041327C146.580421 47.0036719 152.687047 53.3073818 153.154041 60.9759043 153.157016 60.9431963 153.162965 60.9134619 153.165939 60.8807539 153.707296 52.3588519 147.237783 45.0114617 138.712899 44.4702942 130.188014 43.9261532 122.838053 50.3963761 122.296696 58.9182782 122.255053 59.5724368 122.266951 60.217675 122.308594 60.8569664 122.897543 52.3826394 130.220734 45.9629651 138.712899 46.5041327M195.122291 50.090111C202.989814 50.5896503 209.096439 56.8933601 209.563434 64.5618826 209.566408 64.5291747 209.572357 64.4994402 209.575332 64.4667323 210.116689 55.9448302 203.644201 48.5974401 195.122291 48.0562725 186.597407 47.5121315 179.247445 53.9823545 178.706089 62.5042566 178.664446 63.1584151 178.676344 63.8036534 178.715012 64.4429447 179.306935 55.9686178 186.630126 49.5489435 195.122291 50.090111M251.530792 53.6763867C259.398314 54.1759259 265.504939 60.4796358 265.971934 68.1481583 265.974909 68.1154504 265.980858 68.0857159 265.983832 68.053008 266.525189 59.5311059 260.055676 52.1837158 251.530792 51.6425482 243.005907 51.0984072 235.655946 57.5686302 235.114589 66.0905322 235.072946 66.7446908 235.087818 67.389929 235.126487 68.0292204 235.715436 59.5548935 243.038627 53.1352191 251.530792 53.6763867M307.940184 57.2626624C315.807707 57.7622016 321.914332 64.0659115 322.381327 71.734434 322.384301 71.701726 322.39025 71.6719916 322.393225 71.6392836 322.934582 63.1173816 316.465069 55.7699914 307.940184 55.2288239 299.4153 54.6846829 292.065338 61.1549058 291.523981 69.6768079 291.482339 70.3309665 291.494237 70.9762047 291.532905 71.6154961 292.124828 63.1411691 299.448019 56.7214948 307.940184 57.2626624M364.348685 60.8486407C372.216207 61.34818 378.322832 67.6518898 378.789827 75.3204123 378.792802 75.2877044 378.798751 75.2579699 378.801725 75.225262 379.346056 66.7033599 372.873569 59.3559698 364.348685 58.8148022 355.8238 58.2706612 348.473839 64.7408842 347.932482 73.2627863 347.890839 73.9169448 347.905711 74.5621831 347.94438 75.2014744 348.533328 66.7271475 355.85652 60.3074732 364.348685 60.8486407M420.758077 64.4349164C428.6256 64.9344556 434.732225 71.2381655 435.19922 78.906688 435.202194 78.8739801 435.208143 78.8442456 435.211118 78.8115377 435.752475 70.2896356 429.282962 62.9422455 420.758077 62.4010779 412.233193 61.8569369 404.883231 68.3271599 404.341874 76.8490619 404.300232 77.5032205 404.31213 78.1484587 404.353772 78.7877501 404.942721 70.3134232 412.265912 63.8937488 420.758077 64.4349164M477.16747 68.0211921C485.034992 68.5207313 491.141618 74.8244412 491.608612 82.4929637 491.611587 82.4602557 491.617536 82.4305213 491.62051 82.3978133 492.161867 73.8759113 485.68938 66.5285211 477.16747 65.9873536 468.642585 65.4432126 461.292624 71.9134355 460.751267 80.4353376 460.709624 81.0894962 460.721522 81.7347344 460.760191 82.3740258 461.352114 73.8996988 468.675305 67.4800245 477.16747 68.0211921M533.57597 71.6071704C541.443493 72.1067097 547.550118 78.4104195 548.017113 86.078942 548.020087 86.0462341 548.026036 86.0164996 548.029011 85.9837917 548.570368 77.4618896 542.100855 70.1144995 533.57597 69.5733319 525.051086 69.0291909 517.701124 75.4994139 517.159767 84.021316 517.118124 84.6754745 517.132997 85.3207128 517.171665 85.9600041 517.760614 77.4856772 525.083805 71.0660029 533.57597 71.6071704"/>
        <polygon fill="#C8C6CE" points="561.645 442.687 4.33 411.341 3.455 428.673 560.541 470.87"/>
        <polygon fill="#DFDFE9" points="558.6 464.478 5.122 425.205 6.449 407.903 561.078 436.382"/>
        <path fill="#FEFEFE" d="M531.612808,100.431181 C523.087923,99.8900135 516.61841,92.5426234 517.159767,84.0207213 C517.701124,75.4988192 525.051086,69.0285963 533.57597,69.5727372 C542.100855,70.1139048 548.570368,77.4612949 548.029011,85.983197 C547.487654,94.5050991 540.137692,100.972349 531.612808,100.431181 L531.612808,100.431181 Z M475.204605,96.8452027 C466.67972,96.3040351 460.207233,88.956645 460.751564,80.4347429 C461.292921,71.9128409 468.642883,65.4426179 477.167767,65.9867589 C485.689677,66.5279265 492.162165,73.8753166 491.620808,82.3972186 C491.079451,90.9191207 483.726515,97.3863702 475.204605,96.8452027 L475.204605,96.8452027 Z M418.793428,93.2592243 C410.268543,92.7180568 403.79903,85.3706667 404.340387,76.8487646 C404.884719,68.3268625 412.23468,61.8566396 420.75659,62.4007806 C429.281475,62.9419481 435.753962,70.2893382 435.212605,78.8112403 C434.668273,87.3331424 427.318312,93.8003919 418.793428,93.2592243 L418.793428,93.2592243 Z M362.385225,89.673246 C353.86034,89.1320785 347.390827,81.7846883 347.932184,73.2627863 C348.473541,64.7408842 355.823503,58.2706612 364.348387,58.8148022 C372.873272,59.3559698 379.345759,66.7033599 378.801428,75.225262 C378.260071,83.7471641 370.910109,90.2144135 362.385225,89.673246 L362.385225,89.673246 Z M305.977022,86.0872677 C297.452137,85.5431267 290.982625,78.1957366 291.523981,69.6768079 C292.065338,61.1549058 299.4153,54.6846829 307.940184,55.2288239 C316.465069,55.7699914 322.934582,63.1173816 322.393225,71.6392836 C321.851868,80.1582123 314.501906,86.6284352 305.977022,86.0872677 L305.977022,86.0872677 Z M249.568819,82.5012893 C241.043935,81.9571483 234.571447,74.6097582 235.115779,66.0908296 C235.657136,57.5689275 243.007097,51.0987046 251.531982,51.6398721 C260.053892,52.1840131 266.526379,59.5314032 265.985022,68.0533053 C265.44069,76.5722339 258.090729,83.0424569 249.568819,82.5012893 L249.568819,82.5012893 Z M193.157642,78.915311 C184.632757,78.37117 178.163244,71.0237799 178.704601,62.5018778 C179.245958,53.9829492 186.59592,47.5127262 195.120804,48.0538938 C203.645689,48.5980348 210.118176,55.9454249 209.573845,64.4643535 C209.032488,72.9862556 201.682526,79.4564785 193.157642,78.915311 L193.157642,78.915311 Z M136.749439,75.3293327 C128.224554,74.7851917 121.755042,67.4378016 122.296398,58.9158995 C122.837755,50.3969708 130.187717,43.9267479 138.712601,44.4679154 C147.237486,45.0120564 153.706999,52.3594465 153.165642,60.8783752 C152.624285,69.4002773 145.274323,75.8705002 136.749439,75.3293327 L136.749439,75.3293327 Z M80.341236,71.7403809 C71.8163515,71.1992133 65.3438642,63.8518232 65.8881956,55.3299211 C66.4295526,46.8080191 73.779514,40.3407696 82.3043985,40.8819371 C90.8263085,41.4231046 97.2987958,48.7704948 96.7574389,57.2923968 C96.216082,65.8142989 88.863146,72.2845219 80.341236,71.7403809 L80.341236,71.7403809 Z M27.8147409,20.7070922 L0.642786998,417.540494 L563.576663,457.482822 L588.568316,49.5673788 L27.8147409,20.7070922 Z"/>
        <path fill="#010202" fill-opacity=".1" d="M529.591048 69.8504573C530.876027 69.5977142 532.208598 69.4847232 533.576863 69.5709532 537.244407 69.8058556 540.531217 71.3044734 543.04466 73.6118691L545.305271 47.3414556 531.589904 46.633775 529.591048 69.8504573zM473.528481 66.1984684C474.706378 65.9933005 475.922944 65.9070705 477.16628 65.9873536 481.045013 66.2311763 484.489471 67.8992807 487.050506 70.4326584L488.409847 44.4120146 474.703404 43.7073074 473.528481 66.1984684zM416.697603 62.6924758C418.003403 62.427839 419.362745 62.3118745 420.75778 62.4010779 424.386656 62.6300334 427.637772 64.1018902 430.139317 66.3646842L432.459418 41.5334196 418.741077 40.8257389 416.697603 62.6924758zM360.946762 58.981018C362.050297 58.8055845 363.186552 58.7401687 364.349577 58.8145049 368.388933 59.0702214 371.958319 60.8691575 374.546124 63.5839155L375.254052 38.5891113 361.54166 37.8844041 360.946762 58.981018zM304.418687 55.4173405C305.560891 55.2270398 306.735814 55.1497302 307.940482 55.2270398 311.899526 55.4797829 315.400499 57.2103297 317.976407 59.8329108L318.949064 35.6914862 305.242621 34.986779 304.418687 55.4173405zM247.504524 51.9274045C248.801401 51.6687146 250.148844 51.5527501 251.531982 51.6419535 255.178705 51.8738825 258.444693 53.357633 260.949213 55.6412411L263.007559 32.8111071 249.292192 32.1063999 247.504524 51.9274045zM191.546659 48.2554936C192.703735 48.059246 193.899479 47.9759894 195.121994 48.0562725 199.04237 48.3030687 202.519547 50.003881 205.089505 52.5878074L206.127602 29.8855316 192.421158 29.1778509 191.546659 48.2554936zM134.689903 44.7545558C135.98678 44.4958659 137.331249 44.3799014 138.711412 44.4691048 142.361109 44.7010338 145.630072 46.1877578 148.137566 48.4713659L150.065035 27.0000976 136.349668 26.292417 134.689903 44.7545558zM78.805805 41.0683723C79.9390851 40.8810451 81.1080592 40.8067089 82.3038036 40.8840185 86.2777205 41.1367616 89.793566 42.8792022 92.3724477 45.519624L93.1874576 24.0721433 79.4780394 23.3674361 78.805805 41.0683723z"/>
        <path fill="#16A0DB" d="M84.0575621,1.01959533 L84.0575621,1.01959533 C80.2710381,0.876869827 77.0823862,3.82950373 76.9396108,7.61470309 L75.1459941,54.8925269 C75.0002442,58.6777263 77.9539114,61.8622891 81.7404355,62.0079881 L81.7404355,62.0079881 C85.529934,62.1507136 88.7156114,59.1980797 88.8583868,55.4128803 L90.654978,8.13505649 C90.7977534,4.34985714 87.8440862,1.16232084 84.0575621,1.01959533"/>
        <path fill="#010202" fill-opacity=".1" d="M80.1285601,55.0804488 L81.9221767,7.802625 C82.0352073,4.89756627 83.9418545,2.4979937 86.5326341,1.59703894 C85.7681906,1.26401276 84.9383082,1.05289795 84.0578596,1.02019002 C80.2713355,0.874491069 77.0826837,3.82712497 76.9399082,7.61529778 L75.1462916,54.8901482 C75.0005416,58.678321 77.9542089,61.8628838 81.7407329,62.0056093 C82.624156,62.0412907 83.4659363,61.8926183 84.2512013,61.6190611 C81.7377584,60.5218588 80.018504,57.9855076 80.1285601,55.0804488"/>
        <path fill="#16A0DB" d="M142.038377,4.70607621 L142.038377,4.70607621 C138.263751,4.36710314 134.929349,7.1502505 134.590258,10.9265295 L130.35756,58.0467606 C130.018468,61.8200662 132.805564,65.1533014 136.58019,65.4922745 L136.58019,65.4922745 C140.354817,65.8312476 143.689218,63.0481002 144.02831,59.2747946 L148.261007,12.1515901 C148.600099,8.37828454 145.813003,5.04504929 142.038377,4.70607621"/>
        <path fill="#010202" fill-opacity=".1" d="M135.325254,58.4921831 L139.557951,11.371952 C139.816732,8.47581364 141.845333,6.1773383 144.477755,5.41018871 C143.734133,5.0385077 142.916149,4.78576462 142.038675,4.70548152 C138.264048,4.36650845 134.929647,7.15262926 134.590555,10.9259348 L130.357858,58.0461659 C130.018766,61.8194715 132.805862,65.1527067 136.580488,65.4916798 C137.457962,65.5719629 138.305691,65.4649188 139.105829,65.2329898 C136.651876,64.0109027 135.066473,61.3883215 135.325254,58.4921831"/>
        <path fill="#16A0DB" d="M197.113712,8.20166173 L197.113712,8.20166173 C193.327188,8.02920174 190.117714,10.9550746 189.945194,14.740274 L187.779766,62.0032306 C187.607246,65.7884299 190.537117,68.9967804 194.320667,69.1692403 C198.107191,69.3417003 201.316664,66.4158275 201.492159,62.6306281 L203.654612,15.3676715 C203.827132,11.5824722 200.900236,8.37412172 197.113712,8.20166173"/>
        <path fill="#010202" fill-opacity=".1" d="M192.76263,62.230402 L194.928057,14.9704188 C195.058935,12.0653601 196.986403,9.68065478 199.583132,8.80051416 C198.821663,8.46154109 197.994755,8.24150593 197.114306,8.20285111 C193.327782,8.02741767 190.118309,10.956264 189.945789,14.7414633 L187.780361,62.0014465 C187.607841,65.7866459 190.534738,68.9949963 194.321262,69.1704297 C195.204685,69.2090846 196.046465,69.066359 196.834705,68.7987487 C194.330185,67.6837057 192.628778,65.1354607 192.76263,62.230402"/>
        <path fill="#16A0DB" d="M254.867276,11.8792223 L254.867276,11.8792223 C251.09265,11.5402492 247.755273,14.3233966 247.416182,18.0967021 L243.168612,65.2169332 C242.826546,68.9902388 245.610667,72.323474 249.385293,72.6624471 C253.159919,73.0043936 256.497295,70.2212463 256.836387,66.4479407 L261.086931,19.3277096 C261.426023,15.554404 258.641902,12.2181953 254.867276,11.8792223"/>
        <path fill="#010202" fill-opacity=".1" d="M248.135115,65.6632478 L252.382685,18.5430167 C252.64444,15.6498517 254.676016,13.3513764 257.308438,12.5842268 C256.561842,12.2125458 255.746832,11.9598027 254.866383,11.8795196 C251.091757,11.5405465 247.757355,14.3236939 247.418264,18.0969995 L243.167719,65.2142571 C242.828628,68.9905361 245.612749,72.3237714 249.387375,72.6627445 C250.264849,72.7430275 251.115553,72.6389569 251.912716,72.4070279 C249.458763,71.1819673 247.87336,68.5593862 248.135115,65.6632478"/>
        <path fill="#16A0DB" d="M309.765331,15.3670768 L309.765331,15.3670768 C305.978807,15.215431 302.784206,18.1591445 302.632507,21.9443439 L300.72586,69.2191943 C300.574161,73.0043936 303.518904,76.1949034 307.305428,76.3495227 L307.305428,76.3495227 C311.091953,76.5011685 314.286553,73.557455 314.438252,69.7692822 L316.3449,22.4974052 C316.499573,18.7122059 313.551855,15.5187227 309.765331,15.3670768"/>
        <path fill="#010202" fill-opacity=".1" d="M305.709318,69.4184153 L307.615965,22.1465383 C307.73197,19.2414796 309.644566,16.8478539 312.23832,15.9498726 C311.473877,15.6168465 310.646969,15.4027582 309.76652,15.3670768 C305.979996,15.215431 302.785396,18.1591445 302.630722,21.9443439 L300.727049,69.2162208 C300.572376,73.0043936 303.520094,76.1949034 307.306618,76.3495227 C308.187067,76.3852041 309.031822,76.2365317 309.817087,75.9659479 C307.306618,74.8627987 305.593313,72.323474 305.709318,69.4184153"/>
        <path fill="#16A0DB" d="M365.805887,18.9405667 L365.805887,18.9405667 C362.016388,18.8335225 358.860456,21.8158909 358.753374,25.6040637 L357.417829,72.8967548 C357.310747,76.6849276 360.294159,79.839756 364.083658,79.9468001 C367.873156,80.0538442 371.029089,77.0714759 371.13617,73.2833031 L372.471716,25.990612 C372.578797,22.2054126 369.595385,19.0476108 365.805887,18.9405667"/>
        <path fill="#010202" fill-opacity=".1" d="M362.403369,73.0371016 L363.738914,25.7444105 C363.819226,22.8393517 365.705051,20.4219385 368.283933,19.4942227 C367.51949,19.1701169 366.689607,18.9649489 365.806184,18.9411614 C362.016686,18.8341172 358.860753,21.8164856 358.753671,25.6046584 L357.418126,72.8973495 C357.311044,76.6825489 360.294457,79.8403507 364.083955,79.9473948 C364.967378,79.9711824 365.806184,79.8135896 366.591449,79.5340855 C364.066108,78.4636442 362.320083,75.9421603 362.403369,73.0371016"/>
        <path fill="#16A0DB" d="M424.193612,22.6469697 L424.193612,22.6469697 C420.418986,22.2931293 417.07566,25.0673564 416.721696,28.8406619 L412.319453,75.9460258 C411.968463,79.7163579 414.740687,83.0614869 418.515313,83.4123538 L418.515313,83.4123538 C422.286964,83.7661941 425.633264,80.9949405 425.984254,77.221635 L430.389472,30.1162711 C430.740461,26.3429656 427.968238,23.00081 424.193612,22.6469697"/>
        <path fill="#010202" fill-opacity=".1" d="M417.285957,76.4086943 L421.6882,29.3033304 C421.958878,26.4101655 423.996403,24.1176371 426.6318,23.3594078 C425.888178,22.9877268 425.073168,22.7290368 424.192719,22.6457803 C420.421068,22.2949134 417.074768,25.066167 416.723778,28.8394725 L412.321535,75.9448364 C411.967571,79.718142 414.739794,83.0602976 418.51442,83.4141379 C419.391895,83.494421 420.242598,83.3933237 421.042736,83.1643682 C418.591757,81.9303873 417.015278,79.3018592 417.285957,76.4086943"/>
        <path fill="#16A0DB" d="M479.353124,26.1422578 L479.353124,26.1422578 C475.569575,25.9460103 472.33928,28.851069 472.142964,32.6362683 L469.677113,79.8813843 C469.480796,83.6665836 472.386872,86.8927747 476.173396,87.0919958 C479.956945,87.2882433 483.18724,84.3802111 483.383556,80.5979852 L485.849407,33.3498959 C486.045724,29.56767 483.136674,26.3385054 479.353124,26.1422578"/>
        <path fill="#010202" fill-opacity=".1" d="M474.657894,80.1418583 L477.123745,32.8967424 C477.275444,29.9916837 479.21481,27.6188721 481.817488,26.7565722 C481.058993,26.4116522 480.23506,26.1886436 479.354611,26.1410684 C475.568087,25.9448209 472.340767,28.8528531 472.141476,32.635079 L469.6786,79.8831683 C469.479309,83.6653942 472.388359,86.8915854 476.171909,87.0908064 C477.055332,87.1354081 477.897112,86.9986295 478.688326,86.7369661 C476.189756,85.6070558 474.506195,83.0439436 474.657894,80.1418583"/>
        <path fill="#16A0DB" d="M536.7905,29.7993016 L536.7905,29.7993016 C533.0129,29.4751957 529.690396,32.2702369 529.363202,36.0465159 L525.305999,83.1816142 C524.978806,86.9578932 527.777799,90.2792347 531.552426,90.606314 C535.330026,90.9304198 538.655504,88.1324052 538.979724,84.3590997 L543.039901,37.2240013 C543.36412,33.4477223 540.565126,30.1234074 536.7905,29.7993016"/>
        <path fill="#010202" fill-opacity=".1" d="M530.27399,83.6097908 L534.334167,36.4746924 C534.584024,33.578554 536.603702,31.2711584 539.23315,30.4950884 C538.486554,30.1263809 537.668569,29.8736378 536.791095,29.7993016 C533.013494,29.4751957 529.690991,32.2702369 529.363797,36.0465159 L525.30362,83.1816142 C524.979401,86.9578932 527.778394,90.2792347 531.55302,90.606314 C532.433469,90.6806502 533.281198,90.5736061 534.078361,90.3357302 C531.621434,89.1225634 530.024133,86.5059291 530.27399,83.6097908"/>
        <polygon fill="#6B7482" fill-opacity=".2" points="275.95 155.892 56.185 145.25 54.201 97.907 283.496 115.813"/>
        <polygon fill="#44B9BC" points="117.741 336.686 58.049 330.692 54.747 382.576 114.51 387.476"/>
        <polygon fill="#44B9BC" points="194.816 292.908 131.456 288.281 126.985 386.697 188.599 390.613"/>
        <polygon fill="#44B9BC" points="278.469 227.594 213.387 221.882 202.697 389.935 267.677 397.214"/>
        <polygon fill="#44B9BC" points="353.346 272.067 288.265 266.355 281.872 394.968 343.489 398.884"/>
        <polygon fill="#44B9BC" points="435.028 209.592 373.114 210.377 359.166 401.457 424.349 405.602"/>
        <polygon fill="#2D9CA3" points="519.527 185.257 454.57 179.554 440.126 406.604 506.965 410.853"/>
        <path fill="#E9507E" d="M71.9594244,322.931324 C69.7523538,322.931324 67.6404669,321.667609 66.6618601,319.526726 C65.3292892,316.603827 66.6172428,313.154627 69.5411651,311.819549 L160.89961,270.149648 L246.915873,193.060034 L321.88191,241.884051 L402.567889,182.192082 L487.552005,156.332004 C490.636549,155.395368 493.878742,157.131862 494.815706,160.203434 C495.749695,163.277979 494.015569,166.527957 490.942922,167.46162 L407.877352,192.735929 L322.304288,256.043611 L248.040229,207.674531 L167.345327,279.997708 L74.3717347,322.405024 C73.5864697,322.761838 72.7684853,322.931324 71.9594244,322.931324"/>
        <path fill="#E9507E" d="M475.907179,142.157577 L502.2552,157.375684 C502.692449,157.643295 502.850097,158.237984 502.606189,158.686975 L487.35896,185.010911 C487.115052,185.462875 486.502308,185.626414 486.065058,185.35583 L478.042862,180.717252 C477.611561,180.467482 477.447964,179.854952 477.697821,179.423802 L487.817032,161.93398 L470.318115,151.815337 C469.889789,151.56854 469.726192,150.953037 469.973074,150.52486 L474.616251,142.502497 C474.764975,142.303276 474.949394,142.139737 475.2052,142.074321 C475.458031,142.005932 475.678143,142.059454 475.907179,142.157577"/>
        <path fill="#FEFEFE" d="M152.027007,274.303555 C151.601656,280.981919 156.673159,286.738515 163.35386,287.163718 C170.034562,287.588921 175.793172,282.519192 176.218524,275.840828 C176.643876,269.162464 171.572372,263.405868 164.891671,262.980665 C158.210969,262.555462 152.452359,267.625191 152.027007,274.303555"/>
        <path fill="#E9507E" d="M164.10938,266.280598 C159.49,266.280598 155.638037,269.89631 155.346537,274.514075 C155.197812,276.860126 155.968205,279.119946 157.520888,280.883201 C159.073571,282.643482 161.221152,283.699056 163.565049,283.847729 C168.413465,284.162914 172.595597,280.440157 172.901969,275.629118 C173.050693,273.286041 172.277326,271.026221 170.724643,269.262966 C169.17196,267.499711 167.024379,266.447111 164.680482,266.298438 C164.490115,266.286545 164.299748,266.280598 164.10938,266.280598 M164.136151,290.511226 L164.136151,290.511226 C163.805983,290.511226 163.475814,290.502305 163.142672,290.481491 C159.025979,290.219828 155.257302,288.370343 152.529696,285.274984 C149.805064,282.179624 148.448698,278.210071 148.710453,274.091846 C149.242886,265.656174 156.545256,259.108641 165.10286,259.664676 C169.219552,259.926339 172.991204,261.775824 175.715835,264.871183 C178.440467,267.966543 179.799808,271.936096 179.538053,276.051348 C179.020492,284.162914 172.256505,290.511226 164.136151,290.511226"/>
        <path fill="#FEFEFE" d="M235.381995,199.599539 C234.956643,206.277903 240.028147,212.034498 246.708848,212.459701 C253.38955,212.884904 259.14816,207.815176 259.573512,201.136811 C259.998863,194.458447 254.92736,188.701852 248.246659,188.276648 C241.565957,187.851445 235.807347,192.921174 235.381995,199.599539"/>
        <path fill="#E9507E" d="M247.465261,191.576284 C242.84588,191.576284 238.993917,195.19497 238.699443,199.809761 C238.550718,202.155812 239.324085,204.415632 240.876768,206.178887 C242.426477,207.939168 244.574058,208.994742 246.920929,209.143415 C251.751499,209.482388 255.948502,205.735843 256.254875,200.924804 C256.564221,196.087004 252.875855,191.903363 248.036362,191.594124 C247.845995,191.582231 247.655628,191.576284 247.465261,191.576284 M247.492031,215.806912 L247.489057,215.806912 C247.161863,215.806912 246.831695,215.797992 246.498552,215.777177 C242.38186,215.515514 238.610208,213.666029 235.885576,210.57067 C233.15797,207.47531 231.801603,203.505757 232.063358,199.387532 C232.601741,190.948886 239.957651,184.431088 248.45874,184.960362 C256.956854,185.501529 263.432316,192.851893 262.890959,201.347034 C262.376372,209.455627 255.612385,215.806912 247.492031,215.806912"/>
        <path fill="#FEFEFE" d="M310.176405,245.377853 C309.751053,252.056217 314.822556,257.812812 321.503258,258.238015 C328.183959,258.663218 333.942569,253.59349 334.367921,246.915125 C334.793273,240.236761 329.72177,234.480166 323.041068,234.054962 C316.360367,233.629759 310.601757,238.699488 310.176405,245.377853"/>
        <path fill="#E9507E" d="M322.259075,237.35549 C317.639694,237.35549 313.787732,240.971203 313.496232,245.588967 C313.186885,250.426767 316.875251,254.613382 321.714744,254.922621 C326.578033,255.267541 330.742317,251.515049 331.051664,246.70401 C331.200388,244.360933 330.427021,242.098139 328.874338,240.337858 C327.321655,238.574604 325.177049,237.522003 322.830177,237.373331 C322.63981,237.361437 322.449443,237.35549 322.259075,237.35549 M322.285846,261.586118 L322.282871,261.586118 C321.955677,261.586118 321.625509,261.577198 321.292366,261.556383 C312.791278,261.015216 306.318791,253.661879 306.860148,245.166738 C307.395555,236.728092 314.724696,230.186507 323.252555,230.739568 C327.369247,231.001231 331.140898,232.847743 333.86553,235.943102 C336.590162,239.041435 337.949503,243.010988 337.687748,247.12624 C337.170187,255.237806 330.4062,261.586118 322.285846,261.586118"/>
        <path fill="#FEFEFE" d="M393.406464,186.71202 C392.981112,193.390384 398.052616,199.14698 404.733317,199.572183 C411.414019,199.997386 417.172629,194.927657 417.597981,188.249293 C418.023332,181.570928 412.951829,175.814333 406.271128,175.38913 C399.590426,174.963927 393.831816,180.033656 393.406464,186.71202"/>
        <path fill="#E9507E" d="M405.48973,178.688765 C400.870349,178.688765 397.018386,182.307452 396.723912,186.922243 C396.575187,189.268293 397.348554,191.528114 398.901237,193.291369 C400.450946,195.054623 402.598527,196.107224 404.945398,196.255896 C409.793815,196.577029 413.975946,192.848325 414.279344,188.037286 C414.428068,185.694209 413.654701,183.434388 412.104992,181.671134 C410.552309,179.907879 408.404728,178.855278 406.060831,178.706606 C405.870464,178.694712 405.680097,178.688765 405.48973,178.688765 M405.5165,202.919393 L405.513525,202.919393 C405.186332,202.919393 404.856163,202.910473 404.523021,202.889659 C400.406328,202.627995 396.634677,200.778511 393.910045,197.686125 C391.182439,194.587792 389.826072,190.618239 390.087827,186.500013 C390.62621,178.061368 397.943452,171.534649 406.483209,172.072843 C410.599901,172.334507 414.371553,174.183992 417.096184,177.279351 C419.820816,180.37471 421.177183,184.344263 420.915428,188.459516 C420.400841,196.568108 413.636854,202.919393 405.5165,202.919393"/>
      </g>
      <g filter="url(#c)" transform="translate(0 2.973)">
        <polygon fill="#F7AC42" points="145.349 468.163 101.1 1.864 .128 16.264 55.46 576.857 154.769 567.437 632.82 518.625 626.725 422.672"/>
        <path fill="#FEFEFE" fill-opacity=".5" d="M196.209467,493.818654 L193.345034,463.611395 L201.620062,462.826405 L204.484494,493.033664 L196.209467,493.818654 Z M243.378016,489.345994 L240.510609,459.138735 L248.788611,458.353745 L251.653043,488.561003 L243.378016,489.345994 Z M290.545077,484.873036 L287.680645,454.665777 L295.955672,453.880787 L298.820105,484.088045 L290.545077,484.873036 Z M337.713329,480.400375 L334.845921,450.193116 L343.123923,449.408126 L345.988356,479.615385 L337.713329,480.400375 Z M384.881877,475.927715 L382.01447,445.720456 L390.292472,444.935466 L393.156905,475.142724 L384.881877,475.927715 Z M432.048939,471.455054 L429.184506,441.247795 L437.459534,440.462805 L440.323966,470.670064 L432.048939,471.455054 Z M479.217488,466.982096 L476.35008,436.774838 L484.628082,435.989847 L487.495489,466.197106 L479.217488,466.982096 Z M526.384252,462.509436 L523.519819,432.302177 L531.794846,431.517187 L534.662253,461.724445 L526.384252,462.509436 Z M573.5528,458.036775 L570.685393,427.829516 L578.963395,427.044526 L581.827828,457.251785 L573.5528,458.036775 Z M111.051642,428.024277 L110.266377,419.752145 L140.481232,416.885741 L141.266497,425.157873 L111.051642,428.024277 Z M106.577416,380.87223 L105.792151,372.597124 L136.007006,369.733694 L136.792271,378.0088 L106.577416,380.87223 Z M102.102892,333.720183 L101.317627,325.448051 L131.532483,322.581647 L132.317748,330.856753 L102.102892,333.720183 Z M97.6286666,286.56992 L96.8434016,278.297788 L127.058257,275.431384 L127.843522,283.703516 L97.6286666,286.56992 Z M93.1544408,239.417873 L92.3691758,231.142767 L122.584032,228.279337 L123.369297,236.554443 L93.1544408,239.417873 Z M88.6802149,192.267313 L87.8949499,183.992207 L118.109806,181.128777 L118.895071,189.400909 L88.6802149,192.267313 Z M84.2056917,145.115266 L83.4204267,136.843134 L113.635282,133.97673 L114.420547,142.251836 L84.2056917,145.115266 Z M79.7314658,97.9650032 L78.9462008,89.6928708 L109.161057,86.8264668 L109.946322,95.0985993 L79.7314658,97.9650032 Z M75.25724,50.8129562 L74.471975,42.5378503 L104.686831,39.6744199 L105.472096,47.9495258 L75.25724,50.8129562 Z"/>
        <polygon fill="#FEFEFE" fill-opacity=".3" points="145.349 468.163 101.1 1.864 91.811 2.744 136.94 478.329 146.229 477.449 625.943 431.961 626.725 422.672"/>
        <polygon fill="#010202" fill-opacity=".07" points="91.084 533.779 41.149 7.547 .128 16.265 55.459 576.855 94.817 573.123 632.819 518.626 630.749 482.605"/>
      </g>
      <g filter="url(#d)" transform="translate(648.439 326.36)">
        <polygon fill="#44B9BC" points="124.494 .195 163.677 17.673 135.547 80.695 96.365 63.217"/>
        <polygon fill="#44B9BC" points="9.988 268.807 40.188 282.276 33.231 297.86 3.034 284.39"/>
        <polygon fill="#FEFEFE" points="96.365 63.219 135.547 80.696 41.203 292.073 2.02 274.595"/>
        <polygon fill="#010202" fill-opacity=".1" points="150.789 12.75 162.414 17.936 40.555 290.958 28.93 285.772"/>
        <polygon fill="#010202" fill-opacity=".1" points="24.13 284.458 36.709 290.069 33.232 297.862 20.653 292.251"/>
        <polygon fill="#E73D2F" points="99.384 100.434 87.382 95.082 19.739 246.63 31.741 251.985"/>
        <polygon fill="#010202" fill-opacity=".1" points="124.773 1.146 126.46 1.899 4.598 274.921 2.914 274.168"/>
        <polygon fill="#010202" fill-opacity=".1" points="6.51 276.598 8.634 277.547 5.157 285.337 3.033 284.392"/>
        <polygon fill="#010202" fill-opacity=".1" points="36.71 290.069 35.761 292.192 5.561 278.722 6.51 276.599"/>
      </g>
      <g filter="url(#e)" transform="translate(689.7 77.31)">
        <polygon fill="#E9507E" points=".068 21.285 38.082 1.398 70.093 62.544 32.076 82.431"/>
        <polygon fill="#E9507E" points="139.837 277.669 169.135 262.341 177.05 277.461 147.752 292.789"/>
        <polygon fill="#FEFEFE" points="32.078 82.43 70.092 62.544 177.453 267.622 139.436 287.509"/>
        <polygon fill="#010202" fill-opacity=".1" points="26.268 8.527 37.517 2.642 176.108 267.377 164.858 273.262"/>
        <polygon fill="#010202" fill-opacity=".1" points="160.889 276.286 173.093 269.902 177.052 277.46 164.848 283.844"/>
        <polygon fill="#E73D2F" points="63.154 103.143 51.512 109.233 128.483 256.267 140.125 250.177"/>
        <polygon fill="#010202" fill-opacity=".1" points="1.147 21.668 2.723 20.845 141.311 285.58 139.737 286.403"/>
        <polygon fill="#010202" fill-opacity=".1" points="143.794 285.229 145.855 284.15 149.814 291.711 147.753 292.787"/>
        <polygon fill="#010202" fill-opacity=".1" points="173.094 269.901 174.173 271.962 144.872 287.29 143.795 285.229"/>
      </g>
    </g>
  </g>
</svg>
