<svg xmlns="http://www.w3.org/2000/svg" width="909" height="710" viewBox="0 0 909 710">
  <defs>
    <filter id="a" width="200%" height="200%" x="-50%" y="-50%" filterUnits="objectBoundingBox">
      <feOffset in="SourceAlpha" result="shadowOffsetOuter1"/>
      <feGaussianBlur stdDeviation="9.5" in="shadowOffsetOuter1" result="shadowBlurOuter1"/>
      <feColorMatrix values="0 0 0 0 0 0 0 0 0 0 0 0 0 0 0 0 0 0 0.2 0" in="shadowBlurOuter1" result="shadowMatrixOuter1"/>
      <feMerge>
        <feMergeNode in="shadowMatrixOuter1"/>
        <feMergeNode in="SourceGraphic"/>
      </feMerge>
    </filter>
    <filter id="b" width="200%" height="200%" x="-50%" y="-50%" filterUnits="objectBoundingBox">
      <feOffset in="SourceAlpha" result="shadowOffsetOuter1"/>
      <feGaussianBlur stdDeviation="2" in="shadowOffsetOuter1" result="shadowBlurOuter1"/>
      <feColorMatrix values="0 0 0 0 0 0 0 0 0 0 0 0 0 0 0 0 0 0 0.2 0" in="shadowBlurOuter1" result="shadowMatrixOuter1"/>
      <feMerge>
        <feMergeNode in="shadowMatrixOuter1"/>
        <feMergeNode in="SourceGraphic"/>
      </feMerge>
    </filter>
    <filter id="c" width="200%" height="200%" x="-50%" y="-50%" filterUnits="objectBoundingBox">
      <feOffset in="SourceAlpha" result="shadowOffsetOuter1"/>
      <feGaussianBlur stdDeviation="2" in="shadowOffsetOuter1" result="shadowBlurOuter1"/>
      <feColorMatrix values="0 0 0 0 0 0 0 0 0 0 0 0 0 0 0 0 0 0 0.2 0" in="shadowBlurOuter1" result="shadowMatrixOuter1"/>
      <feMerge>
        <feMergeNode in="shadowMatrixOuter1"/>
        <feMergeNode in="SourceGraphic"/>
      </feMerge>
    </filter>
    <filter id="d" width="200%" height="200%" x="-50%" y="-50%" filterUnits="objectBoundingBox">
      <feOffset in="SourceAlpha" result="shadowOffsetOuter1"/>
      <feGaussianBlur stdDeviation="2" in="shadowOffsetOuter1" result="shadowBlurOuter1"/>
      <feColorMatrix values="0 0 0 0 0 0 0 0 0 0 0 0 0 0 0 0 0 0 0.2 0" in="shadowBlurOuter1" result="shadowMatrixOuter1"/>
      <feMerge>
        <feMergeNode in="shadowMatrixOuter1"/>
        <feMergeNode in="SourceGraphic"/>
      </feMerge>
    </filter>
    <filter id="e" width="200%" height="200%" x="-50%" y="-50%" filterUnits="objectBoundingBox">
      <feOffset in="SourceAlpha" result="shadowOffsetOuter1"/>
      <feGaussianBlur stdDeviation="2" in="shadowOffsetOuter1" result="shadowBlurOuter1"/>
      <feColorMatrix values="0 0 0 0 0 0 0 0 0 0 0 0 0 0 0 0 0 0 0.2 0" in="shadowBlurOuter1" result="shadowMatrixOuter1"/>
      <feMerge>
        <feMergeNode in="shadowMatrixOuter1"/>
        <feMergeNode in="SourceGraphic"/>
      </feMerge>
    </filter>
  </defs>
  <g fill="none" fill-rule="evenodd">
    <g fill="#6B7482" opacity=".1">
      <path d="M397.828483 550.73089L425.670487 651.289857C427.246591 656.990974 424.460129 662.5376 419.596073 663.882807L390.000747 672.067095C385.140462 673.412302 379.891807 670.08508 378.315702 664.380195L350.473698 563.824996C349.014481 558.545904 351.167486 553.168843 355.69973 551.461899 360.59772 549.423363 365.823752 547.7541 371.110113 546.292082 376.392704 544.830064 381.528241 543.639348 386.988049 542.810368 391.542916 542.007766 396.365495 545.44803 397.828483 550.73089M339.539 603.235429L358.02241 669.990878C359.602286 675.695764 356.812053 681.242389 351.951768 682.587597L322.356441 690.771884C317.492386 692.113323 312.247501 688.78987 310.671397 683.084984L292.187986 616.325767C290.724999 611.046676 292.878003 605.673382 297.410247 603.966438 302.312008 601.931671 307.53804 600.254872 312.824401 598.796622 318.106991 597.334603 323.242529 596.143887 328.698566 595.314908 333.253434 594.508537 338.079783 597.95257 339.539 603.235429M277.509096 642.220069L290.374334 688.695668C291.95421 694.400553 289.167747 699.947179 284.303691 701.288618L254.708365 709.472905C249.84808 710.818113 244.599425 707.494659 243.02332 701.789774L230.154312 655.314175C228.691324 650.031316 230.848099 644.658022 235.380343 642.951078 240.278334 640.912542 245.508136 639.243279 250.790727 637.781261 256.077088 636.319243 261.208855 635.128527 266.668663 634.303316 271.22353 633.496945 276.046109 636.937209 277.509096 642.220069M298.315188 571.8774L266.634727 551.981895 252.072726 578.294454C252.634543 579.50401 253.25669 580.92458 253.667683 582.40167 257.291216 595.503313 249.648239 608.985532 236.541684 612.610433 223.431358 616.235333 209.936432 608.593651 206.312899 595.495776 202.685596 582.397902 210.332343 568.911915 223.438899 565.290782 224.705816 564.94035 226.036832 564.800931 227.571461 564.601222L249.437086 526.031072C251.484514 522.737763 254.666889 520.265897 258.264027 519.271122 262.125107 518.430838 265.914545 518.977211 269.213808 521.019515L302.394961 541.412408 338.524712 494.352755C338.468154 494.141742 338.351265 493.719717 338.290936 493.508704 334.663633 480.407061 342.31038 466.924842 355.416936 463.299941 368.523491 459.67504 382.014647 467.316723 385.64195 480.414597 389.265483 493.512472 381.622506 506.998459 368.51595 510.619592 365.982117 511.320456 363.327624 511.603063 360.97855 511.339297L316.960733 568.542642C312.424719 574.345498 304.370748 575.664329 298.315188 571.8774M142.027184 549.03841C151.275305 582.448986 131.721247 616.942587 98.2885273 626.184582 60.7878791 636.553649 27.7051724 611.452319 20.3289733 579.715511L81.2027093 580.865902C86.0743712 580.928086 89.3463443 575.800553 88.2211174 571.735319L69.5615374 504.333791C101.246785 498.387512 133.258711 517.371559 142.027184 549.03841L142.027184 549.03841zM4.77024886 564.781152C2.0971869 564.739697-.0806715409 562.527007.00229449487 560.00081.04896289 529.650172 18.9600337 502.99685 47.0129245 495.242073 49.4837568 494.558057 52.1620041 496.319917 52.9501815 498.605154L71.7731008 566.584468 4.77024886 564.781152zM701.96797 73.020038L711.139181 37.0169741C710.485227 35.5237777 709.894686 34.2523824 709.46268 32.699775 705.653893 18.9322667 713.68762 4.75680295 727.464253.946577704 741.240887-2.86364754 755.425746 5.16871919 759.238497 18.9362275 759.361361 19.3798296 759.258314 19.8868034 759.381178 20.3304055L807.282326 41.2708015C809.545403 39.9281129 811.64202 38.8705972 814.30936 38.1339008 828.085993 34.3236756 842.270853 42.3560423 846.07964 56.1195899 849.892391 69.8910589 841.8547 84.0625619 828.078067 87.8727872 814.301433 91.6830124 800.120537 83.6506457 796.307787 69.8831374 796.184923 69.4395353 796.062059 68.9959332 796.161143 68.4929201L748.259994 47.5485634C746.00088 48.891252 743.682315 50.0121394 741.236923 50.685464 740.12322 50.9944012 738.950066 51.0815374 737.844289 51.3865138L730.345615 80.470177 701.96797 73.020038zM658.339322 207.479006C654.589985 193.933298 662.24323 180.102418 675.675051 175.908002L686.479165 133.718273 714.856811 141.172373 703.818858 185.100863C705.725233 187.683261 707.25509 190.606282 708.115138 193.715458 711.927889 207.482966 703.890198 221.65843 690.113565 225.464695 676.336932 229.27492 662.152072 221.242553 658.339322 207.479006L658.339322 207.479006zM819.374532 151.4782L671.517488 112.516469C668.517226 115.49494 664.827339 117.71295 660.602399 118.881367 646.825766 122.687631 632.640907 114.659225 628.828156 100.891717 625.019369 87.1242086 633.053096 72.9487448 646.833693 69.1385196 659.274674 65.6966425 672.080285 72.2001663 677.177164 83.6981745L825.034208 122.659906C828.03447 119.681435 831.724356 117.463424 835.949296 116.295008 849.72593 112.488743 863.910789 120.517149 867.719576 134.284658 871.532327 148.052166 863.494636 162.22763 849.718003 166.037855 837.277021 169.475771 824.471411 162.976208 819.374532 151.4782L819.374532 151.4782z"/>
    </g>
    <g filter="url(#a)" transform="translate(31.112 76.356)">
      <g filter="url(#b)" transform="translate(127.903)">
        <path fill="#C7C6CE" d="M82.3035062 41.917857C90.1710287 42.4173963 96.2776539 48.7211061 96.7446486 56.3896286 96.7476231 56.3569207 96.7535721 56.3271862 96.7565465 56.2944783 97.300878 47.7725762 90.8283907 40.4251861 82.3035062 39.8840185 73.7786217 39.3398775 66.4286602 45.8101005 65.8873033 54.3320025 65.8456604 54.9861611 65.8605329 55.6313993 65.8992012 56.2706907 66.48815 47.7963638 73.8113411 41.3766894 82.3035062 41.917857M138.712899 45.5041327C146.580421 46.0036719 152.687047 52.3073818 153.154041 59.9759043 153.157016 59.9431963 153.162965 59.9134619 153.165939 59.8807539 153.707296 51.3588519 147.237783 44.0114617 138.712899 43.4702942 130.188014 42.9261532 122.838053 49.3963761 122.296696 57.9182782 122.255053 58.5724368 122.266951 59.217675 122.308594 59.8569664 122.897543 51.3826394 130.220734 44.9629651 138.712899 45.5041327M195.122291 49.090111C202.989814 49.5896503 209.096439 55.8933601 209.563434 63.5618826 209.566408 63.5291747 209.572357 63.4994402 209.575332 63.4667323 210.116689 54.9448302 203.644201 47.5974401 195.122291 47.0562725 186.597407 46.5121315 179.247445 52.9823545 178.706089 61.5042566 178.664446 62.1584151 178.676344 62.8036534 178.715012 63.4429447 179.306935 54.9686178 186.630126 48.5489435 195.122291 49.090111M251.530792 52.6763867C259.398314 53.1759259 265.504939 59.4796358 265.971934 67.1481583 265.974909 67.1154504 265.980858 67.0857159 265.983832 67.053008 266.525189 58.5311059 260.055676 51.1837158 251.530792 50.6425482 243.005907 50.0984072 235.655946 56.5686302 235.114589 65.0905322 235.072946 65.7446908 235.087818 66.389929 235.126487 67.0292204 235.715436 58.5548935 243.038627 52.1352191 251.530792 52.6763867M307.940184 56.2626624C315.807707 56.7622016 321.914332 63.0659115 322.381327 70.734434 322.384301 70.701726 322.39025 70.6719916 322.393225 70.6392836 322.934582 62.1173816 316.465069 54.7699914 307.940184 54.2288239 299.4153 53.6846829 292.065338 60.1549058 291.523981 68.6768079 291.482339 69.3309665 291.494237 69.9762047 291.532905 70.6154961 292.124828 62.1411691 299.448019 55.7214948 307.940184 56.2626624M364.348685 59.8486407C372.216207 60.34818 378.322832 66.6518898 378.789827 74.3204123 378.792802 74.2877044 378.798751 74.2579699 378.801725 74.225262 379.346056 65.7033599 372.873569 58.3559698 364.348685 57.8148022 355.8238 57.2706612 348.473839 63.7408842 347.932482 72.2627863 347.890839 72.9169448 347.905711 73.5621831 347.94438 74.2014744 348.533328 65.7271475 355.85652 59.3074732 364.348685 59.8486407M420.758077 63.4349164C428.6256 63.9344556 434.732225 70.2381655 435.19922 77.906688 435.202194 77.8739801 435.208143 77.8442456 435.211118 77.8115377 435.752475 69.2896356 429.282962 61.9422455 420.758077 61.4010779 412.233193 60.8569369 404.883231 67.3271599 404.341874 75.8490619 404.300232 76.5032205 404.31213 77.1484587 404.353772 77.7877501 404.942721 69.3134232 412.265912 62.8937488 420.758077 63.4349164M477.16747 67.0211921C485.034992 67.5207313 491.141618 73.8244412 491.608612 81.4929637 491.611587 81.4602557 491.617536 81.4305213 491.62051 81.3978133 492.161867 72.8759113 485.68938 65.5285211 477.16747 64.9873536 468.642585 64.4432126 461.292624 70.9134355 460.751267 79.4353376 460.709624 80.0894962 460.721522 80.7347344 460.760191 81.3740258 461.352114 72.8996988 468.675305 66.4800245 477.16747 67.0211921M533.57597 70.6071704C541.443493 71.1067097 547.550118 77.4104195 548.017113 85.078942 548.020087 85.0462341 548.026036 85.0164996 548.029011 84.9837917 548.570368 76.4618896 542.100855 69.1144995 533.57597 68.5733319 525.051086 68.0291909 517.701124 74.4994139 517.159767 83.021316 517.118124 83.6754745 517.132997 84.3207128 517.171665 84.9600041 517.760614 76.4856772 525.083805 70.0660029 533.57597 70.6071704"/>
        <polygon fill="#C8C6CE" points="561.645 441.687 4.33 410.341 3.455 427.673 560.541 469.87"/>
        <polygon fill="#DFDFE9" points="558.6 463.478 5.122 424.205 6.449 406.903 561.078 435.382"/>
        <path fill="#FEFEFE" d="M531.612808,99.431181 C523.087923,98.8900135 516.61841,91.5426234 517.159767,83.0207213 C517.701124,74.4988192 525.051086,68.0285963 533.57597,68.5727372 C542.100855,69.1139048 548.570368,76.4612949 548.029011,84.983197 C547.487654,93.5050991 540.137692,99.9723486 531.612808,99.431181 L531.612808,99.431181 Z M475.204605,95.8452027 C466.67972,95.3040351 460.207233,87.956645 460.751564,79.4347429 C461.292921,70.9128409 468.642883,64.4426179 477.167767,64.9867589 C485.689677,65.5279265 492.162165,72.8753166 491.620808,81.3972186 C491.079451,89.9191207 483.726515,96.3863702 475.204605,95.8452027 L475.204605,95.8452027 Z M418.793428,92.2592243 C410.268543,91.7180568 403.79903,84.3706667 404.340387,75.8487646 C404.884719,67.3268625 412.23468,60.8566396 420.75659,61.4007806 C429.281475,61.9419481 435.753962,69.2893382 435.212605,77.8112403 C434.668273,86.3331424 427.318312,92.8003919 418.793428,92.2592243 L418.793428,92.2592243 Z M362.385225,88.673246 C353.86034,88.1320785 347.390827,80.7846883 347.932184,72.2627863 C348.473541,63.7408842 355.823503,57.2706612 364.348387,57.8148022 C372.873272,58.3559698 379.345759,65.7033599 378.801428,74.225262 C378.260071,82.7471641 370.910109,89.2144135 362.385225,88.673246 L362.385225,88.673246 Z M305.977022,85.0872677 C297.452137,84.5431267 290.982625,77.1957366 291.523981,68.6768079 C292.065338,60.1549058 299.4153,53.6846829 307.940184,54.2288239 C316.465069,54.7699914 322.934582,62.1173816 322.393225,70.6392836 C321.851868,79.1582123 314.501906,85.6284352 305.977022,85.0872677 L305.977022,85.0872677 Z M249.568819,81.5012893 C241.043935,80.9571483 234.571447,73.6097582 235.115779,65.0908296 C235.657136,56.5689275 243.007097,50.0987046 251.531982,50.6398721 C260.053892,51.1840131 266.526379,58.5314032 265.985022,67.0533053 C265.44069,75.5722339 258.090729,82.0424569 249.568819,81.5012893 L249.568819,81.5012893 Z M193.157642,77.915311 C184.632757,77.37117 178.163244,70.0237799 178.704601,61.5018778 C179.245958,52.9829492 186.59592,46.5127262 195.120804,47.0538938 C203.645689,47.5980348 210.118176,54.9454249 209.573845,63.4643535 C209.032488,71.9862556 201.682526,78.4564785 193.157642,77.915311 L193.157642,77.915311 Z M136.749439,74.3293327 C128.224554,73.7851917 121.755042,66.4378016 122.296398,57.9158995 C122.837755,49.3969708 130.187717,42.9267479 138.712601,43.4679154 C147.237486,44.0120564 153.706999,51.3594465 153.165642,59.8783752 C152.624285,68.4002773 145.274323,74.8705002 136.749439,74.3293327 L136.749439,74.3293327 Z M80.341236,70.7403809 C71.8163515,70.1992133 65.3438642,62.8518232 65.8881956,54.3299211 C66.4295526,45.8080191 73.779514,39.3407696 82.3043985,39.8819371 C90.8263085,40.4231046 97.2987958,47.7704948 96.7574389,56.2923968 C96.216082,64.8142989 88.863146,71.2845219 80.341236,70.7403809 L80.341236,70.7403809 Z M27.8147409,19.7070922 L0.642786998,416.540494 L563.576663,456.482822 L588.568316,48.5673788 L27.8147409,19.7070922 Z"/>
        <path fill="#010202" fill-opacity=".1" d="M529.591048 68.8504573C530.876027 68.5977142 532.208598 68.4847232 533.576863 68.5709532 537.244407 68.8058556 540.531217 70.3044734 543.04466 72.6118691L545.305271 46.3414556 531.589904 45.633775 529.591048 68.8504573zM473.528481 65.1984684C474.706378 64.9933005 475.922944 64.9070705 477.16628 64.9873536 481.045013 65.2311763 484.489471 66.8992807 487.050506 69.4326584L488.409847 43.4120146 474.703404 42.7073074 473.528481 65.1984684zM416.697603 61.6924758C418.003403 61.427839 419.362745 61.3118745 420.75778 61.4010779 424.386656 61.6300334 427.637772 63.1018902 430.139317 65.3646842L432.459418 40.5334196 418.741077 39.8257389 416.697603 61.6924758zM360.946762 57.981018C362.050297 57.8055845 363.186552 57.7401687 364.349577 57.8145049 368.388933 58.0702214 371.958319 59.8691575 374.546124 62.5839155L375.254052 37.5891113 361.54166 36.8844041 360.946762 57.981018zM304.418687 54.4173405C305.560891 54.2270398 306.735814 54.1497302 307.940482 54.2270398 311.899526 54.4797829 315.400499 56.2103297 317.976407 58.8329108L318.949064 34.6914862 305.242621 33.986779 304.418687 54.4173405zM247.504524 50.9274045C248.801401 50.6687146 250.148844 50.5527501 251.531982 50.6419535 255.178705 50.8738825 258.444693 52.357633 260.949213 54.6412411L263.007559 31.8111071 249.292192 31.1063999 247.504524 50.9274045zM191.546659 47.2554936C192.703735 47.059246 193.899479 46.9759894 195.121994 47.0562725 199.04237 47.3030687 202.519547 49.003881 205.089505 51.5878074L206.127602 28.8855316 192.421158 28.1778509 191.546659 47.2554936zM134.689903 43.7545558C135.98678 43.4958659 137.331249 43.3799014 138.711412 43.4691048 142.361109 43.7010338 145.630072 45.1877578 148.137566 47.4713659L150.065035 26.0000976 136.349668 25.292417 134.689903 43.7545558zM78.805805 40.0683723C79.9390851 39.8810451 81.1080592 39.8067089 82.3038036 39.8840185 86.2777205 40.1367616 89.793566 41.8792022 92.3724477 44.519624L93.1874576 23.0721433 79.4780394 22.3674361 78.805805 40.0683723z"/>
        <path fill="#16A0DB" d="M84.0575621,0.019595333 L84.0575621,0.019595333 C80.2710381,-0.123130173 77.0823862,2.82950373 76.9396108,6.61470309 L75.1459941,53.8925269 C75.0002442,57.6777263 77.9539114,60.8622891 81.7404355,61.0079881 L81.7404355,61.0079881 C85.529934,61.1507136 88.7156114,58.1980797 88.8583868,54.4128803 L90.654978,7.13505649 C90.7977534,3.34985714 87.8440862,0.162320839 84.0575621,0.019595333"/>
        <path fill="#010202" fill-opacity=".1" d="M80.1285601,54.0804488 L81.9221767,6.802625 C82.0352073,3.89756627 83.9418545,1.4979937 86.5326341,0.597038942 C85.7681906,0.264012762 84.9383082,0.0528979511 84.0578596,0.0201900226 C80.2713355,-0.125508931 77.0826837,2.82712497 76.9399082,6.61529778 L75.1462916,53.8901482 C75.0005416,57.678321 77.9542089,60.8628838 81.7407329,61.0056093 C82.624156,61.0412907 83.4659363,60.8926183 84.2512013,60.6190611 C81.7377584,59.5218588 80.018504,56.9855076 80.1285601,54.0804488"/>
        <path fill="#16A0DB" d="M142.038377,3.70607621 L142.038377,3.70607621 C138.263751,3.36710314 134.929349,6.1502505 134.590258,9.92652951 L130.35756,57.0467606 C130.018468,60.8200662 132.805564,64.1533014 136.58019,64.4922745 L136.58019,64.4922745 C140.354817,64.8312476 143.689218,62.0481002 144.02831,58.2747946 L148.261007,11.1515901 C148.600099,7.37828454 145.813003,4.04504929 142.038377,3.70607621"/>
        <path fill="#010202" fill-opacity=".1" d="M135.325254,57.4921831 L139.557951,10.371952 C139.816732,7.47581364 141.845333,5.1773383 144.477755,4.41018871 C143.734133,4.0385077 142.916149,3.78576462 142.038675,3.70548152 C138.264048,3.36650845 134.929647,6.15262926 134.590555,9.92593482 L130.357858,57.0461659 C130.018766,60.8194715 132.805862,64.1527067 136.580488,64.4916798 C137.457962,64.5719629 138.305691,64.4649188 139.105829,64.2329898 C136.651876,63.0109027 135.066473,60.3883215 135.325254,57.4921831"/>
        <path fill="#16A0DB" d="M197.113712,7.20166173 L197.113712,7.20166173 C193.327188,7.02920174 190.117714,9.95507461 189.945194,13.740274 L187.779766,61.0032306 C187.607246,64.7884299 190.537117,67.9967804 194.320667,68.1692403 C198.107191,68.3417003 201.316664,65.4158275 201.492159,61.6306281 L203.654612,14.3676715 C203.827132,10.5824722 200.900236,7.37412172 197.113712,7.20166173"/>
        <path fill="#010202" fill-opacity=".1" d="M192.76263,61.230402 L194.928057,13.9704188 C195.058935,11.0653601 196.986403,8.68065478 199.583132,7.80051416 C198.821663,7.46154109 197.994755,7.24150593 197.114306,7.20285111 C193.327782,7.02741767 190.118309,9.95626399 189.945789,13.7414633 L187.780361,61.0014465 C187.607841,64.7866459 190.534738,67.9949963 194.321262,68.1704297 C195.204685,68.2090846 196.046465,68.066359 196.834705,67.7987487 C194.330185,66.6837057 192.628778,64.1354607 192.76263,61.230402"/>
        <path fill="#16A0DB" d="M254.867276,10.8792223 L254.867276,10.8792223 C251.09265,10.5402492 247.755273,13.3233966 247.416182,17.0967021 L243.168612,64.2169332 C242.826546,67.9902388 245.610667,71.323474 249.385293,71.6624471 C253.159919,72.0043936 256.497295,69.2212463 256.836387,65.4479407 L261.086931,18.3277096 C261.426023,14.554404 258.641902,11.2181953 254.867276,10.8792223"/>
        <path fill="#010202" fill-opacity=".1" d="M248.135115,64.6632478 L252.382685,17.5430167 C252.64444,14.6498517 254.676016,12.3513764 257.308438,11.5842268 C256.561842,11.2125458 255.746832,10.9598027 254.866383,10.8795196 C251.091757,10.5405465 247.757355,13.3236939 247.418264,17.0969995 L243.167719,64.2142571 C242.828628,67.9905361 245.612749,71.3237714 249.387375,71.6627445 C250.264849,71.7430275 251.115553,71.6389569 251.912716,71.4070279 C249.458763,70.1819673 247.87336,67.5593862 248.135115,64.6632478"/>
        <path fill="#16A0DB" d="M309.765331,14.3670768 L309.765331,14.3670768 C305.978807,14.215431 302.784206,17.1591445 302.632507,20.9443439 L300.72586,68.2191943 C300.574161,72.0043936 303.518904,75.1949034 307.305428,75.3495227 L307.305428,75.3495227 C311.091953,75.5011685 314.286553,72.557455 314.438252,68.7692822 L316.3449,21.4974052 C316.499573,17.7122059 313.551855,14.5187227 309.765331,14.3670768"/>
        <path fill="#010202" fill-opacity=".1" d="M305.709318,68.4184153 L307.615965,21.1465383 C307.73197,18.2414796 309.644566,15.8478539 312.23832,14.9498726 C311.473877,14.6168465 310.646969,14.4027582 309.76652,14.3670768 C305.979996,14.215431 302.785396,17.1591445 302.630722,20.9443439 L300.727049,68.2162208 C300.572376,72.0043936 303.520094,75.1949034 307.306618,75.3495227 C308.187067,75.3852041 309.031822,75.2365317 309.817087,74.9659479 C307.306618,73.8627987 305.593313,71.323474 305.709318,68.4184153"/>
        <path fill="#16A0DB" d="M365.805887,17.9405667 L365.805887,17.9405667 C362.016388,17.8335225 358.860456,20.8158909 358.753374,24.6040637 L357.417829,71.8967548 C357.310747,75.6849276 360.294159,78.839756 364.083658,78.9468001 C367.873156,79.0538442 371.029089,76.0714759 371.13617,72.2833031 L372.471716,24.990612 C372.578797,21.2054126 369.595385,18.0476108 365.805887,17.9405667"/>
        <path fill="#010202" fill-opacity=".1" d="M362.403369,72.0371016 L363.738914,24.7444105 C363.819226,21.8393517 365.705051,19.4219385 368.283933,18.4942227 C367.51949,18.1701169 366.689607,17.9649489 365.806184,17.9411614 C362.016686,17.8341172 358.860753,20.8164856 358.753671,24.6046584 L357.418126,71.8973495 C357.311044,75.6825489 360.294457,78.8403507 364.083955,78.9473948 C364.967378,78.9711824 365.806184,78.8135896 366.591449,78.5340855 C364.066108,77.4636442 362.320083,74.9421603 362.403369,72.0371016"/>
        <path fill="#16A0DB" d="M424.193612,21.6469697 L424.193612,21.6469697 C420.418986,21.2931293 417.07566,24.0673564 416.721696,27.8406619 L412.319453,74.9460258 C411.968463,78.7163579 414.740687,82.0614869 418.515313,82.4123538 L418.515313,82.4123538 C422.286964,82.7661941 425.633264,79.9949405 425.984254,76.221635 L430.389472,29.1162711 C430.740461,25.3429656 427.968238,22.00081 424.193612,21.6469697"/>
        <path fill="#010202" fill-opacity=".1" d="M417.285957,75.4086943 L421.6882,28.3033304 C421.958878,25.4101655 423.996403,23.1176371 426.6318,22.3594078 C425.888178,21.9877268 425.073168,21.7290368 424.192719,21.6457803 C420.421068,21.2949134 417.074768,24.066167 416.723778,27.8394725 L412.321535,74.9448364 C411.967571,78.718142 414.739794,82.0602976 418.51442,82.4141379 C419.391895,82.494421 420.242598,82.3933237 421.042736,82.1643682 C418.591757,80.9303873 417.015278,78.3018592 417.285957,75.4086943"/>
        <path fill="#16A0DB" d="M479.353124,25.1422578 L479.353124,25.1422578 C475.569575,24.9460103 472.33928,27.851069 472.142964,31.6362683 L469.677113,78.8813843 C469.480796,82.6665836 472.386872,85.8927747 476.173396,86.0919958 C479.956945,86.2882433 483.18724,83.3802111 483.383556,79.5979852 L485.849407,32.3498959 C486.045724,28.56767 483.136674,25.3385054 479.353124,25.1422578"/>
        <path fill="#010202" fill-opacity=".1" d="M474.657894,79.1418583 L477.123745,31.8967424 C477.275444,28.9916837 479.21481,26.6188721 481.817488,25.7565722 C481.058993,25.4116522 480.23506,25.1886436 479.354611,25.1410684 C475.568087,24.9448209 472.340767,27.8528531 472.141476,31.635079 L469.6786,78.8831683 C469.479309,82.6653942 472.388359,85.8915854 476.171909,86.0908064 C477.055332,86.1354081 477.897112,85.9986295 478.688326,85.7369661 C476.189756,84.6070558 474.506195,82.0439436 474.657894,79.1418583"/>
        <path fill="#16A0DB" d="M536.7905,28.7993016 L536.7905,28.7993016 C533.0129,28.4751957 529.690396,31.2702369 529.363202,35.0465159 L525.305999,82.1816142 C524.978806,85.9578932 527.777799,89.2792347 531.552426,89.606314 C535.330026,89.9304198 538.655504,87.1324052 538.979724,83.3590997 L543.039901,36.2240013 C543.36412,32.4477223 540.565126,29.1234074 536.7905,28.7993016"/>
        <path fill="#010202" fill-opacity=".1" d="M530.27399,82.6097908 L534.334167,35.4746924 C534.584024,32.578554 536.603702,30.2711584 539.23315,29.4950884 C538.486554,29.1263809 537.668569,28.8736378 536.791095,28.7993016 C533.013494,28.4751957 529.690991,31.2702369 529.363797,35.0465159 L525.30362,82.1816142 C524.979401,85.9578932 527.778394,89.2792347 531.55302,89.606314 C532.433469,89.6806502 533.281198,89.5736061 534.078361,89.3357302 C531.621434,88.1225634 530.024133,85.5059291 530.27399,82.6097908"/>
        <polygon fill="#6B7482" fill-opacity=".2" points="275.95 154.892 56.185 144.25 54.201 96.907 283.496 114.813"/>
        <polygon fill="#44B9BC" points="117.741 335.686 58.049 329.692 54.747 381.576 114.51 386.476"/>
        <polygon fill="#44B9BC" points="194.816 291.908 131.456 287.281 126.985 385.697 188.599 389.613"/>
        <polygon fill="#44B9BC" points="278.469 226.594 213.387 220.882 202.697 388.935 267.677 396.214"/>
        <polygon fill="#44B9BC" points="353.346 271.067 288.265 265.355 281.872 393.968 343.489 397.884"/>
        <polygon fill="#44B9BC" points="435.028 208.592 373.114 209.377 359.166 400.457 424.349 404.602"/>
        <polygon fill="#2D9CA3" points="519.527 184.257 454.57 178.554 440.126 405.604 506.965 409.853"/>
        <path fill="#E9507E" d="M71.9594244,321.931324 C69.7523538,321.931324 67.6404669,320.667609 66.6618601,318.526726 C65.3292892,315.603827 66.6172428,312.154627 69.5411651,310.819549 L160.89961,269.149648 L246.915873,192.060034 L321.88191,240.884051 L402.567889,181.192082 L487.552005,155.332004 C490.636549,154.395368 493.878742,156.131862 494.815706,159.203434 C495.749695,162.277979 494.015569,165.527957 490.942922,166.46162 L407.877352,191.735929 L322.304288,255.043611 L248.040229,206.674531 L167.345327,278.997708 L74.3717347,321.405024 C73.5864697,321.761838 72.7684853,321.931324 71.9594244,321.931324"/>
        <path fill="#E9507E" d="M475.907179,141.157577 L502.2552,156.375684 C502.692449,156.643295 502.850097,157.237984 502.606189,157.686975 L487.35896,184.010911 C487.115052,184.462875 486.502308,184.626414 486.065058,184.35583 L478.042862,179.717252 C477.611561,179.467482 477.447964,178.854952 477.697821,178.423802 L487.817032,160.93398 L470.318115,150.815337 C469.889789,150.56854 469.726192,149.953037 469.973074,149.52486 L474.616251,141.502497 C474.764975,141.303276 474.949394,141.139737 475.2052,141.074321 C475.458031,141.005932 475.678143,141.059454 475.907179,141.157577"/>
        <path fill="#FEFEFE" d="M152.027007,273.303555 C151.601656,279.981919 156.673159,285.738515 163.35386,286.163718 C170.034562,286.588921 175.793172,281.519192 176.218524,274.840828 C176.643876,268.162464 171.572372,262.405868 164.891671,261.980665 C158.210969,261.555462 152.452359,266.625191 152.027007,273.303555"/>
        <path fill="#E9507E" d="M164.10938,265.280598 C159.49,265.280598 155.638037,268.89631 155.346537,273.514075 C155.197812,275.860126 155.968205,278.119946 157.520888,279.883201 C159.073571,281.643482 161.221152,282.699056 163.565049,282.847729 C168.413465,283.162914 172.595597,279.440157 172.901969,274.629118 C173.050693,272.286041 172.277326,270.026221 170.724643,268.262966 C169.17196,266.499711 167.024379,265.447111 164.680482,265.298438 C164.490115,265.286545 164.299748,265.280598 164.10938,265.280598 M164.136151,289.511226 L164.136151,289.511226 C163.805983,289.511226 163.475814,289.502305 163.142672,289.481491 C159.025979,289.219828 155.257302,287.370343 152.529696,284.274984 C149.805064,281.179624 148.448698,277.210071 148.710453,273.091846 C149.242886,264.656174 156.545256,258.108641 165.10286,258.664676 C169.219552,258.926339 172.991204,260.775824 175.715835,263.871183 C178.440467,266.966543 179.799808,270.936096 179.538053,275.051348 C179.020492,283.162914 172.256505,289.511226 164.136151,289.511226"/>
        <path fill="#FEFEFE" d="M235.381995,198.599539 C234.956643,205.277903 240.028147,211.034498 246.708848,211.459701 C253.38955,211.884904 259.14816,206.815176 259.573512,200.136811 C259.998863,193.458447 254.92736,187.701852 248.246659,187.276648 C241.565957,186.851445 235.807347,191.921174 235.381995,198.599539"/>
        <path fill="#E9507E" d="M247.465261,190.576284 C242.84588,190.576284 238.993917,194.19497 238.699443,198.809761 C238.550718,201.155812 239.324085,203.415632 240.876768,205.178887 C242.426477,206.939168 244.574058,207.994742 246.920929,208.143415 C251.751499,208.482388 255.948502,204.735843 256.254875,199.924804 C256.564221,195.087004 252.875855,190.903363 248.036362,190.594124 C247.845995,190.582231 247.655628,190.576284 247.465261,190.576284 M247.492031,214.806912 L247.489057,214.806912 C247.161863,214.806912 246.831695,214.797992 246.498552,214.777177 C242.38186,214.515514 238.610208,212.666029 235.885576,209.57067 C233.15797,206.47531 231.801603,202.505757 232.063358,198.387532 C232.601741,189.948886 239.957651,183.431088 248.45874,183.960362 C256.956854,184.501529 263.432316,191.851893 262.890959,200.347034 C262.376372,208.455627 255.612385,214.806912 247.492031,214.806912"/>
        <path fill="#FEFEFE" d="M310.176405,244.377853 C309.751053,251.056217 314.822556,256.812812 321.503258,257.238015 C328.183959,257.663218 333.942569,252.59349 334.367921,245.915125 C334.793273,239.236761 329.72177,233.480166 323.041068,233.054962 C316.360367,232.629759 310.601757,237.699488 310.176405,244.377853"/>
        <path fill="#E9507E" d="M322.259075,236.35549 C317.639694,236.35549 313.787732,239.971203 313.496232,244.588967 C313.186885,249.426767 316.875251,253.613382 321.714744,253.922621 C326.578033,254.267541 330.742317,250.515049 331.051664,245.70401 C331.200388,243.360933 330.427021,241.098139 328.874338,239.337858 C327.321655,237.574604 325.177049,236.522003 322.830177,236.373331 C322.63981,236.361437 322.449443,236.35549 322.259075,236.35549 M322.285846,260.586118 L322.282871,260.586118 C321.955677,260.586118 321.625509,260.577198 321.292366,260.556383 C312.791278,260.015216 306.318791,252.661879 306.860148,244.166738 C307.395555,235.728092 314.724696,229.186507 323.252555,229.739568 C327.369247,230.001231 331.140898,231.847743 333.86553,234.943102 C336.590162,238.041435 337.949503,242.010988 337.687748,246.12624 C337.170187,254.237806 330.4062,260.586118 322.285846,260.586118"/>
        <path fill="#FEFEFE" d="M393.406464,185.71202 C392.981112,192.390384 398.052616,198.14698 404.733317,198.572183 C411.414019,198.997386 417.172629,193.927657 417.597981,187.249293 C418.023332,180.570928 412.951829,174.814333 406.271128,174.38913 C399.590426,173.963927 393.831816,179.033656 393.406464,185.71202"/>
        <path fill="#E9507E" d="M405.48973,177.688765 C400.870349,177.688765 397.018386,181.307452 396.723912,185.922243 C396.575187,188.268293 397.348554,190.528114 398.901237,192.291369 C400.450946,194.054623 402.598527,195.107224 404.945398,195.255896 C409.793815,195.577029 413.975946,191.848325 414.279344,187.037286 C414.428068,184.694209 413.654701,182.434388 412.104992,180.671134 C410.552309,178.907879 408.404728,177.855278 406.060831,177.706606 C405.870464,177.694712 405.680097,177.688765 405.48973,177.688765 M405.5165,201.919393 L405.513525,201.919393 C405.186332,201.919393 404.856163,201.910473 404.523021,201.889659 C400.406328,201.627995 396.634677,199.778511 393.910045,196.686125 C391.182439,193.587792 389.826072,189.618239 390.087827,185.500013 C390.62621,177.061368 397.943452,170.534649 406.483209,171.072843 C410.599901,171.334507 414.371553,173.183992 417.096184,176.279351 C419.820816,179.37471 421.177183,183.344263 420.915428,187.459516 C420.400841,195.568108 413.636854,201.919393 405.5165,201.919393"/>
      </g>
      <g filter="url(#c)" transform="translate(0 2.973)">
        <polygon fill="#F7AC42" points="145.349 467.163 101.1 .864 .128 15.264 55.46 575.857 154.769 566.437 632.82 517.625 626.725 421.672"/>
        <path fill="#FEFEFE" fill-opacity=".5" d="M196.209467,492.818654 L193.345034,462.611395 L201.620062,461.826405 L204.484494,492.033664 L196.209467,492.818654 Z M243.378016,488.345994 L240.510609,458.138735 L248.788611,457.353745 L251.653043,487.561003 L243.378016,488.345994 Z M290.545077,483.873036 L287.680645,453.665777 L295.955672,452.880787 L298.820105,483.088045 L290.545077,483.873036 Z M337.713329,479.400375 L334.845921,449.193116 L343.123923,448.408126 L345.988356,478.615385 L337.713329,479.400375 Z M384.881877,474.927715 L382.01447,444.720456 L390.292472,443.935466 L393.156905,474.142724 L384.881877,474.927715 Z M432.048939,470.455054 L429.184506,440.247795 L437.459534,439.462805 L440.323966,469.670064 L432.048939,470.455054 Z M479.217488,465.982096 L476.35008,435.774838 L484.628082,434.989847 L487.495489,465.197106 L479.217488,465.982096 Z M526.384252,461.509436 L523.519819,431.302177 L531.794846,430.517187 L534.662253,460.724445 L526.384252,461.509436 Z M573.5528,457.036775 L570.685393,426.829516 L578.963395,426.044526 L581.827828,456.251785 L573.5528,457.036775 Z M111.051642,427.024277 L110.266377,418.752145 L140.481232,415.885741 L141.266497,424.157873 L111.051642,427.024277 Z M106.577416,379.87223 L105.792151,371.597124 L136.007006,368.733694 L136.792271,377.0088 L106.577416,379.87223 Z M102.102892,332.720183 L101.317627,324.448051 L131.532483,321.581647 L132.317748,329.856753 L102.102892,332.720183 Z M97.6286666,285.56992 L96.8434016,277.297788 L127.058257,274.431384 L127.843522,282.703516 L97.6286666,285.56992 Z M93.1544408,238.417873 L92.3691758,230.142767 L122.584032,227.279337 L123.369297,235.554443 L93.1544408,238.417873 Z M88.6802149,191.267313 L87.8949499,182.992207 L118.109806,180.128777 L118.895071,188.400909 L88.6802149,191.267313 Z M84.2056917,144.115266 L83.4204267,135.843134 L113.635282,132.97673 L114.420547,141.251836 L84.2056917,144.115266 Z M79.7314658,96.9650032 L78.9462008,88.6928708 L109.161057,85.8264668 L109.946322,94.0985993 L79.7314658,96.9650032 Z M75.25724,49.8129562 L74.471975,41.5378503 L104.686831,38.6744199 L105.472096,46.9495258 L75.25724,49.8129562 Z"/>
        <polygon fill="#FEFEFE" fill-opacity=".3" points="145.349 467.163 101.1 .864 91.811 1.744 136.94 477.329 146.229 476.449 625.943 430.961 626.725 421.672"/>
        <polygon fill="#010202" fill-opacity=".07" points="91.084 532.779 41.149 6.547 .128 15.265 55.459 575.855 94.817 572.123 632.819 517.626 630.749 481.605"/>
      </g>
      <g filter="url(#d)" transform="translate(650.439 325.36)">
        <polygon fill="#44B9BC" points="122.494 .195 161.677 17.673 133.547 80.695 94.365 63.217"/>
        <polygon fill="#44B9BC" points="7.988 268.807 38.188 282.276 31.231 297.86 1.034 284.39"/>
        <polygon fill="#FEFEFE" points="94.365 63.219 133.547 80.696 39.203 292.073 .02 274.595"/>
        <polygon fill="#010202" fill-opacity=".1" points="148.789 12.75 160.414 17.936 38.555 290.958 26.93 285.772"/>
        <polygon fill="#010202" fill-opacity=".1" points="22.13 284.458 34.709 290.069 31.232 297.862 18.653 292.251"/>
        <polygon fill="#E73D2F" points="97.384 100.434 85.382 95.082 17.739 246.63 29.741 251.985"/>
        <polygon fill="#010202" fill-opacity=".1" points="122.773 1.146 124.46 1.899 2.598 274.921 .914 274.168"/>
        <polygon fill="#010202" fill-opacity=".1" points="4.51 276.598 6.634 277.547 3.157 285.337 1.033 284.392"/>
        <polygon fill="#010202" fill-opacity=".1" points="34.71 290.069 33.761 292.192 3.561 278.722 4.51 276.599"/>
      </g>
      <g filter="url(#e)" transform="translate(689.7 77.31)">
        <polygon fill="#E9507E" points=".068 20.285 38.082 .398 70.093 61.544 32.076 81.431"/>
        <polygon fill="#E9507E" points="139.837 276.669 169.135 261.341 177.05 276.461 147.752 291.789"/>
        <polygon fill="#FEFEFE" points="32.078 81.43 70.092 61.544 177.453 266.622 139.436 286.509"/>
        <polygon fill="#010202" fill-opacity=".1" points="26.268 7.527 37.517 1.642 176.108 266.377 164.858 272.262"/>
        <polygon fill="#010202" fill-opacity=".1" points="160.889 275.286 173.093 268.902 177.052 276.46 164.848 282.844"/>
        <polygon fill="#E73D2F" points="63.154 102.143 51.512 108.233 128.483 255.267 140.125 249.177"/>
        <polygon fill="#010202" fill-opacity=".1" points="1.147 20.668 2.723 19.845 141.311 284.58 139.737 285.403"/>
        <polygon fill="#010202" fill-opacity=".1" points="143.794 284.229 145.855 283.15 149.814 290.711 147.753 291.787"/>
        <polygon fill="#010202" fill-opacity=".1" points="173.094 268.901 174.173 270.962 144.872 286.29 143.795 284.229"/>
      </g>
    </g>
  </g>
</svg>
