<svg xmlns="http://www.w3.org/2000/svg" width="900" height="853" viewBox="0 0 900 853" xmlns:xlink="http://www.w3.org/1999/xlink">
  <defs>
    <filter id="c" width="200%" height="200%" x="-50%" y="-50%" filterUnits="objectBoundingBox">
      <feOffset in="SourceAlpha" result="shadowOffsetOuter1"/>
      <feGaussianBlur stdDeviation="6.5" in="shadowOffsetOuter1" result="shadowBlurOuter1"/>
      <feColorMatrix values="0 0 0 0 0 0 0 0 0 0 0 0 0 0 0 0 0 0 0.3 0" in="shadowBlurOuter1" result="shadowMatrixOuter1"/>
      <feMerge>
        <feMergeNode in="shadowMatrixOuter1"/>
        <feMergeNode in="SourceGraphic"/>
      </feMerge>
    </filter>
    <path id="a" d="M0.146552938,256.511937 C0.146552938,115.402617 114.801948,0.601602457 255.738507,0.601602457 C396.668837,0.601602457 511.324232,115.402617 511.324232,256.511937 C511.324232,397.627494 396.668837,512.428509 255.738507,512.428509 C114.801948,512.428509 0.146552938,397.627494 0.146552938,256.511937 Z"/>
    <mask id="d" width="511.178" height="511.827" x="0" y="0" fill="white">
      <use xlink:href="#a"/>
    </mask>
    <path id="f" d="M280.619924,364.987965 C204.991438,364.987965 176.385829,361.018959 175.251115,360.73266 C172.698763,360.452388 170.721292,358.752677 169.020727,356.477355 C167.606098,354.211073 167.037236,351.372194 167.606098,348.819614 C172.421857,327.555143 185.734421,309.687081 205.274363,297.771022 C210.090123,294.93817 216.040595,292.665861 222.267973,290.113281 C233.317131,285.864003 245.780917,280.758842 248.044324,273.384387 C249.744889,267.429371 245.209046,258.358217 240.679222,251.830604 C219.718631,219.505956 216.040595,189.155264 229.916001,166.185055 C240.396297,148.606306 259.373397,138.109686 280.619924,138.109686 C301.577506,138.109686 320.554607,148.606306 331.317828,166.185055 C344.910308,189.155264 341.232272,219.505956 320.268671,252.116902 C316.024783,258.358217 311.206014,267.429371 313.189505,273.384387 C315.455922,280.758842 327.916698,285.864003 338.965856,290.113281 C345.196244,292.665861 351.143707,294.93817 355.959466,297.771022 C375.219492,309.687081 389.097908,327.555143 393.627731,348.819614 C394.199603,351.372194 393.627731,354.211073 392.213102,356.477355 C390.798473,358.752677 388.24913,360.452388 385.699788,360.73266 C384.565075,361.018959 356.242391,364.987965 280.619924,364.987965 L280.619924,364.987965 Z M122.003869,237.937575 L194.514152,237.937575 L194.514152,219.786228 L122.003869,219.786228 L122.003869,237.937575 Z M122.000859,201.634881 L194.511142,201.634881 L194.511142,183.483533 L122.000859,183.483533 L122.000859,201.634881 Z"/>
    <filter id="e" width="200%" height="200%" x="-50%" y="-50%" filterUnits="objectBoundingBox">
      <feOffset dy="2" in="SourceAlpha" result="shadowOffsetOuter1"/>
      <feGaussianBlur stdDeviation="5" in="shadowOffsetOuter1" result="shadowBlurOuter1"/>
      <feColorMatrix values="0 0 0 0 0 0 0 0 0 0 0 0 0 0 0 0 0 0 0.2 0" in="shadowBlurOuter1"/>
    </filter>
    <filter id="g" width="200%" height="200%" x="-50%" y="-50%" filterUnits="objectBoundingBox">
      <feOffset in="SourceAlpha" result="shadowOffsetOuter1"/>
      <feGaussianBlur stdDeviation="6.5" in="shadowOffsetOuter1" result="shadowBlurOuter1"/>
      <feColorMatrix values="0 0 0 0 0 0 0 0 0 0 0 0 0 0 0 0 0 0 0.3 0" in="shadowBlurOuter1" result="shadowMatrixOuter1"/>
      <feMerge>
        <feMergeNode in="shadowMatrixOuter1"/>
        <feMergeNode in="SourceGraphic"/>
      </feMerge>
    </filter>
    <path id="b" d="M0.826443506,258.381644 C0.826443506,116.429003 116.167061,0.93875858 257.945908,0.93875858 C399.718489,0.93875858 515.059106,116.429003 515.059106,258.381644 C515.059106,400.340559 399.718489,515.827666 257.945908,515.827666 C116.167061,515.827666 0.826443506,400.340559 0.826443506,258.381644 Z"/>
    <mask id="h" width="514.233" height="514.889" x="0" y="0" fill="white">
      <use xlink:href="#b"/>
    </mask>
    <path id="j" d="M281.775135,367.911016 C206.146648,367.911016 177.541039,363.94201 176.406326,363.655711 C173.853973,363.37544 171.876502,361.675729 170.175937,359.400406 C168.761308,357.134125 168.192446,354.295246 168.761308,351.742665 C173.577067,330.478195 186.889631,312.610133 206.429574,300.694073 C211.245333,297.861221 217.195805,295.588912 223.423184,293.036332 C234.472341,288.787054 246.936127,283.681894 249.199534,276.307438 C250.900099,270.352422 246.364256,261.281269 241.834433,254.753655 C220.873841,222.429008 217.195805,192.078316 231.071211,169.108107 C241.551507,151.529357 260.528607,141.032737 281.775135,141.032737 C302.732716,141.032737 321.709817,151.529357 332.473039,169.108107 C346.065519,192.078316 342.384473,222.429008 321.423881,255.039954 C317.179994,261.281269 312.361225,270.352422 314.344715,276.307438 C316.608122,283.681894 329.071909,288.787054 340.121066,293.036332 C346.351454,295.588912 352.298917,297.861221 357.114676,300.694073 C376.374702,312.610133 390.253118,330.478195 394.782942,351.742665 C395.354813,354.295246 394.782942,357.134125 393.368312,359.400406 C391.953683,361.675729 389.404341,363.37544 386.854998,363.655711 C385.720285,363.94201 357.397602,367.911016 281.775135,367.911016 L281.775135,367.911016 Z M123.159079,240.860626 L195.669362,240.860626 L195.669362,222.709279 L123.159079,222.709279 L123.159079,240.860626 Z M123.156069,204.557932 L195.666352,204.557932 L195.666352,186.406585 L123.156069,186.406585 L123.156069,204.557932 Z"/>
    <filter id="i" width="200%" height="200%" x="-50%" y="-50%" filterUnits="objectBoundingBox">
      <feOffset dy="2" in="SourceAlpha" result="shadowOffsetOuter1"/>
      <feGaussianBlur stdDeviation="5" in="shadowOffsetOuter1" result="shadowBlurOuter1"/>
      <feColorMatrix values="0 0 0 0 0 0 0 0 0 0 0 0 0 0 0 0 0 0 0.2 0" in="shadowBlurOuter1"/>
    </filter>
  </defs>
  <g fill="none" fill-rule="evenodd">
    <g fill="#6B7482" opacity=".1" transform="translate(22.078 55.688)">
      <path d="M460.473386,690.524339 C456.789602,674.362955 457.356338,668.975827 442.337835,658.201571 C428.736172,648.561447 411.734093,640.906055 406.350102,634.95186 C402.099582,630.131799 397.565694,623.894071 405.21663,614.821014 C424.76902,592.13837 426.752596,572.007523 418.534925,553.861407 C410.600621,536.565891 393.031807,530.611697 379.146776,530.611697 C365.261745,530.611697 347.69293,536.565891 339.758627,553.861407 C336.924947,560.382668 335.224739,567.187461 335.224739,574.275787 C353.36029,576.827585 372.91268,586.751242 382.83056,608.583287 C391.048231,626.445869 395.582119,654.232108 370.929104,686.838409 C373.479416,688.539607 376.879832,690.524339 379.713512,691.942004 C385.097503,695.344401 391.331599,698.746797 397.282326,702.999793 C440.920995,702.432727 453.389186,699.880929 454.23929,699.880929 C456.506234,699.597396 458.206442,698.179731 459.339914,696.478533 C460.473386,694.777334 461.040122,692.50907 460.473386,690.524339 L460.473386,690.524339 Z M269.766736,691.942004 L270.050104,691.942004 C272.883784,690.240806 276.000831,688.539607 278.551143,686.838409 C253.898129,654.232108 258.432017,626.162336 266.36632,608.583287 C276.567567,586.751242 296.119958,576.827585 314.255509,574.275787 C314.255509,567.187461 312.555301,560.382668 309.721621,553.861407 C301.787317,536.565891 284.218503,530.611697 270.333472,530.611697 C256.448441,530.611697 238.879626,536.565891 230.945323,553.861407 C222.727651,572.007523 224.711227,592.13837 244.263618,614.821014 C251.914553,623.894071 247.380665,630.131799 243.130146,634.95186 C237.746154,640.906055 220.460707,648.561447 207.142412,658.201571 C191.840541,668.975827 192.690645,674.362955 189.006862,690.524339 C188.440126,692.50907 188.723494,694.777334 190.140334,696.478533 C191.273806,698.179731 192.974013,699.597396 195.240957,699.880929 C195.807693,699.880929 208.559252,702.432727 252.197921,702.999793 C258.148649,698.746797 264.382744,695.344401 269.766736,691.942004 L269.766736,691.942004 Z M324.740124,766.511197 C383.113927,766.511197 398.982534,763.392333 399.832638,763.392333 C402.099582,763.1088 403.79979,761.691135 404.933262,759.989936 C406.066734,758.288738 406.63347,756.020474 406.066734,754.035742 C402.38295,737.874358 402.949686,732.48723 387.931183,721.712974 C374.32952,712.072851 357.327441,704.417458 351.94345,698.463264 C347.69293,693.643202 343.159042,687.405475 350.809978,678.332417 C370.362368,655.649773 372.345944,635.518927 364.128273,617.372811 C356.193969,600.077295 338.625155,594.123101 324.740124,594.123101 C310.855093,594.123101 293.286278,600.077295 285.351975,617.372811 C277.134303,635.518927 279.117879,655.649773 298.67027,678.332417 C306.321205,687.405475 301.787317,693.643202 297.536798,698.463264 C292.152806,704.417458 274.867359,712.072851 261.549064,721.712974 C246.247194,732.48723 247.097297,737.874358 243.413514,754.035742 C242.846778,756.020474 243.130146,758.288738 244.546986,759.989936 C245.680458,761.691135 247.380665,763.1088 249.647609,763.392333 C250.497713,763.392333 266.082952,766.511197 324.740124,766.511197 L324.740124,766.511197 Z" transform="rotate(-14 324.714 648.561)"/>
      <path d="M198.515793,424.543058 C200.983763,424.543058 203.657396,423.514138 205.508374,421.662083 L218.670879,408.49191 C222.578498,404.582015 222.578498,398.408496 218.670879,394.498601 C214.76326,390.588706 208.593336,390.588706 204.685717,394.498601 L191.523212,407.668774 C187.615593,411.578669 187.615593,417.752188 191.523212,421.662083 C193.374189,423.514138 196.047823,424.543058 198.515793,424.543058 L198.515793,424.543058 Z M66.8907404,424.543058 C69.3587101,424.543058 72.032344,423.514138 73.8833213,421.662083 C77.79094,417.752188 77.79094,411.578669 73.8833213,407.668774 L60.7208161,394.498601 C56.8131973,390.588706 50.643273,390.588706 46.7356542,394.498601 C42.8280355,398.408496 42.8280355,404.582015 46.7356542,408.49191 L59.8981595,421.662083 C61.7491368,423.514138 64.4227707,424.543058 66.8907404,424.543058 L66.8907404,424.543058 Z M159.850934,533.196985 C160.056598,530.727577 160.262262,529.28709 160.262262,529.28709 C161.907575,518.997892 166.63785,511.383886 176.921058,498.625281 C186.998601,485.866676 191.93454,475.577478 191.93454,460.761034 C191.93454,428.658737 166.020858,401.495255 132.703267,401.495255 C99.3856752,401.495255 73.471993,428.658737 73.471993,460.761034 C73.471993,475.577478 78.4079325,485.866676 88.4854755,498.625281 C98.5630186,511.383886 103.293294,518.997892 105.144271,529.28709 C105.144271,529.28709 105.144271,530.727577 105.349935,533.196985 L159.850934,533.196985 Z M211.678298,529.904441 C214.146268,529.904441 216.819902,528.875522 218.670879,527.023466 C222.578498,523.113571 222.578498,516.940052 218.670879,513.030157 L205.508374,499.859984 C201.600755,495.950089 195.430831,495.950089 191.523212,499.859984 C187.615593,503.76988 187.615593,509.943398 191.523212,513.853293 L204.685717,527.023466 C206.536694,528.875522 209.210328,529.904441 211.678298,529.904441 L211.678298,529.904441 Z M53.7282352,529.904441 C56.1962049,529.904441 58.8698388,528.875522 60.7208161,527.023466 L73.8833213,513.853293 C77.79094,509.943398 77.79094,503.76988 73.8833213,499.859984 C69.9757026,495.950089 63.8057782,495.950089 59.8981595,499.859984 L46.7356542,513.030157 C42.8280355,516.940052 42.8280355,523.113571 46.7356542,527.023466 C48.5866315,528.875522 51.2602654,529.904441 53.7282352,529.904441 L53.7282352,529.904441 Z M132.703267,585.877676 C146.071436,585.877676 151.007375,579.086806 154.914994,566.328201 C156.354643,561.389386 157.588628,553.569596 158.411285,546.367158 L106.789584,546.367158 C107.612241,553.569596 108.846226,561.389386 110.491539,566.328201 C114.193494,579.086806 119.335097,585.877676 132.703267,585.877676 L132.703267,585.877676 Z" transform="rotate(47 132.703 488.722)"/>
      <path d="M852.192667,297.910727 C855.244599,296.956443 857.152057,293.902733 856.389073,290.658166 C852.574158,272.71762 842.655379,263.174776 829.11243,254.586216 C825.297515,252.295934 820.719616,250.387365 815.760227,248.28794 C806.413685,244.661659 795.922668,240.462808 793.633719,233.401103 C792.298498,228.820538 794.205956,222.522261 799.356091,214.506272 C815.187989,188.931451 818.049176,166.792053 807.748905,149.042364 C799.737583,135.300669 786.194634,127.093823 771.125719,127.093823 C756.24755,127.093823 742.513855,135.300669 734.502533,149.042364 C724.202262,166.792053 727.063449,188.931451 743.086092,214.506272 C748.236228,222.522261 750.143685,228.820538 748.617719,233.401103 C746.32877,240.462808 735.837754,244.661659 726.681957,248.28794 C721.531822,250.387365 716.763178,252.295934 713.139008,254.586216 C699.596059,263.174776 689.67728,272.71762 685.862365,290.658166 C685.099381,293.902733 687.006839,296.956443 690.058771,297.910727 C690.821754,298.101584 711.803788,304.209004 771.125719,304.209004 C800.691312,304.209004 820.719616,302.682149 833.499582,301.155294 C846.279548,299.628439 851.811175,297.910727 852.192667,297.910727 L852.192667,297.910727 Z" transform="rotate(15 771.126 215.651)"/>
      <path d="M669.159569,108.572823 C669.159569,118.896618 666.687001,128.77738 661.74179,138.215406 C656.79658,147.653431 650.142014,155.762681 641.777893,162.543399 C633.413772,169.324116 623.447185,174.730283 611.877835,178.762061 C600.308485,182.793839 588.14406,184.809698 575.384197,184.809698 C570.500038,184.809698 565.219121,184.443178 559.541287,183.710127 C543.179357,200.081589 526.329263,208.267198 508.990501,208.267198 C507.158941,208.267198 505.907394,207.473071 505.235823,205.884795 C504.808459,203.991081 505.113714,202.555546 506.151598,201.578145 L506.334753,201.394883 C512.195743,194.858516 516.347215,186.917254 518.789294,177.57086 C519.399814,175.188445 519.888223,172.74498 520.254535,170.240391 C508.288347,163.154236 498.855957,154.220316 491.957083,143.438365 C485.05821,132.656413 481.608825,121.034682 481.608825,108.572823 C481.608825,98.2490274 484.081393,88.3682652 489.026603,78.9302395 C493.971813,69.4922138 500.626379,61.3829639 508.990501,54.6022464 C517.354622,47.8215289 527.321208,42.4153622 538.890558,38.3835843 C550.459908,34.3518063 562.624333,32.3359475 575.384197,32.3359475 C588.14406,32.3359475 600.308485,34.3518063 611.877835,38.3835843 C623.447185,42.4153622 633.413772,47.8215289 641.777893,54.6022464 C650.142014,61.3829639 656.79658,69.4922138 661.74179,78.9302395 C666.687001,88.3682652 669.159569,98.2490274 669.159569,108.572823 L669.159569,108.572823 Z" transform="rotate(25 575.384 120.302)"/>
    </g>
    <g filter="url(#c)" transform="translate(340.155 266.227)">
      <use fill="#ED4F7E" stroke="#E24573" stroke-width="30" mask="url(#d)" xlink:href="#a"/>
      <path d="M255.738402,512.419217 C116.785693,512.419217 3.81400431,401.371426 0.322578966,263.086066 C0.268401676,265.273992 0.157037247,267.452877 0.157037247,269.655872 C0.157037247,410.988054 114.585493,525.561841 255.738402,525.561841 C396.891311,525.561841 511.319767,410.988054 511.319767,269.655872 C511.319767,267.452877 511.208402,265.273992 511.151215,263.086066 C507.65979,401.371426 394.691111,512.419217 255.738402,512.419217"/>
      <use fill="black" filter="url(#e)" xlink:href="#f"/>
      <use fill="#FEFEFE" xlink:href="#f"/>
      <path fill="#FFFFFF" fill-opacity=".1" d="M108.275243,462.159668 C44.2901059,416.218551 2.60586811,341.11849 2.60586811,256.267442 C2.60586811,116.439497 115.813953,3.08763035 255.464534,3.08763035 C336.780656,3.08763035 409.132822,41.5173985 455.387906,101.232121 C488.570974,144.070651 149.734795,491.926369 108.275243,462.159668"/>
    </g>
    <g filter="url(#g)">
      <use fill="#0EA2DC" stroke="#0295CE" stroke-width="30" mask="url(#h)" xlink:href="#b"/>
      <path d="M256.893311,515.341967 C117.940602,515.341967 4.96891356,404.294176 1.47748822,266.008816 C1.42331093,268.199756 1.3119465,270.375627 1.3119465,272.578622 C1.3119465,413.910804 115.740402,528.484591 256.893311,528.484591 C398.04622,528.484591 512.474676,413.910804 512.474676,272.578622 C512.474676,270.375627 512.363312,268.199756 512.306125,266.008816 C508.814699,404.294176 395.84602,515.341967 256.893311,515.341967"/>
      <use fill="black" filter="url(#i)" xlink:href="#j"/>
      <use fill="#FEFEFE" xlink:href="#j"/>
      <path fill="#FFFFFF" fill-opacity=".1" d="M107.97565,467.811852 C43.2266572,421.32229 1.0447927,345.325684 1.0447927,259.465082 C1.0447927,117.964472 115.604357,3.25940967 256.922087,3.25940967 C339.208961,3.25940967 412.424869,42.1513505 459.232146,102.57555 C492.811353,145.925487 149.930146,497.933909 107.97565,467.811852"/>
    </g>
  </g>
</svg>
