<svg xmlns="http://www.w3.org/2000/svg" width="900" height="636" viewBox="0 0 900 636">
  <defs>
    <filter id="a" width="200%" height="200%" x="-50%" y="-50%" filterUnits="objectBoundingBox">
      <feOffset in="SourceAlpha" result="shadowOffsetOuter1"/>
      <feGaussianBlur stdDeviation="4" in="shadowOffsetOuter1" result="shadowBlurOuter1"/>
      <feColorMatrix values="0 0 0 0 0 0 0 0 0 0 0 0 0 0 0 0 0 0 0.2 0" in="shadowBlurOuter1" result="shadowMatrixOuter1"/>
      <feMerge>
        <feMergeNode in="shadowMatrixOuter1"/>
        <feMergeNode in="SourceGraphic"/>
      </feMerge>
    </filter>
    <filter id="b" width="200%" height="200%" x="-50%" y="-50%" filterUnits="objectBoundingBox">
      <feOffset in="SourceAlpha" result="shadowOffsetOuter1"/>
      <feGaussianBlur stdDeviation="4" in="shadowOffsetOuter1" result="shadowBlurOuter1"/>
      <feColorMatrix values="0 0 0 0 0 0 0 0 0 0 0 0 0 0 0 0 0 0 0.2 0" in="shadowBlurOuter1" result="shadowMatrixOuter1"/>
      <feMerge>
        <feMergeNode in="shadowMatrixOuter1"/>
        <feMergeNode in="SourceGraphic"/>
      </feMerge>
    </filter>
  </defs>
  <g fill="none" fill-rule="evenodd">
    <g fill="#000000" opacity=".1" transform="translate(.528 34.234)">
      <path d="M257.593564,42.3097235 L262.914992,21.4486048 C262.535547,20.5834077 262.192896,19.8467279 261.942233,18.9471065 C259.732254,10.9698515 264.393677,2.75621628 272.387316,0.548471926 C280.380955,-1.65927243 288.61146,2.99489135 290.823739,10.9721464 C290.895029,11.2291811 290.835237,11.522935 290.906527,11.7799697 L318.700291,23.9133838 C320.013401,23.1353949 321.229924,22.5226426 322.777599,22.0957814 C330.771239,19.8880371 339.001743,24.5422008 341.211723,32.517161 C343.424001,40.496711 338.760278,48.7080512 330.766639,50.9157956 C322.773,53.1235399 314.544795,48.4693761 312.332516,40.4921211 C312.261226,40.2350864 312.189937,39.9780517 312.247428,39.6865927 L284.453664,27.5508836 C283.142854,28.3288726 281.79755,28.9783441 280.378656,29.3684861 C279.73245,29.5474924 279.051748,29.5979813 278.410142,29.7746927 L274.059173,46.6265292 L257.593564,42.3097235 Z M232.27884,120.218773 C230.103356,112.370035 234.544011,104.356061 242.337579,101.925706 L248.606469,77.4798713 L265.072078,81.798972 L258.667508,107.252291 C259.773648,108.7486 260.661319,110.442275 261.160346,112.243813 C263.372625,120.221068 258.708902,128.434703 250.715263,130.640152 C242.721624,132.847897 234.491119,128.193733 232.27884,120.218773 L232.27884,120.218773 Z M325.716572,87.7704386 L239.92523,65.1949903 C238.184383,66.9207947 236.043393,68.2059681 233.591949,68.8829791 C225.59831,71.0884285 217.367805,66.4365597 215.155526,58.4593046 C212.945547,50.4820495 217.60697,42.2684143 225.602909,40.06067 C232.821561,38.0663562 240.251782,41.8346683 243.209153,48.4969156 L329.000496,71.0723638 C330.741343,69.3465595 332.882332,68.0613861 335.333776,67.3843751 C343.327415,65.1789257 351.55792,69.8307945 353.767899,77.8080496 C355.980178,85.7853046 351.316455,93.9989398 343.322816,96.2066842 C336.104164,98.198703 328.673943,94.4326858 325.716572,87.7704386 L325.716572,87.7704386 Z"/>
      <path d="M625.683022,471.321379 C627.333141,471.408233 628.700983,472.059633 629.786588,473.275596 C630.872193,474.49156 631.414987,475.924638 631.414987,477.574874 L631.414987,581.278669 C631.414987,583.015759 630.807058,584.492264 629.59118,585.708228 C628.375303,586.924191 626.898902,587.532164 625.161934,587.532164 L604.318423,587.532164 C602.581455,587.532164 601.105055,586.924191 599.889177,585.708228 C598.6733,584.492264 598.06537,583.015759 598.06537,581.278669 L598.06537,477.574874 C598.06537,475.924638 598.608164,474.513273 599.693769,473.340737 C600.779374,472.1682 602.103792,471.495088 603.667064,471.321379 C606.880454,470.973961 610.571456,470.800254 614.740179,470.800254 C618.822053,470.800254 622.469631,470.973961 625.683022,471.321379 L625.683022,471.321379 Z M579.827298,500.504356 C581.477418,500.591211 582.845259,501.24261 583.930864,502.458573 C585.016469,503.674537 585.559264,505.107615 585.559264,506.757851 L585.559264,581.278669 C585.559264,583.015759 584.951334,584.492264 583.735456,585.708228 C582.519579,586.924191 581.043178,587.532164 579.30621,587.532164 L558.462699,587.532164 C556.725732,587.532164 555.249331,586.924191 554.033453,585.708228 C552.817576,584.492264 552.209646,583.015759 552.209646,581.278669 L552.209646,506.757851 C552.209646,505.107615 552.752441,503.69625 553.838045,502.523714 C554.92365,501.351178 556.248069,500.678065 557.81134,500.504356 C561.02473,500.156938 564.715732,499.983232 568.884455,499.983232 C572.966329,499.983232 576.613907,500.156938 579.827298,500.504356 L579.827298,500.504356 Z M671.538746,529.687334 C673.188865,529.774188 674.556707,530.425587 675.642312,531.641551 C676.727917,532.857514 677.270711,534.290593 677.270711,535.940829 L677.270711,581.278669 C677.270711,583.015759 676.662782,584.492264 675.446904,585.708228 C674.231026,586.924191 672.754626,587.532164 671.017658,587.532164 L650.174147,587.532164 C648.437179,587.532164 646.960779,586.924191 645.744901,585.708228 C644.529023,584.492264 643.921094,583.015759 643.921094,581.278669 L643.921094,535.940829 C643.921094,534.290593 644.463888,532.879228 645.549493,531.706691 C646.635098,530.534155 647.959516,529.861043 649.522787,529.687334 C652.736178,529.339915 656.427179,529.166209 660.595902,529.166209 C664.677777,529.166209 668.325355,529.339915 671.538746,529.687334 L671.538746,529.687334 Z" transform="rotate(13 614.74 529.166)"/>
      <path d="M161.865202 163.173853C160.06271 158.436069 162.391056 153.274186 167.145014 151.477827L183.157709 145.41928C187.911667 143.619891 193.088132 145.940315 194.896704 150.678099 196.699196 155.415883 194.37085 160.577765 189.616892 162.374124L173.601158 168.432672C171.345763 169.286927 168.719535 169.141522 166.646517 168.211535 164.5735 167.284577 162.719334 165.418545 161.865202 163.173853L161.865202 163.173853zM133.168193 256.196788L127.092001 240.238574C125.28647 235.497761 127.614815 230.338908 132.368774 228.53952 137.122732 226.740131 142.299197 229.060555 144.104729 233.798339L150.18396 249.759581C151.989492 254.497365 149.658107 259.659248 144.907188 261.455607 142.654832 262.309862 140.022525 262.164457 137.949508 261.23447 135.87953 260.307512 134.022324 258.44148 133.168193 256.196788L133.168193 256.196788zM51.3994965 113.663404L45.3172259 97.7051906C43.5147339 92.9674067 45.8430794 87.8055244 50.597038 86.0061358 55.3509966 84.2097765 60.5305014 86.5302002 62.336033 91.2679841L68.415264 107.229227C70.2177559 111.967011 67.8894105 117.125864 63.1354519 118.925253 60.8800572 119.776478 58.2538294 119.631073 56.1808116 118.704116 54.1077939 117.774129 52.2505888 115.908096 51.3994965 113.663404L51.3994965 113.663404zM47.4723133 223.99258C48.2322172 221.850883 48.7763083 220.648262 48.7763083 220.648262 51.1046538 211.351421 50.004313 203.205704 46.359814 188.75001 42.7153151 174.297346 42.4539081 163.837264 48.043761 151.453593 60.1505495 124.620287 92.145542 111.661054 120.106965 124.19013 148.068388 136.722235 159.570293 169.177873 147.460465 196.011179 141.873651 208.397879 133.849066 215.141042 120.578105 222.014464 107.136926 228.812154 100.291711 233.398474 95.0331767 241.380611 95.0331767 241.380611 94.3158275 242.5075 93.212447 244.491675L47.4723133 223.99258zM39.292708 253.621905C39.7729673 248.875034 41.6848854 241.874382 43.7123089 235.5432L87.0359484 254.960844C83.6315791 260.671025 79.6436035 266.744719 76.5735919 270.331379 68.4790959 279.525224 61.7767437 283.345138 50.557523 278.316544 39.3383023 273.290979 37.5874838 265.678414 39.292708 253.621905L39.292708 253.621905zM.610561437 196.786673C-1.19497016 192.048889 1.1333753 186.887007 5.88733391 185.087618L21.9030679 179.0321C26.6570265 177.232712 31.8334917 179.553135 33.6390232 184.290919 35.4415152 189.028703 33.1131698 194.187556 28.3592112 195.989974L12.3465168 202.045492C10.0941617 202.896718 7.46185473 202.751313 5.38883697 201.824355 3.32189845 200.897397 1.46469339 199.031365.610561437 196.786673L.610561437 196.786673zM758.654556 515.915872C766.78337 520.334268 775.298179 521.23244 784.206626 518.610388 793.113162 515.990243 799.780166 510.627907 804.209548 502.515754 808.635108 494.401694 809.537036 485.902431 806.911509 477.012243 806.374557 475.194922 805.707665 473.526344 804.910835 472.016042L778.35174 479.830711 770.52102 453.322239C768.814618 453.474794 767.052802 453.819952 765.226016 454.355804 756.317569 456.975949 749.654387 462.344006 745.226916 470.454252 740.797534 478.564498 739.899428 487.067575 742.524955 495.953949 745.150482 504.844137 750.525741 511.497475 758.654556 515.915872M844.702662 453.326053C848.321838 456.102568 850.773476 459.659024 852.053755 463.995422 853.335944 468.33182 853.225114 472.702543 851.725086 477.099963 850.930167 479.546576 849.934607 482.195325 848.738406 485.050025 847.540295 487.906632 845.145982 492.538607 841.559291 498.947856 837.968778 505.357105 834.083992 511.158039 829.901111 516.344935 825.71823 521.533738 820.190102 526.709193 813.316725 531.873206 806.447169 537.037218 799.145759 540.755765 791.420137 543.028846 783.694515 545.301927 775.533215 546.102845 766.936239 545.4316 758.339263 544.760354 750.953775 543.440747 744.772131 541.474684 738.594308 539.510529 732.112658 536.7302 725.338646 533.137512 718.562723 529.542916 714.068372 526.964724 711.857502 525.404841 709.648544 523.843051 707.279073 522.153496 704.760554 520.332361 701.215902 517.420453 698.804392 513.791533 697.524113 509.455135 696.241924 505.11683 696.312626 500.820478 697.73813 496.558451 698.684007 493.835331 699.717785 491.117931 700.839462 488.400531 701.961139 485.685039 704.345897 481.02446 707.995647 474.422609 711.643485 467.822665 715.532093 461.932105 719.66147 456.760464 723.790846 451.590731 729.28458 446.396207 736.140759 441.176892 742.996938 435.957578 750.288794 432.212334 758.014416 429.939253 765.74195 427.666172 773.876497 426.874789 782.419968 427.56129 790.961529 428.253511 798.433007 429.658931 804.838222 431.792805 811.241527 433.922865 817.665851 436.720357 824.111194 440.177652 830.556538 443.636854 835.133056 446.30658 837.848394 448.183016 840.559909 450.065173 842.845302 451.777611 844.702662 453.326053"/>
    </g>
    <g filter="url(#a)" transform="matrix(-1 0 0 1 899.117 0)">
      <path fill="#87CAEE" d="M431.430087,124.045877 C424.624597,54.4053808 366.451327,0.000327081214 295.682089,0.000327081214 C225.973702,0.000327081214 168.483109,52.7863288 160.271337,120.923887 C146.740575,115.322622 131.908307,112.228433 116.350796,112.228433 C52.9272963,112.228433 1.51204008,163.589996 1.51204008,226.948898 C1.51204008,286.456419 46.8699681,335.379591 104.935188,341.103513 L284.17644,341.667728 L466.760682,341.667728 C522.03462,341.667728 566.84084,291.336471 566.84084,229.249915 C566.84084,167.163359 522.03462,116.832101 466.760682,116.832101 C454.321876,116.832101 442.416771,119.386606 431.430087,124.045877 Z"/>
      <path fill="#1396DC" fill-opacity=".1" d="M431.430087,124.045877 C424.624597,54.4053808 366.451327,0.000327081214 295.682089,0.000327081214 C225.973702,0.000327081214 168.483109,52.7863288 160.271337,120.923887 C146.740575,115.322622 131.908307,112.228433 116.350796,112.228433 C52.9272963,112.228433 1.51204008,163.589996 1.51204008,226.948898 C1.51204008,284.933856 44.5812804,332.861066 100.503516,340.573641 C52.6358897,329.276256 17.0122517,286.325586 17.0122517,235.057242 C17.0122517,175.173577 65.6067575,126.628184 125.553024,126.628184 C140.257597,126.628184 154.277856,129.55229 167.065367,134.846099 C174.826933,70.4438081 229.16444,20.5524752 295.0518,20.5524752 C361.941074,20.5524752 416.923605,71.9745482 423.355833,137.796372 C433.740058,133.392223 444.991954,130.978364 456.748082,130.978364 C508.990082,130.978364 551.342265,178.549056 551.342265,237.232332 C551.342265,288.243918 519.335016,330.852787 476.652135,341.121502 C527.281575,335.541497 566.84084,287.586484 566.84084,229.249915 C566.84084,167.163359 522.03462,116.832101 466.760682,116.832101 C454.321876,116.832101 442.416771,119.386606 431.430087,124.045877 Z"/>
      <path fill="#FFFFFF" fill-opacity=".2" d="M180.316182 280.884263C183.683729 284.249929 187.779792 285.932762 192.604372 285.932762 197.425678 285.932762 201.521742 284.249929 204.890926 280.884263 208.258473 277.520233 209.944702 273.428447 209.944702 268.608905 209.944702 263.792634 208.258473 259.700849 204.890926 256.335183 201.521742 252.971153 197.425678 251.286684 192.604372 251.286684 187.779792 251.286684 183.683729 252.971153 180.316182 256.335183 176.946997 259.700849 175.262405 263.792634 175.262405 268.608905 175.262405 273.428447 176.946997 277.520233 180.316182 280.884263M243.456461 263.720677C243.811715 266.909718 243.811715 270.169083 243.456461 273.49877 243.314032 274.704064 242.817986 275.729463 241.968322 276.579875 241.117022 277.430286 240.121656 277.927449 238.988772 278.068094L230.264582 279.131108C228.987632 279.415669 227.925144 280.069831 227.073844 281.096866 226.222543 282.125537 225.796893 283.311206 225.796893 284.657145 225.796893 285.862439 226.116131 286.889474 226.754606 287.73825 226.754606 287.810208 228.525965 290.148839 232.073595 294.752507 232.780829 295.674876 233.13772 296.7199 233.13772 297.88758 233.13772 299.056896 232.74645 300.103555 231.967183 301.022654 229.909328 303.575523 227.605906 305.878174 225.052006 307.932244 224.200706 308.712333 223.13658 309.099924 221.85963 309.099924 220.584317 309.099924 219.554571 308.746677 218.775304 308.038546L211.860127 302.723476C211.008827 302.085668 209.944702 301.768399 208.667752 301.768399 207.320405 301.768399 206.131859 302.211594 205.103751 303.096349 204.075642 303.982739 203.419159 305.099721 203.135938 306.444025L202.071812 314.946501C201.929383 316.079837 201.433337 317.070893 200.582037 317.921305 199.730737 318.771716 198.702628 319.268879 197.497711 319.409524 195.369461 319.55344 193.737256 319.622127 192.604372 319.622127 191.468214 319.622127 189.837647 319.55344 187.709396 319.409524 186.502842 319.268879 185.47637 318.771716 184.62507 317.921305 183.77377 317.070893 183.276087 316.079837 183.135295 314.946501 182.426424 309.350141 182.07117 306.514347 182.07117 306.444025 181.858345 305.099721 181.21987 303.982739 180.155744 303.096349 179.091619 302.211594 177.886702 301.768399 176.539356 301.768399 175.332801 301.768399 174.19828 302.123282 173.134155 302.829777L166.43344 308.038546C165.650899 308.746677 164.624427 309.099924 163.347477 309.099924 162.211319 309.099924 161.148831 308.712333 160.156739 307.932244 157.601201 305.878174 155.296142 303.575523 153.239925 301.022654 152.459021 300.103555 152.071024 299.056896 152.071024 297.88758 152.071024 296.7199 152.424641 295.674876 153.133512 294.752507L158.241313 288.05879C159.02058 287.066098 159.410214 285.932762 159.410214 284.657145 159.410214 283.240883 158.948547 282.001246 158.028488 280.938232 157.105155 279.875218 155.934617 279.273388 154.516875 279.131108L146.218335 278.068094C145.083814 277.927449 144.091722 277.430286 143.240422 276.579875 142.389122 275.729463 141.891439 274.704064 141.750647 273.49877 141.39703 270.309728 141.39703 267.051999 141.750647 263.720677 141.821043 262.58734 142.282709 261.578295 143.134009 260.691905 143.98531 259.80715 145.011781 259.293632 146.218335 259.151352L154.516875 258.088338C155.934617 257.875735 157.105155 257.237927 158.028488 256.174913 158.948547 255.111899 159.410214 253.873897 159.410214 252.456 159.410214 251.250705 159.02058 250.153348 158.241313 249.160656L153.133512 242.465304C152.352608 241.546206 151.979346 240.499546 152.016999 239.330231 152.051379 238.160915 152.459021 237.117526 153.239925 236.195157 155.296142 233.643924 157.601201 231.342907 160.156739 229.287202 161.076798 228.508749 162.124552 228.117886 163.29509 228.117886 164.46399 228.117886 165.510107 228.474405 166.43344 229.1809L173.134155 234.388033C174.19828 235.0978 175.332801 235.451047 176.539356 235.451047 177.886702 235.451047 179.091619 235.009488 180.155744 234.123098 181.21987 233.238343 181.858345 232.121361 182.07117 230.775421L183.135295 222.272945C183.276087 221.141244 183.77377 220.146917 184.62507 219.296506 185.47637 218.44773 186.502842 217.952202 187.709396 217.809922 190.901772 217.455039 194.162906 217.455039 197.497711 217.809922 198.702628 217.952202 199.730737 218.44773 200.582037 219.296506 201.433337 220.146917 201.929383 221.141244 202.071812 222.272945L203.135938 230.775421C203.419159 232.121361 204.075642 233.238343 205.103751 234.123098 206.131859 235.009488 207.320405 235.451047 208.667752 235.451047 209.659844 235.451047 210.723969 235.132143 211.860127 234.494335 214.908437 232.157339 217.215133 230.386195 218.775304 229.1809 219.695363 228.474405 220.743117 228.117886 221.913655 228.117886 223.084193 228.117886 224.128672 228.508749 225.052006 229.287202 227.605906 231.342907 229.909328 233.643924 231.967183 236.195157 232.74645 237.117526 233.13772 238.160915 233.13772 239.330231 233.13772 240.499546 232.780829 241.546206 232.073595 242.465304 228.525965 247.072243 226.754606 249.409238 226.754606 249.479561 226.116131 250.329972 225.796893 251.322663 225.796893 252.456 225.796893 253.801939 226.222543 254.989244 227.073844 256.014643 227.925144 257.043314 228.987632 257.73509 230.264582 258.088338 234.164192 258.583866 237.073346 258.938749 238.988772 259.151352 240.121656 259.293632 241.117022 259.78916 241.968322 260.639572 242.817986 261.489983 243.314032 262.517018 243.456461 263.720677M400.49875 201.134995C405.141611 201.17588 408.95609 202.626485 411.940552 205.483539 414.926651 208.340594 416.418064 212.191975 416.418064 217.037683L407.960724 217.037683C405.888135 217.037683 404.124962 216.313198 402.676114 214.864229 401.223993 213.415259 400.49875 211.655562 400.49875 209.583502L400.49875 201.134995zM424.441568 193.307941C431.032596 200.016377 434.32811 207.926836 434.32811 217.037683L424.750983 217.037683C424.750983 214.015453 424.138701 210.971962 422.917413 207.905576 421.69285 204.84246 420.02463 202.212727 417.911113 200.016377 413.017774 195.005493 407.215836 192.562196 400.49875 192.686487L400.49875 183.243652C409.867964 183.243652 417.848903 186.59787 424.441568 193.307941L424.441568 193.307941zM437.312572 180.69569C441.955432 185.418742 445.593103 190.936602 448.227222 197.252541 450.859704 203.568479 452.197228 210.164072 452.238156 217.037683L442.474397 217.037683C442.474397 205.52606 438.411076 195.648207 430.286071 187.405761 427.715799 184.797288 424.937614 182.581313 421.953152 180.75947 418.96869 178.937628 416.097189 177.632574 413.340286 176.844308 410.583383 176.059313 408.209565 175.519629 406.22047 175.230163 404.229737 174.940696 402.322497 174.795144 400.49875 174.795144L400.49875 165.35231C402.365062 165.35231 404.218277 165.445528 406.063307 165.631964 407.908336 165.818401 410.200298 166.222346 412.935918 166.8438 415.673176 167.465254 418.304021 168.302582 420.833365 169.359055 423.362708 170.415527 426.098329 171.91683 429.0435 173.862963 431.985397 175.810732 434.7423 178.087217 437.312572 180.69569L437.312572 180.69569zM338.118093 281.535809C343.933128 287.346407 350.954717 290.250888 359.182861 290.250888 367.409368 290.250888 374.430957 287.346407 380.247629 281.535809 386.062664 275.726847 388.970182 268.71259 388.970182 260.493039 388.970182 252.275124 386.062664 245.260867 380.247629 239.450269 374.430957 233.641307 367.409368 230.736826 359.182861 230.736826 350.954717 230.736826 343.933128 233.641307 338.118093 239.450269 332.301421 245.260867 329.393903 252.275124 329.393903 260.493039 329.393903 268.71259 332.301421 275.726847 338.118093 281.535809M329.076303 230.416286C337.373205 222.126413 347.408725 217.982294 359.182861 217.982294 370.95536 217.982294 380.992517 222.126413 389.291056 230.416286 397.589596 238.70616 401.738047 248.732834 401.738047 260.493039 401.738047 272.25488 397.589596 282.279919 389.291056 290.568157 380.992517 298.85803 370.95536 303.003785 359.182861 303.003785 352.940539 303.003785 347.055108 301.728168 341.523294 299.17857L315.882787 317.98901C313.612108 319.689833 311.095861 320.326006 308.329135 319.9008 305.564047 319.47723 303.329384 318.131291 301.626784 315.862983 300.279437 314.021515 299.606583 311.983799 299.606583 309.75147 299.606583 307.520776 300.279437 305.484696 301.626784 303.641593L320.456889 278.134164C317.904625 272.608127 316.627675 266.728843 316.627675 260.493039 316.627675 248.732834 320.777763 238.70616 329.076303 230.416286M334.726317 89.6694784C335.556334 87.1149741 336.260294 83.8229017 336.836559 79.7981673 337.412824 75.7717976 337.779538 72.6269117 337.939975 70.3569681 338.098775 68.0902953 338.178994 66.667492 338.178994 66.091829 338.178994 65.2626782 338.48186 64.5447349 339.092504 63.9363638 339.698237 63.3296282 340.418568 63.0254427 341.250223 63.0254427L352.379336 63.0254427C353.209353 63.0254427 353.928047 63.3296282 354.538691 63.9363638 355.144424 64.5447349 355.448927 65.2626782 355.448927 66.091829 355.448927 66.6053466 355.529146 68.0101604 355.689584 70.3095413 355.848384 72.6105576 356.216735 75.7717976 356.792999 79.7981673 357.367627 83.8229017 358.071587 87.1149741 358.903242 89.6694784 359.286327 90.5640455 359.156995 91.4586126 358.520157 92.3531797 357.943892 93.2477468 357.112237 93.6942127 356.025192 93.6942127L337.604366 93.6942127C336.515684 93.6942127 335.685667 93.2477468 335.109402 92.3531797 334.534774 91.5861743 334.405442 90.6916072 334.726317 89.6694784L334.726317 89.6694784zM332.231352 131.264396C330.951128 132.798407 329.353303 133.563777 327.434603 133.563777 326.092168 133.563777 324.811944 133.117311 323.597204 132.222744 322.253132 131.200616 321.486962 129.843228 321.293782 128.148948 321.10224 126.457938 321.549172 124.938646 322.637854 123.597613L335.877209 108.26241C337.091949 106.793815 338.594821 106.02681 340.387463 105.961394 342.240678 105.835467 343.776292 106.440568 344.992669 107.783236L352.474288 115.162188 361.684701 103.949844C362.771746 102.672592 364.146923 101.936659 365.810233 101.745317 367.473542 101.553974 368.976415 101.969367 370.320487 102.991496 371.599074 104.079041 372.334139 105.467501 372.525682 107.160146 372.718861 108.852792 372.301397 110.339376 371.279836 111.616628L357.750712 128.19801C356.59982 129.602824 355.128053 130.369829 353.338685 130.497391 351.547681 130.624953 349.980961 130.018217 348.638526 128.677184L341.153633 121.296596 332.231352 131.264396zM387.109108 74.2394221C387.876916 74.3032029 388.515391 74.6400966 389.027808 75.2451968 389.538588 75.8535679 389.795615 76.538803 389.795615 77.3058085L389.795615 148.611149C389.795615 149.378154 389.556596 150.04867 389.076921 150.622698 388.597247 151.198361 387.971868 151.518901 387.205698 151.581046 386.437891 151.774024 384.231059 152.109282 380.585202 152.588456 376.939346 153.06763 371.774245 153.594231 365.091539 154.169894 358.407196 154.743921 352.315488 155.031753 346.814779 155.031753 341.312433 155.031753 335.220726 154.743921 328.538019 154.169894 321.853676 153.594231 316.688576 153.06763 313.042719 152.588456 309.398499 152.109282 307.191667 151.774024 306.42386 151.581046 305.7199 151.45512 305.112531 151.119861 304.60175 150.575271 304.087696 150.033952 303.833943 149.378154 303.833943 148.611149L303.833943 77.3058085C303.833943 76.538803 304.087696 75.8535679 304.60175 75.2451968 305.112531 74.6400966 305.752643 74.3032029 306.52045 74.2394221 313.618984 73.4102712 321.870047 72.7708274 331.272003 72.3227262 330.951128 76.7955618 330.409243 80.6927344 329.641435 84.0142442 323.756004 84.2710029 319.245751 84.5899071 316.113948 84.9725921L316.113948 141.135707C330.248805 142.605937 340.482416 143.340235 346.814779 143.340235 357.880044 143.340235 368.113655 142.605937 377.51561 141.135707L377.51561 84.9725921C374.316686 84.5899071 369.808069 84.2710029 363.988123 84.0142442 363.156468 80.3721949 362.644051 76.4766576 362.452509 72.3227262 371.790617 72.7708274 380.010575 73.4102712 387.109108 74.2394221L387.109108 74.2394221zM288.046909 262.010042C291.383351 260.405709 294.154988 258.15539 296.366731 255.263992 298.576837 252.372594 299.984757 249.041272 300.587215 245.266755L291.845017 245.266755C291.362068 251.971919 290.096578 257.55356 288.046909 262.010042L288.046909 262.010042zM300.528279 237.555815C299.924183 233.782933 298.527724 230.500673 296.337263 227.709035 294.145165 224.919032 291.383351 222.740671 288.046909 221.173952 290.135869 225.751454 291.383351 231.212075 291.784444 237.555815L300.528279 237.555815zM285.332571 237.555815C285.172134 235.025842 284.861082 232.647961 284.397778 230.418903 283.936111 228.19148 283.433517 226.364731 282.891631 224.938657 282.349746 223.512583 281.765296 222.279487 281.143192 221.234462 280.519451 220.191073 279.975928 219.437151 279.515899 218.975967 279.052595 218.514782 278.68097 218.282554 278.399386 218.282554 278.117802 218.282554 277.746177 218.514782 277.28451 218.975967 276.821206 219.437151 276.279321 220.191073 275.657217 221.234462 275.031839 222.279487 274.450663 223.512583 273.90714 224.938657 273.365255 226.364731 272.862661 228.19148 272.400994 230.418903 271.93769 232.647961 271.626638 235.025842 271.466201 237.555815L285.332571 237.555815zM276.22857 261.980605C277.194469 263.445928 277.918074 264.17859 278.399386 264.17859 278.882335 264.17859 279.60594 263.445928 280.570201 261.980605 281.534463 260.515281 282.520006 258.245337 283.525195 255.174045 284.528747 252.102752 285.152488 248.799232 285.393144 245.266755L271.405628 245.266755C271.646284 248.799232 272.270025 252.102752 273.275214 255.174045 274.278766 258.245337 275.264309 260.515281 276.22857 261.980605L276.22857 261.980605zM256.27213 237.555815L265.014328 237.555815C265.415421 231.212075 266.661266 225.751454 268.751863 221.173952 265.415421 222.740671 262.65197 224.919032 260.461509 227.709035 258.271048 230.500673 256.874588 233.782933 256.27213 237.555815L256.27213 237.555815zM268.751863 262.010042C266.702194 257.55356 265.436704 251.971919 264.953755 245.266755L256.211557 245.266755C256.814015 249.041272 258.221935 252.372594 260.432041 255.263992 262.642147 258.15539 265.415421 260.405709 268.751863 262.010042L268.751863 262.010042zM292.89932 266.437086C288.457825 269.027569 283.625059 270.322811 278.399386 270.322811 273.173713 270.322811 268.33931 269.027569 263.899452 266.437086 259.457957 263.848238 255.939795 260.333751 253.348241 255.896894 250.75505 251.460037 249.458454 246.632319 249.458454 241.412102 249.458454 236.191886 250.75505 231.362532 253.348241 226.925675 255.939795 222.488819 259.457957 218.975967 263.899452 216.385483 268.33931 213.796636 273.173713 212.501394 278.399386 212.501394 283.625059 212.501394 288.457825 213.796636 292.89932 216.385483 297.340815 218.975967 300.858976 222.488819 303.452168 226.925675 306.043722 231.362532 307.340318 236.191886 307.340318 241.412102 307.340318 246.632319 306.043722 251.460037 303.452168 255.896894 300.858976 260.333751 297.340815 263.848238 292.89932 266.437086L292.89932 266.437086zM78.9405739 221.093C80.0832807 222.234513 81.4830146 222.80527 83.1414129 222.80527 84.798174 222.80527 86.199545 222.234513 87.3422518 221.093 88.4849586 219.951486 89.0563119 218.553214 89.0563119 216.896548 89.0563119 215.241517 88.4849586 213.841609 87.3422518 212.700096 86.199545 211.558582 84.798174 210.987826 83.1414129 210.987826 81.4830146 210.987826 80.0832807 211.558582 78.9405739 212.700096 77.7978672 213.841609 77.2265138 215.241517 77.2265138 216.896548 77.2265138 218.553214 77.7978672 219.951486 78.9405739 221.093M95.5753067 209.982051L100.079012 205.5501C95.4623457 200.849943 89.8175707 198.499865 83.1414129 198.499865 76.465255 198.499865 70.8188428 200.849943 66.2054508 205.5501L70.707519 209.982051C74.1127197 206.490459 78.2578967 204.743845 83.1414129 204.743845 88.024929 204.743845 92.170106 206.490459 95.5753067 209.982051M104.715324 200.782892L109.151907 196.419628C105.790909 192.972192 101.870017 190.286856 97.3908681 188.361983 92.9084452 186.438745 88.1591725 185.475491 83.1414129 185.475491 78.1220161 185.475491 73.3727434 186.438745 68.8935948 188.361983 64.4111719 190.286856 60.4919169 192.972192 57.1309183 196.419628L61.5675019 200.782892C67.524966 194.740066 74.7168154 191.719471 83.1414129 191.719471 87.2636702 191.719471 91.1845624 192.514279 94.9024522 194.102258 98.6219791 195.691873 101.892936 197.919296 104.715324 200.782892M114.32683 190.712061L114.32683 223.341683C114.32683 224.237886 114.012504 224.998349 113.387126 225.62471 112.758473 226.252706 111.997214 226.565068 111.101712 226.565068L55.1827506 226.565068C54.2856112 226.565068 53.5243524 226.252706 52.8973371 225.62471 52.2686847 224.998349 51.9559955 224.237886 51.9559955 223.341683L51.9559955 190.712061C51.9559955 189.771703 52.3145239 188.989979 53.0315806 188.361983L80.9902428 162.110444C81.6172581 161.529875 82.3457746 161.237138 83.1741552 161.237138 84.0041728 161.237138 84.7097697 161.529875 85.2925829 162.110444L113.251245 188.361983C113.968302 188.989979 114.32683 189.771703 114.32683 190.712061M281.281037 63.3082044C281.996457 63.3981517 282.602189 63.7448578 283.094961 64.3483226 283.587733 64.9534229 283.834938 65.6811786 283.834938 66.5315897L283.834938 98.4890598C283.834938 99.3852623 283.554991 100.145726 282.995097 100.772087 282.435204 101.400083 281.773809 101.712445 281.01255 101.712445L271.602409 101.712445C270.84115 101.712445 270.179755 101.400083 269.619862 100.772087 269.059968 100.145726 268.780021 99.3852623 268.780021 98.4890598L268.780021 66.5315897C268.780021 65.6811786 269.025589 64.9436104 269.518361 64.3156145 270.01277 63.689254 270.616865 63.3539957 271.333922 63.3082044 272.768035 63.1299451 274.426434 63.0399978 276.307479 63.0399978 278.144323 63.0399978 279.802722 63.1299451 281.281037 63.3082044L281.281037 63.3082044zM259.774248 74.0511868C260.489667 74.1411342 261.0954 74.4862049 261.588172 75.0913051 262.080944 75.6964054 262.328148 76.4241611 262.328148 77.2745722L262.328148 98.4890598C262.328148 99.3852623 262.046564 100.145726 261.488308 100.772087 260.926777 101.400083 260.26702 101.712445 259.505761 101.712445L250.09562 101.712445C249.332724 101.712445 248.672966 101.400083 248.113073 100.772087 247.551542 100.145726 247.273232 99.3852623 247.273232 98.4890598L247.273232 77.2745722C247.273232 76.4241611 247.5188 75.6849575 248.011571 75.058597 248.504343 74.4322365 249.110076 74.0953428 249.827133 74.0511868 251.261246 73.8712922 252.918007 73.7813448 254.80069 73.7813448 256.637534 73.7813448 258.294295 73.8712922 259.774248 74.0511868L259.774248 74.0511868zM238.267459 80.4963222C238.982878 80.5862695 239.588611 80.9329756 240.081383 81.5364404 240.574155 82.1415407 240.821359 82.8692964 240.821359 83.7180721L240.821359 98.4890598C240.821359 99.3852623 240.539775 100.145726 239.979882 100.772087 239.419988 101.400083 238.758593 101.712445 237.998972 101.712445L228.588831 101.712445C227.825935 101.712445 227.166177 101.400083 226.606283 100.772087 226.044753 100.145726 225.766443 99.3852623 225.766443 98.4890598L225.766443 83.7180721C225.766443 82.8692964 226.01201 82.1300928 226.504782 81.5020969 226.997554 80.8773718 227.60165 80.5421135 228.318706 80.4963222 229.75282 80.3180629 231.411218 80.2281156 233.293901 80.2281156 235.130745 80.2281156 236.787506 80.3180629 238.267459 80.4963222L238.267459 80.4963222zM258.497298 65.187286C257.600158 65.8594378 256.603155 66.1390923 255.506287 66.0278847 254.407783 65.9166771 253.477901 65.457128 252.716642 64.6508728L244.987819 56.1909172 238.535946 62.7717912C238.62435 63.3082044 238.670189 63.7563056 238.670189 64.1144596 238.670189 66.1734358 237.93185 67.9413098 236.451897 69.4180815 234.973582 70.8948531 233.202223 71.6340567 231.142731 71.6340567 229.081602 71.6340567 227.31188 70.8948531 225.833565 69.4180815 224.355249 67.9413098 223.615273 66.1734358 223.615273 64.1144596 223.615273 62.0554833 224.355249 60.2876094 225.833565 58.8108377 227.31188 57.3324306 229.081602 56.5948625 231.142731 56.5948625 231.367016 56.5948625 231.792666 56.6390184 232.419681 56.7289658L242.029551 47.1274967C242.972529 46.2770856 244.023558 45.85188 245.189184 45.85188 246.443215 45.9418273 247.474597 46.4111889 248.281696 47.2616L256.413249 55.9897622 270.931191 45.0456248 270.931191 44.7774182C270.931191 42.7200774 271.669531 40.950568 273.149483 39.4737963 274.627799 37.9970246 276.397521 37.2578211 278.45865 37.2578211 280.518141 37.2578211 282.2895 37.9970246 283.767816 39.4737963 285.246131 40.950568 285.986108 42.7200774 285.986108 44.7774182 285.986108 46.8363944 285.246131 48.6042684 283.767816 50.0826755 282.2895 51.5594472 280.518141 52.2970153 278.45865 52.2970153 277.605712 52.2970153 276.846091 52.162912 276.173236 51.8947054L258.497298 65.187286zM115.974915 292.029556L124.577958 292.029556 124.577958 246.911973 115.974915 246.911973 115.974915 292.029556zM111.674212 273.969766C110.150057 270.926276 107.998887 268.329251 105.222339 266.181963L105.222339 246.911973 111.674212 246.911973 111.674212 273.969766zM100.921636 263.697781C98.141813 262.489216 95.2752234 261.884116 92.3185924 261.884116 91.8700227 261.884116 91.1513289 261.929907 90.1674224 262.018219L90.1674224 246.911973 100.921636 246.911973 100.921636 263.697781zM85.8650823 246.911973L85.8650823 262.891526C84.4309689 263.339627 82.9968555 263.988883 81.5643793 264.837659L81.5643793 246.911973 85.8650823 246.911973zM84.6225114 291.123541C86.794964 293.29536 89.3603243 294.379634 92.3185924 294.379634 95.2752234 294.379634 97.8389466 293.29536 100.013036 291.123541 102.187126 288.953357 103.272534 286.369415 103.272534 283.370081 103.272534 280.414902 102.187126 277.85222 100.013036 275.682037 97.8389466 273.511853 95.2752234 272.425943 92.3185924 272.425943 89.3603243 272.425943 86.794964 273.511853 84.6225114 275.682037 82.4484218 277.85222 81.363014 280.414902 81.363014 283.370081 81.363014 286.369415 82.4484218 288.953357 84.6225114 291.123541L84.6225114 291.123541zM77.2620392 268.061044C75.4251953 269.897605 73.991082 271.91079 72.9613362 274.10387L72.9613362 246.911973 77.2620392 246.911973 77.2620392 268.061044zM73.835556 306.465285C73.341147 306.779283 72.6928492 306.857783 71.8857512 306.700784 71.0802902 306.543785 70.4303553 306.219974 69.9375835 305.726082 69.4431745 305.189668 69.1304854 304.5306 68.9962419 303.745605 68.8619984 302.963881 68.9504027 302.303177 69.2647289 301.765128 71.2358162 298.677481 73.9026777 295.319993 77.2620392 291.694297 75.8279258 289.054752 75.1125062 286.302364 75.1125062 283.437132 75.1125062 278.692819 76.792187 274.641918 80.1531855 271.28443 83.512547 267.926941 87.5676826 266.249014 92.3185924 266.249014 97.066228 266.249014 101.109904 267.926941 104.44962 271.28443 107.786062 274.641918 109.45592 278.692819 109.45592 283.437132 109.45592 288.181445 107.786062 292.230711 104.44962 295.588199 101.109904 298.945688 97.066228 300.623615 92.3185924 300.623615 89.4045265 300.623615 86.6279782 299.908942 83.9840363 298.474691 79.9059811 302.057866 76.5237 304.720307 73.835556 306.465285L73.835556 306.465285zM60.0575901 292.029556L68.6606332 292.029556 68.6606332 246.911973 60.0575901 246.911973 60.0575901 292.029556zM160.061786 172.819738L171.637831 172.819738 171.637831 163.18229C171.637831 159.327637 169.709309 157.401129 165.84899 157.401129 161.990308 157.401129 160.061786 159.327637 160.061786 163.18229L160.061786 172.819738zM187.072558 176.975304L187.072558 197.815284C187.072558 198.739288 186.761506 199.552085 186.137765 200.253674 185.514024 200.958534 184.760951 201.408271 183.876908 201.609426 178.007848 202.97499 171.999634 203.656954 165.84899 203.656954 159.578837 203.656954 153.510049 202.97499 147.640989 201.609426 146.756947 201.408271 146.033341 200.958534 145.470174 200.253674 144.907006 199.552085 144.627059 198.739288 144.627059 197.815284L144.627059 177.156834C144.627059 176.031675 144.987224 175.029171 145.71083 174.144416 146.434435 173.262933 147.318477 172.819738 148.364594 172.819738L150.414263 172.819738 150.414263 163.18229C150.414263 158.565538 151.832005 154.840083 154.665853 152.009195 157.4997 149.178307 161.225775 147.763681 165.84899 147.763681 170.470568 147.763681 174.199917 149.178307 177.033765 152.009195 179.867612 154.840083 181.283717 158.565538 181.283717 163.18229L181.283717 172.819738 183.153303 172.819738C184.19942 172.819738 185.112931 173.241672 185.897109 174.083906 186.681288 174.927776 187.072558 175.89103 187.072558 176.975304L187.072558 176.975304zM529.321585 192.063724C529.321585 194.462865 528.516124 196.525112 526.908477 198.252101 525.297555 199.97909 523.318282 200.963604 520.965747 201.202373L513.762438 216.673315C514.91333 218.30545 515.489595 220.081501 515.489595 221.999832 515.489595 224.542889 514.589181 226.713073 512.788354 228.512019 510.987526 230.310966 508.815074 231.210439 506.269359 231.210439 503.723644 231.210439 501.551191 230.310966 499.750364 228.512019 497.949537 226.713073 497.049123 224.542889 497.049123 221.999832L497.049123 221.855917 487.684821 216.243203C486.627245 216.818866 485.427239 217.17702 484.083167 217.320936L476.879858 232.793512C478.032387 234.424012 478.607015 236.200063 478.607015 238.118395 478.607015 240.661451 477.708238 242.831635 475.907411 244.630582 474.104946 246.429528 471.932494 247.329002 469.388416 247.329002 466.841064 247.329002 464.668611 246.429528 462.867784 244.630582 461.066957 242.831635 460.166543 240.661451 460.166543 238.118395 460.166543 235.719254 460.970367 233.657007 462.579652 231.930018 464.188937 230.203029 466.169847 229.22015 468.522382 228.979745L475.655295 213.507169C474.548605 211.878304 473.998534 210.102253 473.998534 208.182286 473.998534 205.640865 474.898948 203.469046 476.698138 201.6701 478.500602 199.871153 480.673055 198.97168 483.21877 198.97168 485.762847 198.97168 487.936937 199.871153 489.737764 201.6701 491.538592 203.469046 492.439005 205.640865 492.439005 208.182286L492.439005 208.326202 501.803307 213.938916C502.859247 213.363253 504.06089 213.003464 505.404962 212.859548L512.537875 197.388606C511.431185 195.758107 510.879477 193.982056 510.879477 192.063724 510.879477 189.520668 511.77989 187.350484 513.580718 185.551537 515.381545 183.752591 517.555635 182.853117 520.10135 182.853117 522.645427 182.853117 524.819517 183.752591 526.620344 185.551537 528.421172 187.350484 529.321585 189.520668 529.321585 192.063724M345.801568 191.06073L359.960982 180.217987 359.960982 200.119244C359.960982 200.475762 359.84311 200.781583 359.604091 201.035071 359.366709 201.286924 359.068754 201.443923 358.711863 201.502797 352.546485 202.395729 346.292703 202.842195 339.94888 202.842195 333.634524 202.842195 327.366008 202.395729 321.141694 201.502797 320.814271 201.443923 320.53105 201.286924 320.293668 201.035071 320.054649 200.781583 319.936777 200.475762 319.936777 200.119244L319.936777 180.217987 334.097828 191.06073C335.67437 192.251305 337.625812 192.844958 339.94888 192.844958 342.271947 192.844958 344.221752 192.251305 345.801568 191.06073L345.801568 191.06073zM321.500223 175.709173C320.665294 174.906189 320.144691 174.119558 319.936777 173.344376L319.936777 171.291941C319.936777 170.935423 320.054649 170.629602 320.293668 170.377749 320.53105 170.124261 320.814271 169.968898 321.141694 169.908388 327.33654 169.017091 333.605056 168.570625 339.94888 168.570625 346.292703 168.570625 352.546485 169.017091 358.711863 169.908388 359.068754 169.968898 359.366709 170.124261 359.604091 170.377749 359.84311 170.629602 359.960982 170.935423 359.960982 171.291941L359.960982 173.344376C359.753068 174.119558 359.232466 174.906189 358.399174 175.709173L343.165812 187.222432C342.330883 187.87823 341.260209 188.205311 339.94888 188.205311 338.639187 188.205311 337.566876 187.87823 336.731947 187.222432L321.500223 175.709173zM243.515397 138.193448C244.893848 139.541023 246.491673 140.213175 248.312146 140.213175 250.129344 140.213175 251.728806 139.541023 253.107258 138.193448 254.487346 136.847509 255.178209 135.266071 255.178209 133.449135 255.178209 131.633835 254.487346 130.019689 253.107258 128.611604 251.728806 127.201884 250.129344 126.497024 248.312146 126.497024 246.491673 126.497024 244.893848 127.201884 243.515397 128.611604 242.135308 130.019689 241.446083 131.633835 241.446083 133.449135 241.446083 135.266071 242.135308 136.847509 243.515397 138.193448M241.729304 184.462357L254.894988 184.462357C255.772482 184.462357 256.49445 184.181067 257.057618 183.616852 257.622423 183.054272 257.905644 182.334694 257.905644 181.45648L257.905644 178.450604C257.905644 177.574026 257.622423 176.852812 257.057618 176.290233 256.49445 175.726018 255.772482 175.444728 254.894988 175.444728L254.988304 151.392811C254.988304 150.580014 254.690349 149.875154 254.096076 149.279866 253.498528 148.686214 252.792932 148.386934 251.979285 148.386934L241.729304 148.386934C240.850172 148.386934 240.129841 148.668224 239.565037 149.232439 239.001869 149.796654 238.718648 150.517868 238.718648 151.392811L238.718648 154.400322C238.718648 155.2769 239.001869 155.996479 239.565037 156.560694 240.129841 157.124909 240.850172 157.406199 241.729304 157.406199L241.729304 175.444728C240.850172 175.444728 240.129841 175.726018 239.565037 176.290233 239.001869 176.852812 238.718648 177.574026 238.718648 178.450604L238.718648 181.45648C238.718648 182.334694 239.001869 183.054272 239.565037 183.616852 240.129841 184.181067 240.850172 184.462357 241.729304 184.462357M225.693755 118.370691C232.620392 114.331238 240.160947 112.311512 248.312146 112.311512 256.461708 112.311512 264.002263 114.331238 270.930537 118.370691 277.857173 122.410144 283.344785 127.892025 287.388461 134.811429 291.432137 141.732467 293.453975 149.265147 293.453975 157.406199 293.453975 165.548886 291.432137 173.081566 287.388461 180.000969 283.344785 186.922008 277.857173 192.402253 270.930537 196.441706 264.002263 200.481159 256.461708 202.500886 248.312146 202.500886 240.160947 202.500886 232.620392 200.481159 225.693755 196.441706 218.765481 192.402253 213.279507 186.922008 209.235831 180.000969 205.190518 173.081566 203.16868 165.548886 203.16868 157.406199 203.16868 149.265147 205.190518 141.732467 209.235831 134.811429 213.279507 127.892025 218.765481 122.410144 225.693755 118.370691M481.627821 299.481447C481.771887 299.963892 481.675297 300.469232 481.338051 300.999104 481.000805 301.528975 480.56697 301.818442 480.036544 301.865869L479.530675 301.937827C479.191792 301.986889 478.672827 302.047399 477.975415 302.119357 477.27473 302.191315 476.418518 302.263273 475.406781 302.336866 474.393406 302.408824 473.006769 302.469334 471.24687 302.516761 469.485333 302.565823 467.568271 302.614885 465.494045 302.660676 465.06021 302.325418 464.57726 301.999972 464.046835 301.685974 463.516409 301.373612 462.949967 301.035083 462.347509 300.673658 461.743413 300.312233 461.298118 300.03585 461.008348 299.842872 460.237267 299.456916 459.489105 299.023533 458.7655 298.541089 463.830736 291.845736 464.84411 285.196175 461.805623 278.595676 460.599069 275.993745 458.911203 273.969112 456.740387 272.523413 454.569572 271.077714 452.205577 270.186418 449.650039 269.849524 449.650039 268.163421 450.036399 266.42989 450.80748 264.645662 451.722628 262.622665 453.122362 261.129539 455.003408 260.16465 456.884454 259.201395 458.83917 258.720586 460.864282 258.720586 462.889394 258.720586 464.84411 259.201395 466.723519 260.16465 468.604565 261.129539 470.004299 262.622665 470.919447 264.645662 473.235965 269.703973 472.101444 274.88494 467.520794 280.185291 466.121061 281.823968 466.21765 283.534602 467.810564 285.31556 468.291876 285.894493 469.701433 286.859383 472.042508 288.206958 474.380309 289.556168 476.032159 290.568484 476.998057 291.242271 477.528483 291.628227 477.998335 291.978204 478.409251 292.290567 478.81853 292.604564 479.168873 292.965989 479.457005 293.374841 479.746775 293.785328 479.975971 294.09769 480.144594 294.313564 480.313217 294.531073 480.48184 294.903945 480.650463 295.433817 480.819085 295.965324 480.928772 296.326749 480.977886 296.518091 481.023725 296.711069 481.133412 297.180431 481.302035 297.927811 481.470657 298.675192 481.580344 299.19198 481.627821 299.481447L481.627821 299.481447zM452.688526 318.813582C450.90407 318.838113 448.998467 318.851196 446.973355 318.851196 444.948243 318.851196 443.029543 318.838113 441.222168 318.813582 439.413155 318.790686 437.880814 318.754708 436.628421 318.705645 435.372753 318.658219 434.239869 318.597709 433.228132 318.525751 432.214757 318.453793 431.383102 318.393283 430.73153 318.344221 430.079958 318.296794 429.538073 318.249367 429.104237 318.200305 428.668764 318.152878 428.354438 318.128347 428.162895 318.128347L427.801093 318.054754C427.26903 318.008962 426.835195 317.719495 426.499586 317.187989 426.160703 316.754606 426.06575 316.24763 426.209816 315.670332 426.306406 315.333438 426.425916 314.815014 426.571619 314.116696 426.715685 313.418378 426.812275 312.949016 426.859751 312.706976 426.908865 312.466571 427.016914 312.092063 427.187175 311.586723 427.35416 311.081382 427.522783 310.719958 427.693043 310.502449 427.861666 310.286575 428.090862 309.98566 428.380632 309.599704 428.668764 309.215384 429.00601 308.852324 429.392369 308.51543 429.778729 308.178536 430.261678 307.817112 430.83958 307.431156 431.852954 306.708306 433.516264 305.673094 435.831146 304.323884 438.146027 302.974674 439.544124 302.035951 440.027073 301.504444 441.619987 299.723487 441.716577 298.012852 440.316843 296.374175 435.734556 291.073824 434.601672 285.894493 436.916553 280.834547 437.833338 278.81155 439.233072 277.318424 441.112481 276.353534 442.993527 275.391916 444.948243 274.909471 446.973355 274.909471 448.998467 274.909471 450.953183 275.391916 452.834229 276.353534 454.715275 277.318424 456.113372 278.81155 457.030157 280.834547 459.345039 285.894493 458.210517 291.073824 453.62823 296.374175 452.230134 298.012852 452.326723 299.723487 453.919637 301.504444 454.400949 302.083378 455.810506 303.048268 458.151581 304.395842 460.489382 305.745052 462.141232 306.757369 463.10713 307.431156 464.312048 308.299557 465.204276 309.105812 465.783815 309.853192 466.363354 310.600573 466.759536 311.418276 466.977272 312.309572 467.195008 313.202504 467.447124 314.322757 467.736894 315.670332 467.882597 316.201839 467.78437 316.707179 467.447124 317.187989 467.109878 317.719495 466.676043 318.008962 466.145617 318.054754L465.783815 318.128347C465.590635 318.128347 465.277946 318.152878 464.84411 318.200305 464.408637 318.249367 463.866752 318.296794 463.21518 318.344221 462.563608 318.393283 461.720493 318.453793 460.684199 318.525751 459.646268 318.597709 458.500287 318.658219 457.246256 318.705645 455.992226 318.754708 454.472982 318.790686 452.688526 318.813582L452.688526 318.813582zM432.938362 299.842872C432.648593 300.03585 432.20166 300.312233 431.599201 300.673658 430.995106 301.035083 430.430301 301.373612 429.898238 301.685974 429.367813 301.999972 428.886501 302.325418 428.452665 302.660676 426.956341 302.660676 425.533688 302.637781 424.184704 302.588719 422.832447 302.541292 421.675006 302.493865 420.710745 302.444803 419.746484 302.397376 418.877175 302.348314 418.106094 302.300887 417.335012 302.251825 416.6949 302.204398 416.189031 302.155336 415.683162 302.107909 415.259149 302.060482 414.923541 302.01142 414.584658 301.963993 414.319445 301.937827 414.127902 301.937827L413.910166 301.865869C413.379741 301.818442 412.944268 301.528975 412.608659 300.999104 412.269776 300.565721 412.173186 300.060381 412.31889 299.481447 412.415479 299.144553 412.534989 298.62613 412.680692 297.927811 412.824758 297.229493 412.921348 296.760131 412.970462 296.518091 413.016301 296.277687 413.125988 295.903179 413.294611 295.397838 413.463233 294.892498 413.631856 294.531073 413.802116 294.313564 413.970739 294.09769 414.199936 293.796776 414.489705 293.41082 414.779475 293.024864 415.115083 292.665075 415.501443 292.326545 415.887802 291.989652 416.370751 291.628227 416.948653 291.242271 417.962027 290.519422 419.625337 289.48421 421.941856 288.135 424.256737 286.78579 425.654834 285.847067 426.136146 285.31556 427.72906 283.534602 427.82565 281.823968 426.425916 280.185291 421.843629 274.88494 420.710745 269.703973 423.025626 264.645662 423.942411 262.622665 425.342145 261.129539 427.223191 260.16465 429.104237 259.201395 431.057316 258.720586 433.082428 258.720586 435.10754 258.720586 437.062257 259.201395 438.943302 260.16465 440.824348 261.129539 442.222445 262.622665 443.13923 264.645662 443.910312 266.42989 444.296671 268.163421 444.296671 269.849524 438.509467 270.668863 434.431412 273.584792 432.070691 278.595676 429.078043 285.196175 430.115975 291.845736 435.179573 298.541089 434.988031 298.68664 434.770295 298.830555 434.529639 298.974471 434.287345 299.120022 434.010673 299.277021 433.697984 299.445468 433.383658 299.61555 433.154461 299.746383 433.010395 299.842872L432.938362 299.842872z"/>
    </g>
    <g filter="url(#b)" transform="translate(2.247 70.322)">
      <path fill="#D2ECF3" d="M608.189471,176.484683 C598.561594,77.9678208 516.265424,1.00397579 416.150886,1.00397579 C317.535947,1.00397579 236.207312,75.6782523 224.590339,172.070722 C205.450819,164.145544 184.46627,159.769197 162.458523,159.769197 C72.7347594,159.769197 -0.000654846287,232.428653 -0.000654846287,322.058718 C-0.000654846287,406.242881 64.1677328,475.451631 146.308377,483.550162 L399.874682,484.346604 L658.168977,484.346604 C736.360898,484.346604 799.750019,413.14593 799.750019,325.314812 C799.750019,237.482058 736.360898,166.281384 658.168977,166.281384 C640.573257,166.281384 623.730611,169.893996 608.189471,176.484683 Z"/>
      <path fill="#1396DC" fill-opacity=".1" d="M608.189471,176.484683 C598.561594,77.9678208 516.265424,1.00397579 416.150886,1.00397579 C317.535947,1.00397579 236.207312,75.6782523 224.590339,172.070722 C205.450819,164.145544 184.46627,159.769197 162.458523,159.769197 C72.7347594,159.769197 -0.000654846287,232.428653 -0.000654846287,322.058718 C-0.000654846287,404.087416 60.9278808,471.888081 140.039861,482.797875 C72.3238433,466.816687 21.9268731,406.05808 21.9268731,333.529457 C21.9268731,248.813787 90.6742734,180.139815 175.476868,180.139815 C196.279697,180.139815 216.111717,184.275757 234.201845,191.764281 C245.181981,100.657445 322.051112,30.0798603 415.258658,30.0798603 C509.883947,30.0798603 587.666589,102.822722 596.765678,195.937838 C611.455517,189.708576 627.37483,186.293848 644.004652,186.293848 C717.910604,186.293848 777.822491,253.590808 777.822491,336.605655 C777.822491,408.771219 732.544781,469.047381 672.161405,483.574693 C743.785218,475.680588 799.750019,407.840673 799.750019,325.314812 C799.750019,237.482058 736.360898,166.281384 658.168977,166.281384 C640.573257,166.281384 623.730611,169.893996 608.189471,176.484683 Z"/>
      <path fill="#13A1DC" fill-opacity=".2" d="M252.947312 398.360388C257.711318 403.12269 263.506708 405.502206 270.330206 405.502206 277.152067 405.502206 282.947457 403.12269 287.713101 398.360388 292.477108 393.601356 294.862385 387.812018 294.862385 380.995646 294.862385 374.180909 292.477108 368.391571 287.713101 363.630904 282.947457 358.871873 277.152067 356.489086 270.330206 356.489086 263.506708 356.489086 257.711318 358.871873 252.947312 363.630904 248.180031 368.391571 245.798027 374.180909 245.798027 380.995646 245.798027 387.812018 248.180031 393.601356 252.947312 398.360388M342.271619 374.079514C342.77094 378.589964 342.77094 383.200173 342.271619 387.911778 342.068617 389.615871 341.367931 391.068112 340.163014 392.271771 338.959734 393.473794 337.553452 394.175383 335.949078 394.374903L323.6085 395.879477C321.802762 396.281786 320.296615 397.209062 319.093335 398.661302 317.888418 400.115178 317.287596 401.79474 317.287596 403.696718 317.287596 405.402446 317.73944 406.854687 318.641491 408.05671 318.641491 408.158105 321.147915 411.466532 326.167312 417.980354 327.16759 419.283773 327.671821 420.76218 327.671821 422.415575 327.671821 424.068971 327.120113 425.549013 326.016697 426.850797 323.104269 430.458502 319.846408 433.717867 316.233294 436.622348 315.030014 437.726247 313.523867 438.277379 311.718129 438.277379 309.91239 438.277379 308.456994 437.776945 307.353578 436.772805L297.571812 429.256479C296.366895 428.353735 294.862385 427.902363 293.056647 427.902363 291.149407 427.902363 289.468089 428.530359 288.01433 429.781444 286.558934 431.035801 285.629053 432.615603 285.229596 434.51758L283.725087 446.545992C283.523722 448.150325 282.823036 449.551868 281.618119 450.755527 280.413202 451.957551 278.959443 452.660775 277.253569 452.860295 274.242913 453.06145 271.93458 453.16121 270.330206 453.16121 268.724196 453.16121 266.4175 453.06145 263.406844 452.860295 261.700969 452.660775 260.247211 451.957551 259.042293 450.755527 257.839013 449.551868 257.136691 448.150325 256.936963 446.545992 255.931774 438.628991 255.430816 434.618976 255.430816 434.51758 255.129587 432.615603 254.227536 431.035801 252.72139 429.781444 251.21688 428.530359 249.509369 427.902363 247.605403 427.902363 245.897891 427.902363 244.293518 428.406068 242.789009 429.406936L233.306834 436.772805C232.201781 437.776945 230.748022 438.277379 228.942284 438.277379 227.336273 438.277379 225.831764 437.726247 224.427119 436.622348 220.815641 433.717867 217.55287 430.458502 214.645352 426.850797 213.540299 425.549013 212.988591 424.068971 212.988591 422.415575 212.988591 420.76218 213.489549 419.283773 214.494738 417.980354L221.717692 408.508082C222.821108 407.106539 223.374453 405.502206 223.374453 403.696718 223.374453 401.693345 222.719607 399.938554 221.4181 398.435616 220.111682 396.931043 218.456558 396.080631 216.451091 395.879477L204.711334 394.374903C203.105324 394.175383 201.702315 393.473794 200.497398 392.271771 199.294118 391.068112 198.590158 389.615871 198.39043 387.911778 197.889473 383.401328 197.889473 378.792754 198.39043 374.079514 198.488657 372.476816 199.143504 371.049106 200.346784 369.79475 201.550064 368.542029 203.003822 367.815908 204.711334 367.614753L216.451091 366.111815C218.456558 365.810901 220.111682 364.908156 221.4181 363.405218 222.719607 361.90228 223.374453 360.149125 223.374453 358.142481 223.374453 356.440024 222.821108 354.886388 221.717692 353.48321L214.494738 344.010938C213.388047 342.709154 212.862533 341.229112 212.913284 339.575716 212.964034 337.920685 213.540299 336.443914 214.645352 335.140495 217.55287 331.531154 220.815641 328.276696 224.427119 325.367308 225.730263 324.265045 227.211853 323.713913 228.866976 323.713913 230.5221 323.713913 232.002053 324.217618 233.306834 325.216851L242.789009 332.584355C244.293518 333.588495 245.897891 334.087294 247.605403 334.087294 249.509369 334.087294 251.21688 333.462568 252.72139 332.208212 254.227536 330.957126 255.129587 329.377324 255.430816 327.472076L256.936963 315.4453C257.136691 313.842602 257.839013 312.437788 259.042293 311.235765 260.247211 310.032106 261.700969 309.332152 263.406844 309.129362 267.922009 308.630563 272.535401 308.630563 277.253569 309.129362 278.959443 309.332152 280.413202 310.032106 281.618119 311.235765 282.823036 312.437788 283.523722 313.842602 283.725087 315.4453L285.229596 327.472076C285.629053 329.377324 286.558934 330.957126 288.01433 332.208212 289.468089 333.462568 291.149407 334.087294 293.056647 334.087294 294.459655 334.087294 295.965801 333.635922 297.571812 332.734813 301.883975 329.428022 305.145109 326.92258 307.353578 325.216851 308.656722 324.217618 310.138312 323.713913 311.793436 323.713913 313.450197 323.713913 314.928513 324.265045 316.233294 325.367308 319.846408 328.276696 323.104269 331.531154 326.016697 335.140495 327.120113 336.443914 327.671821 337.920685 327.671821 339.575716 327.671821 341.229112 327.16759 342.709154 326.167312 344.010938 321.147915 350.526395 318.641491 353.834822 318.641491 353.932946 317.73944 355.136605 317.287596 356.541419 317.287596 358.142481 317.287596 360.04773 317.888418 361.727292 319.093335 363.179532 320.296615 364.633408 321.802762 365.611381 323.6085 366.111815 329.12558 366.813404 333.239652 367.313839 335.949078 367.614753 337.553452 367.815908 338.959734 368.515862 340.163014 369.719521 341.367931 370.92318 342.068617 372.375421 342.271619 374.079514M564.430842 285.540591C570.99895 285.599466 576.39652 287.650265 580.618642 291.692989 584.840763 295.734078 586.952643 301.183251 586.952643 308.038873L574.988601 308.038873C572.05489 308.038873 569.563199 307.013473 567.510256 304.962674 565.455676 302.911875 564.430842 300.422787 564.430842 297.492139L564.430842 285.540591zM598.301129 274.467257C607.62614 283.959154 612.288645 295.150238 612.288645 308.038873L598.741513 308.038873C598.741513 303.762286 597.875479 299.456262 596.145047 295.119165 594.414616 290.785339 592.055532 287.06479 589.062885 283.959154 582.142797 276.871304 573.932661 273.41242 564.430842 273.589044L564.430842 260.231047C577.68493 260.231047 588.976118 264.976996 598.301129 274.467257L598.301129 274.467257zM616.510767 256.628248C623.078875 263.307246 628.225967 271.114675 631.950405 280.048898 635.674843 288.983121 637.565712 298.314748 637.624648 308.038873L623.812303 308.038873C623.812303 291.751864 618.06439 277.777319 606.5702 266.118509 602.934166 262.427398 599.005088 259.293959 594.782967 256.71656 590.559208 254.137524 586.497524 252.292786 582.597915 251.179075 578.696668 250.066998 575.340581 249.304899 572.524742 248.894412 569.71054 248.485561 567.010936 248.2795 564.430842 248.2795L564.430842 234.921503C567.069872 234.921503 569.694169 235.052335 572.305368 235.317271 574.913294 235.580571 578.154783 236.151328 582.026561 237.029541 585.896703 237.90939 589.621141 239.095059 593.198239 240.58982 596.775337 242.082946 600.645478 244.207338 604.811938 246.961362 608.973486 249.715386 612.874733 252.935501 616.510767 256.628248L616.510767 256.628248zM476.184083 399.281121C484.408953 407.500672 494.342971 411.610448 505.982864 411.610448 517.621119 411.610448 527.5535 407.500672 535.783281 399.281121 544.00815 391.064841 548.123859 381.141197 548.123859 369.51346 548.123859 357.887358 544.00815 347.96535 535.783281 339.744163 527.5535 331.527883 517.621119 327.416472 505.982864 327.416472 494.342971 327.416472 484.408953 331.527883 476.184083 339.744163 467.95594 347.96535 463.841868 357.887358 463.841868 369.51346 463.841868 381.141197 467.95594 391.064841 476.184083 399.281121M463.391661 326.9651C475.129781 315.239239 489.326848 309.374672 505.982864 309.374672 522.637242 309.374672 536.835947 315.239239 548.575703 326.9651 560.313823 338.692597 566.18452 352.876474 566.18452 369.51346 566.18452 386.152081 560.313823 400.334323 548.575703 412.060184 536.835947 423.787681 522.637242 429.650612 505.982864 429.650612 497.153899 429.650612 488.825891 427.846759 480.998841 424.239053L444.728542 450.850381C441.516521 453.254428 437.955794 454.157172 434.043088 453.556978 430.130381 452.955148 426.969111 451.051536 424.560913 447.842869 422.653674 445.237667 421.702509 442.354446 421.702509 439.198113 421.702509 436.041779 422.653674 433.160193 424.560913 430.553356L451.20006 394.471392C447.588583 386.652516 445.782845 378.333205 445.782845 369.51346 445.782845 352.876474 451.651904 338.692597 463.391661 326.9651M471.384715 127.856374C472.560164 124.242126 473.557168 119.586125 474.370814 113.891641 475.184461 108.197157 475.705063 103.745582 475.930985 100.536915 476.156907 97.3282485 476.271505 95.3166991 476.271505 94.5022668 476.271505 93.3296807 476.70043 92.3124581 477.559915 91.4522345 478.419401 90.5952817 479.43605 90.1651699 480.614773 90.1651699L496.357278 90.1651699C497.532727 90.1651699 498.551013 90.5952817 499.412136 91.4522345 500.271622 92.3124581 500.700546 93.3296807 500.700546 94.5022668 500.700546 95.2283871 500.813507 97.2154055 501.041066 100.468228 501.265351 103.722686 501.785954 108.197157 502.601237 113.891641 503.414884 119.586125 504.41025 124.242126 505.587337 127.856374 506.130859 129.122178 505.947502 130.387982 505.043814 131.652151 504.230168 132.919591 503.053081 133.550858 501.51583 133.550858L475.456222 133.550858C473.917333 133.550858 472.741884 132.919591 471.928237 131.652151 471.112954 130.567877 470.931234 129.303708 471.384715 127.856374L471.384715 127.856374zM467.856731 186.698284C466.044444 188.868468 463.783587 189.952742 461.070886 189.952742 459.170195 189.952742 457.359545 189.31984 455.640573 188.054036 453.741519 186.609972 452.656111 184.686735 452.38435 182.2925 452.112589 179.898266 452.744515 177.749342 454.283404 175.852271L473.013645 154.158609C474.73098 152.081644 476.857593 150.995734 479.393485 150.904151 482.016144 150.724257 484.18696 151.582845 485.907569 153.479916L496.493159 163.920348 509.522963 148.058545C511.060214 146.251421 513.005108 145.209667 515.35928 144.939825 517.710178 144.668348 519.838429 145.257094 521.737483 146.701158 523.546496 148.240075 524.589339 150.205833 524.859463 152.600067 525.131224 154.995937 524.541862 157.097434 523.094652 158.904558L503.958406 182.359552C502.329476 184.348206 500.247065 185.434115 497.714447 185.61401 495.181829 185.79554 492.965174 184.935316 491.064483 183.038245L480.478893 172.597813 467.856731 186.698284zM545.490395 106.026973C546.575803 106.118556 547.477854 106.594459 548.203096 107.451412 548.926701 108.311636 549.290141 109.281431 549.290141 110.365706L549.290141 211.237552C549.290141 212.323462 548.949621 213.271997 548.271855 214.086429 547.592452 214.899226 546.711683 215.352234 545.624639 215.442181 544.539231 215.712023 541.417251 216.187926 536.260337 216.864984 531.103422 217.542043 523.795338 218.287788 514.340994 219.10222 504.885014 219.916652 496.267237 220.322233 488.486026 220.322233 480.703178 220.322233 472.085401 219.916652 462.631057 219.10222 453.175077 218.287788 445.870267 217.542043 440.711715 216.864984 435.5548 216.187926 432.432821 215.712023 431.345776 215.442181 430.35041 215.260651 429.490924 214.786383 428.767319 214.017742 428.042076 213.250737 427.681911 212.323462 427.681911 211.237552L427.681911 110.365706C427.681911 109.281431 428.042076 108.311636 428.767319 107.451412 429.490924 106.594459 430.396249 106.118556 431.481656 106.026973 441.525361 104.854387 453.197996 103.950008 466.499562 103.31547 466.044444 109.644492 465.278273 115.157446 464.191229 119.855967 455.866495 120.219027 449.486655 120.670399 445.054983 121.213354L445.054983 200.663016C465.050714 202.743253 479.529366 203.781736 488.486026 203.781736 504.138489 203.781736 518.617141 202.743253 531.917069 200.663016L531.917069 121.213354C527.392081 120.670399 521.012241 120.219027 512.780823 119.855967 511.603737 114.704438 510.880132 109.19312 510.60837 103.31547 523.818257 103.950008 535.445053 104.854387 545.490395 106.026973L545.490395 106.026973zM405.349361 371.659767C410.069165 369.388188 413.991694 366.207323 417.120223 362.117172 420.247114 358.027022 422.237846 353.312146 423.090784 347.972545L410.722374 347.972545C410.041334 357.459536 408.248692 365.355276 405.349361 371.659767L405.349361 371.659767zM423.005654 337.066022C422.152716 331.728057 420.176718 327.083504 417.077658 323.135633 413.978597 319.187763 410.069165 316.105023 405.349361 313.890683 408.305992 320.366891 410.069165 328.090914 410.637244 337.066022L423.005654 337.066022zM401.511961 337.066022C401.284402 333.487754 400.842381 330.122088 400.189172 326.969025 399.534326 323.817598 398.825454 321.233656 398.05601 319.215565 397.28984 317.200745 396.464734 315.454131 395.583965 313.975724 394.70156 312.498952 393.933753 311.434303 393.280543 310.78014 392.625697 310.127613 392.100183 309.800532 391.702364 309.800532 391.302908 309.800532 390.777394 310.127613 390.124184 310.78014 389.469338 311.434303 388.703168 312.498952 387.820763 313.975724 386.938357 315.454131 386.114888 317.200745 385.348718 319.215565 384.579273 321.233656 383.868765 323.817598 383.215556 326.969025 382.56071 330.122088 382.120326 333.487754 381.892767 337.066022L401.511961 337.066022zM388.632772 371.617246C389.996489 373.690941 391.019687 374.726153 391.702364 374.726153 392.385041 374.726153 393.408238 373.690941 394.773593 371.617246 396.13731 369.545187 397.530496 366.334885 398.953149 361.987975 400.372529 357.644337 401.256571 352.971982 401.597091 347.972545L381.809274 347.972545C382.149794 352.971982 383.030562 357.644337 384.451578 361.987975 385.874232 366.334885 387.267417 369.545187 388.632772 371.617246L388.632772 371.617246zM360.399074 337.066022L372.767484 337.066022C373.333926 328.090914 375.097099 320.366891 378.055367 313.890683 373.333926 316.105023 369.42613 319.187763 366.32707 323.135633 363.22801 327.083504 361.252012 331.728057 360.399074 337.066022L360.399074 337.066022zM378.055367 371.659767C375.156035 365.355276 373.363394 357.459536 372.680716 347.972545L360.313944 347.972545C361.166882 353.312146 363.157614 358.027022 366.284505 362.117172 369.411396 366.207323 373.333926 369.388188 378.055367 371.659767L378.055367 371.659767zM412.215424 377.923372C405.932174 381.586682 399.093941 383.418336 391.702364 383.418336 384.309149 383.418336 377.470917 381.586682 371.189304 377.923372 364.904417 374.258427 359.929222 369.288428 356.262083 363.01174 352.594944 356.736686 350.761374 349.90396 350.761374 342.520101 350.761374 335.136243 352.594944 328.305152 356.262083 322.026828 359.929222 315.751775 364.904417 310.78014 371.189304 307.116831 377.470917 303.451886 384.309149 301.620231 391.702364 301.620231 399.093941 301.620231 405.932174 303.451886 412.215424 307.116831 418.498674 310.78014 423.473869 315.751775 427.142645 322.026828 430.809784 328.305152 432.643354 335.136243 432.643354 342.520101 432.643354 349.90396 430.809784 356.736686 427.142645 363.01174 423.473869 369.288428 418.498674 374.258427 412.215424 377.923372L412.215424 377.923372zM109.535811 313.774405C111.151644 315.388551 113.132554 316.196442 115.478541 316.196442 117.822891 316.196442 119.803801 315.388551 121.421271 313.774405 123.037104 312.16026 123.845839 310.181418 123.845839 307.837881 123.845839 305.49598 123.037104 303.517139 121.421271 301.901357 119.803801 300.287212 117.822891 299.479321 115.478541 299.479321 113.132554 299.479321 111.151644 300.287212 109.535811 301.901357 107.919978 303.517139 107.111243 305.49598 107.111243 307.837881 107.111243 310.181418 107.919978 312.16026 109.535811 313.774405M133.067712 298.054882L139.439367 291.786371C132.908912 285.138445 124.921425 281.813665 115.478541 281.813665 106.032383 281.813665 98.0465329 285.138445 91.5193525 291.786371L97.8893698 298.054882C102.705764 293.115956 108.568276 290.646493 115.478541 290.646493 122.387169 290.646493 128.249681 293.115956 133.067712 298.054882M145.999289 285.043592L152.274354 278.869934C147.52017 273.994788 141.971985 270.19574 135.63471 267.472789 129.295798 264.749838 122.577075 263.387544 115.478541 263.387544 108.37837 263.387544 101.659647 264.749838 95.3207352 267.472789 88.9818232 270.19574 83.4369122 273.994788 78.6827282 278.869934L84.9577927 285.043592C93.3873016 276.495324 103.561976 272.220373 115.478541 272.220373 121.309947 272.220373 126.854858 273.345532 132.116548 275.59258 137.378238 277.841263 142.004727 280.992691 145.999289 285.043592M159.595535 270.795934L159.595535 316.956906C159.595535 318.224345 159.151877 319.298807 158.26456 320.185197 157.375607 321.073223 156.298384 321.514782 155.031257 321.514782L75.9258253 321.514782C74.6570606 321.514782 73.5798385 321.073223 72.6925218 320.185197 71.8052051 319.298807 71.3615467 318.224345 71.3615467 316.956906L71.3615467 270.795934C71.3615467 269.466349 71.8690526 268.359179 72.8824272 267.472789L112.435143 230.334352C113.32246 229.513378 114.352205 229.099621 115.526017 229.099621 116.698192 229.099621 117.696833 229.513378 118.520302 230.334352L158.073018 267.472789C159.08803 268.359179 159.595535 269.466349 159.595535 270.795934M395.778455 90.5630642C396.791829 90.6906259 397.648041 91.1796123 398.345452 92.0349297 399.042863 92.8902471 399.391569 93.9205529 399.391569 95.1225764L399.391569 140.333377C399.391569 141.600817 398.995387 142.675279 398.203023 143.561669 397.410659 144.449694 396.475866 144.891254 395.398644 144.891254L382.087256 144.891254C381.008397 144.891254 380.073604 144.449694 379.282877 143.561669 378.488876 142.675279 378.094331 141.600817 378.094331 140.333377L378.094331 95.1225764C378.094331 93.9205529 378.441399 92.8755284 379.140448 91.9875029 379.836222 91.1027482 380.692433 90.6268451 381.707445 90.5630642 383.735831 90.3112117 386.080181 90.18365 388.743768 90.18365 391.341871 90.18365 393.687858 90.3112117 395.778455 90.5630642L395.778455 90.5630642zM365.354296 105.759257C366.366034 105.888455 367.222245 106.377441 367.919656 107.231123 368.617068 108.08644 368.967411 109.116746 368.967411 110.31877L368.967411 140.333377C368.967411 141.600817 368.569591 142.675279 367.777227 143.561669 366.984863 144.449694 366.05007 144.891254 364.972848 144.891254L351.66146 144.891254C350.584238 144.891254 349.649445 144.449694 348.857081 143.561669 348.06308 142.675279 347.668535 141.600817 347.668535 140.333377L347.668535 110.31877C347.668535 109.116746 348.017241 108.071722 348.714652 107.185332 349.412063 106.298941 350.266638 105.824674 351.281649 105.759257 353.310036 105.507405 355.656023 105.379843 358.317973 105.379843 360.916075 105.379843 363.262062 105.507405 365.354296 105.759257L365.354296 105.759257zM334.928501 114.878282C335.941875 115.005843 336.79645 115.49483 337.495498 116.350147 338.191272 117.205465 338.541615 118.234135 338.541615 119.437794L338.541615 140.333377C338.541615 141.600817 338.143796 142.675279 337.353069 143.561669 336.559068 144.449694 335.624275 144.891254 334.54869 144.891254L321.237302 144.891254C320.158443 144.891254 319.223649 144.449694 318.431285 143.561669 317.638921 142.675279 317.242739 141.600817 317.242739 140.333377L317.242739 119.437794C317.242739 118.234135 317.591445 117.190746 318.288856 116.30272 318.986268 115.41633 319.842479 114.942063 320.855854 114.878282 322.88424 114.624794 325.230227 114.498867 327.892177 114.498867 330.49028 114.498867 332.836267 114.624794 334.928501 114.878282L334.928501 114.878282zM363.54692 93.2222345C362.278156 94.1724054 360.868599 94.5681737 359.316613 94.4095393 357.761353 94.2525403 356.44675 93.6016487 355.369527 92.4634061L344.436869 80.4955045 335.308311 89.8042358C335.434369 90.5630642 335.498217 91.1976018 335.498217 91.7029423 335.498217 94.6172359 334.453737 97.1161364 332.361503 99.2061853 330.269269 101.296234 327.764482 102.341259 324.850416 102.341259 321.933076 102.341259 319.429926 101.296234 317.337692 99.2061853 315.247095 97.1161364 314.200978 94.6172359 314.200978 91.7029423 314.200978 88.7919195 315.247095 86.2897482 317.337692 84.1996992 319.429926 82.1096503 321.933076 81.0646258 324.850416 81.0646258 325.16638 81.0646258 325.767201 81.1284066 326.656155 81.2559683L340.252401 67.6722855C341.583376 66.4718974 343.073151 65.8684326 344.721727 65.8684326 346.494723 65.9959943 347.953393 66.6616045 349.094463 67.863628L360.600112 80.2093084 381.136092 64.7285545 381.136092 64.3491403C381.136092 61.4364821 382.182209 58.9343108 384.274442 56.8458973 386.365039 54.7558483 388.869826 53.7108239 391.785529 53.7108239 394.699595 53.7108239 397.20602 54.7558483 399.296616 56.8458973 401.38885 58.9343108 402.43333 61.4364821 402.43333 64.3491403 402.43333 67.2617986 401.38885 69.7623344 399.296616 71.8523834 397.20602 73.9407969 394.699595 74.9874568 391.785529 74.9874568 390.580612 74.9874568 389.50339 74.7961143 388.552226 74.4167001L363.54692 93.2222345zM161.927116 414.127337L174.097434 414.127337 174.097434 350.300709 161.927116 350.300709 161.927116 414.127337zM155.841957 388.577388C153.687512 384.273 150.644114 380.599878 146.715036 377.559658L146.715036 350.300709 155.841957 350.300709 155.841957 388.577388zM140.629877 374.04517C136.699162 372.336171 132.644027 371.480853 128.459559 371.480853 127.825995 371.480853 126.810983 371.54627 125.416161 371.672196L125.416161 350.300709 140.629877 350.300709 140.629877 374.04517zM119.332639 350.300709L119.332639 372.906927C117.302615 373.53983 115.274229 374.458928 113.245843 375.660951L113.245843 350.300709 119.332639 350.300709zM117.572739 412.845179C120.647243 415.916472 124.276728 417.452118 128.459559 417.452118 132.644027 417.452118 136.270238 415.916472 139.346379 412.845179 142.419245 409.775522 143.958134 406.118754 143.958134 401.874875 143.958134 397.696413 142.419245 394.070717 139.346379 390.999425 136.270238 387.929768 132.644027 386.394121 128.459559 386.394121 124.276728 386.394121 120.647243 387.929768 117.572739 390.999425 114.498236 394.070717 112.962622 397.696413 112.962622 401.874875 112.962622 406.118754 114.498236 409.775522 117.572739 412.845179L117.572739 412.845179zM107.162321 380.218828C104.562581 382.817488 102.534195 385.666366 101.077162 388.767096L101.077162 350.300709 107.162321 350.300709 107.162321 380.218828zM102.313184 434.547018C101.614135 434.991848 100.695714 435.103056 99.556281 434.880641 98.4152114 434.659861 97.4951523 434.200312 96.797741 433.503629 96.1003297 432.743165 95.6566714 431.809348 95.466766 430.700543 95.2768605 429.595008 95.4029184 428.659556 95.8465768 427.899092 98.636222 423.530922 102.408137 418.781703 107.162321 413.65307 105.132297 409.916167 104.118923 406.0239 104.118923 401.969729 104.118923 395.259658 106.496015 389.527559 111.250199 384.77834 116.004383 380.030756 121.739199 377.654511 128.459559 377.654511 135.176645 377.654511 140.898364 380.030756 145.621443 384.77834 150.342885 389.527559 152.703606 395.259658 152.703606 401.969729 152.703606 408.683071 150.342885 414.411898 145.621443 419.161117 140.898364 423.910337 135.176645 426.284946 128.459559 426.284946 124.338939 426.284946 120.408224 425.27263 116.669052 423.244726 110.901493 428.311214 106.116204 432.07919 102.313184 434.547018L102.313184 434.547018zM82.8216842 414.127337L94.9920024 414.127337 94.9920024 350.300709 82.8216842 350.300709 82.8216842 414.127337zM224.294512 245.485081L240.670581 245.485081 240.670581 231.852336C240.670581 226.398257 237.941509 223.672035 232.481728 223.672035 227.023584 223.672035 224.294512 226.398257 224.294512 231.852336L224.294512 245.485081zM262.50643 251.364366L262.50643 280.845831C262.50643 282.152521 262.064409 283.303847 261.183641 284.294903 260.301235 285.290865 259.235473 285.928673 257.986354 286.213234 249.682903 288.144649 241.182998 289.109538 232.481728 289.109538 223.611835 289.109538 215.025163 288.144649 206.723349 286.213234 205.470956 285.928673 204.447758 285.290865 203.653757 284.294903 202.856482 283.303847 202.458663 282.152521 202.458663 280.845831L202.458663 251.619489C202.458663 250.029875 202.97108 248.610342 203.994277 247.359257 205.017475 246.109806 206.268231 245.485081 207.746547 245.485081L210.647516 245.485081 210.647516 231.852336C210.647516 225.320524 212.651345 220.051246 216.660642 216.046137 220.669938 212.041027 225.943088 210.03929 232.481728 210.03929 239.020368 210.03929 244.295155 212.041027 248.304451 216.046137 252.313748 220.051246 254.317577 225.320524 254.317577 231.852336L254.317577 245.485081 256.961519 245.485081C258.439835 245.485081 259.733156 246.082004 260.843121 247.274215 261.951448 248.466427 262.50643 249.830355 262.50643 251.364366L262.50643 251.364366zM746.671125 272.708868C746.671125 276.103971 745.53333 279.0199 743.257739 281.464832 740.980511 283.906494 738.177769 285.298224 734.849513 285.636753L724.660105 307.525028C726.289035 309.832586 727.104318 312.34457 727.104318 315.057709 727.104318 318.655602 725.832279 321.725259 723.28329 324.269951 720.735938 326.814643 717.661435 328.088624 714.061417 328.088624 710.459763 328.088624 707.386897 326.814643 704.837907 324.269951 702.290555 321.725259 701.016879 318.655602 701.016879 315.057709L701.016879 314.854918 687.769339 306.913386C686.274652 307.727819 684.575326 308.238065 682.674635 308.440856L672.48359 330.327495C674.114157 332.635053 674.92944 335.147037 674.92944 337.860175 674.92944 341.459704 673.655764 344.529361 671.108412 347.074053 668.56106 349.618745 665.48492 350.891091 661.884902 350.891091 658.283248 350.891091 655.210382 349.618745 652.66303 347.074053 650.115677 344.529361 648.842001 341.459704 648.842001 337.860175 648.842001 334.468343 649.97816 331.549143 652.255388 329.105847 654.530979 326.66255 657.333721 325.272455 660.661977 324.93229L670.751521 303.045651C669.188076 300.739728 668.407171 298.227745 668.407171 295.511335 668.407171 291.916713 669.680847 288.843785 672.228199 286.299093 674.775552 283.754401 677.850055 282.482055 681.451709 282.482055 685.051727 282.482055 688.12623 283.754401 690.673582 286.299093 693.222571 288.843785 694.49461 291.916713 694.49461 295.511335L694.49461 295.715761 707.743788 303.655657C709.236837 302.841225 710.934526 302.332614 712.838492 302.129824L722.928036 280.241549C721.364591 277.935626 720.582049 275.423642 720.582049 272.708868 720.582049 269.11261 721.857362 266.041318 724.404714 263.496626 726.952067 260.951934 730.02657 259.677953 733.626587 259.677953 737.226605 259.677953 740.301108 260.951934 742.850097 263.496626 745.397449 266.041318 746.671125 269.11261 746.671125 272.708868M487.054041 271.289009L507.085789 255.9489 507.085789 284.104051C507.085789 284.609391 506.917166 285.041138 506.581557 285.397657 506.244311 285.755811 505.821935 285.976591 505.317704 286.061632 496.596788 287.324165 487.749815 287.955432 478.775146 287.955432 469.843043 287.955432 460.974787 287.324165 452.170379 286.061632 451.707075 285.976591 451.305982 285.755811 450.968736 285.397657 450.63149 285.041138 450.464504 284.609391 450.464504 284.104051L450.464504 255.9489 470.496252 271.289009C472.729278 272.973477 475.489455 273.814076 478.775146 273.814076 482.062475 273.814076 484.821015 272.973477 487.054041 271.289009L487.054041 271.289009zM452.676248 249.572452C451.495887 248.435844 450.759185 247.322133 450.464504 246.226411L450.464504 243.32193C450.464504 242.818225 450.63149 242.386477 450.968736 242.028323 451.305982 241.671805 451.707075 241.451025 452.170379 241.365984 460.932222 240.10345 469.802115 239.472184 478.775146 239.472184 487.749815 239.472184 496.596788 240.10345 505.317704 241.365984 505.821935 241.451025 506.244311 241.671805 506.581557 242.028323 506.917166 242.386477 507.085789 242.818225 507.085789 243.32193L507.085789 246.226411C506.791108 247.322133 506.052769 248.435844 504.875682 249.572452L483.326328 265.859461C482.145968 266.786736 480.628361 267.24792 478.775146 267.24792 476.921931 267.24792 475.404325 266.786736 474.225602 265.859461L452.676248 249.572452zM342.353148 196.501072C344.302953 198.407955 346.563809 199.358126 349.138992 199.358126 351.709264 199.358126 353.971758 198.407955 355.9232 196.501072 357.873005 194.595823 358.850363 192.360223 358.850363 189.789365 358.850363 187.220142 357.873005 184.938751 355.9232 182.945191 353.971758 180.951631 351.709264 179.954033 349.138992 179.954033 346.563809 179.954033 344.302953 180.951631 342.353148 182.945191 340.401706 184.938751 339.425985 187.220142 339.425985 189.789365 339.425985 192.360223 340.401706 194.595823 342.353148 196.501072M339.825441 261.956564L358.450907 261.956564C359.69184 261.956564 360.713401 261.557525 361.510676 260.761082 362.309588 259.963004 362.709045 258.945782 362.709045 257.702873L362.709045 253.450817C362.709045 252.211179 362.309588 251.190686 361.510676 250.394243 360.713401 249.596165 359.69184 249.198761 358.450907 249.198761L358.58515 215.174138C358.58515 214.024448 358.162774 213.02685 357.321297 212.18298 356.476545 211.342382 355.479542 210.920447 354.327012 210.920447L339.825441 210.920447C338.581233 210.920447 337.562947 211.321121 336.764035 212.117564 335.966759 212.915642 335.567303 213.9345 335.567303 215.174138L335.567303 219.427829C335.567303 220.669102 335.966759 221.686325 336.764035 222.484403 337.562947 223.280846 338.581233 223.679885 339.825441 223.679885L339.825441 249.198761C338.581233 249.198761 337.562947 249.596165 336.764035 250.394243 335.966759 251.190686 335.567303 252.211179 335.567303 253.450817L335.567303 257.702873C335.567303 258.945782 335.966759 259.963004 336.764035 260.761082 337.562947 261.557525 338.581233 261.956564 339.825441 261.956564M317.141566 168.458764C326.939703 162.743019 337.607149 159.885965 349.138992 159.885965 360.667561 159.885965 371.33337 162.743019 381.134782 168.458764 390.934557 174.172872 398.697759 181.926333 404.417842 191.715873 410.139561 201.508685 412.999602 212.163355 412.999602 223.679885 412.999602 235.199685 410.139561 245.854356 404.417842 255.643897 398.697759 265.435073 390.934557 273.186898 381.134782 278.902642 371.33337 284.616751 360.667561 287.473805 349.138992 287.473805 337.607149 287.473805 326.939703 284.616751 317.141566 278.902642 307.340154 273.186898 299.580225 265.435073 293.858506 255.643897 288.136787 245.854356 285.276745 235.199685 285.276745 223.679885 285.276745 212.163355 288.136787 201.508685 293.858506 191.715873 299.580225 181.926333 307.340154 174.172872 317.141566 168.458764M679.200839 424.668184C679.405478 425.350148 679.267961 426.066456 678.79156 426.815472 678.313522 427.566123 677.699604 427.974975 676.949805 428.042026L676.232748 428.143422C675.75471 428.213744 675.019645 428.298785 674.032465 428.40018 673.04201 428.503211 671.832181 428.604606 670.399705 428.707637 668.965592 428.809032 667.004327 428.895708 664.514274 428.96276 662.022584 429.031447 659.309883 429.100134 656.377809 429.167186 655.76389 428.691283 655.081213 428.231734 654.329777 427.786903 653.578341 427.343708 652.777791 426.86617 651.924854 426.355923 651.07028 425.844041 650.441627 425.453179 650.032348 425.17843 648.938755 424.63384 647.882815 424.020563 646.859618 423.340234 654.023636 413.866327 655.456113 404.459471 651.157047 395.121302 649.451172 391.440003 647.064257 388.578043 643.993028 386.53215 640.923436 384.487892 637.578809 383.226994 633.96242 382.749455 633.96242 380.365033 634.50758 377.910289 635.601173 375.388493 636.896132 372.524897 638.875405 370.413587 641.537355 369.049659 644.197668 367.687365 646.961119 367.003766 649.827709 367.003766 652.692661 367.003766 655.456113 367.687365 658.118063 369.049659 660.778376 370.413587 662.756012 372.524897 664.054244 375.388493 667.328476 382.54503 665.724102 389.873284 659.242761 397.369986 657.263488 399.688991 657.401006 402.107757 659.65204 404.629553 660.33308 405.447256 662.328724 406.811185 665.638972 408.719704 668.947583 410.628223 671.285385 412.059203 672.650739 413.012645 673.400538 413.55887 674.065207 414.052763 674.646383 414.495958 675.224285 414.939153 675.721968 415.451035 676.131247 416.028333 676.540526 416.608903 676.863038 417.052098 677.102057 417.357919 677.341076 417.665375 677.578457 418.193611 677.819113 418.942627 678.056495 419.693279 678.212021 420.205161 678.28078 420.476638 678.347902 420.749751 678.500153 421.413726 678.740809 422.470198 678.978191 423.528306 679.13208 424.259332 679.200839 424.668184L679.200839 424.668184zM638.261486 452.018715C635.737054 452.053058 633.042361 452.069412 630.175772 452.069412 627.310819 452.069412 624.598118 452.053058 622.039307 452.018715 619.480495 451.984371 617.314591 451.933674 615.539957 451.864987 613.765324 451.797935 612.162587 451.711259 610.730111 451.609863 609.297635 451.506833 608.120549 451.421792 607.198853 451.353105 606.278794 451.286053 605.509349 451.217366 604.895431 451.148679 604.281512 451.081627 603.837854 451.045648 603.566093 451.045648L603.053676 450.944253C602.30224 450.877201 601.688321 450.46835 601.21192 449.717699 600.733883 449.104421 600.598002 448.388113 600.802642 447.57041 600.938522 447.094507 601.108782 446.361845 601.313422 445.372425 601.518061 444.384639 601.653942 443.720664 601.722701 443.378865 601.789822 443.0387 601.943711 442.508829 602.184367 441.794156 602.421749 441.077848 602.660768 440.567602 602.901424 440.260145 603.138806 439.954324 603.462955 439.527483 603.872234 438.981258 604.281512 438.436667 604.757913 437.926421 605.30471 437.448882 605.851506 436.972979 606.534184 436.461097 607.352742 435.914871 608.785218 434.892743 611.13939 433.427419 614.415259 431.5189 617.68949 429.610381 619.667126 428.282431 620.35144 427.530144 622.602474 425.009984 622.738355 422.589583 620.760719 420.272212 614.276104 412.775511 612.675005 405.447256 615.949236 398.290719 617.244195 395.427123 619.225105 393.315814 621.885418 391.951885 624.547368 390.589592 627.310819 389.905992 630.175772 389.905992 633.042361 389.905992 635.805813 390.589592 638.466126 391.951885 641.128076 393.315814 643.105712 395.427123 644.402307 398.290719 647.678176 405.447256 646.073802 412.775511 639.592461 420.272212 637.613188 422.589583 637.750706 425.009984 640.00174 427.530144 640.68278 428.349483 642.678424 429.713411 645.988672 431.620295 649.297283 433.528814 651.633447 434.96143 653.000439 435.914871 654.704677 437.141426 655.96853 438.284575 656.787088 439.339412 657.605646 440.397519 658.168813 441.555387 658.474954 442.816285 658.782732 444.078818 659.14126 445.663527 659.550539 447.57041 659.755179 448.321062 659.617661 449.03737 659.14126 449.717699 658.663222 450.46835 658.049304 450.877201 657.297868 450.944253L656.787088 451.045648C656.513689 451.045648 656.070031 451.081627 655.456113 451.148679 654.842194 451.217366 654.074387 451.286053 653.152691 451.353105 652.232632 451.421792 651.037537 451.506833 649.570682 451.609863 648.102189 451.711259 646.483081 451.797935 644.710085 451.864987 642.933815 451.933674 640.785919 451.984371 638.261486 452.018715L638.261486 452.018715zM610.320832 425.17843C609.911553 425.453179 609.279627 425.844041 608.426689 426.355923 607.573752 426.86617 606.771565 427.343708 606.021766 427.786903 605.27033 428.231734 604.58929 428.691283 603.975372 429.167186 601.858581 429.167186 599.844929 429.132842 597.936052 429.064155 596.025538 428.997104 594.388422 428.928417 593.023068 428.85973 591.657713 428.792678 590.429876 428.723991 589.339557 428.655304 588.245964 428.588252 587.343913 428.519565 586.626857 428.450878 585.911437 428.383826 585.312253 428.315139 584.835852 428.246452 584.357814 428.179401 583.981278 428.143422 583.709516 428.143422L583.403376 428.042026C582.65194 427.974975 582.036384 427.566123 581.559983 426.815472 581.081946 426.202195 580.946065 425.485887 581.150704 424.668184 581.286585 424.192281 581.458482 423.459619 581.663122 422.470198 581.867761 421.482413 582.003642 420.818438 582.072401 420.476638 582.139522 420.136474 582.293411 419.608237 582.534067 418.89193 582.771449 418.175622 583.010468 417.665375 583.249487 417.357919 583.488506 417.052098 583.812655 416.626892 584.221934 416.080666 584.631212 415.536076 585.107613 415.024194 585.65441 414.546656 586.199569 414.070752 586.882247 413.55887 587.700804 413.012645 589.134918 411.990516 591.48909 410.525192 594.763322 408.616673 598.03919 406.70979 600.016826 405.380205 600.699503 404.629553 602.952174 402.107757 603.088055 399.688991 601.108782 397.369986 594.625804 389.873284 593.023068 382.54503 596.298936 375.388493 597.593895 372.524897 599.573168 370.413587 602.235118 369.049659 604.895431 367.687365 607.658882 367.003766 610.525472 367.003766 613.390424 367.003766 616.153876 367.687365 618.815826 369.049659 621.476139 370.413587 623.455412 372.524897 624.752007 375.388493 625.842326 377.910289 626.389123 380.365033 626.389123 382.749455 618.201907 383.908958 612.434349 388.033452 609.092996 395.121302 604.861051 404.459471 606.329544 413.866327 613.493563 423.340234 613.220164 423.54466 612.912386 423.749086 612.571866 423.953511 612.229709 424.157937 611.838439 424.378717 611.39478 424.617486 610.951122 424.856255 610.626973 425.042692 610.422333 425.17843L610.320832 425.17843z"/>
    </g>
  </g>
</svg>
