<svg xmlns="http://www.w3.org/2000/svg" width="932" height="636" viewBox="0 0 932 636">
  <defs>
    <filter id="a" width="200%" height="200%" x="-50%" y="-50%" filterUnits="objectBoundingBox">
      <feOffset in="SourceAlpha" result="shadowOffsetOuter1"/>
      <feGaussianBlur stdDeviation="4" in="shadowOffsetOuter1" result="shadowBlurOuter1"/>
      <feColorMatrix values="0 0 0 0 0 0 0 0 0 0 0 0 0 0 0 0 0 0 0.2 0" in="shadowBlurOuter1" result="shadowMatrixOuter1"/>
      <feMerge>
        <feMergeNode in="shadowMatrixOuter1"/>
        <feMergeNode in="SourceGraphic"/>
      </feMerge>
    </filter>
    <filter id="b" width="200%" height="200%" x="-50%" y="-50%" filterUnits="objectBoundingBox">
      <feOffset in="SourceAlpha" result="shadowOffsetOuter1"/>
      <feGaussianBlur stdDeviation="4" in="shadowOffsetOuter1" result="shadowBlurOuter1"/>
      <feColorMatrix values="0 0 0 0 0 0 0 0 0 0 0 0 0 0 0 0 0 0 0.2 0" in="shadowBlurOuter1" result="shadowMatrixOuter1"/>
      <feMerge>
        <feMergeNode in="shadowMatrixOuter1"/>
        <feMergeNode in="SourceGraphic"/>
      </feMerge>
    </filter>
  </defs>
  <g fill="none" fill-rule="evenodd" transform="translate(16)">
    <g fill="#000000" opacity=".1" transform="translate(.528 34.234)">
      <path d="M257.593564,42.3097235 L262.914992,21.4486048 C262.535547,20.5834077 262.192896,19.8467279 261.942233,18.9471065 C259.732254,10.9698515 264.393677,2.75621628 272.387316,0.548471926 C280.380955,-1.65927243 288.61146,2.99489135 290.823739,10.9721464 C290.895029,11.2291811 290.835237,11.522935 290.906527,11.7799697 L318.700291,23.9133838 C320.013401,23.1353949 321.229924,22.5226426 322.777599,22.0957814 C330.771239,19.8880371 339.001743,24.5422008 341.211723,32.517161 C343.424001,40.496711 338.760278,48.7080512 330.766639,50.9157956 C322.773,53.1235399 314.544795,48.4693761 312.332516,40.4921211 C312.261226,40.2350864 312.189937,39.9780517 312.247428,39.6865927 L284.453664,27.5508836 C283.142854,28.3288726 281.79755,28.9783441 280.378656,29.3684861 C279.73245,29.5474924 279.051748,29.5979813 278.410142,29.7746927 L274.059173,46.6265292 L257.593564,42.3097235 Z M232.27884,120.218773 C230.103356,112.370035 234.544011,104.356061 242.337579,101.925706 L248.606469,77.4798713 L265.072078,81.798972 L258.667508,107.252291 C259.773648,108.7486 260.661319,110.442275 261.160346,112.243813 C263.372625,120.221068 258.708902,128.434703 250.715263,130.640152 C242.721624,132.847897 234.491119,128.193733 232.27884,120.218773 L232.27884,120.218773 Z M325.716572,87.7704386 L239.92523,65.1949903 C238.184383,66.9207947 236.043393,68.2059681 233.591949,68.8829791 C225.59831,71.0884285 217.367805,66.4365597 215.155526,58.4593046 C212.945547,50.4820495 217.60697,42.2684143 225.602909,40.06067 C232.821561,38.0663562 240.251782,41.8346683 243.209153,48.4969156 L329.000496,71.0723638 C330.741343,69.3465595 332.882332,68.0613861 335.333776,67.3843751 C343.327415,65.1789257 351.55792,69.8307945 353.767899,77.8080496 C355.980178,85.7853046 351.316455,93.9989398 343.322816,96.2066842 C336.104164,98.198703 328.673943,94.4326858 325.716572,87.7704386 L325.716572,87.7704386 Z"/>
      <path d="M625.683022,471.321379 C627.333141,471.408233 628.700983,472.059633 629.786588,473.275596 C630.872193,474.49156 631.414987,475.924638 631.414987,477.574874 L631.414987,581.278669 C631.414987,583.015759 630.807058,584.492264 629.59118,585.708228 C628.375303,586.924191 626.898902,587.532164 625.161934,587.532164 L604.318423,587.532164 C602.581455,587.532164 601.105055,586.924191 599.889177,585.708228 C598.6733,584.492264 598.06537,583.015759 598.06537,581.278669 L598.06537,477.574874 C598.06537,475.924638 598.608164,474.513273 599.693769,473.340737 C600.779374,472.1682 602.103792,471.495088 603.667064,471.321379 C606.880454,470.973961 610.571456,470.800254 614.740179,470.800254 C618.822053,470.800254 622.469631,470.973961 625.683022,471.321379 L625.683022,471.321379 Z M579.827298,500.504356 C581.477418,500.591211 582.845259,501.24261 583.930864,502.458573 C585.016469,503.674537 585.559264,505.107615 585.559264,506.757851 L585.559264,581.278669 C585.559264,583.015759 584.951334,584.492264 583.735456,585.708228 C582.519579,586.924191 581.043178,587.532164 579.30621,587.532164 L558.462699,587.532164 C556.725732,587.532164 555.249331,586.924191 554.033453,585.708228 C552.817576,584.492264 552.209646,583.015759 552.209646,581.278669 L552.209646,506.757851 C552.209646,505.107615 552.752441,503.69625 553.838045,502.523714 C554.92365,501.351178 556.248069,500.678065 557.81134,500.504356 C561.02473,500.156938 564.715732,499.983232 568.884455,499.983232 C572.966329,499.983232 576.613907,500.156938 579.827298,500.504356 L579.827298,500.504356 Z M671.538746,529.687334 C673.188865,529.774188 674.556707,530.425587 675.642312,531.641551 C676.727917,532.857514 677.270711,534.290593 677.270711,535.940829 L677.270711,581.278669 C677.270711,583.015759 676.662782,584.492264 675.446904,585.708228 C674.231026,586.924191 672.754626,587.532164 671.017658,587.532164 L650.174147,587.532164 C648.437179,587.532164 646.960779,586.924191 645.744901,585.708228 C644.529023,584.492264 643.921094,583.015759 643.921094,581.278669 L643.921094,535.940829 C643.921094,534.290593 644.463888,532.879228 645.549493,531.706691 C646.635098,530.534155 647.959516,529.861043 649.522787,529.687334 C652.736178,529.339915 656.427179,529.166209 660.595902,529.166209 C664.677777,529.166209 668.325355,529.339915 671.538746,529.687334 L671.538746,529.687334 Z" transform="rotate(13 614.74 529.166)"/>
      <path d="M161.865202 163.173853C160.06271 158.436069 162.391056 153.274186 167.145014 151.477827L183.157709 145.41928C187.911667 143.619891 193.088132 145.940315 194.896704 150.678099 196.699196 155.415883 194.37085 160.577765 189.616892 162.374124L173.601158 168.432672C171.345763 169.286927 168.719535 169.141522 166.646517 168.211535 164.5735 167.284577 162.719334 165.418545 161.865202 163.173853L161.865202 163.173853zM133.168193 256.196788L127.092001 240.238574C125.28647 235.497761 127.614815 230.338908 132.368774 228.53952 137.122732 226.740131 142.299197 229.060555 144.104729 233.798339L150.18396 249.759581C151.989492 254.497365 149.658107 259.659248 144.907188 261.455607 142.654832 262.309862 140.022525 262.164457 137.949508 261.23447 135.87953 260.307512 134.022324 258.44148 133.168193 256.196788L133.168193 256.196788zM51.3994965 113.663404L45.3172259 97.7051906C43.5147339 92.9674067 45.8430794 87.8055244 50.597038 86.0061358 55.3509966 84.2097765 60.5305014 86.5302002 62.336033 91.2679841L68.415264 107.229227C70.2177559 111.967011 67.8894105 117.125864 63.1354519 118.925253 60.8800572 119.776478 58.2538294 119.631073 56.1808116 118.704116 54.1077939 117.774129 52.2505888 115.908096 51.3994965 113.663404L51.3994965 113.663404zM47.4723133 223.99258C48.2322172 221.850883 48.7763083 220.648262 48.7763083 220.648262 51.1046538 211.351421 50.004313 203.205704 46.359814 188.75001 42.7153151 174.297346 42.4539081 163.837264 48.043761 151.453593 60.1505495 124.620287 92.145542 111.661054 120.106965 124.19013 148.068388 136.722235 159.570293 169.177873 147.460465 196.011179 141.873651 208.397879 133.849066 215.141042 120.578105 222.014464 107.136926 228.812154 100.291711 233.398474 95.0331767 241.380611 95.0331767 241.380611 94.3158275 242.5075 93.212447 244.491675L47.4723133 223.99258zM39.292708 253.621905C39.7729673 248.875034 41.6848854 241.874382 43.7123089 235.5432L87.0359484 254.960844C83.6315791 260.671025 79.6436035 266.744719 76.5735919 270.331379 68.4790959 279.525224 61.7767437 283.345138 50.557523 278.316544 39.3383023 273.290979 37.5874838 265.678414 39.292708 253.621905L39.292708 253.621905zM.610561437 196.786673C-1.19497016 192.048889 1.1333753 186.887007 5.88733391 185.087618L21.9030679 179.0321C26.6570265 177.232712 31.8334917 179.553135 33.6390232 184.290919 35.4415152 189.028703 33.1131698 194.187556 28.3592112 195.989974L12.3465168 202.045492C10.0941617 202.896718 7.46185473 202.751313 5.38883697 201.824355 3.32189845 200.897397 1.46469339 199.031365.610561437 196.786673L.610561437 196.786673zM758.654556 515.915872C766.78337 520.334268 775.298179 521.23244 784.206626 518.610388 793.113162 515.990243 799.780166 510.627907 804.209548 502.515754 808.635108 494.401694 809.537036 485.902431 806.911509 477.012243 806.374557 475.194922 805.707665 473.526344 804.910835 472.016042L778.35174 479.830711 770.52102 453.322239C768.814618 453.474794 767.052802 453.819952 765.226016 454.355804 756.317569 456.975949 749.654387 462.344006 745.226916 470.454252 740.797534 478.564498 739.899428 487.067575 742.524955 495.953949 745.150482 504.844137 750.525741 511.497475 758.654556 515.915872M844.702662 453.326053C848.321838 456.102568 850.773476 459.659024 852.053755 463.995422 853.335944 468.33182 853.225114 472.702543 851.725086 477.099963 850.930167 479.546576 849.934607 482.195325 848.738406 485.050025 847.540295 487.906632 845.145982 492.538607 841.559291 498.947856 837.968778 505.357105 834.083992 511.158039 829.901111 516.344935 825.71823 521.533738 820.190102 526.709193 813.316725 531.873206 806.447169 537.037218 799.145759 540.755765 791.420137 543.028846 783.694515 545.301927 775.533215 546.102845 766.936239 545.4316 758.339263 544.760354 750.953775 543.440747 744.772131 541.474684 738.594308 539.510529 732.112658 536.7302 725.338646 533.137512 718.562723 529.542916 714.068372 526.964724 711.857502 525.404841 709.648544 523.843051 707.279073 522.153496 704.760554 520.332361 701.215902 517.420453 698.804392 513.791533 697.524113 509.455135 696.241924 505.11683 696.312626 500.820478 697.73813 496.558451 698.684007 493.835331 699.717785 491.117931 700.839462 488.400531 701.961139 485.685039 704.345897 481.02446 707.995647 474.422609 711.643485 467.822665 715.532093 461.932105 719.66147 456.760464 723.790846 451.590731 729.28458 446.396207 736.140759 441.176892 742.996938 435.957578 750.288794 432.212334 758.014416 429.939253 765.74195 427.666172 773.876497 426.874789 782.419968 427.56129 790.961529 428.253511 798.433007 429.658931 804.838222 431.792805 811.241527 433.922865 817.665851 436.720357 824.111194 440.177652 830.556538 443.636854 835.133056 446.30658 837.848394 448.183016 840.559909 450.065173 842.845302 451.777611 844.702662 453.326053"/>
    </g>
    <g filter="url(#a)" transform="matrix(-1 0 0 1 898.117 0)">
      <path fill="#87CAEE" d="M430.430087,124.045877 C423.624597,54.4053808 365.451327,0.000327081214 294.682089,0.000327081214 C224.973702,0.000327081214 167.483109,52.7863288 159.271337,120.923887 C145.740575,115.322622 130.908307,112.228433 115.350796,112.228433 C51.9272963,112.228433 0.512040077,163.589996 0.512040077,226.948898 C0.512040077,286.456419 45.8699681,335.379591 103.935188,341.103513 L283.17644,341.667728 L465.760682,341.667728 C521.03462,341.667728 565.84084,291.336471 565.84084,229.249915 C565.84084,167.163359 521.03462,116.832101 465.760682,116.832101 C453.321876,116.832101 441.416771,119.386606 430.430087,124.045877 Z"/>
      <path fill="#1396DC" fill-opacity=".1" d="M430.430087,124.045877 C423.624597,54.4053808 365.451327,0.000327081214 294.682089,0.000327081214 C224.973702,0.000327081214 167.483109,52.7863288 159.271337,120.923887 C145.740575,115.322622 130.908307,112.228433 115.350796,112.228433 C51.9272963,112.228433 0.512040077,163.589996 0.512040077,226.948898 C0.512040077,284.933856 43.5812804,332.861066 99.5035162,340.573641 C51.6358897,329.276256 16.0122517,286.325586 16.0122517,235.057242 C16.0122517,175.173577 64.6067575,126.628184 124.553024,126.628184 C139.257597,126.628184 153.277856,129.55229 166.065367,134.846099 C173.826933,70.4438081 228.16444,20.5524752 294.0518,20.5524752 C360.941074,20.5524752 415.923605,71.9745482 422.355833,137.796372 C432.740058,133.392223 443.991954,130.978364 455.748082,130.978364 C507.990082,130.978364 550.342265,178.549056 550.342265,237.232332 C550.342265,288.243918 518.335016,330.852787 475.652135,341.121502 C526.281575,335.541497 565.84084,287.586484 565.84084,229.249915 C565.84084,167.163359 521.03462,116.832101 465.760682,116.832101 C453.321876,116.832101 441.416771,119.386606 430.430087,124.045877 Z"/>
      <path fill="#FFFFFF" fill-opacity=".2" d="M179.316182 280.884263C182.683729 284.249929 186.779792 285.932762 191.604372 285.932762 196.425678 285.932762 200.521742 284.249929 203.890926 280.884263 207.258473 277.520233 208.944702 273.428447 208.944702 268.608905 208.944702 263.792634 207.258473 259.700849 203.890926 256.335183 200.521742 252.971153 196.425678 251.286684 191.604372 251.286684 186.779792 251.286684 182.683729 252.971153 179.316182 256.335183 175.946997 259.700849 174.262405 263.792634 174.262405 268.608905 174.262405 273.428447 175.946997 277.520233 179.316182 280.884263M242.456461 263.720677C242.811715 266.909718 242.811715 270.169083 242.456461 273.49877 242.314032 274.704064 241.817986 275.729463 240.968322 276.579875 240.117022 277.430286 239.121656 277.927449 237.988772 278.068094L229.264582 279.131108C227.987632 279.415669 226.925144 280.069831 226.073844 281.096866 225.222543 282.125537 224.796893 283.311206 224.796893 284.657145 224.796893 285.862439 225.116131 286.889474 225.754606 287.73825 225.754606 287.810208 227.525965 290.148839 231.073595 294.752507 231.780829 295.674876 232.13772 296.7199 232.13772 297.88758 232.13772 299.056896 231.74645 300.103555 230.967183 301.022654 228.909328 303.575523 226.605906 305.878174 224.052006 307.932244 223.200706 308.712333 222.13658 309.099924 220.85963 309.099924 219.584317 309.099924 218.554571 308.746677 217.775304 308.038546L210.860127 302.723476C210.008827 302.085668 208.944702 301.768399 207.667752 301.768399 206.320405 301.768399 205.131859 302.211594 204.103751 303.096349 203.075642 303.982739 202.419159 305.099721 202.135938 306.444025L201.071812 314.946501C200.929383 316.079837 200.433337 317.070893 199.582037 317.921305 198.730737 318.771716 197.702628 319.268879 196.497711 319.409524 194.369461 319.55344 192.737256 319.622127 191.604372 319.622127 190.468214 319.622127 188.837647 319.55344 186.709396 319.409524 185.502842 319.268879 184.47637 318.771716 183.62507 317.921305 182.77377 317.070893 182.276087 316.079837 182.135295 314.946501 181.426424 309.350141 181.07117 306.514347 181.07117 306.444025 180.858345 305.099721 180.21987 303.982739 179.155744 303.096349 178.091619 302.211594 176.886702 301.768399 175.539356 301.768399 174.332801 301.768399 173.19828 302.123282 172.134155 302.829777L165.43344 308.038546C164.650899 308.746677 163.624427 309.099924 162.347477 309.099924 161.211319 309.099924 160.148831 308.712333 159.156739 307.932244 156.601201 305.878174 154.296142 303.575523 152.239925 301.022654 151.459021 300.103555 151.071024 299.056896 151.071024 297.88758 151.071024 296.7199 151.424641 295.674876 152.133512 294.752507L157.241313 288.05879C158.02058 287.066098 158.410214 285.932762 158.410214 284.657145 158.410214 283.240883 157.948547 282.001246 157.028488 280.938232 156.105155 279.875218 154.934617 279.273388 153.516875 279.131108L145.218335 278.068094C144.083814 277.927449 143.091722 277.430286 142.240422 276.579875 141.389122 275.729463 140.891439 274.704064 140.750647 273.49877 140.39703 270.309728 140.39703 267.051999 140.750647 263.720677 140.821043 262.58734 141.282709 261.578295 142.134009 260.691905 142.98531 259.80715 144.011781 259.293632 145.218335 259.151352L153.516875 258.088338C154.934617 257.875735 156.105155 257.237927 157.028488 256.174913 157.948547 255.111899 158.410214 253.873897 158.410214 252.456 158.410214 251.250705 158.02058 250.153348 157.241313 249.160656L152.133512 242.465304C151.352608 241.546206 150.979346 240.499546 151.016999 239.330231 151.051379 238.160915 151.459021 237.117526 152.239925 236.195157 154.296142 233.643924 156.601201 231.342907 159.156739 229.287202 160.076798 228.508749 161.124552 228.117886 162.29509 228.117886 163.46399 228.117886 164.510107 228.474405 165.43344 229.1809L172.134155 234.388033C173.19828 235.0978 174.332801 235.451047 175.539356 235.451047 176.886702 235.451047 178.091619 235.009488 179.155744 234.123098 180.21987 233.238343 180.858345 232.121361 181.07117 230.775421L182.135295 222.272945C182.276087 221.141244 182.77377 220.146917 183.62507 219.296506 184.47637 218.44773 185.502842 217.952202 186.709396 217.809922 189.901772 217.455039 193.162906 217.455039 196.497711 217.809922 197.702628 217.952202 198.730737 218.44773 199.582037 219.296506 200.433337 220.146917 200.929383 221.141244 201.071812 222.272945L202.135938 230.775421C202.419159 232.121361 203.075642 233.238343 204.103751 234.123098 205.131859 235.009488 206.320405 235.451047 207.667752 235.451047 208.659844 235.451047 209.723969 235.132143 210.860127 234.494335 213.908437 232.157339 216.215133 230.386195 217.775304 229.1809 218.695363 228.474405 219.743117 228.117886 220.913655 228.117886 222.084193 228.117886 223.128672 228.508749 224.052006 229.287202 226.605906 231.342907 228.909328 233.643924 230.967183 236.195157 231.74645 237.117526 232.13772 238.160915 232.13772 239.330231 232.13772 240.499546 231.780829 241.546206 231.073595 242.465304 227.525965 247.072243 225.754606 249.409238 225.754606 249.479561 225.116131 250.329972 224.796893 251.322663 224.796893 252.456 224.796893 253.801939 225.222543 254.989244 226.073844 256.014643 226.925144 257.043314 227.987632 257.73509 229.264582 258.088338 233.164192 258.583866 236.073346 258.938749 237.988772 259.151352 239.121656 259.293632 240.117022 259.78916 240.968322 260.639572 241.817986 261.489983 242.314032 262.517018 242.456461 263.720677M399.49875 201.134995C404.141611 201.17588 407.95609 202.626485 410.940552 205.483539 413.926651 208.340594 415.418064 212.191975 415.418064 217.037683L406.960724 217.037683C404.888135 217.037683 403.124962 216.313198 401.676114 214.864229 400.223993 213.415259 399.49875 211.655562 399.49875 209.583502L399.49875 201.134995zM423.441568 193.307941C430.032596 200.016377 433.32811 207.926836 433.32811 217.037683L423.750983 217.037683C423.750983 214.015453 423.138701 210.971962 421.917413 207.905576 420.69285 204.84246 419.02463 202.212727 416.911113 200.016377 412.017774 195.005493 406.215836 192.562196 399.49875 192.686487L399.49875 183.243652C408.867964 183.243652 416.848903 186.59787 423.441568 193.307941L423.441568 193.307941zM436.312572 180.69569C440.955432 185.418742 444.593103 190.936602 447.227222 197.252541 449.859704 203.568479 451.197228 210.164072 451.238156 217.037683L441.474397 217.037683C441.474397 205.52606 437.411076 195.648207 429.286071 187.405761 426.715799 184.797288 423.937614 182.581313 420.953152 180.75947 417.96869 178.937628 415.097189 177.632574 412.340286 176.844308 409.583383 176.059313 407.209565 175.519629 405.22047 175.230163 403.229737 174.940696 401.322497 174.795144 399.49875 174.795144L399.49875 165.35231C401.365062 165.35231 403.218277 165.445528 405.063307 165.631964 406.908336 165.818401 409.200298 166.222346 411.935918 166.8438 414.673176 167.465254 417.304021 168.302582 419.833365 169.359055 422.362708 170.415527 425.098329 171.91683 428.0435 173.862963 430.985397 175.810732 433.7423 178.087217 436.312572 180.69569L436.312572 180.69569zM337.118093 281.535809C342.933128 287.346407 349.954717 290.250888 358.182861 290.250888 366.409368 290.250888 373.430957 287.346407 379.247629 281.535809 385.062664 275.726847 387.970182 268.71259 387.970182 260.493039 387.970182 252.275124 385.062664 245.260867 379.247629 239.450269 373.430957 233.641307 366.409368 230.736826 358.182861 230.736826 349.954717 230.736826 342.933128 233.641307 337.118093 239.450269 331.301421 245.260867 328.393903 252.275124 328.393903 260.493039 328.393903 268.71259 331.301421 275.726847 337.118093 281.535809M328.076303 230.416286C336.373205 222.126413 346.408725 217.982294 358.182861 217.982294 369.95536 217.982294 379.992517 222.126413 388.291056 230.416286 396.589596 238.70616 400.738047 248.732834 400.738047 260.493039 400.738047 272.25488 396.589596 282.279919 388.291056 290.568157 379.992517 298.85803 369.95536 303.003785 358.182861 303.003785 351.940539 303.003785 346.055108 301.728168 340.523294 299.17857L314.882787 317.98901C312.612108 319.689833 310.095861 320.326006 307.329135 319.9008 304.564047 319.47723 302.329384 318.131291 300.626784 315.862983 299.279437 314.021515 298.606583 311.983799 298.606583 309.75147 298.606583 307.520776 299.279437 305.484696 300.626784 303.641593L319.456889 278.134164C316.904625 272.608127 315.627675 266.728843 315.627675 260.493039 315.627675 248.732834 319.777763 238.70616 328.076303 230.416286M333.726317 89.6694784C334.556334 87.1149741 335.260294 83.8229017 335.836559 79.7981673 336.412824 75.7717976 336.779538 72.6269117 336.939975 70.3569681 337.098775 68.0902953 337.178994 66.667492 337.178994 66.091829 337.178994 65.2626782 337.48186 64.5447349 338.092504 63.9363638 338.698237 63.3296282 339.418568 63.0254427 340.250223 63.0254427L351.379336 63.0254427C352.209353 63.0254427 352.928047 63.3296282 353.538691 63.9363638 354.144424 64.5447349 354.448927 65.2626782 354.448927 66.091829 354.448927 66.6053466 354.529146 68.0101604 354.689584 70.3095413 354.848384 72.6105576 355.216735 75.7717976 355.792999 79.7981673 356.367627 83.8229017 357.071587 87.1149741 357.903242 89.6694784 358.286327 90.5640455 358.156995 91.4586126 357.520157 92.3531797 356.943892 93.2477468 356.112237 93.6942127 355.025192 93.6942127L336.604366 93.6942127C335.515684 93.6942127 334.685667 93.2477468 334.109402 92.3531797 333.534774 91.5861743 333.405442 90.6916072 333.726317 89.6694784L333.726317 89.6694784zM331.231352 131.264396C329.951128 132.798407 328.353303 133.563777 326.434603 133.563777 325.092168 133.563777 323.811944 133.117311 322.597204 132.222744 321.253132 131.200616 320.486962 129.843228 320.293782 128.148948 320.10224 126.457938 320.549172 124.938646 321.637854 123.597613L334.877209 108.26241C336.091949 106.793815 337.594821 106.02681 339.387463 105.961394 341.240678 105.835467 342.776292 106.440568 343.992669 107.783236L351.474288 115.162188 360.684701 103.949844C361.771746 102.672592 363.146923 101.936659 364.810233 101.745317 366.473542 101.553974 367.976415 101.969367 369.320487 102.991496 370.599074 104.079041 371.334139 105.467501 371.525682 107.160146 371.718861 108.852792 371.301397 110.339376 370.279836 111.616628L356.750712 128.19801C355.59982 129.602824 354.128053 130.369829 352.338685 130.497391 350.547681 130.624953 348.980961 130.018217 347.638526 128.677184L340.153633 121.296596 331.231352 131.264396zM386.109108 74.2394221C386.876916 74.3032029 387.515391 74.6400966 388.027808 75.2451968 388.538588 75.8535679 388.795615 76.538803 388.795615 77.3058085L388.795615 148.611149C388.795615 149.378154 388.556596 150.04867 388.076921 150.622698 387.597247 151.198361 386.971868 151.518901 386.205698 151.581046 385.437891 151.774024 383.231059 152.109282 379.585202 152.588456 375.939346 153.06763 370.774245 153.594231 364.091539 154.169894 357.407196 154.743921 351.315488 155.031753 345.814779 155.031753 340.312433 155.031753 334.220726 154.743921 327.538019 154.169894 320.853676 153.594231 315.688576 153.06763 312.042719 152.588456 308.398499 152.109282 306.191667 151.774024 305.42386 151.581046 304.7199 151.45512 304.112531 151.119861 303.60175 150.575271 303.087696 150.033952 302.833943 149.378154 302.833943 148.611149L302.833943 77.3058085C302.833943 76.538803 303.087696 75.8535679 303.60175 75.2451968 304.112531 74.6400966 304.752643 74.3032029 305.52045 74.2394221 312.618984 73.4102712 320.870047 72.7708274 330.272003 72.3227262 329.951128 76.7955618 329.409243 80.6927344 328.641435 84.0142442 322.756004 84.2710029 318.245751 84.5899071 315.113948 84.9725921L315.113948 141.135707C329.248805 142.605937 339.482416 143.340235 345.814779 143.340235 356.880044 143.340235 367.113655 142.605937 376.51561 141.135707L376.51561 84.9725921C373.316686 84.5899071 368.808069 84.2710029 362.988123 84.0142442 362.156468 80.3721949 361.644051 76.4766576 361.452509 72.3227262 370.790617 72.7708274 379.010575 73.4102712 386.109108 74.2394221L386.109108 74.2394221zM287.046909 262.010042C290.383351 260.405709 293.154988 258.15539 295.366731 255.263992 297.576837 252.372594 298.984757 249.041272 299.587215 245.266755L290.845017 245.266755C290.362068 251.971919 289.096578 257.55356 287.046909 262.010042L287.046909 262.010042zM299.528279 237.555815C298.924183 233.782933 297.527724 230.500673 295.337263 227.709035 293.145165 224.919032 290.383351 222.740671 287.046909 221.173952 289.135869 225.751454 290.383351 231.212075 290.784444 237.555815L299.528279 237.555815zM284.332571 237.555815C284.172134 235.025842 283.861082 232.647961 283.397778 230.418903 282.936111 228.19148 282.433517 226.364731 281.891631 224.938657 281.349746 223.512583 280.765296 222.279487 280.143192 221.234462 279.519451 220.191073 278.975928 219.437151 278.515899 218.975967 278.052595 218.514782 277.68097 218.282554 277.399386 218.282554 277.117802 218.282554 276.746177 218.514782 276.28451 218.975967 275.821206 219.437151 275.279321 220.191073 274.657217 221.234462 274.031839 222.279487 273.450663 223.512583 272.90714 224.938657 272.365255 226.364731 271.862661 228.19148 271.400994 230.418903 270.93769 232.647961 270.626638 235.025842 270.466201 237.555815L284.332571 237.555815zM275.22857 261.980605C276.194469 263.445928 276.918074 264.17859 277.399386 264.17859 277.882335 264.17859 278.60594 263.445928 279.570201 261.980605 280.534463 260.515281 281.520006 258.245337 282.525195 255.174045 283.528747 252.102752 284.152488 248.799232 284.393144 245.266755L270.405628 245.266755C270.646284 248.799232 271.270025 252.102752 272.275214 255.174045 273.278766 258.245337 274.264309 260.515281 275.22857 261.980605L275.22857 261.980605zM255.27213 237.555815L264.014328 237.555815C264.415421 231.212075 265.661266 225.751454 267.751863 221.173952 264.415421 222.740671 261.65197 224.919032 259.461509 227.709035 257.271048 230.500673 255.874588 233.782933 255.27213 237.555815L255.27213 237.555815zM267.751863 262.010042C265.702194 257.55356 264.436704 251.971919 263.953755 245.266755L255.211557 245.266755C255.814015 249.041272 257.221935 252.372594 259.432041 255.263992 261.642147 258.15539 264.415421 260.405709 267.751863 262.010042L267.751863 262.010042zM291.89932 266.437086C287.457825 269.027569 282.625059 270.322811 277.399386 270.322811 272.173713 270.322811 267.33931 269.027569 262.899452 266.437086 258.457957 263.848238 254.939795 260.333751 252.348241 255.896894 249.75505 251.460037 248.458454 246.632319 248.458454 241.412102 248.458454 236.191886 249.75505 231.362532 252.348241 226.925675 254.939795 222.488819 258.457957 218.975967 262.899452 216.385483 267.33931 213.796636 272.173713 212.501394 277.399386 212.501394 282.625059 212.501394 287.457825 213.796636 291.89932 216.385483 296.340815 218.975967 299.858976 222.488819 302.452168 226.925675 305.043722 231.362532 306.340318 236.191886 306.340318 241.412102 306.340318 246.632319 305.043722 251.460037 302.452168 255.896894 299.858976 260.333751 296.340815 263.848238 291.89932 266.437086L291.89932 266.437086zM77.9405739 221.093C79.0832807 222.234513 80.4830146 222.80527 82.1414129 222.80527 83.798174 222.80527 85.199545 222.234513 86.3422518 221.093 87.4849586 219.951486 88.0563119 218.553214 88.0563119 216.896548 88.0563119 215.241517 87.4849586 213.841609 86.3422518 212.700096 85.199545 211.558582 83.798174 210.987826 82.1414129 210.987826 80.4830146 210.987826 79.0832807 211.558582 77.9405739 212.700096 76.7978672 213.841609 76.2265138 215.241517 76.2265138 216.896548 76.2265138 218.553214 76.7978672 219.951486 77.9405739 221.093M94.5753067 209.982051L99.0790121 205.5501C94.4623457 200.849943 88.8175707 198.499865 82.1414129 198.499865 75.465255 198.499865 69.8188428 200.849943 65.2054508 205.5501L69.707519 209.982051C73.1127197 206.490459 77.2578967 204.743845 82.1414129 204.743845 87.024929 204.743845 91.170106 206.490459 94.5753067 209.982051M103.715324 200.782892L108.151907 196.419628C104.790909 192.972192 100.870017 190.286856 96.3908681 188.361983 91.9084452 186.438745 87.1591725 185.475491 82.1414129 185.475491 77.1220161 185.475491 72.3727434 186.438745 67.8935948 188.361983 63.4111719 190.286856 59.4919169 192.972192 56.1309183 196.419628L60.5675019 200.782892C66.524966 194.740066 73.7168154 191.719471 82.1414129 191.719471 86.2636702 191.719471 90.1845624 192.514279 93.9024522 194.102258 97.6219791 195.691873 100.892936 197.919296 103.715324 200.782892M113.32683 190.712061L113.32683 223.341683C113.32683 224.237886 113.012504 224.998349 112.387126 225.62471 111.758473 226.252706 110.997214 226.565068 110.101712 226.565068L54.1827506 226.565068C53.2856112 226.565068 52.5243524 226.252706 51.8973371 225.62471 51.2686847 224.998349 50.9559955 224.237886 50.9559955 223.341683L50.9559955 190.712061C50.9559955 189.771703 51.3145239 188.989979 52.0315806 188.361983L79.9902428 162.110444C80.6172581 161.529875 81.3457746 161.237138 82.1741552 161.237138 83.0041728 161.237138 83.7097697 161.529875 84.2925829 162.110444L112.251245 188.361983C112.968302 188.989979 113.32683 189.771703 113.32683 190.712061M280.281037 63.3082044C280.996457 63.3981517 281.602189 63.7448578 282.094961 64.3483226 282.587733 64.9534229 282.834938 65.6811786 282.834938 66.5315897L282.834938 98.4890598C282.834938 99.3852623 282.554991 100.145726 281.995097 100.772087 281.435204 101.400083 280.773809 101.712445 280.01255 101.712445L270.602409 101.712445C269.84115 101.712445 269.179755 101.400083 268.619862 100.772087 268.059968 100.145726 267.780021 99.3852623 267.780021 98.4890598L267.780021 66.5315897C267.780021 65.6811786 268.025589 64.9436104 268.518361 64.3156145 269.01277 63.689254 269.616865 63.3539957 270.333922 63.3082044 271.768035 63.1299451 273.426434 63.0399978 275.307479 63.0399978 277.144323 63.0399978 278.802722 63.1299451 280.281037 63.3082044L280.281037 63.3082044zM258.774248 74.0511868C259.489667 74.1411342 260.0954 74.4862049 260.588172 75.0913051 261.080944 75.6964054 261.328148 76.4241611 261.328148 77.2745722L261.328148 98.4890598C261.328148 99.3852623 261.046564 100.145726 260.488308 100.772087 259.926777 101.400083 259.26702 101.712445 258.505761 101.712445L249.09562 101.712445C248.332724 101.712445 247.672966 101.400083 247.113073 100.772087 246.551542 100.145726 246.273232 99.3852623 246.273232 98.4890598L246.273232 77.2745722C246.273232 76.4241611 246.5188 75.6849575 247.011571 75.058597 247.504343 74.4322365 248.110076 74.0953428 248.827133 74.0511868 250.261246 73.8712922 251.918007 73.7813448 253.80069 73.7813448 255.637534 73.7813448 257.294295 73.8712922 258.774248 74.0511868L258.774248 74.0511868zM237.267459 80.4963222C237.982878 80.5862695 238.588611 80.9329756 239.081383 81.5364404 239.574155 82.1415407 239.821359 82.8692964 239.821359 83.7180721L239.821359 98.4890598C239.821359 99.3852623 239.539775 100.145726 238.979882 100.772087 238.419988 101.400083 237.758593 101.712445 236.998972 101.712445L227.588831 101.712445C226.825935 101.712445 226.166177 101.400083 225.606283 100.772087 225.044753 100.145726 224.766443 99.3852623 224.766443 98.4890598L224.766443 83.7180721C224.766443 82.8692964 225.01201 82.1300928 225.504782 81.5020969 225.997554 80.8773718 226.60165 80.5421135 227.318706 80.4963222 228.75282 80.3180629 230.411218 80.2281156 232.293901 80.2281156 234.130745 80.2281156 235.787506 80.3180629 237.267459 80.4963222L237.267459 80.4963222zM257.497298 65.187286C256.600158 65.8594378 255.603155 66.1390923 254.506287 66.0278847 253.407783 65.9166771 252.477901 65.457128 251.716642 64.6508728L243.987819 56.1909172 237.535946 62.7717912C237.62435 63.3082044 237.670189 63.7563056 237.670189 64.1144596 237.670189 66.1734358 236.93185 67.9413098 235.451897 69.4180815 233.973582 70.8948531 232.202223 71.6340567 230.142731 71.6340567 228.081602 71.6340567 226.31188 70.8948531 224.833565 69.4180815 223.355249 67.9413098 222.615273 66.1734358 222.615273 64.1144596 222.615273 62.0554833 223.355249 60.2876094 224.833565 58.8108377 226.31188 57.3324306 228.081602 56.5948625 230.142731 56.5948625 230.367016 56.5948625 230.792666 56.6390184 231.419681 56.7289658L241.029551 47.1274967C241.972529 46.2770856 243.023558 45.85188 244.189184 45.85188 245.443215 45.9418273 246.474597 46.4111889 247.281696 47.2616L255.413249 55.9897622 269.931191 45.0456248 269.931191 44.7774182C269.931191 42.7200774 270.669531 40.950568 272.149483 39.4737963 273.627799 37.9970246 275.397521 37.2578211 277.45865 37.2578211 279.518141 37.2578211 281.2895 37.9970246 282.767816 39.4737963 284.246131 40.950568 284.986108 42.7200774 284.986108 44.7774182 284.986108 46.8363944 284.246131 48.6042684 282.767816 50.0826755 281.2895 51.5594472 279.518141 52.2970153 277.45865 52.2970153 276.605712 52.2970153 275.846091 52.162912 275.173236 51.8947054L257.497298 65.187286zM114.974915 292.029556L123.577958 292.029556 123.577958 246.911973 114.974915 246.911973 114.974915 292.029556zM110.674212 273.969766C109.150057 270.926276 106.998887 268.329251 104.222339 266.181963L104.222339 246.911973 110.674212 246.911973 110.674212 273.969766zM99.9216355 263.697781C97.141813 262.489216 94.2752234 261.884116 91.3185924 261.884116 90.8700227 261.884116 90.1513289 261.929907 89.1674224 262.018219L89.1674224 246.911973 99.9216355 246.911973 99.9216355 263.697781zM84.8650823 246.911973L84.8650823 262.891526C83.4309689 263.339627 81.9968555 263.988883 80.5643793 264.837659L80.5643793 246.911973 84.8650823 246.911973zM83.6225114 291.123541C85.794964 293.29536 88.3603243 294.379634 91.3185924 294.379634 94.2752234 294.379634 96.8389466 293.29536 99.0130363 291.123541 101.187126 288.953357 102.272534 286.369415 102.272534 283.370081 102.272534 280.414902 101.187126 277.85222 99.0130363 275.682037 96.8389466 273.511853 94.2752234 272.425943 91.3185924 272.425943 88.3603243 272.425943 85.794964 273.511853 83.6225114 275.682037 81.4484218 277.85222 80.363014 280.414902 80.363014 283.370081 80.363014 286.369415 81.4484218 288.953357 83.6225114 291.123541L83.6225114 291.123541zM76.2620392 268.061044C74.4251953 269.897605 72.991082 271.91079 71.9613362 274.10387L71.9613362 246.911973 76.2620392 246.911973 76.2620392 268.061044zM72.835556 306.465285C72.341147 306.779283 71.6928492 306.857783 70.8857512 306.700784 70.0802902 306.543785 69.4303553 306.219974 68.9375835 305.726082 68.4431745 305.189668 68.1304854 304.5306 67.9962419 303.745605 67.8619984 302.963881 67.9504027 302.303177 68.2647289 301.765128 70.2358162 298.677481 72.9026777 295.319993 76.2620392 291.694297 74.8279258 289.054752 74.1125062 286.302364 74.1125062 283.437132 74.1125062 278.692819 75.792187 274.641918 79.1531855 271.28443 82.512547 267.926941 86.5676826 266.249014 91.3185924 266.249014 96.066228 266.249014 100.109904 267.926941 103.44962 271.28443 106.786062 274.641918 108.45592 278.692819 108.45592 283.437132 108.45592 288.181445 106.786062 292.230711 103.44962 295.588199 100.109904 298.945688 96.066228 300.623615 91.3185924 300.623615 88.4045265 300.623615 85.6279782 299.908942 82.9840363 298.474691 78.9059811 302.057866 75.5237 304.720307 72.835556 306.465285L72.835556 306.465285zM59.0575901 292.029556L67.6606332 292.029556 67.6606332 246.911973 59.0575901 246.911973 59.0575901 292.029556zM159.061786 172.819738L170.637831 172.819738 170.637831 163.18229C170.637831 159.327637 168.709309 157.401129 164.84899 157.401129 160.990308 157.401129 159.061786 159.327637 159.061786 163.18229L159.061786 172.819738zM186.072558 176.975304L186.072558 197.815284C186.072558 198.739288 185.761506 199.552085 185.137765 200.253674 184.514024 200.958534 183.760951 201.408271 182.876908 201.609426 177.007848 202.97499 170.999634 203.656954 164.84899 203.656954 158.578837 203.656954 152.510049 202.97499 146.640989 201.609426 145.756947 201.408271 145.033341 200.958534 144.470174 200.253674 143.907006 199.552085 143.627059 198.739288 143.627059 197.815284L143.627059 177.156834C143.627059 176.031675 143.987224 175.029171 144.71083 174.144416 145.434435 173.262933 146.318477 172.819738 147.364594 172.819738L149.414263 172.819738 149.414263 163.18229C149.414263 158.565538 150.832005 154.840083 153.665853 152.009195 156.4997 149.178307 160.225775 147.763681 164.84899 147.763681 169.470568 147.763681 173.199917 149.178307 176.033765 152.009195 178.867612 154.840083 180.283717 158.565538 180.283717 163.18229L180.283717 172.819738 182.153303 172.819738C183.19942 172.819738 184.112931 173.241672 184.897109 174.083906 185.681288 174.927776 186.072558 175.89103 186.072558 176.975304L186.072558 176.975304zM528.321585 192.063724C528.321585 194.462865 527.516124 196.525112 525.908477 198.252101 524.297555 199.97909 522.318282 200.963604 519.965747 201.202373L512.762438 216.673315C513.91333 218.30545 514.489595 220.081501 514.489595 221.999832 514.489595 224.542889 513.589181 226.713073 511.788354 228.512019 509.987526 230.310966 507.815074 231.210439 505.269359 231.210439 502.723644 231.210439 500.551191 230.310966 498.750364 228.512019 496.949537 226.713073 496.049123 224.542889 496.049123 221.999832L496.049123 221.855917 486.684821 216.243203C485.627245 216.818866 484.427239 217.17702 483.083167 217.320936L475.879858 232.793512C477.032387 234.424012 477.607015 236.200063 477.607015 238.118395 477.607015 240.661451 476.708238 242.831635 474.907411 244.630582 473.104946 246.429528 470.932494 247.329002 468.388416 247.329002 465.841064 247.329002 463.668611 246.429528 461.867784 244.630582 460.066957 242.831635 459.166543 240.661451 459.166543 238.118395 459.166543 235.719254 459.970367 233.657007 461.579652 231.930018 463.188937 230.203029 465.169847 229.22015 467.522382 228.979745L474.655295 213.507169C473.548605 211.878304 472.998534 210.102253 472.998534 208.182286 472.998534 205.640865 473.898948 203.469046 475.698138 201.6701 477.500602 199.871153 479.673055 198.97168 482.21877 198.97168 484.762847 198.97168 486.936937 199.871153 488.737764 201.6701 490.538592 203.469046 491.439005 205.640865 491.439005 208.182286L491.439005 208.326202 500.803307 213.938916C501.859247 213.363253 503.06089 213.003464 504.404962 212.859548L511.537875 197.388606C510.431185 195.758107 509.879477 193.982056 509.879477 192.063724 509.879477 189.520668 510.77989 187.350484 512.580718 185.551537 514.381545 183.752591 516.555635 182.853117 519.10135 182.853117 521.645427 182.853117 523.819517 183.752591 525.620344 185.551537 527.421172 187.350484 528.321585 189.520668 528.321585 192.063724M344.801568 191.06073L358.960982 180.217987 358.960982 200.119244C358.960982 200.475762 358.84311 200.781583 358.604091 201.035071 358.366709 201.286924 358.068754 201.443923 357.711863 201.502797 351.546485 202.395729 345.292703 202.842195 338.94888 202.842195 332.634524 202.842195 326.366008 202.395729 320.141694 201.502797 319.814271 201.443923 319.53105 201.286924 319.293668 201.035071 319.054649 200.781583 318.936777 200.475762 318.936777 200.119244L318.936777 180.217987 333.097828 191.06073C334.67437 192.251305 336.625812 192.844958 338.94888 192.844958 341.271947 192.844958 343.221752 192.251305 344.801568 191.06073L344.801568 191.06073zM320.500223 175.709173C319.665294 174.906189 319.144691 174.119558 318.936777 173.344376L318.936777 171.291941C318.936777 170.935423 319.054649 170.629602 319.293668 170.377749 319.53105 170.124261 319.814271 169.968898 320.141694 169.908388 326.33654 169.017091 332.605056 168.570625 338.94888 168.570625 345.292703 168.570625 351.546485 169.017091 357.711863 169.908388 358.068754 169.968898 358.366709 170.124261 358.604091 170.377749 358.84311 170.629602 358.960982 170.935423 358.960982 171.291941L358.960982 173.344376C358.753068 174.119558 358.232466 174.906189 357.399174 175.709173L342.165812 187.222432C341.330883 187.87823 340.260209 188.205311 338.94888 188.205311 337.639187 188.205311 336.566876 187.87823 335.731947 187.222432L320.500223 175.709173zM242.515397 138.193448C243.893848 139.541023 245.491673 140.213175 247.312146 140.213175 249.129344 140.213175 250.728806 139.541023 252.107258 138.193448 253.487346 136.847509 254.178209 135.266071 254.178209 133.449135 254.178209 131.633835 253.487346 130.019689 252.107258 128.611604 250.728806 127.201884 249.129344 126.497024 247.312146 126.497024 245.491673 126.497024 243.893848 127.201884 242.515397 128.611604 241.135308 130.019689 240.446083 131.633835 240.446083 133.449135 240.446083 135.266071 241.135308 136.847509 242.515397 138.193448M240.729304 184.462357L253.894988 184.462357C254.772482 184.462357 255.49445 184.181067 256.057618 183.616852 256.622423 183.054272 256.905644 182.334694 256.905644 181.45648L256.905644 178.450604C256.905644 177.574026 256.622423 176.852812 256.057618 176.290233 255.49445 175.726018 254.772482 175.444728 253.894988 175.444728L253.988304 151.392811C253.988304 150.580014 253.690349 149.875154 253.096076 149.279866 252.498528 148.686214 251.792932 148.386934 250.979285 148.386934L240.729304 148.386934C239.850172 148.386934 239.129841 148.668224 238.565037 149.232439 238.001869 149.796654 237.718648 150.517868 237.718648 151.392811L237.718648 154.400322C237.718648 155.2769 238.001869 155.996479 238.565037 156.560694 239.129841 157.124909 239.850172 157.406199 240.729304 157.406199L240.729304 175.444728C239.850172 175.444728 239.129841 175.726018 238.565037 176.290233 238.001869 176.852812 237.718648 177.574026 237.718648 178.450604L237.718648 181.45648C237.718648 182.334694 238.001869 183.054272 238.565037 183.616852 239.129841 184.181067 239.850172 184.462357 240.729304 184.462357M224.693755 118.370691C231.620392 114.331238 239.160947 112.311512 247.312146 112.311512 255.461708 112.311512 263.002263 114.331238 269.930537 118.370691 276.857173 122.410144 282.344785 127.892025 286.388461 134.811429 290.432137 141.732467 292.453975 149.265147 292.453975 157.406199 292.453975 165.548886 290.432137 173.081566 286.388461 180.000969 282.344785 186.922008 276.857173 192.402253 269.930537 196.441706 263.002263 200.481159 255.461708 202.500886 247.312146 202.500886 239.160947 202.500886 231.620392 200.481159 224.693755 196.441706 217.765481 192.402253 212.279507 186.922008 208.235831 180.000969 204.190518 173.081566 202.16868 165.548886 202.16868 157.406199 202.16868 149.265147 204.190518 141.732467 208.235831 134.811429 212.279507 127.892025 217.765481 122.410144 224.693755 118.370691M480.627821 299.481447C480.771887 299.963892 480.675297 300.469232 480.338051 300.999104 480.000805 301.528975 479.56697 301.818442 479.036544 301.865869L478.530675 301.937827C478.191792 301.986889 477.672827 302.047399 476.975415 302.119357 476.27473 302.191315 475.418518 302.263273 474.406781 302.336866 473.393406 302.408824 472.006769 302.469334 470.24687 302.516761 468.485333 302.565823 466.568271 302.614885 464.494045 302.660676 464.06021 302.325418 463.57726 301.999972 463.046835 301.685974 462.516409 301.373612 461.949967 301.035083 461.347509 300.673658 460.743413 300.312233 460.298118 300.03585 460.008348 299.842872 459.237267 299.456916 458.489105 299.023533 457.7655 298.541089 462.830736 291.845736 463.84411 285.196175 460.805623 278.595676 459.599069 275.993745 457.911203 273.969112 455.740387 272.523413 453.569572 271.077714 451.205577 270.186418 448.650039 269.849524 448.650039 268.163421 449.036399 266.42989 449.80748 264.645662 450.722628 262.622665 452.122362 261.129539 454.003408 260.16465 455.884454 259.201395 457.83917 258.720586 459.864282 258.720586 461.889394 258.720586 463.84411 259.201395 465.723519 260.16465 467.604565 261.129539 469.004299 262.622665 469.919447 264.645662 472.235965 269.703973 471.101444 274.88494 466.520794 280.185291 465.121061 281.823968 465.21765 283.534602 466.810564 285.31556 467.291876 285.894493 468.701433 286.859383 471.042508 288.206958 473.380309 289.556168 475.032159 290.568484 475.998057 291.242271 476.528483 291.628227 476.998335 291.978204 477.409251 292.290567 477.81853 292.604564 478.168873 292.965989 478.457005 293.374841 478.746775 293.785328 478.975971 294.09769 479.144594 294.313564 479.313217 294.531073 479.48184 294.903945 479.650463 295.433817 479.819085 295.965324 479.928772 296.326749 479.977886 296.518091 480.023725 296.711069 480.133412 297.180431 480.302035 297.927811 480.470657 298.675192 480.580344 299.19198 480.627821 299.481447L480.627821 299.481447zM451.688526 318.813582C449.90407 318.838113 447.998467 318.851196 445.973355 318.851196 443.948243 318.851196 442.029543 318.838113 440.222168 318.813582 438.413155 318.790686 436.880814 318.754708 435.628421 318.705645 434.372753 318.658219 433.239869 318.597709 432.228132 318.525751 431.214757 318.453793 430.383102 318.393283 429.73153 318.344221 429.079958 318.296794 428.538073 318.249367 428.104237 318.200305 427.668764 318.152878 427.354438 318.128347 427.162895 318.128347L426.801093 318.054754C426.26903 318.008962 425.835195 317.719495 425.499586 317.187989 425.160703 316.754606 425.06575 316.24763 425.209816 315.670332 425.306406 315.333438 425.425916 314.815014 425.571619 314.116696 425.715685 313.418378 425.812275 312.949016 425.859751 312.706976 425.908865 312.466571 426.016914 312.092063 426.187175 311.586723 426.35416 311.081382 426.522783 310.719958 426.693043 310.502449 426.861666 310.286575 427.090862 309.98566 427.380632 309.599704 427.668764 309.215384 428.00601 308.852324 428.392369 308.51543 428.778729 308.178536 429.261678 307.817112 429.83958 307.431156 430.852954 306.708306 432.516264 305.673094 434.831146 304.323884 437.146027 302.974674 438.544124 302.035951 439.027073 301.504444 440.619987 299.723487 440.716577 298.012852 439.316843 296.374175 434.734556 291.073824 433.601672 285.894493 435.916553 280.834547 436.833338 278.81155 438.233072 277.318424 440.112481 276.353534 441.993527 275.391916 443.948243 274.909471 445.973355 274.909471 447.998467 274.909471 449.953183 275.391916 451.834229 276.353534 453.715275 277.318424 455.113372 278.81155 456.030157 280.834547 458.345039 285.894493 457.210517 291.073824 452.62823 296.374175 451.230134 298.012852 451.326723 299.723487 452.919637 301.504444 453.400949 302.083378 454.810506 303.048268 457.151581 304.395842 459.489382 305.745052 461.141232 306.757369 462.10713 307.431156 463.312048 308.299557 464.204276 309.105812 464.783815 309.853192 465.363354 310.600573 465.759536 311.418276 465.977272 312.309572 466.195008 313.202504 466.447124 314.322757 466.736894 315.670332 466.882597 316.201839 466.78437 316.707179 466.447124 317.187989 466.109878 317.719495 465.676043 318.008962 465.145617 318.054754L464.783815 318.128347C464.590635 318.128347 464.277946 318.152878 463.84411 318.200305 463.408637 318.249367 462.866752 318.296794 462.21518 318.344221 461.563608 318.393283 460.720493 318.453793 459.684199 318.525751 458.646268 318.597709 457.500287 318.658219 456.246256 318.705645 454.992226 318.754708 453.472982 318.790686 451.688526 318.813582L451.688526 318.813582zM431.938362 299.842872C431.648593 300.03585 431.20166 300.312233 430.599201 300.673658 429.995106 301.035083 429.430301 301.373612 428.898238 301.685974 428.367813 301.999972 427.886501 302.325418 427.452665 302.660676 425.956341 302.660676 424.533688 302.637781 423.184704 302.588719 421.832447 302.541292 420.675006 302.493865 419.710745 302.444803 418.746484 302.397376 417.877175 302.348314 417.106094 302.300887 416.335012 302.251825 415.6949 302.204398 415.189031 302.155336 414.683162 302.107909 414.259149 302.060482 413.923541 302.01142 413.584658 301.963993 413.319445 301.937827 413.127902 301.937827L412.910166 301.865869C412.379741 301.818442 411.944268 301.528975 411.608659 300.999104 411.269776 300.565721 411.173186 300.060381 411.31889 299.481447 411.415479 299.144553 411.534989 298.62613 411.680692 297.927811 411.824758 297.229493 411.921348 296.760131 411.970462 296.518091 412.016301 296.277687 412.125988 295.903179 412.294611 295.397838 412.463233 294.892498 412.631856 294.531073 412.802116 294.313564 412.970739 294.09769 413.199936 293.796776 413.489705 293.41082 413.779475 293.024864 414.115083 292.665075 414.501443 292.326545 414.887802 291.989652 415.370751 291.628227 415.948653 291.242271 416.962027 290.519422 418.625337 289.48421 420.941856 288.135 423.256737 286.78579 424.654834 285.847067 425.136146 285.31556 426.72906 283.534602 426.82565 281.823968 425.425916 280.185291 420.843629 274.88494 419.710745 269.703973 422.025626 264.645662 422.942411 262.622665 424.342145 261.129539 426.223191 260.16465 428.104237 259.201395 430.057316 258.720586 432.082428 258.720586 434.10754 258.720586 436.062257 259.201395 437.943302 260.16465 439.824348 261.129539 441.222445 262.622665 442.13923 264.645662 442.910312 266.42989 443.296671 268.163421 443.296671 269.849524 437.509467 270.668863 433.431412 273.584792 431.070691 278.595676 428.078043 285.196175 429.115975 291.845736 434.179573 298.541089 433.988031 298.68664 433.770295 298.830555 433.529639 298.974471 433.287345 299.120022 433.010673 299.277021 432.697984 299.445468 432.383658 299.61555 432.154461 299.746383 432.010395 299.842872L431.938362 299.842872z"/>
    </g>
    <g filter="url(#b)" transform="translate(1.247 71.322)">
      <path fill="#D2ECF3" d="M609.189471,175.484683 C599.561594,76.9678208 517.265424,0.00397578637 417.150886,0.00397578637 C318.535947,0.00397578637 237.207312,74.6782523 225.590339,171.070722 C206.450819,163.145544 185.46627,158.769197 163.458523,158.769197 C73.7347594,158.769197 0.999345154,231.428653 0.999345154,321.058718 C0.999345154,405.242881 65.1677328,474.451631 147.308377,482.550162 L400.874682,483.346604 L659.168977,483.346604 C737.360898,483.346604 800.750019,412.14593 800.750019,324.314812 C800.750019,236.482058 737.360898,165.281384 659.168977,165.281384 C641.573257,165.281384 624.730611,168.893996 609.189471,175.484683 Z"/>
      <path fill="#1396DC" fill-opacity=".1" d="M609.189471,175.484683 C599.561594,76.9678208 517.265424,0.00397578637 417.150886,0.00397578637 C318.535947,0.00397578637 237.207312,74.6782523 225.590339,171.070722 C206.450819,163.145544 185.46627,158.769197 163.458523,158.769197 C73.7347594,158.769197 0.999345154,231.428653 0.999345154,321.058718 C0.999345154,403.087416 61.9278808,470.888081 141.039861,481.797875 C73.3238433,465.816687 22.9268731,405.05808 22.9268731,332.529457 C22.9268731,247.813787 91.6742734,179.139815 176.476868,179.139815 C197.279697,179.139815 217.111717,183.275757 235.201845,190.764281 C246.181981,99.6574447 323.051112,29.0798603 416.258658,29.0798603 C510.883947,29.0798603 588.666589,101.822722 597.765678,194.937838 C612.455517,188.708576 628.37483,185.293848 645.004652,185.293848 C718.910604,185.293848 778.822491,252.590808 778.822491,335.605655 C778.822491,407.771219 733.544781,468.047381 673.161405,482.574693 C744.785218,474.680588 800.750019,406.840673 800.750019,324.314812 C800.750019,236.482058 737.360898,165.281384 659.168977,165.281384 C641.573257,165.281384 624.730611,168.893996 609.189471,175.484683 Z"/>
      <path fill="#13A1DC" fill-opacity=".2" d="M253.947312 397.360388C258.711318 402.12269 264.506708 404.502206 271.330206 404.502206 278.152067 404.502206 283.947457 402.12269 288.713101 397.360388 293.477108 392.601356 295.862385 386.812018 295.862385 379.995646 295.862385 373.180909 293.477108 367.391571 288.713101 362.630904 283.947457 357.871873 278.152067 355.489086 271.330206 355.489086 264.506708 355.489086 258.711318 357.871873 253.947312 362.630904 249.180031 367.391571 246.798027 373.180909 246.798027 379.995646 246.798027 386.812018 249.180031 392.601356 253.947312 397.360388M343.271619 373.079514C343.77094 377.589964 343.77094 382.200173 343.271619 386.911778 343.068617 388.615871 342.367931 390.068112 341.163014 391.271771 339.959734 392.473794 338.553452 393.175383 336.949078 393.374903L324.6085 394.879477C322.802762 395.281786 321.296615 396.209062 320.093335 397.661302 318.888418 399.115178 318.287596 400.79474 318.287596 402.696718 318.287596 404.402446 318.73944 405.854687 319.641491 407.05671 319.641491 407.158105 322.147915 410.466532 327.167312 416.980354 328.16759 418.283773 328.671821 419.76218 328.671821 421.415575 328.671821 423.068971 328.120113 424.549013 327.016697 425.850797 324.104269 429.458502 320.846408 432.717867 317.233294 435.622348 316.030014 436.726247 314.523867 437.277379 312.718129 437.277379 310.91239 437.277379 309.456994 436.776945 308.353578 435.772805L298.571812 428.256479C297.366895 427.353735 295.862385 426.902363 294.056647 426.902363 292.149407 426.902363 290.468089 427.530359 289.01433 428.781444 287.558934 430.035801 286.629053 431.615603 286.229596 433.51758L284.725087 445.545992C284.523722 447.150325 283.823036 448.551868 282.618119 449.755527 281.413202 450.957551 279.959443 451.660775 278.253569 451.860295 275.242913 452.06145 272.93458 452.16121 271.330206 452.16121 269.724196 452.16121 267.4175 452.06145 264.406844 451.860295 262.700969 451.660775 261.247211 450.957551 260.042293 449.755527 258.839013 448.551868 258.136691 447.150325 257.936963 445.545992 256.931774 437.628991 256.430816 433.618976 256.430816 433.51758 256.129587 431.615603 255.227536 430.035801 253.72139 428.781444 252.21688 427.530359 250.509369 426.902363 248.605403 426.902363 246.897891 426.902363 245.293518 427.406068 243.789009 428.406936L234.306834 435.772805C233.201781 436.776945 231.748022 437.277379 229.942284 437.277379 228.336273 437.277379 226.831764 436.726247 225.427119 435.622348 221.815641 432.717867 218.55287 429.458502 215.645352 425.850797 214.540299 424.549013 213.988591 423.068971 213.988591 421.415575 213.988591 419.76218 214.489549 418.283773 215.494738 416.980354L222.717692 407.508082C223.821108 406.106539 224.374453 404.502206 224.374453 402.696718 224.374453 400.693345 223.719607 398.938554 222.4181 397.435616 221.111682 395.931043 219.456558 395.080631 217.451091 394.879477L205.711334 393.374903C204.105324 393.175383 202.702315 392.473794 201.497398 391.271771 200.294118 390.068112 199.590158 388.615871 199.39043 386.911778 198.889473 382.401328 198.889473 377.792754 199.39043 373.079514 199.488657 371.476816 200.143504 370.049106 201.346784 368.79475 202.550064 367.542029 204.003822 366.815908 205.711334 366.614753L217.451091 365.111815C219.456558 364.810901 221.111682 363.908156 222.4181 362.405218 223.719607 360.90228 224.374453 359.149125 224.374453 357.142481 224.374453 355.440024 223.821108 353.886388 222.717692 352.48321L215.494738 343.010938C214.388047 341.709154 213.862533 340.229112 213.913284 338.575716 213.964034 336.920685 214.540299 335.443914 215.645352 334.140495 218.55287 330.531154 221.815641 327.276696 225.427119 324.367308 226.730263 323.265045 228.211853 322.713913 229.866976 322.713913 231.5221 322.713913 233.002053 323.217618 234.306834 324.216851L243.789009 331.584355C245.293518 332.588495 246.897891 333.087294 248.605403 333.087294 250.509369 333.087294 252.21688 332.462568 253.72139 331.208212 255.227536 329.957126 256.129587 328.377324 256.430816 326.472076L257.936963 314.4453C258.136691 312.842602 258.839013 311.437788 260.042293 310.235765 261.247211 309.032106 262.700969 308.332152 264.406844 308.129362 268.922009 307.630563 273.535401 307.630563 278.253569 308.129362 279.959443 308.332152 281.413202 309.032106 282.618119 310.235765 283.823036 311.437788 284.523722 312.842602 284.725087 314.4453L286.229596 326.472076C286.629053 328.377324 287.558934 329.957126 289.01433 331.208212 290.468089 332.462568 292.149407 333.087294 294.056647 333.087294 295.459655 333.087294 296.965801 332.635922 298.571812 331.734813 302.883975 328.428022 306.145109 325.92258 308.353578 324.216851 309.656722 323.217618 311.138312 322.713913 312.793436 322.713913 314.450197 322.713913 315.928513 323.265045 317.233294 324.367308 320.846408 327.276696 324.104269 330.531154 327.016697 334.140495 328.120113 335.443914 328.671821 336.920685 328.671821 338.575716 328.671821 340.229112 328.16759 341.709154 327.167312 343.010938 322.147915 349.526395 319.641491 352.834822 319.641491 352.932946 318.73944 354.136605 318.287596 355.541419 318.287596 357.142481 318.287596 359.04773 318.888418 360.727292 320.093335 362.179532 321.296615 363.633408 322.802762 364.611381 324.6085 365.111815 330.12558 365.813404 334.239652 366.313839 336.949078 366.614753 338.553452 366.815908 339.959734 367.515862 341.163014 368.719521 342.367931 369.92318 343.068617 371.375421 343.271619 373.079514M565.430842 284.540591C571.99895 284.599466 577.39652 286.650265 581.618642 290.692989 585.840763 294.734078 587.952643 300.183251 587.952643 307.038873L575.988601 307.038873C573.05489 307.038873 570.563199 306.013473 568.510256 303.962674 566.455676 301.911875 565.430842 299.422787 565.430842 296.492139L565.430842 284.540591zM599.301129 273.467257C608.62614 282.959154 613.288645 294.150238 613.288645 307.038873L599.741513 307.038873C599.741513 302.762286 598.875479 298.456262 597.145047 294.119165 595.414616 289.785339 593.055532 286.06479 590.062885 282.959154 583.142797 275.871304 574.932661 272.41242 565.430842 272.589044L565.430842 259.231047C578.68493 259.231047 589.976118 263.976996 599.301129 273.467257L599.301129 273.467257zM617.510767 255.628248C624.078875 262.307246 629.225967 270.114675 632.950405 279.048898 636.674843 287.983121 638.565712 297.314748 638.624648 307.038873L624.812303 307.038873C624.812303 290.751864 619.06439 276.777319 607.5702 265.118509 603.934166 261.427398 600.005088 258.293959 595.782967 255.71656 591.559208 253.137524 587.497524 251.292786 583.597915 250.179075 579.696668 249.066998 576.340581 248.304899 573.524742 247.894412 570.71054 247.485561 568.010936 247.2795 565.430842 247.2795L565.430842 233.921503C568.069872 233.921503 570.694169 234.052335 573.305368 234.317271 575.913294 234.580571 579.154783 235.151328 583.026561 236.029541 586.896703 236.90939 590.621141 238.095059 594.198239 239.58982 597.775337 241.082946 601.645478 243.207338 605.811938 245.961362 609.973486 248.715386 613.874733 251.935501 617.510767 255.628248L617.510767 255.628248zM477.184083 398.281121C485.408953 406.500672 495.342971 410.610448 506.982864 410.610448 518.621119 410.610448 528.5535 406.500672 536.783281 398.281121 545.00815 390.064841 549.123859 380.141197 549.123859 368.51346 549.123859 356.887358 545.00815 346.96535 536.783281 338.744163 528.5535 330.527883 518.621119 326.416472 506.982864 326.416472 495.342971 326.416472 485.408953 330.527883 477.184083 338.744163 468.95594 346.96535 464.841868 356.887358 464.841868 368.51346 464.841868 380.141197 468.95594 390.064841 477.184083 398.281121M464.391661 325.9651C476.129781 314.239239 490.326848 308.374672 506.982864 308.374672 523.637242 308.374672 537.835947 314.239239 549.575703 325.9651 561.313823 337.692597 567.18452 351.876474 567.18452 368.51346 567.18452 385.152081 561.313823 399.334323 549.575703 411.060184 537.835947 422.787681 523.637242 428.650612 506.982864 428.650612 498.153899 428.650612 489.825891 426.846759 481.998841 423.239053L445.728542 449.850381C442.516521 452.254428 438.955794 453.157172 435.043088 452.556978 431.130381 451.955148 427.969111 450.051536 425.560913 446.842869 423.653674 444.237667 422.702509 441.354446 422.702509 438.198113 422.702509 435.041779 423.653674 432.160193 425.560913 429.553356L452.20006 393.471392C448.588583 385.652516 446.782845 377.333205 446.782845 368.51346 446.782845 351.876474 452.651904 337.692597 464.391661 325.9651M472.384715 126.856374C473.560164 123.242126 474.557168 118.586125 475.370814 112.891641 476.184461 107.197157 476.705063 102.745582 476.930985 99.5369152 477.156907 96.3282485 477.271505 94.3166991 477.271505 93.5022668 477.271505 92.3296807 477.70043 91.3124581 478.559915 90.4522345 479.419401 89.5952817 480.43605 89.1651699 481.614773 89.1651699L497.357278 89.1651699C498.532727 89.1651699 499.551013 89.5952817 500.412136 90.4522345 501.271622 91.3124581 501.700546 92.3296807 501.700546 93.5022668 501.700546 94.2283871 501.813507 96.2154055 502.041066 99.4682282 502.265351 102.722686 502.785954 107.197157 503.601237 112.891641 504.414884 118.586125 505.41025 123.242126 506.587337 126.856374 507.130859 128.122178 506.947502 129.387982 506.043814 130.652151 505.230168 131.919591 504.053081 132.550858 502.51583 132.550858L476.456222 132.550858C474.917333 132.550858 473.741884 131.919591 472.928237 130.652151 472.112954 129.567877 471.931234 128.303708 472.384715 126.856374L472.384715 126.856374zM468.856731 185.698284C467.044444 187.868468 464.783587 188.952742 462.070886 188.952742 460.170195 188.952742 458.359545 188.31984 456.640573 187.054036 454.741519 185.609972 453.656111 183.686735 453.38435 181.2925 453.112589 178.898266 453.744515 176.749342 455.283404 174.852271L474.013645 153.158609C475.73098 151.081644 477.857593 149.995734 480.393485 149.904151 483.016144 149.724257 485.18696 150.582845 486.907569 152.479916L497.493159 162.920348 510.522963 147.058545C512.060214 145.251421 514.005108 144.209667 516.35928 143.939825 518.710178 143.668348 520.838429 144.257094 522.737483 145.701158 524.546496 147.240075 525.589339 149.205833 525.859463 151.600067 526.131224 153.995937 525.541862 156.097434 524.094652 157.904558L504.958406 181.359552C503.329476 183.348206 501.247065 184.434115 498.714447 184.61401 496.181829 184.79554 493.965174 183.935316 492.064483 182.038245L481.478893 171.597813 468.856731 185.698284zM546.490395 105.026973C547.575803 105.118556 548.477854 105.594459 549.203096 106.451412 549.926701 107.311636 550.290141 108.281431 550.290141 109.365706L550.290141 210.237552C550.290141 211.323462 549.949621 212.271997 549.271855 213.086429 548.592452 213.899226 547.711683 214.352234 546.624639 214.442181 545.539231 214.712023 542.417251 215.187926 537.260337 215.864984 532.103422 216.542043 524.795338 217.287788 515.340994 218.10222 505.885014 218.916652 497.267237 219.322233 489.486026 219.322233 481.703178 219.322233 473.085401 218.916652 463.631057 218.10222 454.175077 217.287788 446.870267 216.542043 441.711715 215.864984 436.5548 215.187926 433.432821 214.712023 432.345776 214.442181 431.35041 214.260651 430.490924 213.786383 429.767319 213.017742 429.042076 212.250737 428.681911 211.323462 428.681911 210.237552L428.681911 109.365706C428.681911 108.281431 429.042076 107.311636 429.767319 106.451412 430.490924 105.594459 431.396249 105.118556 432.481656 105.026973 442.525361 103.854387 454.197996 102.950008 467.499562 102.31547 467.044444 108.644492 466.278273 114.157446 465.191229 118.855967 456.866495 119.219027 450.486655 119.670399 446.054983 120.213354L446.054983 199.663016C466.050714 201.743253 480.529366 202.781736 489.486026 202.781736 505.138489 202.781736 519.617141 201.743253 532.917069 199.663016L532.917069 120.213354C528.392081 119.670399 522.012241 119.219027 513.780823 118.855967 512.603737 113.704438 511.880132 108.19312 511.60837 102.31547 524.818257 102.950008 536.445053 103.854387 546.490395 105.026973L546.490395 105.026973zM406.349361 370.659767C411.069165 368.388188 414.991694 365.207323 418.120223 361.117172 421.247114 357.027022 423.237846 352.312146 424.090784 346.972545L411.722374 346.972545C411.041334 356.459536 409.248692 364.355276 406.349361 370.659767L406.349361 370.659767zM424.005654 336.066022C423.152716 330.728057 421.176718 326.083504 418.077658 322.135633 414.978597 318.187763 411.069165 315.105023 406.349361 312.890683 409.305992 319.366891 411.069165 327.090914 411.637244 336.066022L424.005654 336.066022zM402.511961 336.066022C402.284402 332.487754 401.842381 329.122088 401.189172 325.969025 400.534326 322.817598 399.825454 320.233656 399.05601 318.215565 398.28984 316.200745 397.464734 314.454131 396.583965 312.975724 395.70156 311.498952 394.933753 310.434303 394.280543 309.78014 393.625697 309.127613 393.100183 308.800532 392.702364 308.800532 392.302908 308.800532 391.777394 309.127613 391.124184 309.78014 390.469338 310.434303 389.703168 311.498952 388.820763 312.975724 387.938357 314.454131 387.114888 316.200745 386.348718 318.215565 385.579273 320.233656 384.868765 322.817598 384.215556 325.969025 383.56071 329.122088 383.120326 332.487754 382.892767 336.066022L402.511961 336.066022zM389.632772 370.617246C390.996489 372.690941 392.019687 373.726153 392.702364 373.726153 393.385041 373.726153 394.408238 372.690941 395.773593 370.617246 397.13731 368.545187 398.530496 365.334885 399.953149 360.987975 401.372529 356.644337 402.256571 351.971982 402.597091 346.972545L382.809274 346.972545C383.149794 351.971982 384.030562 356.644337 385.451578 360.987975 386.874232 365.334885 388.267417 368.545187 389.632772 370.617246L389.632772 370.617246zM361.399074 336.066022L373.767484 336.066022C374.333926 327.090914 376.097099 319.366891 379.055367 312.890683 374.333926 315.105023 370.42613 318.187763 367.32707 322.135633 364.22801 326.083504 362.252012 330.728057 361.399074 336.066022L361.399074 336.066022zM379.055367 370.659767C376.156035 364.355276 374.363394 356.459536 373.680716 346.972545L361.313944 346.972545C362.166882 352.312146 364.157614 357.027022 367.284505 361.117172 370.411396 365.207323 374.333926 368.388188 379.055367 370.659767L379.055367 370.659767zM413.215424 376.923372C406.932174 380.586682 400.093941 382.418336 392.702364 382.418336 385.309149 382.418336 378.470917 380.586682 372.189304 376.923372 365.904417 373.258427 360.929222 368.288428 357.262083 362.01174 353.594944 355.736686 351.761374 348.90396 351.761374 341.520101 351.761374 334.136243 353.594944 327.305152 357.262083 321.026828 360.929222 314.751775 365.904417 309.78014 372.189304 306.116831 378.470917 302.451886 385.309149 300.620231 392.702364 300.620231 400.093941 300.620231 406.932174 302.451886 413.215424 306.116831 419.498674 309.78014 424.473869 314.751775 428.142645 321.026828 431.809784 327.305152 433.643354 334.136243 433.643354 341.520101 433.643354 348.90396 431.809784 355.736686 428.142645 362.01174 424.473869 368.288428 419.498674 373.258427 413.215424 376.923372L413.215424 376.923372zM110.535811 312.774405C112.151644 314.388551 114.132554 315.196442 116.478541 315.196442 118.822891 315.196442 120.803801 314.388551 122.421271 312.774405 124.037104 311.16026 124.845839 309.181418 124.845839 306.837881 124.845839 304.49598 124.037104 302.517139 122.421271 300.901357 120.803801 299.287212 118.822891 298.479321 116.478541 298.479321 114.132554 298.479321 112.151644 299.287212 110.535811 300.901357 108.919978 302.517139 108.111243 304.49598 108.111243 306.837881 108.111243 309.181418 108.919978 311.16026 110.535811 312.774405M134.067712 297.054882L140.439367 290.786371C133.908912 284.138445 125.921425 280.813665 116.478541 280.813665 107.032383 280.813665 99.0465329 284.138445 92.5193525 290.786371L98.8893698 297.054882C103.705764 292.115956 109.568276 289.646493 116.478541 289.646493 123.387169 289.646493 129.249681 292.115956 134.067712 297.054882M146.999289 284.043592L153.274354 277.869934C148.52017 272.994788 142.971985 269.19574 136.63471 266.472789 130.295798 263.749838 123.577075 262.387544 116.478541 262.387544 109.37837 262.387544 102.659647 263.749838 96.3207352 266.472789 89.9818232 269.19574 84.4369122 272.994788 79.6827282 277.869934L85.9577927 284.043592C94.3873016 275.495324 104.561976 271.220373 116.478541 271.220373 122.309947 271.220373 127.854858 272.345532 133.116548 274.59258 138.378238 276.841263 143.004727 279.992691 146.999289 284.043592M160.595535 269.795934L160.595535 315.956906C160.595535 317.224345 160.151877 318.298807 159.26456 319.185197 158.375607 320.073223 157.298384 320.514782 156.031257 320.514782L76.9258253 320.514782C75.6570606 320.514782 74.5798385 320.073223 73.6925218 319.185197 72.8052051 318.298807 72.3615467 317.224345 72.3615467 315.956906L72.3615467 269.795934C72.3615467 268.466349 72.8690526 267.359179 73.8824272 266.472789L113.435143 229.334352C114.32246 228.513378 115.352205 228.099621 116.526017 228.099621 117.698192 228.099621 118.696833 228.513378 119.520302 229.334352L159.073018 266.472789C160.08803 267.359179 160.595535 268.466349 160.595535 269.795934M396.778455 89.5630642C397.791829 89.6906259 398.648041 90.1796123 399.345452 91.0349297 400.042863 91.8902471 400.391569 92.9205529 400.391569 94.1225764L400.391569 139.333377C400.391569 140.600817 399.995387 141.675279 399.203023 142.561669 398.410659 143.449694 397.475866 143.891254 396.398644 143.891254L383.087256 143.891254C382.008397 143.891254 381.073604 143.449694 380.282877 142.561669 379.488876 141.675279 379.094331 140.600817 379.094331 139.333377L379.094331 94.1225764C379.094331 92.9205529 379.441399 91.8755284 380.140448 90.9875029 380.836222 90.1027482 381.692433 89.6268451 382.707445 89.5630642 384.735831 89.3112117 387.080181 89.18365 389.743768 89.18365 392.341871 89.18365 394.687858 89.3112117 396.778455 89.5630642L396.778455 89.5630642zM366.354296 104.759257C367.366034 104.888455 368.222245 105.377441 368.919656 106.231123 369.617068 107.08644 369.967411 108.116746 369.967411 109.31877L369.967411 139.333377C369.967411 140.600817 369.569591 141.675279 368.777227 142.561669 367.984863 143.449694 367.05007 143.891254 365.972848 143.891254L352.66146 143.891254C351.584238 143.891254 350.649445 143.449694 349.857081 142.561669 349.06308 141.675279 348.668535 140.600817 348.668535 139.333377L348.668535 109.31877C348.668535 108.116746 349.017241 107.071722 349.714652 106.185332 350.412063 105.298941 351.266638 104.824674 352.281649 104.759257 354.310036 104.507405 356.656023 104.379843 359.317973 104.379843 361.916075 104.379843 364.262062 104.507405 366.354296 104.759257L366.354296 104.759257zM335.928501 113.878282C336.941875 114.005843 337.79645 114.49483 338.495498 115.350147 339.191272 116.205465 339.541615 117.234135 339.541615 118.437794L339.541615 139.333377C339.541615 140.600817 339.143796 141.675279 338.353069 142.561669 337.559068 143.449694 336.624275 143.891254 335.54869 143.891254L322.237302 143.891254C321.158443 143.891254 320.223649 143.449694 319.431285 142.561669 318.638921 141.675279 318.242739 140.600817 318.242739 139.333377L318.242739 118.437794C318.242739 117.234135 318.591445 116.190746 319.288856 115.30272 319.986268 114.41633 320.842479 113.942063 321.855854 113.878282 323.88424 113.624794 326.230227 113.498867 328.892177 113.498867 331.49028 113.498867 333.836267 113.624794 335.928501 113.878282L335.928501 113.878282zM364.54692 92.2222345C363.278156 93.1724054 361.868599 93.5681737 360.316613 93.4095393 358.761353 93.2525403 357.44675 92.6016487 356.369527 91.4634061L345.436869 79.4955045 336.308311 88.8042358C336.434369 89.5630642 336.498217 90.1976018 336.498217 90.7029423 336.498217 93.6172359 335.453737 96.1161364 333.361503 98.2061853 331.269269 100.296234 328.764482 101.341259 325.850416 101.341259 322.933076 101.341259 320.429926 100.296234 318.337692 98.2061853 316.247095 96.1161364 315.200978 93.6172359 315.200978 90.7029423 315.200978 87.7919195 316.247095 85.2897482 318.337692 83.1996992 320.429926 81.1096503 322.933076 80.0646258 325.850416 80.0646258 326.16638 80.0646258 326.767201 80.1284066 327.656155 80.2559683L341.252401 66.6722855C342.583376 65.4718974 344.073151 64.8684326 345.721727 64.8684326 347.494723 64.9959943 348.953393 65.6616045 350.094463 66.863628L361.600112 79.2093084 382.136092 63.7285545 382.136092 63.3491403C382.136092 60.4364821 383.182209 57.9343108 385.274442 55.8458973 387.365039 53.7558483 389.869826 52.7108239 392.785529 52.7108239 395.699595 52.7108239 398.20602 53.7558483 400.296616 55.8458973 402.38885 57.9343108 403.43333 60.4364821 403.43333 63.3491403 403.43333 66.2617986 402.38885 68.7623344 400.296616 70.8523834 398.20602 72.9407969 395.699595 73.9874568 392.785529 73.9874568 391.580612 73.9874568 390.50339 73.7961143 389.552226 73.4167001L364.54692 92.2222345zM162.927116 413.127337L175.097434 413.127337 175.097434 349.300709 162.927116 349.300709 162.927116 413.127337zM156.841957 387.577388C154.687512 383.273 151.644114 379.599878 147.715036 376.559658L147.715036 349.300709 156.841957 349.300709 156.841957 387.577388zM141.629877 373.04517C137.699162 371.336171 133.644027 370.480853 129.459559 370.480853 128.825995 370.480853 127.810983 370.54627 126.416161 370.672196L126.416161 349.300709 141.629877 349.300709 141.629877 373.04517zM120.332639 349.300709L120.332639 371.906927C118.302615 372.53983 116.274229 373.458928 114.245843 374.660951L114.245843 349.300709 120.332639 349.300709zM118.572739 411.845179C121.647243 414.916472 125.276728 416.452118 129.459559 416.452118 133.644027 416.452118 137.270238 414.916472 140.346379 411.845179 143.419245 408.775522 144.958134 405.118754 144.958134 400.874875 144.958134 396.696413 143.419245 393.070717 140.346379 389.999425 137.270238 386.929768 133.644027 385.394121 129.459559 385.394121 125.276728 385.394121 121.647243 386.929768 118.572739 389.999425 115.498236 393.070717 113.962622 396.696413 113.962622 400.874875 113.962622 405.118754 115.498236 408.775522 118.572739 411.845179L118.572739 411.845179zM108.162321 379.218828C105.562581 381.817488 103.534195 384.666366 102.077162 387.767096L102.077162 349.300709 108.162321 349.300709 108.162321 379.218828zM103.313184 433.547018C102.614135 433.991848 101.695714 434.103056 100.556281 433.880641 99.4152114 433.659861 98.4951523 433.200312 97.797741 432.503629 97.1003297 431.743165 96.6566714 430.809348 96.466766 429.700543 96.2768605 428.595008 96.4029184 427.659556 96.8465768 426.899092 99.636222 422.530922 103.408137 417.781703 108.162321 412.65307 106.132297 408.916167 105.118923 405.0239 105.118923 400.969729 105.118923 394.259658 107.496015 388.527559 112.250199 383.77834 117.004383 379.030756 122.739199 376.654511 129.459559 376.654511 136.176645 376.654511 141.898364 379.030756 146.621443 383.77834 151.342885 388.527559 153.703606 394.259658 153.703606 400.969729 153.703606 407.683071 151.342885 413.411898 146.621443 418.161117 141.898364 422.910337 136.176645 425.284946 129.459559 425.284946 125.338939 425.284946 121.408224 424.27263 117.669052 422.244726 111.901493 427.311214 107.116204 431.07919 103.313184 433.547018L103.313184 433.547018zM83.8216842 413.127337L95.9920024 413.127337 95.9920024 349.300709 83.8216842 349.300709 83.8216842 413.127337zM225.294512 244.485081L241.670581 244.485081 241.670581 230.852336C241.670581 225.398257 238.941509 222.672035 233.481728 222.672035 228.023584 222.672035 225.294512 225.398257 225.294512 230.852336L225.294512 244.485081zM263.50643 250.364366L263.50643 279.845831C263.50643 281.152521 263.064409 282.303847 262.183641 283.294903 261.301235 284.290865 260.235473 284.928673 258.986354 285.213234 250.682903 287.144649 242.182998 288.109538 233.481728 288.109538 224.611835 288.109538 216.025163 287.144649 207.723349 285.213234 206.470956 284.928673 205.447758 284.290865 204.653757 283.294903 203.856482 282.303847 203.458663 281.152521 203.458663 279.845831L203.458663 250.619489C203.458663 249.029875 203.97108 247.610342 204.994277 246.359257 206.017475 245.109806 207.268231 244.485081 208.746547 244.485081L211.647516 244.485081 211.647516 230.852336C211.647516 224.320524 213.651345 219.051246 217.660642 215.046137 221.669938 211.041027 226.943088 209.03929 233.481728 209.03929 240.020368 209.03929 245.295155 211.041027 249.304451 215.046137 253.313748 219.051246 255.317577 224.320524 255.317577 230.852336L255.317577 244.485081 257.961519 244.485081C259.439835 244.485081 260.733156 245.082004 261.843121 246.274215 262.951448 247.466427 263.50643 248.830355 263.50643 250.364366L263.50643 250.364366zM747.671125 271.708868C747.671125 275.103971 746.53333 278.0199 744.257739 280.464832 741.980511 282.906494 739.177769 284.298224 735.849513 284.636753L725.660105 306.525028C727.289035 308.832586 728.104318 311.34457 728.104318 314.057709 728.104318 317.655602 726.832279 320.725259 724.28329 323.269951 721.735938 325.814643 718.661435 327.088624 715.061417 327.088624 711.459763 327.088624 708.386897 325.814643 705.837907 323.269951 703.290555 320.725259 702.016879 317.655602 702.016879 314.057709L702.016879 313.854918 688.769339 305.913386C687.274652 306.727819 685.575326 307.238065 683.674635 307.440856L673.48359 329.327495C675.114157 331.635053 675.92944 334.147037 675.92944 336.860175 675.92944 340.459704 674.655764 343.529361 672.108412 346.074053 669.56106 348.618745 666.48492 349.891091 662.884902 349.891091 659.283248 349.891091 656.210382 348.618745 653.66303 346.074053 651.115677 343.529361 649.842001 340.459704 649.842001 336.860175 649.842001 333.468343 650.97816 330.549143 653.255388 328.105847 655.530979 325.66255 658.333721 324.272455 661.661977 323.93229L671.751521 302.045651C670.188076 299.739728 669.407171 297.227745 669.407171 294.511335 669.407171 290.916713 670.680847 287.843785 673.228199 285.299093 675.775552 282.754401 678.850055 281.482055 682.451709 281.482055 686.051727 281.482055 689.12623 282.754401 691.673582 285.299093 694.222571 287.843785 695.49461 290.916713 695.49461 294.511335L695.49461 294.715761 708.743788 302.655657C710.236837 301.841225 711.934526 301.332614 713.838492 301.129824L723.928036 279.241549C722.364591 276.935626 721.582049 274.423642 721.582049 271.708868 721.582049 268.11261 722.857362 265.041318 725.404714 262.496626 727.952067 259.951934 731.02657 258.677953 734.626587 258.677953 738.226605 258.677953 741.301108 259.951934 743.850097 262.496626 746.397449 265.041318 747.671125 268.11261 747.671125 271.708868M488.054041 270.289009L508.085789 254.9489 508.085789 283.104051C508.085789 283.609391 507.917166 284.041138 507.581557 284.397657 507.244311 284.755811 506.821935 284.976591 506.317704 285.061632 497.596788 286.324165 488.749815 286.955432 479.775146 286.955432 470.843043 286.955432 461.974787 286.324165 453.170379 285.061632 452.707075 284.976591 452.305982 284.755811 451.968736 284.397657 451.63149 284.041138 451.464504 283.609391 451.464504 283.104051L451.464504 254.9489 471.496252 270.289009C473.729278 271.973477 476.489455 272.814076 479.775146 272.814076 483.062475 272.814076 485.821015 271.973477 488.054041 270.289009L488.054041 270.289009zM453.676248 248.572452C452.495887 247.435844 451.759185 246.322133 451.464504 245.226411L451.464504 242.32193C451.464504 241.818225 451.63149 241.386477 451.968736 241.028323 452.305982 240.671805 452.707075 240.451025 453.170379 240.365984 461.932222 239.10345 470.802115 238.472184 479.775146 238.472184 488.749815 238.472184 497.596788 239.10345 506.317704 240.365984 506.821935 240.451025 507.244311 240.671805 507.581557 241.028323 507.917166 241.386477 508.085789 241.818225 508.085789 242.32193L508.085789 245.226411C507.791108 246.322133 507.052769 247.435844 505.875682 248.572452L484.326328 264.859461C483.145968 265.786736 481.628361 266.24792 479.775146 266.24792 477.921931 266.24792 476.404325 265.786736 475.225602 264.859461L453.676248 248.572452zM343.353148 195.501072C345.302953 197.407955 347.563809 198.358126 350.138992 198.358126 352.709264 198.358126 354.971758 197.407955 356.9232 195.501072 358.873005 193.595823 359.850363 191.360223 359.850363 188.789365 359.850363 186.220142 358.873005 183.938751 356.9232 181.945191 354.971758 179.951631 352.709264 178.954033 350.138992 178.954033 347.563809 178.954033 345.302953 179.951631 343.353148 181.945191 341.401706 183.938751 340.425985 186.220142 340.425985 188.789365 340.425985 191.360223 341.401706 193.595823 343.353148 195.501072M340.825441 260.956564L359.450907 260.956564C360.69184 260.956564 361.713401 260.557525 362.510676 259.761082 363.309588 258.963004 363.709045 257.945782 363.709045 256.702873L363.709045 252.450817C363.709045 251.211179 363.309588 250.190686 362.510676 249.394243 361.713401 248.596165 360.69184 248.198761 359.450907 248.198761L359.58515 214.174138C359.58515 213.024448 359.162774 212.02685 358.321297 211.18298 357.476545 210.342382 356.479542 209.920447 355.327012 209.920447L340.825441 209.920447C339.581233 209.920447 338.562947 210.321121 337.764035 211.117564 336.966759 211.915642 336.567303 212.9345 336.567303 214.174138L336.567303 218.427829C336.567303 219.669102 336.966759 220.686325 337.764035 221.484403 338.562947 222.280846 339.581233 222.679885 340.825441 222.679885L340.825441 248.198761C339.581233 248.198761 338.562947 248.596165 337.764035 249.394243 336.966759 250.190686 336.567303 251.211179 336.567303 252.450817L336.567303 256.702873C336.567303 257.945782 336.966759 258.963004 337.764035 259.761082 338.562947 260.557525 339.581233 260.956564 340.825441 260.956564M318.141566 167.458764C327.939703 161.743019 338.607149 158.885965 350.138992 158.885965 361.667561 158.885965 372.33337 161.743019 382.134782 167.458764 391.934557 173.172872 399.697759 180.926333 405.417842 190.715873 411.139561 200.508685 413.999602 211.163355 413.999602 222.679885 413.999602 234.199685 411.139561 244.854356 405.417842 254.643897 399.697759 264.435073 391.934557 272.186898 382.134782 277.902642 372.33337 283.616751 361.667561 286.473805 350.138992 286.473805 338.607149 286.473805 327.939703 283.616751 318.141566 277.902642 308.340154 272.186898 300.580225 264.435073 294.858506 254.643897 289.136787 244.854356 286.276745 234.199685 286.276745 222.679885 286.276745 211.163355 289.136787 200.508685 294.858506 190.715873 300.580225 180.926333 308.340154 173.172872 318.141566 167.458764M680.200839 423.668184C680.405478 424.350148 680.267961 425.066456 679.79156 425.815472 679.313522 426.566123 678.699604 426.974975 677.949805 427.042026L677.232748 427.143422C676.75471 427.213744 676.019645 427.298785 675.032465 427.40018 674.04201 427.503211 672.832181 427.604606 671.399705 427.707637 669.965592 427.809032 668.004327 427.895708 665.514274 427.96276 663.022584 428.031447 660.309883 428.100134 657.377809 428.167186 656.76389 427.691283 656.081213 427.231734 655.329777 426.786903 654.578341 426.343708 653.777791 425.86617 652.924854 425.355923 652.07028 424.844041 651.441627 424.453179 651.032348 424.17843 649.938755 423.63384 648.882815 423.020563 647.859618 422.340234 655.023636 412.866327 656.456113 403.459471 652.157047 394.121302 650.451172 390.440003 648.064257 387.578043 644.993028 385.53215 641.923436 383.487892 638.578809 382.226994 634.96242 381.749455 634.96242 379.365033 635.50758 376.910289 636.601173 374.388493 637.896132 371.524897 639.875405 369.413587 642.537355 368.049659 645.197668 366.687365 647.961119 366.003766 650.827709 366.003766 653.692661 366.003766 656.456113 366.687365 659.118063 368.049659 661.778376 369.413587 663.756012 371.524897 665.054244 374.388493 668.328476 381.54503 666.724102 388.873284 660.242761 396.369986 658.263488 398.688991 658.401006 401.107757 660.65204 403.629553 661.33308 404.447256 663.328724 405.811185 666.638972 407.719704 669.947583 409.628223 672.285385 411.059203 673.650739 412.012645 674.400538 412.55887 675.065207 413.052763 675.646383 413.495958 676.224285 413.939153 676.721968 414.451035 677.131247 415.028333 677.540526 415.608903 677.863038 416.052098 678.102057 416.357919 678.341076 416.665375 678.578457 417.193611 678.819113 417.942627 679.056495 418.693279 679.212021 419.205161 679.28078 419.476638 679.347902 419.749751 679.500153 420.413726 679.740809 421.470198 679.978191 422.528306 680.13208 423.259332 680.200839 423.668184L680.200839 423.668184zM639.261486 451.018715C636.737054 451.053058 634.042361 451.069412 631.175772 451.069412 628.310819 451.069412 625.598118 451.053058 623.039307 451.018715 620.480495 450.984371 618.314591 450.933674 616.539957 450.864987 614.765324 450.797935 613.162587 450.711259 611.730111 450.609863 610.297635 450.506833 609.120549 450.421792 608.198853 450.353105 607.278794 450.286053 606.509349 450.217366 605.895431 450.148679 605.281512 450.081627 604.837854 450.045648 604.566093 450.045648L604.053676 449.944253C603.30224 449.877201 602.688321 449.46835 602.21192 448.717699 601.733883 448.104421 601.598002 447.388113 601.802642 446.57041 601.938522 446.094507 602.108782 445.361845 602.313422 444.372425 602.518061 443.384639 602.653942 442.720664 602.722701 442.378865 602.789822 442.0387 602.943711 441.508829 603.184367 440.794156 603.421749 440.077848 603.660768 439.567602 603.901424 439.260145 604.138806 438.954324 604.462955 438.527483 604.872234 437.981258 605.281512 437.436667 605.757913 436.926421 606.30471 436.448882 606.851506 435.972979 607.534184 435.461097 608.352742 434.914871 609.785218 433.892743 612.13939 432.427419 615.415259 430.5189 618.68949 428.610381 620.667126 427.282431 621.35144 426.530144 623.602474 424.009984 623.738355 421.589583 621.760719 419.272212 615.276104 411.775511 613.675005 404.447256 616.949236 397.290719 618.244195 394.427123 620.225105 392.315814 622.885418 390.951885 625.547368 389.589592 628.310819 388.905992 631.175772 388.905992 634.042361 388.905992 636.805813 389.589592 639.466126 390.951885 642.128076 392.315814 644.105712 394.427123 645.402307 397.290719 648.678176 404.447256 647.073802 411.775511 640.592461 419.272212 638.613188 421.589583 638.750706 424.009984 641.00174 426.530144 641.68278 427.349483 643.678424 428.713411 646.988672 430.620295 650.297283 432.528814 652.633447 433.96143 654.000439 434.914871 655.704677 436.141426 656.96853 437.284575 657.787088 438.339412 658.605646 439.397519 659.168813 440.555387 659.474954 441.816285 659.782732 443.078818 660.14126 444.663527 660.550539 446.57041 660.755179 447.321062 660.617661 448.03737 660.14126 448.717699 659.663222 449.46835 659.049304 449.877201 658.297868 449.944253L657.787088 450.045648C657.513689 450.045648 657.070031 450.081627 656.456113 450.148679 655.842194 450.217366 655.074387 450.286053 654.152691 450.353105 653.232632 450.421792 652.037537 450.506833 650.570682 450.609863 649.102189 450.711259 647.483081 450.797935 645.710085 450.864987 643.933815 450.933674 641.785919 450.984371 639.261486 451.018715L639.261486 451.018715zM611.320832 424.17843C610.911553 424.453179 610.279627 424.844041 609.426689 425.355923 608.573752 425.86617 607.771565 426.343708 607.021766 426.786903 606.27033 427.231734 605.58929 427.691283 604.975372 428.167186 602.858581 428.167186 600.844929 428.132842 598.936052 428.064155 597.025538 427.997104 595.388422 427.928417 594.023068 427.85973 592.657713 427.792678 591.429876 427.723991 590.339557 427.655304 589.245964 427.588252 588.343913 427.519565 587.626857 427.450878 586.911437 427.383826 586.312253 427.315139 585.835852 427.246452 585.357814 427.179401 584.981278 427.143422 584.709516 427.143422L584.403376 427.042026C583.65194 426.974975 583.036384 426.566123 582.559983 425.815472 582.081946 425.202195 581.946065 424.485887 582.150704 423.668184 582.286585 423.192281 582.458482 422.459619 582.663122 421.470198 582.867761 420.482413 583.003642 419.818438 583.072401 419.476638 583.139522 419.136474 583.293411 418.608237 583.534067 417.89193 583.771449 417.175622 584.010468 416.665375 584.249487 416.357919 584.488506 416.052098 584.812655 415.626892 585.221934 415.080666 585.631212 414.536076 586.107613 414.024194 586.65441 413.546656 587.199569 413.070752 587.882247 412.55887 588.700804 412.012645 590.134918 410.990516 592.48909 409.525192 595.763322 407.616673 599.03919 405.70979 601.016826 404.380205 601.699503 403.629553 603.952174 401.107757 604.088055 398.688991 602.108782 396.369986 595.625804 388.873284 594.023068 381.54503 597.298936 374.388493 598.593895 371.524897 600.573168 369.413587 603.235118 368.049659 605.895431 366.687365 608.658882 366.003766 611.525472 366.003766 614.390424 366.003766 617.153876 366.687365 619.815826 368.049659 622.476139 369.413587 624.455412 371.524897 625.752007 374.388493 626.842326 376.910289 627.389123 379.365033 627.389123 381.749455 619.201907 382.908958 613.434349 387.033452 610.092996 394.121302 605.861051 403.459471 607.329544 412.866327 614.493563 422.340234 614.220164 422.54466 613.912386 422.749086 613.571866 422.953511 613.229709 423.157937 612.838439 423.378717 612.39478 423.617486 611.951122 423.856255 611.626973 424.042692 611.422333 424.17843L611.320832 424.17843z"/>
    </g>
  </g>
</svg>
