<svg xmlns="http://www.w3.org/2000/svg" width="900" height="680" viewBox="0 0 900 680">
  <defs>
    <filter id="a" width="200%" height="200%" x="-50%" y="-50%" filterUnits="objectBoundingBox">
      <feOffset in="SourceAlpha" result="shadowOffsetOuter1"/>
      <feGaussianBlur stdDeviation="9.5" in="shadowOffsetOuter1" result="shadowBlurOuter1"/>
      <feColorMatrix values="0 0 0 0 0 0 0 0 0 0 0 0 0 0 0 0 0 0 0.2 0" in="shadowBlurOuter1" result="shadowMatrixOuter1"/>
      <feMerge>
        <feMergeNode in="shadowMatrixOuter1"/>
        <feMergeNode in="SourceGraphic"/>
      </feMerge>
    </filter>
    <filter id="b" width="200%" height="200%" x="-50%" y="-50%" filterUnits="objectBoundingBox">
      <feOffset in="SourceAlpha" result="shadowOffsetOuter1"/>
      <feGaussianBlur stdDeviation="2" in="shadowOffsetOuter1" result="shadowBlurOuter1"/>
      <feColorMatrix values="0 0 0 0 0 0 0 0 0 0 0 0 0 0 0 0 0 0 0.2 0" in="shadowBlurOuter1" result="shadowMatrixOuter1"/>
      <feMerge>
        <feMergeNode in="shadowMatrixOuter1"/>
        <feMergeNode in="SourceGraphic"/>
      </feMerge>
    </filter>
    <filter id="c" width="200%" height="200%" x="-50%" y="-50%" filterUnits="objectBoundingBox">
      <feOffset in="SourceAlpha" result="shadowOffsetOuter1"/>
      <feGaussianBlur stdDeviation="2" in="shadowOffsetOuter1" result="shadowBlurOuter1"/>
      <feColorMatrix values="0 0 0 0 0 0 0 0 0 0 0 0 0 0 0 0 0 0 0.2 0" in="shadowBlurOuter1" result="shadowMatrixOuter1"/>
      <feMerge>
        <feMergeNode in="shadowMatrixOuter1"/>
        <feMergeNode in="SourceGraphic"/>
      </feMerge>
    </filter>
    <filter id="d" width="200%" height="200%" x="-50%" y="-50%" filterUnits="objectBoundingBox">
      <feOffset in="SourceAlpha" result="shadowOffsetOuter1"/>
      <feGaussianBlur stdDeviation="2" in="shadowOffsetOuter1" result="shadowBlurOuter1"/>
      <feColorMatrix values="0 0 0 0 0 0 0 0 0 0 0 0 0 0 0 0 0 0 0.2 0" in="shadowBlurOuter1" result="shadowMatrixOuter1"/>
      <feMerge>
        <feMergeNode in="shadowMatrixOuter1"/>
        <feMergeNode in="SourceGraphic"/>
      </feMerge>
    </filter>
    <filter id="e" width="200%" height="200%" x="-50%" y="-50%" filterUnits="objectBoundingBox">
      <feOffset in="SourceAlpha" result="shadowOffsetOuter1"/>
      <feGaussianBlur stdDeviation="2" in="shadowOffsetOuter1" result="shadowBlurOuter1"/>
      <feColorMatrix values="0 0 0 0 0 0 0 0 0 0 0 0 0 0 0 0 0 0 0.2 0" in="shadowBlurOuter1" result="shadowMatrixOuter1"/>
      <feMerge>
        <feMergeNode in="shadowMatrixOuter1"/>
        <feMergeNode in="SourceGraphic"/>
      </feMerge>
    </filter>
    <filter id="f" width="200%" height="200%" x="-50%" y="-50%" filterUnits="objectBoundingBox">
      <feOffset in="SourceAlpha" result="shadowOffsetOuter1"/>
      <feGaussianBlur stdDeviation="2" in="shadowOffsetOuter1" result="shadowBlurOuter1"/>
      <feColorMatrix values="0 0 0 0 0 0 0 0 0 0 0 0 0 0 0 0 0 0 0.2 0" in="shadowBlurOuter1" result="shadowMatrixOuter1"/>
      <feMerge>
        <feMergeNode in="shadowMatrixOuter1"/>
        <feMergeNode in="SourceGraphic"/>
      </feMerge>
    </filter>
    <filter id="g" width="200%" height="200%" x="-50%" y="-50%" filterUnits="objectBoundingBox">
      <feOffset in="SourceAlpha" result="shadowOffsetOuter1"/>
      <feGaussianBlur stdDeviation="2" in="shadowOffsetOuter1" result="shadowBlurOuter1"/>
      <feColorMatrix values="0 0 0 0 0 0 0 0 0 0 0 0 0 0 0 0 0 0 0.2 0" in="shadowBlurOuter1" result="shadowMatrixOuter1"/>
      <feMerge>
        <feMergeNode in="shadowMatrixOuter1"/>
        <feMergeNode in="SourceGraphic"/>
      </feMerge>
    </filter>
  </defs>
  <g fill="none" fill-rule="evenodd" filter="url(#a)">
    <g fill="#000000" opacity=".1" transform="translate(125.982 .094)">
      <path d="M67.1249476,178.906362 L105.413965,160.756007 C107.061262,166.536442 109.06003,173.71497 109.720369,178.402481 C111.094301,188.22106 109.780723,193.685683 99.8259337,198.40513 C89.8711443,203.124577 84.8049943,200.683239 78.0702456,193.405355 C74.8573054,189.931416 70.5580008,183.842265 67.1249476,178.906362 M42.0853151,155.46171 C30.9483057,150.114186 24.1212515,144.291168 19.3994719,134.341296 C9.16776613,112.780875 19.1261057,86.6535895 41.7160932,75.9443478 C64.3060807,65.2351061 90.8474521,74.0601174 101.079158,95.6205391 C105.800937,105.570411 105.864841,114.601233 103.088577,126.541789 C100.127702,138.414925 100.695735,144.553754 102.815211,151.987771 L61.9735926,171.348149 C57.5571311,165.003509 53.1584207,160.681489 42.0853151,155.46171" transform="rotate(-15 62.777 136.11)"/>
      <path d="M434.430238 619.228476C432.774087 610.699642 433.198741 604.400389 436.835778 597.556849 444.719356 582.731259 463.658928 577.380764 479.193773 585.63246 494.726121 593.884157 500.888601 612.567197 493.005023 627.392787 489.367985 634.236327 484.29212 638.063816 476.381065 641.511802 468.430041 644.824964 465.200173 647.723669 461.892867 652.040518L433.808245 637.122549C435.536836 631.966799 436.131352 627.669924 434.430238 619.228476M431.699962 643.202089L458.028515 657.188777C455.455611 660.546881 452.240729 664.686461 449.872658 667.028395 444.901708 671.926982 441.262173 673.479949 434.417748 669.844708 427.570826 666.209467 426.823934 662.324554 428.10539 655.466033 428.71989 652.192818 430.356057 647.211839 431.699962 643.202089M504.933957 64.1018918C503.452664 60.1970041 505.366105 55.9425741 509.272923 54.4620125L522.432203 49.46855C526.339021 47.9854917 530.593055 49.8979878 532.079345 53.8028755 533.560638 57.7077631 531.647197 61.9621931 527.740379 63.4427547L514.578601 68.4362172C512.725111 69.1402954 510.566869 69.0204523 508.863256 68.2539558 507.159644 67.4899561 505.635885 65.9519696 504.933957 64.1018918L504.933957 64.1018918zM481.350668 140.771514L476.357236 127.618734C474.873445 123.71135 476.786886 119.459417 480.693703 117.976358 484.600521 116.4933 488.854556 118.405796 490.338347 122.310684L495.334277 135.465961C496.818069 139.370848 494.902129 143.625278 490.99781 145.10584 489.146818 145.809918 486.98358 145.690075 485.279967 144.923578 483.578853 144.159579 482.052597 142.621592 481.350668 140.771514L481.350668 140.771514zM414.152908 23.2953165L409.15448 10.1425364C407.673186 6.23764876 409.586628 1.98321875 413.493445.500160395 417.400263-.980401225 421.656795.932094898 423.140586 4.83698254L428.136517 17.9922594C429.61781 21.897147 427.704369 26.1490803 423.797551 27.6321387 421.944061 28.3337202 419.785819 28.2138771 418.082207 27.4498773 416.378595 26.6833808 414.852338 25.1453944 414.152908 23.2953165L414.152908 23.2953165zM410.925537 114.228765C411.550028 112.463576 411.997164 111.472373 411.997164 111.472373 413.910605 103.809905 413.006342 97.096195 410.011282 85.1817936 407.016221 73.2698889 406.801396 64.6486759 411.395154 54.4420386 421.34455 32.3259934 447.638131 21.6449772 470.616912 31.9714576 493.595693 42.3004347 503.047994 69.0504131 493.0961 91.1664583 488.504841 101.375592 481.910213 106.933316 471.004097 112.598399 459.958095 118.201064 454.332677 121.981115 450.011198 128.560002 450.011198 128.560002 449.421678 129.488786 448.514916 131.124145L410.925537 114.228765zM404.203513 138.649293C404.598191 134.736915 406.169411 128.966969 407.835554 123.748801L443.439051 139.752848C440.64133 144.459186 437.364 149.465133 434.841055 152.421262 428.188974 159.998842 422.680961 163.14722 413.460972 159.002646 404.240982 154.860569 402.802154 148.586283 404.203513 138.649293L404.203513 138.649293zM372.414408 91.8056215C370.930617 87.9007339 372.844058 83.6463039 376.750876 82.1632455L389.912654 77.1722798C393.819472 75.6892214 398.073506 77.6017175 399.557298 81.5066052 401.038591 85.4114928 399.12515 89.6634261 395.218332 91.1489812L382.059052 96.1399469C380.208059 96.8415284 378.044822 96.7216853 376.341209 95.9576856 374.642593 95.1936858 373.116336 93.6556994 372.414408 91.8056215L372.414408 91.8056215zM367.247851 597.60699L353.179311 597.102651C349.002714 596.952847 345.825302 593.537318 345.97518 589.362784 346.125058 585.188249 349.539776 582.012407 353.716374 582.162211L367.784913 582.666551C371.961511 582.816354 375.138923 586.229386 374.989045 590.406417 374.919102 592.381332 373.969875 594.326285 372.60099 595.599618 371.237101 596.870455 369.226239 597.676899 367.247851 597.60699L367.247851 597.60699zM335.341342 667.84753C331.886656 665.962498 327.175494 662.272329 323.013884 658.714487L351.590605 632.13179C354.842956 636.53852 358.185233 641.499525 359.933809 644.972478 364.337722 654.03811 365.102099 660.334866 357.703126 667.22085 350.301655 674.101842 343.959322 672.99579 335.341342 667.84753L335.341342 667.84753zM305.712977 546.121896C301.533882 545.969595 298.35647 542.556563 298.506348 538.382029L299.010937 524.320438C299.160815 520.148401 302.578031 516.970062 306.752131 517.119866 310.931227 517.269669 314.108638 520.685198 313.95876 524.859732L313.454171 538.918826C313.381731 540.896237 312.432504 542.841191 311.066117 544.112027 309.69973 545.382863 307.688868 546.191804 305.712977 546.121896L305.712977 546.121896zM279.809079 678.940507C275.632481 678.790703 272.452572 675.377671 272.602449 671.203137L273.109536 657.141546C273.256916 652.967012 276.674133 649.79117 280.85073 649.940974 285.027328 650.090777 288.20474 653.503809 288.054862 657.678344L287.550273 671.739934C287.477832 673.717345 286.528605 675.662299 285.162218 676.933135 283.795831 678.203971 281.787467 679.012912 279.809079 678.940507L279.809079 678.940507zM315.435058 652.173051C314.048687 650.914699 313.306792 650.115745 313.306792 650.115745 306.98694 645.379446 300.444769 643.60427 288.299662 641.739211 276.152058 639.871657 268.1211 636.725775 260.492314 628.531503 243.963279 610.779744 244.320488 582.414381 262.765463 565.256844 281.210437 548.101803 309.542358 549.77711 326.071393 567.531366 333.700179 575.723141 336.265589 583.954864 337.254783 596.201331 338.131569 608.550163 339.433009 615.196462 343.819436 621.732904 343.819436 621.732904 344.448923 622.636721 345.605481 624.107296L315.435058 652.173051zM232.844836 613.900658L218.778794 613.393822C214.599699 613.244018 211.422287 609.830986 211.572165 605.656452 211.722043 601.481917 215.139259 598.306075 219.313359 598.455879L233.381899 598.960219C237.558496 599.110022 240.735908 602.523054 240.58603 606.697589 240.516087 608.675 239.56686 610.619953 238.200473 611.89079 236.834087 613.161626 234.823225 613.970567 232.844836 613.900658L232.844836 613.900658z"/>
    </g>
    <g transform="translate(0 24.801)">
      <g filter="url(#b)" transform="translate(0 257.301)">
        <path fill="#A5CFEB" d="M145.103298,250.991397 L146.377261,165.77047 C146.407236,163.788065 145.797733,161.845608 144.641175,160.235217 L136.505302,148.597952 C135.451161,147.089927 136.972422,84.716587 138.126482,42.579254 C138.718499,20.9325942 155.392417,3.14588096 176.962346,1.14100578 L176.962346,1.14100578 C176.962346,1.14100578 183.674378,-0.0898827187 184.11402,3.40554101 L188.283124,251.101253 L145.103298,250.991397 Z"/>
        <path fill="#95BFDD" d="M184.113271,3.4065397 C183.673629,-0.0888840262 176.964094,1.13950774 176.964094,1.13950774 C176.0973,1.22189987 175.240498,1.33674951 174.39119,1.46657953 L178.293012,250.805141 L188.284872,251.102252 L184.113271,3.4065397 Z"/>
        <path fill="#7BABD5" d="M184.113271,3.4065397 C183.975883,2.31047469 183.221497,1.68379515 182.254785,1.33425278 C182.447128,1.6163834 182.577022,1.95344212 182.626981,2.35042239 L186.798583,250.046134 L188.284872,251.102252 L184.113271,3.4065397 Z" opacity=".5"/>
        <path fill="#FEFEFE" d="M188.21468,246.984643 L148.352152,246.832342 L149.493722,163.626277 C149.518701,161.69131 148.921688,159.793794 147.787612,158.218357 L139.804115,146.848243 C138.769957,145.372675 140.183806,84.4774002 141.260429,43.3337662 C141.812479,22.2014331 158.121693,4.85414447 179.246985,2.92167449 L179.246985,2.92167449 C179.246985,2.92167449 181.952281,2.43730863 184.008106,2.98908624 C183.088855,0.0254662642 176.963845,1.14150512 176.963845,1.14150512 C155.391418,3.1463803 138.7175,20.9330936 138.125482,42.5797534 C136.971423,84.7170864 135.45266,147.087929 136.506801,148.598452 L144.640176,160.235716 C145.796733,161.846108 146.406237,163.788564 146.376261,165.770969 L145.102299,250.991896 L188.284623,251.101752 L188.21468,246.984643 Z" opacity=".3"/>
        <path fill="#3B5373" d="M196.470954,247.257535 C171.596217,229.246116 136.824542,234.798846 118.804222,259.661296 C100.783901,284.521249 106.336878,319.278244 131.211615,337.289663 C156.086351,355.301083 190.858026,349.748352 208.880845,324.885903 C226.901165,300.02595 221.345691,265.268954 196.470954,247.257535 M182.252536,266.871856 C196.266121,277.018572 199.408561,296.670343 189.254333,310.677005 C179.102602,324.683667 159.443617,327.822059 145.430032,317.675343 C131.416448,307.528627 128.276505,287.876856 138.428236,273.870193 C148.579966,259.863531 168.24145,256.72514 182.252536,266.871856"/>
        <path fill="#010202" fill-opacity=".1" d="M145.363336,325.234696 C159.376921,335.381412 179.035907,332.243021 189.190135,318.236358 C193.951257,311.667459 195.787261,303.855187 194.950443,296.36749 C194.298474,301.378429 192.425,306.30448 189.255082,310.676256 C179.103352,324.682918 159.441868,327.82131 145.430782,317.674594 C137.989343,312.286648 133.615406,304.219709 132.66618,295.74081 C131.232348,306.781356 135.726187,318.256332 145.363336,325.234696"/>
        <path fill="#010202" fill-opacity=".1" d="M119.213388,269.767065 C136.881496,245.391478 170.811356,239.831258 194.999153,257.345827 C208.42072,267.065602 216.012036,281.848748 217.101149,297.248586 C218.8797,278.750304 211.163485,259.8875 195.114059,248.265216 C170.926263,230.750646 136.996402,236.310867 119.328295,260.686454 C111.4647,271.534751 108.159893,284.280564 109.031682,296.631893 C109.935946,287.254171 113.268231,277.968827 119.213388,269.767065"/>
        <path fill="#7BABD5" d="M186.718398,143.452938 L142.504415,157.17747 L144.907458,160.725325 L145.716799,209.898447 L182.931483,197.085222 C184.362817,196.590869 185.886576,196.463536 187.367869,196.693235 L186.718398,143.452938 Z" opacity=".3"/>
        <path fill="#CFE8F9" d="M100.732193,219.553556 L181.354018,191.792401 C183.22999,191.145748 185.263334,191.118284 187.156791,191.715003 L200.755714,195.814635 C202.519277,196.346439 261.34136,175.468772 301.04152,161.242398 C321.434908,153.936962 333.150364,132.557453 328.336786,111.445094 L328.336786,111.445094 C328.336786,111.445094 327.415036,104.688939 323.952857,105.36056 L87.1732383,178.577203 L100.732193,219.553556 Z"/>
        <path fill="#A5CFEB" d="M323.953856,105.361059 C327.413538,104.689438 328.335287,111.445593 328.335287,111.445593 C328.530128,112.294482 328.6875,113.14337 328.827386,113.992259 L90.5664742,187.975399 L87.1742375,178.577702 L323.953856,105.361059 Z"/>
        <path fill="#89B9D8" d="M323.953856,105.361059 C325.037973,105.151333 325.869795,105.670654 326.504278,106.482091 C326.174547,106.387215 325.81484,106.367242 325.420161,106.44464 L88.6405431,179.658787 L87.1742375,178.577702 L323.953856,105.361059 Z" opacity=".5"/>
        <path fill="#FEFEFE" d="M91.1087824,177.360046 L103.673547,215.173041 L182.4194,188.163402 C184.252907,187.534226 186.241287,187.511756 188.092279,188.098487 L201.391446,192.135702 C203.115042,192.660015 260.56824,172.344113 299.346651,158.502235 C319.265425,151.391545 330.67613,130.496401 325.929996,109.830957 L325.929996,109.830957 C325.929996,109.830957 325.547807,107.112016 324.383756,105.331847 C327.486228,105.279416 328.335537,111.446342 328.335537,111.446342 C333.151613,132.558701 321.436157,153.935714 301.042769,161.243646 C261.340111,175.467524 202.518028,196.345191 200.756963,195.813387 L187.15804,191.713754 C185.264583,191.117035 183.228741,191.1445 181.352769,191.791153 L100.730944,219.552307 L87.1744873,178.575955 L91.1087824,177.360046 Z" opacity=".3"/>
        <path fill="#3B5373" d="M88.2765895,169.603701 C63.4018526,151.592282 28.6301777,157.145012 10.6098572,182.007462 C-7.41296137,206.867415 -1.85748688,241.62441 23.0172501,259.635829 C47.891987,277.647248 82.6636619,272.094518 100.683982,247.232069 C118.706801,222.372116 113.151326,187.61512 88.2765895,169.603701 M74.0581719,189.218022 C88.0717564,199.364737 91.2141966,219.016509 81.0599682,233.023171 C70.9082379,247.029833 51.2492522,250.168225 37.2356677,240.021509 C23.2220832,229.872296 20.079643,210.223022 30.2338714,196.216359 C40.3856017,182.209697 60.0445874,179.071306 74.0581719,189.218022"/>
        <path fill="#010202" fill-opacity=".1" d="M30.0690057,242.439593 C16.0554212,232.292877 12.915479,212.641106 23.0672094,198.634444 C27.8283309,192.065544 34.6827473,187.888512 42.0642343,186.348029 C37.500452,188.530172 33.4037891,191.843335 30.2338714,196.217608 C20.079643,210.22427 23.2220832,229.873545 37.2356677,240.02026 C44.6746079,245.408206 53.7072499,247.051056 62.0654413,245.308337 C52.0136295,250.112048 39.7061552,249.417957 30.0690057,242.439593"/>
        <path fill="#010202" fill-opacity=".1" d="M90.9491625 249.992704C108.61727 225.617117 103.331576 191.661573 79.1437792 174.144506 65.7222124 164.427228 49.3030875 161.823138 34.3227905 165.588208 51.3539169 158.132969 71.6898512 159.58357 87.7417752 171.205854 111.929572 188.72292 117.215266 222.680961 99.5471585 247.054052 91.6835642 257.902349 80.5950969 265.013039 68.5798846 268.031587 77.2153501 264.254033 85.0040054 258.194466 90.9491625 249.992704M160.40958 177.027981C158.411208 179.784372 159.028205 183.634332 161.785959 185.631717 164.541214 187.626605 168.395574 187.012409 170.391448 184.256018 172.389821 181.502124 171.775321 177.649667 169.017568 175.652282 166.259814 173.657394 162.407952 174.27159 160.40958 177.027981"/>
        <path fill="#A5CFEB" d="M159.288743,175.907698 C157.290371,178.664089 157.907368,182.514049 160.665122,184.511434 C163.420377,186.506322 167.274737,185.892126 169.270612,183.135735 C171.268984,180.38184 170.654484,176.529384 167.896731,174.531999 C165.138977,172.537111 161.287115,173.151307 159.288743,175.907698"/>
        <path fill="#90BAD6" d="M164.286172,173.920799 C162.492633,173.920799 160.794017,174.787165 159.742373,176.237766 C157.928851,178.736994 158.490893,182.244901 160.991356,184.057528 C161.95557,184.754116 163.089647,185.123632 164.27618,185.123632 C166.069719,185.123632 167.768335,184.257266 168.817481,182.809162 C170.631003,180.307438 170.071459,176.797034 167.568498,174.986903 C166.604284,174.290315 165.470207,173.920799 164.286172,173.920799 M164.27618,186.244664 L164.27618,186.244664 C162.85234,186.244664 161.490949,185.800246 160.334391,184.963841 C157.331837,182.789188 156.659884,178.5797 158.835612,175.578629 C160.097084,173.838407 162.132926,172.799767 164.286172,172.799767 C165.707514,172.799767 167.071403,173.244185 168.225463,174.08059 C171.228017,176.252746 171.902468,180.464732 169.72674,183.465803 C168.465268,185.206024 166.426928,186.244664 164.27618,186.244664"/>
        <path fill="#FEFEFE" d="M164.945385,183.175932 C166.59654,180.898913 166.086955,177.713084 163.808811,176.062745 C163.149348,175.585869 162.414946,175.293752 161.665557,175.168915 C163.369169,174.115294 165.612342,174.127778 167.335937,175.376144 C169.614082,177.026483 170.123667,180.209815 168.472512,182.489331 C167.298468,184.10971 165.347557,184.828768 163.499063,184.519174 C164.048615,184.179618 164.543212,183.730206 164.945385,183.175932" opacity=".3"/>
      </g>
      <g filter="url(#c)" transform="rotate(-6 4944.39 -5804.215)">
        <polygon fill="#010202" fill-opacity=".1" points="248.855 137.77 27.003 161.743 12.38 36.879 237.739 12.526"/>
        <polygon fill="#9B5CA4" points="242.357 132.103 15.096 157.205 .116 26.468 230.97 .972"/>
        <polygon fill="#010202" fill-opacity=".1" points="168.857 54.469 24.745 69.966 19.839 45.334 167.174 28.363"/>
        <polygon fill="#010202" fill-opacity=".1" points="128.381 78.857 26.229 89.843 23.648 80.727 128.126 69.073"/>
        <polygon fill="#010202" fill-opacity=".1" points="154.614 97.134 28.174 109.603 26.318 100.412 153.32 86.333"/>
        <polygon fill="#010202" fill-opacity=".1" points="143.705 116.633 27.805 129.097 28.389 119.642 142.426 106.958"/>
      </g>
      <g filter="url(#d)" transform="translate(568.552 354)">
        <polygon fill="#010202" fill-opacity=".1" points="213.71 159.335 4.216 122.289 24.064 4.081 236.871 41.714"/>
        <polygon fill="#ED4F7E" points="210.348 155.975 .854 118.928 20.702 .721 233.509 38.354"/>
        <polygon fill="#010202" fill-opacity=".1" points="174.484 73.125 31.771 47.81 33.936 22.788 180.157 47.586"/>
        <polygon fill="#010202" fill-opacity=".1" points="128.807 85.254 27.647 67.31 27.714 57.838 131.295 75.787"/>
        <polygon fill="#010202" fill-opacity=".1" points="148.895 110.122 23.996 86.83 24.781 77.485 150.668 99.391"/>
        <polygon fill="#010202" fill-opacity=".1" points="132.975 125.804 18.199 105.446 21.401 96.53 134.447 116.157"/>
      </g>
      <g filter="url(#e)" transform="translate(632.104 200.629)">
        <polygon fill="#010202" fill-opacity=".1" points="216.136 132.007 3.567 123.281 7.431 3.483 223.358 12.349"/>
        <polygon fill="#A4CE4E" points="212.774 128.647 .205 119.921 4.069 .122 219.996 8.988"/>
        <polygon fill="#010202" fill-opacity=".1" points="68.424 109.461 14.538 107.081 16.352 11.891 73.977 14.695"/>
        <polygon fill="#010202" fill-opacity=".1" points="132.767 111.268 78.881 108.888 80.695 14.816 138.32 18.744"/>
        <polygon fill="#010202" fill-opacity=".1" points="198.932 112.985 141.683 110.606 145.737 17.655 204.485 20.462"/>
      </g>
      <g filter="url(#f)" transform="translate(583.328 132.764)">
        <polygon fill="#010202" fill-opacity=".1" points="236.696 64.127 12.371 87.421 4.238 25.767 233.059 4.257"/>
        <polygon fill="#44B9BC" points="233.334 60.766 9.009 84.06 .876 22.406 229.697 .897"/>
        <path fill="#010202" fill-opacity=".1" d="M36.1835608,68.2523923 L16.8293268,52.5654299 C16.5120852,52.2907895 16.4596279,51.7914432 16.7119224,51.4568813 L32.4291191,32.1271881 C32.6839116,31.7951228 33.2009904,31.7401947 33.5182319,32.0148352 L39.4109317,36.7960755 C39.7281733,37.0532388 39.7806306,37.5700622 39.5258381,37.8846503 L29.0918377,50.7328292 L41.9438684,61.1591788 C42.258612,61.4163421 42.3135672,61.9331655 42.0562768,62.2477536 L37.2726736,68.1400393 C37.1252936,68.2798563 36.955432,68.3897125 36.740607,68.4121831 C36.5282799,68.4321569 36.3584183,68.3597517 36.1835608,68.2523923"/>
        <polygon fill="#010202" fill-opacity=".1" points="217.406 45.435 131.686 54.336 127.774 29.591 215.368 19.369"/>
      </g>
      <g filter="url(#g)" transform="rotate(-3 457.31 -4207.107)">
        <g>
          <path fill="#3F4F5A" d="M276.258953,0.664533232 L32.4398405,15.8695021 C13.5811693,17.0469194 -0.915432535,33.4613441 0.251881817,52.1398273 L35.8456203,545.389552 C37.0209483,564.238907 53.4354716,578.557476 72.123186,577.390738 L305.423113,564.041336 C324.281784,562.866589 338.607429,546.460174 337.440115,527.78169 L312.536518,32.6657197 C311.371875,13.9872364 295.117624,-0.510214144 276.258953,0.664533232"/>
          <path fill="#E6EBF0" d="M32.316431,77.4163861 L283.013883,61.7815664 C287.092805,61.5279278 290.522626,64.5529023 290.77639,68.6271398 L315.383483,462.837651 C315.639919,466.914558 312.613449,470.342685 308.534527,470.596323 L57.6874876,483.83893 C53.6085654,484.092569 50.1814159,481.067594 49.9249807,476.993357 L25.4674745,85.1723886 C25.2137105,81.0981511 28.24018,77.6700247 32.316431,77.4163861"/>
          <path fill="#34414B" d="M182.070041 38.4227828C182.29175 41.989743 179.585825 45.0547657 176.017102 45.2790357L137.282032 47.6926076C133.713309 47.9168775 130.646772 45.2096188 130.422391 41.6426586 130.200681 38.0783682 132.909278 35.0106757 136.47533 34.7890756L175.210399 32.3728338C178.779122 32.1512338 181.848331 34.8558226 182.070041 38.4227828M212.051321 521.439123C212.930146 535.533421 205.672496 547.577252 191.402946 548.466322 177.301682 549.347382 161.635094 538.90281 160.745585 524.637639 159.864089 510.546011 171.721545 498.213833 185.993766 497.324763 200.274001 496.603895 211.172496 507.344824 212.051321 521.439123"/>
        </g>
        <path fill="#010202" fill-opacity=".1" d="M281.789672,437.224687 L281.263446,428.857282 L284.343339,428.662381 L284.217793,425.581339 L292.597347,425.236924 L293.062136,436.517169 L281.789672,437.224687 Z M254.83032,438.918192 L254.304094,430.550787 L267.782968,429.701765 L268.309195,438.07184 L254.83032,438.918192 Z M227.8699,440.610896 L227.343673,432.243491 L240.825219,431.397139 L241.351446,439.764544 L227.8699,440.610896 Z M200.91215,442.30627 L200.385924,433.936195 L213.864799,433.089843 L214.391025,441.459918 L200.91215,442.30627 Z M173.95173,443.998975 L173.425504,435.631569 L186.907049,434.785217 L187.433276,443.152623 L173.95173,443.998975 Z M146.993981,445.691679 L146.465083,437.324274 L159.946629,436.477922 L160.472855,444.845327 L146.993981,445.691679 Z M120.03356,447.387053 L119.507334,439.016978 L132.986208,438.170626 L133.515106,446.540701 L120.03356,447.387053 Z M93.0758108,449.079757 L92.5469133,440.712352 L106.028459,439.866 L106.554685,448.233405 L93.0758108,449.079757 Z M68.2742541,450.638433 L67.4488534,439.33149 L75.8150514,438.720087 L76.036761,441.750401 L79.0685729,441.55817 L79.5947992,449.928245 L68.2742541,450.638433 Z M62.5920777,372.912608 L61.619761,359.629953 L69.9886302,359.01855 L70.9582758,372.301205 L62.5920777,372.912608 Z M64.53404,399.480588 L63.5643945,386.195263 L71.9305925,385.58653 L72.9002381,398.869185 L64.53404,399.480588 Z M66.4760024,426.048568 L65.5063568,412.763243 L73.8725548,412.15184 L74.8448716,425.437165 L66.4760024,426.048568 Z M60.6509168,346.345429 L59.8201736,334.953049 L71.2235259,334.237521 L71.7497523,342.604927 L68.8034188,342.789148 L69.0171148,345.734026 L60.6509168,346.345429 Z M249.951106,331.410919 L249.42488,323.043514 L263.130807,322.181143 L263.659704,330.548548 L249.951106,331.410919 Z M222.536582,333.132992 L222.010356,324.765587 L235.716282,323.903215 L236.242509,332.27329 L222.536582,333.132992 Z M195.119386,334.855065 L194.59316,326.48766 L208.301758,325.625288 L208.827984,333.995363 L195.119386,334.855065 Z M167.704862,336.577138 L167.178635,328.209733 L180.884562,327.347361 L181.41346,335.717436 L167.704862,336.577138 Z M140.287666,338.299211 L139.76144,329.931805 L153.470038,329.069434 L153.996264,337.439509 L140.287666,338.299211 Z M112.873142,340.021283 L112.346915,331.653878 L126.055513,330.791507 L126.58174,339.161582 L112.873142,340.021283 Z M85.4586172,341.743356 L84.9297197,333.375951 L98.6383175,332.51358 L99.1645439,340.883655 L85.4586172,341.743356 Z M288.766312,332.063438 L280.384087,332.407852 L280.266554,329.505692 L277.365631,329.689914 L276.842076,321.319839 L288.296181,320.601641 L288.766312,332.063438 Z M289.860703,358.684014 L281.478477,359.028429 L280.930881,345.719075 L289.313107,345.374661 L289.860703,358.684014 Z M290.955895,385.305392 L282.573669,385.649806 L282.028745,372.337783 L290.408299,371.993368 L290.955895,385.305392 Z M292.051087,411.926769 L283.668861,412.271184 L283.121265,398.95916 L291.503491,398.614746 L292.051087,411.926769 Z"/>
        <g transform="translate(38.124 80.096)">
          <polygon fill="#010202" fill-opacity=".1" points="250.793 67.762 10.088 82.772 4.115 16.54 249.545 3.634"/>
          <polygon fill="#44B9BC" points="246.98 64.399 6.276 79.409 .303 13.178 245.733 .272"/>
          <path fill="#010202" fill-opacity=".1" d="M36.0064389,63.7169627 L16.0178501,46.1037617 C15.6919637,45.7967255 15.6572382,45.2600795 15.9430565,44.915665 L33.5863318,24.9556391 C33.8721502,24.6112245 34.4277598,24.5765161 34.7563174,24.8808824 L40.8413107,30.2500119 C41.1671971,30.538359 41.2019227,31.0936941 40.9161043,31.4194195 L29.2028928,44.6860552 L42.4734138,56.3934808 C42.7993002,56.679158 42.8340258,57.2344931 42.5455362,57.5602185 L37.1764245,63.644876 C37.0108101,63.7890495 36.8264973,63.8958447 36.5967741,63.911864 C36.3643797,63.9252134 36.1880805,63.8397772 36.0064389,63.7169627"/>
          <polygon fill="#010202" fill-opacity=".1" points="230.638 47.317 138.661 53.052 135.57 26.442 229.607 19.377"/>
        </g>
        <g transform="translate(48.52 162.863)">
          <polygon fill="#010202" fill-opacity=".1" points="240.064 132.353 13.009 146.631 3.829 18.787 234.471 4.284"/>
          <polygon fill="#9A5CA1" points="236.252 128.99 9.197 143.268 .016 15.424 230.658 .921"/>
          <polygon fill="#010202" fill-opacity=".1" points="178.089 51.926 23.394 61.572 19.334 35.023 177.544 23.956"/>
          <polygon fill="#010202" fill-opacity=".1" points="133.678 76.038 24.025 82.876 21.707 73.016 133.876 65.573"/>
          <polygon fill="#010202" fill-opacity=".1" points="160.825 96.821 25.155 104.08 23.614 94.173 159.963 85.22"/>
          <polygon fill="#010202" fill-opacity=".1" points="148.236 117.128 23.825 124.887 24.904 114.814 147.333 106.732"/>
        </g>
        <path fill="#FEFEFE" fill-opacity=".1" d="M32.316431,77.4163861 L283.013883,61.7815664 C287.092805,61.5279278 290.522626,64.5529023 290.77639,68.6271398 L310.759636,388.764489 L31.3387719,179.240285 L25.4674745,85.1723886 C25.2137105,81.0981511 28.24018,77.6700247 32.316431,77.4163861"/>
      </g>
    </g>
  </g>
</svg>
