<svg xmlns="http://www.w3.org/2000/svg" width="900" height="589" viewBox="0 0 900 589">
  <defs>
    <filter id="a" width="200%" height="200%" x="-50%" y="-50%" filterUnits="objectBoundingBox">
      <feOffset in="SourceAlpha" result="shadowOffsetOuter1"/>
      <feGaussianBlur stdDeviation="5" in="shadowOffsetOuter1" result="shadowBlurOuter1"/>
      <feColorMatrix values="0 0 0 0 0.419607843 0 0 0 0 0.454901961 0 0 0 0 0.509803922 0 0 0 0.3 0" in="shadowBlurOuter1" result="shadowMatrixOuter1"/>
      <feMerge>
        <feMergeNode in="shadowMatrixOuter1"/>
        <feMergeNode in="SourceGraphic"/>
      </feMerge>
    </filter>
    <filter id="b" width="200%" height="200%" x="-50%" y="-50%" filterUnits="objectBoundingBox">
      <feOffset in="SourceAlpha" result="shadowOffsetOuter1"/>
      <feGaussianBlur stdDeviation="5" in="shadowOffsetOuter1" result="shadowBlurOuter1"/>
      <feColorMatrix values="0 0 0 0 0 0 0 0 0 0 0 0 0 0 0 0 0 0 0.2 0" in="shadowBlurOuter1" result="shadowMatrixOuter1"/>
      <feMerge>
        <feMergeNode in="shadowMatrixOuter1"/>
        <feMergeNode in="SourceGraphic"/>
      </feMerge>
    </filter>
  </defs>
  <g fill="none" fill-rule="evenodd">
    <g fill="#6B7482" opacity=".1" transform="translate(0 1.028)">
      <path d="M526.270113,507.87556 C525.142553,507.184995 520.541197,501.774429 516.101572,495.748508 L511.033247,502.540204 C510.438715,503.301421 509.420494,503.688867 508.561726,503.460957 L508.43872,503.42905 C507.58223,503.201141 506.853302,502.485506 506.680182,501.653637 C506.507061,500.821768 502.445568,482.436328 504.700688,467.430782 C504.739412,466.78352 505.179046,466.113466 505.921641,465.785277 C506.573121,465.29983 507.372663,465.24969 508.074256,465.566484 C522.504746,471.476171 536.085579,483.584991 536.600385,484.118298 C537.33159,484.833933 537.593549,485.82078 537.368037,486.677719 C537.108356,487.660008 536.304258,488.23206 535.34754,488.373364 L526.632299,489.613191 C529.589012,496.293211 532.078755,503.246723 532.311101,504.356641 C532.623173,506.143449 531.96486,507.150808 530.418167,508.053329 C528.869196,508.95585 527.978537,508.851011 526.270113,507.87556 M564.181185,528.116181 L578.54106,473.686891 C570.133335,470.286485 554.167541,464.233215 536.156194,459.476749 C518.144847,454.718003 501.274728,452.099326 492.28386,450.905081 L477.923985,505.334371 C486.085697,508.670963 501.928485,514.690047 520.274683,519.667585 C538.68694,524.40126 555.436331,526.98803 564.181185,528.116181 M595.777922,471.945664 L578.181152,538.634194 C577.178877,542.43572 573.643577,544.908536 569.650421,544.641882 C568.880491,544.57123 553.256382,543.196937 532.044587,538.64331 L529.586734,547.960241 L552.40217,561.329398 C554.078703,562.427921 554.819021,564.59078 554.058202,566.486985 C553.20399,568.228212 551.222218,569.278873 549.263225,568.761519 L470.846553,548.049125 C468.88756,547.531771 467.682552,545.640125 467.798725,543.705175 C468.072072,541.679062 469.780497,540.163465 471.780492,540.035836 L498.220065,539.675739 L500.680196,530.358808 C479.985484,523.842883 465.716725,517.322399 465.015132,517.005605 C461.411496,515.266657 459.555008,511.36713 460.557284,507.567882 L478.154053,440.879353 C479.156329,437.080106 482.848803,434.513847 486.684785,434.871665 C487.69845,435.00841 512.256478,437.296619 540.069625,444.644414 C567.882771,451.989929 590.251739,462.095426 591.199345,462.476035 C594.834872,464.091911 596.780197,468.146417 595.777922,471.945664"/>
      <path d="M778.560371,120.118142 L764.178877,115.638567 C759.912377,114.309362 757.591304,109.887844 758.919813,105.616053 C760.248322,101.344262 764.66447,99.0219721 768.937078,100.351177 L783.315518,104.830752 C787.585071,106.159958 789.906145,110.581475 788.577636,114.853266 C787.948503,116.876103 786.421481,118.620876 784.650135,119.549792 C782.884897,120.475652 780.582148,120.747605 778.560371,120.118142 L778.560371,120.118142 Z M729.515476,49.6060887 C725.248976,48.2768833 722.927903,43.8553657 724.253358,39.5835746 L728.730587,25.1976002 C730.059096,20.9258091 734.478298,18.6035193 738.747851,19.9327246 C743.017405,21.26193 745.338479,25.6834477 744.009969,29.9552387 L739.532741,44.3412132 C738.903608,46.3671055 737.376586,48.1088229 735.608294,49.0377388 C733.840002,49.9666548 731.537253,50.2355515 729.515476,49.6060887 L729.515476,49.6060887 Z M725.868947,183.727494 C722.833227,180.809354 719.012618,175.672815 715.71425,170.820452 L752.686509,151.389608 C754.806015,156.859212 756.861387,162.924666 757.685979,167.003952 C759.686378,177.613149 758.70603,184.335567 749.128547,189.368214 C739.554119,194.397805 733.317761,191.470497 725.868947,183.727494 L725.868947,183.727494 Z M665.420251,179.571818 C661.153752,178.242612 658.832678,173.82415 660.158133,169.549304 L664.635362,155.163329 C665.963871,150.891538 670.386127,148.569248 674.655681,149.898454 C678.925235,151.227659 681.246308,155.649177 679.917799,159.920968 L675.44057,174.306942 C674.811437,176.329779 673.281361,178.074552 671.516123,179.003468 C669.747832,179.932384 667.445083,180.20128 665.420251,179.571818 L665.420251,179.571818 Z M709.728324,161.931582 C708.6533,160.238755 708.10968,159.205947 708.10968,159.205947 C702.917805,152.535475 696.666177,148.86259 684.651567,143.518268 C672.633904,138.17089 665.230901,132.658507 659.660324,122.049309 C647.587687,99.0555842 655.93439,69.8466781 679.798691,57.3032573 C703.666046,44.7628921 732.444304,54.4645635 744.513887,77.4582886 C750.084463,88.0674864 750.4143,97.2985886 747.992443,110.230076 C745.427046,123.237955 744.90175,130.470666 747.592363,138.461176 C747.592363,138.461176 747.986335,139.570375 748.76817,141.415984 L709.728324,161.931582 Z M635.234079,99.1533648 L620.852585,94.6737899 C616.583031,93.3445845 614.261958,88.9261226 615.590467,84.6512759 C616.918976,80.3794848 621.341232,78.0571949 625.610786,79.3864003 L639.99228,83.8659752 C644.261833,85.1951806 646.579853,89.6166982 645.254398,93.8884893 C644.622211,95.911326 643.092135,97.656099 641.326897,98.5850149 C639.561659,99.5139309 637.255856,99.7828276 635.234079,99.1533648 L635.234079,99.1533648 Z" transform="rotate(15 702.084 105.71)"/>
      <path d="M169.096725,236.155769 C166.490603,224.264978 174.014364,212.500513 185.898927,209.889786 C197.78349,207.27582 209.545031,214.806763 212.15439,226.697553 C214.76375,238.588344 207.236752,250.356049 195.352189,252.966775 C183.467626,255.577502 171.706084,248.04656 169.096725,236.155769 L169.096725,236.155769 Z M124.381501,272.320487 C122.212431,262.447665 128.515685,252.597516 138.380099,250.430548 C148.24775,248.263581 158.09274,254.566898 160.26181,264.43972 C162.427643,274.312543 156.124389,284.162691 146.256738,286.329659 C136.392324,288.496627 126.547334,282.193309 124.381501,272.320487 L124.381501,272.320487 Z M130.432237,143.517082 L73.9522342,232.12631 L55.3565027,220.219324 L112.059887,131.561509 C115.384716,126.36273 121.888689,124.93428 127.084746,128.260851 C132.28404,131.587422 133.760303,138.318303 130.432237,143.517082 L130.432237,143.517082 Z M176.821205,68.8878743 C173.690622,94.2695788 170.055001,123.76172 167.471541,151.61163 C167.141324,153.328361 166.542402,154.873419 165.71686,156.463824 L104.58145,251.739151 L85.9857186,239.832164 L145.716089,146.74648 C146.690552,136.183726 147.888397,125.572385 149.086242,114.964284 L129.940149,102.704234 C120.810629,108.236642 111.684346,113.769051 102.503028,119.081199 L43.0478377,212.338557 L24.4521061,200.428331 L85.3090982,104.981332 C86.406583,103.565839 87.5558666,102.370605 88.9770933,101.353523 C112.496938,87.4868722 137.166067,72.4249878 160.138788,58.2052733 C163.657862,56.0221098 168.335932,55.9346537 171.890617,58.2117515 C175.445303,60.4856102 177.326243,64.7774375 176.821205,68.8878743 L176.821205,68.8878743 Z M13.7265388,216.899231 L94.1310634,268.378484 L87.2547866,278.827869 C80.9547703,288.678017 72.2461147,295.062313 62.1550814,297.277868 C50.7205194,299.788182 37.8258818,296.743414 24.6981499,288.33791 C12.6646656,280.632056 5.01788319,271.491274 1.75780281,260.918803 C-1.82601941,249.94792 0.122906497,238.465258 7.12220519,227.520289 L13.7265388,216.899231 Z"/>
    </g>
    <g filter="url(#a)" transform="rotate(7 -1068.747 5557.248)">
      <path fill="#CFD4DA" stroke="#C8CED7" stroke-width="2" d="M211.3052,14.5127343 L51.3143141,0.127581986 C38.9381532,-0.987339875 27.8817938,8.25127511 26.779542,20.5202526 L0.149041092,352.2349 C-0.962879614,364.615128 8.28056556,375.566031 20.5431172,376.66886 L173.511982,391.216051 C185.885726,392.328555 196.830893,383.080266 197.933145,370.811288 L231.699276,38.9466943 C232.801528,26.6777169 223.678944,15.6252377 211.3052,14.5127343"/>
      <path fill="#4EC0E2" d="M45.1054456,40.1588393 L209.611697,54.9502972 C212.285141,55.1921458 214.214082,57.5017995 213.974777,60.1790631 L190.063647,326.360007 C189.824343,329.03727 187.515899,330.964803 184.840037,330.725373 L20.4764019,314.3619 C17.8005406,314.122469 15.8715999,311.812816 16.1133218,309.135552 L39.8818355,44.5242058 C40.1211401,41.8469423 42.4295842,39.9194092 45.1054456,40.1588393"/>
      <path fill="#B6BDC7" d="M146.324796,29.700582 C146.114498,32.0440946 144.047776,33.7684748 141.707908,33.5580666 L116.290851,31.2725977 C113.948566,31.0621894 112.225089,28.9943842 112.435387,26.6532902 C112.645685,24.3097776 114.70999,22.5853974 117.052275,22.7958057 L142.469332,25.0812745 C144.8092,25.2916828 146.535094,27.359488 146.324796,29.700582"/>
      <path fill="#35A2CA" d="M209.61073,54.9510228 L45.1068959,40.1595649 C42.4310345,39.9177163 40.1225905,41.8476678 39.8808686,44.5249314 L36.4580866,82.6451014 L209.767849,100.508036 L213.97381,60.1773702 C214.213115,57.5025251 212.286591,55.1904529 209.61073,54.9510228"/>
      <path fill="#35A2CA" d="M209.61073,54.9510228 L45.1068959,40.1595649 C42.4310345,39.9177163 40.1225905,41.8476678 39.8808686,44.5249314 L36.4580866,82.6451014 L209.767849,100.508036 L213.97381,60.1773702 C214.213115,57.5025251 212.286591,55.1904529 209.61073,54.9510228"/>
      <path fill="#B6BDC7" d="M117.064603,354.197501 C116.233079,363.455464 110.315727,370.56823 100.951421,369.726597 C91.6983072,368.894638 82.5563853,360.538771 83.3975774,351.169557 C84.2291008,341.911595 93.1655591,335.069699 102.529865,335.911332 C111.882085,336.866634 117.896126,344.939538 117.064603,354.197501"/>
      <path fill="#3590B6" d="M202.559461,73.2456571 C202.559461,80.5905979 196.521248,88.7118725 189.180154,88.7118725 C181.83906,88.7118725 175.977304,82.1142438 175.977304,74.769303 C175.977304,67.4267807 181.607007,62.1157864 188.945684,62.1157864 C196.286777,62.1157864 202.559461,65.9007163 202.559461,73.2456571"/>
      <polygon fill="#3590B6" points="146.259 63.783 66.839 55.403 62.703 72.078 144.347 79.556"/>
      <polygon fill="#35A2CA" points="189.364 117.865 69.061 106.186 62.704 167.127 182.789 175.51"/>
      <polygon fill="#35A2CA" points="180.472 187.871 60.169 176.193 53.464 227.59 173.551 241.424"/>
      <polygon fill="#35A2CA" points="172.656 253.824 54.169 242.145 47.812 297.632 167.899 307.831"/>
      <polygon fill="#35A2CA" points="165.753 320.13 45.451 308.451 43.51 316.631 164.525 328.701"/>
      <path fill="#FEFEFE" fill-opacity=".1" d="M44.6768726,39.8074334 L209.183124,54.5988913 C211.856568,54.8407398 213.785509,57.1503936 213.546204,59.8276571 L194.005406,277.351089 L33.2506788,113.203634 L39.4532625,44.1727999 C39.6925672,41.4955363 42.0010113,39.5680033 44.6768726,39.8074334"/>
    </g>
    <g filter="url(#b)" transform="rotate(-8 658.37 -234.302)">
      <path fill="#3F4F5A" stroke="#35414B" stroke-width="2" d="M0.46442676,113.807577 L43.744507,432.969429 C46.4552067,452.957072 65.0542517,467.119353 84.8514716,464.432303 L608.196479,395.245888 C628.173653,392.533768 642.148563,373.947768 639.46292,354.140174 L597.415184,34.5475731 C594.704484,14.5599308 576.128218,0.577697543 556.330998,3.26474775 L31.7308679,72.7041418 C11.933648,75.391192 -2.246273,93.819935 0.46442676,113.807577"/>
      <path fill="#34414B" d="M578.946207,178.678758 C590.096522,177.165441 600.087387,182.238701 601.620413,193.529326 C603.132938,204.685484 595.7366,217.740127 584.451888,219.271677 C573.299295,220.787273 562.814126,212.074302 561.283378,200.783678 C559.887026,189.47482 567.795891,180.192076 578.946207,178.678758"/>
      <path fill="#FEFEFE" d="M121.686237,94.1957574 L517.605577,40.4501951 C521.924473,39.8644683 525.808291,42.8204514 526.393711,47.141611 L561.015497,318.930244 L121.686237,94.1957574 Z"/>
      <path fill="#7C7170" d="M108.565083,423.039195 L66.0640443,109.632052 C65.4786243,105.310892 68.4353371,101.425039 72.7542336,100.839312 L315.651155,67.8654003 C319.970052,67.2796735 323.853869,70.2356566 324.439289,74.5568162 L443.204385,385.497981 L117.353217,429.730611 C113.034321,430.318617 109.150503,427.360355 108.565083,423.039195"/>
      <path fill="#4EC0E2" d="M517.605349,40.4499672 L315.651383,67.8651724 L443.204613,385.497753 L559.671309,369.687688 C563.990205,369.099682 566.946918,365.216108 566.361498,360.894948 L526.393483,47.1413831 C525.808063,42.8202235 521.924245,39.8642404 517.605349,40.4499672"/>
      <path fill="#35A2CA" d="M566.360587,360.894037 L526.39485,47.1427506 C525.80943,42.821591 521.925612,39.8633288 517.604438,40.4490556 L388.875812,57.9251378 L423.117189,335.475317 L443.20598,385.496842 L559.672676,369.686776 C563.991572,369.101049 566.946007,365.215196 566.360587,360.894037"/>
      <path fill="#010202" fill-opacity=".1" d="M86.0571635,99.0324477 L72.7542336,100.837489 C68.4330592,101.425495 65.4786243,105.311348 66.0640443,109.632508 L108.565083,423.039651 C109.150503,427.36081 113.034321,430.319073 117.353217,429.731067 L130.658425,427.926025 L86.0571635,99.0324477 Z"/>
      <polygon fill="#EBE3E1" points="148.811 145.662 112.629 150.573 110.326 133.598 146.509 128.687"/>
      <polygon fill="#EBE3E1" points="199.439 245.106 126.786 254.968 124.483 237.993 197.136 228.132"/>
      <polygon fill="#EBE3E1" points="246.941 412.14 149.887 425.316 148.078 411.988 245.135 398.812"/>
      <polygon fill="#D34F96" points="316.876 402.647 259.373 410.452 257.567 397.124 315.07 389.318"/>
      <polygon fill="#EBE3E1" points="388.306 392.95 330.802 400.756 328.996 387.428 386.499 379.622"/>
      <polygon fill="#FFDB2C" points="284.802 233.519 212.148 243.38 209.845 226.405 282.499 216.544"/>
      <polygon fill="#92C034" points="167.687 284.856 131.505 289.767 129.202 272.793 165.384 267.881"/>
      <polygon fill="#6CC6E0" points="245.354 274.313 180.684 283.092 178.383 266.117 243.051 257.338"/>
      <polygon fill="#D34F96" points="321.855 263.928 257.186 272.707 254.885 255.732 319.552 246.953"/>
      <polygon fill="#D34F96" points="237.298 310.845 136.224 324.566 133.921 307.591 234.996 293.871"/>
      <polygon fill="#FFDB2C" points="218.315 384.301 145.661 394.163 143.358 377.188 216.012 367.326"/>
      <polygon fill="#92C034" points="428.983 355.703 281.678 375.699 279.375 358.725 426.68 338.728"/>
      <polygon fill="#6CC6E0" points="272.186 376.988 228.229 382.955 225.928 365.98 269.883 360.013"/>
      <polygon fill="#3590B6" points="503.731 331.522 440.745 340.085 441.708 360.013 506.175 350.042"/>
      <polygon fill="#3590B6" points="487.305 296.116 424.319 304.678 425.282 324.607 489.749 314.636"/>
      <path fill="#010202" fill-opacity=".1" d="M444.901648,385.267109 L443.204613,385.497297 L105.285136,96.4217471 L187.18016,42.5964166 C190.904525,37.8992067 197.346423,36.3380283 202.806547,38.8131229 L577.270356,215.878108 C580.899049,217.594265 581.921826,222.280079 579.338689,225.352296 L444.901648,385.267109 Z"/>
      <polygon fill="#6CC6E0" points="162.94 214.622 122.067 220.171 119.764 203.195 160.637 197.647"/>
      <polygon fill="#EBE3E1" points="235.916 204.716 178.943 212.449 176.64 195.474 233.613 187.741"/>
      <polygon fill="#D34F96" points="174.224 177.651 117.347 185.372 115.046 168.398 171.921 160.676"/>
      <polygon fill="#3590B6" points="508.26 118.07 414.52 128.105 413.882 148.38 509.964 136.749"/>
      <path fill="#3590B6" d="M444.289804,86.7681945 C446.335357,96.2856853 440.77045,108.494785 431.255666,110.54141 C421.74316,112.585756 412.308103,105.66871 410.264827,96.1512189 C408.219274,86.6337281 414.037028,78.1828526 423.549534,76.1385065 C433.06204,74.0918813 442.246529,77.2507037 444.289804,86.7681945"/>
      <path fill="#010202" fill-opacity=".1" d="M418.358886,388.870355 L443.206208,385.497297 L324.441112,74.5584116 C323.853414,70.2349729 319.971874,67.2789898 315.6507,67.8647166 L103.539582,96.4217471 L418.358886,388.870355 Z"/>
      <path fill="#FEFEFE" d="M443.205069,385.497525 L105.285592,96.4219751 C124.659123,57.3104665 167.005264,14.1991504 179.105463,2.30456602 C181.141905,0.3035227 184.178344,-0.263971363 186.79565,0.873295856 C229.353637,19.3704116 566.156943,177.047156 566.156943,177.047156 C569.355113,178.539961 570.425726,182.560281 568.387006,185.441054 C551.018026,209.968649 480.346211,311.160361 443.205069,385.497525"/>
      <path fill="#EBE3E1" fill-opacity=".3" d="M218.860495,20.205927 L185.512054,4.98614641 C184.083812,4.3388841 182.395889,4.74684168 181.423226,5.9775517 C181.423226,5.9775517 124.65115,62.5697007 109.803805,95.7578475 L442.361107,379.206318 L451.948784,358.653461 C228.88325,199.951125 218.860495,20.205927 218.860495,20.205927"/>
    </g>
  </g>
</svg>
