<svg xmlns="http://www.w3.org/2000/svg" width="900" height="616" viewBox="0 0 900 616">
  <defs>
    <filter id="a" width="200%" height="200%" x="-50%" y="-50%" filterUnits="objectBoundingBox">
      <feOffset in="SourceAlpha" result="shadowOffsetOuter1"/>
      <feGaussianBlur stdDeviation="5" in="shadowOffsetOuter1" result="shadowBlurOuter1"/>
      <feColorMatrix values="0 0 0 0 0.419607843 0 0 0 0 0.454901961 0 0 0 0 0.509803922 0 0 0 0.3 0" in="shadowBlurOuter1" result="shadowMatrixOuter1"/>
      <feMerge>
        <feMergeNode in="shadowMatrixOuter1"/>
        <feMergeNode in="SourceGraphic"/>
      </feMerge>
    </filter>
    <filter id="b" width="200%" height="200%" x="-50%" y="-50%" filterUnits="objectBoundingBox">
      <feOffset in="SourceAlpha" result="shadowOffsetOuter1"/>
      <feGaussianBlur stdDeviation="5" in="shadowOffsetOuter1" result="shadowBlurOuter1"/>
      <feColorMatrix values="0 0 0 0 0 0 0 0 0 0 0 0 0 0 0 0 0 0 0.2 0" in="shadowBlurOuter1" result="shadowMatrixOuter1"/>
      <feMerge>
        <feMergeNode in="shadowMatrixOuter1"/>
        <feMergeNode in="SourceGraphic"/>
      </feMerge>
    </filter>
  </defs>
  <g fill="none" fill-rule="evenodd" transform="translate(-1)">
    <g fill="#000000" opacity=".1" transform="translate(9.362 1.075)">
      <path d="M500.979212,531.156782 C499.800578,530.434561 494.990798,524.775973 490.350075,518.473821 L485.052174,525.576852 C484.430713,526.372963 483.36637,526.778169 482.468704,526.539813 L482.340125,526.506443 C481.44484,526.268086 480.682894,525.519646 480.501932,524.649644 C480.32097,523.779642 476.075506,504.551406 478.432775,488.858 C478.473253,488.181066 478.932801,487.480298 479.709033,487.137064 C480.390022,486.629364 481.22578,486.576926 481.959153,486.908242 C497.043288,493.088831 511.239282,505.752724 511.777406,506.310478 C512.541732,507.058918 512.815556,508.091003 512.579829,508.987224 C512.308386,510.014542 511.467865,510.612817 510.467812,510.760598 L501.357804,512.057259 C504.448444,519.043494 507.050964,526.315757 507.293834,527.476555 C507.620042,529.345271 506.93191,530.398808 505.315157,531.342701 C503.696023,532.286593 502.765021,532.176949 500.979212,531.156782 M540.607511,552.325242 L555.617833,495.400891 C546.82927,491.844609 530.140287,485.513855 511.313095,480.53935 C492.485903,475.562462 474.851632,472.823743 465.453513,471.574754 L450.44319,528.499105 C458.974597,531.988647 475.535001,538.283648 494.712212,543.489359 C513.958474,548.440028 531.466548,551.145377 540.607511,552.325242 M573.635458,493.579846 L555.241623,563.325405 C554.193948,567.301195 550.498513,569.887365 546.324481,569.608488 C545.519677,569.534597 529.187856,568.097306 507.015247,563.334939 L504.446063,573.078962 L528.294951,587.060966 C530.047425,588.209846 530.821276,590.471851 530.025995,592.454979 C529.133091,594.276024 527.061552,595.374849 525.013824,594.833779 L443.045178,573.171921 C440.99745,572.630851 439.737859,570.65249 439.859294,568.628842 C440.145023,566.50985 441.930833,564.924778 444.02142,564.791299 L471.658605,564.414695 L474.23017,554.670672 C452.598067,547.856054 437.682988,541.036668 436.949615,540.705352 C433.182748,538.886691 431.242169,534.808407 432.289844,530.835001 L450.683679,461.089442 C451.731354,457.116036 455.591083,454.432139 459.60082,454.806359 C460.6604,454.949373 486.330814,457.342475 515.403789,465.027095 C544.476764,472.709332 567.85896,483.278069 568.849489,483.676125 C572.649691,485.366074 574.683133,489.60644 573.635458,493.579846"/>
      <path d="M764.697252,125.624407 L749.664331,120.939486 C745.204576,119.549349 742.778366,114.925148 744.167052,110.457536 C745.555737,105.989924 750.17192,103.56118 754.63806,104.951316 L769.667788,109.636237 C774.130737,111.026373 776.556946,115.650575 775.16826,120.118187 C774.51063,122.233751 772.91444,124.058505 771.062859,125.030003 C769.217663,125.998305 766.810608,126.282724 764.697252,125.624407 L764.697252,125.624407 Z M713.430811,51.880052 C708.971055,50.4899153 706.544846,45.8657135 707.930339,41.3981018 L712.610369,26.3526684 C713.999055,21.8850567 718.61843,19.4563122 723.081378,20.8464489 C727.544326,22.2365856 729.970535,26.8607874 728.58185,31.3283991 L723.90182,46.3738325 C723.244189,48.4925925 721.647999,50.3141509 719.79961,51.2856487 C717.951222,52.2571466 715.544167,52.5383696 713.430811,51.880052 L713.430811,51.880052 Z M709.619109,192.149637 C706.445882,189.097728 702.452214,183.725729 699.004443,178.650931 L737.651403,158.329369 C739.866915,164.049702 742.015387,170.393199 742.87733,174.659481 C744.968339,185.755009 743.943585,192.785585 733.93228,198.04893 C723.924166,203.309079 717.405325,200.247583 709.619109,192.149637 L709.619109,192.149637 Z M646.432318,187.803463 C641.972563,186.413326 639.546353,181.79232 640.931847,177.321513 L645.611877,162.276079 C647.000562,157.808468 651.623129,155.379723 656.086077,156.76986 C660.549026,158.159996 662.975235,162.784198 661.586549,167.25181 L656.906519,182.297243 C656.248889,184.412808 654.649506,186.237562 652.80431,187.20906 C650.955922,188.180557 648.548867,188.461781 646.432318,187.803463 L646.432318,187.803463 Z M692.747377,169.354591 C691.623659,167.584164 691.055415,166.504012 691.055415,166.504012 C685.628368,159.527763 679.093565,155.686512 666.534739,150.097204 C653.972721,144.5047 646.234391,138.739627 640.411489,127.644099 C627.792008,103.596333 636.516784,73.0484783 661.462046,59.9300619 C686.410501,46.8148413 716.492304,56.9612413 729.108592,81.0090081 C734.931495,92.1045359 735.276272,101.758796 732.744714,115.283068 C730.063114,128.887233 729.514025,136.451494 732.326512,144.808293 C732.326512,144.808293 732.738329,145.968338 733.555579,147.898551 L692.747377,169.354591 Z M614.878828,103.698595 L599.845908,99.013675 C595.38296,97.6235383 592.95675,93.0025322 594.345436,88.5317248 C595.734121,84.0641131 600.356689,81.6353686 604.819637,83.0255053 L619.852557,87.7104257 C624.315505,89.1005624 626.738522,93.7247642 625.353029,98.1923759 C624.692206,100.30794 623.092824,102.132694 621.247628,103.104192 C619.402431,104.07569 616.992184,104.356913 614.878828,103.698595 L614.878828,103.698595 Z" transform="rotate(15 684.757 110.556)"/>
      <path d="M176.756159,477.551639 C174.031989,465.115769 181.896547,452.812016 194.319436,450.081613 C206.742324,447.347822 219.036618,455.223985 221.764171,467.659855 C224.491724,480.095724 216.623782,492.402865 204.200894,495.133269 C191.778006,497.863672 179.483712,489.987508 176.756159,477.551639 L176.756159,477.551639 Z M130.015507,515.374162 C127.748186,505.048766 134.336953,494.747083 144.648187,492.48078 C154.962805,490.214477 165.253735,496.806742 167.521056,507.132138 C169.784993,517.457535 163.196226,527.759218 152.881608,530.025521 C142.570373,532.291823 132.279444,525.699559 130.015507,515.374162 L130.015507,515.374162 Z M136.340317,380.666357 L77.301987,473.337468 L57.8639401,460.88466 L117.13577,368.162735 C120.611201,362.725642 127.40978,361.231711 132.841198,364.710774 C138.276,368.189836 139.819132,375.229263 136.340317,380.666357 L136.340317,380.666357 Z M184.830528,302.616116 C181.558141,329.161328 177.757841,360.005401 175.05736,389.131962 C174.712186,390.927389 174.086134,392.543273 173.223199,394.206583 L109.318589,493.849369 L89.8805421,481.396562 L152.316469,384.043791 C153.335072,372.996837 154.587174,361.899068 155.839277,350.804687 L135.82594,337.982631 C126.282887,343.768647 116.743219,349.554664 107.146022,355.110323 L44.9977398,452.642636 L25.5596928,440.186441 L89.1732733,340.364112 C90.32047,338.883732 91.5218117,337.633709 93.0074146,336.570003 C117.592618,322.067699 143.379164,306.315372 167.392462,291.44382 C171.070936,289.160579 175.960904,289.069114 179.676603,291.450595 C183.392302,293.828688 185.358442,298.317255 184.830528,302.616116 L184.830528,302.616116 Z M14.3482984,457.412373 L98.3948398,511.251457 L91.2070941,522.179845 C84.6217112,532.481529 75.5185868,539.158483 64.9704684,541.475599 C53.0179646,544.100987 39.5392492,540.916646 25.8168815,532.125831 C13.2383264,524.066737 5.24517407,514.506938 1.83742454,503.44982 C-1.90873109,491.976028 0.128473691,479.966996 7.44481378,468.520305 L14.3482984,457.412373 Z"/>
    </g>
    <g filter="url(#a)" transform="rotate(7 -1137.861 5484.038)">
      <path fill="#CFD4DA" stroke="#C8CED7" stroke-width="2" d="M220.876516,15.178004 L53.6386558,0.133430396 C40.7019023,-1.03259994 29.1447322,8.62951693 27.9925526,21.4609093 L0.155792082,368.381492 C-1.00649437,381.329234 8.65564344,392.782131 21.4736416,393.935514 L181.37141,409.149554 C194.305637,410.313055 205.746578,400.640821 206.898758,387.809429 L242.194366,40.7320267 C243.346545,27.9006343 233.810743,16.341505 220.876516,15.178004"/>
      <path fill="#4EC0E2" d="M47.1485494,41.9997369 L219.106303,57.4692412 C221.900844,57.7221762 223.917158,60.1377055 223.667014,62.9376959 L198.672802,341.320482 C198.422658,344.120473 196.00965,346.136365 193.212582,345.885959 L21.4039045,328.772377 C18.6068368,328.521971 16.5905225,326.106442 16.8431935,323.306452 L41.6883297,46.5652136 C41.938474,43.7652231 44.3514817,41.7493312 47.1485494,41.9997369"/>
      <path fill="#B6BDC7" d="M152.952748,31.0620688 C152.732925,33.5130089 150.572588,35.3164355 148.126733,35.096382 L121.558381,32.7061463 C119.109999,32.4860929 117.308455,30.3234986 117.528279,27.8750879 C117.748102,25.4241478 119.905913,23.6207212 122.354294,23.8407747 L148.922647,26.2310104 C151.368501,26.4510638 153.172572,28.6136581 152.952748,31.0620688"/>
      <path fill="#35A2CA" d="M219.105293,57.4700001 L47.1500654,42.0004957 C44.3529978,41.7475607 41.93999,43.7659819 41.6873191,46.5659724 L38.1094982,86.4335865 L219.269529,105.115365 L223.666004,62.9359253 C223.916148,60.1384643 221.90236,57.7204057 219.105293,57.4700001"/>
      <path fill="#35A2CA" d="M219.105293,57.4700001 L47.1500654,42.0004957 C44.3529978,41.7475607 41.93999,43.7659819 41.6873191,46.5659724 L38.1094982,86.4335865 L219.269529,105.115365 L223.666004,62.9359253 C223.916148,60.1384643 221.90236,57.7204057 219.105293,57.4700001"/>
      <path fill="#B6BDC7" d="M122.36718,370.434059 C121.497992,380.116411 115.312607,387.555229 105.524134,386.675015 C95.8518891,385.804919 86.2958731,377.066015 87.1751681,367.267313 C88.0443562,357.584961 97.3856019,350.42943 107.174075,351.309644 C116.949915,352.308737 123.236369,360.751707 122.36718,370.434059"/>
      <path fill="#3590B6" d="M211.734628,76.6032679 C211.734628,84.2849037 205.422907,92.7784609 197.74929,92.7784609 C190.075672,92.7784609 183.948401,85.8783942 183.948401,78.1967583 C183.948401,70.5176518 189.833108,64.9631993 197.504199,64.9631993 C205.177816,64.9631993 211.734628,68.921632 211.734628,76.6032679"/>
      <polygon fill="#3590B6" points="152.884 66.707 69.866 57.943 65.543 75.383 150.885 83.203"/>
      <polygon fill="#35A2CA" points="197.941 123.268 72.19 111.054 65.544 174.788 191.069 183.555"/>
      <polygon fill="#35A2CA" points="188.646 196.484 62.894 184.269 55.885 238.023 181.412 252.491"/>
      <polygon fill="#35A2CA" points="180.477 265.459 56.623 253.245 49.977 311.276 175.504 321.942"/>
      <polygon fill="#35A2CA" points="173.261 334.805 47.51 322.591 45.481 331.145 171.978 343.769"/>
      <path fill="#FEFEFE" fill-opacity=".1" d="M46.7005637,41.6322223 L218.658318,57.1017267 C221.452859,57.3546617 223.469173,59.7701909 223.219029,62.5701813 L202.793108,290.064976 L34.7568071,118.392935 L41.2403441,46.197699 C41.4904884,43.3977086 43.9034961,41.3818167 46.7005637,41.6322223"/>
    </g>
    <g filter="url(#b)" transform="rotate(-8 668.474 39.567)">
      <path fill="#3F4F5A" stroke="#35414B" stroke-width="2" d="M0.485463512,119.024563 L45.7259655,452.816924 C48.5594495,473.720808 68.00096,488.532295 88.694918,485.722069 L635.745449,413.364121 C656.627512,410.527676 671.235432,391.089686 668.42814,370.374104 L624.475802,36.1312479 C621.642318,15.227364 602.224618,0.604179434 581.53066,3.41440511 L33.1681546,76.0369293 C12.4741965,78.847155 -2.34802056,98.1206791 0.485463512,119.024563"/>
      <path fill="#34414B" d="M605.170251,186.869465 C616.825633,185.286777 627.269045,190.592597 628.871512,202.400789 C630.452548,214.06835 622.721184,227.721423 610.925319,229.32318 C599.267556,230.908252 588.307449,221.795875 586.707364,209.987683 C585.247762,198.160423 593.514869,188.452154 605.170251,186.869465"/>
      <path fill="#FEFEFE" d="M127.198157,98.5137293 L541.051125,42.3044485 C545.565651,41.6918718 549.625391,44.7833584 550.237328,49.3026017 L586.427349,333.550136 L127.198157,98.5137293 Z"/>
      <path fill="#7C7170" d="M113.482665,442.431484 L69.0564923,114.65763 C68.444555,110.138386 71.5351956,106.074404 76.0497215,105.461828 L329.948943,70.9763779 C334.463469,70.3638011 338.523208,73.4552877 339.135146,77.9745311 L463.279845,403.169366 L122.668868,449.429637 C118.154342,450.044598 114.094603,446.950727 113.482665,442.431484"/>
      <path fill="#4EC0E2" d="M541.050887,42.3042102 L329.949181,70.9761395 L463.280083,403.169127 L585.022274,386.634322 C589.5368,386.019362 592.627441,381.957763 592.015503,377.43852 L550.23709,49.3023634 C549.625153,44.78312 545.565413,41.6916334 541.050887,42.3042102"/>
      <path fill="#35A2CA" d="M592.014551,377.437566 L550.238519,49.3037935 C549.626582,44.7845502 545.566842,41.69068 541.049935,42.3032567 L406.490396,60.5804497 L442.282776,350.853642 L463.281512,403.168174 L585.023703,386.633369 C589.538229,386.020792 592.626488,381.95681 592.014551,377.437566"/>
      <path fill="#010202" fill-opacity=".1" d="M89.9552232,103.572136 L76.0497215,105.459921 C71.5328145,106.074881 68.444555,110.138863 69.0564923,114.658106 L113.482665,442.431961 C114.094603,446.951204 118.154342,450.045074 122.668868,449.430114 L136.576751,447.542329 L89.9552232,103.572136 Z"/>
      <polygon fill="#EBE3E1" points="155.552 152.339 117.731 157.475 115.324 139.723 153.145 134.586"/>
      <polygon fill="#EBE3E1" points="208.473 256.342 132.528 266.656 130.121 248.903 206.066 238.589"/>
      <polygon fill="#EBE3E1" points="258.127 431.033 156.676 444.812 154.786 430.873 256.239 417.094"/>
      <polygon fill="#D34F96" points="331.23 421.104 271.122 429.268 269.234 415.329 329.342 407.165"/>
      <polygon fill="#EBE3E1" points="405.894 410.963 345.786 419.127 343.898 405.188 404.006 397.024"/>
      <polygon fill="#FFDB2C" points="297.702 244.223 221.758 254.537 219.35 236.784 295.295 226.47"/>
      <polygon fill="#92C034" points="175.283 297.914 137.462 303.05 135.055 285.298 172.876 280.161"/>
      <polygon fill="#6CC6E0" points="256.467 286.887 188.868 296.069 186.463 278.316 254.06 269.134"/>
      <polygon fill="#D34F96" points="336.434 276.026 268.835 285.208 266.43 267.455 334.027 258.274"/>
      <polygon fill="#D34F96" points="248.047 325.095 142.394 339.444 139.987 321.691 245.64 307.342"/>
      <polygon fill="#FFDB2C" points="228.204 401.918 152.259 412.231 149.852 394.478 225.796 384.165"/>
      <polygon fill="#92C034" points="448.414 372.008 294.437 392.922 292.03 375.169 446.007 354.255"/>
      <polygon fill="#6CC6E0" points="284.515 394.269 238.567 400.51 236.162 382.757 282.107 376.517"/>
      <polygon fill="#3590B6" points="526.548 346.719 460.709 355.674 461.716 376.516 529.103 366.088"/>
      <polygon fill="#3590B6" points="509.378 309.69 443.539 318.645 444.546 339.487 511.933 329.059"/>
      <path fill="#010202" fill-opacity=".1" d="M465.053987,402.92791 L463.280083,403.168651 L110.05415,100.841759 L195.658704,44.5490537 C199.551768,39.6365218 206.285459,38.0037783 211.992906,40.5923322 L603.418491,225.774048 C607.21155,227.568874 608.280654,232.469489 605.580511,235.682537 L465.053987,402.92791 Z"/>
      <polygon fill="#6CC6E0" points="170.32 224.46 127.597 230.264 125.189 212.509 167.913 206.707"/>
      <polygon fill="#EBE3E1" points="246.602 214.1 187.049 222.187 184.641 204.434 244.195 196.347"/>
      <polygon fill="#D34F96" points="182.115 185.794 122.662 193.87 120.257 176.117 179.708 168.042"/>
      <polygon fill="#3590B6" points="531.282 123.482 433.296 133.977 432.629 155.181 533.063 143.018"/>
      <path fill="#3590B6" d="M464.414429,90.7456839 C466.552638,100.69946 460.735662,113.46823 450.789895,115.608673 C440.846509,117.746733 430.98408,110.512606 428.848252,100.55883 C426.710043,90.6050534 432.791319,81.7667864 442.734705,79.6287267 C452.678091,77.4882834 462.278602,80.7919075 464.414429,90.7456839"/>
      <path fill="#010202" fill-opacity=".1" d="M437.30894,406.69633 L463.28175,403.168651 L339.137051,77.9761996 C338.522732,73.4545727 334.465374,70.3630861 329.948467,70.9756628 L108.229529,100.841759 L437.30894,406.69633 Z"/>
      <path fill="#FEFEFE" d="M463.28056,403.168889 L110.054626,100.841998 C130.305703,59.9376017 174.569963,14.8500453 187.218255,2.41020827 C189.346939,0.317436304 192.520918,-0.276071918 195.256777,0.913328094 C239.742477,20.2583592 591.801682,185.16307 591.801682,185.16307 C595.144717,186.724306 596.263825,190.928918 594.132759,193.941747 C575.977031,219.593697 502.104054,325.424079 463.28056,403.168889"/>
      <path fill="#EBE3E1" fill-opacity=".3" d="M228.774037,21.1321749 L193.915039,5.21471339 C192.422103,4.53778032 190.657723,4.96443884 189.641002,6.2515651 C189.641002,6.2515651 130.297369,65.4379212 114.777496,100.147426 L462.39837,396.58929 L472.420332,375.094282 C239.250784,209.116966 228.774037,21.1321749 228.774037,21.1321749"/>
    </g>
  </g>
</svg>
