<svg xmlns="http://www.w3.org/2000/svg" width="929" height="801" viewBox="0 0 929 801" xmlns:xlink="http://www.w3.org/1999/xlink">
  <defs>
    <polygon id="b" points="542.129 460.739 234.059 507.706 163.702 86.436 477.181 31.951"/>
    <filter id="a" width="200%" height="200%" x="-50%" y="-50%" filterUnits="objectBoundingBox">
      <feOffset in="SourceAlpha" result="shadowOffsetOuter1"/>
      <feGaussianBlur stdDeviation="5" in="shadowOffsetOuter1" result="shadowBlurOuter1"/>
      <feColorMatrix values="0 0 0 0 0 0 0 0 0 0 0 0 0 0 0 0 0 0 0.2 0" in="shadowBlurOuter1"/>
    </filter>
    <polygon id="d" points="536.332 482.079 226.386 514.42 176.016 90.292 491.72 50.699"/>
    <filter id="c" width="200%" height="200%" x="-50%" y="-50%" filterUnits="objectBoundingBox">
      <feOffset in="SourceAlpha" result="shadowOffsetOuter1"/>
      <feGaussianBlur stdDeviation="5" in="shadowOffsetOuter1" result="shadowBlurOuter1"/>
      <feColorMatrix values="0 0 0 0 0 0 0 0 0 0 0 0 0 0 0 0 0 0 0.2 0" in="shadowBlurOuter1"/>
    </filter>
    <polygon id="f" points="445.597 407.905 156.133 514.172 .257 112.953 302.987 .072"/>
    <filter id="e" width="200%" height="200%" x="-50%" y="-50%" filterUnits="objectBoundingBox">
      <feOffset in="SourceAlpha" result="shadowOffsetOuter1"/>
      <feGaussianBlur stdDeviation="5" in="shadowOffsetOuter1" result="shadowBlurOuter1"/>
      <feColorMatrix values="0 0 0 0 0 0 0 0 0 0 0 0 0 0 0 0 0 0 0.2 0" in="shadowBlurOuter1"/>
    </filter>
    <filter id="g" width="200%" height="200%" x="-50%" y="-50%" filterUnits="objectBoundingBox">
      <feOffset in="SourceAlpha" result="shadowOffsetOuter1"/>
      <feGaussianBlur stdDeviation="6" in="shadowOffsetOuter1" result="shadowBlurOuter1"/>
      <feColorMatrix values="0 0 0 0 0 0 0 0 0 0 0 0 0 0 0 0 0 0 0.2 0" in="shadowBlurOuter1" result="shadowMatrixOuter1"/>
      <feMerge>
        <feMergeNode in="shadowMatrixOuter1"/>
        <feMergeNode in="SourceGraphic"/>
      </feMerge>
    </filter>
    <polygon id="i" points="142.721 399.316 129.973 383.316 111.979 395.842 74.32 393.778 67.333 491.539 295.632 523.41 309.292 420.325"/>
    <filter id="h" width="200%" height="200%" x="-50%" y="-50%" filterUnits="objectBoundingBox">
      <feOffset dy="2" in="SourceAlpha" result="shadowOffsetOuter1"/>
      <feGaussianBlur stdDeviation="2" in="shadowOffsetOuter1" result="shadowBlurOuter1"/>
      <feColorMatrix values="0 0 0 0 0 0 0 0 0 0 0 0 0 0 0 0 0 0 0.2 0" in="shadowBlurOuter1"/>
    </filter>
  </defs>
  <g fill="none" fill-rule="evenodd" transform="translate(15)">
    <g fill="#6B7482" opacity=".1" transform="translate(202.736 .743)">
      <path d="M293.735858 612.587827C293.608297 611.975257 293.259632 611.481798 292.692696 611.110285L277.028265 600.844067C276.46133 600.472554 275.868882 600.350607 275.253757 600.478226 274.638632 600.605845 274.145398 600.95467 273.774055 601.5247L268.793526 609.127941 288.389655 621.969222 293.370184 614.365981C293.741527 613.795951 293.863418 613.206069 293.735858 612.587827L293.735858 612.587827zM282.896049 630.3637L244.642069 688.78756C244.296238 689.122204 244.109149 689.295199 244.072298 689.303706L223.7675 703.219821 223.6286 703.358784C223.554899 703.3758 223.441512 703.418339 223.288439 703.489239 223.129697 703.560138 222.996467 703.602677 222.88875 703.628201 222.239608 703.761492 221.681177 703.616857 221.216289 703.182954 220.340374 702.612923 219.963362 701.895422 220.088088 701.044631L220.161789 700.857457 224.802157 676.675123C224.796488 676.638255 224.875859 676.397198 225.04594 675.946278L263.29992 617.522418 282.896049 630.3637zM280.293814 652.645932L289.937389 698.931831C290.728264 702.732034 290.045107 706.279835 287.882247 709.580906 285.722223 712.881978 282.742976 714.923878 278.947342 715.71795L216.465369 728.746406C212.669735 729.537642 209.120718 728.857008 205.823988 726.693162 202.524423 724.529315 200.48062 721.551544 199.68691 717.754178L185.218713 648.295551C184.425003 644.498184 185.110995 640.950383 187.273855 637.649312 189.433879 634.34824 192.410291 632.303504 196.20876 631.512268L249.412832 620.417946 238.422785 637.201228 199.102966 645.400023 213.571163 714.85865 276.053136 701.827359 269.303768 669.43205 280.293814 652.645932zM86.7726128 647.706519C89.7688674 644.663521 93.1478037 640.525838 96.9009174 635.299142 100.648362 630.072445 103.522725 625.858191 105.524008 622.653542 107.525291 619.448894 108.684674 617.528941 109.004993 616.893683 109.63996 615.620332 110.592412 614.792228 111.868017 614.4037 113.140788 614.018008 114.365369 614.120103 115.547429 614.712821L129.448691 621.672296C130.627917 622.262178 131.449973 623.183869 131.903522 624.434533 132.35707 625.685196 132.263526 626.947204 131.625723 628.220555 131.308239 628.858649 130.469175 630.937417 129.105695 634.459694 127.73938 637.981971 126.089597 642.811632 124.159181 648.945839 122.223096 655.085719 120.936152 660.26704 120.304019 664.495474 120.026221 666.177205 119.209833 667.359806 117.846353 668.037603 116.392164 668.90541 114.892619 668.94795 113.347719 668.17373L87.9971937 655.479919C86.4522941 654.708534 85.5877173 653.480558 85.4091326 651.798827 85.1341689 650.298598 85.5877173 648.934495 86.7726128 647.706519M68.2763386 716.371074L68.0042095 716.232112C65.640088 715.049511 64.0271562 713.16359 63.1654141 710.571512L53.7004241 682.472701C52.838682 679.883458 52.997424 677.404819 54.1823194 675.039618 55.3643801 672.677253 57.249441 671.063585 59.8403368 670.20145 62.4283978 669.339314 64.9285838 669.506636 67.3380602 670.714761 69.7447018 671.920049 71.380311 673.82015 72.2420532 676.409392L78.1665302 694.894258 118.319745 678.675334C120.862451 677.677072 123.373976 677.711104 125.851484 678.783101 128.323323 679.849426 130.063816 681.658777 131.064457 684.205479 132.107619 686.661431 132.093445 689.125891 131.024772 691.604531 129.956098 694.08317 128.195763 695.844309 125.743766 696.887946L76.0461911 716.507201C73.4099405 717.46576 70.8190448 717.417548 68.2763386 716.371074M171.421768 663.148387C172.42241 663.877232 173.102732 664.841462 173.465571 666.046751 173.82841 667.252039 173.7377 668.400607 173.193442 669.492457L122.648298 770.535304C122.10404 771.624318 121.26214 772.395702 120.128269 772.849457 118.988729 773.306049 117.83218 773.351425 116.652954 772.98842L114.334187 772.165988C112.877163 771.666857 111.037457 771.028763 108.812234 770.257379 106.584178 769.480323 103.950762 768.561468 100.906317 767.492306 97.8647079 766.423145 94.5566386 765.195169 90.9906137 763.805543 87.4245887 762.418752 83.8018702 760.972407 80.1196234 759.469341 76.443046 757.969112 72.5567024 756.307233 68.466262 754.489375 64.3758216 752.66868 60.560345 750.870674 57.0198321 749.098192 53.4736499 747.322873 49.748883 745.346201 45.8426966 743.162502 41.9336756 740.975968 38.2797756 738.863169 34.869658 736.815597 31.462375 734.770861 28.1372976 732.734633 24.8859219 730.709749 21.6402156 728.687701 18.6751424 726.776256 15.9935369 724.978249 13.3119315 723.180243 10.9959996 721.620459 9.0429064 720.304568 7.08697855 718.985841 5.47688143 717.893991 4.20411099 717.02902L2.16030813 715.664917C1.15966678 714.936072.50202148 713.983186.18453754 712.800586-.1329464 711.615149-.0195592784 710.48076.524698904 709.391747L51.0698429 608.348899C51.6141011 607.25705 52.4786779 606.494174 53.6607386 606.063106 54.8399647 605.632038 56.0220254 605.598007 57.2040862 605.961011 67.8823183 609.834949 79.9665508 614.746852 93.4596182 620.70523 90.1883998 626.57002 86.7074152 631.705965 83.0280031 636.113066 74.3964085 632.471678 67.7575925 629.720785 63.1257286 627.854715L23.2248006 707.624937C38.8949008 718.086837 52.9123836 726.410415 65.2744146 732.598506 77.6279414 738.783761 92.6885858 745.020064 110.456348 751.298906L150.36011 671.528684C146.085416 668.936606 139.908653 665.27253 131.824151 660.542129 133.048732 655.360808 135.027337 649.47333 137.759967 642.882531 150.612397 650.117096 161.832052 656.872381 171.421768 663.148387M345.58382 81.078739C339.511939 78.0243971 333.227458 77.5763135 326.724707 79.7288163 320.221955 81.8813191 315.445523 85.9906426 312.392575 92.0681306 309.342461 98.1399468 308.891747 104.432969 311.043268 110.935853 313.160772 117.336641 317.254047 122.061371 323.323093 125.115713 329.397808 128.167219 335.682289 128.620974 342.185041 126.465635 348.684957 124.315969 353.46139 120.200973 356.514338 114.126321 359.567286 108.054505 360.035008 101.815367 357.917504 95.4174136 355.765983 88.9145297 351.6557 84.1330809 345.58382 81.078739L345.58382 81.078739zM327.898263 142.369767C324.743267 147.604971 322.268593 151.566824 320.48558 154.25249 316.69845 160.04638 313.458414 164.671851 310.7598 168.120393 309.849868 169.237766 308.390009 169.929743 306.380222 170.18498 304.370436 170.443054 302.649786 170.173637 301.221108 169.359713 299.687548 168.588328 298.423281 167.320649 297.431144 165.551002 296.439007 163.784192 296.155539 162.133656 296.577906 160.599395 297.810991 155.880337 299.497624 150.611101 301.643475 144.777507 303.222391 140.764606 304.9969 136.448257 306.961331 131.839802 302.255766 127.461062 298.848483 122.075551 296.730978 115.674762 293.261333 105.184501 293.978506 95.0515732 298.891003 85.2788136 303.8035 75.503218 311.502486 68.8812232 321.98796 65.4071575 332.371385 61.9699594 342.471343 62.7016402 352.293503 67.5993639 362.115662 72.4942516 368.760147 80.1882438 372.229793 90.6785043 375.702274 101.168765 374.953919 111.313037 369.990398 121.102812 365.026876 130.895424 357.353403 137.506075 346.972812 140.943273 340.574944 143.061744 334.216761 143.538187 327.898263 142.369767L327.898263 142.369767zM405.542929.905809469C408.196188.843418084 409.939515 2.07139398 410.77291 4.5840652L445.126373 108.448705C445.647954 110.025506 445.486378 111.477523 444.647313 112.799086 443.836595 114.231252 442.665873 115.087716 441.129477 115.359969 438.788033 116.02075 435.831464 116.939605 432.268274 118.11937 428.177834 119.474964 424.72803 120.734136 421.913195 121.896885 419.09836 123.065305 415.407609 124.834952 410.843777 127.220004 406.279946 129.602221 402.161159 132.540288 398.487416 136.025697 394.810838 139.511107 391.783402 143.455944 389.396603 147.851701 388.625571 149.037137 387.610756 149.839717 386.352159 150.253769 385.093562 150.673493 383.798114 150.636625 382.477154 150.143166 377.797101 147.965139 372.354519 146.453566 366.13807 145.597103 375.095653 138.909881 381.348952 130.115531 384.900804 119.222563 388.45549 108.329594 388.424309 97.4252818 384.815764 86.5124614 380.200908 72.559479 371.368051 62.3017681 358.317193 55.7364929 345.266336 49.1740536 331.770434 48.2013151 317.823818 52.8182776 305.450448 56.9134212 295.880575 64.5620378 289.114199 75.7641274L279.901495 47.90921C279.0681 45.3937028 279.737084 43.3716548 281.905612 41.8373939L282.325145 41.519765C282.639794 41.41767 283.059326 41.1936282 283.583742 40.8419677 284.108157 40.4988151 284.711944 40.1244668 285.395101 39.7217588 286.075424 39.3218867 286.922992 38.8936549 287.937807 38.4398994 288.949787 37.9918158 290.009957 37.4926847 291.109812 36.956686 292.212502 36.4150154 293.462595 35.8846886 294.860091 35.3657057 296.257587 34.8438868 297.638075 34.3560997 299.001556 33.9051801 315.992616 28.2814476 332.510285 28.9819326 348.563066 36.0037994 357.259858 20.7888094 370.10095 10.3666122 387.089175 4.74287964 388.452656 4.29196008 389.850152 3.85805636 391.287334 3.44400444 392.718846 3.02711655 394.036971 2.70948769 395.241709 2.48260992 396.446448 2.25856813 397.591658 2.02601842 398.674505 1.78212483 399.757352 1.53823123 400.692795 1.37658083 401.480836 1.29150167 402.266042 1.2064225 402.971876 1.14686709 403.601175 1.10999946 404.227639 1.07880376 404.703865 1.00790446 405.018514.902973497L405.542929.905809469zM575.437657 150.190243C575.140015 151.052379 574.468197 151.69898 573.410862 152.124376 572.356362 152.552608 571.412414 152.524248 570.581853 152.036461L569.756962 151.608229C569.207034 151.324632 568.379308 150.86804 567.273784 150.241291 566.165425 149.608869 564.830291 148.817633 563.25988 147.859074 561.689468 146.900516 559.580468 145.527905 556.938548 143.749751 554.290958 141.96876 551.41376 140.023283 548.309788 137.910484 548.020651 136.957598 547.652142 135.967843 547.201429 134.949729 546.74788 133.928779 546.26882 132.834094 545.758578 131.665674 545.254005 130.500089 544.885497 129.620938 544.661557 129.031056 543.93021 127.652773 543.283904 126.223443 542.725472 124.751574 557.241858 120.194167 565.731719 111.442357 568.203558 98.5018168 569.164514 93.3913952 568.80451 88.6297981 567.126381 84.2085177 565.448251 79.7929093 562.905545 75.9898708 559.489758 72.8022382 561.264266 70.3122547 563.659569 68.159752 566.675667 66.3418939 570.156651 64.3170098 573.787874 63.5853291 577.575004 64.1383436 581.362134 64.6970301 584.749574 66.0384449 587.737325 68.1710958 590.722241 70.3009108 593.094866 73.0688196 594.852366 76.46915 596.609867 79.8723165 597.100266 83.5449003 596.323564 87.4982453 594.407322 97.4042956 587.286611 103.858968 574.952927 106.862262 571.165797 107.809477 569.50751 110.432751 569.978067 114.740593 570.080115 116.099023 571.143119 119.008731 573.175584 123.461207 575.199544 127.913683 576.571528 131.143855 577.283032 133.154559 577.660044 134.283276 577.986032 135.295718 578.260996 136.189049 578.533125 137.079544 578.66919 137.981384 578.666355 138.891731 578.660685 139.799242 578.66919 140.502563 578.689032 141.001694 578.71171 141.497989 578.564306 142.226834 578.255327 143.188228 577.946347 144.149623 577.728076 144.796224 577.597681 145.130869 577.461617 145.465514 577.129959 146.273766 576.591371 147.552789 576.052782 148.831813 575.6701 149.7138 575.437657 150.190243L575.437657 150.190243zM512.428433 148.28447C509.769505 146.443924 506.951835 144.458744 503.966919 142.328929 500.979169 140.196278 498.167168 138.162886 495.522413 136.220245 492.880494 134.283276 490.663775 132.621396 488.869424 131.228934 487.066569 129.839308 485.462141 128.557448 484.041967 127.383356 482.627463 126.2121 481.46808 125.250705 480.558148 124.490665 479.648216 123.739132 478.897027 123.095366 478.310248 122.567876 477.720635 122.040385 477.284095 121.671708 476.997792 121.470354L476.541409 120.982567C475.810062 120.355817 475.47557 119.470994 475.535099 118.333769 475.492578 117.335507 475.880929 116.487551 476.705821 115.789902 477.201889 115.392866 477.924732 114.754773 478.877184 113.875621 479.821132 112.99647 480.458934 112.403752 480.784922 112.097467 481.108076 111.791182 481.660838 111.357278 482.443209 110.787248 483.22558 110.217217 483.852044 109.859885 484.32827 109.718086 484.80733 109.576288 485.464976 109.374934 486.295536 109.111188 487.128932 108.844607 488.004847 108.665941 488.928952 108.575189 489.853057 108.481602 490.944408 108.458915 492.20584 108.495782 494.459409 108.495782 497.999922 108.716988 502.835883 109.1594 507.663339 109.604647 510.716288 109.689726 511.986223 109.414637 516.209894 108.456079 518.151648 106.034159 517.814322 102.143205 516.63793 89.4976056 520.416556 80.6578807 529.158703 75.6268663 532.636853 73.6019823 536.27091 72.8703015 540.05804 73.426152 543.848005 73.9820026 547.235445 75.3262533 550.220361 77.4589043 553.205277 79.5887193 555.577902 82.353792 557.338237 85.7569585 559.092903 89.1572889 559.583302 92.8327087 558.803766 96.7832177 556.893193 106.692104 549.766812 113.14394 537.435963 116.147235 533.648833 117.094449 531.990546 119.72056 532.458268 124.025565 532.563151 125.386832 533.626156 128.293703 535.65862 132.746179 537.685415 137.201491 539.054564 140.431663 539.766068 142.442368 540.630645 144.991906 541.098367 147.121721 541.163564 148.831813 541.231597 150.54474 540.956633 152.172588 540.335838 153.715356 539.717879 155.260961 538.91283 157.180914 537.920693 159.475216 537.574862 160.411086 536.897374 161.057688 535.896733 161.412185 534.839398 161.840416 533.89545 161.812057 533.062055 161.321433L532.452599 161.04918C532.169131 160.84499 531.681566 160.552885 530.99274 160.167193 530.301078 159.778665 529.450675 159.28237 528.438695 158.664128 527.426715 158.051558 526.122763 157.251814 524.518335 156.270567 522.911073 155.283649 521.159242 154.169112 519.262842 152.921284 517.360773 151.670621 515.081692 150.127852 512.428433 148.28447L512.428433 148.28447zM503.283762 99.500079C502.657298 99.4830631 501.704846 99.4206717 500.437745 99.3214127 499.167809 99.2164817 497.977245 99.1200587 496.866051 99.0236356 495.752022 98.9300486 494.700357 98.9016889 493.705385 98.9442284 491.50284 97.370264 489.427856 95.8360031 487.488936 94.3471178 485.550016 92.8553965 483.891729 91.5650292 482.52258 90.4788519 481.150596 89.3926746 479.920346 88.4085923 478.834664 87.526605 477.748982 86.6417817 476.858893 85.8987571 476.161562 85.294695 475.467066 84.6934689 474.891627 84.1744861 474.449417 83.7490903 473.998703 83.3236944 473.63303 83.0089016 473.349562 82.8047116L473.10578 82.4700669C472.374433 81.843317 472.039941 80.9584938 472.102304 79.821269 472.059783 78.8258428 472.448134 77.9778872 473.270191 77.2745661 473.76626 76.880366 474.491937 76.2422723 475.441554 75.3631209 476.388337 74.4839696 477.023305 73.8912514 477.349293 73.5849665 477.672446 73.2786815 478.228043 72.8447778 479.007579 72.2747474 479.78995 71.704717 480.419249 71.3502205 480.895475 71.2055859 481.374535 71.0666233 482.026511 70.8624333 482.859907 70.5986879 483.693302 70.3321065 484.572052 70.1534403 485.496157 70.0626892 486.417428 69.9691021 487.508779 69.9435784 488.77021 69.983282 491.023779 69.980446 494.564292 70.2044878 499.397418 70.6468994 504.22771 71.092147 507.280658 71.1772262 508.550594 70.9021369 512.774264 69.9435784 514.716018 67.5216583 514.375857 63.6307046 513.205135 50.9879413 516.983761 42.1482164 525.723073 37.1115301 529.201223 35.089482 532.83528 34.3578012 536.625245 34.9164877 540.412375 35.4695023 543.799815 36.813753 546.787566 38.943568 549.772482 41.076219 552.142272 43.8412917 553.902608 47.2444582 555.660108 50.6447887 556.150507 54.3202084 555.368136 58.2707175 554.63112 61.7164235 553.372523 64.6828502 551.598014 67.1728337 542.203891 62.2949618 533.130087 62.3091416 524.370932 67.2210452 513.015212 73.8203521 507.544283 84.7275006 507.960981 99.9396546 507.52444 99.9509985 507.051049 99.9339827 506.543642 99.8942791 506.0334 99.8545755 505.460795 99.79502 504.822992 99.7127769 504.17952 99.6305337 503.706129 99.5879941 503.388645 99.5766502L503.283762 99.500079z"/>
    </g>
    <g transform="translate(0 101.244)">
      <polygon fill="#FEFEFE" points="546.711 448.003 241.663 511.725 148.425 94.925 458.462 23.402"/>
      <use fill="black" filter="url(#a)" xlink:href="#b"/>
      <use fill="#FEFEFE" xlink:href="#b"/>
      <use fill="black" filter="url(#c)" xlink:href="#d"/>
      <use fill="#FEFEFE" xlink:href="#d"/>
      <polygon fill="#D2DADF" points="478.323 144.907 209.681 172.498 202.892 113.399 472.787 82.365"/>
      <polygon fill="#D2DADF" points="440.822 187.025 212.528 211.627 212.208 194.512 437.066 168.66"/>
      <polygon fill="#D2DADF" points="487.06 455.697 243.592 482.043 243.272 464.928 483.304 437.331"/>
      <polygon fill="#D2DADF" points="330.708 234.44 219.719 245.555 217.775 228.627 328.577 215.888"/>
      <polygon fill="#D2DADF" points="376.762 436.715 243.254 450.418 239.682 433.678 376.257 417.975"/>
      <polygon fill="#D2DADF" points="468.295 426.191 393.916 433.093 390.347 416.356 466.164 407.638"/>
      <polygon fill="#D2DADF" points="391.233 262.044 223.638 279.667 221.694 262.739 390.728 243.304"/>
      <polygon fill="#D2DADF" points="473.131 219.713 344.913 231.159 343.155 215.859 470.999 201.16"/>
      <polygon fill="#E9507E" points="425.062 386.585 241.638 407.676 227.029 309.188 418.211 283.909"/>
      <path fill="#E5352A" d="M364.158614 189.147424C348.740801 192.284009 334.774342 203.28758 330.099958 218.689745 325.626836 233.431127 335.58506 241.715002 348.644422 246.751688 369.944192 254.967499 397.293166 252.60797 416.880791 240.787639 430.697012 232.449881 439.467506 215.090896 423.703861 203.800891 406.361301 191.379334 373.688802 183.529363 355.152842 197.2895 352.372023 199.356923 355.081975 204.087325 357.90248 201.994377 374.49952 189.669243 402.679054 197.022918 418.839554 207.113307 432.800343 215.828249 425.469866 229.066566 414.131153 236.082761 404.297655 242.168757 391.84208 245.06712 380.412658 245.855521 368.200865 246.70064 333.5611 243.788097 334.315124 225.535781 334.981273 209.424624 351.189962 197.334875 365.607135 194.40248 369.037095 193.701995 367.58574 188.449775 364.158614 189.147424M412.12902 257.868415L413.197694 265.448968C413.398956 266.866954 415.286852 267.760285 416.548283 267.351905 422.166615 265.531211 422.413232 260.242123 426.344931 256.595063 432.453662 250.934463 443.191422 254.655258 450.828045 252.145423 454.141784 251.05641 452.72161 245.792846 449.379524 246.890367 442.156765 249.264076 434.299037 246.697521 427.164153 249.502297 424.842551 250.41548 422.886624 251.748387 421.304873 253.676848 419.346111 256.067572 418.283106 261.067391 415.099763 262.099685L418.450352 263.999786C418.093183 261.472935 417.736014 258.946084 417.381679 256.419233 416.891279 252.962183 411.64429 254.434053 412.12902 257.868415M462.211545 240.098214C464.635195 235.560659 469.720607 233.220982 474.726648 234.528365 478.119758 235.416024 479.568279 230.160968 476.175169 229.273309 468.884377 227.367535 461.077674 230.665771 457.508814 237.347321 455.859031 240.441367 460.558928 243.195095 462.211545 240.098214"/>
      <path fill="#E5352A" d="M415.635234 221.659007C429.737757 217.739694 443.780752 218.270021 457.568626 223.133713 460.882364 224.299297 462.305373 219.038569 459.017146 217.878657 444.370365 212.714351 429.13964 212.249252 414.186713 216.403951 410.816281 217.342658 412.247793 222.60055 415.635234 221.659007M404.973726 328.412936C379.7621 333.089453 348.393553 349.645858 338.415486 374.979596 327.028584 403.883823 370.098682 407.825825 388.558106 406.376643 413.562801 404.416986 442.621085 390.296681 451.249845 364.89488 461.542561 334.598191 423.926383 323.872544 401.124233 326.254761 397.67443 326.614929 397.637579 332.065668 401.124233 331.702663 424.422452 329.269399 460.374674 341.305264 442.394311 370.830569 430.579373 390.225782 407.145089 400.205568 385.207516 401.121587 374.206131 401.581014 360.078095 400.988296 350.182234 395.45815 335.43057 387.21398 344.595084 372.472597 352.809981 363.3039 366.884157 347.59545 385.774452 337.496554 406.422247 333.667992 409.863546 333.027062 408.406521 327.777678 404.973726 328.412936"/>
      <path fill="#E5352A" d="M419.860038 356.149309C429.750229 336.626478 445.301273 321.445519 465.033467 312.004569 468.194133 310.492995 465.435991 305.79379 462.286664 307.299691 441.800446 317.10081 425.424511 333.135396 415.157307 353.398416 413.575557 356.520822 418.272618 359.280222 419.860038 356.149309M467.838381 296.078033C474.956257 297.961119 482.074134 299.841368 489.19201 301.724453 492.58512 302.620621 494.030806 297.3684 490.640531 296.472233 483.522654 294.589148 476.404778 292.706062 469.286901 290.822977 465.893792 289.92681 464.448106 295.181866 467.838381 296.078033"/>
      <path fill="#E5352A" d="M483.567159 284.489684C481.013114 291.091827 479.173408 297.852784 478.033867 304.84062 477.475436 308.26931 482.722425 309.746851 483.286526 306.289801 484.426066 299.301966 486.262938 292.541009 488.819817 285.938866 490.084084 282.666154 484.820087 281.248168 483.567159 284.489684M472.289676 340.156412C470.243038 333.89175 481.394662 333.310376 485.0599 331.881046 488.674115 330.468732 491.330208 328.211298 492.696523 324.535878 493.918269 321.246151 488.657107 319.825329 487.443865 323.086696 485.371715 328.667889 475.875543 327.802918 471.493131 330.621874 467.80238 332.995583 465.636686 337.309096 467.037017 341.605594 468.122699 344.923681 473.381027 343.502859 472.289676 340.156412M474.88454 359.290148C479.757352 357.069582 484.074566 353.850754 487.615079 349.832182 489.925342 347.211743 486.087188 343.343478 483.765586 345.980932 480.494368 349.693219 476.636371 352.534863 472.134902 354.585271 468.951559 356.037288 471.71537 360.733658 474.88454 359.290148M223.17732 102.260898C210.835132 109.248733 199.567286 124.73314 203.05394 139.738268 206.843905 156.047943 231.159773 155.682103 243.825115 153.322574 255.421782 151.161564 275.706738 139.621993 272.52056 124.823891 271.006842 117.790681 262.066268 115.700569 256.085097 113.896891 245.911438 110.831205 235.346593 109.855631 224.764739 110.437005 221.28092 110.629851 221.258243 116.077753 224.764739 115.884907 236.917004 115.218454 249.108954 116.67898 260.495856 121.1428 278.252279 128.102275 254.344605 145.191842 245.387022 147.403901 235.338089 149.885376 211.614668 151.67771 208.303764 138.289087 205.208296 125.773942 215.926213 112.626376 225.926957 106.965775 228.977071 105.238668 226.235937 100.530955 223.17732 102.260898"/>
      <path fill="#E5352A" d="M248.555058 134.280724C256.571528 131.603566 264.599336 128.934916 272.380527 125.616829 275.991907 124.07406 279.540924 122.400837 283.021909 120.585815 287.554559 118.220614 294.371959 112.540162 299.667138 113.345578 303.094264 113.867397 304.573966 108.620849 301.115658 108.093358 292.447213 106.771795 285.264139 113.419313 277.857125 117.114585 267.983942 122.040668 257.549492 125.537422 247.106538 129.025667 243.798469 130.131697 245.218642 135.395261 248.555058 134.280724M315.772645 101.519858C313.796874 107.007464 319.415206 113.011217 324.52613 109.511627 326.363002 108.252456 326.663478 106.556545 329.206184 106.341011 330.532813 106.227572 332.171257 106.945073 333.458201 107.171951 336.360911 107.685261 338.733537 107.676754 341.426481 106.42609 344.604155 104.95422 341.840344 100.255015 338.679678 101.724048 335.40279 103.244129 331.190458 100.5613 327.683962 100.924304 326.144732 101.083119 324.843614 101.536874 323.624703 102.478417 322.162009 103.607134 322.048622 105.130051 320.812702 103.326372 319.874424 101.956598 320.285452 99.9742535 319.049532 98.5335797 318.216137 97.5608413 317.116282 96.9624512 315.857685 96.7469173 313.246947 96.2988337 311.36472 97.7253277 310.519986 100.070677 309.332256 103.37742 314.593419 104.798242 315.772645 101.519858M318.438943 132.810272C322.682456 130.218194 326.724707 127.966432 331.742087 129.151868 333.902111 129.665179 335.699297 130.839272 337.978378 130.99525 345.980675 131.551101 356.032443 126.565462 363.674735 124.378927 367.039498 123.414697 365.607985 118.156805 362.229049 119.123871 353.10989 121.732965 343.029775 126.863239 333.783055 124.118018 326.991166 122.098806 321.579766 124.509382 315.689305 128.105395 312.704389 129.928925 315.437019 134.64231 318.438943 132.810272"/>
      <use fill="black" filter="url(#e)" xlink:href="#f"/>
      <use fill="#FEFEFE" xlink:href="#f"/>
      <polygon fill="#D2DADF" points="311.535 93.256 57.873 181.145 36.415 127.398 291.459 33.768"/>
      <polygon fill="#D2DADF" points="327.587 259.182 111.468 336.777 107.137 320.218 319.619 242.214"/>
      <polygon fill="#D2DADF" points="300.503 305.795 123.322 369.097 118.636 352.668 292.892 288.697"/>
      <polygon fill="#D2DADF" points="264.445 354.612 137.896 399.327 130.492 383.893 259.549 336.516"/>
      <polygon fill="#D2DADF" points="350.942 322.858 280.27 347.057 272.866 331.627 344.51 305.326"/>
      <polygon fill="#44B9BC" points="278.485 236.92 105.153 300.55 67.817 208.256 247.703 138.733"/>
      <polygon fill="#D2DADF" points="256.157 396.974 150.889 433.875 145.021 417.88 249.725 379.442"/>
      <polygon fill="#D2DADF" points="321.471 409.572 162.713 466.11 156.845 450.115 316.576 391.475"/>
      <polygon fill="#D2DADF" points="391.129 349.168 269.193 390.446 263.889 375.985 384.698 331.636"/>
      <path fill="#E5352A" d="M271.134119 363.602244C255.469688 370.938903 240.015024 391.009078 245.953674 409.374832 248.626776 417.636019 257.181834 420.778276 265.042396 422.457171 278.643181 425.364043 293.289963 423.438418 306.193417 418.552038 318.240799 413.988959 330.696374 407.16561 338.673158 396.749085 345.059688 388.408491 348.415946 376.040817 339.662461 368.020688 330.376055 359.512772 312.59412 359.209323 300.818868 359.396497 287.612103 359.606359 273.160914 363.162668 264.311049 373.641585 262.06315 376.304563 265.895634 380.175664 268.160542 377.492835 275.754644 368.502803 287.904074 365.283975 299.268299 364.895447 309.373926 364.549458 323.037074 364.609014 332.088201 369.543605 348.03043 378.233024 334.571379 395.342443 324.681187 402.633727 316.089278 408.966452 305.972312 413.603267 295.631407 416.16415 283.260872 419.226999 251.832797 422.340897 250.452308 403.612137 249.324106 388.314904 260.767702 374.449837 273.883757 368.307121 277.052927 366.821072 274.291951 362.121866 271.134119 363.602244M333.715873 418.489647C334.656986 420.863355 335.595265 423.234228 336.536378 425.607936 337.162842 427.181901 338.900499 428.239718 340.536108 427.235784 346.313182 423.690819 344.464972 416.365504 349.337784 412.247672 355.004305 407.457715 363.964722 408.40493 370.28322 404.39203 373.23412 402.520288 370.504325 397.804067 367.533582 399.689988 361.229258 403.691544 353.221293 403.053451 346.959489 407.191134 344.870331 408.569416 343.149682 410.341899 342.010141 412.582317 340.570125 415.409781 340.757213 420.707377 337.789305 422.530907 339.121604 423.072577 340.453903 423.617084 341.789036 424.158755L338.968532 417.040465C337.690092 413.821637 332.420425 415.225443 333.715873 418.489647M378.481392 389.977918C379.762667 384.969591 384.244293 381.572097 389.406241 381.679864 392.912738 381.756435 392.912738 376.308533 389.406241 376.231962 381.88584 376.073147 375.093952 381.240288 373.228734 388.528736 372.361322 391.929067 377.611146 393.378249 378.481392 389.977918"/>
      <path fill="#E5352A" d="M328.914212 383.036309C341.69861 375.909512 355.514831 373.155783 370.053894 374.638996 373.534879 374.993493 373.512202 369.542754 370.053894 369.191094 354.596395 367.614293 339.720005 370.776402 326.164574 378.331432 323.103122 380.038687 325.84709 384.7464 328.914212 383.036309M223.652128 161.492159C204.05033 170.249641 187.464629 185.030727 177.038683 203.884269 168.492128 219.340317 164.611454 241.338952 187.212342 245.249757 208.857944 248.99324 234.551465 241.032667 251.633235 227.75181 266.0334 216.555392 280.753883 196.431334 276.827854 177.061645 271.770788 152.107927 237.63276 153.801003 219.374599 160.289707 216.094877 161.452455 217.506546 166.718855 220.820285 165.541927 231.906711 161.602762 244.356617 159.895507 255.85974 163.185234 270.506522 167.371129 274.486409 180.535711 269.939586 194.205096 262.765016 215.781172 242.485729 230.882723 221.270999 236.852444 210.921589 239.762151 199.044288 241.682104 188.326371 239.852902 169.628834 236.66527 175.227323 218.446985 181.741414 206.632326 191.733654 188.507629 207.593677 174.597186 226.401766 166.197037 229.593613 164.770543 226.826968 160.074173 223.652128 161.492159"/>
      <path fill="#E5352A" d="M244.708684 184.860569C249.751576 163.553911 261.308558 145.182484 278.265602 131.351448 280.984058 129.136554 277.111888 125.30232 274.416109 127.500198 256.795751 141.870068 244.691676 161.287969 239.456025 183.411387 238.650977 186.820225 243.9008 188.277915 244.708684 184.860569M277.298694 115.250217L299.380835 115.718152C302.887332 115.791888 302.887332 110.343985 299.380835 110.27025L277.298694 109.802315C273.792197 109.728579 273.792197 115.176482 277.298694 115.250217"/>
      <path fill="#E5352A" d="M289.777513 100.373842C288.850573 107.392873 288.652146 114.397724 289.179396 121.456458 289.440187 124.930524 294.888438 124.958884 294.627647 121.456458 294.097563 114.394888 294.29599 107.392873 295.22293 100.373842 295.682148 96.9082841 290.231062 96.9423158 289.777513 100.373842M291.86412 156.992606C288.462506 151.479476 298.888452 148.337219 302.07463 146.215912 305.470574 143.955642 307.53422 141.020411 308.06147 136.979151 308.512184 133.510757 303.061098 133.544789 302.613219 136.979151 301.839352 142.937528 291.99735 144.324319 288.465341 148.408118 285.693026 151.612767 284.90215 156.076587 287.161389 159.743499 288.99826 162.721269 293.71233 159.987392 291.86412 156.992606M298.949114 174.997058C303.167115 171.695986 306.597075 167.544123 309.091592 162.802378 310.724367 159.702661 306.02447 156.946096 304.388861 160.054321 302.087103 164.42739 298.988799 168.099974 295.099621 171.145808 292.341479 173.303982 296.219319 177.135381 298.949114 174.997058"/>
    </g>
    <g filter="url(#g)" transform="translate(491.703 129.496)">
      <path fill="#3F4F5A" d="M373.194718,32.7580294 L102.97053,0.742741077 C82.0704488,-1.73589848 62.9080253,13.3769965 60.4531942,34.0994442 L0.944798189,582.241792 C-1.52987573,603.151413 13.5988009,622.13541 34.3089586,624.588526 L292.636003,656.541423 C313.536084,659.017227 332.508584,643.881644 334.963415,623.162032 L406.558878,75.1047639 C409.010875,54.3851522 394.094799,35.233833 373.194718,32.7580294"/>
      <path fill="#E6EBF0" d="M90.5438684,68.2261137 L368.390505,101.146077 C372.911817,101.682076 376.063979,105.683632 375.528225,110.204172 L323.764169,547.522404 C323.228415,552.042943 319.225849,555.196544 314.707373,554.663382 L37.1725504,519.088948 C32.6540736,518.555786 29.5019116,514.551393 30.0348311,510.030854 L81.4899068,75.3670913 C82.0228262,70.8465519 86.0253916,67.690115 90.5438684,68.2261137"/>
      <path fill="#34414B" d="M262.437327 55.3629953C261.969605 59.3191763 258.389407 62.1409685 254.435031 61.6730331L211.503832 56.5881353C207.552291 56.1173639 204.728952 52.5383672 205.196674 48.5821862 205.66723 44.6260052 209.244594 41.801377 213.19897 42.2693124L256.130168 47.3570463C260.084544 47.8249817 262.905049 51.4068143 262.437327 55.3629953M198.822333 591.161774C196.971288 606.796488 186.613375 618.557264 170.795871 616.685523 155.168291 614.833633 140.084969 600.248229 141.958692 584.423505 143.809736 568.788791 159.267236 557.632077 175.084739 559.506655 190.87673 561.568406 200.673378 575.527061 198.822333 591.161774"/>
      <path fill="#D2DADF" d="M368.559736,169.268111 L375.530209,110.206157 C376.063128,105.682782 372.910966,101.681225 368.39249,101.145226 L90.543018,68.2252629 C86.0245412,67.6921002 82.0248105,70.8457011 81.4890564,75.3662405 L74.7822081,132.026126 L368.559736,169.268111 Z"/>
      <polygon fill="#44B9BC" points="330.598 316.914 75.894 290.162 91.102 155.451 344.902 190.2"/>
      <path fill="#6B7482" d="M351.103505,135.983158 C350.913581,136.902013 350.077351,137.494731 349.147577,137.3898 L338.925728,136.232723 L337.772014,146.462074 C337.667131,147.389437 336.862082,148.07007 335.966324,148.053055 C333.874332,148.030367 331.762497,147.792145 329.715859,147.346898 C328.837109,147.162559 328.204976,146.320276 328.309859,145.392913 L329.463573,135.163562 L319.284244,134.014993 C318.314784,133.90439 317.628792,133.141514 317.648635,132.202807 C317.671312,130.10986 317.90659,128.0396 318.351635,125.992028 C318.541558,125.070337 319.380623,124.437915 320.352917,124.548518 L330.532246,125.699923 L331.683126,115.513111 C331.793678,114.543209 332.595892,113.862576 333.494485,113.879592 C335.586477,113.902279 337.698312,114.140501 339.74495,114.585749 C340.620865,114.770087 341.252999,115.61237 341.145281,116.582273 L339.994402,126.769084 L350.216251,127.923325 C351.146025,128.028256 351.826348,128.830836 351.80367,129.772379 C351.780993,131.865326 351.548549,133.935586 351.103505,135.983158"/>
      <polygon fill="#D2DADF" points="322.36 367.351 70.621 336.884 74.765 316.281 323.14 344.343"/>
      <polygon fill="#D2DADF" points="272.1 404.247 65.875 378.922 69.605 358.271 273.294 381.285"/>
      <polygon fill="#D2DADF" points="211.903 438.755 64.863 420.117 65.415 399.108 216.274 416.153"/>
      <polygon fill="#D2DADF" points="313.01 450.179 231.286 438.92 231.839 417.911 315.584 427.372"/>
      <use fill="black" filter="url(#h)" xlink:href="#i"/>
      <use fill="#FEFEFE" xlink:href="#i"/>
      <polygon fill="#E5352A" points="182.705 468.742 87.649 456.825 87.853 444.611 185.361 455.626"/>
      <polygon fill="#E5352A" points="203.642 445.493 90.796 430.911 91.544 411.932 207.349 425.015"/>
      <polygon fill="#E5352A" points="248.055 476.126 195.217 468.979 195.421 456.764 249.549 462.879"/>
      <polygon fill="#E5352A" points="164.633 486.508 85.656 476.409 87.022 464.325 166.127 473.261"/>
      <polygon fill="#E5352A" points="223.113 493.115 174.717 486.471 176.08 474.387 224.607 479.869"/>
      <polygon fill="#E5352A" points="280.959 499.651 232.563 493.007 233.926 480.922 282.453 486.404"/>
      <path fill="#010202" fill-opacity=".2" d="M286.293127,418.55459 C285.142248,428.747074 289.037095,440.680844 299.224928,441.832249 C309.412761,442.983653 321.341086,439.087028 322.491965,428.894544 C323.642845,418.702061 319.747997,406.768291 309.560164,405.616886 C299.372331,404.465481 287.444006,408.362107 286.293127,418.55459"/>
      <path fill="#E5352A" d="M286.293127,416.542468 C285.142248,426.734952 289.037095,438.668722 299.224928,439.820127 C309.412761,440.971531 321.341086,437.074906 322.491965,426.882422 C323.642845,416.689939 319.747997,404.756168 309.560164,403.604764 C299.372331,402.453359 287.444006,406.349985 286.293127,416.542468"/>
      <path fill="#010202" fill-opacity=".2" d="M305.596151,428.03014 C305.066066,427.970585 304.533146,427.865654 304.05692,427.746543 C302.988247,428.600171 301.040823,429.842326 298.835443,429.592761 C298.682371,429.575745 298.537802,429.476486 298.492447,429.317671 C298.472605,429.161693 298.51229,428.991535 298.631347,428.906455 C298.651189,428.880932 299.88144,427.885506 300.357666,425.993912 C298.214649,424.3689 296.97306,422.012207 297.253693,419.527896 C297.721415,415.398721 302.197372,412.523045 307.282784,413.098747 C312.368196,413.67445 316.090129,417.474652 315.622407,421.600992 C315.15752,425.730167 310.681563,428.605842 305.596151,428.03014"/>
      <path fill="#FEFEFE" d="M303.772886,428.03014 C303.242801,427.970585 302.709881,427.865654 302.233655,427.746543 C301.164982,428.600171 299.217558,429.842326 297.012178,429.592761 C296.859106,429.575745 296.714537,429.476486 296.669182,429.317671 C296.64934,429.161693 296.689025,428.991535 296.808082,428.906455 C296.827924,428.880932 298.058175,427.885506 298.534401,425.993912 C296.391384,424.3689 295.149795,422.012207 295.430428,419.527896 C295.89815,415.398721 300.374107,412.523045 305.459519,413.098747 C310.544931,413.67445 314.266864,417.474652 313.799142,421.600992 C313.334255,425.730167 308.858298,428.605842 303.772886,428.03014"/>
      <path fill="#FEFEFE" d="M91.5192811,68.336433 L369.365918,101.256396 C373.887229,101.792395 377.039391,105.793952 376.503637,110.314491 L334.465362,465.457597 L70.1117926,179.829838 L82.4653195,75.4774106 C82.998239,70.9568712 87.0008043,67.8004343 91.5192811,68.336433" opacity=".15"/>
    </g>
  </g>
</svg>
