<svg xmlns="http://www.w3.org/2000/svg" width="770" height="900" viewBox="0 0 770 900">
  <defs>
    <filter id="a" width="200%" height="200%" x="-50%" y="-50%" filterUnits="objectBoundingBox">
      <feOffset dy="2" in="SourceAlpha" result="shadowOffsetOuter1"/>
      <feGaussianBlur stdDeviation="4.5" in="shadowOffsetOuter1" result="shadowBlurOuter1"/>
      <feColorMatrix values="0 0 0 0 0.419607843 0 0 0 0 0.454901961 0 0 0 0 0.509803922 0 0 0 0.3 0" in="shadowBlurOuter1" result="shadowMatrixOuter1"/>
      <feMerge>
        <feMergeNode in="shadowMatrixOuter1"/>
        <feMergeNode in="SourceGraphic"/>
      </feMerge>
    </filter>
    <filter id="b" width="200%" height="200%" x="-50%" y="-50%" filterUnits="objectBoundingBox">
      <feOffset dy="2" in="SourceAlpha" result="shadowOffsetOuter1"/>
      <feGaussianBlur stdDeviation="4.5" in="shadowOffsetOuter1" result="shadowBlurOuter1"/>
      <feColorMatrix values="0 0 0 0 0.419607843 0 0 0 0 0.454901961 0 0 0 0 0.509803922 0 0 0 0.3 0" in="shadowBlurOuter1" result="shadowMatrixOuter1"/>
      <feMerge>
        <feMergeNode in="shadowMatrixOuter1"/>
        <feMergeNode in="SourceGraphic"/>
      </feMerge>
    </filter>
  </defs>
  <g fill="none" fill-rule="evenodd">
    <g fill="#6B7482" opacity=".1" transform="translate(4.703)">
      <path d="M569.308465,744.20104 C566.957057,744.20104 564.95839,743.377565 563.312405,741.730589 C561.666419,740.083614 560.843438,738.083745 560.843438,735.730923 C560.843438,733.378101 561.666419,731.378232 563.312405,729.731256 L574.599107,718.437766 C576.245093,716.79079 578.24376,715.967315 580.595168,715.967315 C582.946576,715.967315 584.945243,716.79079 586.591228,718.437766 C588.237214,720.084741 589.060194,722.08461 589.060194,724.437433 C589.060194,726.790255 588.237214,728.790124 586.591228,730.437099 L575.304526,741.730589 C573.65854,743.377565 571.659873,744.20104 569.308465,744.20104 L569.308465,744.20104 Z M456.441441,744.20104 C454.090033,744.20104 452.091366,743.377565 450.445381,741.730589 L439.158678,730.437099 C437.512693,728.790124 436.689712,726.790255 436.689712,724.437433 C436.689712,722.08461 437.512693,720.084741 439.158678,718.437766 C440.804664,716.79079 442.803331,715.967315 445.154739,715.967315 C447.506147,715.967315 449.504814,716.79079 451.1508,718.437766 L462.437502,729.731256 C464.083488,731.378232 464.906468,733.378101 464.906468,735.730923 C464.906468,738.083745 464.083488,740.083614 462.437502,741.730589 C460.791516,743.377565 458.792849,744.20104 456.441441,744.20104 L456.441441,744.20104 Z M536.153777,837.372335 L489.419775,837.372335 L489.24342,834.01958 C488.537998,829.7845 487.127174,825.784762 485.010907,822.020247 C482.894639,818.255731 479.543933,813.491337 474.958687,807.726923 C470.491012,801.962509 467.228482,796.639328 465.171,791.757222 C463.113518,786.875116 462.084793,781.375476 462.084793,775.258139 C462.084793,761.376487 467.022675,749.436094 476.898589,739.436599 C486.774503,729.437105 498.766505,724.437433 512.874953,724.437433 C526.983402,724.437433 538.975403,729.437105 548.851317,739.436599 C558.727231,749.436094 563.665114,761.376487 563.665114,775.258139 C563.665114,781.375476 562.636388,786.875116 560.578906,791.757222 C558.521424,796.639328 555.258895,801.962509 550.791219,807.726923 C546.205973,813.491337 542.855267,818.255731 540.739,822.020247 C538.622733,825.784762 537.211909,829.7845 536.506486,834.01958 C536.388916,834.843068 536.271347,835.960642 536.153777,837.372335 L536.153777,837.372335 Z M580.595168,834.548962 C578.24376,834.548962 576.245093,833.725487 574.599107,832.078511 L563.312405,820.785021 C561.666419,819.138046 560.843438,817.138177 560.843438,814.785354 C560.843438,812.432532 561.666419,810.432663 563.312405,808.785688 C564.95839,807.138712 566.957057,806.315237 569.308465,806.315237 C571.659873,806.315237 573.65854,807.138712 575.304526,808.785688 L586.591228,820.079178 C588.237214,821.726154 589.060194,823.726022 589.060194,826.078845 C589.060194,828.431667 588.237214,830.431536 586.591228,832.078511 C584.945243,833.725487 582.946576,834.548962 580.595168,834.548962 L580.595168,834.548962 Z M445.154739,834.548962 C442.803331,834.548962 440.804664,833.725487 439.158678,832.078511 C437.512693,830.431536 436.689712,828.431667 436.689712,826.078845 C436.689712,823.726022 437.512693,821.726154 439.158678,820.079178 L450.445381,808.785688 C452.091366,807.138712 454.090033,806.315237 456.441441,806.315237 C458.792849,806.315237 460.791516,807.138712 462.437502,808.785688 C464.083488,810.432663 464.906468,812.432532 464.906468,814.785354 C464.906468,817.138177 464.083488,819.138046 462.437502,820.785021 L451.1508,832.078511 C449.504814,833.725487 447.506147,834.548962 445.154739,834.548962 L445.154739,834.548962 Z M512.874953,882.546296 C507.466715,882.546296 503.351812,881.222853 500.530123,878.575928 C497.708433,875.929003 495.474629,871.664577 493.828643,865.782521 C492.535369,862.018006 491.477251,856.312497 490.654258,848.665825 L534.919294,848.665825 C534.096301,856.194856 533.096968,861.900365 531.921264,865.782521 C530.157708,871.664577 527.894511,875.929003 525.131607,878.575928 C522.368702,881.222853 518.283192,882.546296 512.874953,882.546296 L512.874953,882.546296 Z" transform="rotate(-14 517.107 799.257)"/>
      <path d="M202.771329,402.209471 C199.640414,402.209471 196.979176,401.113008 194.787535,398.920049 C192.595895,396.727091 191.500091,394.064252 191.500091,390.931454 C191.500091,387.798656 192.595895,385.135817 194.787535,382.942858 L209.815853,367.905502 C212.007494,365.712543 214.668732,364.61608 217.799648,364.61608 C220.930563,364.61608 223.591801,365.712543 225.783442,367.905502 C227.975082,370.098461 229.070886,372.761299 229.070886,375.894098 C229.070886,379.026896 227.975082,381.689734 225.783442,383.882693 L210.755123,398.920049 C208.563483,401.113008 205.902245,402.209471 202.771329,402.209471 L202.771329,402.209471 Z M52.488147,402.209471 C49.3572317,402.209471 46.6959936,401.113008 44.5043529,398.920049 L29.4760347,383.882693 C27.284394,381.689734 26.1885901,379.026896 26.1885901,375.894098 C26.1885901,372.761299 27.284394,370.098461 29.4760347,367.905502 C31.6676754,365.712543 34.3289134,364.61608 37.4598287,364.61608 C40.590744,364.61608 43.2519821,365.712543 45.4436228,367.905502 L60.471941,382.942858 C62.6635817,385.135817 63.7593856,387.798656 63.7593856,390.931454 C63.7593856,394.064252 62.6635817,396.727091 60.471941,398.920049 C58.2803003,401.113008 55.6190622,402.209471 52.488147,402.209471 L52.488147,402.209471 Z M158.625644,526.26766 L96.3990143,526.26766 L96.1641968,521.803445 C95.2249222,516.164408 93.3464012,510.838731 90.5285775,505.826254 C87.7107537,500.813777 83.2492664,494.469956 77.1439816,486.7946 C71.1952425,479.119244 66.8511627,472.031395 64.1116118,465.530839 C61.372061,459.030282 60.0023061,451.707476 60.0023061,443.562201 C60.0023061,425.078691 66.5771296,409.179979 79.7269738,395.865586 C92.876818,382.551194 108.844246,375.894098 127.629738,375.894098 C146.41523,375.894098 162.382658,382.551194 175.532502,395.865586 C188.682347,409.179979 195.25717,425.078691 195.25717,443.562201 C195.25717,451.707476 193.887415,459.030282 191.147864,465.530839 C188.408314,472.031395 184.064234,479.119244 178.115495,486.7946 C172.01021,494.469956 167.548723,500.813777 164.730899,505.826254 C161.913075,510.838731 160.034554,516.164408 159.095279,521.803445 C158.938734,522.899925 158.78219,524.387981 158.625644,526.26766 L158.625644,526.26766 Z M217.799648,522.508321 C214.668732,522.508321 212.007494,521.411858 209.815853,519.2189 L194.787535,504.181543 C192.595895,501.988585 191.500091,499.325746 191.500091,496.192948 C191.500091,493.06015 192.595895,490.397311 194.787535,488.204352 C196.979176,486.011394 199.640414,484.914931 202.771329,484.914931 C205.902245,484.914931 208.563483,486.011394 210.755123,488.204352 L225.783442,503.241709 C227.975082,505.434667 229.070886,508.097506 229.070886,511.230304 C229.070886,514.363102 227.975082,517.025941 225.783442,519.2189 C223.591801,521.411858 220.930563,522.508321 217.799648,522.508321 L217.799648,522.508321 Z M37.4598287,522.508321 C34.3289134,522.508321 31.6676754,521.411858 29.4760347,519.2189 C27.284394,517.025941 26.1885901,514.363102 26.1885901,511.230304 C26.1885901,508.097506 27.284394,505.434667 29.4760347,503.241709 L44.5043529,488.204352 C46.6959936,486.011394 49.3572317,484.914931 52.488147,484.914931 C55.6190622,484.914931 58.2803003,486.011394 60.471941,488.204352 C62.6635817,490.397311 63.7593856,493.06015 63.7593856,496.192948 C63.7593856,499.325746 62.6635817,501.988585 60.471941,504.181543 L45.4436228,519.2189 C43.2519821,521.411858 40.590744,522.508321 37.4598287,522.508321 L37.4598287,522.508321 Z M127.629738,586.417085 C120.428633,586.417085 114.949613,584.654913 111.192515,581.130515 C107.435417,577.606117 104.461092,571.928005 102.269451,564.09601 C100.547448,559.083533 99.1385569,551.486611 98.0427366,541.305017 L156.981922,541.305017 C155.886102,551.329971 154.555483,558.926893 152.990025,564.09601 C150.641839,571.928005 147.628378,577.606117 143.949552,581.130515 C140.270727,584.654913 134.830843,586.417085 127.629738,586.417085 L127.629738,586.417085 Z" transform="rotate(-15 127.63 475.517)"/>
      <path d="M691.60265,70.1409624 C688.85934,70.1409624 686.527562,69.1802411 684.607246,67.2587696 C682.686929,65.3372981 681.726785,63.0041178 681.726785,60.2591585 C681.726785,57.5141992 682.686929,55.1810189 684.607246,53.2595474 L697.775065,40.0838088 C699.695382,38.1623373 702.02716,37.2016159 704.770469,37.2016159 C707.513779,37.2016159 709.845557,38.1623373 711.765873,40.0838088 C713.68619,42.0052802 714.646334,44.3384606 714.646334,47.0834199 C714.646334,49.8283792 713.68619,52.1615595 711.765873,54.083031 L698.598054,67.2587696 C696.677737,69.1802411 694.345959,70.1409624 691.60265,70.1409624 L691.60265,70.1409624 Z M559.924455,70.1409624 C557.181146,70.1409624 554.849368,69.1802411 552.929051,67.2587696 L539.761232,54.083031 C537.840915,52.1615595 536.880771,49.8283792 536.880771,47.0834199 C536.880771,44.3384606 537.840915,42.0052802 539.761232,40.0838088 C541.681548,38.1623373 544.013326,37.2016159 546.756636,37.2016159 C549.499945,37.2016159 551.831723,38.1623373 553.75204,40.0838088 L566.919859,53.2595474 C568.840176,55.1810189 569.80032,57.5141992 569.80032,60.2591585 C569.80032,63.0041178 568.840176,65.3372981 566.919859,67.2587696 C564.999543,69.1802411 562.667765,70.1409624 559.924455,70.1409624 L559.924455,70.1409624 Z M652.92218,178.840806 L598.399178,178.840806 L598.19343,174.929259 C597.370438,169.988332 595.724477,165.321971 593.255498,160.930036 C590.78652,156.538101 586.877362,150.979642 581.527909,144.254492 C576.315621,137.529342 572.509336,131.318965 570.108941,125.623174 C567.708545,119.927384 566.508365,113.511138 566.508365,106.374244 C566.508365,90.1789839 572.269228,76.2485246 583.791128,64.5824477 C595.313028,52.9163708 609.303696,47.0834199 625.763552,47.0834199 C642.223409,47.0834199 656.214077,52.9163708 667.735977,64.5824477 C679.257877,76.2485246 685.01874,90.1789839 685.01874,106.374244 C685.01874,113.511138 683.81856,119.927384 681.418164,125.623174 C679.017769,131.318965 675.211484,137.529342 669.999196,144.254492 C664.649743,150.979642 660.740585,156.538101 658.271607,160.930036 C655.802628,165.321971 654.156667,169.988332 653.333674,174.929259 C653.196509,175.889994 653.059346,177.19383 652.92218,178.840806 L652.92218,178.840806 Z M704.770469,175.546871 C702.02716,175.546871 699.695382,174.58615 697.775065,172.664678 L684.607246,159.48894 C682.686929,157.567468 681.726785,155.234288 681.726785,152.489329 C681.726785,149.744369 682.686929,147.411189 684.607246,145.489718 C686.527562,143.568246 688.85934,142.607525 691.60265,142.607525 C694.345959,142.607525 696.677737,143.568246 698.598054,145.489718 L711.765873,158.665456 C713.68619,160.586928 714.646334,162.920108 714.646334,165.665067 C714.646334,168.410027 713.68619,170.743207 711.765873,172.664678 C709.845557,174.58615 707.513779,175.546871 704.770469,175.546871 L704.770469,175.546871 Z M546.756636,175.546871 C544.013326,175.546871 541.681548,174.58615 539.761232,172.664678 C537.840915,170.743207 536.880771,168.410027 536.880771,165.665067 C536.880771,162.920108 537.840915,160.586928 539.761232,158.665456 L552.929051,145.489718 C554.849368,143.568246 557.181146,142.607525 559.924455,142.607525 C562.667765,142.607525 564.999543,143.568246 566.919859,145.489718 C568.840176,147.411189 569.80032,149.744369 569.80032,152.489329 C569.80032,155.234288 568.840176,157.567468 566.919859,159.48894 L553.75204,172.664678 C551.831723,174.58615 549.499945,175.546871 546.756636,175.546871 L546.756636,175.546871 Z M625.763552,231.54376 C619.453941,231.54376 614.653221,229.999744 611.36125,226.911665 C608.069279,223.823586 605.463174,218.848422 603.542857,211.986023 C602.034037,207.594089 600.799566,200.937662 599.839408,192.016545 L651.48195,192.016545 C650.521792,200.800414 649.355903,207.456841 647.984248,211.986023 C645.926766,218.848422 643.28637,223.823586 640.062981,226.911665 C636.839593,229.999744 632.073164,231.54376 625.763552,231.54376 L625.763552,231.54376 Z" transform="rotate(36 630.701 134.373)"/>
    </g>
    <g filter="url(#a)" transform="translate(380.926 32.94)">
      <path fill="#F3F9FD" d="M257.87684,671.410392 C249.355163,671.410392 240.863438,669.254672 233.317735,665.178311 L231.455646,664.170474 C205.281566,650.023251 185.757091,625.422538 177.896879,596.680441 L46.3675099,115.792385 C37.2567535,82.4862651 19.8140231,69.4244041 10.4436725,62.4070612 C8.56910322,61.0040928 6.2577168,59.273515 5.64866897,58.4607436 C5.22183627,56.5776149 5.51887189,54.6344661 6.49983827,52.9589067 C7.48330074,51.2758448 9.04336177,50.0579381 10.9054506,49.5152569 L35.4171295,45.588946 C76.535346,39.0017468 117.196777,28.3531915 156.273185,13.9408796 L179.566768,5.34801064 C180.133383,5.21546639 180.704989,5.14794384 181.279091,5.14794384 C184.646327,5.14794384 187.604203,7.39369364 188.532751,10.6297741 C188.465357,11.6076006 187.402019,14.3210065 186.540865,16.5167396 C182.329949,27.2503233 174.494698,47.226993 183.530572,80.2655237 L314.690518,559.800628 C322.775379,589.362998 318.065242,621.196126 301.773213,647.137288 C292.228136,662.334862 275.816294,671.410392 257.879336,671.410392 L257.87684,671.410392 Z"/>
      <path fill="#F8FAFB" d="M181.279591,0.147774416 C180.228734,0.147774416 179.1629,0.280318669 178.097066,0.560412185 L154.546385,9.24581202 C115.684641,23.580598 75.5224296,34.0991099 34.6288619,40.6512975 L9.84760443,44.6201226 C3.14059006,46.3757087 -0.873134956,53.2455024 0.879125591,59.9652459 C2.63138614,66.6824886 29.4968851,73.0346094 41.5530367,117.114327 L173.082406,598.002383 C181.341993,628.204966 201.580353,653.705981 229.089845,668.573444 L230.949438,669.57878 C239.50606,674.205325 248.751606,676.411061 257.877339,676.411061 C276.817728,676.411061 295.253905,666.910389 305.99711,649.802177 L305.999606,649.802177 C323.080402,622.605597 327.980242,589.472035 319.503494,558.479187 L188.343547,78.9440825 C176.404712,35.294509 195.165382,16.2631549 193.413121,9.54341138 C191.937928,3.89152436 186.850881,0.147774416 181.279591,0.147774416 M181.279591,10.1511143 C181.948545,10.1511143 182.73232,10.4512145 183.2565,11.0889274 C182.912039,12.094263 182.365393,13.489729 181.893631,14.6876289 C177.473042,25.9613929 169.238416,46.9458991 178.713602,81.587465 L309.873549,561.122569 C317.591483,589.334489 313.098507,619.717133 297.547819,644.475399 C288.921306,658.209984 274.091989,666.407721 257.877339,666.407721 C250.179374,666.407721 242.50637,664.459571 235.689527,660.775841 L233.829934,659.770505 C208.846493,646.265997 190.213124,622.790659 182.712351,595.359 L51.1829814,114.470944 C41.6204314,79.5092712 23.2840981,65.7771864 13.4344967,58.4022241 C12.4635148,57.6744811 11.3427669,56.8367014 10.5240469,56.176481 C10.5939376,55.9013891 10.7012698,55.6688115 10.8061059,55.4862505 C11.0232664,55.1186278 11.4101616,54.6509716 12.0791157,54.3933856 L36.2038995,50.5270948 C77.6416165,43.8898788 118.617555,33.1587959 157.995992,18.6339465 L180.922649,10.1761226 C181.042461,10.1586168 181.162274,10.1511143 181.279591,10.1511143"/>
      <path fill="#DDE3EF" d="M62.7305455,91.3403366 C95.1325495,86.8393709 125.577812,79.0576772 155.858697,67.5411344 C158.09229,66.6916457 159.214743,64.1912252 158.365764,61.9562889 C157.516786,59.7213526 155.017869,58.5982253 152.784276,59.447714 C123.112788,70.7324883 93.2997694,78.3525829 61.540671,82.7642425 C59.1738714,83.0930149 57.5215637,85.2793616 57.8501385,87.6475846 C58.1787133,90.0158076 60.3637459,91.669109 62.7305455,91.3403366 L62.7305455,91.3403366 Z"/>
      <path fill="#E94F7E" d="M257.879336,670.159974 C249.559843,670.159974 241.275294,668.054271 233.911806,664.075443 L232.047221,663.070107 C206.172673,649.085438 186.872846,624.767319 179.099998,596.34783 L101.541252,312.778154 C114.510976,302.529732 130.565876,296.927862 147.167421,296.927862 C154.490972,296.927862 161.759608,298.020727 168.773642,300.176446 C175.201094,302.152106 181.863178,303.154941 188.572689,303.154941 C206.207619,303.154941 222.894031,296.38518 235.564223,284.093577 L237.476234,282.237957 L313.484903,560.133239 C321.477408,589.355496 316.822186,620.826003 300.714868,646.469565 C291.401927,661.302017 275.386965,670.159974 257.879336,670.159974 C257.87684,670.159974 257.879336,670.159974 257.879336,670.159974"/>
      <path fill="#E14573" d="M240.70893,270.395753 L231.221263,279.603828 C219.619401,290.860086 204.260912,296.902103 188.572938,296.902103 C182.567327,296.902103 176.514291,296.016807 170.603531,294.1987 L170.603531,294.1987 C162.90307,291.832911 155.005417,290.675024 147.165175,290.675024 C128.032586,290.675024 109.239467,297.562323 94.4600728,310.549159 L173.082156,598.002633 C181.34424,628.205217 201.580103,653.706231 229.089595,668.573695 L230.949188,669.57903 C239.505811,674.205575 248.751357,676.411311 257.87709,676.411311 C276.817478,676.411311 295.253656,666.910639 305.999356,649.802427 L305.999356,649.802427 C323.080152,622.605847 327.979992,589.472285 319.503244,558.479437 L240.70893,270.395753 Z M234.12672,293.643515 L307.467061,561.785541 C315.000284,589.322235 310.614641,618.977136 295.435871,643.142704 C287.268639,656.144545 273.22809,663.907137 257.87709,663.907137 C250.590981,663.907137 243.329832,662.064021 236.874924,658.575356 L235.015331,657.570021 C210.628457,644.38812 192.44189,621.472969 185.118339,594.69903 L108.687829,315.250729 C119.935245,307.423116 133.344282,303.179199 147.165175,303.179199 C153.869693,303.179199 160.524289,304.182034 166.941756,306.155192 C173.963279,308.310912 181.2419,309.406278 188.572938,309.406278 C205.261847,309.406278 221.17447,303.856925 234.12672,293.643515 L234.12672,293.643515 Z"/>
      <path fill="#DD4775" fill-opacity=".3" d="M319.503744,558.479687 L284.575849,430.77455 C284.575849,430.77455 246.580251,475.199382 217.408358,472.631024 C191.731001,470.37277 161.945068,462.797741 141.110141,481.103853 L94.460572,310.546909 L173.082656,598.002883 C181.342243,628.205467 201.580602,653.706481 229.090095,668.573945 L230.949687,669.57928 C257.261053,683.801529 290.074752,675.156142 305.997359,649.802677 L305.997359,649.802677 C323.080651,622.603596 327.980491,589.470034 319.503744,558.479687"/>
      <path fill="#FFFFFF" d="M222.591639,396.399401 C231.887457,393.635711 237.188376,383.847293 234.433623,374.536407 C231.675351,365.223567 221.902638,359.911045 212.605224,362.672263 C203.306095,365.436064 198.004916,375.224961 200.762719,384.536218 C203.520661,393.850893 213.293855,399.163676 222.591639,396.399401 L222.591639,396.399401 Z M221.078734,391.304543 C214.59623,393.231822 207.78033,389.526647 205.855647,383.026221 C203.930717,376.52702 207.630414,369.695339 214.117168,367.767407 C220.599522,365.842227 227.415902,369.547664 229.340541,376.045883 C231.263244,382.544495 227.563286,389.376655 221.078734,391.304543 L221.078734,391.304543 Z" opacity=".3"/>
      <path fill="#FFFFFF" d="M254.748481 529.250678C257.773751 528.352878 259.498555 525.166815 258.602456 522.135803 257.70386 519.104791 254.523832 517.376714 251.498562 518.274514 248.475787 519.174814 246.748488 522.360878 247.647083 525.389389 248.543182 528.420401 251.72321 530.148478 254.748481 529.250678M190.561829 479.454052C196.956831 477.553418 200.60363 470.82117 198.706596 464.414031 196.809561 458.006892 190.08757 454.353172 183.695064 456.253806 177.300062 458.154441 173.653264 464.886689 175.550298 471.293828 177.447332 477.700967 184.166827 481.354687 190.561829 479.454052" opacity=".2"/>
      <path fill="#FFFFFF" d="M243.113325,606.531627 C250.914613,604.213036 255.361589,596.002016 253.048369,588.18923 C250.734709,580.374956 242.534126,575.91727 234.733845,578.236467 C226.932829,580.554978 222.485852,588.765997 224.799072,596.578783 C227.112869,604.393516 235.311173,608.850476 243.113325,606.531627 L243.113325,606.531627 Z M241.600881,601.436632 C236.613869,602.918804 231.372593,600.069415 229.892072,595.069027 C228.411472,590.068376 231.257004,584.814309 236.246561,583.331381 C241.231838,581.849147 246.475044,584.699257 247.95537,589.698986 C249.43597,594.699637 246.590438,599.953705 241.600881,601.436632 L241.600881,601.436632 Z" opacity=".3"/>
      <path fill="#E94F7E" d="M117.128883 172.262739C109.760403 172.262739 103.694885 178.042169 103.325463 185.419632 103.140752 189.115866 104.401281 192.66205 106.879906 195.405466 109.356035 198.151383 112.750728 199.764421 116.43996 199.949483 116.674593 199.961987 116.909226 199.966989 117.141363 199.966989 124.509844 199.966989 130.572865 194.19006 130.944783 186.810096 131.129494 183.116363 129.866469 179.570179 127.39034 176.824262 124.914211 174.080846 121.517022 172.465307 117.82779 172.280245 117.595653 172.267741 117.36102 172.262739 117.128883 172.262739M117.128883 179.142536C117.246199 179.142536 117.366012 179.145037 117.483329 179.152539 121.322327 179.345104 124.277706 182.618697 124.085507 186.464981 123.8983 190.191225 120.823107 193.087192 117.141363 193.087192 117.024047 193.087192 116.904234 193.084691 116.784421 193.079689 112.947919 192.884624 109.99254 189.611031 110.184739 185.764747 110.371946 182.038503 113.444643 179.142536 117.128883 179.142536M176.4766 252.621069C176.753666 247.091723 172.505308 242.385151 166.988932 242.107559 161.470061 241.829966 156.772405 246.086387 156.495338 251.613232 156.218271 257.142578 160.466629 261.84915 165.983005 262.126742 171.501877 262.404335 176.199533 258.150415 176.4766 252.621069M168.478604 120.559977C168.917917 111.802053 162.188437 104.344563 153.444607 103.904416 144.703273 103.461768 137.25991 110.20652 136.820597 118.964444 136.381284 127.722368 143.110763 135.179858 151.854593 135.622506 160.595927 136.062653 168.03929 129.317901 168.478604 120.559977"/>
      <path fill="#FFFFFF" fill-opacity=".1" d="M154.546635,9.24656227 C148.660836,11.417287 142.747581,13.5004825 136.804372,15.4961488 C103.503934,26.6748811 69.3298609,35.0901908 34.6291115,40.6495469 L9.84535794,44.6208728 C3.14083967,46.376459 -0.872885347,53.2462526 0.8793752,59.9634953 C2.63163575,66.6832389 29.4971347,73.0353597 41.5532863,117.115077 L173.082656,598.003133 C236.406157,471.398363 156.48111,391.794285 161.493274,252.117651 C165.546937,139.16994 154.546635,9.24656227 154.546635,9.24656227"/>
    </g>
    <g filter="url(#b)" transform="translate(0 189.351)">
      <path fill="#F3F9FD" d="M463.108268,656.593338 C459.227827,656.593338 455.366678,655.830593 451.64333,654.327212 L24.6460345,482.029764 C14.371686,477.881647 7.32736332,468.839251 5.80881019,457.834721 C4.28750108,446.832954 8.61441288,436.207033 17.3812323,429.416945 L272.511937,217.962493 C280.683461,212.053984 287.000201,203.995418 290.795206,194.640738 L366.177175,40.1793619 L349.280171,33.3616382 C346.747412,31.722842 345.56509,17.9989603 348.119898,11.6261711 C349.401435,8.43977653 352.441297,6.37815436 355.866999,6.37815436 C356.850889,6.37815436 357.823755,6.55502275 358.758037,6.90323239 L383.071423,19.5880123 C423.860146,40.8619633 466.908785,58.2337555 511.021237,71.2170008 L537.321695,78.9549929 C539.286719,79.8144627 540.821809,81.3648247 541.665143,83.3463034 C542.538793,85.4023984 542.560841,87.6768154 541.728531,89.7494918 C539.179236,96.1112268 530.707308,105.214422 527.34775,105.214422 L510.51689,98.4243337 L458.191573,262.190645 C454.462712,271.572961 453.454018,281.767765 455.267463,291.705558 L493.200975,621.247295 C494.554168,630.383653 492.076529,639.050204 486.244844,645.832002 C480.363551,652.671834 471.930207,656.593338 463.108268,656.593338"/>
      <path fill="#FCFDFF" d="M355.86507,0.85212259 C350.377884,0.85212259 345.182834,4.14353279 343.008354,9.56289081 C340.150388,16.6818435 340.122828,35.6261063 347.22227,38.4919269 L358.618309,43.0905051 L285.758075,192.386771 C282.343397,200.895799 276.580612,208.246892 269.144938,213.583343 L14.0087215,425.043321 C-8.02821279,442.116648 -3.24380585,476.730345 22.5881332,487.157289 L449.582672,659.454737 C454.102504,661.278692 458.671943,662.12158 463.109095,662.12158 C484.029851,662.12158 502.059569,643.401167 498.675207,620.61278 L460.722403,290.888647 C459.044002,281.873886 459.964505,272.568951 463.379182,264.059923 L513.954442,105.771004 L525.353237,110.369583 C525.984359,110.623831 526.65131,110.742664 527.345821,110.742664 C534.436995,110.742664 544.240069,98.2983149 546.844484,91.814983 C549.699695,84.6960303 546.260213,76.6015379 539.160771,73.7384808 L512.573689,65.9120545 C468.698252,53.000662 426.181521,35.8444282 385.616033,14.6837834 L361.03256,1.86082513 C359.337623,1.17546012 357.587567,0.85212259 355.86507,0.85212259 M355.86507,11.906397 C356.110353,11.906397 356.355637,11.9395598 356.595408,12.0058855 L380.528467,24.4889248 C421.631373,45.9314536 465.013487,63.4358971 509.470439,76.5186308 L535.354742,84.1377894 C536.049252,84.5163983 536.410288,85.0801663 536.594939,85.5140466 C536.804395,86.0087254 536.978023,86.7852882 536.616987,87.6862115 C535.192138,91.2346336 530.275443,97.2315775 527.332041,99.2517461 L518.071898,95.5154014 L507.075479,91.0771102 L503.456858,102.396687 L452.99735,260.326342 C448.970841,270.568127 447.871199,281.680436 449.814176,292.519152 L487.72564,621.881258 L487.744932,622.06089 L487.772492,622.240522 C488.86111,629.58056 486.835454,636.680168 482.067583,642.223887 C477.236324,647.844985 470.327045,651.067306 463.109095,651.067306 C459.934189,651.067306 456.767551,650.437212 453.697372,649.199134 L26.7055894,476.901686 C18.2832694,473.502496 12.5122163,466.090605 11.2665067,457.075845 C10.020797,448.061084 13.5677623,439.355843 20.7498847,433.790016 L20.8931964,433.679473 L21.0337521,433.563403 L275.886101,222.335564 C284.774184,215.868814 291.655903,207.088956 295.825724,196.905206 L368.520598,47.9488586 L373.732184,37.2704296 L362.735765,32.834902 L353.103563,28.946561 C351.929509,25.4893366 351.918485,16.9692547 353.233095,13.6888987 C353.762246,12.3734401 354.980395,11.906397 355.86507,11.906397"/>
      <path fill="#13A1DC" d="M463.108268,655.211554 C459.404211,655.211554 455.719446,654.481971 452.155945,653.044916 L25.1614055,480.747468 C15.3500641,476.787274 8.62543686,468.151122 7.17302761,457.646798 C5.72337436,447.13971 9.85185453,436.99465 18.2218107,430.508554 L195.663778,284.130616 C207.007453,285.747304 249.648204,292.689388 281.022449,309.519521 C303.040091,321.333777 315.053472,336.091233 326.66999,350.365065 C338.804635,365.280045 351.35268,380.697994 374.243972,390.298631 C389.939362,396.875924 408.950214,400.214315 430.750133,400.214315 C445.654553,400.214315 458.431345,398.639081 466.048914,397.431402 L491.834001,621.407582 C493.132075,630.181913 490.764675,638.458801 485.200322,644.931078 C479.580849,651.466918 471.530588,655.211554 463.108268,655.211554"/>
      <path fill="#FFFFFF" d="M255.244497,384.019695 C260.663942,370.51405 254.13987,355.160091 240.666539,349.723857 C227.188747,344.285823 211.868274,350.831495 206.447465,364.34054 C201.025419,377.844695 207.550911,393.199667 221.025423,398.636378 C234.503215,404.074412 249.823688,397.52874 255.244497,384.019695 L255.244497,384.019695 Z M248.462606,381.295033 C244.546391,391.054521 233.486909,395.779685 223.758511,391.85446 C214.025963,387.927561 209.309218,376.828706 213.229079,367.065894 C217.145571,357.305714 228.205053,352.58055 237.933451,356.505775 C247.664883,360.432223 252.380758,371.530715 248.462606,381.295033 L248.462606,381.295033 Z" opacity=".3"/>
      <path fill="#FFFFFF" d="M333.977786 424.389737C335.766427 419.929337 333.613995 414.860953 329.165819 413.064633 324.717644 411.271077 319.660393 413.432188 317.871753 417.889824 316.083112 422.350223 318.235544 427.421372 322.683719 429.214928 327.131895 431.011247 332.189145 428.850137 333.977786 424.389737M282.351665 483.084618C286.135646 473.658085 281.579987 462.938203 272.179288 459.146587 262.775834 455.352207 252.088086 459.917622 248.304106 469.346918 244.522881 478.773451 249.075784 489.49057 258.479238 493.28495 267.879936 497.079329 278.567684 492.51115 282.351665 483.084618" opacity=".2"/>
      <path fill="#FFFFFF" d="M387.924805,499.847084 C392.459774,488.549713 386.999909,475.701596 375.727767,471.155164 C364.449835,466.604415 351.631756,472.08047 347.095557,483.384216 C342.563365,494.682897 348.021867,507.526782 359.294978,512.075585 C370.569615,516.626338 383.388163,511.148622 387.924805,499.847084 L387.924805,499.847084 Z M381.143255,497.121571 C378.111445,504.674319 369.55377,508.331248 362.028573,505.293872 C354.49654,502.254628 350.846277,493.665539 353.877588,486.108529 C356.908888,478.554838 365.46592,474.899159 372.995028,477.937222 C380.525032,480.974325 384.176152,489.566116 381.143255,497.121571 L381.143255,497.121571 Z" opacity=".3"/>
      <path fill="#13A1DC" d="M343.724362 211.074575C336.646967 211.074575 330.363299 215.330471 327.7203 221.916055 324.170579 230.762238 328.461662 240.85479 337.283602 244.41703 339.34233 245.246101 341.508542 245.668927 343.71885 245.668927 350.796244 245.668927 357.079912 241.413031 359.722911 234.827447 363.272633 225.981264 358.981549 215.885948 350.159609 212.326472 348.100881 211.494637 345.934669 211.074575 343.724362 211.074575M343.724362 219.663746C344.801956 219.663746 345.901597 219.86825 346.962655 220.296603 351.410831 222.090159 353.563263 227.161308 351.774622 231.621708 350.413161 235.01537 347.158331 237.076992 343.71885 237.076992 342.641256 237.076992 341.541614 236.875251 340.480556 236.446898 336.03238 234.653342 333.879948 229.582194 335.668589 225.121794 337.03005 221.728132 340.28488 219.663746 343.724362 219.663746M386.68095 331.075633C389.255049 324.664153 386.157311 317.376623 379.763403 314.79545 373.369495 312.21704 366.101937 315.323291 363.527838 321.732007 360.956495 328.143486 364.051477 335.43378 370.445385 338.01219 376.839292 340.593363 384.106851 337.487112 386.68095 331.075633M430.892894 171.95792C434.96901 161.801805 430.063339 150.252852 419.932302 146.165534 409.804022 142.078216 398.286719 147.000132 394.210603 157.156246 390.134487 167.312361 395.042914 178.861314 405.171194 182.948632 415.299475 187.03595 426.816777 182.114034 430.892894 171.95792"/>
      <path fill="#DDE3EF" d="M381.973963,68.1410884 C413.745045,85.3191965 445.895202,98.2915628 480.325831,107.827506 C482.628739,108.465322 485.012355,107.114376 485.649787,104.810084 C486.287219,102.505791 484.937085,100.120742 482.634178,99.4829262 C448.832367,90.1211409 417.287648,77.393064 386.087607,60.523709 C383.98539,59.3870745 381.360336,60.1708586 380.224385,62.2743398 C379.088433,64.377821 379.871746,67.0044539 381.973963,68.1410884 L381.973963,68.1410884 Z"/>
      <path fill="#0295CE" d="M193.603672,276.884539 L14.0092727,425.042216 C-8.02766159,442.115542 -3.24601065,476.732003 22.5886844,487.156183 L449.583223,659.453631 C454.103055,661.277587 458.672494,662.120475 463.10689,662.120475 C484.030402,662.120475 502.06012,643.402825 498.675758,620.614438 L472.052849,389.320328 C472.052849,389.320328 453.970767,393.30263 430.745999,393.30263 C413.860019,393.30263 394.253872,391.196791 376.902129,383.923078 C334.787773,366.266639 331.284904,328.651706 284.273145,303.428616 C246.33412,283.074933 193.603672,276.884539 193.603672,276.884539 M197.679789,291.415383 C211.859382,293.601366 249.64407,300.521342 277.771753,315.61319 C298.574002,326.77248 309.628297,340.355419 321.33025,354.734267 C334.002314,370.304212 347.104314,386.407527 371.585815,396.67142 C388.127296,403.605214 408.03109,407.120473 430.745999,407.120473 C442.097942,407.120473 452.284098,406.230604 460.014664,405.257828 L484.986732,622.197963 L485.014292,622.421812 L485.047364,622.648425 C486.017474,629.181501 484.21781,635.493492 479.981846,640.420934 C475.674226,645.428521 469.522846,648.302632 463.10689,648.302632 C460.287507,648.302632 457.468124,647.741628 454.728666,646.6362 L27.7341267,474.335989 C20.2405769,471.312645 15.1061586,464.71877 13.9982487,456.69613 C12.8903388,448.676254 16.0431968,440.929972 22.4343487,435.977657 L22.6024644,435.847769 L22.7650681,435.715118 L197.679789,291.415383"/>
      <path fill="#139AD3" fill-opacity=".3" d="M498.67631,620.613333 L484.706172,499.248454 C484.706172,499.248454 325.38487,537.963287 259.191387,475.816156 C191.641955,412.392257 91.7509246,360.906974 91.7509246,360.906974 L14.0098239,425.043874 C-8.02711039,442.117201 -3.24545945,476.730897 22.5892356,487.155078 L449.583775,659.455289 C475.415714,669.87947 502.77723,648.232437 498.67631,620.613333"/>
      <path fill="#FFFFFF" fill-opacity=".1" d="M500.659248,150.424469 C510.150894,128.11418 513.956923,105.770728 513.956923,105.770728 L525.352961,110.369306 C532.452404,113.232363 540.521956,109.78343 543.379923,102.667241 C546.235134,95.5482878 542.795652,87.4537954 535.696209,84.5907383 L509.109128,76.7643121 C465.233691,63.8529196 422.714204,46.6939221 382.151472,25.536041 L357.567999,12.7130827 C350.468556,9.84726202 342.399004,13.2961956 339.541037,20.4151483 C336.685827,27.5341011 340.125308,35.6258299 347.221995,38.4916505 L358.620789,43.0902287 L285.757799,192.389259 C282.343121,200.895523 276.580336,208.246615 269.144662,213.583066 L14.0084459,425.043045 C-8.02573239,442.116372 -3.24408145,476.732832 22.5878576,487.157013 L160.299405,542.724086 C160.299405,542.724086 333.020353,547.692983 347.004271,312.032434 C351.774898,231.620878 472.391009,216.871713 500.659248,150.424469"/>
    </g>
  </g>
</svg>
