<svg xmlns="http://www.w3.org/2000/svg" width="795" height="900" viewBox="0 0 795 900">
  <defs>
    <filter id="a" width="200%" height="200%" x="-50%" y="-50%" filterUnits="objectBoundingBox">
      <feOffset dy="2" in="SourceAlpha" result="shadowOffsetOuter1"/>
      <feGaussianBlur stdDeviation="4.5" in="shadowOffsetOuter1" result="shadowBlurOuter1"/>
      <feColorMatrix values="0 0 0 0 0.419607843 0 0 0 0 0.454901961 0 0 0 0 0.509803922 0 0 0 0.3 0" in="shadowBlurOuter1" result="shadowMatrixOuter1"/>
      <feMerge>
        <feMergeNode in="shadowMatrixOuter1"/>
        <feMergeNode in="SourceGraphic"/>
      </feMerge>
    </filter>
    <filter id="b" width="200%" height="200%" x="-50%" y="-50%" filterUnits="objectBoundingBox">
      <feOffset dy="2" in="SourceAlpha" result="shadowOffsetOuter1"/>
      <feGaussianBlur stdDeviation="4.5" in="shadowOffsetOuter1" result="shadowBlurOuter1"/>
      <feColorMatrix values="0 0 0 0 0.419607843 0 0 0 0 0.454901961 0 0 0 0 0.509803922 0 0 0 0.3 0" in="shadowBlurOuter1" result="shadowMatrixOuter1"/>
      <feMerge>
        <feMergeNode in="shadowMatrixOuter1"/>
        <feMergeNode in="SourceGraphic"/>
      </feMerge>
    </filter>
  </defs>
  <g fill="none" fill-rule="evenodd" transform="translate(24)">
    <g fill="#6B7482" opacity=".1" transform="translate(5.703)">
      <path d="M569.434189,745.224978 C567.082781,745.224978 565.084114,744.401503 563.438128,742.754527 C561.792143,741.107552 560.969162,739.107683 560.969162,736.75486 C560.969162,734.402038 561.792143,732.402169 563.438128,730.755194 L574.724831,719.461704 C576.370816,717.814728 578.369483,716.991253 580.720891,716.991253 C583.0723,716.991253 585.070966,717.814728 586.716952,719.461704 C588.362938,721.108679 589.185918,723.108548 589.185918,725.46137 C589.185918,727.814192 588.362938,729.814061 586.716952,731.461037 L575.43025,742.754527 C573.784264,744.401503 571.785597,745.224978 569.434189,745.224978 L569.434189,745.224978 Z M456.567165,745.224978 C454.215757,745.224978 452.21709,744.401503 450.571104,742.754527 L439.284402,731.461037 C437.638416,729.814061 436.815436,727.814192 436.815436,725.46137 C436.815436,723.108548 437.638416,721.108679 439.284402,719.461704 C440.930388,717.814728 442.929055,716.991253 445.280463,716.991253 C447.631871,716.991253 449.630538,717.814728 451.276523,719.461704 L462.563226,730.755194 C464.209211,732.402169 465.032192,734.402038 465.032192,736.75486 C465.032192,739.107683 464.209211,741.107552 462.563226,742.754527 C460.91724,744.401503 458.918573,745.224978 456.567165,745.224978 L456.567165,745.224978 Z M536.279501,838.396273 L489.545499,838.396273 L489.369144,835.043518 C488.663721,830.808438 487.252898,826.8087 485.136631,823.044184 C483.020363,819.279669 479.669657,814.515275 475.084411,808.750861 C470.616736,802.986446 467.354206,797.663266 465.296724,792.78116 C463.239242,787.899054 462.210516,782.399414 462.210516,776.282076 C462.210516,762.400425 467.148399,750.460031 477.024313,740.460537 C486.900227,730.461042 498.892229,725.46137 513.000677,725.46137 C527.109126,725.46137 539.101127,730.461042 548.977041,740.460537 C558.852955,750.460031 563.790838,762.400425 563.790838,776.282076 C563.790838,782.399414 562.762112,787.899054 560.70463,792.78116 C558.647148,797.663266 555.384618,802.986446 550.916943,808.750861 C546.331697,814.515275 542.980991,819.279669 540.864724,823.044184 C538.748456,826.8087 537.337633,830.808438 536.63221,835.043518 C536.51464,835.867005 536.397071,836.984579 536.279501,838.396273 L536.279501,838.396273 Z M580.720891,835.5729 C578.369483,835.5729 576.370816,834.749425 574.724831,833.102449 L563.438128,821.808959 C561.792143,820.161983 560.969162,818.162114 560.969162,815.809292 C560.969162,813.45647 561.792143,811.456601 563.438128,809.809625 C565.084114,808.16265 567.082781,807.339174 569.434189,807.339174 C571.785597,807.339174 573.784264,808.16265 575.43025,809.809625 L586.716952,821.103116 C588.362938,822.750091 589.185918,824.74996 589.185918,827.102782 C589.185918,829.455605 588.362938,831.455473 586.716952,833.102449 C585.070966,834.749425 583.0723,835.5729 580.720891,835.5729 L580.720891,835.5729 Z M445.280463,835.5729 C442.929055,835.5729 440.930388,834.749425 439.284402,833.102449 C437.638416,831.455473 436.815436,829.455605 436.815436,827.102782 C436.815436,824.74996 437.638416,822.750091 439.284402,821.103116 L450.571104,809.809625 C452.21709,808.16265 454.215757,807.339174 456.567165,807.339174 C458.918573,807.339174 460.91724,808.16265 462.563226,809.809625 C464.209211,811.456601 465.032192,813.45647 465.032192,815.809292 C465.032192,818.162114 464.209211,820.161983 462.563226,821.808959 L451.276523,833.102449 C449.630538,834.749425 447.631871,835.5729 445.280463,835.5729 L445.280463,835.5729 Z M513.000677,883.570233 C507.592438,883.570233 503.477536,882.246791 500.655846,879.599866 C497.834157,876.952941 495.600352,872.688514 493.954367,866.806459 C492.661092,863.041943 491.602975,857.336435 490.779982,849.689763 L535.045018,849.689763 C534.222025,857.218794 533.222691,862.924302 532.046987,866.806459 C530.283431,872.688514 528.020235,876.952941 525.25733,879.599866 C522.494426,882.246791 518.408916,883.570233 513.000677,883.570233 L513.000677,883.570233 Z" transform="rotate(-14 513 800.28)"/>
      <path d="M202.771329,402.209471 C199.640414,402.209471 196.979176,401.113008 194.787535,398.920049 C192.595895,396.727091 191.500091,394.064252 191.500091,390.931454 C191.500091,387.798656 192.595895,385.135817 194.787535,382.942858 L209.815853,367.905502 C212.007494,365.712543 214.668732,364.61608 217.799648,364.61608 C220.930563,364.61608 223.591801,365.712543 225.783442,367.905502 C227.975082,370.098461 229.070886,372.761299 229.070886,375.894098 C229.070886,379.026896 227.975082,381.689734 225.783442,383.882693 L210.755123,398.920049 C208.563483,401.113008 205.902245,402.209471 202.771329,402.209471 L202.771329,402.209471 Z M52.488147,402.209471 C49.3572317,402.209471 46.6959936,401.113008 44.5043529,398.920049 L29.4760347,383.882693 C27.284394,381.689734 26.1885901,379.026896 26.1885901,375.894098 C26.1885901,372.761299 27.284394,370.098461 29.4760347,367.905502 C31.6676754,365.712543 34.3289134,364.61608 37.4598287,364.61608 C40.590744,364.61608 43.2519821,365.712543 45.4436228,367.905502 L60.471941,382.942858 C62.6635817,385.135817 63.7593856,387.798656 63.7593856,390.931454 C63.7593856,394.064252 62.6635817,396.727091 60.471941,398.920049 C58.2803003,401.113008 55.6190622,402.209471 52.488147,402.209471 L52.488147,402.209471 Z M158.625644,526.26766 L96.3990143,526.26766 L96.1641968,521.803445 C95.2249222,516.164408 93.3464012,510.838731 90.5285775,505.826254 C87.7107537,500.813777 83.2492664,494.469956 77.1439816,486.7946 C71.1952425,479.119244 66.8511627,472.031395 64.1116118,465.530839 C61.372061,459.030282 60.0023061,451.707476 60.0023061,443.562201 C60.0023061,425.078691 66.5771296,409.179979 79.7269738,395.865586 C92.876818,382.551194 108.844246,375.894098 127.629738,375.894098 C146.41523,375.894098 162.382658,382.551194 175.532502,395.865586 C188.682347,409.179979 195.25717,425.078691 195.25717,443.562201 C195.25717,451.707476 193.887415,459.030282 191.147864,465.530839 C188.408314,472.031395 184.064234,479.119244 178.115495,486.7946 C172.01021,494.469956 167.548723,500.813777 164.730899,505.826254 C161.913075,510.838731 160.034554,516.164408 159.095279,521.803445 C158.938734,522.899925 158.78219,524.387981 158.625644,526.26766 L158.625644,526.26766 Z M217.799648,522.508321 C214.668732,522.508321 212.007494,521.411858 209.815853,519.2189 L194.787535,504.181543 C192.595895,501.988585 191.500091,499.325746 191.500091,496.192948 C191.500091,493.06015 192.595895,490.397311 194.787535,488.204352 C196.979176,486.011394 199.640414,484.914931 202.771329,484.914931 C205.902245,484.914931 208.563483,486.011394 210.755123,488.204352 L225.783442,503.241709 C227.975082,505.434667 229.070886,508.097506 229.070886,511.230304 C229.070886,514.363102 227.975082,517.025941 225.783442,519.2189 C223.591801,521.411858 220.930563,522.508321 217.799648,522.508321 L217.799648,522.508321 Z M37.4598287,522.508321 C34.3289134,522.508321 31.6676754,521.411858 29.4760347,519.2189 C27.284394,517.025941 26.1885901,514.363102 26.1885901,511.230304 C26.1885901,508.097506 27.284394,505.434667 29.4760347,503.241709 L44.5043529,488.204352 C46.6959936,486.011394 49.3572317,484.914931 52.488147,484.914931 C55.6190622,484.914931 58.2803003,486.011394 60.471941,488.204352 C62.6635817,490.397311 63.7593856,493.06015 63.7593856,496.192948 C63.7593856,499.325746 62.6635817,501.988585 60.471941,504.181543 L45.4436228,519.2189 C43.2519821,521.411858 40.590744,522.508321 37.4598287,522.508321 L37.4598287,522.508321 Z M127.629738,586.417085 C120.428633,586.417085 114.949613,584.654913 111.192515,581.130515 C107.435417,577.606117 104.461092,571.928005 102.269451,564.09601 C100.547448,559.083533 99.1385569,551.486611 98.0427366,541.305017 L156.981922,541.305017 C155.886102,551.329971 154.555483,558.926893 152.990025,564.09601 C150.641839,571.928005 147.628378,577.606117 143.949552,581.130515 C140.270727,584.654913 134.830843,586.417085 127.629738,586.417085 L127.629738,586.417085 Z" transform="rotate(-15 127.63 475.517)"/>
      <path d="M692.545711,67.2385187 C689.802401,67.2385187 687.470623,66.2777973 685.550307,64.3563258 C683.62999,62.4348544 682.669846,60.101674 682.669846,57.3567147 C682.669846,54.6117554 683.62999,52.2785751 685.550307,50.3571036 L698.718126,37.181365 C700.638443,35.2598935 702.970221,34.2991722 705.71353,34.2991722 C708.45684,34.2991722 710.788618,35.2598935 712.708934,37.181365 C714.629251,39.1028365 715.589395,41.4360168 715.589395,44.1809761 C715.589395,46.9259354 714.629251,49.2591158 712.708934,51.1805872 L699.541115,64.3563258 C697.620798,66.2777973 695.28902,67.2385187 692.545711,67.2385187 L692.545711,67.2385187 Z M560.867516,67.2385187 C558.124207,67.2385187 555.792429,66.2777973 553.872112,64.3563258 L540.704293,51.1805872 C538.783976,49.2591158 537.823832,46.9259354 537.823832,44.1809761 C537.823832,41.4360168 538.783976,39.1028365 540.704293,37.181365 C542.624609,35.2598935 544.956387,34.2991722 547.699697,34.2991722 C550.443006,34.2991722 552.774784,35.2598935 554.695101,37.181365 L567.86292,50.3571036 C569.783237,52.2785751 570.743381,54.6117554 570.743381,57.3567147 C570.743381,60.101674 569.783237,62.4348544 567.86292,64.3563258 C565.942604,66.2777973 563.610826,67.2385187 560.867516,67.2385187 L560.867516,67.2385187 Z M653.865241,175.938362 L599.342239,175.938362 L599.136492,172.026815 C598.313499,167.085888 596.667538,162.419527 594.198559,158.027592 C591.729581,153.635658 587.820423,148.077199 582.47097,141.352048 C577.258682,134.626898 573.452397,128.416521 571.052002,122.72073 C568.651606,117.02494 567.451426,110.608694 567.451426,103.4718 C567.451426,87.2765401 573.212289,73.3460808 584.734189,61.6800039 C596.256089,50.0139271 610.246757,44.1809761 626.706614,44.1809761 C643.16647,44.1809761 657.157138,50.0139271 668.679038,61.6800039 C680.200938,73.3460808 685.961801,87.2765401 685.961801,103.4718 C685.961801,110.608694 684.761621,117.02494 682.361226,122.72073 C679.96083,128.416521 676.154545,134.626898 670.942257,141.352048 C665.592804,148.077199 661.683646,153.635658 659.214668,158.027592 C656.745689,162.419527 655.099728,167.085888 654.276736,172.026815 C654.13957,172.98755 654.002407,174.291387 653.865241,175.938362 L653.865241,175.938362 Z M705.71353,172.644427 C702.970221,172.644427 700.638443,171.683706 698.718126,169.762235 L685.550307,156.586496 C683.62999,154.665025 682.669846,152.331844 682.669846,149.586885 C682.669846,146.841926 683.62999,144.508745 685.550307,142.587274 C687.470623,140.665802 689.802401,139.705081 692.545711,139.705081 C695.28902,139.705081 697.620798,140.665802 699.541115,142.587274 L712.708934,155.763012 C714.629251,157.684484 715.589395,160.017664 715.589395,162.762624 C715.589395,165.507583 714.629251,167.840763 712.708934,169.762235 C710.788618,171.683706 708.45684,172.644427 705.71353,172.644427 L705.71353,172.644427 Z M547.699697,172.644427 C544.956387,172.644427 542.624609,171.683706 540.704293,169.762235 C538.783976,167.840763 537.823832,165.507583 537.823832,162.762624 C537.823832,160.017664 538.783976,157.684484 540.704293,155.763012 L553.872112,142.587274 C555.792429,140.665802 558.124207,139.705081 560.867516,139.705081 C563.610826,139.705081 565.942604,140.665802 567.86292,142.587274 C569.783237,144.508745 570.743381,146.841926 570.743381,149.586885 C570.743381,152.331844 569.783237,154.665025 567.86292,156.586496 L554.695101,169.762235 C552.774784,171.683706 550.443006,172.644427 547.699697,172.644427 L547.699697,172.644427 Z M626.706614,228.641317 C620.397002,228.641317 615.596282,227.0973 612.304311,224.009221 C609.01234,220.921142 606.406235,215.945978 604.485918,209.08358 C602.977098,204.691645 601.742627,198.035218 600.782469,189.114101 L652.425011,189.114101 C651.464853,197.89797 650.298964,204.554397 648.927309,209.08358 C646.869827,215.945978 644.229431,220.921142 641.006043,224.009221 C637.782654,227.0973 633.016225,228.641317 626.706614,228.641317 L626.706614,228.641317 Z" transform="rotate(36 626.707 131.47)"/>
    </g>
    <g filter="url(#a)" transform="translate(381.926 32.94)">
      <path fill="#F3F9FD" d="M257.87684,671.410392 C249.355163,671.410392 240.863438,669.254672 233.317735,665.178311 L231.455646,664.170474 C205.281566,650.023251 185.757091,625.422538 177.896879,596.680441 L46.3675099,115.792385 C37.2567535,82.4862651 19.8140231,69.4244041 10.4436725,62.4070612 C8.56910322,61.0040928 6.2577168,59.273515 5.64866897,58.4607436 C5.22183627,56.5776149 5.51887189,54.6344661 6.49983827,52.9589067 C7.48330074,51.2758448 9.04336177,50.0579381 10.9054506,49.5152569 L35.4171295,45.588946 C76.535346,39.0017468 117.196777,28.3531915 156.273185,13.9408796 L179.566768,5.34801064 C180.133383,5.21546639 180.704989,5.14794384 181.279091,5.14794384 C184.646327,5.14794384 187.604203,7.39369364 188.532751,10.6297741 C188.465357,11.6076006 187.402019,14.3210065 186.540865,16.5167396 C182.329949,27.2503233 174.494698,47.226993 183.530572,80.2655237 L314.690518,559.800628 C322.775379,589.362998 318.065242,621.196126 301.773213,647.137288 C292.228136,662.334862 275.816294,671.410392 257.879336,671.410392 L257.87684,671.410392 Z"/>
      <path fill="#F8FAFB" d="M181.279591,0.147774416 C180.228734,0.147774416 179.1629,0.280318669 178.097066,0.560412185 L154.546385,9.24581202 C115.684641,23.580598 75.5224296,34.0991099 34.6288619,40.6512975 L9.84760443,44.6201226 C3.14059006,46.3757087 -0.873134956,53.2455024 0.879125591,59.9652459 C2.63138614,66.6824886 29.4968851,73.0346094 41.5530367,117.114327 L173.082406,598.002383 C181.341993,628.204966 201.580353,653.705981 229.089845,668.573444 L230.949438,669.57878 C239.50606,674.205325 248.751606,676.411061 257.877339,676.411061 C276.817728,676.411061 295.253905,666.910389 305.99711,649.802177 L305.999606,649.802177 C323.080402,622.605597 327.980242,589.472035 319.503494,558.479187 L188.343547,78.9440825 C176.404712,35.294509 195.165382,16.2631549 193.413121,9.54341138 C191.937928,3.89152436 186.850881,0.147774416 181.279591,0.147774416 M181.279591,10.1511143 C181.948545,10.1511143 182.73232,10.4512145 183.2565,11.0889274 C182.912039,12.094263 182.365393,13.489729 181.893631,14.6876289 C177.473042,25.9613929 169.238416,46.9458991 178.713602,81.587465 L309.873549,561.122569 C317.591483,589.334489 313.098507,619.717133 297.547819,644.475399 C288.921306,658.209984 274.091989,666.407721 257.877339,666.407721 C250.179374,666.407721 242.50637,664.459571 235.689527,660.775841 L233.829934,659.770505 C208.846493,646.265997 190.213124,622.790659 182.712351,595.359 L51.1829814,114.470944 C41.6204314,79.5092712 23.2840981,65.7771864 13.4344967,58.4022241 C12.4635148,57.6744811 11.3427669,56.8367014 10.5240469,56.176481 C10.5939376,55.9013891 10.7012698,55.6688115 10.8061059,55.4862505 C11.0232664,55.1186278 11.4101616,54.6509716 12.0791157,54.3933856 L36.2038995,50.5270948 C77.6416165,43.8898788 118.617555,33.1587959 157.995992,18.6339465 L180.922649,10.1761226 C181.042461,10.1586168 181.162274,10.1511143 181.279591,10.1511143"/>
      <path fill="#DDE3EF" d="M62.7305455,91.3403366 C95.1325495,86.8393709 125.577812,79.0576772 155.858697,67.5411344 C158.09229,66.6916457 159.214743,64.1912252 158.365764,61.9562889 C157.516786,59.7213526 155.017869,58.5982253 152.784276,59.447714 C123.112788,70.7324883 93.2997694,78.3525829 61.540671,82.7642425 C59.1738714,83.0930149 57.5215637,85.2793616 57.8501385,87.6475846 C58.1787133,90.0158076 60.3637459,91.669109 62.7305455,91.3403366 L62.7305455,91.3403366 Z"/>
      <path fill="#E94F7E" d="M257.879336,670.159974 C249.559843,670.159974 241.275294,668.054271 233.911806,664.075443 L232.047221,663.070107 C206.172673,649.085438 186.872846,624.767319 179.099998,596.34783 L101.541252,312.778154 C114.510976,302.529732 130.565876,296.927862 147.167421,296.927862 C154.490972,296.927862 161.759608,298.020727 168.773642,300.176446 C175.201094,302.152106 181.863178,303.154941 188.572689,303.154941 C206.207619,303.154941 222.894031,296.38518 235.564223,284.093577 L237.476234,282.237957 L313.484903,560.133239 C321.477408,589.355496 316.822186,620.826003 300.714868,646.469565 C291.401927,661.302017 275.386965,670.159974 257.879336,670.159974 C257.87684,670.159974 257.879336,670.159974 257.879336,670.159974"/>
      <path fill="#E14573" d="M240.70893,270.395753 L231.221263,279.603828 C219.619401,290.860086 204.260912,296.902103 188.572938,296.902103 C182.567327,296.902103 176.514291,296.016807 170.603531,294.1987 L170.603531,294.1987 C162.90307,291.832911 155.005417,290.675024 147.165175,290.675024 C128.032586,290.675024 109.239467,297.562323 94.4600728,310.549159 L173.082156,598.002633 C181.34424,628.205217 201.580103,653.706231 229.089595,668.573695 L230.949188,669.57903 C239.505811,674.205575 248.751357,676.411311 257.87709,676.411311 C276.817478,676.411311 295.253656,666.910639 305.999356,649.802427 L305.999356,649.802427 C323.080152,622.605847 327.979992,589.472285 319.503244,558.479437 L240.70893,270.395753 Z M234.12672,293.643515 L307.467061,561.785541 C315.000284,589.322235 310.614641,618.977136 295.435871,643.142704 C287.268639,656.144545 273.22809,663.907137 257.87709,663.907137 C250.590981,663.907137 243.329832,662.064021 236.874924,658.575356 L235.015331,657.570021 C210.628457,644.38812 192.44189,621.472969 185.118339,594.69903 L108.687829,315.250729 C119.935245,307.423116 133.344282,303.179199 147.165175,303.179199 C153.869693,303.179199 160.524289,304.182034 166.941756,306.155192 C173.963279,308.310912 181.2419,309.406278 188.572938,309.406278 C205.261847,309.406278 221.17447,303.856925 234.12672,293.643515 L234.12672,293.643515 Z"/>
      <path fill="#DD4775" fill-opacity=".3" d="M319.503744,558.479687 L284.575849,430.77455 C284.575849,430.77455 246.580251,475.199382 217.408358,472.631024 C191.731001,470.37277 161.945068,462.797741 141.110141,481.103853 L94.460572,310.546909 L173.082656,598.002883 C181.342243,628.205467 201.580602,653.706481 229.090095,668.573945 L230.949687,669.57928 C257.261053,683.801529 290.074752,675.156142 305.997359,649.802677 L305.997359,649.802677 C323.080651,622.603596 327.980491,589.470034 319.503744,558.479687"/>
      <path fill="#FFFFFF" d="M222.591639,396.399401 C231.887457,393.635711 237.188376,383.847293 234.433623,374.536407 C231.675351,365.223567 221.902638,359.911045 212.605224,362.672263 C203.306095,365.436064 198.004916,375.224961 200.762719,384.536218 C203.520661,393.850893 213.293855,399.163676 222.591639,396.399401 L222.591639,396.399401 Z M221.078734,391.304543 C214.59623,393.231822 207.78033,389.526647 205.855647,383.026221 C203.930717,376.52702 207.630414,369.695339 214.117168,367.767407 C220.599522,365.842227 227.415902,369.547664 229.340541,376.045883 C231.263244,382.544495 227.563286,389.376655 221.078734,391.304543 L221.078734,391.304543 Z" opacity=".3"/>
      <path fill="#FFFFFF" d="M254.748481 529.250678C257.773751 528.352878 259.498555 525.166815 258.602456 522.135803 257.70386 519.104791 254.523832 517.376714 251.498562 518.274514 248.475787 519.174814 246.748488 522.360878 247.647083 525.389389 248.543182 528.420401 251.72321 530.148478 254.748481 529.250678M190.561829 479.454052C196.956831 477.553418 200.60363 470.82117 198.706596 464.414031 196.809561 458.006892 190.08757 454.353172 183.695064 456.253806 177.300062 458.154441 173.653264 464.886689 175.550298 471.293828 177.447332 477.700967 184.166827 481.354687 190.561829 479.454052" opacity=".2"/>
      <path fill="#FFFFFF" d="M243.113325,606.531627 C250.914613,604.213036 255.361589,596.002016 253.048369,588.18923 C250.734709,580.374956 242.534126,575.91727 234.733845,578.236467 C226.932829,580.554978 222.485852,588.765997 224.799072,596.578783 C227.112869,604.393516 235.311173,608.850476 243.113325,606.531627 L243.113325,606.531627 Z M241.600881,601.436632 C236.613869,602.918804 231.372593,600.069415 229.892072,595.069027 C228.411472,590.068376 231.257004,584.814309 236.246561,583.331381 C241.231838,581.849147 246.475044,584.699257 247.95537,589.698986 C249.43597,594.699637 246.590438,599.953705 241.600881,601.436632 L241.600881,601.436632 Z" opacity=".3"/>
      <path fill="#E94F7E" d="M117.128883 172.262739C109.760403 172.262739 103.694885 178.042169 103.325463 185.419632 103.140752 189.115866 104.401281 192.66205 106.879906 195.405466 109.356035 198.151383 112.750728 199.764421 116.43996 199.949483 116.674593 199.961987 116.909226 199.966989 117.141363 199.966989 124.509844 199.966989 130.572865 194.19006 130.944783 186.810096 131.129494 183.116363 129.866469 179.570179 127.39034 176.824262 124.914211 174.080846 121.517022 172.465307 117.82779 172.280245 117.595653 172.267741 117.36102 172.262739 117.128883 172.262739M117.128883 179.142536C117.246199 179.142536 117.366012 179.145037 117.483329 179.152539 121.322327 179.345104 124.277706 182.618697 124.085507 186.464981 123.8983 190.191225 120.823107 193.087192 117.141363 193.087192 117.024047 193.087192 116.904234 193.084691 116.784421 193.079689 112.947919 192.884624 109.99254 189.611031 110.184739 185.764747 110.371946 182.038503 113.444643 179.142536 117.128883 179.142536M176.4766 252.621069C176.753666 247.091723 172.505308 242.385151 166.988932 242.107559 161.470061 241.829966 156.772405 246.086387 156.495338 251.613232 156.218271 257.142578 160.466629 261.84915 165.983005 262.126742 171.501877 262.404335 176.199533 258.150415 176.4766 252.621069M168.478604 120.559977C168.917917 111.802053 162.188437 104.344563 153.444607 103.904416 144.703273 103.461768 137.25991 110.20652 136.820597 118.964444 136.381284 127.722368 143.110763 135.179858 151.854593 135.622506 160.595927 136.062653 168.03929 129.317901 168.478604 120.559977"/>
      <path fill="#FFFFFF" fill-opacity=".1" d="M154.546635,9.24656227 C148.660836,11.417287 142.747581,13.5004825 136.804372,15.4961488 C103.503934,26.6748811 69.3298609,35.0901908 34.6291115,40.6495469 L9.84535794,44.6208728 C3.14083967,46.376459 -0.872885347,53.2462526 0.8793752,59.9634953 C2.63163575,66.6832389 29.4971347,73.0353597 41.5532863,117.115077 L173.082656,598.003133 C236.406157,471.398363 156.48111,391.794285 161.493274,252.117651 C165.546937,139.16994 154.546635,9.24656227 154.546635,9.24656227"/>
    </g>
    <g filter="url(#b)" transform="translate(0 189.351)">
      <path fill="#F3F9FD" d="M464.108268,656.593338 C460.227827,656.593338 456.366678,655.830593 452.64333,654.327212 L25.6460345,482.029764 C15.371686,477.881647 8.32736332,468.839251 6.80881019,457.834721 C5.28750108,446.832954 9.61441288,436.207033 18.3812323,429.416945 L273.511937,217.962493 C281.683461,212.053984 288.000201,203.995418 291.795206,194.640738 L367.177175,40.1793619 L350.280171,33.3616382 C347.747412,31.722842 346.56509,17.9989603 349.119898,11.6261711 C350.401435,8.43977653 353.441297,6.37815436 356.866999,6.37815436 C357.850889,6.37815436 358.823755,6.55502275 359.758037,6.90323239 L384.071423,19.5880123 C424.860146,40.8619633 467.908785,58.2337555 512.021237,71.2170008 L538.321695,78.9549929 C540.286719,79.8144627 541.821809,81.3648247 542.665143,83.3463034 C543.538793,85.4023984 543.560841,87.6768154 542.728531,89.7494918 C540.179236,96.1112268 531.707308,105.214422 528.34775,105.214422 L511.51689,98.4243337 L459.191573,262.190645 C455.462712,271.572961 454.454018,281.767765 456.267463,291.705558 L494.200975,621.247295 C495.554168,630.383653 493.076529,639.050204 487.244844,645.832002 C481.363551,652.671834 472.930207,656.593338 464.108268,656.593338"/>
      <path fill="#FCFDFF" d="M356.86507,0.85212259 C351.377884,0.85212259 346.182834,4.14353279 344.008354,9.56289081 C341.150388,16.6818435 341.122828,35.6261063 348.22227,38.4919269 L359.618309,43.0905051 L286.758075,192.386771 C283.343397,200.895799 277.580612,208.246892 270.144938,213.583343 L15.0087215,425.043321 C-7.02821279,442.116648 -2.24380585,476.730345 23.5881332,487.157289 L450.582672,659.454737 C455.102504,661.278692 459.671943,662.12158 464.109095,662.12158 C485.029851,662.12158 503.059569,643.401167 499.675207,620.61278 L461.722403,290.888647 C460.044002,281.873886 460.964505,272.568951 464.379182,264.059923 L514.954442,105.771004 L526.353237,110.369583 C526.984359,110.623831 527.65131,110.742664 528.345821,110.742664 C535.436995,110.742664 545.240069,98.2983149 547.844484,91.814983 C550.699695,84.6960303 547.260213,76.6015379 540.160771,73.7384808 L513.573689,65.9120545 C469.698252,53.000662 427.181521,35.8444282 386.616033,14.6837834 L362.03256,1.86082513 C360.337623,1.17546012 358.587567,0.85212259 356.86507,0.85212259 M356.86507,11.906397 C357.110353,11.906397 357.355637,11.9395598 357.595408,12.0058855 L381.528467,24.4889248 C422.631373,45.9314536 466.013487,63.4358971 510.470439,76.5186308 L536.354742,84.1377894 C537.049252,84.5163983 537.410288,85.0801663 537.594939,85.5140466 C537.804395,86.0087254 537.978023,86.7852882 537.616987,87.6862115 C536.192138,91.2346336 531.275443,97.2315775 528.332041,99.2517461 L519.071898,95.5154014 L508.075479,91.0771102 L504.456858,102.396687 L453.99735,260.326342 C449.970841,270.568127 448.871199,281.680436 450.814176,292.519152 L488.72564,621.881258 L488.744932,622.06089 L488.772492,622.240522 C489.86111,629.58056 487.835454,636.680168 483.067583,642.223887 C478.236324,647.844985 471.327045,651.067306 464.109095,651.067306 C460.934189,651.067306 457.767551,650.437212 454.697372,649.199134 L27.7055894,476.901686 C19.2832694,473.502496 13.5122163,466.090605 12.2665067,457.075845 C11.020797,448.061084 14.5677623,439.355843 21.7498847,433.790016 L21.8931964,433.679473 L22.0337521,433.563403 L276.886101,222.335564 C285.774184,215.868814 292.655903,207.088956 296.825724,196.905206 L369.520598,47.9488586 L374.732184,37.2704296 L363.735765,32.834902 L354.103563,28.946561 C352.929509,25.4893366 352.918485,16.9692547 354.233095,13.6888987 C354.762246,12.3734401 355.980395,11.906397 356.86507,11.906397"/>
      <path fill="#13A1DC" d="M464.108268,655.211554 C460.404211,655.211554 456.719446,654.481971 453.155945,653.044916 L26.1614055,480.747468 C16.3500641,476.787274 9.62543686,468.151122 8.17302761,457.646798 C6.72337436,447.13971 10.8518545,436.99465 19.2218107,430.508554 L196.663778,284.130616 C208.007453,285.747304 250.648204,292.689388 282.022449,309.519521 C304.040091,321.333777 316.053472,336.091233 327.66999,350.365065 C339.804635,365.280045 352.35268,380.697994 375.243972,390.298631 C390.939362,396.875924 409.950214,400.214315 431.750133,400.214315 C446.654553,400.214315 459.431345,398.639081 467.048914,397.431402 L492.834001,621.407582 C494.132075,630.181913 491.764675,638.458801 486.200322,644.931078 C480.580849,651.466918 472.530588,655.211554 464.108268,655.211554"/>
      <path fill="#FFFFFF" d="M256.244497,384.019695 C261.663942,370.51405 255.13987,355.160091 241.666539,349.723857 C228.188747,344.285823 212.868274,350.831495 207.447465,364.34054 C202.025419,377.844695 208.550911,393.199667 222.025423,398.636378 C235.503215,404.074412 250.823688,397.52874 256.244497,384.019695 L256.244497,384.019695 Z M249.462606,381.295033 C245.546391,391.054521 234.486909,395.779685 224.758511,391.85446 C215.025963,387.927561 210.309218,376.828706 214.229079,367.065894 C218.145571,357.305714 229.205053,352.58055 238.933451,356.505775 C248.664883,360.432223 253.380758,371.530715 249.462606,381.295033 L249.462606,381.295033 Z" opacity=".3"/>
      <path fill="#FFFFFF" d="M334.977786 424.389737C336.766427 419.929337 334.613995 414.860953 330.165819 413.064633 325.717644 411.271077 320.660393 413.432188 318.871753 417.889824 317.083112 422.350223 319.235544 427.421372 323.683719 429.214928 328.131895 431.011247 333.189145 428.850137 334.977786 424.389737M283.351665 483.084618C287.135646 473.658085 282.579987 462.938203 273.179288 459.146587 263.775834 455.352207 253.088086 459.917622 249.304106 469.346918 245.522881 478.773451 250.075784 489.49057 259.479238 493.28495 268.879936 497.079329 279.567684 492.51115 283.351665 483.084618" opacity=".2"/>
      <path fill="#FFFFFF" d="M388.924805,499.847084 C393.459774,488.549713 387.999909,475.701596 376.727767,471.155164 C365.449835,466.604415 352.631756,472.08047 348.095557,483.384216 C343.563365,494.682897 349.021867,507.526782 360.294978,512.075585 C371.569615,516.626338 384.388163,511.148622 388.924805,499.847084 L388.924805,499.847084 Z M382.143255,497.121571 C379.111445,504.674319 370.55377,508.331248 363.028573,505.293872 C355.49654,502.254628 351.846277,493.665539 354.877588,486.108529 C357.908888,478.554838 366.46592,474.899159 373.995028,477.937222 C381.525032,480.974325 385.176152,489.566116 382.143255,497.121571 L382.143255,497.121571 Z" opacity=".3"/>
      <path fill="#13A1DC" d="M344.724362 211.074575C337.646967 211.074575 331.363299 215.330471 328.7203 221.916055 325.170579 230.762238 329.461662 240.85479 338.283602 244.41703 340.34233 245.246101 342.508542 245.668927 344.71885 245.668927 351.796244 245.668927 358.079912 241.413031 360.722911 234.827447 364.272633 225.981264 359.981549 215.885948 351.159609 212.326472 349.100881 211.494637 346.934669 211.074575 344.724362 211.074575M344.724362 219.663746C345.801956 219.663746 346.901597 219.86825 347.962655 220.296603 352.410831 222.090159 354.563263 227.161308 352.774622 231.621708 351.413161 235.01537 348.158331 237.076992 344.71885 237.076992 343.641256 237.076992 342.541614 236.875251 341.480556 236.446898 337.03238 234.653342 334.879948 229.582194 336.668589 225.121794 338.03005 221.728132 341.28488 219.663746 344.724362 219.663746M387.68095 331.075633C390.255049 324.664153 387.157311 317.376623 380.763403 314.79545 374.369495 312.21704 367.101937 315.323291 364.527838 321.732007 361.956495 328.143486 365.051477 335.43378 371.445385 338.01219 377.839292 340.593363 385.106851 337.487112 387.68095 331.075633M431.892894 171.95792C435.96901 161.801805 431.063339 150.252852 420.932302 146.165534 410.804022 142.078216 399.286719 147.000132 395.210603 157.156246 391.134487 167.312361 396.042914 178.861314 406.171194 182.948632 416.299475 187.03595 427.816777 182.114034 431.892894 171.95792"/>
      <path fill="#DDE3EF" d="M382.973963,68.1410884 C414.745045,85.3191965 446.895202,98.2915628 481.325831,107.827506 C483.628739,108.465322 486.012355,107.114376 486.649787,104.810084 C487.287219,102.505791 485.937085,100.120742 483.634178,99.4829262 C449.832367,90.1211409 418.287648,77.393064 387.087607,60.523709 C384.98539,59.3870745 382.360336,60.1708586 381.224385,62.2743398 C380.088433,64.377821 380.871746,67.0044539 382.973963,68.1410884 L382.973963,68.1410884 Z"/>
      <path fill="#0295CE" d="M194.603672,276.884539 L15.0092727,425.042216 C-7.02766159,442.115542 -2.24601065,476.732003 23.5886844,487.156183 L450.583223,659.453631 C455.103055,661.277587 459.672494,662.120475 464.10689,662.120475 C485.030402,662.120475 503.06012,643.402825 499.675758,620.614438 L473.052849,389.320328 C473.052849,389.320328 454.970767,393.30263 431.745999,393.30263 C414.860019,393.30263 395.253872,391.196791 377.902129,383.923078 C335.787773,366.266639 332.284904,328.651706 285.273145,303.428616 C247.33412,283.074933 194.603672,276.884539 194.603672,276.884539 M198.679789,291.415383 C212.859382,293.601366 250.64407,300.521342 278.771753,315.61319 C299.574002,326.77248 310.628297,340.355419 322.33025,354.734267 C335.002314,370.304212 348.104314,386.407527 372.585815,396.67142 C389.127296,403.605214 409.03109,407.120473 431.745999,407.120473 C443.097942,407.120473 453.284098,406.230604 461.014664,405.257828 L485.986732,622.197963 L486.014292,622.421812 L486.047364,622.648425 C487.017474,629.181501 485.21781,635.493492 480.981846,640.420934 C476.674226,645.428521 470.522846,648.302632 464.10689,648.302632 C461.287507,648.302632 458.468124,647.741628 455.728666,646.6362 L28.7341267,474.335989 C21.2405769,471.312645 16.1061586,464.71877 14.9982487,456.69613 C13.8903388,448.676254 17.0431968,440.929972 23.4343487,435.977657 L23.6024644,435.847769 L23.7650681,435.715118 L198.679789,291.415383"/>
      <path fill="#139AD3" fill-opacity=".3" d="M499.67631,620.613333 L485.706172,499.248454 C485.706172,499.248454 326.38487,537.963287 260.191387,475.816156 C192.641955,412.392257 92.7509246,360.906974 92.7509246,360.906974 L15.0098239,425.043874 C-7.02711039,442.117201 -2.24545945,476.730897 23.5892356,487.155078 L450.583775,659.455289 C476.415714,669.87947 503.77723,648.232437 499.67631,620.613333"/>
      <path fill="#FFFFFF" fill-opacity=".1" d="M501.659248,150.424469 C511.150894,128.11418 514.956923,105.770728 514.956923,105.770728 L526.352961,110.369306 C533.452404,113.232363 541.521956,109.78343 544.379923,102.667241 C547.235134,95.5482878 543.795652,87.4537954 536.696209,84.5907383 L510.109128,76.7643121 C466.233691,63.8529196 423.714204,46.6939221 383.151472,25.536041 L358.567999,12.7130827 C351.468556,9.84726202 343.399004,13.2961956 340.541037,20.4151483 C337.685827,27.5341011 341.125308,35.6258299 348.221995,38.4916505 L359.620789,43.0902287 L286.757799,192.389259 C283.343121,200.895523 277.580336,208.246615 270.144662,213.583066 L15.0084459,425.043045 C-7.02573239,442.116372 -2.24408145,476.732832 23.5878576,487.157013 L161.299405,542.724086 C161.299405,542.724086 334.020353,547.692983 348.004271,312.032434 C352.774898,231.620878 473.391009,216.871713 501.659248,150.424469"/>
    </g>
  </g>
</svg>
