<svg xmlns="http://www.w3.org/2000/svg" width="900" height="672" viewBox="0 0 900 672" xmlns:xlink="http://www.w3.org/1999/xlink">
  <defs>
    <filter id="a" width="200%" height="200%" x="-50%" y="-50%" filterUnits="objectBoundingBox">
      <feOffset in="SourceAlpha" result="shadowOffsetOuter1"/>
      <feGaussianBlur stdDeviation="6" in="shadowOffsetOuter1" result="shadowBlurOuter1"/>
      <feColorMatrix values="0 0 0 0 0 0 0 0 0 0 0 0 0 0 0 0 0 0 0.2 0" in="shadowBlurOuter1" result="shadowMatrixOuter1"/>
      <feMerge>
        <feMergeNode in="shadowMatrixOuter1"/>
        <feMergeNode in="SourceGraphic"/>
      </feMerge>
    </filter>
    <filter id="b" width="200%" height="200%" x="-50%" y="-50%" filterUnits="objectBoundingBox">
      <feOffset in="SourceAlpha" result="shadowOffsetOuter1"/>
      <feGaussianBlur stdDeviation="6" in="shadowOffsetOuter1" result="shadowBlurOuter1"/>
      <feColorMatrix values="0 0 0 0 0 0 0 0 0 0 0 0 0 0 0 0 0 0 0.2 0" in="shadowBlurOuter1" result="shadowMatrixOuter1"/>
      <feMerge>
        <feMergeNode in="shadowMatrixOuter1"/>
        <feMergeNode in="SourceGraphic"/>
      </feMerge>
    </filter>
    <polygon id="c" points="207.653 83.886 207.653 1.833 .822 1.833 .822 83.886 207.653 83.886"/>
    <polygon id="e" points="207.653 17.584 207.653 2.657 .822 2.657 .822 17.584 207.653 17.584"/>
    <filter id="g" width="200%" height="200%" x="-50%" y="-50%" filterUnits="objectBoundingBox">
      <feOffset in="SourceAlpha" result="shadowOffsetOuter1"/>
      <feGaussianBlur stdDeviation="5" in="shadowOffsetOuter1" result="shadowBlurOuter1"/>
      <feColorMatrix values="0 0 0 0 0 0 0 0 0 0 0 0 0 0 0 0 0 0 0.2 0" in="shadowBlurOuter1" result="shadowMatrixOuter1"/>
      <feMerge>
        <feMergeNode in="shadowMatrixOuter1"/>
        <feMergeNode in="SourceGraphic"/>
      </feMerge>
    </filter>
  </defs>
  <g fill="none" fill-rule="evenodd">
    <g fill="#6B7482" opacity=".1" transform="translate(12.62 10.944)">
      <path d="M134.987599 587.65494C132.401619 587.911959 129.749184 587.952388 127.353903 587.880192 123.129655 593.032109 115.105895 600.947694 104.325684 602.016197 103.580229 602.088393 102.794322 601.77073 102.415816 601.054544 102.164441 600.326807 102.17022 599.486444 102.649854 598.952193 102.724977 598.813576 107.570438 592.803969 107.914272 583.302957 96.0332139 577.758293 87.6974032 567.789449 86.4954284 555.654722 84.4959896 535.506222 102.909897 517.226159 127.758414 514.765714 152.60982 512.302382 174.254034 526.614545 176.253473 546.763045 178.250023 566.914432 159.839005 585.194496 134.987599 587.65494M132.473523 429.019683L130.069573 436.357699 100.704982 426.749837 103.106043 419.411821 132.473523 429.019683zM95.8970832 441.425869L98.3010327 434.087853 127.665623 443.695715 125.264563 451.033731 95.8970832 441.425869zM2.20950544 465.732866C1.21556475 465.282362.406543261 464.257177.132053828 463.151132-.139546243 462.045087.00781124196 460.826416.574126284 459.867651 5.22599984 451.868319 13.2121977 446.485374 22.5881789 444.221303 24.9141156 443.713042 27.6243376 443.585977 30.4848065 443.378052 35.5238546 443.121034 41.2447923 442.71096 43.140214 440.028151 44.7293634 437.88537 43.9839079 433.579592 43.0882055 430.492485 38.9188555 414.531361 41.4441583 401.775747 49.9937818 394.290451 56.6797665 388.60717 65.755254 386.880238 74.2442009 389.658346 82.8458329 392.473996 89.1446431 399.231555 91.057401 407.724709 93.6376017 418.851579 88.1275875 430.631101 75.3594948 440.923383 72.6579409 442.962203 69.6241103 446.029095 69.5229826 448.66281 69.4651954 451.943403 73.8368008 455.657172 77.7461082 458.842466 79.9304662 460.699351 82.0397008 462.40318 83.6144034 464.190757 89.9507752 471.595193 92.9788271 480.582169 92.1120183 489.8175 92.0022226 490.923544 91.3983458 491.994935 90.5257584 492.72556 89.534707 493.418643 88.506094 493.843157 87.4370299 493.617905 86.9429489 493.586138 74.8307415 491.400039 44.2034994 481.379214 13.573368 471.35839 2.62846299 465.998548 2.20950544 465.732866L2.20950544 465.732866zM885.899911 598.025683C885.613864 599.02199 884.905971 599.914334 884.036272 600.350399 883.848464 600.546773 878.445356 603.359534 864.917361 608.543217 859.34956 602.966787 852.056809 599.024878 843.738334 597.240189 840.866308 596.723265 838.00006 596.587536 835.174264 596.567321 834.639732 596.500901 833.836489 596.402714 833.070808 596.417153 837.991392 574.573488 831.334301 561.95649 823.966427 555.995976 818.881149 551.785497 814.217718 549.469445 807.869789 548.906315 809.961687 542.529952 812.550556 538.284819 819.262545 535.902346 826.769108 533.239752 834.657068 534.536395 840.63227 539.457284 848.390208 545.793217 850.652579 556.128817 847.33848 570.233056 846.552573 573.071808 845.937139 576.748036 847.387599 578.665565 849.109659 580.996057 854.154486 581.128898 858.586768 581.348374 861.184305 581.449449 863.51602 581.518757 865.581914 581.937495 874.015963 583.681753 881.129574 588.198344 885.385605 595.13495 885.975035 596.079275 886.073273 597.069806 885.899911 598.025683M785.925081 651.551904C784.861795 651.800259 783.864965 651.514362 783.009714 650.919466 782.160241 650.327457 781.723948 649.458216 781.588148 648.352171 780.513305 640.28353 783.185965 632.295749 788.516839 625.668143 789.970188 623.998968 791.738478 622.477073 793.576113 620.799235 796.875764 617.839193 800.707059 614.5586 800.574148 611.662091 800.487468 609.259403 797.693454 606.793183 795.405079 605.046036 783.93431 596.186125 779.057066 586.780412 781.07962 576.973288 782.613871 569.389805 788.031426 563.368647 795.422415 560.746483 802.931868 558.083889 810.935402 559.340102 816.910604 564.258103 824.668542 570.596924 826.818228 580.970066 823.50124 595.077193 822.830907 597.875515 822.215473 601.548855 823.663044 603.466385 825.387993 605.799764 830.429931 605.932605 834.865102 606.149193 837.347064 606.293586 839.67878 606.362894 841.863138 606.738314 850.178723 608.52589 857.292333 613.042481 861.663939 619.938657 862.253369 620.882982 862.351607 621.870625 862.062671 622.86982 861.776624 623.866127 861.184305 624.718041 860.201921 625.194536 859.898538 625.428451 850.262515 630.386882 823.530133 639.870568 796.80353 649.354253 786.306477 651.54324 785.925081 651.551904M735.47296 27.7304923L737.333709 34.4793877C745.57706 64.9461602 747.608282 72.1715502 718.890909 82.35987 706.108369 86.8966756 700.445219 85.4700798 695.556417 84.4131283 691.569097 83.4688028 688.451475 82.8536916 680.916018 85.5278368L677.480566 86.7465077 661.560179 41.9329176C678.353153 31.1410381 676.255476 20.3982519 675.10551 12.3238353 674.501633 7.59931965 673.660829 2.20771167 679.00326.310397021 681.04315-.30471412 682.872116.0129489108 684.654853 1.09877891 690.28622 4.25519429 693.530974 14.5907942 696.99532 28.2849586L720.847007 19.8235706C722.944684 19.0785064 726.640179 17.9811251 729.936941 19.7109447 732.592265 21.1317648 734.47324 24.0080591 735.47296 27.7304923L735.47296 27.7304923zM674.625876 98.0668629L659.361374 103.481574 639.852399 48.5634114 655.1169 43.1458128 674.625876 98.0668629zM729.163844 641.528769L705.641544 632.198139C701.633999 645.848986 698.054079 655.96511 692.272464 659.006011 690.486838 659.930122 688.646314 660.181364 686.632429 659.491169 681.365121 657.403257 682.402402 652.043415 683.179641 647.34489 684.624322 639.316679 687.114952 628.65764 670.729378 617.259313L688.285144 573.057947 691.668588 574.400795C699.102917 577.352173 702.243654 576.852576 706.262757 576.05553 711.186231 575.177625 716.898501 573.958954 729.504789 578.960703 757.829209 590.197311 755.535055 597.341841 746.138849 627.580474L744.070065 634.161874C742.934546 637.846766 740.911992 640.746163 738.24511 641.973497 734.884782 643.582027 731.232628 642.351805 729.163844 641.528769L729.163844 641.528769zM660.74952 624.837021L645.695941 618.864956 667.207245 564.697633 682.260823 570.669698 660.74952 624.837021z"/>
    </g>
    <g filter="url(#a)" transform="translate(74.798 65.373)">
      <polygon fill="#FEFEFE" points=".98 388.027 597.761 388.027 597.761 .51 .98 .51"/>
      <polygon fill="#D2D7DC" points=".98 29.233 597.761 29.233 597.761 .51 .98 .51"/>
      <path fill="#E9561D" d="M10.7057621,14.8708653 C10.7057621,17.8857763 13.1530521,20.3317816 16.1695465,20.3317816 C19.1889303,20.3317816 21.6333309,17.8857763 21.6333309,14.8708653 C21.6333309,11.8559544 19.1889303,9.40994906 16.1695465,9.40994906 C13.1530521,9.40994906 10.7057621,11.8559544 10.7057621,14.8708653"/>
      <path fill="#FABE07" d="M29.3678653,14.8708653 C29.3678653,17.8857763 31.8151553,20.3317816 34.8316497,20.3317816 C37.8510335,20.3317816 40.2954341,17.8857763 40.2954341,14.8708653 C40.2954341,11.8559544 37.8510335,9.40994906 34.8316497,9.40994906 C31.8151553,9.40994906 29.3678653,11.8559544 29.3678653,14.8708653"/>
      <path fill="#3EAD57" d="M48.0296795,14.8708653 C48.0296795,17.8857763 50.4769695,20.3317816 53.4934639,20.3317816 C56.5128477,20.3317816 58.9572484,17.8857763 58.9572484,14.8708653 C58.9572484,11.8559544 56.5128477,9.40994906 53.4934639,9.40994906 C50.4769695,9.40994906 48.0296795,11.8559544 48.0296795,14.8708653"/>
      <polygon fill="#16A0DB" points=".853 388.004 80.207 388.004 80.207 29.23 .853 29.23"/>
      <polygon fill="#F8F9FA" points="80.204 245.584 597.761 245.584 597.761 29.233 80.204 29.233"/>
      <path fill="#010202" d="M18.4735241 74.0529319C18.4735241 86.2280895 28.3464757 96.0958584 40.5280278 96.0958584 52.7095799 96.0958584 62.5825314 86.2280895 62.5825314 74.0529319 62.5825314 61.8777743 52.7095799 52.0100054 40.5280278 52.0100054 28.3464757 52.0100054 18.4735241 61.8777743 18.4735241 74.0529319M54.145593 137.269896C54.145593 145.020874 47.8583403 151.301939 40.1061809 151.301939 32.351132 151.301939 26.0667687 145.020874 26.0667687 137.269896 26.0667687 129.518919 32.351132 123.237854 40.1061809 123.237854 47.8583403 123.237854 54.145593 129.518919 54.145593 137.269896M54.145593 179.35274C54.145593 187.103718 47.8583403 193.384782 40.1061809 193.384782 32.351132 193.384782 26.0667687 187.103718 26.0667687 179.35274 26.0667687 171.601762 32.351132 165.320697 40.1061809 165.320697 47.8583403 165.320697 54.145593 171.601762 54.145593 179.35274M54.145593 221.435583C54.145593 229.186561 47.8583403 235.467625 40.1061809 235.467625 32.351132 235.467625 26.0667687 229.186561 26.0667687 221.435583 26.0667687 213.684605 32.351132 207.40354 40.1061809 207.40354 47.8583403 207.40354 54.145593 213.684605 54.145593 221.435583" opacity=".1"/>
      <g fill="#D2D7DC" transform="translate(98.392 48.102)">
        <path d="M219.714634 113.990491L3.82147079 113.990491C1.76135535 113.990491.0913038537 112.321316.0913038537 110.262282L.0913038537 47.8530477C.0913038537 45.7911259 1.76135535 44.121951 3.82147079 44.121951L219.714634 44.121951C221.774749 44.121951 223.444801 45.7911259 223.444801 47.8530477L223.444801 110.262282C223.444801 112.321316 221.774749 113.990491 219.714634 113.990491M136.22246 150.822364C136.22246 152.376025 134.951141 153.646677 133.396664 153.646677L2.91594459 153.646677C1.36146759 153.646677.0901481087 152.376025.0901481087 150.822364L.0901481087 143.758693C.0901481087 142.205032 1.36146759 140.93438 2.91594459 140.93438L133.396664 140.93438C134.951141 140.93438 136.22246 142.205032 136.22246 143.758693L136.22246 150.822364zM81.5366528 170.661575C81.5366528 172.215236 80.2653334 173.485889 78.7108564 173.485889L2.91710034 173.485889C1.36262334 173.485889.0913038537 172.215236.0913038537 170.661575L.0913038537 163.597905C.0913038537 162.044244 1.36262334 160.773592 2.91710034 160.773592L78.7108564 160.773592C80.2653334 160.773592 81.5366528 162.044244 81.5366528 163.597905L81.5366528 170.661575zM172.344403 170.661575C172.344403 172.215236 171.073084 173.485889 169.518607 173.485889L93.7248505 173.485889C92.1703735 173.485889 90.899054 172.215236 90.899054 170.661575L90.899054 163.597905C90.899054 162.044244 92.1703735 160.773592 93.7248505 160.773592L169.518607 160.773592C171.073084 160.773592 172.344403 162.044244 172.344403 163.597905L172.344403 170.661575zM472.602905 74.9985088L256.709742 74.9985088C254.649626 74.9985088 252.979575 73.329334 252.979575 71.2703L252.979575 8.86106585C252.979575 6.79914399 254.649626 5.12996916 256.709742 5.12996916L472.602905 5.12996916C474.66302 5.12996916 476.333072 6.79914399 476.333072 8.86106585L476.333072 71.2703C476.333072 73.329334 474.66302 74.9985088 472.602905 74.9985088M389.110731 111.830671C389.110731 113.384332 387.839412 114.654984 386.284935 114.654984L255.804216 114.654984C254.249739 114.654984 252.978419 113.384332 252.978419 111.830671L252.978419 104.767C252.978419 103.213339 254.249739 101.942687 255.804216 101.942687L386.284935 101.942687C387.839412 101.942687 389.110731 103.213339 389.110731 104.767L389.110731 111.830671zM334.424924 131.669594C334.424924 133.223255 333.153604 134.493907 331.599127 134.493907L255.805371 134.493907C254.250894 134.493907 252.979575 133.223255 252.979575 131.669594L252.979575 124.605923C252.979575 123.052262 254.250894 121.78161 255.805371 121.78161L331.599127 121.78161C333.153604 121.78161 334.424924 123.052262 334.424924 124.605923L334.424924 131.669594zM425.232674 131.669594C425.232674 133.223255 423.961354 134.493907 422.406877 134.493907L346.613121 134.493907C345.058644 134.493907 343.787325 133.223255 343.787325 131.669594L343.787325 124.605923C343.787325 123.052262 345.058644 121.78161 346.613121 121.78161L422.406877 121.78161C423.961354 121.78161 425.232674 123.052262 425.232674 124.605923L425.232674 131.669594zM99.519178 12.7388651C99.519178 14.2925261 98.2478585 15.5631782 96.6933815 15.5631782L2.91623353 15.5631782C1.36175653 15.5631782.090437045 14.2925261.090437045 12.7388651L.090437045 5.67519444C.090437045 4.12153343 1.36175653 2.85088131 2.91623353 2.85088131L96.6933815 2.85088131C98.2478585 2.85088131 99.519178 4.12153343 99.519178 5.67519444L99.519178 12.7388651zM144.709096 12.7388651C144.709096 14.2925261 143.437776 15.5631782 141.883299 15.5631782L109.161269 15.5631782C107.606792 15.5631782 106.335473 14.2925261 106.335473 12.7388651L106.335473 5.67519444C106.335473 4.12153343 107.606792 2.85088131 109.161269 2.85088131L141.883299 2.85088131C143.437776 2.85088131 144.709096 4.12153343 144.709096 5.67519444L144.709096 12.7388651zM185.656563 32.5780765C185.656563 34.1317375 184.385243 35.4023896 182.830766 35.4023896L2.91594459 35.4023896C1.36146759 35.4023896.0901481087 34.1317375.0901481087 32.5780765L.0901481087 25.5144058C.0901481087 23.9607448 1.36146759 22.6900927 2.91594459 22.6900927L182.830766 22.6900927C184.385243 22.6900927 185.656563 23.9607448 185.656563 25.5144058L185.656563 32.5780765z"/>
      </g>
    </g>
    <g filter="url(#b)" transform="translate(101.159 99.738)">
      <path fill="#E5352A" d="M13.8302223 244.959108L19.0397429 256.949443C19.6291728 258.303843 21.400352 257.873554 22.0909096 256.949443 25.7864042 252.005451 31.3310908 240.661993 38.0141861 240.979656 42.9867789 241.219348 44.8417496 241.317534 48.6094783 237.06085 51.3312577 233.988182 52.0853813 233.583883 55.8733355 235.033582 57.5953955 235.692011 58.8320426 236.411084 60.8083666 236.385094 67.1765214 236.298458 74.1687786 232.226596 80.0110695 230.043385 82.1203041 229.255003 81.2072655 225.841569 79.0720267 226.638614 75.3736427 228.019005 71.6839269 229.41961 67.9826536 230.782673 66.1103467 231.472868 62.7846905 233.046744 60.8083666 232.853258 59.4214726 232.71753 57.1215401 230.724916 55.8762248 230.124244 51.9264664 228.215378 50.2246319 229.725722 47.2456992 233.095838 44.6106006 236.070319 44.4343495 238.291072 38.6036161 237.023308 37.9419521 236.878915 37.3236285 235.914375 36.5608368 235.940366 35.3559727 235.980795 34.2753511 236.01545 33.1398317 236.737411 30.8659034 238.184222 29.0513838 241.770926 27.5258004 243.809745 24.6971146 247.595711 21.8684287 251.381677 19.0397429 255.167642L22.0909096 255.167642 16.8813891 243.177307C15.9770187 241.098058 12.93452 242.894298 13.8302223 244.959108L13.8302223 244.959108zM16.9920517 269.978537C19.7456141 271.044152 22.351819 271.532198 25.3134156 270.995059 29.8814976 270.166247 33.1464772 266.47558 37.7174486 265.895123 47.0616468 264.711106 55.8857597 260.7923 64.8052217 257.624333 66.9317924 256.867717 66.0158645 253.457171 63.8661789 254.219563 55.680615 257.127623 46.4144296 262.002307 37.7174486 262.366176 30.2339998 262.678063 25.9317391 269.672425 17.9310945 266.573767 15.8103024 265.753619 14.8914852 269.167052 16.9920517 269.978537M26.6113172 166.215929C17.0475274 168.546421 4.83708169 175.055625.994229622 184.793441-2.81683946 194.459061 7.91136335 198.874577 15.7299782 198.623334 24.8661423 198.33455 35.0655917 192.833204 36.9436773 183.182023 38.957563 172.834872 27.119845 168.168113 18.6597917 168.763009 16.4031996 168.921841 16.3858634 172.453676 18.6597917 172.294845 22.6471119 172.014724 26.5737555 172.554751 29.9571989 174.867915 35.2707365 178.500825 33.7191488 184.859861 30.0583266 188.925948 26.0218872 193.407885 19.809758 195.351405 13.9039011 195.085723 8.61058906 194.84892 1.36406802 192.778334 4.80529871 184.9696 5.94370751 182.393641 8.78684017 179.91587 10.881628 178.087863 15.7039739 173.871608 21.3526775 171.131043 27.55036 169.6207 29.7578329 169.080672 28.8216795 165.675902 26.6113172 166.215929"/>
      <path fill="#E5352A" d="M19.7152758 187.00582C26.8548904 195.135105 31.212049 204.679435 32.8416495 215.361577 33.1854836 217.599657 36.5891526 216.649556 36.2482078 214.423027 34.5290371 203.157541 29.7269167 193.06452 22.211685 184.510721 20.7092165 182.798228 18.2214754 185.304878 19.7152758 187.00582M18.1443294 48.3005676C40.4819906 42.2389794 63.3744094 39.475311 86.5153133 40.0384409 88.7892416 40.09331 88.7863522 36.5643625 86.5153133 36.5094934 63.0652476 35.9377 39.8405521 38.7533496 17.2052866 44.8957974 15.0151499 45.4906937 15.9455246 48.8983516 18.1443294 48.3005676"/>
      <path fill="#E5352A" d="M23.3003967 36.9747254C20.3619151 38.2684803 17.6516931 39.9347672 15.1928457 42.0053526 13.4592282 43.4637147 10.1711337 45.9876919 9.85908258 48.419258 9.52391654 51.0183192 12.3699386 51.8904486 14.3115901 52.5864194 17.8481698 53.8570715 21.5378856 54.4923976 25.27961 54.7060982 27.5506489 54.8360512 27.5419808 51.3071037 25.27961 51.1771507 22.7369711 51.0327584 20.2636768 50.666002 17.8106081 49.9902461 17.1662802 49.8111997 14.5571859 49.3780228 14.2480242 48.8062293 13.7886155 47.9600905 14.3058114 47.801259 15.0454882 47.0128771 17.8915102 43.9748634 21.2836217 41.6934653 25.0831334 40.0242905 27.1576956 39.1088434 25.3634015 36.0679418 23.3003967 36.9747254M90.5037892 31.769961C91.0383213 37.2251016 92.5379004 42.1315515 95.2076713 46.9109362 95.8173268 47.9967662 97.1204293 47.944785 97.9814593 47.2661412 101.373571 44.5977718 101.766524 40.0089849 105.121074 37.3925966 104.196478 37.274195 103.271882 37.1557933 102.347286 37.0345038 105.175972 41.9409537 109.775837 38.8018654 111.729046 34.914825 110.925803 35.1256377 110.119671 35.3364505 109.313539 35.5472632 111.622139 36.806364 110.53285 39.3187898 113.846949 39.3101262 114.676196 39.3072384 115.508332 38.7787626 116.268234 38.4957537 120.206435 37.0287281 122.110525 34.4210034 126.921314 35.140077 129.146123 35.4721792 130.105391 32.070297 127.860356 31.7353069 124.367117 31.2126068 120.755414 30.6899067 117.60023 32.6276512 116.14977 33.5199955 115.271404 35.3855439 113.243072 34.9321521 114.069429 35.1169742 111.009595 32.4543804 111.096275 32.500586 110.298811 32.0645213 109.119952 32.2608948 108.680768 33.1330242 108.31093 34.7126758 107.215862 35.420198 105.395563 35.252703 104.771461 34.1726487 103.497252 34.2159663 102.621775 34.8974979 99.2152171 37.554316 98.8280425 42.140215 95.4850501 44.7710425 96.4096461 44.8894442 97.3342421 45.0107337 98.2588381 45.1291354 95.8519991 40.8233574 94.5142243 36.656196 94.0345902 31.769961 93.817888 29.5289927 90.2813083 29.5058899 90.5037892 31.769961M102.054882 57.955791C106.478496 57.5514926 109.913948 56.0960183 113.967724 54.5885628 117.877031 53.1330886 114.877873 53.6009196 117.417623 54.5798993 118.449125 54.978422 118.746729 55.7205984 119.859134 56.0295979 122.609807 56.794877 124.49945 55.1343657 126.732927 53.7828539 132.436529 50.3318782 137.614266 48.1602182 144.412936 47.7443685 146.669528 47.6057519 146.686864 44.0739165 144.412936 44.2125331 139.700386 44.5042055 135.227653 45.3792228 130.893609 47.3342944 126.247514 49.4279825 122.485564 54.3402081 118.134185 49.2142819 117.680555 48.6800305 116.576818 48.4980962 115.996056 48.9370487 111.742915 52.1425575 107.374199 53.9387976 102.054882 54.4268435 99.8098478 54.6318805 99.7896223 58.1637159 102.054882 57.955791M231.12357 2.59867611C231.302711 5.11398975 230.58037 10.4131867 233.487069 11.8888758 238.231402 14.2973392 242.868829 6.37597833 248.081239 8.60250739 251.279763 9.96557058 252.42395 13.5378358 256.339037 13.3732285 259.864059 13.2259484 269.687891 10.2601308 272.158296 14.375311 273.325598 16.3188312 276.379655 14.5485818 275.206573 12.5935102 271.872249 7.03440716 263.189715 8.92883396 257.861731 9.02702072 252.860244 9.11943178 251.262427 4.40069185 246.370736 4.32560786 244.793144 4.29961725 243.267561 4.86852286 241.82288 5.39699863 240.320411 6.09296945 238.849726 6.84958503 237.413712 7.66973322 235.096444 6.66476291 234.177626 4.97537315 234.654371 2.59867611 234.495456.346156442 230.961766.328829367 231.12357 2.59867611M225.963458 19.9014926C227.665292 23.4622064 231.268327 25.8042493 235.304767 25.3999509 238.405053 25.0909514 239.809283 23.320702 243.262071 23.6932341 244.059535 23.7798694 244.790544 24.2043828 245.634238 24.2765789 247.489208 24.4382983 248.991677 23.7712059 250.83509 24.5191579 252.941435 25.3710724 253.857363 21.9576388 251.774133 21.1143878 250.075188 20.4270805 248.728745 20.7534071 246.943119 20.7418557 244.969684 20.7303043 243.238956 19.6040445 241.242407 19.7455489 240.077994 19.8264086 239.032044 20.3519965 237.974538 20.7909491 234.351277 22.2955167 230.881153 22.0327228 229.011735 18.1196918 228.035131 16.0693213 224.986853 17.8597857 225.963458 19.9014926M261.847895 27.0136791C263.385036 29.5463198 264.994411 29.9130762 267.834654 29.1477971 270.198152 28.512471 272.232264 26.1415497 274.33283 24.97486 279.114725 22.3209298 275.534805 24.319319 278.753555 25.722812 280.744325 26.5920536 281.712262 27.539267 284.046867 27.9349019 286.942008 28.4287235 287.652791 27.0829874 291.172035 28.1428268 296.367108 29.7022635 301.43505 31.2848029 306.794817 32.4832589 309.008069 32.9770805 309.952891 29.5751982 307.73386 29.0784888 302.405876 27.8886963 297.485292 26.7451094 292.394235 24.7611594 288.996345 23.4356382 286.621289 25.237654 283.21762 24.244235 280.646087 23.4933951 279.738827 20.0308681 276.999712 19.6496725 274.240371 19.2684768 266.58356 28.0128737 264.899062 25.2318783 263.720202 23.2912459 260.666146 25.0643832 261.847895 27.0136791M290.636925 41.5869038C311.599249 72.3424608 352.139894 65.8881256 380.80237 51.1543367 382.824923 50.1147122 381.039297 47.068035 379.019633 48.1076595 352.24969 61.8682444 313.488892 68.8597189 293.685202 39.805103 292.413883 37.9395546 289.354048 39.7040284 290.636925 41.5869038"/>
      <path fill="#E5352A" d="M377.547792 45.7777455C379.012698 45.301251 380.480495 44.9807001 382.026303 44.9691487 383.924615 44.9547095 385.427083 45.0471205 385.814258 47.1003789 386.328564 49.8178417 385.733356 53.1186494 385.227717 55.7812431 384.80587 57.9991087 388.209539 58.9520978 388.634275 56.719793 389.093684 54.2997783 389.388399 51.8624365 389.402846 49.3962162 389.414403 47.5826491 389.619548 45.0240178 388.47536 43.4588054 386.108973 40.2244182 379.789937 41.3391266 376.608749 42.3729754 374.456174 43.0747219 375.37788 46.4823799 377.547792 45.7777455M389.348815 30.0158835C394.99174 33.469747 400.805137 36.5741812 406.812121 39.3465131 408.863569 40.2937265 410.657863 37.2499371 408.594858 36.2998358 402.587874 33.5275039 396.774476 30.4201819 391.131551 26.9663184 389.18701 25.7794138 387.410053 28.8289789 389.348815 30.0158835"/>
      <path fill="#E5352A" d="M400.348907,23.7307761 C396.286463,30.095588 393.856509,37.0264178 392.894351,44.5059383 C392.605415,46.7526822 396.139105,46.7324673 396.425152,44.5059383 C397.306408,37.6646317 399.690132,31.3200346 403.397184,25.5125769 C404.625163,23.5921595 401.568218,21.8190222 400.348907,23.7307761"/>
      <polygon fill="#FEFEFE" points="46.912 483.468 747.761 483.468 747.761 28.372 46.912 28.372"/>
      <polygon fill="#D2D7DC" points="46.912 62.105 747.761 62.105 747.761 28.372 46.912 28.372"/>
      <path fill="#E9561D" d="M58.3310272,45.2400286 C58.3310272,48.7834154 61.2030535,51.653934 64.7483012,51.653934 C68.2906596,51.653934 71.1655752,48.7834154 71.1655752,45.2400286 C71.1655752,41.6966419 68.2906596,38.8261233 64.7483012,38.8261233 C61.2030535,38.8261233 58.3310272,41.6966419 58.3310272,45.2400286"/>
      <path fill="#FABE07" d="M80.2474193,45.2400286 C80.2474193,48.7834154 83.1194456,51.653934 86.6646933,51.653934 C90.2070517,51.653934 93.0819674,48.7834154 93.0819674,45.2400286 C93.0819674,41.6966419 90.2070517,38.8261233 86.6646933,38.8261233 C83.1194456,38.8261233 80.2474193,41.6966419 80.2474193,45.2400286"/>
      <path fill="#3EAD57" d="M102.163811,45.2400286 C102.163811,48.7834154 105.035838,51.653934 108.581085,51.653934 C112.123444,51.653934 114.998359,48.7834154 114.998359,45.2400286 C114.998359,41.6966419 112.123444,38.8261233 108.581085,38.8261233 C105.035838,38.8261233 102.163811,41.6966419 102.163811,45.2400286"/>
      <polygon fill="#6B7483" points="46.909 483.445 227.098 483.445 227.098 121.748 46.909 121.748"/>
      <polygon fill="#F8F9FA" points="227.081 483.433 494.711 483.433 494.711 121.748 227.081 121.748"/>
      <polygon fill="#16A0DB" points="46.912 123.348 747.761 123.348 747.761 62.105 46.912 62.105"/>
      <path fill="#FEFEFE" d="M136.130001 99.0810245C136.130001 100.634685 134.858681 101.905338 133.304204 101.905338L71.6163158 101.905338C70.0618388 101.905338 68.7905193 100.634685 68.7905193 99.0810245L68.7905193 86.3716154C68.7905193 84.8179544 70.0618388 83.5473023 71.6163158 83.5473023L133.304204 83.5473023C134.858681 83.5473023 136.130001 84.8179544 136.130001 86.3716154L136.130001 99.0810245zM206.798028 186.627512C206.798028 188.181173 205.526708 189.451825 203.972231 189.451825L142.284343 189.451825C140.729866 189.451825 139.458546 188.181173 139.458546 186.627512L139.458546 173.918103C139.458546 172.364442 140.729866 171.09379 142.284343 171.09379L203.972231 171.09379C205.526708 171.09379 206.798028 172.364442 206.798028 173.918103L206.798028 186.627512zM183.800436 266.747037C183.800436 268.300698 182.529117 269.571351 180.97464 269.571351L71.6180494 269.571351C70.0635724 269.571351 68.7922529 268.300698 68.7922529 266.747037L68.7922529 254.037628C68.7922529 252.486855 70.0635724 251.213315 71.6180494 251.213315L180.97464 251.213315C182.529117 251.213315 183.800436 252.486855 183.800436 254.037628L183.800436 266.747037zM110.427388 299.706598C110.427388 301.260259 109.156069 302.530912 107.601592 302.530912L71.6174715 302.530912C70.0629945 302.530912 68.791675 301.260259 68.791675 299.706598L68.791675 286.997189C68.791675 285.443528 70.0629945 284.172876 71.6174715 284.172876L107.601592 284.172876C109.156069 284.172876 110.427388 285.443528 110.427388 286.997189L110.427388 299.706598zM172.094473 332.665871C172.094473 334.219532 170.823154 335.490184 169.268677 335.490184L71.6168937 335.490184C70.0624166 335.490184 68.7910972 334.219532 68.7910972 332.665871L68.7910972 319.956461C68.7910972 318.4028 70.0624166 317.132148 71.6168937 317.132148L169.268677 317.132148C170.823154 317.132148 172.094473 318.4028 172.094473 319.956461L172.094473 332.665871zM192.961449 365.625431C192.961449 367.179092 191.690129 368.449745 190.135652 368.449745L71.6168937 368.449745C70.0624166 368.449745 68.7910972 367.179092 68.7910972 365.625431L68.7910972 352.916022C68.7910972 351.365249 70.0624166 350.091709 71.6168937 350.091709L190.135652 350.091709C191.690129 350.091709 192.961449 351.365249 192.961449 352.916022L192.961449 365.625431zM136.177386 398.584992C136.177386 400.138653 134.906067 401.409306 133.35159 401.409306L71.6174715 401.409306C70.0629945 401.409306 68.791675 400.138653 68.791675 398.584992L68.791675 385.875583C68.791675 384.32481 70.0629945 383.05127 71.6174715 383.05127L133.35159 383.05127C134.906067 383.05127 136.177386 384.32481 136.177386 385.875583L136.177386 398.584992zM185.838593 299.706598C185.838593 301.260259 184.567273 302.530912 183.012796 302.530912L121.278678 302.530912C119.724201 302.530912 118.452881 301.260259 118.452881 299.706598L118.452881 286.997189C118.452881 285.443528 119.724201 284.172876 121.278678 284.172876L183.012796 284.172876C184.567273 284.172876 185.838593 285.443528 185.838593 286.997189L185.838593 299.706598zM173.740254 398.584992C173.740254 400.138653 172.468935 401.409306 170.914458 401.409306L146.499345 401.409306C144.944868 401.409306 143.673548 400.138653 143.673548 398.584992L143.673548 385.875583C143.673548 384.32481 144.944868 383.05127 146.499345 383.05127L170.914458 383.05127C172.468935 383.05127 173.740254 384.32481 173.740254 385.875583L173.740254 398.584992zM183.800436 431.544265C183.800436 433.097926 182.529117 434.368578 180.97464 434.368578L71.6180494 434.368578C70.0635724 434.368578 68.7922529 433.097926 68.7922529 431.544265L68.7922529 418.834855C68.7922529 417.281194 70.0635724 416.010542 71.6180494 416.010542L180.97464 416.010542C182.529117 416.010542 183.800436 417.281194 183.800436 418.834855L183.800436 431.544265zM68.7913861 184.390298C68.7913861 198.688022 80.3863977 210.276947 94.6916312 210.276947 108.996865 210.276947 120.594766 198.688022 120.594766 184.390298 120.594766 170.092574 108.996865 158.503649 94.6916312 158.503649 80.3863977 158.503649 68.7913861 170.092574 68.7913861 184.390298" opacity=".2"/>
      <g transform="translate(245.394 166.792)">
        <g transform="translate(294.715 49.093)">
          <mask id="d" fill="white">
            <use xlink:href="#c"/>
          </mask>
          <path fill="#D2D7DC" d="M259.101845,83.8858541 L4.55190162,83.8858541 C2.49178618,83.8858541 0.821734683,82.2166792 0.821734683,80.1576452 L0.821734683,5.5617021 C0.821734683,3.50266809 2.49178618,1.83349326 4.55190162,1.83349326 L259.101845,1.83349326 C261.16196,1.83349326 262.832012,3.50266809 262.832012,5.5617021 L262.832012,80.1576452 C262.832012,82.2166792 261.16196,83.8858541 259.101845,83.8858541" mask="url(#d)"/>
        </g>
        <path fill="#D2D7DC" d="M455.22859 176.726629C455.22859 178.28029 453.957271 179.550942 452.402794 179.550942L298.362213 179.550942C296.807736 179.550942 295.536417 178.28029 295.536417 176.726629L295.536417 167.447981C295.536417 165.89432 296.807736 164.623668 298.362213 164.623668L452.402794 164.623668C453.957271 164.623668 455.22859 165.89432 455.22859 167.447981L455.22859 176.726629zM391.078098 200.02548C391.078098 201.579141 389.806779 202.849793 388.252302 202.849793L298.361346 202.849793C296.806869 202.849793 295.53555 201.579141 295.53555 200.02548L295.53555 190.746831C295.53555 189.19317 296.806869 187.922518 298.361346 187.922518L388.252302 187.922518C389.806779 187.922518 391.078098 189.19317 391.078098 190.746831L391.078098 200.02548zM497.602535 200.02548C497.602535 201.579141 496.331216 202.849793 494.776739 202.849793L404.885784 202.849793C403.331306 202.849793 402.059987 201.579141 402.059987 200.02548L402.059987 190.746831C402.059987 189.19317 403.331306 187.922518 404.885784 187.922518L494.776739 187.922518C496.331216 187.922518 497.602535 189.19317 497.602535 190.746831L497.602535 200.02548zM412.173045 14.563406C412.173045 16.117067 410.901725 17.3877192 409.347248 17.3877192L298.361057 17.3877192C296.80658 17.3877192 295.535261 16.117067 295.535261 14.563406L295.535261 5.28475769C295.535261 3.73109669 296.80658 2.46044456 298.361057 2.46044456L409.347248 2.46044456C410.901725 2.46044456 412.173045 3.73109669 412.173045 5.28475769L412.173045 14.563406zM465.183889 14.563406C465.183889 16.117067 463.912569 17.3877192 462.358092 17.3877192L422.993418 17.3877192C421.44183 17.3877192 420.167622 16.117067 420.167622 14.563406L420.167622 5.28475769C420.167622 3.73109669 421.44183 2.46044456 422.993418 2.46044456L462.358092 2.46044456C463.912569 2.46044456 465.183889 3.73109669 465.183889 5.28475769L465.183889 14.563406z"/>
        <g transform="translate(294.715 23.103)">
          <mask id="f" fill="white">
            <use xlink:href="#e"/>
          </mask>
          <path fill="#D2D7DC" d="M218.503702,14.7594908 C218.503702,16.3131518 217.232382,17.5838039 215.677905,17.5838039 L3.6478201,17.5838039 C2.0933431,17.5838039 0.82202362,16.3131518 0.82202362,14.7594908 L0.82202362,5.48084242 C0.82202362,3.92718141 2.0933431,2.65652929 3.6478201,2.65652929 L215.677905,2.65652929 C217.232382,2.65652929 218.503702,3.92718141 218.503702,5.48084242 L218.503702,14.7594908 Z" mask="url(#f)"/>
        </g>
        <path fill="#D2D7DC" d="M118.965454 14.563406C118.965454 16.117067 117.694135 17.3877192 116.139658 17.3877192L5.15346688 17.3877192C3.59898988 17.3877192 2.3276704 16.117067 2.3276704 14.563406L2.3276704 5.28475769C2.3276704 3.73109669 3.59898988 2.46044456 5.15346688 2.46044456L116.139658 2.46044456C117.694135 2.46044456 118.965454 3.73109669 118.965454 5.28475769L118.965454 14.563406zM232.895905 14.563406C232.895905 16.117067 231.624586 17.3877192 230.070109 17.3877192L129.786117 17.3877192C128.23164 17.3877192 126.96032 16.117067 126.96032 14.563406L126.96032 5.28475769C126.96032 3.73109669 128.23164 2.46044456 129.786117 2.46044456L230.070109 2.46044456C231.624586 2.46044456 232.895905 3.73109669 232.895905 5.28475769L232.895905 14.563406zM233.297238 37.8622566C233.297238 39.4159176 232.025918 40.6865698 230.471441 40.6865698L5.15317795 40.6865698C3.60159031 40.6865698 2.33027082 39.4159176 2.33027082 37.8622566L2.33027082 28.5836083C2.33027082 27.0299473 3.60159031 25.7592952 5.15317795 25.7592952L230.471441 25.7592952C232.025918 25.7592952 233.297238 27.0299473 233.297238 28.5836083L233.297238 37.8622566zM233.297238 61.0025645C233.297238 62.5562255 232.025918 63.8268776 230.471441 63.8268776L5.15317795 63.8268776C3.60159031 63.8268776 2.33027082 62.5562255 2.33027082 61.0025645L2.33027082 51.7239161C2.33027082 50.1702551 3.60159031 48.899603 5.15317795 48.899603L230.471441 48.899603C232.025918 48.899603 233.297238 50.1702551 233.297238 51.7239161L233.297238 61.0025645zM112.265889 114.882835C112.265889 116.436496 110.99457 117.707148 109.440093 117.707148L52.7854738 117.707148C51.2309968 117.707148 49.9596773 116.436496 49.9596773 114.882835L49.9596773 105.604187C49.9596773 104.050526 51.2309968 102.779874 52.7854738 102.779874L109.440093 102.779874C110.99457 102.779874 112.265889 104.050526 112.265889 105.604187L112.265889 114.882835zM231.065783 114.882835C231.065783 116.436496 229.794464 117.707148 228.239987 117.707148L123.613283 117.707148C122.058806 117.707148 120.787486 116.436496 120.787486 114.882835L120.787486 105.604187C120.787486 104.050526 122.058806 102.779874 123.613283 102.779874L228.239987 102.779874C229.794464 102.779874 231.065783 104.050526 231.065783 105.604187L231.065783 114.882835z"/>
        <path fill="#16A0DB" d="M37.0867008,110.080348 C37.0867008,119.182837 29.6870435,126.561283 20.5566582,126.561283 C11.4291621,126.561283 4.02950489,119.182837 4.02950489,110.080348 C4.02950489,100.977858 11.4291621,93.599412 20.5566582,93.599412 C29.6870435,93.599412 37.0867008,100.977858 37.0867008,110.080348"/>
        <path fill="#D2D7DC" d="M75.898062 164.304272C75.898062 165.857933 74.6267425 167.128585 73.0722655 167.128585L52.7860517 167.128585C51.2315747 167.128585 49.9602552 165.857933 49.9602552 164.304272L49.9602552 155.025623C49.9602552 153.471962 51.2315747 152.20131 52.7860517 152.20131L73.0722655 152.20131C74.6267425 152.20131 75.898062 153.471962 75.898062 155.025623L75.898062 164.304272zM231.065783 164.304272C231.065783 165.857933 229.794464 167.128585 228.239987 167.128585L86.9386049 167.128585C85.3841279 167.128585 84.1128084 165.857933 84.1128084 164.304272L84.1128084 155.025623C84.1128084 153.471962 85.3841279 152.20131 86.9386049 152.20131L228.239987 152.20131C229.794464 152.20131 231.065783 153.471962 231.065783 155.025623L231.065783 164.304272z"/>
        <path fill="#16A0DB" d="M37.0867008,159.501784 C37.0867008,168.604274 29.6870435,175.98272 20.5566582,175.98272 C11.4291621,175.98272 4.02950489,168.604274 4.02950489,159.501784 C4.02950489,150.399295 11.4291621,143.020849 20.5566582,143.020849 C29.6870435,143.020849 37.0867008,150.399295 37.0867008,159.501784"/>
        <path fill="#D2D7DC" d="M165.656685 213.725709C165.656685 215.27937 164.385365 216.550022 162.830888 216.550022L52.7837402 216.550022C51.2321526 216.550022 49.9608331 215.27937 49.9608331 213.725709L49.9608331 204.44706C49.9608331 202.893399 51.2321526 201.622747 52.7837402 201.622747L162.830888 201.622747C164.385365 201.622747 165.656685 202.893399 165.656685 204.44706L165.656685 213.725709zM231.065783 213.725709C231.065783 215.27937 229.794464 216.550022 228.239987 216.550022L175.468671 216.550022C173.914194 216.550022 172.642874 215.27937 172.642874 213.725709L172.642874 204.44706C172.642874 202.893399 173.914194 201.622747 175.468671 201.622747L228.239987 201.622747C229.794464 201.622747 231.065783 202.893399 231.065783 204.44706L231.065783 213.725709z"/>
        <path fill="#16A0DB" d="M37.0867008,208.923221 C37.0867008,218.025711 29.6870435,225.404157 20.5566582,225.404157 C11.4291621,225.404157 4.02950489,218.025711 4.02950489,208.923221 C4.02950489,199.820731 11.4291621,192.442285 20.5566582,192.442285 C29.6870435,192.442285 37.0867008,199.820731 37.0867008,208.923221"/>
      </g>
      <g fill="#E5352A" transform="translate(128.365 88.204)">
        <path d="M144.529763,166.777808 C134.217628,165.068203 123.414302,169.636775 118.03142,178.869218 C112.348044,188.621473 119.406756,196.961572 129.068784,199.733903 C139.354915,202.682394 149.516802,197.466945 154.443165,188.243165 C158.323579,180.97157 159.927175,166.234893 148.843581,164.571494 C146.618772,164.239392 145.659503,167.638386 147.904538,167.976264 C158.0462,169.498159 153.533016,183.868079 149.840411,189.022884 C145.249214,195.431013 137.719535,198.523896 130.007827,196.329133 C119.955735,193.467278 116.523172,184.763311 124.073076,176.870829 C129.219031,171.487884 136.234403,168.961019 143.59072,170.182578 C145.815529,170.549334 146.769019,167.15034 144.529763,166.777808"/>
        <path d="M140.291935 187.267073C151.323521 186.92342 160.942208 181.598232 168.939964 174.260216 174.080139 169.544364 180.300937 163.127571 182.540193 156.306479 183.250976 154.140595 179.841528 153.213597 179.136524 155.367929 177.232434 161.15806 171.907339 166.515014 167.648419 170.627306 160.141855 177.872911 150.947904 183.403136 140.291935 183.738126 138.023785 183.807434 138.015117 187.33927 140.291935 187.267073M184.301548 144.092047C184.867863 147.340873 185.902255 150.09299 187.572306 152.934631 188.291758 154.156189 190.513677 154.055115 190.799724 152.513005 191.507618 148.698161 192.776048 145.2674 194.766819 141.923275L191.718541 141.923275C194.327636 145.49554 198.329403 145.062363 201.886208 142.994666 204.709115 141.357257 207.08706 140.664174 210.17001 139.757391 211.005036 139.511924 211.871845 139.246242 212.556623 138.677336 212.969802 138.330795 213.654581 136.959068 213.897288 136.87532 216.029637 136.130256 215.113709 132.71971 212.958245 133.47055 212.123219 133.765111 211.880513 134.071222 211.215959 134.521726 209.540129 135.668201 208.999818 136.265985 206.824128 136.736704 204.030115 137.340264 196.945398 143.118843 194.766819 140.141474 194.004027 139.096074 192.446661 138.917027 191.718541 140.141474 189.568856 143.751281 188.161736 147.43906 187.393166 151.574455 188.470898 151.432951 189.545741 151.291446 190.620584 151.15283 189.115226 148.588423 188.213745 146.061558 187.708106 143.153497 187.318042 140.918305 183.914373 141.865518 184.301548 144.092047M219.248965 125.659216C217.05016 129.621341 221.595127 133.034774 225.146154 130.496358 225.958064 129.915901 226.258558 129.101529 226.897107 128.408446 228.159759 127.039607 228.887878 127.374597 230.563708 127.077149 234.484573 126.384066 238.35054 124.538732 242.092264 123.18722 244.213056 122.421941 243.300018 119.008508 241.153222 119.78245 238.916855 120.591047 236.677599 121.399644 234.441233 122.205353 232.045951 123.071707 230.517478 123.112137 228.073078 123.360491 227.142703 123.452902 226.394358 123.559753 225.611341 124.1662 225.281954 124.423218 225.013243 124.76976 224.758979 125.096087 224.498936 125.457067 224.267787 125.835375 224.065532 126.23101 223.773706 126.935644 223.184276 127.339943 222.300132 127.441017 223.400979 125.451292 220.352701 123.669491 219.248965 125.659216M197.843123 167.165068C200.105494 165.172454 202.393869 163.156738 205.156099 161.891862 208.484645 160.367079 211.558927 161.051499 215.052166 160.681854 219.059712 160.257341 222.347806 158.28783 224.9569 155.281583 226.442033 153.574866 223.954292 151.068216 222.460491 152.786484 217.516792 158.47554 212.40551 155.980441 206.202049 157.692934 201.974911 158.862512 198.565464 161.831217 195.346714 164.669969 193.636211 166.174537 196.144178 168.66386 197.843123 167.165068M462.861804 142.161522C467.455891 149.101015 472.362028 155.806593 477.568659 162.29847 478.987336 164.071608 481.472188 161.559182 480.065068 159.803372 475.049135 153.54541 470.339474 147.067972 465.912971 140.379721 464.661877 138.493958 461.602042 140.258432 462.861804 142.161522"/>
        <path d="M480.820059 140.522958C471.851478 143.953719 464.466267 149.862252 459.19896 157.899126 457.950755 159.805104 461.0077 161.575354 462.250126 159.680927 466.977123 152.464201 473.692002 147.011948 481.759102 143.927729 483.859668 143.12202 482.949519 139.708586 480.820059 140.522958M455.343394 172.120323C440.887914 204.345793 414.808528 229.94077 382.317648 243.813981 380.234417 244.703437 382.031601 247.747227 384.100384 246.863546 417.06801 232.788186 443.728157 206.595425 458.394561 173.902123 459.316268 171.845977 456.273769 170.049737 455.343394 172.120323"/>
        <path d="M446.544708 176.426967C449.876143 174.795334 453.207578 173.163701 456.536123 171.532068 457.111106 171.251947 458.128162 170.486668 458.758043 170.446238 460.006247 170.365379 459.517945 170.333612 459.922456 171.494526 460.621682 173.510243 460.335635 176.323004 460.251843 178.442683 460.162273 180.71253 463.693074 180.709642 463.782644 178.442683 463.901108 175.543286 464.66101 166.764235 460.231618 166.313731 458.093489 166.097143 455.443944 168.147513 453.643871 169.028306 450.682275 170.478005 447.723568 171.927703 444.761971 173.377402 442.722081 174.379484 444.510597 177.423274 446.544708 176.426967M340.821491 255.16437C341.575614 252.614402 343.060747 258.508495 344.777028 259.582774 345.317339 259.920651 346.013675 259.880222 346.559765 259.582774 348.940599 258.274579 351.107621 254.295128 354.213686 254.592576 356.95858 254.85537 356.77655 257.113665 360.035751 256.27619 362.422364 255.661079 363.072471 253.804194 364.814757 252.371823 370.018498 248.089148 374.026044 253.116887 378.250292 256.215545 380.085037 257.561282 381.850438 254.497277 380.033029 253.16598 376.664032 250.696872 372.098839 245.698011 367.42963 246.301571 366.369234 246.440188 365.25105 247.014869 364.404467 247.638644 363.294952 248.455904 362.725747 249.885388 361.679798 250.691097 360.235117 251.294656 358.787546 251.898216 357.339976 252.498888 356.715874 251.984851 356.045541 251.540123 355.32609 251.170479 352.24603 250.624676 351.526579 250.457181 348.911706 252.781897 344.453419 256.738245 345.664062 251.909767 342.072585 249.336697 341.616065 249.007482 340.746367 248.993043 340.289848 249.336697 338.596682 250.607349 338.01592 252.198552 337.414932 254.22582 336.770605 256.409031 340.177163 257.341805 340.821491 255.16437M346.071462 275.76164C347.842641 273.665064 349.189084 270.517313 352.150681 271.663787 353.632924 272.235581 354.548852 273.04129 356.195788 273.324299 361.850271 274.297503 367.002004 270.846527 372.558248 270.5202 374.817729 270.38736 374.832176 266.858412 372.558248 266.991253 369.654439 267.161636 367.080017 267.886485 364.303339 268.721073 362.44259 269.281315 359.787266 270.309388 357.836946 269.974398 355.955971 269.653847 354.323481 268.250354 352.581196 267.672785 348.105573 266.188432 346.360399 269.965734 343.575053 273.266542 342.115925 274.990586 344.603666 277.500124 346.071462 275.76164M386.790381 267.794652C390.702577 265.605665 394.649446 262.899753 398.761009 261.09485 403.360874 259.079133 408.654186 260.407542 413.514094 260.759859 415.782244 260.924467 415.770686 257.392631 413.514094 257.230912 408.920008 256.895922 403.331981 255.486653 398.873694 257.100959 394.068685 258.839442 389.460152 262.255764 385.007644 264.747974 383.025541 265.856907 384.802499 268.906472 386.790381 267.794652M41.9761762 287.723675C30.4678456 285.19681 17.2634591 291.163099 13.7499944 303.017706 9.58064435 317.084403 26.14247 325.360969 37.948405 324.347335 48.3790035 323.452102 63.5105947 313.673857 60.1213725 301.339868 56.6945886 288.87015 40.1183162 287.463769 31.109284 294.027842 29.2889857 295.353363 31.0514968 298.417368 32.8920207 297.077407 39.8813885 291.983248 53.9641411 291.786874 56.7148141 302.278418 59.5666149 313.15982 44.3165598 321.098508 35.5849065 320.919462 24.0216779 320.685546 11.0831128 311.401122 19.629847 299.145105 24.4146312 292.277808 32.9844803 289.358196 41.0371334 291.128445 43.2532745 291.613603 44.198096 288.211721 41.9761762 287.723675"/>
        <path d="M44.6367012 311.086347C65.7666089 323.137327 90.4562111 328.632898 113.727136 319.319595 115.810367 318.485008 114.900217 315.068686 112.788094 315.914825 90.3695302 324.887362 66.7836644 319.651697 46.4194378 308.036782 44.4431139 306.910522 42.6603773 309.960087 44.6367012 311.086347M118.84622 311.645145C119.11493 315.436887 120.111761 318.705928 122.082306 321.957642 122.755527 323.069463 124.474698 323.135883 125.130583 321.957642 126.072515 320.274028 127.026005 317.923322 128.22509 316.412979 131.504517 312.292023 129.35772 315.797867 131.750113 314.917074 134.336092 313.964085 137.569289 312.67033 140.218834 312.878255 144.211933 313.193031 147.6705 316.577586 150.701441 312.473957 152.053663 310.645951 148.990938 308.884365 147.653163 310.692156 147.274657 311.203305 140.103259 309.170261 138.823272 309.22513 136.046595 309.34642 133.784224 310.963614 131.076891 311.200417 129.603316 311.327482 128.667163 310.484231 127.213813 311.515192 124.853204 313.193031 123.411412 317.796257 122.082306 320.175841L125.130583 320.175841C123.46631 317.4295 122.60528 314.847766 122.377021 311.645145 122.218106 309.392626 118.684415 309.375298 118.84622 311.645145M159.59721 306.933914C159.36895 304.866216 159.73301 303.043985 161.067896 301.38925L158.571486 301.38925C160.195308 303.168163 162.457679 307.07253 165.370156 305.957822 168.8894 304.614974 168.828723 299.295562 172.862273 298.619806 175.09864 298.247274 174.150929 294.845391 171.92323 295.215036 169.530838 295.616446 167.912795 297.158556 166.569242 299.102076 166.208071 299.621888 164.748943 302.466416 164.335764 302.472192 163.671211 302.480856 161.559087 299.43129 161.067896 298.894151 160.472687 298.241498 159.152248 298.175078 158.571486 298.894151 156.65295 301.26796 155.725464 303.861246 156.066409 306.933914 156.312005 309.166218 159.845695 309.192209 159.59721 306.933914M131.231761 336.100289C131.665165 334.431114 134.106677 337.434474 135.129511 337.711707 136.81112 338.170875 138.455167 337.460465 139.804499 336.562345 142.312466 334.898945 144.392807 333.010294 147.088582 331.566371 149.232489 330.419897 154.93898 324.727953 157.091555 325.727147 159.140113 326.677249 160.937296 323.636347 158.874292 322.68047 156.43567 321.548435 154.326435 321.718817 152.023613 323.2436 149.873927 324.66442 148.357012 326.772548 146.097531 328.106732 144.184773 329.23588 142.211338 330.284168 140.30147 331.410428 139.16884 332.074632 136.747554 334.119227 135.334656 333.53877 134.95326 333.382826 134.961928 332.418286 134.534302 332.201697 133.687719 331.774296 133.514357 331.159185 132.526195 330.968587 129.813084 330.448775 128.405964 332.932322 127.825203 335.161739 127.253109 337.362278 130.659667 338.300828 131.231761 336.100289M1.5799997 6.65975731C6.37056266 10.2522374 10.7566149 14.3125485 14.7612712 18.7598309 16.2839653 20.4521085 18.7745957 17.9483463 17.2576804 16.2647322 13.0449899 11.5835343 8.40178447 7.39038228 3.36273634 3.61019221 1.54532736 2.24712903-.217183745 5.31113335 1.5799997 6.65975731"/>
        <path d="M14.6324057,1.24071479 C8.54162961,4.70035398 4.17291358,10.3056625 2.28904925,17.0458945 C1.67650441,19.2377694 5.08306275,20.1734314 5.69560759,17.9844443 C7.33965483,12.0990147 11.1016048,7.30519083 16.4151423,4.29027988 C18.3914662,3.16690789 16.6145083,0.114454953 14.6324057,1.24071479"/>
      </g>
    </g>
    <g filter="url(#g)" transform="translate(24.354 .533)">
      <g transform="translate(744.989 84.314)">
        <path fill="#44B9BC" d="M63.1089733,124.728175 C29.5027985,124.728175 2.16365092,97.4033786 2.16365092,63.8148449 C2.16365092,30.2263112 29.5027985,2.90151487 63.1089733,2.90151487 C96.7122587,2.90151487 124.054296,30.2263112 124.054296,63.8148449 C124.054296,97.4033786 96.7122587,124.728175 63.1089733,124.728175"/>
        <path fill="#FEFEFE" d="M63.1089733,0.784146378 C28.2777088,0.784146378 0.0457482389,29.0041749 0.0457482389,63.8142674 C0.0457482389,98.6272477 28.2777088,126.847276 63.1089733,126.847276 C97.9373483,126.847276 126.172198,98.6272477 126.172198,63.8142674 C126.172198,29.0041749 97.9373483,0.784146378 63.1089733,0.784146378 M63.1089733,5.02061607 C95.5449562,5.02061607 121.933504,31.3953112 121.933504,63.8142674 C121.933504,96.2361114 95.5449562,122.610806 63.1089733,122.610806 C30.6729903,122.610806 4.28444297,96.2361114 4.28444297,63.8142674 C4.28444297,31.3953112 30.6729903,5.02061607 63.1089733,5.02061607"/>
        <path fill="#010202" fill-opacity=".1" d="M29.804159,108.696011 C15.6347255,98.5394572 6.40321246,81.937232 6.40321246,63.180674 C6.40321246,32.2691733 31.4742105,7.21133584 62.4019463,7.21133584 C80.4084531,7.21133584 96.4328573,15.707378 106.675647,28.9077208 C114.026185,38.376967 38.9865529,115.277411 29.804159,108.696011"/>
        <path fill="#C6C6C6" d="M63.1089733,126.846121 C28.8237983,126.846121 0.947229326,99.4953341 0.0861993134,65.4331937 C0.0717525011,65.9732208 0.0457482389,66.5103601 0.0457482389,67.0532751 C0.0457482389,101.863368 28.2805982,130.083396 63.1089733,130.083396 C97.9373483,130.083396 126.172198,101.863368 126.172198,67.0532751 C126.172198,66.5103601 126.146194,65.9732208 126.131747,65.4331937 C125.270717,99.4953341 97.3941482,126.846121 63.1089733,126.846121" opacity=".2"/>
        <path fill="#010202" d="M70.6614778,93.357218 C51.9990857,93.357218 44.9403732,92.3782383 44.660105,92.30893 C44.0331134,92.2396217 43.5448111,91.8208841 43.1258536,91.260642 C42.7762407,90.7032878 42.6346619,90.0044291 42.7762407,89.3748787 C43.9637687,84.1363266 47.2489738,79.7352497 52.0713197,76.8011984 C53.2588477,76.1052276 54.7266438,75.5449855 56.2637847,74.9154351 C58.9884535,73.8671471 62.0656245,72.6109342 62.6232714,70.7944793 C63.042229,69.3274536 61.9240457,67.0951489 60.8058625,65.4866188 C55.6339037,57.5248281 54.7266438,50.0481955 58.1505384,44.3909057 C60.7365178,40.062025 65.4172849,37.4745152 70.6614778,37.4745152 C75.8334366,37.4745152 80.5142038,40.062025 83.1695279,44.3909057 C86.5240777,50.0481955 85.6168179,57.5248281 80.4448591,65.5559271 C79.3989099,67.0951489 78.2084925,69.3274536 78.6967948,70.7944793 C79.2573311,72.6109342 82.3316128,73.8671471 85.0591709,74.9154351 C86.5963118,75.5449855 88.0641079,76.1052276 89.2516359,76.8011984 C94.0046371,79.7352497 97.4285316,84.1363266 98.5467149,89.3748787 C98.6854043,90.0044291 98.5467149,90.7032878 98.197102,91.260642 C97.8474892,91.8208841 97.2176082,92.2396217 96.5906165,92.30893 C96.3103483,92.3782383 89.3209806,93.357218 70.6614778,93.357218 L70.6614778,93.357218 Z M31.5221739,62.0645216 L49.4131063,62.0645216 L49.4131063,57.5941364 L31.5221739,57.5941364 L31.5221739,62.0645216 Z M31.5221739,53.1208634 L49.4131063,53.1208634 L49.4131063,48.6504782 L31.5221739,48.6504782 L31.5221739,53.1208634 Z" opacity=".1"/>
        <path fill="#FEFEFE" d="M69.2485796,90.5329049 C50.5861874,90.5329049 43.5274749,89.5539252 43.2472068,89.4846169 C42.6202151,89.4153086 42.1319129,88.9965709 41.7129553,88.4363289 C41.3633425,87.8789746 41.2217637,87.180116 41.3633425,86.5505656 C42.5508704,81.3120134 45.8360756,76.9109365 50.6584215,73.9768853 C51.8459495,73.2809145 53.3137456,72.7206724 54.8508864,72.091122 C57.5755552,71.042834 60.6527262,69.7866211 61.2103732,67.9701661 C61.6293308,66.5031405 60.5111475,64.2708358 59.3929642,62.6623057 C54.2210054,54.700515 53.3137456,47.2238824 56.7376401,41.5665926 C59.3236195,37.2377119 64.0043867,34.6502021 69.2485796,34.6502021 C74.4205384,34.6502021 79.1013055,37.2377119 81.7566296,41.5665926 C85.1111795,47.2238824 84.2039196,54.700515 79.0319608,62.731614 C77.9860116,64.2708358 76.7955943,66.5031405 77.2838966,67.9701661 C77.8444329,69.7866211 80.9187145,71.042834 83.6462727,72.091122 C85.1834135,72.7206724 86.6512096,73.2809145 87.8387376,73.9768853 C92.5917389,76.9109365 96.0156334,81.3120134 97.1338166,86.5505656 C97.272506,87.180116 97.1338166,87.8789746 96.7842038,88.4363289 C96.4345909,88.9965709 95.8047099,89.4153086 95.1777183,89.4846169 C94.8974501,89.5539252 87.9080823,90.5329049 69.2485796,90.5329049 L69.2485796,90.5329049 Z M30.1092757,59.2402085 L48.000208,59.2402085 L48.000208,54.7698233 L30.1092757,54.7698233 L30.1092757,59.2402085 Z M30.1092757,50.2965503 L48.000208,50.2965503 L48.000208,45.8261651 L30.1092757,45.8261651 L30.1092757,50.2965503 Z"/>
      </g>
      <path fill="#9A5CA1" d="M63.9212694,125.007237 C30.3150946,125.007237 2.97594702,97.6824408 2.97594702,64.0939071 C2.97594702,30.5053734 30.3150946,3.18057703 63.9212694,3.18057703 C97.5245548,3.18057703 124.866592,30.5053734 124.866592,64.0939071 C124.866592,97.6824408 97.5245548,125.007237 63.9212694,125.007237"/>
      <path fill="#FEFEFE" d="M63.9212694,1.06320854 C29.0900049,1.06320854 0.858044338,29.283237 0.858044338,64.0933295 C0.858044338,98.9063098 29.0900049,127.126338 63.9212694,127.126338 C98.7496444,127.126338 126.984494,98.9063098 126.984494,64.0933295 C126.984494,29.283237 98.7496444,1.06320854 63.9212694,1.06320854 M63.9212694,5.29967823 C96.3572523,5.29967823 122.7458,31.6743733 122.7458,64.0933295 C122.7458,96.5151736 96.3572523,122.889869 63.9212694,122.889869 C31.4852864,122.889869 5.09673907,96.5151736 5.09673907,64.0933295 C5.09673907,31.6743733 31.4852864,5.29967823 63.9212694,5.29967823"/>
      <path fill="#010202" fill-opacity=".1" d="M30.6164551,108.975073 C16.4470216,98.8185193 7.21550856,82.2162942 7.21550856,63.4597362 C7.21550856,32.5482354 32.2865066,7.490398 63.2142424,7.490398 C81.2207492,7.490398 97.2451534,15.9864401 107.487943,29.186783 C114.838481,38.6560292 39.798849,115.556473 30.6164551,108.975073"/>
      <path fill="#C6C6C6" d="M63.9212694,127.125183 C29.6360944,127.125183 1.75952543,99.7743963 0.898495413,65.7122558 C0.8840486,66.252283 0.858044338,66.7894223 0.858044338,67.3323373 C0.858044338,102.14243 29.0928943,130.362458 63.9212694,130.362458 C98.7496444,130.362458 126.984494,102.14243 126.984494,67.3323373 C126.984494,66.7894223 126.95849,66.252283 126.944043,65.7122558 C126.083013,99.7743963 98.2064443,127.125183 63.9212694,127.125183" opacity=".2"/>
      <path fill="#010202" d="M71.473485,93.6362801 C52.8110928,93.6362801 45.7523804,92.6573004 45.4750016,92.5879921 C44.8451205,92.5186838 44.3568183,92.0999462 43.9378607,91.5397041 C43.5882479,90.9823499 43.4466691,90.2834913 43.5882479,89.6539409 C44.7757758,84.4153887 48.060981,80.0143118 52.8833269,77.0802606 C54.0708549,76.3842897 55.538651,75.8240477 57.0757918,75.1944973 C59.8004606,74.1462093 62.8776316,72.8899964 63.4352786,71.0735414 C63.8542362,69.6065158 62.7360529,67.374211 61.6178696,65.765681 C56.4459108,57.8038903 55.538651,50.3272577 58.9625455,44.6699679 C61.5485249,40.3410871 66.2321815,37.7535774 71.473485,37.7535774 C76.6454438,37.7535774 81.3262109,40.3410871 83.981535,44.6699679 C87.3360849,50.3272577 86.4288251,57.8038903 81.2568662,65.8349893 C80.210917,67.374211 79.0204997,69.6065158 79.508802,71.0735414 C80.0693383,72.8899964 83.1436199,74.1462093 85.8711781,75.1944973 C87.4083189,75.8240477 88.8761151,76.3842897 90.063643,77.0802606 C94.8166443,80.0143118 98.2405388,84.4153887 99.3587221,89.6539409 C99.4974115,90.2834913 99.3587221,90.9823499 99.0091092,91.5397041 C98.6594963,92.0999462 98.0296153,92.5186838 97.4026237,92.5879921 C97.1223555,92.6573004 90.1329877,93.6362801 71.473485,93.6362801 L71.473485,93.6362801 Z M32.3341811,62.3435838 L50.2251134,62.3435838 L50.2251134,57.8731986 L32.3341811,57.8731986 L32.3341811,62.3435838 Z M32.3341811,53.3999255 L50.2251134,53.3999255 L50.2251134,48.9295404 L32.3341811,48.9295404 L32.3341811,53.3999255 Z" opacity=".1"/>
      <path fill="#FEFEFE" d="M70.0608757,90.8122558 C51.3984835,90.8122558 44.339771,89.8332761 44.0623923,89.7639678 C43.4325112,89.6946595 42.944209,89.2759219 42.5252514,88.7156798 C42.1756386,88.1583256 42.0340598,87.4594669 42.1756386,86.8299165 C43.3631665,81.5913644 46.6483717,77.1902875 51.4707176,74.2562362 C52.6582456,73.5602654 54.1260417,73.0000233 55.6631825,72.370473 C58.3878513,71.322185 61.4650223,70.0659721 62.0226693,68.2495171 C62.4416269,66.7824915 61.3234436,64.5501867 60.2052603,62.9416566 C55.0333015,54.9798659 54.1260417,47.5032333 57.5499362,41.8459436 C60.1359156,37.5170628 64.8195722,34.929553 70.0608757,34.929553 C75.2328345,34.929553 79.9136016,37.5170628 82.5689257,41.8459436 C85.9234756,47.5032333 85.0162157,54.9798659 79.8442569,63.0109649 C78.7983077,64.5501867 77.6078904,66.7824915 78.0961927,68.2495171 C78.656729,70.0659721 81.7310106,71.322185 84.4585688,72.370473 C85.9957096,73.0000233 87.4635057,73.5602654 88.6510337,74.2562362 C93.404035,77.1902875 96.8279295,81.5913644 97.9461127,86.8299165 C98.0848021,87.4594669 97.9461127,88.1583256 97.5964999,88.7156798 C97.246887,89.2759219 96.617006,89.6946595 95.9900144,89.7639678 C95.7097462,89.8332761 88.7203784,90.8122558 70.0608757,90.8122558 L70.0608757,90.8122558 Z M30.9215718,59.5195594 L48.8125041,59.5195594 L48.8125041,55.0491742 L30.9215718,55.0491742 L30.9215718,59.5195594 Z M30.9215718,50.5759012 L48.8125041,50.5759012 L48.8125041,46.105516 L30.9215718,46.105516 L30.9215718,50.5759012 Z"/>
    </g>
  </g>
</svg>
