<svg xmlns="http://www.w3.org/2000/svg" width="900" height="790" viewBox="0 0 900 790" xmlns:xlink="http://www.w3.org/1999/xlink">
  <defs>
    <filter id="b" width="200%" height="200%" x="-50%" y="-50%" filterUnits="objectBoundingBox">
      <feOffset dy="2" in="SourceAlpha" result="shadowOffsetOuter1"/>
      <feGaussianBlur stdDeviation="5" in="shadowOffsetOuter1" result="shadowBlurOuter1"/>
      <feColorMatrix values="0 0 0 0 0 0 0 0 0 0 0 0 0 0 0 0 0 0 0.3 0" in="shadowBlurOuter1" result="shadowMatrixOuter1"/>
      <feMerge>
        <feMergeNode in="shadowMatrixOuter1"/>
        <feMergeNode in="SourceGraphic"/>
      </feMerge>
    </filter>
    <path id="a" d="M342.901555,597.010932 C233.822433,596.99851 136.952473,527.632713 101.85704,424.398916 C56.7211951,291.617575 128.1382,146.905913 261.063612,101.815661 C287.615865,92.8095354 315.167931,88.240635 342.951297,88.240635 C452.027932,88.240635 548.895405,157.606432 583.993325,260.847683 C629.131658,393.631508 557.712166,538.34317 424.78924,583.435907 C398.236988,592.442032 370.692383,597.010932 342.926426,597.010932 L342.901555,597.010932 Z"/>
    <mask id="c" width="515.216" height="514.77" x="-3" y="-3">
      <rect width="515.216" height="514.77" x="85.318" y="85.241" fill="white"/>
      <use fill="black" xlink:href="#a"/>
    </mask>
    <polygon id="d" points="257.38 381.597 1.693 255.653 127.745 .189 257.38 .189 257.38 381.597"/>
    <polygon id="f" points="130.499 381.484 256.553 126.019 .863 .075 .863 381.484"/>
    <polygon id="h" points=".864 129.709 256.553 255.653 382.605 .189 .864 .189 .864 129.709"/>
    <path id="k" d="M342.901555,597.173936 C233.822433,597.161513 136.952473,527.795716 101.85704,424.561919 C56.7211951,291.780578 128.1382,147.068917 261.063612,101.978664 C287.615865,92.9725388 315.167931,88.4036383 342.951297,88.4036383 C452.027932,88.4036383 548.895405,157.769436 583.993325,261.010686 C629.131658,393.794511 557.712166,538.506173 424.78924,583.59891 C398.236988,592.605035 370.692383,597.173936 342.926426,597.173936 L342.901555,597.173936 Z"/>
    <filter id="j" width="200%" height="200%" x="-50%" y="-50%" filterUnits="objectBoundingBox">
      <feOffset dx="-3" dy="-11" in="SourceAlpha" result="shadowOffsetInner1"/>
      <feComposite in="shadowOffsetInner1" in2="SourceAlpha" operator="arithmetic" k2="-1" k3="1" result="shadowInnerInner1"/>
      <feColorMatrix values="0 0 0 0 0.419607843 0 0 0 0 0.454901961 0 0 0 0 0.509803922 0 0 0 0.15 0" in="shadowInnerInner1" result="shadowMatrixInner1"/>
      <feGaussianBlur stdDeviation="1.5" in="SourceAlpha" result="shadowBlurInner2"/>
      <feOffset in="shadowBlurInner2" result="shadowOffsetInner2"/>
      <feComposite in="shadowOffsetInner2" in2="SourceAlpha" operator="arithmetic" k2="-1" k3="1" result="shadowInnerInner2"/>
      <feColorMatrix values="0 0 0 0 0 0 0 0 0 0 0 0 0 0 0 0 0 0 0.2 0" in="shadowInnerInner2" result="shadowMatrixInner2"/>
      <feMerge>
        <feMergeNode in="shadowMatrixInner1"/>
        <feMergeNode in="shadowMatrixInner2"/>
      </feMerge>
    </filter>
  </defs>
  <g fill="none" fill-rule="evenodd" filter="url(#b)">
    <g fill="#6B7482" opacity=".1">
      <path d="M832.111413,299.717471 L854.677674,381.247853 C855.955125,385.870159 853.696665,390.367207 849.754293,391.457864 L825.766944,398.093454 C821.827627,399.18411 817.573533,396.486492 816.296082,391.861131 L793.72982,310.333804 C792.547108,306.053665 794.292143,301.694094 797.965578,300.310152 C801.935456,298.657365 806.171214,297.303973 810.45587,296.11861 C814.737469,294.933247 818.899881,293.967848 823.325118,293.295735 C827.01689,292.645007 830.925645,295.434277 832.111413,299.717471 M784.867123,342.286675 L799.848138,396.410116 C801.128645,401.035476 798.867129,405.532524 794.927812,406.623181 L770.940463,413.258771 C766.998091,414.346372 762.747052,411.651809 761.469601,407.026449 L746.488586,352.899953 C745.302818,348.619814 747.047853,344.263299 750.721288,342.879357 C754.694222,341.229624 758.92998,339.870123 763.214636,338.687814 C767.496235,337.502451 771.658647,336.537052 776.080828,335.864939 C779.7726,335.211156 783.684411,338.003481 784.867123,342.286675 M734.591179,373.894324 L745.018601,411.575433 C746.299108,416.200793 744.040648,420.697842 740.098276,421.785443 L716.110926,428.421033 C712.17161,429.511689 707.917515,426.817127 706.640064,422.191766 L696.209586,384.510657 C695.023818,380.227463 696.771909,375.870948 700.445344,374.487006 C704.415222,372.834219 708.654036,371.480827 712.935636,370.295464 C717.220292,369.110101 721.379647,368.144702 725.804884,367.475644 C729.496656,366.821861 733.405411,369.61113 734.591179,373.894324 M751.454753,316.862467 L725.777379,300.73175 L713.974711,322.065234 C714.43007,323.045908 714.934327,324.197665 715.267442,325.395249 C718.204357,336.017692 712.009637,346.948696 701.386624,349.887664 C690.760555,352.826631 679.822764,346.63097 676.885849,336.011582 C673.945879,325.392194 680.143655,314.458135 690.766667,311.522222 C691.793518,311.238101 692.872322,311.125064 694.116156,310.963146 L711.838495,279.691553 C713.497959,277.021431 716.077309,275.017312 718.992831,274.210776 C722.12228,273.529497 725.193663,273.972481 727.867753,275.628324 L754.761456,292.162308 L784.045031,254.007665 C783.999189,253.836581 783.90445,253.494415 783.855553,253.323331 C780.915582,242.700888 787.113358,231.769884 797.736371,228.830916 C808.359383,225.891949 819.294118,232.08761 822.234089,242.706998 C825.171004,253.326386 818.976284,264.260446 808.353271,267.196358 C806.29957,267.764599 804.148074,267.993729 802.244122,267.779875 L766.56718,314.158739 C762.890689,318.863531 756.362854,319.932802 751.454753,316.862467" transform="rotate(42 765.596 328.382)"/>
      <path d="M161.944683,607.018501 C164.003049,607.018501 166.232946,606.161141 167.776721,604.617893 L178.754675,593.643684 C182.013755,590.385716 182.013755,585.241556 178.754675,581.983588 C175.495595,578.72562 170.349679,578.72562 167.090599,581.983588 L156.112645,592.957796 C152.853565,596.215764 152.853565,601.359925 156.112645,604.617893 C157.65642,606.161141 159.886317,607.018501 161.944683,607.018501 L161.944683,607.018501 Z M52.1651428,607.018501 C54.2235092,607.018501 56.4534061,606.161141 57.9971809,604.617893 C61.256261,601.359925 61.256261,596.215764 57.9971809,592.957796 L47.0192269,581.983588 C43.7601468,578.72562 38.6142308,578.72562 35.3551507,581.983588 C32.0960706,585.241556 32.0960706,590.385716 35.3551507,593.643684 L46.3331048,604.617893 C47.8768795,606.161141 50.1067764,607.018501 52.1651428,607.018501 L52.1651428,607.018501 Z M129.696943,697.55572 C129.868474,695.498056 130.040004,694.297752 130.040004,694.297752 C131.412248,685.724152 135.357451,679.379687 143.933977,668.748423 C152.338973,658.117159 156.455706,649.543558 156.455706,637.197574 C156.455706,610.447941 134.842859,587.813636 107.054913,587.813636 C79.2669668,587.813636 57.6541198,610.447941 57.6541198,637.197574 C57.6541198,649.543558 61.7708526,658.117159 70.1758486,668.748423 C78.5808447,679.379687 82.5260469,685.724152 84.0698217,694.297752 C84.0698217,694.297752 84.0698217,695.498056 84.2413522,697.55572 L129.696943,697.55572 Z M172.922637,694.812168 C174.981003,694.812168 177.2109,693.954808 178.754675,692.41156 C182.013755,689.153592 182.013755,684.009431 178.754675,680.751463 L167.776721,669.777255 C164.517641,666.519287 159.371725,666.519287 156.112645,669.777255 C152.853565,673.035223 152.853565,678.179383 156.112645,681.437351 L167.090599,692.41156 C168.634374,693.954808 170.864271,694.812168 172.922637,694.812168 L172.922637,694.812168 Z M41.1871888,694.812168 C43.2455552,694.812168 45.4754521,693.954808 47.0192269,692.41156 L57.9971809,681.437351 C61.256261,678.179383 61.256261,673.035223 57.9971809,669.777255 C54.7381008,666.519287 49.5921849,666.519287 46.3331048,669.777255 L35.3551507,680.751463 C32.0960706,684.009431 32.0960706,689.153592 35.3551507,692.41156 C36.8989255,693.954808 39.1288224,694.812168 41.1871888,694.812168 L41.1871888,694.812168 Z M107.054913,741.452554 C118.204397,741.452554 122.32113,735.793977 125.58021,725.162713 C126.780924,721.047385 127.810107,714.531449 128.496229,708.529928 L85.442066,708.529928 C86.1281881,714.531449 87.1573713,721.047385 88.5296155,725.162713 C91.6171651,735.793977 95.9054284,741.452554 107.054913,741.452554 L107.054913,741.452554 Z" transform="rotate(-34 107.055 660.496)"/>
      <path d="M682.745937,71.2431307 C694.955533,115.366769 669.139786,160.920704 625.001088,173.126133 C575.491811,186.82003 531.815209,153.669987 522.07697,111.756808 L602.443971,113.276071 C608.875659,113.358194 613.195398,106.586524 611.709846,101.217777 L587.07501,12.2040265 C628.906652,4.35107967 671.169584,29.4223395 682.745937,71.2431307 L682.745937,71.2431307 Z M501.53596,92.0337645 C498.006917,91.9790163 495.131655,89.0568305 495.241189,85.7206112 C495.302802,45.6380758 520.269662,10.4383966 557.305778,0.197059005 C560.567831,-0.70628651 564.103719,1.62051254 565.14429,4.63850778 L589.994771,94.4153118 L501.53596,92.0337645 Z"/>
    </g>
    <g transform="translate(85.853 107.455)">
      <g transform="translate(0 .163)">
        <path fill="#7A8798" stroke="#737F90" stroke-width="7" d="M340.941496,681.177363 C194.926824,681.177363 65.2560041,588.305356 18.2759442,450.077662 C-10.9976445,363.959844 -4.94913213,271.604674 35.3036295,190.027468 C75.5538677,108.452783 145.19377,47.4205172 231.386964,18.1750496 C266.928598,6.11633658 303.81014,0 341.002057,0 C487.019252,0 616.685025,92.8720077 663.667608,231.099702 C724.092171,408.881891 628.489339,602.633114 450.554066,663.004835 C415.014955,675.063548 378.130889,681.177363 340.941496,681.177363 C340.938973,681.177363 340.944019,681.177363 340.941496,681.177363"/>
        <use fill="#FEFEFE" xlink:href="#a"/>
        <use stroke="#737F90" stroke-width="6" mask="url(#c)" xlink:href="#a"/>
      </g>
      <g transform="translate(340.655 85.882)">
        <mask id="e" fill="white">
          <use xlink:href="#d"/>
        </mask>
        <path fill="#E9507E" d="M1.88419866,0.189339191 C-92.403959,0.189339191 -183.078654,52.5084722 -227.59086,142.718134 C-290.018977,269.235035 -237.971995,422.362791 -111.344357,484.736314 C-75.0028153,502.636557 -36.4533269,511.117743 1.49812341,511.117743 C95.7888044,511.117743 186.460976,458.801131 230.973182,368.591469 C293.401299,242.072047 241.356841,88.9468122 114.726679,26.573289 C78.3851373,8.67304595 39.8356489,0.189339191 1.88419866,0.189339191 M1.88419866,80.2009047 C28.8337657,80.2009047 54.8850139,86.3046354 79.31626,98.3381369 C166.137773,141.10207 201.946884,246.46643 159.145521,333.212017 C144.368679,363.158367 121.580146,388.102734 93.2427264,405.349996 C65.5563359,422.198915 33.8325572,431.106177 1.49812341,431.106177 C-25.4489203,431.106177 -51.5001685,425.004968 -75.933938,412.971466 C-117.990907,392.255086 -149.457303,356.414261 -164.534425,312.051912 C-179.611547,267.692085 -176.497711,220.117777 -155.763199,178.097586 C-140.986357,148.151236 -118.197824,123.204348 -89.8578809,105.957085 C-62.1740139,89.1081665 -30.4477117,80.2009047 1.88419866,80.2009047" mask="url(#e)"/>
      </g>
      <g transform="translate(85.795 215.516)">
        <mask id="g" fill="white">
          <use xlink:href="#f"/>
        </mask>
        <path fill="#9B5CA4" d="M256.744337,-129.444864 C162.456179,-129.444864 71.7814841,-77.1257305 27.2692778,13.0839312 C-35.1588392,139.600832 16.888143,292.728588 143.515781,355.102111 C179.857323,373.002354 218.406811,381.48354 256.358262,381.48354 C350.648943,381.48354 441.321114,329.166928 485.833321,238.957266 C548.261438,112.437844 496.216979,-40.6873906 369.586817,-103.060914 C333.245275,-120.961157 294.695787,-129.444864 256.744337,-129.444864 M256.744337,-49.4332981 C283.693904,-49.4332981 309.745152,-43.3295673 334.176398,-31.2960658 C420.997911,11.467867 456.807022,116.832228 414.005659,203.575293 C399.228818,233.524164 376.440284,258.468531 348.102864,275.715794 C320.416474,292.564713 288.692695,301.471974 256.358262,301.471974 C229.411218,301.471974 203.357446,295.370765 178.9262,283.337263 C92.1072109,240.570809 56.2955765,135.20897 99.0969395,48.4633835 C113.873781,18.5170332 136.664838,-6.4298549 165.002257,-23.6771173 C192.686124,-40.5260363 224.412426,-49.4332981 256.744337,-49.4332981" mask="url(#g)"/>
      </g>
      <path fill="#FEFEFE" fill-opacity=".1" d="M243.721236,51.3645058 C413.516125,-6.24402308 597.482248,81.0057956 661.23261,246.76961 C659.970926,242.518933 658.699148,238.268255 657.260829,234.032705 C598.161034,60.153273 409.170886,-32.9380757 235.136739,26.110036 C61.1051153,85.1581478 -32.0651904,273.983022 27.0320812,447.862454 C28.4729242,452.098004 30.0525523,456.242793 31.6447974,460.382539 C-18.8200333,290.110889 73.9263466,108.973035 243.721236,51.3645058"/>
      <g transform="translate(85.795 85.882)">
        <mask id="i" fill="white">
          <use xlink:href="#h"/>
        </mask>
        <path fill="#37BEC0" d="M256.744841,0.189087075 C162.456684,0.189087075 71.7819887,52.5082201 27.2697824,142.717882 C-35.1583346,269.234783 16.8886477,422.362539 143.516286,484.736062 C179.857827,502.636305 218.407316,511.117491 256.358766,511.117491 C350.649447,511.117491 441.321619,458.800879 485.833825,368.591217 C548.261942,242.071795 496.217483,88.9465601 369.587322,26.5730369 C333.24578,8.67279384 294.696292,0.189087075 256.744841,0.189087075 M256.744841,80.2006525 C283.694409,80.2006525 309.745657,86.3043833 334.176903,98.3378848 C420.998415,141.101818 456.807526,246.466178 414.006163,333.209243 C399.229322,363.158115 376.440788,388.102482 348.100846,405.349744 C320.416979,422.198663 288.6932,431.105925 256.358766,431.105925 C229.411722,431.105925 203.360474,425.004715 178.926705,412.971214 C136.869735,392.254834 105.40334,356.414009 90.326218,312.05166 C75.249096,267.691833 78.3629317,220.117525 99.0974441,178.097334 C113.874285,148.150984 136.662819,123.204096 165.002762,105.956833 C192.686629,89.1079144 224.412931,80.2006525 256.744841,80.2006525" mask="url(#i)"/>
      </g>
      <g transform="translate(85.795 84.416)">
        <path fill="#6B7483" fill-opacity=".05" d="M369.7955,27.6519558 C311.031313,-1.42207281 241.149167,-8.04264159 174.153755,14.688146 C40.4707806,60.0463535 -31.0994976,205.093788 14.2958874,338.659856 C38.7624606,410.644044 92.209912,464.601932 157.219434,491.956529 C183.116757,502.852987 281.782957,408.753174 333.196574,302.64255 C392.200481,180.86291 401.052455,43.1167574 369.7955,27.6519558"/>
        <path fill="#6B7483" fill-opacity=".15" d="M180.284781,32.7295741 C310.939714,-11.5999998 452.513259,55.7376894 501.244536,183.502565 C500.336124,180.467087 499.435282,177.429088 498.408271,174.406216 C453.010363,40.8376279 307.835972,-30.6700616 174.152998,14.688146 C40.4700236,60.0463535 -31.1002546,205.091267 14.2976537,338.659856 C15.3246644,341.685249 16.4627032,344.640049 17.5906486,347.602414 C-21.6275323,216.60793 49.6298483,77.0591479 180.284781,32.7295741"/>
        <g transform="translate(224.58 67.017)">
          <path fill="#010202" d="M66.1980283,208.802554 L1.07243127,176.723301 L120.251088,2.70016343 C123.145391,-1.22024192 129.325118,1.75220689 128.065958,6.45669332 L66.1980283,208.802554 Z"/>
          <path stroke="#010202" stroke-width="2.116" d="M66.1980283,208.802554 L1.07243127,176.723301 L120.251088,2.70016343 C123.145391,-1.22024192 129.325118,1.75220689 128.065958,6.45669332 L66.1980283,208.802554 L66.1980283,208.802554 Z"/>
        </g>
        <path fill="#59677C" stroke="#4D596F" stroke-width="3" d="M290.777754,270.484889 L225.652157,238.405636 L344.830814,64.3824983 C347.725116,60.462093 353.904844,63.4345418 352.645683,68.1390282 L290.777754,270.484889 Z"/>
        <path fill="#FEFEFE" fill-opacity=".1" d="M244.97863,243.720496 L229.502816,240.304323 L335.411082,85.6563069 C337.97987,82.1745836 343.473242,84.8142392 340.636976,83.9444386 L244.97863,243.720496 Z"/>
        <path fill="#010202" fill-opacity=".1" d="M57.0109512,0.188719207 C50.853934,0.188719207 44.7499075,1.19970477 38.8704608,3.19646428 C24.6083865,8.03457224 13.0841662,18.1343432 6.42247548,31.6351604 C-0.239215258,45.1334563 -1.24099224,60.4167343 3.60387375,74.6688574 C11.3783697,97.5433512 32.8370886,112.912349 57.0008577,112.912349 C63.1578749,112.912349 69.2619014,111.901363 75.1413482,109.904604 C89.4059458,105.066496 100.930166,94.9667247 107.589333,81.4659075 C114.251024,67.9676115 115.252801,52.6843335 110.407935,38.4322104 C102.633439,15.5577167 81.1747203,0.188719207 57.0109512,0.188719207 M57.0109512,5.52349588 C78.2778942,5.52349588 98.1342747,18.9083396 105.35363,40.1465999 C114.42009,66.8255256 100.125212,95.7961866 73.4229348,104.854718 C67.9800306,106.702729 62.4462852,107.577572 57.0008577,107.577572 C35.7339147,107.577572 15.8775343,94.1927282 8.66070263,72.954468 C-0.408280894,46.2755423 13.8865971,17.3048812 40.5888742,8.24634976 C46.0317783,6.39833875 51.5655237,5.52349588 57.0109512,5.52349588" transform="translate(199.346 205.316)"/>
        <path fill="#59677C" stroke="#4D596F" stroke-width="3" d="M256.349177,310.226706 C233.328494,310.226706 212.881645,295.583803 205.478084,273.793408 C200.862845,260.216956 201.816678,245.657252 208.160424,232.794288 C214.509217,219.936367 225.48839,210.313096 239.076725,205.701892 C244.678602,203.800937 250.494964,202.837853 256.359271,202.837853 C279.377431,202.837853 299.821756,217.478235 307.22784,239.271151 C316.75103,267.298898 301.681478,297.845284 273.629199,307.362667 C268.027323,309.263623 262.213484,310.226706 256.351701,310.226706 L256.349177,310.226706 Z"/>
        <path fill="#FEFEFE" fill-opacity=".1" d="M251.178797,241.312283 C272.054618,234.230342 294.290534,241.45851 307.348962,257.67966 C307.482701,251.870905 306.677746,245.948698 304.699426,240.127337 C295.630442,213.450933 266.634424,199.168556 239.93467,208.227087 C213.232393,217.28814 198.937515,246.258801 208.003976,272.935205 C209.982296,278.756566 212.954823,283.942594 216.598566,288.470599 C217.072959,267.655894 230.302976,248.394224 251.178797,241.312283"/>
      </g>
      <use fill="black" filter="url(#j)" xlink:href="#k"/>
    </g>
  </g>
</svg>
