<svg xmlns="http://www.w3.org/2000/svg" width="870" height="921" viewBox="0 0 870 921">
  <defs>
    <filter id="a" width="200%" height="200%" x="-50%" y="-50%" filterUnits="objectBoundingBox">
      <feOffset dy="2" in="SourceAlpha" result="shadowOffsetOuter1"/>
      <feGaussianBlur stdDeviation="6.5" in="shadowOffsetOuter1" result="shadowBlurOuter1"/>
      <feColorMatrix values="0 0 0 0 0 0 0 0 0 0 0 0 0 0 0 0 0 0 0.3 0" in="shadowBlurOuter1" result="shadowMatrixOuter1"/>
      <feMerge>
        <feMergeNode in="shadowMatrixOuter1"/>
        <feMergeNode in="SourceGraphic"/>
      </feMerge>
    </filter>
    <filter id="b" width="200%" height="200%" x="-50%" y="-50%" filterUnits="objectBoundingBox">
      <feOffset dy="2" in="SourceAlpha" result="shadowOffsetOuter1"/>
      <feGaussianBlur stdDeviation="6.5" in="shadowOffsetOuter1" result="shadowBlurOuter1"/>
      <feColorMatrix values="0 0 0 0 0 0 0 0 0 0 0 0 0 0 0 0 0 0 0.3 0" in="shadowBlurOuter1" result="shadowMatrixOuter1"/>
      <feMerge>
        <feMergeNode in="shadowMatrixOuter1"/>
        <feMergeNode in="SourceGraphic"/>
      </feMerge>
    </filter>
    <filter id="c" width="200%" height="200%" x="-50%" y="-50%" filterUnits="objectBoundingBox">
      <feOffset in="SourceAlpha" result="shadowOffsetOuter1"/>
      <feGaussianBlur stdDeviation="9.5" in="shadowOffsetOuter1" result="shadowBlurOuter1"/>
      <feColorMatrix values="0 0 0 0 0 0 0 0 0 0 0 0 0 0 0 0 0 0 0.2 0" in="shadowBlurOuter1" result="shadowMatrixOuter1"/>
      <feMerge>
        <feMergeNode in="shadowMatrixOuter1"/>
        <feMergeNode in="SourceGraphic"/>
      </feMerge>
    </filter>
    <filter id="d" width="200%" height="200%" x="-50%" y="-50%" filterUnits="objectBoundingBox">
      <feGaussianBlur stdDeviation="3.437" in="SourceGraphic"/>
    </filter>
  </defs>
  <g fill="none" fill-rule="evenodd" transform="translate(0 21)">
    <g fill="#000000" opacity=".1" transform="translate(87.126 144.339)">
      <path d="M60.6062994 100.195489C59.8672312 100.168426 59.2663627 99.9068118 58.8006896 99.4166613 58.3410252 98.9204966 58.1217083 98.3010426 58.1487473 97.5552921L58.2388776 95.0053065C58.2659167 94.262563 58.5272945 93.6581443 59.023011 93.1980643 59.5157231 92.7349773 60.1346177 92.5184691 60.8736859 92.5455326L83.8118404 93.3484172C84.553913 93.3754808 85.1547815 93.6370949 85.6174502 94.1302524 86.0801189 94.6264171 86.2994359 95.2458711 86.2723968 95.9886146L86.1822666 98.5386002C86.1552275 99.2843507 85.8938497 99.8887694 85.3981332 100.348849 84.905421 100.808929 84.2865265 101.025438 83.5444539 101.001381L60.6062994 100.195489 60.6062994 100.195489zM55.8894818 112.001201C60.0865482 116.511789 65.2690389 118.875337 71.4279409 119.091845 77.5868429 119.305346 82.9195507 117.311666 87.4260643 113.107799 91.932578 108.903931 94.2909868 103.719762 94.5072994 97.5552921 94.7206078 91.3908222 92.7317331 86.0563004 88.5316623 81.5457127 84.3285873 77.035125 79.1521053 74.671577 72.9901989 74.4550688 66.831297 74.2385606 61.4985891 76.2322403 56.9950798 80.4391152 52.4885662 84.6429829 50.1301574 89.8271518 49.9138447 95.9916217 49.6975321 102.153084 51.6864068 107.490613 55.8894818 112.001201L55.8894818 112.001201zM50.4636394 73.4236477C56.8929322 67.4275731 64.5179533 64.5798887 73.3266853 64.8896157 82.141426 65.1993428 89.5411214 68.5702553 95.5377889 75.0083675 101.531452 81.4434727 104.370556 89.0723801 104.064113 97.8920826 103.751661 106.711785 100.383793 114.124184 93.9575048 120.120259 87.5252076 126.119341 79.9061952 128.964018 71.0914545 128.654291 66.4227064 128.49191 62.0453795 127.382305 57.9744955 125.32247L38.2840352 138.758007C36.5415166 139.972859 34.6397678 140.384826 32.5817932 139.990901 30.5208143 139.599984 28.886452 138.535485 27.6696934 136.785377 26.7113081 135.369053 26.2576524 133.826432 26.3177393 132.148493 26.3748218 130.476568 26.9336295 128.967025 27.9941623 127.619863L42.7575011 108.985121C40.9909477 104.775239 40.194797 100.330807 40.3600358 95.6548311 40.6664787 86.8351286 44.0343466 79.4227294 50.4636394 73.4236477L50.4636394 73.4236477zM698.724125 486.643401C708.887816 479.149811 714.914527 469.151341 716.804258 456.650999 718.690985 444.153664 715.893942 432.820061 708.404117 422.644175 700.911287 412.474303 690.924852 406.442144 678.435801 404.547697 665.949754 402.656257 654.623383 405.461843 644.462697 412.955433 634.299006 420.455036 628.269291 430.450499 626.37956 442.950841 624.489828 455.448176 627.29288 466.784786 634.782705 476.951651 642.272531 487.127537 652.258965 493.159696 664.745013 495.051136 677.237068 496.942576 688.557431 494.139997 698.724125 486.643401M618.97686 488.613024C608.290414 474.097953 604.297643 457.898929 607.004555 440.012945 609.708464 422.129968 618.3129 407.837419 632.814861 397.138305 647.316822 386.445205 663.501215 382.448824 681.371044 385.155177 699.240872 387.861529 713.517508 396.476752 724.203954 410.988816 734.8904 425.500881 738.880166 441.705919 736.176258 459.585888 734.740183 469.067144 731.453432 477.715444 726.306993 485.533796L748.992783 528.811382C751.056766 532.654403 751.447331 536.62372 750.167481 540.725348 748.884627 544.832989 746.327931 547.915224 742.491386 549.978066 739.381892 551.604885 736.131193 552.155177 732.742295 551.64097 729.350392 551.126763 726.41515 549.638269 723.92455 547.166467L689.494785 512.687534C680.511802 515.294654 671.285466 515.88103 661.815779 514.443656 643.948954 511.737304 629.66631 503.125088 618.97686 488.613024M210.802992 48.5922609L210.802992 52.6187122C210.802992 53.7944721 210.427449 54.7597378 209.673359 55.5145095 208.919269 56.2692812 207.957879 56.6481706 206.780177 56.6481706L194.711733 56.6481706 194.711733 68.7275245C194.711733 69.9032844 194.333186 70.8685501 193.579096 71.6233218 192.825006 72.3780935 191.860612 72.7569829 190.688919 72.7569829L186.6631 72.7569829C185.488402 72.7569829 184.527013 72.3780935 183.772923 71.6233218 183.015828 70.8685501 182.640286 69.9032844 182.640286 68.7275245L182.640286 56.6481706 170.568838 56.6481706C169.397144 56.6481706 168.429746 56.2692812 167.67866 55.5145095 166.92457 54.7597378 166.546023 53.7944721 166.546023 52.6187122L166.546023 48.5922609C166.546023 47.4195081 166.92457 46.4542423 167.67866 45.6994706 168.429746 44.9446989 169.397144 44.5658096 170.568838 44.5658096L182.640286 44.5658096 182.640286 32.4834486C182.640286 31.3106958 183.015828 30.34543 183.772923 29.5906583 184.527013 28.8358866 185.488402 28.4569973 186.6631 28.4569973L190.688919 28.4569973C191.860612 28.4569973 192.825006 28.8358866 193.579096 29.5906583 194.333186 30.34543 194.711733 31.3106958 194.711733 32.4834486L194.711733 44.5658096 206.780177 44.5658096C207.957879 44.5658096 208.919269 44.9446989 209.673359 45.6994706 210.427449 46.4542423 210.802992 47.4195081 210.802992 48.5922609M213.569991 75.5264837C220.443926 68.6463339 223.880894 60.3408384 223.880894 50.6069901 223.880894 40.8761488 220.443926 32.5676462 213.569991 25.6874964 206.69906 18.8103536 198.401066 15.3702787 188.676009 15.3702787 178.950953 15.3702787 170.655964 18.8103536 163.782028 25.6874964 156.908093 32.5676462 153.468121 40.8761488 153.468121 50.6069901 153.468121 60.3408384 156.908093 68.6463339 163.782028 75.5264837 170.655964 82.4066335 178.950953 85.8437014 188.676009 85.8437014 198.401066 85.8437014 206.69906 82.4066335 213.569991 75.5264837M153.092578 86.2225908C143.2834 76.4075519 138.383317 64.535685 138.383317 50.6069901 138.383317 36.6813022 143.2834 24.8064283 153.092578 14.9913894 162.901756 5.17635048 174.7629.26582397 188.676009.26582397 202.592124.26582397 214.450263 5.17635048 224.259441 14.9913894 234.065615 24.8064283 238.968702 36.6813022 238.968702 50.6069901 238.968702 57.9893186 237.460522 64.9536661 234.441158 71.4970254L256.697326 101.826217C258.707232 104.514528 259.464326 107.488508 258.959596 110.763195 258.457871 114.034875 256.86557 116.678079 254.182692 118.689801 252.004544 120.286549 249.592057 121.080413 246.95124 121.080413 244.310423 121.080413 241.906949 120.286549 239.722792 118.689801L209.547176 96.416519C203.006723 99.4356057 196.05167 100.945149 188.676009 100.945149 174.7629 100.945149 162.901756 96.0376296 153.092578 86.2225908M97.858343 291.569503C110.638816 298.536857 124.026166 299.953182 138.03241 295.818476 152.03565 291.686778 162.517801 283.230929 169.481867 270.438903 176.439924 257.643869 177.857973 244.241409 173.730007 230.222503 172.885787 227.356776 171.837271 224.7256 170.58446 222.344009L128.827105 234.666935 116.515309 192.865815C113.832432 193.10638 111.062428 193.650657 108.190277 194.495641 94.1840322 198.627339 83.7078901 207.092209 76.7468287 219.881228 69.782763 232.670248 68.370722 246.078722 72.4986885 260.091614 76.626655 274.110521 85.0778703 284.602148 97.858343 291.569503M233.146887 192.871829C238.837112 197.250106 242.691683 202.85827 244.704592 209.696321 246.720506 216.534372 246.546254 223.42655 244.187845 230.360827 242.938039 234.218883 241.372777 238.395687 239.492058 242.897254 237.608336 247.401828 233.843894 254.705973 228.204744 264.812696 222.559584 274.91942 216.451756 284.066892 209.875251 292.246091 203.298745 300.428297 194.607182 308.589454 183.800563 316.732568 172.999952 324.875682 161.520359 330.739446 149.373803 334.32386 137.227246 337.908274 124.3957 339.171238 110.879163 338.112754 97.3626265 337.054269 85.750843 334.973385 76.0317952 331.873108 66.3187561 328.775837 56.1280266 324.391546 45.4776327 318.726248 34.8242344 313.057943 27.758021 308.9924 24.2819968 306.532626 20.808977 304.069845 17.0835924 301.405591 13.123869 298.53385 7.55081383 293.942072 3.75933368 288.21964 1.74642426 281.381589-.269489516 274.54053-.158328846 267.765628 2.08291061 261.044852 3.57006011 256.750772 5.19540937 252.465714 6.95895837 248.180656 8.72250738 243.898605 12.4719267 236.549354 18.2102208 226.138917 23.9455105 215.731488 30.0593473 206.442684 36.5517313 198.287541 43.0441153 190.135406 51.6815998 181.944179 62.4611805 173.713859 73.2407611 165.48354 84.7053318 159.577678 96.8518883 155.993264 109.001449 152.40885 121.790935 151.160921 135.22335 152.243462 148.65276 153.335024 160.399739 155.551226 170.470295 158.916125 180.537847 162.275009 190.638446 166.686364 200.772093 172.138161 210.90574 177.592965 218.10114 181.802847 222.370311 184.761792 226.633473 187.729759 230.226666 190.430098 233.146887 192.871829M627.394427 592.154768C628.466977 589.234914 630.404778 587.129973 633.20182 585.836938L652.360512 576.984158C655.154551 575.69413 658.008676 575.585876 660.925892 576.662403 663.846113 577.73893 665.946149 579.675475 667.238016 582.469033 668.526879 585.268604 668.635035 588.12531 667.559481 591.045163 666.483926 593.968024 664.552134 596.069958 661.758095 597.359986L642.599404 606.215774C639.802361 607.505802 636.948235 607.614056 634.028015 606.537529 631.110798 605.461002 629.007758 603.527463 627.718896 600.730899 626.430033 597.937342 626.318872 595.077629 627.394427 592.154768M600.457492 718.015201L591.615713 698.839189C590.323845 696.042625 590.212685 693.185919 591.288239 690.263058 592.363794 687.343204 594.29859 685.238263 597.095633 683.945228 599.889672 682.658207 602.743797 682.546946 605.661013 683.623473 608.57823 684.696993 610.684274 686.636546 611.973137 689.43311L620.817921 708.609122C622.106784 711.405686 622.211936 714.262392 621.139386 717.185253 620.066835 720.105107 618.132039 722.210048 615.334996 723.503083 612.540958 724.793111 609.686832 724.901365 606.769616 723.824838 603.852399 722.751318 601.74936 720.814772 600.457492 718.015201M484.862413 722.898664C485.174865 717.543093 486.538836 710.004397 488.957332 700.285584L543.873707 720.529102C539.35818 729.646503 535.443522 736.243989 532.120719 740.318554 527.38888 746.867927 522.672062 751.13795 517.961253 753.134637 513.250445 755.12531 507.53919 754.887752 500.833497 752.412943 494.127805 749.941141 489.657343 746.431904 487.440139 741.882224 485.222934 737.332545 484.363692 731.005694 484.862413 722.898664M493.677154 681.383214C494.737686 675.802114 494.809791 670.196957 493.905484 664.555715 492.998172 658.917481 491.015306 651.472004 487.962894 642.219285 485.054691 633.026707 483.438355 624.922684 483.11689 617.922252 482.792421 610.927834 484.021197 603.626696 486.81824 596.036881 493.154398 578.81245 504.736138 566.248959 521.557451 558.358438 538.37576 550.470923 555.539569 549.743215 573.042868 556.19937 590.546167 562.64951 603.14037 574.343961 610.825478 591.267686 618.507582 608.194418 619.186563 625.27451 612.844396 642.498941 610.050358 650.091764 606.261882 656.448686 601.481973 661.560685 596.69906 666.681706 590.221698 671.796712 582.040873 676.908711 573.721849 681.96057 567.388695 686.341854 563.044416 690.04655 558.700137 693.751246 555.121965 698.069382 552.312905 703.000958L550.564378 707.081536 492.583573 685.704358C493.085298 683.900122 493.448824 682.456734 493.677154 681.383214M487.692503 549.105719L478.847719 529.9267C477.558856 527.130135 477.447696 524.27343 478.52325 521.350569 479.598805 518.430715 481.533601 516.328781 484.32764 515.035746 487.124683 513.748725 489.978808 513.640471 492.890016 514.713991 495.810237 515.787511 497.916281 517.727064 499.205144 520.520621L508.046923 539.69964C509.341795 542.499211 509.446947 545.355917 508.374397 548.272764 507.295838 551.198632 505.36705 553.300565 502.567003 554.590593 499.772964 555.883629 496.921843 555.991883 494.001623 554.912349 491.084406 553.838829 488.984371 551.90529 487.692503 549.105719M432.103155 647.490658C433.17871 644.570805 435.113507 642.465864 437.907545 641.175835L457.069241 632.320048C459.86328 631.033027 462.717405 630.924773 465.631617 631.998293 468.554842 633.07482 470.654878 635.011366 471.94374 637.80793 473.235608 640.604494 473.343764 643.4612 472.268209 646.381054 471.192655 649.303915 469.260863 651.408856 466.46382 652.698884L447.305128 661.551664C444.51109 662.844699 441.65396 662.949946 438.733739 661.876426 435.819527 660.799899 433.716487 658.866361 432.427624 656.066789 431.138762 653.270225 431.027601 650.410512 432.103155 647.490658"/>
    </g>
    <g transform="translate(477.097 105.618)">
      <g filter="url(#a)" transform="translate(212.043 .152)">
        <path fill="#F3F9FD" d="M143.547545,373.854683 C138.80394,373.854683 134.077009,372.654336 129.876681,370.384537 L128.840147,369.823353 C114.270304,361.945897 103.401974,348.24773 99.0265752,332.243558 L25.8105467,64.4755071 C20.7390299,45.9299959 11.0295069,38.6568914 5.81348661,34.7494951 C4.77000467,33.9682943 3.48336781,33.0046741 3.14434039,32.5521068 C2.90674331,31.5035432 3.07208865,30.4215593 3.61814511,29.4885744 C4.16559103,28.551412 5.03400143,27.8732573 6.07053609,27.5710816 L19.7150004,25.3848335 C42.6035197,21.7169497 65.2377685,15.7876219 86.9897123,7.76255951 L99.9561217,2.97787888 C100.271528,2.9040756 100.589714,2.8664777 100.909289,2.8664777 C102.783666,2.8664777 104.430172,4.11695593 104.94705,5.91887 C104.909535,6.46334326 104.317626,7.97422175 103.838264,9.19684968 C101.49425,15.1735229 97.1327458,26.2969306 102.162579,44.6934428 L175.172968,311.708143 C179.673418,328.16906 177.051513,345.89438 167.98253,360.338935 C162.669247,368.801247 153.53357,373.854683 143.548935,373.854683 L143.547545,373.854683 Z"/>
        <path fill="#F8FAFB" d="M100.909567,0.0822837391 C100.324606,0.0822837391 99.7313076,0.15608702 99.1380097,0.31204867 L86.0284862,5.14825234 C64.3960357,13.1301468 42.0396782,18.9870638 19.27621,22.6354524 L5.48168436,24.8453733 C1.74821435,25.8229186 -0.486031935,29.6481566 0.489366631,33.3898437 C1.4647652,37.1301383 16.4194871,40.6671257 23.1305627,65.2115904 L96.3465913,332.979641 C100.944303,349.797042 112.210018,363.996514 127.52322,372.275015 L128.558365,372.834806 C133.321422,375.410958 138.46797,376.639156 143.547823,376.639156 C154.09102,376.639156 164.353547,371.348992 170.333768,361.822799 L170.335158,361.822799 C179.84321,346.679201 182.570713,328.229774 177.852118,310.972338 L104.841729,43.957638 C98.1959581,19.6526858 108.639114,9.05564869 107.663716,5.3139616 C106.842547,2.1668783 104.010834,0.0822837391 100.909567,0.0822837391 M100.909567,5.65234268 C101.281941,5.65234268 101.718231,5.81944445 102.010017,6.1745357 C101.818272,6.73432663 101.513981,7.51134985 101.251373,8.17836441 C98.7906455,14.4558208 94.206828,26.140412 99.4812055,45.4295261 L172.491594,312.444226 C176.787794,328.153185 174.286772,345.070847 165.630458,358.856743 C160.828495,366.504434 152.573733,371.069097 143.547823,371.069097 C139.262739,371.069097 134.991549,369.984328 131.196943,367.933154 L130.161798,367.373363 C116.254726,359.853783 105.882432,346.782247 101.707115,331.507753 L28.4910864,63.7397023 C23.168078,44.2723463 12.9611295,36.6260479 7.47833357,32.519522 C6.93783493,32.1143002 6.3139689,31.6478077 5.85822712,31.2801839 C5.8971319,31.1270072 5.95687854,30.9975034 6.01523572,30.8958498 C6.13611844,30.6911501 6.35148423,30.4307499 6.72385861,30.2873209 L20.1529571,28.1344931 C43.2193269,24.438759 66.0286472,18.4634782 87.9487153,10.3757527 L100.710875,5.66626783 C100.777569,5.65652022 100.844262,5.65234268 100.909567,5.65234268"/>
        <path fill="#DDE3EF" d="M34.919056,50.8601193 C52.9556821,48.3538919 69.9030849,44.0208898 86.758987,37.6082493 C88.00232,37.1352371 88.6271348,35.7429531 88.1545498,34.4984961 C87.6819648,33.254039 86.2909384,32.6286594 85.0476053,33.1016716 C68.5309255,39.3852587 51.9354622,43.6282792 34.2567105,46.0847792 C32.9392278,46.2678463 32.0194682,47.4852477 32.2023698,48.8039214 C32.3852715,50.1225952 33.6015733,51.0431863 34.919056,50.8601193 L34.919056,50.8601193 Z"/>
        <path fill="#E94F7E" d="M143.548935,373.158426 C138.917876,373.158426 134.306269,371.985929 130.207372,369.770438 L129.169448,369.210647 C114.76634,361.423704 104.023061,347.882891 99.6962933,332.058354 L56.5230964,174.161108 C63.7427131,168.454582 72.6796983,165.335349 81.9209745,165.335349 C85.9976403,165.335349 90.043738,165.943878 93.9481112,167.144226 C97.5259621,168.244313 101.234422,168.802711 104.969281,168.802711 C114.785793,168.802711 124.07431,165.033174 131.127192,158.188964 L132.191516,157.155718 L174.50186,311.893348 C178.9509,328.164882 176.359564,345.688288 167.3934,359.967134 C162.209337,368.226139 153.294584,373.158426 143.548935,373.158426 C143.547545,373.158426 143.548935,373.158426 143.548935,373.158426"/>
        <path fill="#F25F8C" d="M133.991001,150.561743 L128.709677,155.688982 C122.251482,161.956691 113.702155,165.321006 104.96942,165.321006 C101.626388,165.321006 98.2569552,164.828056 94.9667219,163.815698 L94.9667219,163.815698 C90.6802481,162.498379 86.2840073,161.853645 81.9197239,161.853645 C71.2695387,161.853645 60.8083196,165.68863 52.5813468,172.919959 L96.3464523,332.979781 C100.945554,349.797181 112.209879,363.996654 127.523081,372.275154 L128.558226,372.834945 C133.321283,375.411097 138.467831,376.639295 143.547684,376.639295 C154.090881,376.639295 164.353408,371.349132 170.335019,361.822938 L170.335019,361.822938 C179.843071,346.67934 182.570574,328.229913 177.851979,310.972478 L133.991001,150.561743 Z M130.327004,163.50656 L171.152019,312.813382 C175.345399,328.146362 172.904124,344.658802 164.454838,358.114671 C159.908536,365.354356 152.092842,369.676721 143.547684,369.676721 C139.49186,369.676721 135.449931,368.650438 131.856796,366.70788 L130.821651,366.148089 C117.246659,358.808144 107.123078,346.048531 103.046412,331.140269 L60.5012497,175.537887 C66.7621414,171.179316 74.2263025,168.816218 81.9197239,168.816218 C85.6518045,168.816218 89.3560959,169.374617 92.928389,170.473311 C96.8369305,171.673659 100.888586,172.28358 104.96942,172.28358 C114.259327,172.28358 123.117114,169.19359 130.327004,163.50656 L130.327004,163.50656 Z"/>
        <path fill="#DD4775" fill-opacity=".3" d="M177.852257,310.972617 L158.40959,239.863852 C158.40959,239.863852 137.259281,264.600484 121.020701,263.170371 C106.727361,261.91293 90.1469746,257.695003 78.54918,267.888211 L52.5816247,172.918706 L96.3467302,332.97992 C100.944442,349.79732 112.210157,363.996793 127.523358,372.275293 L128.558504,372.835084 C143.204766,380.754315 161.470563,375.940392 170.333907,361.823077 L170.333907,361.823077 C179.843348,346.678087 182.570852,328.22866 177.852257,310.972617"/>
        <path fill="#FFFFFF" d="M123.905983,220.723084 C129.080515,219.184206 132.031279,213.733821 130.497842,208.549334 C128.962446,203.363759 123.522449,200.405641 118.347029,201.943142 C113.170655,203.482081 110.219745,208.932734 111.75488,214.117428 C113.290093,219.304024 118.730357,222.262288 123.905983,220.723084 L123.905983,220.723084 Z M123.063822,217.886166 C119.455326,218.959313 115.661245,216.896198 114.589867,213.276631 C113.518352,209.657747 115.577794,205.853731 119.188655,204.78022 C122.797068,203.708241 126.591416,205.771502 127.66277,209.38984 C128.733045,213.008397 126.673458,216.81268 123.063822,217.886166 L123.063822,217.886166 Z" opacity=".3"/>
        <path fill="#FFFFFF" d="M141.806139 294.697322C143.490161 294.19741 144.450275 292.423346 143.95146 290.735618 143.451256 289.04789 141.681088 288.085662 139.997067 288.585575 138.314435 289.086881 137.352931 290.860944 137.853135 292.54728 138.35195 294.235008 140.122118 295.197235 141.806139 294.697322M106.076539 266.969569C109.636327 265.911258 111.666323 262.162608 110.610336 258.594985 109.554349 255.027363 105.812543 252.992899 102.254144 254.05121 98.6943562 255.109521 96.66436 258.858171 97.720347 262.425793 98.7763341 265.993416 102.516751 268.02788 106.076539 266.969569" opacity=".2"/>
        <path fill="#FFFFFF" d="M135.329412,337.728895 C139.67201,336.437857 142.147427,331.865797 140.859769,327.515482 C139.571867,323.164339 135.006999,320.68221 130.664961,321.973586 C126.322513,323.264579 123.847097,327.836638 125.134754,332.186953 C126.422733,336.538351 130.986332,339.020076 135.329412,337.728895 L135.329412,337.728895 Z M134.487507,334.8919 C131.711479,335.717202 128.793915,334.130606 127.96978,331.346291 C127.145602,328.561828 128.729572,325.636259 131.507017,324.810535 C134.282079,323.985198 137.200718,325.572196 138.024744,328.356145 C138.848921,331.140607 137.264952,334.066176 134.487507,334.8919 L134.487507,334.8919 Z" opacity=".3"/>
        <path fill="#E94F7E" d="M65.1999753 95.9193253C61.0982993 95.9193253 57.7219196 99.1374269 57.51628 103.245345 57.4134602 105.303482 58.1151358 107.278068 59.4948663 108.805657 60.8732073 110.334638 62.7628683 111.23281 64.8164852 111.335856 64.9470942 111.342819 65.0777031 111.345604 65.2069226 111.345604 69.3085986 111.345604 72.6835888 108.128895 72.8906178 104.019584 72.9934376 101.962839 72.2903725 99.9882534 70.9120315 98.4592722 69.5336906 96.9316835 67.6426401 96.032119 65.5890231 95.9290729 65.4598037 95.9221104 65.3291947 95.9193253 65.1999753 95.9193253M65.1999753 99.7501334C65.2652797 99.7501334 65.3319737 99.7515259 65.3972781 99.7557034 67.5342624 99.8629271 69.1793791 101.685729 69.0723909 103.827417 68.9681817 105.902263 67.2563711 107.514796 65.2069226 107.514796 65.1416181 107.514796 65.0749242 107.513403 65.0082303 107.510618 62.8726354 107.402002 61.2275187 105.5792 61.3345069 103.437512 61.4387161 101.362665 63.1491373 99.7501334 65.1999753 99.7501334M98.2359744 140.664444C98.3902041 137.585594 96.0253489 134.964881 92.9546497 134.810312 89.882561 134.655743 87.2676036 137.025803 87.1133739 140.103261 86.9591443 143.182111 89.3239995 145.802824 92.3946987 145.957393 95.4667873 146.111962 98.0817447 143.743294 98.2359744 140.664444M93.7838774 67.1301972C94.0284218 62.2536106 90.2824467 58.1011317 85.41518 57.8560491 80.5493029 57.609574 76.4059431 61.3651862 76.1613988 66.2417728 75.9168544 71.1183594 79.6628295 75.2708383 84.5300961 75.5173135 89.3959733 75.762396 93.539333 72.0067838 93.7838774 67.1301972"/>
        <path fill="#FFFFFF" fill-opacity=".1" d="M86.0286251,5.1486701 C82.7522864,6.35737289 79.4606636,7.51733766 76.1523673,8.62856442 C57.6156262,14.8531053 38.5925752,19.5389174 19.2763489,22.6344776 L5.48043385,24.845791 C1.7483533,25.8233364 -0.485892989,29.6485743 0.489505577,33.3888689 C1.46490414,37.130556 16.419626,40.6675434 23.1307016,65.2120082 L96.3467302,332.980059 C131.595856,262.484001 87.105454,218.158864 89.895483,140.384131 C92.1519606,77.4925956 86.0286251,5.1486701 86.0286251,5.1486701"/>
      </g>
      <g filter="url(#b)" transform="translate(0 87.246)">
        <path fill="#F3F9FD" d="M257.78994,365.604252 C255.629886,365.604252 253.480572,365.179541 251.407964,364.342428 L13.7192535,268.403776 C8.00002141,266.094023 4.07878822,261.059036 3.23348325,254.931494 C2.38664416,248.805492 4.79522636,242.888767 9.67529005,239.107911 L151.694195,121.365859 C156.242887,118.075883 159.75911,113.588713 161.871605,108.379841 L203.833096,22.3726692 L194.427352,18.5764248 C193.017488,17.6639105 192.359347,10.0221797 193.781484,6.47368372 C194.494854,4.69943573 196.186998,3.55148343 198.09392,3.55148343 C198.641604,3.55148343 199.183151,3.64996727 199.703221,3.84385734 L213.237305,10.9069955 C235.942411,22.7527553 259.905503,32.4257153 284.460769,39.655045 L299.10096,43.9637131 C300.194793,44.4422831 301.049303,45.3055555 301.518747,46.4088823 C302.005065,47.553757 302.017338,48.8201977 301.554032,49.9743052 C300.134962,53.516646 295.419051,58.5854863 293.548948,58.5854863 L284.180023,54.80463 L255.053054,145.992975 C252.977378,151.217235 252.415886,156.893906 253.425343,162.427467 L274.541092,345.922872 C275.294349,351.010178 273.915167,355.835886 270.668951,359.612126 C267.39512,363.420681 262.700686,365.604252 257.78994,365.604252"/>
        <path fill="#FCFDFF" d="M198.092846,0.474478836 C195.038396,0.474478836 192.146563,2.30720161 190.936135,5.32480814 C189.345244,9.28878284 189.329902,19.8373258 193.281818,21.4330718 L199.625441,23.9936517 L159.067678,107.124787 C157.166892,111.862784 153.959029,115.956018 149.81995,118.927461 L7.79797665,236.67259 C-4.46891717,246.179358 -1.80566959,265.452954 12.5737196,271.258885 L250.260896,367.197536 C252.776867,368.213151 255.320452,368.682488 257.7904,368.682488 C269.435971,368.682488 279.472242,358.258589 277.588332,345.569561 L256.461844,161.972594 C255.52756,156.952996 256.039959,151.771822 257.940744,147.033826 L286.093542,58.8954027 L292.438699,61.4559826 C292.790014,61.5975531 293.161273,61.663722 293.547874,61.663722 C297.495187,61.663722 302.952083,54.7344603 304.401835,51.1244119 C305.991192,47.1604372 304.0766,42.6532625 300.124684,41.0590553 L285.324943,36.7011452 C260.901613,29.5118246 237.234608,19.9588918 214.653766,8.17622317 L200.969338,1.03614451 C200.025848,0.654519612 199.051677,0.474478836 198.092846,0.474478836 M198.092846,6.62971906 C198.229384,6.62971906 198.365921,6.64818479 198.49939,6.68511623 L211.821765,13.6359213 C234.701761,25.5755485 258.850483,35.3223714 283.597514,42.6070982 L298.006052,46.8495975 C298.392652,47.0604145 298.593623,47.3743318 298.69641,47.6159249 C298.813004,47.8913719 298.909654,48.3237776 298.708683,48.8254296 C297.915538,50.8012618 295.178653,54.1404796 293.540203,55.2653497 L288.38553,53.1848785 L282.264356,50.7135496 L280.250045,57.0165156 L252.161681,144.954894 C249.920319,150.657724 249.308202,156.845279 250.389762,162.880492 L271.493238,346.275875 L271.503977,346.375898 L271.519318,346.47592 C272.125299,350.563 270.997715,354.516203 268.343672,357.603056 C265.654344,360.732995 261.808283,362.527248 257.7904,362.527248 C256.023083,362.527248 254.260369,362.176399 252.55135,361.487012 L14.865708,265.54836 C10.1774104,263.655624 6.96494471,259.528536 6.2715185,254.508937 C5.57809229,249.489339 7.55251604,244.642087 11.5504557,241.542924 L11.6302304,241.481371 L11.7084709,241.416741 L153.572429,123.800872 C158.519994,120.200057 162.350714,115.311257 164.67185,109.640742 L205.137566,26.6988798 L208.038603,20.7529178 L201.917429,18.2831276 L196.555649,16.1180219 C195.90211,14.1929705 195.895974,9.44881909 196.627753,7.62225155 C196.922306,6.88977796 197.600391,6.62971906 198.092846,6.62971906"/>
        <path fill="#9B5CA4" d="M257.78994,364.834847 C255.72807,364.834847 253.67694,364.428602 251.693312,363.62842 L14.0061356,267.689769 C8.54463713,265.484654 4.80136288,260.675872 3.99287701,254.826855 C3.18592526,248.976299 5.48405019,243.327328 10.1431993,239.715741 L108.916547,158.209588 C115.231022,159.109792 138.967062,162.975283 156.431584,172.346636 C168.687739,178.925049 175.375007,187.142295 181.84136,195.090249 C188.596129,203.395207 195.581017,211.980228 208.323491,217.326054 C217.060354,220.988422 227.642775,222.847305 239.777733,222.847305 C248.074302,222.847305 255.186523,221.970183 259.426855,221.297723 L273.780164,346.012123 C274.502739,350.897845 273.184922,355.506581 270.087516,359.110474 C266.959427,362.74976 262.478237,364.834847 257.78994,364.834847"/>
        <path fill="#FFFFFF" d="M142.082247,213.829817 C145.09899,206.309605 141.467355,197.760215 133.967404,194.733211 C126.46497,191.705206 117.936805,195.349966 114.919303,202.872072 C111.901113,210.391455 115.533538,218.941409 123.034147,221.968678 C130.53658,224.996683 139.064746,221.351923 142.082247,213.829817 L142.082247,213.829817 Z M138.307097,212.312672 C136.12713,217.746948 129.970852,220.378014 124.555524,218.192371 C119.137886,216.005795 116.512302,209.825731 118.694299,204.389603 C120.874421,198.954941 127.030699,196.323875 132.446027,198.509518 C137.863043,200.695843 140.488143,206.875705 138.307097,212.312672 L138.307097,212.312672 Z" opacity=".3"/>
        <path fill="#FFFFFF" d="M185.909255 236.308661C186.904905 233.825022 185.70675 231.002844 183.230667 230.002618 180.754583 229.00393 177.939456 230.207279 176.943807 232.68938 175.948157 235.173019 177.146312 237.996736 179.622396 238.995424 182.09848 239.99565 184.913606 238.792301 185.909255 236.308661M157.171495 268.99114C159.277854 263.742259 156.741939 257.773215 151.509025 255.661968 146.274578 253.549181 140.325226 256.091296 138.218868 261.341715 136.114043 266.590597 138.648424 272.558102 143.882871 274.670888 149.115784 276.783674 155.065136 274.240021 157.171495 268.99114" opacity=".2"/>
        <path fill="#FFFFFF" d="M215.938948,278.324815 C218.463345,272.034214 215.424103,264.880126 209.149447,262.348582 C202.871569,259.814635 195.736365,262.863812 193.211283,269.157962 C190.688432,275.449293 193.726915,282.601024 200.00211,285.133889 C206.278154,287.667839 213.413619,284.617737 215.938948,278.324815 L215.938948,278.324815 Z M212.163987,276.807196 C210.476326,281.012716 205.712683,283.048967 201.52377,281.357696 C197.331052,279.665384 195.299127,274.882808 196.986511,270.674914 C198.673889,266.468868 203.437175,264.433314 207.628264,266.124968 C211.819852,267.816087 213.852254,272.600167 212.163987,276.807196 L212.163987,276.807196 Z" opacity=".3"/>
        <path fill="#9B5CA4" d="M191.334702 117.530529C187.395059 117.530529 183.897246 119.900296 182.426016 123.567281 180.450058 128.493012 182.838697 134.112746 187.749443 136.096272 188.895437 136.557915 190.101262 136.793353 191.331634 136.793353 195.271276 136.793353 198.76909 134.423586 200.24032 130.756601 202.216277 125.83087 199.827639 120.209597 194.916893 118.22761 193.770898 117.764428 192.565073 117.530529 191.334702 117.530529M191.334702 122.31315C191.934546 122.31315 192.546664 122.427022 193.137303 122.665538 195.613387 123.664226 196.811542 126.487942 195.815892 128.971582 195.058033 130.86124 193.246226 132.009193 191.331634 132.009193 190.731789 132.009193 190.119672 131.89686 189.529032 131.658344 187.052948 130.659656 185.854794 127.83594 186.850443 125.3523 187.608303 123.462642 189.420109 122.31315 191.334702 122.31315M215.246554 184.349509C216.67943 180.779469 214.955069 176.721627 211.39589 175.284379 207.836712 173.848669 203.791214 175.578291 202.358338 179.146792 200.926996 182.716831 202.649822 186.776212 206.209001 188.211922 209.76818 189.64917 213.813677 187.919548 215.246554 184.349509M239.857201 95.7495958C242.126178 90.0944688 239.395428 83.6637816 233.755971 81.3878815 228.118048 79.1119814 221.706924 81.8526021 219.437947 87.5077291 217.168971 93.1628561 219.901254 99.5935433 225.539177 101.869443 231.177101 104.145343 237.588225 101.404723 239.857201 95.7495958"/>
        <path fill="#DDE3EF" d="M212.626402,37.9423157 C230.311825,47.5074285 248.208259,54.7307005 267.374123,60.040504 C268.65604,60.3956524 269.982884,59.6434187 270.337711,58.3603428 C270.692539,57.077267 269.940985,55.7492238 268.659068,55.3940754 C249.843237,50.1812468 232.28382,43.094 214.916269,33.7008071 C213.746066,33.0679063 212.284826,33.5043329 211.652497,34.6755932 C211.020168,35.8468534 211.4562,37.3094149 212.626402,37.9423157 L212.626402,37.9423157 Z"/>
        <path fill="#A666B0" d="M107.769786,154.174828 L7.79828347,236.671974 C-4.46861034,246.178743 -1.80689689,265.453878 12.5740264,271.258269 L250.261202,367.196921 C252.777174,368.212536 255.320759,368.681873 257.789172,368.681873 C269.436278,368.681873 279.472549,358.259512 277.588639,345.570484 L262.768955,216.781315 C262.768955,216.781315 252.703536,218.998741 239.775432,218.998741 C230.375825,218.998741 219.462033,217.826167 209.803158,213.776019 C186.360136,203.944562 184.410258,182.999818 158.241089,168.955099 C137.122272,157.621763 107.769786,154.174828 107.769786,154.174828 M110.038763,162.265892 C117.931855,163.48309 138.964761,167.336271 154.622079,175.739712 C166.201684,181.953427 172.355074,189.516679 178.868985,197.523108 C185.922909,206.192763 193.216157,215.15941 206.843824,220.87455 C216.051665,224.735425 227.131143,226.692791 239.775432,226.692791 C246.094509,226.692791 251.764649,226.197294 256.06788,225.655633 L269.968621,346.452223 L269.983962,346.576866 L270.002372,346.703049 C270.542385,350.340796 269.540599,353.855438 267.182643,356.599136 C264.7848,359.38746 261.360624,360.987822 257.789172,360.987822 C256.219759,360.987822 254.650345,360.675444 253.125421,360.05992 L15.4382449,264.119729 C11.2669487,262.436271 8.40886673,258.76467 7.79214696,254.297505 C7.17542718,249.831878 8.93047052,245.518593 12.4881152,242.761046 L12.581697,242.688722 L12.6722106,242.614859 L110.038763,162.265892"/>
        <path fill="#91539A" fill-opacity=".3" d="M277.588945,345.569869 L269.812447,277.991486 C269.812447,277.991486 181.125995,299.548676 144.27929,264.943916 C106.677793,229.628225 51.0732953,200.960194 51.0732953,200.960194 L7.7985903,236.672898 C-4.46830352,246.179666 -1.80659007,265.453262 12.5743332,271.257654 L250.261509,367.197844 C264.640898,373.002236 279.871729,360.948737 277.588945,345.569869"/>
        <path fill="#FFFFFF" fill-opacity=".1" d="M278.692751,83.7593417 C283.976291,71.3365281 286.094923,58.8952488 286.094923,58.8952488 L292.438545,61.4558287 C296.390461,63.0500359 300.88239,61.129601 302.473282,57.1671651 C304.062639,53.2031904 302.148046,48.6960157 298.19613,47.1018085 L283.39639,42.7438984 C258.97306,35.5545778 235.304521,26.0001062 212.725213,14.2189764 L199.040784,7.07889772 C195.088869,5.48315169 190.596939,7.40358664 189.006048,11.3675613 C187.41669,15.3315361 189.331283,19.8371719 193.281665,21.4329179 L199.626821,23.9934979 L159.067524,107.126172 C157.166739,111.86263 153.958876,115.955865 149.819796,118.927307 L7.79782324,236.672436 C-4.46753645,246.179204 -1.805823,265.454339 12.5735662,271.258731 L89.2309136,302.199585 C89.2309136,302.199585 185.376299,304.966365 193.160469,173.745876 C195.816046,128.97112 262.957192,120.758491 278.692751,83.7593417"/>
      </g>
    </g>
    <g filter="url(#c)">
      <path fill="#E5352A" d="M268.591759,674.385254 L151.97489,674.385254 C151.97489,615.646603 153.982654,553.703283 177.965857,498.819022 C201.113276,445.843124 253.167477,382.697662 369.696369,382.697662 L369.696369,499.189395 C291.271014,499.189395 268.591759,538.486601 268.591759,674.385254"/>
      <path fill="#E5352A" d="M151.97489,675.385254 C151.97489,616.646603 153.982654,554.703283 177.965857,499.819022 C201.113276,446.843124 253.167477,383.697662 369.696369,383.697662 L369.696369,500.189395 C291.271014,500.189395 268.591759,539.486601 268.591759,675.385254 L151.97489,675.385254 Z"/>
      <path fill="#FEFEFE" fill-opacity=".2" d="M262.370516,674.385254 L268.591759,674.385254 C268.591759,538.486601 291.271014,499.189395 369.696369,499.189395 L369.696369,492.541513 C287.242917,492.541513 262.835539,533.47401 262.370516,674.385254"/>
      <path fill="#010202" fill-opacity=".1" d="M210.057097,518.472647 C230.961099,470.63489 275.452406,414.51396 369.694798,404.077602 L369.694798,382.696406 C253.165906,382.696406 201.111705,445.845007 177.964286,498.817767 C153.984225,553.702027 151.976461,615.645347 151.976461,674.383998 L184.176102,674.383998 C184.791942,621.640368 188.735204,567.270863 210.057097,518.472647"/>
      <polygon fill="#CFE8F9" points="152.42 796.437 268.145 796.437 268.145 744.648 152.42 744.648"/>
      <polygon fill="#A5CFEB" points="152.424 796.437 170.946 796.437 170.946 744.648 152.424 744.648" opacity=".3"/>
      <polygon fill="#FEFEFE" fill-opacity=".5" points="254.213 796.437 268.145 796.437 268.145 744.648 254.213 744.648"/>
      <path fill="#3F4F5A" d="M631.080912,674.599003 L111.484658,674.599003 L111.484658,744.646587 L633.368319,746.9316 C653.945548,746.9316 670.714623,734.367166 670.714623,709.624364 C670.714623,692.110114 655.47258,674.599003 631.080912,674.599003"/>
      <path fill="#2E3540" d="M625.364911,684.191978 L111.48403,684.191978 L111.48403,744.647528 L633.36769,746.932542 C644.974391,746.932542 655.365122,742.933768 662.221057,735.011552 C663.999452,730.457219 664.998622,725.199806 664.998622,719.21734 C664.998622,701.70309 649.753436,684.191978 625.364911,684.191978"/>
      <path fill="#000000" fill-opacity=".2" d="M168.25195,675.697266 L89.1837048,674.599003 L89.1837048,744.550493 L173.805165,744.922797 C179.347727,735.506065 182.562035,724.580859 182.562035,712.660701 C182.562035,699.145412 173.805165,682.207031 168.25195,675.697266 Z"/>
      <path fill="#2E3540" d="M63.2379832,717.869872 C63.2379832,749.621513 83.9283263,772.826324 115.713218,772.826324 C147.501251,772.826324 175.804761,749.621513 175.804761,717.869872 C175.804761,686.118232 150.040021,657.841193 118.251987,657.841193 C86.4670958,657.841193 63.2379832,686.118232 63.2379832,717.869872"/>
      <path fill="#2E3540" fill-opacity=".1" d="M268.146217,744.647528 L173.92582,744.647528 L152.421688,744.647528 L152.421688,752.437917 L152.421688,768.401622 C159.349889,764.405988 165.260069,758.985359 169.621223,752.510108 L268.146217,752.93384 L268.146217,744.647528 Z"/>
      <path fill="#CFE8F9" fill-opacity=".2" d="M73.055606,728.014327 C73.055606,698.268351 92.1152295,676.692552 121.892356,676.692552 C140.653486,676.692552 157.15863,686.27517 166.817265,700.795048 C159.662837,679.429546 144.587322,664.011984 120.792642,664.011984 C91.015515,664.011984 66.8783525,685.587782 66.8783525,715.333759 C66.8783525,726.338232 70.1963483,739.097269 75.8677331,747.625265 C74.0704854,742.254856 73.055606,733.987376 73.055606,728.014327"/>
      <path fill="#3F4F5A" d="M565.090187,842.539631 L93.7556893,842.539631 L89.180877,842.539631 C89.180877,817.078054 109.842942,796.437605 135.331182,796.437605 L521.227288,794.152592 C546.715528,794.152592 569.661857,817.078054 569.661857,842.539631 L565.090187,842.539631 Z"/>
      <path fill="#2E3540" d="M526.56216 802.042793L140.666054 804.327806C117.876827 804.327806 98.9931582 820.843932 95.2415607 842.539003L565.089872 842.539003 569.664685 842.539003C569.664685 834.792557 567.528097 827.281517 563.851908 820.577138 554.755698 809.478502 541.072108 802.042793 526.56216 802.042793M327.949635 666.749606L563.385943 666.749606C566.754212 666.749606 569.484646 669.477183 569.484646 672.841928L569.484646 675.71075 321.850932 675.71075 321.850932 672.841928C321.850932 669.477183 324.581366 666.749606 327.949635 666.749606"/>
      <path fill="#010202" fill-opacity=".1" d="M297.462092,442.976814 C292.227451,450.195949 293.842461,460.283906 301.066014,465.513071 C308.292709,470.742236 318.39123,469.128916 323.625872,461.912919 C328.860513,454.693784 327.248645,444.605827 320.02195,439.376662 C312.798397,434.147497 302.696733,435.757678 297.462092,442.976814"/>
      <path fill="#A5CFEB" d="M294.524598,440.042706 C289.289957,447.258702 290.904966,457.349798 298.128519,462.578963 C305.355215,467.808128 315.453736,466.194808 320.688377,458.978812 C325.923018,451.759676 324.311151,441.671719 317.084455,436.442554 C309.860902,431.21339 299.759239,432.823571 294.524598,440.042706"/>
      <path fill="#90BAD6" d="M307.622198,434.838337 C302.921704,434.838337 298.469431,437.107657 295.717002,440.905549 C290.963094,447.452991 292.433569,456.643264 298.987868,461.3922 C301.510927,463.215816 304.48644,464.182553 307.593919,464.182553 C312.294413,464.182553 316.746686,461.916372 319.499114,458.118479 C324.249881,451.567898 322.782548,442.374487 316.225107,437.62869 C313.698906,435.805073 310.726535,434.838337 307.622198,434.838337 M307.593919,467.117288 L307.593919,467.117288 C303.864316,467.117288 300.294957,465.959088 297.266029,463.768237 C289.395215,458.071398 287.635672,447.041814 293.335335,439.182373 C296.640763,434.624902 301.979091,431.903602 307.622198,431.903602 C311.348659,431.903602 314.918018,433.061802 317.946946,435.252653 C325.814618,440.946353 327.580445,451.979075 321.880782,459.841655 C318.572212,464.395988 313.233884,467.117288 307.593919,467.117288"/>
      <path fill="#FEFEFE" fill-opacity=".3" d="M312.03111,441.478372 C304.747858,442.639711 299.783433,449.482196 300.94913,456.760968 C301.285328,458.860794 302.105401,460.759741 303.264814,462.382477 C298.152713,461.174056 294.017786,457.005791 293.138015,451.500415 C291.975459,444.224782 296.936743,437.382298 304.219995,436.220958 C309.401221,435.392327 314.349937,437.671063 317.20291,441.669836 C315.553339,441.280631 313.806364,441.195884 312.03111,441.478372"/>
      <path fill="#2E3540" d="M422.59515,592.466587 L468.739171,592.466587 C478.058466,592.466587 485.611934,584.921021 485.611934,575.611475 L485.611934,568.903957 L405.722388,568.903957 L405.722388,575.611475 C405.722388,584.921021 413.275855,592.466587 422.59515,592.466587"/>
      <polygon fill="#2E3540" points="405.722 64.774 485.612 64.774 485.612 4.466 405.722 4.466"/>
      <polygon fill="#010202" fill-opacity=".1" points="405.722 64.774 438.808 64.774 438.808 4.466 405.722 4.466"/>
      <polygon fill="#CFE8F9" points="367.723 571.326 523.612 571.326 523.612 226.135 367.723 226.135"/>
      <polygon fill="#B3D4E7" points="367.723 226.138 523.612 226.138 523.612 64.774 367.723 64.774"/>
      <polygon fill="#A5CFEB" points="367.723 571.326 417.7 571.326 417.7 226.135 367.723 226.135" opacity=".3"/>
      <polygon fill="#FEFEFE" fill-opacity=".5" points="502.727 571.326 523.612 571.326 523.612 226.135 502.727 226.135"/>
      <path fill="#010202" fill-opacity=".1" d="M399.783301,352.564049 C392.185845,347.064951 383.2216,344.155326 373.864601,344.155326 C359.700278,344.155326 346.299471,350.985256 337.995056,362.426016 C323.686199,382.159365 328.107051,409.849457 347.86735,424.149623 C355.464806,429.651859 364.432192,432.561485 373.792334,432.561485 C387.950373,432.561485 401.360606,425.731555 409.665021,414.290795 C423.973878,394.551168 419.537315,366.857937 399.783301,352.564049"/>
      <path fill="#E7F3FC" d="M328.94032,353.84215 C311.973297,380.992376 320.84328,403.472136 341.561901,418.465966 C362.280522,433.459796 391.243861,426.551397 406.253393,405.85445 C421.262925,385.160642 416.634698,358.512617 395.916076,343.518787 C375.200597,328.524956 342.488803,332.162773 328.94032,353.84215"/>
      <path fill="#2E3540" fill-opacity=".1" d="M356.429413,375.78738 C350.999965,383.273309 352.674673,393.741055 360.168442,399.164823 C367.662211,404.588591 378.140919,402.915635 383.570367,395.429705 C388.999815,387.943776 387.325106,377.47603 379.831338,372.052262 C372.337569,366.628494 361.85886,368.30145 356.429413,375.78738"/>
      <path fill="#3F4F5A" d="M355.019265,368.776972 C349.530118,376.347647 348.936272,389.213402 356.511734,394.696806 C364.090338,400.18021 374.685302,400.773435 380.174448,393.205898 C385.663595,385.635222 386.257441,372.769467 378.678837,367.286063 C371.103375,361.79952 360.508411,361.206296 355.019265,368.776972"/>
      <polygon fill="#9EC2D5" points="393.626 207.862 384.479 210.147 382.192 79.949 395.913 82.231"/>
      <polygon fill="#9EC2D5" points="421.934 210.147 410.5 207.862 408.216 82.233 424.221 79.948"/>
      <polygon fill="#9EC2D5" points="450.241 207.862 438.807 210.147 438.807 79.949 452.529 82.231"/>
      <polygon fill="#9EC2D5" points="480.835 207.862 469.402 210.147 467.117 79.949 480.835 82.231"/>
      <polygon fill="#9EC2D5" points="506.857 207.862 497.71 210.147 495.423 84.516 509.144 82.231"/>
      <polygon fill="#CFE8F9" points="402.232 18.274 489.103 18.274 489.103 0 402.232 0"/>
      <polygon fill="#FEFEFE" fill-opacity=".5" points="477.879 18.274 489.103 18.274 489.103 0 477.879 0"/>
      <polygon fill="#A5CFEB" points="402.232 18.274 421.857 18.274 421.857 0 402.232 0" opacity=".3"/>
      <ellipse cx="377.045" cy="841.186" fill="#000000" fill-opacity=".1" filter="url(#d)" rx="377.045" ry="18.833"/>
    </g>
  </g>
</svg>
