<svg xmlns="http://www.w3.org/2000/svg" width="937" height="922" viewBox="0 0 937 922">
  <defs>
    <filter id="a" width="200%" height="200%" x="-50%" y="-50%" filterUnits="objectBoundingBox">
      <feOffset in="SourceAlpha" result="shadowOffsetOuter1"/>
      <feGaussianBlur stdDeviation="4" in="shadowOffsetOuter1" result="shadowBlurOuter1"/>
      <feColorMatrix values="0 0 0 0 0 0 0 0 0 0 0 0 0 0 0 0 0 0 0.2 0" in="shadowBlurOuter1" result="shadowMatrixOuter1"/>
      <feMerge>
        <feMergeNode in="shadowMatrixOuter1"/>
        <feMergeNode in="SourceGraphic"/>
      </feMerge>
    </filter>
  </defs>
  <g fill="none" fill-rule="evenodd" filter="url(#a)" transform="translate(14 14)">
    <path fill="#42210B" d="M118.159164,334.67332 C168.060856,316.268806 276.05126,315.260545 300.798936,326.998502 C314.792118,333.637972 300.798936,249.774787 300.798936,249.774787 L194.731879,185.122724 L135.354916,206.672409 C135.354916,206.672409 100.012274,341.363955 118.159164,334.67332 L118.159164,334.67332 Z"/>
    <path fill="#B3B3B3" d="M263.127508,315.697859 C258.47114,317.645156 167.291216,315.697859 167.291216,315.697859 L169.657024,329.452337 L255.563544,340.973593 L263.127508,315.697859 Z"/>
    <path fill="#FAAD40" d="M240.248098,300.89449 C240.248098,264.491777 215.933853,268.515789 215.933853,268.515789 C215.933853,268.515789 191.619608,264.491777 191.619608,300.89449 C191.619608,329.176946 159.789558,350.386531 215.933853,350.386531 C272.078148,350.386531 240.248098,329.176946 240.248098,300.89449"/>
    <path fill="#FAAD40" d="M189.418443 326.361943C189.418443 326.361943 132.371169 333.732778 122.986195 339.035927 113.601222 344.339075 124.506212 412.735245 215.993149 412.846605 337.678751 412.991072 309.361294 346.951523 315.549718 342.530226 321.735132 338.105919 213.850076 319.851892 213.850076 319.851892L189.418443 326.361943zM213.324541 306.197037C158.360141 306.197037 123.327522 261.039012 138.464478 126.702614 142.533909 90.567766 213.324541 92.2351578 213.324541 92.2351578 213.324541 92.2351578 282.700505 90.7874765 288.184604 126.702614 307.246515 251.549325 268.288942 306.197037 213.324541 306.197037"/>
    <path fill="#461A00" d="M241.111648,182.464529 C241.111648,186.678154 244.527923,190.0942 248.74183,190.0942 C252.952727,190.0942 256.369002,186.678154 256.369002,182.464529 C256.369002,178.250903 252.952727,174.834857 248.74183,174.834857 C244.527923,174.834857 241.111648,178.250903 241.111648,182.464529"/>
    <path fill="#FBB03B" d="M315.514201,166.927989 C315.514201,189.130785 316.971009,207.128985 300.922042,207.128985 C284.873075,207.128985 294.432625,189.130785 294.432625,166.927989 C294.432625,144.725193 297.337211,142.636438 300.922042,142.636438 C304.506873,142.636438 315.514201,144.725193 315.514201,166.927989"/>
    <path fill="#461A00" d="M185.452856,182.464529 C185.452856,186.678154 182.036581,190.0942 177.822674,190.0942 C173.611776,190.0942 170.195501,186.678154 170.195501,182.464529 C170.195501,178.250903 173.611776,174.834857 177.822674,174.834857 C182.036581,174.834857 185.452856,178.250903 185.452856,182.464529"/>
    <path fill="#000000" fill-opacity=".1" d="M193.39577 215.082504C194.253601 233.532164 208.641084 243.92477 213.282402 243.92477 217.92372 243.92477 232.311204 233.532164 233.169035 215.082504 233.169035 215.082504 220.575472 227.013083 213.282402 227.013083 205.989333 227.013083 193.39577 215.082504 193.39577 215.082504M191.536233 303.428685C191.536233 303.428685 190.874047 312.807011 188.664756 317.183162 185.170223 324.114576 208.096888 330.501228 216.714329 330.501228 224.169935 330.501228 239.704203 330.60055 244.101716 319.852795 244.101716 319.852795 239.948008 307.374444 240.249001 300.89449 240.249001 300.89449 225.656842 304.990736 213.283004 304.990736 200.909167 304.990736 191.536233 303.428685 191.536233 303.428685"/>
    <path fill="#FBB03B" d="M111.050303,166.927989 C111.050303,189.130785 109.593495,207.128985 125.642462,207.128985 C141.691428,207.128985 132.131879,189.130785 132.131879,166.927989 C132.131879,144.725193 129.227293,142.636438 125.642462,142.636438 C122.05763,142.636438 111.050303,144.725193 111.050303,166.927989"/>
    <path fill="#000000" fill-opacity=".1" d="M134.957003,150.565879 C134.957003,150.565879 153.609562,154.207656 185.451652,152.735896 C222.564135,151.020349 231.289933,132.567679 256.314523,141.795519 C281.339112,151.020349 278.23286,155.351354 287.512486,158.183512 C296.792112,161.01567 287.512486,158.183512 287.512486,158.183512 L287.428208,85.3841038 L133.73497,120.706324 L134.957003,150.565879 Z"/>
    <path fill="#FFFFFF" d="M101.811913,105.627263 C101.811913,105.627263 107.220764,80.173956 124.898105,70.2960141 C142.575446,60.4180723 199.141131,40.9752007 199.141131,40.9752007 C199.141131,40.9752007 210.187588,60.2104007 193.395168,69.2576565 C176.602747,78.3019024 149.778218,66.63016 132.046698,85.3838029 C118.887267,99.3068252 115.176019,110.819052 101.811913,105.627263"/>
    <path fill="#603813" d="M330.272809,302.362036 C316.213409,284.791218 307.550819,267.479237 326.681958,221.09926 C345.539193,175.375405 332.184117,125.690742 299.884518,84.1594437 C284.371319,58.835555 297.151498,31.1821333 228.347422,27.934632 C206.486273,26.9022938 188.724654,27.5915225 128.562097,53.6317276 C68.3995411,79.6719326 82.0495907,183.182651 97.6861967,221.09926 C116.817336,267.479237 108.154746,284.791218 94.0953457,302.362036 C77.9320013,322.56637 50.993094,311.340068 84.216743,334.472871 C117.443402,357.602665 177.06417,297.471221 177.06417,297.471221 C177.06417,297.471221 141.751627,270.528096 144.385319,241.300584 C146.838415,214.041437 132.09877,133.765854 142.046601,135.779365 C211.681419,149.864913 266.513382,91.3466848 276.069922,123.671211 C278.303293,131.22263 280.795518,154.2832 285.150892,163.812013 C285.150892,163.812013 273.625856,215.645625 277.291955,238.606874 C280.955044,261.571132 249.176164,296.541213 249.176164,296.541213 C249.176164,296.541213 306.924753,357.602665 340.151412,334.472871 C373.378071,311.340068 346.436154,322.56637 330.272809,302.362036"/>
    <path fill="#FFFFFF" fill-opacity=".1" d="M100.274138,105.849382 C100.274138,105.849382 105.770277,79.9867507 123.730552,69.9523027 C141.690826,59.9178547 199.162502,40.161971 199.162502,40.161971 C199.162502,40.161971 210.386545,59.7071735 193.32323,68.8958866 C176.262926,78.0876095 149.007975,66.2292637 130.993522,85.28087 C117.623396,99.4266125 113.851949,111.125443 100.274138,105.849382"/>
    <path fill="#9FDAF1" d="M142.946872,350.333559 C142.946872,350.333559 159.769392,341.138827 182.951902,353.114552 C206.134412,365.090278 222.300766,364.006774 243.614107,353.129601 C264.924438,342.249418 281.960663,342.535343 281.960663,342.535343 C281.960663,342.535343 265.484286,424.950846 234.123786,485.145495 L189.233633,485.145495 L142.946872,350.333559 Z"/>
    <path fill="#31363F" d="M272.470643,329.450832 C272.470643,329.450832 211.022845,513.586263 208.154378,521.345353 C198.844653,546.512736 215.411328,750.792306 216.579183,768.200598 C216.579183,768.200598 321.035925,768.417299 322.540891,763.758233 C323.338524,761.284233 322.835865,692.556993 318.134348,603.49299 C315.816699,559.584004 337.855434,492.322503 338.174487,491.922209 C338.857742,491.061425 379.365431,560.86314 379.937319,577.591233 C380.512216,594.316316 384.795352,768.059141 384.795352,768.059141 L429.703564,753.010478 C429.703564,753.010478 422.816835,541.050071 419.960408,525.242956 C417.106991,509.438851 361.498464,363.238088 356.092623,356.538424 C339.959378,336.547781 272.470643,329.450832 272.470643,329.450832"/>
    <path fill="#000000" fill-opacity=".1" d="M147.959616,322.464039 C147.959616,322.464039 238.1884,525.482531 241.059877,533.244631 C250.369602,558.412014 231.030778,750.736926 229.862924,768.145219 L175.02795,767.690749 C175.02795,767.690749 183.19089,681.690655 187.892407,592.626652 C190.210056,548.717666 169.57094,485.251438 175.973069,485.251438 C177.071695,485.251438 145.765374,373.039583 151.011688,366.21351 C156.261013,359.384427 147.959616,322.464039 147.959616,322.464039"/>
    <path fill="#31363F" d="M139.402374,322.464039 C139.402374,322.464039 229.631159,525.482531 232.502635,533.244631 C241.812361,558.412014 227.060675,756.497554 225.895831,773.905847 C225.895831,773.905847 100.866192,770.543976 99.3612248,765.88491 C98.5635924,763.41091 109.029132,681.690655 113.730649,592.626652 C116.048298,548.717666 95.4061719,485.251438 101.811311,485.251438 C102.909937,485.251438 66.3542911,560.864946 65.7824036,577.590029 C65.2075063,594.318122 44.9085129,768.060946 44.9085129,768.060946 L0.000300993378,756.022017 C0.000300993378,756.022017 23.4145758,529.082171 26.267993,513.275056 C29.1214103,497.470951 71.6036156,372.855989 76.8499301,366.026906 C82.0992546,359.197823 139.402374,322.464039 139.402374,322.464039"/>
    <polygon fill="#000000" fill-opacity=".1" points="205.327 466.255 225.313 426.662 173.885 348.623"/>
    <path fill="#F2F2F2" d="M167.289711,315.697859 C167.289711,315.697859 174.718228,372.310927 204.15839,435.187247 C215.186787,458.735394 217.188393,494.566258 217.188393,494.566258 C217.188393,494.566258 132.515946,402.585825 133.73497,395.597227 C134.957003,388.611638 151.623006,377.990292 151.942059,373.114525 C152.261112,368.235749 121.713294,375.946683 120.241436,371.14917 C118.769579,366.348647 127.546546,325.341042 127.546546,325.341042 L167.289711,315.697859 Z"/>
    <path fill="#F2F2F2" d="M263.127508,315.697859 C263.127508,315.697859 245.374918,376.957954 215.934756,439.831264 C204.906359,463.382421 217.189898,494.566258 217.189898,494.566258 C217.189898,494.566258 297.901273,402.585825 296.682249,395.597227 C295.460216,388.611638 278.794213,377.990292 278.47516,373.114525 C278.156107,368.235749 308.703925,375.946683 310.175782,371.14917 C311.64764,366.348647 302.870673,325.341042 302.870673,325.341042 L263.127508,315.697859 Z"/>
    <polygon fill="#9FDAF1" points="128.356 580.379 219.876 580.379 219.876 506.235 128.356 506.235"/>
    <polygon fill="#FFFFFF" points="135.676 574.029 212.552 574.029 212.552 527.411 135.676 527.411"/>
    <polygon fill="#FAAD40" points="174.116 538.364 208.342 538.364 208.342 532.185 174.116 532.185"/>
    <polygon fill="#9FDAF1" points="174.116 549.488 208.342 549.488 208.342 543.309 174.116 543.309"/>
    <polygon fill="#9FDAF1" points="174.116 558.959 208.342 558.959 208.342 552.78 174.116 552.78"/>
    <polygon fill="#9FDAF1" points="174.116 569.258 208.342 569.258 208.342 563.08 174.116 563.08"/>
    <polygon fill="#9FDAF1" points="141.193 569.258 168.794 569.258 168.794 532.185 141.193 532.185"/>
    <path fill="#0EA2DC" d="M162.4079 542.998572C162.4079 547.263363 158.949486 550.721545 154.68441 550.721545 150.419333 550.721545 146.96092 547.263363 146.96092 542.998572 146.96092 538.733781 150.419333 535.275598 154.68441 535.275598 158.949486 535.275598 162.4079 538.733781 162.4079 542.998572M142.833397 569.418304L169.922801 569.418304 169.922801 561.535815C169.922801 557.271024 162.467195 553.812842 156.378099 553.812842 150.289003 553.812842 142.833397 557.271024 142.833397 561.535815L142.833397 569.418304zM187.190189 516.223691L161.039885 516.223691 165.455458 496.865092C166.361448 492.892245 169.8921 490.075136 173.96755 490.075136L174.262524 490.075136C178.334964 490.075136 181.868626 492.892245 182.774617 496.865092L187.190189 516.223691z"/>
    <path fill="#FFFFFF" d="M178.988722,500.313343 C178.988722,503.127442 176.707192,505.411829 173.889894,505.411829 C171.075606,505.411829 168.794076,503.127442 168.794076,500.313343 C168.794076,497.499243 171.075606,495.214856 173.889894,495.214856 C176.707192,495.214856 178.988722,497.499243 178.988722,500.313343"/>
    <path fill="#A67C52" d="M735.657613,252.89618 C735.657613,219.063778 713.182437,222.768759 713.182437,222.768759 C713.182437,222.768759 690.710272,219.063778 690.710272,252.89618 C690.710272,279.071823 661.074464,298.827707 713.182437,298.827707 C765.046606,298.827707 735.657613,279.071823 735.657613,252.89618"/>
    <path fill="#A67C52" d="M688.239718 276.603542C688.239718 276.603542 635.141476 283.516897 626.496947 288.455868 617.852417 293.394839 627.980844 356.864077 712.936225 357.110875 826.046526 357.357673 799.622318 295.865829 805.302063 291.914051 810.981808 287.962272 710.714894 270.924177 710.714894 270.924177L688.239718 276.603542zM710.466875 257.835151C659.34315 257.835151 626.745567 215.852394 640.823027 91.1441298 644.525246 57.5585255 710.466875 59.0393138 710.466875 59.0393138 710.466875 59.0393138 774.924607 57.8053235 780.110723 91.1441298 797.893412 206.961644 761.5906 257.835151 710.466875 257.835151"/>
    <path fill="#461A00" d="M743.31368,135.594266 C747.268733,135.594266 750.474313,138.799631 750.474313,142.75442 C750.474313,146.712218 747.268733,149.917583 743.31368,149.917583 C739.358627,149.917583 736.153048,146.712218 736.153048,142.75442 C736.153048,138.799631 739.358627,135.594266 743.31368,135.594266"/>
    <path fill="#FBB03B" d="M805.54978,128.432608 C805.54978,149.175684 806.783853,165.723193 791.965949,165.723193 C777.148045,165.723193 786.039389,148.928886 786.039389,128.432608 C786.039389,107.93633 788.75736,105.958936 791.965949,105.958936 C795.177548,105.958936 805.54978,107.93633 805.54978,128.432608"/>
    <path fill="#461A00" d="M677.62007,135.594266 C681.575123,135.594266 684.780702,138.799631 684.780702,142.75442 C684.780702,146.712218 681.575123,149.917583 677.62007,149.917583 C673.665017,149.917583 670.459437,146.712218 670.459437,142.75442 C670.459437,138.799631 673.665017,135.594266 677.62007,135.594266"/>
    <path fill="#000000" fill-opacity=".1" d="M691.944345 173.130746C692.684788 190.171851 706.021805 199.802995 710.467477 199.802995 714.913149 199.802995 728.247156 190.171851 728.99061 173.130746 728.99061 173.130746 717.381295 184.242679 710.467477 184.242679 703.797464 184.242679 691.944345 173.130746 691.944345 173.130746M690.462554 252.89618L688.734852 268.947084C688.734852 268.947084 705.774087 280.555622 713.678174 280.555622 720.591991 280.555622 734.916266 280.555622 739.115124 270.67768 741.339465 265.245113 735.163081 259.069142 735.65671 253.142978 735.65671 253.142978 722.075889 256.847959 710.713389 256.847959 699.353899 256.847959 690.462554 252.89618 690.462554 252.89618"/>
    <path fill="#FBB03B" d="M615.631086,128.432608 C615.631086,149.175684 614.397013,165.723193 629.214917,165.723193 C644.032821,165.723193 635.141476,148.928886 635.141476,128.432608 C635.141476,107.93633 632.423506,105.958936 629.214917,105.958936 C626.003318,105.958936 615.631086,107.93633 615.631086,128.432608"/>
    <path fill="#000000" d="M637.858243,113.121497 C637.858243,113.121497 655.147302,116.57968 684.78311,115.095882 C719.35822,113.615093 727.921481,96.3301998 751.383915,104.971142 C774.846349,113.615093 771.908653,117.566872 780.938455,120.281651 C789.968256,122.999439 780.938455,120.281651 780.938455,120.281651 L780.938455,52.6198555 L637.283345,85.4620559 L637.858243,113.121497 Z"/>
    <path fill="#000000" d="M823.825195,173.130746 C832.716539,128.680008 818.885894,89.6618366 789.4969,51.6308574 C775.41944,28.4167911 787.025745,3.22834031 724.0489,0.26375386 C704.04488,-0.723438381 687.746089,0.0169557993 632.920145,23.7246182 C577.844377,47.4322807 585.501649,144.730911 599.08548,179.797304 C612.419486,214.866706 626.743761,224.251052 677.620672,231.164407 C677.620672,231.164407 651.440268,214.619908 647.24442,195.35762 C642.798748,174.611535 634.154218,96.575192 643.045563,98.5525862 C706.762851,111.392105 758.873834,58.2974148 767.515354,87.9312404 C769.49288,94.8476056 771.714212,115.83748 775.913069,124.728229 C775.913069,124.728229 765.294023,172.143554 768.752437,193.133428 C772.207841,214.123302 743.806106,235.609782 743.806106,235.609782 C743.806106,235.609782 810.981808,237.830965 823.825195,173.130746"/>
    <path fill="#FFFFFF" fill-opacity=".1" d="M606.987158,71.3867412 C606.987158,71.3867412 611.926459,47.6790787 628.472065,38.5415311 C644.773867,29.4039834 697.378479,11.3786958 697.378479,11.3786958 C697.378479,11.3786958 707.750711,29.1571853 691.945549,37.5543388 C676.384191,45.9514923 651.44087,35.0863582 634.895264,52.6180497 C622.79232,65.7073761 619.336916,76.3257121 606.987158,71.3867412"/>
    <path fill="#9B5CA4" d="M855.189608,302.53329 C852.721462,295.866732 794.683919,280.306416 794.683919,280.306416 C794.683919,280.306416 778.631942,315.622616 750.477022,329.945933 C722.322101,344.26925 701.080999,345.750038 670.457932,329.945933 C640.081681,314.138818 635.142379,280.306416 635.142379,280.306416 C635.142379,280.306416 593.650442,290.434165 589.945214,295.373136 C586.242995,300.312107 635.142379,462.557754 635.142379,462.557754 L622.612025,686.972434 C651.254555,693.930935 681.164267,697.647955 711.94987,697.647955 C749.745608,697.647955 786.232025,692.061892 820.659648,681.714431 C817.875459,575.100679 817.767101,487.920769 817.156085,466.756331 C816.415641,441.814678 857.660764,309.199847 855.189608,302.53329"/>
    <path fill="#000000" d="M902.361892 462.311257C899.643922 447.494344 859.142253 310.18734 854.449766 304.014379 849.510465 297.101024 825.307587 281.047111 825.307587 281.047111 825.307587 281.047111 772.702975 476.634574 768.504117 483.794727 760.572942 497.013472 764.166803 652.938681 768.991726 705.395307 787.812842 702.539071 806.176448 698.295348 823.977197 692.76346 821.051541 673.510202 818.601455 555.941023 817.403501 533.681042 815.18217 492.932275 836.913892 447.98794 837.410531 447.494344 838.150975 446.75395 864.821998 495.403265 865.315627 510.960572 865.511273 517.094407 868.656654 615.732368 869.944905 638.943425 883.898958 632.493568 894.379548 628.231787 907.349352 620.186772 899.330889 569.689481 903.520717 468.634705 902.361892 462.311257M615.384572 281.048616C615.384572 281.048616 582.783979 297.346317 577.844678 303.522288 572.905377 309.695249 539.56434 435.887311 536.84637 450.704224 535.579188 457.629618 530.152277 509.935758 524.734397 563.68356 537.984125 571.277115 551.736513 578.08513 565.93437 584.053429 569.811165 549.074319 573.19433 517.243389 573.399006 510.962077 573.892635 495.40176 594.146479 446.752445 594.886923 447.495849 595.380552 447.989445 617.115284 492.93378 614.890943 533.679537 613.64483 556.860497 611.041238 675.281429 607.956056 695.154693 625.862152 700.280267 644.307026 704.117676 663.19737 706.555559 668.073463 653.822037 671.778691 497.111288 663.790327 483.796232 659.344655 476.633069 615.384572 281.048616 615.384572 281.048616"/>
    <path fill="#000000" fill-opacity=".1" d="M711.948967,697.637421 C743.330536,697.637421 773.806116,691.295915 802.954314,679.42553 C800.766092,585.350323 797.479245,475.185086 794.189387,482.703398 C788.509642,495.690394 653.911424,490.817637 653.911424,490.817637 L642.588053,687.139474 C665.075268,694.007684 688.251758,697.637421 711.948967,697.637421"/>
    <path fill="#FAAD40" d="M316.999001 648.586005C316.999001 648.586005 302.51219 670.858026 305.865256 677.343999 309.215313 683.829972 291.053372 834.617568 291.053372 834.617568L321.676438 851.721877C321.676438 851.721877 341.647349 701.990698 346.836475 687.721556 352.025601 673.452415 366.295697 655.183339 366.295697 655.183339L316.999001 648.586005zM685.426032 648.586005C685.426032 648.586005 699.912843 670.858026 696.559777 677.343999 693.209721 683.829972 711.371661 834.626597 711.371661 834.626597L677.257072 853.455483C677.257072 853.455483 660.777684 701.990698 655.588559 687.721556 650.399433 673.452415 636.129337 655.183339 636.129337 655.183339L685.426032 648.586005z"/>
    <path fill="#40B8BC" d="M453.833601,448.393953 C453.833601,448.393953 384.689402,467.626143 369.970826,478.870504 C355.25526,490.111854 300.67613,625.904963 300.67613,644.435885 C300.67613,662.963798 354.240912,673.287181 365.416796,674.963602 C376.58967,676.637013 392.241326,632.111031 392.241326,632.111031 L398.724723,714.412165 L396.693018,880.799203 C396.693018,880.799203 465.060654,896.344471 506.540551,894.060084 C548.017438,891.778707 611.668508,878.677342 611.668508,878.677342 L601.552121,715.263919 L604.995485,622.829016 C604.995485,622.829016 624.201872,675.905648 630.074253,675.189331 C635.949644,674.476025 690.489644,658.705027 700.994313,652.59226 C711.023412,646.756389 656.886743,488.224752 641.319366,478.710988 C625.751988,469.197224 534.845968,444.983926 517.165617,445.835681 C499.482256,446.684425 453.833601,448.393953 453.833601,448.393953"/>
    <path fill="#B3B3B3" d="M493.98401,446.549288 C513.172338,446.546278 539.494209,453.561965 547.789586,455.915575 C549.992858,444.448495 550.417259,436.228916 550.417259,436.228916 C550.417259,436.228916 517.040103,426.095146 493.98401,426.098156 C475.888288,426.101166 442.754937,433.526176 442.754937,433.526176 C442.754937,433.526176 443.570629,441.69158 446.776209,453.116524 C456.140113,451.160198 479.725954,446.552298 493.98401,446.549288"/>
    <path fill="#FAAD40" d="M519.814961,427.630712 C519.814961,392.010528 496.024444,398.228636 496.024444,398.228636 C496.024444,398.228636 472.230918,392.010528 472.230918,427.630712 C472.230918,455.305202 441.087133,476.060317 496.024444,476.060317 C550.958746,476.060317 519.814961,455.305202 519.814961,427.630712"/>
    <path fill="#FAAD40" d="M422.86981 456.601493C416.819843 460.02055 446.564009 488.983205 470.408704 515.857106 482.761472 529.783138 488.185373 560.259688 500.983611 560.268718 514.269459 560.280757 514.711919 538.64981 526.556009 524.094743 548.149274 497.563952 566.160717 459.397535 570.070621 456.601493 576.123598 452.273498 513.30026 442.928279 493.985515 443.14197 475.889793 443.340612 432.053118 451.412715 422.86981 456.601493M493.470215 432.819491C467.052026 432.819491 405.408582 381.795497 420.217456 250.348442 424.202609 214.990105 493.470215 216.62138 493.470215 216.62138 493.470215 216.62138 561.356261 215.203796 566.722973 250.348442 585.375532 372.510472 519.888403 432.819491 493.470215 432.819491"/>
    <path fill="#461A00" d="M520.66015,308.319199 C520.66015,312.442533 524.001177,315.783336 528.124786,315.783336 C532.248395,315.783336 535.589422,312.442533 535.589422,308.319199 C535.589422,304.195866 532.248395,300.855063 528.124786,300.855063 C524.001177,300.855063 520.66015,304.195866 520.66015,308.319199"/>
    <path fill="#FBB03B" d="M590.054775,289.707616 C590.054775,311.431865 591.478474,329.044819 575.77565,329.044819 C560.072825,329.044819 569.427699,311.431865 569.427699,289.707616 C569.427699,267.983367 572.269077,265.936749 575.77565,265.936749 C579.285232,265.936749 590.054775,267.983367 590.054775,289.707616"/>
    <path fill="#461A00" d="M466.197506,308.319199 C466.197506,312.442533 462.856479,315.783336 458.73287,315.783336 C454.609261,315.783336 451.268234,312.442533 451.268234,308.319199 C451.268234,304.195866 454.609261,300.855063 458.73287,300.855063 C462.856479,300.855063 466.197506,304.195866 466.197506,308.319199"/>
    <path fill="#000000" fill-opacity=".1" d="M473.969757 340.235907C474.809528 358.288282 488.886988 366.179801 493.428978 366.179801 497.967959 366.179801 512.048429 358.288282 512.8882 340.235907 512.8882 340.235907 500.562522 351.910659 493.428978 351.910659 486.292425 351.910659 473.969757 340.235907 473.969757 340.235907M472.271251 425.202159C472.271251 425.202159 472.972566 434.423979 468.632241 445.704456 465.920291 452.74723 488.353327 456.602697 496.787162 456.602697 504.083241 456.602697 516.727973 448.109232 521.032178 437.590218 519.385744 431.068127 520.111138 424.570115 519.385744 420.925329 519.385744 420.925329 505.537039 431.639976 493.428075 431.639976 481.322122 431.639976 472.271251 425.202159 472.271251 425.202159"/>
    <path fill="#FBB03B" d="M400.211931,289.707616 C400.211931,311.431865 398.788233,329.044819 414.491057,329.044819 C430.193882,329.044819 420.839008,311.431865 420.839008,289.707616 C420.839008,267.983367 417.99763,265.936749 414.491057,265.936749 C410.981475,265.936749 400.211931,267.983367 400.211931,289.707616"/>
    <path fill="#42210B" d="M416.739779,206.477077 C424.574636,193.685714 425.742491,205.676488 440.34067,206.540281 C449.445719,207.079023 434.064958,247.644197 429.008269,264.625108 C426.847136,271.893612 426.001345,293.876697 421.805497,303.056381 C421.805497,303.056381 388.921971,254.033859 416.739779,206.477077"/>
    <path fill="#000000" fill-opacity=".1" d="M430.681792,260.211034 C430.681792,260.211034 442.811825,267.377207 473.97066,265.938555 C510.282501,264.259124 514.309792,254.74235 540.192213,258.080144 C553.399802,259.783652 559.705613,270.260531 559.705613,270.260531 L561.072123,216.60904 L432.078401,248.280455 L430.681792,260.211034 Z"/>
    <path fill="#603813" d="M570.015539,221.410466 C555.074228,197.019595 521.031877,166.046438 466.196904,183.409585 C446.102586,189.769149 421.82446,191.650232 416.740682,206.476174 C412.74048,218.141897 430.330533,260.139703 430.682695,260.211937 C497.74402,273.776801 546.441738,221.410466 557.069814,257.114922 C559.233957,264.383426 561.518496,291.934517 565.714344,301.114201 C565.714344,301.114201 579.608198,261.581365 570.015539,221.410466"/>
    <path fill="#FFFFFF" fill-opacity=".1" d="M428.66935,223.493502 C428.66935,223.493502 424.301936,207.803767 429.828175,205.245494 C438.936234,201.034879 472.828089,190.076443 472.828089,190.076443 C472.828089,190.076443 478.22791,200.020599 470.019821,204.694713 C461.811731,209.371838 448.70347,203.337324 440.03787,213.031672 C433.605642,220.224933 435.200907,226.178184 428.66935,223.493502"/>
    <path fill="#F2F2F2" d="M484.229116,509.040965 C484.229116,509.040965 492.003775,532.167749 495.022738,539.150328 C502.589712,556.645903 499.567738,580.046572 499.567738,580.046572 C497.274169,581.096969 483.305066,580.046572 483.305066,580.046572 C485.219384,528.194902 453.834805,519.833865 453.834805,519.833865 C461.31449,509.808446 484.229116,509.040965 484.229116,509.040965"/>
    <path fill="#000000" fill-opacity=".1" d="M513.204544,515.290072 C508.126786,519.265929 505.21317,534.531292 503.431289,540.463474 C501.661448,546.36255 500.385236,551.900458 499.467207,556.866516 C496.848564,570.99119 498.597336,580.483887 498.597336,580.483887 L502.751044,579.683298 C502.751044,579.683298 517.189697,528.791732 513.204544,515.290072"/>
    <path fill="#F2F2F2" d="M513.204544,515.290072 C507.913081,519.512727 510.038094,533.234097 504.915187,546.25119 C498.353531,562.919088 499.566534,580.047475 499.566534,580.047475 C499.566534,580.047475 505.824187,579.120478 508.692654,578.918826 C511.696568,578.705135 516.864624,578.708144 516.864624,578.708144 C517.92713,536.629075 536.375015,525.285394 536.375015,525.285394 C528.892319,515.259975 518.017428,511.449654 513.204544,515.290072"/>
    <path fill="#000000" fill-opacity=".1" d="M513.204544 515.290072C509.794289 516.710666 508.692654 529.7097 508.692654 529.7097 508.692654 529.7097 517.894021 517.616595 557.236866 537.781803 557.236866 537.781803 586.637899 502.507738 581.241087 469.698645 579.167243 457.108934 516.334875 513.986858 513.204544 515.290072M484.229116 509.040965L488.105911 520.366588C488.105911 520.366588 471.090755 507.656488 440.765672 542.807153 440.765672 542.807153 408.375775 512.038658 415.069868 460.241163 415.069868 460.241163 421.619483 458.086194 425.141106 460.557185 441.388728 471.949022 481.655623 507.9695 484.229116 509.040965"/>
    <path fill="#E6E6E6" d="M442.754636 433.526778C442.754636 433.526778 452.855974 468.626277 455.874938 475.611866 463.441911 493.107441 484.228514 509.040965 484.228514 509.040965 456.958514 513.016821 440.76507 539.433243 440.76507 539.433243 406.554163 500.279634 415.827769 458.847657 415.827769 458.847657 423.307454 448.822238 442.754636 433.526778 442.754636 433.526778M550.417861 436.228314C550.417861 436.228314 543.943493 468.628083 540.92152 475.610663 533.354546 493.106237 513.203039 515.290975 513.203039 515.290975 527.548384 520.946262 556.666483 534.604428 556.666483 534.604428 590.87739 495.450819 580.971698 458.846453 580.971698 458.846453 573.489003 448.821034 550.417861 436.228314 550.417861 436.228314"/>
    <path fill="#FFFFFF" fill-opacity=".2" d="M311.809875,633.448556 C311.809875,633.448556 358.930389,499.410122 371.045372,492.924148 C383.160356,486.438175 407.122438,476.060618 407.122438,476.060618 C407.122438,476.060618 415.321498,490.329759 402.318584,499.410122 C399.164174,501.613246 391.305236,505.962309 384.355299,518.868042 C362.656687,559.150301 337.51772,639.468021 328.674534,643.395722 C316.999001,648.584501 311.809875,633.448556 311.809875,633.448556"/>
    <path fill="#000000" fill-opacity=".1" d="M630.075457 674.962097C630.075457 674.962097 692.742278 659.633529 700.992507 652.476386 709.868801 644.7805 666.011056 517.568139 648.682868 488.473055 646.049175 484.051758 633.229868 467.094926 636.128434 499.407413 637.702629 516.936095 648.11098 632.597103 639.361103 646.860225 630.611225 661.126357 630.075457 674.962097 630.075457 674.962097M611.66911 878.678245L601.549713 715.261812 604.996087 622.59516C604.996087 622.59516 591.397206 615.6186 584.874679 633.779326 578.355163 651.940051 544.210474 890.259695 544.210474 890.259695 577.939792 888.014435 611.66911 878.678245 611.66911 878.678245"/>
  </g>
</svg>
