<svg xmlns="http://www.w3.org/2000/svg" width="937" height="931" viewBox="0 0 937 931">
  <defs>
    <filter id="a" width="200%" height="200%" x="-50%" y="-50%" filterUnits="objectBoundingBox">
      <feOffset in="SourceAlpha" result="shadowOffsetOuter1"/>
      <feGaussianBlur stdDeviation="4" in="shadowOffsetOuter1" result="shadowBlurOuter1"/>
      <feColorMatrix values="0 0 0 0 0 0 0 0 0 0 0 0 0 0 0 0 0 0 0.2 0" in="shadowBlurOuter1" result="shadowMatrixOuter1"/>
      <feMerge>
        <feMergeNode in="shadowMatrixOuter1"/>
        <feMergeNode in="SourceGraphic"/>
      </feMerge>
    </filter>
  </defs>
  <g fill="none" fill-rule="evenodd" transform="translate(14 24)">
    <g filter="url(#a)">
      <path fill="#42210B" d="M118.159164,334.672634 C168.060856,316.268157 276.05126,315.259899 300.798936,326.997832 C314.792118,333.637288 300.798936,249.774274 300.798936,249.774274 L194.731879,185.122342 L135.354916,206.671983 C135.354916,206.671983 100.012274,341.363256 118.159164,334.672634 L118.159164,334.672634 Z"/>
      <path fill="#B3B3B3" d="M263.127508,315.697212 C258.47114,317.644505 167.291216,315.697212 167.291216,315.697212 L169.657024,329.451662 L255.563544,340.972894 L263.127508,315.697212 Z"/>
      <path fill="#FAAD40" d="M240.248098,300.893873 C240.248098,264.491233 215.933853,268.515238 215.933853,268.515238 C215.933853,268.515238 191.619608,264.491233 191.619608,300.893873 C191.619608,329.176272 159.789558,350.385813 215.933853,350.385813 C272.078148,350.385813 240.248098,329.176272 240.248098,300.893873"/>
      <path fill="#FAAD40" d="M189.418443 326.361275C189.418443 326.361275 132.371169 333.732094 122.986195 339.035232 113.601222 344.33837 124.506212 412.734401 215.993149 412.845761 337.678751 412.990228 309.361294 346.950812 315.549718 342.529524 321.735132 338.105227 213.850076 319.851237 213.850076 319.851237L189.418443 326.361275zM213.324541 306.196409C158.360141 306.196409 123.327522 261.038475 138.464478 126.70235 142.533909 90.567576 213.324541 92.2349644 213.324541 92.2349644 213.324541 92.2349644 282.700505 90.7872861 288.184604 126.70235 307.246515 251.548808 268.288942 306.196409 213.324541 306.196409"/>
      <path fill="#461A00" d="M241.111648,182.464152 C241.111648,186.677769 244.527923,190.093808 248.74183,190.093808 C252.952727,190.093808 256.369002,186.677769 256.369002,182.464152 C256.369002,178.250535 252.952727,174.834496 248.74183,174.834496 C244.527923,174.834496 241.111648,178.250535 241.111648,182.464152"/>
      <path fill="#FBB03B" d="M315.514201,166.927644 C315.514201,189.130395 316.971009,207.128558 300.922042,207.128558 C284.873075,207.128558 294.432625,189.130395 294.432625,166.927644 C294.432625,144.724893 297.337211,142.636143 300.922042,142.636143 C304.506873,142.636143 315.514201,144.724893 315.514201,166.927644"/>
      <path fill="#461A00" d="M185.452856,182.464152 C185.452856,186.677769 182.036581,190.093808 177.822674,190.093808 C173.611776,190.093808 170.195501,186.677769 170.195501,182.464152 C170.195501,178.250535 173.611776,174.834496 177.822674,174.834496 C182.036581,174.834496 185.452856,178.250535 185.452856,182.464152"/>
      <path fill="#000000" fill-opacity=".1" d="M193.39577 215.082061C194.253601 233.531684 208.641084 243.924269 213.282402 243.924269 217.92372 243.924269 232.311204 233.531684 233.169035 215.082061 233.169035 215.082061 220.575472 227.012616 213.282402 227.012616 205.989333 227.012616 193.39577 215.082061 193.39577 215.082061M191.536233 303.428063C191.536233 303.428063 190.874047 312.80637 188.664756 317.182512 185.170223 324.113912 208.096888 330.500551 216.714329 330.500551 224.169935 330.500551 239.704203 330.599872 244.101716 319.85214 244.101716 319.85214 239.948008 307.373814 240.249001 300.893873 240.249001 300.893873 225.656842 304.990111 213.283004 304.990111 200.909167 304.990111 191.536233 303.428063 191.536233 303.428063"/>
      <path fill="#FBB03B" d="M111.050303,166.927644 C111.050303,189.130395 109.593495,207.128558 125.642462,207.128558 C141.691428,207.128558 132.131879,189.130395 132.131879,166.927644 C132.131879,144.724893 129.227293,142.636143 125.642462,142.636143 C122.05763,142.636143 111.050303,144.724893 111.050303,166.927644"/>
      <path fill="#000000" fill-opacity=".1" d="M134.957003,150.565568 C134.957003,150.565568 153.609562,154.207336 185.451652,152.73558 C222.564135,151.020036 231.289933,132.567404 256.314523,141.795225 C281.339112,151.020036 278.23286,155.351032 287.512486,158.183185 C296.792112,161.015337 287.512486,158.183185 287.512486,158.183185 L287.428208,85.3839244 L133.73497,120.706073 L134.957003,150.565568 Z"/>
      <path fill="#FFFFFF" d="M101.811913,105.627043 C101.811913,105.627043 107.220764,80.1737871 124.898105,70.2958653 C142.575446,60.4179435 199.141131,40.9751114 199.141131,40.9751114 C199.141131,40.9751114 210.187588,60.2102724 193.395168,69.2575097 C176.602747,78.3017373 149.778218,66.6300186 132.046698,85.3836234 C118.887267,99.3066174 115.176019,110.818821 101.811913,105.627043"/>
      <path fill="#603813" d="M330.272809,302.361416 C316.213409,284.790634 307.550819,267.478688 326.681958,221.098805 C345.539193,175.375043 332.184117,125.69048 299.884518,84.1592667 C284.371319,58.8354294 297.151498,31.1820639 228.347422,27.9345692 C206.486273,26.902233 188.724654,27.5914604 128.562097,53.6316126 C68.3995411,79.6717648 82.0495907,183.182273 97.6861967,221.098805 C116.817336,267.478688 108.154746,284.790634 94.0953457,302.361416 C77.9320013,322.565709 50.993094,311.33943 84.216743,334.472186 C117.443402,357.601933 177.06417,297.470611 177.06417,297.470611 C177.06417,297.470611 141.751627,270.527541 144.385319,241.300088 C146.838415,214.040997 132.09877,133.765576 142.046601,135.779083 C211.681419,149.864602 266.513382,91.3464932 276.069922,123.670954 C278.303293,131.222357 280.795518,154.28288 285.150892,163.811674 C285.150892,163.811674 273.625856,215.645181 277.291955,238.606383 C280.955044,261.570595 249.176164,296.540605 249.176164,296.540605 C249.176164,296.540605 306.924753,357.601933 340.151412,334.472186 C373.378071,311.33943 346.436154,322.565709 330.272809,302.361416"/>
      <path fill="#FFFFFF" fill-opacity=".1" d="M100.274138,105.849161 C100.274138,105.849161 105.770277,79.9865821 123.730552,69.9521546 C141.690826,59.917727 199.162502,40.1618834 199.162502,40.1618834 C199.162502,40.1618834 210.386545,59.7070461 193.32323,68.8957406 C176.262926,78.0874448 149.007975,66.2291231 130.993522,85.2806908 C117.623396,99.4264045 113.851949,111.125211 100.274138,105.849161"/>
      <path fill="#9FDAF1" d="M142.946872,350.332842 C142.946872,350.332842 159.769392,341.138128 182.951902,353.113829 C206.134412,365.08953 222.300766,364.006029 243.614107,353.128878 C264.924438,342.248717 281.960663,342.534641 281.960663,342.534641 C281.960663,342.534641 265.484286,424.949977 234.123786,485.144504 L189.233633,485.144504 L142.946872,350.332842 Z"/>
      <path fill="#31363F" d="M272.470643,329.450157 C272.470643,329.450157 211.022845,513.585214 208.154378,521.344288 C198.844653,546.51162 215.411328,750.790775 216.579183,768.199032 C216.579183,768.199032 321.035925,768.415732 322.540891,763.756676 C323.338524,761.282681 322.835865,692.55558 318.134348,603.491759 C315.816699,559.582861 337.855434,492.321497 338.174487,491.921204 C338.857742,491.060422 379.365431,560.861995 379.937319,577.590054 C380.512216,594.315103 384.795352,768.057575 384.795352,768.057575 L429.703564,753.008943 C429.703564,753.008943 422.816835,541.048966 419.960408,525.241884 C417.106991,509.437811 361.498464,363.237345 356.092623,356.537694 C339.959378,336.547091 272.470643,329.450157 272.470643,329.450157"/>
      <path fill="#000000" fill-opacity=".1" d="M147.959616,322.463378 C147.959616,322.463378 238.1884,525.481458 241.059877,533.243542 C250.369602,558.410874 231.030778,750.735396 229.862924,768.143653 L175.02795,767.689184 C175.02795,767.689184 183.19089,681.689264 187.892407,592.625443 C190.210056,548.716545 169.57094,485.250446 175.973069,485.250446 C177.071695,485.250446 145.765374,373.038819 151.011688,366.21276 C156.261013,359.383691 147.959616,322.463378 147.959616,322.463378"/>
      <path fill="#31363F" d="M139.402374,322.463378 C139.402374,322.463378 229.631159,525.481458 232.502635,533.243542 C241.812361,558.410874 227.060675,756.496012 225.895831,773.904269 C225.895831,773.904269 100.866192,770.542405 99.3612248,765.883349 C98.5635924,763.409353 109.029132,681.689264 113.730649,592.625443 C116.048298,548.716545 95.4061719,485.250446 101.811311,485.250446 C102.909937,485.250446 66.3542911,560.863801 65.7824036,577.58885 C65.2075063,594.316909 44.9085129,768.059381 44.9085129,768.059381 L0.000300993377,756.020475 C0.000300993377,756.020475 23.4145758,529.081091 26.267993,513.274008 C29.1214103,497.469935 71.6036156,372.855226 76.8499301,366.026157 C82.0992546,359.197088 139.402374,322.463378 139.402374,322.463378"/>
      <polygon fill="#000000" fill-opacity=".1" points="205.327 466.254 225.313 426.661 173.885 348.622"/>
      <path fill="#F2F2F2" d="M167.289711,315.697212 C167.289711,315.697212 174.718228,372.310165 204.15839,435.186357 C215.186787,458.734456 217.188393,494.565248 217.188393,494.565248 C217.188393,494.565248 132.515946,402.585002 133.73497,395.596417 C134.957003,388.610842 151.623006,377.989518 151.942059,373.113762 C152.261112,368.234995 121.713294,375.945914 120.241436,371.14841 C118.769579,366.347897 127.546546,325.340375 127.546546,325.340375 L167.289711,315.697212 Z"/>
      <path fill="#F2F2F2" d="M263.127508,315.697212 C263.127508,315.697212 245.374918,376.957182 215.934756,439.830365 C204.906359,463.381474 217.189898,494.565248 217.189898,494.565248 C217.189898,494.565248 297.901273,402.585002 296.682249,395.596417 C295.460216,388.610842 278.794213,377.989518 278.47516,373.113762 C278.156107,368.234995 308.703925,375.945914 310.175782,371.14841 C311.64764,366.347897 302.870673,325.340375 302.870673,325.340375 L263.127508,315.697212 Z"/>
      <path fill="#FAAD40" d="M735.657613,252.895661 C735.657613,219.063327 713.182437,222.7683 713.182437,222.7683 C713.182437,222.7683 690.710272,219.063327 690.710272,252.895661 C690.710272,279.071251 661.074464,298.827094 713.182437,298.827094 C765.046606,298.827094 735.657613,279.071251 735.657613,252.895661"/>
      <path fill="#FAAD40" d="M688.239718 276.602974C688.239718 276.602974 635.141476 283.516315 626.496947 288.455276 617.852417 293.394237 627.980844 356.863346 712.936225 357.110144 826.046526 357.356941 799.622318 295.865223 805.302063 291.913452 810.981808 287.961681 710.714894 270.923621 710.714894 270.923621L688.239718 276.602974zM710.466875 257.834622C659.34315 257.834622 626.745567 215.851949 640.823027 91.1439386 644.525246 57.5584025 710.466875 59.0391879 710.466875 59.0391879 710.466875 59.0391879 774.924607 57.8052001 780.110723 91.1439386 797.893412 206.961218 761.5906 257.834622 710.466875 257.834622"/>
      <path fill="#461A00" d="M743.31368,135.593985 C747.268733,135.593985 750.474313,138.799343 750.474313,142.754124 C750.474313,146.711914 747.268733,149.917272 743.31368,149.917272 C739.358627,149.917272 736.153048,146.711914 736.153048,142.754124 C736.153048,138.799343 739.358627,135.593985 743.31368,135.593985"/>
      <path fill="#FBB03B" d="M805.54978,128.432341 C805.54978,149.175375 806.783853,165.72285 791.965949,165.72285 C777.148045,165.72285 786.039389,148.928577 786.039389,128.432341 C786.039389,107.936105 788.75736,105.958715 791.965949,105.958715 C795.177548,105.958715 805.54978,107.936105 805.54978,128.432341"/>
      <path fill="#461A00" d="M677.62007,135.593985 C681.575123,135.593985 684.780702,138.799343 684.780702,142.754124 C684.780702,146.711914 681.575123,149.917272 677.62007,149.917272 C673.665017,149.917272 670.459437,146.711914 670.459437,142.754124 C670.459437,138.799343 673.665017,135.593985 677.62007,135.593985"/>
      <path fill="#000000" fill-opacity=".1" d="M691.944345 173.130389C692.684788 190.171459 706.021805 199.802583 710.467477 199.802583 714.913149 199.802583 728.247156 190.171459 728.99061 173.130389 728.99061 173.130389 717.381295 184.242298 710.467477 184.242298 703.797464 184.242298 691.944345 173.130389 691.944345 173.130389M690.462554 252.895661L688.734852 268.946531C688.734852 268.946531 705.774087 280.555046 713.678174 280.555046 720.591991 280.555046 734.916266 280.555046 739.115124 270.677124 741.339465 265.244568 735.163081 259.068609 735.65671 253.142458 735.65671 253.142458 722.075889 256.847431 710.713389 256.847431 699.353899 256.847431 690.462554 252.895661 690.462554 252.895661"/>
      <path fill="#FBB03B" d="M615.631086,128.432341 C615.631086,149.175375 614.397013,165.72285 629.214917,165.72285 C644.032821,165.72285 635.141476,148.928577 635.141476,128.432341 C635.141476,107.936105 632.423506,105.958715 629.214917,105.958715 C626.003318,105.958715 615.631086,107.936105 615.631086,128.432341"/>
      <path fill="#000000" d="M637.858243,113.121261 C637.858243,113.121261 655.147302,116.579437 684.78311,115.095642 C719.35822,113.614856 727.921481,96.3299981 751.383915,104.970922 C774.846349,113.614856 771.908653,117.566627 780.938455,120.2814 C789.968256,122.999183 780.938455,120.2814 780.938455,120.2814 L780.938455,52.6197426 L637.283345,85.4618763 L637.858243,113.121261 Z"/>
      <path fill="#000000" d="M823.825195,173.130389 C832.716539,128.679741 818.885894,89.6616484 789.4969,51.6307465 C775.41944,28.4167273 787.025745,3.22832767 724.0489,0.263747232 C704.04488,-0.723443004 687.746089,0.0169496731 632.920145,23.724564 C577.844377,47.4321783 585.501649,144.730611 599.08548,179.796933 C612.419486,214.866264 626.743761,224.25059 677.620672,231.163932 C677.620672,231.163932 651.440268,214.619466 647.24442,195.357218 C642.798748,174.611174 634.154218,96.5749898 643.045563,98.55238 C706.762851,111.391873 758.873834,58.2972903 767.515354,87.9310558 C769.49288,94.8474069 771.714212,115.837238 775.913069,124.72797 C775.913069,124.72797 765.294023,172.143198 768.752437,193.13303 C772.207841,214.122861 743.806106,235.609298 743.806106,235.609298 C743.806106,235.609298 810.981808,237.830476 823.825195,173.130389"/>
      <path fill="#FFFFFF" fill-opacity=".1" d="M606.987158,71.3865901 C606.987158,71.3865901 611.926459,47.6789758 628.472065,38.5414467 C644.773867,29.4039176 697.378479,11.3786666 697.378479,11.3786666 C697.378479,11.3786666 707.750711,29.15712 691.945549,37.5542565 C676.384191,45.9513929 651.44087,35.0862809 634.895264,52.6179367 C622.79232,65.7072365 619.336916,76.325551 606.987158,71.3865901"/>
      <path fill="#37BEC0" d="M855.189608,302.532669 C852.721462,295.866126 794.683919,280.30584 794.683919,280.30584 C794.683919,280.30584 778.631942,315.621969 750.477022,329.945257 C722.322101,344.268544 701.080999,345.74933 670.457932,329.945257 C640.081681,314.138174 635.142379,280.30584 635.142379,280.30584 C635.142379,280.30584 593.650442,290.43357 589.945214,295.37253 C586.242995,300.311491 635.142379,462.556809 635.142379,462.556809 L622.612025,686.971033 C651.254555,693.92952 681.164267,697.646532 711.94987,697.646532 C749.745608,697.646532 786.232025,692.06048 820.659648,681.713041 C817.875459,575.099505 817.767101,487.919772 817.156085,466.755377 C816.415641,441.813775 857.660764,309.199213 855.189608,302.532669"/>
      <path fill="#000000" d="M902.361892 462.310312C899.643922 447.493429 859.142253 310.186704 854.449766 304.013756 849.510465 297.100414 825.307587 281.046534 825.307587 281.046534 825.307587 281.046534 772.702975 476.6336 768.504117 483.793739 760.572942 497.012457 764.166803 652.937349 768.991726 705.393869 787.812842 702.537638 806.176448 698.293924 823.977197 692.762047 821.051541 673.508828 818.601455 555.939888 817.403501 533.679952 815.18217 492.931268 836.913892 447.987024 837.410531 447.493429 838.150975 446.753037 864.821998 495.402253 865.315627 510.959528 865.511273 517.093351 868.656654 615.731112 869.944905 638.942121 883.898958 632.492278 894.379548 628.230505 907.349352 620.185507 899.330889 569.688318 903.520717 468.633747 902.361892 462.310312M615.384572 281.048039C615.384572 281.048039 582.783979 297.345707 577.844678 303.521665 572.905377 309.694614 539.56434 435.88642 536.84637 450.703302 535.579188 457.628683 530.152277 509.934717 524.734397 563.682409 537.984125 571.275949 551.736513 578.08395 565.93437 584.052237 569.811165 549.073198 573.19433 517.242332 573.399006 510.961033 573.892635 495.400748 594.146479 446.751532 594.886923 447.494934 595.380552 447.988529 617.115284 492.932773 614.890943 533.678448 613.64483 556.85936 611.041238 675.280052 607.956056 695.153275 625.862152 700.278839 644.307026 704.11624 663.19737 706.554118 668.073463 653.820703 671.778691 497.110273 663.790327 483.795243 659.344655 476.632095 615.384572 281.048039 615.384572 281.048039"/>
      <path fill="#000000" fill-opacity=".1" d="M711.948967,697.635998 C743.330536,697.635998 773.806116,691.294505 802.954314,679.424144 C800.766092,585.349128 797.479245,475.184115 794.189387,482.702412 C788.509642,495.689381 653.911424,490.816634 653.911424,490.816634 L642.588053,687.138073 C665.075268,694.006268 688.251758,697.635998 711.948967,697.635998"/>
      <path fill="#A67C52" d="M316.999001 648.584682C316.999001 648.584682 302.51219 670.856657 305.865256 677.342617 309.215313 683.828578 291.053372 834.615867 291.053372 834.615867L321.676438 851.720142C321.676438 851.720142 341.647349 701.989266 346.836475 687.720154 352.025601 673.451041 366.295697 655.182002 366.295697 655.182002L316.999001 648.584682zM685.426032 648.584682C685.426032 648.584682 699.912843 670.856657 696.559777 677.342617 693.209721 683.828578 711.371661 834.624896 711.371661 834.624896L677.257072 853.453744C677.257072 853.453744 660.777684 701.989266 655.588559 687.720154 650.399433 673.451041 636.129337 655.182002 636.129337 655.182002L685.426032 648.584682z"/>
      <path fill="#9B5CA4" d="M453.833601,448.393036 C453.833601,448.393036 384.689402,467.625188 369.970826,478.869525 C355.25526,490.110853 300.67613,625.903686 300.67613,644.434571 C300.67613,662.962446 354.240912,673.285807 365.416796,674.962225 C376.58967,676.635633 392.241326,632.109741 392.241326,632.109741 L398.724723,714.410708 L396.693018,880.797409 C396.693018,880.797409 465.060654,896.342645 506.540551,894.058263 C548.017438,891.77689 611.668508,878.675552 611.668508,878.675552 L601.552121,715.26246 L604.995485,622.827745 C604.995485,622.827745 624.201872,675.904269 630.074253,675.187954 C635.949644,674.474649 690.489644,658.703683 700.994313,652.590929 C711.023412,646.75507 656.886743,488.223755 641.319366,478.71001 C625.751988,469.196265 534.845968,444.983017 517.165617,445.834769 C499.482256,446.683512 453.833601,448.393036 453.833601,448.393036"/>
      <path fill="#B3B3B3" d="M493.98401,446.548375 C513.172338,446.545365 539.494209,453.561038 547.789586,455.914644 C549.992858,444.447586 550.417259,436.228024 550.417259,436.228024 C550.417259,436.228024 517.040103,426.094275 493.98401,426.097285 C475.888288,426.100295 442.754937,433.525289 442.754937,433.525289 C442.754937,433.525289 443.570629,441.690677 446.776209,453.115598 C456.140113,451.159276 479.725954,446.551385 493.98401,446.548375"/>
      <path fill="#A67C52" d="M519.814961,427.629837 C519.814961,392.009726 496.024444,398.227821 496.024444,398.227821 C496.024444,398.227821 472.230918,392.009726 472.230918,427.629837 C472.230918,455.304271 441.087133,476.059344 496.024444,476.059344 C550.958746,476.059344 519.814961,455.304271 519.814961,427.629837"/>
      <path fill="#A67C52" d="M422.86981 456.60056C416.819843 460.019609 446.564009 488.982206 470.408704 515.856052 482.761472 529.782056 488.185373 560.258545 500.983611 560.267574 514.269459 560.279613 514.711919 538.64871 526.556009 524.093673 548.149274 497.562936 566.160717 459.396596 570.070621 456.60056 576.123598 452.272574 513.30026 442.927373 493.985515 443.141064 475.889793 443.339706 432.053118 451.411792 422.86981 456.60056M493.470215 432.818606C467.052026 432.818606 405.408582 381.794715 420.217456 250.347927 424.202609 214.989663 493.470215 216.620934 493.470215 216.620934 493.470215 216.620934 561.356261 215.203353 566.722973 250.347927 585.375532 372.509709 519.888403 432.818606 493.470215 432.818606"/>
      <path fill="#461A00" d="M520.66015,308.318567 C520.66015,312.441892 524.001177,315.782689 528.124786,315.782689 C532.248395,315.782689 535.589422,312.441892 535.589422,308.318567 C535.589422,304.195242 532.248395,300.854446 528.124786,300.854446 C524.001177,300.854446 520.66015,304.195242 520.66015,308.318567"/>
      <g transform="translate(408.03 581.512)">
        <polygon fill="#9FDAF1" points=".371 91.102 91.891 91.102 91.891 16.957 .371 16.957"/>
        <polygon fill="#FFFFFF" points="7.691 84.751 84.568 84.751 84.568 38.134 7.691 38.134"/>
        <polygon fill="#FAAD40" points="46.131 49.086 80.357 49.086 80.357 42.907 46.131 42.907"/>
        <polygon fill="#9FDAF1" points="46.131 60.21 80.357 60.21 80.357 54.031 46.131 54.031"/>
        <polygon fill="#9FDAF1" points="46.131 69.682 80.357 69.682 80.357 63.503 46.131 63.503"/>
        <polygon fill="#9FDAF1" points="46.131 79.981 80.357 79.981 80.357 73.802 46.131 73.802"/>
        <polygon fill="#9FDAF1" points="13.208 79.981 40.81 79.981 40.81 42.907 13.208 42.907"/>
        <path fill="#0EA2DC" d="M34.4233542 53.7210629C34.4233542 57.9858451 30.9649403 61.4440206 26.6998641 61.4440206 22.434788 61.4440206 18.9763741 57.9858451 18.9763741 53.7210629 18.9763741 49.4562807 22.434788 45.9981051 26.6998641 45.9981051 30.9649403 45.9981051 34.4233542 49.4562807 34.4233542 53.7210629M14.8488519 80.1407416L41.9382559 80.1407416 41.9382559 72.2582683C41.9382559 67.9934861 34.4826499 64.5353105 28.3935539 64.5353105 22.3044579 64.5353105 14.8488519 67.9934861 14.8488519 72.2582683L14.8488519 80.1407416zM59.2056439 26.9462365L33.0553393 26.9462365 37.4709122 7.58767671C38.3769022 3.61483795 41.9075545.797734106 45.9830049.797734106L46.2779784.797734106C50.3504188.797734106 53.884081 3.61483795 54.7900711 7.58767671L59.2056439 26.9462365z"/>
        <path fill="#FFFFFF" d="M51.0041764,11.0359202 C51.0041764,13.8500143 48.7226466,16.1343966 45.9053486,16.1343966 C43.0910605,16.1343966 40.8095307,13.8500143 40.8095307,11.0359202 C40.8095307,8.22182604 43.0910605,5.93744376 45.9053486,5.93744376 C48.7226466,5.93744376 51.0041764,8.22182604 51.0041764,11.0359202"/>
      </g>
      <path fill="#A67C52" d="M590.054775,289.707022 C590.054775,311.431226 591.478474,329.044145 575.77565,329.044145 C560.072825,329.044145 569.427699,311.431226 569.427699,289.707022 C569.427699,267.982817 572.269077,265.936203 575.77565,265.936203 C579.285232,265.936203 590.054775,267.982817 590.054775,289.707022"/>
      <path fill="#461A00" d="M466.197506,308.318567 C466.197506,312.441892 462.856479,315.782689 458.73287,315.782689 C454.609261,315.782689 451.268234,312.441892 451.268234,308.318567 C451.268234,304.195242 454.609261,300.854446 458.73287,300.854446 C462.856479,300.854446 466.197506,304.195242 466.197506,308.318567"/>
      <path fill="#000000" fill-opacity=".1" d="M473.969757 340.23521C474.809528 358.287549 488.886988 366.179051 493.428978 366.179051 497.967959 366.179051 512.048429 358.287549 512.8882 340.23521 512.8882 340.23521 500.562522 351.909939 493.428978 351.909939 486.292425 351.909939 473.969757 340.23521 473.969757 340.23521M472.271251 425.201289C472.271251 425.201289 472.972566 434.423091 468.632241 445.703545 465.920291 452.746305 488.353327 456.601764 496.787162 456.601764 504.083241 456.601764 516.727973 448.108316 521.032178 437.589323 519.385744 431.067246 520.111138 424.569247 519.385744 420.924468 519.385744 420.924468 505.537039 431.639094 493.428075 431.639094 481.322122 431.639094 472.271251 425.201289 472.271251 425.201289"/>
      <path fill="#A67C52" d="M400.211931,289.707022 C400.211931,311.431226 398.788233,329.044145 414.491057,329.044145 C430.193882,329.044145 420.839008,311.431226 420.839008,289.707022 C420.839008,267.982817 417.99763,265.936203 414.491057,265.936203 C410.981475,265.936203 400.211931,267.982817 400.211931,289.707022"/>
      <path fill="#42210B" d="M416.739779,206.476652 C424.574636,193.685315 425.742491,205.676064 440.34067,206.539856 C449.445719,207.078597 434.064958,247.643688 429.008269,264.624564 C426.847136,271.893053 426.001345,293.876094 421.805497,303.05576 C421.805497,303.05576 388.921971,254.033337 416.739779,206.476652"/>
      <path fill="#000000" fill-opacity=".1" d="M430.681792,260.2105 C430.681792,260.2105 442.811825,267.376658 473.97066,265.938009 C510.282501,264.258582 514.309792,254.741827 540.192213,258.079613 C553.399802,259.783119 559.705613,270.259976 559.705613,270.259976 L561.072123,216.608594 L432.078401,248.279944 L430.681792,260.2105 Z"/>
      <path fill="#603813" d="M570.015539,221.410011 C555.074228,197.019189 521.031877,166.046095 466.196904,183.409206 C446.102586,189.768758 421.82446,191.649837 416.740682,206.475749 C412.74048,218.141448 430.330533,260.139169 430.682695,260.211403 C497.74402,273.776239 546.441738,221.410011 557.069814,257.114394 C559.233957,264.382883 561.518496,291.933918 565.714344,301.113583 C565.714344,301.113583 579.608198,261.580828 570.015539,221.410011"/>
      <path fill="#FFFFFF" fill-opacity=".1" d="M428.66935,223.493042 C428.66935,223.493042 424.301936,207.803339 429.828175,205.245072 C438.936234,201.034464 472.828089,190.076051 472.828089,190.076051 C472.828089,190.076051 478.22791,200.020187 470.019821,204.694292 C461.811731,209.371406 448.70347,203.336905 440.03787,213.031234 C433.605642,220.22448 435.200907,226.177718 428.66935,223.493042"/>
      <path fill="#F2F2F2" d="M484.229116,509.039925 C484.229116,509.039925 492.003775,532.166662 495.022738,539.149227 C502.589712,556.644766 499.567738,580.045389 499.567738,580.045389 C497.274169,581.095783 483.305066,580.045389 483.305066,580.045389 C485.219384,528.193823 453.834805,519.832804 453.834805,519.832804 C461.31449,509.807405 484.229116,509.039925 484.229116,509.039925"/>
      <path fill="#000000" fill-opacity=".1" d="M513.204544,515.28902 C508.126786,519.264868 505.21317,534.5302 503.431289,540.462371 C501.661448,546.361434 500.385236,551.899331 499.467207,556.865379 C496.848564,570.990025 498.597336,580.482702 498.597336,580.482702 L502.751044,579.682115 C502.751044,579.682115 517.189697,528.790652 513.204544,515.28902"/>
      <path fill="#F2F2F2" d="M513.204544,515.28902 C507.913081,519.511666 510.038094,533.233008 504.915187,546.250074 C498.353531,562.917939 499.566534,580.046291 499.566534,580.046291 C499.566534,580.046291 505.824187,579.119296 508.692654,578.917644 C511.696568,578.703953 516.864624,578.706963 516.864624,578.706963 C517.92713,536.627979 536.375015,525.284321 536.375015,525.284321 C528.892319,515.258922 518.017428,511.448609 513.204544,515.28902"/>
      <path fill="#000000" fill-opacity=".1" d="M513.204544 515.28902C509.794289 516.709611 508.692654 529.708619 508.692654 529.708619 508.692654 529.708619 517.894021 517.615538 557.236866 537.780705 557.236866 537.780705 586.637899 502.506712 581.241087 469.697685 579.167243 457.108 516.334875 513.985808 513.204544 515.28902M484.229116 509.039925L488.105911 520.365525C488.105911 520.365525 471.090755 507.655451 440.765672 542.806045 440.765672 542.806045 408.375775 512.037612 415.069868 460.240222 415.069868 460.240222 421.619483 458.085258 425.141106 460.556243 441.388728 471.948058 481.655623 507.968462 484.229116 509.039925"/>
      <path fill="#E6E6E6" d="M442.754636 433.525891C442.754636 433.525891 452.855974 468.62532 455.874938 475.610895 463.441911 493.106434 484.228514 509.039925 484.228514 509.039925 456.958514 513.015773 440.76507 539.432141 440.76507 539.432141 406.554163 500.278612 415.827769 458.846719 415.827769 458.846719 423.307454 448.821321 442.754636 433.525891 442.754636 433.525891M550.417861 436.227422C550.417861 436.227422 543.943493 468.627126 540.92152 475.609691 533.354546 493.10523 513.203039 515.289923 513.203039 515.289923 527.548384 520.945198 556.666483 534.603336 556.666483 534.603336 590.87739 495.449807 580.971698 458.845515 580.971698 458.845515 573.489003 448.820117 550.417861 436.227422 550.417861 436.227422"/>
      <path fill="#FFFFFF" fill-opacity=".2" d="M311.809875,633.447264 C311.809875,633.447264 358.930389,499.409102 371.045372,492.923141 C383.160356,486.437181 407.122438,476.059645 407.122438,476.059645 C407.122438,476.059645 415.321498,490.328757 402.318584,499.409102 C399.164174,501.612221 391.305236,505.961276 384.355299,518.866982 C362.656687,559.14916 337.51772,639.466716 328.674534,643.394409 C316.999001,648.583177 311.809875,633.447264 311.809875,633.447264"/>
      <path fill="#000000" fill-opacity=".1" d="M630.075457 674.96072C630.075457 674.96072 692.742278 659.632184 700.992507 652.475055 709.868801 644.779184 666.011056 517.567082 648.682868 488.472057 646.049175 484.050769 633.229868 467.093971 636.128434 499.406393 637.702629 516.935039 648.11098 632.595812 639.361103 646.858905 630.611225 661.125008 630.075457 674.96072 630.075457 674.96072M611.66911 878.676454L601.549713 715.260354 604.996087 622.59389C604.996087 622.59389 591.397206 615.617344 584.874679 633.778033 578.355163 651.938721 544.210474 890.257881 544.210474 890.257881 577.939792 888.012625 611.66911 878.676454 611.66911 878.676454"/>
    </g>
    <path fill="#20252D" d="M197.124401,515.110795 L137.727273,515.110795 L137.727273,508.58065 C137.727273,504.974151 140.356134,502.050505 143.639648,502.050505 L191.212025,502.050505 C194.47734,502.050505 197.124401,504.949007 197.124401,508.58065 L197.124401,515.110795"/>
    <path fill="#292D36" d="M137.727273,515.82461 L197.124401,515.82461 L197.124401,550.670221 C197.124401,560.277518 190.018717,568.065771 181.285086,568.065771 L153.566587,568.065771 C144.818775,568.065771 137.727273,560.244742 137.727273,550.670221 L137.727273,515.82461"/>
  </g>
</svg>
