<svg xmlns="http://www.w3.org/2000/svg" width="795" height="931" viewBox="0 0 795 931">
  <defs>
    <filter id="a" width="200%" height="200%" x="-50%" y="-50%" filterUnits="objectBoundingBox">
      <feOffset in="SourceAlpha" result="shadowOffsetOuter1"/>
      <feGaussianBlur stdDeviation="4.5" in="shadowOffsetOuter1" result="shadowBlurOuter1"/>
      <feColorMatrix values="0 0 0 0 0 0 0 0 0 0 0 0 0 0 0 0 0 0 0.15 0" in="shadowBlurOuter1" result="shadowMatrixOuter1"/>
      <feMerge>
        <feMergeNode in="shadowMatrixOuter1"/>
        <feMergeNode in="SourceGraphic"/>
      </feMerge>
    </filter>
    <filter id="b" width="200%" height="200%" x="-50%" y="-50%" filterUnits="objectBoundingBox">
      <feOffset in="SourceAlpha" result="shadowOffsetOuter1"/>
      <feGaussianBlur stdDeviation="4.5" in="shadowOffsetOuter1" result="shadowBlurOuter1"/>
      <feColorMatrix values="0 0 0 0 0 0 0 0 0 0 0 0 0 0 0 0 0 0 0.15 0" in="shadowBlurOuter1" result="shadowMatrixOuter1"/>
      <feMerge>
        <feMergeNode in="shadowMatrixOuter1"/>
        <feMergeNode in="SourceGraphic"/>
      </feMerge>
    </filter>
  </defs>
  <g fill="none" fill-rule="evenodd" transform="translate(14 21)">
    <g filter="url(#a)" transform="translate(326.397)">
      <path fill="#8C6239" d="M18.1994413 509.89303C18.1994413 509.89303 2.4010127 535.114242 6.05729841 542.183939 9.71055238 549.253636 2.03113968 779.362727 2.03113968 779.362727L35.428854 785.423333C35.428854 785.423333 45.0789016 569.050606 50.7391714 553.496061 56.3964095 537.941515 71.9583619 517.553636 71.9583619 517.553636L18.1994413 509.89303 18.1994413 509.89303zM419.984919 509.89303C419.984919 509.89303 435.783348 535.114242 432.127062 542.183939 428.473808 549.253636 427.057983 779.362727 427.057983 779.362727L389.855427 788.453636C389.855427 788.453636 393.105459 569.050606 387.445189 553.496061 381.787951 537.941515 366.225998 517.553636 366.225998 517.553636L419.984919 509.89303z"/>
      <path fill="#37BEC0" d="M177.274852,0.0193939394 C177.274852,0.0193939394 92.0160905,23.8072727 75.9690587,36.0618182 C59.9189952,48.3163636 0.396725397,196.343636 0.396725397,216.543636 C0.396725397,236.740606 58.8154397,247.995152 71.000027,249.822424 C83.187646,251.646667 100.253344,204.049697 100.253344,204.049697 L105.10717,490.540606 C105.10717,490.540606 161.994852,504.68 221.404948,504.68 C275.182059,504.68 339.549059,490.540606 339.549059,490.540606 L332.269837,193.931515 C332.269837,193.931515 353.21617,251.319394 359.622249,250.540606 C366.028329,249.761818 425.505122,232.334545 436.96209,225.670909 C447.897598,219.307273 388.860408,46.3769697 371.88263,36.0072727 C354.907884,25.6345455 255.769789,-0.816969697 236.487884,0.11030303 C217.205979,1.03454545 177.274852,0.0193939394 177.274852,0.0193939394" transform="translate(0 288.824)"/>
      <path fill="#A67C52" d="M239.378957,269.030606 C239.378957,230.203333 213.433275,236.979091 213.433275,236.979091 C213.433275,236.979091 187.487592,230.203333 187.487592,269.030606 C187.487592,299.197273 153.522941,321.821515 213.433275,321.821515 C273.343608,321.821515 239.378957,299.197273 239.378957,269.030606"/>
      <path fill="#A67C52" d="M185.138595 296.196061C185.138595 296.196061 147.053802 304.853636 137.036913 310.511212 127.023056 316.165758 170.316389 335.323333 211.208579 335.356667 252.103802 335.39 300.357071 317.023333 306.960214 312.305152 313.560325 307.58697 211.208579 289.253636 211.208579 289.253636L185.138595 296.196061zM210.648919 274.68697C181.838237 274.68697 109.567475 212.671818 125.720617 69.3778788 130.06511 30.8354545 210.648919 39.0112121 210.648919 39.0112121 210.648919 39.0112121 284.681125 37.4627273 290.532395 75.7748485 310.875411 208.944545 239.459602 274.68697 210.648919 274.68697"/>
      <path fill="#461A00" d="M240.300608,135.253939 C240.300608,139.747879 243.944767,143.390303 248.440846,143.390303 C252.936925,143.390303 256.584116,139.747879 256.584116,135.253939 C256.584116,130.76 252.936925,127.117576 248.440846,127.117576 C243.944767,127.117576 240.300608,130.76 240.300608,135.253939"/>
      <path fill="#A67C52" d="M315.503371,118.681212 C315.503371,142.36303 317.058657,161.56303 299.932324,161.56303 C282.80599,161.56303 293.007816,142.36303 293.007816,118.681212 C293.007816,94.9993939 296.10626,92.7690909 299.932324,92.7690909 C303.758387,92.7690909 315.503371,94.9993939 315.503371,118.681212"/>
      <path fill="#461A00" d="M180.906884,135.253939 C180.906884,139.747879 177.262725,143.390303 172.766646,143.390303 C168.270567,143.390303 164.623376,139.747879 164.623376,135.253939 C164.623376,130.76 168.270567,127.117576 172.766646,127.117576 C177.262725,127.117576 180.906884,130.76 180.906884,135.253939"/>
      <path fill="#000000" d="M189.490363,171.617576 C190.405951,191.296364 205.652602,198.326667 210.603443,198.326667 C215.554284,198.326667 230.910078,189.726667 231.825665,170.047879 C231.825665,170.047879 218.385935,182.772121 210.603443,182.772121 C202.823983,182.772121 189.490363,171.617576 189.490363,171.617576"/>
      <path fill="#000000" fill-opacity=".1" d="M187.550956,266.028788 C187.550956,266.028788 187.499416,270.940909 187.214432,273.468182 C186.383733,280.883333 184.213003,286.786364 184.213003,286.786364 C184.213003,286.786364 205.071416,300.610606 214.266702,300.610606 C222.222003,300.610606 236.013416,291.35303 240.703527,279.889394 C240.703527,279.889394 239.23313,274.686364 239.348337,266.801515 C239.366527,265.595455 239.120956,262.85303 239.026971,261.628788 C239.026971,261.628788 223.807606,273.398485 210.604352,273.398485 C197.398067,273.398485 187.550956,266.028788 187.550956,266.028788"/>
      <path fill="#A67C52" d="M105.94181,121.711515 C105.94181,145.393333 104.386524,164.593333 121.512857,164.593333 C138.63919,164.593333 128.437365,145.393333 128.437365,121.711515 C128.437365,98.029697 125.338921,95.7993939 121.512857,95.7993939 C117.686794,95.7993939 105.94181,98.029697 105.94181,121.711515"/>
      <path fill="#000000" fill-opacity=".1" d="M127.022449,101.228485 C127.022449,101.228485 162.94864,96.1830303 196.795052,92.7709091 C259.106529,86.4860606 294.217179,110.695152 294.217179,110.695152 L289.724132,31.7012121 L125.718798,69.38 L127.022449,101.228485 Z"/>
      <polygon fill="#9FDAF1" points="118.678 470.903 208.057 470.903 208.057 398.521 118.678 398.521"/>
      <polygon fill="#FFFFFF" points="125.83 464.706 200.908 464.706 200.908 419.2 125.83 419.2"/>
      <polygon fill="#FAAD40" points="163.369 429.888 196.794 429.888 196.794 423.855 163.369 423.855"/>
      <polygon fill="#9FDAF1" points="163.369 440.745 196.794 440.745 196.794 434.712 163.369 434.712"/>
      <polygon fill="#9FDAF1" points="163.369 449.994 196.794 449.994 196.794 443.961 163.369 443.961"/>
      <polygon fill="#9FDAF1" points="163.369 460.048 196.794 460.048 196.794 454.015 163.369 454.015"/>
      <polygon fill="#9FDAF1" points="131.217 460.045 158.173 460.045 158.173 423.855 131.217 423.855"/>
      <path fill="#0EA2DC" d="M152.237481 434.411818C152.237481 438.575455 148.860116 441.951212 144.694497 441.951212 140.528878 441.951212 137.151513 438.575455 137.151513 434.411818 137.151513 430.248182 140.528878 426.872424 144.694497 426.872424 148.860116 426.872424 152.237481 430.248182 152.237481 434.411818M131.216567 460.04697L158.171821 460.04697 158.171821 450.386364C158.171821 446.765152 151.356456 443.831818 144.692678 443.831818 138.031932 443.831818 131.216567 446.765152 131.216567 450.386364L131.216567 460.04697zM176.138251 408.273939L150.598822 408.273939 154.909965 389.373939C155.795235 385.498182 159.245362 382.746667 163.226044 382.746667L163.511029 382.746667C167.491711 382.746667 170.941838 385.498182 171.827108 389.373939L176.138251 408.273939z"/>
      <path fill="#FFFFFF" d="M168.128681,392.741818 C168.128681,395.490303 165.900348,397.717576 163.150554,397.717576 C160.40076,397.717576 158.172427,395.490303 158.172427,392.741818 C158.172427,389.993333 160.40076,387.766061 163.150554,387.766061 C165.900348,387.766061 168.128681,389.993333 168.128681,392.741818"/>
      <path fill="#FFFFFF" fill-opacity=".2" d="M12.5406873,493.391515 C12.5406873,493.391515 63.9257508,347.276364 77.1381,340.203636 C90.3504492,333.133939 123.917941,321.821818 123.917941,321.821818 C123.917941,321.821818 132.85856,337.376364 118.679084,347.276364 C115.238052,349.676364 99.2334651,354.421818 91.6541,368.485455 C67.9913222,412.397576 40.5752429,499.952121 30.9312587,504.23697 C18.2009571,509.891515 12.5406873,493.391515 12.5406873,493.391515"/>
      <path fill="#000000" fill-opacity=".1" d="M359.622856 538.645455C359.622856 538.645455 427.964475 521.933333 436.962697 514.136364 446.64003 505.745455 398.811205 367.072727 379.914332 335.354545 377.043268 330.533333 363.063887 312.051515 366.225998 347.275758 367.938935 366.384848 379.292824 492.463636 369.748887 508.012121 360.204951 523.560606 359.622856 538.645455 359.622856 538.645455M339.549665 779.363939L332.270443 481.560909C332.270443 481.560909 317.442173 473.954848 310.329697 493.751818 303.217221 513.548788 266.808983 790.863939 266.808983 790.863939 309.665744 786.054848 339.549665 779.363939 339.549665 779.363939"/>
      <path fill="#37BEC0" d="M321.41376,84.2136364 C339.549665,49.3651515 258.680871,-6.98939394 208.760141,0.88030303 C99.8143476,18.0530303 81.1478873,43.0742424 91.6528873,78.9106061 C102.157887,114.74697 125.720617,106.940909 125.720617,106.940909 C136.850157,82.6984848 147.834173,81.319697 158.457411,80.4257576 C221.420713,75.1227273 253.211602,67.0075758 273.581903,84.2136364 C279.900062,89.55 292.290808,98.6409091 294.215967,110.695455 C294.215967,110.695455 306.503633,112.862121 321.41376,84.2136364"/>
      <path fill="#B3B3B3" d="M156.236657 214.892121C139.286165 203.822424 129.572451 193.97697 128.799356 186.037576 128.347625 181.395152 130.312197 175.749697 131.021625 175.055758L132.225229 179.652727C136.102832 184.716364 146.501721 194.167879 161.772625 204.137576L156.236657 214.892121zM262.421137 214.289394L255.787676 204.137879C279.696025 188.528788 286.820629 180.862121 286.905517 180.592424 286.902486 180.598485 288.157629 175.525758 288.157629 175.525758 299.908676 190.010606 284.646867 199.774242 262.421137 214.289394"/>
      <path fill="#FFFFFF" fill-opacity=".1" d="M208.759535,0.88030303 C99.7318841,17.5136364 82.7450111,42.6439394 91.652281,78.9106061 C95.7997095,95.7984848 105.904519,95.7984848 105.904519,95.7984848 C117.034059,71.5560606 147.512202,61.8075758 158.171821,61.9227273 C211.236471,62.4954545 248.442059,50.3742424 297.289551,31.7015152 C297.289551,31.7015152 255.105837,-6.18939394 208.759535,0.88030303"/>
      <path fill="#CCCCCC" d="M255.107352,172.065758 C267.567829,183.708182 272.461067,234.311212 256.583813,251.038485 C240.706559,267.765758 177.80086,264.832424 168.12959,251.038485 C158.458321,237.244545 150.59094,198.326364 158.170305,186.205152 C162.866479,178.696061 184.018971,168.832424 210.604352,170.650606 C226.933337,171.768788 250.365702,167.635455 255.107352,172.065758"/>
      <path fill="#FFFFFF" fill-opacity=".2" d="M246.844935,194.109091 C256.588967,203.215152 259.117443,231.730303 246.699411,244.812121 C234.281379,257.893939 185.088268,255.6 177.524062,244.812121 C169.959856,234.024242 163.808443,203.587879 169.735506,194.109091 C173.406951,188.236364 189.811729,184.781818 210.603443,186.206061 C223.376189,187.081818 243.13711,190.645455 246.844935,194.109091"/>
    </g>
    <g filter="url(#b)" transform="translate(0 91.91)">
      <path fill="#42210B" d="M120.05606,325.245455 C172.465854,305.924242 285.886505,304.863636 311.877663,317.187879 C326.575568,324.157576 311.877663,236.115152 311.877663,236.115152 L200.479187,168.239394 L138.119203,190.863636 C138.119203,190.863636 100.998505,332.269697 120.05606,325.245455"/>
      <path fill="#603813" d="M128.178108,179.552424 C128.178108,179.552424 135.466425,231.637273 131.543346,244.364545 C127.620267,257.088788 112.570679,263.452424 112.570679,263.452424 C112.570679,263.452424 116.702949,271.737273 125.343425,271.482727 C133.983902,271.231212 157.455679,259.537273 157.455679,259.537273 L151.671108,170.825152 L128.214489,168.003939 L128.178108,179.552424 Z"/>
      <path fill="#FAAD40" d="M29.2946794 539.196061C29.2946794 539.196061 13.4962508 563.250606 17.1525365 570.320303 20.8057905 577.39.999393651 769.271818.999393651 769.271818L34.3971079 778.362727C34.3971079 778.362727 56.1741397 597.18697 61.8344095 581.632424 67.4916476 566.077879 83.0536 546.274848 83.0536 546.274848L29.2946794 539.196061zM431.080157 539.196061C431.080157 539.196061 446.878586 563.474848 443.2223 570.547576 439.569046 577.617273 459.375443 769.726364 459.375443 769.726364L422.172887 780.705152C422.172887 780.705152 404.200697 597.414242 398.540427 581.859697 392.883189 566.305152 377.321237 546.38697 377.321237 546.38697L431.080157 539.196061z"/>
      <path fill="#F9E8D8" d="M188.37009,318.146667 C188.37009,318.146667 103.111329,341.934545 87.0642968,354.189091 C71.0142333,366.443636 11.4919635,514.470909 11.4919635,534.670909 C11.4919635,554.867879 69.9106778,566.122424 82.0952651,567.949697 C94.2828841,569.773939 111.348583,521.237576 111.348583,521.237576 L116.202408,792.328485 C116.202408,792.328485 190.762138,809.273939 235.995789,806.786061 C281.22944,804.298182 350.644297,790.019394 350.644297,790.019394 L343.365075,511.119394 C343.365075,511.119394 364.311408,568.97697 370.717487,568.198182 C377.123567,567.419394 436.60036,550.225455 448.057329,543.561818 C458.992837,537.201212 399.955646,364.386061 382.977868,354.016364 C366.003122,343.646667 266.865027,317.249697 247.583122,318.17697 C228.301217,319.104242 188.37009,318.146667 188.37009,318.146667"/>
      <path fill="#FAAD40" d="M250.474195,298.333636 C250.474195,259.506364 224.528513,266.282121 224.528513,266.282121 C224.528513,266.282121 198.58283,259.506364 198.58283,298.333636 C198.58283,328.500303 164.618179,351.124545 224.528513,351.124545 C284.438846,351.124545 250.474195,328.500303 250.474195,298.333636"/>
      <path fill="#FAAD40" d="M196.233833 325.499091C196.233833 325.499091 158.14904 334.156667 148.132151 339.814242 138.118294 345.468788 181.411627 364.626364 222.303817 364.659697 263.19904 364.69303 311.45231 346.326364 318.055452 341.608182 324.655563 336.89 222.303817 318.556667 222.303817 318.556667L196.233833 325.499091zM221.744157 303.99C192.933475 303.99 125.707538 248.368788 141.860681 105.077879 146.205173 66.5324242 221.744157 68.3112121 221.744157 68.3112121 221.744157 68.3112121 295.776363 66.7657576 301.627633 105.077879 321.970649 238.247576 250.55484 303.99 221.744157 303.99"/>
      <path fill="#461A00" d="M251.395846,164.55697 C251.395846,169.050909 255.040005,172.693333 259.536084,172.693333 C264.032163,172.693333 267.679354,169.050909 267.679354,164.55697 C267.679354,160.06303 264.032163,156.420606 259.536084,156.420606 C255.040005,156.420606 251.395846,160.06303 251.395846,164.55697"/>
      <path fill="#FBB03B" d="M330.790908,147.984242 C330.790908,171.666061 332.346194,190.866061 315.21986,190.866061 C298.093527,190.866061 308.295352,171.666061 308.295352,147.984242 C308.295352,124.302424 311.393797,122.072121 315.21986,122.072121 C319.045924,122.072121 330.790908,124.302424 330.790908,147.984242"/>
      <path fill="#461A00" d="M192.002122,164.55697 C192.002122,169.050909 188.357963,172.693333 183.861884,172.693333 C179.365805,172.693333 175.718614,169.050909 175.718614,164.55697 C175.718614,160.06303 179.365805,156.420606 183.861884,156.420606 C188.357963,156.420606 192.002122,160.06303 192.002122,164.55697"/>
      <path fill="#000000" fill-opacity=".1" d="M200.477975 199.349394C201.393562 219.028182 216.746324 227.631212 221.700197 227.631212 226.651038 227.631212 242.006832 219.028182 242.919387 199.349394 242.919387 199.349394 229.479657 212.076667 221.700197 212.076667 213.917705 212.076667 200.477975 199.349394 200.477975 199.349394M198.602233 296.781818L196.592186 316.666667C196.592186 316.666667 216.165138 329.915152 225.360424 329.915152 233.315725 329.915152 247.107138 320.657576 251.800281 309.190909 254.340884 302.984848 249.92363 299.372727 250.244995 292.463636 250.244995 292.463636 234.90436 302.70303 221.698075 302.70303 208.494821 302.70303 198.602233 296.781818 198.602233 296.781818"/>
      <path fill="#FBB03B" d="M112.60706,147.984242 C112.60706,171.666061 111.051775,190.866061 128.178108,190.866061 C145.304441,190.866061 135.102616,171.666061 135.102616,147.984242 C135.102616,124.302424 132.004171,122.072121 128.178108,122.072121 C124.352044,122.072121 112.60706,124.302424 112.60706,147.984242"/>
      <path fill="#000000" fill-opacity=".1" d="M138.117687,130.531515 C138.117687,130.531515 158.024132,134.416364 192.00091,132.846667 C231.601576,131.016364 240.9151,111.334545 267.618719,121.173939 C294.322338,131.016364 291.005608,135.634545 300.910322,138.655758 C310.812005,141.67697 300.910322,138.655758 300.910322,138.655758 L300.81937,61.0042424 L136.814037,98.6830303 L138.117687,130.531515 Z"/>
      <path fill="#603813" d="M344.312192,288.906667 C329.547589,270.458182 320.446287,252.285455 340.5407,203.591515 C360.347097,155.588485 346.319208,103.427879 312.39397,59.8248485 C296.101367,33.24 309.525938,4.20969697 237.26124,0.797575758 C214.301827,-0.284242424 195.647494,0.436969697 132.459843,27.7763636 C69.2691603,55.1157576 83.609319,163.788485 100.032287,203.591515 C120.123668,252.285455 111.025398,270.458182 96.2607952,288.906667 C79.2830175,310.118788 50.9877317,298.333939 85.8831286,322.618788 C120.781557,346.900606 183.860065,283.476364 183.860065,283.476364 C183.860065,283.476364 153.791208,246.870303 149.076843,224.803636 C143.974414,200.927879 133.912049,111.476364 144.359446,113.588485 C217.494256,128.376364 277.343954,67.370303 287.385097,101.306667 C289.728637,109.23697 292.348065,133.446061 296.92297,143.452121 C296.92297,143.452121 284.817208,197.864242 288.664494,221.973333 C292.514811,246.082424 259.138319,282.797576 259.138319,282.797576 C259.138319,282.797576 319.79143,346.900606 354.686827,322.618788 C389.585256,298.333939 361.28997,310.118788 344.312192,288.906667"/>
      <path fill="#FFFFFF" fill-opacity=".1" d="M102.748429,82.5969697 C102.748429,82.5969697 108.520873,55.4454545 127.384397,44.9090909 C146.244889,34.3757576 206.606952,13.6363636 206.606952,13.6363636 C206.606952,13.6363636 218.397413,34.1545455 200.476762,43.8030303 C182.559143,53.4515152 153.933397,41 135.01227,61.0030303 C120.969222,75.8545455 117.009762,88.1363636 102.748429,82.5969697"/>
      <polygon fill="#9FDAF1" points="129.773 500.206 219.152 500.206 219.152 427.824 129.773 427.824"/>
      <polygon fill="#FFFFFF" points="136.925 494.009 212.003 494.009 212.003 448.503 136.925 448.503"/>
      <polygon fill="#FAAD40" points="174.464 459.191 207.889 459.191 207.889 453.158 174.464 453.158"/>
      <polygon fill="#9FDAF1" points="174.464 470.048 207.889 470.048 207.889 464.015 174.464 464.015"/>
      <polygon fill="#9FDAF1" points="174.464 479.297 207.889 479.297 207.889 473.264 174.464 473.264"/>
      <polygon fill="#9FDAF1" points="174.464 489.352 207.889 489.352 207.889 483.318 174.464 483.318"/>
      <polygon fill="#9FDAF1" points="142.313 489.348 169.268 489.348 169.268 453.158 142.313 453.158"/>
      <path fill="#0EA2DC" d="M163.332719 463.714848C163.332719 467.878485 159.955354 471.254242 155.789735 471.254242 151.624116 471.254242 148.246751 467.878485 148.246751 463.714848 148.246751 459.551212 151.624116 456.175455 155.789735 456.175455 159.955354 456.175455 163.332719 459.551212 163.332719 463.714848M142.311805 489.35L169.267059 489.35 169.267059 479.689394C169.267059 476.068182 162.451694 473.134848 155.787916 473.134848 149.12717 473.134848 142.311805 476.068182 142.311805 479.689394L142.311805 489.35zM187.233489 437.57697L161.69406 437.57697 166.005203 418.67697C166.890473 414.801212 170.3406 412.049697 174.321283 412.049697L174.606267 412.049697C178.586949 412.049697 182.037076 414.801212 182.922346 418.67697L187.233489 437.57697z"/>
      <path fill="#FFFFFF" d="M179.223919,422.044848 C179.223919,424.793333 176.995586,427.020606 174.245792,427.020606 C171.495998,427.020606 169.267665,424.793333 169.267665,422.044848 C169.267665,419.296364 171.495998,417.069091 174.245792,417.069091 C176.995586,417.069091 179.223919,419.296364 179.223919,422.044848"/>
      <path fill="#FFFFFF" fill-opacity=".2" d="M23.6359254,522.694545 C23.6359254,522.694545 75.0209889,376.579394 88.2333381,369.506667 C101.445687,362.43697 135.013179,351.124848 135.013179,351.124848 C135.013179,351.124848 143.953798,366.679394 129.774322,376.579394 C126.33329,378.979394 110.328703,383.724848 102.749338,397.788485 C79.0865603,441.700606 51.670481,529.255152 42.0264968,533.54 C29.2961952,539.194545 23.6359254,522.694545 23.6359254,522.694545"/>
      <path fill="#000000" fill-opacity=".1" d="M370.718094 567.948485C370.718094 567.948485 439.059713 551.236364 448.057935 543.439394 457.735268 535.048485 409.906443 396.375758 391.00957 364.657576 388.138506 359.836364 374.159125 341.354545 377.321237 376.578788 379.034173 395.687879 390.388062 521.766667 380.844125 537.315152 371.300189 552.863636 370.718094 567.948485 370.718094 567.948485M350.644903 790.018485L343.365681 510.863939C343.365681 510.863939 328.537411 503.257879 321.424935 523.054848 314.312459 542.851818 277.079586 802.642727 277.079586 802.642727 313.860729 800.194242 350.644903 790.018485 350.644903 790.018485"/>
    </g>
  </g>
</svg>
