<svg xmlns="http://www.w3.org/2000/svg" width="909" height="900" viewBox="0 0 909 900">
  <defs>
    <filter id="a" width="200%" height="200%" x="-50%" y="-50%" filterUnits="objectBoundingBox">
      <feOffset in="SourceAlpha" result="shadowOffsetOuter1"/>
      <feGaussianBlur stdDeviation="4" in="shadowOffsetOuter1" result="shadowBlurOuter1"/>
      <feColorMatrix values="0 0 0 0 0 0 0 0 0 0 0 0 0 0 0 0 0 0 0.2 0" in="shadowBlurOuter1" result="shadowMatrixOuter1"/>
      <feMerge>
        <feMergeNode in="shadowMatrixOuter1"/>
        <feMergeNode in="SourceGraphic"/>
      </feMerge>
    </filter>
  </defs>
  <g fill="none" fill-rule="evenodd" filter="url(#a)">
    <path fill="#42210B" d="M118.159164,337.67332 C168.060856,319.268806 276.05126,318.260545 300.798936,329.998502 C314.792118,336.637972 300.798936,252.774787 300.798936,252.774787 L194.731879,188.122724 L135.354916,209.672409 C135.354916,209.672409 100.012274,344.363955 118.159164,337.67332 L118.159164,337.67332 Z"/>
    <path fill="#B3B3B3" d="M263.127508,318.697859 C258.47114,320.645156 167.291216,318.697859 167.291216,318.697859 L169.657024,332.452337 L255.563544,343.973593 L263.127508,318.697859 Z"/>
    <path fill="#FAAD40" d="M240.248098,303.89449 C240.248098,267.491777 215.933853,271.515789 215.933853,271.515789 C215.933853,271.515789 191.619608,267.491777 191.619608,303.89449 C191.619608,332.176946 159.789558,353.386531 215.933853,353.386531 C272.078148,353.386531 240.248098,332.176946 240.248098,303.89449"/>
    <path fill="#FAAD40" d="M189.418443 329.361943C189.418443 329.361943 132.371169 336.732778 122.986195 342.035927 113.601222 347.339075 124.506212 415.735245 215.993149 415.846605 337.678751 415.991072 309.361294 349.951523 315.549718 345.530226 321.735132 341.105919 213.850076 322.851892 213.850076 322.851892L189.418443 329.361943zM213.324541 309.197037C158.360141 309.197037 123.327522 264.039012 138.464478 129.702614 142.533909 93.567766 213.324541 95.2351578 213.324541 95.2351578 213.324541 95.2351578 282.700505 93.7874765 288.184604 129.702614 307.246515 254.549325 268.288942 309.197037 213.324541 309.197037"/>
    <path fill="#461A00" d="M241.111648,185.464529 C241.111648,189.678154 244.527923,193.0942 248.74183,193.0942 C252.952727,193.0942 256.369002,189.678154 256.369002,185.464529 C256.369002,181.250903 252.952727,177.834857 248.74183,177.834857 C244.527923,177.834857 241.111648,181.250903 241.111648,185.464529"/>
    <path fill="#FBB03B" d="M315.514201,169.927989 C315.514201,192.130785 316.971009,210.128985 300.922042,210.128985 C284.873075,210.128985 294.432625,192.130785 294.432625,169.927989 C294.432625,147.725193 297.337211,145.636438 300.922042,145.636438 C304.506873,145.636438 315.514201,147.725193 315.514201,169.927989"/>
    <path fill="#461A00" d="M185.452856,185.464529 C185.452856,189.678154 182.036581,193.0942 177.822674,193.0942 C173.611776,193.0942 170.195501,189.678154 170.195501,185.464529 C170.195501,181.250903 173.611776,177.834857 177.822674,177.834857 C182.036581,177.834857 185.452856,181.250903 185.452856,185.464529"/>
    <path fill="#000000" fill-opacity=".1" d="M193.39577 218.082504C194.253601 236.532164 208.641084 246.92477 213.282402 246.92477 217.92372 246.92477 232.311204 236.532164 233.169035 218.082504 233.169035 218.082504 220.575472 230.013083 213.282402 230.013083 205.989333 230.013083 193.39577 218.082504 193.39577 218.082504M191.536233 306.428685C191.536233 306.428685 190.874047 315.807011 188.664756 320.183162 185.170223 327.114576 208.096888 333.501228 216.714329 333.501228 224.169935 333.501228 239.704203 333.60055 244.101716 322.852795 244.101716 322.852795 239.948008 310.374444 240.249001 303.89449 240.249001 303.89449 225.656842 307.990736 213.283004 307.990736 200.909167 307.990736 191.536233 306.428685 191.536233 306.428685"/>
    <path fill="#FBB03B" d="M111.050303,169.927989 C111.050303,192.130785 109.593495,210.128985 125.642462,210.128985 C141.691428,210.128985 132.131879,192.130785 132.131879,169.927989 C132.131879,147.725193 129.227293,145.636438 125.642462,145.636438 C122.05763,145.636438 111.050303,147.725193 111.050303,169.927989"/>
    <path fill="#000000" fill-opacity=".1" d="M134.957003,153.565879 C134.957003,153.565879 153.609562,157.207656 185.451652,155.735896 C222.564135,154.020349 231.289933,135.567679 256.314523,144.795519 C281.339112,154.020349 278.23286,158.351354 287.512486,161.183512 C296.792112,164.01567 287.512486,161.183512 287.512486,161.183512 L287.428208,88.3841038 L133.73497,123.706324 L134.957003,153.565879 Z"/>
    <path fill="#FFFFFF" d="M101.811913,108.627263 C101.811913,108.627263 107.220764,83.173956 124.898105,73.2960141 C142.575446,63.4180723 199.141131,43.9752007 199.141131,43.9752007 C199.141131,43.9752007 210.187588,63.2104007 193.395168,72.2576565 C176.602747,81.3019024 149.778218,69.63016 132.046698,88.3838029 C118.887267,102.306825 115.176019,113.819052 101.811913,108.627263"/>
    <path fill="#603813" d="M330.272809,305.362036 C316.213409,287.791218 307.550819,270.479237 326.681958,224.09926 C345.539193,178.375405 332.184117,128.690742 299.884518,87.1594437 C284.371319,61.835555 297.151498,34.1821333 228.347422,30.934632 C206.486273,29.9022938 188.724654,30.5915225 128.562097,56.6317276 C68.3995411,82.6719326 82.0495907,186.182651 97.6861967,224.09926 C116.817336,270.479237 108.154746,287.791218 94.0953457,305.362036 C77.9320013,325.56637 50.993094,314.340068 84.216743,337.472871 C117.443402,360.602665 177.06417,300.471221 177.06417,300.471221 C177.06417,300.471221 141.751627,273.528096 144.385319,244.300584 C146.838415,217.041437 132.09877,136.765854 142.046601,138.779365 C211.681419,152.864913 266.513382,94.3466848 276.069922,126.671211 C278.303293,134.22263 280.795518,157.2832 285.150892,166.812013 C285.150892,166.812013 273.625856,218.645625 277.291955,241.606874 C280.955044,264.571132 249.176164,299.541213 249.176164,299.541213 C249.176164,299.541213 306.924753,360.602665 340.151412,337.472871 C373.378071,314.340068 346.436154,325.56637 330.272809,305.362036"/>
    <path fill="#FFFFFF" fill-opacity=".2" d="M100.274138,108.849382 C100.274138,108.849382 105.770277,82.9867507 123.730552,72.9523027 C141.690826,62.9178547 199.162502,43.161971 199.162502,43.161971 C199.162502,43.161971 210.386545,62.7071735 193.32323,71.8958866 C176.262926,81.0876095 149.007975,69.2292637 130.993522,88.28087 C117.623396,102.426613 113.851949,114.125443 100.274138,108.849382"/>
    <path fill="#9FDAF1" d="M142.946872,353.333559 C142.946872,353.333559 159.769392,344.138827 182.951902,356.114552 C206.134412,368.090278 222.300766,367.006774 243.614107,356.129601 C264.924438,345.249418 281.960663,345.535343 281.960663,345.535343 C281.960663,345.535343 265.484286,427.950846 234.123786,488.145495 L189.233633,488.145495 L142.946872,353.333559 Z"/>
    <path fill="#31363F" d="M272.470643,332.450832 C272.470643,332.450832 211.022845,516.586263 208.154378,524.345353 C198.844653,549.512736 215.411328,753.792306 216.579183,771.200598 C216.579183,771.200598 321.035925,771.417299 322.540891,766.758233 C323.338524,764.284233 322.835865,695.556993 318.134348,606.49299 C315.816699,562.584004 337.855434,495.322503 338.174487,494.922209 C338.857742,494.061425 379.365431,563.86314 379.937319,580.591233 C380.512216,597.316316 384.795352,771.059141 384.795352,771.059141 L429.703564,756.010478 C429.703564,756.010478 422.816835,544.050071 419.960408,528.242956 C417.106991,512.438851 361.498464,366.238088 356.092623,359.538424 C339.959378,339.547781 272.470643,332.450832 272.470643,332.450832"/>
    <path fill="#000000" fill-opacity=".1" d="M147.959616,325.464039 C147.959616,325.464039 238.1884,528.482531 241.059877,536.244631 C250.369602,561.412014 231.030778,753.736926 229.862924,771.145219 L175.02795,770.690749 C175.02795,770.690749 183.19089,684.690655 187.892407,595.626652 C190.210056,551.717666 169.57094,488.251438 175.973069,488.251438 C177.071695,488.251438 145.765374,376.039583 151.011688,369.21351 C156.261013,362.384427 147.959616,325.464039 147.959616,325.464039"/>
    <path fill="#31363F" d="M139.402374,325.464039 C139.402374,325.464039 229.631159,528.482531 232.502635,536.244631 C241.812361,561.412014 227.060675,759.497554 225.895831,776.905847 C225.895831,776.905847 100.866192,773.543976 99.3612248,768.88491 C98.5635924,766.41091 109.029132,684.690655 113.730649,595.626652 C116.048298,551.717666 95.4061719,488.251438 101.811311,488.251438 C102.909937,488.251438 66.3542911,563.864946 65.7824036,580.590029 C65.2075063,597.318122 44.9085129,771.060946 44.9085129,771.060946 L0.000300993377,759.022017 C0.000300993377,759.022017 23.4145758,532.082171 26.267993,516.275056 C29.1214103,500.470951 71.6036156,375.855989 76.8499301,369.026906 C82.0992546,362.197823 139.402374,325.464039 139.402374,325.464039"/>
    <polygon fill="#000000" fill-opacity=".1" points="205.327 469.255 225.313 429.662 173.885 351.623"/>
    <path fill="#F2F2F2" d="M167.289711,318.697859 C167.289711,318.697859 174.718228,375.310927 204.15839,438.187247 C215.186787,461.735394 217.188393,497.566258 217.188393,497.566258 C217.188393,497.566258 132.515946,405.585825 133.73497,398.597227 C134.957003,391.611638 151.623006,380.990292 151.942059,376.114525 C152.261112,371.235749 121.713294,378.946683 120.241436,374.14917 C118.769579,369.348647 127.546546,328.341042 127.546546,328.341042 L167.289711,318.697859 Z"/>
    <path fill="#F2F2F2" d="M263.127508,318.697859 C263.127508,318.697859 245.374918,379.957954 215.934756,442.831264 C204.906359,466.382421 217.189898,497.566258 217.189898,497.566258 C217.189898,497.566258 297.901273,405.585825 296.682249,398.597227 C295.460216,391.611638 278.794213,380.990292 278.47516,376.114525 C278.156107,371.235749 308.703925,378.946683 310.175782,374.14917 C311.64764,369.348647 302.870673,328.341042 302.870673,328.341042 L263.127508,318.697859 Z"/>
    <polygon fill="#9FDAF1" points="128.356 583.379 219.876 583.379 219.876 509.235 128.356 509.235"/>
    <polygon fill="#FFFFFF" points="135.676 577.029 212.552 577.029 212.552 530.411 135.676 530.411"/>
    <polygon fill="#FAAD40" points="174.116 541.364 208.342 541.364 208.342 535.185 174.116 535.185"/>
    <polygon fill="#9FDAF1" points="174.116 552.488 208.342 552.488 208.342 546.309 174.116 546.309"/>
    <polygon fill="#9FDAF1" points="174.116 561.959 208.342 561.959 208.342 555.78 174.116 555.78"/>
    <polygon fill="#9FDAF1" points="174.116 572.258 208.342 572.258 208.342 566.08 174.116 566.08"/>
    <polygon fill="#9FDAF1" points="141.193 572.258 168.794 572.258 168.794 535.185 141.193 535.185"/>
    <path fill="#0EA2DC" d="M162.4079 545.998572C162.4079 550.263363 158.949486 553.721545 154.68441 553.721545 150.419333 553.721545 146.96092 550.263363 146.96092 545.998572 146.96092 541.733781 150.419333 538.275598 154.68441 538.275598 158.949486 538.275598 162.4079 541.733781 162.4079 545.998572M142.833397 572.418304L169.922801 572.418304 169.922801 564.535815C169.922801 560.271024 162.467195 556.812842 156.378099 556.812842 150.289003 556.812842 142.833397 560.271024 142.833397 564.535815L142.833397 572.418304zM187.190189 519.223691L161.039885 519.223691 165.455458 499.865092C166.361448 495.892245 169.8921 493.075136 173.96755 493.075136L174.262524 493.075136C178.334964 493.075136 181.868626 495.892245 182.774617 499.865092L187.190189 519.223691z"/>
    <path fill="#FFFFFF" d="M178.988722,503.313343 C178.988722,506.127442 176.707192,508.411829 173.889894,508.411829 C171.075606,508.411829 168.794076,506.127442 168.794076,503.313343 C168.794076,500.499243 171.075606,498.214856 173.889894,498.214856 C176.707192,498.214856 178.988722,500.499243 178.988722,503.313343"/>
    <path fill="#A67C52" d="M735.657613,255.89618 C735.657613,222.063778 713.182437,225.768759 713.182437,225.768759 C713.182437,225.768759 690.710272,222.063778 690.710272,255.89618 C690.710272,282.071823 661.074464,301.827707 713.182437,301.827707 C765.046606,301.827707 735.657613,282.071823 735.657613,255.89618"/>
    <path fill="#A67C52" d="M688.239718 279.603542C688.239718 279.603542 635.141476 286.516897 626.496947 291.455868 617.852417 296.394839 627.980844 359.864077 712.936225 360.110875 826.046526 360.357673 799.622318 298.865829 805.302063 294.914051 810.981808 290.962272 710.714894 273.924177 710.714894 273.924177L688.239718 279.603542zM710.466875 260.835151C659.34315 260.835151 626.745567 218.852394 640.823027 94.1441298 644.525246 60.5585255 710.466875 62.0393138 710.466875 62.0393138 710.466875 62.0393138 774.924607 60.8053235 780.110723 94.1441298 797.893412 209.961644 761.5906 260.835151 710.466875 260.835151"/>
    <path fill="#461A00" d="M743.31368,138.594266 C747.268733,138.594266 750.474313,141.799631 750.474313,145.75442 C750.474313,149.712218 747.268733,152.917583 743.31368,152.917583 C739.358627,152.917583 736.153048,149.712218 736.153048,145.75442 C736.153048,141.799631 739.358627,138.594266 743.31368,138.594266"/>
    <path fill="#FBB03B" d="M805.54978,131.432608 C805.54978,152.175684 806.783853,168.723193 791.965949,168.723193 C777.148045,168.723193 786.039389,151.928886 786.039389,131.432608 C786.039389,110.93633 788.75736,108.958936 791.965949,108.958936 C795.177548,108.958936 805.54978,110.93633 805.54978,131.432608"/>
    <path fill="#461A00" d="M677.62007,138.594266 C681.575123,138.594266 684.780702,141.799631 684.780702,145.75442 C684.780702,149.712218 681.575123,152.917583 677.62007,152.917583 C673.665017,152.917583 670.459437,149.712218 670.459437,145.75442 C670.459437,141.799631 673.665017,138.594266 677.62007,138.594266"/>
    <path fill="#000000" fill-opacity=".1" d="M691.944345 176.130746C692.684788 193.171851 706.021805 202.802995 710.467477 202.802995 714.913149 202.802995 728.247156 193.171851 728.99061 176.130746 728.99061 176.130746 717.381295 187.242679 710.467477 187.242679 703.797464 187.242679 691.944345 176.130746 691.944345 176.130746M690.462554 255.89618L688.734852 271.947084C688.734852 271.947084 705.774087 283.555622 713.678174 283.555622 720.591991 283.555622 734.916266 283.555622 739.115124 273.67768 741.339465 268.245113 735.163081 262.069142 735.65671 256.142978 735.65671 256.142978 722.075889 259.847959 710.713389 259.847959 699.353899 259.847959 690.462554 255.89618 690.462554 255.89618"/>
    <path fill="#FBB03B" d="M615.631086,131.432608 C615.631086,152.175684 614.397013,168.723193 629.214917,168.723193 C644.032821,168.723193 635.141476,151.928886 635.141476,131.432608 C635.141476,110.93633 632.423506,108.958936 629.214917,108.958936 C626.003318,108.958936 615.631086,110.93633 615.631086,131.432608"/>
    <path fill="#000000" d="M637.858243,116.121497 C637.858243,116.121497 655.147302,119.57968 684.78311,118.095882 C719.35822,116.615093 727.921481,99.3301998 751.383915,107.971142 C774.846349,116.615093 771.908653,120.566872 780.938455,123.281651 C789.968256,125.999439 780.938455,123.281651 780.938455,123.281651 L780.938455,55.6198555 L637.283345,88.4620559 L637.858243,116.121497 Z"/>
    <path fill="#000000" d="M823.825195,176.130746 C832.716539,131.680008 818.885894,92.6618366 789.4969,54.6308574 C775.41944,31.4167911 787.025745,6.22834031 724.0489,3.26375386 C704.04488,2.27656162 687.746089,3.0169558 632.920145,26.7246182 C577.844377,50.4322807 585.501649,147.730911 599.08548,182.797304 C612.419486,217.866706 626.743761,227.251052 677.620672,234.164407 C677.620672,234.164407 651.440268,217.619908 647.24442,198.35762 C642.798748,177.611535 634.154218,99.575192 643.045563,101.552586 C706.762851,114.392105 758.873834,61.2974148 767.515354,90.9312404 C769.49288,97.8476056 771.714212,118.83748 775.913069,127.728229 C775.913069,127.728229 765.294023,175.143554 768.752437,196.133428 C772.207841,217.123302 743.806106,238.609782 743.806106,238.609782 C743.806106,238.609782 810.981808,240.830965 823.825195,176.130746"/>
    <path fill="#FFFFFF" fill-opacity=".2" d="M606.987158,74.3867412 C606.987158,74.3867412 611.926459,50.6790787 628.472065,41.5415311 C644.773867,32.4039834 697.378479,14.3786958 697.378479,14.3786958 C697.378479,14.3786958 707.750711,32.1571853 691.945549,40.5543388 C676.384191,48.9514923 651.44087,38.0863582 634.895264,55.6180497 C622.79232,68.7073761 619.336916,79.3257121 606.987158,74.3867412"/>
    <path fill="#9B5CA4" d="M855.189608,305.53329 C852.721462,298.866732 794.683919,283.306416 794.683919,283.306416 C794.683919,283.306416 778.631942,318.622616 750.477022,332.945933 C722.322101,347.26925 701.080999,348.750038 670.457932,332.945933 C640.081681,317.138818 635.142379,283.306416 635.142379,283.306416 C635.142379,283.306416 593.650442,293.434165 589.945214,298.373136 C586.242995,303.312107 635.142379,465.557754 635.142379,465.557754 L622.612025,689.972434 C651.254555,696.930935 681.164267,700.647955 711.94987,700.647955 C749.745608,700.647955 786.232025,695.061892 820.659648,684.714431 C817.875459,578.100679 817.767101,490.920769 817.156085,469.756331 C816.415641,444.814678 857.660764,312.199847 855.189608,305.53329"/>
    <path fill="#000000" d="M902.361892 465.311257C899.643922 450.494344 859.142253 313.18734 854.449766 307.014379 849.510465 300.101024 825.307587 284.047111 825.307587 284.047111 825.307587 284.047111 772.702975 479.634574 768.504117 486.794727 760.572942 500.013472 764.166803 655.938681 768.991726 708.395307 787.812842 705.539071 806.176448 701.295348 823.977197 695.76346 821.051541 676.510202 818.601455 558.941023 817.403501 536.681042 815.18217 495.932275 836.913892 450.98794 837.410531 450.494344 838.150975 449.75395 864.821998 498.403265 865.315627 513.960572 865.511273 520.094407 868.656654 618.732368 869.944905 641.943425 883.898958 635.493568 894.379548 631.231787 907.349352 623.186772 899.330889 572.689481 903.520717 471.634705 902.361892 465.311257M615.384572 284.048616C615.384572 284.048616 582.783979 300.346317 577.844678 306.522288 572.905377 312.695249 539.56434 438.887311 536.84637 453.704224 535.579188 460.629618 530.152277 512.935758 524.734397 566.68356 537.984125 574.277115 551.736513 581.08513 565.93437 587.053429 569.811165 552.074319 573.19433 520.243389 573.399006 513.962077 573.892635 498.40176 594.146479 449.752445 594.886923 450.495849 595.380552 450.989445 617.115284 495.93378 614.890943 536.679537 613.64483 559.860497 611.041238 678.281429 607.956056 698.154693 625.862152 703.280267 644.307026 707.117676 663.19737 709.555559 668.073463 656.822037 671.778691 500.111288 663.790327 486.796232 659.344655 479.633069 615.384572 284.048616 615.384572 284.048616"/>
    <path fill="#000000" fill-opacity=".1" d="M711.948967,700.637421 C743.330536,700.637421 773.806116,694.295915 802.954314,682.42553 C800.766092,588.350323 797.479245,478.185086 794.189387,485.703398 C788.509642,498.690394 653.911424,493.817637 653.911424,493.817637 L642.588053,690.139474 C665.075268,697.007684 688.251758,700.637421 711.948967,700.637421"/>
    <path fill="#FAAD40" d="M316.999001 651.586005C316.999001 651.586005 302.51219 673.858026 305.865256 680.343999 309.215313 686.829972 291.053372 837.617568 291.053372 837.617568L321.676438 854.721877C321.676438 854.721877 341.647349 704.990698 346.836475 690.721556 352.025601 676.452415 366.295697 658.183339 366.295697 658.183339L316.999001 651.586005zM685.426032 651.586005C685.426032 651.586005 699.912843 673.858026 696.559777 680.343999 693.209721 686.829972 711.371661 837.626597 711.371661 837.626597L677.257072 856.455483C677.257072 856.455483 660.777684 704.990698 655.588559 690.721556 650.399433 676.452415 636.129337 658.183339 636.129337 658.183339L685.426032 651.586005z"/>
    <path fill="#40B8BC" d="M453.833601,451.393953 C453.833601,451.393953 384.689402,470.626143 369.970826,481.870504 C355.25526,493.111854 300.67613,628.904963 300.67613,647.435885 C300.67613,665.963798 354.240912,676.287181 365.416796,677.963602 C376.58967,679.637013 392.241326,635.111031 392.241326,635.111031 L398.724723,717.412165 L396.693018,883.799203 C396.693018,883.799203 465.060654,899.344471 506.540551,897.060084 C548.017438,894.778707 611.668508,881.677342 611.668508,881.677342 L601.552121,718.263919 L604.995485,625.829016 C604.995485,625.829016 624.201872,678.905648 630.074253,678.189331 C635.949644,677.476025 690.489644,661.705027 700.994313,655.59226 C711.023412,649.756389 656.886743,491.224752 641.319366,481.710988 C625.751988,472.197224 534.845968,447.983926 517.165617,448.835681 C499.482256,449.684425 453.833601,451.393953 453.833601,451.393953"/>
    <path fill="#B3B3B3" d="M493.98401,449.549288 C513.172338,449.546278 539.494209,456.561965 547.789586,458.915575 C549.992858,447.448495 550.417259,439.228916 550.417259,439.228916 C550.417259,439.228916 517.040103,429.095146 493.98401,429.098156 C475.888288,429.101166 442.754937,436.526176 442.754937,436.526176 C442.754937,436.526176 443.570629,444.69158 446.776209,456.116524 C456.140113,454.160198 479.725954,449.552298 493.98401,449.549288"/>
    <path fill="#FAAD40" d="M519.814961,430.630712 C519.814961,395.010528 496.024444,401.228636 496.024444,401.228636 C496.024444,401.228636 472.230918,395.010528 472.230918,430.630712 C472.230918,458.305202 441.087133,479.060317 496.024444,479.060317 C550.958746,479.060317 519.814961,458.305202 519.814961,430.630712"/>
    <path fill="#FAAD40" d="M422.86981 459.601493C416.819843 463.02055 446.564009 491.983205 470.408704 518.857106 482.761472 532.783138 488.185373 563.259688 500.983611 563.268718 514.269459 563.280757 514.711919 541.64981 526.556009 527.094743 548.149274 500.563952 566.160717 462.397535 570.070621 459.601493 576.123598 455.273498 513.30026 445.928279 493.985515 446.14197 475.889793 446.340612 432.053118 454.412715 422.86981 459.601493M493.470215 435.819491C467.052026 435.819491 405.408582 384.795497 420.217456 253.348442 424.202609 217.990105 493.470215 219.62138 493.470215 219.62138 493.470215 219.62138 561.356261 218.203796 566.722973 253.348442 585.375532 375.510472 519.888403 435.819491 493.470215 435.819491"/>
    <path fill="#461A00" d="M520.66015,311.319199 C520.66015,315.442533 524.001177,318.783336 528.124786,318.783336 C532.248395,318.783336 535.589422,315.442533 535.589422,311.319199 C535.589422,307.195866 532.248395,303.855063 528.124786,303.855063 C524.001177,303.855063 520.66015,307.195866 520.66015,311.319199"/>
    <path fill="#FBB03B" d="M590.054775,292.707616 C590.054775,314.431865 591.478474,332.044819 575.77565,332.044819 C560.072825,332.044819 569.427699,314.431865 569.427699,292.707616 C569.427699,270.983367 572.269077,268.936749 575.77565,268.936749 C579.285232,268.936749 590.054775,270.983367 590.054775,292.707616"/>
    <path fill="#461A00" d="M466.197506,311.319199 C466.197506,315.442533 462.856479,318.783336 458.73287,318.783336 C454.609261,318.783336 451.268234,315.442533 451.268234,311.319199 C451.268234,307.195866 454.609261,303.855063 458.73287,303.855063 C462.856479,303.855063 466.197506,307.195866 466.197506,311.319199"/>
    <path fill="#000000" fill-opacity=".1" d="M473.969757 343.235907C474.809528 361.288282 488.886988 369.179801 493.428978 369.179801 497.967959 369.179801 512.048429 361.288282 512.8882 343.235907 512.8882 343.235907 500.562522 354.910659 493.428978 354.910659 486.292425 354.910659 473.969757 343.235907 473.969757 343.235907M472.271251 428.202159C472.271251 428.202159 472.972566 437.423979 468.632241 448.704456 465.920291 455.74723 488.353327 459.602697 496.787162 459.602697 504.083241 459.602697 516.727973 451.109232 521.032178 440.590218 519.385744 434.068127 520.111138 427.570115 519.385744 423.925329 519.385744 423.925329 505.537039 434.639976 493.428075 434.639976 481.322122 434.639976 472.271251 428.202159 472.271251 428.202159"/>
    <path fill="#FBB03B" d="M400.211931,292.707616 C400.211931,314.431865 398.788233,332.044819 414.491057,332.044819 C430.193882,332.044819 420.839008,314.431865 420.839008,292.707616 C420.839008,270.983367 417.99763,268.936749 414.491057,268.936749 C410.981475,268.936749 400.211931,270.983367 400.211931,292.707616"/>
    <path fill="#42210B" d="M416.739779,209.477077 C424.574636,196.685714 425.742491,208.676488 440.34067,209.540281 C449.445719,210.079023 434.064958,250.644197 429.008269,267.625108 C426.847136,274.893612 426.001345,296.876697 421.805497,306.056381 C421.805497,306.056381 388.921971,257.033859 416.739779,209.477077"/>
    <path fill="#000000" fill-opacity=".1" d="M430.681792,263.211034 C430.681792,263.211034 442.811825,270.377207 473.97066,268.938555 C510.282501,267.259124 514.309792,257.74235 540.192213,261.080144 C553.399802,262.783652 559.705613,273.260531 559.705613,273.260531 L561.072123,219.60904 L432.078401,251.280455 L430.681792,263.211034 Z"/>
    <path fill="#603813" d="M570.015539,224.410466 C555.074228,200.019595 521.031877,169.046438 466.196904,186.409585 C446.102586,192.769149 421.82446,194.650232 416.740682,209.476174 C412.74048,221.141897 430.330533,263.139703 430.682695,263.211937 C497.74402,276.776801 546.441738,224.410466 557.069814,260.114922 C559.233957,267.383426 561.518496,294.934517 565.714344,304.114201 C565.714344,304.114201 579.608198,264.581365 570.015539,224.410466"/>
    <path fill="#FFFFFF" fill-opacity=".2" d="M428.66935,226.493502 C428.66935,226.493502 424.301936,210.803767 429.828175,208.245494 C438.936234,204.034879 472.828089,193.076443 472.828089,193.076443 C472.828089,193.076443 478.22791,203.020599 470.019821,207.694713 C461.811731,212.371838 448.70347,206.337324 440.03787,216.031672 C433.605642,223.224933 435.200907,229.178184 428.66935,226.493502"/>
    <path fill="#F2F2F2" d="M484.229116,512.040965 C484.229116,512.040965 492.003775,535.167749 495.022738,542.150328 C502.589712,559.645903 499.567738,583.046572 499.567738,583.046572 C497.274169,584.096969 483.305066,583.046572 483.305066,583.046572 C485.219384,531.194902 453.834805,522.833865 453.834805,522.833865 C461.31449,512.808446 484.229116,512.040965 484.229116,512.040965"/>
    <path fill="#000000" fill-opacity=".1" d="M513.204544,518.290072 C508.126786,522.265929 505.21317,537.531292 503.431289,543.463474 C501.661448,549.36255 500.385236,554.900458 499.467207,559.866516 C496.848564,573.99119 498.597336,583.483887 498.597336,583.483887 L502.751044,582.683298 C502.751044,582.683298 517.189697,531.791732 513.204544,518.290072"/>
    <path fill="#F2F2F2" d="M513.204544,518.290072 C507.913081,522.512727 510.038094,536.234097 504.915187,549.25119 C498.353531,565.919088 499.566534,583.047475 499.566534,583.047475 C499.566534,583.047475 505.824187,582.120478 508.692654,581.918826 C511.696568,581.705135 516.864624,581.708144 516.864624,581.708144 C517.92713,539.629075 536.375015,528.285394 536.375015,528.285394 C528.892319,518.259975 518.017428,514.449654 513.204544,518.290072"/>
    <path fill="#000000" fill-opacity=".1" d="M513.204544 518.290072C509.794289 519.710666 508.692654 532.7097 508.692654 532.7097 508.692654 532.7097 517.894021 520.616595 557.236866 540.781803 557.236866 540.781803 586.637899 505.507738 581.241087 472.698645 579.167243 460.108934 516.334875 516.986858 513.204544 518.290072M484.229116 512.040965L488.105911 523.366588C488.105911 523.366588 471.090755 510.656488 440.765672 545.807153 440.765672 545.807153 408.375775 515.038658 415.069868 463.241163 415.069868 463.241163 421.619483 461.086194 425.141106 463.557185 441.388728 474.949022 481.655623 510.9695 484.229116 512.040965"/>
    <path fill="#E6E6E6" d="M442.754636 436.526778C442.754636 436.526778 452.855974 471.626277 455.874938 478.611866 463.441911 496.107441 484.228514 512.040965 484.228514 512.040965 456.958514 516.016821 440.76507 542.433243 440.76507 542.433243 406.554163 503.279634 415.827769 461.847657 415.827769 461.847657 423.307454 451.822238 442.754636 436.526778 442.754636 436.526778M550.417861 439.228314C550.417861 439.228314 543.943493 471.628083 540.92152 478.610663 533.354546 496.106237 513.203039 518.290975 513.203039 518.290975 527.548384 523.946262 556.666483 537.604428 556.666483 537.604428 590.87739 498.450819 580.971698 461.846453 580.971698 461.846453 573.489003 451.821034 550.417861 439.228314 550.417861 439.228314"/>
    <path fill="#FFFFFF" fill-opacity=".3" d="M311.809875,636.448556 C311.809875,636.448556 358.930389,502.410122 371.045372,495.924148 C383.160356,489.438175 407.122438,479.060618 407.122438,479.060618 C407.122438,479.060618 415.321498,493.329759 402.318584,502.410122 C399.164174,504.613246 391.305236,508.962309 384.355299,521.868042 C362.656687,562.150301 337.51772,642.468021 328.674534,646.395722 C316.999001,651.584501 311.809875,636.448556 311.809875,636.448556"/>
    <path fill="#000000" fill-opacity=".1" d="M630.075457 677.962097C630.075457 677.962097 692.742278 662.633529 700.992507 655.476386 709.868801 647.7805 666.011056 520.568139 648.682868 491.473055 646.049175 487.051758 633.229868 470.094926 636.128434 502.407413 637.702629 519.936095 648.11098 635.597103 639.361103 649.860225 630.611225 664.126357 630.075457 677.962097 630.075457 677.962097M611.66911 881.678245L601.549713 718.261812 604.996087 625.59516C604.996087 625.59516 591.397206 618.6186 584.874679 636.779326 578.355163 654.940051 544.210474 893.259695 544.210474 893.259695 577.939792 891.014435 611.66911 881.678245 611.66911 881.678245"/>
  </g>
</svg>
