<svg xmlns="http://www.w3.org/2000/svg" width="764" height="900" viewBox="0 0 764 900">
  <defs>
    <filter id="a" width="200%" height="200%" x="-50%" y="-50%" filterUnits="objectBoundingBox">
      <feOffset in="SourceAlpha" result="shadowOffsetOuter1"/>
      <feGaussianBlur stdDeviation="4.5" in="shadowOffsetOuter1" result="shadowBlurOuter1"/>
      <feColorMatrix values="0 0 0 0 0 0 0 0 0 0 0 0 0 0 0 0 0 0 0.15 0" in="shadowBlurOuter1" result="shadowMatrixOuter1"/>
      <feMerge>
        <feMergeNode in="shadowMatrixOuter1"/>
        <feMergeNode in="SourceGraphic"/>
      </feMerge>
    </filter>
    <filter id="b" width="200%" height="200%" x="-50%" y="-50%" filterUnits="objectBoundingBox">
      <feOffset in="SourceAlpha" result="shadowOffsetOuter1"/>
      <feGaussianBlur stdDeviation="4.5" in="shadowOffsetOuter1" result="shadowBlurOuter1"/>
      <feColorMatrix values="0 0 0 0 0 0 0 0 0 0 0 0 0 0 0 0 0 0 0.15 0" in="shadowBlurOuter1" result="shadowMatrixOuter1"/>
      <feMerge>
        <feMergeNode in="shadowMatrixOuter1"/>
        <feMergeNode in="SourceGraphic"/>
      </feMerge>
    </filter>
  </defs>
  <g fill="none" fill-rule="evenodd">
    <g filter="url(#a)" transform="translate(324.397)">
      <path fill="#8C6239" d="M19.1994413 509.89303C19.1994413 509.89303 3.4010127 535.114242 7.05729841 542.183939 10.7105524 549.253636 3.03113968 779.362727 3.03113968 779.362727L36.428854 785.423333C36.428854 785.423333 46.0789016 569.050606 51.7391714 553.496061 57.3964095 537.941515 72.9583619 517.553636 72.9583619 517.553636L19.1994413 509.89303 19.1994413 509.89303zM420.984919 509.89303C420.984919 509.89303 436.783348 535.114242 433.127062 542.183939 429.473808 549.253636 428.057983 779.362727 428.057983 779.362727L390.855427 788.453636C390.855427 788.453636 394.105459 569.050606 388.445189 553.496061 382.787951 537.941515 367.225998 517.553636 367.225998 517.553636L420.984919 509.89303z"/>
      <path fill="#37BEC0" d="M178.274852,2.01939394 C178.274852,2.01939394 93.0160905,25.8072727 76.9690587,38.0618182 C60.9189952,50.3163636 1.3967254,198.343636 1.3967254,218.543636 C1.3967254,238.740606 59.8154397,249.995152 72.000027,251.822424 C84.187646,253.646667 101.253344,206.049697 101.253344,206.049697 L106.10717,492.540606 C106.10717,492.540606 162.994852,506.68 222.404948,506.68 C276.182059,506.68 340.549059,492.540606 340.549059,492.540606 L333.269837,195.931515 C333.269837,195.931515 354.21617,253.319394 360.622249,252.540606 C367.028329,251.761818 426.505122,234.334545 437.96209,227.670909 C448.897598,221.307273 389.860408,48.3769697 372.88263,38.0072727 C355.907884,27.6345455 256.769789,1.1830303 237.487884,2.11030303 C218.205979,3.03454545 178.274852,2.01939394 178.274852,2.01939394" transform="translate(0 286.824)"/>
      <path fill="#A67C52" d="M240.378957,269.030606 C240.378957,230.203333 214.433275,236.979091 214.433275,236.979091 C214.433275,236.979091 188.487592,230.203333 188.487592,269.030606 C188.487592,299.197273 154.522941,321.821515 214.433275,321.821515 C274.343608,321.821515 240.378957,299.197273 240.378957,269.030606"/>
      <path fill="#A67C52" d="M186.138595 296.196061C186.138595 296.196061 148.053802 304.853636 138.036913 310.511212 128.023056 316.165758 171.316389 335.323333 212.208579 335.356667 253.103802 335.39 301.357071 317.023333 307.960214 312.305152 314.560325 307.58697 212.208579 289.253636 212.208579 289.253636L186.138595 296.196061zM211.648919 274.68697C182.838237 274.68697 110.567475 212.671818 126.720617 69.3778788 131.06511 30.8354545 211.648919 39.0112121 211.648919 39.0112121 211.648919 39.0112121 285.681125 37.4627273 291.532395 75.7748485 311.875411 208.944545 240.459602 274.68697 211.648919 274.68697"/>
      <path fill="#461A00" d="M241.300608,135.253939 C241.300608,139.747879 244.944767,143.390303 249.440846,143.390303 C253.936925,143.390303 257.584116,139.747879 257.584116,135.253939 C257.584116,130.76 253.936925,127.117576 249.440846,127.117576 C244.944767,127.117576 241.300608,130.76 241.300608,135.253939"/>
      <path fill="#A67C52" d="M316.503371,118.681212 C316.503371,142.36303 318.058657,161.56303 300.932324,161.56303 C283.80599,161.56303 294.007816,142.36303 294.007816,118.681212 C294.007816,94.9993939 297.10626,92.7690909 300.932324,92.7690909 C304.758387,92.7690909 316.503371,94.9993939 316.503371,118.681212"/>
      <path fill="#461A00" d="M181.906884,135.253939 C181.906884,139.747879 178.262725,143.390303 173.766646,143.390303 C169.270567,143.390303 165.623376,139.747879 165.623376,135.253939 C165.623376,130.76 169.270567,127.117576 173.766646,127.117576 C178.262725,127.117576 181.906884,130.76 181.906884,135.253939"/>
      <path fill="#000000" d="M190.490363,171.617576 C191.405951,191.296364 206.652602,198.326667 211.603443,198.326667 C216.554284,198.326667 231.910078,189.726667 232.825665,170.047879 C232.825665,170.047879 219.385935,182.772121 211.603443,182.772121 C203.823983,182.772121 190.490363,171.617576 190.490363,171.617576"/>
      <path fill="#000000" fill-opacity=".1" d="M188.550956,266.028788 C188.550956,266.028788 188.499416,270.940909 188.214432,273.468182 C187.383733,280.883333 185.213003,286.786364 185.213003,286.786364 C185.213003,286.786364 206.071416,300.610606 215.266702,300.610606 C223.222003,300.610606 237.013416,291.35303 241.703527,279.889394 C241.703527,279.889394 240.23313,274.686364 240.348337,266.801515 C240.366527,265.595455 240.120956,262.85303 240.026971,261.628788 C240.026971,261.628788 224.807606,273.398485 211.604352,273.398485 C198.398067,273.398485 188.550956,266.028788 188.550956,266.028788"/>
      <path fill="#A67C52" d="M106.94181,121.711515 C106.94181,145.393333 105.386524,164.593333 122.512857,164.593333 C139.63919,164.593333 129.437365,145.393333 129.437365,121.711515 C129.437365,98.029697 126.338921,95.7993939 122.512857,95.7993939 C118.686794,95.7993939 106.94181,98.029697 106.94181,121.711515"/>
      <path fill="#000000" fill-opacity=".1" d="M128.022449,101.228485 C128.022449,101.228485 163.94864,96.1830303 197.795052,92.7709091 C260.106529,86.4860606 295.217179,110.695152 295.217179,110.695152 L290.724132,31.7012121 L126.718798,69.38 L128.022449,101.228485 Z"/>
      <polygon fill="#9FDAF1" points="119.678 470.903 209.057 470.903 209.057 398.521 119.678 398.521"/>
      <polygon fill="#FFFFFF" points="126.83 464.706 201.908 464.706 201.908 419.2 126.83 419.2"/>
      <polygon fill="#FAAD40" points="164.369 429.888 197.794 429.888 197.794 423.855 164.369 423.855"/>
      <polygon fill="#9FDAF1" points="164.369 440.745 197.794 440.745 197.794 434.712 164.369 434.712"/>
      <polygon fill="#9FDAF1" points="164.369 449.994 197.794 449.994 197.794 443.961 164.369 443.961"/>
      <polygon fill="#9FDAF1" points="164.369 460.048 197.794 460.048 197.794 454.015 164.369 454.015"/>
      <polygon fill="#9FDAF1" points="132.217 460.045 159.173 460.045 159.173 423.855 132.217 423.855"/>
      <path fill="#0EA2DC" d="M153.237481 434.411818C153.237481 438.575455 149.860116 441.951212 145.694497 441.951212 141.528878 441.951212 138.151513 438.575455 138.151513 434.411818 138.151513 430.248182 141.528878 426.872424 145.694497 426.872424 149.860116 426.872424 153.237481 430.248182 153.237481 434.411818M132.216567 460.04697L159.171821 460.04697 159.171821 450.386364C159.171821 446.765152 152.356456 443.831818 145.692678 443.831818 139.031932 443.831818 132.216567 446.765152 132.216567 450.386364L132.216567 460.04697zM177.138251 408.273939L151.598822 408.273939 155.909965 389.373939C156.795235 385.498182 160.245362 382.746667 164.226044 382.746667L164.511029 382.746667C168.491711 382.746667 171.941838 385.498182 172.827108 389.373939L177.138251 408.273939z"/>
      <path fill="#FFFFFF" d="M169.128681,392.741818 C169.128681,395.490303 166.900348,397.717576 164.150554,397.717576 C161.40076,397.717576 159.172427,395.490303 159.172427,392.741818 C159.172427,389.993333 161.40076,387.766061 164.150554,387.766061 C166.900348,387.766061 169.128681,389.993333 169.128681,392.741818"/>
      <path fill="#FFFFFF" fill-opacity=".1" d="M13.5406873,493.391515 C13.5406873,493.391515 64.9257508,347.276364 78.1381,340.203636 C91.3504492,333.133939 124.917941,321.821818 124.917941,321.821818 C124.917941,321.821818 133.85856,337.376364 119.679084,347.276364 C116.238052,349.676364 100.233465,354.421818 92.6541,368.485455 C68.9913222,412.397576 41.5752429,499.952121 31.9312587,504.23697 C19.2009571,509.891515 13.5406873,493.391515 13.5406873,493.391515"/>
      <path fill="#000000" fill-opacity=".1" d="M360.622856 538.645455C360.622856 538.645455 428.964475 521.933333 437.962697 514.136364 447.64003 505.745455 399.811205 367.072727 380.914332 335.354545 378.043268 330.533333 364.063887 312.051515 367.225998 347.275758 368.938935 366.384848 380.292824 492.463636 370.748887 508.012121 361.204951 523.560606 360.622856 538.645455 360.622856 538.645455M340.549665 779.363939L333.270443 481.560909C333.270443 481.560909 318.442173 473.954848 311.329697 493.751818 304.217221 513.548788 267.808983 790.863939 267.808983 790.863939 310.665744 786.054848 340.549665 779.363939 340.549665 779.363939"/>
      <path fill="#37BEC0" d="M322.41376,84.2136364 C340.549665,49.3651515 259.680871,-6.98939394 209.760141,0.88030303 C100.814348,18.0530303 82.1478873,43.0742424 92.6528873,78.9106061 C103.157887,114.74697 126.720617,106.940909 126.720617,106.940909 C137.850157,82.6984848 148.834173,81.319697 159.457411,80.4257576 C222.420713,75.1227273 254.211602,67.0075758 274.581903,84.2136364 C280.900062,89.55 293.290808,98.6409091 295.215967,110.695455 C295.215967,110.695455 307.503633,112.862121 322.41376,84.2136364"/>
      <path fill="#B3B3B3" d="M157.236657 214.892121C140.286165 203.822424 130.572451 193.97697 129.799356 186.037576 129.347625 181.395152 131.312197 175.749697 132.021625 175.055758L133.225229 179.652727C137.102832 184.716364 147.501721 194.167879 162.772625 204.137576L157.236657 214.892121zM263.421137 214.289394L256.787676 204.137879C280.696025 188.528788 287.820629 180.862121 287.905517 180.592424 287.902486 180.598485 289.157629 175.525758 289.157629 175.525758 300.908676 190.010606 285.646867 199.774242 263.421137 214.289394"/>
      <path fill="#FFFFFF" fill-opacity=".1" d="M209.759535,0.88030303 C100.731884,17.5136364 83.7450111,42.6439394 92.652281,78.9106061 C96.7997095,95.7984848 106.904519,95.7984848 106.904519,95.7984848 C118.034059,71.5560606 148.512202,61.8075758 159.171821,61.9227273 C212.236471,62.4954545 249.442059,50.3742424 298.289551,31.7015152 C298.289551,31.7015152 256.105837,-6.18939394 209.759535,0.88030303"/>
      <path fill="#CCCCCC" d="M256.107352,172.065758 C268.567829,183.708182 273.461067,234.311212 257.583813,251.038485 C241.706559,267.765758 178.80086,264.832424 169.12959,251.038485 C159.458321,237.244545 151.59094,198.326364 159.170305,186.205152 C163.866479,178.696061 185.018971,168.832424 211.604352,170.650606 C227.933337,171.768788 251.365702,167.635455 256.107352,172.065758"/>
      <path fill="#FFFFFF" fill-opacity=".2" d="M247.844935,194.109091 C257.588967,203.215152 260.117443,231.730303 247.699411,244.812121 C235.281379,257.893939 186.088268,255.6 178.524062,244.812121 C170.959856,234.024242 164.808443,203.587879 170.735506,194.109091 C174.406951,188.236364 190.811729,184.781818 211.603443,186.206061 C224.376189,187.081818 244.13711,190.645455 247.844935,194.109091"/>
    </g>
    <g filter="url(#b)" transform="translate(0 90.91)">
      <path fill="#42210B" d="M119.05606,326.245455 C171.465854,306.924242 284.886505,305.863636 310.877663,318.187879 C325.575568,325.157576 310.877663,237.115152 310.877663,237.115152 L199.479187,169.239394 L137.119203,191.863636 C137.119203,191.863636 99.9985048,333.269697 119.05606,326.245455"/>
      <path fill="#603813" d="M127.178108,180.552424 C127.178108,180.552424 134.466425,232.637273 130.543346,245.364545 C126.620267,258.088788 111.570679,264.452424 111.570679,264.452424 C111.570679,264.452424 115.702949,272.737273 124.343425,272.482727 C132.983902,272.231212 156.455679,260.537273 156.455679,260.537273 L150.671108,171.825152 L127.214489,169.003939 L127.178108,180.552424 Z"/>
      <path fill="#FAAD40" d="M28.2946794 540.196061C28.2946794 540.196061 12.4962508 564.250606 16.1525365 571.320303 19.8057905 578.39-.000606349208 770.271818-.000606349208 770.271818L33.3971079 779.362727C33.3971079 779.362727 55.1741397 598.18697 60.8344095 582.632424 66.4916476 567.077879 82.0536 547.274848 82.0536 547.274848L28.2946794 540.196061zM430.080157 540.196061C430.080157 540.196061 445.878586 564.474848 442.2223 571.547576 438.569046 578.617273 458.375443 770.726364 458.375443 770.726364L421.172887 781.705152C421.172887 781.705152 403.200697 598.414242 397.540427 582.859697 391.883189 567.305152 376.321237 547.38697 376.321237 547.38697L430.080157 540.196061z"/>
      <path fill="#F9E8D8" d="M187.37009,319.146667 C187.37009,319.146667 102.111329,342.934545 86.0642968,355.189091 C70.0142333,367.443636 10.4919635,515.470909 10.4919635,535.670909 C10.4919635,555.867879 68.9106778,567.122424 81.0952651,568.949697 C93.2828841,570.773939 110.348583,522.237576 110.348583,522.237576 L115.202408,793.328485 C115.202408,793.328485 189.762138,810.273939 234.995789,807.786061 C280.22944,805.298182 349.644297,791.019394 349.644297,791.019394 L342.365075,512.119394 C342.365075,512.119394 363.311408,569.97697 369.717487,569.198182 C376.123567,568.419394 435.60036,551.225455 447.057329,544.561818 C457.992837,538.201212 398.955646,365.386061 381.977868,355.016364 C365.003122,344.646667 265.865027,318.249697 246.583122,319.17697 C227.301217,320.104242 187.37009,319.146667 187.37009,319.146667"/>
      <path fill="#FAAD40" d="M249.474195,299.333636 C249.474195,260.506364 223.528513,267.282121 223.528513,267.282121 C223.528513,267.282121 197.58283,260.506364 197.58283,299.333636 C197.58283,329.500303 163.618179,352.124545 223.528513,352.124545 C283.438846,352.124545 249.474195,329.500303 249.474195,299.333636"/>
      <path fill="#FAAD40" d="M195.233833 326.499091C195.233833 326.499091 157.14904 335.156667 147.132151 340.814242 137.118294 346.468788 180.411627 365.626364 221.303817 365.659697 262.19904 365.69303 310.45231 347.326364 317.055452 342.608182 323.655563 337.89 221.303817 319.556667 221.303817 319.556667L195.233833 326.499091zM220.744157 304.99C191.933475 304.99 124.707538 249.368788 140.860681 106.077879 145.205173 67.5324242 220.744157 69.3112121 220.744157 69.3112121 220.744157 69.3112121 294.776363 67.7657576 300.627633 106.077879 320.970649 239.247576 249.55484 304.99 220.744157 304.99"/>
      <path fill="#461A00" d="M250.395846,165.55697 C250.395846,170.050909 254.040005,173.693333 258.536084,173.693333 C263.032163,173.693333 266.679354,170.050909 266.679354,165.55697 C266.679354,161.06303 263.032163,157.420606 258.536084,157.420606 C254.040005,157.420606 250.395846,161.06303 250.395846,165.55697"/>
      <path fill="#FBB03B" d="M329.790908,148.984242 C329.790908,172.666061 331.346194,191.866061 314.21986,191.866061 C297.093527,191.866061 307.295352,172.666061 307.295352,148.984242 C307.295352,125.302424 310.393797,123.072121 314.21986,123.072121 C318.045924,123.072121 329.790908,125.302424 329.790908,148.984242"/>
      <path fill="#461A00" d="M191.002122,165.55697 C191.002122,170.050909 187.357963,173.693333 182.861884,173.693333 C178.365805,173.693333 174.718614,170.050909 174.718614,165.55697 C174.718614,161.06303 178.365805,157.420606 182.861884,157.420606 C187.357963,157.420606 191.002122,161.06303 191.002122,165.55697"/>
      <path fill="#000000" fill-opacity=".1" d="M199.477975 200.349394C200.393562 220.028182 215.746324 228.631212 220.700197 228.631212 225.651038 228.631212 241.006832 220.028182 241.919387 200.349394 241.919387 200.349394 228.479657 213.076667 220.700197 213.076667 212.917705 213.076667 199.477975 200.349394 199.477975 200.349394M197.602233 297.781818L195.592186 317.666667C195.592186 317.666667 215.165138 330.915152 224.360424 330.915152 232.315725 330.915152 246.107138 321.657576 250.800281 310.190909 253.340884 303.984848 248.92363 300.372727 249.244995 293.463636 249.244995 293.463636 233.90436 303.70303 220.698075 303.70303 207.494821 303.70303 197.602233 297.781818 197.602233 297.781818"/>
      <path fill="#FBB03B" d="M111.60706,148.984242 C111.60706,172.666061 110.051775,191.866061 127.178108,191.866061 C144.304441,191.866061 134.102616,172.666061 134.102616,148.984242 C134.102616,125.302424 131.004171,123.072121 127.178108,123.072121 C123.352044,123.072121 111.60706,125.302424 111.60706,148.984242"/>
      <path fill="#000000" fill-opacity=".1" d="M137.117687,131.531515 C137.117687,131.531515 157.024132,135.416364 191.00091,133.846667 C230.601576,132.016364 239.9151,112.334545 266.618719,122.173939 C293.322338,132.016364 290.005608,136.634545 299.910322,139.655758 C309.812005,142.67697 299.910322,139.655758 299.910322,139.655758 L299.81937,62.0042424 L135.814037,99.6830303 L137.117687,131.531515 Z"/>
      <path fill="#603813" d="M343.312192,289.906667 C328.547589,271.458182 319.446287,253.285455 339.5407,204.591515 C359.347097,156.588485 345.319208,104.427879 311.39397,60.8248485 C295.101367,34.24 308.525938,5.20969697 236.26124,1.79757576 C213.301827,0.715757576 194.647494,1.4369697 131.459843,28.7763636 C68.2691603,56.1157576 82.609319,164.788485 99.0322873,204.591515 C119.123668,253.285455 110.025398,271.458182 95.2607952,289.906667 C78.2830175,311.118788 49.9877317,299.333939 84.8831286,323.618788 C119.781557,347.900606 182.860065,284.476364 182.860065,284.476364 C182.860065,284.476364 152.791208,247.870303 148.076843,225.803636 C142.974414,201.927879 132.912049,112.476364 143.359446,114.588485 C216.494256,129.376364 276.343954,68.370303 286.385097,102.306667 C288.728637,110.23697 291.348065,134.446061 295.92297,144.452121 C295.92297,144.452121 283.817208,198.864242 287.664494,222.973333 C291.514811,247.082424 258.138319,283.797576 258.138319,283.797576 C258.138319,283.797576 318.79143,347.900606 353.686827,323.618788 C388.585256,299.333939 360.28997,311.118788 343.312192,289.906667"/>
      <path fill="#FFFFFF" fill-opacity=".1" d="M101.748429,83.5969697 C101.748429,83.5969697 107.520873,56.4454545 126.384397,45.9090909 C145.244889,35.3757576 205.606952,14.6363636 205.606952,14.6363636 C205.606952,14.6363636 217.397413,35.1545455 199.476762,44.8030303 C181.559143,54.4515152 152.933397,42 134.01227,62.0030303 C119.969222,76.8545455 116.009762,89.1363636 101.748429,83.5969697"/>
      <polygon fill="#9FDAF1" points="128.773 501.206 218.152 501.206 218.152 428.824 128.773 428.824"/>
      <polygon fill="#FFFFFF" points="135.925 495.009 211.003 495.009 211.003 449.503 135.925 449.503"/>
      <polygon fill="#FAAD40" points="173.464 460.191 206.889 460.191 206.889 454.158 173.464 454.158"/>
      <polygon fill="#9FDAF1" points="173.464 471.048 206.889 471.048 206.889 465.015 173.464 465.015"/>
      <polygon fill="#9FDAF1" points="173.464 480.297 206.889 480.297 206.889 474.264 173.464 474.264"/>
      <polygon fill="#9FDAF1" points="173.464 490.352 206.889 490.352 206.889 484.318 173.464 484.318"/>
      <polygon fill="#9FDAF1" points="141.313 490.348 168.268 490.348 168.268 454.158 141.313 454.158"/>
      <path fill="#0EA2DC" d="M162.332719 464.714848C162.332719 468.878485 158.955354 472.254242 154.789735 472.254242 150.624116 472.254242 147.246751 468.878485 147.246751 464.714848 147.246751 460.551212 150.624116 457.175455 154.789735 457.175455 158.955354 457.175455 162.332719 460.551212 162.332719 464.714848M141.311805 490.35L168.267059 490.35 168.267059 480.689394C168.267059 477.068182 161.451694 474.134848 154.787916 474.134848 148.12717 474.134848 141.311805 477.068182 141.311805 480.689394L141.311805 490.35zM186.233489 438.57697L160.69406 438.57697 165.005203 419.67697C165.890473 415.801212 169.3406 413.049697 173.321283 413.049697L173.606267 413.049697C177.586949 413.049697 181.037076 415.801212 181.922346 419.67697L186.233489 438.57697z"/>
      <path fill="#FFFFFF" d="M178.223919,423.044848 C178.223919,425.793333 175.995586,428.020606 173.245792,428.020606 C170.495998,428.020606 168.267665,425.793333 168.267665,423.044848 C168.267665,420.296364 170.495998,418.069091 173.245792,418.069091 C175.995586,418.069091 178.223919,420.296364 178.223919,423.044848"/>
      <path fill="#FFFFFF" fill-opacity=".1" d="M22.6359254,523.694545 C22.6359254,523.694545 74.0209889,377.579394 87.2333381,370.506667 C100.445687,363.43697 134.013179,352.124848 134.013179,352.124848 C134.013179,352.124848 142.953798,367.679394 128.774322,377.579394 C125.33329,379.979394 109.328703,384.724848 101.749338,398.788485 C78.0865603,442.700606 50.670481,530.255152 41.0264968,534.54 C28.2961952,540.194545 22.6359254,523.694545 22.6359254,523.694545"/>
      <path fill="#000000" fill-opacity=".1" d="M369.718094 568.948485C369.718094 568.948485 438.059713 552.236364 447.057935 544.439394 456.735268 536.048485 408.906443 397.375758 390.00957 365.657576 387.138506 360.836364 373.159125 342.354545 376.321237 377.578788 378.034173 396.687879 389.388062 522.766667 379.844125 538.315152 370.300189 553.863636 369.718094 568.948485 369.718094 568.948485M349.644903 791.018485L342.365681 511.863939C342.365681 511.863939 327.537411 504.257879 320.424935 524.054848 313.312459 543.851818 276.079586 803.642727 276.079586 803.642727 312.860729 801.194242 349.644903 791.018485 349.644903 791.018485"/>
    </g>
  </g>
</svg>
