<svg xmlns="http://www.w3.org/2000/svg" width="909" height="900" viewBox="0 0 909 900">
  <defs>
    <filter id="a" width="200%" height="200%" x="-50%" y="-50%" filterUnits="objectBoundingBox">
      <feOffset in="SourceAlpha" result="shadowOffsetOuter1"/>
      <feGaussianBlur stdDeviation="4" in="shadowOffsetOuter1" result="shadowBlurOuter1"/>
      <feColorMatrix values="0 0 0 0 0 0 0 0 0 0 0 0 0 0 0 0 0 0 0.2 0" in="shadowBlurOuter1" result="shadowMatrixOuter1"/>
      <feMerge>
        <feMergeNode in="shadowMatrixOuter1"/>
        <feMergeNode in="SourceGraphic"/>
      </feMerge>
    </filter>
  </defs>
  <g fill="none" fill-rule="evenodd">
    <g filter="url(#a)">
      <path fill="#42210B" d="M118.159164,337.672634 C168.060856,319.268157 276.05126,318.259899 300.798936,329.997832 C314.792118,336.637288 300.798936,252.774274 300.798936,252.774274 L194.731879,188.122342 L135.354916,209.671983 C135.354916,209.671983 100.012274,344.363256 118.159164,337.672634 L118.159164,337.672634 Z"/>
      <path fill="#B3B3B3" d="M263.127508,318.697212 C258.47114,320.644505 167.291216,318.697212 167.291216,318.697212 L169.657024,332.451662 L255.563544,343.972894 L263.127508,318.697212 Z"/>
      <path fill="#FAAD40" d="M240.248098,303.893873 C240.248098,267.491233 215.933853,271.515238 215.933853,271.515238 C215.933853,271.515238 191.619608,267.491233 191.619608,303.893873 C191.619608,332.176272 159.789558,353.385813 215.933853,353.385813 C272.078148,353.385813 240.248098,332.176272 240.248098,303.893873"/>
      <path fill="#FAAD40" d="M189.418443 329.361275C189.418443 329.361275 132.371169 336.732094 122.986195 342.035232 113.601222 347.33837 124.506212 415.734401 215.993149 415.845761 337.678751 415.990228 309.361294 349.950812 315.549718 345.529524 321.735132 341.105227 213.850076 322.851237 213.850076 322.851237L189.418443 329.361275zM213.324541 309.196409C158.360141 309.196409 123.327522 264.038475 138.464478 129.70235 142.533909 93.567576 213.324541 95.2349644 213.324541 95.2349644 213.324541 95.2349644 282.700505 93.7872861 288.184604 129.70235 307.246515 254.548808 268.288942 309.196409 213.324541 309.196409"/>
      <path fill="#461A00" d="M241.111648,185.464152 C241.111648,189.677769 244.527923,193.093808 248.74183,193.093808 C252.952727,193.093808 256.369002,189.677769 256.369002,185.464152 C256.369002,181.250535 252.952727,177.834496 248.74183,177.834496 C244.527923,177.834496 241.111648,181.250535 241.111648,185.464152"/>
      <path fill="#FBB03B" d="M315.514201,169.927644 C315.514201,192.130395 316.971009,210.128558 300.922042,210.128558 C284.873075,210.128558 294.432625,192.130395 294.432625,169.927644 C294.432625,147.724893 297.337211,145.636143 300.922042,145.636143 C304.506873,145.636143 315.514201,147.724893 315.514201,169.927644"/>
      <path fill="#461A00" d="M185.452856,185.464152 C185.452856,189.677769 182.036581,193.093808 177.822674,193.093808 C173.611776,193.093808 170.195501,189.677769 170.195501,185.464152 C170.195501,181.250535 173.611776,177.834496 177.822674,177.834496 C182.036581,177.834496 185.452856,181.250535 185.452856,185.464152"/>
      <path fill="#000000" fill-opacity=".1" d="M193.39577 218.082061C194.253601 236.531684 208.641084 246.924269 213.282402 246.924269 217.92372 246.924269 232.311204 236.531684 233.169035 218.082061 233.169035 218.082061 220.575472 230.012616 213.282402 230.012616 205.989333 230.012616 193.39577 218.082061 193.39577 218.082061M191.536233 306.428063C191.536233 306.428063 190.874047 315.80637 188.664756 320.182512 185.170223 327.113912 208.096888 333.500551 216.714329 333.500551 224.169935 333.500551 239.704203 333.599872 244.101716 322.85214 244.101716 322.85214 239.948008 310.373814 240.249001 303.893873 240.249001 303.893873 225.656842 307.990111 213.283004 307.990111 200.909167 307.990111 191.536233 306.428063 191.536233 306.428063"/>
      <path fill="#FBB03B" d="M111.050303,169.927644 C111.050303,192.130395 109.593495,210.128558 125.642462,210.128558 C141.691428,210.128558 132.131879,192.130395 132.131879,169.927644 C132.131879,147.724893 129.227293,145.636143 125.642462,145.636143 C122.05763,145.636143 111.050303,147.724893 111.050303,169.927644"/>
      <path fill="#000000" fill-opacity=".1" d="M134.957003,153.565568 C134.957003,153.565568 153.609562,157.207336 185.451652,155.73558 C222.564135,154.020036 231.289933,135.567404 256.314523,144.795225 C281.339112,154.020036 278.23286,158.351032 287.512486,161.183185 C296.792112,164.015337 287.512486,161.183185 287.512486,161.183185 L287.428208,88.3839244 L133.73497,123.706073 L134.957003,153.565568 Z"/>
      <path fill="#FFFFFF" d="M101.811913,108.627043 C101.811913,108.627043 107.220764,83.1737871 124.898105,73.2958653 C142.575446,63.4179435 199.141131,43.9751114 199.141131,43.9751114 C199.141131,43.9751114 210.187588,63.2102724 193.395168,72.2575097 C176.602747,81.3017373 149.778218,69.6300186 132.046698,88.3836234 C118.887267,102.306617 115.176019,113.818821 101.811913,108.627043"/>
      <path fill="#603813" d="M330.272809,305.361416 C316.213409,287.790634 307.550819,270.478688 326.681958,224.098805 C345.539193,178.375043 332.184117,128.69048 299.884518,87.1592667 C284.371319,61.8354294 297.151498,34.1820639 228.347422,30.9345692 C206.486273,29.902233 188.724654,30.5914604 128.562097,56.6316126 C68.3995411,82.6717648 82.0495907,186.182273 97.6861967,224.098805 C116.817336,270.478688 108.154746,287.790634 94.0953457,305.361416 C77.9320013,325.565709 50.993094,314.33943 84.216743,337.472186 C117.443402,360.601933 177.06417,300.470611 177.06417,300.470611 C177.06417,300.470611 141.751627,273.527541 144.385319,244.300088 C146.838415,217.040997 132.09877,136.765576 142.046601,138.779083 C211.681419,152.864602 266.513382,94.3464932 276.069922,126.670954 C278.303293,134.222357 280.795518,157.28288 285.150892,166.811674 C285.150892,166.811674 273.625856,218.645181 277.291955,241.606383 C280.955044,264.570595 249.176164,299.540605 249.176164,299.540605 C249.176164,299.540605 306.924753,360.601933 340.151412,337.472186 C373.378071,314.33943 346.436154,325.565709 330.272809,305.361416"/>
      <path fill="#FFFFFF" fill-opacity=".2" d="M100.274138,108.849161 C100.274138,108.849161 105.770277,82.9865821 123.730552,72.9521546 C141.690826,62.917727 199.162502,43.1618834 199.162502,43.1618834 C199.162502,43.1618834 210.386545,62.7070461 193.32323,71.8957406 C176.262926,81.0874448 149.007975,69.2291231 130.993522,88.2806908 C117.623396,102.426405 113.851949,114.125211 100.274138,108.849161"/>
      <path fill="#9FDAF1" d="M142.946872,353.332842 C142.946872,353.332842 159.769392,344.138128 182.951902,356.113829 C206.134412,368.08953 222.300766,367.006029 243.614107,356.128878 C264.924438,345.248717 281.960663,345.534641 281.960663,345.534641 C281.960663,345.534641 265.484286,427.949977 234.123786,488.144504 L189.233633,488.144504 L142.946872,353.332842 Z"/>
      <path fill="#31363F" d="M272.470643,332.450157 C272.470643,332.450157 211.022845,516.585214 208.154378,524.344288 C198.844653,549.51162 215.411328,753.790775 216.579183,771.199032 C216.579183,771.199032 321.035925,771.415732 322.540891,766.756676 C323.338524,764.282681 322.835865,695.55558 318.134348,606.491759 C315.816699,562.582861 337.855434,495.321497 338.174487,494.921204 C338.857742,494.060422 379.365431,563.861995 379.937319,580.590054 C380.512216,597.315103 384.795352,771.057575 384.795352,771.057575 L429.703564,756.008943 C429.703564,756.008943 422.816835,544.048966 419.960408,528.241884 C417.106991,512.437811 361.498464,366.237345 356.092623,359.537694 C339.959378,339.547091 272.470643,332.450157 272.470643,332.450157"/>
      <path fill="#000000" fill-opacity=".1" d="M147.959616,325.463378 C147.959616,325.463378 238.1884,528.481458 241.059877,536.243542 C250.369602,561.410874 231.030778,753.735396 229.862924,771.143653 L175.02795,770.689184 C175.02795,770.689184 183.19089,684.689264 187.892407,595.625443 C190.210056,551.716545 169.57094,488.250446 175.973069,488.250446 C177.071695,488.250446 145.765374,376.038819 151.011688,369.21276 C156.261013,362.383691 147.959616,325.463378 147.959616,325.463378"/>
      <path fill="#31363F" d="M139.402374,325.463378 C139.402374,325.463378 229.631159,528.481458 232.502635,536.243542 C241.812361,561.410874 227.060675,759.496012 225.895831,776.904269 C225.895831,776.904269 100.866192,773.542405 99.3612248,768.883349 C98.5635924,766.409353 109.029132,684.689264 113.730649,595.625443 C116.048298,551.716545 95.4061719,488.250446 101.811311,488.250446 C102.909937,488.250446 66.3542911,563.863801 65.7824036,580.58885 C65.2075063,597.316909 44.9085129,771.059381 44.9085129,771.059381 L0.000300993376,759.020475 C0.000300993376,759.020475 23.4145758,532.081091 26.267993,516.274008 C29.1214103,500.469935 71.6036156,375.855226 76.8499301,369.026157 C82.0992546,362.197088 139.402374,325.463378 139.402374,325.463378"/>
      <polygon fill="#000000" fill-opacity=".1" points="205.327 469.254 225.313 429.661 173.885 351.622"/>
      <path fill="#F2F2F2" d="M167.289711,318.697212 C167.289711,318.697212 174.718228,375.310165 204.15839,438.186357 C215.186787,461.734456 217.188393,497.565248 217.188393,497.565248 C217.188393,497.565248 132.515946,405.585002 133.73497,398.596417 C134.957003,391.610842 151.623006,380.989518 151.942059,376.113762 C152.261112,371.234995 121.713294,378.945914 120.241436,374.14841 C118.769579,369.347897 127.546546,328.340375 127.546546,328.340375 L167.289711,318.697212 Z"/>
      <path fill="#F2F2F2" d="M263.127508,318.697212 C263.127508,318.697212 245.374918,379.957182 215.934756,442.830365 C204.906359,466.381474 217.189898,497.565248 217.189898,497.565248 C217.189898,497.565248 297.901273,405.585002 296.682249,398.596417 C295.460216,391.610842 278.794213,380.989518 278.47516,376.113762 C278.156107,371.234995 308.703925,378.945914 310.175782,374.14841 C311.64764,369.347897 302.870673,328.340375 302.870673,328.340375 L263.127508,318.697212 Z"/>
      <path fill="#FAAD40" d="M735.657613,255.895661 C735.657613,222.063327 713.182437,225.7683 713.182437,225.7683 C713.182437,225.7683 690.710272,222.063327 690.710272,255.895661 C690.710272,282.071251 661.074464,301.827094 713.182437,301.827094 C765.046606,301.827094 735.657613,282.071251 735.657613,255.895661"/>
      <path fill="#FAAD40" d="M688.239718 279.602974C688.239718 279.602974 635.141476 286.516315 626.496947 291.455276 617.852417 296.394237 627.980844 359.863346 712.936225 360.110144 826.046526 360.356941 799.622318 298.865223 805.302063 294.913452 810.981808 290.961681 710.714894 273.923621 710.714894 273.923621L688.239718 279.602974zM710.466875 260.834622C659.34315 260.834622 626.745567 218.851949 640.823027 94.1439386 644.525246 60.5584025 710.466875 62.0391879 710.466875 62.0391879 710.466875 62.0391879 774.924607 60.8052001 780.110723 94.1439386 797.893412 209.961218 761.5906 260.834622 710.466875 260.834622"/>
      <path fill="#461A00" d="M743.31368,138.593985 C747.268733,138.593985 750.474313,141.799343 750.474313,145.754124 C750.474313,149.711914 747.268733,152.917272 743.31368,152.917272 C739.358627,152.917272 736.153048,149.711914 736.153048,145.754124 C736.153048,141.799343 739.358627,138.593985 743.31368,138.593985"/>
      <path fill="#FBB03B" d="M805.54978,131.432341 C805.54978,152.175375 806.783853,168.72285 791.965949,168.72285 C777.148045,168.72285 786.039389,151.928577 786.039389,131.432341 C786.039389,110.936105 788.75736,108.958715 791.965949,108.958715 C795.177548,108.958715 805.54978,110.936105 805.54978,131.432341"/>
      <path fill="#461A00" d="M677.62007,138.593985 C681.575123,138.593985 684.780702,141.799343 684.780702,145.754124 C684.780702,149.711914 681.575123,152.917272 677.62007,152.917272 C673.665017,152.917272 670.459437,149.711914 670.459437,145.754124 C670.459437,141.799343 673.665017,138.593985 677.62007,138.593985"/>
      <path fill="#000000" fill-opacity=".1" d="M691.944345 176.130389C692.684788 193.171459 706.021805 202.802583 710.467477 202.802583 714.913149 202.802583 728.247156 193.171459 728.99061 176.130389 728.99061 176.130389 717.381295 187.242298 710.467477 187.242298 703.797464 187.242298 691.944345 176.130389 691.944345 176.130389M690.462554 255.895661L688.734852 271.946531C688.734852 271.946531 705.774087 283.555046 713.678174 283.555046 720.591991 283.555046 734.916266 283.555046 739.115124 273.677124 741.339465 268.244568 735.163081 262.068609 735.65671 256.142458 735.65671 256.142458 722.075889 259.847431 710.713389 259.847431 699.353899 259.847431 690.462554 255.895661 690.462554 255.895661"/>
      <path fill="#FBB03B" d="M615.631086,131.432341 C615.631086,152.175375 614.397013,168.72285 629.214917,168.72285 C644.032821,168.72285 635.141476,151.928577 635.141476,131.432341 C635.141476,110.936105 632.423506,108.958715 629.214917,108.958715 C626.003318,108.958715 615.631086,110.936105 615.631086,131.432341"/>
      <path fill="#000000" d="M637.858243,116.121261 C637.858243,116.121261 655.147302,119.579437 684.78311,118.095642 C719.35822,116.614856 727.921481,99.3299981 751.383915,107.970922 C774.846349,116.614856 771.908653,120.566627 780.938455,123.2814 C789.968256,125.999183 780.938455,123.2814 780.938455,123.2814 L780.938455,55.6197426 L637.283345,88.4618763 L637.858243,116.121261 Z"/>
      <path fill="#000000" d="M823.825195,176.130389 C832.716539,131.679741 818.885894,92.6616484 789.4969,54.6307465 C775.41944,31.4167273 787.025745,6.22832767 724.0489,3.26374723 C704.04488,2.276557 687.746089,3.01694967 632.920145,26.724564 C577.844377,50.4321783 585.501649,147.730611 599.08548,182.796933 C612.419486,217.866264 626.743761,227.25059 677.620672,234.163932 C677.620672,234.163932 651.440268,217.619466 647.24442,198.357218 C642.798748,177.611174 634.154218,99.5749898 643.045563,101.55238 C706.762851,114.391873 758.873834,61.2972903 767.515354,90.9310558 C769.49288,97.8474069 771.714212,118.837238 775.913069,127.72797 C775.913069,127.72797 765.294023,175.143198 768.752437,196.13303 C772.207841,217.122861 743.806106,238.609298 743.806106,238.609298 C743.806106,238.609298 810.981808,240.830476 823.825195,176.130389"/>
      <path fill="#FFFFFF" fill-opacity=".2" d="M606.987158,74.3865901 C606.987158,74.3865901 611.926459,50.6789758 628.472065,41.5414467 C644.773867,32.4039176 697.378479,14.3786666 697.378479,14.3786666 C697.378479,14.3786666 707.750711,32.15712 691.945549,40.5542565 C676.384191,48.9513929 651.44087,38.0862809 634.895264,55.6179367 C622.79232,68.7072365 619.336916,79.325551 606.987158,74.3865901"/>
      <path fill="#37BEC0" d="M855.189608,305.532669 C852.721462,298.866126 794.683919,283.30584 794.683919,283.30584 C794.683919,283.30584 778.631942,318.621969 750.477022,332.945257 C722.322101,347.268544 701.080999,348.74933 670.457932,332.945257 C640.081681,317.138174 635.142379,283.30584 635.142379,283.30584 C635.142379,283.30584 593.650442,293.43357 589.945214,298.37253 C586.242995,303.311491 635.142379,465.556809 635.142379,465.556809 L622.612025,689.971033 C651.254555,696.92952 681.164267,700.646532 711.94987,700.646532 C749.745608,700.646532 786.232025,695.06048 820.659648,684.713041 C817.875459,578.099505 817.767101,490.919772 817.156085,469.755377 C816.415641,444.813775 857.660764,312.199213 855.189608,305.532669"/>
      <path fill="#000000" d="M902.361892 465.310312C899.643922 450.493429 859.142253 313.186704 854.449766 307.013756 849.510465 300.100414 825.307587 284.046534 825.307587 284.046534 825.307587 284.046534 772.702975 479.6336 768.504117 486.793739 760.572942 500.012457 764.166803 655.937349 768.991726 708.393869 787.812842 705.537638 806.176448 701.293924 823.977197 695.762047 821.051541 676.508828 818.601455 558.939888 817.403501 536.679952 815.18217 495.931268 836.913892 450.987024 837.410531 450.493429 838.150975 449.753037 864.821998 498.402253 865.315627 513.959528 865.511273 520.093351 868.656654 618.731112 869.944905 641.942121 883.898958 635.492278 894.379548 631.230505 907.349352 623.185507 899.330889 572.688318 903.520717 471.633747 902.361892 465.310312M615.384572 284.048039C615.384572 284.048039 582.783979 300.345707 577.844678 306.521665 572.905377 312.694614 539.56434 438.88642 536.84637 453.703302 535.579188 460.628683 530.152277 512.934717 524.734397 566.682409 537.984125 574.275949 551.736513 581.08395 565.93437 587.052237 569.811165 552.073198 573.19433 520.242332 573.399006 513.961033 573.892635 498.400748 594.146479 449.751532 594.886923 450.494934 595.380552 450.988529 617.115284 495.932773 614.890943 536.678448 613.64483 559.85936 611.041238 678.280052 607.956056 698.153275 625.862152 703.278839 644.307026 707.11624 663.19737 709.554118 668.073463 656.820703 671.778691 500.110273 663.790327 486.795243 659.344655 479.632095 615.384572 284.048039 615.384572 284.048039"/>
      <path fill="#000000" fill-opacity=".1" d="M711.948967,700.635998 C743.330536,700.635998 773.806116,694.294505 802.954314,682.424144 C800.766092,588.349128 797.479245,478.184115 794.189387,485.702412 C788.509642,498.689381 653.911424,493.816634 653.911424,493.816634 L642.588053,690.138073 C665.075268,697.006268 688.251758,700.635998 711.948967,700.635998"/>
      <path fill="#A67C52" d="M316.999001 651.584682C316.999001 651.584682 302.51219 673.856657 305.865256 680.342617 309.215313 686.828578 291.053372 837.615867 291.053372 837.615867L321.676438 854.720142C321.676438 854.720142 341.647349 704.989266 346.836475 690.720154 352.025601 676.451041 366.295697 658.182002 366.295697 658.182002L316.999001 651.584682zM685.426032 651.584682C685.426032 651.584682 699.912843 673.856657 696.559777 680.342617 693.209721 686.828578 711.371661 837.624896 711.371661 837.624896L677.257072 856.453744C677.257072 856.453744 660.777684 704.989266 655.588559 690.720154 650.399433 676.451041 636.129337 658.182002 636.129337 658.182002L685.426032 651.584682z"/>
      <path fill="#9B5CA4" d="M453.833601,451.393036 C453.833601,451.393036 384.689402,470.625188 369.970826,481.869525 C355.25526,493.110853 300.67613,628.903686 300.67613,647.434571 C300.67613,665.962446 354.240912,676.285807 365.416796,677.962225 C376.58967,679.635633 392.241326,635.109741 392.241326,635.109741 L398.724723,717.410708 L396.693018,883.797409 C396.693018,883.797409 465.060654,899.342645 506.540551,897.058263 C548.017438,894.77689 611.668508,881.675552 611.668508,881.675552 L601.552121,718.26246 L604.995485,625.827745 C604.995485,625.827745 624.201872,678.904269 630.074253,678.187954 C635.949644,677.474649 690.489644,661.703683 700.994313,655.590929 C711.023412,649.75507 656.886743,491.223755 641.319366,481.71001 C625.751988,472.196265 534.845968,447.983017 517.165617,448.834769 C499.482256,449.683512 453.833601,451.393036 453.833601,451.393036"/>
      <path fill="#B3B3B3" d="M493.98401,449.548375 C513.172338,449.545365 539.494209,456.561038 547.789586,458.914644 C549.992858,447.447586 550.417259,439.228024 550.417259,439.228024 C550.417259,439.228024 517.040103,429.094275 493.98401,429.097285 C475.888288,429.100295 442.754937,436.525289 442.754937,436.525289 C442.754937,436.525289 443.570629,444.690677 446.776209,456.115598 C456.140113,454.159276 479.725954,449.551385 493.98401,449.548375"/>
      <path fill="#A67C52" d="M519.814961,430.629837 C519.814961,395.009726 496.024444,401.227821 496.024444,401.227821 C496.024444,401.227821 472.230918,395.009726 472.230918,430.629837 C472.230918,458.304271 441.087133,479.059344 496.024444,479.059344 C550.958746,479.059344 519.814961,458.304271 519.814961,430.629837"/>
      <path fill="#A67C52" d="M422.86981 459.60056C416.819843 463.019609 446.564009 491.982206 470.408704 518.856052 482.761472 532.782056 488.185373 563.258545 500.983611 563.267574 514.269459 563.279613 514.711919 541.64871 526.556009 527.093673 548.149274 500.562936 566.160717 462.396596 570.070621 459.60056 576.123598 455.272574 513.30026 445.927373 493.985515 446.141064 475.889793 446.339706 432.053118 454.411792 422.86981 459.60056M493.470215 435.818606C467.052026 435.818606 405.408582 384.794715 420.217456 253.347927 424.202609 217.989663 493.470215 219.620934 493.470215 219.620934 493.470215 219.620934 561.356261 218.203353 566.722973 253.347927 585.375532 375.509709 519.888403 435.818606 493.470215 435.818606"/>
      <path fill="#461A00" d="M520.66015,311.318567 C520.66015,315.441892 524.001177,318.782689 528.124786,318.782689 C532.248395,318.782689 535.589422,315.441892 535.589422,311.318567 C535.589422,307.195242 532.248395,303.854446 528.124786,303.854446 C524.001177,303.854446 520.66015,307.195242 520.66015,311.318567"/>
      <g transform="translate(407.03 583.512)">
        <polygon fill="#9FDAF1" points="1.371 92.102 92.891 92.102 92.891 17.957 1.371 17.957"/>
        <polygon fill="#FFFFFF" points="8.691 85.751 85.568 85.751 85.568 39.134 8.691 39.134"/>
        <polygon fill="#FAAD40" points="47.131 50.086 81.357 50.086 81.357 43.907 47.131 43.907"/>
        <polygon fill="#9FDAF1" points="47.131 61.21 81.357 61.21 81.357 55.031 47.131 55.031"/>
        <polygon fill="#9FDAF1" points="47.131 70.682 81.357 70.682 81.357 64.503 47.131 64.503"/>
        <polygon fill="#9FDAF1" points="47.131 80.981 81.357 80.981 81.357 74.802 47.131 74.802"/>
        <polygon fill="#9FDAF1" points="14.208 80.981 41.81 80.981 41.81 43.907 14.208 43.907"/>
        <path fill="#0EA2DC" d="M35.4233542 54.7210629C35.4233542 58.9858451 31.9649403 62.4440206 27.6998641 62.4440206 23.434788 62.4440206 19.9763741 58.9858451 19.9763741 54.7210629 19.9763741 50.4562807 23.434788 46.9981051 27.6998641 46.9981051 31.9649403 46.9981051 35.4233542 50.4562807 35.4233542 54.7210629M15.8488519 81.1407416L42.9382559 81.1407416 42.9382559 73.2582683C42.9382559 68.9934861 35.4826499 65.5353105 29.3935539 65.5353105 23.3044579 65.5353105 15.8488519 68.9934861 15.8488519 73.2582683L15.8488519 81.1407416zM60.2056439 27.9462365L34.0553393 27.9462365 38.4709122 8.58767671C39.3769022 4.61483795 42.9075545 1.79773411 46.9830049 1.79773411L47.2779784 1.79773411C51.3504188 1.79773411 54.884081 4.61483795 55.7900711 8.58767671L60.2056439 27.9462365z"/>
        <path fill="#FFFFFF" d="M52.0041764,12.0359202 C52.0041764,14.8500143 49.7226466,17.1343966 46.9053486,17.1343966 C44.0910605,17.1343966 41.8095307,14.8500143 41.8095307,12.0359202 C41.8095307,9.22182604 44.0910605,6.93744376 46.9053486,6.93744376 C49.7226466,6.93744376 52.0041764,9.22182604 52.0041764,12.0359202"/>
      </g>
      <path fill="#A67C52" d="M590.054775,292.707022 C590.054775,314.431226 591.478474,332.044145 575.77565,332.044145 C560.072825,332.044145 569.427699,314.431226 569.427699,292.707022 C569.427699,270.982817 572.269077,268.936203 575.77565,268.936203 C579.285232,268.936203 590.054775,270.982817 590.054775,292.707022"/>
      <path fill="#461A00" d="M466.197506,311.318567 C466.197506,315.441892 462.856479,318.782689 458.73287,318.782689 C454.609261,318.782689 451.268234,315.441892 451.268234,311.318567 C451.268234,307.195242 454.609261,303.854446 458.73287,303.854446 C462.856479,303.854446 466.197506,307.195242 466.197506,311.318567"/>
      <path fill="#000000" fill-opacity=".1" d="M473.969757 343.23521C474.809528 361.287549 488.886988 369.179051 493.428978 369.179051 497.967959 369.179051 512.048429 361.287549 512.8882 343.23521 512.8882 343.23521 500.562522 354.909939 493.428978 354.909939 486.292425 354.909939 473.969757 343.23521 473.969757 343.23521M472.271251 428.201289C472.271251 428.201289 472.972566 437.423091 468.632241 448.703545 465.920291 455.746305 488.353327 459.601764 496.787162 459.601764 504.083241 459.601764 516.727973 451.108316 521.032178 440.589323 519.385744 434.067246 520.111138 427.569247 519.385744 423.924468 519.385744 423.924468 505.537039 434.639094 493.428075 434.639094 481.322122 434.639094 472.271251 428.201289 472.271251 428.201289"/>
      <path fill="#A67C52" d="M400.211931,292.707022 C400.211931,314.431226 398.788233,332.044145 414.491057,332.044145 C430.193882,332.044145 420.839008,314.431226 420.839008,292.707022 C420.839008,270.982817 417.99763,268.936203 414.491057,268.936203 C410.981475,268.936203 400.211931,270.982817 400.211931,292.707022"/>
      <path fill="#42210B" d="M416.739779,209.476652 C424.574636,196.685315 425.742491,208.676064 440.34067,209.539856 C449.445719,210.078597 434.064958,250.643688 429.008269,267.624564 C426.847136,274.893053 426.001345,296.876094 421.805497,306.05576 C421.805497,306.05576 388.921971,257.033337 416.739779,209.476652"/>
      <path fill="#000000" fill-opacity=".1" d="M430.681792,263.2105 C430.681792,263.2105 442.811825,270.376658 473.97066,268.938009 C510.282501,267.258582 514.309792,257.741827 540.192213,261.079613 C553.399802,262.783119 559.705613,273.259976 559.705613,273.259976 L561.072123,219.608594 L432.078401,251.279944 L430.681792,263.2105 Z"/>
      <path fill="#603813" d="M570.015539,224.410011 C555.074228,200.019189 521.031877,169.046095 466.196904,186.409206 C446.102586,192.768758 421.82446,194.649837 416.740682,209.475749 C412.74048,221.141448 430.330533,263.139169 430.682695,263.211403 C497.74402,276.776239 546.441738,224.410011 557.069814,260.114394 C559.233957,267.382883 561.518496,294.933918 565.714344,304.113583 C565.714344,304.113583 579.608198,264.580828 570.015539,224.410011"/>
      <path fill="#FFFFFF" fill-opacity=".2" d="M428.66935,226.493042 C428.66935,226.493042 424.301936,210.803339 429.828175,208.245072 C438.936234,204.034464 472.828089,193.076051 472.828089,193.076051 C472.828089,193.076051 478.22791,203.020187 470.019821,207.694292 C461.811731,212.371406 448.70347,206.336905 440.03787,216.031234 C433.605642,223.22448 435.200907,229.177718 428.66935,226.493042"/>
      <path fill="#F2F2F2" d="M484.229116,512.039925 C484.229116,512.039925 492.003775,535.166662 495.022738,542.149227 C502.589712,559.644766 499.567738,583.045389 499.567738,583.045389 C497.274169,584.095783 483.305066,583.045389 483.305066,583.045389 C485.219384,531.193823 453.834805,522.832804 453.834805,522.832804 C461.31449,512.807405 484.229116,512.039925 484.229116,512.039925"/>
      <path fill="#000000" fill-opacity=".1" d="M513.204544,518.28902 C508.126786,522.264868 505.21317,537.5302 503.431289,543.462371 C501.661448,549.361434 500.385236,554.899331 499.467207,559.865379 C496.848564,573.990025 498.597336,583.482702 498.597336,583.482702 L502.751044,582.682115 C502.751044,582.682115 517.189697,531.790652 513.204544,518.28902"/>
      <path fill="#F2F2F2" d="M513.204544,518.28902 C507.913081,522.511666 510.038094,536.233008 504.915187,549.250074 C498.353531,565.917939 499.566534,583.046291 499.566534,583.046291 C499.566534,583.046291 505.824187,582.119296 508.692654,581.917644 C511.696568,581.703953 516.864624,581.706963 516.864624,581.706963 C517.92713,539.627979 536.375015,528.284321 536.375015,528.284321 C528.892319,518.258922 518.017428,514.448609 513.204544,518.28902"/>
      <path fill="#000000" fill-opacity=".1" d="M513.204544 518.28902C509.794289 519.709611 508.692654 532.708619 508.692654 532.708619 508.692654 532.708619 517.894021 520.615538 557.236866 540.780705 557.236866 540.780705 586.637899 505.506712 581.241087 472.697685 579.167243 460.108 516.334875 516.985808 513.204544 518.28902M484.229116 512.039925L488.105911 523.365525C488.105911 523.365525 471.090755 510.655451 440.765672 545.806045 440.765672 545.806045 408.375775 515.037612 415.069868 463.240222 415.069868 463.240222 421.619483 461.085258 425.141106 463.556243 441.388728 474.948058 481.655623 510.968462 484.229116 512.039925"/>
      <path fill="#E6E6E6" d="M442.754636 436.525891C442.754636 436.525891 452.855974 471.62532 455.874938 478.610895 463.441911 496.106434 484.228514 512.039925 484.228514 512.039925 456.958514 516.015773 440.76507 542.432141 440.76507 542.432141 406.554163 503.278612 415.827769 461.846719 415.827769 461.846719 423.307454 451.821321 442.754636 436.525891 442.754636 436.525891M550.417861 439.227422C550.417861 439.227422 543.943493 471.627126 540.92152 478.609691 533.354546 496.10523 513.203039 518.289923 513.203039 518.289923 527.548384 523.945198 556.666483 537.603336 556.666483 537.603336 590.87739 498.449807 580.971698 461.845515 580.971698 461.845515 573.489003 451.820117 550.417861 439.227422 550.417861 439.227422"/>
      <path fill="#FFFFFF" fill-opacity=".3" d="M311.809875,636.447264 C311.809875,636.447264 358.930389,502.409102 371.045372,495.923141 C383.160356,489.437181 407.122438,479.059645 407.122438,479.059645 C407.122438,479.059645 415.321498,493.328757 402.318584,502.409102 C399.164174,504.612221 391.305236,508.961276 384.355299,521.866982 C362.656687,562.14916 337.51772,642.466716 328.674534,646.394409 C316.999001,651.583177 311.809875,636.447264 311.809875,636.447264"/>
      <path fill="#000000" fill-opacity=".1" d="M630.075457 677.96072C630.075457 677.96072 692.742278 662.632184 700.992507 655.475055 709.868801 647.779184 666.011056 520.567082 648.682868 491.472057 646.049175 487.050769 633.229868 470.093971 636.128434 502.406393 637.702629 519.935039 648.11098 635.595812 639.361103 649.858905 630.611225 664.125008 630.075457 677.96072 630.075457 677.96072M611.66911 881.676454L601.549713 718.260354 604.996087 625.59389C604.996087 625.59389 591.397206 618.617344 584.874679 636.778033 578.355163 654.938721 544.210474 893.257881 544.210474 893.257881 577.939792 891.012625 611.66911 881.676454 611.66911 881.676454"/>
    </g>
    <path fill="#20252D" d="M197.124401,518.110795 L137.727273,518.110795 L137.727273,511.58065 C137.727273,507.974151 140.356134,505.050505 143.639648,505.050505 L191.212025,505.050505 C194.47734,505.050505 197.124401,507.949007 197.124401,511.58065 L197.124401,518.110795"/>
    <path fill="#292D36" d="M137.727273,518.82461 L197.124401,518.82461 L197.124401,553.670221 C197.124401,563.277518 190.018717,571.065771 181.285086,571.065771 L153.566587,571.065771 C144.818775,571.065771 137.727273,563.244742 137.727273,553.670221 L137.727273,518.82461"/>
  </g>
</svg>
