<svg xmlns="http://www.w3.org/2000/svg" width="700" height="822" viewBox="0 0 700 822" xmlns:xlink="http://www.w3.org/1999/xlink">
  <defs>
    <filter id="a" width="200%" height="200%" x="-50%" y="-50%" filterUnits="objectBoundingBox">
      <feOffset in="SourceAlpha" result="shadowOffsetOuter1"/>
      <feGaussianBlur stdDeviation="2.5" in="shadowOffsetOuter1" result="shadowBlurOuter1"/>
      <feColorMatrix values="0 0 0 0 0 0 0 0 0 0 0 0 0 0 0 0 0 0 0.1 0" in="shadowBlurOuter1" result="shadowMatrixOuter1"/>
      <feMerge>
        <feMergeNode in="shadowMatrixOuter1"/>
        <feMergeNode in="SourceGraphic"/>
      </feMerge>
    </filter>
    <polygon id="c" points="35.195 137.847 22.702 145.622 46.159 76.693 35.635 83.979 51.564 50.199 84.332 21.152 72.178 21.508 81.189 14.864 125.778 35.411 120.232 60.53 117.918 53.99 98.536 97.345 96.489 81.703 79.601 110.991 80.087 105.788 33.536 155.584"/>
    <filter id="b" width="200%" height="200%" x="-50%" y="-50%" filterUnits="objectBoundingBox">
      <feOffset dy="3" in="SourceAlpha" result="shadowOffsetOuter1"/>
      <feColorMatrix values="0 0 0 0 0 0 0 0 0 0 0 0 0 0 0 0 0 0 0.05 0" in="shadowOffsetOuter1"/>
    </filter>
    <filter id="d" width="200%" height="200%" x="-50%" y="-50%" filterUnits="objectBoundingBox">
      <feOffset in="SourceAlpha" result="shadowOffsetOuter1"/>
      <feGaussianBlur stdDeviation="5" in="shadowOffsetOuter1" result="shadowBlurOuter1"/>
      <feColorMatrix values="0 0 0 0 0 0 0 0 0 0 0 0 0 0 0 0 0 0 0.3 0" in="shadowBlurOuter1" result="shadowMatrixOuter1"/>
      <feMerge>
        <feMergeNode in="shadowMatrixOuter1"/>
        <feMergeNode in="SourceGraphic"/>
      </feMerge>
    </filter>
    <path id="e" d="M189.939667,246.742245 C189.939667,246.742245 123.051578,235.928896 85.1525656,273.822888 C47.2568133,311.716881 -4.37060698,437.095661 1.22377627,451.338508 C6.81815952,465.581355 97.8703331,380.63609 136.528956,392.336154 C175.187579,404.036217 189.939667,246.742245 189.939667,246.742245"/>
    <path id="g" d="M312.857983,149.928702 C297.779881,175.878133 306.595273,209.090795 332.483966,224.252956 C358.115109,239.265158 391.632506,230.919613 406.922516,204.670264 C422.026699,178.743654 413.224348,145.540771 387.550823,130.39165 C362.330457,115.509847 328.522908,123.151237 312.857983,149.928702 M399.033002,110.632919 C435.813789,132.119439 448.036017,179.187011 426.581101,215.737892 C404.836033,252.79407 357.453302,264.272455 321.396263,242.991314 C285.772822,221.967711 272.44867,175.336976 294.23938,138.121059 C315.54433,101.739697 362.307636,89.3061383 399.033002,110.632919"/>
    <filter id="f" width="200%" height="200%" x="-50%" y="-50%" filterUnits="objectBoundingBox">
      <feOffset dy="2" in="SourceAlpha" result="shadowOffsetOuter1"/>
      <feColorMatrix values="0 0 0 0 0 0 0 0 0 0 0 0 0 0 0 0 0 0 0.1 0" in="shadowOffsetOuter1"/>
    </filter>
    <path id="h" d="M0.208648326,203.149231 C-0.0163006505,203.814266 13.7728132,219.144491 14.0531844,219.692168 C15.5593645,222.658748 93.2702143,165.036825 93.2702143,165.036825 L186.426954,0.424782158 L70.7667505,0.424782158 C53.628891,39.7444877 3.42639674,193.473614 0.208648326,203.149231 Z"/>
    <path id="j" d="M254.447869,109.026734 C216.795955,141.416869 96.632035,260.105374 23.3095768,508.875877 C22.8327354,509.517514 22.8554893,510.32212 22.6686129,511.057959 C22.6475896,511.129774 22.6265703,511.2016 22.6055549,511.273436 C22.6029636,511.282294 22.6003731,511.291151 22.5977833,511.300006 C21.4859022,514.678702 20.4289562,518.07677 19.3428167,521.465108 C17.2563335,527.972025 15.1242084,534.465903 13.0931473,540.98912 C12.1542299,544.00786 11.0360052,546.977701 10.2829152,550.055121 C10.2832582,550.055399 10.2836011,550.055677 10.2839438,550.055955 C7.08584858,559.737814 3.89753202,569.426192 0.679875966,579.101531 C0.458187119,579.766567 0.663575316,580.262084 0.943946504,580.80976 C2.45338674,583.773081 4.18777595,586.606002 6.0232292,589.373724 C10.8417015,596.649996 16.3708821,603.359033 22.5194875,609.546472 C27.9508643,615.010196 33.8027978,619.984924 40.0948489,624.434795 C40.2839364,624.138137 40.4828044,623.847999 40.6555913,623.541561 C43.5179855,618.403834 46.3869,613.269368 49.2329936,608.125121 C51.2021121,604.565225 53.1353693,600.985768 55.0881872,597.412831 C55.0878719,597.412642 55.0875565,597.412453 55.0872411,597.412264 C55.3544699,596.988665 55.6412144,596.574822 55.885615,596.13818 C57.1327949,593.894851 58.3801852,591.651522 59.6275186,589.408086 C64.3798784,595.440172 69.8251739,599.946414 75.6961687,603.225354 C74.6840717,604.807499 73.6932125,606.403407 72.8148186,608.068724 C75.0251868,609.584614 77.4735446,610.670187 79.8860408,611.7688 C84.8446987,614.024705 89.8783396,616.094791 95.0228249,617.933419 C102.028844,620.437083 109.158749,622.40611 116.419059,624.00024 C122.163408,625.258591 127.953399,626.226805 133.789032,626.937481 C134.24545,626.9929 134.832274,626.885321 135.031141,627.530797 C138.222809,624.544656 141.424257,621.574816 144.599623,618.575635 C151.579562,611.983958 158.55298,605.389021 165.506838,598.771265 C167.286869,597.076076 169.158183,595.472166 170.755647,593.587898 C170.758798,593.58476 374.631685,390.521039 406.097562,196.312149 C406.116647,196.315027 406.126282,196.316463 406.126282,196.316463 C429.713323,113.597763 419.222225,0.368923451 419.222225,0.368923451 L418.990755,0.235264325 C418.990755,0.235264325 311.337999,53.4739764 254.331364,108.883834 C254.331364,108.883834 254.37067,108.932331 254.447869,109.026734 Z M11.4732356,551.77651 C11.5878113,551.999345 11.7050002,552.220576 11.8379973,552.431645 C13.5242278,555.117345 15.2922548,557.742815 17.1434988,560.308056 C15.2926792,557.743934 13.5241884,555.117917 11.8360412,552.431645 C11.7039021,552.220576 11.5873455,551.999345 11.4732356,551.77651 Z M26.3300483,571.784886 C26.3312987,571.785565 26.3325493,571.786243 26.3337999,571.786921 C29.7594254,575.670135 33.3655003,579.381586 37.1692081,582.899406 C38.0083768,583.675902 38.8531913,584.446074 39.7049593,585.208497 C38.8527255,584.446074 38.0072788,583.675902 37.1672521,582.899406 C33.3628796,579.380972 29.7562092,575.668838 26.3300483,571.784886 Z M53.5696028,596.35703 C53.8187593,596.551236 54.0670395,596.746596 54.3142323,596.943395 C54.4125892,597.021257 54.5189598,597.089388 54.6283072,597.153546 C54.5181143,597.089521 54.4111465,597.021663 54.3122763,596.943395 C54.0657665,596.746534 53.8181374,596.551176 53.5696028,596.35703 Z M72.8148186,608.068724 C75.0251868,609.584614 77.4735446,610.670187 79.8860408,611.7688 C84.8446987,614.024705 89.8783396,616.094791 95.0228249,617.933419 C102.028844,620.437083 109.158749,622.40611 116.419059,624.00024 C122.163408,625.258591 127.953399,626.226805 133.789032,626.937481 C134.24545,626.9929 134.832274,626.885321 135.031141,627.530797 C132.706669,629.825822 130.401757,632.143666 128.054463,634.419132 C123.141447,639.18196 118.19909,643.91219 113.299114,648.688058 C112.777493,649.193355 112.298254,649.405254 111.581026,649.353094 C100.193391,648.515279 89.0176652,646.546252 78.1027497,643.175434 C73.1017101,641.633464 68.2017345,639.817656 63.4256439,637.66607 C61.0848705,636.613097 58.7506174,635.550344 56.4750466,634.360452 C59.0603297,630.158339 61.6423528,625.956227 64.2308961,621.757374 C65.0002868,620.515322 65.7859781,619.286311 66.5618891,618.050779 C68.6483724,614.72234 70.7315955,611.397162 72.8148186,608.068724 Z"/>
  </defs>
  <g fill="none" fill-rule="evenodd" transform="translate(0 18)">
    <g fill="#000000" opacity=".1" transform="translate(0 70.714)">
      <path d="M617.046044 306.956827C626.986181 291.367609 622.353536 270.438546 606.763594 260.495611 591.026946 250.464656 570.243616 255.188365 560.303479 270.777583 550.268799 286.51676 554.846022 307.204585 570.58267 317.2388 586.175872 327.178475 607.011363 322.692744 617.046044 306.956827L617.046044 306.956827zM645.621084 355.207772C646.181827 356.603042 645.656946 358.246072 644.385495 359.096926 635.638566 366.298219 625.026842 371.693484 614.177129 374.855663 612.631828 375.3251 611.138688 374.891523 610.287794 373.623391L596.089928 355.634829C589.227354 356.453083 582.244155 356.159685 575.410922 354.816574L559.729697 371.419646C558.754918 372.462839 557.014008 372.909456 555.664314 372.25746 550.369863 370.128694 545.310141 367.63155 540.432986 364.521531 535.559092 361.414771 531.157916 357.880954 526.99473 353.97876 525.834124 353.030106 525.504851 351.263197 526.039512 349.939646L534.476729 328.717185C530.375485 323.090461 527.014291 316.788923 525.009311 310.317865L502.710021 305.033439C501.197321 304.798721 500.1769 303.628389 499.948691 302.027739 498.240383 290.859052 498.654419 278.96339 501.490732 267.993562 501.728722 266.480931 502.993652 265.310599 504.499832 265.23236L526.98821 261.907181C528.262921 258.767822 530.046212 255.644762 531.930567 252.687962 533.814922 249.734421 535.891625 246.80044 538.199797 244.319596L531.728439 222.529899C531.164437 221.131368 531.689318 219.491599 532.960768 218.637484 541.710957 211.436191 552.319421 206.040926 563.172394 202.878747 564.717696 202.40931 566.207575 202.842887 567.061729 204.111019L581.259596 222.102841C587.975464 221.186787 595.105368 221.574725 601.938601 222.921096L617.616567 206.314765C618.594606 205.274831 620.335515 204.824954 621.685209 205.47695 632.368655 209.587783 642.119704 215.804563 650.351533 223.755651 651.515399 224.704304 651.841412 226.471213 651.310011 227.794764L642.869534 249.017226C646.970778 254.643949 650.185266 260.850948 652.336952 267.419805L674.639502 272.700971C676.148942 272.935689 677.169363 274.109282 677.397572 275.706671 679.109141 286.878618 678.695104 298.77102 675.855531 309.744109 675.620801 311.256739 674.352611 312.423811 672.849691 312.502051L650.361313 315.830489C649.086602 318.966588 647.303311 322.089648 645.418956 325.046449 643.534601 327.999989 641.454638 330.93723 639.146466 333.414814L645.621084 355.207772zM118.110275 336.261269C128.050412 320.67205 123.417767 299.742987 107.827825 289.800052 92.0911771 279.769098 71.3078477 284.492807 61.367711 300.082025 51.3330305 315.821202 55.9102532 336.509027 71.6469012 346.543241 87.2401035 356.482916 108.075595 351.997186 118.110275 336.261269L118.110275 336.261269zM146.685316 384.512213C147.246058 385.907484 146.721177 387.550513 145.449726 388.401368 136.702797 395.602661 126.091074 400.997925 115.241361 404.160105 113.696059 404.629542 112.20292 404.195965 111.352026 402.927833L97.1541591 384.93927C90.2915852 385.757525 83.3083866 385.464127 76.4751539 384.121016L60.7939281 400.724087C59.8191492 401.76728 58.0782397 402.213898 56.7285459 401.561902 51.4340946 399.433136 46.3743727 396.935992 41.497218 393.825972 36.6233235 390.719213 32.2221479 387.185396 28.0589617 383.283201 26.8983554 382.334547 26.5690823 380.567639 27.1037436 379.244088L35.5409603 358.021626C31.4397167 352.394903 28.0785225 346.093364 26.0735425 339.622307L3.77425262 334.337881C2.26155225 334.103163 1.24113153 332.93283 1.01292242 331.332181-.695385751 320.163494-.281349228 308.267832 2.55496396 297.298003 2.79295346 295.785373 4.05788394 294.615041 5.56406404 294.536801L28.0524415 291.211623C29.3271524 288.072263 31.1104435 284.949204 32.9947987 281.992403 34.8791539 279.038863 36.9558568 276.104882 39.2640289 273.624038L32.7926706 251.83434C32.2286681 250.435809 32.7535491 248.79604 34.0249998 247.941926 42.775189 240.740633 53.3836524 235.345368 64.2366255 232.183189 65.7819271 231.713752 67.2718066 232.147329 68.1259607 233.415461L82.3238273 251.407283C89.0396953 250.491229 96.1695998 250.879167 103.002833 252.225538L118.680798 235.619206C119.658837 234.579273 121.399747 234.129396 122.749441 234.781392 133.432887 238.892225 143.183936 245.109004 151.415765 253.060092 152.579631 254.008746 152.905644 255.775655 152.374243 257.099206L143.933766 278.321667C148.03501 283.94839 151.249498 290.15539 153.401184 296.724247L175.703734 302.005412C177.213174 302.240131 178.233595 303.413723 178.461804 305.011113 180.173372 316.18306 179.759336 328.075462 176.919762 339.04855 176.685033 340.56118 175.416842 341.728253 173.913922 341.806492L151.425545 345.134931C150.150834 348.27103 148.367543 351.39409 146.483188 354.35089 144.598832 357.304431 142.518869 360.241672 140.210697 362.719256L146.685316 384.512213z"/>
      <path d="M624.153933,85.5621285 C616.740397,72.0918965 599.618194,67.126949 586.147336,74.5401405 C572.546073,82.0217916 567.70804,99.0747402 575.121576,112.544972 C582.606835,126.142343 599.53017,131.051871 613.131433,123.56696 C626.602291,116.153769 631.639192,99.1594996 624.153933,85.5621285 L624.153933,85.5621285 Z M670.764013,83.951699 C672.006123,84.0983981 672.997202,85.1350713 673.111307,86.403203 C674.878297,95.6582825 674.584885,105.552318 672.566865,114.732418 C672.289754,116.046189 671.380178,116.962243 670.115247,117.079603 L651.323857,120.267862 C649.185212,125.601187 646.185892,130.579174 642.479124,135.032305 L648.347358,153.095847 C648.715753,154.2238 648.350618,155.67123 647.333458,156.398206 C643.672332,159.413686 639.831899,162.106428 635.61655,164.427533 C631.404462,166.745378 627.071749,168.548146 622.562989,170.028176 C621.408903,170.500873 619.987487,170.034696 619.234397,169.118642 L607.109973,154.494378 C601.368884,155.244173 595.428927,155.185493 589.906266,154.067321 L577.155897,168.235188 C576.383247,169.242522 575.121576,169.52288 573.863166,169.050183 C565.028213,165.845624 556.512754,160.799177 549.637139,154.350939 C548.626499,153.575064 548.280925,152.186313 548.822107,151.05836 L555.361928,133.317556 C553.578636,131.136631 552.010514,128.590587 550.605398,126.038024 C549.200282,123.485461 547.886449,120.795978 546.999694,118.122796 L528.511496,114.158662 C527.269387,114.011963 526.281567,112.972029 526.164202,111.703898 C524.397212,102.448818 524.690624,92.5547828 526.711904,83.3746828 C526.985755,82.0609114 527.895332,81.1448574 529.160262,81.0274981 L547.951652,77.839239 C549.963152,72.5743734 553.089617,67.5279264 556.796385,63.0780555 L550.928151,45.0112535 C550.559756,43.8833009 550.924891,42.4358704 551.942051,41.7088951 C559.199101,35.5540553 567.626537,30.9151057 576.71252,28.0789242 C577.866606,27.6094873 579.288022,28.0756642 580.041112,28.9917182 L592.165536,43.6127227 C597.909886,42.8629276 603.719437,42.9933267 609.369243,44.0397799 L622.119612,29.8719125 C622.892263,28.8645791 624.153933,28.5874809 625.412343,29.0569178 C634.247296,32.2647368 642.762755,37.3079239 649.63837,43.7561617 C650.64901,44.5320367 650.997844,45.9207876 650.453402,47.0520002 L643.913581,64.7895443 C645.696873,66.97047 647.264995,69.5165134 648.670111,72.0690767 C650.075227,74.6249 651.38906,77.3111224 652.275815,79.984305 L670.764013,83.951699 Z" transform="rotate(30 599.638 99.055)"/>
      <path d="M231.838748,208.000864 C226.612759,198.507806 214.547017,195.009849 205.056779,200.232334 C195.471996,205.50698 192.0619,217.523261 197.287889,227.016319 C202.562779,236.597397 214.488335,240.056234 224.069858,234.781589 C233.563356,229.559103 237.113638,217.581941 231.838748,208.000864 L231.838748,208.000864 Z M264.681298,206.866391 C265.558273,206.96745 266.255941,207.697686 266.337444,208.59418 C267.582814,215.114137 267.374166,222.087232 265.952749,228.555029 C265.760401,229.480863 265.118156,230.129599 264.22488,230.211098 L250.985492,232.457224 C249.476051,236.215979 247.363487,239.723716 244.752123,242.859816 L248.885968,255.590033 C249.146778,256.385467 248.889228,257.405841 248.175259,257.917657 C245.593236,260.039904 242.887328,261.940471 239.91735,263.57372 C236.947371,265.20697 233.89589,266.478361 230.717263,267.521555 C229.90223,267.854072 228.90137,267.524815 228.373229,266.879339 L219.828428,256.577806 C215.782607,257.105923 211.5966,257.063543 207.704004,256.274628 L198.722346,266.256683 C198.174644,266.967358 197.287889,267.166217 196.401133,266.833699 C190.174285,264.574534 184.172385,261.017897 179.327832,256.473487 C178.617124,255.92907 178.372614,254.951077 178.754049,254.152382 L183.363873,241.653624 C182.105463,240.118174 181.003539,238.321925 180.012459,236.522417 C179.02138,234.722909 178.095503,232.828861 177.469558,230.944594 L164.442078,228.150792 C163.565103,228.046473 162.870695,227.316237 162.789192,226.423003 C161.543822,219.899786 161.74921,212.926691 163.173887,206.458894 C163.366235,205.53306 164.008481,204.887584 164.901756,204.806085 L178.141145,202.559959 C179.559301,198.850103 181.763149,195.293467 184.374513,192.157367 L180.240668,179.42715 C179.979858,178.631716 180.237408,177.611342 180.951377,177.099526 C186.066521,172.760494 192.006478,169.493995 198.406113,167.492368 C199.221146,167.163111 200.222006,167.489108 200.753407,168.137844 L209.298208,178.439377 C213.344029,177.91126 217.438753,178.00254 221.422632,178.742555 L230.40429,168.75724 C230.951992,168.046565 231.838748,167.850966 232.725503,168.183484 C238.952351,170.442649 244.954251,173.999286 249.795544,178.540436 C250.509513,179.088113 250.754022,180.066106 250.372587,180.861541 L245.762763,193.363559 C247.017913,194.899009 248.123097,196.695258 249.114177,198.494766 C250.105256,200.294274 251.031133,202.188322 251.657078,204.069329 L264.681298,206.866391 Z"/>
    </g>
    <g filter="url(#a)" transform="translate(130.32 598.786)">
      <polygon fill="#FFA82C" points="79.75 .757 33.518 34.849 51.054 34.338 19.336 62.455 34.516 57.731 5.201 119.893 22.681 107.795 .134 174.044 20.748 161.216 18.052 190.024 64.603 140.228 62.233 165.549 89.064 119.016 92.047 141.773 116.599 86.853 122.956 104.815 139.821 28.444"/>
      <use fill="black" filter="url(#b)" xlink:href="#c"/>
      <use fill="#E83B5A" xlink:href="#c"/>
    </g>
    <g filter="url(#d)" transform="translate(82.915)">
      <g transform="translate(.783 93.428)">
        <use fill="#D2D7DF" xlink:href="#e"/>
        <use fill="#6B7482" fill-opacity=".1" xlink:href="#e"/>
        <path fill="#6B7482" fill-opacity=".1" d="M173.885201,245.409714 C183.671325,245.728885 189.939667,246.742245 189.939667,246.742245 C189.939667,246.742245 175.187579,404.036217 136.528956,392.336154 C130.592368,390.539441 123.420233,391.02182 115.511762,393.074109 C133.193114,337.078407 153.192605,288.04029 173.885201,245.409714 Z"/>
        <path fill="#D1D6DE" d="M385.776335,348.748283 C385.776335,348.748283 426.557302,402.857409 410.72937,454.055375 C394.898179,505.2566 308.100475,609.429219 292.891968,611.127668 C277.683461,612.826117 310.320623,492.660042 281.93141,463.92985 C253.542197,435.202918 385.776335,348.748283 385.776335,348.748283"/>
        <path fill="#6B7482" fill-opacity=".1" d="M395.770993,364.687397 C390.312003,354.766312 385.776335,348.748283 385.776335,348.748283 C385.776335,348.748283 253.542197,435.202918 281.93141,463.92985 C288.299175,470.374097 291.596611,481.418621 293.052338,494.656331 C317.5906,467.594295 357.198439,421.24795 395.770993,364.687397 Z"/>
        <path fill="#DEE3EB" d="M364.502356,6.1968935 C364.502356,6.1968935 208.684437,118.154342 121.003238,417.873523 C97.0673631,499.692468 141.972395,471.93049 154.87273,491.620761 C189.234501,544.057518 269.15333,500.187985 269.15333,500.187985 C269.15333,500.187985 484.067627,286.128004 506.640768,87.370363 C506.640768,87.370363 448.385503,-27.3580672 364.502356,6.1968935"/>
        <path fill="#010202" fill-opacity=".1" d="M310.780302,150.308164 C295.7022,176.257594 304.517592,209.470257 330.406285,224.632418 C356.037428,239.64462 389.554825,231.299074 404.844835,205.049726 C419.949018,179.123115 411.146667,145.920232 385.473142,130.771111 C360.252776,115.889309 326.448487,123.530699 310.780302,150.308164 M396.955321,111.01238 C433.736108,132.4989 445.958336,179.566472 424.50342,216.117354 C402.758352,253.173531 355.375621,264.651916 319.318582,243.370775 C283.695141,222.347173 270.370989,175.716438 292.161699,138.500521 C313.466649,102.119159 360.229955,89.6855999 396.955321,111.01238"/>
        <path fill="#CCD2DD" d="M171.212502,514.66881 C172.904509,511.460991 175.013814,508.510711 176.888388,505.420251 C181.19502,498.329797 185.592936,491.294763 189.96477,484.246689 C190.916728,482.711239 191.927369,481.208389 192.908668,479.689239 C195.285303,481.10407 197.851025,482.130963 200.318944,483.356715 C203.063973,484.719386 205.893766,485.870159 208.710518,487.037231 C212.642235,488.66396 216.675016,490.023371 220.711057,491.379523 C227.524729,493.671288 234.465546,495.464276 241.494387,496.914966 C247.496286,498.150498 253.556868,499.056772 259.669612,499.633789 C262.828678,499.933707 265.994264,499.943487 269.15333,500.187985 C267.555867,502.072253 265.684552,503.676162 263.904521,505.371351 C256.950664,511.989108 249.977245,518.584045 242.997307,525.175722 C239.82194,528.174902 236.620492,531.144743 233.428825,534.130883 C233.229957,533.485407 232.643133,533.592987 232.186715,533.537567 C226.351082,532.826892 220.561091,531.858678 214.816742,530.600326 C207.556432,529.006197 200.426528,527.03717 193.420508,524.533506 C188.276023,522.694878 183.242382,520.624791 178.283724,518.368886 C175.871228,517.270273 173.42287,516.1847 171.212502,514.66881 Z M173.527846,468.058613 C172.171632,470.868715 170.518746,473.512557 169.006046,476.2379 C164.10607,485.075702 159.193054,493.906984 154.283298,502.738266 C154.038789,503.175103 153.751897,503.589121 153.484567,504.012918 C153.227016,503.859699 152.946645,503.7293 152.711916,503.543481 C150.328761,501.646173 147.844541,499.882525 145.448346,497.998257 C142.025209,495.308775 138.755299,492.449774 135.566891,489.499493 C130.706037,485.003982 126.167936,480.192254 121.916727,475.109947 C117.655737,470.0146 113.766401,464.655195 110.235681,459.031732 C109.73036,458.229777 109.453249,457.281123 108.680599,456.655208 C109.433689,453.577788 110.551913,450.607947 111.490831,447.589207 C113.521892,441.065989 115.654017,434.572112 117.7405,428.065194 C118.829384,424.668297 119.888926,421.261619 121.00389,417.874501 C121.281001,417.026907 121.170157,416.052173 121.828703,415.328458 C122.164497,415.494717 122.324243,415.823974 122.513331,416.114112 C127.227479,423.380605 132.53497,430.1907 138.214117,436.723698 C143.916085,443.286035 150.032089,449.424575 156.597991,455.119758 C159.58753,457.711441 162.612931,460.247704 165.811118,462.588369 C168.35728,464.449817 170.753476,466.516643 173.527846,468.058613 Z"/>
        <path fill="#DDE3EB" d="M108.681903 456.655208C109.454553 457.281123 109.731664 458.229777 110.233725 459.031732 113.767706 464.655195 117.653781 470.0146 121.914771 475.109947 126.16598 480.192254 130.704081 485.003982 135.564935 489.499493 138.756603 492.449774 142.026513 495.308775 145.44965 497.998257 147.845845 499.882525 150.330065 501.642914 152.70996 503.543481 152.944689 503.7293 153.22506 503.856439 153.485871 504.012918 151.533053 507.585855 149.599795 511.165311 147.630677 514.725208 144.784583 519.869454 141.915669 525.003921 139.053275 530.141647 138.880488 530.448085 138.68162 530.738223 138.492532 531.034881 132.200481 526.58501 126.348548 521.610283 120.917171 516.146559 114.768565 509.959119 109.239385 503.250083 104.420913 495.973811 102.585459 493.206089 100.85107 490.373167 99.3416298 487.409847 99.0612586 486.86217 98.8558705 486.366653 99.0775593 485.701618 102.295308 476.026001 105.483715 466.337344 108.681903 456.655208M171.212502 514.66881C173.42287 516.1847 175.871228 517.270273 178.283724 518.368886 183.242382 520.624791 188.276023 522.694878 193.420508 524.533506 200.426528 527.03717 207.556432 529.006197 214.816742 530.600326 220.561091 531.858678 226.351082 532.826892 232.186715 533.537567 232.643133 533.592987 233.229957 533.485407 233.428825 534.130883 231.104352 536.425908 228.79944 538.743753 226.452146 541.019218 221.53913 545.782047 216.596773 550.512276 211.696798 555.288145 211.175177 555.793442 210.695938 556.00534 209.978709 555.953181 198.591075 555.115366 187.415349 553.146339 176.500433 549.775521 171.499393 548.233551 166.599418 546.417743 161.823327 544.266157 159.482554 543.213184 157.148301 542.150431 154.87273 540.960539 157.458013 536.758426 160.040036 532.556313 162.628579 528.357461 163.39797 527.115409 164.183661 525.886397 164.959572 524.650865 167.046056 521.322427 169.129279 517.997249 171.212502 514.66881"/>
        <use fill="black" filter="url(#f)" xlink:href="#g"/>
        <use fill="#C6CDD7" xlink:href="#g"/>
        <path fill="#37BEC0" d="M312.857983,149.928702 C328.522908,123.151237 362.330457,115.509847 387.550823,130.39165 C413.224348,145.540771 422.026699,178.743654 406.922516,204.670264 C391.632506,230.919613 358.115109,239.265158 332.483966,224.252956 C306.595273,209.090795 297.779881,175.878133 312.857983,149.928702"/>
        <path fill="#010202" fill-opacity=".1" d="M387.550171,130.391324 C369.329304,119.639914 346.635539,120.650507 329.532896,132.128892 C343.727502,125.944713 360.478051,126.593449 374.362945,134.785775 C397.630494,148.516805 405.608032,178.609669 391.922006,202.104335 C379.086874,224.138531 352.083216,232.239578 329.708943,222.505282 C330.615259,223.108378 331.534616,223.698434 332.486574,224.25589 C358.114457,239.264832 391.635114,230.919287 406.925125,204.669938 C422.026047,178.743328 413.223696,145.540445 387.550171,130.391324"/>
      </g>
      <g transform="translate(99.652 375.98)">
        <mask id="i" fill="white">
          <use xlink:href="#h"/>
        </mask>
        <path fill="#6B7482" fill-opacity=".1" d="M186.426954,20.1561945 C186.426954,20.1561945 136.846895,-25.6595461 89.8912413,22.3371202 C42.9323273,70.3337866 -20.9694828,226.917083 -37.5342039,259.363651 C-48.4099979,280.667612 76.0813302,108.524437 91.0714084,145.459996 C95.2639357,155.794128 186.426954,20.1561945 186.426954,20.1561945" mask="url(#i)"/>
      </g>
      <g transform="translate(90.872 .028)">
        <path fill="#D1D6DE" d="M83.4386737,561.458526 C85.4925556,557.81713 87.5627383,554.185514 89.6003196,550.534338 C95.5696178,539.838348 101.525875,529.135838 107.488653,518.436588 C112.981973,508.575152 118.475292,498.710457 123.981652,488.852281 C129.902048,478.24757 135.864826,467.662419 141.755881,457.038149 C146.078813,449.23702 150.271341,441.360911 154.597533,433.559782 C158.630314,426.28351 162.969547,419.189796 167.742378,412.366661 C171.04163,407.652732 174.539749,403.111581 178.673594,399.088768 C180.447105,397.364239 182.33472,395.779889 184.466845,394.508498 C185.946944,393.625043 187.498766,392.907848 189.213595,392.60793 C193.177913,391.916814 196.822738,393.931481 198.36152,397.657637 C199.231975,399.763583 199.336299,401.970589 199.153731,404.200414 C198.86358,407.792911 197.85294,411.219148 196.623871,414.586706 C194.876441,419.378875 192.60739,423.933065 190.34812,428.493775 C188.268157,432.699148 185.999107,436.806721 183.622472,440.839315 C180.57751,446.006381 177.483647,451.144107 174.3148,456.239454 C170.989468,461.589079 167.902124,467.085403 164.632214,472.474148 C158.884604,481.954166 153.088093,491.408104 147.291582,500.862042 C141.47225,510.35836 135.633357,519.844898 129.794464,529.331436 C125.856226,535.727515 121.904949,542.110553 117.953671,548.500111 C114.113238,554.716891 110.272805,560.93367 106.416071,567.143929 C105.193522,569.112956 103.90251,571.036344 102.820147,573.09013 C101.838848,574.60928 100.828208,576.108871 99.8762496,577.647581 C95.5011551,584.695655 91.1064997,591.727429 86.7998678,598.817882 C84.9220329,601.911602 82.8127287,604.861883 81.1239813,608.069702 C79.0407582,611.39488 76.957535,614.723318 74.8710518,618.048497 C74.0951408,619.287289 73.3061893,620.5163 72.5400587,621.758352 C69.9515154,625.957205 67.3694924,630.159317 64.7842092,634.36143 C62.3260711,638.292964 59.8646729,642.217979 57.4130551,646.156033 C50.5407008,657.194321 43.6879074,668.242389 36.8057727,679.274156 C30.1648877,689.921247 23.4979216,700.555297 16.840736,711.192608 C15.5301637,713.285514 14.2065508,715.368641 12.8731576,717.448507 C12.2830741,718.367821 12.2406924,718.400421 11.3213357,717.882084 C7.8981991,715.942397 4.49136314,713.97989 1.08778732,712.007603 C0.302095962,711.551206 0.308616223,711.512086 0.885659251,710.455853 C3.37965878,705.904922 5.87039818,701.350732 8.38069835,696.806322 C15.5073428,683.929406 22.6372473,671.05575 29.7736721,658.185354 C34.758411,649.194333 39.7594506,640.209832 44.7409294,631.215551 C45.9862991,628.966165 47.1860269,626.69396 48.4053156,624.434795 C48.591143,624.138137 48.7932711,623.847999 48.9627979,623.541561 C51.8251921,618.403834 54.6941066,613.269368 57.5402002,608.125121 C59.5093187,604.565225 61.445836,600.985768 63.3953938,597.412831 C63.6627245,596.989034 63.9496159,596.575017 64.1941257,596.13818 C69.1038816,587.306898 74.0168977,578.475615 78.9168732,569.637813 C80.4295736,566.912471 82.0824596,564.268628 83.4386737,561.458526"/>
        <path fill="#000000" fill-opacity=".1" d="M1.08876536,712.008907 C2.77751275,712.9869 4.4727804,713.948594 6.16152779,714.920067 C61.6978441,620.061207 175.746975,425.704538 194.668771,393.463348 C193.074567,392.592934 191.183691,392.263676 189.211313,392.605974 C187.496484,392.905892 185.947922,393.623087 184.467823,394.506542 C182.332438,395.781193 180.448083,397.365543 178.674572,399.090072 C174.537467,403.109625 171.039348,407.654036 167.743356,412.367965 C162.967265,419.18784 158.631292,426.281554 154.598511,433.557826 C150.272319,441.362215 146.079791,449.235064 141.753599,457.039453 C135.865804,467.663723 129.903026,478.245614 123.97937,488.853585 C118.47627,498.711761 112.982951,508.573196 107.486371,518.437892 C101.523593,529.137142 95.5705958,539.839652 89.6012976,550.535642 C87.5637163,554.186818 85.4935337,557.818434 83.4396517,561.45983 C82.0834376,564.269932 80.4272915,566.913775 78.9178513,569.635857 C74.0146156,578.473659 69.1048597,587.304942 64.1951037,596.139484 C63.950594,596.576321 63.6637025,596.990338 63.3963719,597.414135 C61.4435539,600.983812 59.5102968,604.563269 57.5411782,608.126425 C54.6950846,613.270672 51.8261701,618.405138 48.9637759,623.539605 C48.790989,623.846043 48.5921211,624.136181 48.4062936,624.432839 C47.1837449,626.695264 45.984017,628.967469 44.7419074,631.216855 C39.7571685,640.211136 34.759389,649.192377 29.7746501,658.186658 C22.6382253,671.057054 15.5050607,683.93071 8.38167639,696.807626 C5.86811608,701.348776 3.37737669,705.902966 0.88337716,710.457157 C0.306334132,711.51013 0.299813871,711.55251 1.08876536,712.008907"/>
        <path fill="#D1D7DF" d="M414.434793,196.316463 C438.021834,113.597763 427.530735,0.368923451 427.530735,0.368923451 L427.299266,0.235264325 C427.299266,0.235264325 319.64651,53.4739764 262.639875,108.883834 C262.639875,108.883834 295.909503,149.933486 327.695771,168.241526 C328.478202,168.691403 331.356897,170.344213 332.123028,170.78431 C363.195328,188.681593 414.434793,196.316463 414.434793,196.316463"/>
        <path fill="#6B7482" fill-opacity=".1" d="M427.320457,0.247000248 L427.300896,0.237220312 C427.300896,0.237220312 319.64488,53.4726724 262.641505,108.88253 C262.641505,108.88253 289.902713,142.51899 318.65054,162.47658 C337.917909,104.572838 405.164613,25.3455762 427.320457,0.247000248"/>
        <g transform="translate(8.309)">
          <mask id="k" fill="white">
            <use xlink:href="#j"/>
          </mask>
          <path fill="#FFFFFF" fill-opacity=".19" d="M44.8554616,710.778836 C93.57837,711.075702 141.735003,684.641268 141.735003,684.641268 C141.735003,684.641268 468.60038,359.075228 502.932104,56.7826752 C502.932104,56.7826752 480.134134,11.884153 441.015165,-25.7015376 C442.108563,-23.6818142 442.66623,-22.58354 442.66623,-22.58354 C409.554174,268.969779 163.197614,577.488474 44.8554616,710.778836 Z" mask="url(#k)"/>
        </g>
      </g>
    </g>
  </g>
</svg>
