<svg xmlns="http://www.w3.org/2000/svg" width="900" height="893" viewBox="0 0 900 893" xmlns:xlink="http://www.w3.org/1999/xlink">
  <defs>
    <filter id="b" width="200%" height="200%" x="-50%" y="-50%" filterUnits="objectBoundingBox">
      <feOffset dy="2" in="SourceAlpha" result="shadowOffsetOuter1"/>
      <feGaussianBlur stdDeviation="3" in="shadowOffsetOuter1" result="shadowBlurOuter1"/>
      <feColorMatrix values="0 0 0 0 0 0 0 0 0 0 0 0 0 0 0 0 0 0 0.2 0" in="shadowBlurOuter1" result="shadowMatrixOuter1"/>
      <feMerge>
        <feMergeNode in="shadowMatrixOuter1"/>
        <feMergeNode in="SourceGraphic"/>
      </feMerge>
    </filter>
    <filter id="c" width="200%" height="200%" x="-50%" y="-50%" filterUnits="objectBoundingBox">
      <feOffset dx=".5" dy=".5" in="SourceAlpha" result="shadowOffsetOuter1"/>
      <feColorMatrix values="0 0 0 0 0 0 0 0 0 0 0 0 0 0 0 0 0 0 0.2 0" in="shadowOffsetOuter1" result="shadowMatrixOuter1"/>
      <feMerge>
        <feMergeNode in="shadowMatrixOuter1"/>
        <feMergeNode in="SourceGraphic"/>
      </feMerge>
    </filter>
    <polygon id="a" points="309.275 6.54 359.506 38.81 405.29 .489 445.921 44.242 499.793 18.516 528.272 71.001 586.847 59.484 601.382 117.406 660.982 120.822 660.659 180.542 717.537 198.679 702.377 256.44 752.959 288.158 723.917 340.332 765.024 383.638 723.926 426.95 752.976 479.12 702.399 510.844 717.568 568.605 660.693 586.751 661.024 646.468 601.425 649.895 586.901 707.821 528.323 696.312 499.856 748.806 445.977 723.085 405.355 766.847 359.563 728.531 309.337 760.812 274.509 712.31 217.838 731.078 196.162 675.437 136.604 679.519 129.443 620.23 70.74 609.366 78.544 550.162 24.385 525.036 46.662 469.63 .454 431.821 35.802 383.697 .445 335.583 46.648 297.765 24.363 242.365 78.516 217.227 70.704 158.023 129.403 147.151 136.553 87.862 196.114 91.935 217.779 36.288 274.456 55.048"/>
    <mask id="d" width="764.578" height="766.358" x="0" y="0" fill="white">
      <use xlink:href="#a"/>
    </mask>
    <filter id="e" width="200%" height="200%" x="-50%" y="-50%" filterUnits="objectBoundingBox">
      <feOffset dx="2" dy="3" in="SourceAlpha" result="shadowOffsetOuter1"/>
      <feColorMatrix values="0 0 0 0 0 0 0 0 0 0 0 0 0 0 0 0 0 0 0.2 0" in="shadowOffsetOuter1" result="shadowMatrixOuter1"/>
      <feMerge>
        <feMergeNode in="shadowMatrixOuter1"/>
        <feMergeNode in="SourceGraphic"/>
      </feMerge>
    </filter>
  </defs>
  <g fill="none" fill-rule="evenodd">
    <g fill="#6B7482" opacity=".1" transform="translate(.133 83.41)">
      <path d="M432.678939 627.485566L464.436549 742.284857C466.234312 748.793319 463.055971 755.125412 457.507851 756.661116L423.750337 766.004394C418.206518 767.540099 412.219709 763.741704 410.421946 757.22894L378.664336 642.43395C376.9999 636.407278 379.455696 630.268761 384.625339 628.320094 390.212167 625.992878 396.17317 624.087228 402.202987 622.418171 408.228504 620.749114 414.086286 619.389779 420.313943 618.443406 425.509392 617.527146 431.010202 621.454592 432.678939 627.485566M366.191818 687.425361L387.274674 763.634161C389.076738 770.146925 385.894095 776.479018 380.350276 778.014722L346.592762 787.358C341.044642 788.889403 335.062135 785.09531 333.264372 778.582546L312.181516 702.369444C310.51278 696.342772 312.968575 690.208557 318.138219 688.25989 323.729347 685.936975 329.690351 684.022722 335.720168 682.357967 341.745684 680.68891 347.603466 679.329574 353.826823 678.383202 359.022271 677.462639 364.527383 681.394387 366.191818 687.425361M295.438237 731.930681L310.112799 784.987767C311.914863 791.500531 308.736521 797.832624 303.188401 799.364027L269.430887 808.707305C263.887068 810.243009 257.90026 806.448916 256.102497 799.936152L241.423634 746.879066C239.754897 740.848091 242.214993 734.713877 247.384637 732.76521 252.971465 730.437993 258.936769 728.532343 264.962285 726.863286 270.992102 725.194229 276.845584 723.834894 283.073241 722.892823 288.26869 721.972261 293.7695 725.899707 295.438237 731.930681M319.170427 651.626669L283.034533 628.913728 266.42458 658.952453C267.06541 660.333296 267.775053 661.955035 268.243847 663.641299 272.376982 678.598287 263.659122 693.989745 248.709304 698.127974 233.755186 702.266204 218.362379 693.542369 214.229245 678.589683 210.091809 663.636997 218.81397 648.241236 233.763788 644.107309 235.208879 643.707251 236.727086 643.548089 238.477539 643.320099L263.418273 599.287966C265.753645 595.528286 269.383578 592.706375 273.486606 591.570728 277.890695 590.61145 282.213067 591.235196 285.976327 593.566713L323.823966 616.847478 365.034885 563.123629C364.970372 562.882735 364.837045 562.400945 364.768231 562.16005 360.630796 547.203062 369.352957 531.811603 384.302774 527.673374 399.252592 523.535145 414.641098 532.258979 418.778533 547.211666 422.911667 562.164352 414.193808 577.560112 399.24399 581.69404 396.353807 582.494155 393.325996 582.816782 390.646555 582.515663L340.43822 647.81967C335.264276 654.444278 326.077621 655.949871 319.170427 651.626669M209.917905 507.770885C223.58674 557.194333 194.685605 608.219875 145.271639 621.891332 89.8452246 637.23004 40.9485817 600.098255 30.0464697 553.150771L120.018592 554.852516C127.218967 554.944503 132.054983 547.359469 130.391884 541.345868L102.812798 441.640434C149.643979 432.844249 196.957996 460.926885 209.917905 507.770885L209.917905 507.770885zM7.05048583 531.058739C3.09966774 530.997414-.119233518 527.724237.00339129132 523.987295.0723677468 479.090338 28.0231603 439.66273 69.4856741 428.191277 73.1375942 427.179428 77.0960764 429.785706 78.2610121 433.1662L106.081516 533.72634 7.05048583 531.058739zM696.116244 72.4131077L705.203458 36.7092952C704.555493 35.22851 703.970361 33.9676823 703.542312 32.42798 699.768408 18.7749049 707.728556 4.7172652 721.379012.938709909 735.029468-2.83984539 749.084411 5.12575767 752.862241 18.7788327 752.98398 19.2187477 752.881877 19.7215076 753.003615 20.1614226L800.466046 40.9277655C802.708397 39.5962371 804.785811 38.5475113 807.428721 37.8169382 821.079177 34.0383829 835.13412 42.003986 838.908023 55.6531332 842.685853 69.3101361 834.721779 83.363848 821.071323 87.1424033 807.420867 90.9209586 793.369851 82.9553555 789.592021 69.3022805 789.470282 68.8623655 789.348543 68.4224506 789.44672 67.9236184L741.984289 47.1533477C739.745865 48.4848761 737.448536 49.5964469 735.025541 50.264175 733.922037 50.5705443 732.759628 50.6569562 731.663979 50.9593977L724.233984 79.8013224 696.116244 72.4131077zM652.887182 205.754475C649.172185 192.321357 656.755335 178.605437 670.064137 174.445884L680.769299 132.606829 708.887039 139.998971 697.95018 183.562336C699.839096 186.12327 701.35494 189.021995 702.207112 192.105328 705.984942 205.758403 698.020867 219.816042 684.370412 223.59067 670.719956 227.369225 656.665013 219.403622 652.887182 205.754475L652.887182 205.754475zM812.447502 150.219139L665.944652 111.581251C662.971869 114.534965 659.315777 116.73454 655.129533 117.893245 641.479077 121.667872 627.424134 113.706197 623.646304 100.053122 619.8724 86.4000468 627.832548 72.3424071 641.486931 68.5638518 653.813968 65.150583 666.502295 71.6000506 671.552492 83.0024893L818.055342 121.640377C821.028125 118.686663 824.684217 116.487088 828.870461 115.328383 842.520917 111.553756 856.57586 119.515431 860.349763 133.168506 864.127594 146.821581 856.163519 160.879221 842.513063 164.657776 830.186026 168.067117 817.497699 161.621577 812.447502 150.219139L812.447502 150.219139z"/>
    </g>
    <g filter="url(#b)" transform="rotate(-10 766.667 1.925)">
      <use fill="#18A0DB" stroke="#0295CE" stroke-width="24" mask="url(#d)" xlink:href="#a"/>
      <g fill="#FEFEFE" filter="url(#e)" transform="rotate(-2 6221.131 -3689.768)">
        <path d="M29.2201516 238.550445L40.453451 268.176012C42.3256675 273.426113 46.444544 276.051163 52.435637 274.176127 92.8755147 262.925912 181.993023 219.800085 181.993023 106.172907 181.993023 46.1717569 148.667568 1.17089433 89.1310816 1.17089433 40.8278943 1.17089433.762459855 40.9216563.762459855 89.6725908.762459855 146.673683 41.2023376 173.674201 77.5233389 173.674201 88.0077517 173.674201 104.108814 169.924129 114.218784 165.79905 104.857701 204.42479 54.6822969 221.300114 36.7090179 227.300229 28.8457083 229.550272 27.7223784 233.675351 29.2201516 238.550445L29.2201516 238.550445zM89.8799682 129.048346C69.2855861 129.048346 52.8100803 112.173022 52.8100803 91.5476267 52.8100803 71.6722458 69.2855861 54.4219151 89.8799682 54.4219151 110.099907 54.4219151 126.949856 71.6722458 126.949856 91.5476267 126.949856 112.173022 110.099907 129.048346 89.8799682 129.048346L89.8799682 129.048346zM295.949563 271.17607C358.856039 271.17607 394.802597 220.5501 394.802597 136.173482 394.802597 51.4218576 358.856039 1.17089433 295.949563 1.17089433 233.043086 1.17089433 197.470972 51.4218576 197.470972 136.173482 197.470972 220.5501 233.043086 271.17607 295.949563 271.17607L295.949563 271.17607zM295.949563 216.800028C272.734078 216.800028 256.258572 187.17446 256.258572 136.173482 256.258572 85.5475117 272.734078 55.9219438 295.949563 55.9219438 319.539492 55.9219438 336.014997 85.5475117 336.014997 136.173482 336.014997 187.17446 319.539492 216.800028 295.949563 216.800028L295.949563 216.800028zM432.12654 191.038877C444.925061 191.038877 455.475192 180.646071 455.475192 167.655064 455.475192 154.664057 444.925061 144.444465 432.12654 144.444465 419.155067 144.444465 408.777889 154.664057 408.777889 167.655064 408.777889 180.646071 419.155067 191.038877 432.12654 191.038877L432.12654 191.038877zM421.576409 262.749236C420.365738 265.00101 421.922315 267.425998 424.51661 267.425998L437.31513 267.425998C438.179895 267.425998 439.736471 266.386718 440.25533 265.693864L499.924107 150.853362C501.134778 148.601587 499.578201 146.176599 496.983906 146.176599L483.83948 146.176599C482.974715 146.176599 481.591092 146.69624 480.89928 147.908734L421.576409 262.749236zM432.12654 173.717534C428.840434 173.717534 426.073186 170.946119 426.073186 167.655064 426.073186 164.537223 428.840434 161.765808 432.12654 161.765808 435.239694 161.765808 438.006942 164.537223 438.006942 167.655064 438.006942 170.946119 435.239694 173.717534 432.12654 173.717534L432.12654 173.717534zM466.717136 245.77432C466.717136 258.592113 477.267267 269.158132 490.065787 269.158132 503.037261 269.158132 513.587392 258.592113 513.587392 245.77432 513.587392 232.783313 503.037261 222.390507 490.065787 222.390507 477.267267 222.390507 466.717136 232.783313 466.717136 245.77432L466.717136 245.77432zM484.185386 245.77432C484.185386 242.483265 486.952634 239.71185 490.065787 239.71185 493.351894 239.71185 496.119142 242.483265 496.119142 245.77432 496.119142 248.892161 493.351894 251.663576 490.065787 251.663576 486.952634 251.663576 484.185386 248.892161 484.185386 245.77432L484.185386 245.77432z"/>
      </g>
      <path fill="#FEFEFE" d="M309.274807,6.54010727 L359.50614,38.8100556 L405.289568,0.488607456 L445.920556,44.2416871 L499.793399,18.5157367 L528.271874,71.0007513 L586.847273,59.4836546 L601.382188,117.405962 C601.382188,117.405962 433.436996,264.787437 361.472612,370.736802 C278.846837,492.381006 217.838106,731.078425 217.838106,731.078425 L196.161643,675.43746 L136.604423,679.518967 L129.44307,620.229554 L70.7403457,609.366291 L78.5439854,550.16179 L24.3853676,525.035895 L46.6616749,469.629857 L0.453828505,431.82072 L35.8022227,383.697428 L0.445340137,335.582626 L46.6475276,297.764998 L24.362732,242.364621 L78.5156909,217.227404 L70.7035628,158.022904 L129.403458,147.151149 L136.553493,87.8617356 L196.113542,91.9347516 L217.778687,36.2881256 L274.455521,55.0483411 L309.274807,6.54010727 Z" opacity=".11"/>
      <path fill="#FEFEFE" d="M337.176407,548.054218 C337.176407,560.199212 346.951252,569.854483 359.093917,569.854483 C364.497402,569.854483 369.718748,567.972009 373.847254,563.964161 C374.272247,563.539086 374.332961,562.749661 373.907967,562.324586 L369.172328,557.284414 C368.808048,556.859339 368.018775,556.859339 367.593782,557.223689 C365.408102,559.106163 362.797429,560.138487 359.458197,560.138487 C352.597591,560.138487 347.497672,554.55179 347.497672,547.811318 C347.497672,541.010121 352.536878,535.301974 359.397483,535.301974 C362.372436,535.301974 365.104536,536.212848 367.593782,538.398947 C368.018775,538.824022 368.686622,538.824022 369.111615,538.398947 L373.847254,533.480225 C374.332961,532.994425 374.332961,532.265725 373.786541,531.779926 C369.658035,528.014977 365.165249,526.132503 359.093917,526.132503 C346.951252,526.132503 337.176407,535.909224 337.176407,548.054218 L337.176407,548.054218 Z M376.444371,555.15904 C376.444371,563.174736 383.062123,569.915208 391.076282,569.915208 C399.09044,569.915208 405.647479,563.174736 405.647479,555.15904 C405.647479,547.264793 399.09044,540.585046 391.076282,540.585046 C383.062123,540.585046 376.444371,547.264793 376.444371,555.15904 L376.444371,555.15904 Z M385.187089,555.15904 C385.187089,551.940616 387.797762,549.207992 391.076282,549.207992 C394.294088,549.207992 396.904761,551.940616 396.904761,555.15904 C396.904761,558.438188 394.294088,561.231537 391.076282,561.231537 C387.797762,561.231537 385.187089,558.438188 385.187089,555.15904 L385.187089,555.15904 Z M419.780127,569.915208 C427.247866,569.915208 431.194232,565.846635 431.194232,560.988637 C431.194232,555.341215 426.580019,553.094391 420.93368,551.029742 C418.930141,550.301042 417.776588,549.693792 417.776588,548.965093 C417.776588,548.236393 418.201581,547.811318 419.780127,547.811318 C422.02652,547.811318 424.455053,548.600743 426.337166,549.511617 C426.883586,549.754517 427.612146,549.511617 427.794286,549.025818 L429.979965,544.53217 C430.344245,543.80347 429.979965,543.07477 429.251406,542.71042 C427.126439,541.617371 423.3015,540.585046 419.658701,540.585046 C412.373102,540.585046 409.033869,544.28927 409.033869,549.329442 C409.033869,553.82309 411.826682,556.312814 417.230168,558.438188 C420.508687,559.713413 422.02652,560.442112 422.02652,561.352987 C422.02652,562.020961 421.722954,562.688936 419.901554,562.688936 C417.351594,562.688936 415.226628,562.020961 412.980235,560.927912 C412.373102,560.624287 411.705255,561.049362 411.523116,561.535162 L409.276723,566.150259 C408.973156,566.757509 409.155296,567.243309 409.762429,567.607659 C411.583829,568.700708 415.226628,569.915208 419.780127,569.915208 L419.780127,569.915208 Z M437.737715,560.138487 C437.737715,566.514609 440.834094,569.915208 446.176867,569.915208 C449.151819,569.915208 452.308912,569.125783 454.191025,568.336358 C454.980298,567.972009 455.283865,567.607659 455.101725,566.757509 L453.887459,561.474437 C453.705319,560.745737 453.037472,560.442112 452.308912,560.624287 C451.641066,560.806462 449.819666,561.231537 448.848253,561.231537 C447.633986,561.231537 446.96614,560.624287 446.96614,559.288338 L446.96614,549.511617 L452.612479,549.511617 C453.341039,549.511617 453.948172,548.904368 453.948172,548.175668 L453.948172,542.528246 C453.948172,541.738821 453.341039,541.192296 452.612479,541.192296 L446.96614,541.192296 L446.96614,533.4195 C446.96614,532.6908 446.41972,532.08355 445.751873,532.08355 L439.073408,532.08355 C438.344848,532.08355 437.737715,532.6908 437.737715,533.4195 L437.737715,541.192296 L435.430609,541.192296 C434.762762,541.192296 434.216342,541.738821 434.216342,542.528246 L434.216342,548.175668 C434.216342,548.904368 434.762762,549.511617 435.430609,549.511617 L437.737715,549.511617 L437.737715,560.138487 Z M245.266748,627.032402 C245.266748,627.639651 245.752455,628.186176 246.420302,628.186176 L253.645187,628.186176 C254.25232,628.186176 254.79874,627.639651 254.79874,627.032402 L254.79874,611.547534 L258.987959,611.547534 L267.062831,627.639651 C267.184258,627.882551 267.548538,628.186176 268.034244,628.186176 L276.109116,628.186176 C277.141242,628.186176 277.566236,627.214577 277.141242,626.425152 L268.823517,611.001009 C274.469856,608.875635 277.809089,604.381987 277.809089,598.79529 C277.809089,591.569018 272.284177,585.678696 264.573585,585.678696 L246.420302,585.678696 C245.752455,585.678696 245.266748,586.225221 245.266748,586.83247 L245.266748,627.032402 Z M254.79874,603.835462 L254.79874,594.362367 L263.784312,594.362367 C266.273558,594.362367 268.398524,596.123391 268.398524,598.977465 C268.398524,601.831538 266.273558,603.835462 263.784312,603.835462 L254.79874,603.835462 Z M279.799073,614.158708 C279.799073,622.842379 286.113258,628.854151 294.491697,628.854151 C298.923769,628.854151 302.445142,627.336026 304.873675,624.846303 C305.480808,624.239053 305.359382,623.388903 304.934388,622.842379 L301.838009,618.773805 C301.413016,618.227281 300.684456,618.227281 300.077322,618.773805 C298.863056,619.623955 296.55595,620.53483 294.73455,620.53483 C290.909611,620.53483 288.906071,617.862931 288.906071,615.676832 L306.209368,615.676832 C306.816501,615.676832 307.484348,615.191032 307.545061,614.462332 C307.605774,614.037258 307.666488,613.065658 307.666488,612.640583 C307.666488,604.928512 301.473729,599.523989 294.37027,599.523989 C286.052545,599.523989 279.799073,606.264461 279.799073,614.158708 L279.799073,614.158708 Z M289.938198,610.333034 C290.302478,608.45056 291.820311,606.871711 294.127417,606.871711 C296.495236,606.871711 298.073783,608.45056 298.19521,610.333034 L289.938198,610.333034 Z M310.506458,614.158708 C310.506458,622.174404 316.456364,628.854151 324.349096,628.854151 C330.541854,628.854151 333.820374,624.481953 333.820374,624.481953 L334.609647,626.789502 C334.8525,627.578926 335.39892,628.186176 336.066767,628.186176 L338.798866,628.186176 C339.527426,628.186176 340.134559,627.578926 340.134559,626.850227 L340.134559,587.014645 C340.134559,586.346671 339.527426,585.678696 338.798866,585.678696 L332.241827,585.678696 C331.513268,585.678696 330.906134,586.346671 330.906134,587.014645 L330.906134,601.102839 C329.995435,600.374139 327.141908,599.523989 324.409809,599.523989 C316.94207,599.523989 310.506458,604.260537 310.506458,614.158708 L310.506458,614.158708 Z M319.795596,614.097983 C319.795596,610.697384 322.406269,608.146935 325.745502,608.146935 C329.206161,608.146935 331.695408,610.697384 331.695408,614.097983 C331.695408,617.559306 329.206161,620.17048 325.745502,620.17048 C322.406269,620.17048 319.795596,617.559306 319.795596,614.097983 L319.795596,614.097983 Z M346.253049,615.494657 C346.253049,623.449628 348.803009,628.854151 356.999307,628.854151 C361.188526,628.854151 364.163479,626.364427 365.863452,624.603403 L366.834865,627.214577 C367.077719,627.700376 367.563425,628.186176 368.170558,628.186176 L370.963371,628.186176 C371.691931,628.186176 372.299064,627.578926 372.299064,626.850227 L372.299064,601.467189 C372.299064,600.677764 371.691931,600.131239 370.963371,600.131239 L364.588472,600.131239 C363.920626,600.131239 363.070639,600.313414 363.070639,601.467189 L363.070639,615.798282 C363.070639,618.288006 361.9778,620.17048 359.2457,620.17048 C356.392174,620.17048 355.481474,618.470181 355.481474,615.312482 L355.481474,601.467189 C355.481474,600.677764 354.874341,600.131239 354.145781,600.131239 L347.528029,600.131239 C346.860182,600.131239 346.253049,600.677764 346.253049,601.467189 L346.253049,615.494657 Z M376.960434,614.158708 C376.960434,622.599479 383.760326,628.854151 391.774485,628.854151 C396.813691,628.854151 400.45649,626.910952 403.067163,623.024553 C403.552869,622.295854 403.188589,621.627879 402.581456,621.020629 L398.63509,617.620031 C398.27081,617.134231 397.54225,617.255681 397.056544,617.862931 C395.842277,619.07743 394.628011,620.17048 392.017338,620.17048 C388.799532,620.17048 386.188859,617.559306 386.188859,614.158708 C386.188859,611.001009 388.920959,608.146935 392.138765,608.146935 C393.899451,608.146935 395.295858,609.118535 396.449411,610.15086 C396.995831,610.636659 397.72439,610.575934 398.027957,610.272309 L401.974323,606.446636 C402.64217,605.900111 402.885023,605.110687 402.338603,604.442712 C399.667217,601.285014 396.267271,599.523989 391.835198,599.523989 C383.82104,599.523989 376.960434,605.900111 376.960434,614.158708 L376.960434,614.158708 Z M409.064226,619.07743 C409.064226,625.453552 412.160605,628.854151 417.503378,628.854151 C420.47833,628.854151 423.635423,628.064726 425.517536,627.275301 C426.306809,626.910952 426.610376,626.546602 426.428236,625.696452 L425.21397,620.41338 C425.03183,619.68468 424.363983,619.381055 423.635423,619.56323 C422.967577,619.745405 421.146177,620.17048 420.174764,620.17048 C418.960497,620.17048 418.292651,619.56323 418.292651,618.227281 L418.292651,608.45056 L423.93899,608.45056 C424.66755,608.45056 425.274683,607.843311 425.274683,607.114611 L425.274683,601.467189 C425.274683,600.677764 424.66755,600.131239 423.93899,600.131239 L418.292651,600.131239 L418.292651,592.358443 C418.292651,591.629743 417.746231,591.022493 417.078384,591.022493 L410.399919,591.022493 C409.671359,591.022493 409.064226,591.629743 409.064226,592.358443 L409.064226,600.131239 L406.75712,600.131239 C406.089273,600.131239 405.542853,600.677764 405.542853,601.467189 L405.542853,607.114611 C405.542853,607.843311 406.089273,608.45056 406.75712,608.45056 L409.064226,608.45056 L409.064226,619.07743 Z M430.6039,626.850227 C430.6039,627.578926 431.211033,628.186176 431.939593,628.186176 L438.496631,628.186176 C439.225191,628.186176 439.832325,627.578926 439.832325,626.850227 L439.832325,601.467189 C439.832325,600.677764 439.225191,600.131239 438.496631,600.131239 L431.939593,600.131239 C431.211033,600.131239 430.6039,600.677764 430.6039,601.467189 L430.6039,626.850227 Z M435.157399,596.244841 C438.071638,596.244841 440.439458,593.876567 440.439458,591.022493 C440.439458,588.107695 438.071638,585.678696 435.157399,585.678696 C432.243159,585.678696 429.936053,588.107695 429.936053,591.022493 C429.936053,593.876567 432.243159,596.244841 435.157399,596.244841 L435.157399,596.244841 Z M444.493695,614.097983 C444.493695,622.113679 451.111447,628.854151 459.125605,628.854151 C467.139764,628.854151 473.696802,622.113679 473.696802,614.097983 C473.696802,606.203736 467.139764,599.523989 459.125605,599.523989 C451.111447,599.523989 444.493695,606.203736 444.493695,614.097983 L444.493695,614.097983 Z M453.236413,614.097983 C453.236413,610.879559 455.847086,608.146935 459.125605,608.146935 C462.343411,608.146935 464.954084,610.879559 464.954084,614.097983 C464.954084,617.377131 462.343411,620.17048 459.125605,620.17048 C455.847086,620.17048 453.236413,617.377131 453.236413,614.097983 L453.236413,614.097983 Z M478.358173,626.850227 C478.358173,627.578926 478.965306,628.186176 479.693866,628.186176 L486.372331,628.186176 C487.343744,628.186176 487.647311,627.457476 487.647311,626.850227 L487.647311,612.944208 C487.647311,610.090135 489.104431,608.146935 491.897243,608.146935 C495.054336,608.146935 495.965036,610.636659 495.965036,613.308558 L495.965036,626.850227 C495.965036,627.578926 496.511456,628.186176 497.300729,628.186176 L503.918481,628.186176 C504.586328,628.186176 505.193461,627.578926 505.193461,626.850227 L505.193461,613.430008 C505.193461,605.717937 502.218508,599.523989 493.47579,599.523989 C488.375871,599.523989 486.250904,602.074438 484.733071,603.774737 L483.700945,600.981389 C483.397378,600.434864 482.850958,600.131239 482.425965,600.131239 L479.693866,600.131239 C478.965306,600.131239 478.358173,600.677764 478.358173,601.467189 L478.358173,626.850227 Z M520.661802,628.854151 C528.129541,628.854151 532.075907,624.785578 532.075907,619.92758 C532.075907,614.280158 527.461694,612.033334 521.815355,609.968685 C519.811816,609.239985 518.658263,608.632735 518.658263,607.904036 C518.658263,607.175336 519.083256,606.750261 520.661802,606.750261 C522.908195,606.750261 525.336728,607.539686 527.218841,608.45056 C527.765261,608.69346 528.493821,608.45056 528.675961,607.964761 L530.86164,603.471113 C531.22592,602.742413 530.86164,602.013713 530.133081,601.649363 C528.008114,600.556314 524.183175,599.523989 520.540376,599.523989 C513.254777,599.523989 509.915544,603.228213 509.915544,608.268385 C509.915544,612.762033 512.708357,615.251757 518.111843,617.377131 C521.390362,618.652356 522.908195,619.381055 522.908195,620.29193 C522.908195,620.959904 522.604629,621.627879 520.783229,621.627879 C518.233269,621.627879 516.108303,620.959904 513.86191,619.866855 C513.254777,619.56323 512.58693,619.988305 512.40479,620.474105 L510.158398,625.089203 C509.854831,625.696452 510.036971,626.182252 510.644104,626.546602 C512.465504,627.639651 516.108303,628.854151 520.661802,628.854151 L520.661802,628.854151 Z M540.562216,611.668984 L543.112176,611.668984 C543.658596,611.668984 544.205015,611.183184 544.265729,610.697384 L547.240682,593.633667 L547.240682,586.83247 C547.240682,586.225221 546.694262,585.678696 546.087128,585.678696 L537.587263,585.678696 C536.98013,585.678696 536.43371,586.225221 536.43371,586.83247 L536.43371,593.755117 L539.408663,610.697384 C539.469376,611.183184 540.015796,611.668984 540.562216,611.668984 L540.562216,611.668984 Z M536.06943,623.085278 C536.06943,626.182252 538.680103,628.793426 541.776483,628.793426 C544.933575,628.793426 547.604962,626.182252 547.604962,623.085278 C547.604962,619.92758 544.933575,617.255681 541.776483,617.255681 C538.680103,617.255681 536.06943,619.92758 536.06943,623.085278 L536.06943,623.085278 Z" transform="rotate(-2 396.436 577.493)"/>
    </g>
  </g>
</svg>
