<svg xmlns="http://www.w3.org/2000/svg" width="915" height="722" viewBox="0 0 915 722">
  <defs>
    <filter id="a" width="200%" height="200%" x="-50%" y="-50%" filterUnits="objectBoundingBox">
      <feOffset in="SourceAlpha" result="shadowOffsetOuter1"/>
      <feGaussianBlur stdDeviation="5" in="shadowOffsetOuter1" result="shadowBlurOuter1"/>
      <feColorMatrix values="0 0 0 0 0 0 0 0 0 0 0 0 0 0 0 0 0 0 0.3 0" in="shadowBlurOuter1" result="shadowMatrixOuter1"/>
      <feMerge>
        <feMergeNode in="shadowMatrixOuter1"/>
        <feMergeNode in="SourceGraphic"/>
      </feMerge>
    </filter>
    <filter id="b" width="200%" height="200%" x="-50%" y="-50%" filterUnits="objectBoundingBox">
      <feOffset dy="1" in="SourceAlpha" result="shadowOffsetOuter1"/>
      <feGaussianBlur stdDeviation="2" in="shadowOffsetOuter1" result="shadowBlurOuter1"/>
      <feColorMatrix values="0 0 0 0 0 0 0 0 0 0 0 0 0 0 0 0 0 0 0.2 0" in="shadowBlurOuter1" result="shadowMatrixOuter1"/>
      <feMerge>
        <feMergeNode in="shadowMatrixOuter1"/>
        <feMergeNode in="SourceGraphic"/>
      </feMerge>
    </filter>
    <filter id="c" width="200%" height="200%" x="-50%" y="-50%" filterUnits="objectBoundingBox">
      <feOffset dy="1" in="SourceAlpha" result="shadowOffsetOuter1"/>
      <feGaussianBlur stdDeviation="2" in="shadowOffsetOuter1" result="shadowBlurOuter1"/>
      <feColorMatrix values="0 0 0 0 0 0 0 0 0 0 0 0 0 0 0 0 0 0 0.2 0" in="shadowBlurOuter1" result="shadowMatrixOuter1"/>
      <feMerge>
        <feMergeNode in="shadowMatrixOuter1"/>
        <feMergeNode in="SourceGraphic"/>
      </feMerge>
    </filter>
  </defs>
  <g fill="none" fill-rule="evenodd">
    <g fill="#6B7482" opacity=".1">
      <path d="M280.717458 67.898326C256.266096 67.898326 236.219839 87.9376439 236.219839 112.380543 236.219839 137.053845 256.266096 156.862759 280.717458 156.862759 305.399304 156.862759 325.215077 137.053845 325.215077 112.380543 325.215077 87.9376439 305.399304 67.898326 280.717458 67.898326L280.717458 67.898326zM314.206634 1.75244897C315.364811.133866533 317.568805-.447901533 319.421312.364269727 333.673803 4.99825397 347.231964 12.9903648 358.473771 22.8372213 360.092913 24.2254005 360.674883 26.1982279 359.86243 28.0500936L349.896923 56.6632903C355.690689 63.7280282 360.326277 71.720139 363.685567 80.2940179L393.351607 85.9705766C395.206995 86.3161814 396.94426 87.9376439 397.174743 89.9075912 398.566284 97.320814 399.378736 104.736917 399.378736 112.380543 399.378736 120.027049 398.566284 127.440272 397.174743 134.853494 396.94426 136.823442 395.206995 138.444904 393.351607 138.793389L363.685567 144.469948C360.326277 153.040946 355.690689 161.26346 349.896923 168.100675L359.86243 196.713872C360.674883 198.565738 360.092913 200.535685 358.473771 201.923864 347.231964 211.770721 333.673803 219.762832 319.421312 224.396816 317.568805 225.208987 315.364811 224.627219 314.206634 223.008637L294.508983 200.305282C290.103877 201.114573 285.353047 201.344976 280.717458 201.344976 276.081869 201.344976 271.331039 201.114573 266.925933 200.305282L247.228282 223.008637C246.070105 224.627219 243.866112 225.208987 242.013605 224.396816 227.761114 219.762832 214.202953 211.770721 202.961146 201.923864 201.342003 200.535685 200.760034 198.565738 201.572486 196.713872L211.537994 168.100675C205.744228 161.26346 201.108639 153.040946 197.74935 144.469948L168.08331 138.793389C166.227922 138.444904 164.490657 136.823442 164.260174 134.853494 161.246609 120.027049 161.246609 104.736917 164.260174 89.9075912 164.490657 87.9376439 166.227922 86.3161814 168.08331 85.9705766L197.74935 80.2940179C201.108639 71.720139 205.744228 63.7280282 211.537994 56.6632903L201.572486 28.0500936C200.760034 26.1982279 201.342003 24.2254005 202.961146 22.8372213 214.202953 12.9903648 227.761114 4.99825397 242.013605.364269727 243.866112-.447901533 246.070105.133866533 247.228282 1.75244897L266.925933 24.4586838C271.331039 23.6465125 276.081869 23.4161093 280.717458 23.4161093 285.353047 23.4161093 290.103877 23.6465125 294.508983 24.4586838L314.206634 1.75244897zM738.168109 564.812128C713.716746 564.812128 693.670489 584.851446 693.670489 609.294344 693.670489 633.967646 713.716746 653.776561 738.168109 653.776561 762.849954 653.776561 782.665728 633.967646 782.665728 609.294344 782.665728 584.851446 762.849954 564.812128 738.168109 564.812128L738.168109 564.812128zM771.657285 498.666251C772.815462 497.047668 775.019455 496.4659 776.871962 497.278071 791.124453 501.912056 804.682614 509.904166 815.924421 519.751023 817.543564 521.139202 818.125533 523.11203 817.313081 524.963895L807.347573 553.577092C813.141339 560.64183 817.776928 568.633941 821.136217 577.20782L850.802257 582.884378C852.657645 583.229983 854.39491 584.851446 854.625393 586.821393 856.016934 594.234616 856.829387 601.650718 856.829387 609.294344 856.829387 616.94085 856.016934 624.354073 854.625393 631.767296 854.39491 633.737243 852.657645 635.358706 850.802257 635.707191L821.136217 641.383749C817.776928 649.954748 813.141339 658.177262 807.347573 665.014477L817.313081 693.627674C818.125533 695.479539 817.543564 697.449487 815.924421 698.837666 804.682614 708.684522 791.124453 716.676633 776.871962 721.310617 775.019455 722.122789 772.815462 721.541021 771.657285 719.922438L751.959633 697.219083C747.554528 698.028375 742.803697 698.258778 738.168109 698.258778 733.53252 698.258778 728.781689 698.028375 724.376584 697.219083L704.678932 719.922438C703.520755 721.541021 701.316762 722.122789 699.464255 721.310617 685.211764 716.676633 671.653603 708.684522 660.411796 698.837666 658.792653 697.449487 658.210684 695.479539 659.023136 693.627674L668.988644 665.014477C663.194878 658.177262 658.559289 649.954748 655.2 641.383749L625.53396 635.707191C623.678572 635.358706 621.941307 633.737243 621.710824 631.767296 618.697259 616.94085 618.697259 601.650718 621.710824 586.821393 621.941307 584.851446 623.678572 583.229983 625.53396 582.884378L655.2 577.20782C658.559289 568.633941 663.194878 560.64183 668.988644 553.577092L659.023136 524.963895C658.210684 523.11203 658.792653 521.139202 660.411796 519.751023 671.653603 509.904166 685.211764 501.912056 699.464255 497.278071 701.316762 496.4659 703.520755 497.047668 704.678932 498.666251L724.376584 521.372485C728.781689 520.560314 733.53252 520.329911 738.168109 520.329911 742.803697 520.329911 747.554528 520.560314 751.959633 521.372485L771.657285 498.666251zM66.2280124 246.243054C56.4785826 264.082021 63.1136112 286.696094 80.9587555 296.44503 98.9709999 306.283246 121.425804 299.558353 131.178114 281.719385 141.019737 263.713376 134.459616 241.358506 116.447371 231.517409 98.6022271 221.771354 76.0696354 228.237044 66.2280124 246.243054L66.2280124 246.243054zM31.2925556 195.436269C30.5722963 193.944408 31.0275002 192.104063 32.3585394 191.075889 41.4251634 182.52505 52.6669704 175.820317 64.338052 171.546338 65.9975294 170.918489 67.668531 171.281374 68.6970613 172.611953L85.6116305 191.291892C93.0792789 189.883552 100.765886 189.687709 108.363181 190.655403L124.335651 171.275614C125.329609 170.063117 127.205164 169.441029 128.734995 170.057357 134.704504 171.998504 140.440649 174.363017 146.021218 177.412979 151.601787 180.460062 156.69258 184.008271 161.547127 187.979846 162.895453 188.936019 163.385229 190.848366 162.898334 192.340226L155.214608 216.247438C160.132538 222.116959 164.286994 228.778491 166.966358 235.728028L191.829709 239.869525C193.506473 240.016407 194.713627 241.226024 195.0824 242.962688 197.787694 255.087656 198.216968 268.168798 195.91502 280.411847 195.768087 282.090911 194.465858 283.46469 192.820786 283.663412L168.389591 288.979966C167.225652 292.516655 165.49991 296.076384 163.653165 299.457551 161.80354 302.838718 159.740717 306.211245 157.392672 309.102805L166.11069 332.52617C166.83383 334.018031 166.378627 335.858376 165.047587 336.88655 155.980963 345.437389 144.739156 352.142122 133.068075 356.416101 131.408597 357.04395 129.737596 356.681065 128.709066 355.350486L111.794496 336.670547C104.493948 338.171048 96.6402408 338.27473 89.0429458 337.307036L73.0704757 356.686825C72.0765179 357.899322 70.2009627 358.52141 68.6682509 357.905082 56.6428017 354.18983 45.4787827 348.092786 35.8561185 339.982593 34.5106742 339.02642 34.0208978 337.114073 34.5049121 335.622213L42.1915193 311.715001C37.2735888 305.84548 33.2862334 299.276109 30.4368876 292.234411L5.57353679 288.092914C3.8996542 287.946032 2.69249962 286.736415 2.32372686 284.999751-.381567045 272.874783-.810841583 259.793641 1.49110712 247.550592 1.63804001 245.871528 2.94026882 244.497749 4.58534104 244.299027L29.0136552 238.982473C30.1804753 235.445784 31.9062166 231.886055 33.7529614 228.504888 35.6025873 225.123721 37.6654099 221.751194 40.0134552 218.859634L31.2925556 195.436269zM51.1689261 58.3551341C44.2976525 70.9265084 48.9735758 86.8617693 61.5493031 93.7306645 74.2431528 100.662921 90.065809 95.925255 96.9370827 83.3538807 103.871739 70.6644247 99.2505555 54.9134864 86.5567057 47.9783502 73.9809785 41.109455 58.1035826 45.6656781 51.1689261 58.3551341L51.1689261 58.3551341zM26.5504635 22.5533577C26.0434009 21.5021431 26.3631961 20.2061252 27.3024142 19.4803551 33.6896736 13.4553116 41.6125258 8.73204609 49.8350059 5.71952432 51.007588 5.27599818 52.1830512 5.53232173 52.9090726 6.46833471L64.8279234 19.6329972C70.0915783 18.6393834 75.5050471 18.5011415 80.8608952 19.183711L92.1171075 5.52944169C92.8171995 4.67406983 94.1367145 4.23342372 95.2171035 4.66830975 99.4205367 6.03632872 103.462632 7.70387184 107.395248 9.85238162 111.330744 12.0008914 114.914755 14.5007661 118.337427 17.3001649 119.288169 17.9712142 119.633894 19.3219529 119.29105 20.3731675L113.8747 37.218521C117.340588 41.3542584 120.267722 46.0487235 122.157682 50.9476714L139.677269 53.8651518C140.858494 53.9688333 141.7084 54.818445 141.967694 56.042462 143.87494 64.5875405 144.177449 73.8065483 142.555425 82.4322679 142.451708 83.6159643 141.535538 84.5836577 140.37448 84.7247797L123.160283 88.4717116C122.339187 90.9629462 121.12339 93.4714609 119.821161 95.853254 118.518932 98.235047 117.064008 100.61396 115.410293 102.650148L121.555545 119.158537C122.062608 120.209752 121.742813 121.50289 120.803595 122.22866 114.416335 128.253703 106.493483 132.979849 98.2681218 135.98949 97.0984207 136.433017 95.9229576 136.176693 95.1969362 135.24068L83.2780854 122.076018C78.132553 123.135872 72.6009616 123.207873 67.2451135 122.525304L55.9889013 136.179573C55.2888093 137.037825 53.9664132 137.475591 52.8889053 137.040705 44.4128939 134.422749 36.5476625 130.125729 29.765701 124.41173 28.8178397 123.737801 28.4721153 122.389942 28.8149587 121.338727L34.2313086 104.490494C30.7654209 100.354756 27.9564096 95.7265322 25.9483267 90.7642234L8.42873965 87.846743C7.24751441 87.7430615 6.39760844 86.8905697 6.1383151 85.6665527 4.23106849 77.1214743 3.92855958 67.9053465 5.55058351 59.2767469 5.65430085 58.0930504 6.57047067 57.125357 7.73152865 56.9842351L24.9457258 53.2373031C25.7668214 50.7460686 26.982619 48.2375538 28.2848478 45.8557608 29.5870767 43.4739678 31.0420004 41.0950548 32.6957158 39.0588665L26.5504635 22.5533577z"/>
    </g>
    <g filter="url(#a)" transform="translate(78.418 52.29)">
      <path fill="#E9EFF6" d="M70.4207595,568.301719 C61.6768117,568.301719 54.4021928,561.740988 53.5004282,553.037507 L6.60002401,99.972666 C6.13329599,95.4510034 7.45281101,91.0186219 10.319443,87.493453 C13.186075,83.9625241 17.2540995,81.7621736 21.7744468,81.2927271 L748.530479,6.11216474 C749.121092,6.04880386 749.711704,6.0228835 750.293674,6.0228835 C759.040503,6.0228835 766.31224,12.5836145 767.214005,21.2813351 L814.846193,481.384994 C815.814221,490.719203 809.003449,499.09724 799.668889,500.064933 L72.1061662,568.221078 C71.5933416,568.272919 71.00561,568.301719 70.4207595,568.301719"/>
      <path fill="#909DB2" d="M748.048446,1.20601672 C747.190022,1.20601672 746.320152,1.25163755 745.461729,1.34002792 L23.6588982,75.7732674 C17.0118362,76.4575799 11.0257605,79.6852538 6.81089945,84.8546644 C2.59603836,90.024075 0.653139053,96.5221923 1.34273954,103.148618 L47.9265403,551.689792 C49.2513744,564.443666 59.9473356,574.063959 72.8093862,574.063959 C73.6334731,574.063959 74.4690057,574.021189 75.2930926,573.941353 L797.765494,506.476696 C797.816999,506.470993 797.868504,506.468142 797.92001,506.462439 C804.569933,505.775275 810.553147,502.550453 814.77087,497.381042 C818.985731,492.20878 820.92863,485.713514 820.23903,479.087088 L772.931292,23.5801838 C771.609319,10.8234585 760.910496,1.20601672 748.048446,1.20601672 M759.188624,13.1851769 L807.571133,490.478991 C808.069019,495.286286 61.6606952,561.449547 61.6606952,561.449547 L13.2684815,89.4596852 L759.188624,13.1851769 Z"/>
      <path stroke="#7B8CA7" stroke-width="2" d="M745.461729,1.34002792 L23.6588982,75.7732674 C17.0118362,76.4575799 11.0257605,79.6852538 6.81089945,84.8546644 C2.59603836,90.024075 0.653139053,96.5221923 1.34273954,103.148618 L47.9265403,551.689792 C49.2513744,564.443666 59.9473356,574.063959 72.8093862,574.063959 C73.6334731,574.063959 74.4690057,574.021189 75.2930926,573.941353 L797.765494,506.476696 C804.569933,505.775275 810.553147,502.550453 814.77087,497.381042 C818.985731,492.20878 820.92863,485.713514 820.23903,479.087088 L772.931292,23.5801838 C771.609319,10.8234585 760.910496,1.20601672 748.048446,1.20601672 C747.190022,1.20601672 746.320152,1.25163755 745.461729,1.34002792 Z"/>
      <path fill="#FEFEFE" fill-opacity=".4" d="M55.5926373,493.823887 L14.7337682,99.1316944 C14.2295867,94.273067 17.7617382,89.9270868 22.6191669,89.4259598 L749.372318,14.2425175 C754.232628,13.7385105 758.577232,17.2694394 759.081413,22.1280668 L764.160682,71.2010672 C764.160682,71.2010672 397.542939,127.756411 55.5926373,493.823887"/>
      <path fill="#50647B" d="M737.693458,15.4498302 L749.373182,14.2402134 C754.230611,13.7390865 758.578096,17.2700154 759.082278,22.1257628 L760.205882,33.0036736 C760.306718,33.974247 761.176792,34.6798568 762.147701,34.5790554 L772.706702,33.4875203 C773.677612,33.3867189 774.386347,32.5169468 774.285511,31.5463734 L773.159025,20.6713426 C771.851034,8.03948746 760.548726,-1.13919979 747.915378,0.168338334 L736.235653,1.3779551 C735.264743,1.4787565 734.558889,2.34564852 734.659726,3.31910202 L735.751639,13.8715683 C735.852475,14.8450218 736.722548,15.5506316 737.693458,15.4498302"/>
      <path stroke="#50647B" stroke-width="2.838" d="M737.693458,15.4498302 L749.373182,14.2402134 C754.230611,13.7390865 758.578096,17.2700154 759.082278,22.1257628 L760.205882,33.0036736 C760.306718,33.974247 761.176792,34.6798568 762.147701,34.5790554 L772.706702,33.4875203 C773.677612,33.3867189 774.386347,32.5169468 774.285511,31.5463734 L773.159025,20.6713426 C771.851034,8.03948746 760.548726,-1.13919979 747.915378,0.168338334 L736.235653,1.3779551 C735.264743,1.4787565 734.558889,2.34564852 734.659726,3.31910202 L735.751639,13.8715683 C735.852475,14.8450218 736.722548,15.5506316 737.693458,15.4498302 L737.693458,15.4498302 Z"/>
      <path stroke="#FEFEFE" stroke-width="2" d="M774.284646,31.5466614 L773.158161,20.6716306 C771.85017,8.03977547 760.550742,-1.13891179 747.914513,0.168626338 L736.23767,1.37824311" stroke-linecap="round" opacity=".1"/>
      <path fill="#50647B" d="M15.8585251,110.007589 L14.7320395,99.1325584 C14.2307391,94.273931 17.7600096,89.9279508 22.6203193,89.4268238 L34.300044,88.2172071 C35.2709535,88.1164057 35.9768077,87.2466336 35.8759713,86.2760602 L34.7840583,75.7207138 C34.683222,74.7501404 33.8131487,74.0445306 32.8422392,74.145332 L21.1625145,75.3520687 C8.5291665,76.6596068 -0.652698972,87.9580035 0.655291905,100.586979 L1.78177744,111.464889 C1.88261374,112.435463 2.74980593,113.141073 3.72359649,113.040271 L14.2797167,111.948736 C15.2535073,111.847935 15.9593614,110.978163 15.8585251,110.007589"/>
      <path stroke="#50647B" stroke-width="2.838" d="M15.8585251,110.007589 L14.7320395,99.1325584 C14.2307391,94.273931 17.7600096,89.9279508 22.6203193,89.4268238 L34.300044,88.2172071 C35.2709535,88.1164057 35.9768077,87.2466336 35.8759713,86.2760602 L34.7840583,75.7207138 C34.683222,74.7501404 33.8131487,74.0445306 32.8422392,74.145332 L21.1625145,75.3520687 C8.5291665,76.6596068 -0.652698972,87.9580035 0.655291905,100.586979 L1.78177744,111.464889 C1.88261374,112.435463 2.74980593,113.141073 3.72359649,113.040271 L14.2797167,111.948736 C15.2535073,111.847935 15.9593614,110.978163 15.8585251,110.007589 L15.8585251,110.007589 Z"/>
      <path stroke="#FEFEFE" stroke-width="2" d="M32.8422392,74.145044 L21.1625145,75.3517807 C8.5291665,76.6593188 -0.652698972,87.9577155 0.655291905,100.586691 L1.78177744,111.464601" stroke-linecap="round" opacity=".1"/>
      <path fill="#50647B" d="M83.0229923,558.87218 L71.3432676,560.078917 C66.4858389,560.582924 62.1383538,557.051995 61.6341723,552.196248 L60.5105678,541.318337 C60.4097315,540.347764 59.5396583,539.642154 58.5687487,539.742955 L48.0097475,540.83449 C47.038838,540.935292 46.3301028,541.805064 46.4309391,542.775637 L47.5574247,553.650668 C48.8654155,566.282523 60.1677244,575.46121 72.8010724,574.153672 L84.4807971,572.944055 C85.4517066,572.843254 86.1575607,571.976362 86.0567244,571.002909 L84.9648113,560.450442 C84.863975,559.476989 83.9939018,558.771379 83.0229923,558.87218"/>
      <path stroke="#50647B" stroke-width="2.838" d="M83.0229923,558.87218 L71.3432676,560.078917 C66.4858389,560.582924 62.1383538,557.051995 61.6341723,552.196248 L60.5105678,541.318337 C60.4097315,540.347764 59.5396583,539.642154 58.5687487,539.742955 L48.0097475,540.83449 C47.038838,540.935292 46.3301028,541.805064 46.4309391,542.775637 L47.5574247,553.650668 C48.8654155,566.282523 60.1677244,575.46121 72.8010724,574.153672 L84.4807971,572.944055 C85.4517066,572.843254 86.1575607,571.976362 86.0567244,571.002909 L84.9648113,560.450442 C84.863975,559.476989 83.9939018,558.771379 83.0229923,558.87218 L83.0229923,558.87218 Z"/>
      <path stroke="#FEFEFE" stroke-width="2" d="M46.4320916,542.775349 L47.5585771,553.65038 C48.866568,566.282235 60.1659958,575.460922 72.8022248,574.153384 L84.4790685,572.943767" stroke-linecap="round" opacity=".1"/>
      <path fill="#50647B" d="M805.586539,471.350647 L806.713025,482.225678 C807.214325,487.084305 803.685055,491.430285 798.824745,491.931412 L787.14502,493.141029 C786.174111,493.24183 785.468257,494.111602 785.569093,495.082176 L786.661006,505.637522 C786.761842,506.608096 787.631915,507.313706 788.602825,507.212904 L800.28255,506.006167 C812.915898,504.698629 822.097763,493.400233 820.789772,480.771258 L819.663287,469.893347 C819.56245,468.922773 818.695258,468.217163 817.721468,468.317965 L807.165348,469.4095 C806.191557,469.510301 805.485703,470.380073 805.586539,471.350647"/>
      <path stroke="#50647B" stroke-width="2.838" d="M805.586539,471.350647 L806.713025,482.225678 C807.214325,487.084305 803.685055,491.430285 798.824745,491.931412 L787.14502,493.141029 C786.174111,493.24183 785.468257,494.111602 785.569093,495.082176 L786.661006,505.637522 C786.761842,506.608096 787.631915,507.313706 788.602825,507.212904 L800.28255,506.006167 C812.915898,504.698629 822.097763,493.400233 820.789772,480.771258 L819.663287,469.893347 C819.56245,468.922773 818.695258,468.217163 817.721468,468.317965 L807.165348,469.4095 C806.191557,469.510301 805.485703,470.380073 805.586539,471.350647 L805.586539,471.350647 Z"/>
      <path stroke="#FEFEFE" stroke-width="2" d="M788.602825,507.213192 L800.28255,506.006455 C812.915898,504.698917 822.097763,493.400521 820.789772,480.771546 L819.663287,469.893635" stroke-linecap="round" opacity=".1"/>
      <path fill="#44B9BC" d="M314.467944,393.803844 C420.775335,371.296332 494.259069,264.251008 502.902181,159.633557 C503.440935,153.078586 493.219015,153.116027 492.680261,159.633557 C484.397279,259.907907 413.417166,362.425809 311.751126,383.951227 C305.320651,385.313486 308.040351,395.163223 314.467944,393.803844"/>
      <path fill="#44B9BC" d="M529.093114 183.434783C527.312633 170.892209 521.279741 158.559878 514.771478 147.814449 511.77808 142.872301 507.19435 133.849136 500.441199 133.45457 492.515466 132.993764 483.273098 142.708139 478.075707 147.540846 470.100996 154.959828 461.662438 163.660429 457.680845 173.985372 455.312633 180.125617 465.191709 182.783894 467.536873 176.70125 470.314193 169.49827 476.678404 163.271624 482.057301 157.908989 485.212036 154.763986 496.909047 143.033583 499.850586 143.681592 501.852907 144.122238 508.505222 157.318581 510.202153 160.596067 514.365251 168.642898 517.955024 177.133256 519.237085 186.150661 520.159017 192.633631 530.006402 189.877433 529.093114 183.434783M470.871674 369.773367C493.346645 381.912735 512.214557 399.388817 528.83238 418.607324 533.142411 423.589793 540.345004 416.337852 536.060902 411.384184 518.910088 391.549349 499.218199 373.477098 476.031611 360.951804 470.243608 357.824081 465.075027 366.642763 470.871674 369.773367"/>
      <path fill="#44B9BC" d="M528.945316 357.799889C506.170717 372.793377 490.238582 394.347595 476.766852 417.687439 473.473827 423.392798 482.301324 428.542309 485.591469 422.84271 498.161434 401.069609 512.825913 380.629965 534.105254 366.621451 539.573462 363.021401 534.459621 354.168158 528.945316 357.799889M285.18998 255.940076C307.66207 268.079445 326.532864 285.555527 343.150686 304.774033 347.460718 309.756503 354.663311 302.504562 350.379209 297.550893 333.228394 277.716058 313.536505 259.643808 290.349918 247.118514 284.561914 243.990791 279.393334 252.809473 285.18998 255.940076"/>
      <path fill="#44B9BC" d="M343.263335,243.966598 C320.488736,258.960086 304.5566,280.514305 291.084871,303.854149 C287.791845,309.559508 296.619343,314.709019 299.909487,309.00942 C312.479453,287.236318 327.143932,266.796675 348.423272,252.788161 C353.891481,249.188111 348.77764,240.334868 343.263335,243.966598"/>
      <path fill="#E9507E" d="M458.954552 115.341999C463.587259 113.536214 468.211324 111.511546 472.967916 110.039846 474.558249 109.547359 476.468377 109.273755 475.641519 109.262235 482.285191 109.348636 488.433324 110.011045 495.221048 109.331356 501.706262 108.683347 501.772526 98.4592051 495.221048 99.1129741 488.61771 99.7753833 482.636677 99.2972967 476.174511 99.1158542 469.516434 98.9257715 462.189956 103.16807 456.237734 105.489383 450.176031 107.853895 452.81218 117.738192 458.954552 115.341999M459.230267 88.7514545C472.76538 77.4156173 491.653459 86.4935032 507.709479 82.5363283 514.093858 80.9638265 511.391445 71.1083299 504.992661 72.6837117 494.027434 75.3851892 483.618247 72.1393842 472.569469 72.6779516 464.367156 73.0782772 458.204618 76.3298423 452.001745 81.5254343 446.954168 85.7533329 454.217262 92.9505527 459.230267 88.7514545M511.593694 106.718296C516.381978 106.847897 520.516266 106.597334 524.800368 104.088819 530.47313 100.768133 525.336241 91.9321706 519.640431 95.2672568 516.802609 96.9290398 514.817574 96.5891951 511.593694 96.4999139 505.013405 96.3213514 505.019167 106.539733 511.593694 106.718296M77.8149414 150.209779C79.7913329 170.306697 81.7677244 190.403616 83.7412348 210.500534 84.5162338 218.357283 83.1851947 228.575665 92.4909447 230.894097 98.7370333 232.449319 108.852355 229.569279 115.184875 228.94143 125.654564 227.898856 136.121372 226.856281 146.58818 225.816587 167.521796 223.734318 188.458293 221.652049 209.391909 219.5669 215.877124 218.921771 215.943388 208.697629 209.391909 209.351399 177.988604 212.473362 146.58818 215.598205 115.184875 218.723048 111.379024 219.100334 107.573174 219.480499 103.767324 219.857784 98.944468 220.338751 97.086199 221.568528 94.8533952 218.345763 91.9954063 214.218666 93.1161298 201.869055 92.6177104 196.797304 91.0907607 181.268129 89.563811 165.738954 88.0368613 150.209779 87.397271 143.726809 77.1695891 143.660568 77.8149414 150.209779"/>
      <path fill="#E9507E" d="M100.291929 222.985508C102.469993 209.754604 111.003625 198.266125 124.43214 194.821597 133.54486 192.483005 140.485279 193.721422 147.964451 187.379574 154.974015 181.438052 160.773542 177.878322 168.935521 173.636023 174.337465 170.830864 177.800472 167.786662 179.292849 161.738578 180.865896 155.35641 171.009868 152.631892 169.436821 159.022701 167.713961 166.012558 155.028754 167.697381 149.736289 171.530714 142.755536 176.588064 141.603121 181.455332 131.51661 183.615362 127.540779 184.467854 123.743572 184.361292 119.782146 185.582429 103.979657 190.458337 93.0720499 204.245088 90.4359009 220.26963 89.3785603 226.700759 99.2259453 229.468477 100.291929 222.985508M173.996927 125.780416C177.514673 131.84866 181.029539 137.916904 184.547285 143.985148 187.843192 149.673227 196.682214 144.532356 193.374783 138.826997 189.857037 132.758753 186.33929 126.690508 182.821544 120.622264 179.525637 114.937066 170.689496 120.075057 173.996927 125.780416"/>
      <path fill="#E9507E" d="M196.865736,120.9215 C185.641215,123.7641 175.603681,128.933772 166.557225,136.116591 C161.408811,140.206248 168.68343,147.391947 173.785747,143.342611 C181.429138,137.271487 190.144276,133.16455 199.582554,130.774117 C205.955408,129.161295 203.255876,119.302918 196.865736,120.9215"/>
      <path fill="#44B9BC" d="M265.642939,441.181011 C249.983421,452.535658 224.343676,450.545731 212.954936,434.526814 C206.114453,424.905815 203.25822,402.805559 210.798435,391.643874 C213.108756,394.116209 217.219681,394.689066 218.863448,390.799663 C219.792402,388.601697 221.068207,386.6781 222.57625,384.983647 C224.422094,384.884151 226.430807,385.028873 228.644614,385.511279 C233.714654,386.61177 236.582952,381.006807 234.788381,377.563629 C246.919078,373.945579 262.177456,376.951576 270.11881,385.538415 C283.715325,400.242773 282.27062,429.126874 265.642939,441.181011 M280.533354,381.489213 C266.81318,363.537655 232.909359,359.301521 216.299775,375.600837 C196.248837,381.97162 190.786705,412.324046 199.343341,431.855487 C211.078931,458.647148 243.441531,465.964655 268.30011,452.095462 C292.124172,438.802143 296.419078,402.271897 280.533354,381.489213"/>
      <g filter="url(#b)" transform="translate(633.378 346.127)">
        <polygon fill="#44B9BC" points="3.793 123.157 17.53 129.282 14.367 136.373 .63 130.244"/>
        <polygon fill="#FEFEFE" points="43.084 29.639 60.906 37.588 17.993 133.738 .168 125.789"/>
        <polygon fill="#010202" fill-opacity=".1" points="67.84 6.683 73.127 9.041 17.696 133.232 12.409 130.873"/>
        <polygon fill="#010202" fill-opacity=".1" points="10.226 130.276 15.948 132.828 14.366 136.373 8.644 133.821"/>
        <polygon fill="#E73D2F" points="44.457 46.568 38.997 44.134 8.228 113.068 13.688 115.505"/>
        <polygon fill="#010202" fill-opacity=".1" points="56.006 1.404 56.772 1.747 1.341 125.937 .575 125.595"/>
        <polygon fill="#44B9BC" points="55.879 .971 73.701 8.92 60.907 37.588 43.084 29.639"/>
        <polygon fill="#010202" fill-opacity=".1" points="2.211 126.701 3.176 127.133 1.595 130.675 .63 130.246"/>
        <polygon fill="#010202" fill-opacity=".1" points="15.948 132.828 15.516 133.793 1.779 127.667 2.211 126.702"/>
      </g>
      <g filter="url(#c)" transform="translate(676.603 232.761)">
        <polygon fill="#E9507E" points=".113 9.236 17.405 .19 31.966 28.003 14.674 37.049"/>
        <polygon fill="#E9507E" points="63.691 125.859 77.018 118.887 80.62 125.764 67.292 132.737"/>
        <polygon fill="#FEFEFE" points="14.674 37.05 31.966 28.004 80.799 121.288 63.507 130.334"/>
        <polygon fill="#010202" fill-opacity=".1" points="12.031 3.433 17.148 .757 80.188 121.178 75.071 123.856"/>
        <polygon fill="#010202" fill-opacity=".1" points="73.267 125.23 78.819 122.327 80.619 125.766 75.068 128.669"/>
        <polygon fill="#E73D2F" points="28.81 46.472 23.514 49.242 58.525 116.126 63.823 113.355"/>
        <polygon fill="#010202" fill-opacity=".1" points=".604 9.411 1.321 9.036 64.361 129.457 63.644 129.834"/>
        <polygon fill="#010202" fill-opacity=".1" points="65.491 129.299 66.43 128.809 68.228 132.248 67.291 132.737"/>
        <polygon fill="#010202" fill-opacity=".1" points="78.819 122.326 79.308 123.262 65.981 130.235 65.491 129.299"/>
      </g>
    </g>
  </g>
</svg>
