<?xml version="1.0" encoding="utf-8"?>
<!-- Generator: Adobe Illustrator 19.1.0, SVG Export Plug-In . SVG Version: 6.00 Build 0)  -->
<svg version="1.1" id="Layer_1" xmlns="http://www.w3.org/2000/svg" xmlns:xlink="http://www.w3.org/1999/xlink" x="0px" y="0px"
	 viewBox="0 0 328 568" style="enable-background:new 0 0 328 568;" xml:space="preserve">
<style type="text/css">
	.st0{fill:#36424D;}
	.st1{fill:#2F3640;}
</style>
<g>
	<g>
		<path class="st0" d="M67.5,114.8c0,0,22.6-9.9,67-71.8l37.3,199.9c0,0-69.1-43.2-87.6-38.9L67.5,114.8z"/>
	</g>
	<g>
		<path class="st0" d="M67.8,114.3c1.7-1,3.4-2.3,4.9-3.6c0.8-0.6,1.6-1.3,2.3-2c0.8-0.7,1.6-1.3,2.3-2l2.2-2.1
			c0.7-0.7,1.5-1.4,2.2-2.1c1.5-1.4,2.9-2.9,4.3-4.4c1.4-1.4,2.8-2.9,4.2-4.5c1.4-1.5,2.8-3,4.1-4.6c1.3-1.6,2.7-3.1,4-4.6l3.9-4.7
			c1.3-1.5,2.6-3.2,3.8-4.8l3.9-4.8l3.7-4.9c1.2-1.6,2.5-3.2,3.7-4.9c1.2-1.7,2.5-3.3,3.7-4.9c1.2-1.6,2.5-3.2,3.7-4.9l7.2-10
			c1.2-1.6,3.4-2,5-0.8c0.8,0.6,1.3,1.4,1.4,2.3c0.8,4.2,1.5,8.3,2.3,12.5l2.1,12.5l1.9,12.6l1.8,12.6l1.8,12.6
			c0.6,4.2,1.3,8.4,2,12.6c0.7,4.2,1.4,8.4,2.1,12.5c0.7,4.2,1.5,8.3,2.3,12.5c0.8,4.2,1.6,8.3,2.4,12.5c0.9,4.1,1.7,8.3,2.6,12.4
			c1.8,8.3,3.6,16.6,5.5,24.8l2.8,12.4c0.9,4.1,1.8,8.3,2.7,12.4c0.9,4.1,1.7,8.3,2.6,12.4l2.5,12.5c0.4,2-0.9,4-2.9,4.4
			c-0.9,0.2-1.9,0-2.6-0.4l-0.1-0.1c-3.4-2-6.9-4.1-10.4-6.1c-3.5-2-7-3.9-10.5-5.9c-3.5-1.9-7-3.8-10.6-5.7l-5.3-2.8l-5.3-2.7
			l-5.4-2.7c-1.8-0.9-3.6-1.7-5.4-2.6l-5.4-2.5c-1.8-0.8-3.6-1.6-5.5-2.3c-1.8-0.7-3.7-1.4-5.5-2.1l-2.7-0.9l-2.7-0.8l-2.7-0.7
			c-0.9-0.2-1.8-0.4-2.7-0.5c-1.7-0.3-3.4-0.3-4.7-0.1l-0.4,0.1c-2,0.3-3.9-1.1-4.3-3.1L79,193.4c-0.6-3.7-1.2-7.5-1.8-11.2
			L75.4,171l-1.7-11.2c-0.6-3.7-1.1-7.5-1.7-11.2l-1.6-11.2c-1-7.5-2-15-2.9-22.5C67.5,114.6,67.6,114.4,67.8,114.3L67.8,114.3z
			 M68.4,114.9c1.9,7.2,3.6,14.5,5.4,21.8l2.6,11.1c0.9,3.7,1.7,7.4,2.5,11.1l2.5,11.1l2.4,11.1c0.8,3.7,1.6,7.4,2.4,11.1l2.3,11.1
			l-4.7-3c0.7-0.1,1.3-0.2,2-0.3l0.5-0.1l0.5,0l0.9,0c1.3-0.1,2.4,0.1,3.5,0.2c1.1,0.1,2.2,0.3,3.3,0.5l3.2,0.7l3.1,0.8l3,0.9
			c2,0.7,4,1.4,5.9,2.1c1.9,0.7,3.8,1.5,5.7,2.3c1.9,0.8,3.8,1.6,5.6,2.5c1.9,0.8,3.7,1.7,5.6,2.6c1.8,0.9,3.7,1.8,5.5,2.7
			c3.6,1.9,7.2,3.8,10.8,5.7c3.6,2,7.1,4,10.6,6c3.5,2,7,4.1,10.5,6.2c3.5,2.1,6.9,4.2,10.4,6.5l-5.6,3.8l-2.1-12.5
			c-0.7-4.2-1.4-8.4-2.1-12.5c-0.7-4.2-1.3-8.4-2-12.6l-1.9-12.6c-1.3-8.4-2.5-16.8-3.9-25.1c-0.6-4.2-1.4-8.4-2.1-12.5
			c-0.7-4.2-1.5-8.3-2.2-12.5c-0.7-4.2-1.5-8.3-2.3-12.5c-0.8-4.2-1.7-8.3-2.6-12.5c-0.9-4.1-1.8-8.3-2.7-12.4l-2.8-12.4l-2.8-12.4
			l-2.8-12.4l-2.6-12.4c-0.8-4.2-1.6-8.3-2.4-12.5l6.5,1.4l-7.4,9.9c-1.2,1.7-2.5,3.3-3.8,4.9c-1.3,1.6-2.5,3.3-3.8,4.9
			c-1.3,1.6-2.6,3.2-4,4.8l-4,4.8l-4.1,4.7c-1.4,1.5-2.8,3.1-4.2,4.6l-4.3,4.5c-1.4,1.5-2.9,3-4.4,4.4c-1.5,1.5-3,2.9-4.5,4.3
			c-1.5,1.4-3,2.8-4.6,4.2c-1.6,1.4-3.2,2.7-4.8,4c-1.6,1.3-3.3,2.6-5,3.8c-0.8,0.6-1.7,1.2-2.6,1.8c-0.9,0.6-1.7,1.2-2.6,1.7
			C72,113.2,70.3,114.2,68.4,114.9z"/>
	</g>
</g>
<g>
	<g>
		
			<rect x="33.1" y="111.6" transform="matrix(0.983 -0.1836 0.1836 0.983 -29.0781 12.8324)" class="st1" width="43.4" height="103.7"/>
	</g>
	<g>
		<path class="st1" d="M85.7,210.8c-1.7,0.6-3.5,1.1-5.2,1.6c-1.7,0.5-3.5,1-5.2,1.5c-1.7,0.5-3.5,1-5.2,1.4l-5.3,1.4
			c-1.8,0.5-3.5,0.9-5.3,1.3l-5.3,1.3l-5.3,1.2l-5.3,1.2c-1.7,0.4-3.5-0.7-3.8-2.5l0,0l0-0.2c-0.9-4.2-1.8-8.5-2.6-12.7
			c-0.9-4.2-1.6-8.5-2.3-12.8c-0.7-4.3-1.2-8.6-1.8-12.9l-1.5-12.9c-0.5-4.3-1.1-8.6-1.8-12.9c-0.7-4.3-1.4-8.5-2.3-12.8
			c-0.4-2.1-0.8-4.2-1.3-6.4l-1.4-6.3l-1.5-6.3l-1.6-6.3c-0.3-1.1,0.4-2.2,1.5-2.5l0.2-0.1l10.5-2.6c1.8-0.4,3.5-0.9,5.3-1.3
			l5.3-1.2l10.6-2.3l10.6-2.3c2.1-0.4,4.1,0.9,4.6,3l0,0l0,0.2l2.6,12.7c0.9,4.2,1.7,8.5,2.5,12.7c0.4,2.1,0.8,4.3,1.1,6.4l1.1,6.4
			c0.7,4.3,1.4,8.5,2,12.8l1,6.4l0.9,6.4c0.6,4.3,1.2,8.6,1.7,12.9c0.3,2.1,0.5,4.3,0.8,6.5c0.2,2.2,0.5,4.3,0.7,6.5
			c0.4,4.3,0.9,8.6,1.2,13C86,210.6,85.9,210.8,85.7,210.8L85.7,210.8z M85.1,210.1c-1.2-4-2.4-8-3.5-12.1c-0.6-2.1-1.1-4.2-1.7-6.3
			c-0.5-2.1-1.1-4.2-1.6-6.3c-1-4.2-2.1-8.4-3.1-12.6l-1.5-6.3l-1.4-6.3c-0.9-4.2-1.9-8.4-2.7-12.7l-1.3-6.4
			c-0.4-2.1-0.8-4.2-1.2-6.4c-0.8-4.2-1.6-8.5-2.3-12.8l-2.1-12.8l4.6,3.2l-10.7,1.7l-10.7,1.7l-5.4,0.8c-1.8,0.3-3.6,0.5-5.4,0.7
			l-10.8,1.4l1.8-2.6l0.8,6.4l0.9,6.4l1,6.4c0.3,2.1,0.7,4.3,1.1,6.4c0.8,4.3,1.6,8.5,2.5,12.7c0.9,4.2,2,8.4,3,12.6l3.2,12.6
			c1,4.2,2.1,8.4,3,12.6c0.9,4.2,1.7,8.5,2.5,12.7c0.8,4.3,1.5,8.5,2.1,12.8l-3.9-2.7l5.4-0.8l5.4-0.8l5.4-0.7
			c1.8-0.2,3.6-0.5,5.4-0.7l5.4-0.6c1.8-0.2,3.6-0.4,5.4-0.6c1.8-0.2,3.6-0.3,5.4-0.5C81.7,210.3,83.4,210.2,85.1,210.1z"/>
	</g>
</g>
<g>
	<path class="st1" d="M187.9,167c-1.5,0.3-3,0.1-4.4-0.7c-3.1-1.8-4.2-5.7-2.5-8.9c3.8-6.7,3.7-15-0.2-24.7
		c-3.1-7.6-7.6-13.2-7.6-13.3c-2.3-2.8-1.8-6.9,0.9-9.1c2.8-2.3,6.9-1.8,9.1,0.9c0.9,1.1,22.8,28.4,9.1,52.6
		C191.4,165.5,189.7,166.6,187.9,167z"/>
</g>
<g>
	<path class="st1" d="M217.2,189.5c-1.4,0.3-2.9,0.1-4.3-0.7c-3.2-1.7-4.3-5.7-2.6-8.8c22.2-40.9-17.7-92.3-18.1-92.8
		c-2.2-2.8-1.7-6.9,1.1-9.1c2.8-2.2,6.9-1.7,9.1,1.1c0.5,0.6,11.5,14.7,19.5,34.6c10.9,27.1,10.8,52.2-0.2,72.4
		C220.8,188,219.1,189.2,217.2,189.5z"/>
</g>
<g>
	<path class="st1" d="M245.2,222.8c-1.3,0.2-2.8,0.1-4.1-0.6c-3.2-1.6-4.5-5.5-2.9-8.7c36.8-74.4-31.6-168.3-32.3-169.3
		c-2.1-2.9-1.5-7,1.4-9.1c2.9-2.1,7-1.5,9.1,1.4c0.8,1,18.6,25.4,31.9,60c17.8,46.4,18.3,88.9,1.6,122.8
		C248.9,221.2,247.1,222.5,245.2,222.8z"/>
</g>
</svg>
