<?xml version="1.0" encoding="utf-8"?>
<!-- Generator: Adobe Illustrator 19.1.0, SVG Export Plug-In . SVG Version: 6.00 Build 0)  -->
<svg version="1.1" id="Layer_1" xmlns="http://www.w3.org/2000/svg" xmlns:xlink="http://www.w3.org/1999/xlink" x="0px" y="0px"
	 viewBox="-347 101 195 401" style="enable-background:new -347 101 195 401;" xml:space="preserve">
<style type="text/css">
	.st0{fill:#C9436B;}
</style>
<g>
	
		<rect x="-305.3" y="170.5" transform="matrix(0.9638 -0.2667 0.2667 0.9638 -63.5792 -71.1285)" class="st0" width="23.4" height="55.9"/>
</g>
<g>
	<path class="st0" d="M-289.2,171.8c0,0,11.7-6.3,32.7-41.6l29.2,105.6c0,0-39.1-20-48.8-16.9L-289.2,171.8z"/>
</g>
<g>
	<path class="st0" d="M-222,194.2c-0.8,0.2-1.6,0.2-2.4-0.2c-1.8-0.8-2.5-2.9-1.7-4.6c1.7-3.8,1.3-8.2-1.3-13.3
		c-2-4-4.7-6.8-4.7-6.8c-1.3-1.4-1.3-3.6,0.1-5c1.4-1.3,3.6-1.3,5,0.1c0.6,0.6,13.5,14.2,7.3,27.8C-220.2,193.3-221,194-222,194.2z"
		/>
</g>
<g>
	<path class="st0" d="M-205.2,205c-0.7,0.2-1.6,0.2-2.3-0.2c-1.8-0.8-2.6-2.8-1.8-4.6c10-23-13.7-48.7-14-49
		c-1.3-1.4-1.2-3.6,0.2-4.9c1.4-1.3,3.6-1.3,4.9,0.2c0.3,0.3,6.8,7.3,12,17.7c7.1,14.1,8.2,27.5,3.2,38.9
		C-203.4,204.1-204.2,204.7-205.2,205z"/>
</g>
<g>
	<path class="st0" d="M-188.6,221.6c-0.7,0.2-1.5,0.2-2.2-0.1c-1.8-0.7-2.7-2.7-2-4.5c16.3-41.6-24.7-88.9-25.1-89.4
		c-1.3-1.5-1.1-3.7,0.3-4.9c1.5-1.3,3.7-1.1,4.9,0.3c0.5,0.5,11.2,12.8,19.9,30.7c11.7,24.1,13.9,46.9,6.5,65.8
		C-186.7,220.6-187.6,221.3-188.6,221.6z"/>
</g>
</svg>
