<?xml version="1.0" encoding="utf-8"?>
<!-- Generator: Adobe Illustrator 17.0.0, SVG Export Plug-In . SVG Version: 6.00 Build 0)  -->
<!DOCTYPE svg PUBLIC "-//W3C//DTD SVG 1.1//EN" "http://www.w3.org/Graphics/SVG/1.1/DTD/svg11.dtd">
<svg version="1.1" id="Layer_1" xmlns="http://www.w3.org/2000/svg" xmlns:xlink="http://www.w3.org/1999/xlink" x="0px" y="0px"
	 width="612px" height="355.5px" viewBox="0 0 612 355.5" enable-background="new 0 0 612 355.5" xml:space="preserve">
<path fill="#808080" d="M441.8,294.8c-5.1-31.7,26-58.1,58.1-58.1s58.1,26,58.1,58.1s-26,58.1-58.1,58.1S446.8,325.5,441.8,294.8z"
	/>
<path fill="#808080" d="M214.4,294.8c5.1,31.7-26,58.1-58.1,58.1s-58.1-26-58.1-58.1s26-58.1,58.1-58.1S209.4,264.1,214.4,294.8z"/>
<path fill="#808080" d="M462.1,156.4l-24.3-71c-3.6-10-150.4-17.2-150.4-17.2c-32.4,0-64.9-1.3-97.4-1.1c-20.4,0.2-25.6,1.9-34.8,19
	c-12.7,23.6-26.3,46.6-38.7,70.4"/>
<path fill="#F6AC40" d="M445.8,156.9l-21.4-54.5c-3.2-7.7-132.7-13.1-132.7-13.1H176.3c-7.8,0-35.5,67.8-35.5,67.8"/>
<path fill="#808080" d="M603.8,296.2H22.1c-9.6,0-17.3-9.9-17.3-21.2c5.3-20.6,10.9-40.9,16.9-61.2c4.1-14,8.1-28.3,13.2-41.9
	c11.9-31.7,175.1-20,217.7-19.1c89.7,2,334.7-6.9,346,37.7C605.8,218.9,613.5,296.2,603.8,296.2z"/>
<path fill="#808080" d="M317.1,156.7c0,6.1-9.5,7-14.5,7l3,5.5c-5,0-6-8.2-6-14.2l-2.3-51.1c0-6.1-4.5-24.4,0.6-24.4l7.7,0.9
	c5,0,7.4,2.4,7.4,8.4L317.1,156.7z"/>
<path fill="#FFFFFF" d="M45.6,296.5c0,0-25.1,0-25.2,0c-18.3-2.8-15.7-20.8-15.7-20.8s27.8-2.7,33.9,0.1
	C47,279.5,45,288.8,45.6,296.5z"/>
<path fill="#FFFFFF" d="M576,296.1c8.8,0.4,17.6,0.2,26.5,0.2c6.8,0,5.8-12.6,5.8-30c-7.6-0.3-21.8-3.3-27.7,1.5
	C574.3,272.9,576,288.9,576,296.1z"/>
<path fill="#F6AC40" d="M188.1,294.6c3.8,18.3-14.3,31.9-31.9,31.9s-31.9-14.3-31.9-31.9s16-30.5,33.6-30.5S184.6,277.3,188.1,294.6
	z"/>
<g>
	<path fill="#FFFFFF" d="M309.7,24.8c0,11.5-24.6,54.7-24.6,54.7s-17-43.3-17-54.7S277.4,4,288.9,4C300.4,4,309.7,13.3,309.7,24.8z"
		/>
	<circle fill="#F6AC40" cx="288.9" cy="24" r="12.2"/>
</g>
<g>
	<path fill="#FFFFFF" d="M48.6,228.8c0,11.5-24.6,54.7-24.6,54.7S7,240.2,7,228.8S16.3,208,27.8,208S48.6,217.3,48.6,228.8z"/>
	<circle fill="#F6AC40" cx="27.9" cy="227.9" r="12.2"/>
</g>
<g>
	<g>
		<path fill="#666666" d="M452.5,163.8c4.4-6.2-4.8-11.9-9.3-14.8c-2.7-1.8-10.5-0.5-13.2,0.8c-2.6,1.3-6.1,3.1-7.9,5.1
			c-1.6,1.7-2.8,8.7,0.1,9.9c2.6,1,7.2,1.7,10,1.8c4.7,0.1,15.5,2.1,19.1-1.4C451.8,164.7,452.2,164.3,452.5,163.8z"/>
		<path fill="#666666" d="M442.8,137.4c-3.4-5.5-11.6-8.7-17.2-11c-7.6-3.1-17.1-3.4-25.1-1.9c-5.3,1-9.8,2.7-11.4,8.2
			c-8.6,28.9,30.2,23.8,47.4,23.7c0.4,0,7.7-0.2,7.7,0.5c-0.3-5.9,1.7-13.3-1.1-18.8C443,137.8,442.9,137.6,442.8,137.4z"/>
	</g>
	<g>
		<path fill="#FFFFFF" d="M456,86c0,11.5-24.6,54.7-24.6,54.7s-17-43.3-17-54.7c0-11.5,9.3-20.8,20.8-20.8S456,74.5,456,86z"/>
		<circle fill="#F6AC40" cx="435.3" cy="85.2" r="12.2"/>
	</g>
</g>
<g>
	<polygon fill="#F6AC40" points="308.6,284.2 302.8,284.2 304.6,168.3 308.6,168.2 	"/>
</g>
<g>
	<path fill="#FFFFFF" d="M239.1,149.2c0,11.5-24.6,54.7-24.6,54.7s-17-43.3-17-54.7c0-11.5,9.3-20.8,20.8-20.8
		S239.1,137.7,239.1,149.2z"/>
	<circle fill="#F6AC40" cx="218.3" cy="148.3" r="12.2"/>
</g>
<path fill="#666666" d="M423.6,188.6c-1.9,0.8,3.2,7.6,3.2,7.6h9.8h17c0,0,8-8.4,0-8.4C449.6,187.8,423.6,188.6,423.6,188.6z"/>
<path fill="#666666" d="M138.7,188.6c-1.9,0.8,3.3,7.6,3.3,7.6h9.8h16.8c0,0,8-8.4,0-8.4C163.6,187.8,138.7,188.6,138.7,188.6z"/>
<path fill="#F6AC40" d="M468,295c-3.8-18.3,14.3-31.9,31.9-31.9s31.9,14.3,31.9,31.9s-16,30.5-33.6,30.5S471.6,312.3,468,295z"/>
<g>
	<path fill="#FFFFFF" d="M524.5,238.8c0,11.5-24.6,54.7-24.6,54.7s-17-43.3-17-54.7s9.3-20.8,20.8-20.8
		C515.2,218,524.5,227.3,524.5,238.8z"/>
	<circle fill="#F6AC40" cx="503.7" cy="237.9" r="12.2"/>
</g>
</svg>
