<?xml version="1.0" encoding="utf-8"?>
<!-- Generator: Adobe Illustrator 17.1.0, SVG Export Plug-In . SVG Version: 6.00 Build 0)  -->
<!DOCTYPE svg PUBLIC "-//W3C//DTD SVG 1.1//EN" "http://www.w3.org/Graphics/SVG/1.1/DTD/svg11.dtd">
<svg version="1.1" id="Layer_1" xmlns="http://www.w3.org/2000/svg" xmlns:xlink="http://www.w3.org/1999/xlink" x="0px" y="0px"
	 viewBox="0 0 700.5 566.6" enable-background="new 0 0 700.5 566.6" xml:space="preserve">
<g>
	<path fill="#575655" d="M146.7,56.1c-0.3-0.2-0.6-0.4-1.1-0.4c-30.2-0.5-60.3,0.7-90.5,0.2c-0.9,0-1.8,0.8-1.8,1.8
		c0.4,13.7,0.2,27.4-0.2,41.1c0,1,0.8,1.8,1.8,1.8c29.7,0,59.4,0,89.1,0c1,0,1.7-0.8,1.8-1.8c0-13.8,0.7-27.5,1.6-41.3
		C147.4,56.8,147.1,56.3,146.7,56.1z"/>
	<path fill="#575655" d="M529.4,54.7c1.4,12.5,5.1,25,13.8,34.4c7.9,8.6,19.5,11.9,30.9,11.3c11.6-0.5,23.6-4.4,32.5-11.9
		c10-8.5,13.3-21.7,13.4-34.3c0-1-0.8-1.8-1.8-1.8c-29.1,0-58.2,0-87.2,0c-0.6,0-1,0.2-1.3,0.5c-0.3,0.2-0.4,0.6-0.4,1
		C529.3,54.2,529.3,54.5,529.4,54.7z"/>
	<path fill="#575655" d="M369.7,56.9c-0.2-0.2-0.4-0.4-0.6-0.5c-1.5-1.2-4-1.2-5.7-1.4c-4.4-0.5-8.8-0.6-13.2-0.7
		c-10.8-0.3-21.7-0.2-32.5,0c-3.3,0-6.6,0.1-9.9,0.2c-4.4,0.1-6,5.9-8,9.2c-7.3,11.6-14.5,23.4-21.6,35.2c-0.7,1.2,0.2,2.6,1.5,2.6
		c39.6,2.2,79.5,1.5,119.1,0.8c1.2,0,2.3-1.5,1.5-2.6C390.5,85.2,380.1,71.1,369.7,56.9z"/>
	<path fill="#575655" d="M98.7,287.8c11.6-0.5,23.6-4.4,32.4-12c9.5-8.3,12.7-21.2,12.8-33.4c0-1-0.8-1.8-1.8-1.8
		c-28.5,0-57,0-85.5,0c-0.4,0-0.8,0.1-1.1,0.3c-0.5,0.2-0.8,0.7-0.7,1.5c1.4,12.6,5,25.2,14,34.6C76.5,285.2,87.7,288.3,98.7,287.8z
		"/>
	<path fill="#575655" d="M385.2,235.9c-29.6-0.5-59.1,0.7-88.7,0.2c-0.9,0-1.8,0.8-1.8,1.8c0.4,13.4,0.2,26.8-0.2,40.3
		c0,1,0.8,1.8,1.8,1.8c29.1,0,58.2,0,87.3,0c1,0,1.7-0.8,1.8-1.8c0-13.5,0.7-27,1.5-40.5c0-0.5-0.2-1-0.4-1.2
		C386.2,236.1,385.8,235.9,385.2,235.9z"/>
	<path fill="#575655" d="M639.8,284.9c1.2,0,2.3-1.5,1.5-2.6c-9.7-14.2-19.9-28.1-30-41.9c0,0,0,0-0.1-0.1c-0.1-0.1-0.1-0.2-0.2-0.3
		c-1.3-1.3-3.8-1.4-5.5-1.6c-4.3-0.5-8.7-0.6-13-0.7c-10.6-0.3-21.1-0.2-31.7,0c-3.3,0-6.5,0.1-9.8,0.2c-4.3,0.1-5.2,4.1-7.4,7.6
		c-7.4,11.9-14.8,23.9-22.1,36c-0.7,1.2,0.2,2.6,1.5,2.6C561.8,286.3,600.9,285.6,639.8,284.9z"/>
	<path fill="#575655" d="M380.4,463.4c-0.3-0.3-0.7-0.6-1.3-0.6c-26.9-0.4-53.8,0.6-80.7,0.2c-0.9,0-1.8,0.8-1.8,1.8
		c0.4,12.2,0.2,24.4-0.2,36.7c0,1,0.8,1.8,1.8,1.8c26.5,0,53,0,79.5,0c1,0,1.7-0.8,1.8-1.8c0-12.3,0.6-24.6,1.4-36.8
		C380.9,464.1,380.7,463.7,380.4,463.4z"/>
	<path fill="#575655" d="M649.1,511.7c-9.4-13.8-19.3-27.2-29.1-40.7c0,0,0,0,0,0c-0.1-0.1-0.2-0.2-0.3-0.4
		c-1.3-1.4-3.9-1.4-5.6-1.6c-4.1-0.5-8.3-0.5-12.4-0.7c-10.3-0.3-20.6-0.2-30.9,0c-3.2,0-6.4,0.1-9.6,0.2c-4,0.1-5.1,4.4-7.1,7.6
		c-7.2,11.5-14.3,23.1-21.3,34.8c-0.7,1.2,0.2,2.6,1.5,2.6c37.7,2.1,75.6,1.5,113.3,0.8C648.8,514.3,649.9,512.8,649.1,511.7z"/>
	<path fill="#575655" d="M144.1,465.2c-27.6,0-55.3,0-82.9,0c-0.5,0-1,0.2-1.2,0.5c0,0,0,0,0,0c0,0,0,0,0,0
		c-0.2,0.2-0.3,0.5-0.4,0.8c-0.1,0.3,0,0.6,0.1,0.9c1.4,12,5,24,13.4,33.1c7.5,7.9,18.3,10.9,28.9,10.5c11.3-0.4,23-4.2,31.5-11.7
		c9.3-8.1,12.4-20.6,12.5-32.4C145.9,466,145.1,465.2,144.1,465.2z"/>
</g>
<g>
	<path fill="#FFFFFF" d="M56.8,48.1c29.1,0,58.2,0,87.2,0c0.4,0,0.6-0.1,0.9-0.2c0.4-0.2,0.8-0.6,0.8-1.2c0.1-0.3,0-0.7-0.1-1
		c-1.5-12.5-5.1-24.9-13.8-34.2c-7.9-8.7-19.5-11.9-30.9-11.4C89.3,0.6,77.3,4.4,68.4,12c-10,8.5-13.3,21.7-13.4,34.3
		C55,47.3,55.8,48.1,56.8,48.1z"/>
	<path fill="#FFFFFF" d="M546.7,45.2c18.7,0.3,37.4,0.5,56.1,0.8c1.2,0,2-0.7,2.3-1.6c0.4-0.7,0.4-1.5-0.2-2.3
		c-8.6-13.2-16.7-27.5-27.1-39.4c-1-1.1-2.5-0.8-3.5,0c-4.2,3.4-7.4,8.4-10.7,12.7c-6.6,8.5-12.8,17.3-19.1,26
		C543.4,43,544.9,45.1,546.7,45.2z"/>
	<path fill="#FFFFFF" d="M382.4,3.2c-29.7,0-59.4,0-89.1,0c-0.7,0-1.2,0.6-1.2,1.2c0,13.8-0.7,27.5-1.6,41.3
		c-0.1,0.8,0.6,1.2,1.2,1.2c0,0,0,0,0,0c30.2,0.5,60.3-0.7,90.5-0.2c0.7,0,1.3-0.6,1.2-1.2c-0.4-13.7-0.2-27.4,0.2-41.1
		C383.6,3.7,383,3.2,382.4,3.2z"/>
	<path fill="#FFFFFF" d="M54,232.8C54,232.8,54,232.8,54,232.8C54,232.9,54,232.9,54,232.8c0.2,0.2,0.3,0.3,0.4,0.3c0,0,0,0,0,0
		c0.1,0,0.1,0.1,0.2,0.1c0,0,0.1,0,0.1,0c0.1,0,0.1,0,0.2,0c0,0,0,0,0.1,0c29.6,0.5,59.1-0.7,88.7-0.2c0.7,0,1.3-0.6,1.2-1.2
		c-0.4-13.4-0.2-26.8,0.2-40.3c0-0.7-0.6-1.2-1.2-1.2c-29.1,0-58.2,0-87.3,0c-0.7,0-1.2,0.6-1.2,1.2c0,13.3-0.7,26.6-1.5,39.9
		C53.6,231.9,53.7,232.4,54,232.8z"/>
	<path fill="#FFFFFF" d="M310.3,228.1c18.3,0.2,36.7,0.5,55,0.7c0.2,0,0.3,0,0.5,0c0.5-0.1,0.9-0.3,1.2-0.5c0.8-0.6,1.3-1.7,0.7-2.8
		c-0.1-0.3-0.3-0.6-0.5-0.9c-8.3-12.8-16.2-26.6-26.2-38.1c-1-1.1-2.5-0.8-3.5,0c-4.3,3.5-7.6,8.7-10.9,13
		c-6.3,8.2-12.3,16.5-18.3,24.9C307,225.9,308.5,228,310.3,228.1z"/>
	<path fill="#FFFFFF" d="M622.1,230.6c0.6-0.2,1-0.7,0.9-1.6c-1.4-12.6-5-25.2-14-34.6c-7.7-8.2-18.9-11.3-29.9-10.8
		c-11.6,0.5-23.6,4.4-32.4,12c-9.5,8.3-12.7,21.2-12.8,33.4c0,1,0.8,1.8,1.8,1.8c28.5,0,57,0,85.5,0
		C621.5,230.8,621.8,230.7,622.1,230.6z"/>
	<path fill="#FFFFFF" d="M379.2,417.3c-26.5,0-53,0-79.5,0c-0.7,0-1.2,0.6-1.2,1.2c0,12.2-0.6,24.4-1.4,36.4
		c-0.3,0.7,0.1,1.7,1.2,1.7c26.9,0.4,53.8-0.6,80.7-0.2c0.7,0,1.3-0.6,1.2-1.2c-0.4-12.2-0.2-24.4,0.2-36.7
		C380.4,417.8,379.8,417.3,379.2,417.3z"/>
	<path fill="#FFFFFF" d="M401.9,387.1l-15.1,15.1c2.2,2,3.1,2.9,4.7,4.6c1.6-1.7,12.9-11.4,15-13.5
		C406.5,393.3,403.7,388.9,401.9,387.1z"/>
	<path fill="#FFFFFF" d="M398.8,440.8c2.2-0.8,20.1-5.7,22.9-6.7c0,0-2-6.3-2.7-8.7l-22.3,9.2C397.7,437.4,398.2,438.6,398.8,440.8z
		"/>
	<path fill="#FFFFFF" d="M400,475.8l32.1,7.1c0.3-2.6,0.9-9.1,0.9-9.1c-2.9-0.4-29.9-4.2-32.2-4.5
		C400.6,471.6,400.4,472.9,400,475.8z"/>
	<path fill="#FFFFFF" d="M279.5,387.5c0,0-4.4,2.7-6.2,4.6l15.1,15.1c2-2.2,2.9-3.1,4.6-4.7C291.3,400.9,281.6,389.6,279.5,387.5z"
		/>
	<path fill="#FFFFFF" d="M352.3,374.6c-2.6-0.2-9.1-0.9-9.1-0.9c-0.4,2.9-4.2,29.9-4.5,32.2c2.3,0.2,3.6,0.4,6.5,0.8L352.3,374.6z"
		/>
	<path fill="#FFFFFF" d="M396.6,515c1.7,1.6,11.4,12.9,13.5,15c0,0,4.4-2.8,6.2-4.6l-15.1-15.1C399.2,512.5,398.3,513.4,396.6,515z"
		/>
	<path fill="#FFFFFF" d="M276.6,434.6l-22.3-9.2c-0.8,2.4-2.7,8.7-2.7,8.7c2.8,1,20.7,5.9,22.9,6.7
		C275.1,438.6,275.6,437.4,276.6,434.6z"/>
	<path fill="#FFFFFF" d="M247.5,470.7c0,0,0.7,6.6,0.9,9.1l32.1-7.1c-0.4-2.9-0.6-4.2-0.8-6.5C277.4,466.5,250.4,470.3,247.5,470.7z
		"/>
	<path fill="#FFFFFF" d="M272,506.5l-15.1,15.1c1.8,1.8,6.2,4.6,6.2,4.6c2.1-2.1,11.8-13.4,13.5-15C274.9,509.6,274,508.7,272,506.5
		z"/>
	<path fill="#FFFFFF" d="M299.5,537.9c2.6,0.3,9.1,1,9.1,1c0.3-2.2,3.3-22.8,3.5-24.6c-2.3-0.2-3.6-0.4-6.5-0.8L299.5,537.9z"/>
	<path fill="#FFFFFF" d="M342.8,510.1l2.2,32.8c2.5-0.4,9-1.6,9-1.6c-0.4-2.9-4.3-29.8-4.7-32.2C347,509.6,345.8,509.8,342.8,510.1z
		"/>
	<path fill="#FFFFFF" d="M561.4,461.3c17.8,0.2,35.6,0.5,53.4,0.7c1.2,0,2-0.7,2.3-1.6c0.3-0.6,0.4-1.4-0.2-2.2
		c-8.1-12.6-15.9-26.2-25.8-37.5c-1-1.1-2.5-0.8-3.5,0c-4,3.3-7,8-10.2,12c-6.3,8.1-12.3,16.5-18.2,24.8
		C558.1,459.1,559.6,461.2,561.4,461.3z"/>
	<path fill="#FFFFFF" d="M665.7,434.9l-23.1,17.8c1.8,2.2,2.6,3.1,3.9,5c2.5-2,19.2-13.4,22.4-15.9
		C668.9,441.8,667.2,436.9,665.7,434.9z"/>
	<path fill="#FFFFFF" d="M664.2,497.2l31.7-3.1c-0.4-2.4-1.8-8.6-1.8-8.6c-2.8,0.5-28.8,5.1-31.1,5.5
		C663.5,493.2,663.7,494.4,664.2,497.2z"/>
	<path fill="#FFFFFF" d="M676.2,462c-2.2,0.5-22.1,5.4-23.9,5.8c0.7,2.2,1,3.4,1.6,6.1l24.7-3.4C678,468.1,676.2,462,676.2,462z"/>
	<path fill="#FFFFFF" d="M637.7,394.8c-1.3,2.5-13.9,25.8-15,27.8c2.1,0.9,3.1,1.5,5.6,3l17.3-26.8
		C643.4,397.6,637.7,394.8,637.7,394.8z"/>
	<path fill="#FFFFFF" d="M515.4,416.7c2.3,1.8,14.3,9.7,16.2,11.1c1.3-1.9,2.1-2.8,3.9-5L519,410.1
		C517.5,412.1,515.4,416.7,515.4,416.7z"/>
	<path fill="#FFFFFF" d="M499.4,457.2l31.7,3.1c0.5-2.8,0.7-4,1.2-6.2c-2.3-0.4-28.3-5-31.1-5.5
		C501.2,448.6,499.9,454.9,499.4,457.2z"/>
	<path fill="#FFFFFF" d="M522,492.4c-2.3,0.2-28.5,2.7-31.4,3c0,0,0.4,6.4,0.6,8.8l31.4-5.5C522.2,495.9,522.1,494.7,522,492.4z"/>
	<path fill="#FFFFFF" d="M609.1,528.1c0.6,2.2,7.3,27.7,8,30.5c0,0,6.2-1.4,8.6-2l-10.5-30.1C612.5,527.3,611.3,527.7,609.1,528.1z"
		/>
	<path fill="#FFFFFF" d="M659.1,524.1c1.7,1.6,11,12.6,13.1,14.6c0,0,4.3-2.7,6.1-4.4l-14.7-14.7
		C661.6,521.7,660.8,522.6,659.1,524.1z"/>
	<path fill="#FFFFFF" d="M520.9,523.4l-14.6,14.7c1.8,1.8,6,4.4,6,4.4c2.1-2,11.4-13,13.1-14.6C523.7,526.4,522.9,525.5,520.9,523.4
		z"/>
	<path fill="#FFFFFF" d="M557.5,555.3c2.5,0.1,8.8,0.4,8.8,0.4c0.2-2.1,1.8-21.5,1.9-23.2c-2.3-0.1-3.5-0.2-6.3-0.4L557.5,555.3z"/>
	<path fill="#FFFFFF" d="M577.1,375.4l2.1,31.8c2.5-0.5,8.8-1.6,8.8-1.6c-0.4-2.8-4.2-28.9-4.6-31.2
		C581.2,374.9,580,375,577.1,375.4z"/>
	<path fill="#FFFFFF" d="M131.4,408.9c2.3,1.7,3.3,2.5,5.1,4c1.5-1.9,11.7-12.8,13.5-15.1c0,0-3.2-4.1-5.2-5.6L131.4,408.9z"/>
	<path fill="#FFFFFF" d="M151.6,430.4c2.2-0.8,20.1-5.7,22.9-6.7c0,0-1.9-6.3-2.7-8.7l-22.3,9.2C150.5,427,151,428.2,151.6,430.4z"
		/>
	<path fill="#FFFFFF" d="M157.8,448.3c0.4,2.3,0.5,3.6,0.7,6.5l32.9-0.6c-0.4-2.5-1.2-9-1.2-9C187.3,445.5,160.2,448.1,157.8,448.3z
		"/>
	<path fill="#FFFFFF" d="M158.1,476.7l32,7.4c0.3-2.6,1.1-9.1,1.1-9.1c-2.9-0.4-29.8-4.5-32.2-4.8
		C158.8,472.5,158.6,473.8,158.1,476.7z"/>
	<path fill="#FFFFFF" d="M62.2,512.6c-2,2-15.6,13.9-18.1,16.5c0,0,2.6,4.6,4.4,6.4l18.4-18.3C64.7,515.2,63.8,514.3,62.2,512.6z"/>
	<path fill="#FFFFFF" d="M52.6,484.6c-2.8,1-24.2,7-27.5,8.2c0,0,2.4,7.6,3.3,10.4L55.1,492C53.9,488.7,53.4,487.3,52.6,484.6z"/>
	<path fill="#FFFFFF" d="M46.1,452.4l-32.8-2.3c0.1,2.6,0.4,9.1,0.4,9.1c3,0,30.1-0.2,32.5-0.3C46,456.6,46,455.3,46.1,452.4z"/>
	<path fill="#FFFFFF" d="M62.9,421.8c-1.7-1.6-11.4-12.9-13.5-15c0,0-4.4,2.8-6.2,4.6l15.1,15.1C60.3,424.3,61.2,423.4,62.9,421.8z"
		/>
	<path fill="#FFFFFF" d="M78,407.4c2.8-1,4-1.5,6.2-2.1c-0.8-2.2-5.7-20.1-6.7-22.9c0,0-6.3,2-8.7,2.7L78,407.4z"/>
	<path fill="#FFFFFF" d="M113.9,374.6c-2.6-0.2-9.1-0.9-9.1-0.9c-0.4,2.9-4.2,29.9-4.5,32.2c2.3,0.2,3.6,0.4,6.5,0.8L113.9,374.6z"
		/>
	<path fill="#FFFFFF" d="M146.5,500.2c2.4,2.3,16.3,17.8,19.2,20.7c0,0,4.8-2.4,6.5-4.3l-21.1-21.1
		C149.1,497.7,148.3,498.7,146.5,500.2z"/>
	<path fill="#FFFFFF" d="M123.1,520.9c0.8,2.2,5.7,20.1,6.7,22.9c0,0,6.3-2,8.7-2.7l-9.2-22.3C126.5,519.8,125.3,520.3,123.1,520.9z
		"/>
	<path fill="#FFFFFF" d="M84.5,553c2.5,0.3,9,1,9,1c0.4-2.9,4.2-29.9,4.5-32.2c-2.3-0.2-3.6-0.4-6.5-0.8L84.5,553z"/>
	<path fill="#FFFFFF" d="M146.3,456.5c-1.4-12-5-24-13.4-33.1c-7.5-7.9-18.3-10.9-28.9-10.5c-11.3,0.4-23,4.2-31.5,11.7
		c-9.3,8.1-12.4,20.6-12.5,32.4c0,1,0.8,1.8,1.8,1.8c27.6,0,55.3,0,82.9,0c0.8,0,1.3-0.4,1.5-0.9c0.1-0.2,0.2-0.3,0.2-0.5
		C146.4,457.1,146.4,456.8,146.3,456.5z"/>
	<path fill="#FFFFFF" d="M106.8,160c-0.7-0.7-1.4-1.5-2.2-2.3l-1.4,1.4c0.8,0.8,1.5,1.6,2.2,2.3c1.1,1.1,2.1,2.2,3,3l0.7,0.6
		l0.5-0.8c0.4-0.4,0.9-0.8,1.4-1.3c1.3-1.1,2.8-2.5,4.2-4.1l-1.5-1.3c-1.1,1.2-2.3,2.4-3.3,3.4c1.5-4.9,1.9-12-0.2-16.1
		c-0.2-0.3-0.4-0.7-0.6-1.1c0-1.8-0.4-3.6-0.8-4.9c-0.9-2.3-2.4-4.4-5-6.6c-4.7-4.1-10.5-5.7-15.6-4.5l0.5,1.9
		c4.4-1.1,9.6,0.4,13.8,4.1c2.3,1.9,3.7,3.7,4.4,5.7c0.2,0.5,0.4,1.3,0.5,2c-0.2-0.1-0.5-0.2-0.7-0.3c-1-0.3-2.1-0.2-3.2,0.3
		c-1.4,0.6-2.2,1.8-2.2,3.1c-0.1,1.4,0.8,2.9,2.1,3.7c1.2,0.8,2.7,0.8,3.9,0.1c0.7-0.3,1.2-0.9,1.5-1.5c1.3,4,0.7,10.4-0.7,14.5
		C107.7,160.9,107.3,160.5,106.8,160z M106.4,146.6c-0.8,0.5-1.5,0.3-1.9,0c-0.7-0.5-1.1-1.3-1.1-2c0.1-0.6,0.4-1.1,1.1-1.4
		c0.3-0.2,0.7-0.3,1-0.3c0.2,0,0.4,0,0.6,0.1c0.5,0.1,1,0.6,1.5,1.2C107.5,145.3,107.1,146.2,106.4,146.6z M109.2,161.9
		c-0.1,0.1-0.2,0.2-0.3,0.3c-0.2-0.2-0.4-0.4-0.5-0.6L109.2,161.9z"/>
	<path fill="#FFFFFF" d="M583.9,155.8c-0.7-0.7-1.4-1.5-2.2-2.3l-1.4,1.4c0.8,0.8,1.5,1.6,2.2,2.3c1.1,1.1,2.1,2.2,3,3l0.7,0.6
		l0.5-0.7c0.4-0.4,0.9-0.8,1.4-1.3c1.3-1.2,2.8-2.6,4.2-4.2l-1.5-1.3c-1.1,1.3-2.3,2.4-3.4,3.4c1.6-4.9,1.9-12.1-0.1-16.2
		c-0.2-0.3-0.4-0.7-0.6-1.1c0-1.8-0.4-3.6-0.8-4.9c-0.9-2.3-2.4-4.4-5-6.6c-4.7-4.1-10.5-5.7-15.6-4.5l0.5,1.9
		c4.4-1.1,9.6,0.4,13.8,4.1c2.3,1.9,3.7,3.7,4.4,5.7c0.2,0.5,0.4,1.3,0.5,2c-0.2-0.1-0.5-0.2-0.7-0.3c-1-0.3-2.1-0.2-3.2,0.3
		c-1.4,0.6-2.2,1.8-2.2,3.1c-0.1,1.4,0.8,2.9,2.1,3.7c1.2,0.8,2.7,0.8,3.9,0.1c0.7-0.3,1.2-0.9,1.5-1.5c1.3,4.1,0.7,10.5-0.8,14.6
		C584.8,156.7,584.3,156.2,583.9,155.8z M583.5,142.3c-0.8,0.5-1.5,0.3-1.9,0c-0.7-0.5-1.1-1.3-1.1-2c0.1-0.6,0.4-1.1,1.1-1.4
		c0.3-0.2,0.7-0.3,1-0.3c0.2,0,0.4,0,0.6,0.1c0.5,0.1,1,0.6,1.5,1.2C584.6,141,584.2,141.9,583.5,142.3z M586.4,157.7
		c-0.1,0.1-0.3,0.2-0.4,0.3c-0.2-0.2-0.5-0.5-0.7-0.7L586.4,157.7z"/>
	<path fill="#FFFFFF" d="M338.5,344.5c0.3,0.3,0.6,0.5,0.9,0.8l0.7,0.6l0.7-0.9c0.3-0.3,0.8-0.8,1.4-1.3c1.3-1.2,3-2.8,4.5-4.5
		l-1.5-1.3c-1.4,1.7-3.1,3.2-4.4,4.4c-0.3,0.3-0.6,0.6-0.8,0.8v-31.6h-2v29.7c-0.4-0.4-0.7-0.8-1.1-1.2c-0.6-0.6-1.1-1.2-1.7-1.8
		l-1.4,1.4c0.6,0.6,1.2,1.2,1.7,1.8c0.9,1,1.7,1.8,2.5,2.6v0.5H338.5z"/>
	<path fill="#FFFFFF" d="M582,311.5v30.8c-0.6-0.6-1.2-1.3-1.9-2c-0.6-0.6-1.1-1.2-1.7-1.8l-1.4,1.4c0.6,0.6,1.2,1.2,1.7,1.8
		c1.4,1.5,2.6,2.8,3.9,3.9l0.7,0.6l0.7-0.8c0.3-0.3,0.8-0.8,1.4-1.3c1.3-1.2,3-2.8,4.5-4.5l-1.5-1.3c-1.4,1.7-3.1,3.2-4.4,4.4v-31.2
		H582z"/>
	<path fill="#FFFFFF" d="M342.4,146.2c-0.2-0.3-0.4-0.7-0.6-1.1c0-1.8-0.4-3.6-0.8-4.9c-0.9-2.3-2.4-4.4-5-6.6
		c-4.7-4.1-10.5-5.7-15.6-4.5l0.5,1.9c4.4-1.1,9.6,0.4,13.8,4.1c2.3,1.9,3.7,3.7,4.4,5.7c0.2,0.5,0.4,1.3,0.5,2
		c-0.2-0.1-0.5-0.2-0.7-0.3c-1-0.3-2.1-0.2-3.2,0.3c-1.4,0.6-2.2,1.8-2.2,3.1c-0.1,1.4,0.8,2.9,2.1,3.7c1.2,0.8,2.7,0.8,3.9,0.1
		c0.7-0.3,1.2-0.9,1.5-1.5c1.3,4.1,0.7,10.5-0.8,14.6c-0.4-0.4-0.8-0.8-1.2-1.3c-0.7-0.7-1.4-1.5-2.2-2.3l-1.4,1.4
		c0.8,0.8,1.5,1.6,2.2,2.3c1.1,1.1,2.1,2.2,3,3l0.7,0.6l0.5-0.8c0.4-0.4,0.9-0.8,1.4-1.3c1.3-1.1,2.8-2.5,4.2-4.1l-1.5-1.3
		c-1.1,1.3-2.3,2.4-3.4,3.4C344.1,157.6,344.4,150.4,342.4,146.2z M338.6,148c-0.8,0.5-1.5,0.3-1.9,0c-0.7-0.5-1.1-1.3-1.1-2
		c0.1-0.6,0.4-1.1,1.1-1.4c0.3-0.2,0.7-0.3,1-0.3c0.2,0,0.4,0,0.6,0.1c0.5,0.1,1,0.6,1.5,1.2C339.7,146.7,339.3,147.6,338.6,148z
		 M341.1,163.7c-0.2-0.2-0.5-0.5-0.7-0.7l1,0.4C341.3,163.5,341.2,163.6,341.1,163.7z"/>
	<path fill="#FFFFFF" d="M97,311.5v30.6c-0.7-0.7-1.4-1.4-2.1-2.2c-0.6-0.6-1.1-1.2-1.7-1.8l-1.4,1.4c0.6,0.6,1.2,1.2,1.7,1.8
		c1.4,1.5,2.6,2.8,3.9,3.9l0.7,0.6l0.7-0.9c0.3-0.3,0.8-0.8,1.4-1.3c1.3-1.2,3-2.8,4.5-4.5l-1.5-1.3c-1.3,1.6-2.9,3-4.2,4.2v-30.5
		H97z"/>
</g>
</svg>
