<svg width="188" height="99" viewBox="0 0 188 99" xmlns="http://www.w3.org/2000/svg" xmlns:xlink="http://www.w3.org/1999/xlink"><title>error-sprite</title><defs><path id="a" d="M0 7h1v1H0z"/><mask id="aK" x="0" y="0" width="1" height="1" fill="#fff"><use xlink:href="#a"/></mask><path id="b" d="M1 6h1v1H1z"/><mask id="aL" x="0" y="0" width="1" height="1" fill="#fff"><use xlink:href="#b"/></mask><path id="c" d="M1 6h1v1H1z"/><mask id="aM" x="0" y="0" width="1" height="1" fill="#fff"><use xlink:href="#c"/></mask><path id="d" d="M0 6h1v1H0z"/><mask id="aN" x="0" y="0" width="1" height="1" fill="#fff"><use xlink:href="#d"/></mask><path id="e" d="M1 7h1v1H1z"/><mask id="aO" x="0" y="0" width="1" height="1" fill="#fff"><use xlink:href="#e"/></mask><path id="f" d="M2 6h1v1H2z"/><mask id="aP" x="0" y="0" width="1" height="1" fill="#fff"><use xlink:href="#f"/></mask><path id="g" d="M2 5h1v1H2z"/><mask id="aQ" x="0" y="0" width="1" height="1" fill="#fff"><use xlink:href="#g"/></mask><path id="h" d="M3 3h1v1H3z"/><mask id="aR" x="0" y="0" width="1" height="1" fill="#fff"><use xlink:href="#h"/></mask><path id="i" d="M4 1h1v1H4z"/><mask id="aS" x="0" y="0" width="1" height="1" fill="#fff"><use xlink:href="#i"/></mask><path id="j" d="M5 0h1v1H5z"/><mask id="aT" x="0" y="0" width="1" height="1" fill="#fff"><use xlink:href="#j"/></mask><path id="k" d="M3 4h1v1H3z"/><mask id="aU" x="0" y="0" width="1" height="1" fill="#fff"><use xlink:href="#k"/></mask><path id="l" d="M4 3h1v1H4z"/><mask id="aV" x="0" y="0" width="1" height="1" fill="#fff"><use xlink:href="#l"/></mask><path id="m" d="M5 1h1v1H5z"/><mask id="aW" x="0" y="0" width="1" height="1" fill="#fff"><use xlink:href="#m"/></mask><path id="n" d="M6 0h1v1H6z"/><mask id="aX" x="0" y="0" width="1" height="1" fill="#fff"><use xlink:href="#n"/></mask><path id="o" d="M1 5h1v1H1z"/><mask id="aY" x="0" y="0" width="1" height="1" fill="#fff"><use xlink:href="#o"/></mask><path id="p" d="M2 6h1v1H2z"/><mask id="aZ" x="0" y="0" width="1" height="1" fill="#fff"><use xlink:href="#p"/></mask><path id="q" d="M2 4h1v1H2z"/><mask id="ba" x="0" y="0" width="1" height="1" fill="#fff"><use xlink:href="#q"/></mask><path id="r" d="M3 2h1v1H3z"/><mask id="bb" x="0" y="0" width="1" height="1" fill="#fff"><use xlink:href="#r"/></mask><path id="s" d="M2 3h1v1H2z"/><mask id="bc" x="0" y="0" width="1" height="1" fill="#fff"><use xlink:href="#s"/></mask><path id="t" d="M4 2h1v1H4z"/><mask id="bd" x="0" y="0" width="1" height="1" fill="#fff"><use xlink:href="#t"/></mask><path id="u" d="M5 0h1v1H5z"/><mask id="be" x="0" y="0" width="1" height="1" fill="#fff"><use xlink:href="#u"/></mask><path id="v" d="M1 7h1v1H1z"/><mask id="bf" x="0" y="0" width="1" height="1" fill="#fff"><use xlink:href="#v"/></mask><path id="w" d="M0 7h1v1H0z"/><mask id="bg" x="0" y="0" width="1" height="1" fill="#fff"><use xlink:href="#w"/></mask><path id="x" d="M1 6h1v1H1z"/><mask id="bh" x="0" y="0" width="1" height="1" fill="#fff"><use xlink:href="#x"/></mask><path id="y" d="M1 6h1v1H1z"/><mask id="bi" x="0" y="0" width="1" height="1" fill="#fff"><use xlink:href="#y"/></mask><path id="z" d="M0 6h1v1H0z"/><mask id="bj" x="0" y="0" width="1" height="1" fill="#fff"><use xlink:href="#z"/></mask><path id="A" d="M1 7h1v1H1z"/><mask id="bk" x="0" y="0" width="1" height="1" fill="#fff"><use xlink:href="#A"/></mask><path id="B" d="M2 6h1v1H2z"/><mask id="bl" x="0" y="0" width="1" height="1" fill="#fff"><use xlink:href="#B"/></mask><path id="C" d="M2 5h1v1H2z"/><mask id="bm" x="0" y="0" width="1" height="1" fill="#fff"><use xlink:href="#C"/></mask><path id="D" d="M3 3h1v1H3z"/><mask id="bn" x="0" y="0" width="1" height="1" fill="#fff"><use xlink:href="#D"/></mask><path id="E" d="M4 1h1v1H4z"/><mask id="bo" x="0" y="0" width="1" height="1" fill="#fff"><use xlink:href="#E"/></mask><path id="F" d="M5 0h1v1H5z"/><mask id="bp" x="0" y="0" width="1" height="1" fill="#fff"><use xlink:href="#F"/></mask><path id="G" d="M3 4h1v1H3z"/><mask id="bq" x="0" y="0" width="1" height="1" fill="#fff"><use xlink:href="#G"/></mask><path id="H" d="M4 3h1v1H4z"/><mask id="br" x="0" y="0" width="1" height="1" fill="#fff"><use xlink:href="#H"/></mask><path id="I" d="M5 1h1v1H5z"/><mask id="bs" x="0" y="0" width="1" height="1" fill="#fff"><use xlink:href="#I"/></mask><path id="J" d="M6 0h1v1H6z"/><mask id="bt" x="0" y="0" width="1" height="1" fill="#fff"><use xlink:href="#J"/></mask><path id="K" d="M1 5h1v1H1z"/><mask id="bu" x="0" y="0" width="1" height="1" fill="#fff"><use xlink:href="#K"/></mask><path id="L" d="M2 6h1v1H2z"/><mask id="bv" x="0" y="0" width="1" height="1" fill="#fff"><use xlink:href="#L"/></mask><path id="M" d="M2 4h1v1H2z"/><mask id="bw" x="0" y="0" width="1" height="1" fill="#fff"><use xlink:href="#M"/></mask><path id="N" d="M3 2h1v1H3z"/><mask id="bx" x="0" y="0" width="1" height="1" fill="#fff"><use xlink:href="#N"/></mask><path id="O" d="M2 3h1v1H2z"/><mask id="by" x="0" y="0" width="1" height="1" fill="#fff"><use xlink:href="#O"/></mask><path id="P" d="M4 2h1v1H4z"/><mask id="bz" x="0" y="0" width="1" height="1" fill="#fff"><use xlink:href="#P"/></mask><path id="Q" d="M5 0h1v1H5z"/><mask id="bA" x="0" y="0" width="1" height="1" fill="#fff"><use xlink:href="#Q"/></mask><path id="R" d="M1 7h1v1H1z"/><mask id="bB" x="0" y="0" width="1" height="1" fill="#fff"><use xlink:href="#R"/></mask><path id="S" d="M1 6h1v1H1z"/><mask id="bC" x="0" y="0" width="1" height="1" fill="#fff"><use xlink:href="#S"/></mask><path id="T" d="M1 6h1v1H1z"/><mask id="bD" x="0" y="0" width="1" height="1" fill="#fff"><use xlink:href="#T"/></mask><path id="U" d="M0 6h1v1H0z"/><mask id="bE" x="0" y="0" width="1" height="1" fill="#fff"><use xlink:href="#U"/></mask><path id="V" d="M2 6h1v1H2z"/><mask id="bF" x="0" y="0" width="1" height="1" fill="#fff"><use xlink:href="#V"/></mask><path id="W" d="M2 5h1v1H2z"/><mask id="bG" x="0" y="0" width="1" height="1" fill="#fff"><use xlink:href="#W"/></mask><path id="X" d="M3 3h1v1H3z"/><mask id="bH" x="0" y="0" width="1" height="1" fill="#fff"><use xlink:href="#X"/></mask><path id="Y" d="M4 1h1v1H4z"/><mask id="bI" x="0" y="0" width="1" height="1" fill="#fff"><use xlink:href="#Y"/></mask><path id="Z" d="M5 0h1v1H5z"/><mask id="bJ" x="0" y="0" width="1" height="1" fill="#fff"><use xlink:href="#Z"/></mask><path id="aa" d="M3 4h1v1H3z"/><mask id="bK" x="0" y="0" width="1" height="1" fill="#fff"><use xlink:href="#aa"/></mask><path id="ab" d="M4 3h1v1H4z"/><mask id="bL" x="0" y="0" width="1" height="1" fill="#fff"><use xlink:href="#ab"/></mask><path id="ac" d="M5 1h1v1H5z"/><mask id="bM" x="0" y="0" width="1" height="1" fill="#fff"><use xlink:href="#ac"/></mask><path id="ad" d="M6 0h1v1H6z"/><mask id="bN" x="0" y="0" width="1" height="1" fill="#fff"><use xlink:href="#ad"/></mask><path id="ae" d="M1 5h1v1H1z"/><mask id="bO" x="0" y="0" width="1" height="1" fill="#fff"><use xlink:href="#ae"/></mask><path id="af" d="M2 6h1v1H2z"/><mask id="bP" x="0" y="0" width="1" height="1" fill="#fff"><use xlink:href="#af"/></mask><path id="ag" d="M2 4h1v1H2z"/><mask id="bQ" x="0" y="0" width="1" height="1" fill="#fff"><use xlink:href="#ag"/></mask><path id="ah" d="M3 2h1v1H3z"/><mask id="bR" x="0" y="0" width="1" height="1" fill="#fff"><use xlink:href="#ah"/></mask><path id="ai" d="M2 3h1v1H2z"/><mask id="bS" x="0" y="0" width="1" height="1" fill="#fff"><use xlink:href="#ai"/></mask><path id="aj" d="M4 2h1v1H4z"/><mask id="bT" x="0" y="0" width="1" height="1" fill="#fff"><use xlink:href="#aj"/></mask><path id="ak" d="M5 0h1v1H5z"/><mask id="bU" x="0" y="0" width="1" height="1" fill="#fff"><use xlink:href="#ak"/></mask><path id="al" d="M1 6h1v1H1z"/><mask id="bV" x="0" y="0" width="1" height="1" fill="#fff"><use xlink:href="#al"/></mask><path id="am" d="M1 6h1v1H1z"/><mask id="bW" x="0" y="0" width="1" height="1" fill="#fff"><use xlink:href="#am"/></mask><path id="an" d="M0 6h1v1H0z"/><mask id="bX" x="0" y="0" width="1" height="1" fill="#fff"><use xlink:href="#an"/></mask><path id="ao" d="M2 6h1v1H2z"/><mask id="bY" x="0" y="0" width="1" height="1" fill="#fff"><use xlink:href="#ao"/></mask><path id="ap" d="M2 5h1v1H2z"/><mask id="bZ" x="0" y="0" width="1" height="1" fill="#fff"><use xlink:href="#ap"/></mask><path id="aq" d="M3 3h1v1H3z"/><mask id="ca" x="0" y="0" width="1" height="1" fill="#fff"><use xlink:href="#aq"/></mask><path id="ar" d="M4 1h1v1H4z"/><mask id="cb" x="0" y="0" width="1" height="1" fill="#fff"><use xlink:href="#ar"/></mask><path id="as" d="M5 0h1v1H5z"/><mask id="cc" x="0" y="0" width="1" height="1" fill="#fff"><use xlink:href="#as"/></mask><path id="at" d="M3 4h1v1H3z"/><mask id="cd" x="0" y="0" width="1" height="1" fill="#fff"><use xlink:href="#at"/></mask><path id="au" d="M4 3h1v1H4z"/><mask id="ce" x="0" y="0" width="1" height="1" fill="#fff"><use xlink:href="#au"/></mask><path id="av" d="M5 1h1v1H5z"/><mask id="cf" x="0" y="0" width="1" height="1" fill="#fff"><use xlink:href="#av"/></mask><path id="aw" d="M6 0h1v1H6z"/><mask id="cg" x="0" y="0" width="1" height="1" fill="#fff"><use xlink:href="#aw"/></mask><path id="ax" d="M1 5h1v1H1z"/><mask id="ch" x="0" y="0" width="1" height="1" fill="#fff"><use xlink:href="#ax"/></mask><path id="ay" d="M2 6h1v1H2z"/><mask id="ci" x="0" y="0" width="1" height="1" fill="#fff"><use xlink:href="#ay"/></mask><path id="az" d="M12 1h6v6h-6z"/><mask id="cj" x="0" y="0" width="6" height="6" fill="#fff"><use xlink:href="#az"/></mask><path id="aA" d="M6 1h6v6H6z"/><mask id="ck" x="0" y="0" width="6" height="6" fill="#fff"><use xlink:href="#aA"/></mask><path id="aB" d="M4 2h4v4H4z"/><mask id="cl" x="0" y="0" width="4" height="4" fill="#fff"><use xlink:href="#aB"/></mask><path id="aC" d="M3 3h4v4H3z"/><mask id="cm" x="0" y="0" width="4" height="4" fill="#fff"><use xlink:href="#aC"/></mask><path id="aD" d="M17 3h4v4h-4z"/><mask id="cn" x="0" y="0" width="4" height="4" fill="#fff"><use xlink:href="#aD"/></mask><path id="aE" d="M15 1h4v4h-4z"/><mask id="co" x="0" y="0" width="4" height="4" fill="#fff"><use xlink:href="#aE"/></mask><path id="aF" d="M2 4h1v1H2z"/><mask id="cp" x="0" y="0" width="1" height="1" fill="#fff"><use xlink:href="#aF"/></mask><path id="aG" d="M3 2h1v1H3z"/><mask id="cq" x="0" y="0" width="1" height="1" fill="#fff"><use xlink:href="#aG"/></mask><path id="aH" d="M2 3h1v1H2z"/><mask id="cr" x="0" y="0" width="1" height="1" fill="#fff"><use xlink:href="#aH"/></mask><path id="aI" d="M4 2h1v1H4z"/><mask id="cs" x="0" y="0" width="1" height="1" fill="#fff"><use xlink:href="#aI"/></mask><path id="aJ" d="M5 0h1v1H5z"/><mask id="ct" x="0" y="0" width="1" height="1" fill="#fff"><use xlink:href="#aJ"/></mask></defs><g fill="none" fill-rule="evenodd"><path d="M16.76 9.756h1.38V7.52h-2.168v1.626h-1.38v1.017h-1.578v2.235h2.17v-1.016h1.577V9.756zm-.197-3.658h-4.535V3.862h5.127v1.423h1.577V7.52h-2.169V6.098zm-14-3.456h2.564v2.643H2.563V2.642zm20.31 0h2.564v2.643h-2.564V2.642zM2.563 14.431h2.564v2.642H2.563v-2.642zm20.31 0h2.564v2.642h-2.564v-2.642zM5.127 17.073H7.69v2.642H5.127v-2.642zm0 2.642H7.69v2.643H5.127v-2.643zm0 2.643H7.69V25H5.127v-2.642zm2.563 0h2.564V25H7.69v-2.642zm2.564-2.643h2.563v2.643h-2.563v-2.643zm.591-13.617h2.17v2.235h-2.17V6.098zm2.17 7.52h2.168v2.236h-2.169v-2.236zM0 5.285h2.563v9.146H0V5.285zm25.437 0H28v9.146h-2.563V5.285zM5.127 0h17.746v2.642H5.127V0zm7.69 17.073h10.056v2.642H12.817v-2.642z" fill="#000"/><path d="M16.76 35.756h1.38V33.52h-2.168v1.626h-1.38v1.017h-1.578v2.235h2.17v-1.016h1.577v-1.626zm-.197-3.658h-4.535v-2.236h5.127v1.423h1.577v2.235h-2.169v-1.422zm-14-3.456h2.564v2.643H2.563v-2.643zm20.31 0h2.564v2.643h-2.564v-2.643zM2.563 40.431h2.564v2.642H2.563v-2.642zm20.31 0h2.564v2.642h-2.564v-2.642zM5.127 43.073H7.69v2.642H5.127v-2.642zm0 2.642H7.69v2.643H5.127v-2.643zm0 2.643H7.69V51H5.127v-2.642zm2.563 0h2.564V51H7.69v-2.642zm2.564-2.643h2.563v2.643h-2.563v-2.643zm.591-13.617h2.17v2.235h-2.17v-2.235zm2.17 7.52h2.168v2.236h-2.169v-2.236zM0 31.285h2.563v9.146H0v-9.146zm25.437 0H28v9.146h-2.563v-9.146zM5.127 26h17.746v2.642H5.127V26zm7.69 17.073h10.056v2.642H12.817v-2.642z" fill="#FFF"/><path d="M33 0h39v2H33V0zm0 15h39v2H33v-2zM31 2h2v13h-2V2zm41 0h2v13h-2V2z" fill="#000"/><path fill="#FFF" d="M33 2h39v13H33z"/><path fill="#000" d="M36 9h3v3h-3zM33 33h39v2H33v-2zm-2-13h2v13h-2V20zm41 0h2v13h-2V20zm-39-2h39v2H33v-2zM33 20h39v13H33z"/><path fill="#FFF" d="M31 21h1v1h-1zM31 23h1v1h-1zM31 25h1v1h-1zM31 27h1v1h-1zM31 29h1v1h-1zM31 31h1v1h-1zM34 34h1v1h-1zM36 34h1v1h-1zM38 34h1v1h-1zM40 34h1v1h-1zM42 34h1v1h-1zM44 34h1v1h-1zM46 34h1v1h-1zM48 34h1v1h-1zM50 34h1v1h-1zM52 34h1v1h-1zM54 34h1v1h-1zM56 34h1v1h-1zM58 34h1v1h-1zM60 34h1v1h-1zM62 34h1v1h-1zM64 34h1v1h-1zM66 34h1v1h-1zM68 34h1v1h-1zM70 34h1v1h-1zM73 31h1v1h-1zM73 29h1v1h-1zM73 27h1v1h-1zM73 25h1v1h-1zM73 23h1v1h-1zM73 21h1v1h-1zM70 18h1v1h-1zM68 18h1v1h-1zM66 18h1v1h-1zM64 18h1v1h-1zM62 18h1v1h-1zM60 18h1v1h-1zM58 18h1v1h-1zM56 18h1v1h-1zM54 18h1v1h-1zM52 18h1v1h-1zM50 18h1v1h-1zM48 18h1v1h-1zM46 18h1v1h-1zM44 18h1v1h-1zM42 18h1v1h-1zM40 18h1v1h-1zM38 18h1v1h-1zM36 18h1v1h-1zM34 18h1v1h-1zM36 27h3v3h-3z"/><g><path fill="#000" d="M76 8v30h48V10h-2v26H78V10h44V8z"/><g stroke="#000" stroke-width="2" fill="#D8D8D8" transform="translate(76)"><use mask="url(#aK)" xlink:href="#a"/><use mask="url(#aL)" xlink:href="#b"/><use mask="url(#aM)" xlink:href="#c"/><use mask="url(#aN)" xlink:href="#d"/><use mask="url(#aO)" xlink:href="#e"/><use mask="url(#aP)" xlink:href="#f"/><use mask="url(#aQ)" xlink:href="#g"/><use mask="url(#aR)" xlink:href="#h"/><use mask="url(#aS)" xlink:href="#i"/><use mask="url(#aT)" xlink:href="#j"/><use mask="url(#aU)" xlink:href="#k"/><use mask="url(#aV)" xlink:href="#l"/><use mask="url(#aW)" xlink:href="#m"/><use mask="url(#aX)" xlink:href="#n"/><use mask="url(#aY)" xlink:href="#o"/><use mask="url(#aZ)" xlink:href="#p"/><use mask="url(#ba)" xlink:href="#q"/><use mask="url(#bb)" xlink:href="#r"/><use mask="url(#bc)" xlink:href="#s"/><use mask="url(#bd)" xlink:href="#t"/><use mask="url(#be)" xlink:href="#u"/><use mask="url(#bf)" xlink:href="#v"/></g><g transform="matrix(-1 0 0 1 100 0)" stroke="#000" stroke-width="2" fill="#D8D8D8"><use mask="url(#bg)" xlink:href="#w"/><use mask="url(#bh)" xlink:href="#x"/><use mask="url(#bi)" xlink:href="#y"/><use mask="url(#bj)" xlink:href="#z"/><use mask="url(#bk)" xlink:href="#A"/><use mask="url(#bl)" xlink:href="#B"/><use mask="url(#bm)" xlink:href="#C"/><use mask="url(#bn)" xlink:href="#D"/><use mask="url(#bo)" xlink:href="#E"/><use mask="url(#bp)" xlink:href="#F"/><use mask="url(#bq)" xlink:href="#G"/><use mask="url(#br)" xlink:href="#H"/><use mask="url(#bs)" xlink:href="#I"/><use mask="url(#bt)" xlink:href="#J"/><use mask="url(#bu)" xlink:href="#K"/><use mask="url(#bv)" xlink:href="#L"/><use mask="url(#bw)" xlink:href="#M"/><use mask="url(#bx)" xlink:href="#N"/><use mask="url(#by)" xlink:href="#O"/><use mask="url(#bz)" xlink:href="#P"/><use mask="url(#bA)" xlink:href="#Q"/><use mask="url(#bB)" xlink:href="#R"/></g><path fill="#000" d="M82 0h12v2H82z"/></g><g><path fill="#000" d="M125 8v30h48V10h-2v26h-44V10h44V8z"/><path fill="#000" d="M127 10h44v26h-44z"/><g stroke="#000" stroke-width="2" transform="translate(125)"><use mask="url(#bC)" xlink:href="#S"/><use mask="url(#bD)" xlink:href="#T"/><use mask="url(#bE)" xlink:href="#U"/><use mask="url(#bF)" xlink:href="#V"/><use mask="url(#bG)" xlink:href="#W"/><use mask="url(#bH)" xlink:href="#X"/><use mask="url(#bI)" xlink:href="#Y"/><use mask="url(#bJ)" xlink:href="#Z"/><use mask="url(#bK)" xlink:href="#aa"/><use mask="url(#bL)" xlink:href="#ab"/><use mask="url(#bM)" xlink:href="#ac"/><use mask="url(#bN)" xlink:href="#ad"/><use mask="url(#bO)" xlink:href="#ae"/><use mask="url(#bP)" xlink:href="#af"/><use mask="url(#bQ)" xlink:href="#ag"/><use mask="url(#bR)" xlink:href="#ah"/><use mask="url(#bS)" xlink:href="#ai"/><use mask="url(#bT)" xlink:href="#aj"/><use mask="url(#bU)" xlink:href="#ak"/></g><g transform="matrix(-1 0 0 1 149 0)" stroke="#000" stroke-width="2" fill="#000"><use mask="url(#bV)" xlink:href="#al"/><use mask="url(#bW)" xlink:href="#am"/><use mask="url(#bX)" xlink:href="#an"/><use mask="url(#bY)" xlink:href="#ao"/><use mask="url(#bZ)" xlink:href="#ap"/><use mask="url(#ca)" xlink:href="#aq"/><use mask="url(#cb)" xlink:href="#ar"/><use mask="url(#cc)" xlink:href="#as"/><use mask="url(#cd)" xlink:href="#at"/><use mask="url(#ce)" xlink:href="#au"/><use mask="url(#cf)" xlink:href="#av"/><use mask="url(#cg)" xlink:href="#aw"/><use mask="url(#ch)" xlink:href="#ax"/><use mask="url(#ci)" xlink:href="#ay"/><use mask="url(#cj)" xlink:href="#az"/><use mask="url(#ck)" xlink:href="#aA"/><use mask="url(#cl)" xlink:href="#aB"/><use mask="url(#cm)" xlink:href="#aC"/><use mask="url(#cn)" xlink:href="#aD"/><use mask="url(#co)" xlink:href="#aE"/><use mask="url(#cp)" xlink:href="#aF"/><use mask="url(#cq)" xlink:href="#aG"/><use mask="url(#cr)" xlink:href="#aH"/><use mask="url(#cs)" xlink:href="#aI"/><use mask="url(#ct)" xlink:href="#aJ"/></g><path fill="#000" d="M131 0h12v2h-12z"/></g></g></svg>