<svg xmlns="http://www.w3.org/2000/svg" viewBox="0 0 800 400"><path fill="#9B5CA4" d="M79.3 279l90.4-156.2L260.1 279z"/><path fill="#37BEC0" d="M-100.7 279l90.4-156.2L80.1 279z"/><path fill="#3B5272" d="M259.3 279l90.4-156.2L440.1 279z"/><path fill="#6B7482" d="M439.3 279l90.4-156.2L620.1 279z"/><path fill="#37BEC0" d="M619.3 279l90.4-156.2L800.1 279z"/><path fill="#0EA2DC" d="M710.1 123l-90.4 156.2L529.3 123z"/><path fill="#A4CE4E" d="M890.1 123l-90.4 156.2L709.3 123z"/><path fill="#ED4F7E" d="M530.1 123l-90.4 156.2L349.3 123z"/><path fill="#FAAD40" d="M350.1 123l-90.4 156.2L169.3 123z"/><path fill="#A4CE4E" d="M170.1 123L79.7 279.2-10.7 123z"/><path fill="#37BEC0" d="M169.3 123l90.4-156.2L350.1 123z"/><path fill="#6B7482" d="M-10.7 124L79.7-32.2 170.1 124z"/><path fill="#9B5CA4" d="M349.3 123l90.4-156.2L530.1 123z"/><path fill="#3B5272" d="M529.3 123l90.4-156.2L710.1 123z"/><path fill="#6B7482" d="M709.3 123l90.4-156.2L890.1 123z"/><path fill="#ED4F7E" d="M800.1-33l-90.4 156.2L619.3-33z"/><path fill="#0EA2DC" d="M980.1-33l-90.4 156.2L799.3-33z"/><path fill="#FAAD40" d="M620.1-33l-90.4 156.2L439.3-33z"/><path fill="#A4CE4E" d="M440.1-33l-90.4 156.2L259.3-33z"/><path fill="#0EA2DC" d="M260.1-33l-90.4 156.2L79.3-33z"/><path fill="#ED4F7E" d="M80.1-33l-90.4 156.2L-100.7-33zM-11.7 435l90.4-156.2L169.1 435z"/><path fill="#9B5CA4" d="M-191.7 435l90.4-156.2L-10.9 435z"/><path fill="#ED4F7E" d="M168.3 435l90.4-156.2L349.1 435z"/><path fill="#ED4F7E" d="M348.3 435l90.4-156.2L529.1 435z"/><path fill="#ED4F7E" d="M528.3 435l90.4-156.2L709.1 435z"/><path fill="#ED4F7E" d="M619.1 279l-90.4 156.2L438.3 279z"/><path fill="#ED4F7E" d="M799.1 279l-90.4 156.2L618.3 279zM439.1 279l-90.4 156.2L258.3 279z"/><path fill="#ED4F7E" d="M259.1 279l-90.4 156.2L78.3 279z"/><path fill="#FAAD40" d="M79.1 279l-90.4 156.2-90.4-156.2z"/><path fill="#6B7482" d="M169.3 435l90.4-156.2L350.1 435z"/><path fill="#3B5272" d="M-10.7 435l90.4-156.2L170.1 435z"/><path fill="#37BEC0" d="M349.3 435l90.4-156.2L530.1 435z"/><path fill="#9B5CA4" d="M529.3 435l90.4-156.2L710.1 435z"/><path fill="#3B5272" d="M709.3 435l90.4-156.2L890.1 435z"/><path fill="#FAAD40" d="M800.1 279l-90.4 156.2L619.3 279z"/><path fill="#A4CE4E" d="M620.1 279l-90.4 156.2L439.3 279z"/><path fill="#0EA2DC" d="M440.1 279l-90.4 156.2L259.3 279z"/><path fill="#ED4F7E" d="M260.1 279l-90.4 156.2L79.3 279z"/></svg>