<svg xmlns="http://www.w3.org/2000/svg" width="273" height="321" viewBox="0 0 273 321"><defs><filter id="a" width="200%" height="200%" x="-50%" y="-50%" filterUnits="objectBoundingBox"><feOffset in="SourceAlpha" result="shadowOffsetOuter1"/><feGaussianBlur stdDeviation="6" in="shadowOffsetOuter1" result="shadowBlurOuter1"/><feColorMatrix values="0 0 0 0 0 0 0 0 0 0 0 0 0 0 0 0 0 0 0.15 0" in="shadowBlurOuter1" result="shadowMatrixOuter1"/><feMerge><feMergeNode in="shadowMatrixOuter1"/><feMergeNode in="SourceGraphic"/></feMerge></filter></defs><g fill="none" fill-rule="evenodd"><path fill="#000" fill-opacity=".1" d="M242.395 9.973a7.27 7.27 0 0 0-8.236-6.206 7.27 7.27 0 0 0-6.206 8.235c.222 1.58.928 2.919 1.884 3.993l-3.88 12.914c-1 .255-1.92.672-2.702 1.242l-7.952-3.37-.016-.112a7.27 7.27 0 0 0-8.236-6.206 7.27 7.27 0 0 0-6.206 8.236c.222 1.58.928 2.918 1.884 3.992l-3.88 12.914c-3.62.854-6.069 4.304-5.537 8.084a7.27 7.27 0 0 0 8.235 6.206 7.27 7.27 0 0 0 6.207-8.236 7.301 7.301 0 0 0-1.941-3.984l3.937-12.922c1-.255 1.919-.672 2.701-1.243l7.953 3.37.016.113a7.27 7.27 0 0 0 8.235 6.206 7.27 7.27 0 0 0 6.207-8.236 7.301 7.301 0 0 0-1.941-3.984l3.937-12.922c3.62-.854 6.068-4.305 5.537-8.084z"/><path fill="#000" d="M106.048 265.44a3.154 3.154 0 0 0 1.053-2.1l.403-5.766a3.046 3.046 0 0 0-2.85-3.278 3.046 3.046 0 0 0-3.278 2.85l-.403 5.766a3.046 3.046 0 0 0 2.85 3.279 3.154 3.154 0 0 0 2.225-.75zm-30.852 26.82a3.154 3.154 0 0 0 1.052-2.1 3.046 3.046 0 0 0-2.85-3.277l-5.767-.404a3.046 3.046 0 0 0-3.278 2.85 3.046 3.046 0 0 0 2.85 3.278l5.767.403a3.154 3.154 0 0 0 2.226-.75zm43.916 6.512c-.455-.62-.7-1-.7-1-1.71-2.745-2.151-5.493-2.34-10.577-.235-5.042-1.174-8.458-4.19-11.929-6.538-7.52-18.144-8.603-25.953-1.815-7.81 6.789-8.352 18.433-1.815 25.953 3.017 3.47 6.27 4.875 11.23 5.81 4.96.936 7.62 1.756 10.148 3.79 0 0 .294.337.845.873l12.775-11.105zm11.478-11.331a3.154 3.154 0 0 0 1.052-2.1 3.046 3.046 0 0 0-2.85-3.278l-5.767-.403a3.046 3.046 0 0 0-3.278 2.85 3.046 3.046 0 0 0 2.85 3.277l5.767.404a3.154 3.154 0 0 0 2.226-.75zm-37.024 32.183a3.154 3.154 0 0 0 1.053-2.1l.403-5.767a3.046 3.046 0 0 0-2.85-3.278 3.046 3.046 0 0 0-3.278 2.85l-.403 5.767a3.046 3.046 0 0 0 2.85 3.278 3.154 3.154 0 0 0 2.225-.75zm29.91-2.98c3.134-2.723 2.908-5.32 1.226-9.105-.669-1.45-1.972-3.533-3.246-5.388l-12.1 10.518c1.66 1.52 3.542 3.1 4.933 3.922 3.466 2.235 6.054 2.778 9.187.054zM138.312 261.64c.289-.484.474-.758.474-.758 1.363-1.94 3.09-3.025 6.468-4.608 3.334-1.604 5.37-3.215 6.848-6.245 3.203-6.566.61-14.707-6.208-18.032-6.818-3.325-14.83-.357-18.032 6.209-1.478 3.03-1.494 5.627-.705 9.242.79 3.615.998 5.644.35 7.933 0 0-.143.294-.347.82l11.152 5.44zm-10.81 8.064c2.736 1.335 4.423.438 6.495-1.78.788-.867 1.82-2.343 2.707-3.734l-10.563-5.152c-.55 1.555-1.078 3.277-1.234 4.452-.515 2.978-.14 4.88 2.595 6.214zM20.42 63.902l1.89-21.61c.019-.743-.563-1.538-1.348-1.607-8.912-.78-17.222 4.868-20.5 13.607-.295.719.094 1.59.859 1.89l19.099 7.72zm6.057-18.175l-1.875 21.425c-.113 1.293-1.607 2.419-3.002 1.878L4.195 62.156c-1.288 9.938 5.538 20.725 17.451 21.767 10.62.929 19.96-6.908 20.89-17.528.88-10.066-6.297-18.976-16.06-20.668z" opacity=".1"/><g filter="url(#a)" transform="rotate(-8 426.451 -271.94)"><path fill="#6B7482" d="M71.618 180.047l11.153 58.01c3.252 9.665 11.463 14.469 21.986 16.228a3.324 3.324 0 0 0 3.679 4.589l12.339-2.38c3.72-.717 14.142-4.246 13.795-6.052a3.32 3.32 0 0 0-.921-1.73c9.118-5.548 15.585-11.751 14.847-21.902l-11.603-59.354-65.275 12.591z"/><path fill="#656F7E" d="M71.618 180.048l11.153 58.009c3.252 9.665 11.463 14.47 21.986 16.228a3.327 3.327 0 0 0 3.679 4.589l23.498-4.533a3.329 3.329 0 0 0 1.715-5.629c9.118-5.548 15.586-11.751 14.847-21.902l-11.603-59.354c19.084-7.45-99.081 3.9-65.275 12.592zm62.734-19.124l-5.452 2.127 1.124 5.753 11.516 58.903c.237 4.805-1.723 9.048-11.525 15.012l-7.645 4.654 1.409 1.401-9.836 1.897.79-1.826-8.824-1.475c-5.736-.96-13.666-3.192-16.294-11.471l-.331-1.043-10.791-56.134-.84-4.36-4.294-1.106c-15.04-3.866 68.22-15.153 60.993-12.332z"/><path stroke="#5D6674" stroke-width="5.552" d="M95.87 211.118l-17.624 3.4" stroke-linecap="round"/><path fill="#000" fill-opacity=".05" d="M71.618 180.047s4.082 21.04 6.131 31.698c0 0-2.89.735-2.209 3.427.68 2.693 3.16 1.911 3.202 2.129.653 3.33 1.352 6.918 1.98 10.159 0 0-2.777.83-2.129 3.438.65 2.61 3.2 2.087 3.2 2.087l.978 5.072c3.252 9.665 11.463 14.469 21.986 16.228a3.324 3.324 0 0 0 3.679 4.589l6.554-1.42s18.94-5.332 15.114-25.116c-3.826-19.784-28.988-14.509-23.97-58.536.454-3.987-34.516 6.245-34.516 6.245z"/><path fill="#FFD800" d="M71.28 2.216c-47.182 9.1-78.064 54.792-68.978 102.053 6.86 35.682 35.51 67.087 69.316 75.778l3.485 18.122 20.768-4.007 44.507-8.585-3.485-18.121c19.479-9.797 47.479-46.17 36.266-96.145C162.623 24.353 118.46-6.885 71.279 2.216"/><path fill="#FEE058" d="M87.665.638c-5.39 0-10.866.513-16.386 1.578-47.181 9.1-78.063 54.793-68.976 102.053 6.859 35.682 35.508 67.086 69.316 75.778l3.484 18.122 20.767-4.006 44.508-8.586-3.485-18.121c19.479-9.797 47.479-46.17 36.267-96.145C163.856 29.847 128.332.638 87.665.638m0 7.011c18.07 0 35.848 6.46 50.058 18.187 14.292 11.797 24.451 28.493 28.606 47.012 5.83 25.982-.093 46.174-6.09 58.538-7.793 16.072-18.792 25.935-26.486 29.804l-4.734 2.382 1.001 5.21 2.16 11.236-37.633 7.26-13.895 2.68-2.16-11.235-.838-4.362-4.295-1.104c-15.038-3.868-29.721-12.998-41.342-25.712-11.65-12.748-19.763-28.587-22.841-44.602-4.04-21.018.331-42.356 12.311-60.079C33.467 25.139 51.62 13.148 72.603 9.1a79.764 79.764 0 0 1 15.062-1.45"/><path stroke="#5D6674" stroke-width="5.552" d="M143.52 201.926l-17.623 3.4m-27.01 21.485l-17.624 3.4m65.274-12.592l-17.624 3.4" stroke-linecap="round"/><path stroke="#EFC300" stroke-width="8.328" d="M60.367 107.435l36.587 24.814 11.565 59.452"/><path fill="#FFD800" d="M48.618 109.701c1.25 6.5 7.523 10.755 14.012 9.503 6.489-1.252 10.737-7.535 9.486-14.036-1.249-6.5-7.522-10.754-14.012-9.503-6.488 1.252-10.735 7.536-9.486 14.036"/><path stroke="#EFC300" stroke-width="8.328" d="M48.618 109.701c1.25 6.5 7.523 10.755 14.012 9.503 6.489-1.252 10.737-7.535 9.486-14.036-1.249-6.5-7.522-10.754-14.012-9.503-6.488 1.252-10.735 7.536-9.486 14.036zm75.066-14.48l-26.73 37.027"/><path fill="#FFD800" d="M135.433 92.954c1.25 6.5-2.998 12.785-9.486 14.036-6.49 1.252-12.763-3.003-14.012-9.502-1.25-6.501 2.998-12.785 9.486-14.037 6.489-1.252 12.763 3.003 14.012 9.503"/><path stroke="#EFC300" stroke-width="8.328" d="M135.433 92.954c1.25 6.5-2.998 12.785-9.486 14.036-6.49 1.252-12.763-3.003-14.012-9.502-1.25-6.501 2.998-12.785 9.486-14.037 6.489-1.252 12.763 3.003 14.012 9.503z"/><path fill="#FFF" fill-opacity=".2" d="M2.302 104.27c2.305 11.992 7.072 23.5 13.67 33.827 6.222 9.74 64.532 2.539 90.704-33.828 26.173-36.366 24.16-92.115 17.92-95.135C108.625 1.402 90.195-1.433 71.28 2.216 24.1 11.316-6.784 57.008 2.302 104.269z"/><path fill="#FFF" fill-opacity=".2" d="M113.97 6.263C42.094-16.09-23.055 62.877 9.752 122.511c1.032 1.873 3.884 1.354 4.143-.771 1.665-13.765 7.38-46.187 25.466-66.197 21.172-23.427 60.085-39.572 74.786-45.088 1.977-.74 1.839-3.565-.177-4.192"/></g><path fill="#FFD800" stroke="#FFD800" d="M102.348 31.03l1.264-.432c1.395-.43 1.913-2.605 1.15-4.837l-2.79-8.157-2.535-7.41c-.764-2.23-2.527-3.698-3.92-3.261l-1.263.432-.841.29c-.915.333-1.038 2.432-.276 4.662l5.32 15.552c.762 2.232 2.135 3.783 3.05 3.45l.84-.289z" opacity=".8"/><path fill="#FFF3AE" d="M66.649 51c.974 1.209 2.501 1.521 3.392.692.889-.83 2.1-4.444.622-6.279L60.425 32.705c-1.479-1.835-3.441-2.683-4.36-1.883-.919.8-2.069 4.472-.59 6.307L65.762 49.9l.887 1.1z" opacity=".602"/><path fill="#FFD800" stroke="#FFD800" d="M37.589 85.555c2.016 1.22 4.083 1.307 4.592.196.51-1.11.294-4.989-1.722-6.207l-13.72-8.292c-2.016-1.219-4.115-1.324-4.665-.236-.55 1.089-.278 4.995 1.738 6.213a118324.274 118324.274 0 0 0 13.777 8.326" opacity=".8"/><path fill="#FFF3AE" d="M35.94 121.722c.12-1.22-1.674-2.592-3.984-3.047l-15.432-3.036c-2.31-.455-4.309.17-4.44 1.389-.134 1.217 1.487 4.817 3.797 5.271l15.528 3.055c2.31.455 4.413-2.412 4.532-3.632" opacity=".602"/><path fill="#FFD800" stroke="#FFD800" d="M245.382 165.192c-.309 1.181 1.33 2.52 3.639 2.974l15.526 3.055c2.31.455 4.437-.144 4.727-1.33.29-1.186-.916-4.707-3.227-5.161l-15.435-3.038c-2.31-.454-4.921 2.32-5.23 3.5M35.01 160.648c-.297-1.183-2.445-1.851-4.77-1.487l-15.346 2.404c-2.326.364-4 1.632-3.721 2.817.28 1.185 2.998 4.007 5.324 3.643l15.463-2.422c2.325-.365 3.347-3.773 3.05-4.955" opacity=".8"/><path fill="#FFF3AE" d="M248.65 129.654c.075 1.215 2.039 1.911 4.364 1.546l15.467-2.422c2.326-.364 4.147-1.653 4.046-2.866-.099-1.211-2.346-4.112-4.671-3.748l-15.352 2.405c-2.326.364-3.93 3.87-3.855 5.085" opacity=".602"/><path fill="#FFD800" stroke="#FFD800" d="M240.32 93.84c.456 1.138 2.516 1.138 4.576 0l13.707-7.578c2.06-1.138 3.354-2.992 2.875-4.117-.48-1.126-3.494-3.115-5.555-1.976l-13.6 7.518c-2.06 1.139-2.46 5.014-2.003 6.153" opacity=".8"/><path fill="#FFF3AE" d="M53.927 194.362c-.66-1.03-2.885-.94-4.945.2l-13.608 7.522c-2.06 1.139-3.22 2.919-2.578 3.956.643 1.037 4.083 2.786 6.143 1.648l13.71-7.579c2.06-1.139 1.937-4.718 1.278-5.747" opacity=".602"/><path fill="#FFD800" stroke="#FFD800" d="M73.804 221.257c-.954-.768-3 .058-4.546 1.835l-10.336 11.87c-1.548 1.775-2.043 3.868-1.101 4.647.94.78 4.734 1.314 6.28-.463l10.41-11.952c1.546-1.777.246-5.17-.707-5.937" opacity=".8"/><path fill="#FFF3AE" d="M220.187 61.391c.81.927 2.739.232 4.287-1.545l10.408-11.953c1.548-1.776 2.137-3.973 1.31-4.88-.827-.91-4.327-1.788-5.873-.011l-10.336 11.867c-1.547 1.777-.606 5.595.204 6.522" opacity=".602"/><path fill="#FFD800" stroke="#FFD800" d="M186.532 30.816c-.847 2.2-.645 4.443.45 4.986 1.093.542 4.626.265 5.474-1.934l5.794-15.048c.846-2.2.651-4.457-.434-5.016-1.084-.56-4.674-.157-5.52 2.042l-4.448 11.551-1.316 3.42" opacity=".8"/><path fill="#FFF3AE" d="M145.29 22.04c-.026 1.407.947 2.629 2.163 2.715 1.217.087 4.445-1.51 4.489-3.867l.31-16.38c.045-2.356-.91-4.377-2.121-4.488-1.213-.11-4.454 1.61-4.498 3.967l-.318 16.775-.024 1.279z" opacity=".602"/></g></svg>