<svg xmlns="http://www.w3.org/2000/svg" width="421" height="323" viewBox="0 0 421 323"><defs><filter id="a" width="200%" height="200%" x="-50%" y="-50%" filterUnits="objectBoundingBox"><feOffset in="SourceAlpha" result="shadowOffsetOuter1"/><feGaussianBlur stdDeviation="9.5" in="shadowOffsetOuter1" result="shadowBlurOuter1"/><feColorMatrix values="0 0 0 0 0 0 0 0 0 0 0 0 0 0 0 0 0 0 0.2 0" in="shadowBlurOuter1" result="shadowMatrixOuter1"/><feMerge><feMergeNode in="shadowMatrixOuter1"/><feMergeNode in="SourceGraphic"/></feMerge></filter><filter id="b" width="200%" height="200%" x="-50%" y="-50%" filterUnits="objectBoundingBox"><feOffset in="SourceAlpha" result="shadowOffsetOuter1"/><feGaussianBlur stdDeviation="2" in="shadowOffsetOuter1" result="shadowBlurOuter1"/><feColorMatrix values="0 0 0 0 0 0 0 0 0 0 0 0 0 0 0 0 0 0 0.2 0" in="shadowBlurOuter1" result="shadowMatrixOuter1"/><feMerge><feMergeNode in="shadowMatrixOuter1"/><feMergeNode in="SourceGraphic"/></feMerge></filter><filter id="c" width="200%" height="200%" x="-50%" y="-50%" filterUnits="objectBoundingBox"><feOffset in="SourceAlpha" result="shadowOffsetOuter1"/><feGaussianBlur stdDeviation="2" in="shadowOffsetOuter1" result="shadowBlurOuter1"/><feColorMatrix values="0 0 0 0 0 0 0 0 0 0 0 0 0 0 0 0 0 0 0.2 0" in="shadowBlurOuter1" result="shadowMatrixOuter1"/><feMerge><feMergeNode in="shadowMatrixOuter1"/><feMergeNode in="SourceGraphic"/></feMerge></filter><filter id="d" width="200%" height="200%" x="-50%" y="-50%" filterUnits="objectBoundingBox"><feOffset in="SourceAlpha" result="shadowOffsetOuter1"/><feGaussianBlur stdDeviation="2" in="shadowOffsetOuter1" result="shadowBlurOuter1"/><feColorMatrix values="0 0 0 0 0 0 0 0 0 0 0 0 0 0 0 0 0 0 0.2 0" in="shadowBlurOuter1" result="shadowMatrixOuter1"/><feMerge><feMergeNode in="shadowMatrixOuter1"/><feMergeNode in="SourceGraphic"/></feMerge></filter><filter id="e" width="200%" height="200%" x="-50%" y="-50%" filterUnits="objectBoundingBox"><feOffset in="SourceAlpha" result="shadowOffsetOuter1"/><feGaussianBlur stdDeviation="2" in="shadowOffsetOuter1" result="shadowBlurOuter1"/><feColorMatrix values="0 0 0 0 0 0 0 0 0 0 0 0 0 0 0 0 0 0 0.2 0" in="shadowBlurOuter1" result="shadowMatrixOuter1"/><feMerge><feMergeNode in="shadowMatrixOuter1"/><feMergeNode in="SourceGraphic"/></feMerge></filter></defs><g fill="none" fill-rule="evenodd"><path d="M151.013 268.324L159.5 299c.48 1.739-.369 3.43-1.852 3.841l-9.022 2.497c-1.481.41-3.081-.605-3.562-2.345l-8.487-30.674c-.445-1.61.211-3.25 1.593-3.77 1.493-.623 3.086-1.132 4.698-1.578 1.61-.446 3.176-.81 4.84-1.062 1.389-.245 2.859.805 3.305 2.416m-17.77 16.016l5.635 20.363c.482 1.74-.369 3.433-1.85 3.843l-9.022 2.497c-1.483.409-3.082-.605-3.562-2.345l-5.635-20.365c-.446-1.61.21-3.25 1.592-3.77 1.494-.62 3.087-1.132 4.699-1.577 1.61-.446 3.176-.809 4.84-1.062 1.388-.246 2.859.805 3.304 2.416m-18.91 11.892l3.922 14.177c.482 1.74-.368 3.432-1.85 3.842l-9.022 2.496c-1.482.41-3.082-.603-3.562-2.344l-3.923-14.177c-.446-1.611.211-3.25 1.593-3.77 1.493-.623 3.087-1.132 4.698-1.578 1.611-.446 3.176-.809 4.84-1.06 1.388-.247 2.858.803 3.304 2.414m6.343-21.457l-9.657-6.07-4.44 8.027c.172.37.361.802.487 1.253a7.477 7.477 0 0 1-5.221 9.215 7.476 7.476 0 0 1-9.215-5.22 7.475 7.475 0 0 1 5.22-9.214c.387-.107.793-.15 1.26-.21l6.666-11.766c.624-1.005 1.594-1.759 2.69-2.062 1.178-.257 2.333-.09 3.339.533l10.115 6.22 11.013-14.355a21.497 21.497 0 0 0-.07-.257 7.476 7.476 0 0 1 5.22-9.215 7.476 7.476 0 0 1 9.214 5.22 7.476 7.476 0 0 1-5.221 9.214c-.772.214-1.582.3-2.298.22l-13.418 17.45a4.308 4.308 0 0 1-5.684 1.017m-52.712-35.9c4.1 14.821-4.569 30.123-19.39 34.223-16.626 4.6-31.292-6.535-34.562-20.615l26.987.51c2.16.028 3.61-2.246 3.111-4.05l-8.272-29.9c14.047-2.639 28.239 5.783 32.126 19.831zm-60.85 6.983c-1.185-.018-2.15-1-2.114-2.12.02-13.465 8.405-25.289 20.841-28.73 1.096-.303 2.283.479 2.633 1.493l8.344 30.157-29.704-.8zM333.91 43.094l2.66-10.448c-.19-.433-.36-.802-.486-1.253a7.478 7.478 0 0 1 5.22-9.215 7.477 7.477 0 0 1 9.215 5.22c.036.13.006.277.042.405l13.892 6.077c.656-.39 1.264-.696 2.038-.91a7.475 7.475 0 0 1 9.213 5.22 7.476 7.476 0 0 1-5.22 9.215 7.476 7.476 0 0 1-9.214-5.221c-.036-.129-.071-.258-.043-.404l-13.891-6.078c-.656.39-1.328.715-2.037.91-.323.09-.663.116-.984.204l-2.175 8.44-8.23-2.162zm-12.653 39.02c-1.087-3.93 1.133-7.944 5.028-9.161l3.133-12.244 8.23 2.163-3.201 12.749c.553.75.997 1.597 1.246 2.5a7.475 7.475 0 0 1-5.22 9.213 7.477 7.477 0 0 1-9.216-5.22zm46.703-16.25l-42.88-11.308a7.195 7.195 0 0 1-3.166 1.847 7.478 7.478 0 0 1-9.215-5.22 7.478 7.478 0 0 1 5.222-9.215c3.608-.999 7.321.888 8.8 4.225L369.6 57.5a7.195 7.195 0 0 1 3.166-1.847 7.476 7.476 0 0 1 9.213 5.22 7.477 7.477 0 0 1-5.22 9.216c-3.608.997-7.322-.889-8.8-4.226zM266.982 33.04a1.82 1.82 0 0 1-2.268-1.284l-1.472-5.326-5.326 1.475a1.819 1.819 0 0 1-2.266-1.285l-.491-1.775a1.818 1.818 0 0 1 1.284-2.267l5.325-1.473-1.473-5.326a1.82 1.82 0 0 1 1.285-2.266l1.774-.491a1.82 1.82 0 0 1 2.267 1.284l1.474 5.326 5.325-1.473a1.817 1.817 0 0 1 2.265 1.284l.492 1.774a1.82 1.82 0 0 1-1.284 2.267l-5.325 1.474 1.473 5.325a1.819 1.819 0 0 1-1.283 2.267l-1.776.49zm13.72-14.305A16.091 16.091 0 0 0 260.87 7.498a16.09 16.09 0 0 0-11.235 19.83 16.09 16.09 0 0 0 19.83 11.236 16.09 16.09 0 0 0 11.236-19.83zm6.657-1.843c3.39 12.26-3.79 24.938-16.052 28.33a22.963 22.963 0 0 1-9.762.55L250.892 59.29c-1.838 2.42-5.304 2.841-7.74.947-1.98-1.542-2.631-4.11-1.765-6.38l6.135-16.03a22.966 22.966 0 0 1-4.543-8.657c-3.394-12.26 3.79-24.939 16.049-28.33 12.26-3.393 24.938 3.791 28.331 16.051z" fill="#010202" opacity=".1"/><g filter="url(#a)" transform="translate(18.793 28.736)"><g filter="url(#b)" transform="translate(56.704)"><path fill="#C7C6CE" d="M36.488 19.04c3.488.221 6.195 3.018 6.402 6.42l.005-.043a6.857 6.857 0 1 0-13.685-.87c-.018.29-.012.576.005.86a6.854 6.854 0 0 1 7.273-6.367m25.008 1.59c3.488.222 6.195 3.019 6.402 6.42l.006-.042a6.858 6.858 0 1 0-13.686-.87c-.018.29-.013.576.005.86a6.854 6.854 0 0 1 7.273-6.368m25.008 1.591c3.488.222 6.195 3.018 6.402 6.42l.006-.042a6.856 6.856 0 1 0-13.685-.87c-.02.29-.014.576.003.86a6.856 6.856 0 0 1 7.274-6.368m25.008 1.591c3.488.222 6.195 3.018 6.402 6.42l.005-.042a6.858 6.858 0 1 0-13.685-.87c-.018.29-.012.576.005.86a6.854 6.854 0 0 1 7.273-6.368m25.008 1.591c3.488.222 6.195 3.018 6.402 6.42l.006-.042a6.858 6.858 0 1 0-13.686-.87c-.018.29-.013.576.004.86a6.856 6.856 0 0 1 7.274-6.368m25.008 1.591c3.488.222 6.195 3.018 6.402 6.42l.005-.042a6.857 6.857 0 1 0-13.685-.87c-.018.29-.012.576.005.86a6.854 6.854 0 0 1 7.273-6.368m25.008 1.591c3.488.222 6.195 3.018 6.402 6.42l.006-.042a6.858 6.858 0 1 0-13.686-.87c-.018.29-.013.576.006.86a6.854 6.854 0 0 1 7.272-6.368m25.008 1.591c3.488.222 6.195 3.018 6.402 6.42l.006-.042a6.856 6.856 0 1 0-13.685-.87c-.02.29-.014.576.003.86a6.856 6.856 0 0 1 7.274-6.368m25.008 1.59c3.488.222 6.195 3.019 6.402 6.421l.006-.042a6.858 6.858 0 1 0-13.686-.87c-.018.29-.012.576.005.86a6.854 6.854 0 0 1 7.273-6.368"/><path fill="#C8C6CE" d="M248.996 196.388L1.919 182.482l-.387 7.689 246.975 18.72z"/><path fill="#DFDFE9" d="M247.646 206.055L2.271 188.633l.588-7.676 245.885 12.634z"/><path fill="#FEFEFE" d="M235.682 44.554a6.858 6.858 0 0 1-6.408-7.28 6.856 6.856 0 1 1 13.686.87 6.857 6.857 0 0 1-7.278 6.41zm-25.008-1.59a6.857 6.857 0 0 1-6.407-7.281 6.856 6.856 0 1 1 13.685.87 6.858 6.858 0 0 1-7.278 6.41zm-25.009-1.592a6.858 6.858 0 0 1-6.407-7.28 6.858 6.858 0 1 1 13.686.87 6.859 6.859 0 0 1-7.279 6.41zm-25.008-1.59a6.858 6.858 0 0 1-6.407-7.28 6.856 6.856 0 1 1 13.685.87 6.857 6.857 0 0 1-7.278 6.41zM135.65 38.19a6.86 6.86 0 0 1 .87-13.69c3.78.24 6.648 3.5 6.408 7.28a6.858 6.858 0 0 1-7.278 6.41zM110.642 36.6a6.858 6.858 0 0 1-6.407-7.28 6.858 6.858 0 0 1 7.278-6.411 6.86 6.86 0 0 1-.87 13.69zm-25.009-1.591a6.86 6.86 0 0 1 .87-13.691 6.858 6.858 0 0 1 6.408 7.28 6.858 6.858 0 0 1-7.278 6.411zm-25.007-1.59a6.86 6.86 0 0 1 .87-13.692 6.86 6.86 0 0 1 6.407 7.28 6.858 6.858 0 0 1-7.277 6.411zm-25.008-1.593a6.857 6.857 0 0 1-6.408-7.28 6.857 6.857 0 1 1 13.686.87 6.857 6.857 0 0 1-7.278 6.41zM12.33 9.186L.285 185.232l249.567 17.72 11.08-180.963-248.6-12.803z"/><path fill="#010202" fill-opacity=".1" d="M234.785 30.988a6.882 6.882 0 0 1 1.767-.124 6.83 6.83 0 0 1 4.198 1.792l1.002-11.654-6.08-.314-.887 10.3zm-24.854-1.62a6.814 6.814 0 0 1 1.613-.094 6.818 6.818 0 0 1 4.382 1.972l.602-11.544-6.076-.312-.521 9.977zm-25.195-1.556a6.84 6.84 0 0 1 1.8-.13 6.817 6.817 0 0 1 4.16 1.76l1.028-11.017-6.082-.314-.906 9.701zm-24.716-1.646a6.82 6.82 0 0 1 6.03 2.042l.313-11.089-6.08-.312-.263 9.359zm-25.061-1.581a6.81 6.81 0 0 1 1.561-.085 6.822 6.822 0 0 1 4.45 2.044l.43-10.71-6.076-.313-.365 9.064zm-25.232-1.549a6.846 6.846 0 0 1 1.786-.126 6.815 6.815 0 0 1 4.174 1.774l.913-10.128-6.08-.313-.793 8.793zm-24.808-1.629a6.792 6.792 0 0 1 6.004 1.922l.46-10.071-6.076-.314-.388 8.463zm-25.206-1.553a6.83 6.83 0 0 1 1.782-.126 6.827 6.827 0 0 1 4.18 1.775l.854-9.525-6.08-.314-.736 8.19zM34.937 18.22a6.794 6.794 0 0 1 6.015 1.975l.361-9.515-6.078-.313-.298 7.853z"/><path fill="#16A0DB" d="M37.266.452a3.043 3.043 0 0 0-3.156 2.926l-.795 20.974a3.043 3.043 0 0 0 6.08.23l.795-20.973A3.044 3.044 0 0 0 37.266.452"/><path fill="#010202" fill-opacity=".1" d="M35.524 24.435l.795-20.974A3.04 3.04 0 0 1 38.363.708a3.017 3.017 0 0 0-1.097-.255 3.042 3.042 0 0 0-3.156 2.925l-.795 20.973a3.04 3.04 0 0 0 2.923 3.156c.392.016.765-.05 1.113-.171a3.04 3.04 0 0 1-1.827-2.9"/><path fill="#16A0DB" d="M62.97 2.088a3.042 3.042 0 0 0-3.302 2.76L57.792 25.75a3.042 3.042 0 1 0 6.06.545L65.73 5.39a3.043 3.043 0 0 0-2.759-3.303"/><path fill="#010202" fill-opacity=".1" d="M59.994 25.949l1.877-20.904A3.037 3.037 0 0 1 64.05 2.4a3.028 3.028 0 0 0-1.08-.313 3.043 3.043 0 0 0-3.303 2.76l-1.876 20.904a3.043 3.043 0 0 0 2.759 3.303c.389.036.765-.012 1.12-.115a3.038 3.038 0 0 1-1.677-2.99"/><path fill="#16A0DB" d="M87.387 3.638A3.042 3.042 0 0 0 84.21 6.54l-.96 20.967a3.043 3.043 0 0 0 6.08.279l.958-20.967a3.042 3.042 0 0 0-2.9-3.18"/><path fill="#010202" fill-opacity=".1" d="M85.458 27.607l.96-20.966a3.035 3.035 0 0 1 2.064-2.737 3.005 3.005 0 0 0-1.095-.265 3.041 3.041 0 0 0-3.178 2.9l-.96 20.967a3.044 3.044 0 0 0 2.9 3.18c.392.017.765-.046 1.114-.165a3.037 3.037 0 0 1-1.805-2.914"/><path fill="#16A0DB" d="M112.991 5.27a3.043 3.043 0 0 0-3.303 2.758l-1.883 20.904a3.041 3.041 0 1 0 6.06.546l1.884-20.904a3.044 3.044 0 0 0-2.758-3.304"/><path fill="#010202" fill-opacity=".1" d="M110.007 29.13l1.883-20.904a3.042 3.042 0 0 1 2.183-2.643 3.035 3.035 0 0 0-1.082-.313 3.042 3.042 0 0 0-3.302 2.758l-1.885 20.903a3.043 3.043 0 0 0 2.758 3.304c.389.036.766-.01 1.12-.113a3.038 3.038 0 0 1-1.675-2.992"/><path fill="#16A0DB" d="M137.33 6.817a3.042 3.042 0 0 0-3.163 2.918l-.845 20.973a3.043 3.043 0 0 0 6.08.244l.844-20.972a3.042 3.042 0 0 0-2.917-3.163"/><path fill="#010202" fill-opacity=".1" d="M135.531 30.796l.845-20.971c.052-1.289.9-2.35 2.05-2.75a3.04 3.04 0 0 0-1.096-.258 3.044 3.044 0 0 0-3.164 2.918l-.844 20.971a3.043 3.043 0 0 0 2.917 3.165c.39.016.765-.05 1.113-.17a3.04 3.04 0 0 1-1.82-2.905"/><path fill="#16A0DB" d="M162.174 8.403a3.042 3.042 0 0 0-3.127 2.956l-.592 20.98a3.042 3.042 0 1 0 6.082.171l.592-20.98a3.043 3.043 0 0 0-2.955-3.127"/><path fill="#010202" fill-opacity=".1" d="M160.665 32.401l.593-20.98a3.038 3.038 0 0 1 2.015-2.773 3.01 3.01 0 0 0-1.099-.245 3.042 3.042 0 0 0-3.127 2.956l-.592 20.98a3.043 3.043 0 0 0 2.956 3.128c.391.01.763-.06 1.111-.184a3.038 3.038 0 0 1-1.857-2.882"/><path fill="#16A0DB" d="M188.06 10.047a3.043 3.043 0 0 0-3.313 2.748l-1.952 20.897a3.043 3.043 0 0 0 2.747 3.312 3.04 3.04 0 0 0 3.311-2.746l1.953-20.898a3.044 3.044 0 0 0-2.747-3.313"/><path fill="#010202" fill-opacity=".1" d="M184.997 33.897L186.948 13a3.04 3.04 0 0 1 2.192-2.637 3.052 3.052 0 0 0-1.081-.317 3.043 3.043 0 0 0-3.311 2.748l-1.952 20.897a3.042 3.042 0 0 0 2.745 3.314c.39.035.767-.01 1.121-.111a3.04 3.04 0 0 1-1.665-2.997"/><path fill="#16A0DB" d="M212.513 11.597a3.043 3.043 0 0 0-3.196 2.881l-1.093 20.96a3.044 3.044 0 0 0 6.077.318l1.092-20.961a3.044 3.044 0 0 0-2.88-3.198"/><path fill="#010202" fill-opacity=".1" d="M210.432 35.553l1.093-20.96a3.035 3.035 0 0 1 2.08-2.723 3.019 3.019 0 0 0-1.091-.273 3.045 3.045 0 0 0-3.198 2.88l-1.092 20.961a3.043 3.043 0 0 0 2.879 3.198c.392.02.765-.041 1.115-.157a3.038 3.038 0 0 1-1.786-2.926"/><path fill="#16A0DB" d="M237.977 13.22a3.043 3.043 0 0 0-3.293 2.771l-1.798 20.91a3.043 3.043 0 1 0 6.062.523l1.8-20.91a3.044 3.044 0 0 0-2.77-3.294"/><path fill="#010202" fill-opacity=".1" d="M235.088 37.092l1.8-20.91a3.039 3.039 0 0 1 2.172-2.654 3.012 3.012 0 0 0-1.083-.308 3.043 3.043 0 0 0-3.292 2.771l-1.8 20.91a3.045 3.045 0 0 0 2.77 3.294 3.01 3.01 0 0 0 1.12-.12 3.038 3.038 0 0 1-1.687-2.983"/><path fill="#6B7482" fill-opacity=".2" d="M122.338 69.158l-97.429-4.721-.88-21.003 101.654 7.944z"/><path fill="#44B9BC" d="M52.198 149.363l-26.463-2.659-1.464 23.017 26.495 2.174zM86.368 129.942l-28.089-2.053-1.982 43.66 27.315 1.737zM123.454 100.967l-28.853-2.534-4.739 74.553 28.808 3.229zM156.65 120.696l-28.853-2.534-2.834 57.057 27.317 1.737zM192.862 92.981l-27.448.348-6.184 84.768 28.898 1.839z"/><path fill="#2D9CA3" d="M230.323 82.185l-28.797-2.53-6.404 100.725 29.633 1.885z"/><path fill="#E9507E" d="M31.902 143.261a2.582 2.582 0 0 1-1.072-4.93l40.502-18.485 38.134-34.2 33.235 21.66 35.77-26.48 37.677-11.473a2.581 2.581 0 0 1 1.503 4.937l-36.825 11.213-37.938 28.085-32.923-21.458-35.775 32.085-41.219 18.813c-.348.158-.71.233-1.069.233"/><path fill="#E9507E" d="M210.986 63.065l11.68 6.751a.445.445 0 0 1 .156.582l-6.76 11.678a.416.416 0 0 1-.573.153l-3.557-2.058a.435.435 0 0 1-.153-.574l4.487-7.759-7.758-4.489a.436.436 0 0 1-.153-.572l2.058-3.559a.472.472 0 0 1 .261-.19.453.453 0 0 1 .312.037"/><path fill="#FEFEFE" d="M67.399 121.689a5.374 5.374 0 1 0 5.703-5.024 5.374 5.374 0 0 0-5.703 5.024"/><path fill="#E9507E" d="M72.755 118.13a3.903 3.903 0 0 0-2.92 6.477c.688.781 1.64 1.25 2.679 1.316 2.15.14 4.003-1.512 4.14-3.646a3.875 3.875 0 0 0-.966-2.825 3.873 3.873 0 0 0-2.933-1.323m.012 10.75a6.804 6.804 0 0 1-5.146-2.323 6.807 6.807 0 0 1-1.693-4.961c.236-3.743 3.474-6.647 7.268-6.4a6.802 6.802 0 0 1 4.705 2.31 6.807 6.807 0 0 1 1.694 4.959c-.23 3.598-3.228 6.415-6.828 6.415"/><path fill="#FEFEFE" d="M104.353 88.548a5.374 5.374 0 1 0 5.703-5.023 5.374 5.374 0 0 0-5.703 5.023"/><path fill="#E9507E" d="M109.71 84.988a3.906 3.906 0 0 0-3.887 3.653 3.876 3.876 0 0 0 .966 2.826c.687.78 1.639 1.249 2.68 1.315 2.14.15 4.002-1.512 4.137-3.646a3.904 3.904 0 0 0-3.896-4.148m.011 10.75a6.802 6.802 0 0 1-5.144-2.323 6.803 6.803 0 0 1-1.696-4.961c.24-3.744 3.5-6.635 7.269-6.4a6.856 6.856 0 0 1 6.398 7.269c-.228 3.597-3.227 6.415-6.827 6.415"/><path fill="#FEFEFE" d="M137.512 108.856a5.374 5.374 0 1 0 5.703-5.023 5.374 5.374 0 0 0-5.703 5.023"/><path fill="#E9507E" d="M142.868 105.297a3.903 3.903 0 0 0-3.885 3.653 3.905 3.905 0 0 0 3.644 4.14c2.156.154 4.002-1.511 4.14-3.645a3.873 3.873 0 0 0-.966-2.825 3.87 3.87 0 0 0-2.933-1.323m.012 10.75h-.001c-.145 0-.292-.004-.44-.013-3.768-.24-6.638-3.503-6.398-7.271.238-3.744 3.487-6.646 7.268-6.4a6.8 6.8 0 0 1 4.705 2.308 6.812 6.812 0 0 1 1.694 4.96c-.23 3.6-3.228 6.416-6.828 6.416"/><path fill="#FEFEFE" d="M174.41 82.83a5.374 5.374 0 1 0 5.704-5.023 5.374 5.374 0 0 0-5.704 5.024"/><path fill="#E9507E" d="M179.767 79.271a3.906 3.906 0 0 0-3.886 3.653 3.876 3.876 0 0 0 .965 2.825 3.868 3.868 0 0 0 2.68 1.315c2.15.143 4.003-1.511 4.138-3.646a3.88 3.88 0 0 0-.964-2.824 3.873 3.873 0 0 0-2.933-1.323m.012 10.75h-.001a6.806 6.806 0 0 1-5.144-2.322 6.808 6.808 0 0 1-1.695-4.963c.239-3.743 3.483-6.639 7.269-6.4a6.802 6.802 0 0 1 4.705 2.31 6.806 6.806 0 0 1 1.693 4.96c-.228 3.597-3.227 6.415-6.827 6.415"/></g><g filter="url(#c)" transform="translate(0 1.32)"><path fill="#F7AC42" d="M64.438 207.69L44.821.827.057 7.215l24.53 248.695 44.027-4.179 211.936-21.655-2.702-42.567z"/><path fill="#FEFEFE" fill-opacity=".5" d="M86.986 219.071l-1.27-13.4 3.669-.349 1.27 13.401-3.669.348zm20.912-1.984l-1.272-13.4 3.67-.349 1.27 13.4-3.668.35zm20.91-1.984l-1.27-13.4 3.669-.35 1.27 13.402-3.669.348zm20.912-1.984l-1.272-13.401 3.67-.348 1.27 13.4-3.668.349zm20.911-1.985l-1.271-13.4 3.67-.349 1.27 13.401-3.669.348zm20.91-1.984l-1.27-13.4 3.67-.349 1.27 13.401-3.67.348zm20.912-1.984l-1.271-13.4 3.67-.35 1.271 13.402-3.67.348zm20.91-1.984l-1.27-13.401 3.67-.348 1.27 13.4-3.67.349zm20.912-1.984l-1.271-13.401 3.67-.348 1.27 13.4-3.669.349zM49.233 189.883l-.348-3.67 13.395-1.271.348 3.67-13.395 1.271zm-1.984-20.918l-.348-3.67 13.395-1.271.349 3.671-13.396 1.27zm-1.983-20.918l-.349-3.67 13.396-1.271.348 3.671-13.395 1.27zm-1.984-20.917l-.348-3.67 13.395-1.271.348 3.67-13.395 1.271zm-1.984-20.918l-.348-3.67 13.396-1.271.348 3.671-13.396 1.27zm-1.983-20.917l-.348-3.671 13.395-1.27.348 3.67-13.395 1.271zM37.33 64.377l-.348-3.67 13.395-1.271.348 3.67-13.395 1.271zM35.348 43.46l-.349-3.67 13.396-1.271.348 3.67-13.395 1.27zm-1.984-20.918l-.348-3.671L46.41 17.6l.348 3.67-13.395 1.271z"/><path fill="#FEFEFE" fill-opacity=".3" d="M64.438 207.69L44.821.827l-4.118.39L60.71 212.2l4.118-.391 212.673-20.179.347-4.121z"/><path fill="#010202" fill-opacity=".07" d="M40.381 236.799L18.243 3.348.057 7.215l24.53 248.693 17.449-1.655 238.514-24.176-.918-15.98z"/></g><g filter="url(#d)" transform="translate(287.474 143.782)"><path fill="#44B9BC" d="M55.192 1.087L72.564 8.84 60.093 36.799l-17.371-7.754zM4.428 120.25l13.389 5.975-3.085 6.914-13.387-5.976z"/><path fill="#FEFEFE" d="M42.722 29.045l17.371 7.754-41.827 93.772-17.371-7.753z"/><path fill="#010202" fill-opacity=".1" d="M66.85 6.656l5.153 2.301-54.024 121.12-5.153-2.301zM10.698 127.193l5.576 2.489-1.541 3.458-5.577-2.49z"/><path fill="#E73D2F" d="M44.06 45.555l-5.321-2.374-29.988 67.231 5.321 2.375z"/><path fill="#010202" fill-opacity=".1" d="M55.316 1.509l.748.333-54.026 121.12-.746-.333zM2.886 123.707l.942.42-1.542 3.456-.941-.419z"/><path fill="#010202" fill-opacity=".1" d="M16.275 129.682l-.421.942-13.389-5.975.421-.942z"/></g><g filter="url(#e)" transform="translate(305.767 34.297)"><path fill="#E9507E" d="M.03 9.442L16.883.62l14.192 27.126-16.855 8.822zM61.994 123.181l12.989-6.8 3.509 6.708-12.989 6.8z"/><path fill="#FEFEFE" d="M14.221 36.568l16.853-8.822 47.597 90.978-16.854 8.823z"/><path fill="#010202" fill-opacity=".1" d="M11.645 3.783l4.988-2.611 61.441 117.444-4.987 2.61zM71.327 122.568l5.411-2.832 1.755 3.353-5.41 2.832z"/><path fill="#E73D2F" d="M27.998 45.757l-5.161 2.702 34.124 65.228 5.161-2.702z"/><path fill="#010202" fill-opacity=".1" d="M.508 9.613l.699-.366 61.441 117.444-.698.365zM63.749 126.535l.914-.479 1.755 3.355-.914.477z"/><path fill="#010202" fill-opacity=".1" d="M76.738 119.735l.479.915-12.991 6.8-.477-.915z"/></g></g></g></svg>