<svg width="472" height="437" viewBox="0 0 472 437" xmlns="http://www.w3.org/2000/svg"><title>chat</title><defs><filter x="-50%" y="-50%" width="200%" height="200%" filterUnits="objectBoundingBox" id="a"><feOffset in="SourceAlpha" result="shadowOffsetOuter1"/><feGaussianBlur stdDeviation="5" in="shadowOffsetOuter1" result="shadowBlurOuter1"/><feColorMatrix values="0 0 0 0 0 0 0 0 0 0 0 0 0 0 0 0 0 0 0.2 0" in="shadowBlurOuter1" result="shadowMatrixOuter1"/><feMerge><feMergeNode in="shadowMatrixOuter1"/><feMergeNode in="SourceGraphic"/></feMerge></filter><filter x="-50%" y="-50%" width="200%" height="200%" filterUnits="objectBoundingBox" id="b"><feOffset in="SourceAlpha" result="shadowOffsetOuter1"/><feGaussianBlur stdDeviation="5" in="shadowOffsetOuter1" result="shadowBlurOuter1"/><feColorMatrix values="0 0 0 0 0 0 0 0 0 0 0 0 0 0 0 0 0 0 0.2 0" in="shadowBlurOuter1" result="shadowMatrixOuter1"/><feMerge><feMergeNode in="shadowMatrixOuter1"/><feMergeNode in="SourceGraphic"/></feMerge></filter></defs><g fill="none" fill-rule="evenodd"><g opacity=".1" fill="#000"><path d="M220.53 371.262c-2.448-4.836-2.694-6.59-8.314-8.82-5.08-1.982-11.083-3.065-13.263-4.528-1.731-1.193-3.664-2.813-1.953-6.297 4.413-8.744 3.45-15.288-.594-20.394-3.887-4.86-9.935-5.358-14.343-4.26-4.407 1.1-9.514 4.38-10.664 10.495-.384 2.293-.385 4.586.175 6.835 5.96-.625 12.951.975 17.826 7.117 4.022 5.017 7.66 13.473 2.413 25.77.944.337 2.18.698 3.192.923 1.978.654 4.226 1.24 6.452 2.118 13.808-3.634 17.564-5.43 17.834-5.498.697-.269 1.125-.853 1.35-1.483.225-.63.226-1.394-.111-1.978zm-60.428 15.543l.09-.022c.765-.764 1.62-1.55 2.295-2.292-10.405-8.394-11.186-17.658-10.058-23.863 1.511-7.734 6.933-12.43 12.489-14.675-.561-2.249-1.64-4.273-3.055-6.118-3.886-4.86-9.935-5.358-14.342-4.259-4.408 1.1-9.514 4.379-10.665 10.494-1.173 6.408 1.049 12.637 9.05 18.286 3.146 2.273 2.2 4.611 1.233 6.477-1.239 2.315-6.12 6.112-9.586 10.225-4.005 4.629-3.309 6.27-3.2 11.69-.023.674.247 1.372.831 1.8.494.45 1.146.764 1.888.675.18-.045 4.43-.245 18.328-3.519 1.553-1.82 3.262-3.393 4.702-4.899zm23.35 19.308c18.531-4.62 23.322-6.866 23.592-6.933.697-.27 1.124-.854 1.35-1.484.225-.63.225-1.394-.112-1.978-2.447-4.836-2.694-6.59-8.313-8.82-5.08-1.982-11.084-3.065-13.264-4.528-1.73-1.193-3.663-2.813-1.952-6.297 4.413-8.744 3.45-15.288-.594-20.394-3.887-4.86-9.935-5.358-14.343-4.259-4.408 1.099-9.514 4.379-10.665 10.494-1.173 6.407 1.05 12.637 9.05 18.286 3.147 2.273 2.2 4.61 1.233 6.476-1.238 2.316-6.12 6.113-9.585 10.225-4.006 4.63-3.31 6.271-3.2 11.69-.023.675.246 1.372.83 1.8.495.45 1.146.765 1.889.676.27-.068 5.464-.312 24.084-4.954zM139.118 295.944a3.704 3.704 0 0 0 2.507 1.149l6.784.237a3.576 3.576 0 0 0 3.73-3.478 3.576 3.576 0 0 0-3.478-3.73l-6.784-.237a3.576 3.576 0 0 0-3.73 3.478 3.704 3.704 0 0 0 .97 2.581zm-32.736-35.105a3.704 3.704 0 0 0 2.507 1.149 3.576 3.576 0 0 0 3.73-3.478l.237-6.784a3.576 3.576 0 0 0-3.479-3.73 3.576 3.576 0 0 0-3.73 3.478l-.236 6.784a3.704 3.704 0 0 0 .97 2.581zm-5.842 51.8c.71-.559 1.144-.862 1.144-.862 3.152-2.119 6.358-2.75 12.317-3.178 5.907-.484 9.877-1.725 13.826-5.408 8.557-7.98 9.353-21.642 1.066-30.528-8.286-8.886-21.971-9.046-30.528-1.066-3.95 3.682-5.465 7.556-6.359 13.415-.894 5.86-1.748 9.014-4.03 12.065 0 0-.384.358-.99 1.027l13.554 14.535zm13.767 13.004a3.704 3.704 0 0 0 2.507 1.15 3.576 3.576 0 0 0 3.73-3.479l.237-6.784a3.576 3.576 0 0 0-3.478-3.73 3.576 3.576 0 0 0-3.73 3.478l-.237 6.784a3.704 3.704 0 0 0 .971 2.581zm-39.283-42.126a3.704 3.704 0 0 0 2.507 1.15l6.784.236a3.576 3.576 0 0 0 3.73-3.478 3.576 3.576 0 0 0-3.478-3.73l-6.784-.237a3.576 3.576 0 0 0-3.73 3.478 3.704 3.704 0 0 0 .971 2.581zm4.722 34.976c3.325 3.566 6.363 3.194 10.735 1.065 1.675-.844 4.066-2.458 6.19-4.03l-12.838-13.767c-1.715 2.01-3.493 4.283-4.4 5.949-2.48 4.159-3.012 7.218.313 10.783zM331.035 138.736c1.467.016 2.731-1.045 2.858-2.568.878-8.363-2.098-13.93-6.79-19.594-1.34-1.54-3.066-3.021-4.932-4.64-3.564-2.905-7.546-6.223-7.545-9.627.067-2.186 1.791-4.662 5.174-7.427 10.53-8.907 14.915-18.155 12.936-27.354-1.549-7.128-6.294-12.626-12.869-14.762-6.49-2.109-13.645-.477-19.087 4.379-7.008 6.279-8.897 16.338-5.53 29.76 1.112 4.225 1.052 7.242-.263 9.023-2 2.754-7.17 3.098-11.68 3.381-2.543.186-4.894.342-6.8.827-7.125 1.825-12.804 4.58-17.01 11.861-.793 1.307-.393 2.909.803 3.757.306.192 8.594 5.83 34.475 14.238 12.899 4.191 21.853 6.365 27.645 7.51 5.792 1.146 8.449 1.182 8.615 1.236z"/></g><g filter="url(#a)" transform="translate(190 149)"><path d="M135.75 267.837c-72.295 0-131.108-58.854-131.108-131.198C4.642 64.3 63.455 5.445 135.749 5.445c72.292 0 131.105 58.853 131.105 131.194 0 72.344-58.813 131.198-131.105 131.198" fill="#ED4F7E"/><path d="M135.75.881C60.821.881.082 61.663.082 136.641.083 211.618 60.822 272.4 135.75 272.4c74.926 0 135.666-60.782 135.666-135.76C271.415 61.664 210.675.882 135.75.882m0 9.125c69.78 0 126.548 56.807 126.548 126.635 0 69.826-56.768 126.635-126.548 126.635S9.201 206.466 9.201 136.64c0-69.828 56.769-126.635 126.548-126.635" fill="#FEFEFE"/><path d="M64.103 233.306c-30.483-21.874-50.342-57.632-50.342-98.033 0-66.577 53.934-120.548 120.465-120.548 38.74 0 73.21 18.298 95.247 46.73 15.809 20.397-145.618 186.024-165.37 171.851" fill-opacity=".05" fill="#000"/><path d="M135.75 272.4C61.99 272.4 2.024 213.487.17 140.126c-.029 1.16-.088 2.317-.088 3.485 0 74.978 60.74 135.76 135.666 135.76 74.926 0 135.666-60.782 135.666-135.76 0-1.168-.059-2.324-.09-3.485-1.853 73.36-61.818 132.272-135.576 132.272" fill-opacity=".1" fill="#000"/><path d="M151.996 200.269c-40.145 0-55.329-2.106-55.931-2.258-1.355-.148-2.405-1.05-3.307-2.257-.751-1.202-1.053-2.708-.751-4.062 2.556-11.281 9.623-20.76 19.995-27.082 2.556-1.503 5.714-2.708 9.02-4.062 5.865-2.255 12.481-4.963 13.682-8.875.903-3.16-1.505-7.972-3.91-11.435-11.125-17.148-13.078-33.249-5.712-45.435 5.563-9.325 15.636-14.894 26.914-14.894 11.125 0 21.198 5.569 26.911 14.894 7.215 12.186 5.261 28.287-5.865 45.587-2.253 3.311-4.81 8.124-3.758 11.283 1.202 3.912 7.818 6.62 13.683 8.875 3.307 1.354 6.464 2.56 9.02 4.062 10.224 6.322 17.59 15.8 19.995 27.082.304 1.354 0 2.86-.75 4.062-.752 1.207-2.105 2.109-3.458 2.257-.603.152-15.637 2.258-55.778 2.258zm-84.195-67.4h38.489v-9.63H67.8v9.63zm-.002-19.26h38.49v-9.629h-38.49v9.63z" fill-opacity=".2" fill="#010202"/><path d="M148.957 194.186c-40.145 0-55.33-2.105-55.931-2.257-1.355-.149-2.405-1.05-3.308-2.258-.75-1.202-1.052-2.708-.75-4.062 2.556-11.281 9.622-20.76 19.994-27.082 2.557-1.502 5.715-2.708 9.02-4.062 5.866-2.254 12.482-4.963 13.683-8.875.903-3.159-1.505-7.971-3.91-11.434-11.125-17.149-13.078-33.25-5.713-45.435 5.564-9.326 15.637-14.895 26.915-14.895 11.124 0 21.198 5.569 26.91 14.895 7.216 12.185 5.264 28.286-5.864 45.587-2.253 3.31-4.81 8.123-3.758 11.282 1.203 3.912 7.817 6.62 13.683 8.875 3.307 1.354 6.464 2.56 9.02 4.062 10.223 6.322 17.59 15.801 19.995 27.082.303 1.354 0 2.86-.751 4.062-.751 1.207-2.104 2.11-3.457 2.258-.603.152-15.637 2.257-55.778 2.257zm-84.196-67.4h38.49v-9.63H64.76v9.63zm-.001-19.26h38.49v-9.629H64.76v9.63z" fill="#FEFEFE"/></g><g filter="url(#b)" transform="translate(10 10)"><path d="M135.804 267.153c-72.295 0-131.108-58.854-131.108-131.198C4.696 63.615 63.509 4.76 135.804 4.76c72.29 0 131.104 58.855 131.104 131.196 0 72.344-58.813 131.198-131.104 131.198" fill="#0EA2DC"/><path d="M135.804.197C60.876.197.138 60.98.138 135.957c0 74.977 60.738 135.759 135.666 135.759 74.925 0 135.666-60.782 135.666-135.76C271.47 60.98 210.73.198 135.804.198m0 9.124c69.78 0 126.548 56.808 126.548 126.636 0 69.826-56.769 126.635-126.548 126.635-69.78 0-126.548-56.81-126.548-126.635C9.256 66.129 66.024 9.32 135.804 9.32" fill="#FEFEFE"/><path d="M64.158 232.622c-30.484-21.874-50.343-57.632-50.343-98.031 0-66.58 53.934-120.55 120.466-120.55 38.74 0 73.21 18.299 95.246 46.73 15.81 20.397-145.617 186.024-165.37 171.851" fill-opacity=".05" fill="#000"/><path d="M135.804 271.715c-73.758 0-133.725-58.911-135.578-132.272-.03 1.162-.088 2.316-.088 3.485 0 74.977 60.74 135.76 135.666 135.76 74.925 0 135.666-60.783 135.666-135.76 0-1.169-.06-2.323-.09-3.485-1.853 73.36-61.818 132.272-135.576 132.272" fill-opacity=".1" fill="#000"/><path d="M152.05 199.585c-40.144 0-55.328-2.106-55.93-2.258-1.355-.148-2.405-1.05-3.308-2.257-.75-1.202-1.053-2.708-.75-4.063 2.556-11.28 9.622-20.76 19.994-27.081 2.556-1.503 5.715-2.708 9.02-4.063 5.866-2.254 12.482-4.962 13.683-8.874.903-3.16-1.505-7.972-3.91-11.435-11.126-17.148-13.078-33.25-5.713-45.435 5.563-9.326 15.637-14.894 26.915-14.894 11.124 0 21.197 5.568 26.91 14.894 7.216 12.186 5.263 28.287-5.864 45.587-2.253 3.311-4.811 8.124-3.758 11.283 1.203 3.912 7.817 6.62 13.682 8.874 3.307 1.355 6.464 2.56 9.02 4.063 10.224 6.321 17.591 15.8 19.996 27.081.303 1.355 0 2.86-.751 4.063-.751 1.207-2.104 2.109-3.458 2.257-.602.152-15.636 2.258-55.777 2.258zm-84.195-67.4h38.49v-9.63h-38.49v9.63zm-.002-19.26h38.49v-9.629h-38.49v9.63z" fill-opacity=".2" fill="#010202"/><path d="M149.011 193.502c-40.144 0-55.329-2.105-55.93-2.257-1.356-.149-2.405-1.05-3.308-2.258-.75-1.202-1.053-2.708-.75-4.062 2.555-11.281 9.622-20.76 19.994-27.082 2.556-1.502 5.715-2.708 9.02-4.062 5.865-2.254 12.481-4.963 13.683-8.875.902-3.159-1.505-7.971-3.91-11.434-11.126-17.148-13.078-33.25-5.713-45.435 5.563-9.326 15.636-14.895 26.914-14.895 11.125 0 21.198 5.569 26.911 14.895 7.215 12.185 5.262 28.287-5.865 45.587-2.252 3.31-4.81 8.123-3.757 11.282 1.201 3.912 7.817 6.62 13.682 8.875 3.307 1.354 6.464 2.56 9.02 4.062 10.224 6.322 17.59 15.801 19.995 27.082.304 1.354 0 2.86-.75 4.062-.752 1.207-2.105 2.11-3.458 2.258-.602.152-15.636 2.257-55.778 2.257zm-84.195-67.4h38.49v-9.63h-38.49v9.63zm-.002-19.26h38.49v-9.629h-38.49v9.63z" fill="#FEFEFE"/></g></g></svg>