<svg xmlns="http://www.w3.org/2000/svg" width="360" height="251" viewBox="0 0 360 251"><defs><filter id="a" width="200%" height="200%" x="-50%" y="-50%" filterUnits="objectBoundingBox"><feOffset in="SourceAlpha" result="shadowOffsetOuter1"/><feGaussianBlur stdDeviation="4" in="shadowOffsetOuter1" result="shadowBlurOuter1"/><feColorMatrix values="0 0 0 0 0 0 0 0 0 0 0 0 0 0 0 0 0 0 0.2 0" in="shadowBlurOuter1" result="shadowMatrixOuter1"/><feMerge><feMergeNode in="shadowMatrixOuter1"/><feMergeNode in="SourceGraphic"/></feMerge></filter><filter id="b" width="200%" height="200%" x="-50%" y="-50%" filterUnits="objectBoundingBox"><feOffset in="SourceAlpha" result="shadowOffsetOuter1"/><feGaussianBlur stdDeviation="4" in="shadowOffsetOuter1" result="shadowBlurOuter1"/><feColorMatrix values="0 0 0 0 0 0 0 0 0 0 0 0 0 0 0 0 0 0 0.2 0" in="shadowBlurOuter1" result="shadowMatrixOuter1"/><feMerge><feMergeNode in="shadowMatrixOuter1"/><feMergeNode in="SourceGraphic"/></feMerge></filter></defs><g fill="none" fill-rule="evenodd"><g opacity=".1"><path fill="#010202" d="M106.208 37.376l2.042-8.006c-.145-.332-.277-.615-.373-.96a5.729 5.729 0 0 1 4.009-7.062 5.743 5.743 0 0 1 7.076 4c.027.1.004.212.032.311l10.667 4.657c.504-.299.971-.534 1.565-.698a5.742 5.742 0 0 1 7.076 4 5.727 5.727 0 0 1-4.01 7.06 5.742 5.742 0 0 1-7.075-4c-.027-.098-.054-.197-.032-.309l-10.668-4.657c-.503.298-1.02.547-1.564.697-.248.069-.51.088-.755.156l-1.67 6.468-6.32-1.657zm-9.716 29.9c-.835-3.012.87-6.088 3.86-7.02l2.407-9.382 6.32 1.657-2.459 9.769a5.91 5.91 0 0 1 .957 1.916 5.727 5.727 0 0 1-4.01 7.06 5.743 5.743 0 0 1-7.075-4zm35.862-12.453l-32.927-8.664a5.528 5.528 0 0 1-2.431 1.415 5.744 5.744 0 0 1-7.076-4 5.728 5.728 0 0 1 4.01-7.061c2.77-.766 5.622.68 6.757 3.237l32.928 8.665a5.528 5.528 0 0 1 2.43-1.416 5.742 5.742 0 0 1 7.076 4 5.728 5.728 0 0 1-4.01 7.062c-2.77.764-5.622-.681-6.757-3.238z"/><path fill="#000" d="M252.371 203.538c.61.175 1.065.537 1.366 1.085.301.549.38 1.131.238 1.748l-8.953 38.78c-.15.65-.505 1.15-1.064 1.5-.56.35-1.165.449-1.814.299l-7.795-1.8a2.314 2.314 0 0 1-1.5-1.064 2.314 2.314 0 0 1-.299-1.814l8.953-38.78a2.307 2.307 0 0 1 .975-1.443 2.376 2.376 0 0 1 1.66-.412c1.232.148 2.627.401 4.186.761 1.527.353 2.876.733 4.047 1.14zm-19.668 6.954c.61.175 1.065.537 1.366 1.085.301.548.38 1.131.238 1.748l-6.434 27.867c-.15.65-.505 1.15-1.064 1.5-.56.349-1.165.449-1.814.299l-7.795-1.8a2.314 2.314 0 0 1-1.5-1.064 2.314 2.314 0 0 1-.299-1.814l6.434-27.867a2.307 2.307 0 0 1 .974-1.443 2.376 2.376 0 0 1 1.66-.412c1.232.148 2.628.401 4.187.761 1.526.353 2.875.733 4.047 1.14zm31.778 18.831c.61.175 1.065.537 1.366 1.085.301.549.38 1.131.238 1.748l-3.914 16.955c-.15.65-.505 1.149-1.064 1.498-.56.35-1.165.45-1.814.3l-7.795-1.8a2.314 2.314 0 0 1-1.5-1.064 2.314 2.314 0 0 1-.299-1.814l3.914-16.954a2.307 2.307 0 0 1 .975-1.443 2.376 2.376 0 0 1 1.66-.412c1.232.148 2.627.402 4.186.761 1.527.353 2.876.733 4.047 1.14z"/><path fill="#010202" d="M73.43 72.468a2.927 2.927 0 0 1 1.72-3.81l5.215-1.972a2.943 2.943 0 0 1 3.823 1.712 2.927 2.927 0 0 1-1.72 3.81l-5.216 1.973c-.734.278-1.59.23-2.265-.072a3.033 3.033 0 0 1-1.557-1.641zm-9.347 30.296l-1.98-5.197a2.926 2.926 0 0 1 1.72-3.81 2.942 2.942 0 0 1 3.822 1.712l1.98 5.199a2.926 2.926 0 0 1-1.719 3.809 3.05 3.05 0 0 1-2.266-.072 3.036 3.036 0 0 1-1.557-1.641zM37.45 56.344l-1.98-5.198a2.928 2.928 0 0 1 1.719-3.81 2.944 2.944 0 0 1 3.823 1.713l1.98 5.199a2.927 2.927 0 0 1-1.72 3.809c-.734.277-1.59.23-2.265-.072a3.034 3.034 0 0 1-1.557-1.642zm-1.279 35.932c.248-.698.425-1.09.425-1.09.758-3.027.4-5.68-.787-10.388-1.187-4.707-1.272-8.114.548-12.147 3.943-8.74 14.364-12.96 23.472-8.88 9.107 4.082 12.853 14.652 8.909 23.392-1.82 4.034-4.433 6.23-8.756 8.468-4.378 2.214-6.607 3.708-8.32 6.308 0 0-.234.367-.593 1.013l-14.898-6.676zm-2.664 9.65c.156-1.547.78-3.827 1.44-5.889l14.11 6.324c-1.109 1.86-2.408 3.838-3.407 5.006-2.637 2.995-4.82 4.239-8.474 2.601-3.654-1.637-4.224-4.116-3.67-8.043zm-12.6-18.51a2.927 2.927 0 0 1 1.72-3.811l5.216-1.972a2.942 2.942 0 0 1 3.822 1.712 2.928 2.928 0 0 1-1.72 3.81l-5.215 1.973a3.06 3.06 0 0 1-2.266-.072 3.038 3.038 0 0 1-1.556-1.64zm277.614 135.723c3.12 1.696 6.388 2.04 9.808 1.034 3.418-1.005 5.977-3.063 7.677-6.177 1.699-3.114 2.045-6.376 1.037-9.788a10.444 10.444 0 0 0-.768-1.917l-10.194 2.999-3.005-10.174c-.655.059-1.331.191-2.032.397-3.42 1.006-5.977 3.066-7.676 6.178-1.7 3.113-2.045 6.376-1.037 9.787 1.007 3.412 3.07 5.965 6.19 7.661m33.027-24.021c1.389 1.065 2.33 2.43 2.821 4.095.492 1.664.45 3.341-.126 5.029a39.678 39.678 0 0 1-1.146 3.051c-.46 1.096-1.38 2.874-2.756 5.334-1.378 2.46-2.869 4.686-4.474 6.677-1.606 1.991-3.728 3.977-6.366 5.96-2.636 1.981-5.439 3.408-8.404 4.28-2.965.873-6.097 1.18-9.397.923-3.3-.258-6.134-.764-8.507-1.519-2.371-.754-4.859-1.82-7.459-3.2-2.6-1.38-4.325-2.369-5.174-2.967-.848-.6-1.757-1.248-2.724-1.947-1.36-1.118-2.286-2.51-2.777-4.175a8.052 8.052 0 0 1 .082-4.95c.363-1.044.76-2.087 1.19-3.13.43-1.042 1.346-2.83 2.747-5.365 1.4-2.533 2.892-4.793 4.477-6.778 1.585-1.984 3.694-3.978 6.325-5.98 2.632-2.004 5.43-3.441 8.396-4.314 2.966-.872 6.088-1.176 9.367-.912 3.278.265 6.146.805 8.604 1.624 2.458.817 4.924 1.89 7.397 3.218 2.474 1.327 4.23 2.352 5.273 3.072 1.04.722 1.918 1.38 2.63 1.974"/></g><g filter="url(#a)" transform="matrix(-1 0 0 1 352.23 8)"><path fill="#87CAEE" d="M165.588 47.607C162.976 20.88 140.648 0 113.486 0 86.732 0 64.666 20.26 61.514 46.41a43.973 43.973 0 0 0-16.857-3.337C20.314 43.072.58 62.783.58 87.1c0 22.838 17.41 41.614 39.695 43.81l68.795.217h70.079c21.214 0 38.412-19.316 38.412-43.144s-17.198-43.145-38.412-43.145c-4.775 0-9.344.98-13.56 2.769z"/><path fill="#1396DC" fill-opacity=".1" d="M165.588 47.607C162.976 20.88 140.648 0 113.486 0 86.732 0 64.666 20.26 61.514 46.41a43.973 43.973 0 0 0-16.857-3.337C20.314 43.072.58 62.783.58 87.1c0 22.253 16.53 40.647 37.995 43.607-18.373-4.336-32.045-20.82-32.045-40.495 0-22.983 18.65-41.614 41.659-41.614a41.562 41.562 0 0 1 15.933 3.154C67.1 27.035 87.956 7.888 113.245 7.888c25.673 0 46.775 19.735 49.244 44.996a32.707 32.707 0 0 1 12.817-2.616c20.05 0 36.306 18.257 36.306 40.778 0 19.578-12.285 35.93-28.667 39.871 19.432-2.141 34.616-20.546 34.616-42.934 0-23.828-17.198-43.145-38.412-43.145-4.775 0-9.344.98-13.56 2.769z"/><path fill="#FFF" fill-opacity=".2" d="M69.208 107.8c1.292 1.291 2.864 1.937 4.716 1.937 1.85 0 3.423-.646 4.716-1.938 1.292-1.29 1.94-2.861 1.94-4.71 0-1.85-.648-3.42-1.94-4.711-1.293-1.291-2.866-1.938-4.716-1.938-1.852 0-3.424.647-4.716 1.938-1.294 1.291-1.94 2.862-1.94 4.71 0 1.85.646 3.42 1.94 4.711m24.234-6.587a17.263 17.263 0 0 1 0 3.753 1.95 1.95 0 0 1-.572 1.182 1.92 1.92 0 0 1-1.143.571l-3.349.408c-.49.11-.897.36-1.224.755a2.08 2.08 0 0 0-.49 1.366c0 .463.122.857.367 1.183 0 .027.68.925 2.042 2.692.271.354.408.755.408 1.203 0 .449-.15.85-.45 1.203a17.43 17.43 0 0 1-2.653 2.652c-.327.3-.735.448-1.226.448-.489 0-.884-.136-1.183-.407l-2.654-2.04c-.327-.245-.736-.367-1.226-.367-.517 0-.973.17-1.368.51a2.27 2.27 0 0 0-.755 1.285l-.408 3.263a1.916 1.916 0 0 1-.572 1.142 1.95 1.95 0 0 1-1.184.57 29.81 29.81 0 0 1-1.878.082c-.436 0-1.062-.026-1.879-.081a1.948 1.948 0 0 1-1.184-.571 1.913 1.913 0 0 1-.571-1.142 417.987 417.987 0 0 1-.409-3.263 2.039 2.039 0 0 0-.735-1.285c-.408-.34-.87-.51-1.388-.51-.463 0-.899.136-1.307.408l-2.572 1.999c-.3.271-.694.407-1.184.407-.436 0-.844-.149-1.225-.448a17.377 17.377 0 0 1-2.655-2.652 1.807 1.807 0 0 1-.448-1.203c0-.448.135-.85.408-1.203l1.96-2.57c.3-.38.449-.815.449-1.305 0-.543-.178-1.019-.53-1.427a1.985 1.985 0 0 0-1.348-.694l-3.186-.408a1.916 1.916 0 0 1-1.143-.57 1.944 1.944 0 0 1-.571-1.183 17.342 17.342 0 0 1 0-3.753c.027-.435.204-.822.53-1.162.327-.34.721-.537 1.184-.592l3.186-.407a2.152 2.152 0 0 0 1.347-.735c.353-.408.53-.883.53-1.427a2 2 0 0 0-.448-1.265l-1.96-2.57a1.718 1.718 0 0 1-.429-1.203c.013-.448.17-.849.47-1.203a17.43 17.43 0 0 1 2.654-2.65 1.815 1.815 0 0 1 1.205-.45c.448 0 .85.137 1.204.408l2.572 1.999c.408.272.844.408 1.307.408.517 0 .98-.17 1.388-.51.408-.34.654-.768.735-1.285l.409-3.263c.054-.434.245-.816.571-1.142.327-.326.721-.516 1.184-.57a17.32 17.32 0 0 1 3.757 0c.463.054.857.244 1.184.57.327.326.517.708.572 1.142l.408 3.263c.109.517.36.945.755 1.285.395.34.851.51 1.368.51.381 0 .79-.123 1.226-.368 1.17-.896 2.055-1.576 2.654-2.039a1.928 1.928 0 0 1 1.204-.408c.45 0 .85.15 1.205.45.98.788 1.864 1.671 2.654 2.65.299.354.45.755.45 1.203 0 .45-.138.85-.41 1.204-1.36 1.768-2.04 2.665-2.04 2.692a1.85 1.85 0 0 0-.368 1.142c0 .516.163.972.49 1.366.327.394.734.66 1.224.796 1.497.19 2.614.326 3.349.407.435.055.817.245 1.143.572.327.326.517.72.572 1.182m60.274-24.02c1.782.016 3.246.573 4.392 1.67 1.146 1.096 1.718 2.574 1.718 4.434h-3.246a2.762 2.762 0 0 1-2.028-.834 2.755 2.755 0 0 1-.836-2.027v-3.242zm9.19-3.003c2.53 2.574 3.795 5.61 3.795 9.107h-3.676c0-1.16-.235-2.328-.704-3.505-.47-1.175-1.11-2.185-1.921-3.028-1.879-1.923-4.105-2.86-6.684-2.813v-3.624c3.596 0 6.66 1.288 9.19 3.863zm4.94-4.84c1.782 1.812 3.178 3.93 4.19 6.354a19.858 19.858 0 0 1 1.539 7.593h-3.748c0-4.418-1.56-8.21-4.678-11.372a16.705 16.705 0 0 0-3.198-2.551c-1.146-.7-2.248-1.2-3.306-1.503-1.058-.301-1.97-.508-2.733-.62a15.276 15.276 0 0 0-2.196-.166V63.46c.717 0 1.428.036 2.136.107.708.072 1.588.227 2.638.465 1.05.239 2.06.56 3.031.966.97.405 2.02.981 3.151 1.728a19.784 19.784 0 0 1 3.174 2.622zm-38.072 38.7c2.232 2.23 4.927 3.345 8.085 3.345 3.157 0 5.852-1.115 8.085-3.345 2.232-2.23 3.348-4.921 3.348-8.076 0-3.153-1.116-5.845-3.348-8.075-2.233-2.23-4.928-3.345-8.085-3.345-3.158 0-5.853 1.115-8.085 3.345-2.233 2.23-3.349 4.922-3.349 8.075 0 3.155 1.116 5.847 3.349 8.076m-3.47-19.619c3.184-3.181 7.036-4.772 11.555-4.772 4.518 0 8.37 1.59 11.556 4.772 3.185 3.182 4.777 7.03 4.777 11.543 0 4.514-1.592 8.362-4.777 11.543-3.185 3.181-7.038 4.772-11.556 4.772-2.396 0-4.655-.49-6.778-1.468l-9.841 7.22c-.872.652-1.838.896-2.9.733-1.06-.162-1.918-.679-2.572-1.55a3.881 3.881 0 0 1-.775-2.345c0-.856.258-1.637.775-2.345l7.227-9.79c-.98-2.12-1.47-4.376-1.47-6.77 0-4.513 1.594-8.361 4.779-11.543m2.168-54.016c.319-.98.589-2.244.81-3.789.221-1.545.362-2.752.424-3.623.06-.87.091-1.416.091-1.637 0-.318.117-.594.35-.827.233-.233.51-.35.83-.35h4.27c.32 0 .595.117.83.35.232.233.349.509.349.827 0 .197.03.736.092 1.619.061.883.202 2.096.424 3.641.22 1.545.49 2.808.81 3.789.147.343.097.686-.147 1.03-.222.343-.54.514-.958.514h-7.07c-.418 0-.737-.17-.958-.514-.22-.295-.27-.638-.147-1.03zm-.957 15.963c-.492.59-1.105.883-1.842.883-.515 0-1.006-.172-1.472-.515a2.198 2.198 0 0 1-.884-1.563 2.267 2.267 0 0 1 .515-1.747l5.082-5.885c.466-.564 1.043-.858 1.731-.884.711-.048 1.3.184 1.767.7l2.872 2.832 3.535-4.304c.417-.49.945-.772 1.584-.846a2.323 2.323 0 0 1 1.73.479c.491.417.773.95.847 1.6.074.65-.086 1.22-.478 1.71l-5.193 6.364a2.32 2.32 0 0 1-1.693.882c-.688.049-1.289-.184-1.804-.699l-2.873-2.832-3.424 3.825zm21.062-21.885c.295.024.54.154.737.386.196.233.294.496.294.79v27.367c0 .294-.091.551-.275.772-.185.22-.425.344-.719.368-.294.074-1.141.202-2.54.386-1.4.184-3.382.386-5.947.607-2.566.22-4.904.33-7.015.33-2.112 0-4.45-.11-7.015-.33-2.566-.22-4.548-.423-5.947-.607s-2.246-.312-2.54-.386a1.238 1.238 0 0 1-.7-.386 1.055 1.055 0 0 1-.295-.754V29.669c0-.295.098-.558.295-.791.196-.232.442-.362.736-.386 2.725-.318 5.892-.564 9.5-.736-.123 1.717-.33 3.213-.625 4.487-2.26.099-3.99.221-5.193.368v21.555c5.426.564 9.353.846 11.784.846 4.247 0 8.175-.282 11.783-.846V32.61c-1.228-.147-2.958-.269-5.192-.368a25.395 25.395 0 0 1-.59-4.487c3.585.172 6.74.418 9.464.736zm-38.021 72.064a8.716 8.716 0 0 0 3.193-2.59c.849-1.11 1.389-2.388 1.62-3.836h-3.355c-.186 2.573-.671 4.715-1.458 6.426zm4.79-9.386c-.231-1.448-.767-2.707-1.608-3.779a8.66 8.66 0 0 0-3.182-2.508c.802 1.757 1.28 3.853 1.435 6.287h3.356zm-5.832 0a19.538 19.538 0 0 0-.359-2.739c-.177-.854-.37-1.556-.578-2.103a9.113 9.113 0 0 0-.67-1.421c-.24-.4-.449-.69-.625-.867-.178-.177-.32-.266-.429-.266-.108 0-.25.089-.428.266-.178.177-.386.466-.624.867-.24.4-.463.874-.672 1.421-.208.547-.4 1.249-.578 2.103a19.538 19.538 0 0 0-.359 2.74h5.322zm-3.494 9.374c.37.563.648.844.833.844.186 0 .463-.281.833-.844.37-.562.749-1.433 1.135-2.612a15.62 15.62 0 0 0 .716-3.802h-5.368c.092 1.356.332 2.623.717 3.802.386 1.179.764 2.05 1.134 2.612zm-7.66-9.374h3.356c.154-2.434.632-4.53 1.434-6.287a8.656 8.656 0 0 0-3.182 2.508c-.84 1.072-1.376 2.331-1.608 3.78zm4.79 9.386c-.786-1.71-1.272-3.853-1.457-6.426h-3.356c.231 1.448.772 2.727 1.62 3.837a8.71 8.71 0 0 0 3.193 2.589zm9.268 1.699c-1.704.994-3.56 1.49-5.565 1.49-2.006 0-3.861-.496-5.565-1.49a11.07 11.07 0 0 1-4.05-4.046c-.995-1.702-1.493-3.555-1.493-5.559 0-2.003.498-3.856 1.493-5.56a11.075 11.075 0 0 1 4.05-4.044c1.704-.994 3.56-1.491 5.565-1.491 2.006 0 3.86.497 5.565 1.49a11.082 11.082 0 0 1 4.05 4.046c.995 1.703 1.493 3.556 1.493 5.56 0 2.003-.498 3.856-1.492 5.558a11.077 11.077 0 0 1-4.05 4.046zm-82.12-17.403c.439.438.976.657 1.613.657.636 0 1.173-.219 1.612-.657.439-.438.658-.974.658-1.61a2.19 2.19 0 0 0-.658-1.61 2.194 2.194 0 0 0-1.612-.658c-.637 0-1.174.22-1.613.657a2.19 2.19 0 0 0-.657 1.61c0 .637.219 1.173.657 1.611m6.385-4.264l1.729-1.7c-1.772-1.805-3.939-2.707-6.501-2.707-2.563 0-4.73.902-6.5 2.706l1.727 1.701c1.307-1.34 2.898-2.01 4.773-2.01 1.874 0 3.465.67 4.772 2.01m3.508-3.53l1.703-1.675a13.908 13.908 0 0 0-4.514-3.092 13.725 13.725 0 0 0-5.47-1.108c-1.926 0-3.749.37-5.468 1.108a13.898 13.898 0 0 0-4.514 3.092l1.702 1.675c2.287-2.32 5.047-3.479 8.28-3.479 1.583 0 3.088.305 4.515.915a11.684 11.684 0 0 1 3.766 2.564m3.69-3.865v12.522c0 .344-.122.636-.362.876-.24.241-.533.361-.877.361H21.18c-.345 0-.637-.12-.877-.36a1.19 1.19 0 0 1-.362-.877V73.193c0-.361.138-.661.413-.902l10.731-10.075c.24-.223.52-.336.838-.336.319 0 .59.113.813.336L43.467 72.29c.275.24.413.54.413.902m64.08-48.896c.274.034.506.167.695.399.19.232.284.511.284.838v12.265c0 .344-.107.635-.322.876-.215.24-.469.36-.76.36h-3.613c-.292 0-.546-.12-.76-.36a1.268 1.268 0 0 1-.323-.876V25.534c0-.327.094-.61.284-.85.19-.241.421-.37.696-.387.55-.069 1.187-.103 1.91-.103.704 0 1.34.034 1.908.103zm-8.255 4.123c.274.034.507.167.696.399.189.232.284.511.284.838v8.142c0 .344-.108.635-.323.876-.215.24-.468.36-.76.36H95.99c-.293 0-.546-.12-.761-.36a1.265 1.265 0 0 1-.322-.876v-8.142c0-.327.094-.61.283-.85.19-.241.422-.37.697-.387.55-.07 1.186-.104 1.909-.104.705 0 1.34.035 1.909.104zm-8.255 2.473c.275.035.507.168.696.4.19.232.284.511.284.837v5.669c0 .344-.108.635-.323.876-.215.24-.468.36-.76.36h-3.612c-.293 0-.546-.12-.76-.36a1.265 1.265 0 0 1-.323-.876v-5.67c0-.325.094-.609.283-.85.19-.24.421-.368.697-.386.55-.068 1.187-.103 1.91-.103.704 0 1.34.035 1.908.103zm7.764-5.875a1.586 1.586 0 0 1-1.147.323 1.658 1.658 0 0 1-1.071-.529l-2.967-3.247-2.476 2.526c.034.206.052.378.052.515 0 .79-.284 1.469-.852 2.036a2.783 2.783 0 0 1-2.038.85c-.79 0-1.47-.284-2.037-.85-.568-.567-.852-1.246-.852-2.036s.284-1.468.852-2.035a2.78 2.78 0 0 1 2.037-.85c.087 0 .25.016.49.05l3.689-3.684c.362-.327.765-.49 1.213-.49.481.035.877.215 1.187.541l3.12 3.35 5.573-4.2v-.103c0-.79.283-1.469.851-2.036a2.782 2.782 0 0 1 2.038-.85c.79 0 1.47.284 2.038.85.567.567.851 1.246.851 2.036s-.284 1.469-.851 2.036a2.782 2.782 0 0 1-2.038.85 2.35 2.35 0 0 1-.877-.155l-6.785 5.102zm-54.701 87.059h3.302V94.76h-3.302v17.316zm-1.651-6.931a8.627 8.627 0 0 0-2.476-2.99v-7.395h2.476v10.385zm-4.127-3.943a8.2 8.2 0 0 0-3.302-.696c-.172 0-.448.018-.826.052V94.76h4.128v6.442zm-5.779-6.442v6.133c-.55.172-1.1.421-1.65.747v-6.88h1.65zm-.477 16.968c.834.833 1.819 1.25 2.954 1.25 1.135 0 2.119-.417 2.953-1.25.835-.833 1.251-1.825 1.251-2.976 0-1.134-.416-2.117-1.25-2.95-.835-.833-1.82-1.25-2.954-1.25-1.135 0-2.12.417-2.954 1.25-.834.833-1.25 1.816-1.25 2.95 0 1.151.416 2.143 1.25 2.976zm-2.825-8.851a8.202 8.202 0 0 0-1.65 2.32V94.76h1.65v8.117zm-1.315 14.739c-.19.12-.439.15-.748.09a1.405 1.405 0 0 1-.748-.374 1.454 1.454 0 0 1-.361-.76c-.052-.3-.018-.553.103-.76.756-1.185 1.78-2.474 3.07-3.865a6.55 6.55 0 0 1-.826-3.169c0-1.82.645-3.375 1.935-4.664 1.29-1.289 2.846-1.933 4.669-1.933 1.822 0 3.374.644 4.656 1.933 1.28 1.289 1.922 2.843 1.922 4.664 0 1.82-.641 3.375-1.922 4.663-1.282 1.289-2.834 1.933-4.656 1.933a6.613 6.613 0 0 1-3.199-.825c-1.565 1.375-2.863 2.397-3.895 3.067zm-5.288-5.54h3.302V94.76H23.05v17.316zm38.383-45.751h4.443v-3.699c0-1.48-.74-2.219-2.222-2.219-1.481 0-2.221.74-2.221 2.219v3.699zM71.8 67.92v7.998c0 .354-.12.666-.359.935-.24.27-.528.444-.868.52a30.431 30.431 0 0 1-6.92.787 30.74 30.74 0 0 1-6.988-.786 1.446 1.446 0 0 1-.833-.52 1.451 1.451 0 0 1-.323-.936V67.99c0-.432.138-.816.416-1.156.277-.338.617-.508 1.018-.508h.787v-3.699c0-1.772.544-3.202 1.632-4.288 1.087-1.087 2.517-1.63 4.292-1.63 1.774 0 3.205.543 4.293 1.63 1.087 1.086 1.631 2.516 1.631 4.288v3.699h.718c.401 0 .752.162 1.053.485.3.324.45.693.45 1.11zm131.36 5.79c0 .921-.31 1.712-.927 2.375a3.507 3.507 0 0 1-2.28 1.133l-2.766 5.937c.442.626.663 1.308.663 2.044 0 .976-.345 1.81-1.036 2.5a3.411 3.411 0 0 1-2.502 1.035c-.978 0-1.811-.345-2.503-1.035a3.403 3.403 0 0 1-1.036-2.5v-.055l-3.594-2.154a3.68 3.68 0 0 1-1.383.414l-2.765 5.938c.443.626.663 1.307.663 2.043 0 .976-.345 1.81-1.036 2.5a3.413 3.413 0 0 1-2.502 1.035 3.411 3.411 0 0 1-2.503-1.035 3.403 3.403 0 0 1-1.036-2.5c0-.92.308-1.712.926-2.375a3.508 3.508 0 0 1 2.28-1.132l2.738-5.938a3.562 3.562 0 0 1-.635-2.044c0-.975.345-1.809 1.036-2.499a3.414 3.414 0 0 1 2.502-1.036c.977 0 1.811.346 2.502 1.036a3.404 3.404 0 0 1 1.037 2.5v.055l3.594 2.154c.406-.221.867-.36 1.383-.415l2.737-5.937a3.566 3.566 0 0 1-.636-2.044c0-.976.346-1.809 1.037-2.499a3.412 3.412 0 0 1 2.502-1.036c.977 0 1.811.346 2.502 1.036a3.403 3.403 0 0 1 1.037 2.5m-70.437-.386l5.435-4.161v7.638a.494.494 0 0 1-.137.351.59.59 0 0 1-.343.18 50.769 50.769 0 0 1-14.42 0 .58.58 0 0 1-.325-.18.494.494 0 0 1-.137-.351v-7.638l5.435 4.161c.605.457 1.354.685 2.246.685.891 0 1.64-.228 2.246-.685zm-9.327-5.891c-.32-.309-.52-.61-.6-.908v-.788c0-.136.045-.254.137-.35a.581.581 0 0 1 .325-.18 50.624 50.624 0 0 1 7.219-.514c2.434 0 4.835.171 7.201.513a.59.59 0 0 1 .343.18.491.491 0 0 1 .137.351v.788c-.08.298-.28.6-.6.908l-5.847 4.418c-.32.252-.731.377-1.234.377s-.915-.125-1.235-.377l-5.846-4.418zM93.464 53.037c.53.517 1.143.775 1.841.775s1.312-.258 1.84-.775c.53-.517.796-1.124.796-1.821 0-.697-.266-1.316-.795-1.857-.53-.54-1.143-.811-1.84-.811-.7 0-1.313.27-1.842.811-.53.54-.794 1.16-.794 1.857 0 .697.265 1.304.794 1.82m-.685 17.758h5.053c.337 0 .614-.108.83-.325.217-.215.325-.492.325-.829v-1.153c0-.337-.108-.613-.325-.83-.216-.216-.493-.324-.83-.324l.036-9.23a1.11 1.11 0 0 0-.343-.812c-.23-.227-.5-.342-.812-.342h-3.934c-.338 0-.614.108-.83.324a1.125 1.125 0 0 0-.326.83v1.154c0 .336.109.612.325.829.217.216.493.324.83.324v6.923c-.337 0-.613.108-.83.325-.216.216-.325.492-.325.829v1.153c0 .337.109.614.325.83.217.216.493.324.83.324m-6.154-25.365c2.659-1.55 5.553-2.325 8.681-2.325 3.128 0 6.022.775 8.682 2.325a17.283 17.283 0 0 1 6.316 6.31c1.552 2.656 2.328 5.547 2.328 8.671 0 3.125-.776 6.016-2.328 8.672a17.278 17.278 0 0 1-6.316 6.31c-2.66 1.55-5.554 2.325-8.682 2.325s-6.022-.775-8.68-2.326a17.273 17.273 0 0 1-6.318-6.31c-1.552-2.655-2.328-5.546-2.328-8.67 0-3.125.776-6.016 2.328-8.672a17.278 17.278 0 0 1 6.317-6.31m98.23 69.508c.056.185.019.379-.11.582-.13.203-.296.315-.5.333l-.194.027c-.13.02-.33.042-.597.07-.269.028-.598.055-.986.083-.389.028-.921.051-1.597.07-.676.018-1.411.037-2.208.055a5.441 5.441 0 0 0-.555-.374c-.204-.12-.421-.25-.652-.389a13.679 13.679 0 0 1-.514-.319 8.028 8.028 0 0 1-.861-.5c1.944-2.569 2.333-5.12 1.167-7.654-.463-.999-1.111-1.776-1.944-2.33a6.346 6.346 0 0 0-2.722-1.027c0-.647.149-1.312.445-1.997.35-.776.888-1.35 1.61-1.72a4.876 4.876 0 0 1 2.25-.554c.777 0 1.527.185 2.248.554.722.37 1.26.944 1.61 1.72.89 1.941.454 3.93-1.304 5.964-.537.629-.5 1.285.112 1.969.184.222.725.592 1.624 1.11.897.517 1.531.906 1.902 1.165.203.148.384.282.541.402.158.12.292.26.403.416.11.158.199.277.263.36.065.084.13.227.195.43.064.204.106.343.125.416.018.074.06.255.125.541.064.287.107.486.125.597zm-11.106 7.419a159.876 159.876 0 0 1-4.401 0 68.288 68.288 0 0 1-1.764-.041 39.568 39.568 0 0 1-1.305-.07c-.389-.027-.708-.05-.958-.07-.25-.017-.458-.036-.624-.054a3.823 3.823 0 0 0-.362-.028l-.139-.028c-.204-.018-.37-.129-.5-.333a.645.645 0 0 1-.11-.582 9.26 9.26 0 0 0 .139-.597l.11-.54c.019-.093.06-.237.126-.43a1.44 1.44 0 0 1 .194-.417c.065-.083.153-.198.264-.346.11-.148.24-.287.388-.416.148-.13.334-.268.556-.416.389-.278 1.027-.675 1.915-1.193.889-.518 1.426-.878 1.61-1.082.612-.684.65-1.34.112-1.969-1.759-2.034-2.193-4.022-1.305-5.964.352-.776.89-1.35 1.61-1.72a4.884 4.884 0 0 1 2.25-.554c.777 0 1.527.185 2.25.554.721.37 1.258.944 1.61 1.72.888 1.942.453 3.93-1.306 5.964-.536.629-.5 1.285.112 1.969.185.222.726.592 1.624 1.11.898.517 1.532.906 1.902 1.165.463.333.805.642 1.028.93.222.286.374.6.458.942.083.343.18.772.291 1.29a.666.666 0 0 1-.111.582c-.13.204-.296.315-.5.333l-.138.028c-.074 0-.195.01-.361.028-.167.018-.375.037-.625.055l-.972.07c-.398.027-.838.05-1.32.069-.48.018-1.064.032-1.748.041zm-7.58-7.28c-.112.073-.284.18-.515.318-.232.139-.448.269-.653.389a5.43 5.43 0 0 0-.555.374c-.574 0-1.12-.009-1.638-.028a86.816 86.816 0 0 1-2.333-.11 23.305 23.305 0 0 1-.735-.056 9.852 9.852 0 0 1-.486-.055 2.38 2.38 0 0 0-.306-.029l-.083-.027c-.204-.018-.37-.13-.5-.333a.643.643 0 0 1-.11-.582 9.26 9.26 0 0 0 .138-.597l.111-.54c.018-.093.06-.237.125-.43.064-.195.13-.333.194-.417.065-.083.153-.198.264-.346.112-.148.24-.286.389-.416.148-.13.333-.268.555-.416.39-.278 1.027-.675 1.917-1.193.888-.518 1.425-.878 1.61-1.082.61-.684.648-1.34.11-1.969-1.758-2.034-2.193-4.023-1.304-5.964.351-.776.889-1.35 1.61-1.72a4.874 4.874 0 0 1 2.25-.554c.777 0 1.527.185 2.249.554.722.37 1.259.944 1.61 1.72.296.685.445 1.35.445 1.997-2.222.315-3.787 1.434-4.693 3.357-1.148 2.533-.75 5.085 1.193 7.655a2.727 2.727 0 0 1-.25.166c-.092.056-.198.116-.318.18-.12.066-.209.116-.264.153h-.028z"/></g><g filter="url(#b)" transform="translate(8 34.989)"><path fill="#D2ECF3" d="M233.43 67.732C229.736 29.922 198.15.385 159.725.385c-37.85 0-69.065 28.66-73.523 65.653a62.194 62.194 0 0 0-23.847-4.72C27.917 61.317 0 89.202 0 123.6c0 32.31 24.628 58.87 56.155 61.978l97.322.306h99.136c30.012 0 54.341-27.326 54.341-61.034 0-33.709-24.33-61.035-54.34-61.035a48.96 48.96 0 0 0-19.183 3.916z"/><path fill="#1396DC" fill-opacity=".1" d="M233.43 67.732C229.736 29.922 198.15.385 159.725.385c-37.85 0-69.065 28.66-73.523 65.653a62.194 62.194 0 0 0-23.847-4.72C27.917 61.317 0 89.202 0 123.6c0 31.482 23.385 57.503 53.749 61.69-25.99-6.134-45.333-29.452-45.333-57.287 0-32.513 26.386-58.869 58.934-58.869a58.796 58.796 0 0 1 22.54 4.461c4.214-34.965 33.717-62.052 69.491-62.052 36.319 0 66.173 27.918 69.665 63.654a46.279 46.279 0 0 1 18.131-3.701c28.366 0 51.361 25.827 51.361 57.687 0 27.696-17.378 50.83-40.554 56.405 27.49-3.03 48.97-29.066 48.97-60.738 0-33.709-24.33-61.035-54.34-61.035a48.96 48.96 0 0 0-19.183 3.916z"/><path fill="#13A1DC" fill-opacity=".2" d="M97.084 152.885c1.829 1.828 4.053 2.74 6.672 2.74 2.618 0 4.843-.912 6.672-2.74 1.828-1.827 2.744-4.048 2.744-6.664 0-2.616-.916-4.838-2.744-6.665-1.83-1.826-4.054-2.74-6.672-2.74-2.619 0-4.843.914-6.672 2.74-1.83 1.827-2.744 4.05-2.744 6.665 0 2.616.915 4.837 2.744 6.664m34.284-9.319c.192 1.731.192 3.5 0 5.309a2.76 2.76 0 0 1-.81 1.673 2.714 2.714 0 0 1-1.617.807l-4.736.578a3.061 3.061 0 0 0-1.733 1.067 2.94 2.94 0 0 0-.693 1.933c0 .655.173 1.212.52 1.673 0 .04.962 1.309 2.888 3.809.384.5.578 1.067.578 1.702 0 .634-.212 1.202-.636 1.702a24.712 24.712 0 0 1-3.755 3.75c-.462.424-1.04.635-1.733.635-.693 0-1.251-.192-1.675-.577l-3.754-2.885c-.463-.346-1.04-.52-1.733-.52a2.88 2.88 0 0 0-1.936.722 3.207 3.207 0 0 0-1.068 1.817l-.578 4.617a2.71 2.71 0 0 1-.808 1.615 2.761 2.761 0 0 1-1.676.808 42.903 42.903 0 0 1-2.657.116c-.616 0-1.502-.039-2.657-.116a2.761 2.761 0 0 1-1.675-.808c-.462-.462-.732-1-.808-1.615a543.91 543.91 0 0 1-.578-4.617 2.884 2.884 0 0 0-1.04-1.817 2.99 2.99 0 0 0-1.964-.721 3.28 3.28 0 0 0-1.849.577l-3.639 2.827c-.424.385-.982.577-1.675.577-.616 0-1.194-.211-1.733-.635a24.65 24.65 0 0 1-3.754-3.75 2.559 2.559 0 0 1-.636-1.702c0-.635.192-1.202.578-1.702l2.772-3.636a2.904 2.904 0 0 0 .636-1.846 2.99 2.99 0 0 0-.751-2.02 2.806 2.806 0 0 0-1.906-.98l-4.506-.578c-.617-.076-1.155-.346-1.618-.807a2.756 2.756 0 0 1-.808-1.673 24.497 24.497 0 0 1 0-5.309c.037-.615.289-1.163.75-1.644.462-.481 1.02-.76 1.676-.837l4.506-.577a3.045 3.045 0 0 0 1.906-1.038c.5-.577.75-1.25.75-2.02 0-.654-.211-1.25-.635-1.788l-2.772-3.636a2.434 2.434 0 0 1-.607-1.702c.02-.635.24-1.202.665-1.702a24.712 24.712 0 0 1 3.754-3.75 2.568 2.568 0 0 1 1.704-.635c.635 0 1.203.193 1.704.576l3.64 2.828a3.269 3.269 0 0 0 1.848.577c.73 0 1.386-.24 1.964-.721a2.877 2.877 0 0 0 1.04-1.818l.578-4.616a2.709 2.709 0 0 1 .808-1.615 2.766 2.766 0 0 1 1.675-.809 24.66 24.66 0 0 1 5.314 0 2.766 2.766 0 0 1 1.676.809c.462.461.73 1 .808 1.615l.578 4.616c.153.731.51 1.338 1.069 1.818a2.874 2.874 0 0 0 1.935.72c.538 0 1.116-.172 1.733-.518 1.655-1.27 2.907-2.23 3.754-2.886a2.73 2.73 0 0 1 1.704-.576c.636 0 1.204.211 1.704.634a24.773 24.773 0 0 1 3.755 3.751c.424.5.636 1.067.636 1.702s-.194 1.203-.578 1.702c-1.926 2.5-2.888 3.77-2.888 3.808a2.621 2.621 0 0 0-.52 1.616c0 .731.23 1.376.693 1.933a3.37 3.37 0 0 0 1.733 1.125c2.118.27 3.697.462 4.736.577a2.715 2.715 0 0 1 1.618.808 2.76 2.76 0 0 1 .81 1.673m85.267-33.98c2.52.023 4.592.81 6.213 2.362 1.62 1.55 2.43 3.642 2.43 6.273h-4.591c-1.126 0-2.083-.394-2.87-1.18-.789-.788-1.182-1.743-1.182-2.868v-4.587zm13-4.25c3.579 3.643 5.368 7.938 5.368 12.885h-5.2c0-1.641-.332-3.294-.996-4.959-.664-1.663-1.57-3.09-2.718-4.283-2.656-2.72-5.807-4.047-9.454-3.98v-5.126c5.087 0 9.42 1.821 13 5.464zm6.989-6.846c2.52 2.563 4.496 5.56 5.925 8.989a28.098 28.098 0 0 1 2.178 10.742h-5.301c0-6.25-2.206-11.614-6.618-16.089a23.614 23.614 0 0 0-4.524-3.608c-1.621-.99-3.18-1.698-4.677-2.125-1.497-.427-2.785-.72-3.866-.877a21.635 21.635 0 0 0-3.106-.236v-5.127c1.013 0 2.02.05 3.022.152 1 .101 2.245.32 3.731.657 1.485.338 2.915.793 4.288 1.367 1.373.573 2.858 1.388 4.457 2.445a27.913 27.913 0 0 1 4.49 3.71zm-53.86 54.748c3.157 3.155 6.97 4.732 11.438 4.732 4.466 0 8.279-1.577 11.437-4.732 3.157-3.153 4.737-6.962 4.737-11.424s-1.58-8.27-4.737-11.425c-3.158-3.153-6.97-4.731-11.437-4.731-4.468 0-8.28 1.578-11.438 4.73-3.158 3.156-4.737 6.964-4.737 11.426s1.58 8.271 4.737 11.424m-4.91-27.754c4.506-4.5 9.955-6.75 16.348-6.75 6.392 0 11.841 2.25 16.347 6.75 4.505 4.501 6.759 9.945 6.759 16.33 0 6.386-2.254 11.828-6.759 16.329-4.506 4.5-9.955 6.75-16.347 6.75-3.39 0-6.586-.692-9.59-2.076l-13.92 10.213c-1.233.922-2.6 1.269-4.102 1.039-1.502-.231-2.715-.962-3.64-2.193-.731-1-1.096-2.107-1.096-3.318 0-1.212.365-2.317 1.097-3.318l10.224-13.848c-1.386-3-2.079-6.193-2.079-9.578 0-6.385 2.253-11.829 6.759-16.33m3.067-76.415c.451-1.387.834-3.174 1.146-5.36.313-2.185.513-3.893.6-5.124.086-1.232.13-2.004.13-2.316 0-.45.165-.84.494-1.171.33-.329.72-.494 1.173-.494h6.042c.451 0 .842.165 1.173.494.33.33.494.72.494 1.17 0 .28.043 1.042.13 2.29.087 1.25.287 2.966.6 5.152.312 2.185.694 3.972 1.146 5.36.208.485.138.971-.209 1.456-.312.487-.764.729-1.354.729h-10.002c-.59 0-1.042-.242-1.354-.729-.313-.416-.383-.901-.209-1.457zm-1.354 22.583c-.695.833-1.563 1.25-2.604 1.25-.73 0-1.425-.244-2.084-.73-.73-.554-1.146-1.292-1.25-2.21-.105-.92.138-1.744.729-2.472l7.189-8.326c.659-.797 1.475-1.214 2.448-1.25 1.007-.068 1.84.261 2.5.99l4.063 4.006 5.001-6.087a3.343 3.343 0 0 1 2.24-1.197 3.286 3.286 0 0 1 2.448.676 3.364 3.364 0 0 1 1.199 2.264c.104.92-.122 1.726-.678 2.42l-7.344 9c-.626.764-1.425 1.18-2.397 1.25-.972.07-1.823-.26-2.552-.989l-4.063-4.006-4.845 5.411zm29.797-30.96c.417.035.763.217 1.041.546.278.33.417.703.417 1.119V81.07c0 .417-.13.78-.39 1.093-.261.312-.6.486-1.016.52-.417.104-1.615.287-3.595.547-1.979.26-4.784.546-8.412.858-3.63.313-6.937.468-9.924.468-2.987 0-6.295-.155-9.923-.468-3.63-.312-6.433-.599-8.413-.858-1.98-.26-3.178-.443-3.595-.546a1.767 1.767 0 0 1-.99-.547 1.496 1.496 0 0 1-.416-1.067V42.357c0-.416.138-.789.416-1.119a1.482 1.482 0 0 1 1.042-.546c3.855-.45 8.335-.798 13.44-1.041-.174 2.429-.468 4.545-.886 6.348-3.195.14-5.643.313-7.344.52v30.493c7.674.798 13.231 1.196 16.669 1.196 6.008 0 11.565-.398 16.67-1.196V46.52c-1.737-.208-4.186-.382-7.345-.521-.452-1.977-.73-4.092-.834-6.348 5.07.243 9.533.59 13.388 1.04zm-53.788 101.946a12.339 12.339 0 0 0 4.518-3.663c1.2-1.57 1.964-3.379 2.292-5.428h-4.748c-.261 3.64-.949 6.671-2.062 9.09zm6.777-13.277c-.328-2.049-1.086-3.831-2.275-5.346-1.19-1.515-2.69-2.699-4.502-3.548 1.135 2.485 1.812 5.45 2.03 8.894h4.747zm-8.25 0a27.808 27.808 0 0 0-.507-3.875c-.252-1.21-.524-2.201-.82-2.976a12.896 12.896 0 0 0-.948-2.01c-.339-.567-.633-.976-.884-1.227-.251-.25-.453-.376-.606-.376-.153 0-.355.125-.605.376-.252.25-.546.66-.885 1.226a12.84 12.84 0 0 0-.948 2.011c-.296.775-.568 1.766-.82 2.976a27.713 27.713 0 0 0-.507 3.875h7.53zm-4.943 13.26c.524.796.916 1.193 1.178 1.193.262 0 .655-.397 1.179-1.193.523-.795 1.058-2.027 1.604-3.695.545-1.667.884-3.46 1.015-5.38h-7.595c.13 1.92.469 3.713 1.014 5.38.546 1.668 1.081 2.9 1.605 3.695zm-10.836-13.26h4.747c.217-3.445.894-6.409 2.03-8.894-1.813.85-3.313 2.033-4.502 3.548-1.19 1.515-1.948 3.297-2.275 5.346zm6.776 13.277c-1.112-2.42-1.8-5.45-2.062-9.091h-4.747c.327 2.049 1.091 3.859 2.292 5.428 1.2 1.57 2.705 2.79 4.517 3.663zm13.111 2.403c-2.411 1.406-5.036 2.11-7.873 2.11-2.837 0-5.462-.704-7.873-2.11a15.668 15.668 0 0 1-5.73-5.722c-1.407-2.409-2.11-5.031-2.11-7.865 0-2.834.703-5.455 2.11-7.865a15.666 15.666 0 0 1 5.73-5.722c2.411-1.407 5.036-2.11 7.873-2.11 2.837 0 5.462.703 7.873 2.11a15.676 15.676 0 0 1 5.73 5.722c1.407 2.41 2.11 5.031 2.11 7.865 0 2.834-.703 5.456-2.11 7.865a15.677 15.677 0 0 1-5.73 5.722zM42.041 120.422c.62.62 1.38.93 2.281.93.9 0 1.66-.31 2.281-.93.62-.62.93-1.379.93-2.278 0-.9-.31-1.659-.93-2.279-.62-.62-1.381-.93-2.28-.93-.901 0-1.662.31-2.282.93-.62.62-.93 1.38-.93 2.279 0 .9.31 1.659.93 2.278m9.032-6.033l2.446-2.406c-2.507-2.551-5.573-3.827-9.197-3.827-3.625 0-6.69 1.276-9.196 3.827l2.445 2.406c1.849-1.895 4.099-2.843 6.751-2.843s4.902.948 6.751 2.843m4.963-4.993l2.409-2.37a19.682 19.682 0 0 0-6.387-4.374c-2.433-1.045-5.011-1.568-7.736-1.568-2.725 0-5.304.523-7.737 1.568a19.672 19.672 0 0 0-6.386 4.374l2.409 2.37c3.235-3.281 7.14-4.922 11.714-4.922 2.238 0 4.366.432 6.386 1.294a16.54 16.54 0 0 1 5.328 3.628m5.219-5.468v17.715c0 .487-.17.9-.511 1.24a1.69 1.69 0 0 1-1.241.51H29.14c-.487 0-.9-.17-1.24-.51-.341-.34-.512-.753-.512-1.24v-17.715c0-.51.195-.936.584-1.276L43.154 88.4c.34-.315.736-.474 1.186-.474.45 0 .834.159 1.15.474l15.18 14.253c.39.34.585.765.585 1.276m90.65-69.171c.389.049.717.236.985.565.268.328.401.723.401 1.185v17.35c0 .487-.152.9-.456 1.24-.304.34-.663.51-1.076.51h-5.11c-.413 0-.772-.17-1.075-.51-.305-.34-.457-.753-.457-1.24v-17.35c0-.462.134-.863.402-1.204.267-.34.596-.522.985-.546a22.161 22.161 0 0 1 2.7-.146c.998 0 1.898.05 2.7.146zm-11.677 5.832c.388.05.716.237.984.565.268.328.402.723.402 1.185v11.519c0 .486-.152.899-.457 1.239-.304.34-.662.51-1.076.51h-5.109c-.413 0-.772-.17-1.076-.51-.305-.34-.456-.753-.456-1.24V42.34c0-.462.133-.863.401-1.203.268-.34.596-.522.985-.547a22.169 22.169 0 0 1 2.7-.146c.998 0 1.899.05 2.702.146zm-11.678 3.5c.389.049.717.236.985.564.267.329.402.724.402 1.185v8.02c0 .486-.153.899-.457 1.239-.304.34-.663.51-1.076.51h-5.11c-.413 0-.772-.17-1.076-.51a1.792 1.792 0 0 1-.456-1.24v-8.019c0-.461.134-.862.401-1.203.268-.34.597-.522.985-.546a22.043 22.043 0 0 1 2.701-.146c.997 0 1.898.048 2.7.146zm10.984-8.312a2.241 2.241 0 0 1-1.624.456 2.349 2.349 0 0 1-1.515-.747l-4.196-4.593-3.503 3.573c.048.29.072.534.072.728 0 1.119-.4 2.078-1.204 2.88-.803.802-1.764 1.203-2.882 1.203-1.12 0-2.08-.401-2.884-1.203-.802-.802-1.204-1.761-1.204-2.88 0-1.117.402-2.077 1.204-2.88.803-.802 1.764-1.203 2.884-1.203.12 0 .352.025.693.074l5.218-5.213c.511-.461 1.083-.693 1.716-.693.68.05 1.24.305 1.678.766l4.416 4.738 7.882-5.941v-.146c0-1.118.401-2.078 1.204-2.88.803-.802 1.764-1.203 2.883-1.203s2.08.401 2.883 1.204c.803.801 1.204 1.761 1.204 2.88 0 1.117-.4 2.077-1.204 2.879-.802.801-1.764 1.203-2.883 1.203-.462 0-.876-.073-1.24-.219l-9.598 7.217zM62.15 158.936h4.67V134.44h-4.67v24.496zm-2.336-9.806c-.827-1.652-1.995-3.061-3.503-4.228V134.44h3.503v14.69zm-5.838-5.577a11.6 11.6 0 0 0-4.672-.984c-.243 0-.632.025-1.168.073v-8.202h5.84v9.113zM45.8 134.44v8.676c-.779.243-1.557.596-2.336 1.057v-9.733h2.336zm-.675 24.004c1.18 1.179 2.573 1.768 4.178 1.768 1.606 0 2.998-.59 4.179-1.768 1.18-1.178 1.77-2.582 1.77-4.21 0-1.604-.59-2.995-1.77-4.174-1.18-1.178-2.573-1.768-4.179-1.768-1.605 0-2.998.59-4.178 1.768-1.18 1.179-1.77 2.57-1.77 4.174 0 1.628.59 3.032 1.77 4.21zm-3.996-12.522c-.998.998-1.776 2.091-2.335 3.281V134.44h2.335v11.482zm-1.86 20.85c-.27.172-.622.214-1.06.129-.437-.085-.79-.261-1.058-.529a2.07 2.07 0 0 1-.51-1.075c-.074-.425-.025-.784.145-1.076 1.07-1.676 2.519-3.499 4.343-5.467-.779-1.434-1.168-2.928-1.168-4.484 0-2.575.913-4.775 2.737-6.598 1.825-1.822 4.026-2.734 6.605-2.734 2.578 0 4.775.912 6.587 2.734 1.812 1.823 2.719 4.023 2.719 6.598 0 2.577-.907 4.775-2.719 6.598-1.812 1.823-4.009 2.734-6.587 2.734-1.581 0-3.09-.389-4.525-1.167-2.214 1.945-4.05 3.39-5.51 4.338zm-7.482-7.836h4.671V134.44h-4.671v24.496zm54.299-64.722h6.285v-5.232c0-2.094-1.047-3.14-3.143-3.14-2.095 0-3.142 1.046-3.142 3.14v5.232zm14.666 2.256v11.315c0 .501-.17.943-.507 1.323a2.284 2.284 0 0 1-1.228.736 43.064 43.064 0 0 1-9.789 1.112c-3.404 0-6.7-.37-9.886-1.112a2.042 2.042 0 0 1-1.178-.736 2.051 2.051 0 0 1-.459-1.323V96.568c0-.61.197-1.155.59-1.635.392-.48.872-.72 1.44-.72h1.113v-5.231c0-2.507.77-4.53 2.308-6.067 1.539-1.537 3.563-2.305 6.072-2.305 2.51 0 4.535.768 6.073 2.305 1.54 1.537 2.308 3.56 2.308 6.067v5.232h1.015c.567 0 1.064.229 1.49.686.425.458.638.981.638 1.57zm185.829 8.192c0 1.303-.437 2.422-1.31 3.36a4.964 4.964 0 0 1-3.228 1.601l-3.91 8.4c.625.886.938 1.85.938 2.892 0 1.38-.488 2.558-1.467 3.535-.978.977-2.158 1.466-3.54 1.466-1.382 0-2.561-.49-3.54-1.466-.977-.977-1.466-2.155-1.466-3.535v-.078l-5.085-3.048a5.198 5.198 0 0 1-1.955.586l-3.911 8.4c.625.885.938 1.85.938 2.89 0 1.382-.488 2.56-1.466 3.537-.978.977-2.159 1.465-3.54 1.465-1.383 0-2.562-.488-3.54-1.465-.977-.977-1.466-2.155-1.466-3.536 0-1.302.436-2.422 1.31-3.36a4.961 4.961 0 0 1 3.226-1.602l3.873-8.4c-.6-.884-.9-1.849-.9-2.891 0-1.38.489-2.559 1.467-3.536.977-.976 2.157-1.465 3.54-1.465 1.381 0 2.561.489 3.54 1.465.977.977 1.466 2.156 1.466 3.536v.078l5.085 3.048c.573-.313 1.225-.508 1.955-.586l3.873-8.4c-.6-.885-.9-1.85-.9-2.891 0-1.38.489-2.56 1.467-3.536.977-.976 2.157-1.465 3.54-1.465 1.38 0 2.56.489 3.54 1.465.977.977 1.466 2.155 1.466 3.536m-99.645-.545l7.689-5.888v10.806c0 .194-.065.36-.194.496a.84.84 0 0 1-.485.255 71.015 71.015 0 0 1-10.187.727c-3.428 0-6.832-.242-10.211-.727a.825.825 0 0 1-.462-.255.696.696 0 0 1-.193-.496V98.229l7.688 5.888c.857.646 1.917.969 3.178.969 1.262 0 2.32-.323 3.177-.97zm-13.194-8.335c-.453-.436-.736-.863-.85-1.284v-1.115c0-.193.065-.359.194-.496a.828.828 0 0 1 .462-.254 71.517 71.517 0 0 1 10.21-.727c3.445 0 6.841.242 10.188.727a.842.842 0 0 1 .485.254.7.7 0 0 1 .194.496v1.115c-.113.42-.397.848-.848 1.284l-8.271 6.251c-.453.356-1.036.533-1.747.533-.711 0-1.294-.177-1.746-.533l-8.271-6.25zm-42.344-20.368c.749.732 1.617 1.097 2.605 1.097.986 0 1.855-.365 2.604-1.097.748-.731 1.123-1.589 1.123-2.576 0-.986-.375-1.861-1.123-2.626-.75-.765-1.618-1.148-2.604-1.148-.988 0-1.856.383-2.605 1.148-.749.765-1.123 1.64-1.123 2.626 0 .987.374 1.845 1.123 2.576m-.97 25.121h7.149c.476 0 .868-.153 1.174-.459.307-.306.46-.696.46-1.173V97.27c0-.476-.153-.868-.46-1.173-.306-.307-.698-.46-1.174-.46l.051-13.057c0-.442-.162-.824-.485-1.148a1.575 1.575 0 0 0-1.149-.485h-5.566c-.477 0-.868.154-1.175.46-.306.306-.46.697-.46 1.173v1.632c0 .477.154.867.46 1.173.307.306.698.46 1.175.46v9.793c-.477 0-.868.152-1.175.459-.306.305-.46.697-.46 1.173v1.632c0 .477.154.867.46 1.173.307.306.698.46 1.175.46m-8.706-35.884c3.76-2.194 7.855-3.29 12.28-3.29 4.426 0 8.52 1.096 12.281 3.29 3.762 2.193 6.741 5.169 8.937 8.926 2.196 3.758 3.293 7.847 3.293 12.267 0 4.421-1.097 8.51-3.293 12.267-2.196 3.758-5.175 6.733-8.937 8.927-3.762 2.193-7.855 3.29-12.28 3.29-4.426 0-8.52-1.097-12.281-3.29-3.762-2.194-6.74-5.169-8.936-8.927-2.197-3.757-3.294-7.846-3.294-12.267 0-4.42 1.098-8.509 3.294-12.267 2.196-3.757 5.174-6.733 8.936-8.926m138.963 98.33c.078.261.026.536-.157.824-.184.288-.42.445-.707.47l-.275.04c-.184.026-.466.059-.845.098-.38.04-.844.078-1.394.118-.55.039-1.303.072-2.26.098-.955.026-1.997.052-3.122.078a7.605 7.605 0 0 0-.786-.53c-.288-.17-.596-.353-.923-.549-.328-.196-.57-.346-.726-.452-.42-.209-.825-.444-1.218-.705 2.75-3.636 3.3-7.246 1.65-10.83-.656-1.413-1.572-2.511-2.75-3.297a8.983 8.983 0 0 0-3.85-1.451c0-.915.209-1.858.629-2.825.497-1.1 1.256-1.91 2.278-2.433a6.897 6.897 0 0 1 3.182-.785c1.1 0 2.16.262 3.182.785 1.021.523 1.78 1.334 2.278 2.433 1.257 2.746.641 5.559-1.846 8.436-.76.89-.707 1.818.157 2.786.261.314 1.027.837 2.298 1.57 1.27.732 2.167 1.281 2.69 1.647.289.21.544.4.767.57.222.17.413.366.57.588.157.222.28.392.372.51.092.118.183.32.275.608.092.288.151.485.178.589.025.105.084.36.176.765.091.406.15.687.177.843zm-15.713 10.496a233.48 233.48 0 0 1-6.226 0 101.43 101.43 0 0 1-2.495-.059 56.471 56.471 0 0 1-1.846-.098l-1.355-.098a23.616 23.616 0 0 1-.885-.079 5.418 5.418 0 0 0-.51-.04l-.196-.038c-.289-.026-.525-.183-.707-.47-.184-.236-.236-.511-.157-.825.052-.183.117-.464.196-.844l.157-.765c.025-.13.085-.334.177-.608.091-.275.183-.47.275-.589.091-.117.216-.28.373-.49.157-.21.34-.405.55-.589.21-.182.471-.379.786-.588.55-.393 1.453-.955 2.71-1.687 1.257-.733 2.016-1.242 2.279-1.531.864-.967.916-1.896.157-2.786-2.49-2.877-3.104-5.69-1.847-8.436.497-1.099 1.257-1.91 2.278-2.433a6.901 6.901 0 0 1 3.182-.785c1.1 0 2.161.263 3.182.785 1.022.524 1.781 1.334 2.279 2.433 1.257 2.747.641 5.56-1.846 8.436-.76.89-.707 1.819.157 2.786.261.314 1.027.838 2.298 1.57 1.27.732 2.166 1.282 2.69 1.648.655.47 1.14.91 1.454 1.314.314.406.53.85.648 1.334.118.485.256 1.093.413 1.825a.945.945 0 0 1-.157.824c-.184.288-.42.445-.708.47l-.196.04c-.105 0-.275.014-.51.04-.236.026-.531.052-.885.078-.353.026-.812.059-1.375.098-.563.04-1.185.072-1.865.098-.682.027-1.506.046-2.475.06zm-10.724-10.3c-.157.105-.4.255-.727.451-.328.196-.635.38-.923.55-.289.17-.55.346-.786.53-.812 0-1.585-.014-2.318-.04a126.452 126.452 0 0 1-3.3-.157c-.419-.026-.765-.052-1.04-.079a14.333 14.333 0 0 1-.688-.078 3.348 3.348 0 0 0-.432-.04l-.117-.039c-.289-.025-.525-.182-.708-.47-.183-.236-.236-.51-.157-.825.052-.182.118-.463.197-.843l.157-.765c.025-.13.084-.333.177-.608.091-.275.183-.471.274-.59.092-.117.217-.28.374-.49.157-.208.34-.405.55-.588.209-.183.47-.38.785-.589.55-.392 1.454-.954 2.71-1.687 1.258-.732 2.017-1.242 2.279-1.53.865-.968.917-1.896.157-2.786-2.488-2.877-3.103-5.69-1.846-8.436.497-1.1 1.257-1.91 2.278-2.433a6.897 6.897 0 0 1 3.182-.785c1.1 0 2.16.262 3.182.785 1.021.523 1.781 1.334 2.279 2.433.418.967.628 1.91.628 2.825-3.142.445-5.356 2.028-6.638 4.748-1.625 3.584-1.061 7.194 1.688 10.83a4.214 4.214 0 0 1-.353.235 11.67 11.67 0 0 1-.452.255c-.17.092-.295.163-.373.215h-.04z"/></g></g></svg>