<svg xmlns="http://www.w3.org/2000/svg" width="331" height="374" viewBox="0 0 331 374"><defs><filter id="a" width="200%" height="200%" x="-50%" y="-50%" filterUnits="objectBoundingBox"><feOffset dy="2" in="SourceAlpha" result="shadowOffsetOuter1"/><feGaussianBlur stdDeviation="4.5" in="shadowOffsetOuter1" result="shadowBlurOuter1"/><feColorMatrix values="0 0 0 0 0.419607843 0 0 0 0 0.454901961 0 0 0 0 0.509803922 0 0 0 0.3 0" in="shadowBlurOuter1" result="shadowMatrixOuter1"/><feMerge><feMergeNode in="shadowMatrixOuter1"/><feMergeNode in="SourceGraphic"/></feMerge></filter><filter id="b" width="200%" height="200%" x="-50%" y="-50%" filterUnits="objectBoundingBox"><feOffset dy="2" in="SourceAlpha" result="shadowOffsetOuter1"/><feGaussianBlur stdDeviation="4.5" in="shadowOffsetOuter1" result="shadowBlurOuter1"/><feColorMatrix values="0 0 0 0 0.419607843 0 0 0 0 0.454901961 0 0 0 0 0.509803922 0 0 0 0.3 0" in="shadowBlurOuter1" result="shadowMatrixOuter1"/><feMerge><feMergeNode in="shadowMatrixOuter1"/><feMergeNode in="SourceGraphic"/></feMerge></filter></defs><g fill="none" fill-rule="evenodd"><path fill="#6B7482" d="M246.795 310.627c-.97.242-1.88.108-2.729-.401-.848-.51-1.393-1.25-1.635-2.22-.242-.971-.108-1.88.402-2.729l3.496-5.819c.51-.848 1.25-1.393 2.22-1.635.97-.242 1.88-.108 2.728.402.849.51 1.394 1.25 1.636 2.22.242.97.108 1.88-.402 2.728l-3.496 5.819c-.51.848-1.25 1.393-2.22 1.635zM200.22 322.24c-.97.242-1.88.108-2.728-.402l-5.818-3.496c-.849-.51-1.394-1.25-1.636-2.22-.242-.971-.108-1.88.402-2.729.51-.849 1.25-1.394 2.22-1.636.97-.242 1.88-.108 2.728.402l5.819 3.496c.848.51 1.394 1.25 1.636 2.22.242.971.108 1.88-.402 2.729-.51.849-1.25 1.394-2.22 1.636zm42.474 30.222l-19.285 4.808-.418-1.364a15.537 15.537 0 0 0-2.98-4.513c-1.26-1.335-3.133-2.955-5.618-4.86-2.436-1.918-4.33-3.778-5.68-5.58-1.351-1.801-2.341-3.963-2.97-6.486-1.428-5.725-.618-11.157 2.43-16.297 3.046-5.14 7.48-8.435 13.302-9.887 5.822-1.451 11.285-.623 16.388 2.484 5.104 3.108 8.369 7.524 9.796 13.249.63 2.523.77 4.897.423 7.122-.347 2.225-1.146 4.756-2.397 7.593-1.299 2.849-2.192 5.158-2.678 6.928a15.537 15.537 0 0 0-.513 5.384c.037.352.103.825.2 1.42zm18.048-5.736c-.97.241-1.88.107-2.728-.402l-5.819-3.497c-.849-.51-1.394-1.25-1.636-2.22-.242-.97-.108-1.88.402-2.728.51-.849 1.25-1.394 2.22-1.636.97-.242 1.88-.108 2.729.402l5.818 3.496c.849.51 1.394 1.25 1.636 2.22.242.97.108 1.88-.402 2.729-.51.848-1.25 1.394-2.22 1.636zm-55.89 13.934c-.97.242-1.879.108-2.727-.402-.849-.51-1.394-1.25-1.636-2.22-.242-.97-.108-1.88.402-2.728l3.496-5.819c.51-.848 1.25-1.394 2.22-1.636.97-.241 1.88-.107 2.728.402.849.51 1.394 1.25 1.636 2.22.242.97.108 1.88-.402 2.729l-3.496 5.819c-.51.848-1.25 1.393-2.22 1.635zm32.88 12.827c-2.231.556-4.065.434-5.502-.367-1.436-.802-2.797-2.33-4.08-4.587-.921-1.42-1.945-3.663-3.07-6.732l18.265-4.554c.435 3.19.61 5.645.523 7.367-.123 2.607-.618 4.599-1.486 5.975-.868 1.375-2.418 2.342-4.65 2.898zM68.992 163.736c-.966.259-1.877.14-2.735-.354-.857-.495-1.415-1.226-1.674-2.192-.259-.966-.14-1.877.354-2.734l3.394-5.88c.495-.857 1.226-1.415 2.192-1.673.966-.26 1.877-.141 2.735.354.857.495 1.415 1.225 1.674 2.191.259.966.14 1.878-.354 2.735l-3.395 5.879c-.495.857-1.225 1.415-2.19 1.674zm-46.364 12.423c-.966.26-1.878.141-2.735-.354l-5.879-3.394c-.857-.495-1.415-1.225-1.674-2.191-.259-.966-.141-1.878.354-2.735.495-.858 1.225-1.416 2.191-1.675.966-.258 1.878-.14 2.735.355l5.879 3.394c.857.495 1.415 1.225 1.674 2.191.259.966.141 1.878-.354 2.735s-1.225 1.415-2.191 1.674zm42.994 29.477l-19.198 5.144-.441-1.357a15.537 15.537 0 0 0-3.059-4.46c-1.283-1.313-3.184-2.9-5.702-4.762-2.469-1.875-4.395-3.701-5.777-5.479-1.382-1.778-2.41-3.922-3.083-6.434-1.527-5.699-.812-11.144 2.145-16.336 2.957-5.193 7.333-8.565 13.129-10.118 5.795-1.553 11.272-.82 16.428 2.198 5.157 3.018 8.5 7.376 10.026 13.075.673 2.512.856 4.883.547 7.114-.308 2.23-1.062 4.775-2.263 7.633-1.25 2.871-2.102 5.196-2.557 6.975a15.537 15.537 0 0 0-.42 5.392c.043.35.118.822.225 1.415zm17.945-6.05c-.966.258-1.877.14-2.735-.355l-5.878-3.394c-.858-.495-1.416-1.226-1.675-2.192-.259-.965-.14-1.877.355-2.734.495-.858 1.225-1.416 2.19-1.675.967-.258 1.878-.14 2.736.355l5.879 3.394c.857.495 1.415 1.225 1.674 2.191.259.966.14 1.878-.354 2.735-.495.857-1.226 1.415-2.192 1.674zM27.93 214.492c-.966.259-1.878.14-2.735-.354-.857-.495-1.415-1.225-1.674-2.191-.26-.966-.141-1.878.354-2.735l3.394-5.88c.495-.856 1.226-1.414 2.191-1.673.966-.26 1.878-.141 2.735.354.858.495 1.416 1.225 1.675 2.191.258.966.14 1.878-.355 2.735l-3.394 5.879c-.495.857-1.225 1.415-2.191 1.674zm33.098 12.251c-2.221.595-4.057.505-5.507-.271-1.45-.776-2.837-2.281-4.16-4.515-.946-1.403-2.008-3.629-3.188-6.677l18.184-4.873c.49 3.182.707 5.634.651 7.357-.077 2.61-.538 4.61-1.381 6-.844 1.39-2.377 2.384-4.599 2.98zM316.225 49.25c-.944-.686-1.507-1.6-1.687-2.74-.18-1.141.072-2.183.757-3.127.686-.944 1.6-1.506 2.74-1.687l7.822-1.239c1.14-.18 2.183.072 3.127.758.944.685 1.506 1.599 1.687 2.74.18 1.14-.072 2.182-.758 3.126s-1.599 1.506-2.74 1.687l-7.822 1.239c-1.14.18-2.183-.072-3.126-.758zM270.92 16.332c-.944-.685-1.507-1.599-1.687-2.74l-1.24-7.822c-.18-1.14.073-2.183.759-3.126.685-.944 1.598-1.506 2.74-1.687 1.14-.18 2.182.072 3.126.757.944.686 1.506 1.6 1.687 2.74l1.239 7.822c.18 1.141-.072 2.183-.758 3.127s-1.599 1.506-2.74 1.687c-1.14.18-2.183-.072-3.126-.758zm4.84 60.624l-18.759-13.63.907-1.396a18.126 18.126 0 0 0 1.798-6.048c.248-2.127.292-5.016.131-8.665-.113-3.616.129-6.703.726-9.261.597-2.559 1.787-5.065 3.57-7.52 4.046-5.568 9.508-8.918 16.387-10.049 6.878-1.131 13.15.36 18.812 4.475 5.663 4.114 9.02 9.617 10.07 16.509 1.05 6.891-.449 13.122-4.495 18.69-1.783 2.454-3.798 4.36-6.047 5.719-2.25 1.359-5.11 2.542-8.584 3.552-3.52.975-6.254 1.91-8.2 2.802a18.126 18.126 0 0 0-5.197 3.58c-.287.296-.66.71-1.118 1.242zm18.662 11.828c-.944-.686-1.506-1.6-1.687-2.74l-1.238-7.822c-.181-1.14.071-2.183.757-3.127s1.6-1.506 2.74-1.687c1.14-.18 2.183.072 3.127.758s1.506 1.599 1.687 2.74l1.238 7.822c.181 1.14-.071 2.183-.757 3.127s-1.6 1.506-2.74 1.686c-1.14.181-2.183-.071-3.127-.757zm-54.366-39.5c-.944-.685-1.506-1.598-1.686-2.74-.181-1.14.071-2.182.757-3.126s1.6-1.506 2.74-1.687l7.822-1.239c1.14-.18 2.183.072 3.127.758s1.506 1.599 1.687 2.74c.18 1.14-.072 2.183-.758 3.127-.686.943-1.599 1.506-2.74 1.686l-7.822 1.24c-1.14.18-2.183-.073-3.127-.758zM253.25 88.29c-2.17-1.577-3.437-3.308-3.798-5.193-.361-1.885-.015-4.247 1.039-7.087.578-1.887 1.816-4.484 3.714-7.792l17.768 12.91c-2.524 2.78-4.588 4.777-6.192 5.991-2.422 1.846-4.573 2.896-6.454 3.153-1.88.256-3.906-.405-6.077-1.982z" opacity=".1"/><g filter="url(#a)" transform="translate(171 12)"><path fill="#F3F9FD" d="M109.67 286.365c-3.624 0-7.236-.916-10.445-2.649l-.792-.428C87.302 277.275 79 266.82 75.656 254.603L19.719 50.214C15.845 36.06 8.426 30.507 4.441 27.524c-.797-.596-1.78-1.331-2.039-1.677a3.198 3.198 0 0 1 .362-2.338 3.194 3.194 0 0 1 1.874-1.464l10.424-1.669A274.368 274.368 0 0 0 66.46 6.926l9.906-3.653c.241-.056.484-.085.728-.085 1.432 0 2.69.954 3.085 2.33-.029.416-.48 1.569-.847 2.502-1.79 4.562-5.123 13.053-1.28 27.095l55.78 203.813a46.749 46.749 0 0 1-5.494 37.12c-4.06 6.46-11.04 10.317-18.667 10.317h-.001z"/><path fill="#F8FAFB" d="M77.094 1.062c-.446 0-.9.057-1.353.176L65.725 4.929a271.596 271.596 0 0 1-50.998 13.348L4.188 19.964a5.344 5.344 0 0 0-3.814 6.522c.745 2.855 12.17 5.555 17.298 24.29l55.936 204.389a48.692 48.692 0 0 0 23.82 29.994l.79.427a24.033 24.033 0 0 0 11.452 2.904c8.055 0 15.895-4.038 20.464-11.31h.001a48.763 48.763 0 0 0 5.743-38.814L80.098 34.553C75.022 16 83 7.912 82.256 5.056a5.34 5.34 0 0 0-5.16-3.994m0 4.252c.284 0 .617.128.84.399-.146.427-.379 1.02-.58 1.53-1.88 4.79-5.381 13.71-1.352 28.433l55.78 203.814a44.61 44.61 0 0 1-5.242 35.427c-3.669 5.837-9.975 9.322-16.871 9.322-3.274 0-6.537-.828-9.436-2.394l-.791-.427c-10.625-5.74-18.55-15.718-21.74-27.377L21.768 49.653C17.7 34.793 9.902 28.957 5.713 25.822c-.413-.31-.89-.665-1.237-.946.03-.117.075-.216.12-.293.092-.157.257-.355.541-.465l10.26-1.643A276.416 276.416 0 0 0 67.192 8.92l9.75-3.595c.052-.008.103-.01.152-.01"/><path stroke="#DDE3EF" stroke-width="3.68" d="M26.425 38c13.651-1.896 26.464-5.17 39.205-10.013" stroke-linecap="round"/><path fill="#E94F7E" d="M109.67 285.834a21.52 21.52 0 0 1-10.192-2.586l-.793-.428c-11.004-5.943-19.212-16.28-22.517-28.358L43.183 133.938a31.297 31.297 0 0 1 28.593-5.356 28.651 28.651 0 0 0 8.42 1.266c7.5 0 14.596-2.877 19.985-8.102l.813-.788 32.325 118.112c3.399 12.42 1.419 25.796-5.431 36.695-3.96 6.304-10.772 10.069-18.217 10.069-.001 0 0 0 0 0"/><path fill="#F25F8C" d="M102.369 115.925l-4.035 3.913a26.053 26.053 0 0 1-18.138 7.352c-2.554 0-5.128-.376-7.642-1.149a33.946 33.946 0 0 0-32.382 6.95l33.436 122.174a48.696 48.696 0 0 0 23.819 29.995l.79.427a24.033 24.033 0 0 0 11.453 2.904c8.055 0 15.895-4.038 20.465-11.31a48.763 48.763 0 0 0 5.743-38.814l-33.51-122.442zm-2.8 9.88l31.19 113.967a43.542 43.542 0 0 1-5.116 34.579c-3.474 5.526-9.445 8.825-15.973 8.825-3.099 0-6.187-.783-8.932-2.266l-.79-.427c-10.372-5.603-18.106-15.342-21.221-26.722L46.223 134.99a28.65 28.65 0 0 1 24.774-3.866 31.337 31.337 0 0 0 9.2 1.382c7.097 0 13.864-2.359 19.372-6.7z"/><path fill="#DD4775" fill-opacity=".3" d="M135.878 238.367l-14.854-54.278s-16.159 18.882-28.565 17.79c-10.92-.96-23.587-4.179-32.448 3.601l-19.839-72.49 33.436 122.175a48.692 48.692 0 0 0 23.82 29.995l.79.427c11.19 6.045 25.145 2.37 31.916-8.406a48.76 48.76 0 0 0 5.744-38.814"/><path stroke="#FFF" stroke-width="2.259" d="M94.342 168.396a6.35 6.35 0 0 0 4.275-7.889 6.338 6.338 0 0 0-7.879-4.28 6.348 6.348 0 0 0-4.275 7.889 6.337 6.337 0 0 0 7.879 4.28z" opacity=".2"/><path fill="#FFF" d="M108.34 225.944a2.433 2.433 0 0 0-1.383-4.665 2.434 2.434 0 0 0 1.382 4.665m-27.297-21.165a5.143 5.143 0 0 0-2.92-9.86 5.143 5.143 0 0 0 2.92 9.86" opacity=".2"/><path stroke="#FFF" stroke-width="2.259" d="M103.07 257.708a5.143 5.143 0 0 0-2.92-9.861 5.143 5.143 0 0 0 2.92 9.86z" opacity=".2"/><path fill="#E94F7E" d="M49.812 74.216a5.878 5.878 0 0 0-5.87 5.592 5.85 5.85 0 0 0 1.512 4.244 5.833 5.833 0 0 0 4.364 1.939 5.878 5.878 0 0 0 5.87-5.592 5.858 5.858 0 0 0-1.512-4.245 5.84 5.84 0 0 0-4.364-1.938m0 2.924a2.962 2.962 0 0 1 2.959 3.112 2.962 2.962 0 0 1-3.105 2.811 2.963 2.963 0 0 1-2.807-3.109 2.961 2.961 0 0 1 2.953-2.814m25.24 31.23a4.258 4.258 0 0 0-4.035-4.469 4.256 4.256 0 0 0-4.463 4.04 4.258 4.258 0 0 0 4.035 4.47 4.256 4.256 0 0 0 4.463-4.041M71.65 52.24a6.745 6.745 0 0 0-6.393-7.078c-3.718-.188-6.883 2.678-7.07 6.4a6.747 6.747 0 0 0 6.394 7.08c3.717.188 6.883-2.679 7.07-6.401"/><path fill="#FFF" fill-opacity=".1" d="M65.725 4.93a271.634 271.634 0 0 1-50.998 13.347l-10.54 1.688a5.344 5.344 0 0 0-3.813 6.52c.745 2.857 12.17 5.557 17.298 24.292l55.936 204.388c26.93-53.81-7.06-87.643-4.928-147.009C70.404 60.151 65.725 4.93 65.725 4.93"/></g><g filter="url(#b)" transform="translate(9 78)"><g opacity=".85"><path fill="#F3F9FD" d="M196.95 280.546c-1.65 0-3.292-.324-4.875-.963L10.48 206.353c-4.369-1.763-7.365-5.606-8.01-10.284-.648-4.676 1.193-9.192 4.92-12.078l108.503-89.873a22.781 22.781 0 0 0 7.775-9.912l32.059-65.65-7.186-2.898c-1.078-.696-1.58-6.53-.494-9.238a3.538 3.538 0 0 1 4.524-2.007l10.34 5.391a302.945 302.945 0 0 0 54.415 21.944l11.185 3.288a3.534 3.534 0 0 1 1.847 1.867c.371.874.38 1.84.027 2.721-1.084 2.704-4.687 6.573-6.116 6.573l-7.158-2.886-22.253 69.605a22.806 22.806 0 0 0-1.243 12.544l16.132 140.064c.576 3.883-.478 7.566-2.958 10.449-2.501 2.907-6.088 4.573-9.84 4.573"/><path fill="#FCFDFF" d="M151.342 1.84a5.894 5.894 0 0 0-5.468 3.703c-1.215 3.026-1.227 11.078 1.792 12.296l4.847 1.954-30.986 63.455a20.472 20.472 0 0 1-7.065 9.009L5.958 182.132c-9.372 7.257-7.338 21.968 3.648 26.4l181.592 73.23a15.334 15.334 0 0 0 5.753 1.134c8.897 0 16.565-7.957 15.125-17.642l-16.14-140.14a20.516 20.516 0 0 1 1.13-11.404l21.508-67.276 4.848 1.954c.268.108.552.159.847.159 3.016 0 7.185-5.29 8.293-8.045 1.214-3.025-.249-6.466-3.268-7.683l-11.307-3.326A299.732 299.732 0 0 1 163.994 7.72L153.54 2.27a5.852 5.852 0 0 0-2.198-.43m0 4.7c.104 0 .209.013.31.041l10.179 5.306a305.087 305.087 0 0 0 54.836 22.114l11.008 3.238c.296.161.45.4.528.585.089.21.163.54.01.923-.607 1.509-2.698 4.057-3.95 4.916l-3.938-1.588-4.676-1.886-1.54 4.81-21.459 67.125a25.178 25.178 0 0 0-1.353 13.682l16.123 139.987.008.076.012.077c.462 3.12-.399 6.137-2.427 8.493-2.054 2.39-4.993 3.759-8.062 3.759-1.35 0-2.697-.268-4.003-.794l-181.59-73.23c-3.583-1.446-6.037-4.596-6.567-8.427-.53-3.832.98-7.532 4.033-9.897l.061-.047.06-.05L117.33 95.977a25.113 25.113 0 0 0 8.48-10.809l30.915-63.31 2.217-4.538-4.677-1.886-4.096-1.652c-.5-1.47-.504-5.091.055-6.485.225-.56.743-.758 1.119-.758"/></g><path fill="#13A1DC" d="M196.95 279.96c-1.575 0-3.142-.311-4.657-.922L10.7 205.808c-4.173-1.683-7.033-5.354-7.65-9.819-.617-4.465 1.139-8.777 4.698-11.534l75.463-62.214c4.824.687 22.958 3.638 36.301 10.79 9.364 5.022 14.473 11.294 19.413 17.361 5.16 6.34 10.497 12.892 20.232 16.973 6.675 2.795 14.76 4.214 24.031 4.214 6.339 0 11.772-.67 15.012-1.183l10.966 95.196c.552 3.729-.455 7.247-2.821 9.998-2.39 2.778-5.814 4.37-9.396 4.37"/><path stroke="#FFF" stroke-width="3.108" d="M107.108 164.117c1.986-4.945-.404-10.566-5.339-12.556-4.934-1.99-10.544.405-12.53 5.35-1.986 4.945.405 10.567 5.34 12.556 4.934 1.99 10.544-.405 12.53-5.35z" opacity=".2"/><path fill="#FFF" d="M142.034 181.854a3.703 3.703 0 0 0-2.047-4.813 3.69 3.69 0 0 0-4.803 2.05 3.702 3.702 0 0 0 2.047 4.814 3.688 3.688 0 0 0 4.803-2.05M120.078 206.801c1.61-4.006-.328-8.563-4.326-10.174-3.999-1.613-8.544.328-10.153 4.335s.328 8.562 4.327 10.175c3.998 1.612 8.543-.33 10.152-4.336" opacity=".2"/><path stroke="#FFF" stroke-width="3.108" d="M163.534 213.346c1.61-4.006-.328-8.562-4.326-10.174-3.999-1.613-8.544.328-10.153 4.336-1.608 4.006.328 8.561 4.327 10.174 3.998 1.612 8.543-.33 10.152-4.336z" opacity=".2"/><path fill="#13A1DC" d="M146.179 91.19a7.305 7.305 0 0 0-6.806 4.608c-1.51 3.76.315 8.05 4.067 9.564a7.3 7.3 0 0 0 2.736.532 7.305 7.305 0 0 0 6.807-4.608c1.51-3.76-.316-8.05-4.067-9.563a7.278 7.278 0 0 0-2.737-.533m0 3.651a3.702 3.702 0 0 1-.002 7.401 3.702 3.702 0 0 1 .002-7.401m18.268 47.353a5.322 5.322 0 0 0-2.942-6.92 5.305 5.305 0 0 0-6.904 2.948 5.322 5.322 0 0 0 2.942 6.92 5.303 5.303 0 0 0 6.904-2.948m18.803-67.63c1.733-4.316-.353-9.224-4.662-10.961-4.307-1.738-9.205.354-10.938 4.67-1.734 4.317.354 9.226 4.66 10.963 4.308 1.737 9.206-.354 10.94-4.671"/><path stroke="#DDE3EF" stroke-width="3.68" d="M163.32 28.822c13.395 7.237 26.94 12.698 41.443 16.713" stroke-linecap="round"/><path fill="#1BAFE9" d="M82.336 119.161l-76.378 62.97c-9.372 7.257-7.338 21.97 3.648 26.4l181.592 73.231a15.333 15.333 0 0 0 5.752 1.134c8.898 0 16.566-7.956 15.126-17.641l-11.322-98.306s-7.69 1.693-17.567 1.693c-7.18 0-15.519-.895-22.898-3.987-17.91-7.504-19.4-23.492-39.394-34.212-16.134-8.65-38.56-11.282-38.56-11.282m1.734 6.176c6.03.93 22.1 3.87 34.062 10.285 8.846 4.743 13.547 10.516 18.524 16.627 5.39 6.618 10.961 13.462 21.373 17.824 7.034 2.947 15.5 4.442 25.16 4.442 4.827 0 9.159-.379 12.447-.792l10.62 92.205.012.095.014.096c.412 2.777-.353 5.46-2.155 7.554-1.832 2.128-4.448 3.35-7.176 3.35a9.497 9.497 0 0 1-3.563-.709L11.795 203.083c-3.187-1.285-5.37-4.088-5.842-7.498-.471-3.408.87-6.7 3.588-8.805l.071-.056.07-.056 74.387-61.33"/><path fill="#139AD3" fill-opacity=".3" d="M212.077 265.254l-5.942-51.583s-67.756 16.455-95.906-9.96c-28.728-26.956-71.21-48.838-71.21-48.838l-33.06 27.26c-9.373 7.256-7.34 21.968 3.648 26.398l181.592 73.232c10.985 4.43 22.622-4.77 20.878-16.509"/><path fill="#FFF" fill-opacity=".1" d="M212.92 65.413c4.037-9.483 5.655-18.98 5.655-18.98l4.847 1.955a5.89 5.89 0 0 0 7.666-3.273c1.214-3.026-.248-6.466-3.268-7.683l-11.306-3.327a299.783 299.783 0 0 1-53.993-21.773l-10.455-5.45a5.888 5.888 0 0 0-7.666 3.274 5.911 5.911 0 0 0 3.266 7.683l4.848 1.954-30.987 63.456a20.475 20.475 0 0 1-7.065 9.008L5.958 182.132c-9.371 7.257-7.338 21.97 3.648 26.4l58.566 23.617s73.455 2.112 79.402-98.05c2.029-34.176 53.324-40.445 65.346-68.686"/></g></g></svg>