<svg xmlns="http://www.w3.org/2000/svg" width="174" height="174" viewBox="0 0 174 174" xmlns:xlink="http://www.w3.org/1999/xlink"><defs><circle id="a" cx="86.7" cy="86.589" r="86.478"/><mask id="b" width="172.956" height="172.956" x="0" y="0" fill="#fff"><use xlink:href="#a"/></mask></defs><g fill="none" fill-rule="evenodd"><use fill="#3B5272" stroke="#2A405F" stroke-width="14" mask="url(#b)" xlink:href="#a"/><path fill="#000" fill-opacity=".15" d="M133.845 66.567H112V44.345a9.111 9.111 0 0 0-9.044-8.89H76.978c-4.878 0-7.2 4.067-7.2 8.89v22.222h-23.7a8.489 8.489 0 0 0-8.533 8.722v25.989c0 4.878 3.655 9.744 8.533 9.744h23.7v21.111c0 4.878 2.333 8.89 7.2 8.89h25.978a9.033 9.033 0 0 0 9.044-8.89v-21.11h21.856c4.878 0 9.255-4.867 9.255-9.745V75.3c0-4.878-4.388-8.733-9.266-8.733z"/><path fill="#ED4F7E" d="M131.623 64.345h-21.845V42.122a9.111 9.111 0 0 0-9.044-8.889H74.756c-4.878 0-7.2 4.067-7.2 8.89v22.222h-23.7a8.489 8.489 0 0 0-8.533 8.722v25.989c0 4.877 3.655 9.744 8.533 9.744h23.7v21.111c0 4.878 2.333 8.89 7.2 8.89h25.978a9.033 9.033 0 0 0 9.044-8.89v-21.11h21.856c4.877 0 9.255-4.868 9.255-9.745V73.078c0-4.878-4.389-8.733-9.266-8.733z"/><path fill="#FFF" d="M105.334 43.233H81.645c-2.222 0-2.978 2.011-2.978 4.444v22.667c0 2.533-5.444 4.011-7.977 4.011H49.823a4.867 4.867 0 0 0-4.444 4.69v25.721s-4.445-.233-4.445-5.555V73.077c0-2.222.556-4.277 2.978-4.277h22.222a4.622 4.622 0 0 0 4.789-4.445V42.133c0-2.444 1.622-4.444 3.867-4.444h25.944a4.878 4.878 0 0 1 4.6 4.6v.955-.011z" opacity=".2"/><g><path fill="#000" fill-opacity=".1" d="M100.176 106.934l-9.844-34.6-1.324-4.652-1.541 4.585-9.556 28.433 1.422.478-1.369-.613a.389.389 0 0 1 .452-.218l-.375-.096-.374.097a.389.389 0 0 1 .451.214l-1.362.627 1.406-.522-7.156-19.278-1.316-3.545-1.472 3.483-4.122 9.756-.047.127a.389.389 0 0 1-.258.254l.431 1.436v-1.5h-6v1.5l.296-1.47a.2.2 0 0 1 0-.393l-.296-1.47v1.5h6.112l.394-.896 5.145-11.689c.004-.008-.032.017-.072.018-.128-.002-.176-.036-.195-.087l6.908 18.88 1.473 4.027 1.358-4.067 9.767-29.244a.121.121 0 0 1-.118.08.122.122 0 0 1-.115-.09l9.811 34.621 1.311 4.627 1.552-4.552 7.778-22.81c-.016.046-.068.083-.126.082l.142-.005a.222.222 0 0 1-.226-.146l4.271 13.482.332 1.047h55.349v-1.5l-.295 1.47a.2.2 0 0 1 0 .392l.295 1.47v-1.5h-55.295v1.5l.169-1.49a.044.044 0 0 1-.038-.032l-3.344-10.713-1.376-4.41-1.477 4.378-7.778 23.055c-.005.014.025-.008.058-.009l.03 1.5.122-1.495c.024.002.045.019.05.042l-.018-.069zm-2.903.752a2.944 2.944 0 0 0 2.627 2.265l.152.004a2.922 2.922 0 0 0 2.74-2.077l7.763-23.01-2.854-.032 3.334 10.678c.327 1.15 1.348 2.015 2.574 2.154l.169.01h55.445l.146-.03a3.2 3.2 0 0 0 0-6.274l-.146-.03h-54.4l1.43 1.047-4.29-13.533c-.438-1.23-1.595-1.982-2.843-1.887l.113 1.496.029-1.5a2.867 2.867 0 0 0-2.774 1.958l-7.774 22.802 2.863.075-9.812-34.622a2.878 2.878 0 0 0-5.5-.117l-9.766 29.24 2.832-.04-6.911-18.89a2.87 2.87 0 0 0-2.614-1.872c-1.234.026-2.266.742-2.698 1.818l-5.125 11.644 1.373-.896h-5.283l-.146.03a3.2 3.2 0 0 0 0 6.274l.146.03h6.37l.21-.064a3.389 3.389 0 0 0 2.253-2.213l-1.428-.457 1.381.584 4.123-9.756-2.788-.062 7.155 19.278.044.105a2.611 2.611 0 0 0 3.029 1.436l-.378-1.452-.37 1.453a2.611 2.611 0 0 0 3.028-1.462l.053-.135 9.556-28.434-2.865-.067 9.845 34.6-.018-.07z"/><path fill="#FFF" stroke="#FFF" stroke-width="3" d="M97.733 105.345l-9.844-34.6-9.556 28.433a1.111 1.111 0 0 1-1.289.622 1.111 1.111 0 0 1-1.288-.611L68.6 79.911l-4.122 9.756a1.889 1.889 0 0 1-1.256 1.233h-6a1.7 1.7 0 0 1 0-3.333h5.134l5.144-11.69A1.4 1.4 0 0 1 68.767 75c.557.015 1.05.367 1.244.889l6.911 18.889 9.767-29.245a1.378 1.378 0 0 1 2.633.056l9.811 34.622 7.778-22.81c.19-.568.725-.946 1.322-.934a1.278 1.278 0 0 1 1.3.844l4.29 13.534h54.25a1.7 1.7 0 0 1 0 3.333h-55.295a1.544 1.544 0 0 1-1.311-1.111l-3.334-10.678-7.777 23.056c-.179.59-.717.998-1.334 1.01a1.444 1.444 0 0 1-1.289-1.11z"/></g></g></svg>