<svg xmlns="http://www.w3.org/2000/svg" width="180" height="180" viewBox="0 0 180 180" xmlns:xlink="http://www.w3.org/1999/xlink"><defs><path id="a" d="M90.643 147.857c16.687 0 30.214-13.527 30.214-30.214 0-16.687-13.527-30.214-30.214-30.214-16.687 0-30.214 13.527-30.214 30.214 0 16.687 13.527 30.214 30.214 30.214z"/><filter id="b" width="200%" height="200%" x="-50%" y="-50%" filterUnits="objectBoundingBox"><feOffset dx="2" dy="2" in="SourceAlpha" result="shadowOffsetOuter1"/><feComposite in="shadowOffsetOuter1" in2="SourceAlpha" operator="out" result="shadowOffsetOuter1"/><feColorMatrix values="0 0 0 0 0 0 0 0 0 0 0 0 0 0 0 0 0 0 0.1 0" in="shadowOffsetOuter1"/></filter><mask id="c" width="60.429" height="60.429" x="0" y="0" fill="#fff"><use xlink:href="#a"/></mask><path id="e" d="M77.711 131.714a22.281 22.281 0 0 0 4.86-12.651l-1.954-.206A.823.823 0 0 1 80 117.79l.193-.861c.085-.53.558-.908 1.093-.875l1.401.155c0-1.826.077-4.115.232-5.555.925-8.601 5.85-12.857 12.972-12.098 3.01.426 5.72 2.054 7.509 4.513.237.431.134.97-.244 1.285l-3.485 3.472a1.067 1.067 0 0 1-1.465-.103 5.953 5.953 0 0 0-3.549-2.16c-1.504-.167-3.188 1.286-3.497 4.204-.154 1.389.244 4.089.154 7.367l3.639.437a.797.797 0 0 1 .617 1.055l-.141.874a1.067 1.067 0 0 1-1.145.81l-3.227-.347a43.38 43.38 0 0 1-2.314 7.894l7.123.772a.746.746 0 0 1 .565 1.054l-1.208 4.873a1.157 1.157 0 0 1-1.093.874l-16.007-1.787a.823.823 0 0 1-.617-1.054l.205-.875z"/><filter id="d" width="200%" height="200%" x="-50%" y="-50%" filterUnits="objectBoundingBox"><feOffset dx="1" dy="2" in="SourceAlpha" result="shadowOffsetOuter1"/><feColorMatrix values="0 0 0 0 0 0 0 0 0 0 0 0 0 0 0 0 0 0 0.1 0" in="shadowOffsetOuter1"/></filter></defs><g fill="none" fill-rule="evenodd"><circle cx="89.627" cy="89.627" r="85.77" fill="#9B5CA4"/><path fill="#804089" d="M89.627 179.254C40.127 179.254 0 139.127 0 89.627 0 40.127 40.127 0 89.627 0c49.5 0 89.627 40.127 89.627 89.627-.056 49.476-40.15 89.57-89.627 89.627zm0-171.54c-45.24 0-81.913 36.674-81.913 81.913 0 45.24 36.674 81.913 81.913 81.913 45.24 0 81.913-36.674 81.913-81.913-.05-45.219-36.694-81.863-81.913-81.913z"/><g transform="translate(40 21)"><path fill="#000" fill-opacity=".1" d="M15.724 122.351l-.295-.141c-8.088-3.613-8.743-12.626-6.828-19.286.078-.257.116-.398.116-.398a2.906 2.906 0 0 1 5.49 1.903v.18c-.56 1.98-.76 4.043-.591 6.094a7.02 7.02 0 0 0 4.204 6.236c1.49.78 3.233.93 4.834.411 4.32-1.71 7.715-8.923 9.489-13.307l22.114-52.714a2.931 2.931 0 0 1 5.4 2.262l-22.114 52.715c-2.186 5.22-6.133 13.847-12.742 16.457a11.996 11.996 0 0 1-9.077-.412z"/><path fill="#3B5272" d="M14.439 121.066l-.296-.142C6.056 117.311 5.4 108.3 7.316 101.64c.077-.258.115-.399.115-.399a2.906 2.906 0 0 1 5.49 1.903v.18c-.559 1.98-.76 4.044-.591 6.094a7.02 7.02 0 0 0 4.204 6.236c1.49.781 3.233.93 4.835.411 4.32-1.71 7.714-8.923 9.488-13.307l22.114-52.714a2.931 2.931 0 0 1 5.4 2.263L36.257 105.02c-2.186 5.22-6.133 13.847-12.741 16.457a11.996 11.996 0 0 1-9.077-.411z"/><path fill="#000" fill-opacity=".1" d="M75.089 84.053c-.702-3.012-5.254-20.245-18.325-23.914-14.335-4.025-22.114-1.26-30.471 3.857 0 0 .165-.384.487-1.087l-.423.907A26.164 26.164 0 0 0 15.943 41.61C4.179 32.87 1.8 36.687 1.8 36.687s22.937-50.181 75.163-27.72c0 0-.946.203-2.63.838.951-.275 1.911-.506 2.88-.692a7.097 7.097 0 0 0-.07-.133l.202.108.03-.005.015.03c56.413 30.414 34.056 74.181 34.056 74.181s-3.549-4.731-15.519-7.328c-10.236-2.221-18.3 5.524-20.422 7.815l-.316.722s-.021-.104-.065-.299c-.11.127-.167.196-.167.196l.132-.347z"/><path fill="#26A9AB" d="M75.677 6.11s-27.99 6.017-50.606 54.849a26.164 26.164 0 0 0-10.414-22.205C2.893 30.011.514 33.83.514 33.83S23.451-16.351 75.677 6.11z"/><path fill="#37BEC0" d="M25.007 61.139S46.286 11.767 76.09 6.226c0 0 16.881 32.335-2.186 75.42 0 0-4.089-20.34-18.424-24.365-14.336-4.024-22.115-1.26-30.472 3.858z"/><path fill="#41D4D6" d="M110.16 80.437s22.423-43.894-34.303-74.314c0 0 15.712 28.44-2.186 75.42 0 0 9-11.032 20.97-8.434 11.97 2.597 15.519 7.328 15.519 7.328z"/><ellipse cx="76.901" cy="5.242" fill="#3B5272" transform="rotate(-67.24 76.9 5.242)" rx="4.397" ry="2.121"/></g><use fill="#000" filter="url(#b)" xlink:href="#a"/><use fill="#FAAD40" stroke="#EC9E2F" stroke-width="6" mask="url(#c)" xlink:href="#a"/><use fill="#000" filter="url(#d)" xlink:href="#e"/><use fill="#FFF" xlink:href="#e"/></g></svg>