<svg width="418" height="367" viewBox="0 0 418 367" xmlns="http://www.w3.org/2000/svg" xmlns:xlink="http://www.w3.org/1999/xlink"><title>meter</title><defs><filter x="-50%" y="-50%" width="200%" height="200%" filterUnits="objectBoundingBox" id="b"><feOffset dy="2" in="SourceAlpha" result="shadowOffsetOuter1"/><feGaussianBlur stdDeviation="5" in="shadowOffsetOuter1" result="shadowBlurOuter1"/><feColorMatrix values="0 0 0 0 0 0 0 0 0 0 0 0 0 0 0 0 0 0 0.3 0" in="shadowBlurOuter1" result="shadowMatrixOuter1"/><feMerge><feMergeNode in="shadowMatrixOuter1"/><feMergeNode in="SourceGraphic"/></feMerge></filter><path d="M149.93 261.127c-47.693-.005-90.049-30.345-105.394-75.499-19.735-58.077 11.491-121.373 69.612-141.095 11.61-3.939 23.656-5.937 35.805-5.937 47.692 0 90.047 30.34 105.393 75.496 19.736 58.079-11.491 121.374-69.61 141.097-11.61 3.94-23.654 5.938-35.794 5.938h-.011z" id="a"/><mask id="c" x="-3" y="-3" width="228.65" height="228.531"><path fill="#fff" d="M35.616 35.596h228.65v228.531H35.616z"/><use xlink:href="#a"/></mask><path id="d" d="M112.537 166.907L.74 111.82 55.855.083h56.682v166.824z"/><path id="f" d="M57.06 167.319L112.175 55.58.377.494v166.825z"/><path id="h" d="M.378 56.733l111.798 55.087L167.29.083H.378v56.65z"/></defs><g filter="url(#b)" transform="translate(5 6)" fill="none" fill-rule="evenodd"><g opacity=".1"><path d="M399.78 127.038l-2.554 41.363c-.146 2.345-1.909 4.068-3.908 3.945l-12.166-.751c-1.998-.123-3.537-2.051-3.391-4.397l2.554-41.362c.135-2.17 1.638-3.912 3.56-3.967 2.102-.133 4.279-.084 6.452.05 2.171.133 4.253.35 6.409.744 1.813.287 3.178 2.202 3.044 4.375m-28.665 12.186l-1.696 27.459c-.145 2.346-1.91 4.069-3.907 3.946l-12.166-.751c-1.999-.125-3.537-2.05-3.391-4.397l1.696-27.46c.133-2.172 1.636-3.911 3.558-3.967 2.103-.13 4.281-.085 6.454.05 2.171.134 4.252.35 6.407.744 1.814.286 3.18 2.203 3.045 4.376m-28.322 6.625l-1.181 19.116c-.145 2.347-1.908 4.07-3.907 3.945l-12.165-.75c-1.998-.124-3.538-2.05-3.392-4.396l1.18-19.117c.134-2.173 1.638-3.913 3.56-3.968 2.102-.133 4.28-.084 6.452.05 2.173.134 4.253.35 6.409.746 1.813.285 3.179 2.2 3.044 4.374m16.905-23.729l-9.317-11.566-8.868 8c.055.527.105 1.141.068 1.749a9.736 9.736 0 0 1-10.334 9.132 9.734 9.734 0 0 1-9.132-10.334 9.733 9.733 0 0 1 10.334-9.13c.52.032 1.038.151 1.64.275l13.194-11.66c1.194-.972 2.708-1.49 4.187-1.398 1.557.184 2.909.878 3.883 2.072l9.816 11.946 19.645-13.004c.006-.087.017-.26.021-.347a9.735 9.735 0 0 1 10.334-9.132 9.734 9.734 0 0 1 9.13 10.333 9.734 9.734 0 0 1-10.333 9.13c-1.042-.064-2.074-.3-2.922-.703l-23.917 15.794a5.61 5.61 0 0 1-7.429-1.157" fill="#010202"/><path d="M54.087 256.083a3.704 3.704 0 0 0 1.527-2.297l1.295-6.663a3.576 3.576 0 0 0-2.852-4.229 3.576 3.576 0 0 0-4.228 2.852l-1.295 6.664a3.576 3.576 0 0 0 2.852 4.228 3.704 3.704 0 0 0 2.701-.555zm-39.794 26.84a3.704 3.704 0 0 0 1.527-2.296 3.576 3.576 0 0 0-2.852-4.228l-6.663-1.295a3.576 3.576 0 0 0-4.228 2.852 3.576 3.576 0 0 0 2.852 4.228l6.663 1.295a3.704 3.704 0 0 0 2.701-.555zm50.249 13.874c-.441-.788-.673-1.265-.673-1.265-1.6-3.445-1.72-6.71-1.212-12.662.446-5.91-.158-10.025-3.178-14.502-6.543-9.7-19.913-12.623-29.986-5.829s-12.371 20.286-5.829 29.986c3.02 4.477 6.61 6.58 12.256 8.38 5.647 1.8 8.63 3.135 11.286 5.867 0 0 .293.435.859 1.14l16.477-11.115zm14.998-11.563a3.704 3.704 0 0 0 1.527-2.297 3.576 3.576 0 0 0-2.852-4.228l-6.664-1.295a3.576 3.576 0 0 0-4.228 2.852 3.576 3.576 0 0 0 2.852 4.228l6.664 1.295a3.704 3.704 0 0 0 2.7-.555zm-47.753 32.21a3.704 3.704 0 0 0 1.527-2.297l1.295-6.664a3.576 3.576 0 0 0-2.852-4.228 3.576 3.576 0 0 0-4.228 2.852l-1.295 6.664a3.576 3.576 0 0 0 2.852 4.228 3.704 3.704 0 0 0 2.701-.556zm35.284.807c4.041-2.726 4.15-5.785 2.73-10.437-.57-1.785-1.791-4.4-3.01-6.744l-15.607 10.527c1.717 2.008 3.683 4.12 5.187 5.276 3.72 3.1 6.658 4.104 10.7 1.378z" fill="#000"/><path d="M298.986 31.161c5.339 19.3-5.949 39.224-25.248 44.563-21.648 5.99-40.745-8.51-45.003-26.843l35.14.665c2.812.036 4.7-2.926 4.051-5.274L257.155 5.338c18.29-3.435 36.77 7.531 41.831 25.823zm-79.232 9.094c-1.543-.024-2.8-1.302-2.753-2.762.027-17.531 10.944-32.927 27.138-37.407 1.426-.395 2.972.623 3.427 1.943l10.866 39.267-38.678-1.041z" fill="#010202"/></g><path d="M187.074 345.012c-63.844 0-120.541-40.621-141.083-101.08-12.8-37.668-10.155-78.063 7.445-113.744 17.6-35.68 48.049-62.375 85.736-75.167 15.54-5.274 31.666-7.95 47.928-7.95 63.845 0 120.54 40.622 141.083 101.081 26.42 77.76-15.381 162.505-93.182 188.911-15.54 5.275-31.666 7.949-47.927 7.949-.001 0 0 0 0 0" stroke="#737F90" stroke-width="7" fill="#7A8798"/><g transform="translate(38 47.071)"><use fill="#FEFEFE" xlink:href="#a"/><use stroke="#737F90" mask="url(#c)" stroke-width="6" xlink:href="#a"/></g><g transform="translate(186.948 84.564)"><mask id="e" fill="#fff"><use xlink:href="#d"/></mask><path d="M.824.083c-41.227 0-80.874 22.884-100.336 62.34-27.296 55.338-4.54 122.315 50.828 149.596 15.89 7.83 32.745 11.54 49.339 11.54 41.228 0 80.873-22.884 100.336-62.34 27.296-55.339 4.54-122.314-50.828-149.596C34.273 3.793 17.418.083.823.083m0 34.996c11.784 0 23.175 2.67 33.857 7.933 37.962 18.705 53.62 64.79 34.905 102.732-6.461 13.098-16.425 24.009-28.815 31.552A77.134 77.134 0 0 1 .655 188.562c-11.782 0-23.173-2.669-33.856-7.932-18.39-9.061-32.148-24.738-38.74-44.141-6.593-19.403-5.231-40.212 3.835-58.59 6.46-13.099 16.425-24.01 28.816-31.554A77.13 77.13 0 0 1 .824 35.079" fill="#E9507E" mask="url(#e)"/></g><g transform="translate(75.513 140.804)"><mask id="g" fill="#fff"><use xlink:href="#f"/></mask><path d="M112.26-56.157c-41.227 0-80.874 22.884-100.337 62.341-27.296 55.337-4.539 122.314 50.828 149.596 15.89 7.83 32.746 11.539 49.34 11.539 41.227 0 80.873-22.883 100.335-62.34 27.297-55.338 4.54-122.314-50.827-149.596-15.89-7.829-32.746-11.54-49.34-11.54m0 34.997c11.784 0 23.174 2.67 33.857 7.933 37.962 18.704 53.619 64.79 34.904 102.73-6.46 13.1-16.425 24.01-28.815 31.554a77.134 77.134 0 0 1-40.115 11.265c-11.782 0-23.174-2.668-33.856-7.932-37.96-18.705-53.62-64.79-34.905-102.731C49.79 8.56 59.756-2.351 72.146-9.895a77.13 77.13 0 0 1 40.113-11.265" fill="#A2C752" mask="url(#g)"/></g><path d="M144.565 69.466c74.241-25.197 154.679 12.965 182.553 85.469-.551-1.86-1.107-3.719-1.736-5.571C299.54 73.31 216.906 32.594 140.812 58.42 64.718 84.247 23.98 166.838 49.82 242.89c.63 1.853 1.32 3.666 2.016 5.477-22.065-74.475 18.488-153.703 92.729-178.9" fill-opacity=".1" fill="#FEFEFE"/><g transform="translate(75.513 84.564)"><mask id="i" fill="#fff"><use xlink:href="#h"/></mask><path d="M112.26.083c-41.227 0-80.874 22.884-100.337 62.34-27.296 55.338-4.539 122.314 50.828 149.596 15.89 7.83 32.746 11.539 49.34 11.539 41.227 0 80.873-22.883 100.336-62.34 27.296-55.338 4.54-122.314-50.828-149.595-15.89-7.83-32.746-11.54-49.34-11.54m0 34.996c11.784 0 23.175 2.67 33.857 7.933 37.962 18.705 53.62 64.79 34.905 102.73-6.461 13.1-16.425 24.01-28.817 31.554a77.127 77.127 0 0 1-40.113 11.266c-11.783 0-23.173-2.669-33.857-7.932-18.389-9.061-32.147-24.738-38.74-44.142-6.592-19.402-5.23-40.21 3.836-58.59 6.46-13.098 16.425-24.01 28.816-31.553a77.13 77.13 0 0 1 40.113-11.266" fill="#F7AC42" mask="url(#i)"/></g><g><path d="M237.203 96.018c-25.694-12.717-56.25-15.613-85.543-5.67-58.452 19.839-89.745 83.28-69.896 141.701 10.697 31.486 34.067 55.086 62.492 67.051 11.323 4.766 54.464-36.392 76.944-82.804 25.8-53.265 29.67-113.514 16.003-120.278" fill-opacity=".05" fill="#6B7483"/><path d="M154.34 98.238c57.129-19.389 119.03 10.064 140.338 65.947-.397-1.328-.791-2.656-1.24-3.979-19.85-58.421-83.326-89.698-141.778-69.859-58.452 19.84-89.745 83.28-69.896 141.702.45 1.324.947 2.616 1.44 3.912-17.148-57.296 14.01-118.333 71.137-137.723" fill-opacity=".15" fill="#6B7483"/><path d="M202.653 204.564l-28.476-14.032 52.11-76.116c1.266-1.714 3.968-.414 3.417 1.643l-27.051 88.505z" fill="#010202"/><path d="M202.653 204.564l-28.476-14.032 52.11-76.116c1.266-1.714 3.968-.414 3.417 1.643l-27.051 88.505z" stroke="#010202" stroke-width="2.116"/><path d="M202.653 202.23l-28.476-14.03 52.11-76.117c1.266-1.715 3.968-.415 3.417 1.643l-27.051 88.504z" stroke="#4D596F" stroke-width="3" fill="#59677C"/><path d="M182.628 190.524l-6.767-1.494 46.308-67.642c1.123-1.523 3.525-.368 2.285-.749l-41.826 69.885z" fill-opacity=".1" fill="#FEFEFE"/><path d="M187.603 173.809c-2.692 0-5.361.442-7.932 1.315-6.236 2.116-11.275 6.534-14.188 12.439-2.912 5.904-3.35 12.589-1.232 18.822a24.65 24.65 0 0 0 23.347 16.728c2.693 0 5.361-.442 7.932-1.316 6.237-2.116 11.276-6.533 14.188-12.439 2.913-5.904 3.35-12.588 1.232-18.822a24.65 24.65 0 0 0-23.347-16.727m0 2.333c9.299 0 17.98 5.854 21.137 15.144 3.964 11.669-2.286 24.34-13.961 28.302-2.38.809-4.8 1.191-7.18 1.191-9.3 0-17.981-5.854-21.137-15.143-3.965-11.67 2.285-24.341 13.96-28.303 2.38-.808 4.8-1.191 7.18-1.191" fill-opacity=".1" fill="#010202"/><path d="M187.6 219.613a23.484 23.484 0 0 1-22.244-15.936c-2.018-5.938-1.6-12.306 1.173-17.932a23.346 23.346 0 0 1 13.518-11.85 23.483 23.483 0 0 1 29.798 14.683c4.165 12.259-2.424 25.62-14.69 29.782a23.458 23.458 0 0 1-7.554 1.253h-.002z" stroke="#4D596F" stroke-width="3" fill="#59677C"/><path d="M185.339 189.47c9.127-3.097 18.85.065 24.56 7.16a22.192 22.192 0 0 0-1.159-7.678c-3.965-11.668-16.643-17.915-28.318-13.953-11.675 3.964-17.925 16.635-13.961 28.303a22.228 22.228 0 0 0 3.758 6.795c.207-9.104 5.992-17.529 15.12-20.626" fill-opacity=".1" fill="#FEFEFE"/></g></g></svg>