<svg xmlns="http://www.w3.org/2000/svg" width="339" height="323" viewBox="0 0 339 323"><defs><filter id="a" width="200%" height="200%" x="-50%" y="-50%" filterUnits="objectBoundingBox"><feOffset in="SourceAlpha" result="shadowOffsetOuter1"/><feGaussianBlur stdDeviation="9.5" in="shadowOffsetOuter1" result="shadowBlurOuter1"/><feColorMatrix values="0 0 0 0 0 0 0 0 0 0 0 0 0 0 0 0 0 0 0.2 0" in="shadowBlurOuter1" result="shadowMatrixOuter1"/><feMerge><feMergeNode in="shadowMatrixOuter1"/><feMergeNode in="SourceGraphic"/></feMerge></filter><filter id="b" width="200%" height="200%" x="-50%" y="-50%" filterUnits="objectBoundingBox"><feOffset in="SourceAlpha" result="shadowOffsetOuter1"/><feGaussianBlur stdDeviation="2" in="shadowOffsetOuter1" result="shadowBlurOuter1"/><feColorMatrix values="0 0 0 0 0 0 0 0 0 0 0 0 0 0 0 0 0 0 0.2 0" in="shadowBlurOuter1" result="shadowMatrixOuter1"/><feMerge><feMergeNode in="shadowMatrixOuter1"/><feMergeNode in="SourceGraphic"/></feMerge></filter><filter id="c" width="200%" height="200%" x="-50%" y="-50%" filterUnits="objectBoundingBox"><feOffset in="SourceAlpha" result="shadowOffsetOuter1"/><feGaussianBlur stdDeviation="2" in="shadowOffsetOuter1" result="shadowBlurOuter1"/><feColorMatrix values="0 0 0 0 0 0 0 0 0 0 0 0 0 0 0 0 0 0 0.2 0" in="shadowBlurOuter1" result="shadowMatrixOuter1"/><feMerge><feMergeNode in="shadowMatrixOuter1"/><feMergeNode in="SourceGraphic"/></feMerge></filter><filter id="d" width="200%" height="200%" x="-50%" y="-50%" filterUnits="objectBoundingBox"><feOffset in="SourceAlpha" result="shadowOffsetOuter1"/><feGaussianBlur stdDeviation="9.5" in="shadowOffsetOuter1" result="shadowBlurOuter1"/><feColorMatrix values="0 0 0 0 0 0 0 0 0 0 0 0 0 0 0 0 0 0 0.2 0" in="shadowBlurOuter1" result="shadowMatrixOuter1"/><feMerge><feMergeNode in="shadowMatrixOuter1"/><feMergeNode in="SourceGraphic"/></feMerge></filter><filter id="e" width="200%" height="200%" x="-50%" y="-50%" filterUnits="objectBoundingBox"><feGaussianBlur stdDeviation="3.437" in="SourceGraphic"/></filter></defs><g fill="none" fill-rule="evenodd"><path d="M58.173 100.32a.837.837 0 0 1-.601-.259.829.829 0 0 1-.217-.619l.03-.848a.826.826 0 0 1 .26-.6.819.819 0 0 1 .617-.218l7.635.267a.83.83 0 0 1 .6.26.824.824 0 0 1 .219.618l-.03.848a.827.827 0 0 1-.261.602.828.828 0 0 1-.617.217l-7.635-.268zm-1.57 3.926c1.397 1.5 3.122 2.286 5.172 2.358 2.05.071 3.825-.592 5.325-1.99 1.5-1.398 2.285-3.122 2.357-5.172.07-2.05-.591-3.824-1.99-5.324-1.398-1.5-3.121-2.286-5.172-2.358-2.05-.072-3.825.591-5.324 1.99-1.5 1.398-2.285 3.122-2.357 5.172-.072 2.05.59 3.824 1.989 5.324zm-1.806-12.829c2.14-1.994 4.678-2.94 7.61-2.838 2.934.103 5.397 1.224 7.393 3.365 1.995 2.14 2.94 4.677 2.838 7.61-.104 2.933-1.225 5.398-3.364 7.392-2.141 1.995-4.677 2.941-7.611 2.838a10.362 10.362 0 0 1-4.366-1.108l-6.554 4.468a2.408 2.408 0 0 1-1.898.41 2.486 2.486 0 0 1-1.635-1.066 2.524 2.524 0 0 1-.45-1.542 2.517 2.517 0 0 1 .558-1.506l4.914-6.197a10.366 10.366 0 0 1-.798-4.433c.102-2.933 1.223-5.398 3.363-7.393zM270.57 228.834c3.383-2.492 5.39-5.817 6.018-9.974.628-4.156-.303-7.925-2.796-11.31-2.494-3.381-5.818-5.387-9.975-6.017-4.156-.63-7.926.304-11.308 2.796-3.383 2.494-5.39 5.818-6.019 9.975-.629 4.156.304 7.926 2.797 11.307 2.493 3.384 5.817 5.39 9.973 6.019 4.158.629 7.926-.303 11.31-2.796m-26.544.655c-3.557-4.827-4.886-10.214-3.985-16.162.9-5.947 3.764-10.7 8.591-14.258 4.827-3.556 10.214-4.885 16.162-3.985 5.948.9 10.7 3.765 14.257 8.59 3.557 4.827 4.885 10.216 3.985 16.162-.478 3.153-1.572 6.029-3.285 8.629l7.551 14.392c.687 1.278.817 2.598.391 3.962-.427 1.366-1.278 2.39-2.555 3.077a5.168 5.168 0 0 1-3.245.553c-1.129-.171-2.106-.666-2.935-1.488l-11.46-11.466c-2.99.867-6.06 1.062-9.213.584-5.947-.9-10.7-3.764-14.259-8.59m-135.86-146.33v1.34c0 .39-.126.711-.377.962-.25.251-.57.377-.963.377h-4.017v4.017c0 .391-.126.712-.377.963-.25.251-.572.377-.962.377h-1.34c-.39 0-.71-.126-.962-.377-.252-.25-.377-.572-.377-.963v-4.017h-4.018c-.39 0-.712-.126-.962-.377-.25-.25-.377-.572-.377-.963V83.16c0-.39.126-.71.377-.962.25-.25.572-.377.962-.377h4.018v-4.018c0-.39.125-.71.377-.962.251-.25.571-.377.962-.377h1.34c.39 0 .711.126.962.377s.377.572.377.962v4.018h4.017c.392 0 .712.126.963.377s.376.572.376.962m.921 8.957c2.288-2.288 3.432-5.05 3.432-8.287 0-3.236-1.144-5.999-3.432-8.287-2.287-2.287-5.049-3.43-8.286-3.43-3.237 0-5.998 1.143-8.286 3.43-2.288 2.288-3.433 5.051-3.433 8.287 0 3.237 1.145 6 3.433 8.287 2.288 2.288 5.05 3.431 8.286 3.431 3.237 0 6-1.143 8.286-3.43m-20.13 3.556c-3.265-3.264-4.896-7.212-4.896-11.844 0-4.63 1.631-8.58 4.896-11.844 3.265-3.264 7.213-4.897 11.844-4.897 4.632 0 8.58 1.633 11.844 4.897 3.264 3.264 4.896 7.213 4.896 11.844 0 2.455-.502 4.771-1.507 6.947l7.408 10.086c.67.894.921 1.883.753 2.972-.167 1.088-.697 1.967-1.59 2.636a3.98 3.98 0 0 1-2.407.795 3.982 3.982 0 0 1-2.406-.795l-10.044-7.407c-2.177 1.004-4.492 1.506-6.947 1.506-4.63 0-8.579-1.632-11.844-4.896m-18.385 68.289c4.254 2.317 8.71 2.788 13.372 1.413 4.661-1.374 8.15-4.186 10.468-8.44 2.316-4.255 2.788-8.712 1.414-13.374a14.289 14.289 0 0 0-1.047-2.62l-13.899 4.098-4.098-13.901c-.893.08-1.815.26-2.77.542-4.663 1.374-8.15 4.189-10.467 8.442-2.318 4.253-2.788 8.712-1.414 13.372 1.374 4.662 4.187 8.15 8.441 10.468m45.031-32.822c1.894 1.456 3.177 3.32 3.847 5.595.671 2.274.613 4.566-.172 6.872a54.288 54.288 0 0 1-1.563 4.169c-.627 1.498-1.88 3.927-3.757 7.288-1.879 3.36-3.912 6.403-6.1 9.123-2.19 2.72-5.083 5.435-8.68 8.143-3.595 2.708-7.416 4.658-11.459 5.85-4.043 1.192-8.314 1.612-12.813 1.26-4.499-.352-8.364-1.044-11.599-2.075-3.233-1.03-6.625-2.488-10.17-4.372-3.546-1.885-5.898-3.237-7.055-4.055a427.874 427.874 0 0 1-3.714-2.66c-1.855-1.527-3.117-3.43-3.787-5.704-.67-2.275-.634-4.528.112-6.763a80.151 80.151 0 0 1 1.623-4.278c.587-1.424 1.835-3.868 3.745-7.33 1.91-3.461 3.944-6.55 6.105-9.262 2.161-2.711 5.036-5.435 8.624-8.172 3.588-2.737 7.404-4.701 11.447-5.893 4.044-1.192 8.301-1.607 12.772-1.247 4.47.363 8.38 1.1 11.732 2.219 3.351 1.117 6.713 2.584 10.086 4.397 3.373 1.814 5.768 3.214 7.19 4.198 1.418.987 2.614 1.885 3.586 2.697M246.83 263.922c.357-.971 1.002-1.671 1.933-2.101l6.377-2.944c.93-.43 1.88-.465 2.851-.107.972.358 1.671 1.002 2.101 1.93.43.932.465 1.882.107 2.853-.358.972-1 1.67-1.93 2.1l-6.378 2.945c-.93.429-1.88.465-2.853.107-.97-.358-1.67-1.001-2.1-1.931-.429-.93-.466-1.88-.108-2.852m-8.966 41.855l-2.943-6.377c-.43-.93-.467-1.88-.109-2.852.358-.971 1.002-1.671 1.933-2.101.93-.428 1.88-.465 2.851-.107.971.357 1.672 1.002 2.101 1.932l2.944 6.377c.43.93.464 1.88.107 2.852-.357.97-1 1.67-1.932 2.1-.93.43-1.88.466-2.85.108-.972-.357-1.672-1.001-2.102-1.932m-38.476 1.624c.104-1.781.558-4.288 1.363-7.52l18.28 6.732c-1.504 3.032-2.807 5.226-3.913 6.58-1.575 2.179-3.145 3.599-4.713 4.263-1.568.662-3.469.583-5.7-.24-2.233-.822-3.72-1.99-4.459-3.502-.738-1.513-1.024-3.617-.858-6.313m2.934-13.806c.353-1.856.377-3.72.076-5.596-.302-1.875-.962-4.351-1.978-7.428-.968-3.057-1.506-5.752-1.613-8.08-.108-2.326.301-4.754 1.232-7.278 2.11-5.728 5.964-9.906 11.563-12.53 5.598-2.623 11.311-2.865 17.137-.718 5.826 2.145 10.018 6.034 12.576 11.662 2.557 5.629 2.783 11.309.672 17.037-.93 2.525-2.19 4.639-3.782 6.339-1.592 1.703-3.748 3.404-6.47 5.104-2.77 1.68-4.878 3.137-6.324 4.369a16.09 16.09 0 0 0-3.572 4.308l-.582 1.357-19.299-7.11c.167-.6.288-1.08.364-1.436m-1.992-43.99l-2.944-6.377c-.429-.93-.466-1.88-.108-2.852.358-.971 1.002-1.67 1.932-2.1.931-.428 1.881-.464 2.85-.107.972.357 1.673 1.002 2.102 1.93l2.943 6.379c.431.93.466 1.88.11 2.85-.36.974-1.002 1.673-1.934 2.102-.93.43-1.879.466-2.85.107-.972-.357-1.67-1-2.1-1.931m-18.504 32.718c.358-.971 1.002-1.671 1.932-2.1l6.378-2.945c.93-.428 1.88-.464 2.85-.107.973.358 1.672 1.002 2.101 1.932.43.93.466 1.88.108 2.85-.358.973-1 1.673-1.932 2.102L186.886 287c-.93.43-1.88.465-2.853.108-.97-.358-1.67-1.001-2.099-1.932-.429-.93-.466-1.881-.108-2.852" fill="#010202" opacity=".1"/><g filter="url(#a)" transform="translate(170 48)"><g filter="url(#b)" transform="translate(62)"><path fill="#FEFEFE" d="M86.44 77.486L47.851 36.573a8.166 8.166 0 0 1-2.358-3.913L36.336 6.028l2.018-.534A2.354 2.354 0 0 0 37.15.942l-4.413 1.64A120.026 120.026 0 0 1 10.258 8.53l-4.646.757a2.355 2.355 0 0 0 1.204 4.551l2.018-.533 5.212 27.676a8.166 8.166 0 0 1-.114 4.567L.628 100.19c-1.27 4.559 2.89 8.773 7.464 7.563l75.6-20.004c4.574-1.21 6.105-6.93 2.747-10.263"/><path fill="#D9E0EC" d="M37.754.863a2.38 2.38 0 0 0-.604.08l-4.413 1.64a119.843 119.843 0 0 1-22.478 5.946l-4.647.758a2.354 2.354 0 1 0 1.205 4.551l2.017-.534 5.213 27.677a8.166 8.166 0 0 1-.114 4.567L.629 100.19c-1.12 4.02 1.983 7.772 5.869 7.772.52 0 1.054-.067 1.595-.21L83.692 87.75c4.574-1.21 6.105-6.93 2.748-10.264L47.852 36.573a8.164 8.164 0 0 1-2.357-3.913L36.337 6.027l2.018-.533a2.354 2.354 0 0 0-.601-4.63M9.549 10.856l-1.273.337-2.063.54a.17.17 0 1 1-.084-.319l3.42-.558M33.54 4.612l.73 2.125L43.407 33.3a10.327 10.327 0 0 0 2.907 4.823l38.538 40.86.025.026.025.026a3.895 3.895 0 0 1 1.03 3.814 3.895 3.895 0 0 1-2.797 2.79l-75.6 20.002a4.027 4.027 0 0 1-1.036.138c-1.204 0-2.37-.589-3.12-1.575-.436-.576-1.103-1.788-.646-3.428l.01-.034.008-.035 13.287-54.573a10.32 10.32 0 0 0 .14-5.63L10.98 12.9l-.416-2.208.046-.008a122.346 122.346 0 0 0 22.888-6.056l.043-.016m4.214-1.566a.175.175 0 0 1 .163.128c.004.017.018.07-.018.13a.16.16 0 0 1-.104.08l-2.018.533-1.271.336 3.248-1.207"/><path fill="#E9507E" d="M8.297 102.374l72.557-19.198c1.574-.417 2.13-2.365 1.013-3.55L54.833 50.906c-18.455 10.888-29.274 2.09-39.736 10.514l-9.435 38.37c-.385 1.583 1.06 3 2.635 2.585"/><path stroke="#FEFEFE" stroke-width="1.455" d="M28.715 70.262a3.847 3.847 0 1 0-7.438 1.968 3.847 3.847 0 0 0 7.438-1.968z" opacity=".3"/><path fill="#FEFEFE" fill-opacity=".4" d="M44.127 67.582a1.476 1.476 0 1 0-2.853.756 1.476 1.476 0 0 0 2.853-.756m-1.08 13.216a3.118 3.118 0 1 0-6.028 1.594 3.118 3.118 0 0 0 6.028-1.594"/><path stroke="#FEFEFE" stroke-width="1.455" d="M58.52 72.504a3.118 3.118 0 1 0-6.028 1.594 3.118 3.118 0 0 0 6.028-1.594z" opacity=".3"/><path fill="#FEFEFE" fill-opacity=".2" d="M52.42 41.417c-.195-1.653-4.568-4.844-4.568-4.844a8.158 8.158 0 0 1-2.358-3.912L36.336 6.028l2.018-.534A2.355 2.355 0 0 0 37.15.942l-4.413 1.64A119.952 119.952 0 0 1 10.258 8.53l-4.646.757a2.355 2.355 0 0 0 1.204 4.552l2.018-.534 5.212 27.677a8.162 8.162 0 0 1-.114 4.566L.628 100.191c-1.27 4.558 2.89 8.772 7.464 7.561l11.595-3.068S55.14 64.485 52.42 41.417"/><path fill="#E9507E" d="M25.587 37.045a2.938 2.938 0 0 0-2.535 1.459 2.933 2.933 0 0 0 3.283 4.306 2.912 2.912 0 0 0 1.784-1.36 2.933 2.933 0 0 0-2.532-4.404m0 1.456a1.476 1.476 0 1 1-.004 2.951 1.476 1.476 0 0 1 .004-2.952m16.257 11.054a2.12 2.12 0 1 0-4.098 1.085 2.12 2.12 0 0 0 4.098-1.085M31.736 23.457a3.36 3.36 0 1 0-6.495 1.72 3.36 3.36 0 0 0 6.495-1.72"/><path fill="#FEFEFE" d="M12.88 14.02a109.407 109.407 0 0 0 20.387-5.393"/><path stroke="#D9E0EC" stroke-width="2.183" d="M12.88 14.02a109.407 109.407 0 0 0 20.387-5.393"/><path fill="#CE3F6D" d="M80.64 78.326a2.113 2.113 0 0 1-.93.525L7.153 98.049a2.112 2.112 0 0 1-1.068.004l-.423 1.737c-.385 1.582 1.06 3 2.635 2.584l72.557-19.2c1.574-.415 2.13-2.363 1.013-3.547l-1.227-1.301z"/></g><g filter="url(#c)" transform="translate(0 29)"><path fill="#FEFEFE" d="M86.652 101.575L76.596 46.243a8.165 8.165 0 0 1 .155-4.566l6.837-27.321 1.983.652a2.354 2.354 0 1 0 1.47-4.472l-4.593-1.031A119.903 119.903 0 0 1 60.36 2.242L56.051.344a2.355 2.355 0 0 0-1.47 4.473l1.982.652L45.85 31.515a8.162 8.162 0 0 1-2.584 3.767L2.331 73.846c-3.549 3.129-2.358 8.929 2.136 10.407l74.288 24.43c4.495 1.478 8.895-2.483 7.897-7.108"/><path fill="#D9E0EC" d="M55.315.226a2.355 2.355 0 0 0-.735 4.59l1.983.653L45.85 31.515a8.162 8.162 0 0 1-2.584 3.767L2.331 73.846c-3.549 3.129-2.358 8.929 2.136 10.407l74.288 24.43a6.165 6.165 0 0 0 1.934.315c3.724 0 6.816-3.47 5.963-7.423L76.596 46.243a8.165 8.165 0 0 1 .155-4.566l6.837-27.321 1.982.652a2.355 2.355 0 0 0 1.471-4.472l-4.594-1.03A119.93 119.93 0 0 1 60.36 2.242L56.051.344a2.36 2.36 0 0 0-.736-.118M83.02 11.87l3.381.758a.172.172 0 0 1-.094.315.155.155 0 0 1-.054-.01l-1.982-.652-1.25-.411M59.436 4.22l.043.019a122.331 122.331 0 0 0 22.49 7.396l.045.01-.545 2.18-6.819 27.249a10.347 10.347 0 0 0-.19 5.629l10.043 55.262.006.035.008.035a3.853 3.853 0 0 1-.773 3.292c-.762.945-1.876 1.486-3.056 1.486-.417 0-.838-.07-1.252-.205L5.15 82.179a3.897 3.897 0 0 1-2.628-2.95 3.898 3.898 0 0 1 1.254-3.746l.026-.024.027-.024L44.71 36.92a10.332 10.332 0 0 0 3.187-4.643L58.582 6.3l.855-2.08M55.315 2.41h.008l3.172 1.398-1.25-.412-1.983-.652a.172.172 0 1 1 .053-.334"/><path fill="#A3C850" d="M7.57 79.855l71.299 23.447c1.546.508 3.073-.822 2.782-2.424l-7.013-38.815c-21.408-.929-25.684-14.2-39.047-12.84L6.77 76.252c-1.184 1.116-.745 3.093.801 3.602"/><path stroke="#FEFEFE" stroke-width="1.455" d="M42.19 64.06a3.847 3.847 0 1 0-7.308-2.405 3.847 3.847 0 0 0 7.309 2.404z" opacity=".4"/><path fill="#FEFEFE" d="M56.573 70.211a1.475 1.475 0 1 0-2.8-.92 1.475 1.475 0 0 0 2.8.92m-8.108 10.493a3.118 3.118 0 1 0-5.924-1.948 3.118 3.118 0 0 0 5.924 1.948" opacity=".4"/><path stroke="#FEFEFE" stroke-width="1.455" d="M65.958 82.182a3.118 3.118 0 1 0-5.923-1.948 3.118 3.118 0 0 0 5.923 1.948z" opacity=".4"/><path fill="#FEFEFE" fill-opacity=".2" d="M79.598 30.303c1.364-3.877 3.99-15.947 3.99-15.947l1.983.652a2.353 2.353 0 1 0 1.47-4.472l-4.593-1.03A119.906 119.906 0 0 1 60.36 2.242L56.05.345a2.353 2.353 0 1 0-1.471 4.472l1.984.652L45.85 31.515a8.17 8.17 0 0 1-2.584 3.767L2.33 73.846c-3.55 3.129-2.358 8.929 2.137 10.407l14.793 4.865s44.42-13.58 60.337-58.815"/><path fill="#A3C850" d="M56.072 34.03c-1.268 0-2.387.81-2.783 2.015a2.933 2.933 0 0 0 2.783 3.847c1.269 0 2.388-.81 2.784-2.016a2.912 2.912 0 0 0-.168-2.236 2.914 2.914 0 0 0-1.7-1.463 2.917 2.917 0 0 0-.916-.147m0 1.455a1.473 1.473 0 0 1 1.401 1.936 1.476 1.476 0 1 1-1.401-1.936m8.412 18.368a2.119 2.119 0 1 0-4.028-1.325 2.12 2.12 0 1 0 4.028 1.325m5.748-27.39a3.359 3.359 0 1 0-6.383-2.1 3.359 3.359 0 0 0 6.383 2.1"/><path fill="#FEFEFE" d="M59.566 8.275a109.438 109.438 0 0 0 20.031 6.588"/><path stroke="#D9E0EC" stroke-width="2.183" d="M59.566 8.275a109.438 109.438 0 0 0 20.031 6.588"/><path fill="#87B53C" d="M81.332 99.119a2.121 2.121 0 0 1-1.066-.066L8.966 75.606a2.124 2.124 0 0 1-.897-.58l-1.3 1.227c-1.185 1.116-.745 3.094.8 3.602l71.299 23.447c1.546.508 3.073-.822 2.782-2.424l-.32-1.76z"/></g></g><g filter="url(#d)" transform="translate(9 19)"><path fill="#E5352A" d="M89.401 224.267H50.585c0-19.533.668-40.132 8.651-58.384 7.705-17.617 25.031-38.617 63.818-38.617v38.74c-26.104 0-33.653 13.068-33.653 58.261"/><path fill="#E5352A" d="M89.401 224.267H50.585c0-19.533.668-40.132 8.651-58.384 7.705-17.617 25.031-38.617 63.818-38.617v38.74c-26.104 0-33.653 13.068-33.653 58.261"/><path fill="#FEFEFE" fill-opacity=".2" d="M87.33 224.267h2.071c0-45.193 7.549-58.261 33.653-58.261v-2.21c-27.445 0-35.569 13.611-35.724 60.471"/><path fill="#010202" fill-opacity=".1" d="M69.918 172.419c6.958-15.909 21.767-34.572 53.135-38.043v-7.11c-38.786 0-56.113 21-63.817 38.616-7.982 18.252-8.65 38.851-8.65 58.385h10.717c.205-17.54 1.518-35.62 8.615-51.848"/><path fill="#CFE8F9" d="M50.733 264.856h38.519v-17.223H50.733z"/><path fill="#A5CFEB" d="M50.734 264.856H56.9v-17.223h-6.166z"/><path fill="#FEFEFE" fill-opacity=".5" d="M84.615 264.856h4.637v-17.223h-4.637z"/><path fill="#3F4F5A" d="M210.056 224.339H37.108v23.294l173.71.76c6.849 0 12.43-4.179 12.43-12.407 0-5.824-5.073-11.647-13.192-11.647"/><path fill="#2E3540" d="M208.154 227.529H37.108v20.104l173.71.76c3.863 0 7.321-1.33 9.603-3.964.592-1.515.925-3.263.925-5.253 0-5.824-5.075-11.647-13.192-11.647"/><path fill="#2E3540" d="M21.049 238.728c0 10.56 6.887 18.276 17.466 18.276 10.581 0 20.002-7.717 20.002-18.276 0-10.559-8.576-19.962-19.157-19.962-10.58 0-18.311 9.403-18.311 19.962"/><path fill="#2E3540" fill-opacity=".1" d="M89.253 247.633H50.734V255.533c2.306-1.33 4.273-3.132 5.725-5.285l32.794.14v-2.755z"/><path fill="#2E3540" d="M60.766 237.233c0-4.396-1.253-8.621-3.416-12.26l-27.665-.119v22.75l28.166.12a20.175 20.175 0 0 0 2.915-10.491"/><path fill="#CFE8F9" fill-opacity=".2" d="M24.317 242.102c0-9.892 6.344-17.067 16.255-17.067 6.245 0 11.738 3.186 14.953 8.015-2.381-7.105-7.399-12.232-15.319-12.232-9.911 0-17.945 7.175-17.945 17.067 0 3.66 1.104 7.902 2.992 10.738-.599-1.785-.936-4.535-.936-6.521"/><path fill="#3F4F5A" d="M188.091 280.187H29.684c0-8.467 6.877-15.331 15.361-15.331l128.446-.76c8.484 0 16.122 7.624 16.122 16.091h-1.522z"/><path fill="#2E3540" d="M175.267 266.72l-128.446.76c-7.586 0-13.871 5.492-15.12 12.707H189.614c0-2.576-.711-5.074-1.935-7.303-3.028-3.691-7.582-6.164-12.412-6.164m-66.108-44.992h78.365c1.121 0 2.03.907 2.03 2.026v.954h-82.425v-.954c0-1.119.908-2.026 2.03-2.026"/><path fill="#010202" fill-opacity=".1" d="M99.01 147.312a5.36 5.36 0 0 0 1.2 7.495 5.384 5.384 0 0 0 7.51-1.197 5.36 5.36 0 0 0-1.2-7.495 5.383 5.383 0 0 0-7.51 1.197"/><path fill="#A5CFEB" d="M98.033 146.337a5.36 5.36 0 0 0 1.2 7.494 5.384 5.384 0 0 0 7.509-1.197 5.36 5.36 0 0 0-1.2-7.495 5.383 5.383 0 0 0-7.509 1.198"/><path fill="#90BAD6" d="M102.393 144.606a4.909 4.909 0 0 0-3.963 2.018 4.878 4.878 0 0 0 3.953 7.74 4.908 4.908 0 0 0 3.963-2.016 4.879 4.879 0 0 0-3.953-7.742m-.01 10.734a5.854 5.854 0 0 1-4.746-9.29 5.89 5.89 0 0 1 4.756-2.42 5.856 5.856 0 0 1 4.746 9.29 5.895 5.895 0 0 1-4.756 2.42"/><path fill="#FEFEFE" fill-opacity=".3" d="M103.86 146.814a4.438 4.438 0 0 0-3.689 5.082c.112.699.385 1.33.771 1.87a4.442 4.442 0 0 1-3.37-3.62 4.445 4.445 0 1 1 8.01-3.27 4.442 4.442 0 0 0-1.722-.062"/><path fill="#2E3540" d="M140.661 197.025h15.36a5.61 5.61 0 0 0 5.616-5.605v-2.23h-26.592v2.23a5.61 5.61 0 0 0 5.616 5.605M135.045 21.541h26.592V1.485h-26.592z"/><path fill="#010202" fill-opacity=".1" d="M135.045 21.541h11.013V1.485h-11.013z"/><path fill="#CFE8F9" d="M122.397 189.995h51.888V75.201h-51.888z"/><path fill="#ACCEE1" d="M122.397 75.202h51.888V21.541h-51.888z"/><path fill="#A5CFEB" d="M122.397 189.995h16.635V75.201h-16.635z"/><path fill="#FEFEFE" fill-opacity=".5" d="M167.333 189.995h6.952V75.201h-6.952z"/><path fill="#010202" fill-opacity=".1" d="M133.068 117.245a14.637 14.637 0 0 0-8.627-2.796 14.793 14.793 0 0 0-11.939 6.076c-4.763 6.562-3.291 15.77 3.286 20.526a14.635 14.635 0 0 0 8.63 2.798c4.712 0 9.175-2.272 11.94-6.076 4.762-6.565 3.286-15.774-3.29-20.528"/><path fill="#E7F3FC" d="M109.488 117.67c-5.647 9.03-2.695 16.505 4.201 21.491 6.897 4.986 16.537 2.69 21.533-4.194 4.996-6.881 3.456-15.743-3.44-20.73-6.896-4.986-17.784-3.776-22.294 3.434"/><path fill="#2E3540" fill-opacity=".1" d="M118.638 124.968a5.56 5.56 0 0 0 1.245 7.775 5.585 5.585 0 0 0 7.789-1.242 5.56 5.56 0 0 0-1.245-7.775 5.585 5.585 0 0 0-7.789 1.242"/><path fill="#3F4F5A" d="M118.169 122.637c-1.827 2.518-2.025 6.796.496 8.62 2.523 1.823 6.05 2.02 7.877-.496 1.827-2.518 2.024-6.796-.498-8.62-2.522-1.824-6.048-2.022-7.875.496"/><path fill="#9EC2D5" d="M131.019 69.125l-3.044.76-.762-43.298 4.567.759zM140.441 69.884l-3.805-.759-.761-41.778 5.328-.76zM149.864 69.125l-3.806.76V26.587l4.567.759zM160.047 69.125l-3.806.76-.76-43.298 4.566.759zM168.708 69.125l-3.044.76-.762-41.779 4.567-.76z"/><path fill="#CFE8F9" d="M133.883 6.077h28.916V0h-28.916z"/><path fill="#FEFEFE" fill-opacity=".5" d="M159.063 6.077h3.736V0h-3.736z"/><path fill="#A5CFEB" d="M133.883 6.077h6.533V0h-6.533z"/><ellipse cx="125.5" cy="279.737" fill="#000" fill-opacity=".1" filter="url(#e)" rx="125.5" ry="6.263"/></g></g></svg>