<svg xmlns="http://www.w3.org/2000/svg" width="317" height="313" viewBox="0 0 317 313"><defs><filter id="a" width="200%" height="200%" x="-50%" y="-50%" filterUnits="objectBoundingBox"><feOffset in="SourceAlpha" result="shadowOffsetOuter1"/><feGaussianBlur stdDeviation="4" in="shadowOffsetOuter1" result="shadowBlurOuter1"/><feColorMatrix values="0 0 0 0 0 0 0 0 0 0 0 0 0 0 0 0 0 0 0.2 0" in="shadowBlurOuter1" result="shadowMatrixOuter1"/><feMerge><feMergeNode in="shadowMatrixOuter1"/><feMergeNode in="SourceGraphic"/></feMerge></filter></defs><g fill="none" fill-rule="evenodd" filter="url(#a)" transform="translate(8 7)"><path fill="#42210B" d="M39.256 112.194c16.58-6.115 52.457-6.45 60.68-2.55 4.648 2.206 0-25.658 0-25.658l-35.24-21.481-19.727 7.16s-11.742 44.752-5.713 42.529z"/><path fill="#B3B3B3" d="M87.42 105.89c-1.547.646-31.84 0-31.84 0l.786 4.57 28.54 3.827 2.514-8.398z"/><path fill="#FAAD40" d="M79.818 100.97c0-12.094-8.078-10.757-8.078-10.757s-8.078-1.337-8.078 10.758c0 9.397-10.575 16.444 8.078 16.444s8.078-7.047 8.078-16.444"/><path fill="#FAAD40" d="M62.931 109.432s-18.953 2.45-22.07 4.211c-3.119 1.762.504 24.487 30.9 24.524 40.427.048 31.02-21.894 33.075-23.363 2.055-1.47-33.788-7.535-33.788-7.535l-8.117 2.163zm7.943-6.7c-18.261 0-29.9-15.004-24.871-59.638 1.352-12.006 24.87-11.452 24.87-11.452s23.05-.48 24.871 11.452c6.334 41.481-6.61 59.638-24.87 59.638"/><path fill="#461A00" d="M80.105 61.622a2.535 2.535 0 1 0 5.07 0 2.535 2.535 0 0 0-5.07 0"/><path fill="#FBB03B" d="M104.824 56.46c0 7.377.484 13.357-4.848 13.357s-2.156-5.98-2.156-13.357c0-7.377.965-8.072 2.156-8.072 1.191 0 4.848.695 4.848 8.072"/><path fill="#461A00" d="M61.614 61.622a2.535 2.535 0 1 1-5.07 0 2.535 2.535 0 0 1 5.07 0"/><path fill="#000" fill-opacity=".1" d="M64.252 72.46c.285 6.13 5.066 9.582 6.608 9.582 1.541 0 6.322-3.453 6.606-9.583 0 0-4.183 3.964-6.606 3.964-2.424 0-6.608-3.964-6.608-3.964m-.617 29.354s-.22 3.116-.954 4.57c-1.161 2.303 6.456 4.425 9.319 4.425 2.477 0 7.638.033 9.099-3.538 0 0-1.38-4.146-1.28-6.3 0 0-4.848 1.362-8.96 1.362-4.11 0-7.224-.52-7.224-.52"/><path fill="#FBB03B" d="M36.895 56.46c0 7.377-.484 13.357 4.848 13.357s2.156-5.98 2.156-13.357c0-7.377-.965-8.072-2.156-8.072-1.191 0-4.848.695-4.848 8.072"/><path fill="#000" fill-opacity=".1" d="M44.837 51.023s6.197 1.21 16.776.721c12.33-.57 15.23-6.7 23.543-3.635 8.314 3.065 7.282 4.504 10.365 5.445 3.083.941 0 0 0 0l-.028-24.188-51.062 11.736.406 9.921z"/><path fill="#FFF" d="M33.825 36.092s1.797-8.457 7.67-11.739 24.666-9.742 24.666-9.742 3.67 6.391-1.909 9.397c-5.579 3.005-14.49-.873-20.382 5.358-4.372 4.626-5.605 8.451-10.045 6.726"/><path fill="#603813" d="M109.728 101.458c-4.671-5.838-7.55-11.59-1.193-27 6.265-15.192 1.828-31.7-8.903-45.499-5.154-8.414-.908-17.602-23.767-18.68-7.263-.344-13.164-.115-33.152 8.537C22.725 27.468 27.26 61.86 32.455 74.458c6.356 15.41 3.478 21.162-1.193 27-5.37 6.713-14.32 2.983-3.282 10.67 11.039 7.684 30.847-12.295 30.847-12.295S47.095 90.881 47.97 81.17c.815-9.057-4.082-35.729-.777-35.06 23.135 4.68 41.352-14.763 44.527-4.023.742 2.51 1.57 10.171 3.017 13.337 0 0-3.83 17.222-2.611 24.851 1.217 7.63-9.341 19.25-9.341 19.25s19.186 20.287 30.225 12.602c11.039-7.686 2.088-3.956-3.282-10.669"/><path fill="#FFF" fill-opacity=".2" d="M33.314 36.166s1.826-8.593 7.793-11.927c5.967-3.334 25.061-9.898 25.061-9.898s3.73 6.494-1.94 9.547c-5.668 3.054-14.723-.886-20.708 5.444-4.442 4.7-5.695 8.587-10.206 6.834"/><path fill="#9FDAF1" d="M47.492 117.397s5.589-3.055 13.29.924c7.703 3.979 13.074 3.619 20.155.005 7.08-3.615 12.74-3.52 12.74-3.52s-5.474 27.383-15.893 47.383H62.87l-15.378-44.792z"/><path fill="#31363F" d="M90.524 110.459s-20.415 61.18-21.368 63.758c-3.093 8.362 2.41 76.235 2.799 82.019 0 0 34.704.072 35.204-1.476.265-.822.098-23.657-1.464-53.25-.77-14.588 6.552-36.936 6.658-37.07.227-.285 13.685 22.907 13.875 28.465.19 5.557 1.614 63.284 1.614 63.284l14.92-5s-2.288-70.425-3.237-75.677c-.948-5.251-19.423-53.827-21.22-56.053-5.36-6.642-27.781-9-27.781-9"/><path fill="#000" fill-opacity=".1" d="M49.157 108.137s29.977 67.454 30.931 70.033c3.093 8.362-3.332 72.263-3.72 78.047l-18.218-.15s2.712-28.575 4.274-58.167c.77-14.589-6.087-35.676-3.96-35.676.365 0-10.036-37.283-8.293-39.55 1.744-2.27-1.014-14.537-1.014-14.537"/><path fill="#31363F" d="M46.314 108.137s29.977 67.454 30.931 70.033c3.093 8.362-1.808 74.177-2.195 79.961 0 0-41.539-1.117-42.039-2.665-.265-.822 3.212-27.974 4.774-57.566.77-14.589-6.088-35.676-3.96-35.676.365 0-11.78 25.123-11.97 30.68-.19 5.558-6.935 63.285-6.935 63.285l-14.92-4s7.78-75.402 8.727-80.654c.948-5.25 15.062-46.655 16.805-48.924 1.744-2.269 20.782-14.474 20.782-14.474"/><path fill="#000" fill-opacity=".1" d="M68.216 155.912l6.64-13.155-17.086-25.928z"/><path fill="#F2F2F2" d="M55.58 105.89s2.467 18.81 12.248 39.7c3.664 7.824 4.33 19.73 4.33 19.73s-28.132-30.562-27.727-32.884c.406-2.32 5.943-5.85 6.05-7.47.105-1.62-10.044.941-10.533-.653-.489-1.595 2.427-15.22 2.427-15.22l13.204-3.204z"/><path fill="#F2F2F2" d="M87.42 105.89s-5.898 20.353-15.68 41.243c-3.663 7.825.418 18.186.418 18.186s26.815-30.56 26.41-32.883c-.406-2.32-5.943-5.85-6.05-7.47-.105-1.62 10.044.941 10.533-.653.489-1.595-2.427-15.22-2.427-15.22L87.42 105.89z"/><path fill="#9FDAF1" d="M42.644 193.831H73.05v-24.635H42.644z"/><path fill="#FFF" d="M45.076 191.721h25.541v-15.489H45.076z"/><path fill="#FAAD40" d="M57.847 179.871h11.371v-2.053H57.847z"/><path fill="#9FDAF1" d="M57.847 183.567h11.371v-2.053H57.847zM57.847 186.714h11.371v-2.053H57.847zM57.847 190.136h11.371v-2.053H57.847zM46.909 190.136h9.17v-12.318h-9.17z"/><path fill="#0EA2DC" d="M53.957 181.411a2.566 2.566 0 1 1-5.132 0 2.566 2.566 0 0 1 5.132 0m-6.503 8.778h9v-2.619c0-1.417-2.477-2.566-4.5-2.566s-4.5 1.15-4.5 2.566v2.62zm14.737-17.674h-8.688l1.467-6.432a2.9 2.9 0 0 1 2.828-2.256h.098a2.9 2.9 0 0 1 2.828 2.256l1.467 6.432z"/><path fill="#FFF" d="M59.466 167.229a1.694 1.694 0 1 1-3.388 0 1.694 1.694 0 0 1 3.388 0"/><path fill="#A67C52" d="M244.41 85.023c0-11.241-7.467-10.01-7.467-10.01s-7.466-1.231-7.466 10.01c0 8.697-9.846 15.26 7.466 15.26 17.23 0 7.467-6.563 7.467-15.26"/><path fill="#A67C52" d="M228.656 92.9s-17.64 2.297-20.513 3.938c-2.872 1.64.493 22.729 28.718 22.81 37.58.083 28.8-20.348 30.687-21.661 1.887-1.313-31.425-6.974-31.425-6.974l-7.467 1.887zm7.385-6.236c-16.985 0-27.815-13.95-23.138-55.384 1.23-11.16 23.138-10.667 23.138-10.667s21.415-.41 23.138 10.667c5.908 38.48-6.153 55.384-23.138 55.384"/><path fill="#461A00" d="M246.953 46.049a2.379 2.379 0 1 1 0 4.757 2.379 2.379 0 0 1 0-4.757"/><path fill="#FBB03B" d="M267.63 43.67c0 6.891.41 12.39-4.513 12.39s-1.969-5.58-1.969-12.39c0-6.81.903-7.468 1.97-7.468 1.066 0 4.512.657 4.512 7.467"/><path fill="#461A00" d="M225.128 46.049a2.379 2.379 0 1 1 0 4.757 2.379 2.379 0 0 1 0-4.757"/><path fill="#000" fill-opacity=".1" d="M229.887 58.52c.246 5.662 4.677 8.862 6.154 8.862 1.477 0 5.907-3.2 6.154-8.862 0 0-3.857 3.692-6.154 3.692-2.216 0-6.154-3.692-6.154-3.692m-.492 26.503l-.574 5.333s5.66 3.857 8.287 3.857c2.297 0 7.056 0 8.45-3.282.74-1.805-1.312-3.857-1.148-5.826 0 0-4.512 1.23-8.287 1.23-3.774 0-6.728-1.312-6.728-1.312"/><path fill="#FBB03B" d="M204.533 43.67c0 6.891-.41 12.39 4.513 12.39s1.97-5.58 1.97-12.39c0-6.81-.904-7.468-1.97-7.468-1.067 0-4.513.657-4.513 7.467"/><path fill="#000" d="M211.918 38.582s5.744 1.149 15.59.656c11.487-.492 14.332-6.235 22.127-3.364 7.795 2.872 6.819 4.185 9.819 5.087 3 .903 0 0 0 0V18.48l-47.727 10.912.19 9.19z"/><path fill="#000" d="M273.702 58.52c2.954-14.769-1.64-27.733-11.405-40.369-4.677-7.713-.82-16.082-21.744-17.067-6.646-.328-12.06-.082-30.276 7.795-18.298 7.877-15.754 40.205-11.24 51.856 4.43 11.652 9.188 14.77 26.091 17.067 0 0-8.698-5.497-10.092-11.897-1.477-6.893-4.349-32.82-1.395-32.164 21.17 4.266 38.482-13.375 41.353-3.529.657 2.298 1.395 9.272 2.79 12.226 0 0-3.528 15.754-2.379 22.728 1.148 6.974-8.288 14.113-8.288 14.113s22.318.738 26.585-20.759"/><path fill="#FFF" fill-opacity=".2" d="M201.661 24.715s1.641-7.877 7.138-10.913c5.416-3.036 22.893-9.025 22.893-9.025s3.446 5.907-1.805 8.697c-5.17 2.79-13.457-.82-18.954 5.005-4.02 4.35-5.169 7.877-9.272 6.236"/><path fill="#9B5CA4" d="M284.122 101.515c-.82-2.215-20.102-7.385-20.102-7.385s-5.333 11.734-14.687 16.493c-9.354 4.76-16.41 5.251-26.585 0-10.092-5.252-11.733-16.493-11.733-16.493S197.23 97.495 196 99.136c-1.23 1.641 15.016 55.548 15.016 55.548l-4.163 74.563a125.57 125.57 0 0 0 29.681 3.547c12.557 0 24.68-1.856 36.117-5.294-.925-35.423-.96-64.389-1.164-71.42-.246-8.288 13.457-52.35 12.636-54.565"/><path fill="#000" d="M299.795 154.602c-.903-4.923-14.36-50.544-15.918-52.595-1.641-2.297-9.682-7.63-9.682-7.63s-17.477 64.984-18.872 67.363c-2.635 4.392-1.441 56.2.162 73.628a124.451 124.451 0 0 0 18.268-4.197c-.972-6.397-1.786-45.46-2.184-52.856-.738-13.539 6.482-28.472 6.647-28.636.246-.246 9.107 15.918 9.27 21.087.066 2.038 1.11 34.811 1.539 42.523 4.636-2.143 8.118-3.559 12.427-6.232-2.664-16.778-1.272-50.354-1.657-52.455M204.45 94.377s-10.83 5.415-12.472 7.467c-1.64 2.05-12.718 43.979-13.62 48.902-.422 2.3-2.225 19.68-4.025 37.538a124.736 124.736 0 0 0 13.688 6.768c1.288-11.622 2.412-22.198 2.48-24.285.164-5.17 6.893-21.334 7.14-21.087.163.164 7.384 15.097 6.645 28.635-.414 7.702-1.279 47.048-2.304 53.65a124.617 124.617 0 0 0 18.353 3.789c1.62-17.521 2.851-69.59.197-74.013-1.477-2.38-16.082-67.364-16.082-67.364"/><path fill="#000" fill-opacity=".1" d="M236.533 232.79c10.426 0 20.551-2.106 30.235-6.05-.727-31.257-1.819-67.86-2.912-65.362-1.887 4.315-46.605 2.696-46.605 2.696l-3.762 65.229c7.471 2.282 15.171 3.488 23.044 3.488"/><path fill="#FAAD40" d="M105.318 216.493s-4.813 7.4-3.7 9.555c1.114 2.155-4.92 52.255-4.92 52.255l10.174 5.683s6.635-49.749 8.359-54.49c1.724-4.741 6.465-10.811 6.465-10.811l-16.378-2.192zm122.403 0s4.813 7.4 3.7 9.555c-1.114 2.155 4.92 52.258 4.92 52.258l-11.334 6.256s-5.475-50.325-7.199-55.066c-1.724-4.741-6.465-10.811-6.465-10.811l16.378-2.192z"/><path fill="#40B8BC" d="M150.779 149.978s-22.972 6.39-27.862 10.126c-4.89 3.735-23.022 48.853-23.022 55.01 0 6.156 17.796 9.586 21.509 10.143 3.712.556 8.912-14.238 8.912-14.238l2.154 27.345-.675 55.283s22.714 5.165 36.495 4.406c13.78-.758 34.927-5.11 34.927-5.11l-3.361-54.296L201 207.935s6.38 17.635 8.332 17.397c1.952-.237 20.072-5.477 23.562-7.508 3.332-1.939-14.654-54.612-19.826-57.773-5.172-3.16-35.374-11.206-41.248-10.923-5.875.282-21.041.85-21.041.85"/><path fill="#B3B3B3" d="M164.118 149.365c6.375 0 15.12 2.33 17.876 3.112.732-3.81.873-6.54.873-6.54s-11.09-3.368-18.75-3.367c-6.011.001-17.02 2.468-17.02 2.468s.272 2.713 1.337 6.51c3.11-.65 10.947-2.182 15.684-2.183"/><path fill="#FAAD40" d="M172.7 143.08c0-11.836-7.904-9.77-7.904-9.77s-7.905-2.066-7.905 9.77c0 9.194-10.347 16.09 7.905 16.09 18.25 0 7.904-6.896 7.904-16.09"/><path fill="#FAAD40" d="M140.491 152.705c-2.01 1.136 7.872 10.76 15.794 19.688 4.104 4.627 5.906 14.753 10.158 14.756 4.414.004 4.561-7.183 8.496-12.019 7.174-8.815 13.158-21.496 14.457-22.425 2.011-1.438-18.86-4.543-25.278-4.472-6.012.066-20.576 2.748-23.627 4.472m23.456-7.902c-8.777 0-29.257-16.953-24.337-60.627 1.324-11.748 24.337-11.206 24.337-11.206s22.554-.47 24.337 11.206c6.197 40.59-15.56 60.627-24.337 60.627"/><path fill="#461A00" d="M172.98 103.438a2.48 2.48 0 1 0 4.96 0 2.48 2.48 0 0 0-4.96 0"/><path fill="#FBB03B" d="M196.036 97.254c0 7.218.473 13.07-4.744 13.07s-2.11-5.852-2.11-13.07.945-7.898 2.11-7.898c1.166 0 4.744.68 4.744 7.898"/><path fill="#461A00" d="M154.886 103.438a2.48 2.48 0 1 1-4.959 0 2.48 2.48 0 0 1 4.96 0"/><path fill="#000" fill-opacity=".1" d="M157.469 114.042c.279 5.998 4.956 8.62 6.465 8.62 1.507 0 6.185-2.622 6.465-8.62 0 0-4.095 3.879-6.465 3.879-2.371 0-6.465-3.879-6.465-3.879m-.565 28.23s.233 3.065-1.209 6.813c-.9 2.34 6.552 3.62 9.354 3.62 2.424 0 6.625-2.822 8.055-6.317-.547-2.167-.306-4.326-.547-5.537 0 0-4.6 3.56-8.624 3.56-4.022 0-7.029-2.138-7.029-2.138"/><path fill="#FBB03B" d="M132.964 97.254c0 7.218-.473 13.07 4.744 13.07s2.109-5.852 2.109-13.07-.944-7.898-2.11-7.898c-1.165 0-4.743.68-4.743 7.898"/><path fill="#42210B" d="M138.455 69.6c2.603-4.25 2.99-.266 7.84.02 3.026.18-2.084 13.658-3.764 19.3-.718 2.415-1 9.719-2.393 12.769 0 0-10.925-16.288-1.683-32.09"/><path fill="#000" fill-opacity=".1" d="M143.087 87.453s4.03 2.381 14.382 1.903c12.064-.558 13.402-3.72 22-2.61 4.389.565 6.484 4.046 6.484 4.046l.454-17.826L143.55 83.49l-.464 3.964z"/><path fill="#603813" d="M189.378 74.562c-4.964-8.104-16.274-18.395-34.492-12.626-6.676 2.113-14.742 2.738-16.43 7.664-1.33 3.876 4.514 17.83 4.631 17.854 22.28 4.507 38.46-12.892 41.99-1.03.72 2.416 1.478 11.57 2.872 14.62 0 0 4.616-13.135 1.43-26.482"/><path fill="#FFF" fill-opacity=".2" d="M142.418 75.254s-1.45-5.213.385-6.063c3.026-1.4 14.286-5.04 14.286-5.04s1.794 3.304-.933 4.857c-2.727 1.554-7.082-.451-9.96 2.77-2.138 2.39-1.608 4.368-3.778 3.476"/><path fill="#F2F2F2" d="M160.877 170.128s2.583 7.684 3.586 10.004c2.514 5.813 1.51 13.588 1.51 13.588-.762.35-5.403 0-5.403 0 .636-17.228-9.791-20.006-9.791-20.006 2.485-3.33 10.098-3.586 10.098-3.586"/><path fill="#000" fill-opacity=".1" d="M170.504 172.205c-1.687 1.32-2.655 6.393-3.247 8.364a51.72 51.72 0 0 0-1.317 5.45c-.87 4.693-.29 7.847-.29 7.847l1.38-.266s4.798-16.91 3.474-21.395"/><path fill="#F2F2F2" d="M170.504 172.205c-1.758 1.403-1.052 5.962-2.754 10.287-2.18 5.538-1.777 11.229-1.777 11.229s2.079-.308 3.032-.375c.998-.071 2.715-.07 2.715-.07.353-13.981 6.482-17.75 6.482-17.75-2.486-3.331-6.1-4.597-7.698-3.321"/><path fill="#000" fill-opacity=".1" d="M170.504 172.205c-1.133.472-1.5 4.79-1.5 4.79s3.058-4.017 16.129 2.683c0 0 9.768-11.72 7.975-22.621-.69-4.183-21.564 14.715-22.604 15.148m-9.627-2.077l1.288 3.763s-5.653-4.223-15.728 7.456c0 0-10.761-10.223-8.537-27.433 0 0 2.176-.716 3.346.105 5.398 3.785 18.776 15.753 19.631 16.11"/><path fill="#E6E6E6" d="M147.098 145.038s3.356 11.662 4.359 13.983c2.514 5.813 9.42 11.107 9.42 11.107-9.06 1.321-14.44 10.098-14.44 10.098-11.366-13.009-8.285-26.775-8.285-26.775 2.485-3.33 8.946-8.413 8.946-8.413m35.77.898s-2.152 10.765-3.156 13.085c-2.514 5.813-9.209 13.184-9.209 13.184 4.766 1.879 14.44 6.417 14.44 6.417 11.366-13.009 8.075-25.171 8.075-25.171-2.486-3.331-10.15-7.515-10.15-7.515"/><path fill="#FFF" fill-opacity=".3" d="M103.594 211.464s15.655-44.535 19.68-46.69c4.025-2.155 11.986-5.603 11.986-5.603s2.724 4.74-1.596 7.758c-1.048.732-3.66 2.177-5.968 6.464-7.21 13.385-15.561 40.07-18.5 41.375-3.878 1.725-5.602-3.304-5.602-3.304"/><path fill="#000" fill-opacity=".1" d="M209.332 225.257s20.82-5.093 23.561-7.471c2.949-2.557-11.622-44.824-17.379-54.491-.875-1.47-5.134-7.103-4.171 3.633.523 5.824 3.981 44.253 1.074 48.992-2.907 4.74-3.085 9.337-3.085 9.337m-6.115 67.685l-3.362-54.296L201 207.857s-4.518-2.318-6.685 3.716c-2.166 6.034-13.51 85.217-13.51 85.217 11.206-.746 22.412-3.848 22.412-3.848"/></g></svg>