<svg xmlns="http://www.w3.org/2000/svg" width="437" height="330" viewBox="0 0 437 330"><defs><filter id="a" width="200%" height="200%" x="-50%" y="-50%" filterUnits="objectBoundingBox"><feOffset in="SourceAlpha" result="shadowOffsetOuter1"/><feGaussianBlur stdDeviation="9.5" in="shadowOffsetOuter1" result="shadowBlurOuter1"/><feColorMatrix values="0 0 0 0 0 0 0 0 0 0 0 0 0 0 0 0 0 0 0.2 0" in="shadowBlurOuter1" result="shadowMatrixOuter1"/><feMerge><feMergeNode in="shadowMatrixOuter1"/><feMergeNode in="SourceGraphic"/></feMerge></filter><filter id="b" width="200%" height="200%" x="-50%" y="-50%" filterUnits="objectBoundingBox"><feOffset in="SourceAlpha" result="shadowOffsetOuter1"/><feGaussianBlur stdDeviation="2" in="shadowOffsetOuter1" result="shadowBlurOuter1"/><feColorMatrix values="0 0 0 0 0 0 0 0 0 0 0 0 0 0 0 0 0 0 0.2 0" in="shadowBlurOuter1" result="shadowMatrixOuter1"/><feMerge><feMergeNode in="shadowMatrixOuter1"/><feMergeNode in="SourceGraphic"/></feMerge></filter><filter id="c" width="200%" height="200%" x="-50%" y="-50%" filterUnits="objectBoundingBox"><feOffset in="SourceAlpha" result="shadowOffsetOuter1"/><feGaussianBlur stdDeviation="2" in="shadowOffsetOuter1" result="shadowBlurOuter1"/><feColorMatrix values="0 0 0 0 0 0 0 0 0 0 0 0 0 0 0 0 0 0 0.2 0" in="shadowBlurOuter1" result="shadowMatrixOuter1"/><feMerge><feMergeNode in="shadowMatrixOuter1"/><feMergeNode in="SourceGraphic"/></feMerge></filter><filter id="d" width="200%" height="200%" x="-50%" y="-50%" filterUnits="objectBoundingBox"><feOffset in="SourceAlpha" result="shadowOffsetOuter1"/><feGaussianBlur stdDeviation="2" in="shadowOffsetOuter1" result="shadowBlurOuter1"/><feColorMatrix values="0 0 0 0 0 0 0 0 0 0 0 0 0 0 0 0 0 0 0.2 0" in="shadowBlurOuter1" result="shadowMatrixOuter1"/><feMerge><feMergeNode in="shadowMatrixOuter1"/><feMergeNode in="SourceGraphic"/></feMerge></filter><filter id="e" width="200%" height="200%" x="-50%" y="-50%" filterUnits="objectBoundingBox"><feOffset in="SourceAlpha" result="shadowOffsetOuter1"/><feGaussianBlur stdDeviation="2" in="shadowOffsetOuter1" result="shadowBlurOuter1"/><feColorMatrix values="0 0 0 0 0 0 0 0 0 0 0 0 0 0 0 0 0 0 0.2 0" in="shadowBlurOuter1" result="shadowMatrixOuter1"/><feMerge><feMergeNode in="shadowMatrixOuter1"/><feMergeNode in="SourceGraphic"/></feMerge></filter><filter id="f" width="200%" height="200%" x="-50%" y="-50%" filterUnits="objectBoundingBox"><feOffset in="SourceAlpha" result="shadowOffsetOuter1"/><feGaussianBlur stdDeviation="2" in="shadowOffsetOuter1" result="shadowBlurOuter1"/><feColorMatrix values="0 0 0 0 0 0 0 0 0 0 0 0 0 0 0 0 0 0 0.2 0" in="shadowBlurOuter1" result="shadowMatrixOuter1"/><feMerge><feMergeNode in="shadowMatrixOuter1"/><feMergeNode in="SourceGraphic"/></feMerge></filter><filter id="g" width="200%" height="200%" x="-50%" y="-50%" filterUnits="objectBoundingBox"><feOffset in="SourceAlpha" result="shadowOffsetOuter1"/><feGaussianBlur stdDeviation="2" in="shadowOffsetOuter1" result="shadowBlurOuter1"/><feColorMatrix values="0 0 0 0 0 0 0 0 0 0 0 0 0 0 0 0 0 0 0.2 0" in="shadowBlurOuter1" result="shadowMatrixOuter1"/><feMerge><feMergeNode in="shadowMatrixOuter1"/><feMergeNode in="SourceGraphic"/></feMerge></filter></defs><g fill="none" fill-rule="evenodd" filter="url(#a)" transform="translate(19 12)"><g fill="#010202" opacity=".1"><path d="M81.262 67.994l10.202-8.666c.975 1.628 2.171 3.654 2.756 5.029 1.221 2.881 1.267 4.655-1.385 6.908-2.653 2.253-4.398 1.923-7.048.254-1.264-.796-3.074-2.301-4.525-3.525m-9.557-5.101c-3.836-.72-6.395-1.938-8.649-4.585-4.884-5.738-3.98-14.519 2.04-19.631 6.019-5.113 14.84-4.592 19.723 1.145 2.254 2.648 3.012 5.396 3.14 9.264.066 3.862.741 5.688 1.996 7.781L79.072 66.11c-1.866-1.573-3.561-2.531-7.367-3.217M251.642 278.728c-.743-3.827-.553-6.653 1.08-9.723 3.54-6.652 12.045-9.052 19.02-5.35s9.742 12.084 6.202 18.735c-1.633 3.07-3.912 4.788-7.465 6.335-3.57 1.486-5.02 2.787-6.505 4.724l-12.611-6.693c.776-2.313 1.043-4.241.28-8.028m-1.227 10.755l11.823 6.275c-1.156 1.507-2.6 3.364-3.663 4.415-2.232 2.197-3.866 2.894-6.94 1.263-3.074-1.63-3.41-3.374-2.834-6.45.276-1.47 1.01-3.704 1.614-5.503m32.885-259.81a3.325 3.325 0 0 1 1.948-4.324l5.909-2.24a3.333 3.333 0 0 1 4.332 1.944 3.325 3.325 0 0 1-1.949 4.325l-5.91 2.24a3.445 3.445 0 0 1-2.566-.081 3.44 3.44 0 0 1-1.764-1.863zm-10.59 34.398l-2.242-5.9a3.325 3.325 0 0 1 1.947-4.327 3.33 3.33 0 0 1 4.33 1.945l2.244 5.902a3.324 3.324 0 0 1-1.947 4.325 3.448 3.448 0 0 1-2.568-.082 3.444 3.444 0 0 1-1.764-1.863zm-30.174-52.705l-2.244-5.9a3.326 3.326 0 0 1 1.948-4.327 3.334 3.334 0 0 1 4.332 1.946l2.243 5.902a3.325 3.325 0 0 1-1.948 4.325 3.456 3.456 0 0 1-2.566-.082 3.442 3.442 0 0 1-1.765-1.864zm-1.449 40.797c.28-.792.481-1.237.481-1.237.86-3.437.453-6.45-.892-11.795-1.344-5.344-1.44-9.212.622-13.791 4.467-9.922 16.274-14.714 26.592-10.081 10.318 4.634 14.563 16.635 10.094 26.557-2.062 4.58-5.023 7.074-9.92 9.615-4.96 2.514-7.486 4.21-9.426 7.162 0 0-.265.416-.672 1.15l-16.879-7.58zm-3.018 10.956c.177-1.755.882-4.344 1.63-6.685l15.988 7.18c-1.257 2.112-2.728 4.358-3.861 5.684-2.987 3.4-5.46 4.812-9.6 2.952-4.14-1.858-4.787-4.673-4.157-9.13zm-14.275-21.016a3.325 3.325 0 0 1 1.948-4.326l5.91-2.24a3.33 3.33 0 0 1 4.33 1.945 3.327 3.327 0 0 1-1.948 4.326l-5.909 2.24a3.46 3.46 0 0 1-2.567-.082 3.446 3.446 0 0 1-1.764-1.863zm-2.32 226.924l-6.317-.226a3.328 3.328 0 0 1-3.235-3.472 3.328 3.328 0 0 1 3.476-3.23l6.318.225a3.327 3.327 0 0 1 3.234 3.473 3.439 3.439 0 0 1-1.072 2.33 3.45 3.45 0 0 1-2.404.9zm-14.327 31.513c-1.55-.845-3.666-2.501-5.535-4.097l12.832-11.926c1.46 1.977 2.961 4.202 3.746 5.76 1.978 4.068 2.32 6.893-1.002 9.982-3.323 3.087-6.17 2.59-10.04.281zm-13.304-54.611a3.329 3.329 0 0 1-3.236-3.473l.227-6.308a3.329 3.329 0 0 1 3.476-3.23 3.328 3.328 0 0 1 3.236 3.472l-.227 6.307a3.444 3.444 0 0 1-1.072 2.33 3.455 3.455 0 0 1-2.404.902zm-11.631 59.588a3.328 3.328 0 0 1-3.236-3.471l.227-6.309a3.327 3.327 0 0 1 3.476-3.23 3.327 3.327 0 0 1 3.235 3.47l-.226 6.31a3.444 3.444 0 0 1-1.073 2.33 3.447 3.447 0 0 1-2.403.9zm15.997-12.009a17.288 17.288 0 0 1-.956-.923c-2.838-2.125-5.775-2.921-11.229-3.758-5.454-.838-9.06-2.25-12.486-5.926-7.422-7.964-7.262-20.69 1.02-28.387 8.283-7.697 21.005-6.945 28.427 1.02 3.425 3.675 4.577 7.368 5.022 12.863.393 5.54.978 8.522 2.947 11.454 0 0 .283.406.802 1.065l-13.547 12.592zm-37.086-17.17l-6.316-.228a3.327 3.327 0 0 1-3.236-3.471 3.328 3.328 0 0 1 3.476-3.23l6.318.225a3.327 3.327 0 0 1 3.234 3.472 3.438 3.438 0 0 1-1.07 2.33 3.456 3.456 0 0 1-2.406.901z"/></g><g filter="url(#b)" transform="translate(0 127)"><path fill="#A5CFEB" d="M65.156 113.042l.572-38.234a4.15 4.15 0 0 0-.78-2.483l-3.653-5.221c-.473-.677.21-28.66.728-47.565.266-9.711 7.753-17.691 17.438-18.59 0 0 3.014-.553 3.212 1.015l1.872 111.127-19.39-.049z"/><path fill="#95BFDD" d="M82.672 1.965C82.475.397 79.462.948 79.462.948c-.389.037-.774.088-1.155.146l1.752 111.865 4.487.133L82.672 1.965z"/><path fill="#7BABD5" d="M82.672 1.965c-.061-.492-.4-.773-.834-.93.086.127.145.278.167.456l1.873 111.127.668.474L82.672 1.965z"/><path fill="#FEFEFE" d="M84.514 111.244l-17.9-.068.513-37.33a4.062 4.062 0 0 0-.766-2.426l-3.585-5.101c-.464-.662.17-27.982.654-46.441.248-9.481 7.571-17.264 17.057-18.13 0 0 1.215-.218 2.138.03-.413-1.33-3.163-.83-3.163-.83-9.687.9-17.174 8.88-17.44 18.592-.518 18.904-1.2 46.887-.726 47.564l3.652 5.221a4.15 4.15 0 0 1 .78 2.484l-.573 38.233 19.39.05-.03-1.848z"/><path fill="#3B5373" d="M88.221 111.367c-11.17-8.08-26.783-5.59-34.874 5.565-8.092 11.153-5.599 26.747 5.571 34.827 11.17 8.08 26.783 5.59 34.876-5.565 8.091-11.153 5.597-26.746-5.573-34.827m-6.384 8.8c6.292 4.552 7.703 13.369 3.144 19.653-4.559 6.284-13.386 7.692-19.679 3.14-6.292-4.553-7.702-13.37-3.144-19.653 4.559-6.284 13.387-7.693 19.679-3.14"/><path fill="#010202" fill-opacity=".1" d="M65.273 146.35c6.292 4.553 15.12 3.145 19.68-3.139a14.005 14.005 0 0 0 2.586-9.811 13.976 13.976 0 0 1-2.558 6.42c-4.558 6.283-13.387 7.691-19.678 3.139a14.037 14.037 0 0 1-5.732-9.84c-.644 4.953 1.374 10.101 5.702 13.232"/><path fill="#010202" fill-opacity=".1" d="M53.53 121.466c7.934-10.936 23.17-13.43 34.03-5.573 6.027 4.36 9.436 10.993 9.925 17.902.799-8.3-2.666-16.762-9.873-21.976-10.861-7.858-26.096-5.363-34.03 5.573a24.446 24.446 0 0 0-4.623 16.126 24.47 24.47 0 0 1 4.571-12.052"/><path fill="#7BABD5" d="M83.842 64.796L63.99 70.953l1.079 1.592.363 22.061 16.71-5.749a4.156 4.156 0 0 1 1.993-.175l-.292-23.886z"/><path fill="#CFE8F9" d="M45.232 98.938l36.201-12.455a4.162 4.162 0 0 1 2.606-.035l6.106 1.84c.792.238 27.205-9.129 45.032-15.511 9.157-3.278 14.418-12.87 12.256-22.341 0 0-.414-3.032-1.968-2.73L39.143 80.554l6.089 18.384z"/><path fill="#A5CFEB" d="M145.465 47.706c1.554-.301 1.967 2.73 1.967 2.73.088.38.159.762.221 1.142L40.667 84.77l-1.523-4.216 106.321-32.848z"/><path fill="#89B9D8" d="M145.465 47.706c.487-.094.86.139 1.145.503a1.024 1.024 0 0 0-.487-.017L39.803 81.04l-.66-.485 106.322-32.848z"/><path fill="#FEFEFE" d="M40.91 80.008l5.643 16.964 35.359-12.117a4.067 4.067 0 0 1 2.547-.03l5.972 1.812c.774.235 26.572-8.88 43.985-15.09 8.944-3.19 14.068-12.564 11.936-21.836 0 0-.171-1.22-.694-2.018 1.393-.024 1.775 2.743 1.775 2.743 2.162 9.472-3.098 19.063-12.256 22.341-17.827 6.382-44.24 15.748-45.031 15.51l-6.106-1.84a4.165 4.165 0 0 0-2.607.035L45.23 98.937l-6.087-18.384 1.767-.545z"/><path fill="#3B5373" d="M39.639 76.528c-11.17-8.08-26.783-5.59-34.875 5.565-8.093 11.153-5.598 26.747 5.571 34.827 11.17 8.081 26.783 5.59 34.875-5.565 8.093-11.153 5.598-26.746-5.571-34.827m-6.385 8.8c6.293 4.552 7.704 13.369 3.144 19.653-4.558 6.284-13.386 7.692-19.678 3.14-6.293-4.554-7.704-13.37-3.144-19.653 4.558-6.284 13.386-7.692 19.678-3.14"/><path fill="#010202" fill-opacity=".1" d="M13.502 109.205c-6.293-4.552-7.703-13.369-3.144-19.653a14.043 14.043 0 0 1 8.53-5.512 14.002 14.002 0 0 0-5.312 4.428c-4.56 6.284-3.149 15.1 3.144 19.652a14.071 14.071 0 0 0 11.15 2.372c-4.514 2.156-10.04 1.844-14.368-1.287"/><path fill="#010202" fill-opacity=".1" d="M40.839 112.594c7.933-10.936 5.56-26.17-5.301-34.029-6.027-4.36-13.4-5.528-20.126-3.838 7.647-3.345 16.779-2.694 23.987 2.52 10.86 7.859 13.234 23.094 5.3 34.029a24.5 24.5 0 0 1-13.905 9.411 24.502 24.502 0 0 0 10.045-8.093m31.19-32.735a2.76 2.76 0 0 0 .618 3.86 2.77 2.77 0 0 0 3.864-.617 2.76 2.76 0 0 0-.617-3.86 2.77 2.77 0 0 0-3.865.617"/><path fill="#A5CFEB" d="M71.525 79.356a2.76 2.76 0 0 0 .618 3.86 2.77 2.77 0 0 0 3.865-.617 2.76 2.76 0 0 0-.617-3.86 2.77 2.77 0 0 0-3.866.617"/><path fill="#90BAD6" d="M73.77 78.465a2.513 2.513 0 1 0-.004 5.026 2.513 2.513 0 1 0 .004-5.026m-.005 5.529a3.015 3.015 0 1 1 1.773-5.457 3.016 3.016 0 0 1-1.773 5.457"/><path fill="#FEFEFE" d="M74.065 82.617a2.284 2.284 0 0 0-1.472-3.592 2.29 2.29 0 0 1 2.546.093 2.284 2.284 0 0 1-1.723 4.102c.247-.153.469-.354.65-.603"/></g><g filter="url(#c)" transform="rotate(-6 2337.309 -2596.445)"><path fill="#010202" fill-opacity=".1" d="M112.18 61.373L12.562 72.129l-6.567-56.02L107.188 5.183z"/><path fill="#9B5CA4" d="M109.262 58.83L7.215 70.092.489 11.438 104.149 0z"/><path fill="#010202" fill-opacity=".1" d="M76.258 24.001l-64.71 6.952-2.203-11.051 66.157-7.614zM58.083 34.942l-45.869 4.929-1.159-4.09 46.914-5.229zM69.863 43.142l-56.775 5.594-.834-4.123 57.028-6.317zM64.964 51.89l-52.042 5.592.262-4.242 51.206-5.69z"/></g><g filter="url(#d)" transform="translate(254.86 170.82)"><path fill="#010202" fill-opacity=".1" d="M96.399 71.485L2.329 54.864l8.913-53.033 95.557 16.884z"/><path fill="#ED4F7E" d="M94.889 69.977L.82 53.356 9.732.323l95.557 16.884z"/><path fill="#010202" fill-opacity=".1" d="M78.785 32.807L14.702 21.45l.973-11.226 65.657 11.125zM58.274 38.249l-45.423-8.051.03-4.25 46.511 8.053zM67.295 49.406l-56.083-10.45.352-4.193 56.527 9.828zM60.146 56.441L8.608 47.307l1.438-4 50.761 8.806z"/></g><g filter="url(#e)" transform="translate(283.834 102.01)"><path fill="#010202" fill-opacity=".1" d="M97.052 59.224l-95.45-3.915L3.337 1.563l96.957 3.977z"/><path fill="#A4CE4E" d="M95.542 57.716L.092 53.802 1.827.055l96.958 3.978z"/><path fill="#010202" fill-opacity=".1" d="M30.725 49.109L6.528 48.041l.814-42.706 25.876 1.258zM59.617 49.919L35.42 48.852l.814-42.205L62.11 8.409zM89.326 50.69L63.62 49.623l1.821-41.702L91.82 9.18z"/></g><g filter="url(#f)" transform="translate(261.496 71.127)"><path fill="#010202" fill-opacity=".1" d="M106.72 29.206L5.991 39.657l-3.652-27.66 102.748-9.65z"/><path fill="#44B9BC" d="M105.21 27.699L4.482 38.15.83 10.489 103.577.839z"/><path fill="#010202" fill-opacity=".1" d="M16.684 31.057l-8.69-7.037a.372.372 0 0 1-.053-.498l7.057-8.672a.346.346 0 0 1 .49-.05l2.645 2.145a.36.36 0 0 1 .052.488L13.5 23.197l5.77 4.678a.36.36 0 0 1 .051.489l-2.148 2.643a.407.407 0 0 1-.239.122.39.39 0 0 1-.25-.072M98.058 20.821l-38.491 3.993-1.756-11.102 39.332-4.586z"/></g><g filter="url(#g)" transform="rotate(-3 434.847 -1866.565)"><path fill="#3F4F5A" d="M124.921.298L15.44 7.12C6.971 7.648.462 15.012.986 23.392l15.983 221.293c.527 8.457 7.898 14.88 16.29 14.357l104.758-5.989c8.468-.527 14.9-7.887 14.377-16.267L141.21 14.656c-.523-8.38-7.821-14.885-16.29-14.358"/><path fill="#E6EBF0" d="M15.384 34.732l112.57-7.014a3.261 3.261 0 0 1 3.486 3.071l11.05 176.86a3.258 3.258 0 0 1-3.076 3.48l-112.638 5.942A3.262 3.262 0 0 1 23.291 214L12.309 38.212a3.26 3.26 0 0 1 3.075-3.48"/><path fill="#34414B" d="M82.628 17.238a2.901 2.901 0 0 1-2.718 3.076l-17.393 1.083a2.9 2.9 0 0 1-.362-5.79l17.393-1.083a2.902 2.902 0 0 1 3.08 2.714M96.09 233.94c.395 6.323-2.864 11.727-9.271 12.126-6.332.395-13.367-4.291-13.767-10.69-.395-6.323 4.929-11.856 11.338-12.255 6.412-.323 11.306 4.496 11.7 10.82"/><path fill="#010202" fill-opacity=".1" d="M127.405 196.158l-.236-3.754 1.383-.088-.057-1.382 3.763-.154.209 5.06-5.062.318zm-12.106.76l-.236-3.754 6.052-.381.237 3.755-6.053.38zm-12.106.76l-.236-3.755 6.054-.38.236 3.754-6.054.38zm-12.105.76l-.236-3.756 6.053-.38.236 3.756-6.053.38zm-12.106.76l-.236-3.755 6.054-.38.236 3.754-6.054.38zm-12.104.759l-.238-3.754 6.054-.38.236 3.754-6.052.38zm-12.106.76l-.237-3.755 6.053-.38.237 3.755-6.053.38zm-12.105.76l-.238-3.754 6.054-.38.236 3.754-6.052.38zm-11.137.699l-.37-5.073 3.756-.274.1 1.36 1.361-.087.236 3.755-5.083.319zm-2.551-34.871l-.437-5.96 3.758-.274.435 5.96-3.756.274zm.872 11.92l-.436-5.961 3.757-.273.435 5.959-3.756.274zm.872 11.919l-.436-5.96 3.757-.275.436 5.96-3.757.275zm-2.616-35.758l-.373-5.112 5.12-.32.237 3.753-1.323.083.096 1.321-3.757.275zm85.001-6.7l-.236-3.755 6.155-.387.237 3.754-6.156.387zm-12.31.772l-.236-3.754 6.155-.387.236 3.755-6.155.386zm-12.31.772l-.237-3.754 6.156-.386.236 3.755-6.156.385zm-12.31.773l-.237-3.754 6.154-.387.238 3.755-6.156.386zm-12.312.773l-.236-3.754 6.156-.387.236 3.755-6.156.386zm-12.31.772l-.236-3.754 6.156-.387.236 3.756-6.156.385zm-12.31.773l-.237-3.754 6.155-.387.237 3.755-6.155.386zm91.292-4.343l-3.764.155-.053-1.303-1.303.083-.235-3.755 5.144-.322.21 5.142zm.491 11.943l-3.764.155-.246-5.972 3.764-.154.246 5.971zm.492 11.944l-3.764.154-.245-5.972 3.763-.155.246 5.973zm.492 11.943l-3.764.155-.246-5.973 3.764-.154.246 5.972zM130.605 66.336L22.522 73.07 19.84 43.356l110.205-5.791z"/><path fill="#44B9BC" d="M128.894 64.827L20.81 71.562l-2.682-29.715 110.205-5.79z"/><path fill="#010202" fill-opacity=".1" d="M34.16 64.521l-8.976-7.902a.397.397 0 0 1-.033-.533l7.922-8.955a.371.371 0 0 1 .526-.033l2.732 2.408c.146.13.162.379.034.525l-5.26 5.952 5.959 5.253a.383.383 0 0 1 .032.523l-2.41 2.73a.438.438 0 0 1-.26.12.41.41 0 0 1-.266-.088M121.556 57.164l-41.301 2.573-1.388-11.939 42.226-3.17z"/><g><path fill="#010202" fill-opacity=".1" d="M130.456 132.446l-101.954 6.406-4.123-57.357 103.565-6.506z"/><path fill="#9A5CA1" d="M128.744 130.937L26.79 137.343l-4.123-57.356 103.566-6.507z"/><path fill="#010202" fill-opacity=".1" d="M102.627 96.363l-69.462 4.328-1.824-11.911 71.041-4.965zM82.685 107.181l-49.237 3.068-1.041-4.424 50.367-3.339zM94.875 116.505l-60.92 3.257-.692-4.445 61.225-4.016zM89.223 125.616l-55.865 3.481.485-4.52 54.974-3.625z"/></g><path fill="#FEFEFE" fill-opacity=".1" d="M15.384 34.732l112.57-7.014a3.261 3.261 0 0 1 3.486 3.071l8.973 143.628L14.945 80.415l-2.636-42.203a3.26 3.26 0 0 1 3.075-3.48"/></g></g></svg>