<svg xmlns="http://www.w3.org/2000/svg" width="301" height="363" viewBox="0 0 301 363" xmlns:xlink="http://www.w3.org/1999/xlink"><defs><filter id="a" width="200%" height="200%" x="-50%" y="-50%" filterUnits="objectBoundingBox"><feOffset in="SourceAlpha" result="shadowOffsetOuter1"/><feGaussianBlur stdDeviation="2.5" in="shadowOffsetOuter1" result="shadowBlurOuter1"/><feColorMatrix values="0 0 0 0 0 0 0 0 0 0 0 0 0 0 0 0 0 0 0.1 0" in="shadowBlurOuter1" result="shadowMatrixOuter1"/><feMerge><feMergeNode in="shadowMatrixOuter1"/><feMergeNode in="SourceGraphic"/></feMerge></filter><path id="c" d="M15.586 61.489l-5.532 3.443 10.388-30.525-4.661 3.226 7.055-14.959L37.347 9.81l-5.382.158 3.99-2.943 19.747 9.1-2.456 11.124-1.025-2.896-8.584 19.2-.906-6.927-7.479 12.97.215-2.304-20.616 22.052z"/><filter id="b" width="200%" height="200%" x="-50%" y="-50%" filterUnits="objectBoundingBox"><feOffset dy="3" in="SourceAlpha" result="shadowOffsetOuter1"/><feColorMatrix values="0 0 0 0 0 0 0 0 0 0 0 0 0 0 0 0 0 0 0.05 0" in="shadowOffsetOuter1"/></filter><filter id="d" width="200%" height="200%" x="-50%" y="-50%" filterUnits="objectBoundingBox"><feOffset in="SourceAlpha" result="shadowOffsetOuter1"/><feGaussianBlur stdDeviation="5" in="shadowOffsetOuter1" result="shadowBlurOuter1"/><feColorMatrix values="0 0 0 0 0 0 0 0 0 0 0 0 0 0 0 0 0 0 0.3 0" in="shadowBlurOuter1" result="shadowMatrixOuter1"/><feMerge><feMergeNode in="shadowMatrixOuter1"/><feMergeNode in="SourceGraphic"/></feMerge></filter><path id="e" d="M84.116 109.272s-29.622-4.79-46.406 11.992C20.928 138.046-1.936 193.571.542 199.878c2.477 6.308 42.8-31.31 59.92-26.13 17.121 5.182 23.654-64.476 23.654-64.476"/><path id="g" d="M138.551 66.397c-6.677 11.492-2.773 26.2 8.692 32.915 11.35 6.648 26.194 2.952 32.966-8.672 6.689-11.482 2.79-26.186-8.58-32.895-11.168-6.59-26.14-3.207-33.078 8.652m38.164-17.402c16.288 9.515 21.701 30.36 12.2 46.546-9.63 16.41-30.614 21.494-46.582 12.07-15.776-9.311-21.677-29.962-12.027-46.443 9.435-16.112 30.145-21.618 46.409-12.173"/><filter id="f" width="200%" height="200%" x="-50%" y="-50%" filterUnits="objectBoundingBox"><feOffset dy="2" in="SourceAlpha" result="shadowOffsetOuter1"/><feColorMatrix values="0 0 0 0 0 0 0 0 0 0 0 0 0 0 0 0 0 0 0.1 0" in="shadowOffsetOuter1"/></filter><path id="h" d="M.092 89.966c-.1.295 6.007 7.084 6.132 7.326.667 1.314 35.081-24.204 35.081-24.204L82.561.188H31.34C23.75 17.601 1.517 85.681.092 89.966z"/><path id="j" d="M179.843 87.381C165.908 173.388 75.622 263.316 75.62 263.317c-.707.835-1.536 1.545-2.324 2.296-3.08 2.93-6.168 5.851-9.259 8.77-1.406 1.329-2.824 2.644-4.237 3.966-.089-.286-.348-.238-.55-.262.202.024.461-.024.55.262-1.03 1.017-2.05 2.043-3.09 3.05-2.176 2.11-4.365 4.205-6.535 6.32-.23.224-.443.318-.76.295-5.044-.372-9.993-1.244-14.827-2.736a55.888 55.888 0 0 1-6.5-2.44c-1.036-.466-2.07-.937-3.078-1.464 1.145-1.861 2.289-3.722 3.435-5.581.34-.55.689-1.095 1.032-1.642a7416.05 7416.05 0 0 0 2.77-4.42c.978.67 2.063 1.152 3.131 1.638a86.41 86.41 0 0 0 6.704 2.73c3.102 1.109 6.26 1.98 9.475 2.687-3.215-.706-6.373-1.578-9.475-2.687a86.41 86.41 0 0 1-6.704-2.73c-1.068-.486-2.153-.967-3.131-1.639.389-.737.827-1.444 1.276-2.144-2.6-1.453-5.012-3.448-7.117-6.12l-1.657 2.98c-.108.194-.235.378-.353.565-.865 1.583-1.72 3.168-2.593 4.744-1.26 2.279-2.53 4.552-3.798 6.828-.077.135-.165.264-.249.395a59.002 59.002 0 0 1-7.783-6.593 58.459 58.459 0 0 1-7.306-8.934c-.812-1.225-1.58-2.48-2.249-3.792-.124-.243-.215-.462-.117-.757 1.425-4.285 2.837-8.575 4.253-12.863.333-1.363.829-2.678 1.244-4.015.9-2.89 1.844-5.765 2.768-8.647.481-1.5.95-3.005 1.442-4.501a94.186 94.186 0 0 1 .031-.107c.083-.326.073-.683.284-.967C42.794 115.632 96.01 63.07 112.684 48.726l-.052-.063C137.878 24.124 185.553.547 185.553.547l.103.06s4.646 50.143-5.8 86.776l-.013-.002zM5.081 244.801c.05.099.103.197.162.29a65.227 65.227 0 0 0-.001 0 3.857 3.857 0 0 1-.161-.29zm6.58 8.86l.001.002a67.676 67.676 0 0 0 4.799 4.921 91.929 91.929 0 0 0-.001 0 67.677 67.677 0 0 1-4.8-4.922zm12.063 10.883c.11.086.22.172.33.26a1.206 1.206 0 0 0-.001 0c-.11-.088-.22-.174-.33-.26z"/></defs><g fill="none" fill-rule="evenodd"><g fill="#6B7482" fill-opacity=".1"><path d="M273.263 176.697c4.402-6.904 2.35-16.172-4.553-20.576-6.97-4.442-16.174-2.35-20.576 4.554a14.855 14.855 0 0 0 4.553 20.575c6.905 4.402 16.132 2.416 20.576-4.553zm12.655 21.368a1.445 1.445 0 0 1-.547 1.723c-3.874 3.189-8.573 5.578-13.378 6.979-.685.207-1.346.015-1.723-.546l-6.287-7.967c-3.04.363-6.132.233-9.158-.362l-6.945 7.353c-.431.462-1.202.66-1.8.37-2.345-.942-4.586-2.048-6.745-3.425-2.159-1.376-4.108-2.94-5.952-4.669-.514-.42-.66-1.203-.423-1.789l3.737-9.398c-1.816-2.492-3.305-5.283-4.193-8.149l-9.875-2.34c-.67-.104-1.122-.622-1.223-1.33-.757-4.947-.573-10.215.683-15.073.105-.67.665-1.188 1.332-1.223l9.96-1.473c.564-1.39 1.354-2.773 2.188-4.082.835-1.308 1.754-2.608 2.777-3.706l-2.866-9.65a1.444 1.444 0 0 1 .545-1.724c3.876-3.189 8.574-5.578 13.38-6.979.684-.208 1.344-.016 1.722.546l6.288 7.968c2.974-.406 6.132-.234 9.158.362l6.943-7.354c.433-.46 1.204-.66 1.802-.371a37.829 37.829 0 0 1 12.695 8.095c.515.42.66 1.202.424 1.789l-3.738 9.398a29.388 29.388 0 0 1 4.193 8.15l9.877 2.339c.668.104 1.12.623 1.221 1.33.758 4.948.575 10.215-.683 15.074a1.442 1.442 0 0 1-1.33 1.222l-9.96 1.474c-.564 1.389-1.354 2.772-2.189 4.081-.834 1.308-1.755 2.609-2.777 3.706l2.867 9.651zm-233.612-8.39c4.402-6.904 2.35-16.173-4.554-20.576-6.969-4.442-16.173-2.35-20.575 4.553a14.855 14.855 0 0 0 4.552 20.576c6.906 4.402 16.133 2.415 20.577-4.553zm12.655 21.368a1.445 1.445 0 0 1-.548 1.722c-3.873 3.19-8.573 5.579-13.378 6.98-.684.207-1.345.015-1.722-.547l-6.288-7.966c-3.039.362-6.131.233-9.157-.362l-6.945 7.353c-.432.462-1.203.66-1.8.37-2.345-.942-4.586-2.048-6.746-3.425-2.158-1.376-4.107-2.941-5.95-4.67-.515-.42-.66-1.202-.424-1.788l3.737-9.399c-1.817-2.491-3.305-5.282-4.193-8.148l-9.876-2.34c-.67-.104-1.121-.622-1.222-1.331-.757-4.946-.574-10.214.682-15.072.106-.67.666-1.189 1.333-1.223l9.96-1.473c.564-1.39 1.353-2.773 2.188-4.083.834-1.308 1.754-2.607 2.776-3.706l-2.866-9.65a1.444 1.444 0 0 1 .546-1.723c3.875-3.19 8.573-5.579 13.38-6.979.684-.208 1.344-.016 1.722.546l6.288 7.968c2.974-.406 6.131-.234 9.158.362l6.943-7.354c.433-.46 1.204-.66 1.801-.371a37.829 37.829 0 0 1 12.696 8.094c.515.42.66 1.203.424 1.79l-3.738 9.398a29.388 29.388 0 0 1 4.193 8.15l9.877 2.338c.668.104 1.12.624 1.221 1.331.758 4.948.575 10.215-.683 15.074a1.442 1.442 0 0 1-1.331 1.221l-9.96 1.474c-.564 1.39-1.353 2.772-2.188 4.082-.834 1.308-1.756 2.609-2.778 3.706l2.868 9.651zM277.944 84.88c.14-6.808-5.328-12.503-12.136-12.643-6.873-.142-12.504 5.327-12.644 12.134a12.355 12.355 0 0 0 12.137 12.644c6.808.14 12.503-5.263 12.643-12.135zm18.233 9.703c.444.331.594.948.357 1.46-1.371 3.94-3.675 7.67-6.481 10.744-.398.443-.95.593-1.46.358l-7.913-2.938a24.475 24.475 0 0 1-6.662 3.704l-1.749 8.227c-.109.514-.57.988-1.12 1.042-2.072.346-4.141.528-6.272.485-2.128-.044-4.19-.312-6.246-.743-.548-.074-.99-.567-1.076-1.085l-1.411-8.294c-2.368-.984-4.633-2.321-6.504-3.973l-8.027 2.61c-.52.216-1.065.044-1.443-.416-2.68-3.186-4.828-7.007-6.037-11.002a1.2 1.2 0 0 1 .417-1.443l6.436-5.356c-.2-1.232-.239-2.555-.212-3.845.026-1.29.118-2.613.37-3.834l-6.213-5.615a1.204 1.204 0 0 1-.357-1.46c1.372-3.942 3.675-7.671 6.483-10.745.396-.443.948-.593 1.459-.358l7.913 2.939c1.937-1.574 4.253-2.817 6.66-3.703l1.75-8.229c.109-.514.57-.988 1.12-1.042a31.455 31.455 0 0 1 12.518.258c.547.075.989.569 1.075 1.087l1.412 8.292c2.37.984 4.569 2.32 6.504 3.973l8.027-2.61c.52-.215 1.065-.042 1.444.416 2.678 3.187 4.827 7.007 6.036 11.002a1.2 1.2 0 0 1-.417 1.445l-6.436 5.354c.201 1.232.239 2.555.212 3.845-.027 1.292-.118 2.613-.37 3.835l6.213 5.615zM102.671 132.874c-2.314-4.204-7.657-5.753-11.86-3.44-4.245 2.335-5.755 7.657-3.44 11.86a8.705 8.705 0 0 0 11.86 3.44c4.204-2.313 5.776-7.617 3.44-11.86zm14.545-.503a.845.845 0 0 1 .733.765c.552 2.888.46 5.976-.17 8.84-.085.41-.37.698-.765.734l-5.863.994a17.264 17.264 0 0 1-2.76 4.607l1.83 5.638c.115.352.001.804-.315 1.03a23.803 23.803 0 0 1-3.657 2.506 23.742 23.742 0 0 1-4.074 1.748c-.361.147-.804.001-1.038-.285l-3.784-4.562c-1.792.234-3.646.215-5.37-.134l-3.977 4.42c-.243.315-.636.403-1.028.256-2.758-1-5.416-2.575-7.561-4.588a.846.846 0 0 1-.254-1.028l2.041-5.535c-.557-.68-1.045-1.475-1.484-2.272-.44-.797-.85-1.636-1.126-2.47l-5.77-1.238a.846.846 0 0 1-.732-.765c-.551-2.889-.46-5.977.17-8.841.086-.41.37-.696.766-.732l5.863-.995c.628-1.643 1.604-3.218 2.76-4.607l-1.83-5.637c-.116-.353-.002-.805.315-1.031a22.193 22.193 0 0 1 7.73-4.255c.36-.146.804-.001 1.04.286l3.783 4.562a17.212 17.212 0 0 1 5.37.134l3.977-4.422c.243-.314.635-.401 1.028-.254 2.758 1 5.416 2.576 7.56 4.587a.845.845 0 0 1 .255 1.028l-2.041 5.536c.556.68 1.045 1.476 1.484 2.273.439.797.849 1.636 1.126 2.469l5.768 1.238z"/></g><g filter="url(#a)" transform="translate(57.713 274.176)"><path fill="#FFA82C" d="M35.318.778L14.844 15.876l7.766-.226L8.563 28.101l6.722-2.091L2.303 53.538l7.742-5.357L.059 77.519l9.129-5.68-1.194 12.758L28.61 62.544l-1.05 11.213L39.443 53.15l1.321 10.078 10.873-24.322 2.815 7.955 7.469-33.822z"/><use fill="#000" filter="url(#b)" xlink:href="#c"/><use fill="#E93B5A" xlink:href="#c"/></g><g filter="url(#d)" transform="translate(36.277 9)"><g transform="translate(.79 41.818)"><use fill="#606A7A" xlink:href="#e"/><use fill="#000" fill-opacity=".1" xlink:href="#e"/><path fill="#000" fill-opacity=".05" d="M77.006 108.681c4.334.142 7.11.59 7.11.59s-6.533 69.66-23.653 64.478c-2.63-.796-5.805-.582-9.308.327 7.83-24.798 16.687-46.515 25.851-65.395z"/><path fill="#606A7A" d="M170.844 154.446s18.06 23.962 11.05 46.636c-7.01 22.674-45.45 68.808-52.185 69.56-6.735.752 7.719-52.464-4.854-65.187-12.572-12.722 45.989-51.01 45.989-51.01"/><path fill="#000" fill-opacity=".1" d="M175.27 161.504c-2.418-4.393-4.426-7.058-4.426-7.058s-58.561 38.287-45.989 51.009c2.82 2.854 4.28 7.745 4.925 13.607 10.867-11.985 28.408-32.51 45.49-57.558z"/><path fill="#6B7482" d="M161.422 2.744S92.417 52.325 53.587 185.058c-10.6 36.234 9.286 23.94 15 32.66 15.217 23.222 50.61 3.794 50.61 3.794s95.176-94.798 105.172-182.82c0 0-25.798-50.808-62.947-35.948"/><path fill="#010202" fill-opacity=".1" d="M137.631 66.565c-6.677 11.492-2.773 26.2 8.692 32.915 11.35 6.648 26.194 2.952 32.965-8.672 6.69-11.482 2.791-26.186-8.578-32.895-11.17-6.59-26.14-3.207-33.079 8.652m38.163-17.402c16.29 9.515 21.702 30.36 12.2 46.546-9.63 16.41-30.613 21.494-46.581 12.07-15.777-9.311-21.677-29.962-12.027-46.443 9.435-16.112 30.144-21.618 46.408-12.173"/><path fill="#909AA8" d="M75.823 227.925c.749-1.42 1.683-2.727 2.513-4.096 1.908-3.14 3.855-6.256 5.791-9.377.422-.68.87-1.345 1.304-2.018 1.052.626 2.189 1.081 3.282 1.624 1.215.603 2.469 1.113 3.716 1.63 1.741.72 3.527 1.322 5.314 1.923 3.018 1.015 6.092 1.809 9.205 2.451 2.657.548 5.341.949 8.049 1.204 1.399.133 2.8.138 4.2.246-.708.834-1.537 1.545-2.325 2.295-3.08 2.931-6.168 5.852-9.259 8.77-1.406 1.329-2.824 2.644-4.237 3.967-.088-.286-.348-.239-.55-.263a82.557 82.557 0 0 1-7.693-1.3c-3.215-.707-6.373-1.579-9.475-2.688a86.41 86.41 0 0 1-6.704-2.73c-1.068-.486-2.152-.967-3.131-1.638zm1.025-20.642c-.6 1.245-1.333 2.415-2.002 3.622-2.17 3.914-4.346 7.825-6.52 11.736-.109.194-.236.377-.354.565-.114-.068-.238-.126-.342-.208-1.056-.84-2.156-1.621-3.217-2.456a71.515 71.515 0 0 1-4.376-3.764 68.7 68.7 0 0 1-6.045-6.372 64.768 64.768 0 0 1-5.173-7.12c-.224-.356-.347-.776-.689-1.053.333-1.363.829-2.678 1.245-4.015.899-2.889 1.843-5.765 2.767-8.646.482-1.505.952-3.013 1.445-4.513.123-.376.074-.807.366-1.128.148.074.22.22.303.348 2.088 3.218 4.438 6.234 6.953 9.127a81.672 81.672 0 0 0 8.142 8.147c1.323 1.148 2.663 2.271 4.08 3.308 1.127.824 2.188 1.74 3.417 2.422z"/><path fill="#6B7482" d="M48.13 202.233c.343.277.465.697.688 1.052a64.958 64.958 0 0 0 5.173 7.12 68.7 68.7 0 0 0 6.045 6.373 71.978 71.978 0 0 0 4.377 3.764c1.062.835 2.162 1.614 3.216 2.456.104.082.228.138.343.208-.865 1.582-1.72 3.167-2.593 4.744-1.26 2.278-2.53 4.552-3.798 6.827-.077.136-.165.264-.249.396a59.002 59.002 0 0 1-7.783-6.594 58.459 58.459 0 0 1-7.305-8.933c-.813-1.226-1.581-2.48-2.25-3.793-.124-.243-.215-.462-.117-.757 1.425-4.284 2.837-8.575 4.254-12.863m27.692 25.692c.979.671 2.063 1.152 3.131 1.638a86.41 86.41 0 0 0 6.704 2.73c3.102 1.11 6.26 1.981 9.475 2.687 2.544.557 5.108.986 7.693 1.3.202.025.462-.022.55.264-1.03 1.016-2.05 2.043-3.09 3.05-2.176 2.11-4.365 4.204-6.535 6.32-.23.223-.443.317-.76.294-5.044-.371-9.993-1.243-14.827-2.736a55.888 55.888 0 0 1-6.5-2.44c-1.036-.466-2.07-.937-3.078-1.464 1.145-1.86 2.289-3.722 3.435-5.581.341-.55.689-1.094 1.033-1.642l2.769-4.42"/><use fill="#000" filter="url(#f)" xlink:href="#g"/><use fill="#606A7A" xlink:href="#g"/><path fill="#37BEC0" d="M138.551 66.397c6.938-11.859 21.91-15.243 33.079-8.652 11.37 6.709 15.268 21.413 8.579 32.895-6.772 11.624-21.615 15.32-32.966 8.672-11.465-6.715-15.37-21.423-8.692-32.915"/><path fill="#010202" fill-opacity=".1" d="M171.63 57.745c-8.07-4.762-18.12-4.314-25.694.77 6.286-2.74 13.704-2.452 19.853 1.176 10.305 6.08 13.837 19.408 7.776 29.812-5.684 9.758-17.642 13.346-27.551 9.035.401.267.808.528 1.23.775 11.35 6.647 26.194 2.951 32.966-8.673 6.687-11.482 2.79-26.186-8.58-32.895"/></g><g transform="translate(44.575 166.948)"><mask id="i" fill="#fff"><use xlink:href="#h"/></mask><path fill="#010202" fill-opacity=".1" d="M82.56 8.926s-21.956-20.29-42.751.966c-20.796 21.256-49.095 90.6-56.431 104.969-4.817 9.435 50.315-66.8 56.954-50.443C42.188 68.995 82.56 8.926 82.56 8.926" mask="url(#i)"/></g><path fill="#606A7A" d="M77.637 249.1c.91-1.612 1.827-3.22 2.729-4.837 2.644-4.737 5.281-9.477 7.922-14.215 2.433-4.367 4.865-8.736 7.304-13.101 2.622-4.697 5.263-9.385 7.871-14.09 1.915-3.454 3.772-6.942 5.687-10.397 1.786-3.222 3.708-6.364 5.822-9.386 1.46-2.087 3.01-4.098 4.84-5.88.786-.764 1.622-1.465 2.566-2.028.656-.391 1.343-.71 2.102-.842 1.756-.306 3.37.586 4.052 2.236.385.933.431 1.91.35 2.898-.128 1.59-.576 3.108-1.12 4.6-.774 2.122-1.779 4.139-2.78 6.158a85.047 85.047 0 0 1-2.978 5.468 333.981 333.981 0 0 1-4.122 6.82c-1.472 2.369-2.84 4.803-4.288 7.19a2952.436 2952.436 0 0 1-7.679 12.571 7566.369 7566.369 0 0 1-7.749 12.608c-1.744 2.833-3.494 5.66-5.244 8.489-1.7 2.753-3.401 5.506-5.109 8.257-.541.872-1.113 1.723-1.593 2.633-.434.673-.882 1.337-1.303 2.018-1.938 3.122-3.884 6.236-5.791 9.376-.832 1.37-1.766 2.676-2.514 4.097l-2.769 4.419c-.344.549-.693 1.093-1.032 1.643-1.147 1.86-2.29 3.72-3.435 5.581-1.089 1.741-2.179 3.48-3.264 5.224-3.044 4.888-6.079 9.78-9.126 14.666-2.941 4.715-5.894 9.425-8.842 14.136-.58.926-1.167 1.849-1.757 2.77-.261.407-.28.422-.687.192a540.765 540.765 0 0 1-4.532-2.601c-.348-.203-.345-.22-.09-.688 1.105-2.015 2.208-4.032 3.32-6.044 3.155-5.703 6.313-11.404 9.473-17.104 2.208-3.982 4.423-7.96 6.629-11.944.551-.996 1.083-2.002 1.622-3.003.083-.131.172-.26.247-.395 1.268-2.276 2.539-4.55 3.799-6.828.872-1.576 1.73-3.161 2.593-4.744.118-.187.245-.37.354-.564 2.174-3.911 4.35-7.822 6.52-11.736.67-1.207 1.402-2.378 2.002-3.622"/><path fill="#000" fill-opacity=".1" d="M41.168 315.773c.748.433 1.499.86 2.247 1.29 24.594-42.01 75.102-128.082 83.481-142.36a3.687 3.687 0 0 0-2.417-.38c-.759.133-1.445.45-2.1.842-.946.564-1.78 1.266-2.566 2.03-1.832 1.78-3.381 3.792-4.84 5.88-2.116 3.02-4.036 6.162-5.822 9.384-1.916 3.456-3.773 6.943-5.689 10.399-2.607 4.705-5.248 9.391-7.871 14.09-2.437 4.365-4.87 8.732-7.304 13.1-2.64 4.739-5.277 9.479-7.92 14.215-.903 1.617-1.82 3.226-2.73 4.838-.6 1.245-1.333 2.416-2.002 3.621-2.171 3.914-4.346 7.825-6.52 11.737-.108.194-.235.377-.354.565-.864 1.58-1.72 3.166-2.593 4.744-1.26 2.278-2.53 4.552-3.798 6.826-.077.136-.165.264-.247.395-.541 1.002-1.073 2.009-1.623 3.005-2.207 3.983-4.42 7.96-6.628 11.944-3.16 5.7-6.32 11.4-9.474 17.103-1.113 2.011-2.216 4.028-3.32 6.045-.256.466-.26.485.09.687"/><path fill="#606A7A" d="M224.221 87.395c10.446-36.633 5.8-86.777 5.8-86.777l-.103-.059s-47.674 23.577-72.92 48.116c0 0 14.733 18.179 28.81 26.287l1.96 1.126c13.762 7.926 36.453 11.307 36.453 11.307"/><path fill="#000" fill-opacity=".05" d="M229.928.564l-.009-.004S182.243 24.136 157 48.674c0 0 12.072 14.896 24.804 23.735 8.532-25.643 38.313-60.73 48.125-71.845"/><g transform="translate(44.365 .012)"><mask id="k" fill="#fff"><use xlink:href="#j"/></mask><path fill="#FFF" fill-opacity=".05" d="M19.865 315.216c21.577.132 42.903-11.575 42.903-11.575s144.755-144.18 159.96-278.052c0 0-10.097-19.883-27.421-36.528.484.894.73 1.38.73 1.38C181.375 119.559 72.274 256.189 19.866 315.217z" mask="url(#k)"/></g></g></g></svg>