<svg width="471" height="469" viewBox="0 0 471 469" xmlns="http://www.w3.org/2000/svg" xmlns:xlink="http://www.w3.org/1999/xlink"><title>sticker</title><defs><filter x="-50%" y="-50%" width="200%" height="200%" filterUnits="objectBoundingBox" id="b"><feOffset dy="2" in="SourceAlpha" result="shadowOffsetOuter1"/><feGaussianBlur stdDeviation="3" in="shadowOffsetOuter1" result="shadowBlurOuter1"/><feColorMatrix values="0 0 0 0 0 0 0 0 0 0 0 0 0 0 0 0 0 0 0.2 0" in="shadowBlurOuter1" result="shadowMatrixOuter1"/><feMerge><feMergeNode in="shadowMatrixOuter1"/><feMergeNode in="SourceGraphic"/></feMerge></filter><filter x="-50%" y="-50%" width="200%" height="200%" filterUnits="objectBoundingBox" id="c"><feOffset dx=".5" dy=".5" in="SourceAlpha" result="shadowOffsetOuter1"/><feColorMatrix values="0 0 0 0 0 0 0 0 0 0 0 0 0 0 0 0 0 0 0.2 0" in="shadowOffsetOuter1" result="shadowMatrixOuter1"/><feMerge><feMergeNode in="shadowMatrixOuter1"/><feMergeNode in="SourceGraphic"/></feMerge></filter><path id="a" d="M173.197 4.331l28.13 18.068L226.966.943l22.753 24.497 30.17-14.404 15.948 29.387 32.803-6.449 8.14 32.431 33.376 1.913-.18 33.437 31.851 10.155-8.49 32.34 28.327 17.76-16.264 29.212 23.02 24.247-23.015 24.25 16.268 29.21-28.323 17.763 8.495 32.34-31.85 10.16.184 33.436-33.376 1.919-8.133 32.432-32.805-6.444-15.941 29.392-30.173-14.401-22.749 24.502-25.644-21.453-28.126 18.074-19.504-27.156L121.99 410l-12.139-31.153-33.352 2.285-4.01-33.196-32.875-6.083 4.37-33.148-30.329-14.068 12.475-31.022-25.877-21.17 19.796-26.944-19.8-26.94 25.873-21.174-12.48-31.018 30.326-14.075-4.374-33.148 32.872-6.088 4.004-33.196 33.354 2.28 12.133-31.156 31.74 10.504z"/><mask id="d" x="0" y="0" width="428.171" height="429.085" fill="#fff"><use xlink:href="#a"/></mask><filter x="-50%" y="-50%" width="200%" height="200%" filterUnits="objectBoundingBox" id="e"><feOffset dx="2" dy="3" in="SourceAlpha" result="shadowOffsetOuter1"/><feColorMatrix values="0 0 0 0 0 0 0 0 0 0 0 0 0 0 0 0 0 0 0.2 0" in="shadowOffsetOuter1" result="shadowMatrixOuter1"/><feMerge><feMergeNode in="shadowMatrixOuter1"/><feMergeNode in="SourceGraphic"/></feMerge></filter><path d="M188.821 307.5c0 6.8 5.474 12.206 12.274 12.206 3.026 0 5.95-1.054 8.262-3.298.238-.238.272-.68.034-.918l-2.652-2.822c-.204-.238-.646-.238-.884-.034-1.224 1.054-2.686 1.632-4.556 1.632-3.842 0-6.698-3.128-6.698-6.902 0-3.808 2.822-7.004 6.664-7.004 1.666 0 3.196.51 4.59 1.734a.595.595 0 0 0 .85 0l2.652-2.754a.632.632 0 0 0-.034-.952c-2.312-2.108-4.828-3.162-8.228-3.162-6.8 0-12.274 5.474-12.274 12.274zm21.99 3.978c0 4.488 3.707 8.262 8.195 8.262s8.16-3.774 8.16-8.262c0-4.42-3.672-8.16-8.16-8.16-4.488 0-8.194 3.74-8.194 8.16zm4.897 0c0-1.802 1.462-3.332 3.298-3.332 1.802 0 3.264 1.53 3.264 3.332 0 1.836-1.462 3.4-3.264 3.4-1.836 0-3.298-1.564-3.298-3.4zm19.372 8.262c4.182 0 6.392-2.278 6.392-4.998 0-3.162-2.584-4.42-5.746-5.576-1.122-.408-1.768-.748-1.768-1.156 0-.408.238-.646 1.122-.646 1.258 0 2.618.442 3.672.952.306.136.714 0 .816-.272l1.224-2.516c.204-.408 0-.816-.408-1.02-1.19-.612-3.332-1.19-5.372-1.19-4.08 0-5.95 2.074-5.95 4.896 0 2.516 1.564 3.91 4.59 5.1 1.836.714 2.686 1.122 2.686 1.632 0 .374-.17.748-1.19.748-1.428 0-2.618-.374-3.876-.986-.34-.17-.714.068-.816.34l-1.258 2.584c-.17.34-.068.612.272.816 1.02.612 3.06 1.292 5.61 1.292zm10.057-5.474c0 3.57 1.734 5.474 4.726 5.474 1.666 0 3.434-.442 4.488-.884.442-.204.612-.408.51-.884l-.68-2.958c-.102-.408-.476-.578-.884-.476-.374.102-1.394.34-1.938.34-.68 0-1.054-.34-1.054-1.088v-5.474h3.162c.408 0 .748-.34.748-.748v-3.162a.733.733 0 0 0-.748-.748h-3.162v-4.352c0-.408-.306-.748-.68-.748h-3.74a.755.755 0 0 0-.748.748v4.352h-1.292c-.374 0-.68.306-.68.748v3.162c0 .408.306.748.68.748h1.292v5.95zM137.35 351.72c0 .34.272.646.646.646h4.046c.34 0 .646-.306.646-.646v-8.67h2.346l4.522 9.01a.626.626 0 0 0 .544.306h4.522c.578 0 .816-.544.578-.986l-4.658-8.636c3.162-1.19 5.032-3.706 5.032-6.834 0-4.046-3.094-7.344-7.412-7.344h-10.166a.646.646 0 0 0-.646.646v22.508zm5.338-12.988v-5.304h5.032c1.394 0 2.584.986 2.584 2.584s-1.19 2.72-2.584 2.72h-5.032zm14 5.78c0 4.862 3.537 8.228 8.229 8.228 2.482 0 4.454-.85 5.814-2.244.34-.34.272-.816.034-1.122l-1.734-2.278c-.238-.306-.646-.306-.986 0-.68.476-1.972.986-2.992.986-2.142 0-3.264-1.496-3.264-2.72h9.69c.34 0 .714-.272.748-.68.034-.238.068-.782.068-1.02 0-4.318-3.468-7.344-7.446-7.344-4.658 0-8.16 3.774-8.16 8.194zm5.679-2.142c.204-1.054 1.054-1.938 2.346-1.938 1.326 0 2.21.884 2.278 1.938h-4.624zm11.518 2.142c0 4.488 3.332 8.228 7.752 8.228 3.468 0 5.304-2.448 5.304-2.448l.442 1.292c.136.442.442.782.816.782h1.53c.408 0 .748-.34.748-.748v-22.304c0-.374-.34-.748-.748-.748h-3.672c-.408 0-.748.374-.748.748v7.888c-.51-.408-2.108-.884-3.638-.884-4.182 0-7.786 2.652-7.786 8.194zm5.202-.034c0-1.904 1.462-3.332 3.332-3.332 1.938 0 3.332 1.428 3.332 3.332 0 1.938-1.394 3.4-3.332 3.4-1.87 0-3.332-1.462-3.332-3.4zm14.816.782c0 4.454 1.428 7.48 6.018 7.48 2.346 0 4.012-1.394 4.964-2.38l.544 1.462c.136.272.408.544.748.544h1.564c.408 0 .748-.34.748-.748v-14.212a.733.733 0 0 0-.748-.748h-3.57c-.374 0-.85.102-.85.748v8.024c0 1.394-.612 2.448-2.142 2.448-1.598 0-2.108-.952-2.108-2.72v-7.752a.733.733 0 0 0-.748-.748h-3.706a.726.726 0 0 0-.714.748v7.854zm17.197-.748c0 4.726 3.808 8.228 8.296 8.228 2.822 0 4.862-1.088 6.324-3.264.272-.408.068-.782-.272-1.122l-2.21-1.904c-.204-.272-.612-.204-.884.136-.68.68-1.36 1.292-2.822 1.292-1.802 0-3.264-1.462-3.264-3.366 0-1.768 1.53-3.366 3.332-3.366.986 0 1.768.544 2.414 1.122.306.272.714.238.884.068l2.21-2.142c.374-.306.51-.748.204-1.122-1.496-1.768-3.4-2.754-5.882-2.754-4.488 0-8.33 3.57-8.33 8.194zm17.978 2.754c0 3.57 1.734 5.474 4.726 5.474 1.666 0 3.434-.442 4.488-.884.442-.204.612-.408.51-.884l-.68-2.958c-.102-.408-.476-.578-.884-.476-.374.102-1.394.34-1.938.34-.68 0-1.054-.34-1.054-1.088v-5.474h3.162c.408 0 .748-.34.748-.748v-3.162a.733.733 0 0 0-.748-.748h-3.162v-4.352c0-.408-.306-.748-.68-.748h-3.74a.755.755 0 0 0-.748.748v4.352h-1.292c-.374 0-.68.306-.68.748v3.162c0 .408.306.748.68.748h1.292v5.95zm12.063 4.352c0 .408.34.748.748.748h3.672c.408 0 .748-.34.748-.748v-14.212a.733.733 0 0 0-.748-.748h-3.672a.733.733 0 0 0-.748.748v14.212zm2.55-17.136c1.632 0 2.958-1.326 2.958-2.924 0-1.632-1.326-2.992-2.958-2.992-1.632 0-2.924 1.36-2.924 2.992a2.924 2.924 0 0 0 2.924 2.924zm5.228 9.996c0 4.488 3.706 8.262 8.194 8.262 4.488 0 8.16-3.774 8.16-8.262 0-4.42-3.672-8.16-8.16-8.16-4.488 0-8.194 3.74-8.194 8.16zm4.896 0c0-1.802 1.462-3.332 3.298-3.332 1.802 0 3.264 1.53 3.264 3.332 0 1.836-1.462 3.4-3.264 3.4-1.836 0-3.298-1.564-3.298-3.4zm14.068 7.14c0 .408.34.748.748.748h3.74c.544 0 .714-.408.714-.748v-7.786c0-1.598.816-2.686 2.38-2.686 1.768 0 2.278 1.394 2.278 2.89v7.582c0 .408.306.748.748.748h3.706c.374 0 .714-.34.714-.748v-7.514c0-4.318-1.666-7.786-6.562-7.786-2.856 0-4.046 1.428-4.896 2.38l-.578-1.564c-.17-.306-.476-.476-.714-.476h-1.53a.733.733 0 0 0-.748.748v14.212zm23.69 1.122c4.183 0 6.393-2.278 6.393-4.998 0-3.162-2.584-4.42-5.746-5.576-1.122-.408-1.768-.748-1.768-1.156 0-.408.238-.646 1.122-.646 1.258 0 2.618.442 3.672.952.306.136.714 0 .816-.272l1.224-2.516c.204-.408 0-.816-.408-1.02-1.19-.612-3.332-1.19-5.372-1.19-4.08 0-5.95 2.074-5.95 4.896 0 2.516 1.564 3.91 4.59 5.1 1.836.714 2.686 1.122 2.686 1.632 0 .374-.17.748-1.19.748-1.428 0-2.618-.374-3.876-.986-.34-.17-.714.068-.816.34l-1.258 2.584c-.17.34-.068.612.272.816 1.02.612 3.06 1.292 5.61 1.292zm11.145-9.622h1.428c.306 0 .612-.272.646-.544l1.666-9.554v-3.808a.669.669 0 0 0-.646-.646h-4.76a.669.669 0 0 0-.646.646v3.876l1.666 9.486c.034.272.34.544.646.544zm-2.516 6.392c0 1.734 1.462 3.196 3.196 3.196 1.768 0 3.264-1.462 3.264-3.196 0-1.768-1.496-3.264-3.264-3.264-1.734 0-3.196 1.496-3.196 3.264z" id="g"/><filter x="-50%" y="-50%" width="200%" height="200%" filterUnits="objectBoundingBox" id="f"><feOffset dx="1" dy="1" in="SourceAlpha" result="shadowOffsetOuter1"/><feColorMatrix values="0 0 0 0 0 0 0 0 0 0 0 0 0 0 0 0 0 0 0.2 0" in="shadowOffsetOuter1"/></filter></defs><g fill="none" fill-rule="evenodd"><g opacity=".1" fill="#010202"><path d="M180.49 405.189l11.051 39.94c.626 2.265-.48 4.468-2.41 5.002l-11.748 3.251c-1.93.534-4.013-.787-4.638-3.053l-11.051-39.94c-.58-2.096.275-4.232 2.074-4.91 1.944-.81 4.018-1.473 6.117-2.053 2.097-.581 4.135-1.054 6.302-1.383 1.808-.32 3.722 1.047 4.303 3.146m-23.137 20.854l7.337 26.514c.627 2.266-.48 4.47-2.41 5.004l-11.747 3.25c-1.93.533-4.012-.787-4.638-3.053l-7.337-26.516c-.58-2.097.274-4.23 2.073-4.909 1.946-.808 4.02-1.474 6.119-2.053 2.096-.58 4.135-1.054 6.3-1.383 1.808-.32 3.724 1.048 4.303 3.146m-24.621 15.484l5.107 18.46c.627 2.266-.48 4.469-2.41 5.002l-11.747 3.25c-1.93.535-4.013-.785-4.638-3.051l-5.108-18.46c-.581-2.098.275-4.233 2.074-4.91 1.944-.81 4.02-1.473 6.117-2.054 2.098-.58 4.135-1.054 6.302-1.381 1.808-.32 3.722 1.046 4.303 3.144m8.258-27.94l-12.574-7.902-5.78 10.452c.223.48.47 1.044.633 1.63a9.736 9.736 0 0 1-6.798 12 9.734 9.734 0 0 1-11.999-6.798 9.733 9.733 0 0 1 6.798-11.997c.503-.14 1.031-.195 1.64-.274l8.68-15.32c.812-1.308 2.075-2.29 3.503-2.685 1.533-.334 3.037-.117 4.346.694l13.17 8.1 14.342-18.691a27.97 27.97 0 0 0-.093-.336 9.735 9.735 0 0 1 6.798-11.998 9.734 9.734 0 0 1 11.997 6.798 9.734 9.734 0 0 1-6.798 11.997c-1.006.278-2.06.39-2.992.286l-17.472 22.72a5.61 5.61 0 0 1-7.4 1.325M82.1 329.265c5.34 19.3-5.948 39.224-25.248 44.563-21.647 5.99-40.744-8.51-45.002-26.842l35.14.664c2.812.036 4.7-2.926 4.05-5.274l-10.77-38.934c18.29-3.435 36.77 7.531 41.83 25.823zM2.869 338.36c-1.543-.024-2.8-1.302-2.752-2.761.027-17.532 10.943-32.928 27.137-37.408 1.426-.395 2.972.623 3.427 1.943l10.866 39.268-38.678-1.042zM407.508 59.696l3.463-13.604c-.247-.564-.47-1.045-.633-1.632a9.737 9.737 0 0 1 6.797-11.998 9.735 9.735 0 0 1 12 6.798c.045.167.007.359.053.526l18.088 7.913c.855-.507 1.647-.907 2.654-1.185a9.734 9.734 0 0 1 11.997 6.796 9.735 9.735 0 0 1-6.798 11.999 9.734 9.734 0 0 1-11.997-6.798c-.046-.168-.093-.335-.055-.525l-18.089-7.915c-.853.508-1.728.931-2.652 1.186-.42.116-.863.15-1.28.265l-2.832 10.99-10.716-2.816zm-16.476 50.809c-1.415-5.119 1.475-10.345 6.547-11.93l4.08-15.943 10.716 2.817-4.169 16.6c.72.975 1.298 2.08 1.623 3.255a9.733 9.733 0 0 1-6.798 11.997 9.736 9.736 0 0 1-11.999-6.796zm60.81-21.162L396.01 74.621a9.368 9.368 0 0 1-4.122 2.405 9.737 9.737 0 0 1-11.999-6.798 9.736 9.736 0 0 1 6.8-11.998c4.698-1.301 9.533 1.157 11.458 5.501l55.834 14.723a9.368 9.368 0 0 1 4.122-2.405 9.734 9.734 0 0 1 11.997 6.797 9.735 9.735 0 0 1-6.798 12c-4.698 1.298-9.534-1.158-11.458-5.503z"/></g><g filter="url(#b)" transform="rotate(-10 238.745 73.455)"><use stroke="#0697D0" mask="url(#d)" stroke-width="18" fill="#18A0DB" xlink:href="#a"/><g filter="url(#e)" transform="rotate(-2 3502.429 -2065.994)" fill="#FEFEFE"><path d="M16.364 133.565l6.29 16.587c1.049 2.94 3.355 4.41 6.71 3.36 22.647-6.3 72.554-30.446 72.554-94.066 0-33.594-18.663-58.79-52.004-58.79C22.864.656.427 22.912.427 50.208c0 31.915 22.647 47.032 42.987 47.032 5.871 0 14.888-2.1 20.55-4.409-5.243 21.627-33.341 31.075-43.407 34.435-4.403 1.26-5.032 3.57-4.193 6.299zm33.97-61.31c-11.533 0-20.76-9.45-20.76-20.997 0-11.129 9.227-20.787 20.76-20.787 11.323 0 20.759 9.658 20.759 20.787 0 11.548-9.436 20.996-20.76 20.996zm115.4 79.577c35.229 0 55.359-28.346 55.359-75.588 0-47.453-20.13-75.588-55.359-75.588-35.228 0-55.149 28.135-55.149 75.588 0 47.242 19.921 75.588 55.15 75.588zm0-30.445c-13 0-22.227-16.588-22.227-45.143 0-28.346 9.227-44.933 22.227-44.933 13.211 0 22.437 16.587 22.437 44.933 0 28.555-9.226 45.143-22.437 45.143zM241.995 106.963c7.167 0 13.075-5.819 13.075-13.093 0-7.273-5.908-12.995-13.075-12.995-7.264 0-13.076 5.722-13.076 12.995 0 7.274 5.812 13.093 13.076 13.093zm-5.908 40.15c-.678 1.261.193 2.62 1.646 2.62h7.167c.485 0 1.356-.583 1.647-.97l33.415-64.3c.678-1.26-.194-2.619-1.647-2.619h-7.36c-.485 0-1.26.291-1.647.97l-33.221 64.3zm5.908-49.848c-1.84 0-3.39-1.552-3.39-3.395 0-1.745 1.55-3.297 3.39-3.297 1.743 0 3.293 1.552 3.293 3.297 0 1.843-1.55 3.395-3.293 3.395zm19.37 40.344c0 7.177 5.909 13.093 13.076 13.093 7.264 0 13.173-5.916 13.173-13.093 0-7.273-5.909-13.092-13.173-13.092-7.167 0-13.075 5.819-13.075 13.092zm9.783 0c0-1.842 1.55-3.394 3.293-3.394 1.84 0 3.39 1.552 3.39 3.394 0 1.746-1.55 3.298-3.39 3.298-1.743 0-3.293-1.552-3.293-3.298z"/></g><path d="M173.197 4.331l28.13 18.068L226.966.943l22.753 24.497 30.17-14.404 15.948 29.387 32.803-6.449 8.14 32.431s-94.051 82.52-134.352 141.84c-46.271 68.11-80.437 201.756-80.437 201.756l-12.139-31.153-33.352 2.285-4.01-33.196-32.875-6.083 4.37-33.148-30.329-14.068 12.475-31.022-25.877-21.17 19.796-26.944-19.8-26.94 25.873-21.174-12.48-31.018 30.326-14.075-4.374-33.148 32.872-6.088 4.004-33.196 33.354 2.28 12.133-31.156 31.74 10.504 19.499-27.16z" fill="#FEFEFE" opacity=".11"/><g transform="rotate(-2 222.738 323.983)"><use fill="#000" filter="url(#f)" xlink:href="#g"/><use fill="#FEFEFE" xlink:href="#g"/><use fill="#000" xlink:href="#g"/></g></g></g></svg>