<svg xmlns="http://www.w3.org/2000/svg" width="180" height="180" viewBox="0 0 180 180" xmlns:xlink="http://www.w3.org/1999/xlink"><defs><circle id="a" cx="90" cy="90" r="90"/><mask id="i" width="180" height="180" x="0" y="0" fill="#fff"><use xlink:href="#a"/></mask><path id="b" d="M6.367 95.388a6.01 6.01 0 0 1-6-6l1.837-83.02c0-3.307 2.694-6.062 6-6.062h67.96c3.305 0 6 2.694 6 6L84 89.388c0 3.306-2.694 6-6 6H6.367z"/><mask id="j" width="89.633" height="101.082" x="-3" y="-3"><path fill="#fff" d="M-2.633-2.694H87V98.388H-2.633z"/><use xlink:href="#b"/></mask><path id="c" d="M101.878 38.816a3.776 3.776 0 0 1-3.796 3.796H82.959c-2.081 0-3.796-1.653-3.796-3.734a3.776 3.776 0 0 1 3.796-3.796h15.123c2.081 0 3.796 1.653 3.796 3.734z"/><mask id="k" width="24.714" height="9.531" x="-1" y="-1"><path fill="#fff" d="M78.163 34.082h24.714v9.531H78.163z"/><use xlink:href="#c"/></mask><circle id="d" cx="67.347" cy="103.837" r="4.592"/><mask id="l" width="13.184" height="13.184" x="-2" y="-2"><path fill="#fff" d="M60.755 97.245h13.184v13.184H60.755z"/><use xlink:href="#d"/></mask><circle id="e" cx="116.51" cy="103.837" r="4.592"/><mask id="m" width="13.184" height="13.184" x="-2" y="-2"><path fill="#fff" d="M109.918 97.245h13.184v13.184h-13.184z"/><use xlink:href="#e"/></mask><path id="f" d="M123.611 70.465c-.274 7.733-6.771 14-14.498 14H72.587c-7.733 0-14.223-6.255-14.496-14l-.617-17.538a2.877 2.877 0 0 1 2.902-3.005h60.956a2.874 2.874 0 0 1 2.901 3.005l-.622 17.538z"/><mask id="n" width="70.763" height="38.544" x="-2" y="-2"><path fill="#fff" d="M55.472 47.922h70.763v38.544H55.472z"/><use xlink:href="#f"/></mask><path id="g" d="M109.898 64.408c-3.796-15.55 6.184-31.286 22.286-35.204 16.102-3.918 32.204 5.51 36 21 3.734 15.551-6.184 31.286-22.286 35.204-3.429.857-6.98 1.041-10.53.674L117 103.224l5.816-21.306c-6.428-3.857-11.081-10.163-12.918-17.51z"/><mask id="o" width="59.878" height="74.908" x="0" y="0" fill="#fff"><use xlink:href="#g"/></mask><path id="h" d="M28.102 2.265c9.306-4.653 20.816-.673 25.653 9 4.837 9.674 1.225 21.245-8.082 25.96-9.306 4.653-20.816.673-25.653-9-1.04-2.082-1.714-4.286-1.959-6.613L.122 19.347l18.735-6.306c1.53-4.653 4.837-8.51 9.245-10.776z"/><mask id="p" width="55.779" height="38.845" x="0" y="0" fill="#fff"><use xlink:href="#h"/></mask></defs><g fill="none" fill-rule="evenodd"><use fill="#ED4F7E" stroke="#D13664" stroke-width="14" mask="url(#i)" xlink:href="#a"/><path fill="#434955" d="M120.918 120.551c-1.469-1.47-3.857-1.408-5.326.061a3.81 3.81 0 0 0 0 5.266l7.347 7.346H58.102l7.347-7.346c1.47-1.47 1.408-3.858-.061-5.327a3.81 3.81 0 0 0-5.266 0l-21.306 21.367c-1.53 1.409-1.592 3.796-.183 5.327 1.408 1.53 3.796 1.592 5.326.184l.184-.184 6.428-6.429h79.96l6.428 6.429c1.592 1.347 3.98 1.163 5.327-.429 1.224-1.408 1.163-3.49 0-4.898l-21.368-21.367z"/><path fill="#383F4C" d="M130.662 140.816s-1.193-3.943-2.573-5.3c-1.194-1.174-5.15-2.292-5.15-2.292H58.102s-3.281-.04-5.221 1.916-2.31 5.676-2.31 5.676h80.09z"/><g transform="translate(48.367 28.776)"><path fill="#000" fill-opacity=".1" d="M6.787 101.796c-3.29 0-5.97-2.762-5.97-6.152l1.828-85.123c0-3.39 2.68-6.215 5.97-6.215h67.627c3.29 0 5.97 2.762 5.97 6.152l1.828 85.186c0 3.39-2.68 6.152-5.97 6.152H6.787z"/><use fill="#E3EBF4" xlink:href="#b"/><use stroke="#D8E1E9" stroke-width="6" mask="url(#j)" xlink:href="#b"/></g><use fill="#13A1DC" xlink:href="#c"/><use stroke="#CED8E1" stroke-width="2" mask="url(#k)" xlink:href="#c"/><circle cx="67.347" cy="104.837" r="6.398" fill="#000" opacity=".1"/><circle cx="116.745" cy="104.724" r="6.398" fill="#000" opacity=".1"/><use fill="#FFD900" xlink:href="#d"/><use stroke="#F9CF12" stroke-width="4" mask="url(#l)" xlink:href="#d"/><use fill="#FFD900" xlink:href="#e"/><use stroke="#F9CF12" stroke-width="4" mask="url(#m)" xlink:href="#e"/><path fill="#000" d="M79.162 38.633c0-2.081 1.715-3.796 3.796-3.796h15.123c2.081 0 3.796 1.715 3.796 3.796v.306c-.184-1.898-1.776-2.755-3.735-2.755H83.02c-1.96 0-3.551.857-3.735 2.755-.061-.122-.061-.245-.123-.306z" opacity=".1"/><g transform="rotate(-180 90.853 67.194)"><use fill="#13A1DC" xlink:href="#f"/><use stroke="#CED8E1" stroke-width="4" mask="url(#n)" xlink:href="#f"/></g><path fill="#FFF" fill-opacity=".1" d="M105.347 52.052h3.513c7.732 0 14.17 6.269 14.38 13.994l.401 14.837a2.903 2.903 0 0 1-2.926 2.994H68.906c-1.66 0-1.714-.362-.128-.849 0 0 32.397-8.129 36.57-30.976z"/><path fill="#000" fill-opacity=".1" d="M122.555 59.001c-2.178-5.31-7.432-9.08-13.435-9.08H72.594c-7.727 0-14.224 6.27-14.498 14.001l-.622 17.539a2.892 2.892 0 0 0 .764 2.086 3.027 3.027 0 0 1-.032-.562l.622-17.538c.274-7.733 6.771-14 14.498-14h36.526c5.411 0 10.213 3.062 12.703 7.554z"/><path fill="#FFF" d="M78.1 115.53l5.093-4.232c22.546-20.106 26.637-36.913 31.063-57.703 1.336-6.225 2.392-20.556 2.141-26.843 0 0 14.047-2.325 15.254 4.78 0 .062.891 3.016.891 3.078l2.088 84.593c.668 3.672-4.008 7.532-8.935 7.532H59.897c7.264-3.424 9.602-4.607 13.61-7.657.835-.622 3.841-2.863 4.593-3.548z" opacity=".15"/><path fill="#000" fill-opacity=".1" d="M111.122 65.633c-3.795-15.551 6.184-31.286 22.286-35.204 16.102-3.919 32.204 5.51 36 21 3.735 15.55-6.184 31.285-22.286 35.204-3.428.857-6.98 1.04-10.53.673L117 103.224l7.04-20.081c-6.428-3.857-11.08-10.163-12.918-17.51z"/><use fill="#9B5CA4" stroke="#914E9A" stroke-width="6" mask="url(#o)" xlink:href="#g"/><path d="M134.51 70.776l-4.837 1.163-4.102-17.51 4.837-1.163 4.102 17.51zm20.327-19.163c.795.673 1.346 1.592 1.408 2.633l.306 2.081c1.47 9.674 1.837 11.939-7.286 14.082-4.102.918-5.755.306-7.224-.184-1.164-.428-2.143-.735-4.531-.184l-1.102.245-3.306-14.326c5.51-2.694 5.265-6.123 5.204-8.633 0-1.47-.123-3.122 1.592-3.55.612-.123 1.224.06 1.714.428 1.653 1.163 2.265 4.47 2.878 8.816l7.591-1.775a3.635 3.635 0 0 1 2.756.367z" fill="#000" opacity=".1"/><path d="M133.286 69.551l-4.837 1.163-4.102-17.51 4.837-1.163 4.102 17.51zm20.327-19.163c.795.673 1.346 1.592 1.408 2.633l.306 2.081c1.47 9.674 1.837 11.939-7.286 14.082-4.102.918-5.755.306-7.224-.184-1.164-.428-2.143-.735-4.531-.184l-1.102.245-3.306-14.326c5.51-2.694 5.265-6.123 5.204-8.633 0-1.47-.123-3.122 1.592-3.55.612-.123 1.224.06 1.714.428 1.653 1.163 2.265 4.47 2.878 8.816l7.591-1.775a3.635 3.635 0 0 1 2.756.367z" fill="#FFF"/><g transform="rotate(-8 660.422 -775.543)"><path fill="#000" fill-opacity=".1" d="M28.714 4.102c9.306-4.653 20.817-.673 25.653 9 4.837 9.674 1.225 21.245-8.081 25.96-9.306 4.652-20.817.673-25.653-9-1.041-2.082-1.715-4.286-1.96-6.613L.29 19.554l19.18-4.676c1.531-4.654 4.837-8.51 9.245-10.776z"/><use fill="#37BEC0" stroke="#2CB1B3" stroke-width="4" mask="url(#p)" xlink:href="#h"/></g><g fill="#000" opacity=".1"><path d="M162.673 91.714h-5.693a2.587 2.587 0 0 0-2.572-2.572 2.587 2.587 0 0 0-2.571 2.572h-5.694c-.368 0-.612.245-.612.612v15.918c0 .368.244.613.612.613h16.53c.368 0 .613-.245.613-.613V92.326c-.062-.306-.306-.612-.613-.612zm-8.265-1.286c.674 0 1.286.551 1.286 1.286 0 .734-.551 1.285-1.286 1.285a1.293 1.293 0 0 1-1.286-1.285c0-.674.551-1.286 1.286-1.286zm6.98 16.592h-14.02V93.612h1.958v1.285c0 .368.245.613.613.613h8.877c.368 0 .613-.245.613-.613v-1.285h1.959v13.408z"/><path d="M153.122 104.999l-4.102-4.714 1.164-1.163 2.938 2.265 5.449-4.836 1.164 1.163z"/></g><g fill="#FFF"><path d="M162.061 91.102h-5.693a2.587 2.587 0 0 0-2.572-2.572 2.587 2.587 0 0 0-2.571 2.572h-5.694c-.368 0-.612.245-.612.612v15.918c0 .368.244.613.612.613h16.53c.368 0 .613-.245.613-.613V91.714c-.062-.306-.306-.612-.613-.612zm-8.265-1.286c.674 0 1.286.551 1.286 1.286 0 .734-.551 1.285-1.286 1.285a1.293 1.293 0 0 1-1.286-1.285c0-.674.551-1.286 1.286-1.286zm6.98 16.592h-14.02V93h1.958v1.285c0 .368.245.613.613.613h8.877c.368 0 .613-.245.613-.613V93h1.959v13.408z"/><path d="M152.51 104.387l-4.102-4.714 1.164-1.163 2.938 2.265 5.449-4.836 1.164 1.163z"/></g></g></svg>