<?xml version="1.0" encoding="utf-8"?>
<!-- Generator: Adobe Illustrator 19.1.0, SVG Export Plug-In . SVG Version: 6.00 Build 0)  -->
<svg version="1.1" id="Layer_1" xmlns="http://www.w3.org/2000/svg" xmlns:xlink="http://www.w3.org/1999/xlink" x="0px" y="0px"
	 viewBox="-103 105.1 303.9 303.9" style="enable-background:new -103 105.1 303.9 303.9;" xml:space="preserve">
<style type="text/css">
	.st0{fill:none;}
	.st1{fill:#F9E8D8;}
	.st2{fill:#0EA2DC;}
	.st3{fill:#ED4F7E;stroke:#B23B5F;stroke-width:10;stroke-miterlimit:10;}
	.st4{fill:#FAAD40;}
	.st5{fill:#FFFFFF;}
	.st6{fill:#666666;}
	.st7{fill:#37BEC0;}
	.st8{fill:#9B5CA4;}
	.st9{fill:#A4CE4E;}
	.st10{fill:#ED4F7E;}
	.st11{opacity:0.3;fill:#FFFFFF;}
	.st12{fill:#4D4D4D;}
	.st13{fill:url(#SVGID_1_);}
</style>
<pattern  x="-103" y="409" width="40" height="40" patternUnits="userSpaceOnUse" id="New_Pattern_Swatch_6" viewBox="110.2 -135.3 40 40" style="overflow:visible;">
	<g>
		<polygon class="st0" points="110.2,-135.3 150.2,-135.3 150.2,-95.3 110.2,-95.3 		"/>
		<g>
			<polygon class="st1" points="140,-23.7 163.7,-110.5 250.5,-86.8 226.8,0 			"/>
		</g>
		<g>
			<polygon class="st1" points="120,-23.7 143.7,-110.5 230.5,-86.8 206.8,0 			"/>
		</g>
		<g>
			<polygon class="st1" points="100,-23.7 123.7,-110.5 210.5,-86.8 186.8,0 			"/>
		</g>
		<g>
			<polygon class="st1" points="80,-23.7 103.7,-110.5 190.5,-86.8 166.8,0 			"/>
		</g>
		<g>
			<polygon class="st1" points="60,-23.7 83.7,-110.5 170.5,-86.8 146.8,0 			"/>
		</g>
		<g>
			<polygon class="st1" points="40,-23.7 63.7,-110.5 150.5,-86.8 126.8,0 			"/>
		</g>
		<g>
			<polygon class="st1" points="20,-23.7 43.7,-110.5 130.5,-86.8 106.8,0 			"/>
		</g>
		<g>
			<polygon class="st1" points="0,-23.7 23.7,-110.5 110.5,-86.8 86.8,0 			"/>
		</g>
		<g>
			<polygon class="st1" points="150,-43.7 173.7,-130.5 260.5,-106.8 236.8,-20 			"/>
		</g>
		<g>
			<polygon class="st1" points="130,-43.7 153.7,-130.5 240.5,-106.8 216.8,-20 			"/>
		</g>
		<g>
			<polygon class="st1" points="110,-43.7 133.7,-130.5 220.5,-106.8 196.8,-20 			"/>
		</g>
		<g>
			<polygon class="st1" points="90,-43.7 113.7,-130.5 200.5,-106.8 176.8,-20 			"/>
		</g>
		<g>
			<polygon class="st1" points="70,-43.7 93.7,-130.5 180.5,-106.8 156.8,-20 			"/>
		</g>
		<g>
			<polygon class="st1" points="50,-43.7 73.7,-130.5 160.5,-106.8 136.8,-20 			"/>
		</g>
		<g>
			<polygon class="st1" points="30,-43.7 53.7,-130.5 140.5,-106.8 116.8,-20 			"/>
		</g>
		<g>
			<polygon class="st1" points="10,-43.7 33.7,-130.5 120.5,-106.8 96.8,-20 			"/>
		</g>
		<g>
			<polygon class="st1" points="140,-63.7 163.7,-150.5 250.5,-126.8 226.8,-40 			"/>
		</g>
		<g>
			<polygon class="st1" points="120,-63.7 143.7,-150.5 230.5,-126.8 206.8,-40 			"/>
		</g>
		<g>
			<polygon class="st1" points="100,-63.7 123.7,-150.5 210.5,-126.8 186.8,-40 			"/>
			<path class="st2" d="M176.7-95.7c0,9.1-7.4,16.5-16.5,16.5s-16.5-7.4-16.5-16.5s7.4-16.5,16.5-16.5S176.7-104.9,176.7-95.7z"/>
		</g>
		<g>
			<polygon class="st1" points="80,-63.7 103.7,-150.5 190.5,-126.8 166.8,-40 			"/>
			<path class="st2" d="M156.7-95.7c0,9.1-7.4,16.5-16.5,16.5s-16.5-7.4-16.5-16.5s7.4-16.5,16.5-16.5S156.7-104.9,156.7-95.7z"/>
		</g>
		<g>
			<polygon class="st1" points="60,-63.7 83.7,-150.5 170.5,-126.8 146.8,-40 			"/>
			<path class="st2" d="M136.7-95.7c0,9.1-7.4,16.5-16.5,16.5s-16.5-7.4-16.5-16.5s7.4-16.5,16.5-16.5S136.7-104.9,136.7-95.7z"/>
		</g>
		<g>
			<polygon class="st1" points="40,-63.7 63.7,-150.5 150.5,-126.8 126.8,-40 			"/>
			<path class="st2" d="M116.7-95.7c0,9.1-7.4,16.5-16.5,16.5s-16.5-7.4-16.5-16.5s7.4-16.5,16.5-16.5S116.7-104.9,116.7-95.7z"/>
		</g>
		<g>
			<polygon class="st1" points="20,-63.7 43.7,-150.5 130.5,-126.8 106.8,-40 			"/>
		</g>
		<g>
			<polygon class="st1" points="0,-63.7 23.7,-150.5 110.5,-126.8 86.8,-40 			"/>
		</g>
		<g>
			<polygon class="st1" points="150,-83.7 173.7,-170.5 260.5,-146.8 236.8,-60 			"/>
		</g>
		<g>
			<polygon class="st1" points="130,-83.7 153.7,-170.5 240.5,-146.8 216.8,-60 			"/>
		</g>
		<g>
			<polygon class="st1" points="110,-83.7 133.7,-170.5 220.5,-146.8 196.8,-60 			"/>
		</g>
		<g>
			<polygon class="st1" points="90,-83.7 113.7,-170.5 200.5,-146.8 176.8,-60 			"/>
			<path class="st2" d="M166.7-115.7c0,9.1-7.4,16.5-16.5,16.5s-16.5-7.4-16.5-16.5s7.4-16.5,16.5-16.5S166.7-124.9,166.7-115.7z"/>
		</g>
		<g>
			<polygon class="st1" points="70,-83.7 93.7,-170.5 180.5,-146.8 156.8,-60 			"/>
			<path class="st2" d="M146.7-115.7c0,9.1-7.4,16.5-16.5,16.5s-16.5-7.4-16.5-16.5s7.4-16.5,16.5-16.5S146.7-124.9,146.7-115.7z"/>
		</g>
		<g>
			<polygon class="st1" points="50,-83.7 73.7,-170.5 160.5,-146.8 136.8,-60 			"/>
			<path class="st2" d="M126.7-115.7c0,9.1-7.4,16.5-16.5,16.5s-16.5-7.4-16.5-16.5s7.4-16.5,16.5-16.5S126.7-124.9,126.7-115.7z"/>
		</g>
		<g>
			<polygon class="st1" points="30,-83.7 53.7,-170.5 140.5,-146.8 116.8,-60 			"/>
		</g>
		<g>
			<polygon class="st1" points="10,-83.7 33.7,-170.5 120.5,-146.8 96.8,-60 			"/>
		</g>
		<g>
			<polygon class="st1" points="140,-103.7 163.7,-190.5 250.5,-166.8 226.8,-80 			"/>
		</g>
		<g>
			<polygon class="st1" points="120,-103.7 143.7,-190.5 230.5,-166.8 206.8,-80 			"/>
		</g>
		<g>
			<polygon class="st1" points="100,-103.7 123.7,-190.5 210.5,-166.8 186.8,-80 			"/>
			<path class="st2" d="M176.7-135.7c0,9.1-7.4,16.5-16.5,16.5s-16.5-7.4-16.5-16.5s7.4-16.5,16.5-16.5S176.7-144.9,176.7-135.7z"/>
		</g>
		<g>
			<polygon class="st1" points="80,-103.7 103.7,-190.5 190.5,-166.8 166.8,-80 			"/>
			<path class="st2" d="M156.7-135.7c0,9.1-7.4,16.5-16.5,16.5s-16.5-7.4-16.5-16.5s7.4-16.5,16.5-16.5S156.7-144.9,156.7-135.7z"/>
		</g>
		<g>
			<polygon class="st1" points="60,-103.7 83.7,-190.5 170.5,-166.8 146.8,-80 			"/>
			<path class="st2" d="M136.7-135.7c0,9.1-7.4,16.5-16.5,16.5s-16.5-7.4-16.5-16.5s7.4-16.5,16.5-16.5S136.7-144.9,136.7-135.7z"/>
		</g>
		<g>
			<polygon class="st1" points="40,-103.7 63.7,-190.5 150.5,-166.8 126.8,-80 			"/>
			<path class="st2" d="M116.7-135.7c0,9.1-7.4,16.5-16.5,16.5s-16.5-7.4-16.5-16.5s7.4-16.5,16.5-16.5S116.7-144.9,116.7-135.7z"/>
		</g>
		<g>
			<polygon class="st1" points="20,-103.7 43.7,-190.5 130.5,-166.8 106.8,-80 			"/>
		</g>
		<g>
			<polygon class="st1" points="0,-103.7 23.7,-190.5 110.5,-166.8 86.8,-80 			"/>
		</g>
		<g>
			<polygon class="st1" points="150,-123.7 173.7,-210.5 260.5,-186.8 236.8,-100 			"/>
		</g>
		<g>
			<polygon class="st1" points="130,-123.7 153.7,-210.5 240.5,-186.8 216.8,-100 			"/>
		</g>
		<g>
			<polygon class="st1" points="110,-123.7 133.7,-210.5 220.5,-186.8 196.8,-100 			"/>
		</g>
		<g>
			<polygon class="st1" points="90,-123.7 113.7,-210.5 200.5,-186.8 176.8,-100 			"/>
		</g>
		<g>
			<polygon class="st1" points="70,-123.7 93.7,-210.5 180.5,-186.8 156.8,-100 			"/>
		</g>
		<g>
			<polygon class="st1" points="50,-123.7 73.7,-210.5 160.5,-186.8 136.8,-100 			"/>
		</g>
		<g>
			<polygon class="st1" points="30,-123.7 53.7,-210.5 140.5,-186.8 116.8,-100 			"/>
		</g>
		<g>
			<polygon class="st1" points="10,-123.7 33.7,-210.5 120.5,-186.8 96.8,-100 			"/>
		</g>
		<g>
			<polygon class="st1" points="140,-143.7 163.7,-230.5 250.5,-206.8 226.8,-120 			"/>
		</g>
		<g>
			<polygon class="st1" points="120,-143.7 143.7,-230.5 230.5,-206.8 206.8,-120 			"/>
		</g>
		<g>
			<polygon class="st1" points="100,-143.7 123.7,-230.5 210.5,-206.8 186.8,-120 			"/>
		</g>
		<g>
			<polygon class="st1" points="80,-143.7 103.7,-230.5 190.5,-206.8 166.8,-120 			"/>
		</g>
		<g>
			<polygon class="st1" points="60,-143.7 83.7,-230.5 170.5,-206.8 146.8,-120 			"/>
		</g>
		<g>
			<polygon class="st1" points="40,-143.7 63.7,-230.5 150.5,-206.8 126.8,-120 			"/>
		</g>
		<g>
			<polygon class="st1" points="20,-143.7 43.7,-230.5 130.5,-206.8 106.8,-120 			"/>
		</g>
		<g>
			<polygon class="st1" points="0,-143.7 23.7,-230.5 110.5,-206.8 86.8,-120 			"/>
		</g>
	</g>
</pattern>
<title>vert-transport-future-b</title>
<g>
	<g id="Layer_3">
		<circle class="st3" cx="48.9" cy="257.1" r="146.9"/>
	</g>
</g>
<g>
	<g>
		<path class="st4" d="M41.3,224.6l-26.8,10.2c0,0,2.3,7.2,6.3,9.5s18.8-5.3,18.8-5.3L41.3,224.6z"/>
		<path class="st4" d="M129.1,226.6c0,0,4.5,24.5,3.8,31.7c-0.7,7.2-11.7,31.6-16.3,41c-4.6,9.4-37.3,17.3-44,21.6
			c-6.7,4.3-9.4-21.6-9.4-21.6s10.9-25.9,23.3-30.9S129.1,226.6,129.1,226.6z"/>
		<path class="st5" d="M62,311.6L3.8,290.7c-6.7-2.4-9.2-10.6-5-16.3l75.7-103.7c2.8-3.8,7.8-5.3,12.2-3.7l58.2,20.9
			c6.7,2.4,9.2,10.6,5,16.3L74.2,307.8C71.4,311.6,66.4,313.2,62,311.6z"/>
		<g>
			<path class="st6" d="M67.2,293.6l-47.2-17c-5.4-1.9-7.5-8.6-4.1-13.2l61.4-84.1c2.3-3.1,6.3-4.3,9.9-3l47.2,17
				c5.4,1.9,7.5,8.6,4.1,13.2l-61.4,84.1C74.8,293.6,70.8,294.9,67.2,293.6z"/>
			<path class="st7" d="M80.7,195.3l-4.9-1.8c-1.7-0.6-2.3-2.7-1.2-4.2l3.5-4.5c0.7-0.9,2-1.3,3.1-0.9l4.9,1.8
				c1.7,0.6,2.3,2.7,1.2,4.2l-3.5,4.5C83,195.4,81.8,195.7,80.7,195.3z"/>
			<path class="st4" d="M94.1,200.6l-4.9-1.8c-1.7-0.6-2.3-2.7-1.2-4.2l3.5-4.5c0.7-0.9,2-1.3,3.1-0.9l4.9,1.8
				c1.7,0.6,2.3,2.7,1.2,4.2l-3.5,4.5C96.4,200.6,95.2,201,94.1,200.6z"/>
			<path class="st2" d="M108.7,205.8l-4.9-1.8c-1.7-0.6-2.3-2.7-1.2-4.2l3.5-4.5c0.7-0.9,2-1.3,3.1-0.9l4.9,1.8
				c1.7,0.6,2.3,2.7,1.2,4.2l-3.5,4.5C111,205.8,109.8,206.2,108.7,205.8z"/>
			<path class="st8" d="M123.7,211.4l-4.9-1.8c-1.7-0.6-2.3-2.7-1.2-4.2l3.5-4.5c0.7-0.9,2-1.3,3.1-0.9l4.9,1.8
				c1.7,0.6,2.3,2.7,1.2,4.2l-3.5,4.5C126,211.5,124.8,211.8,123.7,211.4z"/>
			<path class="st2" d="M71.1,209.9l-4.9-1.8c-1.7-0.6-2.3-2.7-1.2-4.2l3.5-4.5c0.7-0.9,2-1.3,3.1-0.9l4.9,1.8
				c1.7,0.6,2.3,2.7,1.2,4.2l-3.5,4.5C73.5,210,72.2,210.3,71.1,209.9z"/>
			<path class="st9" d="M84.5,215.2l-4.9-1.8c-1.7-0.6-2.3-2.7-1.2-4.2l3.5-4.5c0.7-0.9,2-1.3,3.1-0.9l4.9,1.8
				c1.7,0.6,2.3,2.7,1.2,4.2l-3.5,4.5C86.8,215.2,85.6,215.6,84.5,215.2z"/>
			<path class="st8" d="M99.1,220.4l-4.9-1.8c-1.7-0.6-2.3-2.7-1.2-4.2l3.5-4.5c0.7-0.9,2-1.3,3.1-0.9l4.9,1.8
				c1.7,0.6,2.3,2.7,1.2,4.2l-3.5,4.5C101.5,220.4,100.2,220.8,99.1,220.4z"/>
			<path class="st10" d="M114.1,226.1l-4.9-1.8c-1.7-0.6-2.3-2.7-1.2-4.2l3.5-4.5c0.7-0.9,2-1.3,3.1-0.9l4.9,1.8
				c1.7,0.6,2.3,2.7,1.2,4.2l-3.5,4.5C116.4,226.1,115.2,226.5,114.1,226.1z"/>
			<path class="st7" d="M59.9,225.2l-4.9-1.8c-1.7-0.6-2.3-2.7-1.2-4.2l3.5-4.5c0.7-0.9,2-1.3,3.1-0.9l4.9,1.8
				c1.7,0.6,2.3,2.7,1.2,4.2l-3.5,4.5C62.2,225.3,61,225.6,59.9,225.2z"/>
			<path class="st4" d="M73.3,230.4l-4.9-1.8c-1.7-0.6-2.3-2.7-1.2-4.2l3.5-4.5c0.7-0.9,2-1.3,3.1-0.9l4.9,1.8
				c1.7,0.6,2.3,2.7,1.2,4.2l-3.5,4.5C75.6,230.5,74.4,230.8,73.3,230.4z"/>
			<path class="st2" d="M87.9,235.6l-4.9-1.8c-1.7-0.6-2.3-2.7-1.2-4.2l3.5-4.5c0.7-0.9,2-1.3,3.1-0.9l4.9,1.8
				c1.7,0.6,2.3,2.7,1.2,4.2l-3.5,4.5C90.2,235.7,89,236,87.9,235.6z"/>
			<path class="st8" d="M102.9,241.3l-4.9-1.8c-1.7-0.6-2.3-2.7-1.2-4.2l3.5-4.5c0.7-0.9,2-1.3,3.1-0.9l4.9,1.8
				c1.7,0.6,2.3,2.7,1.2,4.2l-3.5,4.5C105.2,241.4,104,241.7,102.9,241.3z"/>
			<path class="st2" d="M50.3,239.8l-4.9-1.8c-1.7-0.6-2.3-2.7-1.2-4.2l3.5-4.5c0.7-0.9,2-1.3,3.1-0.9l4.9,1.8
				c1.7,0.6,2.3,2.7,1.2,4.2l-3.5,4.5C52.7,239.9,51.4,240.2,50.3,239.8z"/>
			<path class="st9" d="M63.7,245l-4.9-1.8c-1.7-0.6-2.3-2.7-1.2-4.2l3.5-4.5c0.7-0.9,2-1.3,3.1-0.9l4.9,1.8
				c1.7,0.6,2.3,2.7,1.2,4.2l-3.5,4.5C66,245.1,64.8,245.4,63.7,245z"/>
			<path class="st8" d="M78.3,250.2l-4.9-1.8c-1.7-0.6-2.3-2.7-1.2-4.2l3.5-4.5c0.7-0.9,2-1.3,3.1-0.9l4.9,1.8
				c1.7,0.6,2.3,2.7,1.2,4.2l-3.5,4.5C80.7,250.3,79.4,250.6,78.3,250.2z"/>
			<path class="st10" d="M93.3,255.9l-4.9-1.8c-1.7-0.6-2.3-2.7-1.2-4.2l3.5-4.5c0.7-0.9,2-1.3,3.1-0.9l4.9,1.8
				c1.7,0.6,2.3,2.7,1.2,4.2l-3.5,4.5C95.6,256,94.4,256.3,93.3,255.9z"/>
			<path class="st7" d="M37.6,255.3l-4.9-1.8c-1.7-0.6-2.3-2.7-1.2-4.2l3.5-4.5c0.7-0.9,2-1.3,3.1-0.9l4.9,1.8
				c1.7,0.6,2.3,2.7,1.2,4.2l-3.5,4.5C40,255.3,38.7,255.7,37.6,255.3z"/>
			<path class="st4" d="M51,260.5l-4.9-1.8c-1.7-0.6-2.3-2.7-1.2-4.2l3.5-4.5c0.7-0.9,2-1.3,3.1-0.9l4.9,1.8
				c1.7,0.6,2.3,2.7,1.2,4.2l-3.5,4.5C53.4,260.5,52.1,260.9,51,260.5z"/>
			<path class="st2" d="M65.7,265.7l-4.9-1.8c-1.7-0.6-2.3-2.7-1.2-4.2l3.5-4.5c0.7-0.9,2-1.3,3.1-0.9l4.9,1.8
				c1.7,0.6,2.3,2.7,1.2,4.2l-3.5,4.5C68,265.7,66.8,266.1,65.7,265.7z"/>
			<path class="st8" d="M80.6,271.4l-4.9-1.8c-1.7-0.6-2.3-2.7-1.2-4.2l3.5-4.5c0.7-0.9,2-1.3,3.1-0.9l4.9,1.8
				c1.7,0.6,2.3,2.7,1.2,4.2l-3.5,4.5C83,271.4,81.7,271.8,80.6,271.4z"/>
			<path class="st2" d="M28.1,269.9l-4.9-1.8c-1.7-0.6-2.3-2.7-1.2-4.2l3.5-4.5c0.7-0.9,2-1.3,3.1-0.9l4.9,1.8
				c1.7,0.6,2.3,2.7,1.2,4.2l-3.5,4.5C30.4,269.9,29.2,270.3,28.1,269.9z"/>
			<path class="st9" d="M41.5,275.1l-4.9-1.8c-1.7-0.6-2.3-2.7-1.2-4.2l3.5-4.5c0.7-0.9,2-1.3,3.1-0.9l4.9,1.8
				c1.7,0.6,2.3,2.7,1.2,4.2l-3.5,4.5C43.8,275.1,42.6,275.5,41.5,275.1z"/>
			<path class="st8" d="M56.1,280.3l-4.9-1.8c-1.7-0.6-2.3-2.7-1.2-4.2l3.5-4.5c0.7-0.9,2-1.3,3.1-0.9l4.9,1.8
				c1.7,0.6,2.3,2.7,1.2,4.2l-3.5,4.5C58.5,280.3,57.2,280.7,56.1,280.3z"/>
			<path class="st10" d="M71.1,286l-4.9-1.8c-1.7-0.6-2.3-2.7-1.2-4.2l3.5-4.5c0.7-0.9,2-1.3,3.1-0.9l4.9,1.8
				c1.7,0.6,2.3,2.7,1.2,4.2l-3.5,4.5C73.4,286,72.2,286.4,71.1,286z"/>
			<path class="st11" d="M20,276.6c-5.4-1.9-7.5-8.6-4.1-13.2l61.4-84.1c2.3-3.1,6.3-4.3,9.9-3l47.2,17c5.4,1.9,7.5,8.6,4.1,13.2
				L20,276.6z"/>
		</g>
		<path class="st4" d="M10,311.1c0,0,35.2-15.4,43.1-27.6s15.9-20.1,17.1-28.9s1.8-28.7,4.9-33c3.1-4.3,14.6-5.8,15,0
			c0.4,5.8,0.9,19.4,1.4,24.1c0.4,4.7-1,19-1.4,24.7s8.1,20.3,8.1,20.3c11.2-2,19,18-21,30.7C66.1,325,36,328.9,36,328.9L10,311.1z"
			/>
		<path class="st5" d="M-58.4,335.6l64.7-31.5c0,0,22.1,0.8,32,7.1c9.9,6.3,22.7,18.7,19,21.2c-3.7,2.6-65.4,48.1-65.4,48.1
			L-58.4,335.6z"/>
		<path class="st12" d="M-69,335.6l48.1-23.4c0,0,36.3-0.3,49.4,7c13.2,7.3,30.1,22,25.1,25.1s-60.9,43.3-60.9,43.3
			c1,0.6-17.5-6.9-36.8-23C-61.5,349.9-69,335.6-69,335.6z"/>
		<pattern  id="SVGID_1_" xlink:href="#New_Pattern_Swatch_6" patternTransform="matrix(1.1574 0 0 1.1574 1150.2041 1390.144)">
		</pattern>
		<path class="st13" d="M76.4,233.1c0,0-0.9-8.9,1.5-11c2.4-2.2,9.2-3.1,9.8-1.5c0.6,1.5,1.8,9.5,0.7,10.8
			C87.3,232.6,76.4,233.1,76.4,233.1z"/>
	</g>
</g>
</svg>
