<?xml version="1.0" encoding="utf-8"?>
<!-- Generator: Adobe Illustrator 19.1.0, SVG Export Plug-In . SVG Version: 6.00 Build 0)  -->
<svg version="1.1" id="Layer_1" xmlns="http://www.w3.org/2000/svg" xmlns:xlink="http://www.w3.org/1999/xlink" x="0px" y="0px"
	 viewBox="-98.3 300.4 362 362" style="enable-background:new -98.3 300.4 362 362;" xml:space="preserve">
<style type="text/css">
	.st0{fill:#9B5CA4;stroke:#74457B;stroke-width:10;stroke-miterlimit:10;}
	.st1{fill:#ED4F7E;}
	.st2{opacity:0.2;fill:#FFFFFF;}
	.st3{opacity:0.2;fill:none;stroke:#000000;stroke-width:10;stroke-linecap:round;stroke-linejoin:round;stroke-miterlimit:10;}
	.st4{fill:#0B7AA5;}
	.st5{fill:none;stroke:#0B7AA5;stroke-width:3;stroke-linecap:round;stroke-linejoin:round;stroke-miterlimit:10;}
	.st6{fill:#FAAD40;stroke:#0B7AA5;stroke-width:2;stroke-miterlimit:10;}
	.st7{opacity:0.2;}
	.st8{opacity:0.5;}
	.st9{opacity:0.5;fill:none;stroke:#FFFFFF;stroke-width:4;stroke-linecap:round;stroke-miterlimit:10;}
	.st10{fill:#FFFFFF;}
	.st11{fill:none;stroke:#FFFFFF;stroke-width:3;stroke-linecap:round;stroke-linejoin:round;stroke-miterlimit:10;}
	.st12{fill:none;stroke:#0B7AA5;stroke-width:9;stroke-linecap:round;stroke-linejoin:round;stroke-miterlimit:10;}
	.st13{fill:none;stroke:#0EA2DC;stroke-width:9;stroke-linecap:round;stroke-linejoin:round;stroke-miterlimit:10;}
	.st14{fill:#010F14;}
	.st15{fill:#031D28;}
	.st16{fill:#042C3C;}
	.st17{fill:#053B50;}
	.st18{fill:#064A64;}
	.st19{fill:#085878;}
	.st20{fill:#09678C;}
	.st21{fill:#0A76A0;}
	.st22{fill:#0B85B4;}
	.st23{fill:#0D93C8;}
	.st24{fill:#0EA2DC;}
</style>
<circle class="st0" cx="82.7" cy="481.4" r="176"/>
<g>
	<path class="st1" d="M4,476.3c-1.5,1.9-4.4,1.9-6,0c-35.5-43.4-81.6,9.5-53,38.9c16.5,16.9,39.6,41.7,50.2,53
		c3.1,3.3,8.4,3.3,11.5,0c10.6-11.4,33.8-36.1,50.2-53C85.5,485.9,39.5,433,4,476.3z"/>
	<path class="st2" d="M-50.6,512.1c-5-5-8-11.8-8-19.4c0-15.2,12.3-27.4,27.4-27.4c8.7,0,16.4,4,21.4,10.3c0,0-16.9-8.1-32.4,6.9
		S-50.6,512.1-50.6,512.1z"/>
	<path class="st2" d="M9.4,482c4.2-9.8,13.9-16.8,25.3-16.8c8.7,0,16.4,4,21.4,10.3c0,0-20.8-1.7-30.2-0.3S9.4,482,9.4,482z"/>
	<line class="st3" x1="4.1" y1="560.6" x2="52.8" y2="508"/>
</g>
<g>
	<polygon class="st4" points="-21.5,400 -30.7,384 -21.5,368 -3.1,368 6.1,384 -3.1,400 	"/>
	<polygon class="st4" points="35.5,400 26.3,384 35.5,368 53.9,368 63.1,384 53.9,400 	"/>
	<polyline class="st5" points="34.1,398.8 24.9,415.5 6.5,415.5 -2.7,399.1 	"/>
	<polygon class="st4" points="91.5,400 82.3,384 91.5,368 109.9,368 119.1,384 109.9,400 	"/>
	<polyline class="st5" points="91,336.5 109.9,336.5 119.1,351.8 109.9,368.1 	"/>
	<polygon class="st4" points="63.5,415 54.3,399 63.5,383 81.9,383 91.1,399 81.9,415 	"/>
	<line class="st5" x1="80.9" y1="414" x2="90.1" y2="430"/>
	<polyline class="st5" points="62.5,446 53.3,430 62.5,414 	"/>
	<polygon class="st4" points="119.5,415 110.3,399 119.5,383 137.9,383 147.1,399 137.9,415 	"/>
	<polygon class="st4" points="119.5,447 110.3,431 119.5,415 137.9,415 147.1,431 137.9,447 	"/>
	<polygon class="st6" points="82.6,341 79.5,336 82.6,331 88.8,331 91.8,336 88.8,341 	"/>
	<polygon class="st6" points="61.6,454 58.5,449 61.6,444 67.8,444 70.8,449 67.8,454 	"/>
	<polygon class="st6" points="88.6,438 85.5,433 88.6,428 94.8,428 97.8,433 94.8,438 	"/>
	<g>
		<polygon class="st7" points="-18,397 -4.5,397 2.4,385 -4.5,373 -9.2,373 -21,391.8 		"/>
		<polygon class="st2" points="-15.3,372 -19.1,372 -26,384 -24.3,387 		"/>
	</g>
	<g>
		<polygon class="st7" points="39,397 52.5,397 59.4,385 52.5,373 47.8,373 36,391.8 		"/>
		<polygon class="st2" points="41.7,372 37.9,372 31,384 32.7,387 		"/>
	</g>
	<g>
		<polygon class="st7" points="94,397 107.5,397 114.4,385 107.5,373 102.8,373 91,391.8 		"/>
		<polygon class="st2" points="96.8,372 92.9,372 86,384 87.7,387 		"/>
	</g>
	<g>
		<polygon class="st7" points="67,411 80.5,411 87.4,399 80.5,387 75.8,387 64,405.8 		"/>
		<polygon class="st2" points="69.8,386 65.9,386 59,398 60.7,401 		"/>
	</g>
	<g>
		<polygon class="st7" points="123,411 136.5,411 143.4,399 136.5,387 131.8,387 120,405.8 		"/>
		<polygon class="st2" points="125.8,386 121.9,386 115,398 116.7,401 		"/>
	</g>
	<g>
		<polygon class="st7" points="123,444 136.5,444 143.4,432 136.5,420 131.8,420 120,438.8 		"/>
		<polygon class="st2" points="125.8,419 121.9,419 115,431 116.7,434 		"/>
	</g>
</g>
<g class="st8">
	<polyline class="st9" points="43.7,415.6 15.2,444 -57,444 	"/>
	<circle class="st10" cx="43.2" cy="415.9" r="6"/>
	<circle class="st10" cx="-56.8" cy="443.9" r="6"/>
</g>
<g class="st8">
	<polyline class="st9" points="210.2,487 166.2,443 166,420.9 194.3,392.6 	"/>
	<circle class="st10" cx="209.9" cy="487.4" r="6"/>
	<circle class="st10" cx="194.2" cy="392.7" r="6"/>
</g>
<g class="st8">
	<polyline class="st9" points="223.2,474 179.2,430 179,417.3 	"/>
	<circle class="st10" cx="222.9" cy="474.4" r="6"/>
</g>
<g>
	<g>
		<line class="st11" x1="139.4" y1="470.9" x2="186.1" y2="517.6"/>
		<line class="st11" x1="43.9" y1="566.4" x2="90.6" y2="613"/>
		<g>
			<g>
				<line class="st11" x1="75.8" y1="537.4" x2="119.6" y2="581.2"/>
			</g>
			<g>
				<line class="st11" x1="82.1" y1="521.1" x2="135.9" y2="574.9"/>
			</g>
			<g>
				<line class="st11" x1="94.2" y1="509.1" x2="147.9" y2="562.8"/>
			</g>
			<g>
				<line class="st11" x1="110.4" y1="502.7" x2="154.3" y2="546.6"/>
			</g>
		</g>
		<path class="st12" d="M144.1,454.8"/>
		<path class="st12" d="M27.9,571.1c23.3-23.3,82.4,33.8,116.2,0"/>
		<path class="st13" d="M202.2,512.9c-23.3,23.3-82.4-33.8-116.2,0s23.3,93,0,116.2"/>
	</g>
	<path class="st12" d="M144.1,571.1c33.8-33.8-23.3-93,0-116.2"/>
</g>
<g>
	<g class="st8">
		<g>
			<rect x="51.3" y="493.6" width="10.2" height="44.2"/>
		</g>
		<g>
			<rect x="30.3" y="504.8" class="st14" width="10.2" height="32.9"/>
		</g>
		<g>
			<rect x="9.3" y="484.8" class="st15" width="10.2" height="52.9"/>
		</g>
		<g>
			<rect x="-11.7" y="465.8" class="st16" width="10.2" height="71.9"/>
		</g>
		<g>
			<rect x="-32.7" y="498.9" class="st17" width="10.2" height="38.8"/>
		</g>
		<g>
			<rect x="-53.7" y="513.6" class="st18" width="10.2" height="24.2"/>
		</g>
	</g>
	<g>
		<g>
			<rect x="46.9" y="490.1" class="st19" width="10.2" height="44.2"/>
		</g>
		<g>
			<rect x="25.9" y="501.3" class="st20" width="10.2" height="32.9"/>
		</g>
		<g>
			<rect x="4.9" y="481.3" class="st21" width="10.2" height="52.9"/>
		</g>
		<g>
			<rect x="-16.1" y="462.3" class="st22" width="10.2" height="71.9"/>
		</g>
		<g>
			<rect x="-37.1" y="495.4" class="st23" width="10.2" height="38.8"/>
		</g>
		<g>
			<rect x="-58.1" y="510.1" class="st24" width="10.2" height="24.2"/>
		</g>
	</g>
</g>
</svg>
