<?xml version="1.0" encoding="utf-8"?>
<!-- Generator: Adobe Illustrator 19.1.0, SVG Export Plug-In . SVG Version: 6.00 Build 0)  -->
<svg version="1.1" id="Layer_1" xmlns="http://www.w3.org/2000/svg" xmlns:xlink="http://www.w3.org/1999/xlink" x="0px" y="0px"
	 viewBox="-103 105.1 303.9 303.9" style="enable-background:new -103 105.1 303.9 303.9;" xml:space="preserve">
<style type="text/css">
	.st0{fill:#A4CE4E;stroke:#7B9B3B;stroke-width:10;stroke-miterlimit:10;}
	.st1{fill:#3F2B10;}
	.st2{fill:#BB8230;}
	.st3{opacity:0.2;fill:#FFFFFF;}
	.st4{fill:#FAAD40;}
	.st5{opacity:0.3;}
	.st6{opacity:0.2;}
	.st7{opacity:0.5;}
	.st8{fill:#FFFFFF;}
	.st9{fill:#550061;}
	.st10{fill:#F0AB00;}
	.st11{fill:#A37910;}
</style>
<title>vert-transport-future-b</title>
<g>
	<g id="Layer_3">
		<circle class="st0" cx="48.9" cy="257.1" r="146.9"/>
	</g>
</g>
<g>
	<polygon class="st1" points="74.9,177.8 4.1,207.5 74.4,237.2 145.1,207.5 	"/>
	<polygon points="74.9,177.8 4.1,207.5 74.4,237.2 	"/>
	<polygon class="st2" points="59.2,150.9 -11.6,180.6 4.2,207.5 75,177.7 	"/>
	<polygon class="st3" points="59.2,150.9 -11.6,180.6 4.2,207.5 62.8,157 	"/>
	<polygon class="st4" points="145.1,278.2 74.4,307.9 74.4,237.2 145.1,207.5 	"/>
	<polygon class="st4" points="3.6,278.2 74.4,307.9 74.4,237.2 3.6,207.5 	"/>
	<polygon class="st4" points="-16.7,183.5 54.1,213.3 74.4,237.2 3.6,207.5 	"/>
	<polygon class="st2" points="88.2,152.4 159,182.1 145.1,207.5 75,177.8 	"/>
	<polygon class="st5" points="145.1,278.2 75,307.9 75,237.2 145.6,207.5 	"/>
	<polygon class="st6" points="5,221.3 74.7,307.9 75.4,237.2 5,207.5 	"/>
	<polygon class="st7" points="-16.7,183.5 54.1,213.3 74.9,237.2 4.4,207.5 	"/>
	<polygon class="st3" points="88.2,152.4 159,182.1 146.2,201.6 86.9,154.9 	"/>
	<polygon class="st4" points="164.6,183.5 93.9,213.3 74.4,237.2 145.1,207.5 	"/>
	<polygon class="st7" points="164.6,183.5 93.9,213.3 74.4,237.2 145.1,207.5 	"/>
	<polygon class="st5" points="145.1,250.6 75,245.4 75,237.2 145.6,207.5 	"/>
	<polygon class="st5" points="4.4,210.4 75,245.4 75,237.2 4.1,207.5 	"/>
</g>
<g>
	<g>
		<g>
			<g>
				<path class="st8" d="M6.6,368C-29,368-58,339-58,303.4c0-35.6,29-64.6,64.6-64.6s64.6,29,64.6,64.6C71.1,339,42.2,368,6.6,368z"
					/>
			</g>
			<g>
				<path class="st9" d="M6.6,241.5c34.2,0,61.9,27.7,61.9,61.9s-27.7,61.9-61.9,61.9s-61.9-27.7-61.9-61.9S-27.6,241.5,6.6,241.5
					 M6.6,236.2c-37.1,0-67.2,30.2-67.2,67.2s30.2,67.2,67.2,67.2s67.2-30.2,67.2-67.2S43.6,236.2,6.6,236.2L6.6,236.2z"/>
			</g>
		</g>
		<g>
			<g>
				<rect x="-3.8" y="224.9" class="st9" width="20.5" height="16.6"/>
			</g>
			<g>
				<rect x="-13.9" y="217.1" class="st10" width="40.6" height="12.3"/>
			</g>
			<g>
				<rect x="-13.9" y="224.9" class="st11" width="40.6" height="4.5"/>
			</g>
		</g>
		<g>
			<g>
				<g>
					<path class="st9" d="M7.3,256.7c-1.5,0-2.6-1.2-2.6-2.6v-5.9c0-1.5,1.2-2.6,2.6-2.6s2.6,1.2,2.6,2.6v5.9
						C10,255.5,8.8,256.7,7.3,256.7z"/>
				</g>
			</g>
			<g>
				<g>
					<path class="st9" d="M31.9,263.7c-0.4,0-0.9-0.1-1.3-0.4c-1.3-0.7-1.7-2.3-1-3.6l3-5.1c0.7-1.3,2.4-1.7,3.6-1
						c1.3,0.7,1.7,2.3,1,3.6l-3,5.1C33.7,263.2,32.8,263.7,31.9,263.7z"/>
				</g>
			</g>
			<g>
				<g>
					<path class="st9" d="M49.7,282c-0.9,0-1.8-0.5-2.3-1.3c-0.7-1.3-0.3-2.9,1-3.6l5.1-3c1.3-0.7,2.9-0.3,3.6,1
						c0.7,1.3,0.3,2.9-1,3.6l-5.1,3C50.6,281.9,50.2,282,49.7,282z"/>
				</g>
			</g>
			<g>
				<g>
					<path class="st9" d="M61.9,306.8H56c-1.5,0-2.6-1.2-2.6-2.6s1.2-2.6,2.6-2.6h5.9c1.5,0,2.6,1.2,2.6,2.6S63.3,306.8,61.9,306.8z
						"/>
				</g>
			</g>
			<g>
				<g>
					<path class="st9" d="M54.1,334.4c-0.4,0-0.9-0.1-1.3-0.4l-5.1-3c-1.3-0.7-1.7-2.3-1-3.6c0.7-1.3,2.4-1.7,3.6-1l5.1,3
						c1.3,0.7,1.7,2.3,1,3.6C55.9,333.9,55,334.4,54.1,334.4z"/>
				</g>
			</g>
			<g>
				<g>
					<path class="st9" d="M33.6,354.4c-0.9,0-1.8-0.5-2.3-1.3l-3-5.1c-0.7-1.3-0.3-2.9,1-3.6c1.3-0.7,2.9-0.3,3.6,1l3,5.1
						c0.7,1.3,0.3,2.9-1,3.6C34.5,354.2,34,354.4,33.6,354.4z"/>
				</g>
			</g>
			<g>
				<g>
					<path class="st9" d="M5.8,361.4c-1.5,0-2.6-1.2-2.6-2.6v-5.9c0-1.5,1.2-2.6,2.6-2.6s2.6,1.2,2.6,2.6v5.9
						C8.4,360.2,7.3,361.4,5.8,361.4z"/>
				</g>
			</g>
			<g>
				<g>
					<path class="st9" d="M-21.8,353.6c-0.4,0-0.9-0.1-1.3-0.4c-1.3-0.7-1.7-2.3-1-3.6l3-5.1c0.7-1.3,2.3-1.7,3.6-1
						c1.3,0.7,1.7,2.3,1,3.6l-3,5.1C-20,353.1-20.8,353.6-21.8,353.6z"/>
				</g>
			</g>
			<g>
				<g>
					<path class="st9" d="M-41.7,333.1c-0.9,0-1.8-0.5-2.3-1.3c-0.7-1.3-0.3-2.9,1-3.6l5.1-3c1.3-0.7,2.9-0.3,3.6,1
						c0.7,1.3,0.3,2.9-1,3.6l-5.1,3C-40.8,332.9-41.3,333.1-41.7,333.1z"/>
				</g>
			</g>
			<g>
				<g>
					<path class="st9" d="M-42.8,305.3h-5.9c-1.5,0-2.6-1.2-2.6-2.6s1.2-2.6,2.6-2.6h5.9c1.5,0,2.6,1.2,2.6,2.6
						S-41.4,305.3-42.8,305.3z"/>
				</g>
			</g>
			<g>
				<g>
					<path class="st9" d="M-35.8,280.7c-0.4,0-0.9-0.1-1.3-0.4l-5.1-3c-1.3-0.7-1.7-2.3-1-3.6c0.7-1.3,2.3-1.7,3.6-1l5.1,3
						c1.3,0.7,1.7,2.3,1,3.6C-34,280.2-34.9,280.7-35.8,280.7z"/>
				</g>
			</g>
			<g>
				<g>
					<path class="st9" d="M-17.5,262.9c-0.9,0-1.8-0.5-2.3-1.3l-3-5.1c-0.7-1.3-0.3-2.9,1-3.6c1.3-0.7,2.9-0.3,3.6,1l3,5.1
						c0.7,1.3,0.3,2.9-1,3.6C-16.6,262.8-17,262.9-17.5,262.9z"/>
				</g>
			</g>
			<g>
				<g>
					<path class="st9" d="M7.3,256.7c-1.5,0-2.6-1.2-2.6-2.6v-5.9c0-1.5,1.2-2.6,2.6-2.6s2.6,1.2,2.6,2.6v5.9
						C10,255.5,8.8,256.7,7.3,256.7z"/>
				</g>
			</g>
		</g>
		<g>
			<circle class="st9" cx="6.6" cy="303.4" r="11.6"/>
		</g>
		<g>
			<path class="st10" d="M8.8,267.9l3,35.5c0.2,2.9-1.9,5.5-4.8,5.7c-2.9,0.2-5.5-1.9-5.7-4.8c0-0.3,0-0.6,0-0.9l3-35.5
				c0.1-1.3,1.2-2.2,2.5-2.1C7.9,265.9,8.7,266.8,8.8,267.9z"/>
		</g>
	</g>
	<path class="st6" d="M56.4,288.3c-1.1,34.4-29.9,61.4-64.3,60.2c-16.5-0.5-31.4-7.5-42.2-18.4c9.6,20.5,30.2,35.1,54.4,35.9
		c34.4,1.1,63.2-25.8,64.3-60.2c0.6-17.9-6.4-34.2-18.1-46C54.6,268.4,56.7,278.1,56.4,288.3z"/>
</g>
</svg>
