<?xml version="1.0" encoding="utf-8"?>
<!-- Generator: Adobe Illustrator 18.1.1, SVG Export Plug-In . SVG Version: 6.00 Build 0)  -->
<!DOCTYPE svg PUBLIC "-//W3C//DTD SVG 1.1//EN" "http://www.w3.org/Graphics/SVG/1.1/DTD/svg11.dtd">
<svg version="1.1" id="Layer_1" xmlns="http://www.w3.org/2000/svg" xmlns:xlink="http://www.w3.org/1999/xlink" x="0px" y="0px"
	 width="325.4px" height="81.3px" viewBox="0 0 325.4 81.3" enable-background="new 0 0 325.4 81.3" xml:space="preserve">
<symbol  id="_x2E_logo-az" viewBox="-162.7 -40.6 325.4 81.3">
	<path fill="#6B7482" d="M-149.4-3.7l-13.3-35h5l3.9,10.7h13.3l3.8-10.7h4.9l-12.8,35H-149.4z M-152.3-24.1l5.4,14.6l5.1-14.6
		H-152.3z"/>
	<path fill="#6B7482" d="M-119.7-22.7c-2.8,0.6-6.2,1.6-6.2,4.1c0,1.8,1.8,3.9,5.3,3.9c3.6,0,5.7-2.4,6.1-3.4l4.1,1.7
		c-1.9,3.6-5.7,5.1-9.7,5.1c-6.2,0-10.2-3-10.2-7.9c0-5.5,4.7-6.6,9.3-7.6c3.9-0.8,7.7-1.8,7.7-4.8c0-2.9-2.3-4.4-6.3-4.4
		c-3.2,0-5.3,0.9-6.5,3l-4.7-0.8c1.8-3.8,5.7-5.6,11.1-5.6c7.3,0,11.1,4.1,11.1,8.4C-108.7-25.4-113.8-23.8-119.7-22.7z"/>
	<path fill="#6B7482" d="M-98.8-3.7l-4.6-1.9V-12h-4.2v-3.7h4.2v-17.2c-0.1-3.5-0.1-6,5.1-6c1.7,0,3.5,0.3,4.3,0.4v3.7
		c-0.9-0.3-2.1-0.6-2.9-0.6c-1.9,0-1.9,1.3-1.9,4.5v15.2h4.8v3.7h-4.8V-3.7z"/>
	<path fill="#6B7482" d="M-85.5-16.9v4.8H-90v-26.6h4.5v12.2c0,2.3-0.1,5,1.1,6.9c1.4,2.4,3.6,3.3,8,3.3v4.6
		C-78.2-11.7-83-11.8-85.5-16.9z"/>
	<polygon fill="#6B7482" points="-24.7,-8.1 -24.7,-3.7 -49.9,-3.7 -49.9,-8 -30,-8 -50,-34.2 -50,-38.7 -24.2,-38.7 -24.2,-34.5 
		-44.6,-34.5 	"/>
	<path fill="#6B7482" d="M16.6-11.4c-1.6,0-5.8-0.4-8.3-4.7v3.9H3.8v-26.5h4.5v15.1c0,2,0,4,2,6c1.4,1.4,3.1,2,5.1,2
		c2.4,0,4.9-1.1,5.7-3.7c0.3-0.9,0.3-1.7,0.3-4.4v-15.1h4.5v15.8c0,2.2,0,3.9-0.5,5.5C24-13.1,19.9-11.4,16.6-11.4z"/>
	<path fill="#6B7482" d="M66.8-14.4c3.7,0,5.4-2,6.2-3.8l4.2,1.7c-2.6,4.3-7.2,5.3-10.6,5.3C58.1-11.1,54-18,54-25.5
		c0-6.5,3.6-13.8,13-13.8c5.5,0,8.5,2.6,10.2,5.3l-4,1.7c-0.9-1.8-2.7-3.5-6.1-3.5c-3,0-8.1,1.9-8.1,10.7
		C59-22.8,59.4-14.4,66.8-14.4z"/>
	<path fill="#6B7482" d="M0.7-20.5c-1.6,6.7-6.3,9.4-11.1,9.4c-5.6,0-12.2-3.8-12.2-13.8c0-9,4.5-14.3,12.4-14.3
		c5.8,0,8.7,3,10.3,5.6l-4.3,0.8c-1.2-1.8-3-3-5.5-3c-6.3-0.1-8.2,5.5-8,10H1.2C1.2-24.8,1.2-22.7,0.7-20.5z M-17.8-22.7
		c0.5,5.3,3.2,8.1,7,8.1c2.7,0,6.7-1.2,7.1-8.1H-17.8z"/>
	<path fill="#6B7482" d="M51.5-20.5c-1.6,6.7-6.3,9.4-11.1,9.4c-5.6,0-12.2-3.8-12.2-13.8c0-9,4.5-14.3,12.4-14.3
		c5.8,0,8.7,3,10.3,5.6l-4.3,0.8c-1.1-1.8-3-3-5.5-3c-6.3-0.1-8.2,5.5-8,10H52C52-24.8,52-22.7,51.5-20.5z M33-22.7
		c0.5,5.3,3.2,8.1,7,8.1c2.7,0,6.7-1.2,7.1-8.1H33z"/>
	<path fill="#6B7482" d="M100.7-20c0,0,0.1,4.4-2.9,6.7c-2.1,1.6-5.3,2.3-7.8,2.3c-4.5,0-7.6-1.8-9.2-4.7c-0.1-0.1-0.2-0.3-0.2-0.4
		l4.1-1.7c0.4,1.6,1.7,3.4,5.4,3.4c5.9,0,5.9-4.6,5.9-7.4v-0.7l-4.2-0.3c-7.9-0.6-10.8-2.4-12.3-4.7c-0.8-1.2-1.2-2.6-1.2-4
		c0-4.5,3.8-7.6,9-7.6c5.1,0,7.6,2.9,8.9,4.3c0.1-2.1,0.5-3.9,0.5-3.9l4.6,0c-0.6,1.1-0.7,5.1-0.7,5.1L100.7-20z M95.5-31.4
		c-1.3-2.8-3.9-4-7-4c-3.3,0-5,1.8-5,3.9c0,1.9,0.8,3.7,5.8,4.8c2.9,0.6,5.2,1,7,1.2C96.2-29.3,96.1-29.9,95.5-31.4z"/>
	<path fill="#6B7482" d="M-54-20c0,0,0.1,4.4-2.9,6.7c-2.1,1.6-5.3,2.3-7.8,2.3c-4.5,0-7.6-1.8-9.2-4.7c-0.1-0.1-0.2-0.3-0.2-0.4
		l4.1-1.7c0.4,1.6,1.7,3.4,5.4,3.4c5.9,0,5.9-4.6,5.9-7.4v-0.7l-4.2-0.3c-7.9-0.6-10.7-2.4-12.3-4.7c-0.8-1.2-1.2-2.6-1.2-4
		c0-4.5,3.8-7.6,9-7.6c5.1,0,7.6,2.9,8.9,4.3c0.1-2.1,0.5-3.9,0.5-3.9l4.6,0c-0.6,1.1-0.7,5.1-0.7,5.1L-54-20z M-59.2-31.4
		c-1.3-2.8-3.9-4-7-4c-3.3,0-5,1.8-5,3.9c0,1.9,0.8,3.7,5.8,4.8c2.9,0.6,5.2,1,7,1.2C-58.5-29.3-58.6-29.9-59.2-31.4z"/>
	<path fill="#6B7482" d="M162.7-1.9c0,0.2,0,0.3-0.1,0.5c-0.1,0.3-0.2,0.6-0.3,1c-0.1,0.3-0.3,0.6-0.5,1c-0.2,0.3-0.4,0.7-0.6,1
		c-0.1,0.2-0.3,0.4-0.4,0.5c-0.2,0.2-0.4,0.4-0.6,0.5c-0.5,0.4-0.9,0.7-1.4,1c-1.1,0.7-2.2,1.4-3.3,1.9c-1.4,0.6-2.8,1.4-4.2,1.9
		l-9.8,3.4c0,1.9,0.1,3.7,0,5.6c-0.1,2.8-0.2,5.5-0.4,8.3c-0.1,1.9-0.4,3.8-0.7,5.7c-0.2,1.5-0.6,2.9-0.9,4.4
		c-0.1,0.3-0.2,0.7-0.3,1c-0.1,0.3-0.2,0.6-0.3,0.9c-0.1,0.3-0.2,0.5-0.4,0.8c-0.1,0.2-0.2,0.4-0.4,0.7c-0.1,0.2-0.3,0.4-0.4,0.6
		c-0.1,0.2-0.3,0.3-0.4,0.5c-0.1,0.1-0.3,0.3-0.4,0.4c-0.1,0.1-0.3,0.2-0.4,0.3c-0.1,0.1-0.3,0.2-0.4,0.3c-0.1,0.1-0.3,0.1-0.4,0.2
		c-0.2,0.1-0.5,0.2-0.7,0.3c-0.2,0.1-0.4,0.1-0.6,0.1c-0.2,0-0.3,0-0.5,0c-0.3,0-0.5,0-0.8,0c-0.3,0-0.6-0.1-0.9-0.1
		c-0.3-0.1-0.6-0.1-0.9-0.2c-0.3-0.1-0.6-0.2-0.9-0.4c-0.3-0.2-0.6-0.3-1-0.5c-0.3-0.2-0.7-0.4-1-0.7c-0.5-0.4-1.1-0.8-1.6-1.3
		c-2-1.9-4.1-3.9-6-5.9c-1-1.1-2.1-2.2-3-3.3c-3.8-4.6-7.5-9.1-11.1-13.8c-1.6-2.1-3.1-4.3-4.6-6.4c-0.4-0.5-0.7-1.1-1-1.7
		c-0.6-1-1.1-2-1.6-3c-0.1-0.3-0.2-0.5-0.3-0.8c-0.1-0.3-0.2-0.5-0.3-0.8c-0.1-0.3-0.1-0.5-0.2-0.8c0-0.2,0-0.5,0-0.7
		c0-0.1,0-0.2,0.1-0.4c0-0.1,0.1-0.2,0.2-0.4c0.1-0.1,0.2-0.2,0.2-0.4c0.1-0.1,0.2-0.2,0.3-0.4c0.2-0.2,0.5-0.5,0.8-0.7
		c0.3-0.2,0.5-0.4,0.8-0.6c0.5-0.3,1-0.6,1.6-1c0.2-0.1,0.5-0.2,0.7-0.4c0.1,0-0.2,0.1-0.2,0.1c0,0,0,0,0,0c0,0,0,0,0,0
		c0.1-0.1,0.3-0.1,0.4-0.2c3.2-1.7,6.5-3.3,9.7-5.1c3.2-1.7,6.4-3.4,9.6-5.2l7.2-4c-2.5-1.9-5-3.7-7.5-5.6c-0.9-0.7-1.8-1.6-2.6-2.4
		c-0.7-0.7-1.3-1.4-1.9-2.2c-0.5-0.6-0.9-1.2-1.3-1.9c-0.3-0.5-0.6-1-0.9-1.6c-0.2-0.4-0.4-0.8-0.5-1.3c-0.1-0.3-0.2-0.6-0.2-0.9
		c0-0.2,0-0.4-0.1-0.6c0-0.1,0-0.1,0-0.2c0-0.2,0-0.3,0-0.5c0-0.2,0-0.3,0.1-0.5c0-0.2,0.1-0.3,0.1-0.5c0-0.1,0.1-0.3,0.1-0.4
		c0.1-0.1,0.1-0.3,0.2-0.4c0.1-0.1,0.1-0.3,0.2-0.4c0.2-0.2,0.3-0.5,0.5-0.6c0.2-0.2,0.4-0.4,0.6-0.5c0.2-0.2,0.5-0.3,0.7-0.5
		c0.2-0.1,0.5-0.3,0.8-0.4c0.3-0.1,0.5-0.2,0.8-0.3c1-0.2,2-0.4,3-0.6c0.5-0.1,1-0.1,1.5-0.1c1.7,0.1,3.5,0.3,5.2,0.6
		c2,0.3,4,0.7,6,1.2c2.3,0.5,4.7,1.1,7,1.7c1.6,0.4,3.3,0.8,4.9,1.5c1.2,0.5,2.5,1,3.7,1.5c0.3,0.1,0.5,0.3,0.8,0.4
		c0.2,0.1,0.5,0.3,0.7,0.4c0.2,0.1,0.4,0.3,0.6,0.4c0.1,0.1,0.3,0.3,0.4,0.5c0.1,0.1,0.2,0.3,0.3,0.4c0.1,0.1,0.1,0.3,0.1,0.4
		c0,0.1,0,0.3,0,0.4c0,0.1,0,0.3,0,0.4c0,0.1-0.1,0.3-0.1,0.4c0,0.1-0.1,0.3-0.2,0.4c-0.1,0.1-0.1,0.2-0.2,0.3
		c-0.1,0.1-0.2,0.2-0.3,0.3c-0.2,0.2-0.4,0.4-0.6,0.5c-0.2,0.1-0.3,0.3-0.5,0.4c-0.2,0.1-0.4,0.2-0.6,0.4c-1.3,0.8-2.5,1.6-3.8,2.3
		l-5.4,3.2c3.3,2.2,6.6,4.4,9.8,6.6c1.4,1,2.7,2,4.1,3c1.1,0.9,2.2,1.9,3.2,2.9c0.5,0.5,0.9,1,1.4,1.5c0.2,0.2,0.4,0.5,0.6,0.7
		c0.2,0.2,0.3,0.5,0.5,0.7c0.4,0.8,0.8,1.7,1.2,2.5c0.1,0.4,0.2,0.7,0.3,1.1c0,0.2,0.1,0.3,0.1,0.5c0,0.2,0,0.3,0,0.5
		C162.7-2.2,162.7-2,162.7-1.9z M122.5,20.1c1.8,1.9,3.6,3.8,5.5,5.6c0.3,0.3,0.7,0.6,1.1,1c0.1,0.1,0.3,0.2,0.4,0.3
		c0.1,0.1,0.2,0.2,0.3,0.2c0.1,0,0.2,0.1,0.2,0.1c0.1,0,0.2,0.1,0.3,0.1c0.1,0,0.2,0,0.3,0c0.1,0,0.1,0,0.2,0c0.1,0,0.1,0,0.2-0.1
		c0.1,0,0.1-0.1,0.1-0.1c0.1,0,0.1-0.1,0.1-0.1c0.1-0.1,0.1-0.1,0.1-0.2c0-0.1,0.1-0.2,0.1-0.2c0.1-0.2,0.2-0.5,0.2-0.7
		c0.1-0.3,0.2-0.7,0.2-1c0.1-0.9,0.3-1.7,0.4-2.6c0.1-1.1,0.2-2.2,0.3-3.3l0.6-5.9l-6.6,1.5l-6.2,1l-1.5,0.1l-0.5,0
		C119.8,17.2,121.1,18.7,122.5,20.1z M118.4,11.9L118.4,11.9L118.4,11.9l0.1,0.1l0.1,0l0.2-0.1l0.6-0.2l0.8-0.4
		c2.1-0.9,4.2-1.8,6.3-2.7c1.4-0.6,2.8-1.2,4.2-1.8l2.8-1.2l0.2-0.1c0.1-2.2,0.3-4.3,0.4-6.5c0.1-1.7,0.1-3.4,0.2-5.1
		c0-0.2,0-0.4,0-0.6c0-0.1,0-0.2,0-0.4c0-0.1,0-0.2-0.1-0.4c0-0.1-0.1-0.2-0.1-0.3c-0.1-0.1-0.1-0.2-0.2-0.3c0,0-0.1-0.1-0.1-0.1
		c0,0-0.1-0.1-0.2-0.1c-0.1,0-0.1-0.1-0.2-0.1c-0.1,0-0.1,0-0.2-0.1c-0.1,0-0.2,0-0.3,0c-0.1,0-0.2,0-0.3,0c-0.1,0-0.2,0-0.3,0.1
		c-0.1,0-0.2,0.1-0.3,0.1c-0.2,0.1-0.4,0.2-0.6,0.3c-0.2,0.1-0.4,0.3-0.7,0.4c-0.2,0.2-0.5,0.4-0.7,0.6c-0.2,0.2-0.5,0.4-0.7,0.7
		c-0.5,0.5-0.9,1-1.4,1.6c-0.8,1-1.6,1.9-2.3,3c-1,1.4-2,2.9-2.9,4.3c-0.6,0.9-1.1,1.7-1.6,2.7L119,9.4l-0.5,1.3l-0.1,0.4l-0.1,0.4
		l0,0.3L118.4,11.9z M141.9-25.4c0.6-0.4,1.1-0.7,1.7-1.1c0.7-0.5,1.5-1,2.2-1.5c0.5-0.4,1-0.8,1.5-1.2c0.2-0.2,0.4-0.4,0.6-0.6
		c0.2-0.2,0.3-0.4,0.4-0.5c0,0,0,0,0,0c0,0,0-0.1,0-0.1c0,0,0,0,0-0.1c0,0,0,0-0.1,0c0,0-0.1,0-0.1,0c-0.1,0-0.1,0-0.2,0
		c-2.8-0.2-5.6-0.4-8.4-0.6L128.6-32l-0.3,0l0.2,0.2l0.7,0.6c1.4,1.1,2.8,2.2,4.2,3.2l6.2,4.2C140.3-24.4,141.1-24.9,141.9-25.4z
		 M150.2-4c0-0.1-0.1-0.2-0.1-0.3c-0.1-0.1-0.1-0.2-0.2-0.3c-0.2-0.2-0.4-0.4-0.6-0.6c-0.5-0.4-0.9-0.8-1.4-1.2
		c-1.7-1.2-3.4-2.5-5.2-3.7c-1.2-0.8-2.5-1.6-3.7-2.4l-7.2-4.6c-1,0.6-2,1.2-3,1.7l-13,7.4c-2.9,1.7-5.9,3.5-8.8,5.3
		c-0.5,0.3-1.1,0.7-1.6,1.1c-0.2,0.1-0.3,0.3-0.5,0.4c-0.1,0-0.1,0.1-0.2,0.1c-0.1,0.1-0.2,0.2-0.3,0.3c-0.1,0.1-0.1,0.1-0.2,0.2
		c-0.1,0.1-0.1,0.2-0.1,0.3c0,0.1-0.1,0.2-0.1,0.3c0,0.1,0,0.2,0,0.3c0,0.1,0,0.2,0.1,0.3c0,0.1,0.1,0.2,0.2,0.3
		c0.1,0.2,0.3,0.4,0.4,0.6c0.2,0.2,0.4,0.5,0.6,0.7c1.7,1.7,3.4,3.4,5.1,5.1l4.5,4.6l0.2-0.7l0.6-1.3l0-0.1c1.2-2.1,2.3-4.2,3.6-6.2
		c1.5-2.3,3-4.6,4.6-6.9c0.7-1.1,1.5-2.1,2.3-3.1c0.7-0.9,1.4-1.7,2.2-2.5c0.7-0.7,1.5-1.3,2.2-2c0.4-0.3,0.8-0.6,1.2-0.8
		c0.2-0.1,0.4-0.2,0.6-0.3c0.2-0.1,0.4-0.2,0.6-0.2c0.2-0.1,0.4-0.1,0.6-0.2c0.2,0,0.4-0.1,0.6-0.1c0.2,0,0.4,0,0.5,0
		c0.2,0,0.3,0,0.5,0c0.2,0,0.3,0.1,0.4,0.1c0.1,0,0.3,0.1,0.4,0.1c0.1,0,0.2,0.1,0.4,0.2c0.1,0.1,0.2,0.1,0.3,0.2
		c0.2,0.1,0.4,0.3,0.5,0.5c0.1,0.1,0.3,0.3,0.4,0.5c0.2,0.2,0.3,0.4,0.4,0.6c0.2,0.3,0.3,0.5,0.4,0.8c0.1,0.3,0.3,0.6,0.4,1
		c0.2,0.7,0.4,1.4,0.6,2.1c0.2,1,0.5,1.9,0.6,2.9l0.6,5.7c1.3-0.6,2.7-1.2,4-1.9c1.3-0.7,2.5-1.4,3.8-2.2c0.1-0.1,0.3-0.2,0.4-0.3
		c0.2-0.2,0.4-0.3,0.5-0.5c0.1-0.1,0.2-0.2,0.2-0.3c0.1-0.1,0.1-0.2,0.2-0.3c0-0.1,0.1-0.2,0.1-0.3c0-0.1,0-0.1,0-0.2
		C150.3-3.9,150.3-3.9,150.2-4z"/>
</symbol>
<use xlink:href="#_x2E_logo-az"  width="325.4" height="81.3" x="-162.7" y="-40.6" transform="matrix(1 0 0 -1 162.6996 40.6375)" overflow="visible"/>
</svg>
