<?xml version="1.0" encoding="utf-8"?>
<!-- Generator: Adobe Illustrator 18.1.1, SVG Export Plug-In . SVG Version: 6.00 Build 0)  -->
<svg version="1.1" id="Layer_1" xmlns="http://www.w3.org/2000/svg" xmlns:xlink="http://www.w3.org/1999/xlink" x="0px" y="0px"
	 width="343.9px" height="137.3px" viewBox="-591 146.9 343.9 137.3" enable-background="new -591 146.9 343.9 137.3"
	 xml:space="preserve">
<symbol  id="_x2E_logo-bede" viewBox="-90 -42.5 180.1 85">
	<g>
		<path fill="#6B7482" d="M73.8,28.9c-9.9,3.7-20.9,0.8-27.1-7.6c-3-4.1-5.1-8.9-7.7-13.3c-2-3.5-3.8-7.3-6.2-10.5
			C29-7.8,22.9-9.4,16.9-7.1C11.5-5,7.8,0.6,8.1,6.4c0.3,6.1,4.5,11.3,10.5,13c5.7,1.5,11.7-0.9,15.2-6.1c0.4-0.6,0.9-1.2,1.5-2.1
			c6.5,11.6,10.6,16.4,10.6,16.4v14.9h-10V26.8c-16.4,6.5-26.6,4.7-35.7-9.3c-0.8,1.1-1.5,2-2.2,2.9c-10.2,13.6-30.6,13.2-40-1
			c-2.4-3.6-4-7.6-6.1-11.4c-2-3.7-3.8-7.6-6.3-10.9C-59.6-9.4-69-9.8-74.9-4s-5.5,15.1,0.8,20.5c6.2,5.3,15.6,4.1,20.4-2.7
			c0.6-0.8,1.1-1.6,1.9-2.7c1.7,3,6,9.8,6,9.8s-0.6,0.9-2,2.3c-7.3,7.2-18.6,9.2-27.9,4.8c-1-0.5-2-0.9-3.6-1.7v16.2H-90V2.8
			c0.5-10,9-18.2,18.6-20.6c10.5-2.6,20.2,0.7,26.2,9.4c2.4,3.5,4.2,7.5,6.3,11.3c2.1,3.9,3.9,8.1,6.6,11.5
			c5.7,7.4,16.1,7.2,21.7-0.2c0.8-1,1.1-2.3,2-4c-6.8,0-12.9-0.1-18.9,0.1c-2.5,0.1-4.1-0.6-5.2-3c-2.2-4.8-4.6-9.5-7.1-14.1
			c-1.1-2.1-0.7-3.3,0.9-4.8c4.9-4.6,10.7-7.1,17.5-7c7.1,0.1,13.1,2.7,18,8.3c-2.8,2.4-5.3,4.6-7.7,6.8c-9.7-7.2-20.3-4.7-22.8,4.8
			c0.4,0.1,0,0.1,0,0.1H-3c3-6.9,8.6-15.2,15.8-18.1c12.7-5.4,25.6-0.2,32.5,13.1c2.4,4.7,4.3,9.6,7,14.1c1.7,2.9,4.1,5.9,6.9,7.6
			c7,4.4,17.6-0.2,18.6-7.9c-6.4,0-12.9,0.1-19.2-0.1c-1.3,0-3.2-0.9-3.8-2C52,3,49.4-2.3,46.9-7.6c-0.4-0.8-0.2-2.4,0.4-3.1
			c8.7-10.8,28.2-10.4,36.6,1c-2.6,2-5.2,4.1-7.8,6.1c-10.3-6.9-21.5-4.5-23.3,5.1c1.3,0,2.6,0,3.8,0c9.8,0,33.3,0,33.3,0V5
			C90.3,15.4,83.8,25.3,73.8,28.9z"/>
		<path fill="#6B7482" d="M-81.5-35.6h3.4v-4.8c-0.5-0.3-1.2-0.6-1.8-0.7c-0.7-0.2-1.4-0.3-2.1-0.3c-0.9,0-1.8,0.2-2.5,0.5
			s-1.4,0.8-1.9,1.4c-0.5,0.6-0.9,1.2-1.2,2c-0.3,0.8-0.4,1.5-0.4,2.4c0,0.8,0.1,1.6,0.4,2.4c0.3,0.8,0.7,1.4,1.2,2s1.1,1,1.9,1.4
			c0.7,0.3,1.6,0.5,2.5,0.5s1.7-0.1,2.4-0.4c0.7-0.3,1.3-0.7,1.8-1.2l1.1,1.1c-0.7,0.7-1.4,1.1-2.2,1.5c-0.8,0.3-1.8,0.5-3,0.5
			c-1.1,0-2.1-0.2-3-0.6s-1.7-0.9-2.4-1.6c-0.7-0.7-1.2-1.5-1.6-2.4c-0.4-0.9-0.6-1.9-0.6-3s0.2-2.1,0.6-3s0.9-1.7,1.6-2.4
			s1.5-1.2,2.4-1.6c0.9-0.4,1.9-0.6,3-0.6c0.9,0,1.8,0.1,2.8,0.4c1,0.3,1.9,0.6,2.7,1.1v7.1h-4.9v-1.7H-81.5z"/>
		<path fill="#6B7482" d="M-48.6-28l-6.3-14.4h1.7l1.6,3.8h7.4l1.6-3.8h1.7L-47.2-28H-48.6z M-51.1-37.3l3.1,7.6l3.1-7.6H-51.1z"/>
		<polygon fill="#6B7482" points="-12.1,-39.7 -17,-28 -19.2,-28 -19.2,-42.4 -17.7,-42.4 -17.7,-30 -17.7,-30 -12.5,-42.4 
			-11.7,-42.4 -6.5,-30 -6.5,-30 -6.5,-42.4 -5,-42.4 -5,-28 -7.2,-28 		"/>
		<polygon fill="#6B7482" points="18.7,-42.4 20.2,-42.4 20.2,-28 18.7,-28 		"/>
		<polygon fill="#6B7482" points="54.3,-40.2 54.3,-40.2 45.7,-28 43.9,-28 43.9,-42.4 45.3,-42.4 45.3,-30.1 45.4,-30.1 54,-42.4 
			55.8,-42.4 55.8,-28 54.3,-28 		"/>
		<path fill="#6B7482" d="M85-35.6h3.4v-4.8c-0.5-0.3-1.2-0.6-1.8-0.7c-0.7-0.2-1.4-0.3-2.1-0.3c-0.9,0-1.8,0.2-2.5,0.5
			s-1.4,0.8-1.9,1.4c-0.5,0.6-0.9,1.2-1.2,2c-0.3,0.8-0.4,1.5-0.4,2.4c0,0.8,0.1,1.6,0.4,2.4c0.3,0.8,0.7,1.4,1.2,2s1.1,1,1.9,1.4
			c0.7,0.3,1.6,0.5,2.5,0.5s1.7-0.1,2.4-0.4c0.7-0.3,1.3-0.7,1.8-1.2l1.1,1.1c-0.7,0.7-1.4,1.1-2.2,1.5c-0.8,0.3-1.8,0.5-3,0.5
			c-1.1,0-2.1-0.2-3-0.6s-1.7-0.9-2.4-1.6c-0.7-0.7-1.2-1.5-1.6-2.4c-0.4-0.9-0.6-1.9-0.6-3s0.2-2.1,0.6-3s0.9-1.7,1.6-2.4
			s1.5-1.2,2.4-1.6c0.9-0.4,1.9-0.6,3-0.6c0.9,0,1.8,0.1,2.8,0.4c1,0.3,1.9,0.6,2.7,1.1v7.1H85V-35.6z"/>
	</g>
</symbol>
<use xlink:href="#_x2E_logo-bede"  width="180.1" height="85" id="XMLID_3_" x="-90" y="-42.5" transform="matrix(0.9988 0 0 -0.9983 -419.0551 215.5566)" overflow="visible"/>
<rect x="-591" y="146.9" fill="none" width="343.9" height="137.3"/>
</svg>
