<?xml version="1.0" encoding="utf-8"?>
<!-- Generator: Adobe Illustrator 19.1.0, SVG Export Plug-In . SVG Version: 6.00 Build 0)  -->
<svg version="1.1" id="Layer_1" xmlns="http://www.w3.org/2000/svg" xmlns:xlink="http://www.w3.org/1999/xlink" x="0px" y="0px"
	 viewBox="-339 316.7 343.9 137.3" style="enable-background:new -339 316.7 343.9 137.3;" xml:space="preserve">
<style type="text/css">
	.st0{fill:#6D7382;}
	.st1{fill:none;}
</style>
<g>
	<g>
		<path class="st0" d="M-214.8,358.8h3.7c2.3,0,4.7,0.5,6.8,1.6v-1.9c0-1.3-2.5-4.3-8.7-4.3c-2.9,0-5.5,0.3-7.7,1.4
			c-0.6,0.3-1.6-0.5-2.3-1.9c-0.7-1.3-0.8-2.7-0.2-3c3.4-1.8,7.1-2,10.2-2c6.6,0,14.2,3.3,14.2,9.8v9.7v1.3c0,5.8-5.8,9.4-11.4,9.4
			h-5.6c-5.6,0-11.4-3.5-11.4-9.4v-1.3C-227.2,362.1-220.6,358.8-214.8,358.8 M-214.8,364.3c-4.8,0-6.8,2.6-6.8,3.9v1.3
			c0,1.5,1.9,3.8,5.9,3.8h5.6c4,0,5.9-2.4,5.9-3.8v-1.3c0-1.3-2-3.9-6.8-3.9H-214.8z M-166.1,367.5c0,2.4,3,5.7,8.6,5.7
			c5.6,0,8.6-3.3,8.6-5.7v-7.7c0-2.4-3-5.7-8.6-5.7c-5.6,0-8.6,3.3-8.6,5.7L-166.1,367.5z M-143.2,367.5c0,6.9-7.2,11.3-14.2,11.3
			c-7,0-14.2-4.3-14.2-11.3v-7.7c0-6.9,7.2-11.2,14.2-11.2c7,0,14.2,4.3,14.2,11.2V367.5z M-96.1,358.8h3.7c2.3,0,4.8,0.5,6.8,1.6
			v-1.9c0-1.3-2.5-4.3-8.7-4.3c-2.9,0-5.5,0.3-7.7,1.4c-0.6,0.3-1.6-0.5-2.3-1.9c-0.7-1.3-0.8-2.7-0.2-3c3.4-1.8,7.1-2,10.2-2
			c6.6,0,14.2,3.3,14.2,9.8v9.7v1.3c0,5.8-5.8,9.4-11.4,9.4H-97c-5.6,0-11.4-3.5-11.4-9.4v-1.3C-108.4,362.1-101.9,358.8-96.1,358.8
			 M-96.1,364.3c-4.8,0-6.8,2.6-6.8,3.9v1.3c0,1.5,1.9,3.9,5.9,3.9h5.6c4,0,5.9-2.4,5.9-3.9v-1.3c0-1.3-2-3.9-6.8-3.9H-96.1z
			 M-134.2,375.9v1.6c0,0.7-1.2,1.2-2.8,1.2c-1.5,0-2.8-0.5-2.8-1.2v-1.6v-7.3v-8.7c0-6.9,7.2-11.3,14.2-11.3
			c7,0,14.2,4.3,14.2,11.2l0,8.7l0,7.3l0,0.3v1.3c0,0.6-1.2,1.2-2.8,1.2c-1.6,0-2.8-0.5-2.8-1.2v-6.7l0-10.9c0-2.4-3-5.7-8.6-5.7
			c-5.6,0-8.6,3.3-8.6,5.7L-134.2,375.9L-134.2,375.9z M-253,375.9v1.6c0,0.7-1.2,1.2-2.8,1.2c-1.5,0-2.8-0.5-2.8-1.2v-1.6v-7.3
			v-8.7c0-6.9,7.2-11.2,14.2-11.2c7,0,14.2,4.3,14.2,11.2l0,8.7l0,7.3l0,0.3v1.3c0,0.7-1.2,1.2-2.7,1.2c-1.6,0-2.8-0.5-2.8-1.2v-6.7
			l0-10.9c0-2.4-3-5.7-8.6-5.7c-5.6,0-8.6,3.3-8.6,5.7C-253,359.8-253,375.9-253,375.9z M-180.6,358.7v-7.3v-1.2
			c0-0.6,1.2-1.2,2.8-1.2c1.5,0,2.8,0.5,2.8,1.2v1.2v7.3v17.2v1.6c0,0.7-1.2,1.2-2.8,1.2c-1.5,0-2.8-0.5-2.8-1.2v-1.6v-7.3
			L-180.6,358.7L-180.6,358.7z M-180.6,339.7v-1.1v-1.1c0-0.7,1.2-1.2,2.8-1.2c1.5,0,2.8,0.5,2.8,1.2v1.1v1.1v1.1
			c0,0.7-1.2,1.2-2.8,1.2c-1.5,0-2.8-0.5-2.8-1.2V339.7z M-194.7,346.5v-7.3v-1.6c0-0.7,1.2-1.2,2.8-1.2c1.5,0,2.8,0.5,2.8,1.2v1.6
			v7.3v2.7h3.5h1.6c0.6,0,1.2,1.2,1.2,2.8c0,1.5-0.5,2.8-1.2,2.8h-1.6h-3.5v21.2v1.6c0,0.7-1.2,1.2-2.8,1.2c-1.5,0-2.8-0.5-2.8-1.2
			v-1.6V373L-194.7,346.5L-194.7,346.5z M-76,346.5v-7.3v-1.6c0-0.7,1.2-1.2,2.8-1.2c1.5,0,2.8,0.5,2.8,1.2v1.6v36.8v1.6
			c0,0.7-1.2,1.2-2.8,1.2c-1.5,0-2.8-0.5-2.8-1.2v-1.6V373L-76,346.5L-76,346.5z"/>
		<path class="st0" d="M-236.9,405c-1.2-1.8-3.9-3.4-7.8-3.4c-5.6,0-8.6,3.3-8.6,5.7v3.7l16.8-5.6L-236.9,405z M-258.9,415.1
			c0-0.2,0-0.4,0-0.5v-7.2c0-6.9,7.2-11.2,14.2-11.2c7,0,14.2,4.3,14.2,11.2c0,0.8-0.8,2.3-1.9,2.6l-20.4,6.8l0.3,0.5
			c1.2,1.8,3.9,3.4,7.8,3.4c4.3,0,7.7-2.2,9-4.6l0.6-1c0.3-0.6,1.6-0.5,3,0.2c1.3,0.7,2.2,1.8,1.9,2.4l-0.4,0.9
			c-2.5,4.7-7.9,7.8-14,7.8C-251.6,426.2-258.8,421.9-258.9,415.1 M-148.6,415.1c0-0.2,0-0.4,0-0.5l0-7.2c0-6.9,7.2-11.2,14.2-11.2
			c7,0,14.2,4.3,14.2,11.2c0,0.8-0.8,2.3-1.9,2.6l-20.4,6.8l0.3,0.5c1.2,1.8,3.9,3.4,7.8,3.4c4.3,0,7.7-2.2,9-4.6l0.6-1.1
			c0.3-0.6,1.7-0.5,3,0.3c1.3,0.7,2.2,1.8,1.9,2.4l-0.4,0.9c-2.5,4.7-7.9,7.8-14,7.8C-141.3,426.2-148.4,421.9-148.6,415.1
			 M-126.5,405c-1.2-1.8-3.9-3.4-7.8-3.4c-5.6,0-8.6,3.3-8.6,5.7v3.7l16.8-5.6L-126.5,405z M-190.6,414.9c0,2.4,3,5.7,8.6,5.7
			c5.6,0,8.6-3.3,8.6-5.7v-7.6c0-2.4-3-5.7-8.6-5.7c-5.6,0-8.6,3.3-8.6,5.7v1.1v1.6V414.9z M-167.8,414.9c0,6.9-7.2,11.3-14.2,11.3
			c-3,0-6.1-0.8-8.6-2.3v11.8v1.6c0,0.6-1.2,1.2-2.8,1.2c-1.5,0-2.8-0.5-2.8-1.2v-1.6v-2.9v-15.4v-2.5V410v-1.6v-1.1
			c0-6.9,7.2-11.2,14.2-11.2c7,0,14.2,4.3,14.2,11.2L-167.8,414.9L-167.8,414.9z M-150,402c-6.2,0-8.7,3-8.7,4.3v0.3v9v7.8v1.6
			c0,0.7-1.2,1.2-2.8,1.2s-2.8-0.5-2.8-1.2v-1.6V416v-0.4v-9v-0.3v-7.1v-1.6c0-0.6,1.2-1.2,2.8-1.2c1.5,0,2.8,0.5,2.8,1.2v1.2
			c2.6-1.8,5.7-2.4,8.7-2.4c0.7,0,1.2,1.2,1.2,2.7C-148.8,400.8-149.4,402-150,402 M-96.2,398.1c0.8,0.3,0.8,1.5,0.2,2.8
			c-0.5,1.3-1.4,2.1-2,1.9c-2.4-1.1-4.4-1.5-7-1.5c-3.5,0-5.8,0.8-5.8,3.1c0,1.1,0.5,1.8,1.6,2.4c0.5,0.3,1.2,0.6,2.1,0.9
			c0.9,0.3,1.9,0.6,3.1,1c6.1,2,10.2,4,10.2,8.9c0,4.7-4.3,8.7-12.3,8.7c-3.2,0-7.5-1.1-10.6-2.9l-1.2-0.6c-0.5-0.3-0.4-1.4,0.3-2.6
			c0.6-1.2,1.6-1.9,2.1-1.6l0.8,0.4c2.6,1.4,5.3,2.3,8.2,2.3c3.2,0,6.9-0.9,6.9-3.7c0-2.1-2-2.9-8.7-5.2c-5.6-1.9-8.4-4.4-8.4-8.4
			c0-4.8,4.8-7.9,11.2-7.9C-101.2,396.1-99,396.8-96.2,398.1 M-70.3,398.1c0.8,0.3,0.8,1.5,0.2,2.8c-0.5,1.3-1.4,2.1-2,1.9
			c-2.4-1.1-4.4-1.5-7-1.5c-3.5,0-5.8,0.8-5.8,3.1c0,1.1,0.5,1.8,1.6,2.4c0.5,0.3,1.2,0.6,2.1,0.9c0.9,0.3,1.9,0.6,3.1,1
			c6,2,10.2,4,10.2,8.9c0,4.7-4.3,8.7-12.3,8.7c-3.2,0-7.5-1.1-10.6-2.9l-1.2-0.6c-0.5-0.3-0.4-1.4,0.3-2.6c0.6-1.2,1.6-1.9,2.1-1.6
			l0.8,0.4c2.6,1.4,5.3,2.3,8.2,2.3c3.2,0,6.9-0.9,6.9-3.7c0-2.1-2-2.9-8.7-5.2c-5.6-1.9-8.4-4.4-8.4-8.4c0-4.8,4.8-7.9,11.2-7.9
			C-75.2,396.1-73.1,396.8-70.3,398.1 M-203,396.5c0.5-0.5,1.7,0,2.8,1.1c1.1,1.1,1.6,2.3,1.1,2.8l-10.6,10.6l11,11
			c0.5,0.5,0,1.7-1.1,2.8c-1.1,1.1-2.3,1.6-2.8,1.1l-11-11l-11,11c-0.5,0.5-1.7,0-2.8-1.1c-1.1-1.1-1.6-2.3-1.1-2.8l11-11
			l-10.6-10.6c-0.5-0.5,0-1.7,1.1-2.8c1.1-1.1,2.3-1.6,2.8-1.1l10.6,10.6L-203,396.5z"/>
	</g>
	<rect x="-339" y="314.7" class="st1" width="343.9" height="137.3"/>
</g>
</svg>
