<?xml version="1.0" encoding="utf-8"?>
<!-- Generator: Adobe Illustrator 19.1.0, SVG Export Plug-In . SVG Version: 6.00 Build 0)  -->
<svg version="1.1" id="Layer_1" xmlns="http://www.w3.org/2000/svg" xmlns:xlink="http://www.w3.org/1999/xlink" x="0px" y="0px"
	 viewBox="-339 316.7 343.9 137.3" style="enable-background:new -339 316.7 343.9 137.3;" xml:space="preserve">
<style type="text/css">
	.st0{fill:none;}
	.st1{fill:#6B7482;}
	.st2{fill:#79818E;}
</style>
<rect x="-339" y="316.7" class="st0" width="343.9" height="137.3"/>
<g>
	<polygon class="st1" points="-62.7,397.9 -62.7,397.9 -62.7,397.9 	"/>
	<path class="st1" d="M-108,404.8c-0.9-1.3-0.8-3.5,0.4-6.8l5-13.9c2.3-6.4,5.7-9,11.9-9h26.6c2.8,0,4.6,0.6,5.4,1.7
		c0.9,1.3,0.8,3.5-0.4,6.8l-5,13.9c-2.3,6.4-5.7,9-11.9,9h-26.6C-105.4,406.5-107.2,405.9-108,404.8z M-83.4,380
		c-1.9,0-3.1,0.9-3.8,2.9l-5.4,15.1c-0.3,0.7-0.5,1.8,0,2.6c0.4,0.6,1.1,0.8,2.1,0.8h7.2c1.9,0,3.2-1,3.9-2.9l5.4-15.1
		c0.4-1.1,0.4-2,0-2.6c-0.4-0.6-1.1-0.9-2.1-0.9H-83.4z"/>
	<path class="st1" d="M-247.4,371.1c1-2.5,3.5-4.4,6.4-4.4h27.9c4.2,0,6.7,0.7,7.8,2.3c0.9,1.2,0.8,3.1-0.1,5.7c0,0-1.6,4-1.6,4
		c-1.9,5.1-3.6,5.7-9.4,6.2c-0.4,0-0.6,0.3-0.7,0.6l0,0.1c0,0.4,0.2,0.7,0.6,0.8l2.6,0.4c1.8,0.4,3,1,3.6,1.9
		c0.9,1.2,0.8,3.1-0.1,5.7c0,0-1.4,3.7-1.4,3.7c-2.1,5.8-6.5,8.4-14.1,8.4l-31.1,0.1c-1.8,0-2.8-1.5-2.1-3.3L-247.4,371.1z
		 M-225.3,392.3c0.3-0.8,0.6-1.9,0.1-2.6c-0.5-0.7-1.4-0.8-2.4-0.8h-10.3c-0.3,0-0.6,0.2-0.7,0.5l-3.7,10.2c-0.1,0.2,0,0.5,0.1,0.7
		c0.1,0.2,0.4,0.3,0.6,0.3h10.3c2.2,0,3.3-0.8,4-2.9C-227.2,397.6-225.3,392.2-225.3,392.3C-225.3,392.3-225.3,392.3-225.3,392.3z
		 M-219.6,373.9c-0.7-1-1.4-1.2-2.6-1.2h-9.8c-0.3,0-0.6,0.2-0.7,0.5l-3.1,8.7c-0.1,0.2,0,0.5,0.1,0.7c0.1,0.2,0.4,0.3,0.6,0.3h9.5
		c2.4,0,3.8-1,4.6-3c0,0,1.4-3.8,1.4-3.8c0,0,0,0,0,0C-219.1,375-219.3,374.3-219.6,373.9z"/>
	<path class="st1" d="M-148.5,371.1c1-2.5,3.5-4.4,6.4-4.4h27.9c4.2,0,6.7,0.7,7.8,2.3c0.9,1.2,0.8,3.1-0.1,5.7c0,0-1.6,4-1.6,4
		c-1.9,5.1-3.6,5.7-9.4,6.2c-0.3,0-0.6,0.3-0.7,0.6l0,0.1c0,0.4,0.2,0.7,0.6,0.8l2.6,0.4c1.8,0.4,3,1,3.6,1.9
		c0.9,1.2,0.8,3.1-0.1,5.7c0,0-1.4,3.7-1.4,3.7c-2.1,5.8-6.5,8.4-14.1,8.4l-31.1,0.1c-1.8,0-2.8-1.5-2.1-3.3L-148.5,371.1z
		 M-126.3,392.3c0.3-0.8,0.6-1.9,0.1-2.6c-0.5-0.7-1.4-0.8-2.4-0.8H-139c-0.3,0-0.6,0.2-0.7,0.5l-3.7,10.2c-0.1,0.2,0,0.5,0.1,0.7
		c0.1,0.2,0.4,0.3,0.6,0.3h10.3c2.2,0,3.3-0.8,4-2.9C-128.2,397.6-126.3,392.2-126.3,392.3C-126.3,392.3-126.3,392.3-126.3,392.3z
		 M-120.6,373.9c-0.7-1-1.4-1.2-2.6-1.2h-9.8c-0.3,0-0.6,0.2-0.7,0.5l-3.1,8.7c-0.1,0.2,0,0.5,0.1,0.7c0.1,0.2,0.4,0.3,0.6,0.3h9.5
		c2.4,0,3.8-1,4.6-3c0,0,1.4-3.8,1.4-3.8c0,0,0,0,0,0C-120.1,375-120.4,374.3-120.6,373.9z"/>
	<path class="st1" d="M-179.9,398.6c-0.7,1.8-2,2.9-3.7,2.9h-6.2c-1,0-1.8-0.3-2.2-0.9c-0.4-0.6-0.5-1.4-0.1-2.5
		c0,0,7.6-21.2,7.6-21.2l0.1-0.5c0-0.8-0.7-1.5-1.5-1.5h-8c-3,0-5.6,1.9-6.5,4.6l-5.8,16.3c-1.3,3.7-1.4,6.6-0.2,8.4
		c1.1,1.5,3.2,2.3,6.2,2.3h11.6c2.4,0,4-0.9,5.2-2.9c0.1-0.2,0.4-0.3,0.6-0.3h0.1c0.2,0,0.5,0.1,0.6,0.3c0.1,0.2,0.2,0.4,0.1,0.7
		c0,0-2.4,6.8-2.4,6.8c-0.9,2.4-2.5,2.9-4.6,2.9H-208c-1.4,0-2.5,1.1-2.5,2.5c0,1.4,1.1,2.5,2.5,2.5h27.1c5.9,0,9.9-3,12.1-9.1
		c0,0,11.8-32.9,11.7-32.9l0.1-0.5c0-0.8-0.7-1.5-1.5-1.5h-8c-3,0-5.6,1.9-6.5,4.6L-179.9,398.6z"/>
	<path class="st1" d="M-32.1,382.8c0.1,0.2,0.3,0.3,0.5,0.4c0.2,0.1,0.4,0,0.6-0.1l11-7.6c0.5-0.3,1.1-0.5,1.7-0.5h3.3
		c0.8,0,1.5,0.7,1.5,1.5c0,0.5-0.2,1-0.7,1.2l-15,10.1c-0.3,0.2-0.4,0.6-0.3,0.9l7.1,15.7c0.1,0.2,0.1,0.4,0.1,0.6
		c0,0.8-0.7,1.5-1.5,1.5h-16.2c-0.6,0-1.1-0.3-1.4-0.9c0,0-3.4-7.6-3.4-7.6c-0.1-0.2-0.3-0.3-0.5-0.4c-0.2-0.1-0.4,0-0.6,0.1
		l-12.3,8.3c-0.5,0.3-1.1,0.5-1.7,0.5H-63c-0.8,0-1.5-0.7-1.5-1.5c0-0.5,0.2-1,0.7-1.2l16.2-10.8c0.3-0.2,0.4-0.6,0.3-0.9l-6.7-15.1
		c-0.1-0.2-0.1-0.4-0.1-0.6c0-0.8,0.7-1.5,1.5-1.5h16.2c0.6,0,1.1,0.3,1.4,0.9L-32.1,382.8z"/>
</g>
<path class="st1" d="M-295.2,410.7c-3.7,0.8-6.7-1.6-6.7-5.3v-20.8c0-4.1,3.4-7.8,7.5-8.3l19.2-2c3.7-0.4,6.5,2.3,6.2,5.9l-1.6,19.4
	c-0.3,3.3-3.2,6.5-6.6,7.3L-295.2,410.7z"/>
<path class="st2" d="M-312.2,401.7c-1.7-2.3-3.1-6.2-3.2-8.9l-0.8-21c-0.1-1.9,1.4-2.2,3.4-0.8l3.5,2.6c2.2,1.7,4,5.3,4,8v25.5
	c0,2.1-1.7,1.5-3.9-1.4L-312.2,401.7z"/>
<path class="st2" d="M-296.9,373.3c-6.4,0.4-9.2-1.6-10.3-2.4c-1.1-0.7-1.7-1.1-4-2.8c-2.3-1.7-0.9-2.2,3.2-2.5
	c2.2-0.2,10.9-0.6,15.3-0.9c4.4-0.3,7.3-0.2,10,0.9c2.7,1.1,3.8,1.5,6.6,2.6c2.8,1.1,3.4,2.7-0.1,3L-296.9,373.3z"/>
</svg>
