<?xml version="1.0" encoding="utf-8"?>
<!-- Generator: Adobe Illustrator 18.1.1, SVG Export Plug-In . SVG Version: 6.00 Build 0)  -->
<svg version="1.1" id="Layer_1" xmlns="http://www.w3.org/2000/svg" xmlns:xlink="http://www.w3.org/1999/xlink" x="0px" y="0px"
	 width="343.9px" height="137.3px" viewBox="-550.8 148.6 343.9 137.3" enable-background="new -550.8 148.6 343.9 137.3"
	 xml:space="preserve">
<symbol  id="_x2E_logo-lloyds" viewBox="-110.6 -49.6 221.1 99.2">
	<g>
		<path fill="#6B7482" d="M106.7-3.6c-3.5,2.6-6.6,6.5-9.9,10.2c-1.4,1.5-2.5,2.2-4.3,2.2c-1,0-2.5-0.3-3.6-0.3
			c-1.8,0-3.3,0.1-4.9-0.4c-1.2,0.9-1.1,1.9-0.4,2.3c1.5,0.8,0.1,1.4,0.1,2.5c0,1,1,1.3,1.7,1c0.7,1.8-0.7,3.7-1,5.1
			c1,0.2,2.1,0.7,2.7,2c-1,0.6-3.4,1.9-3.4,4.1c1.8,0.2,3.3,1.8,2.8,3.5c-0.4-0.2-0.8-0.3-1.3,0c-0.6,0.4-0.5,0.7-1.3,1.3
			c-0.9,0.6-2.7,0.7-3.1,2c1,1.5,1,3.4,0,4.1c-0.2-0.2-0.6-0.9-1.3-0.9c-1.4,0-1.7,0.9-2.9,2c-0.4,0.3-1,0.9-3.1,0.9
			c-1.3,0-2.3,0.8-3.3,0.7c0.4-0.6,0.2-1.7-0.7-1.5c-0.3,0.1-0.8,1-1.7,1.5c-0.7,0.4-1.2,0.4-1.8,0.9c-0.5,0.4-0.4,1.1-1,1.1
			c-0.4,0-0.4-0.7-0.4-1.1c0-0.8,0.4-1,0.3-2.1c-0.8,0.5-1.2,1.4-2,1.4c-0.1,0-0.2-0.1-0.3-0.2c0,0-0.2-0.2,0.1-0.9
			c0.2-0.7,1.3-1.2,1.3-2.1c0-1.7-2.2-2.8-2.2-4.4c0-0.3,0.2-0.5,0.2-0.8c0.1-0.8-0.8-1.5-1.3-2.6c-0.8-1.7-0.7-2.3-1.6-3.9
			c-0.4-0.8-1-1-1-1.9c0-1.7,0.7-3.7,2.4-3.7c0.8,0,1.7-0.7,2.4-0.3c2.1,1.2,0.7,1.6,1.6,2.6c1.5,1.4,2.8,2.8,4.2,2.8
			c0.5,0,0.7-0.6,0.7-1.5c0-3.2-2.5-7.7-5.2-10.1c-1.2-1-1.7-1.2-3-2.1c-3.4-2.3-6.3-2.8-8-2.8c-4.3,0-6.1,1-10.1,1
			c-2.7,0-5.5-0.9-7.8-2.5C29,6.2,28.8,14.1,22,14.1c-4.7,0-8.4-4-8.4-9.2c0-4.8,2.3-7.8,6.5-10.7c0.7-0.6,1.4-0.9,1.4-2.1
			c0-2.5-4.4-2.5-4.4-5.8c0-1.6,1.2-2.8,2.8-2.8c0.7,0,1.3,0.2,1.5,0.8c-0.6,0.2-0.9,0.6-0.9,1c0,2.1,7.2,0.9,7.2,6.9
			c0,5.2-6.4,6-6.4,9.9c0,0.6,0.2,1.1,0.6,1.1s0.4-1,1.2-1.2c0.3,1.2,1.6,2.8,2.9,2.8c0.3,0,0.6-0.1,0.3-0.4
			c-0.6-0.6-0.7-1.2-0.7-1.8c0-0.4,0.2-1,0.8-1.2c0.2,0.5,1,1.4,2.1,1.4c1.2,0,1.2-0.4,2.9-0.3c0.4,0,0.4-0.2,0.4-0.3
			c-1.2-1.5-2-3.3-2.3-5.1c-0.6-4,0.3-6,0.3-6.9c0.1-0.7,0.2-1.6-0.4-2.8s-0.3-0.5-1.3-2.1c-1.7-2.8-5-2.9-4.7-6.1
			c0.9-5.5,0-10.1-0.1-12.9c-0.1-1.3-0.4-2.1-0.4-2.7c0-2.1,2.3-2,2.7-4c0.2-1-0.1-1.6,0.4-2.5c0.1-0.2,0.5-0.6,0.9-0.6h4.4
			c0.6,0,0.7,0.5,0.7,0.9c-0.1,1.5-1.4,2.6-2.5,3.3c-1.8,1.2-2.1,1.9-2.7,4.1c-0.4,3.3,0.2,6.7,0.6,10c0.1,1.5,0.5,2.5,1.5,3.4
			c0.4,0.5,1.4,1.2,1.8,1.3c2.8,0.4,4.7,1.3,6.3,2.5c0.1-2.5-2.4-2.9-2.4-5.3c0-2,1.5-2.8,2.7-4.3c2.1-2.9,3.3-3.9,5.8-7.9
			c0.9-1.5,0-2.2,1.2-3.3c0.7-0.6,1.1-0.4,1.7-1c0.7-0.9,0.4-1.9,0.9-2.9c0.1-0.2,0.4-0.6,1-0.6H52c0.6,0,0.9,0.4,0.9,1
			c0,1.3-1.2,2.8-3.3,3.9c-2,1-3.9,4.2-5.1,6.3c-1.3,2.3-3.7,4.4-4.5,7.1c-0.6,2.2,0,3.4,2,4.3c3.7,1.7,6.2,6.2,7.4,9.5
			c1.5,0.1,5.1-0.5,7.9-0.9c3.9-0.5,8.7-0.1,11.5,0.7c2,0.6,3.2,1.4,4.7,1.7h-0.1c1.8,0.4,2.1-0.7,3.9-0.1c4.7,1.4,8.4,4.5,11.2,5.6
			c0.5,0.2,1,0.3,1.6,0.3c1,0,1.2-0.5,2.2-1.6c2-2.1,3.1-5.7,3.9-9.3c0.2-0.7,1.3-0.6,1.3-1.3c0-1.2-0.9-1.7-0.9-2.8
			c0-1.5,3.4-3,4.8-3c1,0,1,1,1,1.7c0,2.3-1,3.6-2.1,5.5c-2.4,4.1-4.4,8.9-5.8,12.3c-0.9,1.4-1.7,3-3.5,3c-1.7,0-4-0.2-5.7-0.2
			l-1.8-0.1l0.3,0.4c0.9,0.1,1.7,0.5,3.1,1.1c2,0.9,3.3,2.2,4.7,2.2c0.6,0,0.7,0,1.3,0.1c0.8,0.1,2.6-0.8,4.2-2.5
			c2-2,3.6-3.8,4.1-4.9c0.4-0.9,0.5-1.2,1.2-1.6c0.6-0.3,1.4,0,1.8-0.6c0.5-0.7-0.3-1.7,0.2-2.5c0.7-1,2.2-1.4,3.5-1.4
			c1.8,0,2.6,0.6,2.6,1.2C110.5-6,108.5-5,106.7-3.6z"/>
		<polygon fill="#6B7482" points="-108.4,-49.6 85.8,-49.6 85.8,-46.2 -108.4,-46.2 		"/>
		<polygon fill="#6B7482" points="-32.7,21.9 -36.1,21.9 -36.1,4.1 -32.7,4.1 		"/>
		<path fill="#6B7482" d="M-29.5,40.4c0,5-4,8.9-9.2,8.9h-5.7V31.5h5.7C-33.5,31.5-29.5,35.4-29.5,40.4z M-41,46.1h2.4
			c3.3,0,5.6-2.4,5.6-5.6c0-3.3-2.4-5.7-5.6-5.7H-41V46.1z"/>
		<path fill="#6B7482" d="M-100.9-23.6c1.6,0,3.2,0.3,4.7,0.7v9.2h-3.3v-6.6c-0.3-0.1-1-0.1-1.4-0.1c-3.6,0-6.1,2.5-6.1,5.9
			c0,3.5,2.6,5.9,6.2,5.9c1.6,0,2.9-0.3,4.1-0.7V-6c-1.1,0.4-2.6,0.7-4.2,0.7c-5.4,0-9.7-3.7-9.7-9.1l0,0
			C-110.5-19.9-106.1-23.6-100.9-23.6z"/>
		<path fill="#6B7482" d="M-32-17.2h2.4c3.5,0,6.3,2.3,6.3,5.9c0,3.5-2.6,5.8-6.1,5.8h-5.9v-17.8h3.3V-17.2z M-32-8.8h2.4
			c1.8,0,2.8-1,2.8-2.6s-1.1-2.5-3-2.5H-32V-8.8z"/>
		<path fill="#6B7482" d="M1.5,3.8c1.6,0,3.2,0.3,4.7,0.7v9.2H3V7.2C2.7,7.1,2,7,1.6,7c-3.7,0-6.1,2.6-6.1,6c0,3.5,2.6,5.9,6.2,5.9
			c1.6,0,2.9-0.3,4.1-0.7v3.3c-1.1,0.4-2.6,0.7-4.2,0.7C-3.7,22.1-8,18.4-8,13C-8,7.5-3.7,3.8,1.5,3.8z"/>
		<polygon fill="#6B7482" points="-24,16.4 -14.2,4.1 -11.8,4.1 -11.8,21.9 -15.1,21.9 -15.1,10.2 -24.5,21.9 -27.4,21.9 -27.4,4.1 
			-24,4.1 		"/>
		<path fill="#6B7482" d="M-54-5.5v-11.3c0-4.1,3-6.8,7.1-6.8c4,0,7.1,2.8,7.1,6.8v11.3h-3.5v-11.2c0-2.2-1.4-3.6-3.6-3.6
			c-2.1,0-3.7,1.4-3.7,3.6v11.2C-50.6-5.5-54-5.5-54-5.5z"/>
		<path fill="#6B7482" d="M-21.8,39.3c2-0.7,3.6-1.2,3.6-2.8c0-1.4-1.4-2.1-2.9-2.1c-1.8,0-3.6,0.7-5.2,1.7v-3.5
			c1.2-0.7,3.2-1.4,5.3-1.4c3,0,6.2,1.9,6.2,5.4c0,3.4-2.7,4.7-5,5.4c-3,0.9-3.5,1.6-3.5,2.4c0,1.2,1.1,1.9,2.9,1.9
			c1.6,0,3.1-0.5,4.4-1.1v3.3c-1.5,0.7-3,1-4.5,1c-3.6,0-6.1-2-6.1-5.1C-26.6,42-25,40.3-21.8,39.3z"/>
		<path fill="#6B7482" d="M-79.4-11.1c0,3.5-2.5,5.5-6,5.5h-6.1v-17.8h3.4v6.8h2.2l3.8-6.8h3.9l-4.3,7.4
			C-80.7-15.1-79.4-13.3-79.4-11.1z M-85.5-13.4h-2.6v4.7h2.5c1.6,0,2.8-0.7,2.8-2.3C-82.9-12.6-83.9-13.5-85.5-13.4z"/>
		<path fill="#6B7482" d="M-97.4,17c0,3-2.2,4.9-5.6,4.9h-6.8V4.1h6.6c4,0,6.4,2,6.4,5.3c0,1.8-0.9,3.2-2.6,4.2
			C-98.3,14.2-97.4,15.4-97.4,17z M-106.3,18.8h3.1c1.1,0,2.5-0.5,2.5-2c0-1.3-0.9-2.1-2.3-2.1h-3.2L-106.3,18.8L-106.3,18.8z
			 M-103.3,7.2h-3v4.4h3.5c1.5,0,2.5-0.9,2.5-2.2C-100.2,7.6-101.9,7.2-103.3,7.2z"/>
		<polygon fill="#6B7482" points="-83.8,34.8 -91.8,34.8 -91.8,49.3 -95.3,49.3 -95.3,31.5 -83.8,31.5 		"/>
		<polygon fill="#6B7482" points="-46.3,13.1 -38.8,21.9 -43,21.9 -50.1,13.5 -50.1,21.9 -53.5,21.9 -53.5,4.1 -50.1,4.1 
			-50.1,12.5 -42.8,4.1 -38.3,4.1 		"/>
		<path fill="#6B7482" d="M-84.5,22h-3.2l-7.4-17.9h3.6l1.8,4.7h7l1.8-4.7h3.7L-84.5,22z M-88.5,11.9l2.3,6l2.3-6H-88.5z"/>
		<path fill="#6B7482" d="M-73.7,31.3c5.1,0,9.3,4.1,9.3,9.2c0,5-4.2,9.1-9.3,9.1c-5,0-9.3-4.1-9.3-9.1
			C-83,35.3-78.8,31.3-73.7,31.3z M-73.7,46.3c3.1,0,5.7-2.6,5.7-5.9c0-3.4-2.5-5.9-5.7-5.9s-5.7,2.6-5.7,5.9
			C-79.4,43.7-76.8,46.3-73.7,46.3z"/>
		<polygon fill="#6B7482" points="-61.3,31.5 -57.4,31.5 -46.6,49.3 -50.5,49.3 -55.1,41.6 -59.9,49.3 -63.9,49.3 -57,38.6 		"/>
		<polygon fill="#6B7482" points="-71,16.4 -61.1,4.1 -58.7,4.1 -58.7,21.9 -62,21.9 -62,10.2 -71.4,21.9 -74.3,21.9 -74.3,4.1 
			-71,4.1 		"/>
		<polygon fill="#6B7482" points="-98.3,34.8 -106.3,34.8 -106.3,49.3 -109.7,49.3 -109.7,31.5 -98.3,31.5 		"/>
		<path fill="#6B7482" d="M-76.4-14.4c0-5.1,4.1-9.2,9.3-9.2c5.1,0,9.3,4,9.3,9.2c0,5-4.2,9.1-9.3,9.1C-72.1-5.3-76.4-9.4-76.4-14.4
			L-76.4-14.4z M-67.1-8.6c3.1,0,5.7-2.6,5.7-5.9c0-3.4-2.5-5.9-5.7-5.9c-3.2,0-5.7,2.6-5.7,5.9C-72.8-11.1-70.2-8.6-67.1-8.6z"/>
	</g>
	<g opacity="0.1">
		<path fill="#F6F6F6" d="M21.4,12.7c-2.9,0-6-2.7-6.4-5.8c0-0.6,0-1,0.3-1c0.7,0,2.1,4.1,4.8,4.1c0.8,0,1-0.3,1-0.6
			c0-0.6-0.9-1-0.9-1.8c0-0.1,0.1-0.3,0.3-0.3c0.7,0,1.2,1.5,3.9,1.5c0.7,0,1.4-0.1,2-0.2c0.3-0.1,0.9-0.4,0.7,0.5
			C26.5,10.9,24.4,12.7,21.4,12.7z"/>
		<path fill="#F6F6F6" d="M66.3,31.2c-0.8,0.3-0.9,0.7-0.7,1.7c0.2,1,0.2,1.5-0.2,1.6c-0.4,0.1-1-0.1-1.5-0.7
			c-0.5-0.7-1.3-1.5-1.5-2.1c-0.2-0.9,0.8-0.7,0.1-2.2c-1.3-2.3-1.6-2.8-2.2-4.5c-0.6-1.7-1-2-1.3-2.5c-0.4-0.5,0.5-0.6,1.5-0.2
			s1.1-0.9,0.7-1.7c-0.3-0.6-0.1-0.9,0.8-0.2c0.8,0.6-0.4,1.1-0.1,3.1c0.3,1.8,0.7,2.8,1.8,4.5c0.9,1.5,1.7,2.6,3.3,2.1
			C67.4,29.7,67.1,30.9,66.3,31.2z"/>
		<path fill="#F6F6F6" d="M80.1,6.9c-1.9,2.2-2.6,1.7-1.9,3.5c3,7.3,4.9,18.4-4.1,22.2c-1,0.4-1.9,0.4-1.9,0.2s1-0.5,2.2-1.3
			c6-4,4.2-14.9-1.4-20.1c-1.8-1.8-1-2.2,1.3-3.3c6.9-3.2,6.5-9,7.1-7.5C81.7,1.3,82.6,4.1,80.1,6.9z"/>
		<path fill="#F6F6F6" d="M63.9,9.3c-0.4-0.3-1.7-1.2-2.3-1.6c-2.7-1.9-6.8-2.8-8.5-2.8c-3.5,0-6.5,1-9.7,1
			c-9.6,0-13.1-7.5-12.7-11.8c0.1-0.7,0.2-0.7,0.4-0.7c0.7,0,1.2,2.6,3.6,4.8c3.5,3.3,7.3,5.2,12.7,5.2c3.9,0,5.5-1.3,5.5-1.8
			c0-1-1.7-1-1.5-2c0-0.3,0.9-1,3.4-0.7c3.8,0.4,4.4,1.3,5.1,4.2c0.3,1.3,1.3,2.8,2.2,3.7c0.6,0.6,1.1,1.1,1.7,2
			C64.1,9.1,64.2,9.4,63.9,9.3z"/>
	</g>
</symbol>
<use xlink:href="#_x2E_logo-lloyds"  width="221.1" height="99.2" x="-110.6" y="-49.6" transform="matrix(0.9991 0 0 -0.9991 -378.8306 217.2735)" overflow="visible"/>
<rect x="-550.8" y="148.6" fill="none" width="343.9" height="137.3"/>
</svg>
