<svg width="1142" height="333" viewBox="0 0 1142 333" xmlns="http://www.w3.org/2000/svg" xmlns:xlink="http://www.w3.org/1999/xlink"><title>client-sprite</title><defs><path d="M.502 4.467c-.187 0-.187-.249-.187-.623C.565 1.91 2.498.225 4.307.225c1.872 0 3.182 1.124 3.556 2.246.069.311-.015.393-.136.393-.097 0-.217-.053-.3-.08a7.67 7.67 0 0 0-1.248-.125c-1.685 0-1.996.935-2.433.935-.125 0-.187-.124-.187-.187 0-.5.561-.748.561-1.122 0-.188-.125-.375-.624-.375C1.812 1.91.938 4.467.502 4.467z" id="a"/></defs><g fill="none" fill-rule="evenodd"><path d="M233.13 56.028l3.364-9.093 3.176 9.093h-6.54zm1.807-12.706l-8.283 21.8h3.113l2.43-6.665h8.283l2.367 6.664h3.052l-7.973-21.799h-2.99zm18.498 11.834c-1.744-.374-3.862-.997-3.862-2.554 0-1.12 1.121-2.428 3.301-2.428 2.242 0 3.55 1.494 3.8 2.117l2.553-1.059c-1.183-2.242-3.55-3.176-6.041-3.176-3.862 0-6.353 1.868-6.353 4.92 0 3.425 2.927 4.111 5.792 4.733 2.43.499 4.796 1.122 4.796 2.99 0 1.806-1.433 2.74-3.924 2.74-1.993 0-3.3-.56-4.048-1.868l-2.928.498c1.122 2.367 3.55 3.488 6.914 3.488 4.546 0 6.913-2.554 6.913-5.231-.062-3.488-3.239-4.485-6.913-5.17m13.017-11.834l-2.865 1.184v3.986h-2.616v2.305h2.616v10.712c-.063 2.18-.063 3.737 3.176 3.737 1.059 0 2.18-.187 2.678-.249v-2.305c-.56.187-1.308.374-1.806.374-1.183 0-1.183-.81-1.183-2.803v-9.466h2.99v-2.305h-2.99v-5.17m8.283 8.222v-2.99h-2.803V65.12h2.803v-7.598c0-1.432-.062-3.114.685-4.298.872-1.494 2.242-2.055 4.983-2.055v-2.865c-1.121 0-4.11.062-5.668 3.239m37.868-5.48v-2.74h-15.695V46h12.394l-12.456 16.318v2.803h16.069v-2.616h-12.706l12.394-16.442m25.723 2.055c-.997 0-3.613.25-5.17 2.928v-2.43h-2.803v16.505h2.803v-9.404c0-1.246 0-2.492 1.246-3.737.871-.872 1.93-1.246 3.176-1.246 1.495 0 3.052.685 3.55 2.305.187.56.187 1.059.187 2.74v9.405h2.803v-9.84c0-1.371 0-2.43-.312-3.427-.872-2.74-3.425-3.799-5.48-3.799m31.265 1.869c2.305 0 3.364 1.245 3.862 2.366l2.616-1.058c-1.62-2.679-4.485-3.301-6.602-3.301-5.294-.063-7.848 4.235-7.848 8.906 0 4.048 2.242 8.595 8.097 8.595 3.425 0 5.294-1.62 6.353-3.3l-2.491-1.06c-.561 1.121-1.682 2.18-3.8 2.18-1.868 0-5.045-1.183-5.045-6.664 0-1.433.25-6.664 4.858-6.664M316.9 55.156c.312-3.301 1.993-5.045 4.36-5.045 1.682 0 4.173.747 4.422 5.045H316.9zm11.523-1.37c-.997-4.173-3.924-5.855-6.914-5.855-3.487 0-7.598 2.367-7.598 8.595 0 5.606 2.803 8.907 7.723 8.907 3.612 0 5.418-1.869 6.415-3.488l-2.678-.498c-.747 1.12-1.869 1.868-3.426 1.868-3.923.062-5.107-3.425-4.982-6.228h11.77c0-.623 0-1.931-.31-3.301zm20.117 1.37c.311-3.301 1.993-5.045 4.36-5.045 1.681 0 4.173.747 4.422 5.045h-8.782zm11.522-1.37c-.996-4.173-3.924-5.855-6.913-5.855-3.488 0-7.599 2.367-7.599 8.595 0 5.606 2.803 8.907 7.724 8.907 3.611 0 5.418-1.869 6.414-3.488l-2.678-.498c-.685 1.12-1.868 1.868-3.426 1.868-3.923.062-5.106-3.425-4.982-6.228h11.772c0-.623 0-1.931-.312-3.301zm27.404 6.789c-.81 1.743-2.429 2.49-4.36 2.49-2.055 0-3.114-1.12-3.114-2.428 0-1.184.498-2.304 3.613-2.99 1.806-.373 3.238-.622 4.36-.747-.063 2.367-.125 2.74-.499 3.675zm3.239-7.1s.062-2.74-1.806-4.174c-1.308-.996-3.301-1.432-4.858-1.432-2.803 0-4.734 1.121-5.73 2.928a.47.47 0 0 0-.125.249l2.554 1.058c.249-.996 1.059-2.117 3.363-2.117 3.675 0 3.675 2.864 3.675 4.609v.436l-2.616.186c-4.92.374-6.727 1.495-7.66 2.928a4.49 4.49 0 0 0-.748 2.491c0 2.803 2.367 4.733 5.605 4.733 3.177 0 4.733-1.806 5.543-2.678a16.11 16.11 0 0 0 .312 2.43h2.865c-.374-.686-.436-3.177-.436-3.177l.062-8.47zm-99.589 7.1c-.81 1.743-2.43 2.49-4.36 2.49-2.055 0-3.114-1.12-3.114-2.428 0-1.184.498-2.304 3.612-2.99 1.806-.373 3.239-.622 4.36-.747-.062 2.367-.125 2.74-.498 3.675zm3.238-7.1s.063-2.74-1.806-4.174c-1.308-.996-3.3-1.432-4.858-1.432-2.803 0-4.733 1.121-5.73 2.928a.47.47 0 0 0-.125.249l2.554 1.058c.25-.996 1.059-2.117 3.363-2.117 3.675 0 3.675 2.864 3.675 4.609v.436l-2.616.186c-4.92.374-6.664 1.495-7.66 2.928a4.49 4.49 0 0 0-.748 2.491c0 2.803 2.366 4.733 5.606 4.733 3.176 0 4.733-1.806 5.543-2.678a16.11 16.11 0 0 0 .311 2.43h2.865c-.374-.686-.436-3.177-.436-3.177l.062-8.47zm127.181-9.965c0 .062-.062.124-.062.186-.063.062-.063.125-.125.187l-.374.373c-.311.25-.56.499-.872.748-1.058.747-2.117 1.557-3.238 2.304-.748.499-1.558.997-2.305 1.495l-4.484 2.865c-.623-.373-1.246-.747-1.869-1.059L400.11 46a252.597 252.597 0 0 1-5.481-3.3 9.413 9.413 0 0 1-.996-.686c-.125-.062-.188-.186-.312-.249-.062 0-.062-.062-.125-.062l-.187-.187-.124-.124c-.062-.062-.062-.125-.062-.187s-.063-.125-.063-.187v-.187c0-.062 0-.125.063-.186 0-.063.062-.125.124-.188.062-.124.187-.249.25-.373.124-.125.248-.312.373-.437l3.176-3.176 2.803-2.865.125.436.373.81v.062c.748 1.308 1.433 2.616 2.242 3.862.935 1.432 1.869 2.865 2.865 4.297.437.685.935 1.308 1.433 1.93.436.562.872 1.06 1.37 1.558.436.436.935.81 1.37 1.246.25.187.499.374.748.498l.373.187c.125.062.25.124.374.124.125.063.25.063.374.125.125 0 .249.062.374.062h.623c.124 0 .186-.062.248-.062.063 0 .188-.062.25-.062s.124-.063.25-.125c.06-.062.123-.062.186-.124a.753.753 0 0 0 .311-.312 1.39 1.39 0 0 0 .25-.311c.124-.125.186-.25.249-.374.124-.187.186-.311.249-.498.062-.187.186-.374.249-.623l.373-1.308c.125-.623.312-1.183.374-1.806l.374-3.55c.81.373 1.682.747 2.49 1.183.81.436 1.558.872 2.368 1.37.062.063.186.125.249.187.125.125.249.187.311.311.063.063.125.125.125.188.062.061.062.124.124.186 0 .063.063.125.063.187v.125c.31.062.31.062.249.124zm-5.17 13.328c.374.249.685.436 1.06.685.435.311.933.623 1.37.934l.934.747.373.374c.125.124.187.25.25.312v.124h-.25l-5.231.374-6.789.56h-.187l.125-.124.435-.374c.873-.685 1.744-1.37 2.616-1.993l3.862-2.616c.436.374.934.685 1.432.997zM401.73 33.606l.062-.062h.062l.125.062.374.125.498.25 3.924 1.68 2.615 1.122 1.745.747.124.063c.063 1.37.187 2.678.25 4.048.062 1.058.062 2.117.124 3.176v.624c0 .061 0 .124-.062.248 0 .062-.063.125-.063.187-.062.062-.062.124-.124.187l-.062.062s-.063.063-.125.063-.062.061-.125.061c-.062 0-.062 0-.124.063h-.374c-.062 0-.125 0-.186-.063-.063 0-.125-.061-.188-.061l-.373-.188c-.125-.062-.25-.186-.437-.249-.124-.124-.31-.249-.435-.373-.125-.125-.312-.25-.436-.436-.312-.312-.56-.623-.872-.997-.499-.623-.997-1.183-1.433-1.868a67.213 67.213 0 0 1-1.806-2.679 14.938 14.938 0 0 1-.996-1.681l-1.308-2.554-.312-.81-.062-.249-.062-.249v-.186l.062-.063zm2.554-5.107c1.12-1.183 2.242-2.366 3.425-3.488.187-.186.436-.373.685-.622.062-.063.187-.125.25-.187.062-.062.124-.125.186-.125.063 0 .125-.062.125-.062.062 0 .124-.063.186-.063h.312c.062 0 .062 0 .125.063.062 0 .062.062.062.062.062 0 .062.063.062.063.062.062.062.062.062.124s.063.125.063.125c.062.124.124.31.124.436.063.186.125.435.125.622.062.56.187 1.059.25 1.62l.186 2.055.374 3.675-4.111-.935-3.862-.622-.934-.063h-.311c.934-.872 1.744-1.806 2.616-2.678zm25.037 13.702c0-.124 0-.187-.062-.31a7.917 7.917 0 0 1-.187-.624c-.062-.187-.187-.374-.312-.622-.124-.188-.249-.437-.373-.624-.062-.124-.187-.249-.249-.311-.125-.124-.25-.25-.374-.312a7.536 7.536 0 0 0-.872-.622c-.685-.436-1.37-.872-2.055-1.183-.872-.374-1.744-.872-2.616-1.184l-6.104-2.117c0-1.184.063-2.305 0-3.489-.062-1.743-.125-3.425-.249-5.169-.062-1.183-.249-2.366-.436-3.55-.125-.934-.374-1.806-.56-2.74-.063-.187-.125-.436-.187-.623l-.187-.56a1.842 1.842 0 0 0-.25-.499 3.482 3.482 0 0 0-.249-.436c-.061-.125-.186-.249-.249-.374-.062-.124-.186-.186-.249-.311a93.5 93.5 0 0 0-.249-.249c-.062-.062-.187-.125-.25-.187-.06-.062-.186-.124-.248-.187-.063-.062-.187-.062-.25-.125-.124-.061-.31-.124-.435-.186-.125-.063-.25-.063-.374-.063h-.81c-.188 0-.374.063-.56.063-.188.062-.375.062-.562.125a2.195 2.195 0 0 0-.56.249c-.187.124-.374.186-.623.311-.186.124-.436.249-.623.436-.311.25-.685.498-.996.81-1.246 1.183-2.554 2.429-3.737 3.674-.623.685-1.308 1.37-1.869 2.056-2.366 2.865-4.67 5.667-6.913 8.594-.997 1.308-1.93 2.679-2.865 3.986-.249.312-.436.686-.623 1.06a27.417 27.417 0 0 0-.996 1.868c-.063.187-.125.311-.187.498-.063.187-.125.312-.187.498-.062.187-.062.312-.125.499v.435c0 .063 0 .125.063.25 0 .062.062.124.124.249.062.062.125.125.125.249a.866.866 0 0 1 .187.249c.124.125.311.311.498.436s.311.25.498.374c.312.186.623.374.997.623.124.062.311.124.436.249.062 0-.125-.063-.125-.063.063.063.187.063.25.125 1.992 1.059 4.048 2.055 6.04 3.176 1.993 1.06 3.987 2.118 5.98 3.239l4.484 2.491c-1.557 1.184-3.114 2.305-4.671 3.488-.56.436-1.121.997-1.62 1.495-.435.436-.81.872-1.182 1.37a7.85 7.85 0 0 0-.81 1.184c-.188.311-.374.622-.56.996-.126.25-.25.498-.312.81-.063.187-.125.373-.125.56 0 .125 0 .25-.062.374v.436c0 .125 0 .187.062.311 0 .125.062.187.062.312 0 .062.063.187.063.25.062.06.062.186.124.248s.062.187.125.25c.124.124.186.31.311.373.124.125.25.249.374.311.124.125.311.187.436.312.124.062.312.186.498.249.187.062.311.124.498.187l1.869.374c.311.061.623.061.934.061a28.58 28.58 0 0 0 3.239-.373 39.555 39.555 0 0 0 3.736-.747c1.433-.312 2.928-.686 4.36-1.06.997-.248 2.056-.498 3.052-.933.748-.312 1.557-.623 2.305-.935.186-.062.311-.187.498-.25.125-.06.311-.186.436-.248s.249-.187.374-.25c.062-.061.186-.186.249-.31.062-.063.124-.188.187-.25.062-.062.062-.187.062-.25v-.497c0-.062-.062-.187-.062-.25a.477.477 0 0 0-.125-.249c-.062-.061-.062-.124-.125-.186l-.186-.187c-.125-.125-.25-.25-.374-.311-.125-.063-.187-.187-.311-.25-.125-.062-.25-.124-.374-.249-.81-.498-1.557-.996-2.367-1.432l-3.363-1.993c2.055-1.37 4.11-2.74 6.104-4.11.871-.624 1.681-1.246 2.553-1.87a27.37 27.37 0 0 0 1.993-1.806c.311-.311.56-.622.872-.934.125-.125.25-.311.374-.436.124-.124.187-.311.31-.436.25-.498.5-1.058.749-1.557.062-.25.124-.436.187-.685 0-.124.062-.187.062-.312v-.31c-.125-.25-.125-.374-.125-.437z" fill="#676D76"/><path d="M219.424 0h218.525v93.653H219.424zM0 0h218.525v93.653H0z"/><g fill="#676D76"><path d="M49.798 41.942c-2.433-4.802-5.49-9.291-11.667-16.962-2.62-3.242-3.37-4.614-3.806-6.484-.374-1.809 0-3.305 1.124-4.116.499-.374.561-.561.186-.561-.56 0-1.622.998-1.996 1.808-.437.998-.562 1.621-.562 3.118 0 1.621.188 2.37.811 3.866.188.499.437.998.5 1.123.062.187.062.311-.25.748-1.122 1.746-1.31 3.616-.624 5.487.811 2.245.936 2.494.936 3.305.125 1.996-.5 4.116-2.932 9.79-1.31 2.993-1.809 4.989-1.871 7.233-.063 1.185.062 3.118.187 3.243 0 0 .249-.125.436-.374l.437-.374.062-1.247c.063-1.372.187-2.183.686-3.555.437-1.31.687-1.87 1.81-4.115 1.747-3.492 2.37-5.924 2.308-9.104 0-.749 0-1.372.062-1.372.125 0 2.746 2.806 3.682 3.928 2.058 2.432 2.744 3.867 2.744 5.425 0 1.497-.499 2.93-1.56 4.178-.81.998-.935 1.31-.935 2.058 0 .499.063.935.374 1.87.25.687.437 1.186.5 1.186.062 0 .249-.25.499-.562.499-.686 1.185-1.31 2.87-2.556.624-.5 1.435-1.123 1.809-1.434.374-.313.686-.562.686-.562s.062.312 0 .686c-.188 1.933-1.56 4.053-4.43 6.797-3.306 3.118-4.679 4.989-5.303 7.296-.25.81-.686 3.803-1.06 6.235-.25 1.684-.437 2.495-.812 3.306-1.372 2.993-4.304 2.618-6.425-.811-.312-.437-.562-.873-.562-.936-.062-.125-.936.374-.936.5 0 .062.25.56.562 1.122 1.248 2.494 3.057 4.24 4.928 4.863.625.188.874.25 1.622.188.811 0 .999-.063 1.56-.312.874-.437 1.498-1.185 1.81-2.37.25-.748.561-2.93.873-5.986.187-2.12.562-4.178.873-4.989.313-.81 1.186-1.87 3.682-4.49 2.495-2.618 3.369-3.678 3.992-4.926.624-1.247.811-1.87.874-3.117.062-1.185-.063-2.37-.375-4.116-.25-1.247-.81-3.617-.936-3.741-.062-.062-.249.124-.436.374-.561.748-2.37 2.37-2.496 2.245 0 0 0-.187.063-.437.561-2.12-.063-4.676-1.747-7.233-.936-1.372-1.934-2.62-3.743-4.552-2.995-3.118-3.557-3.991-3.681-5.425 0-.5 0-.873.124-1.185.188-.5.562-1.247.687-1.247.062 0 .437.436.81.998.438.56.999 1.371 1.373 1.745 7.362 9.23 10.793 14.342 12.728 19.144.56 1.372 1.06 2.993 1.185 3.991.187 1.247.062 3.679-.25 4.926-.437 1.621-1.123 3.118-1.996 4.24-.5.687-1.56 1.684-2.121 2.058a8.92 8.92 0 0 1-6.302 1.31c-.499-.063-.935-.187-.998-.187-.187 0-.374.499-.561 1.87-.25 1.372-.25 1.31.686 1.56 2.683.81 5.678.623 7.923-.5 3.307-1.683 5.24-5.05 5.678-9.852.187-2.245 0-4.365-.687-6.984-.499-2.37-1.123-3.99-2.682-7.046"/><path d="M42.061 70.252c0 .311-.062.374-.311.499-.25.124-.312.124-.5 0-.249-.188-.561-.686-.873-1.434-.25-.624-.437-.811-.562-.687-.062.063-.062.312.188.81.561 1.56 1.06 2.308 1.747 2.682.499.25.623.25.936-.062.311-.312.311-.436.124-1.123-.312-.997-.686-1.371-.749-.685M19.04 56.845c.562-1.123 1.435-1.808 2.246-1.808.188 0 .374.062.5.124.311.187.81.935.81 1.248 0 .124-.124.436-.249.748-.187.374-.374.56-.748.748a2.525 2.525 0 0 1-2.122 0c-.686-.312-.749-.374-.436-1.06zm11.293 3.242c.062-.935.187-1.808.25-1.933.061-.186.686-.81 1.933-1.933 1.934-1.745 2.308-2.244 2.308-2.993 0-.436-.374-3.118-.436-3.242-.063-.063-.25.187-.5.499-.374.561-1.622 1.745-3.244 3.117-1.06.935-1.247 1.435-1.621 3.991-.625 4.427-1.436 6.797-2.745 8.107-1.249 1.247-3.245 1.559-4.804.748-1.622-.81-2.808-3.243-2.933-5.987l-.062-1.06.749.686c.998.936 1.746 1.31 2.62 1.31.81 0 1.06-.062 1.498-.437.623-.56.872-1.372.872-2.68 0-2.558-1.372-5.613-2.87-6.424-.623-.311-1.434-.311-1.996.063-.561.374-1.122 1.122-1.372 1.933-.125.311-.25.624-.312.685-.187.063-.312-1.06-.312-2.431 0-.998.063-1.559.187-2.307.562-2.681 1.622-4.553 3.681-6.61 1.435-1.372 2.87-2.494 6.114-4.677 2.495-1.684 3.618-2.557 4.18-3.492.25-.436.312-.436.312-.249.062.623-.686 2.556-2.433 6.173-1.435 2.993-1.872 3.99-2.62 5.986-.937 2.495-1.498 4.74-1.81 7.171-.187 1.559-.312 4.74-.187 6.735.125 1.808.5 4.614.686 4.801.063.063.188 0 .437-.25l.312-.311-.187-1.06c-.624-3.804-.374-7.92.686-12.097.749-2.93 1.684-5.3 3.93-9.915 1.935-4.053 2.31-5.425 2.184-8.668-.062-2.68-.437-4.302-1.185-5.05-.374-.437-.811-.686-1.373-.686-1.31 0-2.059.872-2.059 1.87 0 .998.874 1.871 1.872 1.871.5 0 .873-.187 1.248-.437l.25-.186-.063.685c-.063.874-.374 1.497-1.185 2.37-.874.936-1.685 1.559-4.493 3.18-3.743 2.245-5.052 3.18-6.425 4.49-1.747 1.684-2.932 3.741-3.494 5.861-.749 2.931-.5 5.737.749 8.917.374.936.374.998.436 2.557.125 4.178 1.186 7.047 3.37 9.166 1.122 1.123 2.12 1.622 3.43 1.747.312.062.812.062 1.061.062 3.307-.062 4.68-2.682 5.366-9.666z"/><path d="M32.579 57.843c-.188-.312-.437-.562-.5-.562-.062 0-.312.188-.499.437l-.436.436.374.749c.873 1.746 2.059 3.43 3.244 4.551.375.375.687.624.75.624l.248-1.122c.125-.561.25-1.185.312-1.31.063-.187 0-.311-.56-.748-.874-.748-2.435-2.431-2.933-3.055M24.718 43.5c0-.623-1.934 1.06-2.558 2.245a3.6 3.6 0 0 0-.437 1.31c-.124.81 0 1.247.312 1.621.624.624 1.497.125 1.872-1.122.187-.561.187-.873 0-.935-.125-.063-.437.311-.437.56 0 .5-.624.624-.936.188-.499-.624-.062-1.56 1.248-2.931.561-.436.936-.873.936-.935m14.972-1.497c-.124-.686-.186-.686-.436-.311-.125.186-1.06 1.184-1.997 2.244-2.308 2.494-2.37 2.62-2.183 3.492.063.187.125.374.187.374.063 0 .188-.187.374-.436.188-.25 1.124-1.31 2.06-2.37.935-1.06 1.809-2.058 1.87-2.245.188-.311.188-.499.126-.748m-11.916-7.295c1.06 0 1.872-.874 1.872-1.871 0-1.06-.874-1.871-1.872-1.871a1.877 1.877 0 0 0-1.872 1.871c0 .997.811 1.87 1.872 1.87m7.985 20.266l2.433 1.185 1.373-2.806-2.433-1.185-1.373 2.806m9.359 2.307l-1.373 2.806 2.433 1.185 1.373-2.805-2.433-1.186m-12.54 6.361l-1.997 2.494 2.059 1.684 2.058-2.432-2.12-1.746m-2.496 6.734l2.122 1.684 1.996-2.432-2.121-1.684-1.997 2.432m34.626-13.593l1.684-5.238 1.685 5.238h-3.37zm-.75-10.414v.062l-6.176 17.585h4.555l1.06-3.18h5.927l.873 3.18h4.804l-6.051-17.647H63.96zm42.674 10.414l1.684-5.238 1.685 5.238h-3.37zm-.749-10.352l-6.176 17.585h4.554l1.06-3.18h5.928l.873 3.18h4.804l-6.052-17.585h-4.99zm84.411 10.352l1.685-5.238 1.684 5.238h-3.369zm4.243-10.352h-4.991l-6.177 17.585h4.555l1.06-3.18h5.927l.873 3.18h4.804l-6.051-17.585zM88.104 60.275h-5.615V46.43h-4.367v17.585h9.982v-3.741m52.842-3.117h5.865v-3.555h-5.865v-3.43h6.988v-3.74h-11.292V64.14h11.853v-3.617h-7.549v-3.367m15.722.001h5.927v-3.555h-5.865v-3.43h6.926v-3.74h-11.293V64.14h11.854v-3.617h-7.549v-3.367M132.4 50.921v-4.49h-12.104v3.742h6.239l-6.489 9.478v4.49h12.478v-3.866h-6.55l6.425-9.354M96.9 46.369h-4.49l.062 17.584c0 1.373-1.06 2.62-2.184 2.62-.81 0-1.435-.437-1.435-.437l-.998 3.68s4.742 2.431 7.424-.438c1.934-2.12 1.622-4.863 1.622-4.863V46.369m77.797 7.296h-2.183v-3.492h2.12c.812 0 1.623.81 1.623 1.746.062.935-.749 1.746-1.56 1.746zm3.37 1.933c.685-.5 1.496-1.122 1.496-1.122s1.248-.749 1.248-3.18c0-2.433-1.56-4.865-4.304-4.865h-8.36v17.585h4.43v-6.547c1.06 0 1.746-.125 2.245.436.561.623 2.682 6.11 2.682 6.11h4.555l-2.745-6.983c-.063 0-.624-1.434-1.248-1.434z"/></g><g fill="#676D76"><path d="M272.939 254.037a3.119 3.119 0 0 0-2.205-2.961.715.715 0 0 0 .189-.504.861.861 0 0 0-.882-.882.862.862 0 0 0-.882.882c0 .189.063.315.126.44-1.386.253-2.457 1.513-2.457 3.025 0 .567.126 1.07.377 1.512-.125.189-.188.441-.188.756a1.56 1.56 0 0 0 1.575 1.575c.567 0 1.007-.315 1.323-.693 1.638-.063 3.024-1.45 3.024-3.15m110.757-34.525v-4.41h2.017c.756 0 1.134.063 1.449.189.755.315 1.134 1.008 1.134 1.89 0 1.386-.82 2.268-2.206 2.268h-2.394v.063zm5.04 5.922c.127.252.38.378.694.378h.693c.44 0 .63-.252.378-.693l-2.205-4.095a2.345 2.345 0 0 0-.379-.567v-.063c1.324-.441 2.206-1.827 2.206-3.34 0-1.575-.756-2.708-1.953-3.212-.504-.253-1.071-.316-2.268-.316h-3.276c-.378 0-.567.19-.567.568v11.088c0 .378.189.567.567.567h.567c.377 0 .566-.189.566-.567v-4.284h2.647l2.33 4.536zm-15.309.441h6.238c.377 0 .567-.189.567-.567v-.315c0-.378-.19-.567-.567-.567h-5.167v-3.906h3.843c.378 0 .567-.19.567-.567v-.378c0-.378-.189-.567-.567-.567h-3.843v-3.843h4.851c.379 0 .567-.19.567-.567v-.379c0-.377-.188-.567-.567-.567h-5.985c-.377 0-.567.19-.567.567v11.089c0 .378.19.567.63.567m33.391 4.662h-.567c-.378 0-.567.19-.567.567v4.788h-6.363v-4.788c0-.378-.19-.567-.567-.567h-.567c-.378 0-.567.19-.567.567v11.088c0 .379.19.567.567.567h.567c.378 0 .567-.188.567-.567v-4.788h6.363v4.788c0 .379.189.567.567.567h.567c.378 0 .567-.188.567-.567v-11.088c-.063-.378-.252-.567-.567-.567m-65.774-13.482c.19-.63.504-1.702.504-1.702h.063s.252 1.135.442 1.702l1.322 3.906h-3.717l1.386-3.906zm-4.095 8.82h.567c.315 0 .567-.126.63-.441l1.071-3.024h4.6l1.07 3.024c.126.315.315.441.63.441h.63c.441 0 .63-.252.441-.63l-3.969-11.151c-.126-.315-.315-.442-.63-.442h-.882c-.315 0-.504.127-.63.442l-4.032 11.088c-.126.441.063.693.504.693zm58.341 14.365c-.253-.315-.505-.315-.82-.064-.567.442-1.7 1.197-3.34 1.197-2.834 0-4.535-2.268-4.535-4.85 0-2.584 1.7-4.663 4.536-4.663 1.449 0 2.52.63 3.087.945.315.19.567.19.819-.125l.252-.316c.189-.314.189-.567-.126-.819-.63-.44-1.953-1.26-4.032-1.26-3.654 0-6.238 2.71-6.238 6.237 0 3.592 2.457 6.427 6.238 6.427 2.205 0 3.717-1.008 4.347-1.576.252-.251.315-.504.063-.818l-.252-.316m-28.729-2.457l1.386-3.905c.189-.63.504-1.702.504-1.702h.063s.252 1.135.441 1.702l1.323 3.905h-3.717zm2.898-6.804c-.126-.315-.315-.44-.63-.44h-.819c-.315 0-.567.125-.63.44l-4.032 11.088c-.126.379.063.693.44.693h.568c.315 0 .567-.188.63-.44l1.071-3.024h4.662l1.072 3.024c.125.314.314.44.629.44h.568c.44 0 .63-.251.44-.693l-3.97-11.088zm-7.938 10.27h-5.104v-3.907h3.844c.378 0 .567-.189.567-.567v-.315c0-.378-.189-.567-.567-.567h-3.844v-3.842h4.852c.378 0 .567-.19.567-.568v-.378c0-.378-.19-.567-.567-.567h-5.985c-.378 0-.567.19-.567.567v11.088c0 .379.189.567.567.567h6.237c.378 0 .567-.188.567-.567v-.377c0-.379-.19-.567-.567-.567m17.766-4.851h-2.457v-4.41h2.08c.756 0 1.133.063 1.449.188.755.315 1.134 1.008 1.134 1.89 0 1.45-.883 2.332-2.206 2.332zm2.08 1.574a2.403 2.403 0 0 0-.378-.567c1.323-.44 2.205-1.827 2.205-3.339 0-1.575-.757-2.709-1.954-3.213-.44-.252-1.07-.315-2.268-.315h-3.276c-.378 0-.567.19-.567.567v11.088c0 .379.19.567.567.567h.567c.379 0 .567-.188.567-.567v-4.284h2.646l2.394 4.474c.127.251.379.377.693.377h.694c.44 0 .63-.251.377-.693l-2.268-4.095zm-51.851-1.574h-2.457v-4.41h2.015c.757 0 1.135.063 1.45.188.756.378 1.134 1.072 1.134 1.953 0 1.386-.819 2.269-2.142 2.269zm3.906-2.332c0-1.575-.756-2.709-1.953-3.213-.504-.252-1.071-.315-2.268-.315h-3.276c-.378 0-.568.19-.568.567v11.088c0 .379.19.567.568.567h.567c.378 0 .567-.188.567-.567v-4.284h2.646l2.394 4.474c.126.251.315.377.693.377h.693c.441 0 .63-.251.378-.693l-2.268-4.095c-.189-.377-.378-.503-.378-.503v-.064c1.386-.44 2.205-1.827 2.205-3.339zm13.23-.441c0-1.07.946-1.7 2.206-1.7 1.07 0 1.764.44 2.268.692.314.19.567.19.756-.189l.251-.44c.127-.316.127-.568-.188-.757-.442-.378-1.639-.945-3.087-.945-2.206 0-3.97 1.323-3.97 3.402 0 3.844 5.922 3.214 5.922 5.922 0 1.072-.818 1.764-2.141 1.764-1.324 0-2.206-.692-2.647-1.008-.314-.189-.567-.189-.756.127l-.378.377c-.252.316-.126.567.063.82.567.44 1.89 1.26 3.654 1.26 2.458 0 3.907-1.576 3.907-3.465 0-3.97-5.86-3.213-5.86-5.86m-4.788 19.406l3.339-5.293c.19-.315.063-.504-.315-.504h-.44c-.253 0-.379.063-.505.315l-3.087 4.977h-2.079v-4.851c0-.252-.126-.441-.44-.441h-.379c-.252 0-.44.126-.44.44v11.341c0 .252.125.441.44.441h.378a.43.43 0 0 0 .441-.44v-5.419h2.079l3.34 5.544c.125.19.252.315.503.315h.504c.315 0 .441-.252.252-.504l-3.59-5.922m-6.868-29.674c-.252-.315-.504-.315-.82-.063-.566.441-1.7 1.197-3.338 1.197-2.835 0-4.536-2.205-4.536-4.85 0-2.584 1.7-4.663 4.536-4.663 1.449 0 2.52.63 3.087.945.315.189.567.189.819-.126l.252-.316c.19-.314.19-.566-.126-.818-.63-.442-1.953-1.26-4.032-1.26-3.654 0-6.237 2.709-6.237 6.237 0 3.591 2.457 6.426 6.237 6.426 2.205 0 3.717-1.008 4.347-1.575.252-.252.315-.504.063-.82l-.252-.314m8.316 18.837v-.377c0-.379-.189-.567-.567-.567h-5.103v-3.907h3.843c.378 0 .568-.189.568-.567v-.315c0-.378-.19-.567-.568-.567h-3.843v-3.842h4.851c.378 0 .567-.19.567-.568v-.378c0-.378-.189-.567-.567-.567h-5.985c-.378 0-.567.19-.567.567v11.088c0 .379.189.567.567.567h6.237c.378 0 .567-.188.567-.567m-9.072 5.041h-.315c-.252 0-.441.126-.441.44v7.435c0 2.142-1.386 3.402-3.465 3.402-2.08 0-3.465-1.26-3.465-3.34v-7.496a.43.43 0 0 0-.441-.441h-.378c-.253 0-.441.126-.441.44v7.498c0 2.71 1.89 4.473 4.662 4.473 2.772 0 4.662-1.764 4.662-4.473v-7.497c0-.315-.126-.441-.378-.441m14.617-21.358h.567c.377 0 .567-.189.567-.567v-7.371c0-.694-.126-1.764-.126-1.764h.063s.567 1.134 1.007 1.764l5.23 7.56c.126.252.378.378.693.378h.63c.378 0 .567-.189.567-.567v-11.089c0-.377-.19-.567-.567-.567h-.567c-.378 0-.568.19-.568.567v7.372c0 .693.127 1.764.127 1.764h-.064s-.566-1.134-1.007-1.764l-5.23-7.56c-.188-.252-.378-.379-.692-.379h-.63c-.379 0-.568.19-.568.567v11.089c0 .378.19.567.568.567m17.513.189c2.206 0 3.718-1.008 4.348-1.575.252-.252.315-.504.063-.82l-.252-.377c-.252-.315-.504-.315-.819-.063-.567.44-1.7 1.197-3.34 1.197-2.834 0-4.535-2.205-4.535-4.851 0-2.583 1.701-4.662 4.536-4.662 1.45 0 2.52.63 3.087.945.315.188.567.188.82-.126l.251-.316c.189-.314.189-.567-.126-.818-.63-.442-1.953-1.26-4.032-1.26-3.654 0-6.237 2.708-6.237 6.237 0 3.654 2.457 6.489 6.237 6.489m-82.029-14.994c1.386 0 2.52-1.135 2.52-2.458a2.528 2.528 0 0 0-2.52-2.52c-1.386 0-2.457 1.135-2.457 2.52a2.46 2.46 0 0 0 2.457 2.457m-20.475 5.986c0 .818.63 1.449 1.448 1.449.82 0 1.45-.63 1.45-1.45 0-.818-.63-1.448-1.45-1.448-.818 0-1.448.693-1.448 1.449m-9.892-4.347a.861.861 0 0 0 .882-.883.86.86 0 0 0-.882-.881.861.861 0 0 0-.882.881c0 .504.441.883.882.883m15.373-3.654a.862.862 0 0 0 .882-.883.861.861 0 0 0-.882-.881.861.861 0 0 0-.882.881c0 .504.441.883.882.883m-3.34 14.112a1.56 1.56 0 0 0-1.574-1.575 1.56 1.56 0 0 0-1.576 1.575 1.56 1.56 0 0 0 1.576 1.575c.881-.063 1.574-.756 1.574-1.575m-9.891-3.213c.82 0 1.512-.693 1.512-1.512 0-.82-.693-1.512-1.512-1.512-.818 0-1.512.693-1.512 1.512 0 .819.63 1.512 1.512 1.512m14.302-3.591c.189 0 .315 0 .504-.063.063 0 .063-.063.126-.063-.063 0-.063.063-.126.063.378-.063.756-.253 1.071-.504-.315.251-.63.44-1.071.504-.567.44-.882 1.197-.882 1.953 0 1.386 1.134 2.583 2.583 2.583a2.555 2.555 0 0 0 2.583-2.583c0-1.386-1.134-2.583-2.583-2.583-.19 0-.378 0-.567.063.504-.441.756-1.008.756-1.701 0-.756-.315-1.386-.882-1.827-.126-.063-.252-.126-.315-.19a2.173 2.173 0 0 0-1.134-.315 2.326 2.326 0 0 0-2.331 2.332c0 1.322.945 2.33 2.268 2.33"/><path d="M262.67 216.676a1.99 1.99 0 0 0 2.015-2.015 1.99 1.99 0 0 0-2.015-2.016 1.99 1.99 0 0 0-2.016 2.016 1.99 1.99 0 0 0 2.016 2.015m-6.174 8.128c0 .945.755 1.7 1.7 1.7s1.701-.755 1.701-1.7-.756-1.701-1.7-1.701c-.946-.063-1.701.756-1.701 1.7m-3.529 5.987a1.56 1.56 0 0 0-1.575 1.574 1.56 1.56 0 0 0 1.575 1.575c.882 0 1.575-.692 1.575-1.512 0-.945-.756-1.638-1.575-1.638m-4.662-3.339c.63 0 1.134-.504 1.197-1.134 0-.63-.504-1.197-1.134-1.197-.63 0-1.197.504-1.197 1.134 0 .63.504 1.197 1.134 1.197m.567 19.72c-.63 0-1.197.504-1.197 1.134 0 .63.504 1.197 1.134 1.197a1.13 1.13 0 0 0 1.134-1.134c.063-.693-.44-1.197-1.07-1.197m14.49-3.844c.882 0 1.575-.693 1.575-1.511a1.56 1.56 0 0 0-1.575-1.576 1.56 1.56 0 0 0-1.576 1.576c0 .756.694 1.511 1.576 1.511m1.952-7.622c.883 0 1.576-.694 1.576-1.513a1.56 1.56 0 0 0-1.576-1.575c-.881 0-1.574.694-1.574 1.512.063.82.756 1.576 1.574 1.576m.63-13.735c0 1.197.946 2.142 2.143 2.142a2.124 2.124 0 0 0 2.142-2.142 2.125 2.125 0 0 0-2.142-2.142 2.125 2.125 0 0 0-2.143 2.142m7.435 15.876c-.063-.126-.063-.188-.126-.251 0 .063.063.125.126.251zm1.89 7.057c.882 0 1.638-.693 1.638-1.638 0-.693-.441-1.26-1.008-1.512.189-.379.315-.757.315-1.26 0-1.008-.567-1.827-1.386-2.268.567-.19 1.008-.756 1.008-1.386 0-.504-.189-.883-.567-1.197a2.13 2.13 0 0 0 .315-1.072c0-1.07-.882-1.953-1.953-1.953-.82 0-1.45.441-1.764 1.134-.063-1.197-1.07-2.142-2.269-2.205-1.259 0-2.267 1.008-2.33 2.268 0 1.26 1.008 2.331 2.268 2.331.945 0 1.827-.567 2.142-1.449a1.917 1.917 0 0 0 1.26 1.639c-.063.125-.063.251-.063.377 0 .19 0 .315.063.441 0 .063.063.126.063.19.063.126 0 .062 0-.064-.19-.126-.44-.252-.693-.252-.567 0-1.008.378-1.134.82 0-.82-.693-1.512-1.576-1.512-.881 0-1.574.692-1.574 1.511a1.56 1.56 0 0 0 1.574 1.576c.694 0 1.324-.505 1.513-1.134 0 .314.126.63.378.818l.063.063-.063-.063c-.882 0-1.638.567-2.016 1.26-.252-.693-1.008-1.26-1.827-1.26a1.963 1.963 0 0 0-1.953 1.954c0 1.07.881 1.953 1.953 1.953.693 0 1.322-.379 1.7-.946.316.946 1.135 1.639 2.206 1.639.63 0 1.26-.252 1.638-.693.189.063.315.063.504.063v.189c-.063.945.693 1.638 1.575 1.638zm21.925-36.164c-.063 0-.19-.063-.253-.063 0-.063 0-.125.064-.188a.875.875 0 0 0 .189.251zm7.182 3.087c0-.063.063-.126.063-.189 0 .063-.063.126-.063.19-.063.126-.063.315-.063.44 0 .379.126.756.378 1.009h-.19c-.314 0-.692.063-.944.189.063-.126.063-.252.063-.378 0-.19-.063-.315-.063-.504.315-.063.63-.378.819-.757zm-.819 7.183c-.315-1.008-1.197-1.827-2.268-1.953.126-.252.252-.567.252-.945 0-.694-.315-1.26-.882-1.575.252-.126.441-.253.63-.504.252.251.567.44.945.44h.252a2.417 2.417 0 0 0-.315 1.198c0 1.26 1.008 2.33 2.33 2.33h.064c-.504.127-.882.568-1.008 1.01zm4.473-.063h.441-.441zm-4.095 1.575c-.378.378-.567.882-.63 1.449-.126-.063-.252-.063-.441-.063h-.126c.504-.44.82-1.07.882-1.827.126.126.189.315.315.44zm2.646-.756c0-.126.063-.252.063-.378 0-.82-.63-1.513-1.449-1.575.378-.126.693-.315.945-.568.189.694.756 1.26 1.449 1.513.063.063.19.063.315.063-.126 0-.189-.063-.315-.063-.126.252-.19.567-.19.882 0 .126 0 .315.064.44-.315-.125-.63-.251-.882-.314zm-12.348-9.829c-.252.442-.442.946-.442 1.513 0 .944.505 1.764 1.198 2.268-.126.189-.19.44-.19.693 0 .252.064.44.19.693-.063.126-.126.251-.126.44 0 .504.378.883.881.883.379 0 .757-.252.82-.63.567-.19 1.008-.693 1.008-1.323 0-.126 0-.316-.064-.441.568-.19 1.072-.63 1.387-1.135-.063.126-.063.253-.063.379 0 .377.189.756.441.944-.882.19-1.575.946-1.575 1.89 0 .757.44 1.45 1.134 1.764-.504.505-.756 1.197-.756 1.954 0 .63.189 1.197.567 1.701-.693.126-1.197.756-1.197 1.512a1.56 1.56 0 0 0 1.575 1.575c.189 0 .378-.063.567-.126.252.378.756.693 1.26.693.189 0 .44-.063.63-.126v.19a1.56 1.56 0 0 0 1.575 1.574 1.56 1.56 0 0 0 1.575-1.575c0-.378-.126-.693-.315-.945 0-.063.063-.063.063-.126.441.378 1.008.567 1.638.567a2.555 2.555 0 0 0 2.583-2.583c0-.315-.063-.567-.126-.819.252.19.63.252.945.252a1.91 1.91 0 0 0 1.827-1.323c1.26-.126 2.269-1.198 2.269-2.457a2.46 2.46 0 0 0-2.458-2.458c-.189 0-.378 0-.567.063a2.174 2.174 0 0 0-.756-.755 2.24 2.24 0 0 0 .126-.63c0-1.072-.882-1.89-1.89-1.89h-.252c-.126-.756-.756-1.323-1.512-1.323-.567 0-1.134.314-1.386.818.063-.188.126-.378.126-.63 0-1.07-.819-1.89-1.89-1.89s-1.89.82-1.89 1.89c0 .505.189 1.009.504 1.323l-.126.126a1.316 1.316 0 0 0-1.008-.503c-.441 0-.82.189-1.071.503.063-.189.126-.44.189-.63h-.19.19c.693-.126 1.197-.693 1.197-1.386 0-.755-.63-1.385-1.386-1.385-.315 0-.567.063-.819.251-.126-.125-.315-.188-.441-.314h.063c.63 0 1.071-.504 1.071-1.072 0-.63-.504-1.07-1.071-1.07-.441 0-.882.315-1.008.692-.252-.693-.946-1.197-1.764-1.197-1.072 0-1.89.883-1.89 1.89-.379.757 0 1.387.63 1.701zm-6.49.442c-.251.315-.44.692-.44 1.134 0 .881.63 1.575 1.511 1.638a1.192 1.192 0 0 0-.567 1.007 1.196 1.196 0 1 0 2.395 0c0-.567-.442-1.07-1.009-1.197.504-.251.883-.818.883-1.448 1.386-.253 2.394-1.386 2.394-2.836a2.89 2.89 0 0 0-2.898-2.898 2.89 2.89 0 0 0-2.899 2.898c.063.63.252 1.197.63 1.702"/><path d="M292.532 211.889c-.944 0-1.7.756-1.7 1.7 0 .946.756 1.702 1.7 1.702.946 0 1.702-.756 1.702-1.702 0-.944-.756-1.7-1.702-1.7m-14.238-1.575c.945 0 1.701-.756 1.701-1.702 0-.945-.756-1.7-1.701-1.7-.945 0-1.701.755-1.701 1.7 0 .946.756 1.702 1.7 1.702m-6.488 1.952c.19.063.315.126.504.126.693 0 1.26-.567 1.26-1.26 0-.693-.567-1.26-1.26-1.26-.693 0-1.26.567-1.26 1.26 0 .379.189.693.441.946.126 0 .252.063.315.188m-10.018 20.917c1.134 0 2.08-.945 2.08-2.079a2.1 2.1 0 0 0-2.08-2.08 2.098 2.098 0 0 0-2.078 2.08c0 1.134.945 2.08 2.078 2.08m40.826 23.814c0 .567.252 1.134.63 1.45h-.126c-.504 0-.945.314-1.197.755-.126-.378-.315-.756-.63-1.071.315-.315.567-.819.567-1.323 0-.315-.063-.63-.252-.945 1.323-.19 2.33-1.386 2.33-2.772.19.063.379.063.63.063h.064c-.063.126-.063.315-.063.441a1.56 1.56 0 0 0 1.575 1.575 1.56 1.56 0 0 0 1.575-1.575c0-.63-.378-1.134-.882-1.386.126-.126.252-.315.378-.504.126.504.567.945 1.071 1.07-.378.505-.567 1.072-.567 1.765 0 .315.063.63.19.945-.568 0-1.072.189-1.45.504a1.938 1.938 0 0 0-1.764-1.134c-1.197.189-2.08 1.071-2.08 2.142zm-.693 3.465c0-.063 0-.063.063-.126 0 0 0 .063.063.063-.126 0-.126.063-.126.063zm-4.158-1.764v-.315c0-.945-.441-1.827-1.071-2.394h.251a1.56 1.56 0 0 0 1.576-1.575 1.56 1.56 0 0 0-1.576-1.575c-.125 0-.251 0-.377.063.063-.126.063-.315.063-.44 0-.127 0-.253-.063-.38a.81.81 0 0 0 .63-.63c.126.127.314.19.504.253.126 0 .189.063.315.063.504 0 1.008-.315 1.134-.82v-.125c.063.063.19.126.315.189-.63.504-1.008 1.323-1.008 2.142 0 .756.315 1.449.756 1.953-.693.315-1.134.945-1.134 1.764 0 .441.126.819.378 1.134-.316.189-.567.441-.693.693zm-3.277-3.528h-.125c.125-.252.125-.504.125-.756v-.441c.19.063.379.126.567.126.127 0 .316 0 .442-.063-.063.126-.063.315-.063.44 0 .316.126.63.314.946a2.999 2.999 0 0 0-1.26-.252zm-6.74 2.268c.125-.252.252-.567.252-.882 0-.252-.064-.44-.127-.693.378 0 .693-.126.945-.252.442 1.008 1.386 1.701 2.583 1.764a2.952 2.952 0 0 0-.188 1.071c0 .252 0 .441.063.63-.126 0-.19-.063-.316-.063-.503 0-.882.19-1.197.504v-.252c0-1.071-.882-1.89-1.89-1.89-.063.063-.063.063-.126.063zm24.696-4.977h-.252.252c-.504-.441-1.134-.693-1.89-.693h-.378c.063-.126.063-.252.063-.378a1.56 1.56 0 0 0-1.575-1.575c-.378 0-.756.126-1.008.378v-.126a3.092 3.092 0 0 0-3.087-3.088c-.19 0-.378 0-.567.064.063-.126.063-.252.063-.378a1.56 1.56 0 0 0-1.575-1.576 1.56 1.56 0 0 0-1.575 1.576c0 .756.504 1.323 1.197 1.511-.126.127-.19.316-.315.442-.189-.442-.63-.82-1.134-.945-.189-.064-.315-.064-.504-.064-.756 0-1.512.505-1.701 1.324-.063.189-.063.441-.063.63-.063 0-.126-.063-.19-.063-.125 0-.188-.063-.314-.063-.504 0-1.009.315-1.134.819 0 .063-.063.189-.063.252a1.188 1.188 0 0 0-.504-.126c-.378 0-.693.252-.82.63-.125-.063-.315-.063-.44-.063-.756 0-1.386.567-1.512 1.26-.504-.44-1.197-.756-1.954-.756-.944 0-1.764.44-2.33 1.134-.315-.315-.82-.567-1.324-.567-.251 0-.504.063-.756.126-.44-.504-1.07-.882-1.764-.882-.567 0-1.07.189-1.448.504l-.19-.19c-.126-.755-.756-1.385-1.512-1.385-.252 0-.44.063-.63.126-.063-.945-.819-1.638-1.7-1.638-.253 0-.505.063-.694.125.126-.314.252-.692.252-1.133a2.689 2.689 0 0 0-2.709-2.71c-1.45 0-2.583 1.072-2.71 2.521a1.503 1.503 0 0 0-.881-.315 1.56 1.56 0 0 0-1.575 1.575 1.56 1.56 0 0 0 1.575 1.575c.63 0 1.197-.378 1.45-.945.314.378.692.693 1.196.882a1.547 1.547 0 0 0-.315.945c0 .44.19.882.504 1.197a1.843 1.843 0 0 0-1.197 1.701 1.828 1.828 0 0 0 3.654 0c0-.567-.252-1.07-.693-1.45.441-.188.756-.63.882-1.07.315.378.756.567 1.26.567.315 0 .567-.063.82-.19 0 .127.062.19.062.316a1.745 1.745 0 0 0-.189.82c0 .377.126.755.315 1.07-1.134 0-2.016.756-2.394 1.764-.126-.063-.315-.063-.44-.063-.568 0-1.135.315-1.387.82-.126 0-.252 0-.378.062-1.323.252-2.268 1.575-2.016 2.898.252 1.197 1.26 2.016 2.457 2.016.126 0 .315 0 .44-.063 1.324-.252 2.27-1.575 2.017-2.898v-.063a2.52 2.52 0 0 0 1.638.63c-.126.189-.189.441-.189.756a1.56 1.56 0 0 0 1.575 1.575 1.56 1.56 0 0 0 1.575-1.575c0-.693-.441-1.26-1.071-1.449a2.678 2.678 0 0 0 .756-1.827c0-.63-.252-1.26-.63-1.701l.567-.189c-.063-.063-.063-.126-.063-.189 0 .063.063.126.063.19.315.566.882.944 1.512 1.07-.063.19-.126.44-.126.63 0 .882.693 1.575 1.576 1.638a1.759 1.759 0 0 0-.379 1.134v.126c-.126 0-.251-.063-.378-.063-.882 0-1.638.756-1.638 1.638 0 .126 0 .252.063.378-1.134.252-1.952 1.26-1.952 2.394a2.46 2.46 0 0 0 2.457 2.457c1.385 0 2.52-1.134 2.52-2.457a2.56 2.56 0 0 0-.505-1.512c.379-.315.63-.756.693-1.26.19.063.441.126.63.126.567 0 1.071-.252 1.45-.63v.126c0 .19.063.378.126.567a2.519 2.519 0 0 0-.63 1.638c0 .127 0 .315.063.441h-.19c-.693 0-1.196.504-1.196 1.197 0 .63.503 1.197 1.197 1.197.503 0 .944-.314 1.133-.818.441.314.945.504 1.45.504a2.528 2.528 0 0 0 2.52-2.52 2.42 2.42 0 0 0-.568-1.576c.379.19.883.252 1.323.252h.379c.126.63.693 1.071 1.385 1.071.757 0 1.387-.63 1.387-1.386 0-.378-.189-.756-.441-1.008.126-.19.252-.378.314-.567v.063c0 .756.379 1.386.883 1.827a1.281 1.281 0 0 0-.378.945c0 .756.63 1.386 1.386 1.386.756 0 1.386-.63 1.386-1.386 0-.252-.063-.504-.19-.692.19-.064.379-.19.505-.316-.063.126-.063.316-.063.441 0 .505.189.945.504 1.26-.44 0-.82.378-.82.882s.38.882.883.882a.86.86 0 0 0 .882-.882c0-.126 0-.252-.063-.315.189.063.378.063.504.063.882 0 1.638-.63 1.827-1.449.126 0 .252.064.315.064.756 0 1.386-.63 1.386-1.324 0-.756-.63-1.323-1.386-1.323-.315 0-.567.126-.819.252v-.252c0-.315-.126-.63-.315-.819.19.063.315.063.504.063.315 0 .567-.063.819-.19.252 1.198 1.323 2.017 2.583 2.017a2.662 2.662 0 0 0 2.646-2.646c0-.252-.063-.504-.126-.693h.063c1.512 0 2.71-1.134 2.835-2.646.19-.252.316-.567.316-.945.188-.693-.379-1.323-1.135-1.449zm-56.198 3.718a1.56 1.56 0 0 0-1.574 1.574 1.56 1.56 0 0 0 1.574 1.575 1.56 1.56 0 0 0 1.576-1.575 1.56 1.56 0 0 0-1.576-1.575m2.457-8.001c-.882 0-1.574.693-1.574 1.575s.692 1.575 1.574 1.575a1.56 1.56 0 0 0 1.576-1.575 1.56 1.56 0 0 0-1.576-1.575m14.428 13.86a1.56 1.56 0 0 0-1.575 1.576 1.56 1.56 0 0 0 1.575 1.574 1.56 1.56 0 0 0 1.575-1.574c-.063-.883-.756-1.576-1.575-1.576"/><path d="M271.868 245.532c0 .63.504 1.07 1.07 1.07.63 0 1.072-.503 1.072-1.07 0-.63-.504-1.072-1.071-1.072s-1.071.442-1.071 1.072m-9.198 12.474a1.13 1.13 0 0 0-1.135 1.134c0 .63.505 1.134 1.135 1.134a1.13 1.13 0 0 0 1.134-1.134 1.13 1.13 0 0 0-1.134-1.134m10.521-35.092a.861.861 0 0 0-.882-.882.86.86 0 0 0-.882.882c0 .504.378.882.882.882a.862.862 0 0 0 .882-.882m16.822 42.526a1.13 1.13 0 0 0-1.135 1.135c0 .63.505 1.133 1.135 1.133a1.13 1.13 0 0 0 1.134-1.133 1.13 1.13 0 0 0-1.134-1.134m-22.744-16.318a2.69 2.69 0 0 0 2.709-2.71 2.689 2.689 0 0 0-2.71-2.708 2.689 2.689 0 0 0-2.708 2.708 2.689 2.689 0 0 0 2.709 2.71m-10.963-5.859c0 1.07.82 1.89 1.89 1.89 1.071 0 1.89-.82 1.89-1.89 0-1.072-.819-1.89-1.89-1.89-1.07 0-1.89.818-1.89 1.89m5.229-5.04a2.088 2.088 0 0 0 2.08-2.206c0-1.197-1.008-2.079-2.142-2.079h-.063a2.088 2.088 0 0 0-2.08 2.205c0 1.134.946 2.08 2.205 2.08-.062 0-.062 0 0 0m16.759 24.444c-.882 0-1.638.756-1.638 1.638 0 .882.756 1.638 1.638 1.638.882 0 1.638-.756 1.638-1.638-.063-.882-.756-1.638-1.638-1.638m17.136.189c-1.07 0-1.89.882-1.89 1.89 0 1.071.882 1.89 1.89 1.89 1.072 0 1.89-.882 1.89-1.89s-.818-1.89-1.89-1.89m-30.303-14.05h-.063a2.21 2.21 0 0 0-2.206 2.08c0 .189 0 .378.063.504h-.188a1.963 1.963 0 0 0-1.953 1.953c0 1.07.881 1.953 1.953 1.953 1.07 0 1.952-.882 1.952-1.953v-.252h.379c1.134 0 2.141-.945 2.141-2.08.064-1.133-.881-2.141-2.078-2.205"/><path d="M283.082 219.008a3.01 3.01 0 0 0-.378 1.134 2.253 2.253 0 0 0-.63-.441 1.49 1.49 0 0 0 .882-.756c0 .063.063.063.126.063zm-6.048-2.142c-.315.252-.441.693-.441 1.134 0 .567.315 1.07.82 1.323-.38.315-.568.756-.568 1.26 0 .882.63 1.575 1.512 1.7-.189.127-.315.316-.441.568-.252-.063-.504-.126-.82-.126v-.189a1.56 1.56 0 0 0-1.574-1.575c-.882 0-1.512.693-1.575 1.575 0 .693.441 1.26 1.008 1.45l-.19.566c-.503-.189-1.007-.315-1.51-.315-1.89 0-3.53 1.323-3.907 3.15-.378-.504-.946-.82-1.576-.82-1.07 0-1.952.883-1.952 1.954s.882 1.953 1.952 1.953c.694 0 1.324-.378 1.702-.945a4.008 4.008 0 0 0 3.843 2.835c2.205 0 4.032-1.827 4.032-4.032 0-.315-.063-.693-.126-1.008 1.197-.063 2.205-1.008 2.205-2.268.819-.063 1.449-.693 1.449-1.512.126 0 .315.063.441.063 1.071 0 1.89-.82 2.016-1.827.442.441 1.008.756 1.702.756 1.26 0 2.33-1.008 2.33-2.33 0-.946-.566-1.702-1.323-2.08a2.12 2.12 0 0 0 .378-.756c.315.378.756.693 1.323.693.253 0 .442-.063.693-.126-.063.189-.063.441-.063.693v.44c-.44.19-.756.694-.756 1.198 0 .693.568 1.323 1.323 1.323.379 0 .693-.126.883-.378.44.252.944.378 1.511.378.82 0 1.639-.378 2.143-.945.063.82.756 1.45 1.574 1.45h.253v.188a.86.86 0 0 0 .882.882.861.861 0 0 0 .882-.882c0-.441-.315-.756-.693-.882.189-.252.252-.567.252-.882 0-.126 0-.252-.063-.378h.126a1.56 1.56 0 0 0 1.575-1.575 1.56 1.56 0 0 0-1.575-1.575 1.56 1.56 0 0 0-1.576 1.575c0 .126 0 .252.064.378h-.19c-.314 0-.567.063-.818.252 0-.189.063-.378.063-.504a2.958 2.958 0 0 0-2.961-2.961c-.756 0-1.386.252-1.89.693-.063-.882-.756-1.512-1.639-1.512-.567 0-1.134.315-1.386.819-.125-.253-.252-.504-.44-.693.378-.253.692-.757.692-1.26a1.56 1.56 0 0 0-1.574-1.575 1.56 1.56 0 0 0-1.576 1.575c0 .189 0 .315.063.44a2.572 2.572 0 0 0-2.141 2.52v.253c-.694.126-1.26.693-1.26 1.45 0 .566.314 1.007.755 1.259a1.95 1.95 0 0 0-.819.378c-.126-.378-.441-.693-.819-.882.252-.252.441-.693.441-1.071 0-.756-.504-1.323-1.197-1.513.567-.377.882-1.07.882-1.764a1.74 1.74 0 0 0-.189-.818c.44-.19.693-.63.693-1.135 0-.692-.567-1.197-1.197-1.197-.567 0-1.07.442-1.197 1.009h-.315c-1.197 0-2.205.944-2.205 2.141a2.343 2.343 0 0 0 2.079 2.017zm-23.626 21.924h-.189c-.567.126-.945.63-.882 1.26.126.505.568.882 1.008.882h.189c.568-.126.945-.63.82-1.26 0-.567-.442-.881-.946-.881m4.662-5.986h.19c.44-.062.756-.504.693-1.008-.063-.44-.442-.693-.82-.693h-.126c-.44.063-.756.567-.693 1.008 0 .441.315.693.756.693"/></g><path d="M219.424 188.403h218.525v93.653H219.424z"/><path d="M72.324 248.542c0-1.767-.092-1.953-.93-2.232-.185 0-.557-.093-.743-.093-.093 0-.186 0-.186-.093 0-.094.093-.186.372-.186.93 0 2.325.092 2.418.092.093 0 1.488-.092 2.138-.092.28 0 .372.092.372.186 0 .093-.093.093-.186.093-.186 0-.279.093-.557.093-.559.093-.745.465-.745 1.301-.093.652-.093 1.302-.093 2.232v2.511c0 .93 0 1.023-.279 1.209-1.395.743-3.347.93-4.556.93-1.674 0-4.742-.187-7.16-2.325-1.395-1.209-2.603-3.533-2.603-6.323 0-3.44 1.673-5.951 3.626-7.16 1.953-1.302 4.091-1.395 5.765-1.395 1.395 0 2.883.28 3.347.372.466.093 1.21.186 1.767.186.186 0 .28.093.28.186 0 .279-.187.93-.187 3.161 0 .28-.093.465-.186.465s-.186-.185-.186-.371c0-.28-.093-.93-.464-1.488-.558-.838-2.325-1.767-5.115-1.767-1.302 0-2.976.186-4.649 1.488-1.209 1.022-2.139 2.975-2.139 5.579 0 3.069 1.58 5.393 2.324 6.137 1.674 1.674 3.72 2.325 5.673 2.325.837 0 1.953-.093 2.51-.465.28-.186.372-.372.372-.744v-3.812m10.322-8.183c.186-.558.28-.651.372-.651.186-.093.186 0 .465.65.279.651 3.162 8.462 4.37 11.345.652 1.674 1.116 1.953 1.581 2.139.28.093.558.093.744.093.093 0 .186 0 .186.092 0 .094-.186.187-.372.187-.279 0-1.673 0-2.975-.093-.372 0-.558 0-.558-.094 0-.092.093-.092.186-.092.093-.093.186-.28.093-.558l-1.767-4.65c0-.092-.093-.092-.186-.092h-3.999c-.093 0-.093.092-.185.185l-1.116 3.348c-.094.465-.187.837-.187 1.209 0 .372.373.558.652.558h.186c.186 0 .186 0 .186.092 0 .094-.093.187-.28.187-.464 0-1.208-.093-1.394-.093-.28 0-1.302.093-2.14.093-.278 0-.37-.093-.37-.187 0-.092.092-.092.185-.092h.558c.837-.186 1.209-.837 1.58-1.767l4.185-11.81zm1.953 7.624c.093 0 .093-.093.093-.186l-1.767-5.114c-.093-.279-.186-.279-.279 0l-1.674 5.114c0 .093 0 .186.093.186H84.6zm10.694.744c0 1.767 0 3.255.093 4.091.093.559.186.93.743 1.024.28.093.651.093.837.093.093 0 .187.092.187.092 0 .094-.094.187-.373.187-.93 0-2.139-.093-2.232-.093-.093 0-1.3.093-1.859.093-.186 0-.28-.093-.28-.187 0 0 0-.092.187-.092.093 0 .371 0 .558-.093.372-.093.465-.465.465-1.024.093-.836.093-2.324.093-4.09v-7.998h-2.697c-1.209.093-1.58.186-1.953.652-.185.278-.185.464-.278.557-.094.186-.094.186-.187.186-.092 0-.092 0-.092-.186s.372-1.767.372-1.952c.092-.093.185-.28.185-.28.186-.092.372.187.837.187.559.093 1.302.093 1.488.093h6.974c.65 0 1.023-.093 1.302-.093.28-.093.465-.093.558-.093.093 0 .093.093.093.186 0 .557-.093 1.86-.093 2.138 0 .186 0 .186-.093.186s-.093 0-.186-.279v-.186c-.093-.557-.465-1.023-2.232-1.116h-2.417v7.997m8.555-3.347v-4.091c-.094-.652-.187-.93-.838-1.023-.093-.094-.465-.094-.65-.094 0 0-.093 0-.093-.092 0-.093.093-.186.278-.186.837 0 2.046.093 2.14.093h4.277c.279 0 .65-.093.743-.093.093 0 .187-.093.28-.093.092 0 .092.093.092.186s-.093.279-.185.836c0 .186 0 1.023-.094 1.21 0 .092 0 .278-.093.278s-.185-.093-.185-.279c0-.093 0-.464-.093-.65-.093-.373-.28-.559-1.303-.652-.371-.093-2.324-.093-2.603-.093 0 0-.093.093-.093.186v5.207c0 .187 0 .187.093.187h2.975c.466-.093.745-.093.93-.279.094-.186.186-.28.28-.28 0 0 .092.094.092.187s-.093.465-.186 1.023c0 .371-.092 1.115-.092 1.209 0 .186 0 .371-.093.371s-.186 0-.186-.185v-.559c-.093-.278-.28-.65-1.023-.65-.465-.093-2.325-.093-2.604-.093-.093 0-.186 0-.186.093v4.928c.093 1.302.372 1.488 2.139 1.488.557 0 1.302 0 1.86-.186.465-.186.65-.558.836-1.395 0-.186 0-.28.093-.28.186 0 .186.187.186.28 0 .186-.186 1.488-.279 1.86-.093.465-.279.465-1.022.465-2.79 0-4.092-.093-4.557-.093h-.743c-.373.093-.838.093-1.117.093-.185 0-.279-.093-.279-.187 0 0 0-.092.187-.092.092 0 .371 0 .557-.093.372-.093.465-.465.465-1.024.094-.836.094-2.324.094-4.09v-3.348m10.042 8.555c-.186-.093-.28-.186-.28-.744 0-.93.094-1.674.094-1.953.093-.186.093-.279.186-.279s.093 0 .093.186 0 .465.093.65c.279 1.396 1.488 1.954 2.79 1.954 1.766 0 2.603-1.302 2.603-2.51 0-1.303-.558-2.047-2.139-3.349l-.836-.743c-1.953-1.674-2.418-2.79-2.418-4.092 0-2.046 1.488-3.347 3.905-3.347.651-.093 1.209 0 1.674.186.372 0 .558.093.651.093.186 0 .186 0 .186.093v1.952c0 .372-.093.465-.186.465s-.093-.093-.186-.186c0-.279-.093-.743-.186-1.022-.093-.187-.65-.93-2.324-.93-1.302 0-2.326.743-2.326 2.138 0 1.116.559 1.767 2.326 3.161l.464.466c2.232 1.766 2.697 2.882 2.697 4.37 0 .837-.279 2.232-1.581 3.162-.744.558-1.766.836-2.79.836-.836 0-1.673-.186-2.51-.557m17.482-8.741c-.093.279-.186.744-.372 1.209-.466 1.767-.93 3.44-1.395 5.207-.465 1.395-.93 2.232-1.21 2.51-.185.186-.836.745-1.766.745-.65 0-.93-.466-.93-.744 0-.372.186-.465.28-.558.185-.186.278-.093.465.093.185.371.557.65.836.65.28 0 .65-.279 1.023-1.3.744-2.605 1.209-5.302 1.952-7.812h-1.208c-.186-.093-.093-.372.093-.558h1.302c.371-1.395.744-2.604 1.673-3.627.744-.93 1.674-1.301 2.604-1.301.651 0 1.21.372 1.21 1.022 0 .465-.373.93-.652.93-.093 0-.186-.185-.186-.278-.093-.93-.558-1.21-.93-1.21-.465 0-.837.372-1.209.837-.744 1.023-1.023 2.325-1.394 3.627h1.859c.093.186.093.372-.185.558h-1.86m8.927 1.209c-.094.836-.559 2.324-1.675 3.44-.93 1.023-1.766 1.116-2.138 1.116-1.023 0-1.581-.743-1.581-2.046.093-.93.651-2.51 1.674-3.44.836-.837 1.488-1.023 2.139-1.023 1.116 0 1.58.837 1.58 1.953zm-2.79-.745c-.93 1.21-1.488 3.07-1.58 3.813 0 .558.185 1.023.65 1.023.372 0 .743-.186 1.209-.837.65-.837 1.394-2.882 1.394-3.719.093-.465 0-1.023-.558-1.023-.278 0-.65.093-1.116.743zm6.509 3.72c-.186.372-.093.558.093.558s.837-.465 1.58-1.301c1.396-1.396 2.232-3.162 2.697-4.092.372-.093.744.093.744.279-.093.372-1.116 2.975-1.767 4.742-.093.28-.093.372.093.372.28 0 1.116-.65 1.488-1.116.093-.093.28 0 .28.186-.373.744-1.86 1.953-2.698 1.953-.186 0-.465-.279-.372-.558l1.023-2.79v-.092c-1.116 1.487-2.975 3.44-3.812 3.44-.65 0-.744-.651-.465-1.302l1.395-3.812c.092-.279.092-.372 0-.372-.279 0-1.023.65-1.395 1.023-.186 0-.279-.093-.279-.186.372-.652 1.953-1.86 2.604-1.86.186 0 .557.186.464.465l-1.673 4.463m9.485-1.581c1.115-1.673 2.603-3.347 3.812-3.347.558 0 .837.279.837.837 0 .186-.093.743-.279 1.023-.28.837-1.302 3.347-1.395 3.44-.093.186-.093.279 0 .279.279 0 1.023-.465 1.487-1.023.187 0 .187.093.187.186-.558 1.024-1.767 1.767-2.604 1.767-.093 0-.372-.186-.372-.372s.093-.279.372-1.023c.372-.744.93-2.325 1.209-3.068.186-.28.372-.838.372-1.116 0-.186 0-.372-.28-.372-.37 0-1.208.744-2.045 1.86-.837 1.022-1.488 2.231-2.324 3.905-.093.093-.186.186-.28.186-.185 0-.65-.093-.464-.372l1.767-4.929c.093-.185.093-.371-.093-.371-.28 0-.837.371-1.302.837-.186 0-.28-.094-.28-.279.652-.744 1.582-1.395 2.326-1.395.371 0 .557.279.371.65l-1.022 2.697m13.483-6.044c.372-.93.372-1.209.186-1.302l-.373-.279s0-.092.093-.185c.28-.093 1.117-.28 1.767-.28l.093.094c-.279.836-.558 1.394-1.022 2.696-1.489 4.278-2.232 6.695-2.325 7.16-.093.186-.093.372.093.372.279 0 1.208-.744 1.674-1.394.093 0 .186.092.186.185-.372.837-1.767 2.14-2.51 2.14-.373 0-.56-.28-.56-.466s.094-.465.187-.93l.558-1.487v-.094c-1.116 1.488-2.232 2.976-3.72 2.976-.558 0-.93-.465-.93-1.116 0-1.116.837-2.975 2.046-3.998 1.023-1.023 1.953-1.395 2.697-1.395.279 0 .65.093.837.465l1.023-3.162zm-2.976 3.813c-.65.558-1.766 2.045-2.232 2.976-.465 1.022-.465 1.301-.465 1.487 0 .187.186.372.28.372.278 0 1.022-.28 2.045-1.395 1.21-1.209 1.674-2.138 1.86-2.976.186-.65 0-1.115-.372-1.115s-.744.279-1.116.651zm10.88-1.488c.185-.093.65 0 .743.186-.279.65-1.58 3.999-2.046 5.486-.093.186-.093.279.093.279.28 0 .652-.186 1.581-1.023a.2.2 0 0 1 .186.186c-.65.93-1.767 1.767-2.603 1.767-.28 0-.372-.279-.372-.465 0-.093 0-.186.093-.558l.558-1.394h-.093c-1.023 1.301-2.604 2.417-3.348 2.417-.372 0-.651-.465-.651-.837 0-.372.279-1.674 1.302-3.068.744-1.024 1.395-1.581 2.046-1.953.558-.372 1.022-.465 1.395-.465.186 0 .279.093.372.093 0 0 .186.186.279.372l.464-1.023zm-2.697 1.767c-.93.837-1.953 2.882-1.953 3.998 0 .186.186.279.28.279.185 0 .65-.186 1.487-1.023 1.116-1.116 1.767-2.417 2.046-3.347-.093-.28-.373-.558-.745-.558-.371 0-.65.186-1.115.651zm8.275-.465l-1.394 4.091c0 .28 0 .372.186.372s1.208-.837 1.674-1.395c.186 0 .279.094.279.28-.93 1.3-2.325 2.231-2.976 2.231-.186 0-.372-.186-.372-.465 0-.186 0-.372.186-.837l1.395-4.277h-1.116c-.093-.186 0-.372.093-.465l1.302-.186.837-1.488c.093-.093.465-.093.558.093l-.465 1.488h1.673a.447.447 0 0 1-.186.558h-1.674m5.115.372c.093-.186.093-.372 0-.372s-.558.186-1.302.837c-.093 0-.186-.093-.186-.279.837-.93 2.046-1.488 2.51-1.488.094 0 .187.093.28.093.093.186.093.279-.093.744l-1.86 4.37c0 .186-.093.372.093.372.28 0 1.023-.558 1.58-1.209.094.093.187.186.187.28-.186.464-1.767 1.86-2.79 1.86-.093 0-.186-.094-.279-.187-.093-.093-.093-.186-.093-.372l1.953-4.649zm1.953-4.463c0 .464-.28 1.022-.837 1.022-.372 0-.465-.372-.465-.651 0-.278.186-.93.744-.93.371 0 .558.28.558.559zm7.346 5.114c0 .836-.465 2.324-1.581 3.44-.93 1.023-1.766 1.116-2.232 1.116-.93 0-1.58-.743-1.487-2.046.093-.93.65-2.51 1.673-3.44.744-.837 1.488-1.023 2.046-1.023 1.116 0 1.674.837 1.58 1.953zm-2.79-.745c-.837 1.21-1.488 3.07-1.488 3.813 0 .558.186 1.023.651 1.023.28 0 .651-.186 1.21-.837.65-.837 1.301-2.882 1.394-3.719 0-.465-.093-1.023-.651-1.023-.279 0-.65.093-1.116.743zm6.974 2.139c1.116-1.673 2.604-3.347 3.72-3.347.65 0 .93.279.93.837 0 .186-.186.743-.28 1.023-.278.837-1.394 3.347-1.394 3.44-.093.186-.093.279 0 .279.279 0 1.023-.465 1.395-1.023.279 0 .279.093.279.186-.558 1.024-1.767 1.767-2.604 1.767-.186 0-.372-.186-.372-.372s0-.279.372-1.023c.279-.744.837-2.325 1.209-3.068.093-.28.371-.838.371-1.116 0-.186-.093-.372-.278-.372-.372 0-1.302.744-2.14 1.86-.743 1.022-1.394 2.231-2.324 3.905-.093.093-.093.186-.279.186-.186 0-.558-.093-.465-.372l1.86-4.929c0-.185 0-.371-.093-.371-.372 0-.837.371-1.395.837-.093 0-.186-.094-.186-.279.558-.744 1.488-1.395 2.325-1.395.279 0 .465.279.372.65l-1.023 2.697M14.487 222.97c0-3.44 0-3.998-.093-4.742 0-.744-.187-1.116-.93-1.302h-.744c-.093 0-.093-.094-.093-.187 0-.092.093-.185.279-.185 1.022 0 2.417.093 2.51.093.465 0 1.302-.093 2.325-.093 3.534 0 4.37 2.231 4.37 3.347 0 1.767-1.022 2.883-2.045 3.999 1.58.465 3.72 2.046 3.72 4.65 0 2.324-1.767 4.742-5.487 4.742-.558 0-2.79-.093-2.883-.093h-2.138c-.28 0-.372 0-.372-.093a.2.2 0 0 1 .186-.186c.186 0 .465 0 .651-.093.464-.093.558-.559.65-1.21.094-.93.094-2.603.094-4.742v-3.905zm1.767.465c0 .185 0 .28.093.28.186 0 .557.092 1.301.092 1.21 0 1.581-.093 2.046-.558.465-.558.744-1.302.744-2.231 0-1.86-.837-3.813-2.883-3.813-.279 0-.743 0-1.115.093-.186.093-.186.093-.186.279v5.858zm0 2.325v4.835c.093 1.023.093 1.395.743 1.673.558.28 1.488.373 1.86.373 1.209 0 3.069-.651 3.069-3.162 0-1.302-.465-3.254-2.046-4.37-.744-.558-1.302-.651-1.86-.651-.279-.093-1.395-.093-1.673-.093-.093 0-.093.093-.093.186v1.209zm13.948 2.046c0 1.766 0 3.254.093 4.09 0 .465.093.93.65 1.024.28 0 .744.093.837.093.094 0 .186 0 .186.093s-.092.093-.28.093h-4.183c-.186 0-.28 0-.28-.093s.094-.093.187-.093c.186 0 .371-.093.558-.093.372-.093.465-.559.558-1.024.093-.836.093-2.324.093-4.09v-3.348c0-2.976 0-3.44-.093-4.092 0-.65-.186-.93-.558-1.022-.279-.093-.465-.093-.651-.093-.093 0-.093-.093-.093-.093 0-.186.093-.186.279-.186.558 0 1.766.093 1.86.093.092 0 1.302-.093 1.86-.093.185 0 .278 0 .278.186 0 0-.093.093-.186.093h-.465c-.464.093-.65.464-.65 1.115v7.44m7.996 0c0 2.789.093 3.998.466 4.277.279.372.743.465 2.231.465.93 0 1.767 0 2.231-.558.28-.28.466-.744.466-1.116 0-.186.093-.28.186-.28s.093.094.093.28c0 .186-.093 1.394-.28 1.953-.092.372-.186.465-1.115.465-2.697 0-3.906-.093-5.021-.093h-1.86c-.186 0-.28 0-.28-.093s.094-.093.187-.093.372-.093.557-.093c.372-.093.465-.559.465-1.024.187-.836.187-2.324.187-4.09v-3.348c0-2.976 0-3.44-.094-4.092 0-.65-.186-.93-.743-1.115h-.651c-.093 0-.186-.093-.186-.093 0-.186.093-.186.279-.186.836 0 2.046.093 2.139.093.092 0 1.488-.093 2.045-.093.186 0 .28 0 .28.186 0 0-.094.093-.187.093h-.558c-.558.093-.744.464-.744 1.115-.093.652-.093 1.116-.093 4.092v3.348m10.508 0c0 2.789.093 3.998.372 4.277.279.372.743.465 2.232.465 1.023 0 1.86 0 2.231-.558.279-.28.465-.744.558-1.116 0-.186 0-.28.093-.28s.186.094.186.28c0 .186-.186 1.394-.279 1.953-.186.372-.186.465-1.208.465-2.698 0-3.906-.093-5.022-.093h-1.767c-.279 0-.371 0-.371-.093s.092-.093.185-.093c.186 0 .372-.093.558-.093.372-.093.465-.559.558-1.024.093-.836.093-2.324.093-4.09v-3.348c0-2.976 0-3.44-.093-4.092 0-.65-.093-.93-.744-1.115h-.65c-.093 0-.093-.093-.093-.093 0-.186.093-.186.278-.186.837 0 1.953.093 2.046.093.093 0 1.488-.093 2.045-.093.186 0 .28 0 .28.186l-.094.093h-.65c-.558.093-.651.464-.744 1.115v7.44m9.02.464c0-.744.279-2.138 1.488-3.44 1.022-1.023 2.045-1.21 2.324-1.21.744 0 .837.466 1.023.652.65-.558 1.767-1.674 2.232-2.325.186-.279.557-.93.557-1.302 0-.279-.093-.372-.185-.465-.186-.186-.186-.186-.186-.372 0-.464.278-.65.65-.65.373 0 .652.186.652.836 0 .837-.465 1.86-1.953 3.255-1.302 1.302-3.906 3.347-5.58 4.464v.185c0 1.953 1.581 2.697 2.79 2.697 1.302 0 2.883-.93 3.812-2.604.652-1.116.838-1.952.838-3.254-.186-.093-.466-.28-.838-.28-.464 0-1.115.466-1.115 1.023 0 .187.093.373.093.559.093.186.186.372.186.465 0 .092-.093.464-.558.464-.279 0-.651-.279-.651-.65 0-.465.28-1.117 1.023-1.86.65-.465 1.394-.65 1.58-.65.837 0 1.302.557 2.139 1.3.372.28.372.372.651.372.186 0 .28-.186.28-.464v-.372c-.094-.186-.094-.186-.094-.28 0-.185.186-.371.465-.371.465 0 .65.465.65.837 0 .371-.185.65-.278.837-.186.093-.279.093-.465.093a19.3 19.3 0 0 1-1.21.372c-.091.185-.278.093-.37 0-.094-.186-.559-.745-1.023-1.21 0 .28-.094 1.117-.094 1.395 0 .465-.371 2.046-1.58 3.44-1.116 1.21-2.697 1.768-3.812 1.768-2.512 0-3.441-1.581-3.441-3.255zm3.626-3.069v-.371c0-.372-.185-.558-.465-.558-.279 0-.744.279-1.208.93-.558.65-.745 1.209-.93 1.952a36.834 36.834 0 0 0 2.603-1.953zm30.5 5.115c.093.744.186 1.952 1.115 2.325a5.037 5.037 0 0 0 1.396.186c.185 0 .185 0 .185.093s-.185.186-.464.186c-.465 0-2.79-.093-3.626-.093-.466-.093-.559-.186-.559-.28 0-.092 0-.092.093-.092.186-.093.186-.465.093-.837l-1.023-11.345h-.093l-5.3 11.437c-.465.93-.465 1.21-.65 1.21-.187 0-.28-.28-.745-1.023-.557-1.116-2.417-4.929-2.51-5.115a520.933 520.933 0 0 1-2.883-6.323h-.093l-.837 10.23v1.115c0 .371.186.65.558.744.372 0 .651.093.837.093 0 0 .093 0 .093.093 0 .186-.093.186-.372.186-.744 0-1.86-.093-2.045-.093-.187 0-1.21.093-1.767.093-.186 0-.372 0-.372-.186 0-.093.093-.093.186-.093.186 0 .372 0 .65-.093.744-.093.837-1.023.93-1.86l1.488-14.32c.093-.28.186-.372.279-.372.093 0 .186.093.372.279l6.602 13.855 6.416-13.855c.093-.186.093-.28.28-.28.185 0 .185.187.278.558l1.488 13.577m5.765-6.044v-3.999c0-.65-.186-1.022-.837-1.115-.093 0-.465-.093-.558-.093-.093 0-.186 0-.186-.093s.093-.187.28-.187c.837 0 2.045.094 2.138.094h4.278c.278 0 .65-.094.743-.094.093 0 .186-.093.28-.093.093 0 .093.093.093.187 0 .093-.094.372-.187.836 0 .186 0 1.023-.093 1.303 0 .092 0 .185-.093.185s-.186-.093-.186-.278c0-.094 0-.466-.093-.652-.093-.279-.279-.558-1.301-.65-.372 0-2.325-.094-2.604-.094 0 0-.093.093-.093.186v5.208c0 .185 0 .278.093.278.28 0 2.604 0 2.976-.093.465 0 .743-.092.93-.278.092-.093.185-.186.278-.186 0 0 .093 0 .093.093s-.093.464-.186 1.116c0 .372-.093 1.022-.093 1.208 0 .093 0 .28-.093.28s-.186 0-.186-.094v-.65c-.093-.28-.278-.558-1.022-.651-.465-.093-2.325-.093-2.604-.093-.093 0-.186 0-.186.093v4.928c.093 1.302.372 1.487 2.231 1.487.466 0 1.303 0 1.767-.185.465-.186.652-.558.838-1.302 0-.28.092-.28.185-.28s.093.094.093.28c0 .093-.186 1.394-.278 1.767-.093.558-.28.558-1.024.558-2.79 0-3.998-.186-4.556-.186-.093 0-.372.093-.744.093h-1.116c-.186 0-.279 0-.279-.186 0 0 0-.093.186-.093.093 0 .372 0 .558-.093.372-.093.465-.466.465-1.023.093-.744.093-2.232.093-4.092v-3.347m12.646 3.348c0 2.79 0 3.998.373 4.37.278.278.743.465 2.231.465 1.023 0 1.86-.094 2.232-.559.28-.371.465-.836.558-1.208 0-.093 0-.186.093-.186s.093.093.093.279c0 .186-.093 1.302-.186 1.86-.186.465-.279.558-1.21.558-2.696 0-3.905-.186-5.02-.186-.093 0-.372.093-.744.093h-1.023c-.186 0-.372 0-.372-.186 0 0 .093-.093.186-.093.186 0 .372 0 .558-.093.371-.093.464-.466.558-1.023.093-.744.093-2.232.093-4.092v-3.347c0-2.883 0-3.441-.093-3.999 0-.65-.187-1.022-.744-1.115-.186 0-.465-.093-.651-.093-.093 0-.186 0-.186-.093s.093-.187.372-.187c.837 0 1.953.094 2.046.094.093 0 1.487-.094 2.045-.094.186 0 .28.094.28.187s-.094.093-.094.093c-.186 0-.465.093-.65.093-.559.093-.745.371-.745 1.115v7.346m10.88.001c0 1.859 0 3.347.093 4.09.093.558.186.93.743 1.024.28.093.652.093.838.093.093 0 .093.093.093.093 0 .093-.093.186-.28.186-1.022 0-2.138-.093-2.23-.093-.094 0-1.303.093-1.86.093-.187 0-.28 0-.28-.186 0 0 0-.093.093-.093.186 0 .372 0 .558-.093.372-.093.465-.466.558-1.023.093-.744.093-2.232.093-4.092v-7.346c-.093-.65-.279-1.022-.65-1.115-.187 0-.466-.093-.559-.093-.093 0-.185 0-.185-.093s.092-.187.278-.187c.651 0 1.86.094 1.953.094.093 0 1.209-.094 1.767-.094.186 0 .279.094.279.187s-.093.093-.093.093c-.186 0-.279.093-.466.093-.557.093-.65.371-.743 1.115v7.346m6.974 2.883c.093 1.581.279 2.046.744 2.232.372.093.744.093.93.093.093 0 .186.093.186.093 0 .186-.093.186-.372.186-1.023 0-1.767-.093-1.953-.093-.186 0-.93.093-1.767.093-.186 0-.279 0-.279-.186 0 0 0-.093.093-.093.186 0 .465 0 .745-.093.464-.093.557-.651.557-2.418V219.53c0-.744.093-.93.28-.93.092 0 .464.373.65.559.279.371 3.069 3.347 5.858 6.509a155.792 155.792 0 0 1 4.464 4.928l-.186-9.577c0-1.303-.093-1.674-.745-1.86-.278 0-.743-.093-.836-.093-.186 0-.186 0-.186-.093s.186-.187.372-.187c.836 0 1.767.094 1.952.094h1.767c.186 0 .372 0 .372.093a.2.2 0 0 1-.186.186h-.465c-.65.186-.744.557-.744 1.673l-.186 10.88c0 1.209-.093 1.488-.186 1.488-.186 0-.372-.186-1.395-1.209-.186-.186-2.882-2.883-4.835-5.115-2.139-2.324-2.882-3.348-4.37-5.207l-.28 8.834m16.366-6.231v-3.999c-.093-.65-.185-1.022-.836-1.115-.186 0-.465-.093-.651-.093-.093 0-.093 0-.093-.093s.093-.187.279-.187c.837 0 1.953.094 2.046.094.279 0 1.395-.094 2.51-.094 1.86 0 5.3-.093 7.532 2.233.93.93 1.767 2.51 1.767 4.742 0 2.417-.93 4.184-1.953 5.3-.837.93-2.51 2.232-5.672 2.232-1.58 0-3.998-.28-4.184-.28-.093 0-1.209.094-1.767.094-.186 0-.28 0-.28-.186 0 0 0-.093.094-.093.186 0 .372 0 .558-.093.372-.093.465-.466.557-1.023.093-.744.093-2.232.093-4.092v-3.347zm1.581 2.045v4.092c0 .465.093 1.302.186 1.487.28.372 1.023.745 3.162.745 1.766 0 3.347-.651 4.464-1.767 1.022-.93 1.487-2.79 1.487-4.463 0-2.418-1.023-4-1.766-4.836-1.767-1.86-3.906-2.138-6.138-2.138-.371 0-1.023.092-1.209.185-.093.093-.186.186-.186.372v6.323zm17.389-6.973c.28-.652.372-.745.465-.745.093 0 .186.093.372.652.279.743 3.255 8.555 4.37 11.344.651 1.673 1.21 2.046 1.581 2.139.28.093.558.093.744.093.093 0 .186 0 .186.093 0 .186-.186.186-.372.186h-2.883c-.371-.093-.557-.093-.557-.186s0-.093.093-.093c.093-.093.186-.186.093-.559l-1.674-4.649c-.093-.093-.093-.093-.186-.093h-3.999a.2.2 0 0 0-.186.187l-1.115 3.347c-.186.465-.28.93-.28 1.208 0 .373.373.559.745.559h.093c.185 0 .278.093.278.093 0 .186-.186.186-.278.186-.465 0-1.303-.093-1.489-.093-.185 0-1.208.093-2.138.093-.186 0-.372 0-.372-.186 0 0 .093-.093.186-.093h.558c.837-.186 1.209-.837 1.58-1.767l4.185-11.716zm1.953 7.531c.093 0 .093-.093.093-.186l-1.767-5.02c-.093-.28-.186-.28-.279 0l-1.674 5.02c0 .093 0 .186.093.186h3.534z" fill="#676D76"/><path d="M0 188.403h218.525v93.653H0z"/><path d="M1052.854 144.774c-2.184-1.622-4.117-4.055-6.176-6.363-.873-.936-1.56-1.372-2.683-1.372-.623 0-1.559.187-2.245.187-1.123 0-2.058-.062-3.057.25-.748-.562-.686-1.186-.249-1.436.935-.499.062-.873.062-1.559 0-.624.624-.81 1.06-.624.437-1.123-.436-2.308-.623-3.181.624-.125 1.31-.437 1.684-1.248-.624-.374-2.121-1.185-2.121-2.557 1.123-.125 2.058-1.123 1.747-2.183-.25.124-.499.186-.811 0-.374-.25-.312-.437-.811-.811-.561-.375-1.684-.437-1.934-1.248.624-.936.624-2.12 0-2.558-.125.125-.374.562-.81.562-.874 0-1.061-.562-1.81-1.248-.25-.187-.623-.561-1.933-.561-.811 0-1.435-.5-2.06-.437.25.374.126 1.06-.436.936-.187-.063-.499-.624-1.06-.936-.437-.25-.749-.25-1.123-.561-.312-.25-.25-.686-.624-.686-.249 0-.249.436-.249.686 0 .499.25.624.187 1.31-.5-.312-.749-.874-1.248-.874-.062 0-.125.063-.187.125 0 0-.124.125.062.562.125.436.811.748.811 1.31 0 1.06-1.372 1.746-1.372 2.744 0 .187.125.312.125.499.062.5-.499.936-.811 1.622-.499 1.06-.437 1.435-.998 2.433-.25.499-.624.624-.624 1.185 0 1.06.437 2.308 1.497 2.308.5 0 1.06.437 1.497.187 1.31-.748.437-.998.999-1.621.935-.874 1.746-1.747 2.62-1.747.31 0 .436.374.436.936 0 1.996-1.56 4.803-3.244 6.3-.748.624-1.06.749-1.87 1.31-2.122 1.435-3.931 1.746-4.991 1.746-2.683 0-3.806-.623-6.3-.623-1.685 0-3.432.56-4.866 1.56-3.93-.437-4.055-5.365-8.297-5.365-2.932 0-5.24 2.495-5.24 5.738 0 2.995 1.435 4.866 4.055 6.675.437.374.873.561.873 1.31 0 1.56-2.745 1.56-2.745 3.618 0 .998.749 1.746 1.747 1.746.437 0 .811-.124.936-.498-.374-.125-.562-.375-.562-.624 0-1.31 4.492-.561 4.492-4.304 0-3.244-3.992-3.743-3.992-6.176 0-.375.124-.686.374-.686s.25.624.748.749c.188-.75.999-1.747 1.81-1.747.186 0 .374.062.186.25-.374.373-.436.748-.436 1.122 0 .25.125.624.499.749.125-.312.624-.874 1.31-.874.748 0 .748.25 1.81.187.248 0 .248.125.248.188a7.008 7.008 0 0 0-1.435 3.18c-.374 2.496.188 3.744.188 4.305.062.436.125.998-.25 1.747-.374.749-.187.312-.811 1.31-1.06 1.746-3.119 1.809-2.931 3.805.56 3.43 0 6.3-.063 8.047-.062.811-.25 1.31-.25 1.684 0 1.31 1.435 1.247 1.685 2.495.125.624-.062.998.25 1.56.062.124.311.374.561.374h2.745c.374 0 .436-.312.436-.561-.062-.936-.873-1.622-1.56-2.059-1.122-.748-1.31-1.185-1.683-2.558-.25-2.058.124-4.18.374-6.238.062-.935.312-1.559.935-2.12.25-.312.873-.75 1.123-.811 1.747-.25 2.932-.811 3.93-1.56.062 1.56-1.497 1.81-1.497 3.306 0 1.248.935 1.747 1.684 2.683 1.31 1.809 2.059 2.433 3.618 4.928.562.936 0 1.372.749 2.058.436.375.686.25 1.06.624.437.561.25 1.185.562 1.81a.686.686 0 0 0 .624.373h2.557c.374 0 .561-.25.561-.623 0-.812-.748-1.747-2.058-2.434-1.248-.623-2.433-2.62-3.181-3.93-.811-1.434-2.309-2.744-2.807-4.428-.375-1.373 0-2.12 1.247-2.683 2.308-1.06 3.867-3.867 4.616-5.925.936-.063 3.182.311 4.928.56 2.433.313 5.427.063 7.174-.436 1.247-.374 1.996-.873 2.932-1.06h-.063c.527-.117.847-.028 1.155.06.349.1.682.201 1.278.002 2.932-.873 5.24-2.807 6.986-3.493.313-.125.624-.188.999-.188.623 0 .748.313 1.372.999 1.248 1.31 1.934 3.556 2.433 5.801.124.437.81.374.81.81 0 .75-.56 1.062-.56 1.748 0 .936 2.12 1.87 2.994 1.87.623 0 .623-.623.623-1.06 0-1.434-.623-2.245-1.31-3.43-1.497-2.558-2.745-5.552-3.618-7.673-.56-.873-1.06-1.871-2.183-1.871-1.06 0-2.496.124-3.556.124l-1.122.063.186-.25c.562-.062 1.061-.312 1.935-.686 1.247-.562 2.058-1.372 2.931-1.372.375 0 .437 0 .811-.062.499-.063 1.622.498 2.62 1.559 1.248 1.248 2.246 2.37 2.558 3.056.249.562.311.75.748.999.374.187.873 0 1.123.374.312.436-.187 1.06.125 1.56.436.623 1.372.872 2.183.872 1.123 0 1.622-.374 1.622-.748 0-1.372-1.248-1.996-2.37-2.87m-134.179 28.695h121.141v-2.121h-121.14zm45.101-33.498h2.12v-11.103h-2.12zm-3.056-26.199h1.497c2.058 0 3.492 1.497 3.492 3.494 0 2.058-1.496 3.555-3.492 3.555h-1.498v-7.049zm7.173 3.555c0-3.118-2.495-5.551-5.739-5.551h-3.556v11.103h3.556c3.244 0 5.739-2.432 5.739-5.552zm-44.539 39.924c.998 0 1.996-.188 2.931-.437v-5.739h-2.058v4.117c-.187.063-.624.063-.873.063-2.246 0-3.805-1.56-3.805-3.681 0-2.183 1.622-3.68 3.867-3.68.998 0 1.81.187 2.558.436v-2.058c-.686-.25-1.622-.437-2.62-.437-3.369 0-6.051 2.308-6.051 5.677.062 3.43 2.807 5.739 6.051 5.739m42.98-9.233h1.496c1.123 0 1.747.624 1.747 1.622 0 .998-.686 1.56-1.871 1.56h-1.372v-3.182zm0 5.24h1.496c2.184 0 3.93-1.434 3.93-3.68 0-2.183-1.622-3.618-3.805-3.618h-3.68v11.103h2.059v-3.805zm20.896-13.1c.998 0 1.997-.186 2.932-.436v-5.74h-1.996v4.055a3.68 3.68 0 0 1-.873.125c-2.308 0-3.805-1.621-3.805-3.742 0-2.184 1.621-3.68 3.867-3.68.998 0 1.81.187 2.558.436v-2.059c-.686-.249-1.622-.436-2.62-.436-3.306.062-5.989 2.37-5.989 5.739 0 3.43 2.683 5.738 5.926 5.738m-15.907-7.859l6.114 7.673h1.497v-11.104h-2.059v7.298l-5.863-7.298h-1.81v11.104h2.121v-7.673m-18.713 13.661v7.049c0 2.557 1.871 4.242 4.429 4.242 2.495 0 4.429-1.747 4.429-4.242v-7.05h-2.183v6.987c0 1.373-.874 2.246-2.246 2.246-1.31 0-2.308-.873-2.308-2.246v-6.986h-2.121m20.086-27.946c1.248.437 2.246.748 2.246 1.747 0 .873-.874 1.31-1.81 1.31-1.122 0-2.245-.437-3.243-1.061v2.183c.748.437 1.996.874 3.306.874 1.871 0 3.867-1.185 3.867-3.369 0-2.12-1.683-2.932-3.118-3.368-1.872-.562-2.184-.999-2.184-1.497 0-.75.687-1.185 1.81-1.185.998 0 1.933.311 2.744.686v-2.059a6.535 6.535 0 0 0-2.807-.624c-2.246 0-3.805 1.248-3.805 3.182 0 1.497.998 2.557 2.994 3.18m-39.736 32.875h-1.622v-2.932h1.56c.998 0 1.746.436 1.746 1.435-.062.998-.686 1.56-1.684 1.497zm3.805-1.435c0-2.183-1.56-3.43-3.742-3.43h-3.806v11.103h2.121v-4.242h1.373l2.37 4.242h2.433l-2.682-4.616c1.122-.562 1.933-1.685 1.933-3.057zm-14.908-11.416h-1.872v-2.744h2.183c.936 0 1.56.562 1.56 1.373.063 1.122-.998 1.371-1.871 1.371zm-1.872-7.235h1.934c.687 0 1.56.312 1.56 1.247 0 .811-.562 1.31-1.435 1.31h-1.996l-.063-2.557zm5.552 1.122c0-1.87-1.372-3.056-3.493-3.056h-4.242v11.104h4.117c2.495 0 3.993-1.248 3.993-3.306 0-1.124-.562-1.997-1.623-2.62a2.387 2.387 0 0 0 1.248-2.122zm8.483-11.103h-4.99v-9.045h-2.183v11.103h7.174v-2.058m23.392 13.536l4.679-5.489h-2.62l-4.43 5.24v-5.24h-2.12v11.104h2.12v-5.24l4.554 5.24h2.807l-4.99-5.615m-26.324.749l1.434-3.743 1.435 3.743h-2.87zm2.495-6.3h-1.996l-4.616 11.166h2.245l1.123-2.932h4.367l1.123 2.932h2.308l-4.554-11.166zm6.737-15.158c1.934 0 3.556 1.621 3.556 3.68 0 2.12-1.56 3.68-3.556 3.68s-3.556-1.622-3.556-3.68c0-2.059 1.622-3.68 3.556-3.68zm0 9.356c3.181 0 5.802-2.557 5.802-5.738 0-3.12-2.62-5.677-5.802-5.677-3.119 0-5.802 2.557-5.802 5.677 0 3.243 2.62 5.738 5.802 5.738zm7.735-.125h2.433l6.737-11.103h-2.433l-2.87 4.803-2.993-4.803h-2.496l4.304 6.675-2.682 4.428m-6.05 9.42l6.175 7.673h1.497v-11.104h-2.058v7.298l-5.864-7.298h-1.809v11.104h2.059v-7.673m-17.03-11.478h-4.99v-9.045h-2.122v11.103h7.112v-2.058m19.462 27.072c1.934 0 3.556 1.623 3.556 3.681 0 2.121-1.56 3.68-3.556 3.68s-3.556-1.621-3.556-3.68c0-2.12 1.622-3.68 3.556-3.68zm-5.8 3.619c0 3.18 2.556 5.739 5.8 5.739 3.182 0 5.802-2.496 5.802-5.74 0-3.119-2.62-5.676-5.802-5.676-3.119 0-5.8 2.557-5.8 5.677z" fill="#676D76"/><g transform="translate(995.337 134.38)"><mask id="b" fill="#fff"><use xlink:href="#a"/></mask><path fill="#676D76" mask="url(#b)" d="M.315 4.467h7.617V.225H.315z"/></g><path d="M1024.492 130.055c-.133 0-.132-.156-.02-.378.216-.434.197-1.106-.225-1.106a.583.583 0 0 0-.213.046 1.97 1.97 0 0 1-.694.155c-.257 0-.387-.098-.241-.28.186-.311.436-.498.81-1.559.375-1.06.562-1.373 1.373-2.807.437-.936-.187-.81-.062-1.373.124-.374.623-.872.935-1.31.262-.313.566-.452.805-.452.047 0 .09.006.13.016.25.062.25.374.126.998-.125.624-.063.873.436 1.06.43.162.628.737.517.737-.019 0-.045-.015-.08-.05a1.542 1.542 0 0 0-.46-.076c-.706 0-1.13.606-1.599 1.386-.686 1.06-.935 1.684-1.122 2.807-.188 1.247.56 1.56.062 1.933-.23.179-.386.253-.478.253m12.471 12.25c-.266 0-.495-3.056-4.32-4.83-1.435-.686-1.934-.935-.811-2.058 3.493-3.244 4.615-10.043.873-12.539-.749-.499-1.372-.686-1.372-.81 0-.052.096-.083.253-.083.223 0 .567.061.932.207 5.614 2.37 4.429 9.295 2.557 13.848-.436 1.124 0 .811 1.186 2.184 1.559 1.747.998 3.493.81 3.93-.041.104-.075.152-.108.151m-31.268 4.34c-.125 0-.187 0-.25-.436-.25-2.683 1.934-7.362 7.923-7.362 1.996 0 3.867.624 6.05.624 1.06 0 3.618-.561 5.302-1.746.375-.25 1.186-.811 1.435-.999a.207.207 0 0 1 .062-.011c.107 0 .038.161-.124.324-.374.56-.687.873-1.06 1.247-.562.561-1.186 1.497-1.373 2.308-.436 1.81-.811 2.37-3.182 2.62a5.99 5.99 0 0 1-.711.046c-1.023 0-1.409-.327-1.409-.482-.125-.624.935-.624.935-1.248 0-.312-.997-1.123-3.43-1.123-3.369 0-5.74 1.185-7.922 3.244-1.498 1.372-1.81 2.994-2.246 2.994" fill="#747B83"/><path d="M877.694 94.062h218.525v93.653H877.694z"/><path d="M374.947 122.053c-6.174-2.306-13.033-.498-16.9 4.737-1.87 2.556-3.18 5.548-4.802 8.29-1.247 2.182-2.37 4.55-3.866 6.545-2.37 3.303-6.174 4.3-9.915 2.867-3.368-1.31-5.675-4.8-5.488-8.415.187-3.802 2.806-7.043 6.548-8.102 3.554-.936 7.296.56 9.478 3.802.25.374.561.748.936 1.309 4.053-7.23 6.61-10.222 6.61-10.222v-9.288h-6.236v9.786c-10.227-4.051-16.588-2.929-22.263 5.797a65.199 65.199 0 0 0-1.372-1.808c-6.36-8.476-19.082-8.227-24.944.624-1.497 2.243-2.495 4.737-3.804 7.105-1.247 2.306-2.37 4.737-3.929 6.794-3.242 4.051-9.104 4.3-12.784.686-3.679-3.616-3.43-9.412.5-12.778 3.866-3.303 9.727-2.555 12.72 1.683.375.499.687.997 1.186 1.683 1.06-1.87 3.741-6.109 3.741-6.109s-.374-.56-1.247-1.433c-4.552-4.488-11.599-5.734-17.398-2.992-.624.312-1.248.561-2.246 1.06v-10.098H272.8v24.745c.311 6.233 5.612 11.344 11.6 12.84 6.547 1.62 12.596-.436 16.337-5.859 1.497-2.181 2.62-4.675 3.93-7.043 1.309-2.43 2.431-5.049 4.115-7.168 3.555-4.612 10.04-4.488 13.532.125.5.623.686 1.433 1.247 2.493-4.24 0-8.044.062-11.786-.063-1.559-.062-2.556.374-3.243 1.87-1.371 2.992-2.868 5.922-4.427 8.789-.686 1.309-.436 2.057.561 2.991 3.056 2.868 6.673 4.426 10.913 4.363 4.428-.061 8.17-1.682 11.225-5.173a191.652 191.652 0 0 1-4.802-4.238c-6.049 4.488-12.659 2.93-14.218-2.992.25-.062 0-.062 0-.062h19.27c1.87 4.3 5.362 9.474 9.853 11.282 7.92 3.365 15.964.124 20.267-8.166 1.497-2.93 2.682-5.983 4.365-8.788 1.06-1.808 2.557-3.678 4.303-4.737 4.366-2.743 10.976.124 11.6 4.924-3.992 0-8.046-.063-11.974.062-.811 0-1.995.561-2.37 1.247-1.746 3.179-3.367 6.482-4.926 9.785-.25.5-.125 1.496.249 1.933 5.426 6.731 17.586 6.482 22.824-.623-1.622-1.247-3.242-2.556-4.864-3.803-6.423 4.3-13.407 2.805-14.53-3.178h23.136v-2.182c.25-6.482-3.805-12.653-10.04-14.897M278.1 162.255h2.121v2.992c-.312.188-.749.374-1.123.437a4.74 4.74 0 0 1-1.31.187c-.56 0-1.121-.125-1.559-.312a3.25 3.25 0 0 1-1.184-.872 4.145 4.145 0 0 1-.749-1.247c-.187-.498-.249-.935-.249-1.496 0-.498.062-.997.25-1.496a4.15 4.15 0 0 1 .748-1.246c.312-.374.686-.624 1.184-.873a4.097 4.097 0 0 1 1.56-.312c.56 0 1.06.063 1.497.25.436.187.81.436 1.122.747l.686-.685c-.437-.437-.873-.686-1.372-.935-.499-.187-1.122-.311-1.871-.311-.686 0-1.31.124-1.87.374-.562.249-1.06.56-1.497.997-.437.436-.749.934-.998 1.496a4.547 4.547 0 0 0-.375 1.87c0 .685.125 1.308.375 1.87.25.56.561 1.06.998 1.496.436.435.935.747 1.496.997a4.565 4.565 0 0 0 1.87.374 5.9 5.9 0 0 0 1.747-.25c.624-.187 1.185-.374 1.684-.686v-4.425h-3.055v1.06h-.125m18.957 1.06l1.934-4.738 1.933 4.738h-3.867zm1.559-5.798l-3.928 8.976h1.06l.997-2.369h4.615l.998 2.37h1.06l-3.929-8.977h-.873zm22.763 7.294l-3.057-7.294h-1.372v8.976h.935v-7.729l3.243 7.73h.5l3.242-7.73v7.73h.935v-8.977h-1.371l-3.056 7.294m19.207 1.682h.935v-8.976h-.935zm22.2-1.371l-5.363-7.605h-1.122v8.976h.873v-7.666h.063l5.362 7.666h1.123v-8.976h-.936v7.605m19.145-2.868h2.12v2.992c-.311.188-.748.374-1.122.437a4.74 4.74 0 0 1-1.31.187 4.08 4.08 0 0 1-1.559-.312 3.246 3.246 0 0 1-1.185-.872 4.181 4.181 0 0 1-.748-1.247c-.187-.498-.25-.935-.25-1.496a4.2 4.2 0 0 1 .25-1.496c.187-.498.437-.872.748-1.246.312-.374.687-.624 1.185-.873a4.092 4.092 0 0 1 1.56-.312c.56 0 1.06.063 1.496.25.436.187.81.436 1.123.747l.685-.685c-.436-.437-.873-.686-1.372-.935-.498-.187-1.122-.311-1.87-.311-.686 0-1.31.124-1.871.374-.562.249-1.06.56-1.497.997-.436.436-.748.934-.998 1.496a4.547 4.547 0 0 0-.374 1.87c0 .685.125 1.308.374 1.87.25.56.562 1.06.998 1.496.437.435.935.747 1.497.997a4.562 4.562 0 0 0 1.87.374c.562 0 1.123-.063 1.747-.25.623-.187 1.185-.374 1.684-.686v-4.425h-3.181v1.06" fill="#676D76"/><path d="M219.424 94.062h218.525v93.653H219.424z"/><g fill="#676D76"><path d="M86.43 125.951c.533-.013 1.003-.167 1.312-.374v-4.623a36.98 36.98 0 0 0-1.278.076c-1.672.118-1.925 1.627-1.925 2.52 0 .918.206 1.58.612 1.966.3.286.758.448 1.28.435m31.703 29.162c-1.545 0-2.582 1.21-2.582 3.009 0 1.78 1.061 3.023 2.582 3.023 1.544 0 2.582-1.214 2.582-3.023 0-1.8-1.038-3.009-2.582-3.009"/><path d="M130.051 144.684c-1.932 0-3.23-.268-4.207-.694v-1.714c1.2.873 3.547.969 3.931.969.385 0 1.838.015 1.838-.923 0-1.272-5.811-.046-5.811-3.015 0-1.957 2.454-2.53 4.222-2.53 1.107 0 2.59.235 3.486.513v1.562c-1.243-.573-2.93-.637-3.254-.637-.386 0-1.886-.032-1.886.906 0 1.495 5.774.07 5.774 2.997 0 1.957-2.327 2.566-4.093 2.566zm3.926 16.449a.472.472 0 0 1 .098.27c0 .238-.245.463-.505.463a.481.481 0 0 1-.407-.22l-2.199-3.42-1.314 1.326v1.85a.478.478 0 0 1-.477.478.48.48 0 0 1-.49-.478v-9.04c0-.3.249-.478.49-.478.23 0 .477.182.477.478v5.815l3.648-3.648a.491.491 0 0 1 .846.327.483.483 0 0 1-.151.355l-2.32 2.318 2.304 3.604zm-7.229-5.895a2.267 2.267 0 0 0-2.265 2.264v3.9a.478.478 0 0 1-.477.478.48.48 0 0 1-.491-.478v-6.545c0-.3.25-.479.491-.479.235 0 .477.18.477.479v.34a3.203 3.203 0 0 1 2.265-.929c.294 0 .492.248.492.478a.493.493 0 0 1-.492.492zm-6.944-10.684h2.519v-7.656h-2.52v7.656zm-1.67 17.56c-2.44 0-3.551-2.07-3.551-3.992 0-1.916 1.11-3.977 3.55-3.977 2.44 0 3.552 2.06 3.552 3.977 0 1.923-1.112 3.992-3.551 3.992zm-4.555-7.096l-2.24 6.511a.504.504 0 0 1-.486.35.457.457 0 0 1-.458-.337l-1.734-5.27-1.73 5.242c-.091.254-.237.366-.474.366-.227 0-.382-.12-.46-.353l-2.232-6.475-.033-.182c0-.276.19-.49.457-.49.166 0 .374.093.458.331l1.808 5.287 1.72-5.226c.085-.27.222-.38.473-.38.184 0 .37.046.486.378l1.747 5.228 1.78-5.24c.072-.227.241-.37.466-.37a.474.474 0 0 1 .452.63zm-11.827 5.902h.426a.47.47 0 0 1 .469.482c0 .23-.175.47-.469.47h-.426c-1.135 0-1.71-.57-1.71-1.697v-4.836h-.62a.472.472 0 0 1-.469-.482.47.47 0 0 1 .47-.47h.619v-2.026c0-.294.246-.468.483-.468.227 0 .469.163.469.468v2.027h1.184c.294 0 .469.238.469.469a.471.471 0 0 1-.469.482h-1.184v4.836c0 .613.134.745.758.745zm-4.232-2.306H91.9c.16 1.519 1.172 2.531 2.547 2.531.656 0 1.546-.284 1.949-.908a.451.451 0 0 1 .407-.235c.262 0 .491.228.491.492a.465.465 0 0 1-.103.29l-.15.193c-.626.734-1.547 1.137-2.594 1.137-2.44 0-3.552-2.07-3.552-3.992 0-1.916 1.112-3.977 3.552-3.977s3.55 2.06 3.55 3.977c0 .253-.232.492-.477.492zm-8.177 2.788a.479.479 0 0 1-.479.478.48.48 0 0 1-.491-.478v-4.024a2.268 2.268 0 0 0-2.265-2.265 2.268 2.268 0 0 0-2.265 2.265v4.024a.478.478 0 0 1-.477.478.48.48 0 0 1-.491-.478v-6.545c0-.3.25-.479.49-.479.235 0 .478.18.478.479v.215a3.199 3.199 0 0 1 2.265-.927c1.753 0 3.235 1.48 3.235 3.233v4.024zM86.618 136.9h3.046l4.32 7.655h-2.993l-2.85-5.742h-.028l-2.982 5.742h-2.774l4.26-7.655zm-.06-17.78h1.184v-1.85h2.317v10.563h-2.305l-.012-.189c-.474.25-1.037.374-1.712.374-1 0-1.87-.36-2.52-1.038-.756-.793-1.172-1.989-1.172-3.367 0-1.88.727-4.493 4.22-4.493zm6.007 1.195c.748-.93 1.849-1.424 3.183-1.424 1.155 0 2.077.331 2.74.982.594.581.954 1.416 1.042 2.406.025.29.036.956.025 1.744v.091h-5.59c.206 1.174.878 1.836 2.116 1.857 1.69.03 2.933-.637 3.332-.859v2.14a7.975 7.975 0 0 1-3.288.758c-3.387 0-4.593-2.286-4.593-4.423 0-1.282.366-2.441 1.033-3.272zm9.873 19.612v1.448h-2.984v1.437h4.967v1.742h-7.486v-7.655h7.486v1.745h-4.967v1.283h2.984zm-1.042-20.807h2.306l.011.19c.318-.118 1.147-.397 1.897-.397 2.187 0 3.251 1.119 3.251 3.42v5.5h-2.317v-5.157c0-1.13-.304-1.522-.928-1.668-.625-.144-1.405-.014-1.903.299v6.526h-2.317v-8.713zm9.423-1.85h2.317v1.85h2.681v2.05a28.753 28.753 0 0 0-2.68-.133v3.68c0 .353 0 .72.213.934.145.143.381.215.72.215.53 0 1.449-.196 1.747-.271v2.088a7.733 7.733 0 0 1-2.168.338c-1.067 0-1.807-.295-2.265-.902-.386-.515-.565-1.243-.565-2.287v-7.561zm1.527 25.829c.307 0 1.299-.045 1.508-.132v-2.23h2.101v3.413c-1.365.447-2.87.537-3.765.537-2.287 0-4.929-1.032-4.929-3.926 0-2.56 2.273-3.992 5.42-3.992.792 0 2.22.143 3.056.428v1.69c-1.096-.51-2.422-.606-2.962-.606-1.856 0-3.154 1.008-3.154 2.48 0 1.503 1.053 2.338 2.725 2.338zm6.253-23.44c.637-.475 1.497-.734 2.495-.751 1.073-.02 2.025.188 3.098.72v2.108a12.462 12.462 0 0 0-2.195-.64c-.927-.17-1.542-.075-1.881.106-.151.08-.256.223-.258.375-.005.155.09.295.273.393.37.204 1.01.317 1.554.42 1.313.243 2.027.571 2.49 1.216.38.528.515 1.201.388 1.941-.343 2.001-2.226 2.452-3.743 2.479-1.325.023-2.438-.391-3.147-.752v-2.16c.42.185 1.558.61 2.756.73.413.042 1.041.068 1.436-.098.215-.091.353-.275.351-.469 0-.2-.158-.38-.43-.492-.273-.11-.9-.239-1.34-.324-2.09-.409-2.996-1.275-2.93-2.716.04-.862.413-1.583 1.083-2.086zm7.544-.54h2.315v5.156c0 1.131.306 1.524.929 1.668.626.146 1.405.017 1.904-.298v-6.526h2.317v8.713H131.3l-.01-.19c-.319.118-1.148.396-1.898.396-2.185 0-3.25-1.118-3.25-3.419v-5.5zm-50.217 53.405h64.63v-64.63h-64.63v64.63z"/><path d="M94.447 155.113c-1.673 0-2.408 1.29-2.545 2.532h5.105c-.16-1.519-1.178-2.532-2.56-2.532m1.298-34.246c-.927 0-1.506.536-1.738 1.37h3.256c-.063-.767-.656-1.37-1.518-1.37"/></g><path d="M0 94.062h218.525v93.653H0z"/><g fill="#676D76"><path d="M1019.876 44.068c-.412-5.523-2.24-10.944-5.328-15.547-3.027-4.526-7.199-8.302-12.049-10.786-3.748-1.974-7.904-3.132-12.119-3.505-.951-.203-1.907.014-2.866.02-2.272 6.507-4.63 12.982-6.92 19.481 1.666.03 3.331-.023 4.996.026 1.217.05 2.493.558 3.165 1.622.77 1.203.727 2.744.243 4.047-2.265 6.372-4.551 12.738-6.81 19.114-2 .027-4-.004-6 .015-.278-.006-.567.027-.831-.08 2.538-7.004 5.018-14.032 7.52-21.049-1.193-.018-2.386.008-3.579-.012-.184.38-.313.786-.45 1.187-2.302 6.474-4.624 12.942-6.918 19.42-.108.165-.081.526-.34.528-1.904.007-3.81-.006-5.714.004-.342-.004-.692.035-1.025-.067 5.223-14.49 10.326-29.023 15.552-43.51-10.207 2.183-18.988 9.822-22.783 19.523-1.556 3.841-2.233 7.99-2.32 12.12.107 1.982.247 3.97.632 5.924 1.228 6.505 4.547 12.59 9.329 17.166a32.355 32.355 0 0 0 14.291 8c5.202-14.546 10.374-29.102 15.555-43.655.052-.105.157-.317.208-.424 3.198.031 6.398.006 9.598.015 1.05.018 2.127-.098 3.147.219 1.175.317 2.268 1.162 2.629 2.357.267.942.081 1.946-.254 2.846-2.042 5.962-4.203 11.882-6.312 17.817-.522 1.547-2.095 2.516-3.686 2.57-2.492.047-4.987-.015-7.48.03-2.291 6.382-4.56 12.77-6.83 19.158.593.253 1.225.056 1.842.096.93.072 1.855-.1 2.782-.165 6.08-.559 11.971-2.914 16.773-6.678a32.316 32.316 0 0 0 9.156-11.29c1.875-3.781 2.925-7.946 3.228-12.146-.142-1.458-.1-2.93-.032-4.39"/><path d="M997.847 55.793c2.117-6.157 4.37-12.266 6.523-18.41-.924-.02-1.848.003-2.773-.013-.265.038-.619-.098-.817.127-2.186 6.105-4.35 12.218-6.535 18.322 1.199.007 2.405.058 3.602-.026"/></g><path d="M877.694 0h218.525v93.653H877.694z"/><path d="M727.504 73.89c.484.074.707.074 1.005.074 3.834 0 5.882-2.383 5.882-6.85 0-3.797-1.675-5.809-4.766-5.809-.52 0-1.042.038-2.121.187v12.397zm-8.75 8.525l2.123-.186.41-.485V61.305h-2.607V59.52l6.888-2.197h1.936v2.494c3.424-2.01 4.765-2.53 6.514-2.53 4.096 0 7.223 3.87 7.223 8.971 0 5.957-4.281 9.94-10.61 9.94-.745 0-1.936-.074-3.127-.185v5.732l.484.485 2.456.186-.074 1.973h-11.615v-1.973zm30.838-25.019c.297 1.34.446 2.346.483 3.165l.41 9.084 5.436-10.275v-1.08l5.621-.447.708 14.148 4.802-6.665-1.042-6.85c1.005-.893 1.712-1.19 2.866-1.19 1.824 0 3.053 1.153 3.053 2.903 0 1.824-1.005 3.984-3.5 7.446-.781 1.08-3.09 3.946-6.887 8.563h-4.393l-.856-12.807-6.962 12.807h-4.728l.372-1.676-.596-13.477-3.685-.596V58.96l6.738-1.564h2.16m33.938 1.9c-3.165.484-4.803 2.829-4.803 6.887 0 4.095 2.197 6.813 5.473 6.813 1.563 0 2.978-.485 5.882-1.899v3.314c-3.537 1.6-5.585 2.084-8.451 2.084-3.09 0-5.25-.819-7.036-2.606-1.787-1.787-2.718-4.132-2.718-6.775 0-5.845 4.393-9.829 10.834-9.829 4.28 0 7.222 1.936 7.222 4.728 0 1.862-1.377 3.09-3.425 3.09-1.042 0-1.899-.26-2.978-.893v-4.914M761.953 46.81h18.213v-4.803h-18.213z" fill="#676D76"/><path fill="#BEC1C2" d="M780.166 14.187h17.813v-3.804h-17.813z"/><path fill="#CFD1D0" d="M797.979 19.69h3.302v-5.503h-3.302z"/><path fill="#979DA1" d="M780.166 19.69h17.813v-5.503h-17.813z"/><path fill="#AFB3B5" d="M801.281 33.3h9.007V19.69h-9.007z"/><path fill="#9FA5A9" d="M797.979 33.3h3.302V19.69h-3.302z"/><path fill="#889095" d="M797.979 33.3h-6.805v-4.503h-11.008V19.69h17.813V33.3"/><path fill="#E0E2E0" d="M810.288 42.007h4.802v-8.706h-4.802z"/><path fill="#889095" d="M801.281 42.007h9.007v-8.706h-9.007z"/><path fill="#7A8289" d="M797.979 42.007h3.302v-8.706h-3.302z"/><path fill="#6E747D" d="M791.174 42.007h6.805v-8.706h-6.805z"/><path fill="#747B83" d="M780.166 33.3h11.008v-4.503h-11.008z"/><path fill="#676D76" d="M780.166 42.007h11.008v-8.706h-11.008z"/><path d="M658.271 0h218.525v93.653H658.271z"/><g><path d="M632.38 33.794c-.71.13-1.42.323-2.13.323-.775 0-1.485-.259-2.131-.323.452 3.936.259 15.678.194 18.001-4.583-6.13-13.427-18-13.427-18s-.258.063-.645.063c-.452.065-1.743 0-3.292 0 .645 3.42.516 22.905 0 26.067.968-.13 1.484-.065 2.581-.065h1.614c-.387-3.032-.322-12.259-.193-18.388 3.228 4.194 11.425 15.42 13.49 18.453 1.098-.194 2.777-.194 3.939 0 0 0-.065-.452-.065-.517-.774-3.742-.516-20.646.065-25.614M491.14 56.699c0-2.775 0-6.388.065-8.775 3.679-.258 8.52.194 8.52.194V44.44c-1.29.064-4.389.58-8.52.258-.065-1.613 0-7.678 0-7.678 2.324-.064 6.39.194 8.972.452v-3.678c-3.033.258-10.07.323-13.75 0 .388 6.774.582 19.936 0 26.324 4.003-.516 11.362-.323 13.815 0 0 0 .194-.838.194-3.677 0 0-6.52.387-9.296.258m-19.688-23.034c-.904 0-3.099 0-3.938.065-.775 0-4.131-.13-4.131-.13.71 3.42.452 22.712 0 26.325 1.807-.387 3.292-.323 5.1 0-.323-2.968-.517-15.034-.517-23.356h2.711c3.357 0 5.681 2.064 5.681 4.903 0 3.355-2.195 5.355-6.39 5.678 0 .968.063 1.871.063 2.774 5.487 0 10.78-3.226 10.78-8.646 0-5.613-4.84-7.613-9.36-7.613m41.443 15.356s2.518-7.42 3.357-10.001c0 0 2.582 7.356 3.55 10.001-2.84.258-4.26.258-6.907 0zm1.743-15.163c-1.29 5.098-6.778 19.872-9.424 26.131 1.742-.258 3.55-.194 4.389-.064.904-2.84 1.807-6.13 2.26-7.42 2.71-.194 5.938-.194 9.166 0 .968 2.645 1.549 4.516 2.453 7.42 1.678-.194 3.356-.13 5.228 0-2.582-6.259-8.65-22.388-9.618-26.13-1.356.193-3.034.193-4.454.063zm54.547 11.227a72.183 72.183 0 0 1-4.197-2.839c-.903-.838-1.355-1.548-1.355-2.193 0-1.936 1.291-3.097 3.357-3.097 2.195 0 3.744 1.483 4.776 2.838.452-1.355 1.291-2.838 1.937-3.742-2.517-1.741-4.648-2.387-6.842-2.387-4.325 0-7.617 2.775-7.617 6.452 0 2.775 1.29 4.194 3.42 5.936.646.516 3.293 2.258 4.39 3.162 1.42 1.225 2.582 2.386 2.518 4 0 2.129-1.42 3.42-3.809 3.42-1.742 0-4.39-1.355-6.068-3.227-.451 1.613-1.033 2.774-1.613 3.871 1.549 1.226 4.84 2.84 7.94 2.84 3.808 0 8.197-2.001 8.197-7.614 0-3.871-2.194-5.613-5.034-7.42m23.238 11.936c-5.939 0-8.07-6.194-8.07-10.323 0-3.806 2.196-9.742 8.006-9.742 5.551 0 8.068 5.613 8.068 9.613 0 5.162-2.71 10.452-8.004 10.452zm-.064-23.356c-6.907 0-12.717 5.871-12.717 12.904 0 7.936 5.422 13.743 12.845 13.743 7.037 0 12.717-6.13 12.717-13.743 0-7.162-5.81-12.904-12.845-12.904zm-41.701 7.033c0-6.259-6.39-6.904-9.102-6.904-1.291 0-2.26.064-3.356.13-1.162.064-3.938-.13-3.938-.13.516 2.903.58 22.001 0 26.195 1.355-.129 3.292-.194 5.035 0-.194-5.742-.581-18-.387-23.033h2.194c2.518 0 5.036 1.483 5.036 4.258 0 2.13-.969 5.032-5.423 4.968 0 1.032.064 1.806.064 2.839 1.485 1.742 5.359 7.29 7.618 10.904 1.355-.194 4.002-.194 5.81.064 0 0-7.166-9.549-9.167-12.13 2.776-.516 5.616-2.968 5.616-7.161" fill="#676D76"/><path d="M439 0h218.525v93.653H439z"/></g><g><path d="M822.456 115.926v-5.557c0-.437.749-.75 1.748-.75.937 0 1.748.313 1.748.75v24.974c0 .437-.749.75-1.748.75-.937 0-1.748-.313-1.748-.75v-19.417zm-74.111 0v-5.557c0-.437.749-.75 1.748-.75.936 0 1.748.313 1.748.75v7.243h3.184c.375 0 .75.749.75 1.748 0 .936-.313 1.748-.75 1.748h-3.184v14.235c0 .437-.75.75-1.748.75-.937 0-1.748-.313-1.748-.75v-19.417zm8.803-4.246v-1.373c0-.438.75-.75 1.748-.75.937 0 1.749.312 1.749.75v2.06c0 .437-.75.75-1.749.75-.936 0-1.748-.313-1.748-.75v-.687zm0 11.863v-5.307c0-.375.75-.75 1.748-.75.937 0 1.749.313 1.749.75v17.045c0 .437-.75.749-1.749.749-.936 0-1.748-.312-1.748-.75v-11.737zm-45.203 10.739v.999c0 .437-.75.749-1.748.749-.937 0-1.749-.312-1.749-.75v-10.988c0-4.308 4.496-6.993 8.866-6.993 4.37 0 8.866 2.685 8.866 6.993v10.989c0 .437-.75.749-1.686.749-.999 0-1.748-.312-1.748-.75v-10.988c0-1.498-1.873-3.559-5.37-3.559-3.496 0-5.369 2.06-5.369 3.56-.062-.063-.062 9.989-.062 9.989zm74.173 0v.999c0 .437-.749.749-1.748.749-.936 0-1.748-.312-1.748-.75v-10.988c0-4.308 4.495-7.055 8.866-7.055 4.37 0 8.866 2.685 8.866 6.993v10.988c0 .375-.75.75-1.749.75-.999 0-1.748-.313-1.748-.75V124.23c0-1.499-1.873-3.56-5.37-3.56-3.496 0-5.369 2.061-5.369 3.56v10.052zm23.788-7.243c-2.997 0-4.245 1.624-4.245 2.435v.812c0 .936 1.186 2.435 3.683 2.435h3.497c2.497 0 3.683-1.499 3.683-2.435v-.812c0-.811-1.248-2.435-4.245-2.435h-2.373zm0-3.434h2.31c1.436 0 2.997.312 4.246 1v-1.187c0-.812-1.56-2.685-5.432-2.685-1.81 0-3.434.188-4.807.874-.375.188-1-.312-1.436-1.186-.438-.812-.5-1.686-.125-1.873 2.122-1.124 4.433-1.249 6.368-1.249 4.12 0 8.866 2.06 8.866 6.119v6.868c0 3.621-3.621 5.869-7.118 5.869h-3.434c-3.496 0-7.117-2.185-7.117-5.87v-.81c0-3.81 4.058-5.87 7.68-5.87zm-29.407 5.432c0 4.308-4.495 7.055-8.866 7.055-4.37 0-8.866-2.684-8.866-7.055v-4.807c0-4.308 4.496-6.993 8.866-6.993 4.37 0 8.866 2.685 8.866 6.993v4.807zm-14.298 0c0 1.499 1.873 3.559 5.37 3.559 3.496 0 5.37-2.06 5.37-3.559v-4.807c0-1.499-1.874-3.56-5.37-3.56-3.497 0-5.37 2.061-5.37 3.56v4.807zm-30.406-1.998c-2.997 0-4.245 1.624-4.245 2.435v.812c0 .936 1.186 2.372 3.683 2.372h3.497c2.497 0 3.683-1.498 3.683-2.372v-.812c0-.811-1.248-2.435-4.245-2.435h-2.373zm0-3.434h2.31c1.436 0 2.935.312 4.246 1v-1.187c0-.812-1.561-2.685-5.432-2.685-1.81 0-3.434.188-4.808.874-.374.188-.998-.312-1.436-1.186-.437-.812-.499-1.686-.124-1.873 2.122-1.124 4.433-1.249 6.368-1.249 4.12 0 8.866 2.06 8.866 6.119v6.868c0 3.621-3.621 5.869-7.118 5.869h-3.496c-3.497 0-7.118-2.185-7.118-5.87v-.81c0-3.81 4.12-5.87 7.742-5.87zm7.368 23.539c.312-.313 1.061 0 1.748.686.687.687.999 1.436.687 1.749l-6.619 6.618 6.868 6.868c.312.312 0 1.061-.686 1.748-.687.687-1.436.999-1.749.687l-6.868-6.868-6.867 6.868c-.313.312-1.062 0-1.749-.687-.686-.687-.999-1.436-.686-1.748l6.867-6.868-6.618-6.618c-.312-.313 0-1.062.687-1.749.687-.686 1.436-.999 1.748-.686l6.618 6.618 6.619-6.618zm82.852.999c.5.187.5.936.124 1.748-.312.811-.874 1.31-1.248 1.186-1.499-.687-2.747-.937-4.37-.937-2.186 0-3.622.5-3.622 1.936 0 .687.312 1.124.999 1.498.312.188.75.375 1.311.562.562.188 1.186.375 1.936.625 3.746 1.248 6.368 2.497 6.368 5.556 0 2.935-2.685 5.432-7.68 5.432-1.997 0-4.682-.686-6.618-1.81l-.749-.375c-.312-.187-.25-.874.187-1.623.375-.75 1-1.187 1.312-1l.499.25c1.623.875 3.31 1.437 5.12 1.437 1.998 0 4.308-.562 4.308-2.31 0-1.312-1.249-1.811-5.432-3.247-3.496-1.186-5.245-2.747-5.245-5.245 0-2.997 2.997-4.932 6.993-4.932 2.747 0 4.058.437 5.807 1.249zm-16.171 0c.5.187.5.936.125 1.748-.313.811-.874 1.31-1.249 1.186-1.498-.687-2.747-.937-4.37-.937-2.186 0-3.622.5-3.622 1.936 0 .687.312 1.124 1 1.498.311.188.748.375 1.31.562.562.188 1.187.375 1.936.625 3.808 1.248 6.368 2.497 6.368 5.556 0 2.935-2.684 5.432-7.68 5.432-1.997 0-4.682-.686-6.617-1.81l-.75-.375c-.312-.187-.25-.874.188-1.623.374-.75.999-1.187 1.31-1l.5.25c1.624.875 3.31 1.437 5.12 1.437 1.998 0 4.308-.562 4.308-2.31 0-1.312-1.249-1.811-5.432-3.247-3.496-1.186-5.244-2.747-5.244-5.245 0-2.997 2.996-4.932 6.992-4.932 2.685 0 4.059.437 5.807 1.249zm-33.59 2.434c-3.872 0-5.432 1.874-5.432 2.685v11.676c0 .437-.75.749-1.749.749-.999 0-1.748-.312-1.748-.75V147.83c0-.374.75-.749 1.748-.749.937 0 1.749.312 1.749.75v.749c1.623-1.124 3.558-1.499 5.431-1.499.438 0 .75.75.75 1.686 0 1.061-.375 1.81-.75 1.81zm-11.114 8.055c0 4.308-4.495 7.055-8.866 7.055-1.873 0-3.809-.5-5.37-1.436v8.366c0 .375-.749.75-1.748.75-.936 0-1.748-.313-1.748-.75v-18.73c0-4.308 4.496-6.993 8.866-6.993 4.37 0 8.866 2.685 8.866 6.993v4.745zm-14.235 0c0 1.498 1.873 3.559 5.37 3.559 3.495 0 5.369-2.06 5.369-3.56v-4.744c0-1.499-1.874-3.56-5.37-3.56s-5.37 2.061-5.37 3.56v4.745zm40.02-6.181c-.748-1.124-2.434-2.123-4.87-2.123-3.496 0-5.369 2.06-5.369 3.559v2.31l10.49-3.497-.25-.25zm-13.797 6.306v-4.808c0-4.308 4.495-6.993 8.865-6.993s8.866 2.685 8.866 6.993c0 .5-.5 1.436-1.186 1.623l-12.737 4.246.187.312c.75 1.124 2.435 2.123 4.87 2.123 2.685 0 4.808-1.374 5.62-2.872l.374-.687c.188-.374 1.062-.312 1.873.187.812.437 1.374 1.124 1.187 1.499l-.25.562c-1.561 2.934-4.933 4.87-8.741 4.87-4.37-.125-8.804-2.81-8.928-7.055zm-68.867 0v-4.808c0-4.308 4.495-6.993 8.866-6.993 4.37 0 8.866 2.685 8.866 6.993 0 .5-.5 1.436-1.186 1.623l-12.737 4.246.187.312c.75 1.124 2.435 2.123 4.87 2.123 2.685 0 4.807-1.374 5.62-2.872l.374-.624c.187-.375.999-.313 1.873.124.811.437 1.373 1.124 1.186 1.499l-.25.562c-1.56 2.934-4.932 4.87-8.74 4.87-4.371-.125-8.866-2.81-8.929-7.055zm13.736-6.306c-.75-1.124-2.435-2.123-4.87-2.123-3.496 0-5.37 2.06-5.37 3.559v2.31l10.49-3.497-.25-.25z" fill="#696C76"/><path d="M658.271 94.062h218.525v93.653H658.271z"/></g><g><path d="M592.686 135.9c-1.072 0-1.75.508-2.144 1.637l-3.048 8.52c-.169.395-.282 1.016 0 1.468.226.338.62.451 1.185.451h4.063c1.072 0 1.806-.564 2.2-1.636l3.048-8.52c.226-.622.226-1.13 0-1.468-.225-.339-.62-.508-1.185-.508h-4.12v.056zm-13.882 13.994c-.507-.733-.452-1.974.226-3.836l2.821-7.844c1.298-3.612 3.217-5.079 6.716-5.079h15.01c1.58 0 2.595.339 3.047.96.508.733.451 1.975-.226 3.837l-2.822 7.843c-1.297 3.612-3.216 5.079-6.714 5.079h-15.01c-1.58 0-2.597-.339-3.048-.96zm-62.974-17.436c-.396-.564-.79-.677-1.468-.677h-5.53a.423.423 0 0 0-.395.282l-1.75 4.91c-.056.112 0 .282.057.394.056.113.226.17.338.17h5.361c1.355 0 2.144-.565 2.596-1.693l.79-2.144c.282-.621.17-1.016 0-1.242zm-3.217 10.383c.169-.451.338-1.072.056-1.467-.282-.395-.79-.451-1.354-.451h-5.812a.424.424 0 0 0-.396.282l-2.088 5.756c-.056.112 0 .282.057.394.056.113.226.17.338.17h5.813c1.242 0 1.862-.452 2.257-1.637.057-.056 1.129-3.104 1.129-3.047zm-12.471-11.963c.564-1.41 1.975-2.483 3.611-2.483h15.744c2.37 0 3.78.395 4.402 1.298.507.677.45 1.75-.057 3.217l-.903 2.257c-1.072 2.878-2.031 3.216-5.305 3.498-.225 0-.338.17-.394.339v.056c0 .226.112.395.339.452l1.467.226c1.015.225 1.693.564 2.03 1.072.509.677.452 1.749-.055 3.216l-.79 2.088c-1.185 3.273-3.669 4.74-7.957 4.74l-17.55.057c-1.015 0-1.58-.847-1.184-1.863l6.602-18.17zm71.552 1.58c-.395-.564-.79-.677-1.467-.677h-5.53a.424.424 0 0 0-.395.282l-1.75 4.91c-.056.112 0 .282.057.394.056.113.226.17.338.17h5.362c1.354 0 2.144-.565 2.595-1.693l.79-2.144c.282-.621.113-1.016 0-1.242zm-3.216 10.383c.169-.451.338-1.072.056-1.467-.282-.395-.79-.451-1.355-.451h-5.868a.424.424 0 0 0-.395.282l-2.088 5.756c-.056.112 0 .282.056.394.057.113.227.17.339.17h5.812c1.242 0 1.862-.452 2.258-1.637.113-.056 1.185-3.104 1.185-3.047zm-12.528-11.963c.565-1.41 1.975-2.483 3.612-2.483h15.744c2.37 0 3.78.395 4.401 1.298.508.677.451 1.75-.056 3.217l-.903 2.257c-1.072 2.878-2.032 3.216-5.304 3.498-.17 0-.339.17-.396.339v.056c0 .226.113.395.34.452l1.466.226c1.016.225 1.693.564 2.032 1.072.508.677.451 1.749-.057 3.216l-.79 2.088c-1.185 3.273-3.668 4.74-7.957 4.74l-17.549.057c-1.016 0-1.58-.847-1.185-1.863l6.602-18.17zm-17.718 15.518c-.396 1.016-1.13 1.637-2.088 1.637h-3.5c-.563 0-1.015-.17-1.24-.508-.226-.339-.283-.79-.057-1.41l4.289-11.964.056-.282a.868.868 0 0 0-.847-.847h-4.514c-1.693 0-3.16 1.073-3.668 2.596l-3.273 9.198c-.733 2.088-.79 3.724-.112 4.74.62.847 1.805 1.298 3.499 1.298h6.545c1.354 0 2.257-.508 2.934-1.636.057-.113.226-.17.339-.17h.056c.113 0 .283.057.34.17.056.112.112.225.056.394l-1.355 3.838c-.508 1.354-1.41 1.636-2.595 1.636h-10.722c-.79 0-1.41.62-1.41 1.41 0 .791.62 1.411 1.41 1.411h15.292c3.33 0 5.587-1.692 6.828-5.135 0 0 6.659-18.565 6.603-18.565l.056-.282a.868.868 0 0 0-.847-.846h-4.514c-1.693 0-3.16 1.072-3.668 2.595l-3.893 10.722m83.402-8.916c.056.113.17.17.282.226.113.057.226 0 .339-.057l6.207-4.288c.282-.17.62-.282.96-.282h1.862c.45 0 .846.395.846.846 0 .282-.113.564-.395.677l-8.464 5.7a.455.455 0 0 0-.17.508l4.007 8.859a.715.715 0 0 1 .056.339.868.868 0 0 1-.846.846h-9.142c-.338 0-.62-.17-.79-.508l-1.919-4.288c-.056-.113-.169-.17-.282-.226-.112-.057-.225 0-.338.056l-6.94 4.684a1.912 1.912 0 0 1-.96.282h-1.75a.868.868 0 0 1-.846-.846c0-.283.113-.565.395-.678l9.142-6.094a.456.456 0 0 0 .169-.508l-3.781-8.52c-.056-.113-.056-.226-.056-.34 0-.45.394-.846.846-.846h9.142c.338 0 .62.17.79.508l1.636 3.95m-148.465 15.744c-2.089.451-3.781-.903-3.781-2.99v-11.738c0-2.314 1.918-4.401 4.232-4.683l10.834-1.129c2.088-.226 3.668 1.298 3.499 3.33l-.903 10.947c-.17 1.861-1.805 3.667-3.724 4.119l-10.157 2.144" fill="#676D76"/><path d="M463.575 148.146c-.959-1.298-1.75-3.5-1.805-5.023l-.452-11.85c-.056-1.072.79-1.241 1.919-.451l1.975 1.467c1.241.96 2.257 2.99 2.257 4.514v14.39c0 1.185-.96.846-2.2-.79l-1.694-2.257m8.634-16.026c-3.611.225-5.192-.903-5.812-1.355-.62-.395-.96-.62-2.257-1.58-1.298-.96-.508-1.241 1.805-1.41 1.242-.113 6.152-.34 8.634-.508 2.483-.17 4.12-.113 5.643.508 1.524.62 2.145.846 3.724 1.467 1.58.62 1.919 1.523-.056 1.693l-11.681 1.185" fill="#737A82"/><path d="M438.847 94.062h218.525v93.653H438.847z"/></g></g></svg>