<svg width="214" height="95" viewBox="0 0 214 95" xmlns="http://www.w3.org/2000/svg"><title>gbl-sprite</title><g fill="none" fill-rule="evenodd"><path d="M14.004 38.374c1.992-.974 3 0 3 1.467 0 1.96-2.836 6.36-3.832 6.36-1.008 0-1.78-3.884-2.168-6.36C10.604 37.4 10.5 33 7.5 33S0 38.65 0 38.65l.996 1.19c2.004-1.466 2.613-1.168 3 0l3 9.293c.48 1.467 1.5 4.4 4.277 4.4C14.496 53.533 24 43.267 24 36.965 24 34.57 22.5 33 20.496 33c-1.992 0-5.496 1.467-6.492 5.374zM48.928 36.32c1.117-.657 1.955-1.705 2.348-2.94-1.015.604-2.17 1.046-3.364 1.286C46.91 33.656 45.525 33 43.99 33c-2.946 0-5.32 2.36-5.32 5.288 0 .416.025.845.114 1.224-4.418-.24-8.328-2.234-10.98-5.44-.446.783-.725 1.59-.725 2.575 0 1.818.94 3.433 2.386 4.392-.876-.026-1.69-.266-2.412-.657v.063c0 2.574 1.84 4.72 4.278 5.2-.457.126-.94.19-1.422.19-.33 0-.66-.04-.99-.102.66 2.095 2.653 3.66 4.964 3.685-1.803 1.438-4.126 2.51-6.614 2.51-.432 0-.85-.025-1.27-.088C28.35 53.344 31.18 54 34.188 54c9.8 0 15.16-8.077 15.16-15.08v-.695c1.027-.745 1.928-1.666 2.652-2.75-.965.428-1.98.718-3.072.844zM53 44.677C53 50.105 56.672 54.7 61.625 56v-2.35c-3.616-1.105-4.582-3.887-4.627-4.002-.034-.136.023-.296.157-.376.1-.08.26-.057.37.057.023 0 1.966 1.938 4.37 1.892.18-.49.47-.98.932-1.334-3.09-.48-5.514-2.315-5.514-5.21 0-1.187.482-2.384 1.336-3.354-.27-1.106-.383-2.463.1-3.455 1.224.102 2.426.73 3.324 1.288.753-.183 1.55-.32 2.426-.32.876 0 1.673.137 2.426.32.898-.56 2.1-1.186 3.324-1.29.483.993.348 2.35.1 3.456.855.97 1.338 2.167 1.338 3.353 0 2.896-2.426 4.732-5.515 5.21.966.765 1.202 2.11 1.202 3.057V56C72.328 54.7 76 50.105 76 44.677 76 38.245 70.834 33 64.5 33 58.132 33 53 38.245 53 44.677z" fill="#ED4F7E"/><path d="M188 40.524c0-.223-.176-.4-.4-.4h-18.2c-.224 0-.4.177-.4.4v3.952c0 .223.176.4.4.4h18.2c.224 0 .4-.177.4-.4v-3.952zm0-7.125c0-.224-.176-.4-.4-.4h-18.2c-.224 0-.4.176-.4.4v3.95c0 .224.176.4.4.4h18.2c.224 0 .4-.176.4-.4V33.4zm0 14.25c0-.224-.176-.4-.4-.4h-18.2c-.224 0-.4.176-.4.4v3.95c0 .224.176.4.4.4h18.2c.224 0 .4-.176.4-.4v-3.95zM202.936 41.5l4.96-4.96c.066-.085.104-.18.104-.293 0-.114-.038-.2-.104-.284l-2.86-2.86c-.084-.065-.17-.103-.283-.103-.113 0-.208.038-.293.104l-4.96 4.96-4.96-4.96c-.085-.066-.18-.104-.293-.104-.114 0-.2.038-.284.104l-2.86 2.86c-.065.084-.103.17-.103.283 0 .113.038.208.104.293l4.96 4.96-4.96 4.96c-.066.085-.104.18-.104.293 0 .114.038.2.104.284l2.86 2.86c.084.065.17.103.283.103.113 0 .208-.038.293-.104l4.96-4.96 4.96 4.96c.085.066.18.104.293.104.114 0 .2-.038.284-.104l2.86-2.86c.065-.084.103-.17.103-.283 0-.113-.038-.208-.104-.293l-4.96-4.96z" fill="#6D7483"/><path d="M90.5 33C84.162 33 79 38.533 79 45.267c0 9.2 9.703 18.766 9.703 18.766 1.307 1.234 2.09 1.334 3.496 0 0 0 9.8-9.566 9.8-18.766C102 38.533 96.838 33 90.5 33zm0 17.267c-3.006 0-5.423-2.467-5.423-5.534 0-3.066 2.417-5.566 5.423-5.566 3.006 0 5.456 2.5 5.456 5.566 0 3.067-2.45 5.534-5.456 5.534zM121.795 53.722c-.354.356-.87.42-1.288.162-1.417-.873-2.802-1.972-4.09-3.265-1.29-1.262-2.352-2.652-3.22-4.107-.26-.42-.194-.938.128-1.293l3.06-3.04c.225-.225.386-.516.386-.84 0-.226-.064-.387-.16-.58l-3.93-7.178c-.193-.356-.515-.582-.933-.582-1.74.162-3.704.744-4.832 1.875-3.993 4.01-1.513 13.06 5.315 19.946 4.573 4.592 10.048 7.146 14.396 7.146 2.126 0 3.994-.647 5.314-1.972 1.16-1.132 1.9-2.91 2.03-4.688 0-.42-.226-.776-.58-.97l-7.15-3.62s-.355-.194-.548-.194c-.354 0-.644.16-.837.42l-3.06 2.78zM155.74 49.406c-1.198.912-2.72 1.302-4.24 1.302s-3.042-.39-4.24-1.302L137 41.496v14.518c0 .52.388.944.874 1.01 4.5.65 9.095.976 13.626.976 4.53 0 9.127-.326 13.594-.977.518-.065.906-.488.906-1.01V41.497l-10.26 7.91zm-17.607-11.198l11.037 8.4c.615.487 1.456.715 2.33.715.874 0 1.715-.228 2.33-.716l11.037-8.4c.777-.747 1.036-1.366 1.133-1.724v-1.497c0-.52-.388-.944-.906-1.01-4.467-.65-9.03-.976-13.594-.976s-9.127.326-13.626.977c-.486.065-.874.488-.874 1.01v1.496c.097.358.356.977 1.133 1.725z" fill="#000"/><path d="M10.048 71.573l-.593-.84C8.565 69.515 7.46 69 6.248 69c-1.186 0-2.452.515-3.61 1.38-2.4 1.708-3.53 4.2-1.807 6.61l.594.84c1.806-3.197 4.932-5.526 8.624-6.257zm13.528 6.256l.593-.84c1.723-2.41.59-4.902-1.807-6.61-1.186-.865-2.425-1.38-3.61-1.38-1.214 0-2.346.515-3.208 1.733l-.593.84c3.692.73 6.818 3.06 8.624 6.256zm-.297 6.337c0-5.986-4.824-10.834-10.78-10.834-5.956 0-10.78 4.848-10.78 10.834C1.72 90.152 6.545 95 12.5 95c5.956 0 10.78-4.848 10.78-10.833zM12.5 91.67c-1.994 0-3.88-.76-5.282-2.195-1.428-1.408-2.183-3.304-2.183-5.308 0-2.005.755-3.9 2.183-5.31 1.4-1.407 3.288-2.192 5.282-2.192 1.994 0 3.88.785 5.282 2.193 1.4 1.41 2.183 3.304 2.183 5.31 0 2.003-.782 3.9-2.183 5.307-1.4 1.435-3.288 2.194-5.282 2.194zm1.078-11.837c-.027-.54-.485-1.002-1.024-1.03-.593-.026-1.105.434-1.132 1.03l-.19 4.47-1.75 3.222c-.243.46-.108 1.083.35 1.38.485.353 1.16.218 1.482-.27l2.29-3.304c.136-.188.19-.432.19-.676l-.216-4.82zM53.052 76.355c-.162-.782-.867-1.32-1.68-1.32h-3.44v-3.826c0-.836-.595-1.537-1.407-1.698C44.71 69.162 42.842 69 41 69c-1.87 0-3.71.162-5.525.512-.84.16-1.408.862-1.408 1.697v3.824h-3.44c-.812 0-1.517.54-1.706 1.32-.595 2.587-.92 5.146-.92 7.732 0 2.586.325 5.146.92 7.813.163.7.732 1.21 1.436 1.32 3.52.51 7.096.78 10.644.78s7.123-.27 10.644-.78c.704-.11 1.273-.62 1.435-1.32.595-2.668.92-5.228.92-7.814 0-2.586-.325-5.145-.948-7.73zm-11.808 9.132L39.998 89.5c-.054.217-.217.405-.406.513-.136.08-.27.108-.407.108-.108 0-.19-.026-.27-.026L32.17 88.02c-.433-.135-.703-.62-.568-1.078l1.246-4.04c.08-.217.244-.405.433-.513.218-.11.435-.136.65-.055l6.745 2.074c.46.134.73.62.57 1.077zm3.223-10.453h-6.934v-2.45c2.6-.297 4.334-.297 6.934 0v2.45zm3.466 9.483c-1.435 0-2.6-1.158-2.6-2.586 0-1.427 1.165-2.585 2.6-2.585 1.436 0 2.6 1.158 2.6 2.586 0 1.43-1.164 2.587-2.6 2.587zM75.768 69c-1.197 0-2.367.833-2.966 2.5-.87 2.318-1.77 7.5-1.77 10 0 1.745.98 2.682 2.07 3.073-.49 2.526-.98 5.156-.98 6.927 0 1.667 1.224 2.5 2.966 2.5C76.83 94 78 93.167 78 91.5v-20c0-1.458-1.007-2.5-2.232-2.5zm-7.348 8.333l-.87-6.77c-.055-.417-.436-.73-.87-.73-.49 0-.872.365-.872.834V76.5h-1.742v-5.833c0-.47-.38-.834-.87-.834s-.872.365-.872.834V76.5h-1.74v-5.833c0-.417-.3-.782-.736-.834-.49-.052-.925.287-.98.73l-.844 6.796c-.136 1.015.218 2.994 3.05 3.932-.41 2.838-1.008 7.317-1.008 10.052 0 1.38 1.415 2.656 3.156 2.656 1.742 0 3.13-1.276 3.13-2.656 0-2.735-.57-7.214-1.007-10.052 2.667-.86 3.212-2.76 3.075-3.96zM101.884 73.412c.333 0 .694-.137.944-.385l1.776-1.762c.528-.523.528-1.35 0-1.873-.527-.523-1.36-.523-1.887 0l-1.777 1.763c-.528.523-.528 1.35 0 1.872.25.248.61.385.944.385zm-17.768 0c.333 0 .694-.137.944-.385.528-.523.528-1.35 0-1.872l-1.777-1.763c-.527-.523-1.36-.523-1.887 0-.528.524-.528 1.35 0 1.873l1.776 1.762c.25.248.61.385.944.385zm12.55 14.54c.026-.33.054-.524.054-.524.222-1.377.86-2.396 2.25-4.103 1.36-1.707 2.025-3.084 2.025-5.066 0-4.297-3.498-7.93-7.995-7.93s-7.995 3.633-7.995 7.93c0 1.98.666 3.358 2.026 5.065 1.362 1.707 2 2.726 2.25 4.103 0 0 0 .193.028.523h7.357zm6.994-.442c.334 0 .695-.137.944-.385.528-.523.528-1.35 0-1.872l-1.776-1.763c-.528-.523-1.36-.523-1.888 0-.528.524-.528 1.35 0 1.873l1.777 1.762c.25.248.61.385.943.385zm-21.32 0c.333 0 .694-.137.943-.385l1.777-1.762c.528-.523.528-1.35 0-1.873-.527-.523-1.36-.523-1.888 0l-1.776 1.763c-.528.523-.528 1.35 0 1.872.25.248.61.385.944.385zM93 95c1.805 0 2.47-.91 2.998-2.616.195-.66.36-1.707.472-2.67h-6.968c.11.963.278 2.01.5 2.67C90.502 94.09 91.195 95 93 95zM111.423 76.8c-.35-2.194 1.536-3.494 2.992-3.494.188 0 .404.027.647.082.458.108.943-.055 1.24-.407.78-.892 1.94-1.407 3.153-1.407 2.29 0 4.178 1.787 4.178 3.954 0 .73-.054 1.273-.054 1.273h2.45c.082-.406.082-.84.082-1.273 0-3.602-2.938-6.527-6.657-6.527-1.698 0-3.342.623-4.555 1.733-3.53-.298-6.28 2.682-6.01 6.067h2.533zM122.608 95c.7 0 1.32-.406 1.59-1.056.135-.325.243-.65.378-1.002 4.097-.542 8.167-3.386 8.41-7.72.107-1.976-.378-3.574-1.51-4.766-1.267-1.354-3.234-1.923-5.364-1.923h-8.625v2.6c0 2.6.863 3.467.863 5.2 0 3.684-5.175 3.684-5.175 0 0-1.733.862-2.6.862-5.2v-2.6h-3.88c-.81 0-1.537.542-1.7 1.327-.24 1.084-.457 2.194-.457 3.305 0 3.168.404 7.204 1.914 10.78.27.65.89 1.055 1.59 1.055h11.104zm3.02-5.85c.565-2.79.565-5.173.323-7.258 1.59-.054 3.855.108 3.693 3.14-.108 2.06-2.075 3.44-4.016 4.118zM153.194 75.072c.08-.352.108-.515.108-.895 0-2.873-2.33-5.177-5.203-5.177s-5.203 2.304-5.203 5.177c0 .38.054.57.108.895 3.333-1.437 7.072-1.355 10.19 0zm8.48 6.912c-.026-.027-3.17-2.765-4.037-7.942-.054-.352-.352-.65-.704-.705-.38-.054-.732.11-.92.434l-2.06 3.796c-1.627-1.03-3.66-1.654-5.827-1.654-3.278 0-6.178 1.383-7.94 3.497.137-.977-.514-1.356-.785-1.546-.866-.542-1.977-.298-2.52.542-1.083 1.654-1.19 3.985-.188 5.476.596.867 1.192 1.22 1.842 1.49.27 1.52 1.003 2.9 2.087 4.013l-.785 2.71c-.27.922.298 1.898 1.22 2.17l2.573.676c.84.218 1.707-.215 2.033-1 .028-.083.488-1.71.488-1.71.57.11 1.247.163 1.95.163.868.028 1.817-.08 2.82-.325 0 0 .433 1.654.433 1.68.272.895 1.193 1.437 2.087 1.193l2.548-.65c.948-.216 1.49-1.192 1.273-2.113l-.488-1.762c.136-.055.298-.11.434-.19 3.577-1.654 4.633-4.093 4.715-4.23.026-.107.08-.243.08-.35v-3.01c0-.244-.135-.488-.325-.65zm-4.768.868c0 1.03-.813 1.843-1.816 1.843-1.002 0-1.842-.813-1.842-1.843 0-1.003.84-1.816 1.842-1.816 1.003 0 1.816.813 1.816 1.816zM193.606 69.1c-.54-.134-1.137-.134-1.68 0-.784.19-1.326.865-1.326 1.675v1.728c-.38-.027-.758-.054-1.137.027-.84.135-1.463.837-1.463 1.7v8.613c0 .864.623 1.512 1.463 1.62.243.054.46.08.704.08.135 0 .298-.026.433-.053v1.81c0 .81.542 1.403 1.327 1.592.27.08.57.108.84.108s.568-.027.84-.108c.785-.19 1.326-.783 1.326-1.593V70.774c0-.81-.54-1.485-1.327-1.674zm3.06 11.988h8.667v-5.183h-8.666v5.183zm13.407 6.804c.785-.19 1.327-.783 1.327-1.593v-1.81c.135.027.298.054.433.054.244 0 .46-.027.704-.08.84-.11 1.463-.757 1.463-1.62V74.23c0-.863-.623-1.565-1.463-1.7-.38-.08-.758-.054-1.137-.027v-1.728c0-.81-.542-1.485-1.327-1.674-.542-.134-1.138-.134-1.68 0-.785.19-1.326.865-1.326 1.675V86.3c0 .81.54 1.403 1.327 1.592.27.08.57.108.84.108s.568-.027.84-.108zM174.5 73.312c-1.325-1.31-2.345-2.32-2.65-2.623-1.734-1.716-4.282-1.816-6.117-1.514-2.04.303-2.04 1.614-1.223 2.42l5.912 5.75c-1.325 1.21-2.446 2.32-3.058 2.926-.918.908-2.345 2.522-2.447 4.237-.204 2.924 2.14 8.07 4.894 9.582 1.326.706 3.263.908 4.69.908 1.427 0 3.364-.303 4.69-.908 2.752-1.513 5.097-6.557 4.893-9.583-.102-1.716-1.63-3.43-2.447-4.238-.306-.302-.714-.706-1.12-1.11l-4.08 4.137 2.142 2.117c1.02 1.01.61 2.22.61 2.925 0 0-2.14.706-4.688.706-2.55 0-4.69-.706-4.69-.706 0-.706-.407-1.916.612-2.925 1.326-1.31 13.253-13.114 14.068-13.92.816-.808.816-2.018-1.223-2.422-1.835-.2-4.383-.1-6.116 1.614l-2.65 2.622z" fill="#FFF"/><g fill="#FFF"><path d="M8.485 10.834c-.29-.816-.903-1.254-1.866-1.254-.963 0-1.896.41-2.596 1.138v7.262c.525.437 1.37.875 2.158.875 1.924 0 2.683-1.313 2.683-4.725 0-1.43-.117-2.566-.38-3.296zm2.567 9.42c-1.02 1.08-2.362 1.692-3.995 1.692-1.167 0-2.275-.292-3.12-.788.058.35.058.788.058 1.225v4.667l-3.762.99V10.777c0-1.954-.03-2.508-.233-3.762L3.47 6.4c.146.527.233.935.262 1.4.67-.815 2.158-1.4 3.675-1.4 1.05 0 2.128.352 2.945.906 1.604 1.08 2.77 3.003 2.77 6.445 0 3.21-.525 4.842-2.07 6.504zM23.444 12.35c0-1.107-.116-1.69-.466-2.245-.38-.583-.933-.874-1.72-.874-1.488 0-2.333 1.167-2.333 3.238v.058h4.52v-.175zm-4.578 3.034v.117c0 2.305 1.138 3.617 3.15 3.617 1.34 0 2.595-.496 3.79-1.487l1.517 2.333c-1.72 1.4-3.53 2.07-5.628 2.07-4.287 0-7.057-3.032-7.057-7.728 0-2.683.554-4.462 1.866-5.92 1.225-1.37 2.712-2.013 4.695-2.013 1.72 0 3.352.584 4.315 1.575 1.37 1.4 1.983 3.412 1.983 6.533v.904h-8.632zM38.1 11.447c-.292-1.283-1.108-1.896-2.13-1.896-1.02 0-1.72.643-2.215 1.197v6.883c.525.466 1.137.962 2.187.962.962 0 1.575-.38 1.895-1.166.35-.817.438-1.604.438-3.442 0-1.34-.03-1.895-.175-2.537zm1.837 9.303c-1.02.817-2.04 1.167-3.266 1.167-1.457 0-2.478-.438-3.323-1.37-.117.524-.146.67-.408 1.078h-3.5c.29-.67.378-1.108.378-3.18V4.623c0-1.837-.058-2.828-.262-3.674L33.55.015c.118 1.02.147 1.633.147 2.654v3.527c0 .438-.03 1.08-.088 1.313.757-.817 1.807-1.196 3.178-1.196 3.645 0 5.92 2.917 5.92 7.583 0 3.033-.934 5.395-2.77 6.853zM53.444 11.447c-.292-1.283-1.108-1.896-2.13-1.896-1.02 0-1.72.643-2.215 1.197v6.883c.524.466 1.136.962 2.186.962.962 0 1.575-.38 1.895-1.166.35-.817.44-1.604.44-3.442 0-1.34-.03-1.895-.176-2.537zm1.837 9.303c-1.02.817-2.04 1.167-3.265 1.167-1.458 0-2.48-.438-3.324-1.37-.116.524-.145.67-.408 1.078h-3.5c.293-.67.38-1.108.38-3.18V4.623c0-1.837-.058-2.828-.262-3.674l3.995-.933c.116 1.02.146 1.633.146 2.654v3.527c0 .438-.03 1.08-.087 1.313.758-.817 1.808-1.196 3.18-1.196 3.643 0 5.918 2.917 5.918 7.583 0 3.033-.932 5.395-2.77 6.853zM64.294 21.975c-1.662 0-3.004-.787-3.47-2.04-.292-.76-.35-1.226-.35-3.355V5.44c0-1.955-.058-3.15-.204-4.492l3.995-.904c.145.816.204 1.78.204 3.88v11.635c0 2.566.028 2.915.26 3.324.147.262.468.408.79.408.144 0 .232 0 .436-.058l.67 2.333c-.67.262-1.487.408-2.332.408M75.844 12.35c0-1.107-.117-1.69-.467-2.245-.38-.583-.933-.874-1.72-.874-1.487 0-2.333 1.167-2.333 3.238v.058h4.52v-.175zm-4.578 3.034v.117c0 2.305 1.137 3.617 3.15 3.617 1.34 0 2.594-.496 3.79-1.487l1.516 2.333c-1.72 1.4-3.528 2.07-5.628 2.07-4.286 0-7.057-3.032-7.057-7.728 0-2.683.554-4.462 1.867-5.92 1.224-1.37 2.71-2.013 4.694-2.013 1.72 0 3.354.584 4.316 1.575 1.37 1.4 1.983 3.412 1.983 6.533v.904h-8.63zM98.034 27.147c-2.07 0-3.762-1.225-3.762-4.258v-5.017c0-1.808-2.42-2.013-3.15-2.013v-3.324c.73 0 3.15-.204 3.15-2.012V5.478c0-3.033 1.604-4.23 3.762-4.23h3.062v3.326h-1.43c-1.778 0-1.894 1.08-1.894 1.866v4.696c0 2.712-1.692 2.916-2.917 3.033v.057c1.225.088 2.917.292 2.917 3.004v4.726c0 .787.116 1.866 1.895 1.866h1.43v3.325h-3.063M112.06 21.042c-1.05.612-2.217.933-3.645.933-4.112 0-6.503-2.858-6.503-7.7 0-3.44 1.312-5.715 3.062-6.91.99-.672 2.45-1.11 3.703-1.11.99 0 2.07.234 2.887.672.554.29.816.495 1.458 1.05l-1.896 2.566c-.787-.73-1.632-1.167-2.36-1.167-1.75 0-2.54 1.517-2.54 5.017 0 1.953.264 3.12.76 3.762.408.525 1.08.846 1.75.846.903 0 1.72-.38 2.682-1.224l.233-.205 1.78 2.364c-.583.583-.846.787-1.37 1.108M122.956 10.076c-.378-.496-.99-.787-1.69-.787-.934 0-1.692.582-2.013 1.515-.262.788-.408 1.838-.408 3.325 0 1.72.175 3.004.496 3.762.35.817 1.225 1.225 1.984 1.225 1.69 0 2.42-1.516 2.42-5.045 0-2.013-.263-3.325-.788-3.996zm3.18 9.8c-1.138 1.282-2.625 2.07-4.93 2.07-4.052 0-6.706-3.033-6.706-7.73 0-4.694 2.683-7.815 6.707-7.815 2.128 0 3.79.73 5.074 2.247 1.196 1.4 1.72 3.033 1.72 5.454 0 2.567-.582 4.317-1.865 5.775zM139.13 10.63c-.727-.64-1.427-.962-2.127-.962-1.75 0-2.508 1.458-2.508 4.783 0 3.21.67 4.26 2.712 4.26.73 0 1.545-.497 1.924-.964V10.63zm.876 10.995c-.116-.233-.175-.467-.233-.875-.962.846-2.1 1.254-3.44 1.254-3.79 0-6.183-2.945-6.183-7.582 0-4.667 2.596-7.875 6.386-7.875 1.08 0 1.925.263 2.654.846-.06-.32-.117-1.34-.117-2.216V.044l3.88.612V16.17c0 3.676.29 4.872.552 5.455h-3.5zM154.74 12.35c0-1.107-.116-1.69-.466-2.245-.38-.583-.933-.874-1.72-.874-1.488 0-2.333 1.167-2.333 3.238v.058h4.52v-.175zm-4.578 3.034v.117c0 2.305 1.137 3.617 3.15 3.617 1.34 0 2.595-.496 3.79-1.487l1.517 2.333c-1.722 1.4-3.53 2.07-5.63 2.07-4.286 0-7.056-3.032-7.056-7.728 0-2.683.554-4.462 1.866-5.92 1.225-1.37 2.712-2.013 4.695-2.013 1.72 0 3.353.584 4.316 1.575 1.37 1.4 1.983 3.412 1.983 6.533v.904h-8.63zM166.754 17.873v5.045c0 3.033-1.604 4.23-3.762 4.23h-3.06V23.82h1.427c1.778 0 1.895-1.08 1.895-1.866V17.26c0-2.712 1.69-2.916 2.916-3.033v-.058c-1.224-.09-2.915-.293-2.915-3.005V6.44c0-.787-.117-1.866-1.896-1.866h-1.43V1.25h3.15c1.983 0 3.674 1.224 3.674 4.257v5.017c0 1.808 2.333 2.012 3.15 2.012v3.324c-.817 0-3.15.205-3.15 2.013"/></g></g></svg>