<?xml version="1.0" encoding="UTF-8" standalone="no"?>
<svg width="324px" height="95px" viewBox="0 0 324 95" version="1.1" xmlns="http://www.w3.org/2000/svg" xmlns:xlink="http://www.w3.org/1999/xlink">
    <!-- Generator: Sketch 3.7.2 (28276) - http://www.bohemiancoding.com/sketch -->
    <title>gbl-sprite</title>
    <desc>Created with Sketch.</desc>
    <defs></defs>
    <g id="Global-Sprite" stroke="none" stroke-width="1" fill="none" fill-rule="evenodd">
        <g id="gbl-sprite">
            <path d="M14.0039062,38.3739583 C15.9960938,37.4 17.0039062,38.3739583 17.0039062,39.840625 C17.0039062,41.8 14.1679688,46.2 13.171875,46.2 C12.1640625,46.2 11.390625,42.315625 11.0039062,39.840625 C10.6054688,37.4 10.5,33 7.5,33 C4.5,33 0,38.6489583 0,38.6489583 L0.99609375,39.840625 C3,38.3739583 3.609375,38.671875 3.99609375,39.840625 L6.99609375,49.1333333 C7.4765625,50.6 8.49609375,53.5333333 11.2734375,53.5333333 C14.4960938,53.5333333 24,43.2666667 24,36.9645833 C24,34.5697917 22.5,33 20.4960938,33 C18.5039062,33 15,34.4666667 14.0039062,38.3739583 L14.0039062,38.3739583 Z" id="vimeo-pink" fill="#ED4F7E"></path>
            <path d="M48.9277344,36.3191106 C50.0449219,35.6628606 50.8828125,34.6153846 51.2763672,33.3786058 C50.2607422,33.984375 49.1054688,34.4260817 47.9121094,34.6658654 C46.9091797,33.65625 45.5253906,33 43.9892578,33 C41.0439453,33 38.6699219,35.359976 38.6699219,38.2878606 C38.6699219,38.7043269 38.6953125,39.1334135 38.7841797,39.5120192 C34.3662109,39.2722356 30.4560547,37.2782452 27.8027344,34.0727163 C27.3583984,34.8551683 27.0791016,35.6628606 27.0791016,36.6472356 C27.0791016,38.4645433 28.0185547,40.0799279 29.4658203,41.0390625 C28.5898438,41.0138221 27.7773438,40.7740385 27.0537109,40.3828125 L27.0537109,40.4459135 C27.0537109,43.0204327 28.8945312,45.1658654 31.3320312,45.6454327 C30.875,45.7716346 30.3925781,45.8347356 29.9101562,45.8347356 C29.5800781,45.8347356 29.25,45.796875 28.9199219,45.733774 C29.5800781,47.828726 31.5732422,49.3936298 33.8837891,49.4188702 C32.0810547,50.8575721 29.7578125,51.9302885 27.2695312,51.9302885 C26.8378906,51.9302885 26.4189453,51.9050481 26,51.8419471 C28.3486328,53.34375 31.1796875,54 34.1884766,54 C43.9892578,54 49.3466797,45.9230769 49.3466797,38.9188702 L49.3466797,38.2247596 C50.375,37.4801683 51.2763672,36.5588942 52,35.4735577 C51.0351562,35.9026442 50.0195312,36.1929087 48.9277344,36.3191106 Z" id="twitter-pink" fill="#ED4F7E"></path>
            <path d="M53,44.6767476 C53,50.1046108 56.6723633,54.7000496 61.625,56 L61.625,53.6509668 C58.0087891,52.5448686 57.0429688,49.7625186 56.9980469,49.6484879 C56.9643555,49.511651 57.0205078,49.3520079 57.1552734,49.2721864 C57.2563477,49.1923649 57.4135742,49.215171 57.5258789,49.3292018 C57.5483398,49.3292018 59.4912109,51.2677243 61.8945312,51.222112 C62.0742188,50.7317799 62.3662109,50.2414477 62.8266602,49.8879524 C59.7382812,49.4090233 57.3125,47.5731284 57.3125,44.6767476 C57.3125,43.490828 57.7954102,42.2935052 58.6489258,41.3242439 C58.3793945,40.2181458 58.2670898,38.86118 58.75,37.8691125 C59.9741211,37.9717402 61.1757812,38.5989093 62.0742188,39.1576599 C62.8266602,38.9752107 63.6240234,38.8383738 64.5,38.8383738 C65.3759766,38.8383738 66.1733398,38.9752107 66.9257812,39.1576599 C67.8242188,38.5989093 69.0258789,37.9717402 70.25,37.8691125 C70.7329102,38.86118 70.5981445,40.2181458 70.3510742,41.3242439 C71.2045898,42.2935052 71.6875,43.490828 71.6875,44.6767476 C71.6875,47.5731284 69.2617188,49.4090233 66.1733398,49.8879524 C67.1391602,50.6519584 67.375,51.9975211 67.375,52.9439762 L67.375,56 C72.3276367,54.7000496 76,50.1046108 76,44.6767476 C76,38.245414 70.8339844,33 64.5,33 C58.1323242,33 53,38.245414 53,44.6767476 Z" id="octocat-pink" fill="#ED4F7E"></path>
            <g id="linkedin-pink" transform="translate(80.000000, 34.000000)" fill="#EA507E">
                <g id="Layer_1">
                    <path d="M20.7,0 L1.67837838,0 C0.745945946,0 0,0.733333333 0,1.58888889 L0,20.4111111 C0,21.2666667 0.745945946,22 1.67837838,22 L20.7621622,22 C21.6945946,22 22.4405405,21.2666667 22.4405405,20.4111111 L22.4405405,1.58888889 C22.3783784,0.733333333 21.6324324,0 20.7,0 L20.7,0 Z M6.65135135,18.7611111 L3.29459459,18.7611111 L3.29459459,8.25 L6.58918919,8.25 L6.58918919,18.7611111 L6.65135135,18.7611111 Z M4.97297297,6.78333333 C3.91621622,6.78333333 3.04594595,5.92777778 3.04594595,4.88888889 C3.04594595,3.85 3.91621622,3.05555556 4.97297297,3.05555556 C6.02972973,3.05555556 6.9,3.91111111 6.9,4.95 C6.9,5.98888889 6.02972973,6.78333333 4.97297297,6.78333333 L4.97297297,6.78333333 Z M19.0837838,18.7611111 L15.7891892,18.7611111 L15.7891892,13.6277778 C15.7891892,12.4055556 15.7891892,10.8166667 14.0486486,10.8166667 C12.3081081,10.8166667 12.0594595,12.1611111 12.0594595,13.5055556 L12.0594595,18.7 L8.7027027,18.7 L8.7027027,8.25 L11.872973,8.25 L11.872973,9.65555556 L11.9351351,9.65555556 C12.3702703,8.8 13.4891892,7.94444444 15.1054054,7.94444444 C18.4621622,7.94444444 19.0837838,10.1444444 19.0837838,12.9555556 L19.0837838,18.7611111 L19.0837838,18.7611111 Z" id="Shape"></path>
                </g>
            </g>
            <path d="M127,35.375 C127,34.6230469 126.376953,34 125.625,34 L106.375,34 C105.623047,34 105,34.6230469 105,35.375 L105,54.625 C105,55.3769531 105.623047,56 106.375,56 L116.762695,56 L116.762695,47.4492188 L114.012695,47.4492188 L114.012695,44.2802734 L116.762695,44.2802734 L116.762695,41.5410156 C116.762695,39.0380859 118.288086,37.3623047 121.306641,37.3623047 C122.638672,37.3623047 123.5625,37.5126953 123.5625,37.5126953 L123.5625,40.3701172 L121.5,40.3701172 C120.586914,40.3701172 120.125,40.8857422 120.125,41.7880859 L120.125,44.2802734 L123.336914,44.2802734 L122.875,47.4492188 L120.125,47.4492188 L120.125,56 L125.625,56 C126.376953,56 127,55.3769531 127,54.625 L127,35.375 Z" id="facebook-pink" fill="#EA507E"></path>
            <path d="M149,41.5239258 C149,41.3012695 148.82373,41.125 148.601074,41.125 L130.398926,41.125 C130.17627,41.125 130,41.3012695 130,41.5239258 L130,45.4760742 C130,45.6987305 130.17627,45.875 130.398926,45.875 L148.601074,45.875 C148.82373,45.875 149,45.6987305 149,45.4760742 L149,41.5239258 Z M149,34.3989258 C149,34.1762695 148.82373,34 148.601074,34 L130.398926,34 C130.17627,34 130,34.1762695 130,34.3989258 L130,38.3510742 C130,38.5737305 130.17627,38.75 130.398926,38.75 L148.601074,38.75 C148.82373,38.75 149,38.5737305 149,38.3510742 L149,34.3989258 Z M149,48.6489258 C149,48.4262695 148.82373,48.25 148.601074,48.25 L130.398926,48.25 C130.17627,48.25 130,48.4262695 130,48.6489258 L130,52.6010742 C130,52.8237305 130.17627,53 130.398926,53 L148.601074,53 C148.82373,53 149,52.8237305 149,52.6010742 L149,48.6489258 Z" id="menu-grey" fill="#6D7483"></path>
            <path d="M163.935969,41.5 L168.89588,36.5400891 C168.962138,36.4548998 169,36.360245 169,36.2466592 C169,36.1330735 168.962138,36.0478842 168.89588,35.9626949 L166.037305,33.1041203 C165.952116,33.0378619 165.866927,33 165.753341,33 C165.639755,33 165.5451,33.0378619 165.459911,33.1041203 L160.5,38.0640312 L155.540089,33.1041203 C155.4549,33.0378619 155.360245,33 155.246659,33 C155.133073,33 155.047884,33.0378619 154.962695,33.1041203 L152.10412,35.9626949 C152.037862,36.0478842 152,36.1330735 152,36.2466592 C152,36.360245 152.037862,36.4548998 152.10412,36.5400891 L157.064031,41.5 L152.10412,46.4599109 C152.037862,46.5451002 152,46.639755 152,46.7533408 C152,46.8669265 152.037862,46.9521158 152.10412,47.0373051 L154.962695,49.8958797 C155.047884,49.9621381 155.133073,50 155.246659,50 C155.360245,50 155.4549,49.9621381 155.540089,49.8958797 L160.5,44.9359688 L165.459911,49.8958797 C165.5451,49.9621381 165.639755,50 165.753341,50 C165.866927,50 165.952116,49.9621381 166.037305,49.8958797 L168.89588,47.0373051 C168.962138,46.9521158 169,46.8669265 169,46.7533408 C169,46.639755 168.962138,46.5451002 168.89588,46.4599109 L163.935969,41.5 Z" id="close-grey" fill="#6D7483"></path>
            <path d="M183.5,33 C177.161932,33 172,38.5333333 172,45.2666667 C172,54.4666667 181.703125,64.0333333 181.703125,64.0333333 C183.009943,65.2666667 183.794034,65.3666667 185.198864,64.0333333 C185.198864,64.0333333 195,54.4666667 195,45.2666667 C195,38.5333333 189.838068,33 183.5,33 L183.5,33 Z M183.5,50.2666667 C180.494318,50.2666667 178.076705,47.8 178.076705,44.7333333 C178.076705,41.6666667 180.494318,39.1666667 183.5,39.1666667 C186.505682,39.1666667 188.955966,41.6666667 188.955966,44.7333333 C188.955966,47.8 186.505682,50.2666667 183.5,50.2666667 L183.5,50.2666667 Z" id="location-black" fill="#000000"></path>
            <path d="M214.81288,53.7438134 C214.458229,54.0997914 213.942372,54.1645147 213.523238,53.9056216 C212.104631,53.0318572 210.718266,51.9315613 209.428624,50.6370956 C208.138981,49.3749915 207.075026,47.9834409 206.204518,46.5271669 C205.946589,46.1064655 206.011071,45.5886793 206.333482,45.2327012 L209.396382,42.1907067 C209.62207,41.9641752 209.783275,41.6729204 209.783275,41.349304 C209.783275,41.1227725 209.718793,40.9609643 209.62207,40.7667944 L205.688661,33.5825096 C205.495215,33.2265315 205.172804,33 204.75367,33 C203.012653,33.1618082 201.045949,33.7443178 199.917512,34.8769753 C195.91962,38.8898191 198.402182,47.9510792 205.237286,54.8441092 C209.815516,59.4394626 215.296496,61.9960324 219.649039,61.9960324 C221.776949,61.9960324 223.64693,61.3487995 224.968813,60.0219722 C226.129491,58.8893147 226.871036,57.1094243 227,55.3295339 C227,54.9088325 226.774313,54.5528545 226.419661,54.3586846 L219.262146,50.7341805 C219.262146,50.7341805 218.907495,50.5400107 218.714048,50.5400107 C218.359397,50.5400107 218.069227,50.7018189 217.875781,50.960712 L214.81288,53.7438134 Z" id="phone-black" fill="#000000"></path>
            <path d="M279.81288,53.7466518 C279.458229,54.1026786 278.942372,54.1674107 278.523238,53.9084821 C277.104631,53.0345982 275.718266,51.9341518 274.428624,50.6395089 C273.138981,49.3772321 272.075026,47.9854911 271.204518,46.5290179 C270.946589,46.1082589 271.011071,45.5904018 271.333482,45.234375 L274.396382,42.1919643 C274.62207,41.9654018 274.783275,41.6741071 274.783275,41.3504464 C274.783275,41.1238839 274.718793,40.9620536 274.62207,40.7678571 L270.688661,33.5825893 C270.495215,33.2265625 270.172804,33 269.75367,33 C268.012653,33.1618304 266.045949,33.7444196 264.917512,34.8772321 C260.91962,38.890625 263.402182,47.953125 270.237286,54.8470982 C274.815516,59.4430804 280.296496,62 284.649039,62 C286.776949,62 288.64693,61.3526786 289.968813,60.0256696 C291.129491,58.8928571 291.871036,57.1127232 292,55.3325893 C292,54.9118304 291.774313,54.5558036 291.419661,54.3616071 L284.262146,50.7366071 C284.262146,50.7366071 283.907495,50.5424107 283.714048,50.5424107 C283.359397,50.5424107 283.069227,50.7042411 282.875781,50.9631696 L279.81288,53.7466518 Z" id="phone-white" fill="#FFFFFF"></path>
            <path d="M313.739955,49.40625 C312.542411,50.3177083 311.021205,50.7083333 309.5,50.7083333 C307.978795,50.7083333 306.457589,50.3177083 305.260045,49.40625 L295,41.4960938 L295,56.0143229 C295,56.5351562 295.388393,56.9583333 295.873884,57.0234375 C300.372768,57.6744792 304.96875,58 309.5,58 C314.03125,58 318.627232,57.6744792 323.09375,57.0234375 C323.611607,56.9583333 324,56.5351562 324,56.0143229 L324,41.4960938 L313.739955,49.40625 Z M296.132812,38.2083333 L307.169643,46.6067708 C307.784598,47.0950521 308.626116,47.3229167 309.5,47.3229167 C310.373884,47.3229167 311.215402,47.0950521 311.830357,46.6067708 L322.867188,38.2083333 C323.643973,37.4596354 323.902902,36.8411458 324,36.4830729 L324,34.9856771 C324,34.4648438 323.611607,34.0416667 323.09375,33.9765625 C318.627232,33.3255208 314.063616,33 309.5,33 C304.936384,33 300.372768,33.3255208 295.873884,33.9765625 C295.388393,34.0416667 295,34.4648438 295,34.9856771 L295,36.4830729 C295.097098,36.8411458 295.356027,37.4596354 296.132812,38.2083333 L296.132812,38.2083333 Z" id="mail-white" fill="#FFFFFF"></path>
            <path d="M248.739955,49.40625 C247.542411,50.3177083 246.021205,50.7083333 244.5,50.7083333 C242.978795,50.7083333 241.457589,50.3177083 240.260045,49.40625 L230,41.4960938 L230,56.0143229 C230,56.5351562 230.388393,56.9583333 230.873884,57.0234375 C235.372768,57.6744792 239.96875,58 244.5,58 C249.03125,58 253.627232,57.6744792 258.09375,57.0234375 C258.611607,56.9583333 259,56.5351562 259,56.0143229 L259,41.4960938 L248.739955,49.40625 Z M231.132812,38.2083333 L242.169643,46.6067708 C242.784598,47.0950521 243.626116,47.3229167 244.5,47.3229167 C245.373884,47.3229167 246.215402,47.0950521 246.830357,46.6067708 L257.867188,38.2083333 C258.643973,37.4596354 258.902902,36.8411458 259,36.4830729 L259,34.9856771 C259,34.4648438 258.611607,34.0416667 258.09375,33.9765625 C253.627232,33.3255208 249.063616,33 244.5,33 C239.936384,33 235.372768,33.3255208 230.873884,33.9765625 C230.388393,34.0416667 230,34.4648438 230,34.9856771 L230,36.4830729 C230.097098,36.8411458 230.356027,37.4596354 231.132812,38.2083333 L231.132812,38.2083333 Z" id="mail-black" fill="#000000"></path>
            <path d="M10.047709,71.5729167 L9.4548474,70.7333333 C8.56555505,69.5145833 7.46067667,69 6.24800528,69 C5.06228214,69 3.79571424,69.5145833 2.63693936,70.38125 C0.238544834,72.0875 -0.893281797,74.5791667 0.831406402,76.9895833 L1.42426797,77.8291667 C3.22980093,74.6333333 6.35579829,72.3041667 10.047709,71.5729167 L10.047709,71.5729167 Z M23.575732,77.8291667 L24.1685936,76.9895833 C25.8932818,74.5791667 24.7614552,72.0875 22.3630606,70.38125 C21.1773375,69.5145833 19.9377179,69 18.7519947,69 C17.5393233,69 16.4074967,69.5145833 15.5451526,70.7333333 L14.952291,71.5729167 C18.6442017,72.3041667 21.7701991,74.6333333 23.575732,77.8291667 L23.575732,77.8291667 Z M23.2793012,84.1666667 C23.2793012,78.18125 18.4555639,73.3333333 12.5,73.3333333 L12.5,73.3333333 C6.54443606,73.3333333 1.72069876,78.18125 1.72069876,84.1666667 C1.72069876,90.1520833 6.54443606,95 12.5,95 L12.5,95 C18.4555639,95 23.2793012,90.1520833 23.2793012,84.1666667 L23.2793012,84.1666667 Z M12.5,91.66875 C10.5058293,91.66875 8.61945155,90.9104167 7.21814239,89.475 C5.78988498,88.0666667 5.03533389,86.1708333 5.03533389,84.1666667 C5.03533389,82.1625 5.78988498,80.2666667 7.21814239,78.8583333 C8.61945155,77.45 10.5058293,76.6645833 12.5,76.6645833 C14.4941707,76.6645833 16.3805484,77.45 17.7818576,78.8583333 C19.1831668,80.2666667 19.9646661,82.1625 19.9646661,84.1666667 C19.9646661,86.1708333 19.1831668,88.0666667 17.7818576,89.475 C16.3805484,90.9104167 14.4941707,91.66875 12.5,91.66875 L12.5,91.66875 Z M13.5779301,79.8333333 C13.5509819,79.2916667 13.0928616,78.83125 12.5538965,78.8041667 C11.9610349,78.7770833 11.4490181,79.2375 11.4220699,79.8333333 L11.2334321,84.3020833 L9.48179565,87.525 C9.23926137,87.9854167 9.37400264,88.6083333 9.83212294,88.90625 C10.3171915,89.2583333 10.9908978,89.1229167 11.3142769,88.6354167 L13.6048784,85.33125 C13.7396196,85.1416667 13.7935161,84.8979167 13.7935161,84.6541667 L13.5779301,79.8333333 Z" id="flexible-white" fill="#FFFFFF"></path>
            <path d="M53.0520833,76.3545259 C52.8895833,75.5732759 52.1854167,75.0344828 51.3729167,75.0344828 L47.9333333,75.0344828 L47.9333333,71.2090517 C47.9333333,70.3739224 47.3375,69.6734914 46.525,69.5118534 C44.7104167,69.1616379 42.8416667,69 41,69 C39.13125,69 37.2895833,69.1616379 35.475,69.5118534 C34.6354167,69.6734914 34.0666667,70.3739224 34.0666667,71.2090517 L34.0666667,75.0344828 L30.6270833,75.0344828 C29.8145833,75.0344828 29.1104167,75.5732759 28.9208333,76.3545259 C28.325,78.9407328 28,81.5 28,84.0862069 C28,86.6724138 28.325,89.231681 28.9208333,91.8987069 C29.0833333,92.5991379 29.6520833,93.1109914 30.35625,93.21875 C33.8770833,93.7306034 37.4520833,94 41,94 C44.5479167,94 48.1229167,93.7306034 51.64375,93.21875 C52.3479167,93.1109914 52.9166667,92.5991379 53.0791667,91.8987069 C53.675,89.231681 54,86.6724138 54,84.0862069 C54,81.5 53.675,78.9407328 53.0520833,76.3545259 L53.0520833,76.3545259 Z M41.24375,85.487069 L39.9979167,89.5010776 C39.94375,89.7165948 39.78125,89.9051724 39.5916667,90.012931 C39.45625,90.09375 39.3208333,90.1206897 39.1854167,90.1206897 C39.0770833,90.1206897 38.9958333,90.09375 38.9145833,90.09375 L32.1708333,88.0193966 C31.7375,87.8846983 31.4666667,87.3997845 31.6020833,86.9418103 L32.8479167,82.9008621 C32.9291667,82.6853448 33.0916667,82.4967672 33.28125,82.3890086 C33.4979167,82.28125 33.7145833,82.2543103 33.93125,82.3351293 L40.675,84.4094828 C41.1354167,84.544181 41.40625,85.0290948 41.24375,85.487069 L41.24375,85.487069 Z M44.4666667,75.0344828 L37.5333333,75.0344828 L37.5333333,72.5829741 C40.1333333,72.2866379 41.8666667,72.2866379 44.4666667,72.5829741 L44.4666667,75.0344828 Z M47.9333333,84.5172414 C46.4979167,84.5172414 45.3333333,83.3588362 45.3333333,81.9310345 C45.3333333,80.5032328 46.4979167,79.3448276 47.9333333,79.3448276 C49.36875,79.3448276 50.5333333,80.5032328 50.5333333,81.9310345 C50.5333333,83.3588362 49.36875,84.5172414 47.9333333,84.5172414 L47.9333333,84.5172414 Z" id="holiday-white" fill="#FFFFFF"></path>
            <path d="M75.7684043,69 C74.5709627,69 73.4007357,69.8333333 72.8020149,71.5 C71.9311483,73.8177083 71.0330671,79 71.0330671,81.5 C71.0330671,83.2447917 72.012792,84.1822917 73.1013753,84.5729167 C72.6115128,87.0989583 72.1216503,89.7291667 72.1216503,91.5 C72.1216503,93.1666667 73.3463065,94 75.0880398,94 C76.829773,94 78,93.1666667 78,91.5 L78,71.5 C78,70.0416667 76.9930605,69 75.7684043,69 L75.7684043,69 Z M68.4204672,77.3333333 L67.5496006,70.5625 C67.4951714,70.1458333 67.1141673,69.8333333 66.678734,69.8333333 C66.1888715,69.8333333 65.8078674,70.1979167 65.8078674,70.6666667 L65.8078674,76.5 L64.0661341,76.5 L64.0661341,70.6666667 C64.0661341,70.1979167 63.68513,69.8333333 63.1952675,69.8333333 C62.7054051,69.8333333 62.3244009,70.1979167 62.3244009,70.6666667 L62.3244009,76.5 L60.5826677,76.5 L60.5826677,70.6666667 C60.5826677,70.25 60.2833073,69.8854167 59.847874,69.8333333 C59.3580115,69.78125 58.9225782,70.1197917 58.868149,70.5625 L58.024497,77.359375 C57.8884241,78.375 58.2422137,80.3541667 61.0725302,81.2916667 C60.6643114,84.1302083 60.0655906,88.609375 60.0655906,91.34375 C60.0655906,92.7239583 61.4807489,94 63.2224821,94 C64.9642153,94 66.352159,92.7239583 66.352159,91.34375 C66.352159,88.609375 65.7806528,84.1302083 65.3452195,81.2916667 C68.0122485,80.4322917 68.5565401,78.53125 68.4204672,77.3333333 L68.4204672,77.3333333 Z" id="snacks-white" fill="#FFFFFF"></path>
            <path d="M101.883748,73.4124967 C102.216888,73.4124967 102.577791,73.2748213 102.827646,73.0270056 L104.604396,71.2647604 C105.131868,70.7415939 105.131868,69.9155414 104.604396,69.3923749 C104.076923,68.8692084 103.244072,68.8692084 102.716599,69.3923749 L100.93985,71.1546201 C100.412377,71.6777866 100.412377,72.503839 100.93985,73.0270056 C101.189705,73.2748213 101.550607,73.4124967 101.883748,73.4124967 L101.883748,73.4124967 Z M84.1162522,73.4124967 C84.4493927,73.4124967 84.810295,73.2748213 85.0601504,73.0270056 C85.5876229,72.503839 85.5876229,71.6777866 85.0601504,71.1546201 L83.2834008,69.3923749 C82.7559283,68.8692084 81.9230769,68.8692084 81.3956044,69.3923749 C80.8681319,69.9155414 80.8681319,70.7415939 81.3956044,71.2647604 L83.172354,73.0270056 C83.4222094,73.2748213 83.7831116,73.4124967 84.1162522,73.4124967 L84.1162522,73.4124967 Z M96.664546,87.9510193 C96.6923077,87.6205984 96.7200694,87.4278528 96.7200694,87.4278528 C96.9421631,86.0510988 97.5806825,85.0323008 98.9687681,83.3251258 C100.329092,81.6179508 100.995373,80.2411967 100.995373,78.2586709 C100.995373,73.9631983 97.4973973,70.3285676 93,70.3285676 C88.5026027,70.3285676 85.004627,73.9631983 85.004627,78.2586709 C85.004627,80.2411967 85.670908,81.6179508 87.0312319,83.3251258 C88.3915558,85.0323008 89.0300752,86.0510988 89.2799306,87.4278528 C89.2799306,87.4278528 89.2799306,87.6205984 89.3076923,87.9510193 L96.664546,87.9510193 Z M103.660497,87.510458 C103.993638,87.510458 104.35454,87.3727826 104.604396,87.1249669 C105.131868,86.6018004 105.131868,85.7757479 104.604396,85.2525814 L102.827646,83.4903362 C102.300174,82.9671697 101.467322,82.9671697 100.93985,83.4903362 C100.412377,84.0135028 100.412377,84.8395552 100.93985,85.3627217 L102.716599,87.1249669 C102.966455,87.3727826 103.327357,87.510458 103.660497,87.510458 L103.660497,87.510458 Z M82.3395026,87.510458 C82.6726431,87.510458 83.0335454,87.3727826 83.2834008,87.1249669 L85.0601504,85.3627217 C85.5876229,84.8395552 85.5876229,84.0135028 85.0601504,83.4903362 C84.5326778,82.9671697 83.6998265,82.9671697 83.172354,83.4903362 L81.3956044,85.2525814 C80.8681319,85.7757479 80.8681319,86.6018004 81.3956044,87.1249669 C81.6454598,87.3727826 82.0063621,87.510458 82.3395026,87.510458 L82.3395026,87.510458 Z M93,95 C94.8045113,95 95.4707924,94.0913423 95.9982649,92.3841673 C96.1925969,91.7233254 96.3591671,90.6769923 96.470214,89.7132645 L89.5020243,89.7132645 C89.6130711,90.6769923 89.7796414,91.7233254 90.0017351,92.3841673 C90.5014459,94.0913423 91.1954887,95 93,95 L93,95 Z" id="10-white" fill="#FFFFFF"></path>
            <path d="M111.423018,76.8 C111.072631,74.60625 112.959334,73.30625 114.41479,73.30625 C114.603461,73.30625 114.819084,73.3333333 115.06166,73.3875 C115.519859,73.4958333 116.005011,73.3333333 116.301493,72.98125 C117.083127,72.0875 118.242102,71.5729167 119.454983,71.5729167 C121.745979,71.5729167 123.632682,73.3604167 123.632682,75.5270833 C123.632682,76.2583333 123.578776,76.8 123.578776,76.8 L126.03149,76.8 C126.112349,76.39375 126.112349,75.9604167 126.112349,75.5270833 C126.112349,71.925 123.174483,69 119.454983,69 C117.75695,69 116.112823,69.6229167 114.899943,70.7333333 C111.369113,70.4354167 108.619917,73.4145833 108.889446,76.8 L111.423018,76.8 Z M122.608472,95 C123.309247,95 123.929164,94.59375 124.198693,93.94375 C124.333458,93.61875 124.441269,93.29375 124.576034,92.9416667 C128.672875,92.4 132.742763,89.55625 132.985339,85.2229167 C133.09315,83.2458333 132.607998,81.6479167 131.475976,80.45625 C130.20919,79.1020833 128.241628,78.5333333 126.112349,78.5333333 L117.487421,78.5333333 L117.487421,81.1333333 C117.487421,83.7333333 118.349914,84.6 118.349914,86.3333333 C118.349914,90.0166667 113.174957,90.0166667 113.174957,86.3333333 C113.174957,84.6 114.03745,83.7333333 114.03745,81.1333333 L114.03745,78.5333333 L110.156232,78.5333333 C109.347645,78.5333333 108.619917,79.075 108.458199,79.8604167 C108.215623,80.94375 108,82.0541667 108,83.1645833 C108,86.3333333 108.404294,90.36875 109.913656,93.94375 C110.183185,94.59375 110.803102,95 111.503877,95 L122.608472,95 Z M125.627197,89.15 C126.193208,86.3604167 126.193208,83.9770833 125.950632,81.8916667 C127.540853,81.8375 129.804896,82 129.643179,85.0333333 C129.535367,87.0916667 127.567806,88.4729167 125.627197,89.15 L125.627197,89.15 Z" id="beer-white" fill="#FFFFFF"></path>
            <path d="M153.193533,75.0719872 C153.274823,74.7195951 153.30192,74.5569525 153.30192,74.1774533 C153.30192,71.3041023 150.971593,69 148.09933,69 C145.227067,69 142.89674,71.3041023 142.89674,74.1774533 C142.89674,74.5569525 142.950934,74.7467021 143.005127,75.0719872 C146.338037,73.6353116 150.077398,73.7166329 153.193533,75.0719872 L153.193533,75.0719872 Z M161.674838,81.984294 C161.647741,81.9571869 158.50451,79.2193713 157.637412,74.0419179 C157.583218,73.6895258 157.285153,73.3913479 156.932894,73.3371337 C156.553539,73.2829195 156.20128,73.445562 156.011602,73.7708471 L153.952244,77.565839 C152.326434,76.5357698 150.294173,75.9123068 148.126427,75.9123068 C144.847711,75.9123068 141.948351,77.2947682 140.187058,79.4091209 C140.322542,78.4332658 139.672218,78.0537666 139.40125,77.864017 C138.534152,77.3218753 137.423182,77.565839 136.881245,78.4061587 C135.797373,80.0596909 135.688985,82.3909003 136.691568,83.88179 C137.287698,84.7492167 137.883828,85.1016088 138.534152,85.3726797 C138.80512,86.8906765 139.536734,88.2731378 140.620607,89.3845283 L139.834799,92.0952369 C139.563831,93.0168778 140.132864,93.9927329 141.054156,94.2638037 L143.628354,94.9414809 C144.468356,95.1583376 145.335454,94.7246242 145.660616,93.9385187 C145.687713,93.8571975 146.148359,92.2307723 146.148359,92.2307723 C146.717392,92.3392007 147.394813,92.3934148 148.09933,92.3934148 C148.966428,92.4205219 149.914817,92.3120936 150.9174,92.0681298 C150.9174,92.0681298 151.350949,93.721662 151.350949,93.7487691 C151.621917,94.6433029 152.543209,95.1854447 153.437404,94.9414809 L155.984505,94.2909108 C156.932894,94.0740541 157.474831,93.0981991 157.258056,92.1765582 L156.770313,90.4145976 C156.905797,90.3603834 157.068378,90.3061692 157.203862,90.224848 C160.780643,88.5713158 161.837419,86.1316781 161.91871,85.9961426 C161.945806,85.8877143 162,85.7521789 162,85.6437505 L162,82.634864 C162,82.3909003 161.864516,82.1469365 161.674838,81.984294 L161.674838,81.984294 Z M156.905797,82.8517207 C156.905797,83.88179 156.092893,84.6950025 155.09031,84.6950025 C154.087728,84.6950025 153.247726,83.88179 153.247726,82.8517207 C153.247726,81.8487586 154.087728,81.035546 155.09031,81.035546 C156.092893,81.035546 156.905797,81.8487586 156.905797,82.8517207 L156.905797,82.8517207 Z" id="pay-white" fill="#FFFFFF"></path>
            <path d="M193.60625,69.1012433 C193.064583,68.9662522 192.46875,68.9662522 191.927083,69.1012433 C191.141667,69.2902309 190.6,69.9651865 190.6,70.7751332 L190.6,72.5030195 C190.220833,72.4760213 189.841667,72.4490231 189.4625,72.5300178 C188.622917,72.6650089 188,73.3669627 188,74.2309059 L188,82.8433393 C188,83.7072824 188.622917,84.3552398 189.4625,84.4632327 C189.70625,84.5172291 189.922917,84.5442274 190.166667,84.5442274 C190.302083,84.5442274 190.464583,84.5172291 190.6,84.4902309 L190.6,86.2991119 C190.6,87.1090586 191.141667,87.7030195 191.927083,87.8920071 C192.197917,87.9730018 192.495833,88 192.766667,88 C193.0375,88 193.335417,87.9730018 193.60625,87.8920071 C194.391667,87.7030195 194.933333,87.1090586 194.933333,86.2991119 L194.933333,70.7751332 C194.933333,69.9651865 194.391667,69.2902309 193.60625,69.1012433 L193.60625,69.1012433 Z M196.666667,81.0884547 L205.333333,81.0884547 L205.333333,75.9047957 L196.666667,75.9047957 L196.666667,81.0884547 Z M210.072917,87.8920071 C210.858333,87.7030195 211.4,87.1090586 211.4,86.2991119 L211.4,84.4902309 C211.535417,84.5172291 211.697917,84.5442274 211.833333,84.5442274 C212.077083,84.5442274 212.29375,84.5172291 212.5375,84.4632327 C213.377083,84.3552398 214,83.7072824 214,82.8433393 L214,74.2309059 C214,73.3669627 213.377083,72.6650089 212.5375,72.5300178 C212.158333,72.4490231 211.779167,72.4760213 211.4,72.5030195 L211.4,70.7751332 C211.4,69.9651865 210.858333,69.2902309 210.072917,69.1012433 C209.53125,68.9662522 208.935417,68.9662522 208.39375,69.1012433 C207.608333,69.2902309 207.066667,69.9651865 207.066667,70.7751332 L207.066667,86.2991119 C207.066667,87.1090586 207.608333,87.7030195 208.39375,87.8920071 C208.664583,87.9730018 208.9625,88 209.233333,88 C209.504167,88 209.802083,87.9730018 210.072917,87.8920071 L210.072917,87.8920071 Z" id="gym-white" fill="#FFFFFF"></path>
            <path d="M174.5,73.3120072 C173.174732,72.0006402 172.155295,70.9918964 171.849464,70.6892732 C170.116421,68.9744087 167.567828,68.8735343 165.732841,69.1761575 C163.693967,69.4787806 163.693967,70.7901476 164.509517,71.5971427 L170.422252,77.3469826 C169.096984,78.5574753 167.975603,79.6670935 167.363941,80.2723398 C166.446447,81.1802093 165.019236,82.7941994 164.917292,84.509064 C164.713404,87.4344211 167.05811,92.5790148 169.81059,94.0921305 C171.135858,94.7982512 173.072788,95 174.5,95 C175.927212,95 177.864142,94.6973768 179.18941,94.0921305 C181.94189,92.5790148 184.286596,87.5352955 184.082708,84.509064 C183.980764,82.7941994 182.451609,81.0793349 181.636059,80.2723398 C181.330228,79.9697167 180.922453,79.5662191 180.514679,79.1627216 L176.43693,83.2985714 L178.577748,85.4169334 C179.597185,86.4256773 179.18941,87.6361699 179.18941,88.3422906 C179.18941,88.3422906 177.048593,89.0484113 174.5,89.0484113 C171.951407,89.0484113 169.81059,88.3422906 169.81059,88.3422906 C169.81059,87.6361699 169.402815,86.4256773 170.422252,85.4169334 C171.74752,84.1055664 183.674933,72.3032634 184.490483,71.4962683 C185.306033,70.6892732 185.306033,69.4787806 183.267159,69.0752831 C181.432172,68.8735343 178.883579,68.9744087 177.150536,70.6892732 C176.844705,70.9918964 175.825268,72.0006402 174.5,73.3120072 Z" id="charity-white" fill="#FFFFFF"></path>
            <g id="logo-white" fill="#FFFFFF">
                <path d="M8.48538908,10.8343836 C8.19396051,10.0180282 7.58168409,9.58042689 6.61933798,9.58042689 C5.65699187,9.58042689 4.7238676,9.98880209 4.02412311,10.7178743 L4.02412311,17.9795673 C4.54912892,18.4171686 5.39458769,18.8545724 6.18180023,18.8545724 C8.10649245,18.8545724 8.8646806,17.5421635 8.8646806,14.1300189 C8.8646806,12.7009032 8.74799071,11.5636533 8.48538908,10.8343836 L8.48538908,10.8343836 Z M11.0515796,20.254462 C10.0309872,21.3336547 8.68954704,21.94602 7.05687573,21.94602 C5.89037166,21.94602 4.78231127,21.6543517 3.93665505,21.1584957 C3.99490128,21.5086162 3.99490128,21.94602 3.99490128,22.3834238 L3.99490128,27.0495252 L0.233182346,28.0412371 L0.233182346,10.7761289 C0.233182346,8.82212865 0.204157956,8.268018 0,7.01406127 L3.47009292,6.40149848 C3.61600465,6.92658051 3.70347271,7.33475824 3.7324971,7.80138812 C4.40321719,6.9848352 5.89037166,6.40149848 7.40655052,6.40149848 C8.45636469,6.40149848 9.5354007,6.75161899 10.3516376,7.30572964 C11.9556794,8.38472484 13.1219861,10.3094991 13.1219861,13.7508698 C13.1219861,16.9590242 12.5971777,18.5921301 11.0515796,20.254462 L11.0515796,20.254462 Z" id="Fill-1"></path>
                <path d="M23.4444019,12.3509801 C23.4444019,11.2427588 23.327712,10.6596196 22.9776423,10.1053115 C22.5987456,9.52217221 22.0447154,9.23050385 21.2573055,9.23050385 C19.7703484,9.23050385 18.9246922,10.3969798 18.9246922,12.4676869 L18.9246922,12.5261391 L23.4444019,12.5261391 L23.4444019,12.3509801 L23.4444019,12.3509801 Z M18.8662485,15.3841731 L18.8662485,15.5006824 C18.8662485,17.8048033 20.0035308,19.1170147 22.0154936,19.1170147 C23.3569338,19.1170147 24.6107085,18.6213562 25.8064344,17.6298417 L27.3226132,19.9627937 C25.6022764,21.3626833 23.7942741,22.0335008 21.6948432,22.0335008 C17.4083159,22.0335008 14.6381649,19.0005053 14.6381649,14.3049804 C14.6381649,11.6219079 15.1921951,9.84286917 16.504216,8.38472484 C17.7289663,7.01406127 19.2161208,6.37246987 21.1990592,6.37246987 C22.9195935,6.37246987 24.5524623,6.95560912 25.5148084,7.94732104 C26.8852729,9.34721069 27.4975494,11.3594657 27.4975494,14.4799419 L27.4975494,15.3841731 L18.8662485,15.3841731 L18.8662485,15.3841731 Z" id="Fill-4"></path>
                <path d="M38.0999419,11.4469464 C37.8083159,10.1637636 36.9916841,9.55139829 35.9710918,9.55139829 C34.9506969,9.55139829 34.2507549,10.1927922 33.754971,10.7471003 L33.754971,17.6298417 C34.2799768,18.0964716 34.8922532,18.5921301 35.9420674,18.5921301 C36.904216,18.5921301 37.5166899,18.212981 37.8373403,17.4256541 C38.18741,16.6089037 38.2746806,15.8215769 38.2746806,13.9842834 C38.2746806,12.6426485 38.2456562,12.0885378 38.0999419,11.4469464 L38.0999419,11.4469464 Z M39.9367712,20.750318 C38.9163763,21.5668709 37.895784,21.916794 36.6710337,21.916794 C35.213101,21.916794 34.1923113,21.4793902 33.3468525,20.5461304 C33.2301626,21.0712124 33.2011382,21.2169479 32.9385366,21.6251256 L29.4394193,21.6251256 C29.7308479,20.9543081 29.8183159,20.5169043 29.8183159,18.4461972 L29.8183159,4.62245971 C29.8183159,2.78516626 29.7602671,1.79365181 29.5561092,0.947872804 L33.550813,0.0146130391 C33.6675029,1.03535356 33.6969222,1.64771889 33.6969222,2.66865689 L33.6969222,6.19731088 C33.6969222,6.63491215 33.6675029,7.27650356 33.6092567,7.50971976 C34.3674448,6.69316684 35.4170616,6.31401771 36.7877236,6.31401771 C40.4325552,6.31401771 42.7071196,9.23050385 42.7071196,13.8968027 C42.7071196,16.9297982 41.7739954,19.2921737 39.9367712,20.750318 L39.9367712,20.750318 Z" id="Fill-5"></path>
                <path d="M53.4435772,11.4469464 C53.1521487,10.1637636 52.3355168,9.55139829 51.3149245,9.55139829 C50.2943322,9.55139829 49.5945877,10.1927922 49.0988037,10.7471003 L49.0988037,17.6298417 C49.6238095,18.0964716 50.2360859,18.5921301 51.2859001,18.5921301 C52.2480488,18.5921301 52.8605226,18.212981 53.1811731,17.4256541 C53.5310453,16.6089037 53.6185134,15.8215769 53.6185134,13.9842834 C53.6185134,12.6426485 53.589489,12.0885378 53.4435772,11.4469464 L53.4435772,11.4469464 Z M55.2806039,20.750318 C54.2600116,21.5668709 53.2394193,21.916794 52.0148664,21.916794 C50.5569338,21.916794 49.536144,21.4793902 48.6906852,20.5461304 C48.5739954,21.0712124 48.5447735,21.2169479 48.2823693,21.6251256 L44.7830546,21.6251256 C45.0746806,20.9543081 45.1621487,20.5169043 45.1621487,18.4461972 L45.1621487,4.62245971 C45.1621487,2.78516626 45.1039024,1.79365181 44.8997445,0.947872804 L48.8946458,0.0146130391 C49.0113357,1.03535356 49.0405575,1.64771889 49.0405575,2.66865689 L49.0405575,6.19731088 C49.0405575,6.63491215 49.0113357,7.27650356 48.952892,7.50971976 C49.7112776,6.69316684 50.7608943,6.31401771 52.1315563,6.31401771 C55.7763879,6.31401771 58.0509524,9.23050385 58.0509524,13.8968027 C58.0509524,16.9297982 57.1178281,19.2921737 55.2806039,20.750318 L55.2806039,20.750318 Z" id="Fill-6"></path>
                <path d="M64.2939605,21.9752461 C62.6318699,21.9752461 61.2904297,21.1877218 60.8236702,19.9337651 C60.5322416,19.1754668 60.4737979,18.7088369 60.4737979,16.5796777 L60.4737979,5.43921011 C60.4737979,3.48520982 60.4157491,2.28931029 60.2698374,0.947872804 L64.2645412,0.0438391172 C64.410453,0.860392043 64.4686992,1.82268041 64.4686992,3.92261362 L64.4686992,15.5591346 C64.4686992,18.1255002 64.4981185,18.4754233 64.7313008,18.8837985 C64.8770151,19.1462407 65.1976655,19.2921737 65.5187108,19.2921737 C65.6644251,19.2921737 65.7518931,19.2921737 65.9560511,19.2337215 L66.6265738,21.5668709 C65.9560511,21.8293132 65.1394193,21.9752461 64.2939605,21.9752461" id="Fill-7"></path>
                <path d="M75.8436934,12.3509801 C75.8436934,11.2427588 75.7270035,10.6596196 75.3769338,10.1053115 C74.9980372,9.52217221 74.4438095,9.23050385 73.656597,9.23050385 C72.16964,9.23050385 71.3237863,10.3969798 71.3237863,12.4676869 L71.3237863,12.5261391 L75.8436934,12.5261391 L75.8436934,12.3509801 L75.8436934,12.3509801 Z M71.2655401,15.3841731 L71.2655401,15.5006824 C71.2655401,17.8048033 72.4028223,19.1170147 74.4147851,19.1170147 C75.7562253,19.1170147 77.01,18.6213562 78.2055285,17.6298417 L79.7219048,19.9627937 C78.0015679,21.3626833 76.1935656,22.0335008 74.0941347,22.0335008 C69.8076074,22.0335008 67.037259,19.0005053 67.037259,14.3049804 C67.037259,11.6219079 67.5914866,9.84286917 68.9035075,8.38472484 C70.1282578,7.01406127 71.6154123,6.37246987 73.5983508,6.37246987 C75.318885,6.37246987 76.9515563,6.95560912 77.9140999,7.94732104 C79.2845645,9.34721069 79.8968409,11.3594657 79.8968409,14.4799419 L79.8968409,15.3841731 L71.2655401,15.3841731 L71.2655401,15.3841731 Z" id="Fill-8"></path>
                <path d="M98.0339257,27.1470771 C95.9637166,27.1470771 94.2724042,25.9219515 94.2724042,22.888956 L94.2724042,17.8727341 C94.2724042,16.0646668 91.851928,15.8604792 91.1229617,15.8604792 L91.1229617,12.5358153 C91.851928,12.5358153 94.2724042,12.3316277 94.2724042,10.5235603 L94.2724042,5.47811239 C94.2724042,2.44511689 95.8760511,1.24921737 98.0339257,1.24921737 L101.095703,1.24921737 L101.095703,4.57388123 L99.6667944,4.57388123 C97.8880139,4.57388123 97.7715215,5.65307391 97.7715215,6.44040076 L97.7715215,11.1359257 C97.7715215,13.8480267 96.0802091,14.0522143 94.8554588,14.1689212 L94.8554588,14.2273733 C96.0802091,14.3146566 97.7715215,14.5188442 97.7715215,17.2311427 L97.7715215,21.9556962 C97.7715215,22.7432206 97.8880139,23.8222158 99.6667944,23.8222158 L101.095703,23.8222158 L101.095703,27.1470771 L98.0339257,27.1470771" id="Fill-9"></path>
                <path d="M112.059617,21.0419864 C111.009803,21.6543517 109.843496,21.9752461 108.414588,21.9752461 C104.303194,21.9752461 101.91194,19.1170147 101.91194,14.2757543 C101.91194,10.8343836 103.224355,8.55968637 104.973717,7.36398432 C105.965285,6.69316684 107.423217,6.25576303 108.677189,6.25576303 C109.668362,6.25576303 110.747398,6.48897924 111.56403,6.92658051 C112.117863,7.21824887 112.380267,7.422239 113.021963,7.97634964 L111.126492,10.5429127 C110.33928,9.81384057 109.493624,9.37623929 108.764657,9.37623929 C107.014901,9.37623929 106.227491,10.8928358 106.227491,14.3926586 C106.227491,16.3464614 106.490093,17.5129374 106.985877,18.1547263 C107.394193,18.6796109 108.064715,19.0005053 108.735238,19.0005053 C109.639338,19.0005053 110.455772,18.6213562 111.418118,17.7755772 L111.651301,17.5713896 L113.430081,19.9337651 C112.847027,20.5169043 112.584425,20.7210919 112.059617,21.0419864" id="Fill-10"></path>
                <path d="M122.9564,10.0762829 C122.577503,9.58042689 121.965029,9.28875853 121.265285,9.28875853 C120.331963,9.28875853 119.573972,9.87209525 119.253124,10.805355 C118.99072,11.5928793 118.845006,12.6426485 118.845006,14.1300189 C118.845006,15.850803 119.019744,17.1339858 119.34079,17.892284 C119.690662,18.7088369 120.565343,19.1170147 121.323531,19.1170147 C123.014843,19.1170147 123.74381,17.6006157 123.74381,14.0717642 C123.74381,12.0593117 123.481208,10.7471003 122.9564,10.0762829 L122.9564,10.0762829 Z M126.134866,19.8753129 C124.997782,21.1584957 123.510627,21.94602 121.207038,21.94602 C117.153693,21.94602 114.500035,18.9128271 114.500035,14.2174996 C114.500035,9.52217221 117.182915,6.40149848 121.207038,6.40149848 C123.335494,6.40149848 124.997782,7.13057064 126.280581,8.64716713 C127.476307,10.0470568 128.001115,11.6801626 128.001115,14.1007928 C128.001115,16.6673559 127.417863,18.4171686 126.134866,19.8753129 L126.134866,19.8753129 Z" id="Fill-11"></path>
                <path d="M139.131475,10.6303935 C138.402509,9.98880209 137.702764,9.66790765 137.002822,9.66790765 C135.253264,9.66790765 134.495075,11.126052 134.495075,14.4509133 C134.495075,17.6588703 135.165796,18.7088369 137.20698,18.7088369 C137.935947,18.7088369 138.752381,18.212981 139.131475,17.7463511 L139.131475,10.6303935 L139.131475,10.6303935 Z M140.006353,21.6251256 C139.889663,21.3919094 139.831417,21.1584957 139.772973,20.750318 C138.810825,21.596097 137.673542,22.0044722 136.332102,22.0044722 C132.541556,22.0044722 130.150302,19.05876 130.150302,14.4216872 C130.150302,9.75538841 132.745517,6.54743139 136.53626,6.54743139 C137.615099,6.54743139 138.460755,6.80987368 139.189721,7.39301292 C139.131475,7.07231596 139.073229,6.05157543 139.073229,5.17676782 L139.073229,0.0438391172 L142.951638,0.656204443 L142.951638,16.1714999 C142.951638,19.8460868 143.243066,21.0419864 143.50547,21.6251256 L140.006353,21.6251256 L140.006353,21.6251256 Z" id="Fill-12"></path>
                <path d="M154.740279,12.3509801 C154.740279,11.2427588 154.623589,10.6596196 154.273717,10.1053115 C153.894623,9.52217221 153.340592,9.23050385 152.553182,9.23050385 C151.066225,9.23050385 150.220569,10.3969798 150.220569,12.4676869 L150.220569,12.5261391 L154.740279,12.5261391 L154.740279,12.3509801 L154.740279,12.3509801 Z M150.162125,15.3841731 L150.162125,15.5006824 C150.162125,17.8048033 151.299408,19.1170147 153.311568,19.1170147 C154.652811,19.1170147 155.906585,18.6213562 157.102311,17.6298417 L158.618688,19.9627937 C156.898153,21.3626833 155.090348,22.0335008 152.990918,22.0335008 C148.704193,22.0335008 145.934042,19.0005053 145.934042,14.3049804 C145.934042,11.6219079 146.488072,9.84286917 147.80029,8.38472484 C149.024843,7.01406127 150.512195,6.37246987 152.495134,6.37246987 C154.21547,6.37246987 155.848339,6.95560912 156.810685,7.94732104 C158.18115,9.34721069 158.793426,11.3594657 158.793426,14.4799419 L158.793426,15.3841731 L150.162125,15.3841731 L150.162125,15.3841731 Z" id="Fill-13"></path>
                <path d="M166.754007,17.8727341 L166.754007,22.9181821 C166.754007,25.9513751 165.150163,27.1470771 162.992288,27.1470771 L159.930511,27.1470771 L159.930511,23.8222158 L161.359419,23.8222158 C163.1382,23.8222158 163.254692,22.7432206 163.254692,21.9556962 L163.254692,17.2603688 C163.254692,14.5480703 164.946005,14.3438827 166.170755,14.2273733 L166.170755,14.1689212 C164.946005,14.0814404 163.254692,13.8772528 163.254692,11.1649543 L163.254692,6.44040076 C163.254692,5.65307391 163.1382,4.57388123 161.359419,4.57388123 L159.930511,4.57388123 L159.930511,1.24921737 L163.079756,1.24921737 C165.062695,1.24921737 166.754007,2.47414549 166.754007,5.50714099 L166.754007,10.5235603 C166.754007,12.3316277 169.086818,12.5358153 169.903252,12.5358153 L169.903252,15.8604792 C169.086818,15.8604792 166.754007,16.0646668 166.754007,17.8727341" id="Fill-14"></path>
            </g>
        </g>
    </g>
</svg>