<?xml version="1.0" encoding="utf-8"?>
<!-- Generator: Adobe Illustrator 18.1.1, SVG Export Plug-In . SVG Version: 6.00 Build 0)  -->
<svg version="1.1" id="Layer_1" xmlns="http://www.w3.org/2000/svg" xmlns:xlink="http://www.w3.org/1999/xlink" x="0px" y="0px"
	 width="1592.6px" height="129.7px" viewBox="78 233.6 1592.6 129.7" enable-background="new 78 233.6 1592.6 129.7"
	 xml:space="preserve">
<symbol  id="_x2E_logo-aj" viewBox="-148.3 -50 296.7 100">
	<path fill="#6B7482" d="M-93.4,4.9c-3.9,7.7-8.8,14.9-18.7,27.2c-4.2,5.2-5.4,7.4-6.1,10.4c-0.6,2.9,0,5.3,1.8,6.6
		c0.8,0.6,0.9,0.9,0.3,0.9c-0.9,0-2.6-1.6-3.2-2.9c-0.7-1.6-0.9-2.6-0.9-5c0-2.6,0.3-3.8,1.3-6.2c0.3-0.8,0.7-1.6,0.8-1.8
		c0.1-0.3,0.1-0.5-0.4-1.2c-1.8-2.8-2.1-5.8-1-8.8c1.3-3.6,1.5-4,1.5-5.3c0.2-3.2-0.8-6.6-4.7-15.7c-2.1-4.8-2.9-8-3-11.6
		c-0.1-1.9,0.1-5,0.3-5.2c0,0,0.4,0.2,0.7,0.6l0.7,0.6l0.1,2c0.1,2.2,0.3,3.5,1.1,5.7c0.7,2.1,1.1,3,2.9,6.6
		c2.8,5.6,3.8,9.5,3.7,14.6c0,1.2,0,2.2,0.1,2.2c0.2,0,4.4-4.5,5.9-6.3c3.3-3.9,4.4-6.2,4.4-8.7c0-2.4-0.8-4.7-2.5-6.7
		c-1.3-1.6-1.5-2.1-1.5-3.3c0-0.8,0.1-1.5,0.6-3c0.4-1.1,0.7-1.9,0.8-1.9c0.1,0,0.4,0.4,0.8,0.9c0.8,1.1,1.9,2.1,4.6,4.1
		c1,0.8,2.3,1.8,2.9,2.3S-99-3.1-99-3.1c0.1,0,0.1-0.5,0-1.1c-0.3-3.1-2.5-6.5-7.1-10.9c-5.3-5-7.5-8-8.5-11.7
		c-0.4-1.3-1.1-6.1-1.7-10c-0.4-2.7-0.7-4-1.3-5.3c-2.2-4.8-6.9-4.2-10.3,1.3c-0.5,0.7-0.9,1.4-0.9,1.5c-0.1,0.2-1.5-0.6-1.5-0.8
		c0-0.1,0.4-0.9,0.9-1.8c2-4,4.9-6.8,7.9-7.8l0,0c1-0.3,1.4-0.4,2.6-0.3c1.3,0,1.6,0.1,2.5,0.5c1.4,0.7,2.4,1.9,2.9,3.8
		c0.4,1.2,0.9,4.7,1.4,9.6c0.3,3.4,0.9,6.7,1.4,8s1.9,3,5.9,7.2s5.4,5.9,6.4,7.9s1.3,3,1.4,5c0.1,1.9-0.1,3.8-0.6,6.6
		c-0.4,2-1.3,5.8-1.5,6c-0.1,0.1-0.4-0.2-0.7-0.6c-0.9-1.2-3.8-3.8-4-3.6c0,0,0,0.3,0.1,0.7c0.9,3.4-0.1,7.5-2.8,11.6
		c-1.5,2.2-3.1,4.2-6,7.3c-4.8,5-5.7,6.4-5.9,8.7c0,0.8,0,1.4,0.2,1.9c0.3,0.8,0.9,2,1.1,2c0.1,0,0.7-0.7,1.3-1.6
		c0.7-0.9,1.6-2.2,2.2-2.8c11.8-14.8,17.3-23,20.4-30.7c0.9-2.2,1.7-4.8,1.9-6.4c0.3-2,0.1-5.9-0.4-7.9c-0.7-2.6-1.8-5-3.2-6.8
		c-0.8-1.1-2.5-2.7-3.4-3.3c-2.9-1.9-6.6-2.7-10.1-2.1c-0.8,0.1-1.5,0.3-1.6,0.3c-0.3,0-0.6-0.8-0.9-3c-0.4-2.2-0.4-2.1,1.1-2.5
		c4.3-1.3,9.1-1,12.7,0.8c5.3,2.7,8.4,8.1,9.1,15.8c0.3,3.6,0,7-1.1,11.2C-89.9-2.6-90.9,0-93.4,4.9z"/>
	<path fill="#6B7482" d="M-105.8-40.5c0-0.5-0.1-0.6-0.5-0.8s-0.5-0.2-0.8,0c-0.4,0.3-0.9,1.1-1.4,2.3c-0.4,1-0.7,1.3-0.9,1.1
		c-0.1-0.1-0.1-0.5,0.3-1.3c0.9-2.5,1.7-3.7,2.8-4.3l0,0c0.8-0.4,1-0.4,1.5,0.1s0.5,0.7,0.2,1.8C-105.1-40-105.7-39.4-105.8-40.5z"
		/>
	<path fill="#6B7482" d="M-124.6-24.2c0.1,1.5,0.3,2.9,0.4,3.1c0.1,0.3,1.1,1.3,3.1,3.1c3.1,2.8,3.7,3.6,3.7,4.8
		c0,0.7-0.6,5-0.7,5.2c-0.1,0.1-0.4-0.3-0.8-0.8c-0.6-0.9-2.6-2.8-5.2-5c-1.7-1.5-2-2.3-2.6-6.4c-1-7.1-2.3-10.9-4.4-13
		c-2-2-5.2-2.5-7.7-1.2c-2.6,1.3-4.5,5.2-4.7,9.6l-0.1,1.7l1.2-1.1c1.6-1.5,2.8-2.1,4.2-2.1c1.3,0,1.7,0.1,2.4,0.7
		c1,0.9,1.4,2.2,1.4,4.3c0,4.1-2.2,9-4.6,10.3c-1,0.5-2.3,0.5-3.2-0.1s-1.8-1.8-2.2-3.1c-0.2-0.5-0.4-1-0.5-1.1
		c-0.3-0.1-0.5,1.7-0.5,3.9c0,1.6,0.1,2.5,0.3,3.7c0.9,4.3,2.6,7.3,5.9,10.6c2.3,2.2,4.6,4,9.8,7.5c4,2.7,5.8,4.1,6.7,5.6
		c0.4,0.7,0.5,0.7,0.5,0.4c0.1-1-1.1-4.1-3.9-9.9c-2.3-4.8-3-6.4-4.2-9.6c-1.5-4-2.4-7.6-2.9-11.5c-0.3-2.5-0.5-7.6-0.3-10.8
		c0.2-2.9,0.8-7.4,1.1-7.7c0.1-0.1,0.3,0,0.7,0.4l0.5,0.5l-0.3,1.7c-1,6.1-0.6,12.7,1.1,19.4c1.2,4.7,2.7,8.5,6.3,15.9
		c3.1,6.5,3.7,8.7,3.5,13.9c-0.1,4.3-0.7,6.9-1.9,8.1c-0.6,0.7-1.3,1.1-2.2,1.1c-2.1,0-3.3-1.4-3.3-3s1.4-3,3-3c0.8,0,1.4,0.3,2,0.7
		l0.4,0.3l-0.1-1.1c-0.1-1.4-0.6-2.4-1.9-3.8c-1.4-1.5-2.7-2.5-7.2-5.1c-6-3.6-8.1-5.1-10.3-7.2c-2.8-2.7-4.7-6-5.6-9.4
		c-1.2-4.7-0.8-9.2,1.2-14.3c0.6-1.5,0.6-1.6,0.7-4.1c0.2-6.7,1.9-11.3,5.4-14.7c1.8-1.8,3.4-2.6,5.5-2.8c0.5-0.1,1.3-0.1,1.7-0.1
		C-127.9-39.6-125.7-35.4-124.6-24.2z M-142.7-19c0.9,1.8,2.3,2.9,3.6,2.9c0.3,0,0.6-0.1,0.8-0.2c0.5-0.3,1.3-1.5,1.3-2
		c0-0.2-0.2-0.7-0.4-1.2c-0.3-0.6-0.6-0.9-1.2-1.2c-1.1-0.5-2.3-0.5-3.4,0C-143.1-20.2-143.2-20.1-142.7-19z"/>
	<path fill="#6B7482" d="M-121-20.6c-0.3,0.5-0.7,0.9-0.8,0.9s-0.5-0.3-0.8-0.7l-0.7-0.7l0.6-1.2c1.4-2.8,3.3-5.5,5.2-7.3
		c0.6-0.6,1.1-1,1.2-1c0,0,0.2,0.9,0.4,1.8c0.2,0.9,0.4,1.9,0.5,2.1c0.1,0.3,0,0.5-0.9,1.2C-117.7-24.3-120.2-21.6-121-20.6z"/>
	<path fill="#6B7482" d="M-133.6,2.4c0,1-3.1-1.7-4.1-3.6c-0.4-0.7-0.6-1.4-0.7-2.1c-0.2-1.3,0-2,0.5-2.6c1-1,2.4-0.2,3,1.8
		c0.3,0.9,0.3,1.4,0,1.5c-0.2,0.1-0.7-0.5-0.7-0.9c0-0.8-1-1-1.5-0.3c-0.8,1-0.1,2.5,2,4.7C-134.2,1.6-133.6,2.3-133.6,2.4z"/>
	<path fill="#6B7482" d="M-109.6,4.8c-0.2,1.1-0.2,1.1-0.7,0.5c-0.2-0.3-1.7-1.9-3.2-3.6c-3.7-4-3.8-4.2-3.5-5.6
		c0.1-0.3,0.2-0.6,0.3-0.6c0.1,0,0.3,0.3,0.6,0.7c0.3,0.4,1.8,2.1,3.3,3.8s2.9,3.3,3,3.6C-109.5,4.1-109.5,4.4-109.6,4.8z"/>
	<path fill="#6B7482" d="M-128.7,16.5c1.7,0,3,1.4,3,3l0,0c0,1.7-1.4,3-3,3c-1.7,0-3-1.4-3-3l0,0C-131.7,17.9-130.4,16.5-128.7,16.5
		z"/>
	<polygon fill="#6B7482" points="-115.9,-16 -112,-17.9 -109.8,-13.4 -113.7,-11.5 	"/>
	<polygon fill="#6B7482" points="-100.9,-19.7 -103.1,-24.2 -99.2,-26.1 -97,-21.6 	"/>
	<polygon fill="#6B7482" points="-121,-29.9 -124.2,-33.8 -120.8,-36.6 -117.6,-32.7 	"/>
	<polygon fill="#6B7482" points="-125,-40.7 -121.6,-43.4 -118.4,-39.5 -121.8,-36.7 	"/>
	<path fill="#6B7482" d="M-70.7-2.3l-9.9-28.3h7.3l1.7,5.1h9.5l1.4-5.1h7.7l-9.7,28.3C-62.7-2.3-70.7-2.3-70.7-2.3z M-69.5-18.9
		l2.7,8.4l2.7-8.4H-69.5z"/>
	<path fill="#6B7482" d="M-3.5-2.3l-9.9-28.3h7.3l1.7,5.1h9.5l1.4-5.1h7.7L4.5-2.3H-3.5z M-2.3-18.9l2.7,8.4l2.7-8.4H-2.3z"/>
	<path fill="#6B7482" d="M138.6-2.3h-8l-9.9-28.3h7.3l1.7,5.1h9.5l1.4-5.1h7.7L138.6-2.3z M131.8-18.9l2.7,8.4l2.7-8.4H131.8z"/>
	<polygon fill="#6B7482" points="-32,-24.5 -41,-24.5 -41,-2.3 -48,-2.3 -48,-30.5 -32,-30.5 	"/>
	<polygon fill="#6B7482" points="52.7,-19.5 62.1,-19.5 62.1,-13.8 52.7,-13.8 52.7,-8.2 63.9,-8.2 63.9,-2.3 45.8,-2.3 45.8,-30.7 
		64.8,-30.7 64.8,-24.9 52.7,-24.9 	"/>
	<polygon fill="#6B7482" points="77.9,-19.5 87.4,-19.5 87.4,-13.8 78,-13.8 78,-8.2 89.1,-8.2 89.1,-2.3 71,-2.3 71,-30.7 
		90,-30.7 90,-24.9 77.9,-24.9 	"/>
	<polygon fill="#6B7482" points="39,-9.5 39,-2.3 19.6,-2.3 19.6,-8.2 29.6,-8.2 19.2,-23.5 19.2,-30.7 39.2,-30.7 39.2,-24.5 
		28.7,-24.5 	"/>
	<path fill="#6B7482" d="M-18-2.2h-7.1l0.1-28.2c0-2.2-1.7-4.2-3.5-4.2c-1.3,0-2.3,0.7-2.3,0.7l-1.6-5.9c0,0,7.6-3.9,11.9,0.7
		c3.1,3.4,2.6,7.8,2.6,7.8v29.1H-18z"/>
	<path fill="#6B7482" d="M112.2-17c1.1,0.8,2.4,1.8,2.4,1.8s2,1.2,2,5.1s-2.5,7.8-6.9,7.8H96.3l0,0v-28.2h7.1V-20
		c1.7,0,2.8,0.2,3.6-0.7c0.9-1,4.3-9.8,4.3-9.8h7.3l-4.4,11.2C114.1-19.3,113.2-17,112.2-17z M106.8-13.9h-3.5v5.6h3.4
		c1.3,0,2.6-1.3,2.6-2.8C109.4-12.6,108.1-13.9,106.8-13.9z"/>
</symbol>
<symbol  id="_x2E_logo-az" viewBox="-162.8 -40.8 325.6 81.5">
	<path fill="#6B7482" d="M-149.5-3.9l-13.3-35h5l3.9,10.7h13.3l3.8-10.7h4.9l-12.8,35C-144.7-3.9-149.5-3.9-149.5-3.9z M-152.4-24.3
		l5.4,14.6l5.1-14.6H-152.4z"/>
	<path fill="#6B7482" d="M-119.8-22.9c-2.8,0.6-6.2,1.6-6.2,4.1c0,1.8,1.8,3.9,5.3,3.9c3.6,0,5.7-2.4,6.1-3.4l4.1,1.7
		c-1.9,3.6-5.7,5.1-9.7,5.1c-6.2,0-10.2-3-10.2-7.9c0-5.5,4.7-6.6,9.3-7.6c3.9-0.8,7.7-1.8,7.7-4.8c0-2.9-2.3-4.4-6.3-4.4
		c-3.2,0-5.3,0.9-6.5,3l-4.7-0.8c1.8-3.8,5.7-5.6,11.1-5.6c7.3,0,11.1,4.1,11.1,8.4C-108.8-25.6-113.9-24-119.8-22.9z"/>
	<path fill="#6B7482" d="M-98.9-3.9l-4.6-1.9v-6.4h-4.2v-3.7h4.2v-17.2c-0.1-3.5-0.1-6,5.1-6c1.7,0,3.5,0.3,4.3,0.4v3.7
		c-0.9-0.3-2.1-0.6-2.9-0.6c-1.9,0-1.9,1.3-1.9,4.5v15.2h4.8v3.7h-4.8V-3.9z"/>
	<path fill="#6B7482" d="M-85.6-17.1v4.8h-4.5v-26.6h4.5v12.2c0,2.3-0.1,5,1.1,6.9c1.4,2.4,3.6,3.3,8,3.3v4.6
		C-78.3-11.9-83.1-12-85.6-17.1z"/>
	<polygon fill="#6B7482" points="-24.8,-8.3 -24.8,-3.9 -50,-3.9 -50,-8.2 -30.1,-8.2 -50.1,-34.4 -50.1,-38.9 -24.3,-38.9 
		-24.3,-34.7 -44.7,-34.7 	"/>
	<path fill="#6B7482" d="M16.5-11.6c-1.6,0-5.8-0.4-8.3-4.7v3.9H3.7v-26.5h4.5v15.1c0,2,0,4,2,6c1.4,1.4,3.1,2,5.1,2
		c2.4,0,4.9-1.1,5.7-3.7c0.3-0.9,0.3-1.7,0.3-4.4V-39h4.5v15.8c0,2.2,0,3.9-0.5,5.5C23.9-13.3,19.8-11.6,16.5-11.6z"/>
	<path fill="#6B7482" d="M66.7-14.6c3.7,0,5.4-2,6.2-3.8l4.2,1.7c-2.6,4.3-7.2,5.3-10.6,5.3c-8.5,0.1-12.6-6.8-12.6-14.3
		c0-6.5,3.6-13.8,13-13.8c5.5,0,8.5,2.6,10.2,5.3l-4,1.7C72.2-34.3,70.4-36,67-36c-3,0-8.1,1.9-8.1,10.7
		C58.9-23,59.3-14.6,66.7-14.6z"/>
	<path fill="#6B7482" d="M0.6-20.7C-1-14-5.7-11.3-10.5-11.3c-5.6,0-12.2-3.8-12.2-13.8c0-9,4.5-14.3,12.4-14.3
		c5.8,0,8.7,3,10.3,5.6L-4.3-33c-1.2-1.8-3-3-5.5-3c-6.3-0.1-8.2,5.5-8,10H1.1C1.1-25,1.1-22.9,0.6-20.7z M-17.9-22.9
		c0.5,5.3,3.2,8.1,7,8.1c2.7,0,6.7-1.2,7.1-8.1H-17.9z"/>
	<path fill="#6B7482" d="M51.4-20.7c-1.6,6.7-6.3,9.4-11.1,9.4c-5.6,0-12.2-3.8-12.2-13.8c0-9,4.5-14.3,12.4-14.3
		c5.8,0,8.7,3,10.3,5.6L46.5-33c-1.1-1.8-3-3-5.5-3c-6.3-0.1-8.2,5.5-8,10h18.9C51.9-25,51.9-22.9,51.4-20.7z M32.9-22.9
		c0.5,5.3,3.2,8.1,7,8.1c2.7,0,6.7-1.2,7.1-8.1H32.9z"/>
	<path fill="#6B7482" d="M100.6-20.2c0,0,0.1,4.4-2.9,6.7c-2.1,1.6-5.3,2.3-7.8,2.3c-4.5,0-7.6-1.8-9.2-4.7
		c-0.1-0.1-0.2-0.3-0.2-0.4l4.1-1.7c0.4,1.6,1.7,3.4,5.4,3.4c5.9,0,5.9-4.6,5.9-7.4v-0.7L91.7-23c-7.9-0.6-10.8-2.4-12.3-4.7
		c-0.8-1.2-1.2-2.6-1.2-4c0-4.5,3.8-7.6,9-7.6c5.1,0,7.6,2.9,8.9,4.3c0.1-2.1,0.5-3.9,0.5-3.9h4.6c-0.6,1.1-0.7,5.1-0.7,5.1
		L100.6-20.2z M95.4-31.6c-1.3-2.8-3.9-4-7-4c-3.3,0-5,1.8-5,3.9c0,1.9,0.8,3.7,5.8,4.8c2.9,0.6,5.2,1,7,1.2
		C96.1-29.5,96-30.1,95.4-31.6z"/>
	<path fill="#6B7482" d="M-54.1-20.2c0,0,0.1,4.4-2.9,6.7c-2.1,1.6-5.3,2.3-7.8,2.3c-4.5,0-7.6-1.8-9.2-4.7
		c-0.1-0.1-0.2-0.3-0.2-0.4l4.1-1.7c0.4,1.6,1.7,3.4,5.4,3.4c5.9,0,5.9-4.6,5.9-7.4v-0.7L-63-23c-7.9-0.6-10.7-2.4-12.3-4.7
		c-0.8-1.2-1.2-2.6-1.2-4c0-4.5,3.8-7.6,9-7.6c5.1,0,7.6,2.9,8.9,4.3c0.1-2.1,0.5-3.9,0.5-3.9h4.6c-0.6,1.1-0.7,5.1-0.7,5.1
		L-54.1-20.2z M-59.3-31.6c-1.3-2.8-3.9-4-7-4c-3.3,0-5,1.8-5,3.9c0,1.9,0.8,3.7,5.8,4.8c2.9,0.6,5.2,1,7,1.2
		C-58.6-29.5-58.7-30.1-59.3-31.6z"/>
	<path fill="#6B7482" d="M162.6-2.1c0,0.2,0,0.3-0.1,0.5c-0.1,0.3-0.2,0.6-0.3,1c-0.1,0.3-0.3,0.6-0.5,1c-0.2,0.3-0.4,0.7-0.6,1
		c-0.1,0.2-0.3,0.4-0.4,0.5c-0.2,0.2-0.4,0.4-0.6,0.5c-0.5,0.4-0.9,0.7-1.4,1c-1.1,0.7-2.2,1.4-3.3,1.9c-1.4,0.6-2.8,1.4-4.2,1.9
		l-9.8,3.4c0,1.9,0.1,3.7,0,5.6c-0.1,2.8-0.2,5.5-0.4,8.3c-0.1,1.9-0.4,3.8-0.7,5.7c-0.2,1.5-0.6,2.9-0.9,4.4
		c-0.1,0.3-0.2,0.7-0.3,1s-0.2,0.6-0.3,0.9c-0.1,0.3-0.2,0.5-0.4,0.8c-0.1,0.2-0.2,0.4-0.4,0.7c-0.1,0.2-0.3,0.4-0.4,0.6
		c-0.1,0.2-0.3,0.3-0.4,0.5c-0.1,0.1-0.3,0.3-0.4,0.4c-0.1,0.1-0.3,0.2-0.4,0.3c-0.1,0.1-0.3,0.2-0.4,0.3c-0.1,0.1-0.3,0.1-0.4,0.2
		c-0.2,0.1-0.5,0.2-0.7,0.3s-0.4,0.1-0.6,0.1c-0.2,0-0.3,0-0.5,0c-0.3,0-0.5,0-0.8,0s-0.6-0.1-0.9-0.1c-0.3-0.1-0.6-0.1-0.9-0.2
		c-0.3-0.1-0.6-0.2-0.9-0.4c-0.3-0.2-0.6-0.3-1-0.5c-0.3-0.2-0.7-0.4-1-0.7c-0.5-0.4-1.1-0.8-1.6-1.3c-2-1.9-4.1-3.9-6-5.9
		c-1-1.1-2.1-2.2-3-3.3c-3.8-4.6-7.5-9.1-11.1-13.8c-1.6-2.1-3.1-4.3-4.6-6.4c-0.4-0.5-0.7-1.1-1-1.7c-0.6-1-1.1-2-1.6-3
		c-0.1-0.3-0.2-0.5-0.3-0.8c-0.1-0.3-0.2-0.5-0.3-0.8c-0.1-0.3-0.1-0.5-0.2-0.8c0-0.2,0-0.5,0-0.7c0-0.1,0-0.2,0.1-0.4
		c0-0.1,0.1-0.2,0.2-0.4c0.1-0.1,0.2-0.2,0.2-0.4c0.1-0.1,0.2-0.2,0.3-0.4c0.2-0.2,0.5-0.5,0.8-0.7s0.5-0.4,0.8-0.6
		c0.5-0.3,1-0.6,1.6-1c0.2-0.1,0.5-0.2,0.7-0.4c0.1,0-0.2,0.1-0.2,0.1l0,0l0,0c0.1-0.1,0.3-0.1,0.4-0.2c3.2-1.7,6.5-3.3,9.7-5.1
		c3.2-1.7,6.4-3.4,9.6-5.2l7.2-4c-2.5-1.9-5-3.7-7.5-5.6c-0.9-0.7-1.8-1.6-2.6-2.4c-0.7-0.7-1.3-1.4-1.9-2.2
		c-0.5-0.6-0.9-1.2-1.3-1.9c-0.3-0.5-0.6-1-0.9-1.6c-0.2-0.4-0.4-0.8-0.5-1.3c-0.1-0.3-0.2-0.6-0.2-0.9c0-0.2,0-0.4-0.1-0.6
		c0-0.1,0-0.1,0-0.2c0-0.2,0-0.3,0-0.5s0-0.3,0.1-0.5c0-0.2,0.1-0.3,0.1-0.5c0-0.1,0.1-0.3,0.1-0.4c0.1-0.1,0.1-0.3,0.2-0.4
		c0.1-0.1,0.1-0.3,0.2-0.4c0.2-0.2,0.3-0.5,0.5-0.6c0.2-0.2,0.4-0.4,0.6-0.5c0.2-0.2,0.5-0.3,0.7-0.5c0.2-0.1,0.5-0.3,0.8-0.4
		c0.3-0.1,0.5-0.2,0.8-0.3c1-0.2,2-0.4,3-0.6c0.5-0.1,1-0.1,1.5-0.1c1.7,0.1,3.5,0.3,5.2,0.6c2,0.3,4,0.7,6,1.2
		c2.3,0.5,4.7,1.1,7,1.7c1.6,0.4,3.3,0.8,4.9,1.5c1.2,0.5,2.5,1,3.7,1.5c0.3,0.1,0.5,0.3,0.8,0.4c0.2,0.1,0.5,0.3,0.7,0.4
		c0.2,0.1,0.4,0.3,0.6,0.4c0.1,0.1,0.3,0.3,0.4,0.5c0.1,0.1,0.2,0.3,0.3,0.4c0.1,0.1,0.1,0.3,0.1,0.4s0,0.3,0,0.4s0,0.3,0,0.4
		s-0.1,0.3-0.1,0.4s-0.1,0.3-0.2,0.4c-0.1,0.1-0.1,0.2-0.2,0.3c-0.1,0.1-0.2,0.2-0.3,0.3c-0.2,0.2-0.4,0.4-0.6,0.5
		c-0.2,0.1-0.3,0.3-0.5,0.4s-0.4,0.2-0.6,0.4c-1.3,0.8-2.5,1.6-3.8,2.3l-5.4,3.2c3.3,2.2,6.6,4.4,9.8,6.6c1.4,1,2.7,2,4.1,3
		c1.1,0.9,2.2,1.9,3.2,2.9c0.5,0.5,0.9,1,1.4,1.5c0.2,0.2,0.4,0.5,0.6,0.7c0.2,0.2,0.3,0.5,0.5,0.7c0.4,0.8,0.8,1.7,1.2,2.5
		c0.1,0.4,0.2,0.7,0.3,1.1c0,0.2,0.1,0.3,0.1,0.5s0,0.3,0,0.5C162.6-2.4,162.6-2.2,162.6-2.1z M122.4,19.9c1.8,1.9,3.6,3.8,5.5,5.6
		c0.3,0.3,0.7,0.6,1.1,1c0.1,0.1,0.3,0.2,0.4,0.3c0.1,0.1,0.2,0.2,0.3,0.2s0.2,0.1,0.2,0.1c0.1,0,0.2,0.1,0.3,0.1s0.2,0,0.3,0
		s0.1,0,0.2,0c0.1,0,0.1,0,0.2-0.1c0.1,0,0.1-0.1,0.1-0.1c0.1,0,0.1-0.1,0.1-0.1c0.1-0.1,0.1-0.1,0.1-0.2s0.1-0.2,0.1-0.2
		c0.1-0.2,0.2-0.5,0.2-0.7c0.1-0.3,0.2-0.7,0.2-1c0.1-0.9,0.3-1.7,0.4-2.6c0.1-1.1,0.2-2.2,0.3-3.3L133,13l-6.6,1.5l-6.2,1l-1.5,0.1
		h-0.5C119.7,17,121,18.5,122.4,19.9z M118.3,11.7L118.3,11.7L118.3,11.7l0.1,0.1h0.1l0.2-0.1l0.6-0.2l0.8-0.4
		c2.1-0.9,4.2-1.8,6.3-2.7c1.4-0.6,2.8-1.2,4.2-1.8l2.8-1.2l0.2-0.1c0.1-2.2,0.3-4.3,0.4-6.5c0.1-1.7,0.1-3.4,0.2-5.1
		c0-0.2,0-0.4,0-0.6c0-0.1,0-0.2,0-0.4c0-0.1,0-0.2-0.1-0.4c0-0.1-0.1-0.2-0.1-0.3c-0.1-0.1-0.1-0.2-0.2-0.3l-0.1-0.1
		c0,0-0.1-0.1-0.2-0.1c-0.1,0-0.1-0.1-0.2-0.1c-0.1,0-0.1,0-0.2-0.1c-0.1,0-0.2,0-0.3,0s-0.2,0-0.3,0s-0.2,0-0.3,0.1
		c-0.1,0-0.2,0.1-0.3,0.1c-0.2,0.1-0.4,0.2-0.6,0.3c-0.2,0.1-0.4,0.3-0.7,0.4c-0.2,0.2-0.5,0.4-0.7,0.6s-0.5,0.4-0.7,0.7
		c-0.5,0.5-0.9,1-1.4,1.6c-0.8,1-1.6,1.9-2.3,3c-1,1.4-2,2.9-2.9,4.3c-0.6,0.9-1.1,1.7-1.6,2.7l-2.1,4.1l-0.5,1.3l-0.1,0.4l-0.1,0.4
		v0.3L118.3,11.7z M141.8-25.6c0.6-0.4,1.1-0.7,1.7-1.1c0.7-0.5,1.5-1,2.2-1.5c0.5-0.4,1-0.8,1.5-1.2c0.2-0.2,0.4-0.4,0.6-0.6
		c0.2-0.2,0.3-0.4,0.4-0.5l0,0v-0.1c0,0,0,0,0-0.1c0,0,0,0-0.1,0H148c-0.1,0-0.1,0-0.2,0c-2.8-0.2-5.6-0.4-8.4-0.6l-10.9-0.9h-0.3
		l0.2,0.2l0.7,0.6c1.4,1.1,2.8,2.2,4.2,3.2l6.2,4.2C140.2-24.6,141-25.1,141.8-25.6z M150.1-4.2c0-0.1-0.1-0.2-0.1-0.3
		c-0.1-0.1-0.1-0.2-0.2-0.3c-0.2-0.2-0.4-0.4-0.6-0.6c-0.5-0.4-0.9-0.8-1.4-1.2c-1.7-1.2-3.4-2.5-5.2-3.7c-1.2-0.8-2.5-1.6-3.7-2.4
		l-7.2-4.6c-1,0.6-2,1.2-3,1.7l-13,7.4c-2.9,1.7-5.9,3.5-8.8,5.3c-0.5,0.3-1.1,0.7-1.6,1.1c-0.2,0.1-0.3,0.3-0.5,0.4
		c-0.1,0-0.1,0.1-0.2,0.1c-0.1,0.1-0.2,0.2-0.3,0.3c-0.1,0.1-0.1,0.1-0.2,0.2S104-0.6,104-0.5s-0.1,0.2-0.1,0.3s0,0.2,0,0.3
		s0,0.2,0.1,0.3c0,0.1,0.1,0.2,0.2,0.3c0.1,0.2,0.3,0.4,0.4,0.6c0.2,0.2,0.4,0.5,0.6,0.7c1.7,1.7,3.4,3.4,5.1,5.1l4.5,4.6L115,11
		l0.6-1.3V9.6c1.2-2.1,2.3-4.2,3.6-6.2c1.5-2.3,3-4.6,4.6-6.9c0.7-1.1,1.5-2.1,2.3-3.1c0.7-0.9,1.4-1.7,2.2-2.5
		c0.7-0.7,1.5-1.3,2.2-2c0.4-0.3,0.8-0.6,1.2-0.8c0.2-0.1,0.4-0.2,0.6-0.3c0.2-0.1,0.4-0.2,0.6-0.2c0.2-0.1,0.4-0.1,0.6-0.2
		c0.2,0,0.4-0.1,0.6-0.1c0.2,0,0.4,0,0.5,0c0.2,0,0.3,0,0.5,0s0.3,0.1,0.4,0.1c0.1,0,0.3,0.1,0.4,0.1c0.1,0,0.2,0.1,0.4,0.2
		c0.1,0.1,0.2,0.1,0.3,0.2c0.2,0.1,0.4,0.3,0.5,0.5c0.1,0.1,0.3,0.3,0.4,0.5c0.2,0.2,0.3,0.4,0.4,0.6c0.2,0.3,0.3,0.5,0.4,0.8
		c0.1,0.3,0.3,0.6,0.4,1c0.2,0.7,0.4,1.4,0.6,2.1c0.2,1,0.5,1.9,0.6,2.9l0.6,5.7c1.3-0.6,2.7-1.2,4-1.9s2.5-1.4,3.8-2.2
		c0.1-0.1,0.3-0.2,0.4-0.3c0.2-0.2,0.4-0.3,0.5-0.5c0.1-0.1,0.2-0.2,0.2-0.3c0.1-0.1,0.1-0.2,0.2-0.3c0-0.1,0.1-0.2,0.1-0.3
		s0-0.1,0-0.2C150.2-4.1,150.2-4.1,150.1-4.2z"/>
</symbol>
<symbol  id="_x2E_logo-bede" viewBox="-90 -42.5 180.1 85.1">
	<path fill="#6B7482" d="M73.8,29c-9.9,3.7-20.9,0.8-27.1-7.6c-3-4.1-5.1-8.9-7.7-13.3c-2-3.5-3.8-7.3-6.2-10.5
		C29-7.7,22.9-9.3,16.9-7C11.5-4.9,7.8,0.7,8.1,6.5c0.3,6.1,4.5,11.3,10.5,13c5.7,1.5,11.7-0.9,15.2-6.1c0.4-0.6,0.9-1.2,1.5-2.1
		c6.5,11.6,10.6,16.4,10.6,16.4v14.9h-10V26.9c-16.4,6.5-26.6,4.7-35.7-9.3c-0.8,1.1-1.5,2-2.2,2.9c-10.2,13.6-30.6,13.2-40-1
		c-2.4-3.6-4-7.6-6.1-11.4c-2-3.7-3.8-7.6-6.3-10.9C-59.6-9.3-69-9.7-74.9-3.9s-5.5,15.1,0.8,20.5c6.2,5.3,15.6,4.1,20.4-2.7
		c0.6-0.8,1.1-1.6,1.9-2.7c1.7,3,6,9.8,6,9.8s-0.6,0.9-2,2.3c-7.3,7.2-18.6,9.2-27.9,4.8c-1-0.5-2-0.9-3.6-1.7v16.2H-90V2.9
		c0.5-10,9-18.2,18.6-20.6c10.5-2.6,20.2,0.7,26.2,9.4C-42.8-4.8-41-0.8-38.9,3c2.1,3.9,3.9,8.1,6.6,11.5c5.7,7.4,16.1,7.2,21.7-0.2
		c0.8-1,1.1-2.3,2-4c-6.8,0-12.9-0.1-18.9,0.1c-2.5,0.1-4.1-0.6-5.2-3c-2.2-4.8-4.6-9.5-7.1-14.1c-1.1-2.1-0.7-3.3,0.9-4.8
		c4.9-4.6,10.7-7.1,17.5-7c7.1,0.1,13.1,2.7,18,8.3c-2.8,2.4-5.3,4.6-7.7,6.8c-9.7-7.2-20.3-4.7-22.8,4.8c0.4,0.1,0,0.1,0,0.1H-3
		c3-6.9,8.6-15.2,15.8-18.1C25.5-22,38.4-16.8,45.3-3.5c2.4,4.7,4.3,9.6,7,14.1c1.7,2.9,4.1,5.9,6.9,7.6c7,4.4,17.6-0.2,18.6-7.9
		c-6.4,0-12.9,0.1-19.2-0.1c-1.3,0-3.2-0.9-3.8-2C52,3.1,49.4-2.2,46.9-7.5c-0.4-0.8-0.2-2.4,0.4-3.1C56-21.4,75.5-21,83.9-9.6
		c-2.6,2-5.2,4.1-7.8,6.1C65.8-10.4,54.6-8,52.8,1.6c1.3,0,2.6,0,3.8,0c9.8,0,33.3,0,33.3,0v3.5C90.3,15.5,83.8,25.4,73.8,29z"/>
	<path fill="#6B7482" d="M-81.5-35.5h3.4v-4.8c-0.5-0.3-1.2-0.6-1.8-0.7c-0.7-0.2-1.4-0.3-2.1-0.3c-0.9,0-1.8,0.2-2.5,0.5
		s-1.4,0.8-1.9,1.4c-0.5,0.6-0.9,1.2-1.2,2S-88-36-88-35.1c0,0.8,0.1,1.6,0.4,2.4s0.7,1.4,1.2,2s1.1,1,1.9,1.4
		c0.7,0.3,1.6,0.5,2.5,0.5s1.7-0.1,2.4-0.4c0.7-0.3,1.3-0.7,1.8-1.2l1.1,1.1c-0.7,0.7-1.4,1.1-2.2,1.5c-0.8,0.3-1.8,0.5-3,0.5
		c-1.1,0-2.1-0.2-3-0.6s-1.7-0.9-2.4-1.6c-0.7-0.7-1.2-1.5-1.6-2.4c-0.4-0.9-0.6-1.9-0.6-3s0.2-2.1,0.6-3s0.9-1.7,1.6-2.4
		s1.5-1.2,2.4-1.6c0.9-0.4,1.9-0.6,3-0.6c0.9,0,1.8,0.1,2.8,0.4c1,0.3,1.9,0.6,2.7,1.1v7.1h-4.9v-1.6H-81.5z"/>
	<path fill="#6B7482" d="M-48.6-27.9l-6.3-14.4h1.7l1.6,3.8h7.4l1.6-3.8h1.7l-6.3,14.4H-48.6z M-51.1-37.2l3.1,7.6l3.1-7.6H-51.1z"
		/>
	<polygon fill="#6B7482" points="-12.1,-39.6 -17,-27.9 -19.2,-27.9 -19.2,-42.3 -17.7,-42.3 -17.7,-29.9 -17.7,-29.9 -12.5,-42.3 
		-11.7,-42.3 -6.5,-29.9 -6.5,-29.9 -6.5,-42.3 -5,-42.3 -5,-27.9 -7.2,-27.9 	"/>
	<polygon fill="#6B7482" points="18.7,-42.3 20.2,-42.3 20.2,-27.9 18.7,-27.9 	"/>
	<polygon fill="#6B7482" points="54.3,-40.1 54.3,-40.1 45.7,-27.9 43.8,-27.9 43.8,-42.3 45.3,-42.3 45.3,-30 45.4,-30 53.9,-42.3 
		55.8,-42.3 55.8,-27.9 54.3,-27.9 	"/>
	<path fill="#6B7482" d="M85-35.5h3.4v-4.8c-0.5-0.3-1.2-0.6-1.8-0.7c-0.7-0.2-1.4-0.3-2.1-0.3c-0.9,0-1.8,0.2-2.5,0.5
		s-1.4,0.8-1.9,1.4c-0.5,0.6-0.9,1.2-1.2,2s-0.4,1.5-0.4,2.4c0,0.8,0.1,1.6,0.4,2.4s0.7,1.4,1.2,2s1.1,1,1.9,1.4
		c0.7,0.3,1.6,0.5,2.5,0.5s1.7-0.1,2.4-0.4c0.7-0.3,1.3-0.7,1.8-1.2l1.1,1.1c-0.7,0.7-1.4,1.1-2.2,1.5c-0.8,0.3-1.8,0.5-3,0.5
		c-1.1,0-2.1-0.2-3-0.6s-1.7-0.9-2.4-1.6c-0.7-0.7-1.2-1.5-1.6-2.4c-0.4-0.9-0.6-1.9-0.6-3s0.2-2.1,0.6-3s0.9-1.7,1.6-2.4
		s1.5-1.2,2.4-1.6c0.9-0.4,1.9-0.6,3-0.6c0.9,0,1.8,0.1,2.8,0.4c1,0.3,1.9,0.6,2.7,1.1v7.1H85V-35.5z"/>
</symbol>
<symbol  id="_x2E_logo-cresearch" viewBox="-127.1 -49.1 254.3 98.2">
	<g>
		<path fill="#6B7482" d="M-86.2-27.4c0,2.2-1.5,4.1-3.5,4.7c0,0,0,0,0,0c0,0,0,0,0,0c0.2,0.2,0.3,0.5,0.3,0.8
			c0,0.8-0.6,1.4-1.4,1.4c-0.8,0-1.4-0.6-1.4-1.4c0-0.3,0.1-0.5,0.2-0.7c0,0,0,0,0,0c-2.2-0.4-3.9-2.4-3.9-4.8
			c0-0.9,0.2-1.7,0.6-2.4c0,0,0,0,0,0c0,0,0,0,0,0c-0.2-0.3-0.3-0.7-0.3-1.2c0-1.4,1.1-2.5,2.5-2.5c0.9,0,1.6,0.5,2.1,1.1
			c0,0,0,0,0,0h0C-88.4-32.3-86.2-30.1-86.2-27.4z"/>
		<path fill="#6B7482" d="M97.6,18c0.2-0.4,0.6-0.6,1.1-0.6h1.1c0.7,0,1,0.4,0.6,1.1l-3.5,6.5c-0.3,0.6-0.6,0.9-0.6,0.9v0.1
			c2.1,0.7,3.5,2.9,3.5,5.3c0,2.5-1.2,4.3-3.1,5.1c-0.8,0.4-1.7,0.5-3.6,0.5h-5.2c-0.6,0-0.9-0.3-0.9-0.9c0,0,0-17.6,0-17.6
			c0-0.6,0.3-0.9,0.9-0.9h0.9c0.6,0,0.9,0.3,0.9,0.9v6.8h4.2L97.6,18z M89.6,27.4v7h3.2c1.2,0,1.8-0.1,2.3-0.3
			c1.2-0.5,1.8-1.6,1.8-3c0-2.2-1.3-3.6-3.5-3.6H89.6z"/>
		<path fill="#6B7482" d="M73.3,17.3h9.9c0.6,0,0.9,0.3,0.9,0.9v0.5c0,0.6-0.3,0.9-0.9,0.9H75v6.2h6.1c0.6,0,0.9,0.3,0.9,0.9v0.6
			c0,0.6-0.3,0.9-0.9,0.9H75v6.1h7.7c0.6,0,0.9,0.3,0.9,0.9v0.6c0,0.6-0.3,0.9-0.9,0.9h-9.5c-0.6,0-0.9-0.3-0.9-0.9V18.2
			C72.3,17.6,72.6,17.3,73.3,17.3z"/>
		<path fill="#6B7482" d="M126.3,9.9h-0.9c-0.6,0-0.9-0.3-0.9-0.9V1.4h-10.1V9c0,0.6-0.3,0.9-0.9,0.9h-0.9c-0.6,0-0.9-0.3-0.9-0.9
			V-8.6c0-0.6,0.3-0.9,0.9-0.9h0.9c0.6,0,0.9,0.3,0.9,0.9V-1h10.1v-7.6c0-0.6,0.3-0.9,0.9-0.9h0.9c0.6,0,0.9,0.3,0.9,0.9V9
			C127.1,9.6,126.8,9.9,126.3,9.9z"/>
		<path fill="#6B7482" d="M15.4,17.3h0.9c0.5,0,0.9,0.2,1,0.7l1.7,4.8h7.3l1.7-4.8c0.2-0.5,0.5-0.7,1-0.7H30c0.7,0,1,0.4,0.7,1
			L24.4,36c-0.2,0.5-0.5,0.7-1,0.7H22c-0.5,0-0.8-0.2-1-0.7l-6.4-17.6C14.4,17.7,14.7,17.3,15.4,17.3z M21.9,31.3
			c0.3,1,0.8,2.7,0.8,2.7h0.1c0,0,0.4-1.8,0.7-2.7l2.1-6.2h-5.9L21.9,31.3z"/>
		<path fill="#6B7482" d="M108-5.5c-0.4,0.5-0.8,0.5-1.3,0.1c-0.9-0.7-2.7-1.9-5.3-1.9c-4.5,0-7.2,3.6-7.2,7.7
			c0,4.1,2.7,7.4,7.2,7.4c2.3,0,4-1,4.9-1.5c0.5-0.3,0.9-0.3,1.3,0.2l0.4,0.5c0.3,0.5,0.3,0.9-0.2,1.3c-1,0.7-3.1,2-6.4,2
			c-5.8,0-9.9-4.3-9.9-9.9c0-5.7,3.9-10.2,9.9-10.2c3.5,0,5.9,1.6,6.9,2.5c0.4,0.4,0.5,0.8,0.1,1.3L108-5.5z"/>
		<path fill="#6B7482" d="M67,9.2c-0.2,0.5-0.5,0.7-1,0.7h-1.3c-0.5,0-0.9-0.2-1-0.7L57.3-8.4c-0.2-0.6,0.1-1.1,0.7-1.1h0.9
			c0.5,0,0.9,0.3,1,0.7l1.7,4.8H69l1.7-4.8c0.2-0.5,0.5-0.7,1-0.7h0.9c0.7,0,1,0.4,0.7,1.1L67,9.2z M62.4-1.6l2.2,6.2
			c0.3,1,0.8,2.7,0.8,2.7h0.1c0,0,0.4-1.8,0.7-2.7l2.1-6.2H62.4z"/>
		<path fill="#6B7482" d="M54.4-7.1h-8.1v6.2h6.1c0.6,0,0.9,0.3,0.9,0.9v0.5c0,0.6-0.3,0.9-0.9,0.9h-6.1v6.1H54
			c0.6,0,0.9,0.3,0.9,0.9V9c0,0.6-0.3,0.9-0.9,0.9h-9.5c-0.6,0-0.9-0.3-0.9-0.9V-8.6c0-0.6,0.3-0.9,0.9-0.9h9.9
			c0.6,0,0.9,0.3,0.9,0.9V-8C55.3-7.4,55-7.1,54.4-7.1z"/>
		<path fill="#6B7482" d="M85.9-1.9c-0.3,0.6-0.6,0.9-0.6,0.9V-1c2.1,0.7,3.5,2.9,3.5,5.3c0,2.5-1.2,4.3-3.1,5.1
			C85,9.8,84,9.9,82.1,9.9h-5.2C76.3,9.9,76,9.6,76,9V-8.6c0-0.6,0.3-0.9,0.9-0.9h0.9c0.6,0,0.9,0.3,0.9,0.9v6.8h4.2l3.8-7.1
			c0.2-0.4,0.6-0.6,1.1-0.6h1.1c0.7,0,1,0.4,0.6,1.1L85.9-1.9z M82.6,0.6h-3.9v7H82c1.2,0,1.8-0.1,2.3-0.3c1.2-0.5,1.8-1.6,1.8-3
			C86.1,2,84.7,0.6,82.6,0.6z"/>
		<path fill="#6B7482" d="M9.8,4.3c0,2.5-1.2,4.3-3.1,5.1C5.9,9.8,5,9.9,3.1,9.9h-5.2C-2.7,9.9-3,9.6-3,9V-8.6
			c0-0.6,0.3-0.9,0.9-0.9h0.9c0.6,0,0.9,0.3,0.9,0.9v6.8h4.2l3.8-7.1c0.2-0.4,0.5-0.6,1.1-0.6h1.1c0.7,0,1,0.4,0.6,1.1L6.9-1.9
			C6.6-1.3,6.3-1.1,6.3-1.1V-1C8.5-0.3,9.8,1.9,9.8,4.3z M3.6,0.6h-3.9v7h3.2c1.2,0,1.8-0.1,2.3-0.3C6.4,6.7,7,5.6,7,4.2
			C7,2,5.7,0.6,3.6,0.6z"/>
		<path fill="#6B7482" d="M30.8,5c0,1.7,1.5,2.7,3.5,2.7c1.7,0,2.8-0.7,3.6-1.1c0.5-0.3,0.9-0.3,1.2,0.3l0.4,0.7
			c0.2,0.5,0.2,0.9-0.3,1.2c-0.7,0.6-2.6,1.5-4.9,1.5c-3.5,0-6.3-2.1-6.3-5.4c0-6.1,9.4-5.1,9.4-9.4c0-1.7-1.3-2.8-3.4-2.8
			c-2.1,0-3.5,1.1-4.2,1.6c-0.5,0.3-0.9,0.3-1.2-0.2L28-6.5c-0.4-0.5-0.2-0.9,0.1-1.3c0.9-0.7,3-2,5.8-2c3.9,0,6.2,2.5,6.2,5.5
			C40.1,2,30.8,0.8,30.8,5z"/>
		<path fill="#6B7482" d="M23.2-25.8L23.2-25.8l5.3,8.4c0.3,0.5,0.1,0.8-0.5,0.8h-0.7c-0.4,0-0.6-0.1-0.8-0.5L21.6-25h-3.3v7.7
			c0,0.4-0.2,0.7-0.7,0.7h-0.6c-0.4,0-0.7-0.2-0.7-0.7v-18c0-0.4,0.2-0.7,0.7-0.7h0.6c0.4,0,0.7,0.3,0.7,0.7v8.6h3.3l5.3-8.8
			c0.2-0.3,0.4-0.5,0.8-0.5h0.8c0.5,0,0.7,0.4,0.4,0.8L23.2-25.8z"/>
		<path fill="#6B7482" d="M12.3,21.3c-0.4,0.5-0.8,0.5-1.3,0.1c-0.9-0.7-2.7-1.9-5.3-1.9c-4.5,0-7.2,3.5-7.2,7.7
			c0,4.1,2.7,7.4,7.2,7.4c2.3,0,4-1,4.9-1.5c0.5-0.3,0.9-0.3,1.3,0.2l0.4,0.5c0.3,0.5,0.3,0.9-0.2,1.3c-1,0.7-3.1,2-6.4,2
			c-5.8,0-9.9-4.3-9.9-9.9c0-5.7,3.9-10.2,9.9-10.2c3.5,0,5.9,1.6,6.9,2.5c0.4,0.4,0.5,0.8,0.1,1.3L12.3,21.3z"/>
		<path fill="#6B7482" d="M25.5-8.6V-8c0,0.6-0.3,0.9-0.9,0.9h-8.1v6.2h6.1c0.6,0,0.9,0.3,0.9,0.9v0.5c0,0.6-0.3,0.9-0.9,0.9h-6.1
			v6.1h7.7c0.6,0,0.9,0.3,0.9,0.9V9c0,0.6-0.3,0.9-0.9,0.9h-9.5c-0.6,0-0.9-0.3-0.9-0.9V-8.6c0-0.6,0.3-0.9,0.9-0.9h9.9
			C25.2-9.5,25.5-9.2,25.5-8.6z"/>
		<path fill="#6B7482" d="M11.1-16.6h-0.5c-0.4,0-0.7-0.2-0.7-0.7v-11.8c0-3.4-2.2-5.4-5.5-5.4c-3.3,0-5.5,2-5.5,5.3v11.9
			c0,0.4-0.3,0.7-0.7,0.7h-0.6c-0.4,0-0.7-0.2-0.7-0.7v-11.9c0-4.3,3-7.1,7.4-7.1c4.4,0,7.4,2.8,7.4,7.1v11.9
			C11.7-16.8,11.5-16.6,11.1-16.6z"/>
		<path fill="#6B7482" d="M34.3,17.3h0.9c0.6,0,0.9,0.3,0.9,0.9v11.7c0,1.1-0.2,2.8-0.2,2.8H36c0,0,0.9-1.8,1.6-2.8l8.3-12
			c0.2-0.4,0.6-0.6,1.1-0.6h1c0.6,0,0.9,0.3,0.9,0.9v17.6c0,0.6-0.3,0.9-0.9,0.9h-0.9c-0.6,0-0.9-0.3-0.9-0.9V24.1
			c0-1.1,0.2-2.8,0.2-2.8h-0.1c0,0-0.9,1.8-1.6,2.8l-8.3,12c-0.3,0.4-0.6,0.6-1.1,0.6h-1c-0.6,0-0.9-0.3-0.9-0.9V18.2
			C33.4,17.6,33.7,17.3,34.3,17.3z"/>
		<path fill="#6B7482" d="M62.1,17c3.5,0,5.9,1.6,6.9,2.5c0.4,0.4,0.5,0.8,0.1,1.3l-0.4,0.6c-0.4,0.5-0.8,0.5-1.3,0.1
			c-0.9-0.7-2.7-1.9-5.3-1.9c-4.5,0-7.2,3.5-7.2,7.7c0,4.1,2.7,7.4,7.2,7.4c2.3,0,4-1,4.9-1.5c0.5-0.3,0.9-0.3,1.3,0.2l0.4,0.5
			c0.3,0.5,0.3,0.9-0.2,1.3c-1,0.7-3.1,2-6.4,2c-5.8,0-9.9-4.3-9.9-9.9C52.2,21.5,56.1,17,62.1,17z"/>
		<path fill="#6B7482" d="M-68.1,40.8c2.2,0,4,1.8,4,3.9c0,2.2-1.8,4-4,4s-3.9-1.8-3.9-4C-72,42.6-70.3,40.8-68.1,40.8z"/>
		<path fill="#6B7482" d="M-100.6,31.3c0-1.3,1-2.3,2.3-2.3c1.3,0,2.3,1,2.3,2.3c0,1.3-1,2.3-2.3,2.3
			C-99.6,33.6-100.6,32.5-100.6,31.3z"/>
		<path fill="#6B7482" d="M-116.3,38.2c0.8,0,1.4,0.6,1.4,1.4c0,0.8-0.6,1.4-1.4,1.4s-1.4-0.6-1.4-1.4
			C-117.7,38.8-117,38.2-116.3,38.2z"/>
		<path fill="#6B7482" d="M-91.9,44c0.8,0,1.4,0.6,1.4,1.4c0,0.8-0.6,1.4-1.4,1.4c-0.8,0-1.4-0.6-1.4-1.4
			C-93.3,44.6-92.6,44-91.9,44z"/>
		<path fill="#6B7482" d="M-97.2,21.6c0,1.4-1.1,2.5-2.5,2.5c-1.4,0-2.5-1.1-2.5-2.5c0-1.4,1.1-2.5,2.5-2.5
			C-98.3,19.2-97.2,20.3-97.2,21.6z"/>
		<path fill="#6B7482" d="M-112.9,26.7c1.3,0,2.4,1.1,2.4,2.4c0,1.3-1.1,2.4-2.4,2.4c-1.3,0-2.4-1.1-2.4-2.4
			C-115.3,27.8-114.3,26.7-112.9,26.7z"/>
		<path fill="#6B7482" d="M-90.2,32.4c0.3,0,0.5,0,0.8,0.1c0.1,0,0.1,0.1,0.2,0.1c-0.1,0-0.1-0.1-0.2-0.1c0.6,0.1,1.2,0.4,1.7,0.8
			c0,0,0,0,0,0c-0.5-0.4-1-0.7-1.7-0.8c-0.9-0.7-1.4-1.9-1.4-3.1c0-2.2,1.8-4.1,4.1-4.1s4.1,1.8,4.1,4.1c0,2.2-1.8,4.1-4.1,4.1
			c-0.3,0-0.6,0-0.9-0.1c0.8,0.7,1.2,1.6,1.2,2.7c0,1.2-0.5,2.2-1.4,2.9c-0.2,0.1-0.4,0.2-0.5,0.3c-0.5,0.3-1.1,0.5-1.8,0.5
			c-2,0-3.7-1.6-3.7-3.7S-92.3,32.4-90.2,32.4z"/>
		<path fill="#6B7482" d="M-102.5,31.9c1.8,0,3.2,1.4,3.2,3.2c0,1.8-1.4,3.2-3.2,3.2s-3.2-1.4-3.2-3.2
			C-105.7,33.3-104.3,31.9-102.5,31.9z"/>
		<path fill="#6B7482" d="M-112.3,19c0-1.5,1.2-2.7,2.7-2.7c1.5,0,2.7,1.2,2.7,2.7c0,1.5-1.2,2.7-2.7,2.7
			C-111.1,21.8-112.3,20.5-112.3,19z"/>
		<path fill="#6B7482" d="M-117.9,9.5C-117.9,9.5-117.9,9.5-117.9,9.5c-1.4,0-2.5-1.1-2.5-2.5c0-1.4,1.1-2.5,2.5-2.5h0
			c1.4,0,2.5,1.1,2.5,2.4C-115.4,8.4-116.6,9.5-117.9,9.5z"/>
		<path fill="#6B7482" d="M-125.3,14.8c1,0,1.8,0.8,1.9,1.8c0,1-0.8,1.9-1.8,1.9h0c-1,0-1.9-0.8-1.9-1.8
			C-127.1,15.7-126.3,14.8-125.3,14.8L-125.3,14.8z"/>
		<path fill="#6B7482" d="M-124.4-16.5c-1,0-1.9-0.8-1.9-1.8c0-1,0.8-1.9,1.8-1.9c0,0,0,0,0,0c1,0,1.8,0.8,1.8,1.8
			C-122.6-17.3-123.4-16.5-124.4-16.5z"/>
		<path fill="#6B7482" d="M-101.4-10.4C-101.4-10.4-101.4-10.4-101.4-10.4c1.4,0,2.5,1.1,2.5,2.4c0,1.4-1.1,2.5-2.5,2.5
			c-1.4,0-2.5-1.1-2.5-2.5C-103.9-9.2-102.8-10.4-101.4-10.4z"/>
		<path fill="#6B7482" d="M-98.3,1.7C-98.3,1.7-98.3,1.7-98.3,1.7c1.4,0,2.5,1.1,2.5,2.4c0,1.4-1.1,2.5-2.5,2.5h0
			c-1.4,0-2.5-1.1-2.5-2.4C-100.7,2.9-99.6,1.7-98.3,1.7z"/>
		<path fill="#6B7482" d="M-97.3,23.5c0-1.9,1.5-3.4,3.4-3.4h0c1.9,0,3.4,1.5,3.4,3.4c0,1.9-1.5,3.4-3.4,3.4c0,0,0,0,0,0
			C-95.8,26.9-97.3,25.4-97.3,23.5z"/>
		<path fill="#6B7482" d="M-82.5-12.9C-82.5-12.9-82.5-12.9-82.5-12.9c1.4,0,2.6,1.1,2.6,2.6c0,1.1-0.7,2-1.6,2.4
			c0.3,0.6,0.5,1.2,0.5,2c0,1.6-0.9,2.9-2.2,3.6c0,0,0,0,0,0c0.9,0.3,1.6,1.2,1.6,2.2c0,0.8-0.3,1.4-0.9,1.9c0,0,0,0,0,0
			c0,0,0,0,0,0c0.3,0.5,0.5,1.1,0.5,1.7c0,1.7-1.4,3.1-3.1,3.1c0,0,0,0,0,0c-1.3,0-2.3-0.7-2.8-1.8c0,0,0,0,0,0c0,0,0,0,0,0
			c0,0,0,0,0,0c-0.1,1.9-1.7,3.4-3.6,3.5c0,0,0,0,0,0c-2,0-3.6-1.6-3.7-3.6c0-2,1.6-3.7,3.6-3.7c0,0,0,0,0,0c1.5,0,2.9,0.9,3.4,2.3
			c0.1-1.2,0.9-2.2,2-2.6c0,0,0,0,0,0c-0.1-0.2-0.1-0.4-0.1-0.6c0-0.3,0-0.5,0.1-0.7c0,0,0,0,0,0c0-0.1,0.1-0.2,0.1-0.3
			C-86-1.1-86.1-1-86.1-0.8c-0.3,0.2-0.7,0.4-1.1,0.4c-0.9,0-1.6-0.6-1.8-1.3c0,0,0,0,0,0c0,1.3-1.1,2.4-2.5,2.4c0,0,0,0,0,0
			c-1.4,0-2.5-1.1-2.5-2.4c0-1.4,1.1-2.5,2.5-2.5c0,0,0,0,0,0c1.1,0,2.1,0.8,2.4,1.8c0,0,0,0,0,0c0,0,0,0,0,0c0-0.5,0.2-1,0.6-1.3
			c0,0,0,0,0,0c0,0,0,0,0.1-0.1c0,0,0,0,0,0c0,0,0,0-0.1,0.1c-1.4,0-2.6-0.9-3.2-2c0,0,0,0,0,0c0,0,0,0,0,0c0,0,0,0,0,0
			c-0.4,1.1-1.6,2-2.9,2h0c-1.7,0-3.1-1.4-3.1-3.1c0-1.7,1.4-3.1,3.1-3.1c0,0,0,0,0,0c1.1,0,2.1,0.6,2.7,1.5
			c0.5-1.5,1.8-2.6,3.5-2.6c0,0,0,0,0,0c1,0,2,0.4,2.6,1.1c0.3-0.1,0.5-0.1,0.8-0.1c0,0,0,0,0,0c0,0,0,0,0,0c0-0.1,0-0.2,0-0.3
			C-85.1-11.8-83.9-12.9-82.5-12.9z M-85-10L-85-10C-85-10-85-10-85-10C-85-10-85-10-85-10z M-86.2,0.5C-86.2,0.5-86.2,0.5-86.2,0.5
			C-86.2,0.5-86.2,0.5-86.2,0.5C-86.2,0.5-86.2,0.5-86.2,0.5z M-85.5-1.7C-85.5-1.7-85.5-1.7-85.5-1.7c-0.1,0.2-0.1,0.3-0.2,0.4
			C-85.7-1.4-85.6-1.5-85.5-1.7z M-88.5-3.7C-88.5-3.7-88.5-3.7-88.5-3.7C-88.5-3.7-88.5-3.7-88.5-3.7C-88.5-3.7-88.5-3.7-88.5-3.7
			C-88.5-3.7-88.5-3.7-88.5-3.7z"/>
		<path fill="#6B7482" d="M-52.4,42.6C-52.4,42.6-52.4,42.6-52.4,42.6C-52.4,42.6-52.4,42.6-52.4,42.6
			C-52.4,42.6-52.4,42.6-52.4,42.6c-0.4-0.7-0.7-1.5-0.7-2.4c0-1.5,0.8-2.8,1.9-3.6c0,0,0,0,0,0c0,0,0,0,0,0v0l0,0
			c-0.2-0.3-0.3-0.7-0.3-1.1c0-0.4,0.1-0.7,0.3-1.1c0,0,0,0,0,0c-0.1-0.2-0.2-0.4-0.2-0.7c0-0.8,0.6-1.4,1.4-1.4
			c0.6,0,1.2,0.4,1.3,1c0.9,0.3,1.6,1.1,1.6,2.1c0,0.2,0,0.5-0.1,0.7l0,0c0.9,0.3,1.7,1,2.2,1.8c-0.1-0.2-0.1-0.4-0.1-0.6
			c0-0.6,0.3-1.2,0.7-1.5c0,0,0,0,0,0c0,0,0,0,0,0c-1.4-0.3-2.5-1.5-2.5-3c0-1.2,0.7-2.3,1.8-2.8v0l0,0c-0.8-0.8-1.2-1.9-1.2-3.1
			c0-1,0.3-1.9,0.9-2.7c0,0,0,0,0,0c0,0,0,0,0,0c0,0,0,0,0,0c0,0,0,0,0,0c-1.1-0.2-1.9-1.2-1.9-2.4c0-1.4,1.1-2.5,2.5-2.5
			c0.3,0,0.6,0.1,0.9,0.2c0,0,0,0,0,0c0,0,0,0,0,0c0.4-0.6,1.2-1.1,2-1.1c0.3,0,0.7,0.1,1,0.2l0,0c0-0.1,0-0.2,0-0.3
			c0-1.4,1.1-2.5,2.5-2.5s2.5,1.1,2.5,2.5c0,0.6-0.2,1.1-0.5,1.5c0,0,0,0,0,0c0,0,0,0,0,0c0,0,0,0,0,0c0,0,0,0,0,0
			c0,0.1,0.1,0.1,0.1,0.2c0,0,0,0,0,0c0,0,0,0,0,0c0,0,0,0,0,0c0,0,0,0,0,0c0.7-0.6,1.6-0.9,2.6-0.9c2.3,0,4.1,1.8,4.1,4.1
			c0,0.5-0.1,0.9-0.2,1.3c0,0,0,0,0,0c0,0,0,0,0,0v0c0.4-0.3,1-0.4,1.5-0.4c1.4,0,2.5,0.9,2.9,2.1c0,0,0,0,0,0c0,0,0,0,0,0
			c0,0,0,0,0,0c0,0,0,0,0,0c2,0.2,3.6,1.9,3.6,3.9c0,2.2-1.8,3.9-3.9,3.9c-0.3,0-0.6,0-0.9-0.1c-0.3,0.5-0.7,0.9-1.2,1.2
			c0,0,0,0,0,0c0,0,0,0,0,0c0.1,0.3,0.2,0.7,0.2,1c0,1.7-1.4,3-3,3c-0.1,0-0.3,0-0.4,0c0,0,0,0,0,0c-0.2,1.2-1.2,2.1-2.4,2.1
			c-0.9,0-1.8-0.5-2.2-1.3c0.1,0.3,0.2,0.6,0.2,1c0,1.7-1.3,3-3,3c-1.7,0-3-1.3-3-3c0-0.8,0.3-1.6,0.8-2.1c0,0,0,0,0,0
			c-0.1-0.1-0.1-0.1-0.2-0.2c0,0,0,0,0,0c0,0,0,0,0,0c-0.4,0.5-1,0.8-1.6,0.8c-0.7,0-1.3-0.3-1.7-0.8c0.1,0.3,0.2,0.7,0.3,1
			c-0.1,0-0.2,0-0.3,0c0,0,0,0,0,0c0,0,0,0,0,0c0.1,0,0.2,0,0.3,0c0,0,0,0,0,0c0,0,0,0,0,0c1.1,0.2,1.9,1.1,1.9,2.2
			c0,1.2-1,2.2-2.2,2.2c-0.5,0-0.9-0.1-1.3-0.4c-0.2,0.2-0.5,0.3-0.7,0.5c0,0,0,0,0,0c0,0,0,0,0,0c0,0,0,0,0,0c0,0,0,0,0.1,0
			c1,0,1.7,0.8,1.7,1.7c0,1-0.8,1.7-1.7,1.7c-0.7,0-1.4-0.5-1.6-1.1c-0.4,1.1-1.5,1.9-2.8,1.9c-1.7,0-3-1.4-3-3
			C-54,44.1-53.4,43.1-52.4,42.6z M-48.7,33.3C-48.7,33.3-48.7,33.3-48.7,33.3C-48.7,33.3-48.7,33.3-48.7,33.3
			C-48.7,33.3-48.7,33.3-48.7,33.3C-48.7,33.3-48.7,33.3-48.7,33.3z M-51.2,34.4C-51.2,34.4-51.2,34.4-51.2,34.4
			C-51.2,34.4-51.2,34.4-51.2,34.4C-51.2,34.4-51.2,34.4-51.2,34.4z M-32.8,27C-32.8,27-32.8,27-32.8,27C-32.8,27-32.8,27-32.8,27
			C-32.8,27-32.8,27-32.8,27c0,0.2,0.1,0.4,0.1,0.6c0,1.3-1,2.4-2.3,2.5c0.6,0.2,1.1,0.5,1.5,0.9c0,0,0,0,0,0c0,0,0,0,0,0l0,0
			c0,0,0,0,0,0c0.3-1.1,1.2-2,2.3-2.4c0,0,0,0,0,0c0.1-0.1,0.3-0.1,0.5-0.1c-0.2,0-0.3,0.1-0.5,0.1c-0.2-0.4-0.3-0.9-0.3-1.4
			c0-0.2,0-0.5,0.1-0.7C-31.9,26.7-32.4,26.9-32.8,27C-32.8,27-32.8,27-32.8,27z M-38,23.6C-38,23.6-38,23.6-38,23.6
			C-38,23.6-38,23.6-38,23.6C-38,23.6-38,23.6-38,23.6C-38,23.6-38,23.6-38,23.6z M-37,25.8c-0.6-0.6-0.9-1.4-1-2.3c0,0,0,0,0,0
			c-0.2,0.1-0.4,0.1-0.7,0.1c-0.1,0-0.1,0-0.2,0c0,0,0,0,0,0c0.8,0.7,1.3,1.7,1.4,2.9c0,0,0,0,0,0C-37.3,26.3-37.2,26-37,25.8
			C-37,25.8-37,25.8-37,25.8C-37,25.8-37,25.8-37,25.8C-37,25.8-37,25.8-37,25.8z M-32.6,34.5C-32.6,34.5-32.6,34.5-32.6,34.5
			C-32.6,34.5-32.6,34.5-32.6,34.5C-32.6,34.5-32.6,34.5-32.6,34.5z M-30.5,28.3c0.2,0,0.3,0,0.5,0c0.1,0,0.1,0,0.2,0c0,0,0,0,0,0
			c-0.1,0-0.1,0-0.2,0C-30.2,28.3-30.4,28.3-30.5,28.3z M-27,33.9C-27,33.9-27,33.9-27,33.9C-27,33.9-27,33.9-27,33.9
			C-27,33.9-27,33.9-27,33.9C-27,33.9-27,33.9-27,33.9z M-32.6,34.5L-32.6,34.5L-32.6,34.5L-32.6,34.5z M-37.6,28.2L-37.6,28.2
			L-37.6,28.2c-0.5,1.6-1.9,2.9-3.6,3.1c0,0,0,0,0,0c0,0,0,0,0,0v0c0,0,0,0,0,0c0.2,0.4,0.4,0.9,0.4,1.5c0,1.1-0.5,2-1.4,2.5
			c0,0,0,0,0,0c0,0,0,0,0,0c0.4,0.2,0.7,0.4,1,0.8c0.4-0.4,0.9-0.7,1.5-0.7c0.1,0,0.2,0,0.4,0c0,0,0,0,0,0c0,0,0,0,0,0
			c-0.3-0.5-0.5-1.2-0.5-1.9c0-2,1.6-3.7,3.7-3.7c0,0,0,0,0.1,0C-36.8,29.6-37.4,28.9-37.6,28.2z M-31.5,39.1
			C-31.5,39.1-31.5,39.1-31.5,39.1C-31.5,39.1-31.5,39.1-31.5,39.1C-31.5,39.1-31.5,39.1-31.5,39.1z M-36.3,39.6
			c0,0.1,0.1,0.2,0.1,0.3C-36.2,39.8-36.3,39.7-36.3,39.6c-0.1-0.2-0.1-0.5-0.1-0.7c0-0.6,0.2-1.2,0.6-1.6c0,0,0,0,0,0
			c-0.1,0-0.2,0-0.3,0c-0.5,0-1.1-0.1-1.5-0.3c0.1,0.2,0.1,0.4,0.1,0.6c0,0.3-0.1,0.5-0.1,0.8c0,0,0,0,0,0c0,0,0,0,0,0c0,0,0,0,0,0
			C-37.1,38.5-36.6,39-36.3,39.6z M-41.1,38.8C-41.1,38.8-41.1,38.8-41.1,38.8C-41.1,38.8-41.1,38.8-41.1,38.8
			C-41.1,38.8-41.1,38.8-41.1,38.8z M-45.9,43.6C-45.9,43.6-45.9,43.6-45.9,43.6L-45.9,43.6C-45.9,43.6-45.9,43.6-45.9,43.6z
			 M-47.7,44.5c-0.1,0-0.3,0.1-0.4,0.1c0,0,0,0,0,0c0,0,0,0,0,0c0,0,0,0,0,0c0,0.1,0,0.2,0.1,0.3c0,0,0,0,0,0c0,0,0,0,0,0
			c0,0,0,0,0,0C-47.9,44.7-47.8,44.6-47.7,44.5C-47.7,44.5-47.7,44.5-47.7,44.5C-47.7,44.5-47.7,44.5-47.7,44.5z M-48.2,46.4
			C-48.2,46.4-48.2,46.4-48.2,46.4C-48.2,46.4-48.2,46.4-48.2,46.4C-48.2,46.4-48.2,46.4-48.2,46.4z"/>
		<path fill="#6B7482" d="M-62.7,41.9C-62.7,41.9-62.7,41.9-62.7,41.9c-0.4-0.5-0.7-1.1-0.7-1.8c0-1.4,1-2.5,2.4-2.6
			c-0.5-0.3-0.9-0.9-0.9-1.6c0-1.1,0.9-1.9,1.9-1.9c1.1,0,1.9,0.9,1.9,1.9c0,0.9-0.7,1.7-1.6,1.9c0.8,0.4,1.4,1.3,1.4,2.3
			c0,0,0,0,0,0c0,0,0,0,0,0c2.2,0.4,3.8,2.2,3.8,4.5c0,2.5-2,4.6-4.6,4.6c-2.5,0-4.6-2-4.6-4.6C-63.6,43.6-63.3,42.7-62.7,41.9
			C-62.7,41.9-62.7,41.9-62.7,41.9z"/>
		<path fill="#6B7482" d="M-55.1,39.5c-1.5,0-2.7-1.2-2.7-2.7c0-1.5,1.2-2.7,2.7-2.7c1.5,0,2.7,1.2,2.7,2.7
			C-52.4,38.3-53.6,39.5-55.1,39.5z"/>
		<path fill="#6B7482" d="M-77.7,42c1.5,0,2.7,1.2,2.7,2.7c0,1.5-1.2,2.7-2.7,2.7c-1.5,0-2.7-1.2-2.7-2.7
			C-80.4,43.2-79.2,42-77.7,42z"/>
		<path fill="#6B7482" d="M-88,38.9c0.3-0.1,0.5-0.2,0.8-0.2c1.1,0,2,0.9,2,2c0,1.1-0.9,2-2,2c-1.1,0-2-0.9-2-2
			c0-0.6,0.3-1.1,0.7-1.5C-88.3,39.2-88.1,39.1-88,38.9z"/>
		<path fill="#6B7482" d="M-103.9,5.7c1.8,0,3.3,1.5,3.3,3.3c0,1.8-1.5,3.3-3.3,3.3c-1.8,0-3.3-1.5-3.3-3.3
			C-107.2,7.2-105.7,5.7-103.9,5.7z"/>
		<path fill="#6B7482" d="M-23.5-24.9C-23.5-24.9-23.5-24.9-23.5-24.9c-0.1,0-0.3,0-0.4,0c-1.4,0-2.5-1.1-2.5-2.5c0,0,0,0,0,0
			c0,1.4,1.1,2.5,2.5,2.5C-23.8-24.9-23.6-24.9-23.5-24.9c-0.8,0.7-1.8,1.1-3,1.1c-0.2,0-0.4,0-0.6,0c0,0,0,0,0,0c0,0,0,0,0,0
			c0.1,0.2,0.1,0.4,0.1,0.6c0,1.4-1.1,2.5-2.5,2.5c-0.6,0-1.2-0.2-1.6-0.6c0,0,0,0,0,0c0,0,0,0,0,0c0,0,0,0,0,0c0,0.1,0,0.1,0,0.2
			c0,2.7-2.2,4.9-4.9,4.9c-0.3,0-0.6,0-0.9-0.1c0,0,0,0,0,0c0,0,0,0,0,0c0.1,0.2,0.1,0.4,0.1,0.6c0,1.4-1.1,2.5-2.5,2.5
			c-1.4,0-2.5-1.1-2.5-2.5c0-1.2,0.8-2.1,1.9-2.4c-0.2-0.2-0.3-0.5-0.5-0.7v0c0,0,0,0,0,0c0,0,0,0,0,0c-0.3,0.7-1,1.3-1.8,1.5
			c-0.3,0.1-0.5,0.1-0.8,0.1c-1.2,0-2.4-0.8-2.7-2.1c-0.1-0.3-0.1-0.7-0.1-1c0,0,0,0,0,0c0,0,0,0,0,0c-0.1,0-0.2,0.1-0.3,0.1
			c-0.2,0-0.3,0.1-0.5,0.1c-0.8,0-1.6-0.5-1.8-1.3c0-0.1-0.1-0.3-0.1-0.4c-0.2,0.1-0.5,0.2-0.8,0.2c-0.6,0-1.1-0.4-1.3-1
			c0,0,0,0,0,0c-0.2,0.1-0.5,0.1-0.7,0.1c-1.2,0-2.2-0.9-2.4-2c0,0,0,0,0,0c-0.8,0.7-1.9,1.2-3.1,1.2c-1.5,0-2.8-0.7-3.7-1.8
			c0,0,0,0,0,0c0,0,0,0,0,0c-0.5,0.5-1.3,0.9-2.1,0.9c-0.4,0-0.8-0.1-1.2-0.2c0,0,0,0,0,0c0,0,0,0,0,0c-0.7,0.8-1.7,1.4-2.8,1.4
			c-0.9,0-1.7-0.3-2.3-0.8c0,0,0,0,0,0c0,0,0,0,0,0c0,0,0,0,0,0c-0.1,0.1-0.2,0.2-0.3,0.3c0,0,0,0,0,0c-0.2,1.2-1.2,2.2-2.4,2.2
			c-0.4,0-0.7-0.1-1-0.2c0,0,0,0,0,0c-0.1,1.5-1.3,2.6-2.7,2.6c-0.4,0-0.8-0.1-1.1-0.2c0,0,0,0,0,0c0.2,0.5,0.4,1.1,0.4,1.8
			c0,2.4-1.9,4.3-4.3,4.3c-2.3,0-4.1-1.7-4.3-4c0,0,0,0,0,0c-0.4,0.3-0.9,0.5-1.4,0.5c-1.4,0-2.5-1.1-2.5-2.5c0-1.4,1.1-2.5,2.5-2.5
			c1,0,1.9,0.6,2.3,1.5c0,0,0,0,0,0c0,0,0,0,0,0c0.5-0.6,1.1-1.1,1.9-1.4c0,0,0,0,0,0c-0.3-0.4-0.5-0.9-0.5-1.5
			c0-0.7,0.3-1.4,0.8-1.9c0,0,0,0,0,0c-1.1-0.4-1.9-1.5-1.9-2.7c0-1.6,1.3-2.9,2.9-2.9c1.6,0,2.9,1.3,2.9,2.9c0,0.9-0.4,1.7-1.1,2.3
			c0,0,0,0,0,0c0,0,0,0,0,0c0.7,0.3,1.2,1,1.4,1.7c0,0,0,0,0,0c0,0,0,0,0,0c0.5-0.6,1.2-0.9,2-0.9c0.5,0,0.9,0.1,1.3,0.3
			c0,0,0,0,0,0c0-0.2,0.1-0.3,0.1-0.5c0,0,0,0,0,0v0c-0.2-0.4-0.3-0.8-0.3-1.3c0-0.6,0.2-1.2,0.5-1.7c0,0,0,0,0,0c0,0,0,0,0,0
			c-1.8,0-3.2-1.2-3.8-2.8c0,0,0,0,0,0c0,0,0,0,0,0c-0.2,0.1-0.5,0.1-0.7,0.1c-0.9,0-1.8-0.5-2.2-1.3c0,0,0,0,0,0c0,0,0,0,0,0
			c-0.2,0-0.4,0-0.6-0.1c-2.1-0.4-3.6-2.5-3.2-4.6c0.4-1.9,2-3.2,3.9-3.2c0.2,0,0.5,0,0.7,0.1c2.1,0.4,3.6,2.5,3.2,4.6
			c0,0,0,0.1,0,0.1c0.7-0.6,1.6-1,2.6-1c-0.2-0.3-0.3-0.7-0.3-1.2c0-1.4,1.1-2.5,2.5-2.5c1.4,0,2.5,1.1,2.5,2.5c0,1.1-0.7,2-1.7,2.3
			c0.7,0.7,1.2,1.8,1.2,2.9c0,1-0.4,2-1,2.7c0,0,0,0,0,0c0,0,0,0,0,0c0.3,0.1,0.6,0.2,0.9,0.3c-0.1,0.1-0.1,0.2-0.1,0.3
			c0-0.1,0.1-0.2,0.1-0.3c0,0,0,0,0,0c0.5-0.9,1.4-1.5,2.4-1.7c0,0,0,0,0,0c0,0,0,0,0,0c-0.1-0.3-0.2-0.7-0.2-1
			c0-1.4,1.1-2.5,2.5-2.6c0,0,0,0,0,0c0,0,0,0,0,0c-0.4-0.5-0.6-1.1-0.6-1.8c0-0.1,0-0.2,0-0.2c-0.2,0-0.4,0.1-0.6,0.1
			c-1.4,0-2.6-1.2-2.6-2.6c0-0.2,0-0.4,0.1-0.6c0,0,0,0,0,0c0,0,0,0,0,0c0,0,0,0,0,0c0,0,0,0,0,0c-1.8-0.4-3.1-2-3.1-3.8
			c0-2.2,1.8-3.9,3.9-3.9c2.2,0,4,1.8,4,3.9c0,0.9-0.3,1.7-0.8,2.4c0,0,0,0,0,0c0,0,0,0,0,0c0,0,0,0,0,0c0,0,0,0,0,0
			c0.6,0.5,1,1.2,1.1,2c0,0,0,0,0,0c0,0,0,0,0,0c0,0,0,0,0,0c0,0,0,0,0,0c0.3-0.1,0.7-0.2,1-0.2c0.9,0,1.7,0.4,2.3,1
			c0-0.1,0-0.1,0-0.2c0-0.3,0.1-0.6,0.2-0.9c0,0,0,0,0,0c0,0,0,0,0,0c-0.6-0.7-1-1.6-1-2.6c0-0.2,0-0.5,0.1-0.7c0,0,0,0,0,0
			c0,0,0,0,0,0c0,0,0,0,0,0c0,0,0,0,0,0c-0.1,0-0.2,0-0.3,0c-1.1,0-1.9-0.8-1.9-1.9c0-1,0.8-1.9,1.9-1.9h0c0.8,0,1.5,0.5,1.8,1.3
			l0,0l0,0c0,0,0,0,0,0c0.7-0.5,1.5-0.8,2.3-0.8c2.2,0,4,1.8,4,4c0,0.9-0.3,1.8-0.9,2.5c0,0,0,0,0,0c0,0,0,0,0,0
			c0.6-0.3,1.4-0.4,2.1-0.4c0.2,0,0.4,0,0.6,0c0,0,0,0,0,0c0,0,0,0,0,0c0.2-1,1.1-1.7,2.2-1.7c1.2,0,2.2,1,2.2,2.2
			c0,0.6-0.3,1.2-0.7,1.6c0.2,0.3,0.4,0.6,0.5,0.9c0,0,0,0,0-0.1c0-1.2,0.6-2.2,1.4-2.9c0,0,0,0,0,0c0,0,0,0,0,0
			c-0.4-0.4-0.6-0.9-0.6-1.5c0-1.2,1-2.2,2.2-2.2s2.2,1,2.2,2.2c0,0.4-0.1,0.8-0.3,1.1c0,0,0,0,0,0c0,0,0,0,0,0l0,0
			c0.3,0.1,0.6,0.3,0.8,0.5c0,0,0,0,0,0c0,0,0,0,0,0v0c-0.1-0.2-0.1-0.5-0.1-0.7c0-0.8,0.3-1.5,0.8-2c0,0,0,0,0,0c0,0,0,0,0,0
			c-0.7,0-1.3-0.6-1.3-1.4c0-0.8,0.6-1.4,1.4-1.4s1.4,0.6,1.4,1.4c0,0.2,0,0.4-0.1,0.5c0,0,0,0,0,0c0,0,0,0,0,0l0,0
			c0.3-0.1,0.6-0.1,0.8-0.1c1.4,0,2.6,1,2.9,2.3c0,0,0,0,0,0c0,0,0,0,0,0c0.2,0,0.4-0.1,0.5-0.1c1.2,0,2.2,1,2.2,2.1
			c0,1.2-1,2.1-2.2,2.1c-0.5,0-0.9-0.2-1.3-0.4c0,0.1,0,0.3,0,0.4c0,0.5-0.2,1-0.5,1.3c0,0,0,0,0,0c0.3-0.1,0.5-0.1,0.8-0.1
			c0.5,0,0.9,0.1,1.3,0.3c0,0,0,0,0,0v0c0.4-1.9,2.1-3.2,4.1-3.2c2.3,0,4.2,1.9,4.2,4.2c0,0.4-0.1,0.8-0.2,1.1c0,0,0,0,0,0
			c0,0,0.1,0,0.1,0c2.4,0,4.3,1.8,4.5,4.2c0,0,0,0,0,0c0,0,0,0,0,0c0.3,0.4,0.5,0.9,0.5,1.5C-21.4-26.1-22.3-25.1-23.5-24.9z
			 M-62.7-32.8c0.2,0.4,0.4,0.9,0.4,1.4c0,0.4-0.1,0.7-0.2,1.1c0,0,0,0,0,0c0,0,0,0,0,0c0.6,0,1.1,0.2,1.5,0.4c0,0,0,0,0,0
			c0,0,0,0,0,0c0.7-1.6,2.2-2.7,4.1-2.8c0,0,0,0,0,0c0,0,0,0,0,0c-0.2-0.5-0.3-1.1-0.3-1.7c0-0.4,0-0.7,0.1-1c0,0,0,0,0,0
			c0,0,0,0,0,0c-0.2,0-0.3,0.1-0.5,0.1c-0.8,0-1.4-0.3-1.9-0.8c0,0,0,0,0,0c0,0,0,0,0,0c0,0.1,0,0.2,0,0.4c0,1.7-1.4,3-3,3
			C-62.6-32.8-62.6-32.8-62.7-32.8z M-52-29.2c-0.1,0-0.1,0-0.2,0C-52-28.8-52-28.4-52-28c0,0.2,0,0.5,0,0.7c0,0,0,0,0,0
			c0.3-0.1,0.6-0.2,0.9-0.2c0.2,0,0.5,0,0.7,0.1c0,0,0,0,0,0c-0.1-0.2-0.1-0.5-0.1-0.7c0-0.5,0.2-1,0.5-1.5c0,0,0,0,0,0c0,0,0,0,0,0
			C-50.7-29.3-51.3-29.2-52-29.2z M-46.8-34.8c0,0.2,0,0.3,0,0.5c0,1.5-0.7,2.9-1.7,3.8c0.1,0,0.3,0,0.4,0c1.4,0,2.5,1.1,2.5,2.5
			c0,1.4-1.1,2.5-2.5,2.5c-0.2,0-0.4,0-0.6-0.1c0,0,0,0,0,0c0,0,0,0,0,0c0.1,0.2,0.1,0.5,0.1,0.7c0,0.2,0,0.4-0.1,0.6c0,0,0,0,0,0
			c0.5,0.1,0.9,0.5,1,1c0,0,0,0,0,0c0,0,0,0,0,0c0.2-0.2,0.5-0.3,0.8-0.4c0.2,0,0.3-0.1,0.5-0.1c0.8,0,1.6,0.5,1.8,1.3
			c0,0.1,0,0.1,0,0.2c0,0,0,0,0,0c0,0,0,0,0,0c0.1-0.1,0.3-0.2,0.5-0.3c-1-0.8-1.6-2.1-1.6-3.4c0-1.2,0.5-2.3,1.2-3.1c0,0,0,0,0,0
			c-1.1-0.5-1.8-1.5-1.8-2.8c0-0.7,0.2-1.3,0.6-1.8c0,0,0,0,0,0c0,0,0,0,0,0C-46.2-34-46.6-34.4-46.8-34.8z M-40.2-37.6
			C-40.2-37.6-40.2-37.6-40.2-37.6C-40.2-37.6-40.2-37.6-40.2-37.6c0,0.1,0,0.1,0.1,0.2c0,0,0,0,0,0c0,0,0,0,0,0c0,0,0,0,0,0
			c0,0,0,0,0,0c0,0,0-0.1,0.1-0.1c0,0,0,0,0,0c0,0,0,0,0,0C-40.2-37.5-40.2-37.6-40.2-37.6C-40.2-37.6-40.2-37.6-40.2-37.6
			C-40.2-37.6-40.2-37.6-40.2-37.6z M-39.1-32.1c0-0.9,0.4-1.8,1-2.3c0,0,0,0,0,0c-0.1,0-0.2,0-0.2,0c-0.8,0-1.5-0.5-1.9-1.2
			c-0.2,0.6-0.5,1.2-1,1.7c0,0,0,0,0,0c0,0,0,0,0,0c0,0,0,0,0,0c0,0,0,0,0,0c0.5,0.5,0.9,1.3,0.9,2.1c0,0.5-0.1,1-0.4,1.5
			c0,0,0,0,0,0c0,0,0,0,0,0c2.1,0.3,3.7,2.2,3.7,4.4c0,0,0,0,0,0v0c0.3-0.1,0.6-0.1,1-0.1c0,0,0.1,0,0.1,0c0,0,0,0,0,0c0,0,0,0,0,0
			c0,0,0,0,0,0c-0.1-0.2-0.1-0.5-0.1-0.7c0-1.4,1.1-2.5,2.5-2.5s2.5,1.1,2.5,2.5c0,1-0.6,1.8-1.4,2.2c0,0,0,0,0,0c0,0,0,0,0,0l0,0
			c0.2,0.2,0.4,0.5,0.6,0.8c0,0,0,0,0,0c0,0,0,0,0,0c0,0,0,0,0,0c0,0,0,0,0,0c0.2-0.8,0.9-1.5,1.7-1.7c0,0,0,0,0,0c0,0,0,0,0,0l0,0
			c0,0,0,0,0,0c-0.6-0.8-0.9-1.7-0.9-2.8c0-0.5,0.1-1,0.3-1.5c-0.9,0-1.7-0.3-2.3-0.8c0,0,0,0,0,0c0,0,0,0,0,0
			c-0.5,1.1-1.6,1.8-2.8,1.8C-37.7-29-39.1-30.4-39.1-32.1z M-26.6-33C-26.6-33-26.6-33-26.6-33C-26.6-33-26.6-33-26.6-33
			C-26.6-33-26.6-33-26.6-33z"/>
		<path fill="#6B7482" d="M-112.7-30.8c-1.4,0-2.5-1.1-2.5-2.5c0-1.4,1.1-2.5,2.5-2.5c1.4,0,2.5,1.1,2.5,2.5
			C-110.2-31.9-111.3-30.8-112.7-30.8z"/>
		<path fill="#6B7482" d="M-108.8-18.1c-1.4,0-2.5-1.1-2.5-2.5c0-1.4,1.1-2.5,2.5-2.5c1.4,0,2.5,1.1,2.5,2.5
			C-106.3-19.2-107.4-18.1-108.8-18.1z"/>
		<path fill="#6B7482" d="M-85.9-40.1c-1.4,0-2.5-1.1-2.5-2.5c0-1.4,1.1-2.5,2.5-2.5c1.4,0,2.5,1.1,2.5,2.5
			C-83.5-41.2-84.6-40.1-85.9-40.1z"/>
		<path fill="#6B7482" d="M-87.9-13.9c0-1,0.8-1.7,1.7-1.7c1,0,1.7,0.8,1.7,1.7c0,1-0.8,1.7-1.7,1.7C-87.1-12.2-87.9-12.9-87.9-13.9
			z"/>
		<path fill="#6B7482" d="M-102.5-33.7c-1,0-1.8-0.8-1.8-1.8c0-1,0.8-1.8,1.8-1.8c1,0,1.8,0.8,1.8,1.8
			C-100.7-34.5-101.5-33.7-102.5-33.7z"/>
		<path fill="#6B7482" d="M-85.8,22c0,0.8-0.6,1.4-1.4,1.4c-0.8,0-1.4-0.6-1.4-1.4c0-0.8,0.6-1.4,1.4-1.4
			C-86.4,20.6-85.8,21.2-85.8,22z"/>
		<path fill="#6B7482" d="M-59.1-45.5c-1,0-1.8-0.8-1.8-1.8c0-1,0.8-1.8,1.8-1.8c1,0,1.8,0.8,1.8,1.8
			C-57.3-46.3-58.1-45.5-59.1-45.5z"/>
		<path fill="#6B7482" d="M-95.2-19.6c2.4,0,4.3,1.9,4.3,4.3c0,2.4-1.9,4.3-4.3,4.3c-2.4,0-4.3-1.9-4.3-4.3
			C-99.5-17.7-97.6-19.6-95.2-19.6z"/>
		<path fill="#6B7482" d="M-112.6-10.3c0-1.7,1.3-3,3-3c1.7,0,3,1.3,3,3c0,1.7-1.3,3-3,3C-111.3-7.3-112.6-8.6-112.6-10.3z"/>
		<path fill="#6B7482" d="M-104.3-2.3c1.9,0,3.4,1.6,3.3,3.5c0,1.9-1.6,3.3-3.4,3.3c0,0,0,0-0.1,0c-1.9,0-3.4-1.6-3.3-3.5
			C-107.8-0.8-106.3-2.3-104.3-2.3C-104.4-2.3-104.4-2.3-104.3-2.3z"/>
		<path fill="#6B7482" d="M-77.7-41.1c-1.4,0-2.6-1.2-2.6-2.6c0-1.4,1.2-2.6,2.6-2.6c1.4,0,2.6,1.2,2.6,2.6
			C-75.2-42.3-76.3-41.1-77.7-41.1z"/>
		<path fill="#6B7482" d="M-50.5-41.4c-1.7,0-3-1.4-3-3c0-1.7,1.4-3,3-3c1.7,0,3,1.4,3,3C-47.5-42.8-48.8-41.4-50.5-41.4z"/>
		<path fill="#6B7482" d="M-98.6-19.1c0,0-0.1,0-0.1,0c-1.9,0-3.4-1.5-3.5-3.3c0-0.3,0-0.6,0.1-0.8c0,0,0,0,0,0c0,0,0,0,0,0
			c-0.1,0-0.2,0-0.3,0c-1.7,0-3.1-1.4-3.1-3.1c0-1.7,1.4-3.1,3.1-3.1c1.7,0,3.1,1.4,3.1,3.1c0,0.1,0,0.3,0,0.4c0,0,0,0,0,0
			c0.2,0,0.3,0,0.5,0c0,0,0.1,0,0.1,0c1.8,0,3.4,1.5,3.4,3.3C-95.2-20.8-96.7-19.2-98.6-19.1z"/>
		<path fill="#6B7482" d="M-79.7,31.6C-79.7,31.6-79.7,31.6-79.7,31.6C-79.7,31.6-79.7,31.6-79.7,31.6
			C-79.7,31.6-79.7,31.6-79.7,31.6C-79.7,31.6-79.7,31.6-79.7,31.6c-0.5-0.4-0.7-1.1-0.7-1.8c0-0.9,0.5-1.7,1.3-2.1c0,0,0,0,0,0
			c-0.6-0.5-0.9-1.2-0.9-2c0-1.4,1-2.5,2.4-2.7v0c0,0,0,0,0,0l0,0c-0.3-0.2-0.5-0.5-0.7-0.9c-0.4,0.1-0.8,0.2-1.3,0.2h0c0,0,0,0,0,0
			s0,0,0,0c0,0.1,0,0.2,0,0.3c0,1.4-1.1,2.5-2.5,2.5c0,0,0,0,0,0c-1.4,0-2.4-1.1-2.5-2.5c0-1.1,0.7-2,1.6-2.3
			c-0.1-0.3-0.2-0.6-0.3-0.9c-0.8,0.3-1.6,0.5-2.4,0.5c-3,0-5.6-2.1-6.2-5c0,0,0,0,0,0c0,0,0,0,0,0c0,0,0,0,0,0c0,0,0,0,0,0
			c-0.6,0.8-1.5,1.3-2.5,1.3c-1.7,0-3.1-1.4-3.1-3.1c0-1.7,1.4-3.1,3.1-3.1c1.1,0,2.1,0.6,2.7,1.5c0,0,0,0,0,0c0,0,0,0,0,0
			c0.8-2.6,3.2-4.5,6.1-4.5c3.5,0,6.4,2.9,6.4,6.4c0,0.5-0.1,1.1-0.2,1.6c1.9,0.1,3.5,1.6,3.5,3.6c0,0,0,0,0,0
			c1.3,0.1,2.3,1.1,2.3,2.4c0,0,0,0,0,0c0.2,0,0.5-0.1,0.7-0.1c1.7,0,3,1.3,3.2,2.9c0,0,0,0,0,0c0,0,0,0,0,0c0,0,0,0,0,0
			c0.7-0.7,1.6-1.2,2.7-1.2c2,0,3.7,1.6,3.7,3.7c0,1.5-0.9,2.7-2.1,3.3c0,0,0,0,0,0c0,0,0,0,0,0c0.3,0.4,0.5,0.8,0.6,1.2
			c0,0,0,0,0,0c0,0,0,0,0,0c0,0,0,0,0,0l0,0c0.5-0.6,1.2-1.1,2.1-1.1c0.4,0,0.7,0.1,1.1,0.2c-0.1-0.3-0.1-0.7-0.1-1.1
			c0-0.2,0-0.5,0-0.7c0,0,0,0,0,0c0,0,0,0,0,0c0,0,0,0,0,0c0,0,0,0,0,0c-0.7-0.3-1.2-1.1-1.2-1.9c0-1.1,0.9-2.1,2.1-2.1
			c0.6,0,1.1,0.2,1.4,0.6c0,0,0,0,0,0c0,0,0,0,0,0c0.7-0.4,1.5-0.6,2.4-0.6c1.3,0,2.6,0.6,3.4,1.5c0,0,0,0,0,0c0,0,0,0,0,0
			c0.1-1.3,1.2-2.3,2.5-2.3c0.1,0,0.3,0,0.4,0c0,0,0,0,0,0c0,0,0,0,0,0c0,0,0,0,0,0c0-0.1,0-0.2,0-0.3c0-0.8,0.6-1.4,1.4-1.4
			c0.8,0,1.4,0.6,1.4,1.4c0,0.7-0.5,1.2-1.1,1.4c0.3,0.4,0.4,0.9,0.4,1.4c0,0.2,0,0.4-0.1,0.6c0.1,0,0.2,0,0.2,0
			c1.4,0,2.5,1.1,2.5,2.5c0,1.4-1.1,2.5-2.5,2.5c-1.4,0-2.5-1.1-2.5-2.5c0-0.2,0-0.4,0.1-0.6c0,0,0,0,0,0c0,0,0,0,0,0v0
			c-0.1,0-0.2,0-0.3,0c-0.5,0-0.9-0.1-1.3-0.4c0,0,0,0,0,0c0,0,0,0,0,0c0,0,0,0,0,0c0,0,0,0,0,0c0,0.3,0.1,0.6,0.1,0.8
			c0,2.6-2.1,4.7-4.7,4.7c-1.2,0-2.2-0.4-3-1.1c0,0,0,0,0,0c0,0,0,0,0,0c0,0,0,0,0,0c-0.1,1.4-1.2,2.4-2.6,2.4
			c-0.9,0-1.8-0.5-2.2-1.3c-0.2,0.4-0.4,0.8-0.7,1.1c0,0,0,0,0,0c0,0,0,0,0,0l0,0c0.6,0.4,1.1,1.2,1.1,2c0,1.4-1.1,2.5-2.5,2.5
			c-1.4,0-2.5-1.1-2.5-2.5c0-0.3,0-0.5,0.1-0.7c0,0,0,0,0,0c0,0,0,0,0,0c-1.9-0.3-3.4-2-3.4-4c0-0.1,0-0.3,0-0.4c0,0,0,0,0,0
			c0,0,0,0,0,0c-1.1-0.2-2-1.1-2-2.3c0-0.9,0.5-1.6,1.2-2c0,0,0,0,0,0c-0.5-0.1-0.9-0.3-1.3-0.6c0,0,0,0,0,0c0,0,0,0,0,0
			c-0.2,0.6-0.7,1.1-1.3,1.4c0,0,0,0,0,0c0,0,0,0,0,0c0.4,0.4,0.7,1.1,0.7,1.7c0,1.2-0.8,2.1-1.9,2.4c0,0,0,0,0,0c0,0,0,0,0,0
			c0,0,0,0,0,0c0.9,0.6,1.4,1.7,1.4,2.8c0,0.5-0.1,0.9-0.3,1.3c0,0,0,0,0,0c0,0,0,0,0,0c0.7,0.3,1.1,1,1.1,1.8
			c0,1.1-0.9,1.9-1.9,1.9c-0.9,0-1.7-0.7-1.9-1.6c0,0,0,0,0,0c0,0,0,0,0,0c-0.2,0-0.3,0-0.5,0c-1.9,0-3.5-1.5-3.5-3.4
			C-82.8,33.2-81.5,31.8-79.7,31.6z M-61.7,29.9C-61.7,29.9-61.7,29.9-61.7,29.9C-61.7,29.9-61.7,29.9-61.7,29.9L-61.7,29.9z
			 M-82.9,20.3C-82.9,20.3-82.9,20.3-82.9,20.3C-82.9,20.3-82.9,20.3-82.9,20.3C-82.9,20.3-82.9,20.3-82.9,20.3
			C-82.9,20.3-82.9,20.3-82.9,20.3z M-70.1,28.2C-70.1,28.2-70.1,28.2-70.1,28.2c-0.3-0.5-0.5-1.1-0.6-1.8c0,0,0,0,0,0c0,0,0,0,0,0
			c0,0,0,0,0,0c-0.3,0.3-0.6,0.5-1,0.7c0.6,0.2,1.1,0.6,1.4,1.2c0,0,0,0,0,0c0,0,0,0,0,0C-70.3,28.2-70.2,28.2-70.1,28.2z"/>
		<path fill="#6B7482" d="M-117.2-3.2c-0.1,0-0.2,0-0.3,0c-0.9-0.2-1.5-1-1.4-2c0.2-0.8,0.9-1.4,1.6-1.4c0.1,0,0.2,0,0.3,0
			c0.9,0.2,1.5,1,1.3,2C-115.7-3.7-116.4-3.2-117.2-3.2z"/>
		<path fill="#6B7482" d="M-109.8,6.3c0.1,0,0.2,0,0.3,0c0.7,0.1,1.2,0.8,1.1,1.6c-0.1,0.7-0.7,1.1-1.3,1.1c-0.1,0-0.2,0-0.2,0
			c-0.7-0.1-1.2-0.9-1.1-1.6C-111,6.7-110.5,6.3-109.8,6.3z"/>
	</g>
</symbol>
<symbol  id="_x2E_logo-lloyds" viewBox="-110.6 -49.6 221.1 99.2">
	<g>
		<path fill="#6B7482" d="M106.7-3.6c-3.5,2.6-6.6,6.5-9.9,10.2c-1.4,1.5-2.5,2.2-4.3,2.2c-1,0-2.5-0.3-3.6-0.3
			c-1.8,0-3.3,0.1-4.9-0.4c-1.2,0.9-1.1,1.9-0.4,2.3c1.5,0.8,0.1,1.4,0.1,2.5c0,1,1,1.3,1.7,1c0.7,1.8-0.7,3.7-1,5.1
			c1,0.2,2.1,0.7,2.7,2c-1,0.6-3.4,1.9-3.4,4.1c1.8,0.2,3.3,1.8,2.8,3.5c-0.4-0.2-0.8-0.3-1.3,0c-0.6,0.4-0.5,0.7-1.3,1.3
			c-0.9,0.6-2.7,0.7-3.1,2c1,1.5,1,3.4,0,4.1c-0.2-0.2-0.6-0.9-1.3-0.9c-1.4,0-1.7,0.9-2.9,2c-0.4,0.3-1,0.9-3.1,0.9
			c-1.3,0-2.3,0.8-3.3,0.7c0.4-0.6,0.2-1.7-0.7-1.5c-0.3,0.1-0.8,1-1.7,1.5c-0.7,0.4-1.2,0.4-1.8,0.9c-0.5,0.4-0.4,1.1-1,1.1
			c-0.4,0-0.4-0.7-0.4-1.1c0-0.8,0.4-1,0.3-2.1c-0.8,0.5-1.2,1.4-2,1.4c-0.1,0-0.2-0.1-0.3-0.2c0,0-0.2-0.2,0.1-0.9
			c0.2-0.7,1.3-1.2,1.3-2.1c0-1.7-2.2-2.8-2.2-4.4c0-0.3,0.2-0.5,0.2-0.8c0.1-0.8-0.8-1.5-1.3-2.6c-0.8-1.7-0.7-2.3-1.6-3.9
			c-0.4-0.8-1-1-1-1.9c0-1.7,0.7-3.7,2.4-3.7c0.8,0,1.7-0.7,2.4-0.3c2.1,1.2,0.7,1.6,1.6,2.6c1.5,1.4,2.8,2.8,4.2,2.8
			c0.5,0,0.7-0.6,0.7-1.5c0-3.2-2.5-7.7-5.2-10.1c-1.2-1-1.7-1.2-3-2.1c-3.4-2.3-6.3-2.8-8-2.8c-4.3,0-6.1,1-10.1,1
			c-2.7,0-5.5-0.9-7.8-2.5C29,6.2,28.8,14.1,22,14.1c-4.7,0-8.4-4-8.4-9.2c0-4.8,2.3-7.8,6.5-10.7c0.7-0.6,1.4-0.9,1.4-2.1
			c0-2.5-4.4-2.5-4.4-5.8c0-1.6,1.2-2.8,2.8-2.8c0.7,0,1.3,0.2,1.5,0.8c-0.6,0.2-0.9,0.6-0.9,1c0,2.1,7.2,0.9,7.2,6.9
			c0,5.2-6.4,6-6.4,9.9c0,0.6,0.2,1.1,0.6,1.1s0.4-1,1.2-1.2c0.3,1.2,1.6,2.8,2.9,2.8c0.3,0,0.6-0.1,0.3-0.4
			c-0.6-0.6-0.7-1.2-0.7-1.8c0-0.4,0.2-1,0.8-1.2c0.2,0.5,1,1.4,2.1,1.4c1.2,0,1.2-0.4,2.9-0.3c0.4,0,0.4-0.2,0.4-0.3
			c-1.2-1.5-2-3.3-2.3-5.1c-0.6-4,0.3-6,0.3-6.9c0.1-0.7,0.2-1.6-0.4-2.8s-0.3-0.5-1.3-2.1c-1.7-2.8-5-2.9-4.7-6.1
			c0.9-5.5,0-10.1-0.1-12.9c-0.1-1.3-0.4-2.1-0.4-2.7c0-2.1,2.3-2,2.7-4c0.2-1-0.1-1.6,0.4-2.5c0.1-0.2,0.5-0.6,0.9-0.6h4.4
			c0.6,0,0.7,0.5,0.7,0.9c-0.1,1.5-1.4,2.6-2.5,3.3c-1.8,1.2-2.1,1.9-2.7,4.1c-0.4,3.3,0.2,6.7,0.6,10c0.1,1.5,0.5,2.5,1.5,3.4
			c0.4,0.5,1.4,1.2,1.8,1.3c2.8,0.4,4.7,1.3,6.3,2.5c0.1-2.5-2.4-2.9-2.4-5.3c0-2,1.5-2.8,2.7-4.3c2.1-2.9,3.3-3.9,5.8-7.9
			c0.9-1.5,0-2.2,1.2-3.3c0.7-0.6,1.1-0.4,1.7-1c0.7-0.9,0.4-1.9,0.9-2.9c0.1-0.2,0.4-0.6,1-0.6H52c0.6,0,0.9,0.4,0.9,1
			c0,1.3-1.2,2.8-3.3,3.9c-2,1-3.9,4.2-5.1,6.3c-1.3,2.3-3.7,4.4-4.5,7.1c-0.6,2.2,0,3.4,2,4.3c3.7,1.7,6.2,6.2,7.4,9.5
			c1.5,0.1,5.1-0.5,7.9-0.9c3.9-0.5,8.7-0.1,11.5,0.7c2,0.6,3.2,1.4,4.7,1.7h-0.1c1.8,0.4,2.1-0.7,3.9-0.1c4.7,1.4,8.4,4.5,11.2,5.6
			c0.5,0.2,1,0.3,1.6,0.3c1,0,1.2-0.5,2.2-1.6c2-2.1,3.1-5.7,3.9-9.3c0.2-0.7,1.3-0.6,1.3-1.3c0-1.2-0.9-1.7-0.9-2.8
			c0-1.5,3.4-3,4.8-3c1,0,1,1,1,1.7c0,2.3-1,3.6-2.1,5.5c-2.4,4.1-4.4,8.9-5.8,12.3c-0.9,1.4-1.7,3-3.5,3c-1.7,0-4-0.2-5.7-0.2
			l-1.8-0.1l0.3,0.4c0.9,0.1,1.7,0.5,3.1,1.1c2,0.9,3.3,2.2,4.7,2.2c0.6,0,0.7,0,1.3,0.1c0.8,0.1,2.6-0.8,4.2-2.5
			c2-2,3.6-3.8,4.1-4.9c0.4-0.9,0.5-1.2,1.2-1.6c0.6-0.3,1.4,0,1.8-0.6c0.5-0.7-0.3-1.7,0.2-2.5c0.7-1,2.2-1.4,3.5-1.4
			c1.8,0,2.6,0.6,2.6,1.2C110.5-6,108.5-5,106.7-3.6z"/>
		<polygon fill="#6B7482" points="-108.4,-49.6 85.8,-49.6 85.8,-46.2 -108.4,-46.2 		"/>
		<polygon fill="#6B7482" points="-32.7,21.9 -36.1,21.9 -36.1,4.1 -32.7,4.1 		"/>
		<path fill="#6B7482" d="M-29.5,40.4c0,5-4,8.9-9.2,8.9h-5.7V31.5h5.7C-33.5,31.5-29.5,35.4-29.5,40.4z M-41,46.1h2.4
			c3.3,0,5.6-2.4,5.6-5.6c0-3.3-2.4-5.7-5.6-5.7H-41V46.1z"/>
		<path fill="#6B7482" d="M-100.9-23.6c1.6,0,3.2,0.3,4.7,0.7v9.2h-3.3v-6.6c-0.3-0.1-1-0.1-1.4-0.1c-3.6,0-6.1,2.5-6.1,5.9
			c0,3.5,2.6,5.9,6.2,5.9c1.6,0,2.9-0.3,4.1-0.7V-6c-1.1,0.4-2.6,0.7-4.2,0.7c-5.4,0-9.7-3.7-9.7-9.1l0,0
			C-110.5-19.9-106.1-23.6-100.9-23.6z"/>
		<path fill="#6B7482" d="M-32-17.2h2.4c3.5,0,6.3,2.3,6.3,5.9c0,3.5-2.6,5.8-6.1,5.8h-5.9v-17.8h3.3V-17.2z M-32-8.8h2.4
			c1.8,0,2.8-1,2.8-2.6s-1.1-2.5-3-2.5H-32V-8.8z"/>
		<path fill="#6B7482" d="M1.5,3.8c1.6,0,3.2,0.3,4.7,0.7v9.2H3V7.2C2.7,7.1,2,7,1.6,7c-3.7,0-6.1,2.6-6.1,6c0,3.5,2.6,5.9,6.2,5.9
			c1.6,0,2.9-0.3,4.1-0.7v3.3c-1.1,0.4-2.6,0.7-4.2,0.7C-3.7,22.1-8,18.4-8,13C-8,7.5-3.7,3.8,1.5,3.8z"/>
		<polygon fill="#6B7482" points="-24,16.4 -14.2,4.1 -11.8,4.1 -11.8,21.9 -15.1,21.9 -15.1,10.2 -24.5,21.9 -27.4,21.9 -27.4,4.1 
			-24,4.1 		"/>
		<path fill="#6B7482" d="M-54-5.5v-11.3c0-4.1,3-6.8,7.1-6.8c4,0,7.1,2.8,7.1,6.8v11.3h-3.5v-11.2c0-2.2-1.4-3.6-3.6-3.6
			c-2.1,0-3.7,1.4-3.7,3.6v11.2C-50.6-5.5-54-5.5-54-5.5z"/>
		<path fill="#6B7482" d="M-21.8,39.3c2-0.7,3.6-1.2,3.6-2.8c0-1.4-1.4-2.1-2.9-2.1c-1.8,0-3.6,0.7-5.2,1.7v-3.5
			c1.2-0.7,3.2-1.4,5.3-1.4c3,0,6.2,1.9,6.2,5.4c0,3.4-2.7,4.7-5,5.4c-3,0.9-3.5,1.6-3.5,2.4c0,1.2,1.1,1.9,2.9,1.9
			c1.6,0,3.1-0.5,4.4-1.1v3.3c-1.5,0.7-3,1-4.5,1c-3.6,0-6.1-2-6.1-5.1C-26.6,42-25,40.3-21.8,39.3z"/>
		<path fill="#6B7482" d="M-79.4-11.1c0,3.5-2.5,5.5-6,5.5h-6.1v-17.8h3.4v6.8h2.2l3.8-6.8h3.9l-4.3,7.4
			C-80.7-15.1-79.4-13.3-79.4-11.1z M-85.5-13.4h-2.6v4.7h2.5c1.6,0,2.8-0.7,2.8-2.3C-82.9-12.6-83.9-13.5-85.5-13.4z"/>
		<path fill="#6B7482" d="M-97.4,17c0,3-2.2,4.9-5.6,4.9h-6.8V4.1h6.6c4,0,6.4,2,6.4,5.3c0,1.8-0.9,3.2-2.6,4.2
			C-98.3,14.2-97.4,15.4-97.4,17z M-106.3,18.8h3.1c1.1,0,2.5-0.5,2.5-2c0-1.3-0.9-2.1-2.3-2.1h-3.2L-106.3,18.8L-106.3,18.8z
			 M-103.3,7.2h-3v4.4h3.5c1.5,0,2.5-0.9,2.5-2.2C-100.2,7.6-101.9,7.2-103.3,7.2z"/>
		<polygon fill="#6B7482" points="-83.8,34.8 -91.8,34.8 -91.8,49.3 -95.3,49.3 -95.3,31.5 -83.8,31.5 		"/>
		<polygon fill="#6B7482" points="-46.3,13.1 -38.8,21.9 -43,21.9 -50.1,13.5 -50.1,21.9 -53.5,21.9 -53.5,4.1 -50.1,4.1 
			-50.1,12.5 -42.8,4.1 -38.3,4.1 		"/>
		<path fill="#6B7482" d="M-84.5,22h-3.2l-7.4-17.9h3.6l1.8,4.7h7l1.8-4.7h3.7L-84.5,22z M-88.5,11.9l2.3,6l2.3-6H-88.5z"/>
		<path fill="#6B7482" d="M-73.7,31.3c5.1,0,9.3,4.1,9.3,9.2c0,5-4.2,9.1-9.3,9.1c-5,0-9.3-4.1-9.3-9.1
			C-83,35.3-78.8,31.3-73.7,31.3z M-73.7,46.3c3.1,0,5.7-2.6,5.7-5.9c0-3.4-2.5-5.9-5.7-5.9s-5.7,2.6-5.7,5.9
			C-79.4,43.7-76.8,46.3-73.7,46.3z"/>
		<polygon fill="#6B7482" points="-61.3,31.5 -57.4,31.5 -46.6,49.3 -50.5,49.3 -55.1,41.6 -59.9,49.3 -63.9,49.3 -57,38.6 		"/>
		<polygon fill="#6B7482" points="-71,16.4 -61.1,4.1 -58.7,4.1 -58.7,21.9 -62,21.9 -62,10.2 -71.4,21.9 -74.3,21.9 -74.3,4.1 
			-71,4.1 		"/>
		<polygon fill="#6B7482" points="-98.3,34.8 -106.3,34.8 -106.3,49.3 -109.7,49.3 -109.7,31.5 -98.3,31.5 		"/>
		<path fill="#6B7482" d="M-76.4-14.4c0-5.1,4.1-9.2,9.3-9.2c5.1,0,9.3,4,9.3,9.2c0,5-4.2,9.1-9.3,9.1C-72.1-5.3-76.4-9.4-76.4-14.4
			L-76.4-14.4z M-67.1-8.6c3.1,0,5.7-2.6,5.7-5.9c0-3.4-2.5-5.9-5.7-5.9c-3.2,0-5.7,2.6-5.7,5.9C-72.8-11.1-70.2-8.6-67.1-8.6z"/>
	</g>
	<g opacity="0.1">
		<path fill="#F6F6F6" d="M21.4,12.7c-2.9,0-6-2.7-6.4-5.8c0-0.6,0-1,0.3-1c0.7,0,2.1,4.1,4.8,4.1c0.8,0,1-0.3,1-0.6
			c0-0.6-0.9-1-0.9-1.8c0-0.1,0.1-0.3,0.3-0.3c0.7,0,1.2,1.5,3.9,1.5c0.7,0,1.4-0.1,2-0.2c0.3-0.1,0.9-0.4,0.7,0.5
			C26.5,10.9,24.4,12.7,21.4,12.7z"/>
		<path fill="#F6F6F6" d="M66.3,31.2c-0.8,0.3-0.9,0.7-0.7,1.7c0.2,1,0.2,1.5-0.2,1.6c-0.4,0.1-1-0.1-1.5-0.7
			c-0.5-0.7-1.3-1.5-1.5-2.1c-0.2-0.9,0.8-0.7,0.1-2.2c-1.3-2.3-1.6-2.8-2.2-4.5c-0.6-1.7-1-2-1.3-2.5c-0.4-0.5,0.5-0.6,1.5-0.2
			s1.1-0.9,0.7-1.7c-0.3-0.6-0.1-0.9,0.8-0.2c0.8,0.6-0.4,1.1-0.1,3.1c0.3,1.8,0.7,2.8,1.8,4.5c0.9,1.5,1.7,2.6,3.3,2.1
			C67.4,29.7,67.1,30.9,66.3,31.2z"/>
		<path fill="#F6F6F6" d="M80.1,6.9c-1.9,2.2-2.6,1.7-1.9,3.5c3,7.3,4.9,18.4-4.1,22.2c-1,0.4-1.9,0.4-1.9,0.2s1-0.5,2.2-1.3
			c6-4,4.2-14.9-1.4-20.1c-1.8-1.8-1-2.2,1.3-3.3c6.9-3.2,6.5-9,7.1-7.5C81.7,1.3,82.6,4.1,80.1,6.9z"/>
		<path fill="#F6F6F6" d="M63.9,9.3c-0.4-0.3-1.7-1.2-2.3-1.6c-2.7-1.9-6.8-2.8-8.5-2.8c-3.5,0-6.5,1-9.7,1
			c-9.6,0-13.1-7.5-12.7-11.8c0.1-0.7,0.2-0.7,0.4-0.7c0.7,0,1.2,2.6,3.6,4.8c3.5,3.3,7.3,5.2,12.7,5.2c3.9,0,5.5-1.3,5.5-1.8
			c0-1-1.7-1-1.5-2c0-0.3,0.9-1,3.4-0.7c3.8,0.4,4.4,1.3,5.1,4.2c0.3,1.3,1.3,2.8,2.2,3.7c0.6,0.6,1.1,1.1,1.7,2
			C64.1,9.1,64.2,9.4,63.9,9.3z"/>
	</g>
</symbol>
<symbol  id="_x2E_logo-pearson" viewBox="-130.9 -20.7 261.8 41.4">
	<path fill="#6B7482" d="M68.9,20.6c-10.7,0-19.7-9.1-19.7-20c0-12.3,8.4-21.3,19.9-21.3c10.9,0,19.7,9.5,19.7,21.3
		C88.8,11.7,79.8,20.6,68.9,20.6 M69-15.6c-9.2,0-12.5,9.6-12.5,16c0,5.9,3.4,15.1,12.4,15.1c8.6,0,12.5-8.7,12.5-14.9
		C81.4-7.4,77.2-15.6,69-15.6 M-118.4,20.6c7,0,14.5-3.1,14.5-11.8c0-8.4-8.2-13.4-16.7-13.4c0,1.4-0.1,2.8-0.1,4.3
		c6.5,0.5,9.9,3.6,9.9,8.8c0,4.4-3.6,7.6-8.8,7.6h-4.2c0-12.9,0.3-31.6,0.8-36.2c-2.8,0.5-5.1,0.6-7.9,0c0.7,5.6,1.1,35.5,0,40.8
		c0,0,5.2-0.2,6.4-0.2C-123.2,20.6-119.8,20.6-118.4,20.6 M-51.5,20.3c-2-7.9-10.5-30.8-14.6-40.5c2.7,0.4,5.5,0.3,6.8,0.1
		c1.4,4.4,2.8,9.5,3.5,11.5c4.2,0.3,9.2,0.3,14.2,0c1.5-4.1,2.4-7,3.8-11.5c2.6,0.3,5.2,0.2,8.1,0c-4,9.7-13.4,34.7-14.9,40.5
		C-46.7,20.1-49.3,20.1-51.5,20.3 M-54.2-3.2c0,0,3.9,11.5,5.2,15.5c0,0,4-11.4,5.5-15.5C-47.9-3.6-50.1-3.6-54.2-3.2 M-87.9-15.1
		c4.3-0.2,14.4,0.4,14.4,0.4c0-4.4-0.3-5.7-0.3-5.7c-3.8,0.5-15.2,0.8-21.4,0c0.9,9.9,0.6,30.3,0,40.8c5.7-0.5,16.6-0.4,21.3,0v-5.7
		c-4,0.4-10.3,0.8-13.9,0.7c0,0-0.1-9.4,0-11.9c6.4-0.5,11.2,0.3,13.2,0.4v-5.7c0,0-7.5,0.7-13.2,0.3C-87.9-5.2-87.9-10.8-87.9-15.1
		 M130.8-19.3c0-0.1,0.1-0.8,0.1-0.8c-1.8,0.3-4.4,0.3-6.1,0c-3.2,4.7-15.9,22.1-20.9,28.6c-0.2-9.5-0.3-23.8,0.3-28.5
		c-0.8,0-1.9,0-2.5,0c-1.7,0-2.5,0.1-4-0.1c0.8,4.9,1,35.1,0,40.4c2.4,0,4.4-0.1,5.1,0c0.6,0,1,0.1,1,0.1S117.5,2,124.6-7.5
		c0.1,3.6,0.4,21.8-0.3,27.9c1-0.1,2.1-0.5,3.3-0.5c1.1,0,2.2,0.3,3.3,0.5C130,12.7,129.6-13.5,130.8-19.3 M4.3,9.7
		c0-6.5-4.4-10.3-8.7-11.1c3.1-4,14.2-18.8,14.2-18.8c-2.8,0.4-6.9,0.4-9,0.1C-2.7-14.5-8.7-5.9-11-3.2c0,1.6-0.1,2.8-0.1,4.4
		c6.9-0.1,8.4,4.4,8.4,7.7c0,4.3-3.9,6.6-7.8,6.6h-3.4c-0.3-7.8,0.3-26.8,0.6-35.7c-2.7,0.3-5.7,0.2-7.8,0c0.9,6.5,0.8,36.1,0,40.6
		c0,0,4.3-0.3,6.1-0.2c1.7,0.1,3.2,0.2,5.2,0.2C-5.6,20.4,4.3,19.4,4.3,9.7 M33,2.9c4.4-2.8,7.8-5.5,7.8-11.5
		c0-8.7-6.8-11.8-12.7-11.8c-4.8,0-9.9,2.5-12.3,4.4c0.9,1.7,1.8,3.5,2.5,6c2.6-2.9,6.7-5,9.4-5c3.7,0,5.9,2,5.9,5.3
		c0.1,2.5-1.7,4.3-3.9,6.2c-1.7,1.4-5.8,4.1-6.8,4.9c-3.3,2.7-5.3,4.9-5.3,9.2c0,5.7,5.1,10,11.8,10c3.4,0,6.7-1,10.6-3.7
		c-1-1.4-2.3-3.7-3-5.8c-1.6,2.1-4,4.4-7.4,4.4c-3.2,0-5.2-1.8-5.2-4.8c0-1,0.7-2.1,2.1-3.4C28,6.2,30,4.8,33,2.9"/>
</symbol>
<use xlink:href="#_x2E_logo-pearson"  width="261.8" height="41.4" x="-130.9" y="-20.7" transform="matrix(0.9952 0 0 -0.9952 557.1105 298.1511)" overflow="visible"/>
<use xlink:href="#_x2E_logo-az"  width="325.6" height="81.5" x="-162.8" y="-40.8" transform="matrix(0.9975 0 0 -0.9975 258.4286 298.1015)" overflow="visible"/>
<use xlink:href="#_x2E_logo-bede"  width="180.1" height="85.1" x="-90" y="-42.5" transform="matrix(0.9983 0 0 -0.9983 783.0106 298.1509)" overflow="visible"/>
<use xlink:href="#_x2E_logo-aj"  width="296.7" height="100" id="XMLID_1_" x="-148.3" y="-50" transform="matrix(0.9987 0 0 -0.9987 1026.0494 298.1509)" overflow="visible"/>
<use xlink:href="#_x2E_logo-lloyds"  width="221.1" height="99.2" x="-110.6" y="-49.6" transform="matrix(0.9991 0 0 -0.9991 1289.6768 298.1511)" overflow="visible"/>
<use xlink:href="#_x2E_logo-cresearch"  width="254.3" height="98.2" id="XMLID_2_" x="-127.1" y="-49.1" transform="matrix(1 0 0 -1 1533.2408 297.9279)" overflow="visible"/>
</svg>
